<?xml version="1.0" encoding="utf-8"?>
<!-- Generator: Adobe Illustrator 16.0.0, SVG Export Plug-In . SVG Version: 6.00 Build 0)  -->
<!DOCTYPE svg PUBLIC "-//W3C//DTD SVG 1.1//EN" "http://www.w3.org/Graphics/SVG/1.1/DTD/svg11.dtd">
<svg version="1.1" xmlns="http://www.w3.org/2000/svg" xmlns:xlink="http://www.w3.org/1999/xlink" x="0px" y="0px"
	 width="209.759px" height="62.361px" viewBox="0 0 209.759 62.361" enable-background="new 0 0 209.759 62.361"
	 xml:space="preserve">
<g id="Layer_1">
</g>
<g id="Blindman">
</g>
<g id="Compliments">
</g>
<g id="HAT">
</g>
<g id="speech">
</g>
<g id="TREX_ARMS">
</g>
<g id="slim_shady">
</g>
<g id="TIMEOUT">
</g>
<g id="Truth_or_Dare">
</g>
<g id="ARM_WRESTLE">
</g>
<g id="musical_chairs">
</g>
<g id="never_have_i_ever">
</g>
<g id="Trivia">
</g>
<g id="Drink_Pulling">
</g>
<g id="Sharing_is_Caring">
</g>
<g id="Not_It">
</g>
<g id="Cocktail_of_Doom">
</g>
<g id="Heads_up">
</g>
<g id="Archenemy">
</g>
<g id="battle_of_the_sexes">
</g>
<g id="one_must_drink">
</g>
<g id="rainbow_connection">
</g>
<g id="social_drinking">
</g>
<g id="Spin_the_bottle">
</g>
<g id="accents">
</g>
<g id="Slap">
</g>
<g id="down_the_hatch">
</g>
<g id="rubiks_cube">
</g>
<g id="bar_tender">
</g>
<g id="codenames">
</g>
<g id="hand_switch">
</g>
<g id="make_a_rule">
</g>
<g id="no_guts_no_glory">
</g>
<g id="pass">
</g>
<g id="santa">
</g>
<g id="snake_eyes">
</g>
<g id="lightning_round">
</g>
<g id="Bro">
</g>
<g id="LeastDrunk">
</g>
<g id="Know_It_All">
</g>
<g id="EyeContact">
</g>
<g id="UnderGuesser">
</g>
<g id="GodSaveTheQUeen">
</g>
<g id="Ghost">
</g>
<g id="Fortune_Teller">
</g>
<g id="DrinkSwap">
</g>
<g id="DickTator">
</g>
<g id="_x34_Eyes">
</g>
<g id="BabyTalk">
</g>
<g id="Backseat_Driver">
</g>
<g id="BAtman">
</g>
<g id="bodyguard">
</g>
<g id="BuckleUp">
</g>
<g id="RockPaperScissors">
</g>
<g id="Roger_Roger">
</g>
<g id="RoyaleWe">
</g>
<g id="Skip">
</g>
<g id="SwineRules">
</g>
<g id="Touchy_Feeley">
</g>
<g id="Wasted_Education">
</g>
<g id="Layer_86">
</g>
<g id="PointOfNoReturn">
</g>
<g id="Pirate">
</g>
<g id="Thief">
</g>
<g id="DepthPerception">
</g>
<g id="Narcissist">
</g>
<g id="MammaBird">
</g>
<g id="Staringcontest">
</g>
<g id="Cartwheel">
</g>
<g id="Censored">
</g>
<g id="Depersonalization">
</g>
<g id="threeman">
	<g>
		<path d="M117.694,47.049c0,0.646-0.544,1.291-1.628,1.936c-0.91,0.588-1.556,0.881-1.937,0.881c-0.47,0-0.733-0.176-0.792-0.527
			c-0.088-0.617-0.176-0.969-0.264-1.057c-0.294,0.557-0.777,1.063-1.452,1.518s-1.276,0.682-1.804,0.682
			c-0.382,0-0.734-0.264-1.057-0.791c-0.234-0.439-0.455-0.881-0.66-1.32c-0.352-0.615-0.792-1.525-1.319-2.729
			c-1.232-4.664-2.611-10.809-4.137-18.436c-5.251,10.031-7.876,15.238-7.876,15.619c0,0.061,0.081,0.191,0.242,0.396
			s0.242,0.412,0.242,0.617c0,0.85-0.543,1.613-1.628,2.287c-0.88,0.527-1.599,0.793-2.156,0.793c-0.088,0-0.242-0.023-0.462-0.066
			c-0.22-0.045-0.374-0.066-0.462-0.066c-0.205,0-0.382,0.117-0.528,0.352c-0.381,0.529-0.901,1.02-1.562,1.475
			s-1.254,0.682-1.782,0.682c-0.117,0-0.235-0.014-0.352-0.043c-0.294-0.412-0.455-0.793-0.484-1.145
			c0.029-0.498,0-1.203-0.088-2.113c-0.704-3.225-1.32-6.73-1.848-10.516c-0.734-5.338-1.218-8.711-1.452-10.119
			c-0.646,2.199-1.452,5.354-2.42,9.459c-1.38,5.926-2.068,9.857-2.068,11.793c0,0.088,0.08,0.213,0.242,0.373
			c0.161,0.162,0.242,0.303,0.242,0.418c0,0.088-0.03,0.242-0.088,0.463c-0.06,0.221-0.089,0.373-0.089,0.461
			c-0.029,1.057-0.513,1.98-1.451,2.773c-0.822,0.732-1.584,1.1-2.288,1.1c-0.294,0-0.528-0.088-0.704-0.264
			c-0.147-3.314,0.322-7.48,1.408-12.496c1.144-4.605,2.288-9.197,3.432-13.771c0.059-0.059,0.059-0.162,0-0.309
			c-0.411,0.852-0.998,2.625-1.76,5.324c-1.556,5.396-2.743,10.471-3.564,15.223c0.088,0.207,0.146,0.529,0.176,0.969
			c-0.264,1.438-0.777,2.67-1.54,3.695c-0.821,1.174-1.76,1.762-2.815,1.762c-0.499,0-0.748-0.207-0.748-0.617
			c0-0.586,0.66-3.711,1.979-9.371c1.145-4.84,2.083-8.727,2.816-11.66c0.293-0.793,0.719-1.98,1.276-3.564
			c0.704-2.199,1.643-4.459,2.815-6.775c0.293-0.617,0.777-1.555,1.452-2.816c0.469-0.732,1.246-1.291,2.332-1.672
			c0.234-0.029,0.601-0.088,1.1-0.176c0.528-0.381,1.35-0.865,2.465-1.453c0.088-0.029,0.381-0.043,0.88-0.043
			c0.146,0.146,0.308,0.367,0.483,0.66c0.029,0.088,0.007,0.248-0.065,0.482c-0.074,0.236-0.11,0.367-0.11,0.396
			c-0.059,0.793,0,1.848,0.176,3.168c0.88,6.543,1.774,12.57,2.685,18.084c0.851-2.521,1.524-4.428,2.023-5.719
			c0.851-2.025,1.877-4.15,3.08-6.381c0.059-0.059,0.528-0.586,1.408-1.584c2.024-2.258,3.799-4.076,5.324-5.455
			c0.557-0.293,1.29-0.689,2.2-1.189c0.322-0.352,0.864-0.82,1.628-1.408c1.29-0.703,2.302-1.055,3.036-1.055
			c0.322,0,0.608,0.125,0.857,0.373c0.249,0.25,0.374,0.479,0.374,0.682c0,0.088-0.147,0.391-0.439,0.902
			c-0.294,0.514-0.44,0.83-0.44,0.947c0-0.117,2.391,6.16,7.172,18.832c0.146,0.41,0.469,1.643,0.968,3.695
			C117.093,44.834,117.694,47.313,117.694,47.049z M78.886,25.313v-0.307h-0.22v0.307H78.886z M98.29,23.377
			c-0.382,0.293-0.939,0.953-1.672,1.98c-0.382,0.967-0.777,1.951-1.188,2.947c0.469-0.82,1.129-1.891,1.98-3.211
			C97.732,24.594,98.026,24.023,98.29,23.377z M100.886,24.17c-0.646,0.938-1.584,2.521-2.815,4.752
			c-0.939,1.906-1.688,3.711-2.244,5.412c0.763-1.057,1.76-2.832,2.992-5.324C99.962,26.721,100.65,25.107,100.886,24.17z"/>
		<path d="M163.894,38.557c0,0.998-1.54,2.156-4.619,3.477c1.084,2.816,1.628,4.443,1.628,4.885c0,0.762-0.47,1.502-1.408,2.221
			c-0.939,0.719-1.805,1.02-2.597,0.902c-0.411-1.172-1.144-3.373-2.199-6.6c-6.513,1.701-11.499,3.168-14.96,4.4
			c-0.382,0.117-0.925,0.322-1.628,0.615c-0.382,0.264-0.756,0.514-1.122,0.748c-0.367,0.234-0.771,0.352-1.21,0.352
			c-0.499,0-0.748-0.248-0.748-0.748c0-0.615,0.293-1.797,0.88-3.541c0.586-1.746,0.88-2.779,0.88-3.102
			c0-0.117-0.016-0.191-0.044-0.221c-0.704,1.496-1.408,2.977-2.112,4.443c-1.203,2.113-2.567,3.168-4.092,3.168
			c-0.587,0-0.88-0.189-0.88-0.572c0-0.176,0.293-1.23,0.88-3.168c0.616-2.111,1.173-3.768,1.672-4.971
			c2.229-5.105,5.529-12.805,9.9-23.1c0.088-0.354,0.278-0.852,0.571-1.496c0.938-1.115,1.965-1.674,3.08-1.674
			c0.293,0,0.587,0.338,0.88,1.014c0.117,0,0.748-0.213,1.893-0.639c1.144-0.426,1.76-0.639,1.848-0.639
			c0.528,0,0.851,0.191,0.968,0.572c1.262,4.283,3.227,10.723,5.896,19.316c2.259-0.498,3.432-0.748,3.52-0.748
			c0.675,0,1.013,0.205,1.013,0.615c0,0.5-0.543,1.189-1.628,2.068c-0.676,0.5-1.35,0.998-2.024,1.496
			c0.234,1.203,0.469,1.805,0.704,1.805c0.088,0,0.799-0.227,2.134-0.682s2.061-0.684,2.178-0.684
			C163.645,38.072,163.894,38.234,163.894,38.557z M152.627,35.785c-1.236-3.723-2.385-7.535-3.445-11.436
			c-0.614,1.701-1.39,3.783-2.326,6.246c-0.233,0.559-1.58,4.209-4.037,10.953C145.428,39.525,148.697,37.605,152.627,35.785z
			 M153.994,40.889c-0.06-0.264-0.147-0.586-0.265-0.967c-0.792,0.439-1.862,1.012-3.212,1.715c0.381-0.088,0.969-0.213,1.761-0.373
			C153.07,41.102,153.642,40.977,153.994,40.889z"/>
		<path d="M201.865,17.129c0,0.527-0.418,1.094-1.254,1.693c-0.836,0.602-1.254,0.947-1.254,1.035
			c-0.47,2.375-0.852,4.84-1.144,7.393c-0.235,1.994-0.455,4.004-0.66,6.027c-0.03,0.146-0.044,1.115-0.044,2.904
			c0,2.141,0.072,3.607,0.22,4.4c0.146,0.791,0.22,1.789,0.22,2.99c0,0.998-0.015,1.57-0.044,1.717
			c-0.175,0.822-1.066,1.584-2.672,2.287c0.116,0.764-0.351,1.541-1.402,2.332c-0.935,0.676-1.737,1.014-2.409,1.014
			c-0.585,0-1.3-0.602-2.146-1.805c-0.438-0.703-0.877-1.408-1.314-2.111c-0.556-0.852-1.768-2.979-3.637-6.381
			c-1.489-2.609-3.665-6.496-6.527-11.66c-0.117,0.354-0.176,0.752-0.176,1.193v13.119c0,0.855,0.156,1.988,0.469,3.402
			c0.17,0.031,0.454,0.148,0.852,0.354c0.088,0.855-0.382,1.754-1.408,2.695c-1.027,0.941-1.979,1.34-2.859,1.193
			c-0.206-0.178-0.323-0.383-0.353-0.617c-0.411-2.088-0.616-3.633-0.616-4.633V31.955c0-2.027,0.161-5.057,0.484-9.086
			c0.146-1.793,0.381-3.41,0.704-4.852c0.088-0.439,0.645-1.102,1.672-1.984c1.437-1.234,2.464-1.852,3.08-1.852
			s1.144,0.469,1.584,1.408c1.73,4.311,3.476,8.623,5.236,12.936c2.258,5.455,4.59,9.988,6.996,13.596
			c0.028-0.029,0.044-0.16,0.044-0.396c-0.206-1.523-0.455-3.695-0.748-6.512c-0.206-2.316-0.426-5.705-0.66-10.164
			c-0.206-3.754-0.309-5.852-0.309-6.291c0-1.027,0.103-1.701,0.309-2.025c0.322-0.527,1.144-1.084,2.464-1.672
			c0.059-0.027,0.352-0.043,0.88-0.043c0.029,0.029,0.088,0.117,0.176,0.264c0.029,1.643,0.117,3.271,0.265,4.885
			c0.645-1.762,1.246-3.037,1.804-3.828c0.997-1.496,2.156-2.215,3.476-2.156c0.146,0.205,0.309,0.953,0.484,2.244
			c0.029,0.059,0.073,0.16,0.132,0.307C201.836,16.881,201.865,17.012,201.865,17.129z M178.722,21.354
			c-0.206-0.322-0.367-0.689-0.484-1.1c0,0.146-0.029,0.395-0.088,0.748c-0.06,0.352-0.088,0.602-0.088,0.748
			C178.267,21.66,178.486,21.529,178.722,21.354z M194.077,47.27c-0.059-0.117-0.109-0.309-0.153-0.572s-0.081-0.455-0.11-0.572
			c-0.117,0.059-0.338,0.234-0.66,0.527C193.563,47.006,193.872,47.211,194.077,47.27z"/>
	</g>
	<g>
		<path d="M15.722,56.213v-6.004H9.719V14.26h6.003V8.258h35.949v6.002h6.003v35.949h-6.003v6.004H15.722z M45.668,50.209v-6.002
			h6.003V32.27h-6.003v-6.004h6.003v-6.002h-6.003V14.26H21.725v6.004h-6.003v6.002h12.006v-6.002h11.938v6.002H27.728v6.004h11.938
			v11.938H27.728v-6.004H15.722v6.004h6.003v6.002H45.668z"/>
	</g>
</g>
<g id="_x32__truths_and_a_lie">
</g>
<g id="cray_cray_cat_lady">
</g>
<g id="siblings">
</g>
<g id="later">
</g>
<g id="waterfall">
</g>
<g id="cheers">
</g>
<g id="rhyme">
</g>
<g id="categories">
</g>
<g id="tits">
</g>
<g id="dicks">
</g>
<g id="questions">
</g>
<g id="double_hands">
</g>
<g id="rewind">
</g>
<g id="Cryptkeeper">
</g>
<g id="Take_2_and_Redo">
</g>
<g id="Embryo">
</g>
<g id="I_am_Groot">
</g>
<g id="Mini_Me">
</g>
<g id="Ditto_1_">
</g>
<g id="reverse">
</g>
</svg>
