<?xml version="1.0" encoding="utf-8"?>
<!-- Generator: Adobe Illustrator 16.0.0, SVG Export Plug-In . SVG Version: 6.00 Build 0)  -->
<!DOCTYPE svg PUBLIC "-//W3C//DTD SVG 1.1//EN" "http://www.w3.org/Graphics/SVG/1.1/DTD/svg11.dtd">
<svg version="1.1" xmlns="http://www.w3.org/2000/svg" xmlns:xlink="http://www.w3.org/1999/xlink" x="0px" y="0px"
	 width="209.759px" height="62.361px" viewBox="0 0 209.759 62.361" enable-background="new 0 0 209.759 62.361"
	 xml:space="preserve">
<g id="Layer_1">
</g>
<g id="Blindman">
</g>
<g id="Compliments">
</g>
<g id="HAT">
</g>
<g id="speech">
</g>
<g id="TREX_ARMS">
</g>
<g id="slim_shady">
</g>
<g id="TIMEOUT">
</g>
<g id="Truth_or_Dare">
</g>
<g id="ARM_WRESTLE">
</g>
<g id="musical_chairs">
</g>
<g id="never_have_i_ever">
</g>
<g id="Trivia">
</g>
<g id="Drink_Pulling">
</g>
<g id="Sharing_is_Caring">
</g>
<g id="Not_It">
</g>
<g id="Cocktail_of_Doom">
</g>
<g id="Heads_up">
</g>
<g id="Archenemy">
</g>
<g id="battle_of_the_sexes">
</g>
<g id="one_must_drink">
</g>
<g id="rainbow_connection">
</g>
<g id="social_drinking">
</g>
<g id="Spin_the_bottle">
</g>
<g id="accents">
</g>
<g id="Slap">
</g>
<g id="rub">
</g>
<g id="down_the_hatch">
</g>
<g id="rubiks_cube">
</g>
<g id="bar_tender">
</g>
<g id="codenames">
</g>
<g id="hand_switch">
</g>
<g id="make_a_rule">
</g>
<g id="no_guts_no_glory">
</g>
<g id="pass">
</g>
<g id="santa">
</g>
<g id="snake_eyes">
</g>
<g id="bodyguard">
</g>
<g id="threeman">
</g>
<g id="_x32__truths_and_a_lie">
</g>
<g id="cray_cray_cat_lady">
</g>
<g id="siblings">
</g>
<g id="later">
</g>
<g id="waterfall">
</g>
<g id="cheers">
</g>
<g id="rhyme">
</g>
<g id="categories">
</g>
<g id="tits">
</g>
<g id="dicks">
</g>
<g id="questions">
</g>
<g id="double_hands">
	<g>
		<path d="M66.099,21.877c-0.756,0-1.456-0.146-2.1-0.441c-0.645-0.294-1.197-0.699-1.659-1.218
			c-0.462-0.518-0.822-1.123-1.082-1.816c-0.259-0.693-0.388-1.438-0.388-2.236s0.122-1.54,0.367-2.226
			c0.245-0.687,0.584-1.288,1.019-1.807c0.434-0.518,0.952-0.924,1.554-1.218s1.26-0.441,1.975-0.441
			c0.812,0,1.543,0.196,2.194,0.588c0.65,0.393,1.158,0.903,1.522,1.533V6.337h2.813v12.096c0,0.294,0.049,0.504,0.147,0.631
			c0.098,0.126,0.266,0.195,0.504,0.21v2.394c-0.49,0.098-0.89,0.147-1.197,0.147c-0.504,0-0.917-0.126-1.239-0.379
			c-0.321-0.252-0.504-0.58-0.546-0.986l-0.063-0.693c-0.406,0.7-0.956,1.229-1.648,1.586
			C67.579,21.699,66.854,21.877,66.099,21.877z M66.834,19.484c0.266,0,0.538-0.046,0.818-0.137s0.539-0.221,0.777-0.389
			s0.451-0.364,0.641-0.588c0.188-0.224,0.332-0.469,0.431-0.735V15.01c-0.112-0.308-0.27-0.591-0.473-0.851
			c-0.203-0.259-0.435-0.482-0.693-0.672c-0.259-0.188-0.532-0.339-0.818-0.451c-0.287-0.112-0.571-0.168-0.851-0.168
			c-0.42,0-0.809,0.091-1.166,0.272c-0.356,0.183-0.661,0.431-0.913,0.746c-0.252,0.314-0.448,0.676-0.588,1.081
			c-0.141,0.406-0.21,0.826-0.21,1.26c0,0.463,0.076,0.89,0.23,1.281c0.154,0.393,0.364,0.735,0.63,1.029s0.585,0.525,0.956,0.693
			C65.976,19.4,66.386,19.484,66.834,19.484z"/>
		<path d="M82.164,21.877c-0.896,0-1.701-0.154-2.415-0.462s-1.32-0.725-1.816-1.25c-0.497-0.524-0.879-1.13-1.145-1.816
			c-0.267-0.686-0.399-1.406-0.399-2.163c0-0.77,0.133-1.497,0.399-2.184c0.266-0.686,0.647-1.291,1.145-1.816
			c0.496-0.525,1.103-0.941,1.816-1.25c0.714-0.308,1.519-0.462,2.415-0.462c0.896,0,1.697,0.154,2.404,0.462
			c0.707,0.309,1.309,0.725,1.806,1.25s0.879,1.131,1.145,1.816c0.266,0.687,0.399,1.414,0.399,2.184
			c0,0.757-0.134,1.478-0.399,2.163c-0.266,0.687-0.644,1.292-1.134,1.816c-0.49,0.525-1.092,0.942-1.806,1.25
			S83.06,21.877,82.164,21.877z M79.287,16.186c0,0.49,0.073,0.935,0.22,1.334c0.147,0.399,0.351,0.745,0.609,1.039
			s0.563,0.522,0.913,0.683c0.351,0.161,0.729,0.242,1.135,0.242c0.405,0,0.783-0.081,1.134-0.242
			c0.35-0.16,0.654-0.389,0.913-0.683s0.462-0.644,0.609-1.05c0.146-0.405,0.221-0.854,0.221-1.344c0-0.476-0.074-0.917-0.221-1.323
			c-0.147-0.405-0.351-0.756-0.609-1.05s-0.563-0.521-0.913-0.683c-0.351-0.161-0.729-0.241-1.134-0.241
			c-0.406,0-0.784,0.084-1.135,0.252c-0.35,0.168-0.654,0.398-0.913,0.693c-0.259,0.294-0.462,0.644-0.609,1.05
			C79.36,15.27,79.287,15.71,79.287,16.186z"/>
		<path d="M95.162,21.877c-1.134,0-1.994-0.364-2.583-1.092c-0.588-0.728-0.882-1.807-0.882-3.234v-6.888h2.814v6.279
			c0,1.693,0.608,2.541,1.827,2.541c0.546,0,1.074-0.165,1.585-0.494c0.511-0.328,0.928-0.829,1.25-1.501v-6.825h2.813v7.77
			c0,0.294,0.053,0.504,0.157,0.631c0.105,0.126,0.276,0.195,0.515,0.21v2.394c-0.28,0.056-0.515,0.091-0.703,0.105
			c-0.189,0.014-0.36,0.021-0.515,0.021c-0.504,0-0.913-0.115-1.229-0.347c-0.314-0.23-0.501-0.549-0.557-0.955l-0.063-0.882
			c-0.49,0.756-1.12,1.322-1.891,1.7C96.934,21.689,96.087,21.877,95.162,21.877z"/>
		<path d="M113.033,21.877c-0.84,0-1.589-0.188-2.247-0.567c-0.658-0.378-1.176-0.896-1.554-1.554v1.911h-2.457V6.337h2.813v6.258
			c0.392-0.672,0.906-1.193,1.544-1.564c0.637-0.37,1.382-0.557,2.236-0.557c0.714,0,1.365,0.154,1.953,0.462
			c0.588,0.309,1.095,0.722,1.522,1.239c0.427,0.519,0.756,1.127,0.987,1.827c0.23,0.7,0.346,1.436,0.346,2.205
			c0,0.798-0.129,1.54-0.388,2.226c-0.26,0.687-0.62,1.285-1.082,1.796s-1.008,0.913-1.638,1.207
			C114.44,21.731,113.761,21.877,113.033,21.877z M112.256,19.484c0.448,0,0.861-0.088,1.239-0.263s0.7-0.41,0.966-0.704
			s0.473-0.637,0.62-1.028c0.146-0.392,0.22-0.813,0.22-1.261c0-0.447-0.07-0.874-0.21-1.28s-0.339-0.763-0.599-1.071
			c-0.259-0.308-0.563-0.553-0.913-0.735c-0.35-0.182-0.735-0.272-1.155-0.272c-0.63,0-1.193,0.207-1.69,0.619
			c-0.497,0.413-0.879,0.921-1.145,1.522v2.625c0.098,0.28,0.242,0.532,0.431,0.756c0.189,0.225,0.402,0.417,0.641,0.578
			s0.497,0.287,0.777,0.378C111.717,19.438,111.99,19.484,112.256,19.484z"/>
		<path d="M122.063,6.337h2.814v11.802c0,0.406,0.098,0.722,0.294,0.945c0.195,0.224,0.476,0.336,0.84,0.336
			c0.168,0,0.354-0.027,0.557-0.084c0.202-0.056,0.396-0.126,0.577-0.21l0.378,2.142c-0.378,0.183-0.818,0.322-1.322,0.421
			c-0.505,0.098-0.96,0.146-1.365,0.146c-0.882,0-1.564-0.234-2.048-0.703c-0.482-0.469-0.725-1.138-0.725-2.006V6.337z"/>
		<path d="M135.839,21.877c-0.882,0-1.68-0.15-2.394-0.451s-1.323-0.711-1.827-1.229s-0.893-1.12-1.166-1.807
			c-0.272-0.686-0.409-1.406-0.409-2.163c0-0.783,0.133-1.522,0.399-2.215c0.266-0.693,0.65-1.302,1.154-1.827
			c0.505-0.525,1.116-0.941,1.838-1.25c0.721-0.308,1.529-0.462,2.426-0.462c0.896,0,1.697,0.154,2.404,0.462
			c0.707,0.309,1.309,0.722,1.806,1.239c0.497,0.519,0.875,1.12,1.134,1.807c0.26,0.686,0.389,1.399,0.389,2.142
			c0,0.182-0.003,0.357-0.01,0.525c-0.008,0.168-0.025,0.308-0.053,0.42h-8.505c0.042,0.434,0.146,0.818,0.314,1.154
			s0.385,0.623,0.651,0.861c0.266,0.238,0.566,0.42,0.903,0.546c0.336,0.126,0.686,0.189,1.05,0.189c0.56,0,1.088-0.137,1.585-0.41
			c0.497-0.272,0.837-0.633,1.019-1.081L140.963,19c-0.406,0.84-1.054,1.529-1.942,2.068S137.071,21.877,135.839,21.877z
			 M138.695,15.242c-0.07-0.826-0.375-1.487-0.914-1.984s-1.193-0.746-1.963-0.746c-0.378,0-0.732,0.066-1.061,0.2
			c-0.329,0.133-0.62,0.318-0.872,0.556c-0.252,0.238-0.458,0.525-0.619,0.861s-0.256,0.707-0.283,1.113H138.695z"/>
		<path d="M77.964,53.667H75.15v-6.174c0-0.868-0.161-1.509-0.483-1.922c-0.322-0.412-0.777-0.619-1.365-0.619
			c-0.252,0-0.518,0.056-0.798,0.168s-0.546,0.27-0.798,0.473s-0.483,0.444-0.693,0.725s-0.364,0.588-0.462,0.924v6.426h-2.813
			v-15.33h2.813v6.363c0.406-0.714,0.956-1.264,1.648-1.648c0.693-0.385,1.46-0.578,2.3-0.578c0.714,0,1.295,0.123,1.743,0.368
			s0.798,0.57,1.05,0.977s0.427,0.868,0.525,1.386c0.098,0.518,0.146,1.05,0.146,1.596V53.667z"/>
		<path d="M85.419,53.877c-0.532,0-1.029-0.088-1.491-0.263s-0.861-0.42-1.197-0.734c-0.336-0.315-0.599-0.683-0.787-1.103
			c-0.189-0.42-0.283-0.883-0.283-1.387c0-0.518,0.115-0.997,0.346-1.438c0.231-0.44,0.554-0.815,0.967-1.123
			c0.412-0.308,0.906-0.55,1.48-0.725c0.573-0.175,1.203-0.263,1.89-0.263c0.49,0,0.97,0.042,1.438,0.126s0.886,0.203,1.25,0.357
			v-0.63c0-0.729-0.207-1.288-0.62-1.681c-0.413-0.392-1.025-0.588-1.837-0.588c-0.589,0-1.163,0.105-1.723,0.315
			s-1.134,0.518-1.722,0.924l-0.861-1.785c1.414-0.938,2.94-1.407,4.578-1.407c1.582,0,2.811,0.389,3.686,1.166
			c0.875,0.776,1.313,1.9,1.313,3.37v3.423c0,0.294,0.053,0.504,0.157,0.631c0.105,0.126,0.276,0.195,0.515,0.21v2.394
			c-0.476,0.098-0.889,0.147-1.239,0.147c-0.532,0-0.941-0.119-1.229-0.357s-0.465-0.553-0.535-0.945l-0.063-0.608
			c-0.49,0.644-1.086,1.134-1.785,1.47C86.966,53.709,86.217,53.877,85.419,53.877z M86.217,51.82c0.476,0,0.928-0.084,1.354-0.252
			s0.759-0.393,0.997-0.673c0.309-0.237,0.463-0.504,0.463-0.798v-1.26c-0.337-0.126-0.701-0.228-1.093-0.305
			c-0.392-0.076-0.77-0.115-1.134-0.115c-0.729,0-1.323,0.165-1.785,0.493c-0.462,0.329-0.692,0.746-0.692,1.25
			c0,0.476,0.182,0.871,0.546,1.187C85.236,51.662,85.685,51.82,86.217,51.82z"/>
		<path d="M106.691,53.667h-2.813v-6.174c0-0.882-0.154-1.526-0.462-1.933c-0.309-0.405-0.735-0.608-1.281-0.608
			c-0.28,0-0.567,0.056-0.861,0.168s-0.57,0.27-0.829,0.473c-0.26,0.203-0.494,0.444-0.704,0.725s-0.364,0.588-0.462,0.924v6.426
			h-2.813V42.664h2.541v2.037c0.405-0.7,0.993-1.246,1.764-1.639c0.77-0.392,1.638-0.588,2.604-0.588
			c0.686,0,1.245,0.126,1.68,0.378c0.434,0.252,0.77,0.581,1.008,0.987s0.402,0.868,0.493,1.386
			c0.091,0.519,0.137,1.044,0.137,1.575V53.667z"/>
		<path d="M115.7,53.877c-0.756,0-1.456-0.146-2.1-0.441c-0.645-0.294-1.197-0.699-1.659-1.218
			c-0.462-0.518-0.822-1.123-1.082-1.816c-0.259-0.693-0.388-1.438-0.388-2.236s0.122-1.54,0.367-2.226
			c0.245-0.687,0.584-1.288,1.019-1.807c0.434-0.518,0.952-0.924,1.554-1.218s1.26-0.441,1.975-0.441
			c0.812,0,1.543,0.196,2.194,0.588c0.65,0.393,1.158,0.903,1.522,1.533v-6.258h2.813v12.096c0,0.294,0.049,0.504,0.147,0.631
			c0.098,0.126,0.266,0.195,0.504,0.21v2.394c-0.49,0.098-0.89,0.147-1.197,0.147c-0.504,0-0.917-0.126-1.239-0.379
			c-0.321-0.252-0.504-0.58-0.546-0.986l-0.063-0.693c-0.406,0.7-0.956,1.229-1.648,1.586
			C117.181,53.699,116.456,53.877,115.7,53.877z M116.436,51.484c0.266,0,0.538-0.046,0.818-0.137s0.539-0.221,0.777-0.389
			s0.451-0.364,0.641-0.588c0.188-0.224,0.332-0.469,0.431-0.735V47.01c-0.112-0.308-0.27-0.591-0.473-0.851
			c-0.203-0.259-0.435-0.482-0.693-0.672c-0.259-0.188-0.532-0.339-0.818-0.451c-0.287-0.112-0.571-0.168-0.851-0.168
			c-0.42,0-0.809,0.091-1.166,0.272c-0.356,0.183-0.661,0.431-0.913,0.746c-0.252,0.314-0.448,0.676-0.588,1.081
			c-0.141,0.406-0.21,0.826-0.21,1.26c0,0.463,0.076,0.89,0.23,1.281c0.154,0.393,0.364,0.735,0.63,1.029s0.585,0.525,0.956,0.693
			C115.577,51.4,115.987,51.484,116.436,51.484z"/>
		<path d="M130.842,53.877c-0.925,0-1.827-0.146-2.709-0.441c-0.883-0.294-1.639-0.714-2.269-1.26l1.05-1.764
			c0.672,0.476,1.326,0.837,1.964,1.081c0.637,0.245,1.271,0.368,1.9,0.368c0.56,0,1.001-0.105,1.323-0.315
			c0.321-0.21,0.482-0.511,0.482-0.903c0-0.392-0.188-0.679-0.566-0.86s-0.994-0.392-1.849-0.63
			c-0.714-0.196-1.322-0.385-1.826-0.567c-0.505-0.182-0.911-0.389-1.219-0.619c-0.308-0.231-0.532-0.497-0.672-0.798
			c-0.14-0.302-0.21-0.662-0.21-1.082c0-0.56,0.108-1.063,0.325-1.512c0.218-0.448,0.521-0.83,0.914-1.145
			c0.392-0.315,0.851-0.557,1.375-0.725c0.525-0.168,1.096-0.252,1.712-0.252c0.826,0,1.6,0.119,2.32,0.356
			c0.721,0.238,1.383,0.623,1.984,1.155l-1.134,1.701c-0.56-0.42-1.103-0.728-1.627-0.924c-0.525-0.196-1.047-0.294-1.565-0.294
			c-0.476,0-0.875,0.098-1.196,0.294c-0.322,0.196-0.483,0.511-0.483,0.944c0,0.196,0.038,0.357,0.115,0.483s0.2,0.238,0.368,0.336
			c0.168,0.099,0.389,0.192,0.661,0.283c0.273,0.092,0.612,0.187,1.019,0.284c0.756,0.196,1.403,0.392,1.942,0.588
			s0.979,0.42,1.323,0.672c0.343,0.252,0.595,0.543,0.756,0.871c0.161,0.329,0.241,0.725,0.241,1.187
			c0,1.078-0.398,1.929-1.196,2.552S132.213,53.877,130.842,53.877z"/>
	</g>
</g>
<g id="take_2">
</g>
<g id="take_3">
</g>
<g id="give_3">
</g>
<g id="give_2">
</g>
<g id="rewind">
</g>
<g id="Cryptkeeper">
</g>
<g id="Take_2_and_Redo">
</g>
<g id="Embryo">
</g>
<g id="I_am_Groot">
</g>
<g id="Mini_Me">
</g>
<g id="Ditto_1_">
</g>
</svg>
