<?xml version="1.0" encoding="utf-8"?>
<!-- Generator: Adobe Illustrator 16.0.0, SVG Export Plug-In . SVG Version: 6.00 Build 0)  -->
<!DOCTYPE svg PUBLIC "-//W3C//DTD SVG 1.1//EN" "http://www.w3.org/Graphics/SVG/1.1/DTD/svg11.dtd">
<svg version="1.1" xmlns="http://www.w3.org/2000/svg" xmlns:xlink="http://www.w3.org/1999/xlink" x="0px" y="0px"
	 width="209.759px" height="62.361px" viewBox="0 0 209.759 62.361" enable-background="new 0 0 209.759 62.361"
	 xml:space="preserve">
<g id="Layer_1">
</g>
<g id="Hat">
</g>
<g id="Compliments">
</g>
<g id="HAT">
</g>
<g id="speech">
</g>
<g id="TREX_ARMS">
</g>
<g id="slim_shady">
</g>
<g id="TIMEOUT">
</g>
<g id="Truth_or_Dare">
</g>
<g id="ARM_WRESTLE">
</g>
<g id="musical_chairs">
</g>
<g id="never_have_i_ever">
</g>
<g id="Trivia">
</g>
<g id="Drink_Pulling">
</g>
<g id="Sharing_is_Caring">
</g>
<g id="Not_It">
</g>
<g id="Cocktail_of_Doom">
</g>
<g id="Heads_up">
</g>
<g id="Archenemy">
</g>
<g id="battle_of_the_sexes">
</g>
<g id="one_must_drink">
</g>
<g id="rainbow_connection">
</g>
<g id="social_drinking">
</g>
<g id="Spin_the_bottle">
</g>
<g id="accents">
</g>
<g id="Slap">
</g>
<g id="give_3">
</g>
<g id="rub">
</g>
<g id="down_the_hatch">
</g>
<g id="rubiks_cube">
</g>
<g id="bar_tender">
</g>
<g id="codenames">
</g>
<g id="hand_switch">
</g>
<g id="make_a_rule">
</g>
<g id="no_guts_no_glory">
</g>
<g id="pass">
</g>
<g id="santa">
</g>
<g id="snake_eyes">
</g>
<g id="bodyguard">
</g>
<g id="threeman">
</g>
<g id="_x32__truths_and_a_lie">
</g>
<g id="cray_cray_cat_lady">
</g>
<g id="siblings">
</g>
<g id="take_2">
</g>
<g id="take_3">
</g>
<g id="later">
</g>
<g id="waterfall">
</g>
<g id="cheers">
</g>
<g id="rhyme">
</g>
<g id="categories">
</g>
<g id="tits">
</g>
<g id="dicks">
</g>
<g id="questions">
</g>
<g id="double_hands">
</g>
<g id="give_2">
</g>
<g id="rewind">
</g>
<g id="Cryptkeeper">
</g>
<g id="Take_2_and_Redo">
</g>
<g id="Embryo">
</g>
<g id="I_am_Groot">
	<rect y="17.121" fill="none" stroke="#000000" stroke-width="0.5" stroke-miterlimit="10" width="170.079" height="28.119"/>
	<g>
		<path d="M199.401,32.753c-0.283,0-0.491,0.01-0.622,0.028c-0.131,0.02-0.234,0.051-0.311,0.096
			c-0.076,0.044-0.141,0.109-0.191,0.196s-0.102,0.228-0.152,0.423h-0.311v-2.68h0.311c0.068,0.263,0.144,0.438,0.226,0.527
			c0.083,0.089,0.2,0.147,0.353,0.175s0.385,0.041,0.698,0.041h5.491c0.291,0,0.504-0.011,0.638-0.032
			c0.133-0.021,0.236-0.056,0.311-0.104s0.134-0.113,0.178-0.193c0.045-0.08,0.095-0.218,0.149-0.413h0.311v2.68h-0.311
			c-0.047-0.187-0.093-0.321-0.14-0.403c-0.047-0.083-0.104-0.148-0.175-0.197c-0.069-0.049-0.174-0.084-0.314-0.107
			c-0.139-0.023-0.355-0.035-0.646-0.035H199.401z"/>
		<path d="M184.814,27.521h0.311c0.043,0.212,0.09,0.369,0.141,0.473s0.121,0.182,0.212,0.232s0.213,0.076,0.365,0.076
			c0.144,0,0.3-0.018,0.467-0.051c0.167-0.034,0.354-0.083,0.562-0.146l0.818-0.234v-2.959l-0.621-0.215
			c-0.313-0.11-0.551-0.183-0.711-0.217c-0.161-0.033-0.308-0.051-0.438-0.051c-0.254,0-0.44,0.065-0.559,0.194
			s-0.196,0.327-0.235,0.593h-0.311v-2.71h0.311c0.039,0.237,0.176,0.443,0.413,0.619s0.575,0.346,1.016,0.511l7.026,2.646v1.004
			l-7.077,2.158c-0.33,0.102-0.582,0.191-0.755,0.27c-0.174,0.078-0.31,0.172-0.406,0.282c-0.098,0.11-0.17,0.261-0.217,0.45h-0.311
			V27.521z M188.242,25.083v2.653l4.094-1.206L188.242,25.083z"/>
		<path d="M193.168,41.075c-0.047-0.186-0.093-0.32-0.14-0.402c-0.047-0.083-0.104-0.148-0.175-0.197
			c-0.069-0.049-0.174-0.084-0.314-0.107c-0.139-0.023-0.355-0.035-0.646-0.035h-5.491c-0.283,0-0.491,0.01-0.622,0.028
			c-0.131,0.02-0.234,0.051-0.311,0.096c-0.076,0.044-0.141,0.109-0.191,0.196s-0.102,0.228-0.152,0.422h-0.311v-2.646h0.311
			c0.06,0.241,0.127,0.408,0.203,0.502c0.076,0.093,0.188,0.156,0.337,0.189c0.148,0.034,0.394,0.051,0.736,0.051h2.431
			c0.64,0,1.286,0.01,1.939,0.029c0.654,0.019,1.102,0.041,1.343,0.066v-0.107l-6.29-2.514v-0.73l6.392-2.336v-0.107
			c-0.258,0.021-0.726,0.041-1.403,0.06c-0.677,0.02-1.373,0.028-2.088,0.028h-2.323c-0.283,0-0.491,0.01-0.622,0.029
			c-0.131,0.019-0.234,0.051-0.311,0.095c-0.076,0.045-0.141,0.11-0.191,0.197s-0.102,0.228-0.152,0.422h-0.311v-2.317h0.311
			c0.068,0.263,0.144,0.438,0.226,0.527c0.083,0.089,0.2,0.147,0.353,0.175s0.385,0.041,0.698,0.041h5.491
			c0.291,0,0.504-0.011,0.638-0.032c0.133-0.021,0.236-0.056,0.311-0.104s0.134-0.113,0.178-0.193
			c0.045-0.08,0.095-0.218,0.149-0.413h0.311v2.267l-6.176,2.228l6.176,2.451v2.145H193.168z"/>
		<path d="M171.846,17.513l-0.133-0.495l0.495-0.463c-0.169-0.275-0.294-0.563-0.374-0.863c-0.081-0.301-0.121-0.646-0.121-1.035
			c0-1.07,0.367-1.877,1.102-2.418c0.734-0.542,1.824-0.813,3.271-0.813c0.902,0,1.693,0.147,2.375,0.443
			c0.681,0.297,1.204,0.722,1.57,1.276s0.549,1.206,0.549,1.955c0,0.394-0.021,0.772-0.066,1.136
			c-0.044,0.364-0.121,0.769-0.231,1.213h-1.745V16.82c0.381-0.113,0.678-0.249,0.892-0.406c0.214-0.156,0.366-0.344,0.457-0.562
			s0.136-0.494,0.136-0.828c0-0.461-0.147-0.865-0.443-1.212c-0.297-0.348-0.733-0.617-1.312-0.81
			c-0.577-0.192-1.274-0.289-2.091-0.289c-0.83,0-1.539,0.081-2.127,0.244s-1.031,0.405-1.33,0.728
			c-0.298,0.321-0.447,0.717-0.447,1.187c0,0.499,0.109,0.87,0.327,1.11c0.218,0.242,0.553,0.362,1.006,0.362h0.381
			c0.381,0,0.656-0.021,0.825-0.061s0.301-0.11,0.394-0.212s0.169-0.27,0.229-0.502h0.312v2.564h-0.312
			c-0.051-0.152-0.109-0.267-0.175-0.343s-0.146-0.135-0.244-0.175s-0.217-0.067-0.358-0.082s-0.344-0.022-0.606-0.022H171.846z"/>
		<path d="M175.578,21.991h-2.158c-0.305,0-0.525,0.012-0.663,0.035s-0.241,0.058-0.311,0.104c-0.07,0.047-0.127,0.11-0.172,0.19
			c-0.044,0.08-0.094,0.218-0.149,0.413h-0.311v-2.68h0.311c0.068,0.263,0.144,0.438,0.226,0.527c0.083,0.089,0.2,0.147,0.353,0.175
			s0.385,0.041,0.698,0.041h5.491c0.291,0,0.504-0.011,0.638-0.032c0.133-0.021,0.236-0.056,0.311-0.104s0.134-0.113,0.178-0.193
			c0.045-0.08,0.095-0.218,0.149-0.413h0.311v3.143c0,0.99-0.18,1.73-0.539,2.222s-0.918,0.736-1.676,0.736
			c-0.58,0-1.072-0.16-1.479-0.479s-0.725-0.799-0.953-1.438h-0.051c-0.105,0.258-0.257,0.479-0.453,0.663
			c-0.197,0.185-0.503,0.389-0.918,0.612l-1.041,0.572c-0.305,0.164-0.537,0.307-0.697,0.425c-0.161,0.118-0.284,0.239-0.369,0.362
			c-0.084,0.122-0.144,0.285-0.178,0.488h-0.311v-1.758c0.225-0.161,0.466-0.313,0.724-0.457c0.258-0.145,0.521-0.286,0.787-0.426
			l1.06-0.559c0.322-0.169,0.559-0.308,0.711-0.416c0.152-0.107,0.26-0.207,0.321-0.298s0.104-0.188,0.127-0.292
			s0.034-0.26,0.034-0.467V21.991z M179.895,21.991h-3.77v0.718c0,0.367,0.026,0.666,0.079,0.895s0.153,0.44,0.302,0.635
			c0.147,0.194,0.354,0.351,0.618,0.467s0.59,0.174,0.975,0.174c0.402,0,0.736-0.068,1.003-0.206s0.47-0.346,0.609-0.625
			s0.209-0.656,0.209-1.13C179.92,22.537,179.912,22.229,179.895,21.991z"/>
		<path d="M171.713,31.928c0-0.508,0.084-0.97,0.251-1.387s0.427-0.774,0.78-1.073c0.354-0.298,0.806-0.528,1.355-0.691
			s1.208-0.244,1.975-0.244c0.943,0,1.754,0.144,2.431,0.432c0.677,0.287,1.192,0.699,1.546,1.234s0.529,1.156,0.529,1.863
			c0,0.753-0.166,1.387-0.498,1.9c-0.332,0.515-0.82,0.901-1.466,1.162c-0.646,0.26-1.432,0.391-2.358,0.391
			c-0.99,0-1.826-0.148-2.508-0.445c-0.681-0.296-1.19-0.714-1.529-1.253C171.882,33.276,171.713,32.647,171.713,31.928z
			 M176.252,29.839c-1.3,0-2.288,0.189-2.965,0.568s-1.016,0.933-1.016,1.66c0,0.461,0.147,0.853,0.441,1.174
			c0.294,0.322,0.725,0.563,1.291,0.725c0.567,0.16,1.229,0.24,1.987,0.24c0.923,0,1.688-0.094,2.295-0.282s1.048-0.445,1.323-0.771
			c0.275-0.326,0.412-0.705,0.412-1.137c0-0.381-0.088-0.708-0.266-0.98c-0.178-0.273-0.431-0.5-0.759-0.68s-0.725-0.311-1.19-0.394
			C177.341,29.881,176.822,29.839,176.252,29.839z"/>
		<path d="M171.713,41.098c0-0.508,0.084-0.97,0.251-1.387s0.427-0.774,0.78-1.073c0.354-0.298,0.806-0.528,1.355-0.691
			s1.208-0.244,1.975-0.244c0.943,0,1.754,0.144,2.431,0.432c0.677,0.287,1.192,0.699,1.546,1.234s0.529,1.156,0.529,1.863
			c0,0.753-0.166,1.387-0.498,1.9c-0.332,0.515-0.82,0.901-1.466,1.162c-0.646,0.26-1.432,0.391-2.358,0.391
			c-0.99,0-1.826-0.148-2.508-0.445c-0.681-0.296-1.19-0.714-1.529-1.253C171.882,42.446,171.713,41.817,171.713,41.098z
			 M176.252,39.009c-1.3,0-2.288,0.189-2.965,0.568s-1.016,0.933-1.016,1.66c0,0.461,0.147,0.853,0.441,1.174
			c0.294,0.322,0.725,0.563,1.291,0.725c0.567,0.16,1.229,0.24,1.987,0.24c0.923,0,1.688-0.094,2.295-0.282s1.048-0.445,1.323-0.771
			c0.275-0.326,0.412-0.705,0.412-1.137c0-0.381-0.088-0.708-0.266-0.98c-0.178-0.273-0.431-0.5-0.759-0.68s-0.725-0.311-1.19-0.394
			C177.341,39.051,176.822,39.009,176.252,39.009z"/>
		<path d="M180.479,46.356v6.868h-2.209v-0.622c0.364-0.093,0.652-0.186,0.863-0.276c0.212-0.091,0.373-0.188,0.482-0.289
			c0.11-0.102,0.188-0.21,0.235-0.326s0.069-0.291,0.069-0.523v-0.807h-6.5c-0.249,0-0.448,0.014-0.596,0.041
			c-0.148,0.027-0.266,0.07-0.353,0.127c-0.087,0.058-0.154,0.135-0.203,0.232c-0.049,0.097-0.097,0.249-0.144,0.457h-0.311v-2.901
			h0.311c0.03,0.127,0.062,0.239,0.096,0.337c0.034,0.097,0.075,0.176,0.124,0.237s0.11,0.112,0.187,0.152s0.181,0.072,0.312,0.096
			s0.323,0.034,0.577,0.034h6.5v-0.799c0-0.199-0.019-0.363-0.057-0.492s-0.117-0.249-0.238-0.359
			c-0.12-0.109-0.292-0.21-0.514-0.301c-0.223-0.091-0.503-0.177-0.842-0.258v-0.628H180.479z"/>
	</g>
	<g>
		<polyline fill="none" stroke="#000000" stroke-width="0.5" stroke-miterlimit="10" points="0,35.446 0,45.24 5.669,45.24 
			5.669,35.446 		"/>
		<polyline fill="none" stroke="#000000" stroke-width="0.5" stroke-miterlimit="10" points="5.669,35.446 5.669,45.24 
			11.338,45.24 11.338,35.446 		"/>
		<polyline fill="none" stroke="#000000" stroke-width="0.5" stroke-miterlimit="10" points="11.338,35.446 11.338,45.24 
			17.007,45.24 17.007,35.446 		"/>
	</g>
	<g>
		<polyline fill="none" stroke="#000000" stroke-width="0.5" stroke-miterlimit="10" points="17.007,35.446 17.007,45.24 
			22.676,45.24 22.676,35.446 		"/>
		<polyline fill="none" stroke="#000000" stroke-width="0.5" stroke-miterlimit="10" points="22.676,35.446 22.676,45.24 
			28.345,45.24 28.345,35.446 		"/>
		<polyline fill="none" stroke="#000000" stroke-width="0.5" stroke-miterlimit="10" points="28.345,35.446 28.345,45.24 
			34.014,45.24 34.014,35.446 		"/>
	</g>
	<g>
		<polyline fill="none" stroke="#000000" stroke-width="0.5" stroke-miterlimit="10" points="34.014,35.446 34.014,45.24 
			39.683,45.24 39.683,35.446 		"/>
		<polyline fill="none" stroke="#000000" stroke-width="0.5" stroke-miterlimit="10" points="39.683,35.446 39.683,45.24 
			45.352,45.24 45.352,35.446 		"/>
		<polyline fill="none" stroke="#000000" stroke-width="0.5" stroke-miterlimit="10" points="45.352,35.446 45.352,45.24 
			51.021,45.24 51.021,35.446 		"/>
	</g>
	<g>
		<polyline fill="none" stroke="#000000" stroke-width="0.5" stroke-miterlimit="10" points="51.021,35.446 51.021,45.24 
			56.689,45.24 56.689,35.446 		"/>
		<polyline fill="none" stroke="#000000" stroke-width="0.5" stroke-miterlimit="10" points="56.689,35.446 56.689,45.24 
			62.358,45.24 62.358,35.446 		"/>
		<polyline fill="none" stroke="#000000" stroke-width="0.5" stroke-miterlimit="10" points="62.358,35.446 62.358,45.24 
			68.027,45.24 68.027,35.446 		"/>
	</g>
	<g>
		<polyline fill="none" stroke="#000000" stroke-width="0.5" stroke-miterlimit="10" points="68.033,35.446 68.033,45.24 
			73.702,45.24 73.702,35.446 		"/>
		<polyline fill="none" stroke="#000000" stroke-width="0.5" stroke-miterlimit="10" points="73.702,35.446 73.702,45.24 
			79.371,45.24 79.371,35.446 		"/>
		<polyline fill="none" stroke="#000000" stroke-width="0.5" stroke-miterlimit="10" points="79.371,35.446 79.371,45.24 
			85.04,45.24 85.04,35.446 		"/>
	</g>
	<g>
		<polyline fill="none" stroke="#000000" stroke-width="0.5" stroke-miterlimit="10" points="85.04,35.446 85.04,45.24 
			90.709,45.24 90.709,35.446 		"/>
		<polyline fill="none" stroke="#000000" stroke-width="0.5" stroke-miterlimit="10" points="90.709,35.446 90.709,45.24 
			96.378,45.24 96.378,35.446 		"/>
		<polyline fill="none" stroke="#000000" stroke-width="0.5" stroke-miterlimit="10" points="96.378,35.446 96.378,45.24 
			102.047,45.24 102.047,35.446 		"/>
	</g>
	<g>
		<polyline fill="none" stroke="#000000" stroke-width="0.5" stroke-miterlimit="10" points="102.047,35.446 102.047,45.24 
			107.716,45.24 107.716,35.446 		"/>
		<polyline fill="none" stroke="#000000" stroke-width="0.5" stroke-miterlimit="10" points="107.716,35.446 107.716,45.24 
			113.385,45.24 113.385,35.446 		"/>
		<polyline fill="none" stroke="#000000" stroke-width="0.5" stroke-miterlimit="10" points="113.385,35.446 113.385,45.24 
			119.054,45.24 119.054,35.446 		"/>
	</g>
	<g>
		<polyline fill="none" stroke="#000000" stroke-width="0.5" stroke-miterlimit="10" points="119.06,35.446 119.06,45.24 
			124.729,45.24 124.729,35.446 		"/>
		<polyline fill="none" stroke="#000000" stroke-width="0.5" stroke-miterlimit="10" points="124.729,35.446 124.729,45.24 
			130.397,45.24 130.397,35.446 		"/>
		<polyline fill="none" stroke="#000000" stroke-width="0.5" stroke-miterlimit="10" points="130.397,35.446 130.397,45.24 
			136.066,45.24 136.066,35.446 		"/>
	</g>
	<g>
		<polyline fill="none" stroke="#000000" stroke-width="0.5" stroke-miterlimit="10" points="136.066,35.446 136.066,45.24 
			141.735,45.24 141.735,35.446 		"/>
		<polyline fill="none" stroke="#000000" stroke-width="0.5" stroke-miterlimit="10" points="141.735,35.446 141.735,45.24 
			147.404,45.24 147.404,35.446 		"/>
		<polyline fill="none" stroke="#000000" stroke-width="0.5" stroke-miterlimit="10" points="147.404,35.446 147.404,45.24 
			153.073,45.24 153.073,35.446 		"/>
	</g>
</g>
<g id="Mini_Me">
</g>
<g id="Ditto_1_">
</g>
</svg>
