<?xml version="1.0" encoding="utf-8"?>
<!-- Generator: Adobe Illustrator 16.0.0, SVG Export Plug-In . SVG Version: 6.00 Build 0)  -->
<!DOCTYPE svg PUBLIC "-//W3C//DTD SVG 1.1//EN" "http://www.w3.org/Graphics/SVG/1.1/DTD/svg11.dtd">
<svg version="1.1" xmlns="http://www.w3.org/2000/svg" xmlns:xlink="http://www.w3.org/1999/xlink" x="0px" y="0px"
	 width="209.759px" height="62.361px" viewBox="0 0 209.759 62.361" enable-background="new 0 0 209.759 62.361"
	 xml:space="preserve">
<g id="Layer_1">
</g>
<g id="Blindman">
</g>
<g id="Compliments">
</g>
<g id="HAT">
</g>
<g id="speech">
</g>
<g id="TREX_ARMS">
</g>
<g id="slim_shady">
</g>
<g id="TIMEOUT">
</g>
<g id="Truth_or_Dare">
</g>
<g id="ARM_WRESTLE">
</g>
<g id="musical_chairs">
</g>
<g id="never_have_i_ever">
</g>
<g id="Trivia">
</g>
<g id="Drink_Pulling">
</g>
<g id="Sharing_is_Caring">
</g>
<g id="Not_It">
</g>
<g id="Cocktail_of_Doom">
</g>
<g id="Heads_up">
</g>
<g id="Archenemy">
</g>
<g id="battle_of_the_sexes">
</g>
<g id="one_must_drink">
</g>
<g id="rainbow_connection">
</g>
<g id="social_drinking">
</g>
<g id="Spin_the_bottle">
</g>
<g id="accents">
</g>
<g id="Slap">
</g>
<g id="down_the_hatch">
</g>
<g id="rubiks_cube">
</g>
<g id="bar_tender">
</g>
<g id="codenames">
</g>
<g id="hand_switch">
</g>
<g id="make_a_rule">
</g>
<g id="no_guts_no_glory">
</g>
<g id="pass">
</g>
<g id="santa">
</g>
<g id="snake_eyes">
</g>
<g id="lightning_round">
</g>
<g id="Bro">
</g>
<g id="LeastDrunk">
</g>
<g id="Know_It_All">
</g>
<g id="EyeContact">
</g>
<g id="UnderGuesser">
</g>
<g id="GodSaveTheQUeen">
</g>
<g id="Ghost">
	<g>
		<path d="M59.608,34.848c0.103-0.396,0.169-0.799,0.198-1.211c0.029-0.41,0.08-0.813,0.154-1.209
			c0.073-0.498,0.242-1.045,0.506-1.639s0.598-1.145,1.001-1.65s0.861-0.932,1.375-1.275c0.513-0.346,1.056-0.518,1.628-0.518
			c0.337,0,0.689,0.07,1.056,0.209c0.367,0.139,0.689,0.305,0.969,0.494c0.146,0.088,0.285,0.209,0.418,0.363
			c0.132,0.154,0.293,0.23,0.483,0.23c0.117,0,0.205-0.057,0.265-0.176c0.058-0.117,0.128-0.248,0.209-0.395
			c0.08-0.146,0.187-0.279,0.318-0.396s0.33-0.176,0.594-0.176c0.221,0,0.396,0.059,0.528,0.176s0.198,0.293,0.198,0.527v2.42
			c-0.044,0.162-0.073,0.418-0.088,0.77c-0.015,0.354-0.052,0.709-0.11,1.068s-0.161,0.674-0.308,0.945
			c-0.147,0.271-0.382,0.408-0.704,0.408c-0.294,0-0.503-0.1-0.627-0.299c-0.125-0.197-0.224-0.449-0.297-0.758
			c-0.074-0.309-0.147-0.635-0.221-0.979c-0.073-0.346-0.201-0.672-0.385-0.98c-0.184-0.307-0.447-0.561-0.792-0.758
			c-0.345-0.199-0.817-0.297-1.419-0.297c-0.704,0-1.25,0.227-1.639,0.682s-0.686,1.004-0.892,1.65
			c-0.059,0.16-0.095,0.293-0.109,0.395c-0.015,0.104-0.03,0.191-0.044,0.266c-0.015,0.072-0.037,0.15-0.066,0.23
			s-0.073,0.188-0.132,0.318v4.225c0,0.338,0.073,0.73,0.22,1.176c0.146,0.449,0.345,0.873,0.594,1.277
			c0.25,0.402,0.551,0.744,0.902,1.023c0.353,0.277,0.74,0.418,1.166,0.418s0.807-0.104,1.145-0.309
			c0.337-0.205,0.623-0.469,0.857-0.793c0.234-0.322,0.414-0.688,0.539-1.1c0.124-0.41,0.188-0.814,0.188-1.209
			c0-0.059,0-0.146,0-0.266c0-0.131-0.008-0.205-0.022-0.219l-0.154-0.176c-0.19-0.016-0.393-0.041-0.604-0.078
			c-0.213-0.035-0.411-0.094-0.594-0.176c-0.184-0.08-0.334-0.189-0.451-0.33c-0.118-0.139-0.176-0.332-0.176-0.582
			s0.072-0.492,0.22-0.727c0.146-0.234,0.359-0.352,0.638-0.352c0.47,0,0.938,0.043,1.408,0.131
			c0.469,0.088,0.938,0.133,1.408,0.133c0.205,0,0.406-0.014,0.604-0.045c0.198-0.029,0.399-0.043,0.605-0.043
			c0.176,0,0.348,0.012,0.517,0.033s0.319,0.066,0.451,0.131c0.132,0.066,0.238,0.162,0.319,0.287
			c0.08,0.125,0.121,0.289,0.121,0.494c0,0.279-0.07,0.496-0.21,0.65c-0.139,0.152-0.315,0.264-0.527,0.33
			c-0.213,0.064-0.44,0.105-0.683,0.119c-0.241,0.016-0.458,0.023-0.648,0.023c-0.073,0.029-0.121,0.102-0.144,0.219
			c-0.021,0.119-0.032,0.191-0.032,0.221v2.486c-0.06,0.162-0.088,0.314-0.088,0.461c0,0.133,0,0.279,0,0.441
			c0,0.189,0.014,0.369,0.044,0.539c0.029,0.168,0.044,0.34,0.044,0.516c0,0.324-0.096,0.625-0.286,0.902
			c-0.191,0.279-0.455,0.418-0.792,0.418c-0.191,0-0.341-0.043-0.451-0.131s-0.202-0.188-0.275-0.297
			c-0.073-0.111-0.14-0.209-0.197-0.299c-0.06-0.088-0.133-0.131-0.221-0.131c-0.132,0-0.268,0.037-0.406,0.109
			c-0.14,0.074-0.283,0.158-0.43,0.254s-0.286,0.189-0.418,0.285s-0.264,0.166-0.396,0.209c-0.162,0.074-0.309,0.107-0.44,0.1
			s-0.286-0.012-0.462-0.012c-0.543,0-1.06-0.117-1.551-0.352c-0.492-0.234-0.936-0.543-1.331-0.924
			c-0.396-0.381-0.737-0.814-1.023-1.299c-0.286-0.482-0.487-0.975-0.604-1.473c-0.118-0.396-0.194-0.801-0.231-1.211
			c-0.036-0.41-0.106-0.814-0.209-1.209V34.848z"/>
		<path d="M74.282,41.854c0.089-0.211,0.279-0.318,0.572-0.318c0.176,0,0.326,0.033,0.451,0.1c0.124,0.066,0.275,0.1,0.451,0.1
			c0.044,0,0.139-0.008,0.286-0.023c0.059-0.029,0.139-0.088,0.241-0.176s0.154-0.146,0.154-0.176v-4.818l0.132-0.418v-2.838
			c-0.015-0.029-0.032-0.102-0.055-0.219c-0.021-0.117-0.033-0.191-0.033-0.221c0-0.088-0.007-0.234-0.021-0.439
			s-0.026-0.43-0.033-0.672c-0.008-0.242-0.015-0.469-0.022-0.682c-0.007-0.213-0.011-0.363-0.011-0.451
			c-0.029-0.059-0.073-0.129-0.132-0.209s-0.132-0.121-0.22-0.121h-1.21c-0.088,0-0.165-0.047-0.231-0.143
			c-0.065-0.096-0.129-0.209-0.187-0.342c-0.06-0.131-0.104-0.264-0.133-0.396c-0.029-0.131-0.044-0.227-0.044-0.285
			c0-0.279,0.073-0.488,0.221-0.627c0.146-0.139,0.322-0.23,0.527-0.275c0.205-0.043,0.426-0.066,0.66-0.066
			c0.249,0,0.47-0.006,0.66-0.021c0.029,0,0.099-0.014,0.209-0.043s0.18-0.045,0.209-0.045h0.132c0.366,0,0.704,0.113,1.013,0.342
			c0.308,0.227,0.462,0.547,0.462,0.957V34.1c0.029,0,0.076,0.008,0.143,0.021c0.066,0.016,0.113,0.021,0.143,0.021
			c0.117-0.027,0.217-0.131,0.298-0.307c0.08-0.176,0.157-0.309,0.23-0.396c0.382-0.439,0.825-0.791,1.331-1.057
			c0.506-0.264,1.053-0.395,1.639-0.395c0.455,0,0.869,0.08,1.243,0.24c0.374,0.162,0.686,0.387,0.936,0.672
			c0.249,0.285,0.443,0.623,0.583,1.012c0.139,0.389,0.209,0.811,0.209,1.266v5.939l0.264,0.242c0.19,0.016,0.385,0.037,0.583,0.066
			s0.374,0.088,0.528,0.176c0.153,0.088,0.278,0.205,0.374,0.352c0.095,0.146,0.143,0.338,0.143,0.572
			c0,0.381-0.146,0.656-0.439,0.824c-0.294,0.17-0.616,0.254-0.969,0.254c-0.117,0-0.234-0.014-0.352-0.045
			c-0.118-0.029-0.235-0.043-0.353-0.043c-0.264,0-0.521,0.018-0.77,0.055c-0.25,0.037-0.506,0.055-0.771,0.055
			c-0.073,0-0.224-0.004-0.45-0.01c-0.228-0.008-0.378-0.012-0.451-0.012c-0.132-0.029-0.271-0.059-0.418-0.088
			c-0.147-0.029-0.283-0.076-0.407-0.143c-0.125-0.066-0.224-0.15-0.297-0.254c-0.073-0.102-0.11-0.242-0.11-0.418
			c0-0.293,0.04-0.494,0.121-0.605c0.081-0.109,0.245-0.268,0.495-0.473c0.103-0.072,0.209-0.123,0.319-0.154
			c0.109-0.029,0.223-0.051,0.341-0.064c0.117-0.016,0.23-0.033,0.341-0.057c0.11-0.021,0.209-0.068,0.297-0.143
			c0-0.117,0.008-0.326,0.022-0.627c0.014-0.301,0.025-0.623,0.032-0.967c0.008-0.346,0.015-0.668,0.022-0.969
			c0.007-0.301,0.011-0.51,0.011-0.627v-1.408c0-0.25,0.012-0.523,0.033-0.824c0.022-0.301,0.007-0.58-0.044-0.836
			c-0.052-0.258-0.154-0.475-0.308-0.65c-0.154-0.176-0.407-0.264-0.76-0.264c-0.469,0-0.898,0.121-1.286,0.363
			c-0.39,0.242-0.73,0.547-1.023,0.912c-0.294,0.367-0.547,0.768-0.759,1.199c-0.213,0.434-0.378,0.848-0.495,1.244
			c0,0.014-0.008,0.051-0.022,0.109s-0.025,0.121-0.032,0.188c-0.008,0.066-0.016,0.129-0.022,0.188
			c-0.008,0.059-0.011,0.094-0.011,0.109c-0.015,0.029-0.033,0.104-0.056,0.221c-0.021,0.117-0.032,0.189-0.032,0.219v2.156
			c0,0.205,0.099,0.334,0.297,0.385c0.198,0.053,0.414,0.104,0.648,0.154s0.451,0.15,0.649,0.297s0.297,0.426,0.297,0.836v0.396
			c-0.205,0.279-0.439,0.451-0.704,0.518c-0.264,0.064-0.558,0.098-0.88,0.098c-0.264,0-0.517-0.018-0.759-0.055
			s-0.488-0.055-0.737-0.055c-0.293,0-0.572,0.043-0.836,0.133c-0.264,0.088-0.543,0.131-0.836,0.131
			c-0.338,0-0.649-0.117-0.935-0.352c-0.286-0.234-0.43-0.527-0.43-0.881C74.15,42.299,74.194,42.066,74.282,41.854z"/>
		<path d="M89.847,35.662c0.198-0.777,0.51-1.467,0.936-2.068c0.425-0.602,0.972-1.082,1.639-1.441s1.463-0.539,2.387-0.539
			c0.704,0,1.313,0.137,1.826,0.406c0.514,0.273,1.026,0.629,1.54,1.068c0.015,0.014,0.029,0.033,0.044,0.055
			s0.029,0.033,0.044,0.033c0.177,0.338,0.355,0.67,0.539,1s0.353,0.668,0.506,1.014c0.154,0.344,0.279,0.695,0.374,1.055
			c0.096,0.359,0.144,0.73,0.144,1.111c0,0.045-0.004,0.129-0.011,0.254c-0.008,0.123-0.012,0.201-0.012,0.23
			c-0.029,0.088-0.069,0.246-0.121,0.473c-0.051,0.229-0.109,0.469-0.176,0.727c-0.065,0.256-0.128,0.502-0.187,0.736
			s-0.096,0.396-0.11,0.484c-0.117,0.396-0.319,0.814-0.604,1.254c-0.286,0.439-0.62,0.84-1.001,1.199
			c-0.382,0.359-0.796,0.656-1.243,0.891c-0.448,0.234-0.892,0.352-1.331,0.352c-0.221,0-0.389-0.014-0.506-0.043
			c-0.118-0.029-0.217-0.066-0.298-0.111c-0.08-0.043-0.164-0.092-0.253-0.143c-0.088-0.051-0.212-0.1-0.374-0.143
			c-0.073-0.014-0.212-0.037-0.418-0.066c-0.205-0.029-0.352-0.059-0.439-0.088c-0.073-0.029-0.173-0.076-0.297-0.143
			c-0.125-0.066-0.25-0.133-0.374-0.199c-0.125-0.064-0.242-0.123-0.353-0.176c-0.109-0.051-0.172-0.084-0.187-0.098
			c-0.294-0.191-0.562-0.484-0.803-0.881c-0.242-0.396-0.451-0.82-0.628-1.275c-0.176-0.455-0.312-0.91-0.406-1.365
			c-0.096-0.453-0.144-0.842-0.144-1.166C89.55,37.238,89.649,36.439,89.847,35.662z M91.475,38.566
			c0.022,0.205,0.056,0.41,0.1,0.615s0.099,0.4,0.165,0.582c0.065,0.184,0.143,0.32,0.23,0.408l1.034,1.033
			c0.161,0.045,0.29,0.074,0.385,0.088c0.096,0.016,0.194,0.029,0.298,0.045c0.102,0.014,0.19,0.021,0.264,0.021
			c0.015,0.016,0.117,0.021,0.308,0.021c0.205,0,0.359,0,0.462,0c0.294,0,0.547-0.002,0.76-0.01c0.212-0.008,0.45-0.063,0.715-0.166
			c0.63-0.514,1.048-1.066,1.254-1.66c0.205-0.594,0.308-1.279,0.308-2.057c0-0.455-0.048-0.877-0.143-1.266
			c-0.096-0.389-0.224-0.795-0.385-1.221c-0.074-0.191-0.195-0.35-0.363-0.473c-0.169-0.125-0.353-0.234-0.55-0.33
			c-0.198-0.096-0.404-0.18-0.616-0.254c-0.213-0.072-0.393-0.154-0.539-0.242h-1.386c-0.015,0-0.11,0.055-0.286,0.166
			c-0.176,0.109-0.309,0.193-0.396,0.252c-0.352,0.25-0.635,0.521-0.847,0.814c-0.213,0.293-0.382,0.605-0.506,0.936
			c-0.125,0.33-0.206,0.678-0.242,1.045c-0.037,0.367-0.055,0.756-0.055,1.166C91.442,38.199,91.453,38.359,91.475,38.566z"/>
		<path d="M102.387,42.162c0.007-0.096,0.047-0.217,0.12-0.363v-2.596c0-0.205,0.081-0.369,0.242-0.494s0.338-0.188,0.528-0.188
			c0.088,0,0.187,0.012,0.297,0.033s0.201,0.07,0.275,0.143c0.103,0.117,0.161,0.262,0.176,0.43s0.065,0.311,0.154,0.428
			c0.19,0.266,0.377,0.518,0.561,0.76s0.385,0.455,0.605,0.639c0.22,0.184,0.465,0.33,0.736,0.439s0.583,0.164,0.936,0.164
			c0.308,0,0.619-0.031,0.935-0.098s0.602-0.172,0.858-0.32c0.256-0.146,0.469-0.34,0.638-0.582s0.253-0.539,0.253-0.891
			c0-0.25-0.04-0.447-0.121-0.594s-0.245-0.271-0.495-0.375c-0.454-0.146-0.932-0.248-1.43-0.309
			c-0.499-0.059-0.99-0.117-1.474-0.176c-0.484-0.059-0.95-0.139-1.397-0.242c-0.447-0.102-0.836-0.27-1.166-0.506
			c-0.33-0.234-0.594-0.557-0.792-0.967s-0.297-0.953-0.297-1.629c0-0.777,0.187-1.393,0.561-1.848s0.913-0.828,1.617-1.121
			c0.161-0.074,0.334-0.137,0.518-0.188c0.183-0.051,0.37-0.078,0.561-0.078h0.198c0.528,0.074,1.066,0.188,1.617,0.342
			c0.55,0.154,1.045,0.385,1.484,0.693c0.103-0.074,0.188-0.162,0.253-0.264c0.066-0.104,0.133-0.199,0.198-0.287
			c0.066-0.088,0.144-0.16,0.231-0.219s0.205-0.09,0.352-0.09c0.205,0,0.393,0.078,0.562,0.232c0.168,0.154,0.245,0.334,0.23,0.539
			c0,0.088,0.004,0.246,0.011,0.473c0.008,0.227,0.015,0.469,0.022,0.727c0.007,0.256,0.019,0.498,0.033,0.725
			c0.015,0.229,0.021,0.385,0.021,0.473v0.266c0,0.264-0.077,0.531-0.23,0.803c-0.154,0.271-0.386,0.406-0.693,0.406
			c-0.264,0-0.473-0.117-0.627-0.352s-0.297-0.502-0.429-0.803s-0.286-0.59-0.462-0.869c-0.177-0.279-0.426-0.463-0.748-0.551
			c-0.206-0.059-0.363-0.098-0.474-0.121c-0.109-0.021-0.216-0.039-0.318-0.055c-0.104-0.014-0.213-0.021-0.33-0.021
			c-0.118,0-0.279,0-0.484,0c-0.059,0-0.19,0.004-0.396,0.012c-0.206,0.006-0.345,0.01-0.418,0.01
			c-0.133,0.045-0.265,0.111-0.396,0.199s-0.253,0.193-0.363,0.318c-0.109,0.125-0.197,0.26-0.264,0.406s-0.099,0.287-0.099,0.418
			c0,0.338,0.084,0.594,0.253,0.771c0.168,0.176,0.399,0.301,0.692,0.373c0.821-0.029,1.657,0.029,2.509,0.176
			c0.85,0.146,1.649,0.375,2.397,0.682c0.382,0.354,0.708,0.76,0.979,1.221c0.271,0.463,0.406,0.965,0.406,1.508
			c0,0.559-0.117,1.07-0.352,1.541c-0.234,0.469-0.547,0.875-0.935,1.221c-0.39,0.344-0.829,0.611-1.32,0.803
			c-0.492,0.189-1.001,0.285-1.529,0.285c-0.088,0-0.205-0.004-0.352-0.01c-0.147-0.008-0.228-0.012-0.242-0.012
			c-0.029,0-0.092-0.012-0.188-0.033c-0.095-0.021-0.197-0.047-0.308-0.076s-0.217-0.059-0.319-0.088s-0.176-0.053-0.22-0.066
			c-0.264-0.074-0.499-0.217-0.704-0.43s-0.433-0.385-0.682-0.518c-0.088,0.045-0.15,0.137-0.188,0.275
			c-0.036,0.141-0.08,0.287-0.132,0.441c-0.052,0.152-0.14,0.289-0.264,0.406c-0.125,0.117-0.319,0.176-0.583,0.176
			c-0.323,0-0.539-0.129-0.649-0.385c-0.109-0.256-0.165-0.518-0.165-0.781C102.375,42.379,102.379,42.258,102.387,42.162z"/>
		<path d="M118.194,37.543c-0.029-0.557,0.044-1.076,0.22-1.561v-2.438h-2.771c-0.206,0-0.371-0.102-0.495-0.307
			c-0.125-0.205-0.188-0.395-0.188-0.57c0-0.264,0.085-0.484,0.253-0.658c0.169-0.176,0.342-0.346,0.518-0.506
			c0.176-0.148,0.385-0.229,0.627-0.244c0.242-0.014,0.487-0.021,0.736-0.021c0.265,0,0.51-0.025,0.737-0.078
			c0.228-0.051,0.422-0.195,0.583-0.432c0.146-0.221,0.22-0.516,0.22-0.885c0-0.367,0.012-0.732,0.033-1.094
			c0.022-0.361,0.1-0.672,0.231-0.93s0.41-0.387,0.836-0.387c0.425,0,0.686,0.129,0.781,0.387c0.095,0.258,0.143,0.564,0.143,0.918
			c0,0.34-0.019,0.672-0.055,0.996c-0.037,0.324-0.056,0.664-0.056,1.018c0,0.088,0,0.221,0,0.398c0,0.176,0.008,0.271,0.022,0.287
			l0.154,0.154c0.014,0.014,0.117,0.021,0.308,0.021c0.205,0,0.366,0,0.484,0c0.308,0,0.604-0.018,0.891-0.055
			s0.575-0.055,0.869-0.055c0.337,0,0.616,0.131,0.836,0.396c0.22,0.264,0.33,0.549,0.33,0.857c0,0.293-0.092,0.547-0.275,0.758
			c-0.184,0.213-0.422,0.32-0.715,0.32c-0.366,0-0.708-0.049-1.022-0.143c-0.316-0.096-0.687-0.145-1.111-0.145
			c-0.088,0-0.217,0.004-0.385,0.012c-0.169,0.008-0.261,0.018-0.275,0.033l-0.264,0.242v6.098c0,0.117,0.04,0.248,0.121,0.395
			c0.08,0.146,0.183,0.285,0.308,0.416c0.124,0.133,0.26,0.246,0.407,0.34c0.146,0.096,0.286,0.143,0.418,0.143
			c0.352,0,0.63-0.084,0.836-0.252c0.205-0.168,0.363-0.377,0.473-0.627c0.11-0.25,0.198-0.518,0.265-0.803
			c0.065-0.287,0.135-0.555,0.209-0.803c0.073-0.25,0.176-0.459,0.308-0.627c0.132-0.17,0.322-0.254,0.572-0.254
			c0.366,0,0.623,0.133,0.77,0.396s0.22,0.549,0.22,0.857c0,0.5-0.073,1.006-0.22,1.518c-0.146,0.514-0.363,0.98-0.648,1.398
			c-0.286,0.418-0.643,0.762-1.067,1.033c-0.426,0.271-0.917,0.406-1.474,0.406c-0.221,0-0.39-0.006-0.507-0.021
			c-0.117-0.014-0.224-0.039-0.318-0.076c-0.096-0.037-0.191-0.088-0.286-0.154c-0.096-0.066-0.224-0.156-0.385-0.273
			c-0.015,0-0.059-0.02-0.132-0.057c-0.074-0.035-0.147-0.072-0.221-0.109c-0.073-0.035-0.146-0.068-0.22-0.098
			s-0.117-0.053-0.132-0.066c-0.602-0.469-0.994-0.98-1.177-1.537c-0.184-0.557-0.275-1.201-0.275-1.934
			C118.238,38.633,118.224,38.1,118.194,37.543z"/>
	</g>
</g>
<g id="Fortune_Teller">
</g>
<g id="DrinkSwap">
</g>
<g id="DickTator">
</g>
<g id="_x34_Eyes">
</g>
<g id="BabyTalk">
</g>
<g id="Backseat_Driver">
</g>
<g id="BAtman">
</g>
<g id="bodyguard">
</g>
<g id="BuckleUp">
</g>
<g id="RockPaperScissors">
</g>
<g id="Roger_Roger">
</g>
<g id="RoyaleWe">
</g>
<g id="Skip">
</g>
<g id="SwineRules">
</g>
<g id="Touchy_Feeley">
</g>
<g id="Wasted_Education">
</g>
<g id="Layer_86">
</g>
<g id="PointOfNoReturn">
</g>
<g id="Pirate">
</g>
<g id="Thief">
</g>
<g id="DepthPerception">
</g>
<g id="Narcissist">
</g>
<g id="MammaBird">
</g>
<g id="Staringcontest">
</g>
<g id="Cartwheel">
</g>
<g id="Censored">
</g>
<g id="Depersonalization">
</g>
<g id="threeman">
</g>
<g id="_x32__truths_and_a_lie">
</g>
<g id="cray_cray_cat_lady">
</g>
<g id="siblings">
</g>
<g id="later">
</g>
<g id="waterfall">
</g>
<g id="cheers">
</g>
<g id="rhyme">
</g>
<g id="categories">
</g>
<g id="tits">
</g>
<g id="dicks">
</g>
<g id="questions">
</g>
<g id="double_hands">
</g>
<g id="take_2">
</g>
<g id="take_3">
</g>
<g id="give_3">
</g>
<g id="give_2">
</g>
<g id="rewind">
</g>
<g id="Cryptkeeper">
</g>
<g id="Take_2_and_Redo">
</g>
<g id="Embryo">
</g>
<g id="I_am_Groot">
</g>
<g id="Mini_Me">
</g>
<g id="Ditto_1_">
</g>
<g id="reverse">
</g>
</svg>
