<?xml version="1.0" encoding="utf-8"?>
<!-- Generator: Adobe Illustrator 16.0.0, SVG Export Plug-In . SVG Version: 6.00 Build 0)  -->
<!DOCTYPE svg PUBLIC "-//W3C//DTD SVG 1.1//EN" "http://www.w3.org/Graphics/SVG/1.1/DTD/svg11.dtd">
<svg version="1.1" xmlns="http://www.w3.org/2000/svg" xmlns:xlink="http://www.w3.org/1999/xlink" x="0px" y="0px"
	 width="209.759px" height="62.361px" viewBox="0 0 209.759 62.361" enable-background="new 0 0 209.759 62.361"
	 xml:space="preserve">
<g id="Layer_1">
</g>
<g id="Blindman">
</g>
<g id="Compliments">
</g>
<g id="HAT">
</g>
<g id="speech">
</g>
<g id="TREX_ARMS">
</g>
<g id="slim_shady">
</g>
<g id="TIMEOUT">
</g>
<g id="Truth_or_Dare">
</g>
<g id="ARM_WRESTLE">
</g>
<g id="musical_chairs">
</g>
<g id="never_have_i_ever">
</g>
<g id="Trivia">
</g>
<g id="Drink_Pulling">
</g>
<g id="Sharing_is_Caring">
</g>
<g id="Not_It">
</g>
<g id="Cocktail_of_Doom">
</g>
<g id="Heads_up">
</g>
<g id="Archenemy">
</g>
<g id="battle_of_the_sexes">
</g>
<g id="one_must_drink">
</g>
<g id="rainbow_connection">
</g>
<g id="social_drinking">
</g>
<g id="Spin_the_bottle">
</g>
<g id="accents">
</g>
<g id="Slap">
</g>
<g id="down_the_hatch">
</g>
<g id="rubiks_cube">
</g>
<g id="bar_tender">
</g>
<g id="codenames">
</g>
<g id="hand_switch">
</g>
<g id="make_a_rule">
</g>
<g id="no_guts_no_glory">
</g>
<g id="pass">
</g>
<g id="santa">
</g>
<g id="snake_eyes">
</g>
<g id="lightning_round">
</g>
<g id="Bro">
</g>
<g id="LeastDrunk">
</g>
<g id="Know_It_All">
	<g id="Layer_94">
	</g>
</g>
<g id="EyeContact">
</g>
<g id="UnderGuesser">
</g>
<g id="GodSaveTheQUeen">
</g>
<g id="Ghost">
</g>
<g id="Fortune_Teller">
</g>
<g id="DrinkSwap">
</g>
<g id="DickTator">
</g>
<g id="_x34_Eyes">
</g>
<g id="BabyTalk">
</g>
<g id="Backseat_Driver">
</g>
<g id="BAtman">
</g>
<g id="bodyguard">
</g>
<g id="BuckleUp">
</g>
<g id="RockPaperScissors">
</g>
<g id="Roger_Roger">
</g>
<g id="RoyaleWe">
</g>
<g id="Skip">
</g>
<g id="SwineRules">
</g>
<g id="Touchy_Feeley">
</g>
<g id="Wasted_Education">
</g>
<g id="Layer_86">
</g>
<g id="PointOfNoReturn">
</g>
<g id="Pirate">
</g>
<g id="Thief">
</g>
<g id="DepthPerception">
</g>
<g id="Narcissist">
</g>
<g id="MammaBird">
</g>
<g id="Staringcontest">
</g>
<g id="Cartwheel">
</g>
<g id="Censored">
</g>
<g id="Depersonalization">
	<g>
		<g>
			<path d="M0.297,55.867c0.197-0.323,0.451-0.486,0.759-0.487c0.21-0.001,0.406,0.048,0.59,0.142
				c0.185,0.095,0.381,0.143,0.591,0.142c0.049,0,0.109-0.002,0.184-0.002s0.111-0.021,0.111-0.061c0.06-0.16,0.091-0.24,0.15-0.4
				c-0.015-2.518-0.023-3.777-0.038-6.295c0-0.458,0-0.686,0-1.144c0-4.029,0-6.045,0-10.074c0-0.435,0-0.651,0-1.087
				c0.015-3.846,0.023-5.769,0.038-9.614c0-0.153-0.06-0.22-0.075-0.23c-0.053-0.038-0.098-0.229-0.146-0.229
				c-0.606,0.004-0.908,0.005-1.515,0.007c-0.283,0.001-0.515-0.303-0.688-0.914c-0.173-0.61-0.257-1.316-0.257-2.117
				c0-1.106,0.104-1.888,0.313-2.347c0.21-0.457,0.481-0.688,0.814-0.688c0.233-0.001,0.46,0.034,0.675,0.109
				s0.448,0.116,0.694,0.114c0.148-0.001,0.317,0.009,0.515,0.026s0.377-0.07,0.537-0.263c1.013-0.009,1.521-0.016,2.534-0.031
				c0.356,0.452,0.716,0.781,1.079,0.984s0.733,0.528,1.083,0.978c0.433,0.556,0.806,1.443,1.126,2.637
				c0.32,1.195,0.585,2.524,0.795,3.988c0.209,1.464,0.366,2.977,0.471,4.537c0.104,1.563,0.155,2.993,0.155,4.289
				c0,3.169-0.098,6.242-0.295,9.222c-0.197,2.981-0.463,5.98-1.018,8.667c-0.031,0.149-0.117,0.432-0.246,0.837
				c-0.129,0.403-0.221,0.662-0.268,0.775c-0.377,0.906-0.719,1.63-1.046,2.114c-0.326,0.484-0.661,0.835-0.998,1.049
				c-0.339,0.216-0.694,0.333-1.069,0.358s-0.825,0.084-1.288,0.107c-0.071,0.004-0.188,0.019-0.341,0.058
				c-0.153,0.039-0.31,0.068-0.462,0.09c-0.153,0.021-0.294,0.042-0.417,0.062s-0.201,0.033-0.238,0.033
				c-0.024,0-0.096,0.037-0.206,0.113c-0.11,0.077-0.225,0.155-0.341,0.231c-0.117,0.077-0.23,0.156-0.334,0.232
				c-0.104,0.077-0.169,0.113-0.193,0.113c-0.126,0.001-0.188,0-0.313,0.001c-0.197,0.001-0.396-0.064-0.599-0.197
				c-0.202-0.132-0.392-0.352-0.558-0.657c-0.166-0.304-0.299-0.703-0.403-1.2c-0.104-0.495-0.159-1.104-0.159-1.83
				C0.001,56.909,0.1,56.192,0.297,55.867z M4.436,55.128c0.062,0.114,0.133,0.206,0.207,0.281c0.074,0.076,0.146,0.134,0.219,0.17
				c0.073,0.037,0.132,0.057,0.168,0.056c0.37-0.005,0.752-0.057,1.152-0.158c0.399-0.102,0.778-0.368,1.12-0.793
				c0.432-0.537,0.773-1.435,1.025-2.681c0.252-1.244,0.446-2.623,0.575-4.133s0.209-3.046,0.24-4.612
				c0.03-1.564,0.044-2.958,0.044-4.18c0-2.441-0.08-4.491-0.24-6.147s-0.413-2.976-0.765-3.96S7.378,27.278,6.83,26.85
				s-1.217-0.639-2.005-0.629c-0.05,0.001-0.16,0.021-0.333,0.062c-0.037,0.184-0.055,0.273-0.092,0.457c0,3.571,0,5.359,0,8.931
				c-0.008,0.458-0.012,0.684-0.02,1.142c-0.015,7.166-0.021,10.751-0.036,17.917C4.345,54.882,4.374,55.014,4.436,55.128z"/>
			<path d="M13.845,57.89c0.024-0.42,0.063-0.802,0.119-1.147s0.134-0.625,0.232-0.838s0.228-0.322,0.388-0.328
				c0.044-0.002,0.065-0.002,0.11-0.004c0.024,0.037,0.096,0.082,0.213,0.135s0.188,0.08,0.213,0.079
				c0.015-0.001,0.021,0,0.036-0.001c0.062-0.002,0.144-0.025,0.248-0.067s0.215-0.096,0.325-0.157s0.216-0.123,0.314-0.185
				c0.098-0.061,0.217-0.077,0.24-0.093c0.069-0.045,0.129-0.434,0.166-0.837c0.037-0.402,0.057-0.715,0.057-0.943
				c-0.015-5.38-0.023-8.072-0.038-13.451c0-0.436,0-0.65,0-1.086c-0.015-3.136-0.021-4.703-0.036-7.839
				c0.061-0.497,0.089-1.063,0.083-1.692s-0.008-1.174-0.008-1.631c0-0.572,0-0.857,0-1.43c-0.06-0.158-0.09-0.237-0.149-0.396
				c-0.012-0.037-0.063-0.055-0.148-0.052c-0.087,0.003-0.154,0.007-0.203,0.009c-0.21,0.008-0.412,0.063-0.603,0.165
				c-0.19,0.103-0.39,0.157-0.599,0.165c-0.333,0.012-0.602-0.208-0.812-0.658c-0.21-0.452-0.315-1.231-0.315-2.338
				c0-0.916,0.086-1.691,0.259-2.326s0.419-0.957,0.739-0.969c1.503-0.054,2.999-0.067,4.489-0.039
				c1.489,0.028,3.317-0.297,4.492-0.138c0.153,0.021,0.338,0.42,0.462,1.063c0.123,0.641,0.186,1.245,0.186,1.817
				c0,4.831,0,7.249,0,12.079c0,0.688-0.08,1.248-0.24,1.676s-0.346,0.643-0.555,0.654c-0.173,0.01-0.342-0.168-0.508-0.541
				s-0.25-0.864-0.25-1.475c0-2.426,0-3.64,0-6.066c0-0.038-0.039-0.286-0.119-0.739c-0.08-0.454-0.141-0.801-0.194-1.02
				c-0.054-0.221-0.164-0.536-0.306-0.93s-0.26-0.587-0.358-0.582c-1.412,0.071-2.12,0.106-3.532,0.167
				c-0.029,0.093-0.045,0.138-0.074,0.23c0,0.229-0.005,0.658-0.011,1.289c-0.007,0.629-0.015,1.289-0.026,1.977
				c-0.013,0.687-0.021,1.337-0.027,1.947c-0.007,0.61-0.01,1.029-0.01,1.26c0,0.075-0.011,0.305-0.036,0.686
				c-0.024,0.384-0.037,0.614-0.037,0.689c0,0.046,0,0.069,0,0.115c0,0.022,0,0.034,0,0.057c0.013,0.19,0.024,0.429,0.037,0.714
				c0.013,0.286,0.027,0.555,0.046,0.803c0.019,0.247,0.04,0.56,0.064,0.94c0.029,0.09,0.045,0.133,0.074,0.223
				c0.377-0.017,0.566-0.023,0.943-0.041c0.136-0.311,0.285-0.566,0.452-0.767c0.167-0.198,0.298-0.547,0.397-1.046
				c0.084-0.422,0.135-0.991,0.147-1.697c0.013-0.704,0.03-1.402,0.056-2.089c0.024-0.688,0.081-1.282,0.167-1.783
				c0.086-0.499,0.252-0.757,0.499-0.769c0.196-0.01,0.356,0.202,0.479,0.634c0.123,0.434,0.188,0.975,0.188,1.622
				c0,7.509,0,11.264,0,18.773c0,1.222-0.193,1.837-0.575,1.855c-0.246,0.012-0.432-0.216-0.555-0.688
				c-0.123-0.47-0.21-1.036-0.259-1.702c-0.05-0.664-0.073-1.359-0.073-2.085c0-0.724,0.027-1.347,0-1.773
				c-0.012-0.179-0.074-0.476-0.148-0.854c-0.074-0.376-0.163-0.746-0.268-1.104s-0.21-0.678-0.314-0.958
				c-0.104-0.282-0.195-0.42-0.27-0.417c-0.318,0.015-0.475,0.021-0.793,0.035c-0.05,0.002-0.055,0.105-0.074,0.231
				c-0.011,0.069-0.049,0.231-0.074,0.461c0,5.014,0.002,7.521,0.002,12.534c0.06,0.181,0.087,0.271,0.146,0.451
				c0.747-0.032,1.119-0.049,1.866-0.084c0.295-0.28,0.564-0.419,0.804-0.411s0.463-0.014,0.666-0.062s0.391-0.221,0.563-0.515
				c0.173-0.296,0.323-0.93,0.499-1.831c0.021-0.113,0.056-0.297,0.093-0.548c0.037-0.249,0.056-0.432,0.056-0.545
				c0-2.244,0-3.366,0-5.609c0-0.649,0.073-1.226,0.222-1.729c0.147-0.505,0.327-0.764,0.536-0.775
				c0.259-0.014,0.468,0.349,0.628,1.084s0.241,1.467,0.241,2.19c0,3.137,0,4.704,0,7.841c0.062,0.418,0.096,0.766,0.102,1.051
				c0.006,0.286,0.009,0.642,0.009,1.061c0,1.413-0.138,2.509-0.408,3.287c-0.271,0.778-0.627,1.178-1.071,1.201
				c-0.136,0.007-0.264,0.012-0.387,0.019c-0.111,0.006-0.234-0.062-0.37-0.207c-2.462,0.128-3.693,0.183-6.155,0.278
				c-0.16,0.197-0.338,0.291-0.534,0.278s-0.371-0.016-0.52-0.011c-0.173,0.006-0.339,0.001-0.499-0.013
				c-0.159-0.014-0.305-0.102-0.434-0.269c-0.13-0.167-0.229-0.419-0.304-0.76s-0.112-0.84-0.112-1.489
				C13.808,58.711,13.819,58.31,13.845,57.89z"/>
			<path d="M26.782,56.617c0.012-0.363,0.04-0.71,0.083-1.037c0.043-0.325,0.102-0.603,0.176-0.837
				c0.074-0.233,0.172-0.355,0.296-0.363c0.754-0.047,1.131-0.068,1.885-0.117c0.059-0.21,0.09-0.315,0.148-0.525
				c0-6.456,0-9.684,0-16.139c0.012-1.642,0.04-3.208,0.083-4.699s0.065-3.038,0.065-4.64c0-0.756,0-1.133,0-1.889
				c-0.025-0.189-0.062-0.415-0.104-0.681c-0.043-0.264-0.106-0.414-0.192-0.446c-0.17,0.011-0.256,0.018-0.426,0.028
				c-0.173,0.011-0.334,0.059-0.487,0.145c-0.154,0.086-0.318,0.137-0.491,0.147c-0.308,0.02-0.54-0.255-0.693-0.817
				c-0.154-0.563-0.23-1.282-0.23-2.16c0-0.267,0.013-0.582,0.038-0.946c0.024-0.364,0.063-0.69,0.118-0.979
				c0.056-0.29,0.123-0.543,0.203-0.758s0.181-0.324,0.304-0.332c0.037-0.002,0.095-0.014,0.168-0.038s0.153-0.04,0.24-0.046
				c0.086-0.006,0.167-0.01,0.241-0.015s0.122-0.007,0.146-0.009c0.246-0.016,0.475,0.018,0.685,0.099
				c0.209,0.081,0.43,0.115,0.664,0.1c0.099-0.007,0.184-0.036,0.251-0.078s0.163-0.101,0.286-0.187
				c1.242-0.083,1.863-0.126,3.105-0.217c0.013-0.001,0.062,0.023,0.147,0.074c0.085,0.051,0.183,0.101,0.287,0.15
				c0.104,0.05,0.212,0.11,0.322,0.178c0.111,0.069,0.201,0.114,0.26,0.148c0.267,0.155,0.529,0.438,0.775,0.801
				s0.486,0.809,0.687,1.322c0.113,0.292,0.235,0.773,0.377,1.429c0.142,0.657,0.273,1.383,0.397,2.176
				c0.123,0.791,0.228,1.556,0.314,2.291c0.086,0.737,0.129,1.298,0.129,1.68c0,1.877,0,2.816,0,4.693
				c0,0.954-0.105,2.018-0.314,3.199c-0.21,1.18-0.466,2.299-0.773,3.354c-0.308,1.053-0.646,1.937-1.01,2.649
				c-0.363,0.715-0.699,1.084-1.007,1.106c-1.072,0.079-1.608,0.118-2.681,0.192c-0.029,0.094-0.045,0.139-0.074,0.232
				c-0.025,0.461-0.046,0.95-0.064,1.465c-0.019,0.517-0.045,1.006-0.082,1.467c0,2.243,0,3.363,0,5.607
				c0.029,0.181,0.044,0.271,0.073,0.451c0.013,0.037,0.036,0.134,0.073,0.284c0.754-0.052,1.13-0.077,1.884-0.132
				c0.123-0.009,0.229,0.095,0.315,0.317c0.087,0.224,0.161,0.484,0.223,0.786s0.107,0.641,0.139,1.02
				c0.03,0.379,0.044,0.702,0.044,0.969c0,0.412,0,0.619,0,1.031c-0.123,0.544-0.284,0.994-0.487,1.353s-0.41,0.546-0.619,0.561
				c-0.197,0.015-0.371-0.013-0.519-0.079c-0.146-0.065-0.332-0.184-0.554-0.359c-0.895,0.063-1.342,0.092-2.236,0.15
				c-0.21,0.357-0.436,0.647-0.676,0.873c-0.24,0.225-0.483,0.345-0.729,0.36c-0.333,0.021-0.617-0.273-0.851-0.89
				c-0.234-0.614-0.351-1.458-0.351-2.527C26.764,57.297,26.771,56.98,26.782,56.617z M31.255,39.242
				c0.025-0.002,0.121,0.001,0.287,0.009s0.292,0.009,0.378,0.003c0.444-0.031,0.879-0.14,1.304-0.322
				c0.424-0.183,0.8-0.545,1.127-1.085c0.326-0.538,0.592-1.313,0.795-2.32s0.305-2.369,0.305-4.086c0-1.64-0.119-2.898-0.359-3.777
				c-0.24-0.877-0.547-1.515-0.916-1.907c-0.369-0.392-0.773-0.61-1.21-0.655s-0.854-0.051-1.248-0.023
				c-0.244,0.017-0.365,0.024-0.609,0.041c-0.029,0.094-0.044,0.141-0.073,0.234c0,0.077-0.004,0.336-0.01,0.772
				c-0.006,0.44-0.01,0.755-0.01,0.945c0,0.421-0.004,1.012-0.01,1.775c-0.007,0.764,0.04,1.388,0.139,1.878c0,3.319,0,4.98,0,8.3
				C31.188,39.111,31.21,39.154,31.255,39.242z"/>
			<path d="M39.368,56.369c0.024-0.421,0.066-0.809,0.122-1.157s0.131-0.628,0.229-0.846s0.229-0.336,0.389-0.35
				c0.045-0.004,0.066-0.003,0.11-0.007c0.024,0.036,0.095,0.075,0.212,0.122s0.188,0.071,0.213,0.069
				c0.015-0.001,0.022-0.002,0.037-0.003c0.062-0.005,0.146-0.033,0.25-0.08s0.212-0.104,0.322-0.171
				c0.11-0.066,0.216-0.133,0.314-0.199c0.098-0.065,0.215-0.089,0.239-0.106c0.071-0.05,0.131-0.438,0.168-0.843
				c0.036-0.403,0.056-0.721,0.056-0.949c-0.015-5.379-0.022-8.07-0.037-13.449c0-0.435,0-0.651,0-1.086
				c-0.015-3.135-0.022-4.702-0.037-7.837c0.061-0.5,0.089-1.066,0.083-1.695s-0.009-1.175-0.009-1.632c0-0.572,0-0.858,0-1.431
				c-0.06-0.155-0.089-0.232-0.148-0.388c-0.012-0.037-0.062-0.052-0.147-0.044c-0.087,0.008-0.154,0.015-0.203,0.019
				c-0.21,0.019-0.411,0.083-0.601,0.194c-0.19,0.111-0.392,0.178-0.601,0.195c-0.333,0.028-0.604-0.18-0.813-0.619
				c-0.21-0.441-0.314-1.214-0.314-2.32c0-0.916,0.086-1.695,0.259-2.339s0.419-0.979,0.739-1.006
				c1.503-0.127,3.003-0.215,4.493-0.256c1.489-0.041,3.307-0.446,4.489-0.335c0.151,0.015,0.339,0.404,0.463,1.042
				c0.123,0.636,0.184,1.237,0.184,1.81c0,4.831,0,7.248,0,12.078c0,0.688-0.081,1.251-0.241,1.686
				c-0.16,0.436-0.344,0.659-0.553,0.68c-0.173,0.017-0.342-0.156-0.508-0.521c-0.167-0.365-0.252-0.853-0.252-1.463
				c0-2.426,0-3.641,0-6.067c0-0.038-0.038-0.284-0.118-0.733c-0.08-0.451-0.141-0.794-0.194-1.01
				c-0.054-0.218-0.165-0.527-0.307-0.914s-0.26-0.578-0.358-0.568c-1.412,0.135-2.118,0.203-3.53,0.33
				c-0.03,0.094-0.044,0.14-0.074,0.233c0,0.229-0.003,0.658-0.009,1.289c-0.007,0.63-0.016,1.288-0.027,1.977
				c-0.013,0.687-0.022,1.338-0.028,1.948c-0.007,0.61-0.009,1.027-0.009,1.258c0,0.075-0.013,0.31-0.038,0.691
				c-0.024,0.386-0.036,0.613-0.036,0.688c0,0.046,0,0.069,0,0.115c0,0.022,0,0.035,0,0.058c0.012,0.189,0.023,0.429,0.036,0.713
				c0.013,0.286,0.028,0.552,0.047,0.799c0.019,0.246,0.04,0.557,0.064,0.936c0.03,0.089,0.044,0.136,0.074,0.225
				c0.377-0.034,0.565-0.052,0.942-0.086c0.136-0.316,0.287-0.579,0.453-0.787c0.166-0.206,0.297-0.562,0.396-1.065
				c0.084-0.426,0.137-0.996,0.148-1.703c0.012-0.705,0.032-1.405,0.058-2.093c0.024-0.689,0.078-1.284,0.164-1.789
				c0.086-0.503,0.252-0.768,0.499-0.791c0.196-0.019,0.357,0.185,0.48,0.611c0.123,0.428,0.186,0.966,0.186,1.613
				c0,7.509,0,11.263,0,18.772c0,1.222-0.193,1.85-0.575,1.886c-0.246,0.023-0.43-0.199-0.553-0.665
				c-0.123-0.465-0.21-1.026-0.259-1.69c-0.05-0.662-0.074-1.356-0.074-2.082c0-0.724,0.027-1.35,0-1.776
				c-0.012-0.178-0.073-0.47-0.147-0.845c-0.074-0.373-0.164-0.736-0.269-1.089s-0.209-0.671-0.313-0.946
				c-0.104-0.277-0.194-0.41-0.269-0.403c-0.318,0.029-0.477,0.045-0.795,0.073c-0.05,0.005-0.054,0.107-0.073,0.234
				c-0.011,0.07-0.048,0.232-0.073,0.463c0,5.014-0.001,7.521-0.001,12.536c0.06,0.179,0.087,0.265,0.146,0.442
				c0.747-0.067,1.121-0.099,1.868-0.168c0.295-0.294,0.566-0.446,0.806-0.449s0.46-0.033,0.663-0.09s0.392-0.237,0.564-0.539
				c0.173-0.304,0.322-0.945,0.498-1.854c0.021-0.114,0.057-0.299,0.094-0.552c0.037-0.251,0.055-0.436,0.055-0.549
				c0-2.244,0-3.363,0-5.607c0-0.649,0.074-1.229,0.223-1.739c0.147-0.511,0.326-0.776,0.535-0.797
				c0.259-0.025,0.471,0.324,0.631,1.053s0.238,1.458,0.238,2.182c0,3.137,0,4.703,0,7.84c0.062,0.415,0.096,0.764,0.102,1.049
				c0.006,0.286,0.01,0.64,0.01,1.059c0,1.413-0.135,2.517-0.405,3.307c-0.271,0.79-0.628,1.201-1.072,1.244
				c-0.136,0.013-0.267,0.027-0.39,0.039c-0.111,0.011-0.233-0.052-0.369-0.191c-2.462,0.236-3.694,0.347-6.156,0.561
				c-0.16,0.205-0.338,0.308-0.534,0.305s-0.37,0.001-0.519,0.014c-0.173,0.015-0.34,0.02-0.499,0.014s-0.306-0.087-0.435-0.248
				c-0.13-0.161-0.23-0.408-0.305-0.746s-0.111-0.831-0.111-1.48C39.331,57.193,39.343,56.791,39.368,56.369z"/>
			<path d="M60.632,51.959c-0.006-1.087-0.033-2.175-0.083-3.255c-0.05-1.082-0.124-2.132-0.229-3.151
				c-0.104-1.018-0.238-1.985-0.417-2.871c-0.082-0.408-0.17-0.88-0.25-1.405s-0.174-1.063-0.324-1.224
				c-0.093-0.099-0.321-0.172-0.443-0.234c-0.123-0.063-0.242-0.1-0.358-0.106s-0.239-0.001-0.362,0.013
				c-0.111,0.012-0.245,0.026-0.405,0.044c-0.273,0.029-0.412,0.045-0.686,0.074c-0.074,0.008-0.185,0.048-0.333,0.121
				c-0.146,0.073-0.227,0.13-0.239,0.169c-0.029,0.095-0.042,0.142-0.071,0.236c0,4.305-0.001,6.456-0.001,10.761
				c0,0.342,0.109,0.588,0.331,0.736s0.461,0.324,0.72,0.524s0.5,0.51,0.722,0.924s0.333,1.101,0.333,2.053
				c0,0.612-0.053,1.093-0.157,1.448s-0.234,0.639-0.388,0.846c-0.154,0.209-0.323,0.349-0.502,0.425s-0.34,0.122-0.487,0.138
				c-0.081,0.009-0.122,0.012-0.203,0.021c-0.11,0.012-0.307,0.025-0.583,0.035s-0.57,0.024-0.878,0.038s-0.598,0.015-0.868,0.005
				c-0.271-0.01-0.48-0.023-0.573,0c-0.11,0.028-0.237-0.022-0.342-0.222s-0.197-0.464-0.277-0.8
				c-0.08-0.335-0.142-0.688-0.185-1.065s-0.065-0.742-0.065-1.086c0-0.724,0.058-1.293,0.169-1.705
				c0.111-0.414,0.25-0.722,0.423-0.931c0.171-0.207,0.361-0.343,0.564-0.401s0.521-0.07,0.582-0.12
				c0.028-0.023,0.055-0.193,0.092-0.351c0.037-0.155,0.054-0.274,0.054-0.35c-0.015-5.104-0.02-7.656-0.034-12.761
				c0-0.458,0-0.688,0-1.146c-0.045-5.375-0.066-8.063-0.111-13.438c-0.06-0.178-0.089-0.263-0.148-0.44
				c-0.466-0.294-0.698-0.439-1.164-0.734c-0.16-0.137-0.259-0.464-0.296-0.974c-0.036-0.512-0.056-0.959-0.056-1.341
				c0-0.61,0.05-1.214,0.148-1.815s0.265-0.915,0.499-0.939c1.131-0.117,1.695-0.178,2.826-0.299
				c0.136-0.245,0.259-0.382,0.369-0.413s0.235-0.055,0.371-0.069c0.641-0.069,1.287-0.004,1.934,0.191
				c0.647,0.195,1.228,0.666,1.745,1.408s0.936,1.847,1.257,3.317c0.32,1.473,0.479,3.449,0.479,5.929
				c0,1.067-0.03,2.208-0.092,3.416c-0.062,1.21-0.211,2.27-0.427,3.167c-0.075,0.313-0.168,0.61-0.284,0.89
				c-0.117,0.281-0.231,0.563-0.342,0.841c-0.111,0.28-0.203,0.586-0.277,0.919c-0.074,0.331-0.112,0.728-0.112,1.185
				c0,0.206,0.001,0.309,0.001,0.515c0.246,1.156,0.44,2.461,0.582,3.914s0.263,2.803,0.361,4.051
				c0.037,0.455,0.058,1.051,0.063,1.794s0.062,1.342,0.157,1.785c0.088,0.408,0.19,0.685,0.314,0.823
				c0.123,0.139,0.244,0.26,0.368,0.36c0.123,0.101,0.247,0.238,0.37,0.415s0.228,0.492,0.317,0.936
				c0.104,0.518,0.177,0.88,0.201,1.067c0.025,0.188,0.037,0.529,0.037,1.024c0,0.649-0.067,1.286-0.203,1.912
				c-0.136,0.628-0.327,0.95-0.573,0.979c-0.015,0.002-0.022,0.007-0.037,0.009c-0.222-0.09-0.467-0.108-0.737-0.059
				s-0.532,0.038-0.778-0.029c-0.245-0.067-0.465-0.279-0.656-0.64s-0.341-1.024-0.359-1.906
				C60.603,54.139,60.638,53.046,60.632,51.959z M56.594,23.126c-0.111,0.127-0.164,0.341-0.164,0.646c0,3.938,0,5.908,0,9.845
				c0,0.115,0.017,0.304,0.054,0.566c0.037,0.264,0.065,0.45,0.091,0.561c0.17-0.019,0.257-0.027,0.427-0.046
				c0.16-0.018,0.314-0.068,0.462-0.16c0.148-0.094,0.295-0.15,0.443-0.167c0.185-0.021,0.363,0,0.536,0.058
				c0.171,0.057,0.357,0.074,0.555,0.053c0.244-0.027,0.365-0.041,0.609-0.068c0.443-0.469,0.81-1.168,1.1-2.098
				c0.289-0.928,0.433-2.136,0.433-3.624c0-0.878-0.035-1.739-0.109-2.59c-0.074-0.85-0.208-1.646-0.48-2.095
				c-0.346-0.569-0.959-0.969-1.477-1.121s-1.035-0.199-1.553-0.144c-0.062,0.007-0.176,0.018-0.336,0.035s-0.27,0.048-0.331,0.092
				S56.705,23.001,56.594,23.126z"/>
			<path d="M68.312,40.422c0.111,0.465,0.189,1.034,0.239,1.716s0.083,1.392,0.096,2.134c0.013,0.743,0.038,1.384,0.091,1.908
				c0.091,0.897,0.254,1.733,0.47,2.489s0.468,1.312,0.752,1.596c0.102,0.102,0.194,0.182,0.257,0.23
				c0.062,0.049,0.122,0.091,0.176,0.121c0.055,0.031,0.106,0.07,0.156,0.123c0.05,0.051,0.117,0.147,0.204,0.29
				c0.554-0.067,0.831-0.101,1.386-0.169c0.136-0.322,0.278-0.522,0.433-0.599c0.153-0.075,0.318-0.21,0.491-0.375
				c0.14-0.134,0.266-0.367,0.357-0.703c0.093-0.336,0.174-0.7,0.241-1.092c0.067-0.39,0.129-0.797,0.179-1.223
				c0.049-0.427,0.104-0.819,0.166-1.171c0-1.605,0.001-2.404,0.001-4.01c0-0.075-0.03-0.275-0.086-0.594
				c-0.055-0.318-0.1-0.555-0.134-0.701c-0.194-0.84-0.398-1.467-0.633-1.84c-0.234-0.371-0.483-0.609-0.749-0.711
				c-0.265-0.102-0.539-0.142-0.828-0.125c-0.29,0.017-0.592-0.013-0.897-0.092c-0.49-0.127-0.97-0.429-1.432-0.889
				s-0.872-1.12-1.224-1.976c-0.352-0.856-0.634-1.901-0.849-3.137c-0.216-1.234-0.321-2.713-0.321-4.433
				c0-0.801,0.018-1.529,0.055-2.184s0.085-1.29,0.146-1.909s0.142-1.239,0.24-1.862s0.185-1.373,0.352-2.104
				c0.104-0.456,0.317-0.993,0.546-1.555c0.228-0.563,0.473-1.079,0.738-1.551c0.265-0.472,0.529-0.866,0.795-1.186
				c0.265-0.319,0.504-0.49,0.713-0.516c0.066-0.008,0.097-0.012,0.163-0.02c0.062,0.068,0.172,0.169,0.326,0.303
				c0.153,0.134,0.313,0.287,0.479,0.457c0.166,0.172,0.326,0.334,0.474,0.487c0.148,0.153,0.258,0.264,0.312,0.331
				c0.126,0.158,0.286,0.473,0.489,0.886s0.381,0.611,0.528,0.593c0.029-0.004,0.045-0.007,0.074-0.011
				c0.025-0.347,0.056-0.723,0.093-1.128s0.085-0.781,0.146-1.133s0.142-0.649,0.24-0.891s0.217-0.369,0.353-0.386
				c0.246-0.03,0.434,0.298,0.563,0.989c0.129,0.69,0.195,1.401,0.195,2.127c0,4.218,0,6.326,0,10.544
				c0,0.572-0.07,1.097-0.206,1.572s-0.296,0.725-0.48,0.748c-0.271,0.033-0.457-0.247-0.562-0.846s-0.181-1.299-0.224-2.096
				s-0.09-1.584-0.146-2.359c-0.055-0.776-0.162-1.35-0.324-1.708c-0.323-0.718-0.711-1.324-1.13-1.808s-0.829-0.705-1.235-0.655
				c-0.271,0.033-0.531,0.22-0.784,0.557s-0.483,0.782-0.687,1.341s-0.366,1.202-0.489,1.923s-0.185,1.503-0.185,2.345
				c0,1.604,0.099,2.796,0.296,3.574c0.197,0.779,0.457,1.321,0.776,1.626c0.32,0.306,0.681,0.474,1.08,0.501
				s0.808,0.082,1.194,0.139c0.3,0.044,0.624,0.143,0.951,0.312c0.326,0.169,0.791,0.358,0.932,0.543
				c0.017,0.021,0.034,0.074,0.065,0.108c0.03,0.034,0.055,0.071,0.068,0.106c0.247,0.644,0.521,1.311,0.762,1.968
				s0.453,1.358,0.632,2.101c0.179,0.74,0.316,1.575,0.415,2.499s0.146,1.977,0.146,3.16c0,0.918-0.024,1.877-0.073,2.878
				c-0.05,0.999-0.127,1.972-0.231,2.922c-0.104,0.948-0.243,1.835-0.416,2.659s-0.367,1.6-0.646,2.146
				c-0.021,0.04-0.071,0.124-0.139,0.246c-0.068,0.124-0.145,0.257-0.23,0.401s-0.166,0.269-0.233,0.373s-0.105,0.179-0.119,0.214
				c-0.124,0.312-0.317,0.678-0.472,1.06s-0.337,0.589-0.546,0.614c-0.725,0.089-1.086,0.131-1.811,0.219
				c-0.173,0.021-0.336-0.072-0.496-0.281s-0.319-0.444-0.474-0.711c-0.154-0.269-0.311-0.508-0.471-0.717s-0.333-0.309-0.518-0.286
				c-0.123,0.015-0.212,0.169-0.268,0.463c-0.055,0.292-0.109,0.605-0.159,0.937s-0.116,0.634-0.202,0.91
				c-0.087,0.276-0.222,0.427-0.406,0.449c-0.21,0.025-0.399-0.19-0.571-0.641c-0.173-0.452-0.261-1.016-0.261-1.698
				c0-5.275,0-7.912,0-13.187c0-0.688,0.076-1.241,0.224-1.659c0.148-0.42,0.324-0.638,0.534-0.663
				C68.016,39.742,68.2,39.959,68.312,40.422z"/>
			<path d="M83.282,12.646c0.209,0.124,0.412,0.311,0.609,0.551s0.393,0.548,0.583,0.925c0.19,0.375,0.39,0.8,0.601,1.266
				c0.098,0.215,0.213,0.429,0.342,0.641s0.23,0.487,0.305,0.821c0.148,0.666,0.284,1.344,0.407,2.032
				c0.123,0.69,0.338,1.345,0.462,1.857c0.406,1.678,0.511,3.768,0.684,5.691c0.173,1.922,0.261,3.912,0.261,5.973
				c0,2.022-0.054,4.101-0.159,6.231c-0.105,2.133-0.286,4.157-0.545,6.082c-0.26,1.923-0.606,3.667-1.044,5.231
				s-1.014,2.794-1.656,3.68c-0.148,0.205-0.27,0.407-0.368,0.592s-0.196,0.361-0.288,0.524c-0.093,0.165-0.192,0.307-0.304,0.416
				s-0.256,0.171-0.44,0.195c-0.321,0.042-0.598-0.073-0.825-0.35c-0.229-0.276-0.478-0.604-0.748-0.989
				c-0.025-0.034-0.087-0.123-0.186-0.263c-0.098-0.139-0.205-0.288-0.315-0.445c-0.111-0.157-0.216-0.308-0.32-0.446
				c-0.104-0.138-0.165-0.25-0.193-0.316c-0.172-0.409-0.439-1.053-0.649-1.864c-0.209-0.812-0.403-1.694-0.582-2.645
				s-0.337-1.894-0.473-2.83s-0.219-1.791-0.313-2.48c-0.02-0.144-0.049-0.364-0.074-0.648c-0.024-0.282-0.046-0.565-0.064-0.849
				c-0.019-0.285-0.035-0.539-0.054-0.766s-0.031-0.359-0.031-0.397c0-3.686,0-5.528,0-9.214c0-0.038,0.018-0.249,0.048-0.635
				s0.064-0.82,0.102-1.303c0.037-0.48,0.079-0.964,0.122-1.447c0.043-0.481,0.072-0.856,0.098-1.127
				c0.154-1.619,0.357-3.238,0.592-4.853c0.233-1.612,0.524-3.073,0.87-4.375c0.346-1.304,0.751-2.378,1.22-3.22
				s1.01-1.305,1.626-1.385C82.838,12.476,83.073,12.522,83.282,12.646z M79.605,38.676c0.073,1.499,0.182,2.926,0.33,4.28
				c0.036,0.339,0.122,0.84,0.251,1.511s0.277,1.323,0.443,1.95c0.166,0.628,0.335,1.178,0.507,1.649
				c0.173,0.474,0.328,0.702,0.464,0.685c0.725-0.094,1.086-0.141,1.811-0.235c0.296-0.038,0.561-0.37,0.795-0.992
				s0.438-1.354,0.61-2.197c0.173-0.843,0.314-1.739,0.425-2.69c0.111-0.947,0.188-1.777,0.258-2.464
				c0.055-0.537,0.127-1.008,0.194-1.398s0.102-0.912,0.102-1.562c0-2.953,0-4.431,0-7.384c-0.074-0.981-0.143-1.915-0.21-2.803
				c-0.067-0.886-0.159-1.728-0.27-2.514c-0.111-0.786-0.252-1.54-0.425-2.261s-0.4-1.41-0.685-2.058
				c-0.269-0.611-0.511-1.161-0.721-1.649c-0.209-0.486-0.484-0.711-0.829-0.666c-0.543,0.07-1.013,0.723-1.407,1.956
				c-0.395,1.235-0.719,2.71-0.978,4.422c-0.259,1.714-0.455,3.491-0.584,5.338c-0.129,1.849-0.194,3.398-0.194,4.658
				C79.493,35.702,79.532,37.178,79.605,38.676z"/>
			<path d="M96.49,40.708c-0.117-1.09-0.258-2.181-0.416-3.265c-0.137-0.934-0.31-2.135-0.519-3.595
				c-0.21-1.46-0.417-2.861-0.62-4.209c-0.203-1.346-0.446-2.993-0.729-4.939c-0.029,0.004-0.045,0.006-0.074,0.01
				c0,4.579,0,6.869,0,11.449c0.05,0.413,0.074,0.811,0.074,1.192c0,0.344,0,0.726,0,1.145c0,0.421,0,0.821,0,1.203
				c0,0.342-0.024,0.729-0.074,1.154c0,2.335,0,3.504,0,5.839c0,0.306,0.067,0.602,0.203,0.889c0.136,0.288,0.244,0.422,0.331,0.41
				c0.111-0.015,0.208-0.112,0.288-0.295s0.176-0.28,0.286-0.295c0.074-0.01,0.113-0.018,0.188-0.027
				c0.049,0.033,0.122,0.089,0.22,0.17c0.099,0.082,0.192,0.165,0.284,0.247c0.093,0.084,0.173,0.161,0.24,0.228
				c0.067,0.068,0.11,0.118,0.122,0.154c0.118,0.351,0.176,0.524,0.294,0.875c0,0.32,0.001,0.48,0.001,0.801
				c0,0.611-0.034,1.22-0.108,1.821s-0.287,1.166-0.481,1.238c-0.283,0.105-0.932,0.103-1.35,0.35
				c-0.419,0.248-0.862,0.406-1.33,0.469c-0.111,0.015-0.168,0.021-0.279,0.036c-0.074,0.01-0.202,0.017-0.38,0.021
				s-0.365,0.014-0.562,0.021c-0.197,0.008-0.387,0.002-0.564-0.012c-0.179-0.014-0.336,0.003-0.378-0.009
				c-0.147-0.043-0.367-0.452-0.509-0.873c-0.142-0.419-0.212-0.954-0.212-1.604c0-0.229,0-0.344,0-0.572
				c0.05-0.541,0.124-1.153,0.229-1.834c0.104-0.683,0.294-1.122,0.492-1.182c0.04-0.012,0.132-0.025,0.249-0.061
				c0.116-0.034,0.241-0.07,0.37-0.107c0.128-0.037,0.253-0.073,0.37-0.107s0.197-0.056,0.247-0.063
				c0.06-0.19,0.09-0.288,0.149-0.479c-0.025-0.835-0.018-1.626,0.019-2.375c0.037-0.749,0.056-1.526,0.056-2.327
				c0-3.893-0.025-7.771-0.074-11.639c-0.05-3.865-0.074-7.766-0.074-11.695c-0.06-0.152-0.088-0.229-0.147-0.381
				c-0.524,0.07-0.787,0.108-1.312,0.179c-0.099,0.014-0.177-0.063-0.232-0.228s-0.099-0.369-0.129-0.612
				c-0.031-0.243-0.053-0.511-0.064-0.796c-0.012-0.283-0.019-0.521-0.019-0.711c0-0.839,0.099-1.557,0.296-2.155
				s0.442-0.917,0.738-0.957c0.836-0.112,1.254-0.169,2.09-0.281c0.246-0.033,0.458,0.262,0.637,0.886
				c0.178,0.626,0.302,1.265,0.38,1.897c0.023,0.187,0.079,0.627,0.165,1.32c0.086,0.696,0.177,1.456,0.269,2.282
				c0.093,0.828,0.183,1.597,0.269,2.311s0.144,1.165,0.166,1.351c0.014,0.111,0.057,0.392,0.131,0.841
				c0.074,0.447,0.147,0.935,0.228,1.458s0.159,1.009,0.233,1.458c0.074,0.447,0.123,0.732,0.129,0.839
				c0.002,0.037,0.01,0.133,0.028,0.283s0.034,0.311,0.046,0.48s0.025,0.333,0.044,0.481c0.019,0.15,0.028,0.247,0.03,0.282
				c0.099,1.517,0.434,3.354,0.674,5.229s0.497,3.654,0.768,5.334c0.012,0.076,0.037,0.196,0.074,0.361
				c0.037,0.167,0.063,0.271,0.074,0.307c0.012,0.035,0.018,0.037,0.018-0.001c0-0.077,0.016-0.115,0.019-0.118
				c0.043-0.049,0.001-0.517,0.008-0.975c0.006-0.46,0.015-0.936,0.021-1.433c0.006-0.496,0.009-0.976,0.009-1.433
				c0-0.459,0-0.782,0-0.975c0-0.075-0.013-0.263-0.037-0.565c-0.025-0.301-0.048-0.49-0.072-0.564c0-6.456,0-9.684,0-16.139
				c-0.074-0.15-0.112-0.225-0.187-0.375c-0.185-0.013-0.388-0.045-0.609-0.091c-0.221-0.046-0.43-0.177-0.62-0.4
				c-0.19-0.222-0.35-0.554-0.473-0.994c-0.123-0.442-0.183-1.066-0.183-1.867c0-0.459,0.055-0.894,0.166-1.309
				c0.11-0.415,0.252-0.635,0.425-0.658c1.124-0.152,1.686-0.229,2.81-0.381c0.123-0.207,0.225-0.334,0.305-0.383
				s0.182-0.085,0.305-0.102c0.369-0.05,0.704,0.186,0.998,0.696c0.296,0.514,0.443,1.379,0.443,2.599
				c0,0.077-0.002,0.246-0.008,0.514s-0.003,0.449-0.01,0.519c-0.039,0.395-0.196,0.755-0.332,0.964s-0.281,0.352-0.436,0.43
				c-0.153,0.077-0.311,0.129-0.471,0.15s-0.303,0.041-0.426,0.058c-0.029,0.096-0.044,0.142-0.073,0.237
				c0.015,5.104,0.024,7.654,0.039,12.758c0,0.436,0,0.652,0,1.088c0.015,7.438,0.02,11.157,0.034,18.596
				c0,0.803-0.102,1.503-0.305,2.103c-0.204,0.6-0.428,0.918-0.674,0.951c-0.222,0.03-0.438-0.189-0.647-0.657
				c-0.21-0.467-0.347-1.019-0.408-1.66c-0.288-2.822-0.432-4.235-0.72-7.058C96.756,42.844,96.607,41.798,96.49,40.708z"/>
			<path d="M104.241,49.278c0-0.075,0.004-0.238,0.01-0.486s0.003-0.42,0.012-0.487c0.054-0.423,0.231-0.829,0.33-1.071
				s0.203-0.437,0.314-0.586c0.111-0.147,0.229-0.288,0.351-0.418c0.123-0.131,0.271-0.321,0.444-0.575
				c0.086-0.125,0.163-0.344,0.23-0.657s0.123-0.646,0.166-0.993c0.043-0.35,0.08-0.708,0.111-1.073
				c0.03-0.365,0.06-0.684,0.085-0.953c0.036-0.385,0.093-1.057,0.173-2.02s0.168-1.981,0.26-3.062
				c0.093-1.076,0.18-2.097,0.26-3.06s0.131-1.644,0.174-2.023c0.095-0.84,0.186-1.677,0.223-2.482
				c0.037-0.803,0.109-1.637,0.203-2.483c0.205-1.842,0.399-3.706,0.603-5.561c0.204-1.854,0.387-3.711,0.562-5.558
				c0.036-0.385,0.079-0.864,0.122-1.44s0.099-1.128,0.172-1.65c0.073-0.523,0.175-0.974,0.298-1.352s0.283-0.584,0.48-0.61
				c0.222-0.03,0.399,0.175,0.535,0.613c0.136,0.437,0.244,0.964,0.324,1.58s0.142,1.258,0.185,1.917
				c0.043,0.661,0.084,1.179,0.12,1.554c0.124,1.276,0.224,2.585,0.298,3.926s0.213,2.604,0.423,3.795
				c0.695,8.033,1.043,12.054,1.737,20.088c0.037,0.375,0.11,0.667,0.215,0.882s0.223,0.38,0.358,0.496
				c0.136,0.114,0.27,0.198,0.397,0.257c0.13,0.059,0.282,0.118,0.342,0.182c0.249,0.265,0.351,1.117,0.351,2.067
				c0,0.914-0.094,1.618-0.278,2.119s-0.415,0.77-0.698,0.808c-0.308,0.042-0.631,0.059-0.963,0.046s-0.667-0.035-0.942-0.017
				c-0.186,0.013-0.387,0.033-0.558,0.02c-0.172-0.014-0.323-0.099-0.459-0.252s-0.244-0.412-0.324-0.783
				c-0.08-0.369-0.119-0.896-0.119-1.582c0-0.389,0.001-0.582,0.001-0.971c0.086-0.352,0.186-0.623,0.303-0.811
				s0.234-0.365,0.352-0.532c0.117-0.169,0.222-0.345,0.313-0.529c0.093-0.185,0.178-0.448,0.195-0.74
				c0.004-0.071-0.008-0.238-0.021-0.483s-0.024-0.499-0.043-0.763s-0.036-0.51-0.048-0.736s-0.027-0.378-0.037-0.452
				c-0.015-0.108-0.031-0.32-0.056-0.621s-0.062-0.617-0.11-0.952c-0.049-0.337-0.101-0.636-0.155-0.895
				c-0.056-0.259-0.114-0.385-0.176-0.376c-1.161,0.157-1.743,0.237-2.903,0.396c-0.025,0.003-0.087,0.135-0.186,0.396
				s-0.154,0.431-0.166,0.51c-0.207,1.375-0.311,2.062-0.518,3.437c0,0.038-0.004,0.152-0.01,0.342
				c-0.006,0.191-0.008,0.328-0.008,0.403c0,0.647,0.06,1.075,0.177,1.288s0.242,0.405,0.377,0.575
				c0.136,0.171,0.261,0.411,0.378,0.72c0.117,0.308,0.177,0.859,0.177,1.658c0,0.876-0.095,1.519-0.286,1.925
				c-0.19,0.405-0.422,0.628-0.692,0.665c-0.173,0.023-0.343,0.01-0.509-0.044s-0.343-0.07-0.527-0.045
				c-0.247,0.033-0.487,0.133-0.721,0.298c-0.233,0.164-0.475,0.263-0.721,0.296c-0.283,0.039-0.506-0.263-0.666-0.906
				S104.241,50.077,104.241,49.278z M108.53,34.834c0.053,0.208,0.264,0.376,0.387,0.378s0.272-0.011,0.445-0.034
				c0.246-0.033,0.488-0.123,0.729-0.27c0.239-0.146,0.492-0.274,0.751-0.387c0.029-0.096,0.045-0.142,0.074-0.237
				c0-0.038,0-0.147,0.007-0.318c0.006-0.173,0.011-0.296,0.011-0.373c0-0.305-0.026-0.827-0.075-1.564s-0.116-1.548-0.196-2.434
				c-0.08-0.885-0.168-1.8-0.267-2.74s-0.19-1.797-0.276-2.568c-0.087-0.771-0.16-1.408-0.222-1.915s-0.1-0.76-0.111-0.758
				c-0.05,0.007-0.084,0.108-0.108,0.303c-0.025,0.194-0.047,0.33-0.058,0.406c-0.042,0.305-0.088,0.769-0.155,1.368
				s-0.14,1.199-0.213,1.801c-0.074,0.604-0.139,1.144-0.194,1.629s-0.092,0.788-0.104,0.904c-0.102,1.003-0.196,2.029-0.295,3.072
				c-0.099,1.045-0.148,2.061-0.148,3.052c0,0.077,0.004,0.192,0.01,0.343C108.526,34.644,108.517,34.779,108.53,34.834z"/>
			<path d="M119.665,49.93c-0.376,0.203-0.76,0.331-1.154,0.384c-0.32,0.043-0.594-0.215-0.822-0.775s-0.345-1.339-0.345-2.332
				c0-1.029,0.101-1.806,0.298-2.329c0.197-0.521,0.455-0.803,0.775-0.846c0.209-0.028,0.413,0.069,0.61,0.29s0.4,0.318,0.61,0.29
				c0.111-0.015,0.22-0.143,0.331-0.388c0.11-0.243,0.232-0.547,0.261-0.835c0.014-0.136,0.004-0.44,0.011-0.862
				c0.006-0.42,0.007-0.704,0.007-0.857c0-0.419,0-0.877,0-1.372c0-0.497-0.03-0.972-0.092-1.421c0-6.892,0-10.337,0-17.229
				c0.062-0.543,0.092-1.232,0.092-2.072c0-0.878,0-1.508,0-1.89c0-0.267,0-0.631,0-1.088c0-0.495-0.006-0.743-0.018-0.741
				c-0.081-0.31-0.122-0.466-0.203-0.775c-0.784,0.104-1.178,0.156-1.962,0.262c-0.246,0.033-0.44-0.266-0.582-0.895
				c-0.142-0.631-0.211-1.268-0.211-1.917c0-1.029,0.117-1.807,0.352-2.335c0.233-0.526,0.505-0.813,0.813-0.854
				c0.246-0.033,0.495,0.011,0.74,0.13c0.245,0.118,0.492,0.163,0.739,0.13c0.197-0.026,0.388-0.09,0.572-0.19
				c0.184-0.101,0.376-0.162,0.573-0.188s0.385-0.014,0.557,0.04s0.35,0.066,0.534,0.042c0.197-0.026,0.388-0.089,0.572-0.189
				c0.184-0.101,0.382-0.167,0.592-0.194c0.173-0.022,0.355-0.007,0.545,0.044c0.19,0.051,0.368,0.181,0.527,0.388
				c0.16,0.208,0.295,0.516,0.399,0.921c0.104,0.407,0.155,0.952,0.155,1.638c0,0.649-0.065,1.223-0.194,1.718
				s-0.305,0.753-0.526,0.782c-0.843,0.11-1.265,0.167-2.107,0.278c-0.029,0.096-0.045,0.143-0.074,0.238
				c0,0.192-0.004,0.513-0.01,0.973c-0.006,0.458-0.012,0.956-0.018,1.491c-0.007,0.535-0.014,1.033-0.026,1.492
				c-0.013,0.46-0.021,0.786-0.021,0.977c0,0.075-0.009,0.261-0.027,0.549c-0.019,0.289-0.035,0.471-0.047,0.548
				c0,8.884,0.001,13.324,0,22.207c0,0.115,0.037,0.197,0.111,0.244s0.162,0.084,0.26,0.109s0.196,0.051,0.295,0.075
				s0.172,0.056,0.203,0.087c0.087,0.087,0.146,0.182,0.176,0.234c0.03,0.055,0.057,0.1,0.075,0.135s0.035,0.062,0.046,0.077
				c0.013,0.018,0.05,0.026,0.112,0.019c0.123-0.017,0.232-0.14,0.331-0.362s0.228-0.385,0.351-0.418
				c0.041-0.011,0.148-0.038,0.296-0.097c0.146-0.058,0.301-0.105,0.46-0.146c0.159-0.041,0.313-0.08,0.454-0.117
				s0.265-0.049,0.304-0.067c0.212-0.098,0.423-0.675,0.528-1.357c0.104-0.681,0.181-1.472,0.224-2.374
				c0.043-0.901,0.067-1.851,0.073-2.843s0.03-1.912,0.073-2.758c0.043-0.845,0.121-1.551,0.238-2.121
				c0.117-0.567,0.311-0.871,0.569-0.904c0.222-0.029,0.396,0.217,0.524,0.734s0.194,1.138,0.194,1.863
				c0,4.03-0.002,6.045-0.002,10.074c0.062,0.373,0.096,0.665,0.102,0.874s0.012,0.465,0.012,0.769c0,0.344-0.028,0.758-0.077,1.242
				c-0.05,0.482-0.115,0.939-0.195,1.369c-0.081,0.432-0.178,0.796-0.295,1.097c-0.117,0.302-0.242,0.462-0.378,0.479
				c-1.708,0.222-2.563,0.334-4.271,0.56c-0.025,0.043-0.083,0.109-0.175,0.197c-0.092,0.089-0.148,0.151-0.173,0.192
				c-0.015,0.002-0.024,0.001-0.039,0.003c-0.246,0.032-0.493-0.046-0.739-0.242s-0.499-0.277-0.758-0.243
				C120.42,49.601,120.041,49.727,119.665,49.93z"/>
			<path d="M130.449,43.654c0.259-0.567,0.55-0.873,0.871-0.914c0.173-0.022,0.341,0.005,0.507,0.079
				c0.165,0.074,0.335,0.102,0.508,0.08c0.012-0.002,0.067-0.019,0.166-0.051c0.098-0.032,0.197-0.083,0.295-0.152
				c0.099-0.07,0.191-0.156,0.278-0.264c0.086-0.105,0.129-0.217,0.129-0.332c0.001-10.118,0.003-15.178,0.002-25.298
				c0.062-0.39,0.097-0.726,0.109-1.015c0.013-0.287,0.018-0.625,0.018-1.008c0-0.075-0.003-0.197-0.009-0.368
				s-0.009-0.277-0.009-0.315c-0.029-0.134-0.043-0.201-0.072-0.335c-0.784,0.099-1.177,0.149-1.961,0.249
				c-0.136,0.018-0.271-0.067-0.407-0.26s-0.258-0.456-0.369-0.785c-0.11-0.329-0.203-0.695-0.277-1.105s-0.111-0.827-0.111-1.248
				c0-0.457,0.037-0.882,0.111-1.272c0.074-0.39,0.17-0.727,0.287-1.01c0.117-0.281,0.249-0.5,0.396-0.651s0.29-0.234,0.426-0.252
				c0.099-0.013,0.183-0.017,0.249-0.007s0.163,0.105,0.286,0.28c1.183-0.15,1.773-0.225,2.956-0.372
				c0.197,0.317,0.47,0.436,0.815,0.354s0.684-0.107,1.016-0.072s0.619,0.234,0.859,0.586s0.36,1.119,0.36,2.301
				c0,1.106-0.107,1.833-0.323,2.185c-0.215,0.35-0.485,0.546-0.806,0.586c-0.234,0.029-0.454,0.011-0.663-0.059
				s-0.433-0.092-0.666-0.063c-0.148,0.019-0.223,0.029-0.37,0.048c-0.029,0.095-0.044,0.141-0.073,0.235
				c0,3.847,0.002,5.771,0.002,9.618c0.037,0.415,0.059,0.745,0.065,0.992c0.006,0.248,0.008,0.561,0.008,0.942
				c0,0.344-0.002,0.651-0.008,0.919c-0.007,0.269-0.028,0.595-0.065,0.98c0,5.999-0.001,8.998-0.002,14.996
				c0.089,0.286,0.131,0.433,0.22,0.719c0.718-0.09,1.075-0.135,1.793-0.224c0.11-0.014,0.229,0.049,0.353,0.185
				c0.123,0.138,0.237,0.326,0.335,0.562c0.099,0.236,0.181,0.521,0.248,0.856s0.104,0.674,0.104,1.018
				c0,1.106-0.139,1.971-0.416,2.596s-0.576,0.959-0.896,0.998c-1.013,0.125-1.522,0.189-2.535,0.316
				c-0.16-0.171-0.353-0.233-0.581-0.186s-0.41,0.082-0.546,0.099c-0.283,0.036-0.548,0.106-0.794,0.214
				c-0.245,0.107-0.512,0.18-0.795,0.216c-0.173,0.022-0.343-0.007-0.508-0.08c-0.165-0.074-0.317-0.225-0.453-0.456
				c-0.136-0.23-0.241-0.549-0.321-0.96c-0.08-0.409-0.122-0.937-0.122-1.586C130.062,45.058,130.19,44.222,130.449,43.654z"/>
			<path d="M140.394,42.198c0.147-0.764,0.321-1.521,0.519-2.273c0.197-0.751,0.395-1.473,0.599-2.167
				c0.203-0.694,0.359-1.357,0.473-1.979c0.241-1.328,0.521-2.607,0.823-3.829c0.302-1.224,0.578-2.491,0.842-3.777
				c0.192-0.938,0.388-1.902,0.572-2.881c0.185-0.978,0.383-1.938,0.591-2.88c0.087-0.393,0.252-1.112,0.498-2.156
				c0.246-1.043,0.5-2.123,0.759-3.244s0.489-2.17,0.692-3.15s0.305-1.624,0.305-1.93c0-0.153-0.009-0.327-0.027-0.516
				c-0.019-0.19-0.064-0.279-0.139-0.271c-1.102,0.126-1.652,0.188-2.754,0.317c-0.013,0.002-0.045,0.045-0.095,0.126
				c-0.05,0.083-0.104,0.173-0.165,0.274c-0.062,0.104-0.117,0.209-0.173,0.31s-0.104,0.192-0.143,0.272
				c-0.21,0.441-0.36,1.199-0.416,2.256s-0.098,2.118-0.135,3.189c-0.037,1.073-0.108,2.027-0.213,2.859
				c-0.104,0.834-0.317,1.27-0.638,1.308c-0.21,0.025-0.368-0.185-0.479-0.63c-0.111-0.444-0.194-0.983-0.206-1.579
				c-0.002-0.113-0.004-0.296-0.01-0.544c-0.006-0.247-0.007-0.523-0.007-0.829c0-0.304,0-0.591,0-0.858c0-0.267,0-0.459,0-0.572
				c0-0.153,0-0.382,0-0.688c0-0.305-0.002-0.61-0.002-0.916c0-0.305,0.003-0.571,0.009-0.801s0.01-0.363,0.01-0.401
				c0-0.075,0.009-0.29,0.027-0.634c0.019-0.346,0.04-0.699,0.064-1.066c0.025-0.364,0.049-0.709,0.073-1.037
				s0.037-0.532,0.039-0.607c0.019-0.71,0.069-1.388,0.1-1.984c0.03-0.595,0.085-1.11,0.159-1.538
				c0.074-0.43,0.185-0.756,0.333-0.983c0.147-0.228,0.369-0.356,0.665-0.392c0.133-0.016,0.199-0.022,0.332-0.038
				c0.136-0.016,0.347-0.033,0.629-0.048c0.281-0.015,0.603-0.03,0.961-0.053c0.356-0.022,0.734-0.05,1.128-0.075
				s0.772-0.05,1.129-0.07s0.678-0.049,0.961-0.081s0.524-0.085,0.626-0.071c0.179,0.024,0.4,0.317,0.536,0.684
				s0.204,0.912,0.204,1.637c0,0.801-0.071,1.669-0.213,2.601c-0.142,0.93-0.311,1.846-0.508,2.745s-0.402,1.744-0.618,2.531
				c-0.216,0.789-0.39,1.486-0.545,2.064c-0.229,0.857-0.437,1.844-0.572,2.927c-0.136,1.085-0.309,2.096-0.519,3.036
				c-0.271,1.214-0.563,2.396-0.878,3.537c-0.314,1.145-0.551,2.425-0.86,3.59c-0.01,0.038-0.029,0.137-0.054,0.291
				c-0.025,0.156-0.058,0.323-0.095,0.499c-0.037,0.175-0.066,0.343-0.091,0.499c-0.025,0.156-0.046,0.253-0.055,0.29
				c-0.077,0.327-0.184,0.919-0.362,1.703s-0.359,1.616-0.544,2.497c-0.185,0.879-0.35,1.681-0.491,2.403s-0.213,1.199-0.213,1.428
				c0,0.19,0.018,0.39,0.048,0.596s0.094,0.303,0.192,0.291c1.56-0.185,2.338-0.272,3.897-0.451
				c0.025-0.003,0.095-0.098,0.206-0.282s0.19-0.34,0.241-0.457c0.172-0.396,0.313-0.949,0.387-1.644
				c0.074-0.695,0.129-1.446,0.159-2.251s0.051-1.619,0.063-2.442c0.013-0.821,0.042-1.566,0.092-2.24
				c0.05-0.673,0.13-1.226,0.24-1.659c0.111-0.432,0.29-0.661,0.536-0.688s0.437,0.263,0.565,0.877
				c0.129,0.616,0.192,1.269,0.192,1.954c0,4.58,0,6.871,0,11.45c0,0.647-0.105,1.25-0.32,1.809
				c-0.216,0.559-0.427,0.846-0.624,0.868c-2.284,0.257-3.425,0.389-5.71,0.659c-0.136,0.312-0.273,0.488-0.415,0.529
				s-0.287,0.069-0.435,0.087c-0.197,0.023-0.411,0.021-0.639-0.008c-0.229-0.029-0.439-0.141-0.637-0.327
				c-0.196-0.186-0.364-0.491-0.5-0.915s-0.203-1.038-0.203-1.842C140.171,43.708,140.245,42.962,140.394,42.198z"/>
			<path d="M151.799,43.229c0-0.075,0.001-0.237,0.007-0.485s0.001-0.419,0.01-0.486c0.055-0.419,0.236-0.823,0.335-1.063
				s0.201-0.431,0.313-0.577c0.111-0.145,0.229-0.28,0.352-0.407c0.123-0.127,0.27-0.313,0.442-0.563
				c0.086-0.123,0.163-0.342,0.23-0.653s0.126-0.641,0.169-0.987c0.043-0.349,0.08-0.704,0.111-1.068
				c0.03-0.364,0.056-0.682,0.081-0.95c0.037-0.384,0.096-1.054,0.176-2.015s0.169-1.977,0.261-3.054
				c0.093-1.073,0.177-2.091,0.257-3.052s0.133-1.641,0.176-2.019c0.095-0.836,0.187-1.671,0.224-2.476
				c0.036-0.802,0.109-1.634,0.203-2.478c0.205-1.836,0.396-3.691,0.599-5.539s0.389-3.701,0.563-5.542
				c0.036-0.383,0.077-0.86,0.12-1.436s0.102-1.126,0.176-1.646c0.074-0.521,0.173-0.969,0.296-1.342s0.283-0.572,0.48-0.593
				c0.222-0.022,0.4,0.187,0.536,0.63c0.136,0.441,0.244,0.977,0.324,1.596s0.141,1.261,0.184,1.921
				c0.043,0.662,0.086,1.183,0.122,1.559c0.124,1.28,0.222,2.593,0.296,3.937s0.214,2.612,0.424,3.81
				c0.695,8.059,1.043,12.09,1.737,20.149c0.037,0.376,0.107,0.672,0.212,0.891s0.227,0.387,0.362,0.508
				c0.136,0.119,0.267,0.213,0.396,0.276c0.13,0.064,0.28,0.128,0.341,0.194c0.252,0.277,0.353,1.128,0.353,2.078
				c0,0.914-0.093,1.614-0.277,2.107s-0.42,0.754-0.703,0.781c-0.308,0.029-0.629,0.036-0.961,0.011s-0.665-0.062-0.941-0.053
				c-0.186,0.006-0.385,0.02-0.556,0c-0.173-0.02-0.327-0.109-0.463-0.268s-0.24-0.422-0.32-0.795
				c-0.08-0.372-0.122-0.901-0.122-1.587c0-0.389,0-0.581,0-0.97c0.086-0.349,0.188-0.619,0.305-0.803s0.234-0.357,0.352-0.521
				c0.117-0.165,0.223-0.333,0.314-0.514c0.093-0.181,0.177-0.443,0.194-0.734c0.004-0.071-0.007-0.238-0.019-0.484
				s-0.028-0.499-0.047-0.764s-0.031-0.511-0.044-0.738s-0.027-0.379-0.037-0.453c-0.015-0.109-0.032-0.319-0.058-0.621
				c-0.024-0.302-0.06-0.621-0.108-0.958c-0.05-0.339-0.101-0.641-0.155-0.901c-0.056-0.261-0.116-0.386-0.178-0.38
				c-1.16,0.116-1.739,0.175-2.9,0.295c-0.025,0.003-0.088,0.131-0.187,0.389s-0.153,0.425-0.166,0.504
				c-0.207,1.368-0.311,2.054-0.518,3.422c0,0.038-0.005,0.153-0.011,0.343c-0.006,0.191-0.009,0.328-0.009,0.403
				c0,0.647,0.058,1.078,0.175,1.294s0.244,0.412,0.379,0.587c0.136,0.176,0.262,0.419,0.379,0.731
				c0.117,0.311,0.176,0.863,0.176,1.662c0,0.876-0.096,1.517-0.287,1.917c-0.19,0.399-0.423,0.611-0.693,0.64
				c-0.173,0.019-0.342,0-0.508-0.059s-0.342-0.077-0.526-0.058c-0.247,0.026-0.487,0.117-0.721,0.275
				c-0.233,0.157-0.475,0.249-0.721,0.275c-0.283,0.03-0.504-0.275-0.664-0.923S151.799,44.028,151.799,43.229z M156.089,28.916
				c0.053,0.212,0.263,0.382,0.386,0.388s0.271,0.001,0.443-0.017c0.246-0.025,0.49-0.106,0.73-0.245
				c0.239-0.139,0.488-0.26,0.747-0.363c0.029-0.095,0.045-0.143,0.074-0.237c0-0.038,0.003-0.143,0.01-0.313
				c0.006-0.173,0.01-0.298,0.01-0.375c0-0.305-0.023-0.826-0.073-1.565s-0.116-1.555-0.196-2.443
				c-0.08-0.888-0.168-1.805-0.267-2.748s-0.192-1.8-0.278-2.575c-0.087-0.773-0.159-1.416-0.221-1.925s-0.098-0.763-0.11-0.762
				c-0.05,0.005-0.086,0.105-0.11,0.299c-0.025,0.193-0.045,0.334-0.056,0.409c-0.042,0.303-0.092,0.762-0.159,1.359
				s-0.137,1.194-0.211,1.793c-0.074,0.601-0.14,1.14-0.195,1.623s-0.09,0.784-0.102,0.9c-0.102,1-0.195,2.023-0.294,3.063
				c-0.099,1.041-0.15,2.059-0.15,3.05c0,0.077,0.006,0.19,0.012,0.341C156.084,28.724,156.075,28.861,156.089,28.916z"/>
			<path d="M166.068,40.595c0.012-0.343,0.034-0.678,0.071-1.006s0.092-0.609,0.159-0.844c0.067-0.236,0.155-0.358,0.267-0.368
				c0.695-0.062,1.041-0.091,1.736-0.151c0.089-0.306,0.134-0.459,0.223-0.765c0-9.481,0-18.963,0-28.444
				c-0.029-0.089-0.045-0.134-0.074-0.223c-0.025-0.035-0.074-0.063-0.148-0.075s-0.121-0.019-0.146-0.017
				c-0.037,0.003-0.104,0.02-0.196,0.047c-0.092,0.027-0.149,0.071-0.175,0.101c-0.291,0.338-0.699,0.894-0.878,1.653
				s-0.298,1.588-0.359,2.49s-0.091,1.833-0.084,2.786c0.006,0.953-0.002,1.823-0.026,2.607s-0.101,1.438-0.224,1.965
				s-0.339,0.801-0.646,0.829c-0.246,0.022-0.432-0.323-0.555-1.037s-0.185-1.416-0.185-2.104c0-4.396,0.002-6.593,0.002-10.987
				c0-0.267,0.021-0.59,0.064-0.976s0.099-0.763,0.173-1.132s0.157-0.692,0.25-0.967c0.092-0.274,0.193-0.42,0.305-0.43
				c0.895-0.081,1.342-0.12,2.236-0.198c0.123-0.199,0.22-0.314,0.287-0.34c0.066-0.025,0.156-0.042,0.268-0.052
				c0.099-0.009,0.188-0.007,0.261,0.007s0.164,0.111,0.275,0.291c1.648-0.141,2.474-0.208,4.122-0.338
				c0.246-0.02,0.465,0.287,0.656,0.922c0.191,0.633,0.287,1.313,0.287,2.037c0,4.555,0,6.832,0,11.388
				c0,0.765-0.074,1.495-0.223,2.194c-0.147,0.699-0.351,1.058-0.609,1.078c-0.21,0.017-0.407-0.255-0.592-0.813
				s-0.277-1.18-0.277-1.867c0-2.427,0-3.641,0-6.067c0-0.649-0.053-1.207-0.157-1.677c-0.104-0.468-0.241-0.856-0.407-1.168
				s-0.345-0.536-0.535-0.673c-0.189-0.136-0.373-0.197-0.545-0.183c-0.025,0.002-0.074,0.016-0.148,0.041s-0.117,0.038-0.129,0.039
				c-0.029,0.095-0.045,0.141-0.074,0.235c0,0.457-0.009,1.03-0.027,1.719c-0.019,0.688-0.052,1.303-0.101,1.841
				c0.015,2.241,0.021,3.36,0.035,5.602c0,0.459,0,0.691,0,1.149c0.037,7.346,0.057,11.019,0.093,18.364
				c0.059,0.178,0.09,0.268,0.149,0.445c0.197-0.017,0.431-0.018,0.7-0.002s0.527,0.119,0.768,0.31s0.443,0.507,0.609,0.952
				c0.166,0.443,0.25,1.127,0.25,2.043c0,0.534-0.037,0.984-0.111,1.352c-0.074,0.37-0.172,0.665-0.295,0.885
				s-0.263,0.384-0.416,0.49c-0.154,0.108-0.312,0.167-0.472,0.18c-0.234,0.02-0.458-0.085-0.673-0.315
				c-0.215-0.229-0.442-0.337-0.677-0.317c-0.395,0.033-0.771,0.255-1.128,0.667s-0.732,0.638-1.127,0.672
				c-0.136,0.012-0.305-0.051-0.508-0.186s-0.405-0.327-0.608-0.576c-0.202-0.248-0.376-0.565-0.518-0.955
				c-0.142-0.388-0.214-0.81-0.214-1.269C166.048,41.228,166.056,40.939,166.068,40.595z"/>
			<path d="M176.563,38.827c0.259-0.553,0.549-0.844,0.869-0.866c0.173-0.013,0.343,0.026,0.509,0.11
				c0.165,0.083,0.336,0.115,0.509,0.104c0.012-0.001,0.068-0.013,0.167-0.039c0.098-0.026,0.196-0.071,0.294-0.135
				c0.099-0.064,0.19-0.146,0.277-0.249c0.086-0.101,0.13-0.205,0.13-0.32c0.001-10.118,0-15.179,0-25.298
				c0.062-0.386,0.098-0.722,0.11-1.01c0.012-0.286,0.021-0.622,0.021-1.005c0-0.075-0.005-0.198-0.011-0.37s-0.01-0.274-0.01-0.313
				c-0.029-0.136-0.044-0.204-0.073-0.34c-0.784,0.053-1.176,0.079-1.96,0.135c-0.136,0.01-0.271-0.084-0.406-0.284
				s-0.259-0.468-0.37-0.804c-0.11-0.336-0.202-0.709-0.276-1.123s-0.111-0.831-0.111-1.252c0-0.457,0.037-0.881,0.111-1.268
				c0.074-0.385,0.167-0.715,0.284-0.991c0.117-0.274,0.252-0.488,0.399-0.632c0.147-0.143,0.289-0.219,0.425-0.229
				c0.099-0.007,0.182-0.006,0.248,0.008s0.165,0.114,0.288,0.296c1.183-0.083,1.774-0.121,2.957-0.197
				c0.197,0.329,0.469,0.465,0.813,0.405s0.686-0.064,1.017-0.009c0.332,0.056,0.619,0.27,0.859,0.637s0.36,1.144,0.36,2.326
				c0,1.106-0.107,1.827-0.323,2.165c-0.215,0.336-0.483,0.515-0.804,0.534c-0.234,0.015-0.456-0.021-0.665-0.103
				s-0.433-0.116-0.666-0.102c-0.148,0.01-0.221,0.014-0.369,0.023c-0.029,0.094-0.044,0.141-0.073,0.234c0,3.847,0,5.769,0,9.615
				c0.037,0.417,0.057,0.748,0.063,0.995c0.006,0.249,0.01,0.564,0.01,0.946c0,0.344-0.004,0.648-0.01,0.915
				c-0.007,0.269-0.026,0.594-0.063,0.978c0,5.998,0,8.998,0,14.996c0.089,0.292,0.132,0.438,0.221,0.73
				c0.718-0.046,1.075-0.069,1.793-0.112c0.11-0.007,0.228,0.063,0.351,0.206c0.123,0.146,0.234,0.341,0.333,0.582
				c0.099,0.243,0.182,0.534,0.249,0.873s0.103,0.68,0.103,1.023c0,1.106-0.14,1.965-0.417,2.572s-0.575,0.921-0.896,0.94
				c-1.013,0.062-1.52,0.095-2.532,0.161c-0.16-0.18-0.354-0.255-0.582-0.221s-0.409,0.058-0.545,0.066
				c-0.283,0.02-0.549,0.075-0.795,0.169c-0.245,0.093-0.512,0.148-0.795,0.169c-0.173,0.012-0.344-0.023-0.509-0.106
				s-0.316-0.244-0.452-0.483c-0.136-0.237-0.244-0.563-0.324-0.978c-0.08-0.413-0.121-0.941-0.121-1.591
				C176.175,40.209,176.305,39.38,176.563,38.827z"/>
			<path d="M191.665,0.63c0.209,0.143,0.412,0.346,0.609,0.604s0.391,0.582,0.582,0.977c0.191,0.393,0.391,0.837,0.602,1.322
				c0.098,0.225,0.213,0.45,0.342,0.674s0.23,0.505,0.305,0.846c0.148,0.68,0.282,1.374,0.405,2.074
				c0.123,0.702,0.339,1.37,0.464,1.9c0.404,1.711,0.511,3.817,0.684,5.759c0.173,1.939,0.26,3.94,0.26,6.001
				c0,2.022-0.054,4.092-0.158,6.212c-0.104,2.122-0.286,4.131-0.545,6.03c-0.26,1.897-0.607,3.61-1.045,5.134
				s-1.013,2.698-1.654,3.525c-0.148,0.191-0.271,0.382-0.369,0.558s-0.195,0.345-0.287,0.5c-0.093,0.157-0.193,0.287-0.305,0.387
				s-0.259,0.154-0.443,0.162c-0.32,0.014-0.595-0.126-0.822-0.422c-0.229-0.296-0.478-0.646-0.748-1.053
				c-0.025-0.037-0.087-0.131-0.186-0.278c-0.098-0.146-0.204-0.304-0.314-0.47c-0.111-0.166-0.219-0.324-0.323-0.471
				c-0.104-0.146-0.167-0.266-0.194-0.334c-0.174-0.427-0.437-1.084-0.646-1.912c-0.209-0.828-0.402-1.727-0.581-2.689
				s-0.335-1.921-0.471-2.867s-0.221-1.807-0.314-2.502c-0.02-0.146-0.05-0.369-0.075-0.654c-0.024-0.284-0.045-0.57-0.063-0.854
				c-0.019-0.286-0.037-0.541-0.056-0.769s-0.029-0.362-0.029-0.4c0-3.686,0-5.527,0-9.213c0-0.038,0.018-0.25,0.048-0.633
				s0.063-0.813,0.101-1.293c0.037-0.478,0.078-0.958,0.121-1.438c0.043-0.479,0.076-0.854,0.102-1.122
				c0.154-1.607,0.355-3.213,0.59-4.81c0.233-1.595,0.525-3.033,0.87-4.309c0.345-1.277,0.75-2.315,1.219-3.12
				s1.01-1.222,1.626-1.249C191.221,0.42,191.456,0.487,191.665,0.63z M187.985,26.356c0.074,1.505,0.186,2.938,0.334,4.304
				c0.037,0.342,0.121,0.853,0.25,1.533s0.277,1.342,0.443,1.981c0.166,0.642,0.336,1.206,0.508,1.692
				c0.173,0.487,0.327,0.729,0.463,0.724c0.725-0.033,1.086-0.05,1.811-0.081c0.296-0.013,0.561-0.32,0.795-0.921
				s0.437-1.314,0.609-2.143c0.173-0.826,0.316-1.709,0.427-2.649c0.111-0.938,0.191-1.76,0.261-2.44
				c0.054-0.531,0.125-0.999,0.192-1.383s0.101-0.9,0.101-1.55c0-2.953,0-4.429,0-7.382c-0.074-0.988-0.146-1.932-0.213-2.825
				c-0.067-0.892-0.157-1.741-0.268-2.538c-0.111-0.797-0.253-1.564-0.426-2.301s-0.399-1.444-0.684-2.118
				c-0.269-0.636-0.511-1.209-0.721-1.716c-0.209-0.505-0.486-0.752-0.831-0.736c-0.543,0.024-1.011,0.638-1.405,1.839
				c-0.395,1.202-0.721,2.647-0.979,4.339c-0.259,1.693-0.453,3.457-0.582,5.294c-0.129,1.839-0.194,3.387-0.194,4.646
				C187.876,23.376,187.911,24.854,187.985,26.356z"/>
			<path d="M204.869,30.079c-0.117-1.104-0.258-2.214-0.416-3.316c-0.137-0.95-0.306-2.171-0.515-3.656
				c-0.21-1.485-0.419-2.912-0.622-4.283c-0.203-1.37-0.444-3.045-0.728-5.024c-0.029,0.001-0.045,0.002-0.074,0.003
				c0,4.579,0,6.867,0,11.446c0.05,0.418,0.074,0.82,0.074,1.202c0,0.344,0,0.725,0,1.144c0,0.421,0,0.823,0,1.205
				c0,0.342-0.024,0.723-0.074,1.143c0,2.335,0,3.504,0,5.839c0,0.306,0.067,0.607,0.203,0.911s0.246,0.454,0.333,0.453
				c0.111-0.002,0.206-0.092,0.286-0.265s0.174-0.258,0.284-0.26c0.074-0.001,0.115-0.004,0.189-0.005
				c0.049,0.039,0.12,0.107,0.219,0.2c0.099,0.095,0.195,0.188,0.287,0.281c0.093,0.095,0.173,0.18,0.24,0.254
				c0.067,0.076,0.108,0.132,0.12,0.17c0.118,0.365,0.179,0.547,0.297,0.912c0,0.32,0.002,0.48,0.002,0.801
				c0,0.612-0.04,1.217-0.114,1.809s-0.298,1.128-0.479,1.177c-0.284,0.076-0.932-0.009-1.349,0.189
				c-0.419,0.198-0.866,0.303-1.334,0.313c-0.111,0.002-0.162,0.004-0.273,0.006c-0.074,0.002-0.204-0.005-0.382-0.021
				s-0.366-0.029-0.563-0.044c-0.197-0.015-0.386-0.04-0.563-0.073c-0.179-0.033-0.338-0.031-0.38-0.048
				c-0.156-0.06-0.366-0.494-0.508-0.931c-0.142-0.435-0.213-0.977-0.213-1.626c0-0.229,0-0.344,0-0.572
				c0.05-0.536,0.126-1.139,0.23-1.809c0.104-0.671,0.296-1.094,0.49-1.131c0.04-0.008,0.133-0.012,0.25-0.033
				c0.116-0.021,0.241-0.045,0.37-0.067c0.128-0.022,0.254-0.045,0.371-0.066s0.197-0.032,0.247-0.033
				c0.06-0.185,0.089-0.275,0.148-0.46c-0.025-0.838-0.016-1.631,0.021-2.376c0.037-0.745,0.054-1.518,0.054-2.318
				c0-3.893-0.025-7.776-0.074-11.648c-0.05-3.87-0.074-7.771-0.074-11.7c-0.06-0.159-0.088-0.239-0.147-0.398
				c-0.524,0.012-0.786,0.019-1.311,0.032c-0.099,0.003-0.178-0.082-0.233-0.252s-0.099-0.377-0.129-0.624
				c-0.031-0.247-0.051-0.514-0.063-0.801c-0.013-0.285-0.021-0.525-0.021-0.716c0-0.839,0.099-1.548,0.296-2.125
				s0.445-0.869,0.741-0.876c0.835-0.021,1.255-0.03,2.09-0.046c0.246-0.005,0.457,0.316,0.636,0.961
				c0.178,0.646,0.302,1.297,0.38,1.938c0.023,0.189,0.078,0.638,0.164,1.341c0.086,0.707,0.18,1.477,0.271,2.313
				c0.093,0.839,0.181,1.621,0.267,2.345s0.144,1.184,0.166,1.372c0.014,0.113,0.055,0.396,0.129,0.854
				c0.074,0.456,0.151,0.953,0.231,1.486s0.157,1.028,0.231,1.486c0.074,0.456,0.123,0.748,0.129,0.855
				c0.002,0.037,0.009,0.132,0.027,0.284s0.035,0.314,0.047,0.486s0.027,0.334,0.046,0.485c0.019,0.152,0.025,0.252,0.027,0.287
				c0.099,1.542,0.436,3.41,0.676,5.314s0.496,3.715,0.767,5.429c0.012,0.077,0.037,0.202,0.074,0.372
				c0.037,0.172,0.063,0.278,0.075,0.315c0.012,0.037,0.017,0.037,0.017-0.001c0-0.077,0.019-0.111,0.021-0.113
				c0.04-0.04,0.002-0.517,0.009-0.974c0.006-0.459,0.011-0.936,0.017-1.433c0.006-0.495,0.008-0.971,0.008-1.428
				c0-0.459,0-0.783,0-0.976c0-0.075-0.009-0.266-0.033-0.571c-0.025-0.304-0.052-0.496-0.076-0.573c0-6.455,0-9.682,0-16.138
				c-0.074-0.159-0.11-0.243-0.185-0.402c-0.185-0.036-0.389-0.09-0.61-0.164c-0.221-0.074-0.427-0.231-0.618-0.479
				c-0.191-0.245-0.349-0.599-0.472-1.054c-0.123-0.457-0.185-1.083-0.185-1.884c0-0.459,0.056-0.889,0.167-1.291
				c0.11-0.402,0.253-0.604,0.426-0.605c1.124-0.014,1.684-0.019,2.808-0.024c0.123-0.191,0.225-0.307,0.305-0.345
				s0.182-0.061,0.305-0.061c0.369-0.001,0.707,0.275,1.001,0.826c0.296,0.554,0.441,1.442,0.441,2.662
				c0,0.077-0.003,0.249-0.009,0.516s-0.002,0.446-0.009,0.516c-0.039,0.383-0.197,0.725-0.333,0.915s-0.281,0.316-0.436,0.373
				c-0.153,0.057-0.311,0.085-0.471,0.086s-0.303,0-0.426,0.001c-0.029,0.092-0.042,0.14-0.071,0.231
				c0.015,5.105,0.019,7.657,0.033,12.762c0,0.435,0,0.651,0,1.086c0.015,7.439,0.023,11.163,0.038,18.604
				c0,0.803-0.101,1.487-0.304,2.061c-0.204,0.573-0.429,0.859-0.675,0.861c-0.222,0.002-0.435-0.244-0.645-0.739
				c-0.21-0.493-0.348-1.064-0.409-1.714c-0.288-2.859-0.433-4.287-0.721-7.146C205.14,32.248,204.986,31.184,204.869,30.079z"/>
		</g>
	</g>
</g>
<g id="threeman">
</g>
<g id="_x32__truths_and_a_lie">
</g>
<g id="cray_cray_cat_lady">
</g>
<g id="siblings">
</g>
<g id="later">
</g>
<g id="waterfall">
</g>
<g id="cheers">
</g>
<g id="rhyme">
</g>
<g id="categories">
</g>
<g id="tits">
</g>
<g id="dicks">
</g>
<g id="questions">
</g>
<g id="double_hands">
</g>
<g id="rewind">
</g>
<g id="Cryptkeeper">
</g>
<g id="Take_2_and_Redo">
</g>
<g id="Embryo">
</g>
<g id="I_am_Groot">
</g>
<g id="Mini_Me">
</g>
<g id="Ditto_1_">
</g>
<g id="reverse">
</g>
</svg>
