<?xml version="1.0" encoding="utf-8"?>
<!-- Generator: Adobe Illustrator 16.0.0, SVG Export Plug-In . SVG Version: 6.00 Build 0)  -->
<!DOCTYPE svg PUBLIC "-//W3C//DTD SVG 1.1//EN" "http://www.w3.org/Graphics/SVG/1.1/DTD/svg11.dtd">
<svg version="1.1" xmlns="http://www.w3.org/2000/svg" xmlns:xlink="http://www.w3.org/1999/xlink" x="0px" y="0px"
	 width="209.759px" height="62.361px" viewBox="0 0 209.759 62.361" enable-background="new 0 0 209.759 62.361"
	 xml:space="preserve">
<g id="Layer_1">
</g>
<g id="Blindman">
</g>
<g id="Compliments">
</g>
<g id="HAT">
</g>
<g id="speech">
</g>
<g id="TREX_ARMS">
</g>
<g id="slim_shady">
</g>
<g id="TIMEOUT">
</g>
<g id="Truth_or_Dare">
</g>
<g id="ARM_WRESTLE">
</g>
<g id="musical_chairs">
</g>
<g id="never_have_i_ever">
</g>
<g id="Trivia">
</g>
<g id="Drink_Pulling">
</g>
<g id="Sharing_is_Caring">
</g>
<g id="Not_It">
</g>
<g id="Cocktail_of_Doom">
</g>
<g id="Heads_up">
</g>
<g id="Archenemy">
</g>
<g id="battle_of_the_sexes">
</g>
<g id="one_must_drink">
</g>
<g id="rainbow_connection">
</g>
<g id="social_drinking">
</g>
<g id="Spin_the_bottle">
</g>
<g id="accents">
</g>
<g id="Slap">
</g>
<g id="rub">
	<g>
		<path d="M28.59,34.65c-0.895,0.015-1.694,0.187-2.398,0.517s-1.21,0.825-1.518,1.485v6.974h-2.948V32.098h2.706v2.464
			c0.205-0.396,0.447-0.751,0.727-1.066c0.278-0.315,0.579-0.591,0.901-0.825s0.649-0.414,0.979-0.539
			c0.33-0.124,0.648-0.187,0.957-0.187c0.161,0,0.282,0,0.362,0c0.081,0,0.158,0.007,0.231,0.021V34.65z"/>
		<path d="M35.85,43.846c-1.188,0-2.09-0.381-2.706-1.144s-0.924-1.893-0.924-3.388v-7.217h2.947v6.578
			c0,1.775,0.639,2.662,1.914,2.662c0.572,0,1.126-0.172,1.661-0.517s0.972-0.869,1.31-1.573v-7.15h2.947v8.141
			c0,0.308,0.056,0.527,0.165,0.66c0.11,0.132,0.29,0.205,0.539,0.22v2.508c-0.293,0.059-0.539,0.096-0.737,0.11
			c-0.197,0.014-0.377,0.021-0.538,0.021c-0.528,0-0.957-0.121-1.287-0.363c-0.33-0.241-0.524-0.575-0.583-1.001l-0.066-0.924
			c-0.514,0.792-1.174,1.387-1.979,1.782C37.704,43.648,36.817,43.846,35.85,43.846z"/>
		<path d="M54.572,43.846c-0.881,0-1.665-0.197-2.354-0.594c-0.689-0.396-1.232-0.938-1.628-1.628v2.002h-2.574v-16.06h2.948v6.556
			c0.41-0.704,0.949-1.25,1.617-1.639c0.667-0.389,1.448-0.583,2.343-0.583c0.748,0,1.43,0.161,2.046,0.483
			c0.616,0.323,1.147,0.756,1.595,1.298c0.447,0.543,0.792,1.181,1.034,1.914s0.363,1.504,0.363,2.311
			c0,0.836-0.136,1.613-0.407,2.332s-0.648,1.346-1.133,1.881s-1.056,0.957-1.716,1.265C56.046,43.692,55.334,43.846,54.572,43.846z
			 M53.758,41.338c0.469,0,0.902-0.092,1.298-0.275c0.396-0.183,0.733-0.429,1.012-0.736c0.279-0.309,0.495-0.667,0.649-1.078
			c0.154-0.41,0.231-0.851,0.231-1.32c0-0.469-0.074-0.916-0.221-1.342c-0.146-0.425-0.355-0.799-0.627-1.122
			c-0.271-0.322-0.59-0.579-0.957-0.77c-0.366-0.19-0.77-0.286-1.21-0.286c-0.66,0-1.25,0.217-1.771,0.648
			c-0.521,0.434-0.921,0.965-1.199,1.596v2.75c0.103,0.293,0.253,0.558,0.451,0.792s0.421,0.437,0.671,0.604
			c0.249,0.169,0.521,0.301,0.813,0.396C53.193,41.291,53.479,41.338,53.758,41.338z"/>
		<path d="M64.053,30.492v-2.926h2.948v2.926H64.053z M64.053,43.626V32.098h2.948v11.528H64.053z"/>
		<path d="M79.629,43.626l-3.344-4.994l-1.584,1.563v3.432h-2.948v-16.06h2.948v9.745l4.62-5.191h3.146l-4.29,4.884l4.599,6.622
			H79.629z"/>
		<path d="M90.476,43.846c-0.968,0-1.914-0.153-2.838-0.462c-0.925-0.308-1.717-0.748-2.376-1.319l1.1-1.849
			c0.704,0.499,1.39,0.877,2.057,1.133c0.668,0.257,1.331,0.386,1.991,0.386c0.587,0,1.049-0.11,1.386-0.33
			c0.338-0.221,0.507-0.535,0.507-0.946c0-0.41-0.198-0.711-0.595-0.902c-0.396-0.19-1.041-0.41-1.936-0.66
			c-0.748-0.205-1.386-0.402-1.914-0.594c-0.528-0.19-0.954-0.407-1.276-0.648c-0.322-0.242-0.558-0.521-0.704-0.836
			s-0.22-0.693-0.22-1.134c0-0.586,0.113-1.114,0.341-1.584c0.228-0.469,0.547-0.868,0.957-1.198c0.411-0.33,0.892-0.583,1.441-0.76
			c0.55-0.176,1.147-0.264,1.793-0.264c0.865,0,1.676,0.125,2.431,0.374c0.756,0.25,1.448,0.652,2.079,1.21l-1.188,1.782
			c-0.587-0.44-1.155-0.763-1.705-0.968c-0.551-0.206-1.097-0.309-1.64-0.309c-0.498,0-0.916,0.103-1.254,0.309
			c-0.337,0.205-0.506,0.535-0.506,0.989c0,0.206,0.04,0.374,0.121,0.507c0.08,0.132,0.209,0.249,0.385,0.352
			s0.407,0.202,0.693,0.297c0.286,0.096,0.642,0.194,1.067,0.297c0.792,0.206,1.47,0.411,2.034,0.616s1.026,0.44,1.387,0.704
			c0.358,0.264,0.623,0.568,0.792,0.913c0.168,0.345,0.253,0.759,0.253,1.243c0,1.129-0.418,2.021-1.254,2.673
			S91.912,43.846,90.476,43.846z"/>
		<path d="M105.787,37.862c0-0.807,0.139-1.569,0.418-2.288c0.278-0.719,0.682-1.35,1.21-1.893c0.528-0.542,1.166-0.975,1.914-1.298
			c0.748-0.322,1.591-0.483,2.53-0.483c1.261,0,2.335,0.271,3.223,0.813c0.887,0.543,1.551,1.254,1.991,2.134l-2.883,0.88
			c-0.249-0.425-0.579-0.751-0.989-0.979c-0.411-0.228-0.866-0.341-1.364-0.341c-0.426,0-0.821,0.084-1.188,0.253
			c-0.366,0.169-0.686,0.403-0.956,0.704c-0.272,0.301-0.484,0.663-0.639,1.089s-0.23,0.895-0.23,1.408s0.08,0.982,0.241,1.407
			c0.162,0.426,0.378,0.792,0.649,1.101c0.271,0.308,0.59,0.547,0.957,0.715c0.366,0.169,0.755,0.253,1.166,0.253
			c0.528,0,1.016-0.132,1.463-0.396c0.447-0.265,0.759-0.587,0.936-0.969l2.882,0.88c-0.396,0.881-1.049,1.6-1.958,2.156
			c-0.91,0.558-2.002,0.836-3.278,0.836c-0.938,0-1.782-0.161-2.53-0.483c-0.748-0.323-1.386-0.76-1.914-1.31
			c-0.527-0.55-0.935-1.188-1.221-1.914C105.93,39.413,105.787,38.654,105.787,37.862z"/>
		<path d="M124.531,43.846c-1.188,0-2.09-0.381-2.706-1.144s-0.924-1.893-0.924-3.388v-7.217h2.947v6.578
			c0,1.775,0.639,2.662,1.914,2.662c0.572,0,1.126-0.172,1.661-0.517s0.972-0.869,1.31-1.573v-7.15h2.947v8.141
			c0,0.308,0.056,0.527,0.165,0.66c0.11,0.132,0.29,0.205,0.539,0.22v2.508c-0.293,0.059-0.539,0.096-0.737,0.11
			c-0.197,0.014-0.377,0.021-0.538,0.021c-0.528,0-0.957-0.121-1.287-0.363c-0.33-0.241-0.524-0.575-0.583-1.001l-0.066-0.924
			c-0.514,0.792-1.174,1.387-1.979,1.782C126.386,43.648,125.499,43.846,124.531,43.846z"/>
		<path d="M143.253,43.846c-0.881,0-1.665-0.197-2.354-0.594c-0.689-0.396-1.232-0.938-1.628-1.628v2.002h-2.574v-16.06h2.948v6.556
			c0.41-0.704,0.949-1.25,1.617-1.639c0.667-0.389,1.448-0.583,2.343-0.583c0.748,0,1.43,0.161,2.046,0.483
			c0.616,0.323,1.147,0.756,1.595,1.298c0.447,0.543,0.792,1.181,1.034,1.914s0.363,1.504,0.363,2.311
			c0,0.836-0.136,1.613-0.407,2.332s-0.648,1.346-1.133,1.881s-1.056,0.957-1.716,1.265
			C144.727,43.692,144.015,43.846,143.253,43.846z M142.438,41.338c0.469,0,0.902-0.092,1.298-0.275
			c0.396-0.183,0.733-0.429,1.012-0.736c0.279-0.309,0.495-0.667,0.649-1.078c0.154-0.41,0.231-0.851,0.231-1.32
			c0-0.469-0.074-0.916-0.221-1.342c-0.146-0.425-0.355-0.799-0.627-1.122c-0.271-0.322-0.59-0.579-0.957-0.77
			c-0.366-0.19-0.77-0.286-1.21-0.286c-0.66,0-1.25,0.217-1.771,0.648c-0.521,0.434-0.921,0.965-1.199,1.596v2.75
			c0.103,0.293,0.253,0.558,0.451,0.792s0.421,0.437,0.671,0.604c0.249,0.169,0.521,0.301,0.813,0.396
			C141.874,41.291,142.16,41.338,142.438,41.338z"/>
		<path d="M158.081,43.846c-0.925,0-1.761-0.157-2.509-0.473s-1.386-0.744-1.914-1.287c-0.527-0.542-0.935-1.173-1.221-1.892
			s-0.429-1.475-0.429-2.267c0-0.821,0.139-1.595,0.418-2.32c0.278-0.727,0.682-1.364,1.21-1.914
			c0.528-0.551,1.169-0.986,1.925-1.31c0.755-0.322,1.603-0.483,2.541-0.483s1.778,0.161,2.519,0.483
			c0.741,0.323,1.372,0.756,1.893,1.298c0.521,0.543,0.916,1.174,1.188,1.893s0.407,1.467,0.407,2.244
			c0,0.19-0.004,0.374-0.011,0.55c-0.008,0.176-0.025,0.322-0.055,0.439h-8.91c0.044,0.455,0.153,0.858,0.33,1.21
			c0.176,0.353,0.403,0.653,0.682,0.902c0.278,0.25,0.594,0.44,0.946,0.572c0.352,0.132,0.718,0.198,1.1,0.198
			c0.587,0,1.141-0.144,1.661-0.43s0.876-0.663,1.067-1.133l2.529,0.704c-0.425,0.88-1.104,1.603-2.034,2.167
			C160.482,43.563,159.371,43.846,158.081,43.846z M161.072,36.894c-0.073-0.865-0.393-1.558-0.957-2.078s-1.25-0.781-2.057-0.781
			c-0.396,0-0.767,0.069-1.111,0.209s-0.648,0.334-0.913,0.583c-0.264,0.249-0.48,0.55-0.648,0.901
			c-0.169,0.353-0.268,0.741-0.297,1.166H161.072z"/>
	</g>
</g>
<g id="down_the_hatch">
</g>
<g id="rubiks_cube">
</g>
<g id="bar_tender">
</g>
<g id="codenames">
</g>
<g id="hand_switch">
</g>
<g id="make_a_rule">
</g>
<g id="no_guts_no_glory">
</g>
<g id="pass">
</g>
<g id="santa">
</g>
<g id="snake_eyes">
</g>
<g id="bodyguard">
</g>
<g id="threeman">
</g>
<g id="_x32__truths_and_a_lie">
</g>
<g id="cray_cray_cat_lady">
</g>
<g id="siblings">
</g>
<g id="later">
</g>
<g id="waterfall">
</g>
<g id="cheers">
</g>
<g id="rhyme">
</g>
<g id="categories">
</g>
<g id="tits">
</g>
<g id="dicks">
</g>
<g id="questions">
</g>
<g id="double_hands">
</g>
<g id="take_2">
</g>
<g id="take_3">
</g>
<g id="give_3">
</g>
<g id="give_2">
</g>
<g id="rewind">
</g>
<g id="Cryptkeeper">
</g>
<g id="Take_2_and_Redo">
</g>
<g id="Embryo">
</g>
<g id="I_am_Groot">
</g>
<g id="Mini_Me">
</g>
<g id="Ditto_1_">
</g>
</svg>
