<?xml version="1.0" encoding="utf-8"?>
<!-- Generator: Adobe Illustrator 16.0.0, SVG Export Plug-In . SVG Version: 6.00 Build 0)  -->
<!DOCTYPE svg PUBLIC "-//W3C//DTD SVG 1.1//EN" "http://www.w3.org/Graphics/SVG/1.1/DTD/svg11.dtd">
<svg version="1.1" xmlns="http://www.w3.org/2000/svg" xmlns:xlink="http://www.w3.org/1999/xlink" x="0px" y="0px"
	 width="209.759px" height="62.361px" viewBox="0 0 209.759 62.361" enable-background="new 0 0 209.759 62.361"
	 xml:space="preserve">
<g id="Layer_1">
</g>
<g id="Hat">
</g>
<g id="Compliments">
</g>
<g id="HAT">
</g>
<g id="speech">
</g>
<g id="TREX_ARMS">
</g>
<g id="slim_shady">
</g>
<g id="TIMEOUT">
</g>
<g id="Truth_or_Dare">
</g>
<g id="ARM_WRESTLE">
</g>
<g id="musical_chairs">
</g>
<g id="never_have_i_ever">
</g>
<g id="Trivia">
</g>
<g id="Drink_Pulling">
</g>
<g id="Sharing_is_Caring">
</g>
<g id="Not_It">
</g>
<g id="Cocktail_of_Doom">
</g>
<g id="Heads_up">
</g>
<g id="Archenemy">
</g>
<g id="battle_of_the_sexes">
</g>
<g id="one_must_drink">
</g>
<g id="rainbow_connection">
</g>
<g id="social_drinking">
</g>
<g id="Spin_the_bottle">
</g>
<g id="accents">
</g>
<g id="Slap">
</g>
<g id="give_3">
</g>
<g id="rub">
</g>
<g id="down_the_hatch">
</g>
<g id="rubiks_cube">
</g>
<g id="bar_tender">
</g>
<g id="codenames">
</g>
<g id="hand_switch">
</g>
<g id="make_a_rule">
</g>
<g id="no_guts_no_glory">
</g>
<g id="pass">
</g>
<g id="santa">
</g>
<g id="snake_eyes">
</g>
<g id="bodyguard">
</g>
<g id="threeman">
</g>
<g id="_x32__truths_and_a_lie">
</g>
<g id="cray_cray_cat_lady">
</g>
<g id="siblings">
</g>
<g id="take_2">
</g>
<g id="take_3">
</g>
<g id="later">
</g>
<g id="waterfall">
</g>
<g id="cheers">
</g>
<g id="rhyme">
</g>
<g id="categories">
</g>
<g id="tits">
</g>
<g id="dicks">
</g>
<g id="questions">
	<g>
		<path d="M-3.774,44.016c-1.3,0-2.495-0.279-3.588-0.838c-1.092-0.559-2.034-1.319-2.827-2.282
			c-0.793-0.961-1.411-2.086-1.853-3.373c-0.442-1.287-0.663-2.672-0.663-4.153c0-1.482,0.24-2.86,0.722-4.134
			c0.48-1.274,1.15-2.386,2.009-3.335c0.857-0.948,1.872-1.696,3.042-2.242s2.431-0.819,3.782-0.819
			c1.561,0,2.938,0.357,4.135,1.072c1.195,0.716,2.17,1.658,2.925,2.828V23.19h4.563v22.464c0,0.571,0.104,0.968,0.313,1.189
			c0.208,0.221,0.571,0.344,1.092,0.37v4.446c-0.442,0.078-0.923,0.137-1.443,0.176c-0.521,0.038-0.988,0.058-1.403,0.058
			c-0.521,0-1.008-0.091-1.463-0.272c-0.455-0.183-0.852-0.429-1.189-0.741c-0.338-0.312-0.611-0.683-0.819-1.111
			s-0.312-0.903-0.312-1.424v-8.307c-0.755,1.326-1.729,2.32-2.925,2.983C-0.875,43.685-2.24,44.016-3.774,44.016z M-1.824,39.57
			c1.118,0,2.093-0.313,2.925-0.937s1.547-1.43,2.146-2.418V31.38c-0.156-0.571-0.409-1.104-0.761-1.599
			c-0.351-0.494-0.761-0.93-1.229-1.307s-0.975-0.669-1.521-0.878c-0.546-0.207-1.093-0.312-1.639-0.312
			c-0.806,0-1.54,0.169-2.203,0.507s-1.235,0.8-1.716,1.385c-0.481,0.585-0.858,1.255-1.131,2.008
			c-0.273,0.755-0.41,1.535-0.41,2.341c0,0.857,0.137,1.651,0.41,2.379c0.272,0.728,0.649,1.364,1.131,1.911
			c0.48,0.546,1.059,0.975,1.735,1.286C-3.41,39.414-2.656,39.57-1.824,39.57z"/>
		<path d="M23.175,44.016c-2.106,0-3.705-0.676-4.797-2.027s-1.639-3.354-1.639-6.006V23.19h5.227v11.66
			c0,3.146,1.131,4.72,3.393,4.72c1.015,0,1.995-0.306,2.944-0.917c0.949-0.61,1.723-1.54,2.321-2.788V23.19h5.226v14.43
			c0,0.546,0.098,0.936,0.293,1.17c0.194,0.234,0.513,0.364,0.955,0.39v4.446c-0.521,0.104-0.955,0.169-1.307,0.195
			c-0.351,0.025-0.67,0.039-0.955,0.039c-0.937,0-1.696-0.215-2.282-0.644c-0.585-0.43-0.93-1.021-1.033-1.774l-0.117-1.639
			c-0.91,1.404-2.08,2.457-3.51,3.159S24.891,44.016,23.175,44.016z"/>
		<path d="M54.219,44.016c-1.639,0-3.12-0.279-4.446-0.838s-2.457-1.319-3.394-2.282c-0.936-0.961-1.657-2.079-2.164-3.354
			c-0.507-1.273-0.761-2.613-0.761-4.017c0-1.456,0.247-2.828,0.741-4.115c0.493-1.287,1.209-2.418,2.145-3.393
			c0.937-0.976,2.073-1.748,3.413-2.32c1.339-0.572,2.84-0.858,4.504-0.858s3.152,0.286,4.466,0.858
			c1.313,0.572,2.431,1.339,3.354,2.301c0.922,0.962,1.624,2.08,2.105,3.354c0.481,1.274,0.722,2.601,0.722,3.979
			c0,0.338-0.007,0.663-0.02,0.975c-0.014,0.313-0.046,0.572-0.098,0.78H48.992c0.078,0.807,0.273,1.521,0.585,2.145
			c0.313,0.624,0.715,1.157,1.209,1.6s1.053,0.78,1.677,1.014c0.624,0.234,1.274,0.352,1.95,0.352c1.04,0,2.021-0.254,2.944-0.761
			s1.554-1.176,1.892-2.009l4.485,1.248c-0.755,1.561-1.957,2.841-3.607,3.842C58.476,43.516,56.506,44.016,54.219,44.016z
			 M59.522,31.692c-0.131-1.534-0.696-2.763-1.696-3.686c-1.002-0.923-2.217-1.385-3.646-1.385c-0.702,0-1.359,0.124-1.97,0.37
			c-0.611,0.248-1.15,0.592-1.619,1.034c-0.468,0.442-0.852,0.975-1.15,1.599s-0.475,1.313-0.526,2.067H59.522z"/>
		<path d="M79.529,44.016c-1.716,0-3.393-0.272-5.03-0.818c-1.639-0.546-3.042-1.326-4.212-2.34l1.949-3.276
			c1.248,0.884,2.464,1.554,3.646,2.009c1.184,0.455,2.36,0.683,3.53,0.683c1.039,0,1.858-0.195,2.457-0.586
			c0.598-0.39,0.896-0.948,0.896-1.677c0-0.728-0.351-1.261-1.053-1.599s-1.847-0.728-3.433-1.17
			c-1.325-0.364-2.456-0.715-3.393-1.054c-0.936-0.337-1.69-0.721-2.262-1.15c-0.572-0.429-0.988-0.922-1.248-1.481
			c-0.261-0.559-0.391-1.229-0.391-2.009c0-1.039,0.201-1.976,0.604-2.808s0.969-1.541,1.697-2.126
			c0.728-0.585,1.579-1.033,2.554-1.346c0.976-0.312,2.034-0.468,3.179-0.468c1.534,0,2.971,0.222,4.31,0.663
			c1.339,0.442,2.567,1.157,3.686,2.146l-2.105,3.158c-1.041-0.779-2.048-1.352-3.022-1.716c-0.976-0.363-1.944-0.546-2.906-0.546
			c-0.884,0-1.625,0.183-2.223,0.546c-0.599,0.364-0.897,0.949-0.897,1.755c0,0.364,0.071,0.663,0.215,0.897
			c0.143,0.233,0.37,0.442,0.683,0.624c0.312,0.182,0.722,0.357,1.229,0.526s1.137,0.345,1.892,0.526
			c1.404,0.364,2.606,0.729,3.607,1.092c1.001,0.364,1.819,0.78,2.457,1.248c0.637,0.468,1.104,1.008,1.404,1.619
			c0.298,0.61,0.448,1.345,0.448,2.203c0,2.002-0.741,3.582-2.223,4.738C84.093,43.438,82.077,44.016,79.529,44.016z"/>
		<path d="M107.141,42.573c-0.702,0.312-1.56,0.624-2.574,0.936c-1.014,0.313-2.08,0.468-3.198,0.468
			c-0.728,0-1.41-0.091-2.047-0.272c-0.638-0.182-1.196-0.475-1.677-0.878c-0.481-0.402-0.865-0.922-1.151-1.56
			c-0.286-0.637-0.429-1.41-0.429-2.32V27.207h-2.69V23.19h2.69V16.56h5.227v6.631h4.29v4.017h-4.29v9.984
			c0,0.728,0.188,1.241,0.565,1.54c0.376,0.299,0.838,0.448,1.384,0.448c0.547,0,1.079-0.091,1.6-0.272
			c0.52-0.182,0.936-0.338,1.248-0.468L107.141,42.573z"/>
		<path d="M113.575,20.343v-5.187h5.227v5.187H113.575z M113.575,43.626V23.19h5.227v20.436H113.575z"/>
		<path d="M136.664,44.016c-1.665,0-3.159-0.286-4.485-0.857c-1.326-0.572-2.451-1.346-3.373-2.32
			c-0.924-0.976-1.633-2.1-2.126-3.374c-0.494-1.273-0.741-2.613-0.741-4.017c0-1.43,0.247-2.782,0.741-4.057
			c0.493-1.273,1.202-2.398,2.126-3.373c0.922-0.976,2.047-1.748,3.373-2.32s2.82-0.858,4.485-0.858
			c1.663,0,3.152,0.286,4.465,0.858s2.431,1.345,3.354,2.32c0.923,0.975,1.631,2.1,2.125,3.373c0.494,1.274,0.741,2.627,0.741,4.057
			c0,1.403-0.247,2.743-0.741,4.017c-0.494,1.274-1.196,2.398-2.105,3.374c-0.911,0.975-2.028,1.748-3.354,2.32
			C139.822,43.729,138.327,44.016,136.664,44.016z M131.32,33.447c0,0.91,0.137,1.735,0.41,2.477c0.272,0.74,0.649,1.384,1.131,1.93
			c0.48,0.547,1.046,0.97,1.696,1.268c0.649,0.3,1.352,0.449,2.106,0.449c0.753,0,1.455-0.149,2.105-0.449
			c0.649-0.298,1.215-0.721,1.696-1.268c0.481-0.546,0.858-1.195,1.132-1.949c0.272-0.754,0.409-1.586,0.409-2.496
			c0-0.884-0.137-1.703-0.409-2.457c-0.273-0.754-0.65-1.404-1.132-1.95s-1.047-0.969-1.696-1.268
			c-0.65-0.299-1.353-0.448-2.105-0.448c-0.755,0-1.457,0.156-2.106,0.468c-0.65,0.313-1.216,0.741-1.696,1.287
			c-0.481,0.546-0.858,1.196-1.131,1.95C131.457,31.744,131.32,32.563,131.32,33.447z"/>
		<path d="M173.557,43.626h-5.226V32.16c0-1.638-0.287-2.834-0.858-3.588c-0.572-0.754-1.365-1.131-2.379-1.131
			c-0.521,0-1.053,0.104-1.6,0.312c-0.546,0.208-1.06,0.501-1.54,0.878c-0.481,0.377-0.917,0.825-1.307,1.345
			c-0.39,0.521-0.677,1.093-0.857,1.717v11.934h-5.227V23.19h4.719v3.782c0.754-1.3,1.846-2.313,3.276-3.042
			c1.43-0.728,3.042-1.092,4.836-1.092c1.273,0,2.313,0.234,3.12,0.702c0.806,0.468,1.43,1.079,1.872,1.833
			c0.441,0.754,0.747,1.612,0.916,2.574s0.254,1.937,0.254,2.925V43.626z"/>
		<path d="M189.546,44.016c-1.716,0-3.393-0.272-5.03-0.818c-1.639-0.546-3.042-1.326-4.212-2.34l1.949-3.276
			c1.248,0.884,2.464,1.554,3.646,2.009c1.184,0.455,2.36,0.683,3.53,0.683c1.039,0,1.858-0.195,2.457-0.586
			c0.598-0.39,0.896-0.948,0.896-1.677c0-0.728-0.351-1.261-1.053-1.599s-1.847-0.728-3.433-1.17
			c-1.325-0.364-2.456-0.715-3.393-1.054c-0.936-0.337-1.69-0.721-2.262-1.15c-0.572-0.429-0.988-0.922-1.248-1.481
			c-0.261-0.559-0.391-1.229-0.391-2.009c0-1.039,0.201-1.976,0.604-2.808s0.969-1.541,1.697-2.126
			c0.728-0.585,1.579-1.033,2.554-1.346c0.976-0.312,2.034-0.468,3.179-0.468c1.534,0,2.971,0.222,4.31,0.663
			c1.339,0.442,2.567,1.157,3.686,2.146l-2.105,3.158c-1.041-0.779-2.048-1.352-3.022-1.716c-0.976-0.363-1.944-0.546-2.906-0.546
			c-0.884,0-1.625,0.183-2.223,0.546c-0.599,0.364-0.897,0.949-0.897,1.755c0,0.364,0.071,0.663,0.215,0.897
			c0.143,0.233,0.37,0.442,0.683,0.624c0.312,0.182,0.722,0.357,1.229,0.526s1.137,0.345,1.892,0.526
			c1.404,0.364,2.606,0.729,3.607,1.092c1.001,0.364,1.819,0.78,2.457,1.248c0.637,0.468,1.104,1.008,1.404,1.619
			c0.298,0.61,0.448,1.345,0.448,2.203c0,2.002-0.741,3.582-2.223,4.738C194.109,43.438,192.094,44.016,189.546,44.016z"/>
	</g>
</g>
<g id="double_hands">
</g>
<g id="give_2">
</g>
<g id="rewind">
</g>
<g id="Cryptkeeper">
</g>
<g id="Take_2_and_Redo">
</g>
<g id="Embryo">
</g>
<g id="I_am_Groot">
</g>
<g id="Mini_Me">
</g>
<g id="Ditto_1_">
</g>
</svg>
