<?xml version="1.0" encoding="utf-8"?>
<!-- Generator: Adobe Illustrator 16.0.0, SVG Export Plug-In . SVG Version: 6.00 Build 0)  -->
<!DOCTYPE svg PUBLIC "-//W3C//DTD SVG 1.1//EN" "http://www.w3.org/Graphics/SVG/1.1/DTD/svg11.dtd">
<svg version="1.1" xmlns="http://www.w3.org/2000/svg" xmlns:xlink="http://www.w3.org/1999/xlink" x="0px" y="0px"
	 width="209.759px" height="62.361px" viewBox="0 0 209.759 62.361" enable-background="new 0 0 209.759 62.361"
	 xml:space="preserve">
<g id="Layer_1">
</g>
<g id="Blindman">
</g>
<g id="Compliments">
</g>
<g id="HAT">
</g>
<g id="speech">
</g>
<g id="TREX_ARMS">
</g>
<g id="slim_shady">
</g>
<g id="TIMEOUT">
</g>
<g id="Truth_or_Dare">
</g>
<g id="ARM_WRESTLE">
</g>
<g id="musical_chairs">
</g>
<g id="never_have_i_ever">
</g>
<g id="Trivia">
</g>
<g id="Drink_Pulling">
</g>
<g id="Sharing_is_Caring">
</g>
<g id="Not_It">
</g>
<g id="Cocktail_of_Doom">
</g>
<g id="Heads_up">
</g>
<g id="Archenemy">
</g>
<g id="battle_of_the_sexes">
</g>
<g id="one_must_drink">
</g>
<g id="rainbow_connection">
</g>
<g id="social_drinking">
</g>
<g id="Spin_the_bottle">
</g>
<g id="accents">
</g>
<g id="Slap">
</g>
<g id="rub">
</g>
<g id="down_the_hatch">
</g>
<g id="rubiks_cube">
</g>
<g id="bar_tender">
</g>
<g id="codenames">
</g>
<g id="hand_switch">
</g>
<g id="make_a_rule">
</g>
<g id="no_guts_no_glory">
</g>
<g id="pass">
</g>
<g id="santa">
</g>
<g id="snake_eyes">
</g>
<g id="bodyguard">
</g>
<g id="threeman">
</g>
<g id="_x32__truths_and_a_lie">
</g>
<g id="cray_cray_cat_lady">
</g>
<g id="siblings">
</g>
<g id="later">
</g>
<g id="waterfall">
</g>
<g id="cheers">
</g>
<g id="rhyme">
</g>
<g id="categories">
	<g>
		<path d="M24.846,37.6c0-0.843,0.146-1.641,0.438-2.392c0.291-0.751,0.713-1.41,1.265-1.979c0.553-0.566,1.22-1.02,2.001-1.356
			c0.782-0.337,1.664-0.506,2.646-0.506c1.318,0,2.441,0.284,3.369,0.851c0.928,0.567,1.622,1.312,2.082,2.231l-3.014,0.92
			c-0.261-0.444-0.605-0.786-1.035-1.023c-0.429-0.237-0.904-0.356-1.426-0.356c-0.444,0-0.858,0.088-1.242,0.265
			c-0.383,0.176-0.717,0.422-1,0.735c-0.284,0.314-0.506,0.694-0.667,1.139c-0.161,0.445-0.241,0.936-0.241,1.472
			c0,0.537,0.084,1.027,0.253,1.473c0.168,0.444,0.395,0.828,0.678,1.149c0.284,0.322,0.617,0.571,1.001,0.748
			c0.383,0.176,0.789,0.265,1.219,0.265c0.553,0,1.062-0.139,1.529-0.414c0.468-0.276,0.794-0.613,0.978-1.013l3.014,0.92
			c-0.414,0.921-1.097,1.672-2.047,2.255c-0.951,0.582-2.094,0.874-3.428,0.874c-0.981,0-1.862-0.169-2.645-0.507
			c-0.782-0.337-1.449-0.793-2.001-1.368s-0.978-1.242-1.276-2.001S24.846,38.428,24.846,37.6z"/>
		<path d="M44.052,43.856c-0.583,0-1.127-0.097-1.634-0.288c-0.506-0.191-0.942-0.46-1.311-0.805s-0.655-0.748-0.862-1.208
			s-0.311-0.966-0.311-1.518c0-0.567,0.126-1.093,0.379-1.575c0.253-0.483,0.605-0.894,1.059-1.23
			c0.452-0.338,0.992-0.602,1.621-0.794c0.629-0.191,1.318-0.287,2.07-0.287c0.536,0,1.062,0.046,1.575,0.138
			s0.97,0.223,1.369,0.391V35.99c0-0.797-0.227-1.411-0.679-1.84c-0.453-0.43-1.124-0.645-2.013-0.645
			c-0.644,0-1.272,0.115-1.886,0.345c-0.613,0.23-1.242,0.567-1.887,1.013l-0.942-1.955c1.549-1.027,3.22-1.541,5.014-1.541
			c1.732,0,3.078,0.425,4.037,1.276c0.958,0.851,1.438,2.081,1.438,3.691v3.749c0,0.322,0.057,0.552,0.172,0.69
			c0.115,0.138,0.303,0.215,0.563,0.229v2.622c-0.521,0.107-0.974,0.161-1.356,0.161c-0.583,0-1.032-0.131-1.346-0.392
			c-0.314-0.26-0.51-0.605-0.587-1.034l-0.068-0.667c-0.537,0.705-1.188,1.241-1.955,1.609
			C45.745,43.672,44.926,43.856,44.052,43.856z M44.926,41.602c0.521,0,1.016-0.092,1.483-0.275c0.467-0.185,0.831-0.43,1.092-0.736
			c0.338-0.261,0.507-0.552,0.507-0.874v-1.38c-0.368-0.138-0.768-0.249-1.196-0.333c-0.43-0.085-0.844-0.127-1.242-0.127
			c-0.798,0-1.449,0.181-1.955,0.54c-0.506,0.361-0.759,0.817-0.759,1.369c0,0.521,0.199,0.954,0.598,1.3
			C43.852,41.43,44.343,41.602,44.926,41.602z"/>
		<path d="M63.279,43.005c-0.414,0.185-0.92,0.368-1.518,0.552c-0.599,0.185-1.228,0.276-1.887,0.276
			c-0.429,0-0.832-0.054-1.207-0.161c-0.376-0.107-0.706-0.279-0.989-0.518c-0.284-0.237-0.51-0.544-0.679-0.92
			c-0.169-0.375-0.253-0.831-0.253-1.368v-6.923H55.16v-2.369h1.587v-3.91h3.082v3.91h2.53v2.369h-2.53v5.888
			c0,0.43,0.111,0.732,0.334,0.908c0.222,0.177,0.494,0.265,0.816,0.265s0.636-0.054,0.942-0.161
			c0.307-0.106,0.553-0.199,0.736-0.275L63.279,43.005z"/>
		<path d="M72.364,43.856c-0.966,0-1.84-0.165-2.622-0.495c-0.782-0.329-1.449-0.778-2.001-1.346
			c-0.552-0.566-0.978-1.227-1.276-1.978s-0.449-1.541-0.449-2.369c0-0.858,0.146-1.667,0.438-2.427
			c0.291-0.759,0.713-1.426,1.265-2.001c0.553-0.575,1.223-1.031,2.013-1.368s1.675-0.506,2.656-0.506s1.859,0.169,2.634,0.506
			s1.434,0.79,1.979,1.356c0.544,0.568,0.958,1.228,1.241,1.979c0.284,0.751,0.426,1.533,0.426,2.346c0,0.2-0.004,0.392-0.012,0.575
			s-0.026,0.338-0.058,0.46h-9.314c0.046,0.476,0.161,0.897,0.345,1.265c0.185,0.368,0.422,0.683,0.713,0.943
			s0.621,0.46,0.989,0.598c0.368,0.139,0.751,0.207,1.15,0.207c0.612,0,1.191-0.149,1.736-0.448
			c0.544-0.299,0.916-0.693,1.115-1.185l2.645,0.736c-0.444,0.92-1.153,1.676-2.127,2.266S73.713,43.856,72.364,43.856z
			 M75.492,36.588c-0.077-0.904-0.41-1.629-1.001-2.174c-0.59-0.544-1.307-0.816-2.15-0.816c-0.414,0-0.801,0.073-1.161,0.219
			s-0.679,0.349-0.955,0.609c-0.275,0.261-0.502,0.575-0.678,0.943c-0.177,0.368-0.28,0.774-0.311,1.219H75.492z"/>
		<path d="M87.452,43.695c-0.813,0-1.549-0.161-2.208-0.483s-1.23-0.763-1.714-1.322c-0.482-0.56-0.854-1.208-1.115-1.943
			c-0.261-0.736-0.391-1.519-0.391-2.347c0-0.874,0.138-1.687,0.413-2.438c0.276-0.751,0.659-1.411,1.15-1.979
			c0.49-0.566,1.081-1.012,1.771-1.334c0.689-0.321,1.448-0.482,2.276-0.482c0.936,0,1.756,0.211,2.461,0.632
			c0.705,0.422,1.288,0.986,1.748,1.691v-2.116h2.691v11.477c0,0.89-0.169,1.687-0.506,2.393c-0.338,0.705-0.802,1.303-1.392,1.794
			c-0.591,0.49-1.296,0.866-2.116,1.127s-1.714,0.391-2.68,0.391c-1.318,0-2.427-0.219-3.323-0.655
			c-0.897-0.438-1.668-1.055-2.312-1.852l1.679-1.633c0.46,0.566,1.039,1.012,1.736,1.334c0.698,0.321,1.438,0.482,2.22,0.482
			c0.476,0,0.932-0.065,1.369-0.195c0.437-0.13,0.823-0.333,1.161-0.609c0.337-0.276,0.602-0.629,0.793-1.058
			c0.192-0.43,0.288-0.936,0.288-1.519v-1.518c-0.399,0.689-0.959,1.223-1.679,1.599C89.054,43.508,88.28,43.695,87.452,43.695z
			 M88.487,41.234c0.337,0,0.659-0.054,0.966-0.161s0.59-0.253,0.851-0.438c0.261-0.184,0.491-0.398,0.69-0.644
			s0.353-0.506,0.46-0.782v-2.875c-0.276-0.705-0.71-1.272-1.3-1.702c-0.59-0.429-1.207-0.644-1.852-0.644
			c-0.476,0-0.904,0.104-1.288,0.311c-0.383,0.207-0.713,0.482-0.988,0.828c-0.276,0.345-0.487,0.739-0.633,1.184
			c-0.146,0.445-0.219,0.905-0.219,1.381c0,0.49,0.084,0.95,0.253,1.38c0.169,0.429,0.402,0.805,0.702,1.127
			c0.299,0.321,0.647,0.575,1.046,0.759S88.012,41.234,88.487,41.234z"/>
		<path d="M105.069,43.856c-0.981,0-1.862-0.169-2.645-0.507c-0.782-0.337-1.445-0.793-1.989-1.368
			c-0.545-0.575-0.963-1.238-1.254-1.989c-0.292-0.751-0.438-1.541-0.438-2.369c0-0.843,0.146-1.641,0.438-2.392
			c0.291-0.752,0.709-1.415,1.254-1.99c0.544-0.575,1.207-1.031,1.989-1.368s1.663-0.506,2.645-0.506s1.859,0.169,2.634,0.506
			s1.434,0.793,1.978,1.368c0.545,0.575,0.963,1.238,1.254,1.99c0.291,0.751,0.438,1.549,0.438,2.392
			c0,0.828-0.146,1.618-0.438,2.369s-0.705,1.414-1.242,1.989s-1.195,1.031-1.978,1.368
			C106.933,43.688,106.051,43.856,105.069,43.856z M101.919,37.623c0,0.537,0.08,1.023,0.241,1.46
			c0.161,0.438,0.383,0.817,0.667,1.139c0.283,0.322,0.617,0.571,1,0.748c0.384,0.176,0.798,0.265,1.242,0.265
			s0.858-0.089,1.242-0.265c0.383-0.177,0.717-0.426,1.001-0.748c0.283-0.321,0.506-0.705,0.667-1.149
			c0.16-0.445,0.241-0.936,0.241-1.473c0-0.521-0.081-1.004-0.241-1.448c-0.161-0.445-0.384-0.828-0.667-1.15
			c-0.284-0.322-0.618-0.571-1.001-0.747c-0.384-0.177-0.798-0.265-1.242-0.265s-0.858,0.092-1.242,0.275
			c-0.383,0.185-0.717,0.438-1,0.76c-0.284,0.321-0.506,0.705-0.667,1.149C101.999,36.619,101.919,37.102,101.919,37.623z"/>
		<path d="M122.803,34.242c-0.936,0.016-1.771,0.195-2.507,0.54c-0.736,0.346-1.266,0.862-1.587,1.553v7.291h-3.082V31.574h2.829
			v2.576c0.214-0.414,0.467-0.786,0.759-1.116c0.291-0.329,0.605-0.617,0.942-0.862c0.338-0.245,0.679-0.433,1.023-0.563
			c0.346-0.13,0.679-0.195,1.001-0.195c0.169,0,0.295,0,0.38,0c0.084,0,0.164,0.008,0.241,0.022V34.242z"/>
		<path d="M126.713,29.895v-3.059h3.082v3.059H126.713z M126.713,43.626V31.574h3.082v12.052H126.713z"/>
		<path d="M140.352,43.856c-0.966,0-1.84-0.165-2.622-0.495c-0.782-0.329-1.449-0.778-2.001-1.346
			c-0.552-0.566-0.978-1.227-1.276-1.978s-0.449-1.541-0.449-2.369c0-0.858,0.146-1.667,0.438-2.427
			c0.291-0.759,0.713-1.426,1.265-2.001c0.553-0.575,1.223-1.031,2.013-1.368s1.675-0.506,2.656-0.506s1.859,0.169,2.634,0.506
			s1.434,0.79,1.979,1.356c0.544,0.568,0.958,1.228,1.241,1.979c0.284,0.751,0.426,1.533,0.426,2.346c0,0.2-0.004,0.392-0.012,0.575
			s-0.026,0.338-0.058,0.46h-9.314c0.046,0.476,0.161,0.897,0.345,1.265c0.185,0.368,0.422,0.683,0.713,0.943
			s0.621,0.46,0.989,0.598c0.368,0.139,0.751,0.207,1.15,0.207c0.612,0,1.191-0.149,1.736-0.448
			c0.544-0.299,0.916-0.693,1.115-1.185l2.645,0.736c-0.444,0.92-1.153,1.676-2.127,2.266S141.7,43.856,140.352,43.856z
			 M143.479,36.588c-0.077-0.904-0.41-1.629-1.001-2.174c-0.59-0.544-1.307-0.816-2.15-0.816c-0.414,0-0.801,0.073-1.161,0.219
			s-0.679,0.349-0.955,0.609c-0.275,0.261-0.502,0.575-0.678,0.943c-0.177,0.368-0.28,0.774-0.311,1.219H143.479z"/>
		<path d="M155.278,43.856c-1.012,0-2.001-0.161-2.967-0.483s-1.794-0.782-2.484-1.38l1.15-1.933
			c0.735,0.521,1.452,0.917,2.15,1.185c0.697,0.269,1.392,0.403,2.081,0.403c0.613,0,1.097-0.115,1.449-0.346
			c0.353-0.229,0.529-0.56,0.529-0.988c0-0.43-0.207-0.744-0.621-0.943s-1.089-0.43-2.024-0.69
			c-0.781-0.214-1.448-0.421-2.001-0.621c-0.552-0.198-0.997-0.425-1.334-0.678s-0.583-0.545-0.735-0.874
			c-0.154-0.33-0.23-0.725-0.23-1.185c0-0.613,0.119-1.165,0.356-1.656c0.237-0.49,0.571-0.908,1.001-1.254
			c0.429-0.345,0.932-0.609,1.506-0.793c0.575-0.185,1.2-0.276,1.875-0.276c0.904,0,1.751,0.131,2.541,0.392
			s1.515,0.682,2.174,1.265l-1.242,1.863c-0.613-0.46-1.207-0.798-1.782-1.013c-0.575-0.214-1.146-0.321-1.714-0.321
			c-0.521,0-0.958,0.107-1.311,0.321c-0.354,0.215-0.529,0.561-0.529,1.035c0,0.215,0.042,0.392,0.127,0.529
			c0.084,0.138,0.218,0.261,0.402,0.368c0.184,0.107,0.425,0.211,0.725,0.311c0.299,0.1,0.67,0.203,1.115,0.311
			c0.828,0.215,1.537,0.429,2.127,0.644c0.591,0.215,1.073,0.46,1.449,0.736c0.376,0.275,0.651,0.594,0.828,0.954
			c0.176,0.36,0.265,0.794,0.265,1.3c0,1.181-0.437,2.112-1.311,2.794C157.97,43.515,156.781,43.856,155.278,43.856z"/>
	</g>
</g>
<g id="tits">
</g>
<g id="dicks">
</g>
<g id="questions">
</g>
<g id="double_hands">
</g>
<g id="take_2">
</g>
<g id="take_3">
</g>
<g id="give_3">
</g>
<g id="give_2">
</g>
<g id="rewind">
</g>
<g id="Cryptkeeper">
</g>
<g id="Take_2_and_Redo">
</g>
<g id="Embryo">
</g>
<g id="I_am_Groot">
</g>
<g id="Mini_Me">
</g>
<g id="Ditto_1_">
</g>
</svg>
