<?xml version="1.0" encoding="utf-8"?>
<!-- Generator: Adobe Illustrator 16.0.0, SVG Export Plug-In . SVG Version: 6.00 Build 0)  -->
<!DOCTYPE svg PUBLIC "-//W3C//DTD SVG 1.1//EN" "http://www.w3.org/Graphics/SVG/1.1/DTD/svg11.dtd">
<svg version="1.1" xmlns="http://www.w3.org/2000/svg" xmlns:xlink="http://www.w3.org/1999/xlink" x="0px" y="0px"
	 width="209.759px" height="62.361px" viewBox="0 0 209.759 62.361" enable-background="new 0 0 209.759 62.361"
	 xml:space="preserve">
<g id="Layer_1">
</g>
<g id="Blindman">
</g>
<g id="Compliments">
</g>
<g id="HAT">
</g>
<g id="speech">
</g>
<g id="TREX_ARMS">
</g>
<g id="slim_shady">
</g>
<g id="TIMEOUT">
</g>
<g id="Truth_or_Dare">
</g>
<g id="ARM_WRESTLE">
</g>
<g id="musical_chairs">
</g>
<g id="never_have_i_ever">
</g>
<g id="Trivia">
</g>
<g id="Drink_Pulling">
</g>
<g id="Sharing_is_Caring">
</g>
<g id="Not_It">
</g>
<g id="Cocktail_of_Doom">
</g>
<g id="Heads_up">
</g>
<g id="Archenemy">
</g>
<g id="battle_of_the_sexes">
</g>
<g id="one_must_drink">
</g>
<g id="rainbow_connection">
</g>
<g id="social_drinking">
</g>
<g id="Spin_the_bottle">
</g>
<g id="accents">
</g>
<g id="Slap">
</g>
<g id="down_the_hatch">
</g>
<g id="rubiks_cube">
</g>
<g id="bar_tender">
</g>
<g id="codenames">
</g>
<g id="hand_switch">
</g>
<g id="make_a_rule">
</g>
<g id="no_guts_no_glory">
</g>
<g id="pass">
</g>
<g id="santa">
</g>
<g id="snake_eyes">
</g>
<g id="lightning_round">
	<g>
		<path d="M2.943,40.522c0.029-0.156,0.08-0.303,0.154-0.438c0.072-0.135,0.164-0.25,0.274-0.348s0.245-0.146,0.407-0.146h3.366
			l0.109-0.131v-6.602l0.132-0.416v-3.684c0-0.088-0.088-0.18-0.264-0.273c-0.176-0.096-0.286-0.15-0.33-0.166
			c-0.044,0.016-0.121,0.037-0.23,0.066c-0.11,0.029-0.231,0.059-0.363,0.088s-0.257,0.055-0.374,0.076
			c-0.117,0.023-0.198,0.033-0.242,0.033H5.231c-0.25,0-0.444-0.025-0.583-0.076c-0.14-0.051-0.313-0.113-0.518-0.188
			c-0.146-0.043-0.278-0.08-0.396-0.109c-0.118-0.029-0.217-0.072-0.297-0.131c-0.081-0.059-0.144-0.135-0.188-0.23
			c-0.044-0.094-0.065-0.236-0.065-0.428c0-0.408,0.157-0.689,0.473-0.844s0.656-0.23,1.023-0.23c0.264,0,0.523,0.029,0.78,0.088
			s0.518,0.088,0.781,0.088c0.205,0,0.403-0.016,0.594-0.045s0.389-0.043,0.595-0.043c0.19,0,0.396,0.021,0.615,0.066
			c0.221,0.043,0.426,0.113,0.616,0.207c0.19,0.096,0.349,0.227,0.473,0.395c0.125,0.168,0.188,0.377,0.188,0.625v11.666l0.22,0.197
			h2.926c0.146,0,0.275,0.041,0.386,0.123c0.109,0.082,0.201,0.184,0.274,0.303c0.073,0.121,0.129,0.252,0.165,0.393
			c0.037,0.143,0.056,0.273,0.056,0.393c0,0.27-0.07,0.51-0.209,0.719c-0.14,0.209-0.363,0.314-0.672,0.314H3.955
			c-0.249,0-0.487-0.086-0.715-0.258s-0.341-0.385-0.341-0.641C2.899,40.817,2.914,40.679,2.943,40.522z"/>
		<path d="M16.153,40.028c0.169-0.291,0.43-0.438,0.781-0.438h2.42l0.154-0.219c0-0.059,0.003-0.16,0.011-0.307
			c0.008-0.145,0.019-0.299,0.033-0.459s0.025-0.313,0.033-0.459c0.007-0.145,0.011-0.248,0.011-0.307
			c0.015-0.027,0.029-0.102,0.044-0.217c0.015-0.117,0.029-0.189,0.044-0.219v-4.832H17.11c-0.146,0-0.274-0.041-0.385-0.123
			s-0.202-0.184-0.275-0.303c-0.073-0.121-0.128-0.252-0.164-0.395c-0.037-0.141-0.056-0.271-0.056-0.393
			c0-0.238,0.059-0.426,0.176-0.561s0.261-0.234,0.43-0.303c0.168-0.066,0.352-0.111,0.55-0.135
			c0.198-0.021,0.377-0.033,0.539-0.033c0.249,0,0.495,0.014,0.737,0.043c0.241,0.029,0.487,0.045,0.736,0.045
			c0.176,0,0.349-0.016,0.518-0.045c0.168-0.029,0.341-0.043,0.517-0.043c0.249,0,0.51,0.08,0.781,0.242
			c0.271,0.16,0.407,0.395,0.407,0.703v8.184l0.132,0.133h2.332c0.132,0,0.253,0.049,0.362,0.146
			c0.11,0.098,0.206,0.213,0.286,0.348c0.081,0.135,0.14,0.277,0.176,0.426c0.037,0.15,0.056,0.277,0.056,0.381
			c0,0.211-0.056,0.42-0.165,0.629c-0.11,0.209-0.29,0.314-0.539,0.314h-7.502c-0.264,0-0.473-0.09-0.627-0.27
			s-0.231-0.396-0.231-0.65C15.9,40.616,15.985,40.319,16.153,40.028z M19.245,26.589c0.278-0.293,0.638-0.439,1.077-0.439
			c0.234,0,0.451,0.055,0.649,0.164s0.366,0.258,0.506,0.439c0.14,0.184,0.249,0.387,0.33,0.605c0.08,0.221,0.121,0.439,0.121,0.66
			c0,0.439-0.161,0.789-0.484,1.045c-0.322,0.258-0.689,0.385-1.1,0.385c-0.499,0-0.877-0.176-1.133-0.527
			c-0.257-0.352-0.385-0.77-0.385-1.254C18.827,27.241,18.966,26.882,19.245,26.589z"/>
		<path d="M27.715,41.966c0.132-0.277,0.322-0.557,0.572-0.836l0.021-0.109c0-0.146-0.029-0.293-0.088-0.439
			s-0.121-0.293-0.187-0.439c-0.066-0.146-0.129-0.297-0.188-0.451s-0.088-0.313-0.088-0.475c0-0.498,0.113-0.934,0.341-1.309
			c0.228-0.373,0.518-0.729,0.869-1.066c0.015-0.029,0.022-0.074,0.022-0.133s0-0.102,0-0.131c0-0.338-0.048-0.66-0.144-0.969
			s-0.143-0.631-0.143-0.967c0-0.926,0.238-1.73,0.715-2.42s1.133-1.219,1.969-1.584c0.044-0.016,0.106-0.037,0.188-0.066
			c0.08-0.029,0.165-0.059,0.253-0.088s0.176-0.055,0.264-0.078c0.088-0.021,0.154-0.033,0.198-0.033c0.19,0,0.381,0.033,0.572,0.1
			c0.19,0.066,0.377,0.137,0.561,0.209c0.184,0.074,0.37,0.143,0.562,0.209c0.19,0.066,0.388,0.1,0.594,0.1h0.418
			c0.439-0.41,0.946-0.617,1.518-0.617c0.293,0,0.594,0.049,0.902,0.145c0.308,0.096,0.583,0.234,0.825,0.418
			c0.241,0.184,0.439,0.406,0.594,0.67s0.23,0.559,0.23,0.881c0,0.41-0.089,0.781-0.268,1.111c-0.179,0.328-0.5,0.494-0.962,0.494
			c-0.328,0-0.589-0.074-0.782-0.221c-0.194-0.146-0.351-0.311-0.47-0.494s-0.22-0.348-0.301-0.496
			c-0.081-0.146-0.165-0.219-0.253-0.219c0,0.367,0.051,0.715,0.153,1.045s0.154,0.678,0.154,1.045c0,0.396-0.041,0.785-0.121,1.166
			c-0.081,0.381-0.209,0.736-0.385,1.066s-0.4,0.623-0.671,0.881c-0.271,0.256-0.598,0.459-0.979,0.605
			c-0.146,0.059-0.271,0.113-0.374,0.164s-0.201,0.1-0.297,0.143c-0.096,0.045-0.198,0.078-0.308,0.1
			c-0.11,0.021-0.253,0.033-0.43,0.033c-0.234,0-0.454-0.031-0.659-0.092c-0.206-0.063-0.407-0.127-0.605-0.195
			c-0.198-0.066-0.399-0.133-0.604-0.193c-0.206-0.061-0.426-0.092-0.66-0.092c-0.279,0-0.466,0.092-0.562,0.275
			s-0.143,0.393-0.143,0.627v0.307c0.029,0.061,0.08,0.119,0.154,0.178c0.073,0.059,0.146,0.088,0.22,0.088
			c0.513,0,1.012-0.074,1.496-0.221c0.483-0.146,0.982-0.221,1.496-0.221h0.77c0.029,0,0.106,0.016,0.231,0.045
			c0.124,0.029,0.26,0.059,0.406,0.088s0.282,0.057,0.407,0.086s0.201,0.045,0.231,0.045c0.19,0.029,0.447,0.043,0.77,0.043
			c0.338,0,0.633,0.045,0.885,0.131c0.104,0.045,0.184,0.08,0.235,0.109c0.053,0.029,0.093,0.059,0.123,0.088
			s0.067,0.066,0.112,0.109s0.119,0.109,0.224,0.197c0.224,0.189,0.426,0.363,0.604,0.523c0.18,0.16,0.336,0.332,0.471,0.514
			c0.135,0.184,0.239,0.383,0.313,0.602c0.075,0.219,0.112,0.467,0.112,0.744c0,0.699-0.154,1.285-0.462,1.76
			c-0.308,0.473-0.712,0.852-1.21,1.137c-0.499,0.283-1.053,0.488-1.661,0.613c-0.608,0.123-1.206,0.186-1.793,0.186
			c-0.66,0-1.283-0.031-1.87-0.09s-1.188-0.197-1.804-0.418c-0.117-0.043-0.217-0.105-0.297-0.186
			c-0.081-0.082-0.18-0.137-0.297-0.166c-0.602-0.205-1.067-0.51-1.397-0.912c-0.33-0.404-0.495-0.943-0.495-1.617
			C27.517,42.591,27.583,42.245,27.715,41.966z M30.696,44.034c0.476,0.191,1.001,0.287,1.572,0.287c0.47,0,0.95-0.008,1.441-0.023
			c0.491-0.014,0.949-0.035,1.375-0.064c0.161-0.045,0.355-0.104,0.583-0.176c0.228-0.074,0.443-0.17,0.648-0.287
			c0.206-0.117,0.382-0.256,0.528-0.418s0.22-0.352,0.22-0.572c0-0.352-0.187-0.631-0.561-0.836s-0.807-0.363-1.298-0.473
			c-0.492-0.109-0.976-0.18-1.452-0.209s-0.817-0.043-1.023-0.043c-0.278,0-0.608,0.01-0.989,0.031
			c-0.382,0.023-0.745,0.086-1.089,0.188c-0.346,0.104-0.639,0.254-0.881,0.451c-0.241,0.197-0.362,0.48-0.362,0.848v0.373
			C29.79,43.536,30.219,43.845,30.696,44.034z M30.39,35.661c0.111,0.295,0.267,0.559,0.467,0.787
			c0.199,0.23,0.437,0.418,0.711,0.566c0.273,0.148,0.566,0.223,0.878,0.223c0.34,0,0.647-0.066,0.922-0.201
			c0.273-0.133,0.507-0.311,0.699-0.531c0.192-0.223,0.341-0.482,0.444-0.777c0.104-0.297,0.156-0.607,0.156-0.934
			c0-0.666-0.171-1.225-0.512-1.676c-0.34-0.451-0.852-0.678-1.532-0.678c-0.312,0-0.611,0.061-0.9,0.178
			c-0.289,0.119-0.545,0.281-0.767,0.488s-0.399,0.453-0.533,0.732c-0.133,0.281-0.2,0.586-0.2,0.912
			C30.223,35.062,30.278,35.364,30.39,35.661z"/>
		<path d="M42.63,40.218c0.089-0.213,0.279-0.318,0.572-0.318c0.176,0,0.326,0.033,0.451,0.098c0.124,0.066,0.275,0.1,0.451,0.1
			c0.044,0,0.139-0.008,0.286-0.021c0.059-0.029,0.139-0.088,0.241-0.176s0.154-0.146,0.154-0.176v-4.818l0.132-0.418v-2.838
			c-0.015-0.029-0.032-0.104-0.055-0.221c-0.021-0.117-0.033-0.189-0.033-0.221c0-0.088-0.007-0.234-0.021-0.439
			s-0.026-0.43-0.033-0.67c-0.008-0.242-0.015-0.471-0.022-0.684c-0.007-0.211-0.011-0.361-0.011-0.451
			c-0.029-0.057-0.073-0.127-0.132-0.209c-0.059-0.08-0.132-0.119-0.22-0.119h-1.21c-0.088,0-0.165-0.049-0.231-0.145
			c-0.065-0.094-0.129-0.209-0.187-0.34c-0.06-0.133-0.104-0.264-0.133-0.396s-0.044-0.227-0.044-0.285
			c0-0.279,0.073-0.488,0.221-0.629c0.146-0.139,0.322-0.23,0.527-0.273c0.205-0.045,0.426-0.066,0.66-0.066
			c0.249,0,0.47-0.008,0.66-0.021c0.029,0,0.099-0.016,0.209-0.045s0.18-0.043,0.209-0.043h0.132c0.366,0,0.704,0.113,1.013,0.34
			c0.308,0.229,0.462,0.547,0.462,0.957v4.773c0.029,0,0.076,0.008,0.143,0.023c0.066,0.014,0.113,0.021,0.143,0.021
			c0.117-0.029,0.217-0.133,0.298-0.309c0.08-0.176,0.157-0.307,0.23-0.395c0.382-0.441,0.825-0.793,1.331-1.057
			s1.053-0.396,1.639-0.396c0.455,0,0.869,0.08,1.243,0.242s0.686,0.385,0.936,0.672c0.249,0.285,0.443,0.623,0.583,1.012
			c0.139,0.389,0.209,0.811,0.209,1.264v5.941l0.264,0.242c0.19,0.014,0.385,0.035,0.583,0.064s0.374,0.088,0.528,0.176
			c0.153,0.09,0.278,0.207,0.374,0.354c0.095,0.146,0.143,0.338,0.143,0.572c0,0.381-0.146,0.656-0.439,0.824
			c-0.294,0.168-0.616,0.252-0.969,0.252c-0.117,0-0.234-0.014-0.352-0.043c-0.118-0.029-0.235-0.045-0.353-0.045
			c-0.264,0-0.521,0.02-0.77,0.057c-0.25,0.035-0.506,0.055-0.771,0.055c-0.073,0-0.224-0.004-0.45-0.012
			c-0.228-0.008-0.378-0.012-0.451-0.012c-0.132-0.027-0.271-0.057-0.418-0.088c-0.147-0.029-0.283-0.076-0.407-0.143
			c-0.125-0.066-0.224-0.15-0.297-0.252c-0.073-0.104-0.11-0.242-0.11-0.418c0-0.293,0.04-0.496,0.121-0.605
			s0.245-0.268,0.495-0.473c0.103-0.074,0.209-0.125,0.319-0.154c0.109-0.029,0.223-0.051,0.341-0.066
			c0.117-0.014,0.23-0.033,0.341-0.055s0.209-0.07,0.297-0.143c0-0.117,0.008-0.326,0.022-0.627
			c0.014-0.301,0.025-0.623,0.032-0.969c0.008-0.344,0.015-0.668,0.022-0.969c0.007-0.299,0.011-0.508,0.011-0.627v-1.406
			c0-0.25,0.012-0.525,0.033-0.826c0.022-0.301,0.007-0.578-0.044-0.836c-0.052-0.256-0.154-0.473-0.308-0.648
			c-0.154-0.176-0.407-0.264-0.76-0.264c-0.469,0-0.898,0.121-1.286,0.363c-0.39,0.24-0.73,0.545-1.023,0.912
			c-0.294,0.367-0.547,0.766-0.759,1.199c-0.213,0.432-0.378,0.848-0.495,1.242c0,0.016-0.008,0.053-0.022,0.111
			s-0.025,0.121-0.032,0.186c-0.008,0.066-0.016,0.129-0.022,0.188c-0.008,0.059-0.011,0.096-0.011,0.109
			c-0.015,0.031-0.033,0.104-0.056,0.221c-0.021,0.117-0.032,0.191-0.032,0.221v2.156c0,0.205,0.099,0.332,0.297,0.385
			c0.198,0.051,0.414,0.102,0.648,0.154c0.234,0.051,0.451,0.15,0.649,0.297s0.297,0.424,0.297,0.836v0.395
			c-0.205,0.279-0.439,0.451-0.704,0.518c-0.264,0.066-0.558,0.1-0.88,0.1c-0.264,0-0.517-0.02-0.759-0.055
			c-0.242-0.037-0.488-0.057-0.737-0.057c-0.293,0-0.572,0.045-0.836,0.133s-0.543,0.133-0.836,0.133
			c-0.338,0-0.649-0.119-0.935-0.354c-0.286-0.234-0.43-0.527-0.43-0.879C42.498,40.661,42.542,40.431,42.63,40.218z"/>
		<path d="M61.133,35.905c-0.029-0.557,0.044-1.076,0.22-1.559v-2.438h-2.771c-0.206,0-0.371-0.104-0.495-0.307
			c-0.125-0.205-0.188-0.396-0.188-0.572c0-0.264,0.085-0.482,0.253-0.658c0.169-0.176,0.342-0.344,0.518-0.506
			c0.176-0.146,0.385-0.229,0.627-0.242c0.242-0.016,0.487-0.023,0.736-0.023c0.265,0,0.51-0.025,0.737-0.076
			c0.228-0.053,0.422-0.195,0.583-0.432c0.146-0.221,0.22-0.516,0.22-0.885s0.012-0.734,0.033-1.096
			c0.022-0.361,0.1-0.67,0.231-0.928s0.41-0.389,0.836-0.389c0.425,0,0.686,0.131,0.781,0.389c0.095,0.258,0.143,0.563,0.143,0.918
			c0,0.338-0.019,0.67-0.055,0.994c-0.037,0.326-0.056,0.664-0.056,1.018c0,0.09,0,0.223,0,0.398c0,0.178,0.008,0.273,0.022,0.287
			l0.154,0.154c0.014,0.016,0.117,0.023,0.308,0.023c0.205,0,0.366,0,0.484,0c0.308,0,0.604-0.02,0.891-0.057
			c0.286-0.035,0.575-0.055,0.869-0.055c0.337,0,0.616,0.133,0.836,0.396s0.33,0.551,0.33,0.857c0,0.295-0.092,0.547-0.275,0.76
			s-0.422,0.318-0.715,0.318c-0.366,0-0.708-0.047-1.022-0.143c-0.316-0.096-0.687-0.143-1.111-0.143
			c-0.088,0-0.217,0.004-0.385,0.01c-0.169,0.008-0.261,0.02-0.275,0.033l-0.264,0.242v6.098c0,0.117,0.04,0.25,0.121,0.396
			c0.08,0.146,0.183,0.285,0.308,0.416c0.124,0.131,0.26,0.244,0.407,0.34c0.146,0.096,0.286,0.143,0.418,0.143
			c0.352,0,0.63-0.084,0.836-0.254c0.205-0.168,0.363-0.377,0.473-0.627c0.11-0.248,0.198-0.516,0.265-0.803
			c0.065-0.285,0.135-0.553,0.209-0.803c0.073-0.248,0.176-0.457,0.308-0.627c0.132-0.168,0.322-0.252,0.572-0.252
			c0.366,0,0.623,0.131,0.77,0.395c0.146,0.266,0.22,0.551,0.22,0.859c0,0.498-0.073,1.004-0.22,1.518s-0.363,0.979-0.648,1.396
			c-0.286,0.418-0.643,0.764-1.067,1.035c-0.426,0.271-0.917,0.406-1.474,0.406c-0.221,0-0.39-0.008-0.507-0.021
			c-0.117-0.016-0.224-0.041-0.318-0.078c-0.096-0.035-0.191-0.086-0.286-0.152c-0.096-0.066-0.224-0.158-0.385-0.275
			c-0.015,0-0.059-0.018-0.132-0.055c-0.074-0.037-0.147-0.074-0.221-0.109c-0.073-0.037-0.146-0.07-0.22-0.1
			s-0.117-0.051-0.132-0.066c-0.602-0.467-0.994-0.98-1.177-1.537c-0.184-0.555-0.275-1.199-0.275-1.932
			C61.177,36.997,61.162,36.462,61.133,35.905z"/>
		<path d="M71.253,39.8c0.293-0.125,0.66-0.201,1.1-0.23l0.088-0.088c0.029-0.205,0.056-0.443,0.077-0.715
			c0.022-0.271,0.056-0.518,0.1-0.738v-5.082c0-0.102-0.092-0.18-0.275-0.23s-0.382-0.121-0.594-0.209
			c-0.213-0.088-0.411-0.217-0.595-0.385s-0.274-0.43-0.274-0.781c0-0.381,0.136-0.641,0.407-0.781
			c0.271-0.139,0.567-0.209,0.891-0.209c0.044,0,0.11,0,0.198,0c0.103,0,0.153,0.008,0.153,0.021
			c0.426,0.059,0.767,0.133,1.023,0.221s0.458,0.209,0.605,0.363c0.146,0.154,0.249,0.355,0.308,0.605
			c0.059,0.248,0.103,0.564,0.132,0.945c0.015,0.016,0.029,0.021,0.044,0.021h0.044c0.088,0,0.173-0.043,0.253-0.131
			c0.081-0.088,0.165-0.191,0.253-0.309s0.177-0.234,0.265-0.352s0.176-0.205,0.264-0.264c0.41-0.295,0.847-0.584,1.309-0.869
			c0.463-0.287,0.957-0.43,1.485-0.43c0.322,0,0.649,0.076,0.979,0.23c0.329,0.154,0.623,0.355,0.88,0.605
			c0.256,0.25,0.465,0.535,0.627,0.857c0.161,0.324,0.242,0.654,0.242,0.99v5.434c-0.06,0.162-0.092,0.309-0.1,0.441
			c-0.008,0.131-0.011,0.277-0.011,0.439c0,0.043,0.007,0.146,0.021,0.309l0.089,0.088c0.396,0.072,0.751,0.205,1.066,0.395
			c0.315,0.191,0.474,0.521,0.474,0.99c0,0.383-0.114,0.635-0.342,0.76s-0.517,0.188-0.869,0.188h-0.329
			c-0.118,0-0.323-0.004-0.616-0.012c-0.294-0.008-0.605-0.014-0.936-0.021s-0.642-0.02-0.935-0.033
			c-0.294-0.014-0.499-0.021-0.616-0.021c-0.47-0.133-0.704-0.434-0.704-0.902c0-0.557,0.157-0.914,0.474-1.066
			c0.314-0.154,0.707-0.246,1.177-0.275l0.088-0.088l0.198-0.859v-3.344c0.014-0.043,0.04-0.131,0.077-0.264
			c0.036-0.133,0.055-0.221,0.055-0.264v-0.045v-0.043c0-0.029-0.011-0.113-0.033-0.254c-0.021-0.139-0.04-0.223-0.055-0.252
			c0-0.045-0.004-0.125-0.012-0.242c-0.007-0.117-0.015-0.238-0.021-0.363c-0.008-0.125-0.015-0.246-0.022-0.363
			c-0.007-0.117-0.011-0.197-0.011-0.242c-0.132-0.219-0.301-0.348-0.506-0.385s-0.418-0.055-0.638-0.055
			c-0.367,0-0.708,0.088-1.023,0.264s-0.604,0.396-0.869,0.66c-0.264,0.264-0.502,0.555-0.715,0.869
			c-0.213,0.316-0.399,0.613-0.561,0.891c-0.015,0.016-0.044,0.055-0.088,0.121c-0.045,0.066-0.074,0.113-0.089,0.143
			c-0.044,0.074-0.146,0.242-0.308,0.506v2.51c-0.073,0.146-0.113,0.271-0.121,0.373c-0.008,0.104-0.011,0.234-0.011,0.396v0.33
			c0.088,0.131,0.23,0.209,0.429,0.23s0.403,0.063,0.616,0.121c0.212,0.059,0.396,0.162,0.55,0.309s0.231,0.41,0.231,0.791
			c0,0.309-0.114,0.539-0.341,0.693c-0.229,0.154-0.488,0.246-0.781,0.275h-0.902H73.32c-0.029,0-0.103-0.016-0.22-0.045
			s-0.19-0.043-0.22-0.043c-0.25-0.029-0.499-0.049-0.748-0.055c-0.25-0.008-0.473-0.041-0.671-0.1s-0.355-0.162-0.473-0.309
			c-0.118-0.146-0.177-0.381-0.177-0.703C70.813,40.237,70.959,39.925,71.253,39.8z"/>
		<path d="M85.607,40.028c0.169-0.291,0.43-0.438,0.781-0.438h2.42l0.154-0.219c0-0.059,0.003-0.16,0.011-0.307
			c0.008-0.145,0.019-0.299,0.033-0.459s0.025-0.313,0.033-0.459c0.007-0.145,0.011-0.248,0.011-0.307
			c0.015-0.027,0.029-0.102,0.044-0.217c0.015-0.117,0.029-0.189,0.044-0.219v-4.832h-2.574c-0.146,0-0.274-0.041-0.385-0.123
			s-0.202-0.184-0.275-0.303c-0.073-0.121-0.128-0.252-0.164-0.395c-0.037-0.141-0.056-0.271-0.056-0.393
			c0-0.238,0.059-0.426,0.176-0.561s0.261-0.234,0.43-0.303c0.168-0.066,0.352-0.111,0.55-0.135
			c0.198-0.021,0.377-0.033,0.539-0.033c0.249,0,0.495,0.014,0.737,0.043c0.241,0.029,0.487,0.045,0.736,0.045
			c0.176,0,0.349-0.016,0.518-0.045c0.168-0.029,0.341-0.043,0.517-0.043c0.249,0,0.51,0.08,0.781,0.242
			c0.271,0.16,0.407,0.395,0.407,0.703v8.184l0.132,0.133h2.332c0.132,0,0.253,0.049,0.362,0.146
			c0.11,0.098,0.206,0.213,0.286,0.348c0.081,0.135,0.14,0.277,0.176,0.426c0.037,0.15,0.056,0.277,0.056,0.381
			c0,0.211-0.056,0.42-0.165,0.629c-0.11,0.209-0.29,0.314-0.539,0.314h-7.502c-0.264,0-0.473-0.09-0.627-0.27
			s-0.231-0.396-0.231-0.65C85.354,40.616,85.439,40.319,85.607,40.028z M88.699,26.589c0.278-0.293,0.638-0.439,1.077-0.439
			c0.234,0,0.451,0.055,0.649,0.164s0.366,0.258,0.506,0.439c0.14,0.184,0.249,0.387,0.33,0.605c0.08,0.221,0.121,0.439,0.121,0.66
			c0,0.439-0.161,0.789-0.484,1.045c-0.322,0.258-0.689,0.385-1.1,0.385c-0.499,0-0.877-0.176-1.133-0.527
			c-0.257-0.352-0.385-0.77-0.385-1.254C88.281,27.241,88.42,26.882,88.699,26.589z"/>
		<path d="M97.411,39.8c0.293-0.125,0.66-0.201,1.1-0.23l0.088-0.088c0.029-0.205,0.056-0.443,0.077-0.715
			c0.022-0.271,0.056-0.518,0.1-0.738v-5.082c0-0.102-0.092-0.18-0.275-0.23s-0.382-0.121-0.594-0.209
			c-0.213-0.088-0.411-0.217-0.595-0.385s-0.274-0.43-0.274-0.781c0-0.381,0.136-0.641,0.407-0.781
			c0.271-0.139,0.567-0.209,0.891-0.209c0.044,0,0.11,0,0.198,0c0.103,0,0.153,0.008,0.153,0.021
			c0.426,0.059,0.767,0.133,1.023,0.221s0.458,0.209,0.605,0.363c0.146,0.154,0.249,0.355,0.308,0.605
			c0.059,0.248,0.103,0.564,0.132,0.945c0.015,0.016,0.029,0.021,0.044,0.021h0.044c0.088,0,0.173-0.043,0.253-0.131
			c0.081-0.088,0.165-0.191,0.253-0.309s0.177-0.234,0.265-0.352s0.176-0.205,0.264-0.264c0.41-0.295,0.847-0.584,1.309-0.869
			c0.463-0.287,0.957-0.43,1.485-0.43c0.322,0,0.649,0.076,0.979,0.23c0.329,0.154,0.623,0.355,0.88,0.605
			c0.256,0.25,0.465,0.535,0.627,0.857c0.161,0.324,0.242,0.654,0.242,0.99v5.434c-0.06,0.162-0.092,0.309-0.1,0.441
			c-0.008,0.131-0.011,0.277-0.011,0.439c0,0.043,0.007,0.146,0.021,0.309l0.089,0.088c0.396,0.072,0.751,0.205,1.066,0.395
			c0.315,0.191,0.474,0.521,0.474,0.99c0,0.383-0.114,0.635-0.342,0.76s-0.517,0.188-0.869,0.188h-0.329
			c-0.118,0-0.323-0.004-0.616-0.012c-0.294-0.008-0.605-0.014-0.936-0.021s-0.642-0.02-0.935-0.033
			c-0.294-0.014-0.499-0.021-0.616-0.021c-0.47-0.133-0.704-0.434-0.704-0.902c0-0.557,0.157-0.914,0.474-1.066
			c0.314-0.154,0.707-0.246,1.177-0.275l0.088-0.088l0.198-0.859v-3.344c0.014-0.043,0.04-0.131,0.077-0.264
			c0.036-0.133,0.055-0.221,0.055-0.264v-0.045v-0.043c0-0.029-0.011-0.113-0.033-0.254c-0.021-0.139-0.04-0.223-0.055-0.252
			c0-0.045-0.004-0.125-0.012-0.242c-0.007-0.117-0.015-0.238-0.021-0.363c-0.008-0.125-0.015-0.246-0.022-0.363
			c-0.007-0.117-0.011-0.197-0.011-0.242c-0.132-0.219-0.301-0.348-0.506-0.385s-0.418-0.055-0.638-0.055
			c-0.367,0-0.708,0.088-1.023,0.264s-0.604,0.396-0.869,0.66c-0.264,0.264-0.502,0.555-0.715,0.869
			c-0.213,0.316-0.399,0.613-0.561,0.891c-0.015,0.016-0.044,0.055-0.088,0.121c-0.045,0.066-0.074,0.113-0.089,0.143
			c-0.044,0.074-0.146,0.242-0.308,0.506v2.51c-0.073,0.146-0.113,0.271-0.121,0.373c-0.008,0.104-0.011,0.234-0.011,0.396v0.33
			c0.088,0.131,0.23,0.209,0.429,0.23s0.403,0.063,0.616,0.121c0.212,0.059,0.396,0.162,0.55,0.309s0.231,0.41,0.231,0.791
			c0,0.309-0.114,0.539-0.341,0.693c-0.229,0.154-0.488,0.246-0.781,0.275h-0.902h-0.902c-0.029,0-0.103-0.016-0.22-0.045
			s-0.19-0.043-0.22-0.043c-0.25-0.029-0.499-0.049-0.748-0.055c-0.25-0.008-0.473-0.041-0.671-0.1s-0.355-0.162-0.473-0.309
			c-0.118-0.146-0.177-0.381-0.177-0.703C96.971,40.237,97.117,39.925,97.411,39.8z"/>
		<path d="M111.711,41.966c0.132-0.277,0.322-0.557,0.572-0.836l0.021-0.109c0-0.146-0.029-0.293-0.088-0.439
			s-0.121-0.293-0.187-0.439c-0.066-0.146-0.129-0.297-0.188-0.451s-0.088-0.313-0.088-0.475c0-0.498,0.113-0.934,0.341-1.309
			c0.228-0.373,0.518-0.729,0.869-1.066c0.015-0.029,0.022-0.074,0.022-0.133s0-0.102,0-0.131c0-0.338-0.048-0.66-0.144-0.969
			s-0.143-0.631-0.143-0.967c0-0.926,0.238-1.73,0.715-2.42s1.133-1.219,1.969-1.584c0.044-0.016,0.106-0.037,0.188-0.066
			c0.08-0.029,0.165-0.059,0.253-0.088s0.176-0.055,0.264-0.078c0.088-0.021,0.154-0.033,0.198-0.033c0.19,0,0.381,0.033,0.572,0.1
			c0.19,0.066,0.377,0.137,0.561,0.209c0.184,0.074,0.37,0.143,0.562,0.209c0.19,0.066,0.388,0.1,0.594,0.1h0.418
			c0.439-0.41,0.946-0.617,1.518-0.617c0.293,0,0.594,0.049,0.902,0.145c0.308,0.096,0.583,0.234,0.825,0.418
			c0.241,0.184,0.439,0.406,0.594,0.67s0.23,0.559,0.23,0.881c0,0.41-0.089,0.781-0.268,1.111c-0.179,0.328-0.5,0.494-0.962,0.494
			c-0.328,0-0.589-0.074-0.782-0.221c-0.194-0.146-0.351-0.311-0.47-0.494s-0.22-0.348-0.301-0.496
			c-0.081-0.146-0.165-0.219-0.253-0.219c0,0.367,0.051,0.715,0.153,1.045s0.154,0.678,0.154,1.045c0,0.396-0.041,0.785-0.121,1.166
			c-0.081,0.381-0.209,0.736-0.385,1.066s-0.4,0.623-0.671,0.881c-0.271,0.256-0.598,0.459-0.979,0.605
			c-0.146,0.059-0.271,0.113-0.374,0.164s-0.201,0.1-0.297,0.143c-0.096,0.045-0.198,0.078-0.308,0.1
			c-0.11,0.021-0.253,0.033-0.43,0.033c-0.234,0-0.454-0.031-0.659-0.092c-0.206-0.063-0.407-0.127-0.605-0.195
			c-0.198-0.066-0.399-0.133-0.604-0.193c-0.206-0.061-0.426-0.092-0.66-0.092c-0.279,0-0.466,0.092-0.562,0.275
			s-0.143,0.393-0.143,0.627v0.307c0.029,0.061,0.08,0.119,0.154,0.178c0.073,0.059,0.146,0.088,0.22,0.088
			c0.513,0,1.012-0.074,1.496-0.221c0.483-0.146,0.982-0.221,1.496-0.221h0.77c0.029,0,0.106,0.016,0.231,0.045
			c0.124,0.029,0.26,0.059,0.406,0.088s0.282,0.057,0.407,0.086s0.201,0.045,0.231,0.045c0.19,0.029,0.447,0.043,0.77,0.043
			c0.338,0,0.633,0.045,0.885,0.131c0.104,0.045,0.184,0.08,0.235,0.109c0.053,0.029,0.093,0.059,0.123,0.088
			s0.067,0.066,0.112,0.109s0.119,0.109,0.224,0.197c0.224,0.189,0.426,0.363,0.604,0.523c0.18,0.16,0.336,0.332,0.471,0.514
			c0.135,0.184,0.239,0.383,0.313,0.602c0.075,0.219,0.112,0.467,0.112,0.744c0,0.699-0.154,1.285-0.462,1.76
			c-0.308,0.473-0.712,0.852-1.21,1.137c-0.499,0.283-1.053,0.488-1.661,0.613c-0.608,0.123-1.206,0.186-1.793,0.186
			c-0.66,0-1.283-0.031-1.87-0.09s-1.188-0.197-1.804-0.418c-0.117-0.043-0.217-0.105-0.297-0.186
			c-0.081-0.082-0.18-0.137-0.297-0.166c-0.602-0.205-1.067-0.51-1.397-0.912c-0.33-0.404-0.495-0.943-0.495-1.617
			C111.513,42.591,111.579,42.245,111.711,41.966z M114.692,44.034c0.476,0.191,1.001,0.287,1.572,0.287
			c0.47,0,0.95-0.008,1.441-0.023c0.491-0.014,0.949-0.035,1.375-0.064c0.161-0.045,0.355-0.104,0.583-0.176
			c0.228-0.074,0.443-0.17,0.648-0.287c0.206-0.117,0.382-0.256,0.528-0.418s0.22-0.352,0.22-0.572c0-0.352-0.187-0.631-0.561-0.836
			s-0.807-0.363-1.298-0.473c-0.492-0.109-0.976-0.18-1.452-0.209s-0.817-0.043-1.023-0.043c-0.278,0-0.608,0.01-0.989,0.031
			c-0.382,0.023-0.745,0.086-1.089,0.188c-0.346,0.104-0.639,0.254-0.881,0.451c-0.241,0.197-0.362,0.48-0.362,0.848v0.373
			C113.786,43.536,114.215,43.845,114.692,44.034z M114.386,35.661c0.111,0.295,0.267,0.559,0.467,0.787
			c0.199,0.23,0.437,0.418,0.711,0.566c0.273,0.148,0.566,0.223,0.878,0.223c0.34,0,0.647-0.066,0.922-0.201
			c0.273-0.133,0.507-0.311,0.699-0.531c0.192-0.223,0.341-0.482,0.444-0.777c0.104-0.297,0.156-0.607,0.156-0.934
			c0-0.666-0.171-1.225-0.512-1.676c-0.34-0.451-0.852-0.678-1.532-0.678c-0.312,0-0.611,0.061-0.9,0.178
			c-0.289,0.119-0.545,0.281-0.767,0.488s-0.399,0.453-0.533,0.732c-0.133,0.281-0.2,0.586-0.2,0.912
			C114.219,35.062,114.274,35.364,114.386,35.661z"/>
		<path d="M139.2,39.942c0.228-0.189,0.51-0.285,0.847-0.285c0.206,0,0.407,0.018,0.605,0.055s0.407,0.055,0.627,0.055
			c0.059,0,0.143-0.004,0.253-0.012c0.11-0.006,0.172-0.01,0.188-0.01l0.088-0.088c0-0.059,0.003-0.154,0.011-0.287
			c0.007-0.131,0.015-0.273,0.022-0.428c0.007-0.154,0.018-0.301,0.032-0.441c0.015-0.139,0.022-0.238,0.022-0.297
			c0-0.029,0.011-0.102,0.033-0.219c0.021-0.117,0.04-0.191,0.055-0.221l-0.044-2.156V35.19l-0.132-2.596l-0.176-0.176
			c-0.074,0-0.198-0.004-0.374-0.012c-0.177-0.006-0.367-0.014-0.572-0.021c-0.206-0.008-0.396-0.018-0.572-0.033
			c-0.176-0.014-0.301-0.021-0.374-0.021c-0.294-0.029-0.539-0.143-0.737-0.342c-0.197-0.197-0.297-0.443-0.297-0.736
			s0.088-0.547,0.265-0.76c0.176-0.211,0.418-0.318,0.726-0.318c0.015,0,0.036,0,0.066,0c0.044,0,0.065,0.008,0.065,0.021
			c0.234,0.029,0.524,0.033,0.869,0.012s0.693-0.025,1.045-0.012c0.353,0.016,0.683,0.063,0.99,0.143
			c0.308,0.082,0.542,0.232,0.704,0.451c0.029,0.031,0.059,0.092,0.088,0.188s0.063,0.195,0.099,0.297
			c0.037,0.104,0.081,0.191,0.132,0.264c0.052,0.074,0.106,0.111,0.165,0.111h0.044c0.455-0.367,0.942-0.705,1.464-1.012
			c0.521-0.309,1.081-0.463,1.683-0.463c0.366,0,0.723,0.063,1.067,0.188c0.344,0.125,0.641,0.297,0.891,0.516
			c0.249,0.221,0.451,0.488,0.604,0.805c0.154,0.314,0.231,0.662,0.231,1.045c0,0.543-0.129,1.004-0.385,1.385
			c-0.257,0.383-0.693,0.572-1.31,0.572c-0.293,0-0.527-0.092-0.704-0.275c-0.176-0.184-0.315-0.406-0.418-0.67
			s-0.172-0.539-0.209-0.826c-0.036-0.285-0.063-0.531-0.076-0.736c-0.016-0.072-0.06-0.109-0.133-0.109s-0.124,0-0.153,0
			c-0.074,0-0.144,0.004-0.209,0.01c-0.066,0.008-0.129,0.041-0.188,0.1c-0.059,0.045-0.153,0.133-0.286,0.264
			c-0.132,0.133-0.271,0.271-0.418,0.418s-0.286,0.287-0.418,0.418c-0.132,0.133-0.22,0.221-0.264,0.264
			c-0.059,0.059-0.143,0.158-0.253,0.297c-0.11,0.141-0.217,0.291-0.319,0.451c-0.103,0.162-0.19,0.32-0.264,0.475
			c-0.073,0.152-0.11,0.268-0.11,0.34v2.486c0.015,0.029,0.033,0.104,0.056,0.221c0.021,0.117,0.032,0.189,0.032,0.219
			c0,0.045,0.008,0.133,0.022,0.264c0.015,0.133,0.025,0.271,0.033,0.418c0.007,0.148,0.014,0.287,0.021,0.418
			c0.008,0.133,0.011,0.229,0.011,0.287c0.059,0.162,0.146,0.256,0.265,0.285c0.117,0.029,0.256,0.045,0.418,0.045
			c0.161,0,0.326-0.016,0.495-0.045c0.168-0.029,0.333-0.043,0.495-0.043c0.337,0,0.645,0.092,0.924,0.275
			c0.278,0.184,0.418,0.449,0.418,0.803c0,0.293-0.066,0.523-0.198,0.693c-0.132,0.168-0.305,0.293-0.517,0.373
			c-0.213,0.08-0.444,0.133-0.693,0.154c-0.25,0.021-0.484,0.033-0.704,0.033c-0.249,0-0.495-0.016-0.737-0.045
			c-0.241-0.029-0.487-0.043-0.736-0.043c-0.118,0-0.217,0.004-0.297,0.01c-0.081,0.008-0.195,0.033-0.342,0.078h-2.508
			c-0.352,0-0.671-0.117-0.957-0.352c-0.286-0.236-0.429-0.537-0.429-0.902C138.859,40.397,138.973,40.134,139.2,39.942z"/>
		<path d="M152.773,34.024c0.198-0.777,0.51-1.467,0.936-2.068c0.425-0.6,0.972-1.08,1.639-1.439s1.463-0.539,2.387-0.539
			c0.704,0,1.313,0.135,1.826,0.406s1.026,0.627,1.54,1.066c0.015,0.016,0.029,0.033,0.044,0.055
			c0.015,0.023,0.029,0.033,0.044,0.033c0.177,0.338,0.355,0.672,0.539,1.002s0.353,0.668,0.506,1.012
			c0.154,0.346,0.279,0.697,0.374,1.057c0.096,0.359,0.144,0.729,0.144,1.111c0,0.043-0.004,0.127-0.011,0.252
			c-0.008,0.125-0.012,0.201-0.012,0.23c-0.029,0.088-0.069,0.246-0.121,0.473c-0.051,0.229-0.109,0.471-0.176,0.727
			c-0.065,0.258-0.128,0.504-0.187,0.738s-0.096,0.395-0.11,0.482c-0.117,0.396-0.319,0.814-0.604,1.254
			c-0.286,0.441-0.62,0.84-1.001,1.199c-0.382,0.359-0.796,0.656-1.243,0.891c-0.448,0.236-0.892,0.354-1.331,0.354
			c-0.221,0-0.389-0.016-0.506-0.045c-0.118-0.029-0.217-0.066-0.298-0.109c-0.08-0.045-0.164-0.092-0.253-0.143
			c-0.088-0.053-0.212-0.1-0.374-0.145c-0.073-0.014-0.212-0.035-0.418-0.064c-0.205-0.029-0.352-0.059-0.439-0.088
			c-0.073-0.029-0.173-0.078-0.297-0.145c-0.125-0.064-0.25-0.131-0.374-0.197c-0.125-0.066-0.242-0.125-0.353-0.176
			c-0.109-0.051-0.172-0.084-0.187-0.1c-0.294-0.189-0.562-0.484-0.803-0.879c-0.242-0.396-0.451-0.822-0.628-1.277
			c-0.176-0.453-0.312-0.908-0.406-1.363c-0.096-0.455-0.144-0.844-0.144-1.166C152.477,35.601,152.576,34.802,152.773,34.024z
			 M154.401,36.929c0.022,0.205,0.056,0.41,0.1,0.615c0.044,0.207,0.099,0.4,0.165,0.584c0.065,0.184,0.143,0.318,0.23,0.406
			l1.034,1.035c0.161,0.043,0.29,0.072,0.385,0.088c0.096,0.014,0.194,0.029,0.298,0.043c0.102,0.016,0.19,0.023,0.264,0.023
			c0.015,0.014,0.117,0.021,0.308,0.021c0.205,0,0.359,0,0.462,0c0.294,0,0.547-0.004,0.76-0.012
			c0.212-0.008,0.45-0.063,0.715-0.164c0.63-0.514,1.048-1.068,1.254-1.662c0.205-0.594,0.308-1.279,0.308-2.057
			c0-0.455-0.048-0.877-0.143-1.266c-0.096-0.387-0.224-0.795-0.385-1.221c-0.074-0.189-0.195-0.348-0.363-0.473
			c-0.169-0.125-0.353-0.234-0.55-0.33c-0.198-0.096-0.404-0.18-0.616-0.252c-0.213-0.074-0.393-0.154-0.539-0.242h-1.386
			c-0.015,0-0.11,0.055-0.286,0.164s-0.309,0.195-0.396,0.254c-0.352,0.248-0.635,0.52-0.847,0.813
			c-0.213,0.295-0.382,0.605-0.506,0.936c-0.125,0.33-0.206,0.68-0.242,1.045c-0.037,0.367-0.055,0.756-0.055,1.166
			C154.369,36.562,154.38,36.724,154.401,36.929z"/>
		<path d="M166.897,35.454c0.095-0.66,0.143-1.326,0.143-2.002c0-0.043,0-0.109,0-0.197c0-0.104-0.004-0.209-0.011-0.318
			c-0.008-0.111-0.012-0.209-0.012-0.297c0-0.104,0-0.178,0-0.221c-0.161-0.104-0.341-0.172-0.538-0.209
			c-0.198-0.037-0.386-0.08-0.562-0.133c-0.176-0.051-0.322-0.135-0.439-0.252c-0.118-0.117-0.177-0.309-0.177-0.572
			c0-0.25,0.077-0.463,0.231-0.639s0.363-0.264,0.627-0.264h1.804c0.22,0,0.393,0.049,0.518,0.143
			c0.124,0.096,0.22,0.221,0.285,0.373c0.066,0.154,0.11,0.318,0.133,0.494c0.021,0.176,0.032,0.336,0.032,0.482
			c0,0.309-0.019,0.607-0.055,0.9c-0.037,0.293-0.055,0.592-0.055,0.9c0,0.102,0.003,0.26,0.011,0.471
			c0.007,0.213,0.011,0.334,0.011,0.363c0,0.146,0.008,0.406,0.022,0.779s0.029,0.771,0.044,1.195s0.033,0.824,0.055,1.197
			c0.022,0.373,0.033,0.633,0.033,0.779c0.059,0.379,0.18,0.693,0.363,0.943c0.183,0.248,0.487,0.373,0.913,0.373
			c0.176,0,0.374-0.016,0.594-0.045s0.403-0.109,0.55-0.242c0.264-0.234,0.535-0.502,0.814-0.803
			c0.278-0.301,0.527-0.619,0.748-0.957c0.22-0.336,0.402-0.693,0.55-1.066c0.146-0.375,0.22-0.752,0.22-1.133V32.31
			c0-0.059-0.099-0.1-0.297-0.121c-0.198-0.023-0.418-0.063-0.66-0.121s-0.462-0.158-0.66-0.297
			c-0.198-0.141-0.297-0.35-0.297-0.627c0-0.25,0.077-0.447,0.231-0.596c0.153-0.146,0.37-0.219,0.648-0.219h1.98
			c0.264,0,0.454,0.084,0.571,0.252c0.117,0.17,0.198,0.367,0.242,0.594c0.044,0.229,0.066,0.467,0.066,0.717
			c0,0.248,0.021,0.447,0.065,0.594l-0.044,2.332v0.418l-0.044,4.135l0.177,0.176c0.22,0,0.45,0.008,0.692,0.023
			c0.242,0.014,0.47,0.063,0.683,0.143c0.212,0.082,0.385,0.199,0.517,0.355c0.132,0.154,0.198,0.381,0.198,0.678
			c0,0.266-0.052,0.475-0.154,0.621c-0.103,0.148-0.238,0.256-0.407,0.322s-0.355,0.107-0.561,0.123
			c-0.206,0.016-0.411,0.021-0.616,0.021c-0.117,0-0.305-0.006-0.561-0.021c-0.257-0.016-0.518-0.057-0.781-0.123
			c-0.265-0.066-0.495-0.166-0.693-0.299c-0.198-0.135-0.297-0.313-0.297-0.533v-0.957h-0.088c-0.25,0.268-0.495,0.523-0.737,0.768
			s-0.499,0.467-0.77,0.666c-0.271,0.201-0.565,0.359-0.88,0.479c-0.316,0.117-0.657,0.178-1.023,0.178
			c-0.602,0-1.122-0.141-1.562-0.418c-0.44-0.279-0.804-0.635-1.09-1.068c-0.285-0.432-0.498-0.916-0.638-1.451
			s-0.209-1.066-0.209-1.596C166.754,36.782,166.802,36.114,166.897,35.454z"/>
		<path d="M180.812,39.8c0.293-0.125,0.66-0.201,1.1-0.23l0.088-0.088c0.029-0.205,0.056-0.443,0.077-0.715
			c0.022-0.271,0.056-0.518,0.1-0.738v-5.082c0-0.102-0.092-0.18-0.275-0.23s-0.382-0.121-0.594-0.209
			c-0.213-0.088-0.411-0.217-0.595-0.385s-0.274-0.43-0.274-0.781c0-0.381,0.136-0.641,0.407-0.781
			c0.271-0.139,0.567-0.209,0.891-0.209c0.044,0,0.11,0,0.198,0c0.103,0,0.153,0.008,0.153,0.021
			c0.426,0.059,0.767,0.133,1.023,0.221s0.458,0.209,0.605,0.363c0.146,0.154,0.249,0.355,0.308,0.605
			c0.059,0.248,0.103,0.564,0.132,0.945c0.015,0.016,0.029,0.021,0.044,0.021h0.044c0.088,0,0.173-0.043,0.253-0.131
			c0.081-0.088,0.165-0.191,0.253-0.309s0.177-0.234,0.265-0.352s0.176-0.205,0.264-0.264c0.41-0.295,0.847-0.584,1.309-0.869
			c0.463-0.287,0.957-0.43,1.485-0.43c0.322,0,0.649,0.076,0.979,0.23c0.329,0.154,0.623,0.355,0.88,0.605
			c0.256,0.25,0.465,0.535,0.627,0.857c0.161,0.324,0.242,0.654,0.242,0.99v5.434c-0.06,0.162-0.092,0.309-0.1,0.441
			c-0.008,0.131-0.011,0.277-0.011,0.439c0,0.043,0.007,0.146,0.021,0.309l0.089,0.088c0.396,0.072,0.751,0.205,1.066,0.395
			c0.315,0.191,0.474,0.521,0.474,0.99c0,0.383-0.114,0.635-0.342,0.76s-0.517,0.188-0.869,0.188H190.8
			c-0.118,0-0.323-0.004-0.616-0.012c-0.294-0.008-0.605-0.014-0.936-0.021s-0.642-0.02-0.935-0.033
			c-0.294-0.014-0.499-0.021-0.616-0.021c-0.47-0.133-0.704-0.434-0.704-0.902c0-0.557,0.157-0.914,0.474-1.066
			c0.314-0.154,0.707-0.246,1.177-0.275l0.088-0.088l0.198-0.859v-3.344c0.014-0.043,0.04-0.131,0.077-0.264
			c0.036-0.133,0.055-0.221,0.055-0.264v-0.045v-0.043c0-0.029-0.011-0.113-0.033-0.254c-0.021-0.139-0.04-0.223-0.055-0.252
			c0-0.045-0.004-0.125-0.012-0.242c-0.007-0.117-0.015-0.238-0.021-0.363c-0.008-0.125-0.015-0.246-0.022-0.363
			c-0.007-0.117-0.011-0.197-0.011-0.242c-0.132-0.219-0.301-0.348-0.506-0.385s-0.418-0.055-0.638-0.055
			c-0.367,0-0.708,0.088-1.023,0.264s-0.604,0.396-0.869,0.66c-0.264,0.264-0.502,0.555-0.715,0.869
			c-0.213,0.316-0.399,0.613-0.561,0.891c-0.015,0.016-0.044,0.055-0.088,0.121c-0.045,0.066-0.074,0.113-0.089,0.143
			c-0.044,0.074-0.146,0.242-0.308,0.506v2.51c-0.073,0.146-0.113,0.271-0.121,0.373c-0.008,0.104-0.011,0.234-0.011,0.396v0.33
			c0.088,0.131,0.23,0.209,0.429,0.23s0.403,0.063,0.616,0.121c0.212,0.059,0.396,0.162,0.55,0.309s0.231,0.41,0.231,0.791
			c0,0.309-0.114,0.539-0.341,0.693c-0.229,0.154-0.488,0.246-0.781,0.275h-0.902h-0.902c-0.029,0-0.103-0.016-0.22-0.045
			s-0.19-0.043-0.22-0.043c-0.25-0.029-0.499-0.049-0.748-0.055c-0.25-0.008-0.473-0.041-0.671-0.1s-0.355-0.162-0.473-0.309
			c-0.118-0.146-0.177-0.381-0.177-0.703C180.371,40.237,180.518,39.925,180.812,39.8z"/>
		<path d="M200.216,30.196c0.322,0.059,0.623,0.176,0.901,0.352c0.161,0.119,0.286,0.225,0.374,0.32s0.234,0.143,0.44,0.143
			c0.014,0,0.059-0.008,0.132-0.021l0.176-0.529v-2.045c0-0.191-0.136-0.301-0.407-0.33s-0.568-0.063-0.891-0.1
			c-0.323-0.035-0.62-0.127-0.891-0.275c-0.272-0.146-0.407-0.432-0.407-0.857c0-0.205,0.065-0.369,0.198-0.494
			c0.132-0.125,0.3-0.188,0.506-0.188h2.662c0.117,0,0.234,0.037,0.352,0.109c0.117,0.074,0.224,0.166,0.319,0.275
			c0.095,0.109,0.172,0.23,0.23,0.363c0.059,0.131,0.088,0.256,0.088,0.373v6.799l0.177,0.418v4.994l0.22,0.176
			c0.146,0,0.355-0.012,0.627-0.033s0.539-0.014,0.803,0.021c0.265,0.037,0.495,0.115,0.693,0.232s0.297,0.307,0.297,0.572
			c0,0.293-0.07,0.527-0.209,0.703c-0.14,0.176-0.319,0.309-0.539,0.396s-0.459,0.143-0.715,0.164
			c-0.257,0.021-0.495,0.033-0.715,0.033c-0.499,0-0.928-0.051-1.287-0.154c-0.359-0.102-0.701-0.344-1.023-0.725
			c-0.015,0-0.036-0.004-0.065-0.012c-0.03-0.008-0.052-0.012-0.066-0.012c-0.073,0-0.129,0.012-0.165,0.033
			c-0.037,0.021-0.065,0.049-0.088,0.078s-0.055,0.064-0.099,0.109c-0.044,0.043-0.118,0.096-0.221,0.154
			c-0.337,0.189-0.642,0.352-0.913,0.484c-0.271,0.131-0.59,0.197-0.957,0.197c-0.542,0-1.052-0.096-1.528-0.285
			c-0.477-0.191-0.91-0.445-1.298-0.76c-0.39-0.314-0.734-0.686-1.034-1.111c-0.301-0.426-0.539-0.879-0.715-1.363
			c0-0.016-0.016-0.063-0.044-0.143c-0.03-0.082-0.063-0.17-0.1-0.266c-0.036-0.094-0.065-0.189-0.088-0.285
			c-0.021-0.096-0.033-0.158-0.033-0.188V34.86c0-0.102,0.037-0.238,0.11-0.406s0.124-0.289,0.154-0.363
			c0.014-0.045,0.047-0.143,0.099-0.297c0.051-0.154,0.103-0.326,0.154-0.518c0.051-0.189,0.103-0.365,0.153-0.527
			c0.052-0.162,0.085-0.264,0.1-0.309c0.015-0.014,0.044-0.066,0.088-0.154l1.804-1.826c0.088-0.088,0.201-0.152,0.341-0.197
			c0.14-0.043,0.29-0.076,0.451-0.1c0.161-0.021,0.319-0.035,0.474-0.043c0.153-0.008,0.297-0.012,0.429-0.012
			C199.577,30.108,199.893,30.138,200.216,30.196z M196.959,37.226c0.103,0.477,0.268,0.914,0.495,1.309
			c0.228,0.396,0.528,0.719,0.902,0.969s0.825,0.373,1.353,0.373c0.426,0,0.796-0.135,1.111-0.406s0.579-0.602,0.792-0.99
			s0.37-0.807,0.473-1.254s0.154-0.848,0.154-1.199c0-0.426-0.055-0.871-0.165-1.342c-0.109-0.469-0.282-0.902-0.517-1.297
			c-0.235-0.396-0.536-0.727-0.902-0.99c-0.366-0.266-0.8-0.396-1.298-0.396c-0.484,0-0.891,0.131-1.221,0.396
			c-0.33,0.264-0.595,0.586-0.792,0.967c-0.198,0.383-0.338,0.801-0.418,1.254c-0.081,0.455-0.121,0.865-0.121,1.232
			C196.806,36.29,196.856,36.749,196.959,37.226z"/>
	</g>
</g>
<g id="Bro">
</g>
<g id="LeastDrunk">
</g>
<g id="Know_It_All">
</g>
<g id="EyeContact">
</g>
<g id="UnderGuesser">
</g>
<g id="GodSaveTheQUeen">
</g>
<g id="Ghost">
</g>
<g id="Fortune_Teller">
</g>
<g id="DrinkSwap">
</g>
<g id="DickTator">
</g>
<g id="_x34_Eyes">
</g>
<g id="BabyTalk">
</g>
<g id="Backseat_Driver">
</g>
<g id="BAtman">
</g>
<g id="bodyguard">
</g>
<g id="BuckleUp">
</g>
<g id="RockPaperScissors">
</g>
<g id="Roger_Roger">
</g>
<g id="RoyaleWe">
</g>
<g id="Skip">
</g>
<g id="SwineRules">
</g>
<g id="Touchy_Feeley">
</g>
<g id="Wasted_Education">
</g>
<g id="Layer_86">
</g>
<g id="PointOfNoReturn">
</g>
<g id="Pirate">
</g>
<g id="Thief">
</g>
<g id="DepthPerception">
</g>
<g id="Narcissist">
</g>
<g id="MammaBird">
</g>
<g id="Staringcontest">
</g>
<g id="Cartwheel">
</g>
<g id="Censored">
</g>
<g id="Depersonalization">
</g>
<g id="threeman">
</g>
<g id="_x32__truths_and_a_lie">
</g>
<g id="cray_cray_cat_lady">
</g>
<g id="siblings">
</g>
<g id="later">
</g>
<g id="waterfall">
</g>
<g id="cheers">
</g>
<g id="rhyme">
</g>
<g id="categories">
</g>
<g id="tits">
</g>
<g id="dicks">
</g>
<g id="questions">
</g>
<g id="double_hands">
</g>
<g id="take_2">
</g>
<g id="take_3">
</g>
<g id="give_3">
</g>
<g id="give_2">
</g>
<g id="rewind">
</g>
<g id="Cryptkeeper">
</g>
<g id="Take_2_and_Redo">
</g>
<g id="Embryo">
</g>
<g id="I_am_Groot">
</g>
<g id="Mini_Me">
</g>
<g id="Ditto_1_">
</g>
<g id="reverse">
</g>
</svg>
