<?xml version="1.0" encoding="utf-8"?>
<!-- Generator: Adobe Illustrator 16.0.0, SVG Export Plug-In . SVG Version: 6.00 Build 0)  -->
<!DOCTYPE svg PUBLIC "-//W3C//DTD SVG 1.1//EN" "http://www.w3.org/Graphics/SVG/1.1/DTD/svg11.dtd">
<svg version="1.1" xmlns="http://www.w3.org/2000/svg" xmlns:xlink="http://www.w3.org/1999/xlink" x="0px" y="0px"
	 width="209.759px" height="62.361px" viewBox="0 0 209.759 62.361" enable-background="new 0 0 209.759 62.361"
	 xml:space="preserve">
<g id="Layer_1">
</g>
<g id="Hat">
</g>
<g id="Compliments">
</g>
<g id="HAT">
</g>
<g id="speech">
</g>
<g id="TREX_ARMS">
</g>
<g id="Layer_7">
</g>
<g id="TIMEOUT">
</g>
<g id="Layer_9">
</g>
<g id="ARM_WRESTLE">
</g>
<g id="musical_chairs">
</g>
<g id="never_have_i_ever">
</g>
<g id="Trivia">
</g>
<g id="Layer_14">
</g>
<g id="Layer_15">
</g>
<g id="Layer_16">
</g>
<g id="Layer_17">
</g>
<g id="Heads_up">
</g>
<g id="Archenemy">
</g>
<g id="battle_of_the_sexes">
</g>
<g id="one_must_drink">
</g>
<g id="rainbow_connection">
</g>
<g id="social_drinking">
</g>
<g id="Spin_the_bottle">
</g>
<g id="accents">
</g>
<g id="Slap">
</g>
<g id="give_3">
</g>
<g id="Layer_36">
</g>
<g id="Layer_37">
</g>
<g id="Layer_38">
	<g>
		<path d="M41.445,42.573c-0.702,0.312-1.56,0.624-2.574,0.936c-1.014,0.313-2.08,0.468-3.198,0.468
			c-0.728,0-1.41-0.091-2.047-0.272c-0.638-0.182-1.196-0.475-1.677-0.878c-0.481-0.402-0.865-0.922-1.151-1.56
			c-0.286-0.637-0.429-1.41-0.429-2.32V27.207h-2.69V23.19h2.69v-6.631h5.227v6.631h4.29v4.017h-4.29v9.984
			c0,0.728,0.188,1.241,0.565,1.54c0.376,0.299,0.838,0.448,1.384,0.448c0.547,0,1.079-0.091,1.6-0.272
			c0.52-0.182,0.936-0.338,1.248-0.468L41.445,42.573z"/>
		<path d="M53.457,44.015c-0.988,0-1.911-0.162-2.77-0.487c-0.857-0.324-1.599-0.78-2.223-1.365s-1.111-1.268-1.462-2.047
			c-0.352-0.78-0.527-1.639-0.527-2.574c0-0.962,0.215-1.853,0.644-2.672c0.43-0.818,1.027-1.514,1.794-2.086
			s1.684-1.021,2.75-1.346c1.065-0.325,2.235-0.487,3.51-0.487c0.91,0,1.8,0.078,2.672,0.233c0.87,0.156,1.644,0.378,2.32,0.663
			v-1.17c0-1.352-0.384-2.392-1.15-3.12c-0.768-0.728-1.905-1.092-3.413-1.092c-1.092,0-2.158,0.195-3.197,0.585
			c-1.04,0.391-2.106,0.962-3.198,1.716l-1.599-3.314c2.625-1.742,5.46-2.613,8.502-2.613c2.938,0,5.219,0.722,6.844,2.165
			c1.625,1.442,2.438,3.529,2.438,6.259v6.357c0,0.546,0.098,0.936,0.293,1.17s0.513,0.364,0.955,0.39v4.446
			c-0.884,0.182-1.651,0.273-2.301,0.273c-0.988,0-1.749-0.222-2.281-0.663c-0.533-0.442-0.865-1.027-0.995-1.755l-0.116-1.132
			c-0.911,1.196-2.016,2.106-3.315,2.73C56.329,43.704,54.939,44.015,53.457,44.015z M54.939,40.194
			c0.883,0,1.722-0.156,2.515-0.469c0.793-0.312,1.41-0.728,1.853-1.248c0.572-0.441,0.858-0.936,0.858-1.481v-2.34
			c-0.624-0.234-1.301-0.423-2.028-0.565s-1.43-0.215-2.105-0.215c-1.353,0-2.457,0.306-3.315,0.916
			c-0.857,0.611-1.287,1.385-1.287,2.321c0,0.884,0.338,1.618,1.015,2.203C53.119,39.901,53.95,40.194,54.939,40.194z"/>
		<path d="M87.933,43.625l-5.928-8.853l-2.808,2.769v6.084h-5.227v-28.47h5.227v17.276l8.189-9.204h5.577l-7.605,8.658l8.151,11.739
			H87.933z"/>
		<path d="M107.862,44.015c-1.639,0-3.12-0.279-4.446-0.838s-2.457-1.319-3.394-2.282c-0.936-0.961-1.657-2.079-2.164-3.354
			c-0.507-1.273-0.761-2.613-0.761-4.017c0-1.456,0.247-2.828,0.741-4.115c0.493-1.287,1.209-2.418,2.145-3.393
			c0.937-0.976,2.073-1.748,3.413-2.32c1.339-0.572,2.84-0.858,4.504-0.858s3.152,0.286,4.466,0.858
			c1.313,0.572,2.431,1.339,3.354,2.301c0.922,0.962,1.624,2.08,2.105,3.354c0.481,1.274,0.722,2.601,0.722,3.979
			c0,0.338-0.007,0.663-0.02,0.975c-0.014,0.313-0.046,0.572-0.098,0.78h-15.795c0.078,0.807,0.273,1.521,0.585,2.145
			c0.313,0.624,0.715,1.157,1.209,1.6s1.053,0.78,1.677,1.014c0.624,0.234,1.274,0.352,1.95,0.352c1.04,0,2.021-0.254,2.944-0.761
			s1.554-1.176,1.892-2.009l4.485,1.248c-0.755,1.561-1.957,2.841-3.607,3.842C112.119,43.515,110.149,44.015,107.862,44.015z
			 M113.166,31.692c-0.131-1.534-0.696-2.763-1.696-3.686c-1.002-0.923-2.217-1.385-3.646-1.385c-0.702,0-1.359,0.124-1.97,0.37
			c-0.611,0.248-1.15,0.592-1.619,1.034c-0.468,0.442-0.852,0.975-1.15,1.599s-0.475,1.313-0.526,2.067H113.166z"/>
		<path d="M137.619,43.625c0-1.17,0.091-2.229,0.272-3.179c0.182-0.948,0.5-1.826,0.956-2.632c0.454-0.806,1.078-1.561,1.871-2.263
			s1.801-1.391,3.023-2.066c1.065-0.572,2.008-1.073,2.827-1.502s1.501-0.825,2.048-1.189c0.546-0.363,0.961-0.734,1.247-1.111
			s0.43-0.813,0.43-1.307c0-0.78-0.313-1.449-0.937-2.009c-0.624-0.559-1.521-0.838-2.69-0.838c-0.624,0-1.196,0.084-1.716,0.253
			c-0.521,0.17-1.009,0.397-1.463,0.683c-0.455,0.286-0.871,0.604-1.248,0.956c-0.377,0.351-0.722,0.721-1.033,1.111l-3.354-3.861
			c0.338-0.363,0.819-0.761,1.443-1.189s1.358-0.832,2.203-1.209s1.781-0.688,2.809-0.936c1.026-0.247,2.125-0.371,3.295-0.371
			c1.326,0,2.509,0.163,3.549,0.487c1.04,0.326,1.917,0.78,2.633,1.365c0.715,0.585,1.261,1.287,1.638,2.106
			c0.377,0.818,0.565,1.71,0.565,2.671c0,0.911-0.169,1.716-0.507,2.418s-0.767,1.326-1.287,1.872s-1.086,1.021-1.696,1.424
			c-0.611,0.403-1.203,0.761-1.774,1.072c-0.468,0.261-1.001,0.56-1.599,0.897c-0.599,0.338-1.189,0.708-1.774,1.111
			s-1.125,0.819-1.619,1.248s-0.871,0.852-1.131,1.268h11.817v4.719H137.619z"/>
	</g>
</g>
<g id="Layer_39">
</g>
<g id="Layer_40">
</g>
<g id="Layer_41">
</g>
<g id="Layer_42">
</g>
<g id="Layer_43">
</g>
<g id="Layer_44">
</g>
<g id="Layer_45">
</g>
<g id="Layer_46">
</g>
<g id="Layer_47">
</g>
<g id="Layer_48">
</g>
<g id="give_2">
</g>
<g id="rewind">
</g>
<g id="Layer_22">
</g>
<g id="Layer_19">
</g>
<g id="Layer_20">
</g>
<g id="Layer_21">
</g>
<g id="Layer_23">
</g>
<g id="Layer_24">
</g>
</svg>
