<?xml version="1.0" encoding="utf-8"?>
<!-- Generator: Adobe Illustrator 16.0.0, SVG Export Plug-In . SVG Version: 6.00 Build 0)  -->
<!DOCTYPE svg PUBLIC "-//W3C//DTD SVG 1.1//EN" "http://www.w3.org/Graphics/SVG/1.1/DTD/svg11.dtd">
<svg version="1.1" xmlns="http://www.w3.org/2000/svg" xmlns:xlink="http://www.w3.org/1999/xlink" x="0px" y="0px"
	 width="209.759px" height="62.361px" viewBox="0 0 209.759 62.361" enable-background="new 0 0 209.759 62.361"
	 xml:space="preserve">
<g id="Layer_1">
</g>
<g id="Blindman">
</g>
<g id="Compliments">
</g>
<g id="HAT">
</g>
<g id="speech">
</g>
<g id="TREX_ARMS">
</g>
<g id="slim_shady">
</g>
<g id="TIMEOUT">
</g>
<g id="Truth_or_Dare">
</g>
<g id="ARM_WRESTLE">
</g>
<g id="musical_chairs">
</g>
<g id="never_have_i_ever">
</g>
<g id="Trivia">
</g>
<g id="Drink_Pulling">
</g>
<g id="Sharing_is_Caring">
</g>
<g id="Not_It">
</g>
<g id="Cocktail_of_Doom">
</g>
<g id="Heads_up">
</g>
<g id="Archenemy">
</g>
<g id="battle_of_the_sexes">
</g>
<g id="one_must_drink">
</g>
<g id="rainbow_connection">
</g>
<g id="social_drinking">
</g>
<g id="Spin_the_bottle">
</g>
<g id="accents">
</g>
<g id="Slap">
</g>
<g id="down_the_hatch">
</g>
<g id="rubiks_cube">
</g>
<g id="bar_tender">
</g>
<g id="codenames">
</g>
<g id="hand_switch">
</g>
<g id="make_a_rule">
</g>
<g id="no_guts_no_glory">
</g>
<g id="pass">
</g>
<g id="santa">
</g>
<g id="snake_eyes">
</g>
<g id="lightning_round">
</g>
<g id="Bro">
</g>
<g id="LeastDrunk">
</g>
<g id="Know_It_All">
</g>
<g id="EyeContact">
</g>
<g id="UnderGuesser">
</g>
<g id="GodSaveTheQUeen">
</g>
<g id="Ghost">
</g>
<g id="Fortune_Teller">
</g>
<g id="DrinkSwap">
</g>
<g id="DickTator">
</g>
<g id="_x34_Eyes">
</g>
<g id="BabyTalk">
</g>
<g id="Backseat_Driver">
</g>
<g id="BAtman">
</g>
<g id="bodyguard">
</g>
<g id="BuckleUp">
</g>
<g id="RockPaperScissors">
</g>
<g id="Roger_Roger">
</g>
<g id="RoyaleWe">
</g>
<g id="Skip">
</g>
<g id="SwineRules">
</g>
<g id="Touchy_Feeley">
</g>
<g id="Wasted_Education">
</g>
<g id="Layer_86">
</g>
<g id="PointOfNoReturn">
</g>
<g id="Pirate">
</g>
<g id="Thief">
</g>
<g id="DepthPerception">
	<g>
		<path d="M9.787,41.154c0.214-0.113,0.487-0.17,0.82-0.17c0.227,0,0.44,0.018,0.641,0.049c0.199,0.035,0.413,0.051,0.64,0.051
			c0.053,0,0.12,0,0.2,0s0.12-0.006,0.12-0.02l0.159-0.141l-0.04-2.199v-0.4v-3.52v-0.381l0.04-3.359c0-0.053-0.026-0.08-0.08-0.08
			c-0.053-0.053-0.106-0.08-0.159-0.08h-1.641c-0.307,0-0.553-0.107-0.739-0.32c-0.188-0.213-0.28-0.459-0.28-0.74
			c0-0.387,0.113-0.66,0.34-0.82s0.52-0.24,0.88-0.24c0.253,0,0.497,0.014,0.73,0.041c0.232,0.027,0.482,0.039,0.75,0.039
			c0.159,0,0.346,0.004,0.56,0.012c0.213,0.006,0.406-0.023,0.58-0.092h2.74c0.387,0.16,0.776,0.277,1.17,0.352
			c0.393,0.072,0.783,0.189,1.17,0.35c0.467,0.199,0.873,0.51,1.22,0.93s0.633,0.887,0.86,1.4c0.227,0.514,0.396,1.043,0.51,1.59
			s0.17,1.047,0.17,1.5c0,1.107-0.106,2.18-0.32,3.221c-0.213,1.039-0.579,2.047-1.1,3.02c-0.04,0.053-0.13,0.15-0.27,0.289
			c-0.141,0.141-0.237,0.23-0.29,0.271c-0.4,0.318-0.777,0.563-1.131,0.729c-0.353,0.168-0.713,0.287-1.079,0.361
			c-0.367,0.072-0.754,0.113-1.16,0.119c-0.407,0.008-0.87,0.018-1.391,0.029c-0.08,0-0.203,0.008-0.37,0.021
			c-0.166,0.014-0.333,0.023-0.5,0.029c-0.166,0.008-0.316,0.014-0.449,0.02c-0.134,0.008-0.221,0.01-0.261,0.01
			c-0.026,0-0.1,0.014-0.22,0.041s-0.243,0.053-0.37,0.08s-0.247,0.053-0.359,0.08c-0.114,0.027-0.184,0.039-0.21,0.039h-0.341
			c-0.213,0-0.43-0.023-0.649-0.07c-0.22-0.045-0.42-0.123-0.601-0.229c-0.18-0.107-0.326-0.248-0.439-0.42
			c-0.113-0.174-0.17-0.387-0.17-0.641C9.468,41.518,9.574,41.268,9.787,41.154z M14.268,40.904c0.066,0.039,0.14,0.074,0.22,0.1
			c0.08,0.027,0.16,0.047,0.24,0.061s0.14,0.02,0.18,0.02c0.4,0,0.817-0.016,1.25-0.051c0.434-0.031,0.837-0.123,1.21-0.27
			c0.467-0.186,0.837-0.496,1.11-0.93s0.48-0.912,0.62-1.439s0.227-1.064,0.26-1.611c0.033-0.545,0.05-1.031,0.05-1.459
			c0-0.854-0.087-1.57-0.26-2.15s-0.45-1.043-0.83-1.391c-0.38-0.346-0.866-0.596-1.46-0.75c-0.594-0.152-1.316-0.229-2.17-0.229
			c-0.054,0-0.174,0.006-0.36,0.02l-0.1,0.16v3.119l-0.02,0.4l-0.04,6.26C14.168,40.818,14.201,40.863,14.268,40.904z"/>
		<path d="M23.577,36.904c0.073-0.494,0.197-0.963,0.37-1.41c0.174-0.447,0.403-0.859,0.69-1.24c0.286-0.379,0.649-0.689,1.09-0.93
			c0.04-0.027,0.113-0.066,0.22-0.119c0.106-0.055,0.221-0.111,0.34-0.172c0.12-0.059,0.23-0.111,0.33-0.158
			c0.101-0.047,0.17-0.078,0.21-0.092c0.147-0.066,0.297-0.096,0.45-0.09c0.153,0.008,0.304,0.012,0.45,0.012
			c0.854,0,1.573,0.203,2.16,0.609s1.133,0.93,1.64,1.57c0.054,0.08,0.123,0.229,0.21,0.449s0.167,0.461,0.24,0.721
			s0.137,0.514,0.19,0.76c0.053,0.246,0.08,0.43,0.08,0.549c0,0.027-0.004,0.084-0.011,0.17c-0.007,0.088-0.01,0.145-0.01,0.172
			c-0.12,0.199-0.28,0.332-0.479,0.398c-0.2,0.068-0.407,0.121-0.62,0.16c-0.147,0-0.41-0.002-0.79-0.01
			c-0.38-0.006-0.784-0.01-1.21-0.01c-0.414,0-0.811,0.004-1.19,0.01c-0.38,0.008-0.644,0.01-0.79,0.01s-0.323,0.004-0.53,0.01
			c-0.206,0.008-0.409,0.014-0.609,0.021c-0.2,0.006-0.447,0.023-0.74,0.051l-0.08,0.059c0,0.014-0.003,0.061-0.01,0.143
			c-0.007,0.08-0.01,0.133-0.01,0.16c0,0.389,0.069,0.758,0.21,1.107c0.14,0.348,0.333,0.652,0.58,0.914
			c0.246,0.262,0.536,0.471,0.869,0.625c0.334,0.154,0.7,0.23,1.101,0.23c0.04,0,0.13-0.004,0.27-0.01
			c0.141-0.006,0.23-0.01,0.271-0.01c0.187-0.146,0.399-0.25,0.64-0.311s0.446-0.162,0.62-0.311c0.133-0.119,0.257-0.266,0.37-0.439
			s0.233-0.34,0.36-0.5c0.126-0.16,0.263-0.293,0.409-0.4c0.146-0.105,0.327-0.16,0.54-0.16c0.2,0,0.363,0.061,0.49,0.182
			c0.127,0.119,0.19,0.273,0.19,0.459c0,0.307-0.067,0.584-0.2,0.83c-0.134,0.246-0.28,0.49-0.44,0.729
			c-0.399,0.58-0.927,0.996-1.58,1.246s-1.326,0.375-2.02,0.375c-0.68,0-1.294-0.133-1.84-0.4c-0.547-0.266-1.007-0.625-1.38-1.08
			c-0.374-0.453-0.66-0.977-0.86-1.568c-0.2-0.594-0.3-1.217-0.3-1.871C23.468,37.877,23.504,37.398,23.577,36.904z M25.348,36.625
			c0,0.039,0.026,0.059,0.08,0.059h4.62c0.026,0,0.063-0.016,0.109-0.049s0.083-0.064,0.11-0.09c0.013-0.027,0.02-0.074,0.02-0.141
			s0-0.113,0-0.141c0-0.32-0.079-0.59-0.239-0.809c-0.16-0.221-0.36-0.395-0.601-0.521c-0.239-0.127-0.503-0.219-0.79-0.279
			c-0.286-0.061-0.557-0.09-0.81-0.09c-0.28,0-0.567,0.037-0.86,0.109c-0.293,0.074-0.56,0.189-0.8,0.35s-0.439,0.363-0.6,0.611
			c-0.16,0.246-0.24,0.537-0.24,0.869C25.348,36.531,25.348,36.57,25.348,36.625z"/>
		<path d="M34.598,45.498c0.02-0.109,0.056-0.215,0.109-0.316s0.117-0.188,0.19-0.256s0.17-0.102,0.29-0.102h1.58l0.14-0.199
			c0.013-0.506,0.047-0.994,0.1-1.465c0.054-0.473,0.08-0.955,0.08-1.445c0-0.188-0.017-0.359-0.05-0.52
			c-0.033-0.158-0.05-0.324-0.05-0.498v-0.119c0.013-0.027,0.03-0.107,0.05-0.24c0.021-0.133,0.03-0.211,0.03-0.238v-0.041
			c0-0.119-0.014-0.234-0.04-0.348c-0.027-0.113-0.04-0.23-0.04-0.35c0-0.213,0.017-0.418,0.05-0.617s0.05-0.412,0.05-0.639
			c0-0.266-0.017-0.525-0.05-0.777s-0.05-0.512-0.05-0.777c0-0.238,0.017-0.471,0.05-0.697s0.05-0.459,0.05-0.699
			c0-0.039-0.003-0.125-0.01-0.258s-0.01-0.219-0.01-0.26c-0.147-0.199-0.351-0.322-0.61-0.369s-0.52-0.086-0.78-0.119
			c-0.26-0.033-0.486-0.09-0.68-0.17c-0.193-0.078-0.29-0.252-0.29-0.518c0-0.199,0.043-0.359,0.13-0.479s0.197-0.213,0.33-0.279
			c0.134-0.066,0.28-0.113,0.44-0.139c0.16-0.027,0.319-0.041,0.479-0.041c0.253,0,0.514,0.004,0.78,0.01
			c0.267,0.008,0.52,0.041,0.76,0.1c0.24,0.061,0.457,0.16,0.65,0.299c0.193,0.141,0.336,0.344,0.43,0.609
			c0.014,0.014,0.026,0.02,0.04,0.02h0.04c0.093,0,0.217-0.063,0.37-0.189s0.27-0.223,0.35-0.289
			c0.014-0.014,0.047-0.049,0.101-0.109c0.053-0.061,0.109-0.119,0.17-0.18c0.06-0.061,0.116-0.117,0.17-0.17
			c0.053-0.053,0.087-0.08,0.1-0.08c0.014-0.012,0.054-0.021,0.12-0.029c0.066-0.006,0.141-0.014,0.22-0.02
			c0.08-0.008,0.157-0.014,0.23-0.02c0.073-0.008,0.116-0.012,0.13-0.012c0.026-0.012,0.093-0.029,0.2-0.049
			c0.106-0.02,0.173-0.029,0.2-0.029c0.013,0,0.083-0.004,0.21-0.01c0.126-0.008,0.223-0.012,0.29-0.012
			c0.626,0,1.183,0.168,1.67,0.5c0.486,0.334,0.893,0.754,1.22,1.262c0.326,0.506,0.576,1.063,0.75,1.67
			c0.173,0.605,0.26,1.176,0.26,1.709c0,0.561-0.036,1.084-0.109,1.57c-0.074,0.486-0.2,0.939-0.38,1.359
			c-0.181,0.42-0.428,0.814-0.74,1.18c-0.313,0.367-0.717,0.711-1.21,1.031c-0.147,0.094-0.277,0.17-0.391,0.23
			c-0.113,0.059-0.223,0.105-0.33,0.139c-0.106,0.033-0.227,0.057-0.359,0.07c-0.134,0.014-0.287,0.02-0.46,0.02
			c-0.188,0-0.34,0.004-0.46,0.01c-0.12,0.008-0.268-0.023-0.44-0.09c-0.133-0.053-0.27-0.129-0.41-0.229
			c-0.14-0.102-0.279-0.203-0.42-0.311c-0.14-0.107-0.283-0.201-0.43-0.279c-0.146-0.08-0.287-0.121-0.42-0.121
			c-0.067,0-0.13,0.02-0.19,0.061c-0.06,0.039-0.09,0.1-0.09,0.18v2.305l0.16,0.195h1.42c0.12,0,0.22,0.037,0.3,0.111
			c0.08,0.076,0.144,0.168,0.19,0.277c0.047,0.107,0.08,0.219,0.1,0.336c0.021,0.115,0.03,0.221,0.03,0.316
			c0,0.258-0.09,0.488-0.271,0.693c-0.18,0.203-0.403,0.305-0.67,0.305h-4c-0.146,0-0.3-0.023-0.46-0.07
			c-0.159-0.049-0.31-0.119-0.449-0.215c-0.141-0.096-0.257-0.207-0.351-0.336s-0.14-0.275-0.14-0.439
			C34.567,45.707,34.577,45.605,34.598,45.498z M39.197,39.613c0.14,0.314,0.32,0.592,0.54,0.83c0.22,0.24,0.473,0.434,0.76,0.58
			c0.287,0.148,0.623,0.221,1.01,0.221c0.294,0,0.577-0.072,0.851-0.221c0.272-0.146,0.513-0.336,0.72-0.568
			c0.207-0.234,0.373-0.498,0.5-0.791s0.203-0.58,0.23-0.859v-0.861c0-0.359-0.011-0.676-0.03-0.949
			c-0.021-0.273-0.063-0.529-0.13-0.77c-0.067-0.24-0.167-0.477-0.3-0.711c-0.134-0.232-0.32-0.496-0.561-0.789
			c-0.08-0.107-0.189-0.236-0.33-0.391c-0.14-0.152-0.29-0.23-0.45-0.23h-1.42c-0.16,0.148-0.29,0.271-0.39,0.371
			s-0.2,0.203-0.3,0.309c-0.101,0.107-0.184,0.195-0.25,0.262c-0.36,0.398-0.58,0.816-0.66,1.25s-0.12,0.916-0.12,1.449v0.9
			C38.947,38.979,39.058,39.301,39.197,39.613z"/>
		<path d="M50.807,37.734c-0.026-0.506,0.04-0.979,0.2-1.418v-2.215h-2.52c-0.188,0-0.337-0.094-0.45-0.279
			c-0.113-0.188-0.17-0.359-0.17-0.52c0-0.24,0.076-0.439,0.229-0.6s0.311-0.313,0.471-0.459c0.159-0.133,0.35-0.207,0.569-0.221
			c0.221-0.014,0.443-0.021,0.67-0.021c0.24,0,0.464-0.023,0.67-0.07c0.207-0.047,0.384-0.178,0.53-0.391
			c0.133-0.201,0.2-0.469,0.2-0.805s0.01-0.668,0.03-0.996c0.02-0.328,0.09-0.609,0.21-0.844s0.373-0.352,0.76-0.352
			s0.623,0.117,0.71,0.352s0.13,0.512,0.13,0.834c0,0.309-0.017,0.609-0.05,0.904c-0.033,0.297-0.05,0.604-0.05,0.926
			c0,0.08,0,0.201,0,0.361c0,0.162,0.006,0.248,0.02,0.262l0.141,0.141c0.013,0.014,0.106,0.02,0.279,0.02c0.187,0,0.333,0,0.44,0
			c0.28,0,0.55-0.016,0.81-0.049c0.261-0.033,0.523-0.051,0.79-0.051c0.307,0,0.561,0.119,0.76,0.359
			c0.2,0.24,0.301,0.5,0.301,0.781c0,0.266-0.084,0.496-0.25,0.689c-0.167,0.193-0.384,0.289-0.65,0.289
			c-0.333,0-0.644-0.043-0.93-0.129c-0.287-0.086-0.624-0.131-1.01-0.131c-0.08,0-0.197,0.004-0.351,0.01
			c-0.153,0.008-0.236,0.018-0.25,0.031l-0.24,0.219v5.545c0,0.105,0.037,0.227,0.11,0.359s0.167,0.258,0.28,0.377
			c0.113,0.121,0.236,0.225,0.37,0.311c0.133,0.086,0.26,0.129,0.38,0.129c0.319,0,0.573-0.076,0.76-0.23
			c0.187-0.152,0.33-0.342,0.43-0.57c0.101-0.227,0.181-0.469,0.24-0.729s0.123-0.504,0.19-0.73c0.066-0.227,0.159-0.416,0.279-0.57
			c0.12-0.152,0.293-0.23,0.521-0.23c0.333,0,0.566,0.121,0.7,0.361c0.133,0.24,0.199,0.5,0.199,0.779
			c0,0.453-0.066,0.914-0.199,1.381c-0.134,0.467-0.33,0.889-0.591,1.27c-0.26,0.379-0.583,0.693-0.97,0.939
			c-0.387,0.248-0.833,0.371-1.34,0.371c-0.2,0-0.354-0.008-0.46-0.021c-0.106-0.012-0.203-0.035-0.29-0.068s-0.174-0.08-0.26-0.141
			c-0.087-0.061-0.204-0.143-0.351-0.25c-0.013,0-0.053-0.016-0.12-0.049c-0.066-0.033-0.133-0.066-0.199-0.1
			c-0.067-0.033-0.134-0.064-0.2-0.09c-0.067-0.027-0.107-0.047-0.12-0.061c-0.547-0.426-0.903-0.893-1.07-1.398
			c-0.167-0.504-0.25-1.09-0.25-1.756C50.847,38.727,50.834,38.24,50.807,37.734z"/>
		<path d="M59.728,41.654c0.08-0.193,0.253-0.291,0.52-0.291c0.16,0,0.297,0.031,0.41,0.092c0.113,0.059,0.25,0.09,0.41,0.09
			c0.04,0,0.126-0.008,0.26-0.021c0.053-0.025,0.127-0.08,0.22-0.16c0.094-0.08,0.141-0.133,0.141-0.158v-4.381l0.12-0.381v-2.58
			c-0.014-0.025-0.03-0.092-0.051-0.199c-0.02-0.107-0.029-0.174-0.029-0.199c0-0.08-0.007-0.213-0.021-0.4s-0.023-0.391-0.03-0.609
			c-0.007-0.221-0.013-0.428-0.02-0.621s-0.01-0.33-0.01-0.41c-0.027-0.053-0.067-0.117-0.12-0.189
			c-0.054-0.074-0.12-0.109-0.2-0.109h-1.1c-0.08,0-0.15-0.045-0.21-0.131c-0.061-0.086-0.117-0.189-0.17-0.311
			c-0.054-0.119-0.094-0.24-0.12-0.359c-0.027-0.119-0.04-0.207-0.04-0.26c0-0.254,0.066-0.443,0.2-0.57
			c0.133-0.127,0.293-0.211,0.479-0.25s0.387-0.061,0.6-0.061c0.227,0,0.427-0.006,0.601-0.02c0.026,0,0.09-0.014,0.189-0.039
			c0.101-0.027,0.163-0.041,0.19-0.041h0.12c0.333,0,0.64,0.104,0.92,0.311s0.42,0.496,0.42,0.869v4.34
			c0.026,0,0.07,0.008,0.13,0.021c0.061,0.012,0.104,0.02,0.13,0.02c0.106-0.027,0.197-0.121,0.271-0.281
			c0.073-0.158,0.143-0.279,0.21-0.359c0.347-0.4,0.75-0.721,1.21-0.959c0.46-0.24,0.956-0.361,1.49-0.361
			c0.413,0,0.79,0.074,1.13,0.221s0.623,0.35,0.85,0.609s0.403,0.566,0.53,0.92c0.126,0.354,0.189,0.738,0.189,1.15v5.4l0.24,0.221
			c0.173,0.012,0.351,0.033,0.53,0.059c0.18,0.027,0.34,0.08,0.479,0.16c0.141,0.08,0.254,0.188,0.341,0.32
			c0.086,0.133,0.13,0.307,0.13,0.52c0,0.348-0.134,0.598-0.4,0.75c-0.267,0.154-0.56,0.23-0.88,0.23
			c-0.107,0-0.214-0.014-0.32-0.039c-0.106-0.027-0.213-0.041-0.319-0.041c-0.24,0-0.474,0.018-0.7,0.051
			c-0.228,0.033-0.46,0.049-0.7,0.049c-0.067,0-0.203-0.002-0.41-0.01c-0.207-0.006-0.344-0.01-0.41-0.01
			c-0.12-0.027-0.247-0.053-0.38-0.08s-0.257-0.07-0.37-0.131c-0.113-0.059-0.203-0.135-0.27-0.229
			c-0.067-0.094-0.101-0.221-0.101-0.381c0-0.266,0.037-0.449,0.11-0.549c0.073-0.102,0.224-0.244,0.45-0.432
			c0.093-0.066,0.189-0.113,0.29-0.139c0.1-0.027,0.203-0.047,0.31-0.061s0.21-0.029,0.311-0.051c0.1-0.02,0.189-0.063,0.27-0.129
			c0-0.107,0.007-0.297,0.021-0.57c0.013-0.273,0.022-0.566,0.029-0.881c0.007-0.313,0.014-0.605,0.021-0.879s0.01-0.463,0.01-0.57
			v-1.279c0-0.227,0.01-0.477,0.03-0.75c0.02-0.273,0.007-0.527-0.04-0.76c-0.047-0.234-0.141-0.432-0.28-0.592
			c-0.14-0.158-0.37-0.238-0.689-0.238c-0.428,0-0.817,0.109-1.171,0.33c-0.353,0.219-0.663,0.496-0.93,0.83
			c-0.267,0.332-0.497,0.695-0.689,1.09c-0.193,0.393-0.344,0.77-0.45,1.129c0,0.014-0.007,0.047-0.021,0.1
			c-0.013,0.055-0.023,0.111-0.029,0.17c-0.007,0.061-0.014,0.117-0.021,0.17c-0.007,0.055-0.01,0.088-0.01,0.102
			c-0.014,0.025-0.03,0.092-0.05,0.199c-0.021,0.107-0.03,0.174-0.03,0.199v1.961c0,0.188,0.09,0.303,0.27,0.35
			c0.181,0.047,0.377,0.094,0.591,0.141c0.213,0.047,0.409,0.137,0.59,0.27c0.18,0.133,0.27,0.387,0.27,0.76v0.361
			c-0.187,0.252-0.399,0.408-0.64,0.469s-0.507,0.09-0.8,0.09c-0.24,0-0.471-0.016-0.69-0.049s-0.443-0.051-0.67-0.051
			c-0.267,0-0.52,0.041-0.76,0.119c-0.24,0.08-0.493,0.121-0.76,0.121c-0.308,0-0.591-0.107-0.851-0.32s-0.39-0.48-0.39-0.801
			C59.607,42.057,59.647,41.848,59.728,41.654z"/>
		<path d="M73.627,41.715c0.014-0.127,0.043-0.248,0.09-0.361s0.11-0.209,0.19-0.289s0.187-0.121,0.32-0.121h2.04l0.159-0.18v-5.639
			c0.014-0.574,0.044-1.121,0.091-1.641c0.046-0.52,0.069-1.061,0.069-1.621v-0.658c-0.026-0.068-0.063-0.148-0.109-0.24
			c-0.047-0.094-0.117-0.146-0.21-0.16h-0.46c-0.188,0-0.364,0.014-0.53,0.039c-0.167,0.027-0.344,0.041-0.53,0.041
			c-0.333,0-0.583-0.102-0.75-0.301s-0.25-0.453-0.25-0.76c0-0.094,0.014-0.203,0.04-0.33s0.07-0.24,0.13-0.34
			c0.061-0.1,0.134-0.188,0.221-0.26c0.086-0.074,0.196-0.111,0.329-0.111c0.04,0,0.101-0.002,0.181-0.01
			c0.08-0.006,0.166-0.01,0.26-0.01c0.093,0,0.18,0,0.26,0s0.134,0,0.16,0c0.267,0,0.514,0.018,0.74,0.051s0.467,0.049,0.72,0.049
			c0.106,0,0.196-0.006,0.271-0.02c0.072-0.014,0.176-0.033,0.31-0.061h3.36c0.013,0,0.066,0.012,0.16,0.031
			c0.093,0.02,0.196,0.039,0.31,0.061c0.113,0.02,0.229,0.043,0.35,0.068c0.12,0.027,0.214,0.047,0.28,0.061
			c0.293,0.066,0.573,0.168,0.84,0.301s0.514,0.293,0.74,0.479c0.12,0.107,0.257,0.277,0.41,0.512
			c0.153,0.232,0.297,0.488,0.43,0.77c0.133,0.279,0.247,0.549,0.34,0.811c0.094,0.26,0.141,0.455,0.141,0.59v1.639
			c0,0.334-0.113,0.703-0.34,1.111c-0.228,0.406-0.508,0.789-0.841,1.148c-0.333,0.361-0.696,0.66-1.09,0.9s-0.757,0.361-1.09,0.361
			h-2.9l-0.079,0.08c-0.027,0.158-0.051,0.328-0.07,0.51c-0.021,0.18-0.05,0.35-0.09,0.51v1.959l0.08,0.16
			c0.013,0.014,0.04,0.047,0.08,0.1h2.039c0.134,0,0.247,0.041,0.341,0.121c0.093,0.08,0.173,0.174,0.239,0.279
			c0.067,0.107,0.117,0.227,0.15,0.361c0.033,0.133,0.05,0.246,0.05,0.34v0.359c-0.133,0.188-0.31,0.34-0.53,0.459
			c-0.22,0.121-0.443,0.182-0.67,0.182c-0.213,0-0.399-0.014-0.56-0.041c-0.16-0.025-0.36-0.072-0.6-0.141h-2.421
			c-0.227,0.121-0.47,0.217-0.729,0.291s-0.523,0.109-0.79,0.109c-0.36,0-0.667-0.109-0.92-0.33c-0.254-0.219-0.38-0.516-0.38-0.889
			C73.607,41.951,73.614,41.842,73.627,41.715z M78.467,35.744c0.027,0,0.131,0.004,0.311,0.01c0.18,0.008,0.316,0.01,0.41,0.01
			c0.479,0,0.95-0.025,1.41-0.08c0.46-0.053,0.866-0.17,1.22-0.35c0.353-0.18,0.64-0.443,0.859-0.789
			c0.221-0.348,0.33-0.82,0.33-1.42c0-0.574-0.13-1.018-0.39-1.33c-0.26-0.314-0.59-0.543-0.99-0.691
			c-0.399-0.146-0.837-0.232-1.31-0.26c-0.474-0.025-0.924-0.039-1.351-0.039h-0.659l-0.08,0.08c0,0.025-0.004,0.117-0.011,0.27
			s-0.01,0.264-0.01,0.33c0,0.146-0.003,0.354-0.01,0.619c-0.007,0.268,0.043,0.488,0.15,0.66v2.9L78.467,35.744z"/>
		<path d="M87.176,36.904c0.073-0.494,0.197-0.963,0.37-1.41c0.174-0.447,0.403-0.859,0.69-1.24c0.286-0.379,0.649-0.689,1.09-0.93
			c0.04-0.027,0.113-0.066,0.22-0.119c0.106-0.055,0.221-0.111,0.34-0.172c0.12-0.059,0.23-0.111,0.33-0.158
			c0.101-0.047,0.17-0.078,0.21-0.092c0.147-0.066,0.297-0.096,0.45-0.09c0.153,0.008,0.304,0.012,0.45,0.012
			c0.854,0,1.573,0.203,2.16,0.609s1.133,0.93,1.64,1.57c0.054,0.08,0.123,0.229,0.21,0.449s0.167,0.461,0.24,0.721
			s0.137,0.514,0.19,0.76c0.053,0.246,0.08,0.43,0.08,0.549c0,0.027-0.004,0.084-0.011,0.17c-0.007,0.088-0.01,0.145-0.01,0.172
			c-0.12,0.199-0.28,0.332-0.479,0.398c-0.2,0.068-0.407,0.121-0.62,0.16c-0.147,0-0.41-0.002-0.79-0.01
			c-0.38-0.006-0.784-0.01-1.21-0.01c-0.414,0-0.811,0.004-1.19,0.01c-0.38,0.008-0.644,0.01-0.79,0.01s-0.323,0.004-0.53,0.01
			c-0.206,0.008-0.409,0.014-0.609,0.021c-0.2,0.006-0.447,0.023-0.74,0.051l-0.08,0.059c0,0.014-0.003,0.061-0.01,0.143
			c-0.007,0.08-0.01,0.133-0.01,0.16c0,0.389,0.069,0.758,0.21,1.107c0.14,0.348,0.333,0.652,0.58,0.914
			c0.246,0.262,0.536,0.471,0.869,0.625c0.334,0.154,0.7,0.23,1.101,0.23c0.04,0,0.13-0.004,0.27-0.01
			c0.141-0.006,0.23-0.01,0.271-0.01c0.187-0.146,0.399-0.25,0.64-0.311s0.446-0.162,0.62-0.311c0.133-0.119,0.257-0.266,0.37-0.439
			s0.233-0.34,0.36-0.5c0.126-0.16,0.263-0.293,0.409-0.4c0.146-0.105,0.327-0.16,0.54-0.16c0.2,0,0.363,0.061,0.49,0.182
			c0.127,0.119,0.19,0.273,0.19,0.459c0,0.307-0.067,0.584-0.2,0.83c-0.134,0.246-0.28,0.49-0.44,0.729
			c-0.399,0.58-0.927,0.996-1.58,1.246s-1.326,0.375-2.02,0.375c-0.68,0-1.294-0.133-1.84-0.4c-0.547-0.266-1.007-0.625-1.38-1.08
			c-0.374-0.453-0.66-0.977-0.86-1.568c-0.2-0.594-0.3-1.217-0.3-1.871C87.066,37.877,87.103,37.398,87.176,36.904z M88.946,36.625
			c0,0.039,0.026,0.059,0.08,0.059h4.62c0.026,0,0.063-0.016,0.109-0.049s0.083-0.064,0.11-0.09c0.013-0.027,0.02-0.074,0.02-0.141
			s0-0.113,0-0.141c0-0.32-0.079-0.59-0.239-0.809c-0.16-0.221-0.36-0.395-0.601-0.521c-0.239-0.127-0.503-0.219-0.79-0.279
			c-0.286-0.061-0.557-0.09-0.81-0.09c-0.28,0-0.567,0.037-0.86,0.109c-0.293,0.074-0.56,0.189-0.8,0.35s-0.439,0.363-0.6,0.611
			c-0.16,0.246-0.24,0.537-0.24,0.869C88.946,36.531,88.946,36.57,88.946,36.625z"/>
		<path d="M98.617,41.404c0.206-0.174,0.463-0.26,0.77-0.26c0.187,0,0.37,0.016,0.55,0.049c0.181,0.035,0.37,0.051,0.57,0.051
			c0.053,0,0.13-0.004,0.229-0.01c0.101-0.006,0.157-0.01,0.171-0.01l0.079-0.08c0-0.053,0.004-0.141,0.011-0.26
			c0.006-0.121,0.013-0.25,0.02-0.391s0.017-0.273,0.03-0.4c0.013-0.127,0.02-0.217,0.02-0.27c0-0.027,0.011-0.094,0.03-0.199
			c0.021-0.107,0.037-0.174,0.05-0.201l-0.04-1.959v-0.381l-0.12-2.359l-0.159-0.16c-0.067,0-0.181-0.004-0.341-0.01
			c-0.159-0.008-0.333-0.014-0.52-0.021c-0.187-0.006-0.36-0.016-0.52-0.029c-0.16-0.014-0.273-0.02-0.341-0.02
			c-0.267-0.027-0.489-0.131-0.67-0.311c-0.18-0.18-0.27-0.402-0.27-0.67c0-0.266,0.08-0.496,0.24-0.689
			c0.159-0.193,0.38-0.291,0.659-0.291c0.014,0,0.033,0,0.061,0c0.04,0,0.06,0.008,0.06,0.021c0.214,0.025,0.477,0.029,0.79,0.01
			c0.313-0.021,0.63-0.023,0.95-0.01c0.32,0.012,0.62,0.057,0.9,0.129c0.279,0.074,0.493,0.211,0.64,0.41
			c0.026,0.027,0.053,0.084,0.08,0.17c0.026,0.088,0.057,0.178,0.09,0.27c0.033,0.094,0.073,0.174,0.12,0.24s0.097,0.1,0.15,0.1
			h0.04c0.413-0.332,0.856-0.639,1.329-0.92c0.474-0.279,0.983-0.42,1.53-0.42c0.333,0,0.656,0.057,0.97,0.17
			s0.584,0.271,0.811,0.471s0.41,0.443,0.55,0.73s0.21,0.604,0.21,0.949c0,0.494-0.117,0.914-0.35,1.26
			c-0.233,0.348-0.63,0.521-1.19,0.521c-0.267,0-0.479-0.084-0.64-0.25c-0.16-0.168-0.287-0.371-0.38-0.611
			c-0.094-0.24-0.157-0.49-0.19-0.75s-0.057-0.482-0.07-0.67c-0.013-0.066-0.053-0.1-0.119-0.1c-0.067,0-0.114,0-0.141,0
			c-0.066,0-0.13,0.004-0.189,0.01c-0.061,0.008-0.117,0.037-0.17,0.09c-0.054,0.041-0.141,0.121-0.261,0.24
			c-0.12,0.121-0.246,0.246-0.38,0.381c-0.133,0.133-0.26,0.26-0.38,0.379c-0.12,0.121-0.2,0.201-0.24,0.24
			c-0.053,0.053-0.13,0.145-0.229,0.27c-0.101,0.127-0.197,0.264-0.29,0.41c-0.094,0.146-0.174,0.291-0.24,0.43
			c-0.066,0.141-0.1,0.244-0.1,0.311v2.26c0.013,0.027,0.029,0.094,0.05,0.201c0.02,0.105,0.03,0.172,0.03,0.199
			c0,0.041,0.006,0.119,0.02,0.24c0.014,0.119,0.023,0.246,0.03,0.379c0.007,0.135,0.013,0.262,0.02,0.381s0.011,0.207,0.011,0.26
			c0.053,0.146,0.133,0.234,0.239,0.26c0.106,0.027,0.233,0.041,0.38,0.041s0.297-0.014,0.45-0.041
			c0.153-0.025,0.304-0.039,0.45-0.039c0.307,0,0.587,0.084,0.84,0.25s0.38,0.41,0.38,0.73c0,0.266-0.06,0.477-0.18,0.629
			c-0.12,0.154-0.277,0.268-0.47,0.34c-0.193,0.074-0.403,0.121-0.63,0.141c-0.228,0.02-0.44,0.029-0.641,0.029
			c-0.227,0-0.45-0.012-0.67-0.039s-0.443-0.041-0.67-0.041c-0.106,0-0.197,0.004-0.27,0.01c-0.074,0.008-0.178,0.031-0.311,0.07
			h-2.28c-0.319,0-0.609-0.105-0.869-0.32c-0.261-0.213-0.391-0.486-0.391-0.818C98.307,41.818,98.41,41.578,98.617,41.404z"/>
		<path d="M110.937,36.055c0.18-0.688,0.453-1.307,0.819-1.861c0.367-0.553,0.827-1.006,1.381-1.359
			c0.553-0.354,1.203-0.529,1.949-0.529c0.067,0,0.153,0,0.261,0c0.12,0,0.187,0.006,0.199,0.02c0.054,0,0.157,0.018,0.311,0.051
			s0.313,0.068,0.479,0.109c0.167,0.039,0.323,0.084,0.471,0.129c0.146,0.047,0.246,0.078,0.3,0.092
			c0.213,0.186,0.437,0.379,0.67,0.578c0.233,0.201,0.446,0.418,0.64,0.65c0.193,0.234,0.351,0.488,0.471,0.76
			c0.119,0.273,0.18,0.564,0.18,0.871c0,0.199-0.03,0.402-0.09,0.609c-0.061,0.207-0.147,0.391-0.26,0.551
			c-0.114,0.16-0.254,0.289-0.421,0.389c-0.166,0.102-0.363,0.15-0.59,0.15c-0.413,0-0.76-0.146-1.04-0.439
			c-0.279-0.293-0.42-0.641-0.42-1.041c0-0.172,0.026-0.328,0.08-0.469s0.08-0.303,0.08-0.49v-0.32
			c-0.014-0.014-0.066-0.066-0.16-0.16c-0.093-0.092-0.173-0.139-0.24-0.139h-1.319c-0.027,0-0.097,0.016-0.21,0.049
			s-0.204,0.064-0.271,0.09c-0.359,0.16-0.656,0.357-0.89,0.59c-0.233,0.234-0.417,0.498-0.55,0.791
			c-0.134,0.293-0.228,0.613-0.28,0.959c-0.054,0.348-0.08,0.707-0.08,1.08c0,0.334,0.033,0.703,0.1,1.111
			c0.067,0.406,0.193,0.75,0.381,1.029c0.04,0.039,0.106,0.109,0.199,0.209c0.094,0.102,0.193,0.205,0.301,0.311
			c0.106,0.107,0.21,0.207,0.31,0.301s0.17,0.16,0.21,0.199c0.04,0.041,0.106,0.09,0.2,0.15c0.093,0.061,0.153,0.09,0.18,0.09h1.72
			c0.214,0,0.4-0.057,0.561-0.17s0.303-0.254,0.43-0.42s0.24-0.35,0.34-0.551c0.101-0.199,0.203-0.383,0.311-0.549
			c0.106-0.168,0.22-0.307,0.34-0.42s0.26-0.17,0.42-0.17c0.24,0,0.413,0.09,0.521,0.27c0.106,0.18,0.159,0.383,0.159,0.609
			c0,0.467-0.116,0.908-0.35,1.32c-0.233,0.414-0.533,0.777-0.9,1.09c-0.366,0.314-0.776,0.564-1.229,0.75
			c-0.453,0.188-0.9,0.281-1.34,0.281c-0.653,0-1.261-0.154-1.82-0.461s-1.047-0.703-1.46-1.189s-0.737-1.037-0.97-1.65
			c-0.233-0.613-0.351-1.227-0.351-1.84C110.666,37.41,110.756,36.74,110.937,36.055z"/>
		<path d="M121.516,36.904c0.073-0.494,0.197-0.963,0.37-1.41c0.174-0.447,0.403-0.859,0.69-1.24c0.286-0.379,0.649-0.689,1.09-0.93
			c0.04-0.027,0.113-0.066,0.22-0.119c0.106-0.055,0.221-0.111,0.34-0.172c0.12-0.059,0.23-0.111,0.33-0.158
			c0.101-0.047,0.17-0.078,0.21-0.092c0.147-0.066,0.297-0.096,0.45-0.09c0.153,0.008,0.304,0.012,0.45,0.012
			c0.854,0,1.573,0.203,2.16,0.609s1.133,0.93,1.64,1.57c0.054,0.08,0.123,0.229,0.21,0.449s0.167,0.461,0.24,0.721
			s0.137,0.514,0.19,0.76c0.053,0.246,0.08,0.43,0.08,0.549c0,0.027-0.004,0.084-0.011,0.17c-0.007,0.088-0.01,0.145-0.01,0.172
			c-0.12,0.199-0.28,0.332-0.479,0.398c-0.2,0.068-0.407,0.121-0.62,0.16c-0.147,0-0.41-0.002-0.79-0.01
			c-0.38-0.006-0.784-0.01-1.21-0.01c-0.414,0-0.811,0.004-1.19,0.01c-0.38,0.008-0.644,0.01-0.79,0.01s-0.323,0.004-0.53,0.01
			c-0.206,0.008-0.409,0.014-0.609,0.021c-0.2,0.006-0.447,0.023-0.74,0.051l-0.08,0.059c0,0.014-0.003,0.061-0.01,0.143
			c-0.007,0.08-0.01,0.133-0.01,0.16c0,0.389,0.069,0.758,0.21,1.107c0.14,0.348,0.333,0.652,0.58,0.914
			c0.246,0.262,0.536,0.471,0.869,0.625c0.334,0.154,0.7,0.23,1.101,0.23c0.04,0,0.13-0.004,0.27-0.01
			c0.141-0.006,0.23-0.01,0.271-0.01c0.187-0.146,0.399-0.25,0.64-0.311s0.446-0.162,0.62-0.311c0.133-0.119,0.257-0.266,0.37-0.439
			s0.233-0.34,0.36-0.5c0.126-0.16,0.263-0.293,0.409-0.4c0.146-0.105,0.327-0.16,0.54-0.16c0.2,0,0.363,0.061,0.49,0.182
			c0.127,0.119,0.19,0.273,0.19,0.459c0,0.307-0.067,0.584-0.2,0.83c-0.134,0.246-0.28,0.49-0.44,0.729
			c-0.399,0.58-0.927,0.996-1.58,1.246s-1.326,0.375-2.02,0.375c-0.68,0-1.294-0.133-1.84-0.4c-0.547-0.266-1.007-0.625-1.38-1.08
			c-0.374-0.453-0.66-0.977-0.86-1.568c-0.2-0.594-0.3-1.217-0.3-1.871C121.406,37.877,121.442,37.398,121.516,36.904z
			 M123.286,36.625c0,0.039,0.026,0.059,0.08,0.059h4.62c0.026,0,0.063-0.016,0.109-0.049s0.083-0.064,0.11-0.09
			c0.013-0.027,0.02-0.074,0.02-0.141s0-0.113,0-0.141c0-0.32-0.079-0.59-0.239-0.809c-0.16-0.221-0.36-0.395-0.601-0.521
			c-0.239-0.127-0.503-0.219-0.79-0.279c-0.286-0.061-0.557-0.09-0.81-0.09c-0.28,0-0.567,0.037-0.86,0.109
			c-0.293,0.074-0.56,0.189-0.8,0.35s-0.439,0.363-0.6,0.611c-0.16,0.246-0.24,0.537-0.24,0.869
			C123.286,36.531,123.286,36.57,123.286,36.625z"/>
		<path d="M132.536,45.498c0.02-0.109,0.056-0.215,0.109-0.316s0.117-0.188,0.19-0.256s0.17-0.102,0.29-0.102h1.58l0.14-0.199
			c0.013-0.506,0.047-0.994,0.1-1.465c0.054-0.473,0.08-0.955,0.08-1.445c0-0.188-0.017-0.359-0.05-0.52
			c-0.033-0.158-0.05-0.324-0.05-0.498v-0.119c0.013-0.027,0.03-0.107,0.05-0.24c0.021-0.133,0.03-0.211,0.03-0.238v-0.041
			c0-0.119-0.014-0.234-0.04-0.348c-0.027-0.113-0.04-0.23-0.04-0.35c0-0.213,0.017-0.418,0.05-0.617s0.05-0.412,0.05-0.639
			c0-0.266-0.017-0.525-0.05-0.777s-0.05-0.512-0.05-0.777c0-0.238,0.017-0.471,0.05-0.697s0.05-0.459,0.05-0.699
			c0-0.039-0.003-0.125-0.01-0.258s-0.01-0.219-0.01-0.26c-0.147-0.199-0.351-0.322-0.61-0.369s-0.52-0.086-0.78-0.119
			c-0.26-0.033-0.486-0.09-0.68-0.17c-0.193-0.078-0.29-0.252-0.29-0.518c0-0.199,0.043-0.359,0.13-0.479s0.197-0.213,0.33-0.279
			c0.134-0.066,0.28-0.113,0.44-0.139c0.16-0.027,0.319-0.041,0.479-0.041c0.253,0,0.514,0.004,0.78,0.01
			c0.267,0.008,0.52,0.041,0.76,0.1c0.24,0.061,0.457,0.16,0.65,0.299c0.193,0.141,0.336,0.344,0.43,0.609
			c0.014,0.014,0.026,0.02,0.04,0.02h0.04c0.093,0,0.217-0.063,0.37-0.189s0.27-0.223,0.35-0.289
			c0.014-0.014,0.047-0.049,0.101-0.109c0.053-0.061,0.109-0.119,0.17-0.18c0.06-0.061,0.116-0.117,0.17-0.17
			c0.053-0.053,0.087-0.08,0.1-0.08c0.014-0.012,0.054-0.021,0.12-0.029c0.066-0.006,0.141-0.014,0.22-0.02
			c0.08-0.008,0.157-0.014,0.23-0.02c0.073-0.008,0.116-0.012,0.13-0.012c0.026-0.012,0.093-0.029,0.2-0.049
			c0.106-0.02,0.173-0.029,0.2-0.029c0.013,0,0.083-0.004,0.21-0.01c0.126-0.008,0.223-0.012,0.29-0.012
			c0.626,0,1.183,0.168,1.67,0.5c0.486,0.334,0.893,0.754,1.22,1.262c0.326,0.506,0.576,1.063,0.75,1.67
			c0.173,0.605,0.26,1.176,0.26,1.709c0,0.561-0.036,1.084-0.109,1.57c-0.074,0.486-0.2,0.939-0.38,1.359
			c-0.181,0.42-0.428,0.814-0.74,1.18c-0.313,0.367-0.717,0.711-1.21,1.031c-0.147,0.094-0.277,0.17-0.391,0.23
			c-0.113,0.059-0.223,0.105-0.33,0.139c-0.106,0.033-0.227,0.057-0.359,0.07c-0.134,0.014-0.287,0.02-0.46,0.02
			c-0.188,0-0.34,0.004-0.46,0.01c-0.12,0.008-0.268-0.023-0.44-0.09c-0.133-0.053-0.27-0.129-0.41-0.229
			c-0.14-0.102-0.279-0.203-0.42-0.311c-0.14-0.107-0.283-0.201-0.43-0.279c-0.146-0.08-0.287-0.121-0.42-0.121
			c-0.067,0-0.13,0.02-0.19,0.061c-0.06,0.039-0.09,0.1-0.09,0.18v2.305l0.16,0.195h1.42c0.12,0,0.22,0.037,0.3,0.111
			c0.08,0.076,0.144,0.168,0.19,0.277c0.047,0.107,0.08,0.219,0.1,0.336c0.021,0.115,0.03,0.221,0.03,0.316
			c0,0.258-0.09,0.488-0.271,0.693c-0.18,0.203-0.403,0.305-0.67,0.305h-4c-0.146,0-0.3-0.023-0.46-0.07
			c-0.159-0.049-0.31-0.119-0.449-0.215c-0.141-0.096-0.257-0.207-0.351-0.336s-0.14-0.275-0.14-0.439
			C132.506,45.707,132.516,45.605,132.536,45.498z M137.136,39.613c0.14,0.314,0.32,0.592,0.54,0.83
			c0.22,0.24,0.473,0.434,0.76,0.58c0.287,0.148,0.623,0.221,1.01,0.221c0.294,0,0.577-0.072,0.851-0.221
			c0.272-0.146,0.513-0.336,0.72-0.568c0.207-0.234,0.373-0.498,0.5-0.791s0.203-0.58,0.23-0.859v-0.861
			c0-0.359-0.011-0.676-0.03-0.949c-0.021-0.273-0.063-0.529-0.13-0.77c-0.067-0.24-0.167-0.477-0.3-0.711
			c-0.134-0.232-0.32-0.496-0.561-0.789c-0.08-0.107-0.189-0.236-0.33-0.391c-0.14-0.152-0.29-0.23-0.45-0.23h-1.42
			c-0.16,0.148-0.29,0.271-0.39,0.371s-0.2,0.203-0.3,0.309c-0.101,0.107-0.184,0.195-0.25,0.262c-0.36,0.398-0.58,0.816-0.66,1.25
			s-0.12,0.916-0.12,1.449v0.9C136.886,38.979,136.996,39.301,137.136,39.613z"/>
		<path d="M148.745,37.734c-0.026-0.506,0.04-0.979,0.2-1.418v-2.215h-2.52c-0.188,0-0.337-0.094-0.45-0.279
			c-0.113-0.188-0.17-0.359-0.17-0.52c0-0.24,0.076-0.439,0.229-0.6s0.311-0.313,0.471-0.459c0.159-0.133,0.35-0.207,0.569-0.221
			c0.221-0.014,0.443-0.021,0.67-0.021c0.24,0,0.464-0.023,0.67-0.07c0.207-0.047,0.384-0.178,0.53-0.391
			c0.133-0.201,0.2-0.469,0.2-0.805s0.01-0.668,0.03-0.996c0.02-0.328,0.09-0.609,0.21-0.844s0.373-0.352,0.76-0.352
			s0.623,0.117,0.71,0.352s0.13,0.512,0.13,0.834c0,0.309-0.017,0.609-0.05,0.904c-0.033,0.297-0.05,0.604-0.05,0.926
			c0,0.08,0,0.201,0,0.361c0,0.162,0.006,0.248,0.02,0.262l0.141,0.141c0.013,0.014,0.106,0.02,0.279,0.02c0.187,0,0.333,0,0.44,0
			c0.28,0,0.55-0.016,0.81-0.049c0.261-0.033,0.523-0.051,0.79-0.051c0.307,0,0.561,0.119,0.76,0.359
			c0.2,0.24,0.301,0.5,0.301,0.781c0,0.266-0.084,0.496-0.25,0.689c-0.167,0.193-0.384,0.289-0.65,0.289
			c-0.333,0-0.644-0.043-0.93-0.129c-0.287-0.086-0.624-0.131-1.01-0.131c-0.08,0-0.197,0.004-0.351,0.01
			c-0.153,0.008-0.236,0.018-0.25,0.031l-0.24,0.219v5.545c0,0.105,0.037,0.227,0.11,0.359s0.167,0.258,0.28,0.377
			c0.113,0.121,0.236,0.225,0.37,0.311c0.133,0.086,0.26,0.129,0.38,0.129c0.319,0,0.573-0.076,0.76-0.23
			c0.187-0.152,0.33-0.342,0.43-0.57c0.101-0.227,0.181-0.469,0.24-0.729s0.123-0.504,0.19-0.73c0.066-0.227,0.159-0.416,0.279-0.57
			c0.12-0.152,0.293-0.23,0.521-0.23c0.333,0,0.566,0.121,0.7,0.361c0.133,0.24,0.199,0.5,0.199,0.779
			c0,0.453-0.066,0.914-0.199,1.381c-0.134,0.467-0.33,0.889-0.591,1.27c-0.26,0.379-0.583,0.693-0.97,0.939
			c-0.387,0.248-0.833,0.371-1.34,0.371c-0.2,0-0.354-0.008-0.46-0.021c-0.106-0.012-0.203-0.035-0.29-0.068s-0.174-0.08-0.26-0.141
			c-0.087-0.061-0.204-0.143-0.351-0.25c-0.013,0-0.053-0.016-0.12-0.049c-0.066-0.033-0.133-0.066-0.199-0.1
			c-0.067-0.033-0.134-0.064-0.2-0.09c-0.067-0.027-0.107-0.047-0.12-0.061c-0.547-0.426-0.903-0.893-1.07-1.398
			c-0.167-0.504-0.25-1.09-0.25-1.756C148.785,38.727,148.772,38.24,148.745,37.734z"/>
		<path d="M157.775,41.482c0.153-0.266,0.391-0.398,0.71-0.398h2.2l0.141-0.199c0-0.053,0.003-0.145,0.01-0.277
			c0.006-0.133,0.017-0.271,0.029-0.418c0.014-0.145,0.023-0.285,0.03-0.418c0.007-0.131,0.01-0.225,0.01-0.277
			c0.014-0.025,0.027-0.092,0.04-0.199c0.014-0.105,0.027-0.172,0.04-0.199v-4.391h-2.34c-0.133,0-0.25-0.039-0.35-0.113
			c-0.101-0.074-0.184-0.166-0.25-0.275c-0.067-0.109-0.117-0.229-0.15-0.357s-0.05-0.248-0.05-0.355
			c0-0.219,0.053-0.389,0.16-0.512c0.106-0.121,0.236-0.213,0.39-0.275c0.153-0.061,0.32-0.102,0.5-0.121
			c0.181-0.021,0.344-0.031,0.49-0.031c0.227,0,0.45,0.014,0.67,0.041c0.22,0.025,0.443,0.039,0.67,0.039
			c0.16,0,0.316-0.014,0.47-0.039c0.153-0.027,0.311-0.041,0.471-0.041c0.227,0,0.463,0.074,0.71,0.221
			c0.246,0.146,0.37,0.359,0.37,0.639v7.441l0.119,0.119h2.12c0.12,0,0.23,0.045,0.33,0.133c0.101,0.088,0.187,0.193,0.261,0.316
			c0.072,0.123,0.126,0.252,0.159,0.387c0.033,0.137,0.051,0.252,0.051,0.348c0,0.189-0.051,0.381-0.15,0.57
			c-0.1,0.191-0.264,0.287-0.49,0.287h-6.819c-0.24,0-0.431-0.082-0.57-0.246c-0.141-0.162-0.21-0.359-0.21-0.592
			C157.546,42.016,157.622,41.748,157.775,41.482z M160.586,29.264c0.253-0.266,0.58-0.4,0.979-0.4c0.214,0,0.41,0.051,0.59,0.15
			c0.181,0.1,0.334,0.234,0.46,0.4c0.127,0.166,0.227,0.35,0.301,0.551c0.073,0.199,0.109,0.398,0.109,0.6
			c0,0.4-0.146,0.717-0.439,0.949c-0.294,0.234-0.627,0.35-1,0.35c-0.454,0-0.797-0.158-1.03-0.479s-0.35-0.701-0.35-1.141
			C160.206,29.857,160.332,29.531,160.586,29.264z"/>
		<path d="M168.375,36.023c0.181-0.705,0.464-1.332,0.851-1.879s0.883-0.984,1.489-1.311c0.607-0.326,1.33-0.49,2.171-0.49
			c0.64,0,1.192,0.123,1.659,0.371c0.467,0.246,0.934,0.568,1.4,0.969c0.013,0.014,0.026,0.031,0.04,0.051
			c0.013,0.02,0.026,0.029,0.04,0.029c0.16,0.307,0.323,0.611,0.49,0.91c0.166,0.301,0.319,0.607,0.46,0.92
			c0.14,0.314,0.253,0.635,0.34,0.961c0.086,0.326,0.13,0.662,0.13,1.01c0,0.039-0.004,0.117-0.01,0.23
			c-0.007,0.113-0.011,0.184-0.011,0.209c-0.026,0.08-0.063,0.225-0.109,0.43c-0.047,0.207-0.101,0.428-0.16,0.66
			c-0.06,0.234-0.117,0.457-0.17,0.67c-0.054,0.215-0.087,0.361-0.1,0.441c-0.107,0.359-0.29,0.738-0.551,1.139
			c-0.26,0.4-0.563,0.764-0.91,1.09c-0.347,0.328-0.723,0.598-1.13,0.811c-0.406,0.213-0.81,0.32-1.21,0.32
			c-0.199,0-0.354-0.014-0.46-0.041c-0.106-0.025-0.196-0.059-0.27-0.1c-0.073-0.039-0.15-0.084-0.23-0.129
			c-0.08-0.047-0.193-0.09-0.34-0.131c-0.066-0.014-0.193-0.033-0.38-0.061c-0.187-0.025-0.32-0.053-0.4-0.08
			c-0.066-0.025-0.156-0.068-0.27-0.129s-0.227-0.121-0.34-0.18c-0.113-0.061-0.221-0.113-0.32-0.16s-0.157-0.076-0.17-0.09
			c-0.267-0.174-0.51-0.441-0.73-0.801c-0.22-0.359-0.409-0.746-0.569-1.16c-0.16-0.412-0.283-0.826-0.37-1.24
			c-0.087-0.412-0.13-0.766-0.13-1.059C168.105,37.457,168.195,36.73,168.375,36.023z M169.855,38.664
			c0.02,0.188,0.05,0.373,0.09,0.561c0.04,0.186,0.09,0.363,0.15,0.529c0.06,0.168,0.13,0.291,0.21,0.371l0.939,0.939
			c0.146,0.039,0.264,0.066,0.351,0.08c0.086,0.014,0.176,0.027,0.27,0.039c0.093,0.014,0.173,0.021,0.24,0.021
			c0.013,0.012,0.106,0.02,0.28,0.02c0.187,0,0.326,0,0.42,0c0.267,0,0.496-0.004,0.689-0.01c0.193-0.008,0.41-0.057,0.65-0.15
			c0.573-0.467,0.953-0.971,1.14-1.51c0.187-0.541,0.28-1.164,0.28-1.871c0-0.412-0.044-0.797-0.13-1.15
			c-0.087-0.352-0.204-0.723-0.351-1.109c-0.066-0.172-0.177-0.316-0.33-0.43s-0.319-0.213-0.5-0.301
			c-0.18-0.086-0.366-0.162-0.56-0.229s-0.356-0.141-0.49-0.221h-1.26c-0.014,0-0.1,0.051-0.26,0.15s-0.28,0.176-0.36,0.23
			c-0.32,0.227-0.577,0.473-0.77,0.738c-0.193,0.268-0.348,0.551-0.46,0.852c-0.114,0.299-0.188,0.615-0.221,0.949
			s-0.05,0.688-0.05,1.061C169.825,38.33,169.835,38.479,169.855,38.664z"/>
		<path d="M180.965,41.273c0.267-0.113,0.601-0.182,1-0.209l0.08-0.08c0.027-0.188,0.051-0.404,0.07-0.65s0.05-0.471,0.09-0.67
			v-4.619c0-0.094-0.083-0.164-0.25-0.211s-0.347-0.109-0.54-0.189s-0.373-0.197-0.54-0.35c-0.167-0.154-0.25-0.391-0.25-0.711
			c0-0.346,0.123-0.582,0.37-0.709s0.517-0.191,0.811-0.191c0.04,0,0.1,0,0.18,0c0.093,0,0.14,0.008,0.14,0.021
			c0.387,0.053,0.697,0.119,0.931,0.199c0.232,0.08,0.416,0.189,0.55,0.33c0.133,0.141,0.227,0.322,0.279,0.549
			c0.054,0.229,0.094,0.514,0.12,0.861c0.014,0.014,0.027,0.02,0.04,0.02h0.04c0.08,0,0.157-0.039,0.23-0.119
			s0.149-0.174,0.229-0.281c0.08-0.105,0.16-0.213,0.24-0.32c0.08-0.105,0.16-0.186,0.24-0.238c0.373-0.268,0.77-0.531,1.189-0.791
			s0.87-0.391,1.351-0.391c0.293,0,0.59,0.07,0.89,0.211s0.566,0.322,0.8,0.549c0.233,0.229,0.424,0.488,0.57,0.781
			s0.22,0.594,0.22,0.9v4.939c-0.053,0.146-0.083,0.279-0.09,0.4c-0.007,0.119-0.01,0.252-0.01,0.4c0,0.039,0.007,0.133,0.02,0.279
			l0.08,0.08c0.36,0.066,0.684,0.188,0.971,0.359c0.286,0.174,0.43,0.475,0.43,0.9c0,0.348-0.104,0.576-0.311,0.689
			c-0.206,0.113-0.47,0.17-0.789,0.17h-0.301c-0.106,0-0.293-0.002-0.56-0.01c-0.267-0.006-0.55-0.014-0.851-0.02
			c-0.3-0.006-0.583-0.018-0.85-0.029c-0.267-0.014-0.453-0.021-0.56-0.021c-0.427-0.119-0.641-0.393-0.641-0.82
			c0-0.506,0.144-0.828,0.431-0.969c0.286-0.141,0.643-0.223,1.069-0.25l0.08-0.08l0.181-0.779v-3.041
			c0.013-0.039,0.036-0.119,0.069-0.24c0.033-0.119,0.05-0.199,0.05-0.24v-0.039v-0.041c0-0.025-0.01-0.102-0.029-0.229
			c-0.021-0.127-0.037-0.203-0.051-0.23c0-0.041-0.003-0.113-0.01-0.221c-0.007-0.105-0.014-0.217-0.02-0.33
			c-0.007-0.113-0.014-0.223-0.021-0.33c-0.007-0.105-0.01-0.18-0.01-0.219c-0.12-0.201-0.273-0.316-0.46-0.352
			c-0.187-0.033-0.38-0.049-0.58-0.049c-0.333,0-0.644,0.08-0.93,0.24c-0.287,0.16-0.55,0.359-0.79,0.6s-0.457,0.504-0.65,0.789
			c-0.193,0.287-0.363,0.557-0.51,0.811c-0.014,0.014-0.04,0.051-0.08,0.109c-0.04,0.061-0.066,0.104-0.08,0.131
			c-0.04,0.066-0.134,0.221-0.28,0.459v2.281c-0.066,0.133-0.104,0.246-0.109,0.34c-0.007,0.094-0.01,0.213-0.01,0.359v0.301
			c0.079,0.119,0.21,0.189,0.39,0.209c0.18,0.021,0.366,0.057,0.56,0.111c0.193,0.053,0.36,0.146,0.5,0.279
			c0.141,0.133,0.21,0.373,0.21,0.721c0,0.279-0.104,0.49-0.31,0.629c-0.207,0.141-0.443,0.225-0.71,0.25h-0.82h-0.819
			c-0.027,0-0.094-0.012-0.2-0.039c-0.107-0.027-0.174-0.041-0.2-0.041c-0.227-0.025-0.453-0.043-0.68-0.049
			c-0.228-0.008-0.431-0.037-0.61-0.09c-0.18-0.055-0.323-0.146-0.43-0.281c-0.107-0.133-0.16-0.346-0.16-0.639
			C180.565,41.672,180.698,41.387,180.965,41.273z"/>
	</g>
</g>
<g id="Narcissist">
</g>
<g id="MammaBird">
</g>
<g id="Staringcontest">
</g>
<g id="Cartwheel">
</g>
<g id="Censored">
</g>
<g id="Depersonalization">
</g>
<g id="threeman">
</g>
<g id="_x32__truths_and_a_lie">
</g>
<g id="cray_cray_cat_lady">
</g>
<g id="siblings">
</g>
<g id="later">
</g>
<g id="waterfall">
</g>
<g id="cheers">
</g>
<g id="rhyme">
</g>
<g id="categories">
</g>
<g id="tits">
</g>
<g id="dicks">
</g>
<g id="questions">
</g>
<g id="double_hands">
</g>
<g id="rewind">
</g>
<g id="Cryptkeeper">
</g>
<g id="Take_2_and_Redo">
</g>
<g id="Embryo">
</g>
<g id="I_am_Groot">
</g>
<g id="Mini_Me">
</g>
<g id="Ditto_1_">
</g>
<g id="reverse">
</g>
</svg>
