<?xml version="1.0" encoding="utf-8"?>
<!-- Generator: Adobe Illustrator 16.0.0, SVG Export Plug-In . SVG Version: 6.00 Build 0)  -->
<!DOCTYPE svg PUBLIC "-//W3C//DTD SVG 1.1//EN" "http://www.w3.org/Graphics/SVG/1.1/DTD/svg11.dtd">
<svg version="1.1" xmlns="http://www.w3.org/2000/svg" xmlns:xlink="http://www.w3.org/1999/xlink" x="0px" y="0px"
	 width="209.759px" height="62.361px" viewBox="0 0 209.759 62.361" enable-background="new 0 0 209.759 62.361"
	 xml:space="preserve">
<g id="Layer_1">
</g>
<g id="Blindman">
</g>
<g id="Compliments">
</g>
<g id="HAT">
</g>
<g id="speech">
</g>
<g id="TREX_ARMS">
</g>
<g id="slim_shady">
</g>
<g id="TIMEOUT">
</g>
<g id="Truth_or_Dare">
</g>
<g id="ARM_WRESTLE">
</g>
<g id="musical_chairs">
</g>
<g id="never_have_i_ever">
</g>
<g id="Trivia">
</g>
<g id="Drink_Pulling">
</g>
<g id="Sharing_is_Caring">
</g>
<g id="Not_It">
</g>
<g id="Cocktail_of_Doom">
</g>
<g id="Heads_up">
</g>
<g id="Archenemy">
</g>
<g id="battle_of_the_sexes">
</g>
<g id="one_must_drink">
</g>
<g id="rainbow_connection">
</g>
<g id="social_drinking">
</g>
<g id="Spin_the_bottle">
</g>
<g id="accents">
</g>
<g id="Slap">
</g>
<g id="down_the_hatch">
</g>
<g id="rubiks_cube">
</g>
<g id="bar_tender">
</g>
<g id="codenames">
</g>
<g id="hand_switch">
</g>
<g id="make_a_rule">
</g>
<g id="no_guts_no_glory">
</g>
<g id="pass">
</g>
<g id="santa">
</g>
<g id="snake_eyes">
</g>
<g id="lightning_round">
</g>
<g id="Bro">
</g>
<g id="LeastDrunk">
</g>
<g id="Know_It_All">
</g>
<g id="EyeContact">
</g>
<g id="UnderGuesser">
</g>
<g id="GodSaveTheQUeen">
</g>
<g id="Ghost">
</g>
<g id="Fortune_Teller">
</g>
<g id="DrinkSwap">
</g>
<g id="DickTator">
</g>
<g id="_x34_Eyes">
</g>
<g id="BabyTalk">
</g>
<g id="Backseat_Driver">
</g>
<g id="BAtman">
</g>
<g id="bodyguard">
</g>
<g id="BuckleUp">
</g>
<g id="RockPaperScissors">
</g>
<g id="Roger_Roger">
</g>
<g id="RoyaleWe">
</g>
<g id="Skip">
</g>
<g id="SwineRules">
</g>
<g id="Touchy_Feeley">
</g>
<g id="Wasted_Education">
</g>
<g id="Layer_86">
</g>
<g id="PointOfNoReturn">
</g>
<g id="Pirate">
</g>
<g id="Thief">
</g>
<g id="DepthPerception">
</g>
<g id="Narcissist">
</g>
<g id="MammaBird">
</g>
<g id="Staringcontest">
</g>
<g id="Cartwheel">
</g>
<g id="Censored">
</g>
<g id="Depersonalization">
	<g>
		<path d="M15.887,42.044c0.16-0.086,0.365-0.129,0.615-0.129c0.17,0,0.33,0.014,0.48,0.037c0.149,0.025,0.31,0.039,0.479,0.039
			c0.04,0,0.09,0,0.15,0c0.06,0,0.09-0.006,0.09-0.016l0.12-0.105l-0.03-1.65v-0.299V37.28v-0.285l0.03-2.52
			c0-0.039-0.021-0.061-0.061-0.061c-0.04-0.039-0.08-0.059-0.12-0.059h-1.229c-0.23,0-0.415-0.08-0.555-0.24
			c-0.141-0.16-0.21-0.346-0.21-0.557c0-0.289,0.084-0.494,0.255-0.613c0.17-0.121,0.39-0.182,0.66-0.182
			c0.189,0,0.372,0.012,0.547,0.031s0.362,0.029,0.563,0.029c0.12,0,0.26,0.002,0.42,0.008s0.306-0.018,0.436-0.068h2.055
			c0.29,0.121,0.582,0.209,0.878,0.264c0.295,0.055,0.587,0.143,0.877,0.262c0.35,0.15,0.655,0.383,0.915,0.697
			c0.26,0.316,0.475,0.666,0.646,1.051c0.17,0.385,0.297,0.783,0.382,1.193s0.128,0.785,0.128,1.125c0,0.83-0.08,1.635-0.24,2.414
			s-0.435,1.535-0.825,2.266c-0.029,0.039-0.098,0.111-0.202,0.217c-0.105,0.105-0.178,0.172-0.218,0.203
			c-0.3,0.24-0.582,0.422-0.848,0.547c-0.265,0.125-0.535,0.215-0.81,0.27c-0.275,0.055-0.565,0.086-0.87,0.09
			c-0.305,0.006-0.652,0.014-1.042,0.023c-0.061,0-0.153,0.006-0.278,0.016s-0.25,0.018-0.375,0.021
			c-0.125,0.006-0.237,0.01-0.337,0.016c-0.101,0.004-0.165,0.008-0.195,0.008c-0.021,0-0.075,0.01-0.165,0.029
			s-0.183,0.039-0.277,0.061c-0.095,0.02-0.186,0.039-0.271,0.059c-0.085,0.021-0.137,0.031-0.157,0.031h-0.255
			c-0.16,0-0.322-0.018-0.487-0.053s-0.315-0.092-0.45-0.172s-0.245-0.186-0.33-0.316c-0.085-0.129-0.127-0.289-0.127-0.479
			C15.647,42.315,15.727,42.128,15.887,42.044z M19.247,41.856c0.05,0.029,0.105,0.055,0.165,0.074s0.12,0.035,0.18,0.045
			c0.061,0.01,0.105,0.016,0.136,0.016c0.3,0,0.612-0.014,0.938-0.039c0.324-0.023,0.627-0.092,0.907-0.201
			c0.35-0.141,0.627-0.373,0.832-0.697c0.205-0.326,0.36-0.686,0.465-1.08c0.105-0.396,0.17-0.799,0.195-1.209
			c0.025-0.408,0.038-0.773,0.038-1.094c0-0.641-0.065-1.178-0.195-1.613s-0.338-0.781-0.623-1.043
			c-0.284-0.26-0.649-0.447-1.095-0.563c-0.445-0.113-0.987-0.172-1.627-0.172c-0.04,0-0.131,0.006-0.271,0.016l-0.075,0.119v2.34
			l-0.015,0.301l-0.03,4.695C19.172,41.79,19.197,41.825,19.247,41.856z"/>
		<path d="M26.229,38.856c0.055-0.371,0.147-0.723,0.277-1.059c0.13-0.334,0.303-0.645,0.518-0.93s0.487-0.518,0.817-0.697
			c0.03-0.02,0.085-0.051,0.165-0.09c0.08-0.041,0.165-0.084,0.255-0.129c0.091-0.045,0.173-0.084,0.248-0.119
			s0.127-0.057,0.157-0.068c0.11-0.049,0.223-0.072,0.338-0.066c0.114,0.006,0.227,0.008,0.337,0.008c0.64,0,1.18,0.152,1.62,0.457
			s0.85,0.697,1.23,1.178c0.039,0.061,0.092,0.172,0.157,0.338c0.064,0.164,0.125,0.344,0.18,0.539s0.103,0.385,0.143,0.57
			s0.061,0.322,0.061,0.412c0,0.02-0.003,0.063-0.008,0.127c-0.005,0.066-0.008,0.109-0.008,0.129c-0.09,0.15-0.21,0.25-0.359,0.299
			c-0.15,0.051-0.306,0.09-0.466,0.121c-0.109,0-0.307-0.002-0.592-0.008s-0.588-0.008-0.908-0.008c-0.31,0-0.607,0.002-0.892,0.008
			c-0.285,0.006-0.483,0.008-0.593,0.008c-0.11,0-0.243,0.002-0.397,0.008c-0.155,0.004-0.308,0.01-0.458,0.014
			c-0.149,0.006-0.335,0.018-0.555,0.039l-0.06,0.045c0,0.01-0.003,0.045-0.008,0.105s-0.008,0.1-0.008,0.121
			c0,0.291,0.053,0.568,0.157,0.83c0.105,0.262,0.25,0.49,0.436,0.686c0.185,0.197,0.402,0.354,0.652,0.469s0.525,0.174,0.825,0.174
			c0.03,0,0.098-0.004,0.202-0.008c0.105-0.006,0.173-0.008,0.203-0.008c0.14-0.109,0.3-0.188,0.479-0.232s0.335-0.123,0.465-0.232
			c0.101-0.09,0.192-0.199,0.277-0.33s0.175-0.256,0.271-0.375c0.095-0.121,0.197-0.221,0.308-0.301
			c0.109-0.08,0.245-0.119,0.405-0.119c0.149,0,0.271,0.045,0.367,0.135c0.095,0.09,0.143,0.205,0.143,0.346
			c0,0.229-0.051,0.438-0.15,0.621c-0.1,0.186-0.21,0.369-0.33,0.547c-0.3,0.436-0.695,0.748-1.185,0.936
			c-0.49,0.188-0.995,0.281-1.516,0.281c-0.51,0-0.97-0.1-1.38-0.301c-0.41-0.199-0.755-0.469-1.035-0.811
			c-0.279-0.34-0.494-0.732-0.645-1.176c-0.15-0.445-0.225-0.914-0.225-1.404C26.147,39.585,26.175,39.226,26.229,38.856z
			 M27.557,38.646c0,0.029,0.021,0.045,0.061,0.045h3.465c0.02,0,0.048-0.012,0.083-0.037c0.034-0.025,0.062-0.047,0.082-0.068
			c0.01-0.02,0.015-0.055,0.015-0.104c0-0.051,0-0.086,0-0.105c0-0.24-0.06-0.443-0.18-0.607c-0.12-0.166-0.27-0.295-0.45-0.391
			c-0.18-0.096-0.377-0.164-0.592-0.209c-0.216-0.047-0.418-0.068-0.608-0.068c-0.21,0-0.425,0.027-0.645,0.082
			s-0.42,0.143-0.6,0.264c-0.181,0.119-0.33,0.271-0.45,0.457s-0.181,0.402-0.181,0.652C27.557,38.575,27.557,38.606,27.557,38.646z
			"/>
		<path d="M34.495,45.3c0.015-0.08,0.042-0.16,0.082-0.236s0.088-0.141,0.143-0.191s0.128-0.076,0.218-0.076h1.185l0.105-0.15
			c0.01-0.379,0.034-0.744,0.075-1.098c0.039-0.355,0.06-0.717,0.06-1.084c0-0.141-0.013-0.27-0.037-0.389
			c-0.025-0.121-0.038-0.244-0.038-0.375v-0.09c0.01-0.02,0.022-0.08,0.038-0.18c0.015-0.1,0.022-0.158,0.022-0.178v-0.031
			c0-0.09-0.011-0.176-0.03-0.262c-0.021-0.084-0.03-0.172-0.03-0.262c0-0.158,0.013-0.313,0.038-0.463
			c0.024-0.15,0.037-0.309,0.037-0.479c0-0.199-0.013-0.395-0.037-0.584c-0.025-0.189-0.038-0.383-0.038-0.582
			c0-0.18,0.013-0.354,0.038-0.523c0.024-0.17,0.037-0.344,0.037-0.523c0-0.029-0.003-0.094-0.008-0.195
			c-0.005-0.1-0.007-0.164-0.007-0.193c-0.11-0.15-0.263-0.242-0.458-0.277s-0.39-0.064-0.585-0.09
			c-0.195-0.023-0.365-0.066-0.51-0.127c-0.146-0.059-0.218-0.189-0.218-0.389c0-0.148,0.032-0.27,0.098-0.357
			c0.064-0.09,0.147-0.16,0.247-0.211c0.101-0.049,0.21-0.084,0.33-0.104s0.24-0.031,0.36-0.031c0.189,0,0.385,0.004,0.585,0.008
			c0.2,0.006,0.39,0.031,0.57,0.076c0.18,0.045,0.342,0.119,0.487,0.223c0.145,0.105,0.252,0.258,0.322,0.457
			c0.01,0.01,0.021,0.016,0.03,0.016h0.03c0.069,0,0.162-0.049,0.277-0.143c0.114-0.096,0.202-0.168,0.263-0.217
			c0.01-0.01,0.034-0.037,0.074-0.082s0.083-0.09,0.128-0.135s0.087-0.088,0.127-0.127c0.04-0.041,0.065-0.061,0.075-0.061
			c0.01-0.01,0.04-0.018,0.09-0.021c0.051-0.006,0.105-0.01,0.165-0.016c0.061-0.006,0.118-0.01,0.173-0.016
			c0.055-0.004,0.088-0.008,0.098-0.008c0.02-0.01,0.069-0.021,0.149-0.037c0.08-0.014,0.13-0.021,0.15-0.021
			c0.01,0,0.063-0.002,0.157-0.008c0.096-0.006,0.168-0.008,0.218-0.008c0.47,0,0.888,0.125,1.253,0.375
			c0.364,0.25,0.67,0.564,0.915,0.945c0.244,0.381,0.432,0.797,0.563,1.252c0.13,0.455,0.194,0.883,0.194,1.283
			c0,0.42-0.027,0.813-0.082,1.178c-0.056,0.365-0.15,0.705-0.285,1.02s-0.32,0.609-0.555,0.885
			c-0.235,0.275-0.538,0.533-0.908,0.773c-0.109,0.07-0.207,0.127-0.292,0.172s-0.168,0.08-0.248,0.105s-0.17,0.043-0.27,0.053
			c-0.101,0.01-0.215,0.014-0.345,0.014c-0.141,0-0.256,0.004-0.346,0.008c-0.09,0.006-0.2-0.018-0.33-0.066
			c-0.1-0.041-0.202-0.098-0.307-0.174c-0.105-0.074-0.211-0.152-0.315-0.232c-0.105-0.08-0.213-0.15-0.322-0.209
			c-0.11-0.061-0.216-0.09-0.315-0.09c-0.05,0-0.098,0.014-0.143,0.045c-0.045,0.029-0.067,0.074-0.067,0.135v1.729l0.12,0.146
			h1.065c0.09,0,0.165,0.027,0.225,0.084s0.107,0.125,0.143,0.207c0.035,0.08,0.06,0.164,0.075,0.252
			c0.015,0.086,0.022,0.166,0.022,0.236c0,0.195-0.067,0.367-0.203,0.521c-0.135,0.152-0.302,0.229-0.502,0.229h-3
			c-0.11,0-0.226-0.018-0.345-0.053c-0.12-0.037-0.233-0.09-0.338-0.162c-0.105-0.07-0.192-0.154-0.263-0.252
			c-0.07-0.096-0.104-0.207-0.104-0.328C34.473,45.458,34.479,45.382,34.495,45.3z M37.944,40.888
			c0.105,0.236,0.24,0.443,0.405,0.623s0.355,0.324,0.57,0.436c0.215,0.109,0.467,0.164,0.758,0.164c0.22,0,0.432-0.055,0.637-0.164
			c0.205-0.111,0.385-0.254,0.54-0.428c0.155-0.176,0.28-0.373,0.375-0.594c0.095-0.219,0.152-0.434,0.173-0.645v-0.645
			c0-0.27-0.008-0.508-0.022-0.713s-0.048-0.396-0.098-0.578c-0.05-0.18-0.125-0.357-0.225-0.531
			c-0.101-0.176-0.24-0.373-0.42-0.594c-0.061-0.08-0.143-0.176-0.248-0.291c-0.104-0.115-0.218-0.174-0.337-0.174h-1.065
			c-0.12,0.111-0.218,0.203-0.293,0.277c-0.074,0.076-0.149,0.154-0.225,0.232c-0.075,0.08-0.138,0.146-0.188,0.195
			c-0.27,0.301-0.435,0.613-0.495,0.938c-0.06,0.326-0.09,0.688-0.09,1.088v0.676C37.757,40.411,37.84,40.653,37.944,40.888z"/>
		<path d="M44.529,38.856c0.055-0.371,0.147-0.723,0.277-1.059c0.13-0.334,0.303-0.645,0.518-0.93s0.487-0.518,0.817-0.697
			c0.03-0.02,0.085-0.051,0.165-0.09c0.08-0.041,0.165-0.084,0.255-0.129c0.091-0.045,0.173-0.084,0.248-0.119
			s0.127-0.057,0.157-0.068c0.11-0.049,0.223-0.072,0.338-0.066c0.114,0.006,0.227,0.008,0.337,0.008c0.64,0,1.18,0.152,1.62,0.457
			s0.85,0.697,1.23,1.178c0.039,0.061,0.092,0.172,0.157,0.338c0.064,0.164,0.125,0.344,0.18,0.539s0.103,0.385,0.143,0.57
			s0.061,0.322,0.061,0.412c0,0.02-0.003,0.063-0.008,0.127c-0.005,0.066-0.008,0.109-0.008,0.129c-0.09,0.15-0.21,0.25-0.359,0.299
			c-0.15,0.051-0.306,0.09-0.466,0.121c-0.109,0-0.307-0.002-0.592-0.008s-0.588-0.008-0.908-0.008c-0.31,0-0.607,0.002-0.892,0.008
			c-0.285,0.006-0.483,0.008-0.593,0.008c-0.11,0-0.243,0.002-0.397,0.008c-0.155,0.004-0.308,0.01-0.458,0.014
			c-0.149,0.006-0.335,0.018-0.555,0.039l-0.06,0.045c0,0.01-0.003,0.045-0.008,0.105s-0.008,0.1-0.008,0.121
			c0,0.291,0.053,0.568,0.157,0.83c0.105,0.262,0.25,0.49,0.436,0.686c0.185,0.197,0.402,0.354,0.652,0.469s0.525,0.174,0.825,0.174
			c0.03,0,0.098-0.004,0.202-0.008c0.105-0.006,0.173-0.008,0.203-0.008c0.14-0.109,0.3-0.188,0.479-0.232s0.335-0.123,0.465-0.232
			c0.101-0.09,0.192-0.199,0.277-0.33s0.175-0.256,0.271-0.375c0.095-0.121,0.197-0.221,0.308-0.301
			c0.109-0.08,0.245-0.119,0.405-0.119c0.149,0,0.271,0.045,0.367,0.135c0.095,0.09,0.143,0.205,0.143,0.346
			c0,0.229-0.051,0.438-0.15,0.621c-0.1,0.186-0.21,0.369-0.33,0.547c-0.3,0.436-0.695,0.748-1.185,0.936
			c-0.49,0.188-0.995,0.281-1.516,0.281c-0.51,0-0.97-0.1-1.38-0.301c-0.41-0.199-0.755-0.469-1.035-0.811
			c-0.279-0.34-0.494-0.732-0.645-1.176c-0.15-0.445-0.225-0.914-0.225-1.404C44.447,39.585,44.475,39.226,44.529,38.856z
			 M45.856,38.646c0,0.029,0.021,0.045,0.061,0.045h3.465c0.02,0,0.048-0.012,0.083-0.037c0.034-0.025,0.062-0.047,0.082-0.068
			c0.01-0.02,0.015-0.055,0.015-0.104c0-0.051,0-0.086,0-0.105c0-0.24-0.06-0.443-0.18-0.607c-0.12-0.166-0.27-0.295-0.45-0.391
			c-0.18-0.096-0.377-0.164-0.592-0.209c-0.216-0.047-0.418-0.068-0.608-0.068c-0.21,0-0.425,0.027-0.645,0.082
			s-0.42,0.143-0.6,0.264c-0.181,0.119-0.33,0.271-0.45,0.457s-0.181,0.402-0.181,0.652C45.856,38.575,45.856,38.606,45.856,38.646z
			"/>
		<path d="M53.109,42.231c0.155-0.131,0.348-0.195,0.578-0.195c0.14,0,0.277,0.012,0.412,0.037s0.277,0.037,0.428,0.037
			c0.04,0,0.098-0.002,0.172-0.008c0.075-0.004,0.118-0.008,0.128-0.008l0.06-0.059c0-0.041,0.003-0.105,0.008-0.195
			s0.01-0.188,0.015-0.293s0.013-0.205,0.022-0.301c0.011-0.094,0.016-0.162,0.016-0.201c0-0.02,0.007-0.07,0.022-0.15
			c0.015-0.08,0.027-0.129,0.037-0.15l-0.029-1.469v-0.285l-0.091-1.771l-0.12-0.119c-0.05,0-0.135-0.002-0.255-0.008
			c-0.12-0.004-0.25-0.01-0.39-0.016c-0.141-0.004-0.27-0.012-0.39-0.021s-0.205-0.016-0.255-0.016
			c-0.2-0.02-0.368-0.098-0.503-0.232s-0.202-0.303-0.202-0.502s0.06-0.373,0.18-0.518s0.285-0.217,0.495-0.217
			c0.01,0,0.024,0,0.045,0c0.03,0,0.045,0.004,0.045,0.014c0.16,0.021,0.357,0.023,0.593,0.008c0.234-0.016,0.473-0.018,0.712-0.008
			c0.24,0.01,0.465,0.043,0.675,0.098c0.211,0.055,0.37,0.158,0.48,0.309c0.02,0.02,0.04,0.063,0.06,0.127
			c0.021,0.064,0.043,0.133,0.068,0.203c0.024,0.068,0.055,0.129,0.09,0.18c0.034,0.049,0.072,0.074,0.112,0.074h0.03
			c0.31-0.25,0.642-0.48,0.997-0.689c0.354-0.211,0.737-0.314,1.147-0.314c0.25,0,0.492,0.041,0.728,0.127
			c0.235,0.084,0.438,0.203,0.607,0.352c0.17,0.15,0.308,0.334,0.413,0.549c0.104,0.215,0.157,0.451,0.157,0.711
			c0,0.371-0.088,0.686-0.263,0.945c-0.175,0.262-0.473,0.391-0.893,0.391c-0.2,0-0.36-0.063-0.479-0.188
			c-0.12-0.125-0.216-0.277-0.285-0.457c-0.07-0.18-0.118-0.367-0.143-0.563c-0.025-0.195-0.043-0.363-0.053-0.504
			c-0.01-0.049-0.04-0.074-0.09-0.074s-0.085,0-0.105,0c-0.05,0-0.097,0.002-0.143,0.008c-0.045,0.006-0.087,0.027-0.127,0.066
			c-0.04,0.031-0.105,0.092-0.195,0.182s-0.185,0.184-0.285,0.285c-0.1,0.1-0.194,0.193-0.284,0.283
			c-0.091,0.092-0.15,0.15-0.181,0.182c-0.04,0.039-0.098,0.107-0.172,0.201c-0.075,0.096-0.148,0.197-0.218,0.309
			c-0.07,0.109-0.13,0.217-0.18,0.322c-0.051,0.105-0.075,0.182-0.075,0.232v1.695c0.01,0.02,0.022,0.07,0.037,0.15
			c0.016,0.08,0.022,0.129,0.022,0.148c0,0.031,0.005,0.09,0.016,0.182c0.01,0.09,0.017,0.184,0.022,0.283
			c0.005,0.102,0.01,0.195,0.015,0.285s0.008,0.156,0.008,0.195c0.039,0.111,0.1,0.176,0.18,0.195s0.175,0.029,0.285,0.029
			c0.109,0,0.223-0.01,0.337-0.029c0.115-0.02,0.228-0.029,0.338-0.029c0.229,0,0.439,0.063,0.63,0.188s0.285,0.307,0.285,0.547
			c0,0.199-0.045,0.357-0.135,0.473s-0.208,0.199-0.353,0.254c-0.146,0.057-0.303,0.092-0.473,0.105
			c-0.17,0.016-0.33,0.023-0.48,0.023c-0.17,0-0.337-0.01-0.502-0.031c-0.165-0.02-0.333-0.029-0.503-0.029
			c-0.08,0-0.147,0.002-0.202,0.008s-0.133,0.021-0.232,0.053h-1.71c-0.24,0-0.458-0.08-0.652-0.24
			c-0.195-0.16-0.293-0.365-0.293-0.615C52.877,42.54,52.954,42.36,53.109,42.231z"/>
		<path d="M62.769,42.628c0.005-0.064,0.032-0.146,0.083-0.248v-1.77c0-0.141,0.055-0.252,0.165-0.338
			c0.109-0.084,0.229-0.127,0.359-0.127c0.061,0,0.128,0.008,0.203,0.023c0.075,0.014,0.137,0.047,0.188,0.096
			c0.069,0.08,0.109,0.178,0.12,0.293c0.01,0.115,0.045,0.213,0.104,0.293c0.13,0.18,0.258,0.352,0.383,0.518
			c0.125,0.164,0.263,0.311,0.412,0.436c0.15,0.125,0.317,0.225,0.503,0.299c0.185,0.076,0.397,0.113,0.638,0.113
			c0.21,0,0.422-0.023,0.637-0.068s0.41-0.117,0.585-0.217s0.32-0.232,0.436-0.398c0.114-0.164,0.172-0.367,0.172-0.607
			c0-0.17-0.027-0.305-0.082-0.404s-0.168-0.186-0.338-0.256c-0.31-0.1-0.635-0.17-0.975-0.209s-0.675-0.08-1.005-0.121
			c-0.33-0.039-0.647-0.094-0.952-0.164c-0.306-0.07-0.57-0.186-0.796-0.346c-0.225-0.158-0.404-0.379-0.54-0.66
			c-0.135-0.279-0.202-0.648-0.202-1.109c0-0.529,0.128-0.949,0.383-1.26s0.622-0.564,1.103-0.766
			c0.109-0.049,0.228-0.092,0.353-0.127s0.252-0.053,0.382-0.053h0.136c0.359,0.051,0.728,0.127,1.103,0.232
			s0.712,0.264,1.012,0.473c0.07-0.049,0.128-0.109,0.173-0.18s0.09-0.135,0.135-0.195s0.098-0.109,0.158-0.15
			c0.06-0.039,0.14-0.059,0.239-0.059c0.141,0,0.268,0.051,0.383,0.156s0.167,0.229,0.157,0.367c0,0.061,0.003,0.168,0.008,0.324
			c0.005,0.154,0.01,0.318,0.015,0.494s0.013,0.34,0.022,0.494c0.01,0.156,0.016,0.264,0.016,0.324v0.18
			c0,0.18-0.053,0.361-0.158,0.547c-0.104,0.186-0.262,0.277-0.472,0.277c-0.181,0-0.323-0.08-0.428-0.24
			c-0.105-0.16-0.203-0.342-0.293-0.547s-0.194-0.402-0.314-0.592c-0.12-0.191-0.29-0.316-0.51-0.375
			c-0.141-0.041-0.248-0.068-0.323-0.084c-0.075-0.014-0.147-0.027-0.217-0.037c-0.07-0.01-0.146-0.016-0.226-0.016s-0.189,0-0.33,0
			c-0.04,0-0.13,0.004-0.27,0.008c-0.141,0.006-0.235,0.008-0.285,0.008c-0.09,0.029-0.18,0.074-0.271,0.135
			c-0.09,0.061-0.172,0.133-0.247,0.219c-0.075,0.084-0.135,0.178-0.18,0.277s-0.067,0.193-0.067,0.285
			c0,0.229,0.057,0.404,0.172,0.523c0.115,0.121,0.272,0.205,0.473,0.256c0.56-0.02,1.13,0.02,1.71,0.119
			c0.58,0.102,1.125,0.256,1.635,0.465c0.26,0.24,0.482,0.518,0.668,0.834c0.185,0.314,0.277,0.656,0.277,1.027
			c0,0.379-0.08,0.73-0.24,1.049c-0.16,0.32-0.372,0.598-0.638,0.834c-0.265,0.234-0.564,0.416-0.899,0.547
			s-0.683,0.195-1.043,0.195c-0.06,0-0.14-0.002-0.239-0.008c-0.101-0.006-0.155-0.008-0.165-0.008
			c-0.021,0-0.063-0.008-0.128-0.021c-0.065-0.016-0.135-0.033-0.21-0.053c-0.075-0.021-0.147-0.041-0.218-0.061
			c-0.069-0.02-0.12-0.035-0.149-0.045c-0.181-0.051-0.341-0.148-0.48-0.293s-0.295-0.262-0.465-0.352
			c-0.06,0.029-0.103,0.092-0.128,0.188c-0.024,0.094-0.055,0.195-0.09,0.299c-0.035,0.105-0.095,0.197-0.18,0.277
			s-0.218,0.121-0.397,0.121c-0.22,0-0.367-0.088-0.442-0.264c-0.075-0.174-0.112-0.352-0.112-0.531
			C62.762,42.776,62.764,42.692,62.769,42.628z"/>
		<path d="M70.944,38.196c0.135-0.531,0.348-1,0.638-1.41s0.662-0.738,1.117-0.982c0.455-0.246,0.998-0.369,1.628-0.369
			c0.479,0,0.895,0.094,1.245,0.279c0.35,0.184,0.699,0.426,1.05,0.727c0.01,0.01,0.02,0.023,0.029,0.037
			c0.011,0.016,0.021,0.023,0.03,0.023c0.12,0.23,0.242,0.457,0.367,0.682s0.24,0.455,0.346,0.689
			c0.104,0.236,0.189,0.477,0.255,0.721c0.064,0.246,0.098,0.498,0.098,0.758c0,0.029-0.003,0.088-0.008,0.172
			c-0.005,0.086-0.008,0.139-0.008,0.158c-0.02,0.061-0.047,0.168-0.082,0.322s-0.075,0.32-0.12,0.494
			c-0.045,0.176-0.088,0.344-0.128,0.504s-0.064,0.27-0.074,0.33c-0.08,0.27-0.218,0.555-0.413,0.854
			c-0.194,0.301-0.422,0.574-0.683,0.818c-0.26,0.246-0.542,0.447-0.847,0.607c-0.306,0.16-0.608,0.24-0.908,0.24
			c-0.149,0-0.265-0.01-0.345-0.029c-0.08-0.021-0.147-0.045-0.202-0.076c-0.056-0.029-0.113-0.063-0.173-0.098
			s-0.146-0.066-0.255-0.098c-0.051-0.01-0.146-0.023-0.285-0.045c-0.141-0.02-0.24-0.039-0.3-0.059
			c-0.051-0.021-0.118-0.053-0.203-0.098s-0.17-0.09-0.255-0.135s-0.165-0.086-0.239-0.121c-0.075-0.035-0.118-0.057-0.128-0.066
			c-0.2-0.131-0.383-0.33-0.548-0.602c-0.165-0.27-0.308-0.559-0.427-0.869c-0.12-0.311-0.213-0.619-0.278-0.93
			c-0.064-0.311-0.097-0.576-0.097-0.795C70.742,39.271,70.81,38.726,70.944,38.196z M72.055,40.175
			c0.015,0.141,0.037,0.281,0.067,0.42c0.029,0.141,0.067,0.273,0.112,0.398s0.098,0.217,0.157,0.277l0.705,0.705
			c0.11,0.029,0.197,0.051,0.263,0.061c0.064,0.01,0.133,0.02,0.202,0.029c0.07,0.01,0.13,0.016,0.181,0.016
			c0.01,0.01,0.079,0.014,0.21,0.014c0.14,0,0.244,0,0.314,0c0.2,0,0.373-0.002,0.518-0.006c0.145-0.006,0.308-0.043,0.487-0.113
			c0.43-0.35,0.715-0.729,0.855-1.133c0.14-0.404,0.21-0.873,0.21-1.402c0-0.311-0.032-0.598-0.098-0.863
			c-0.065-0.264-0.152-0.541-0.263-0.832c-0.05-0.129-0.133-0.236-0.247-0.322c-0.115-0.084-0.24-0.16-0.375-0.225
			s-0.275-0.123-0.42-0.172c-0.146-0.051-0.268-0.105-0.368-0.166h-0.944c-0.011,0-0.075,0.037-0.195,0.113
			c-0.12,0.074-0.21,0.133-0.27,0.172c-0.24,0.17-0.433,0.355-0.578,0.555c-0.145,0.201-0.26,0.412-0.345,0.639
			c-0.085,0.225-0.141,0.461-0.165,0.711c-0.025,0.25-0.037,0.516-0.037,0.795C72.032,39.925,72.039,40.036,72.055,40.175z"/>
		<path d="M80.387,42.134c0.2-0.086,0.45-0.139,0.75-0.158l0.06-0.061c0.021-0.139,0.038-0.303,0.053-0.486
			c0.015-0.186,0.037-0.354,0.067-0.504V37.46c0-0.068-0.063-0.121-0.188-0.156s-0.26-0.084-0.405-0.143
			c-0.145-0.061-0.279-0.148-0.404-0.264s-0.188-0.291-0.188-0.531c0-0.26,0.092-0.438,0.277-0.533
			c0.185-0.096,0.388-0.143,0.607-0.143c0.03,0,0.075,0,0.135,0c0.07,0,0.105,0.006,0.105,0.016c0.29,0.039,0.522,0.09,0.697,0.15
			c0.175,0.059,0.313,0.141,0.412,0.246c0.101,0.105,0.17,0.242,0.21,0.412c0.04,0.172,0.07,0.387,0.091,0.646
			c0.01,0.01,0.02,0.014,0.029,0.014h0.03c0.06,0,0.117-0.029,0.173-0.09c0.055-0.059,0.112-0.129,0.172-0.209
			c0.061-0.08,0.12-0.16,0.181-0.24c0.06-0.08,0.119-0.141,0.18-0.18c0.279-0.201,0.577-0.398,0.893-0.594
			c0.314-0.193,0.652-0.291,1.013-0.291c0.22,0,0.442,0.051,0.667,0.156c0.226,0.105,0.425,0.242,0.601,0.412
			c0.175,0.172,0.316,0.365,0.427,0.586s0.165,0.445,0.165,0.676v3.705c-0.04,0.109-0.063,0.209-0.067,0.299
			s-0.008,0.189-0.008,0.301c0,0.029,0.005,0.1,0.016,0.209l0.06,0.061c0.271,0.051,0.513,0.141,0.728,0.27
			c0.215,0.131,0.322,0.355,0.322,0.676c0,0.26-0.077,0.432-0.232,0.518c-0.155,0.084-0.353,0.127-0.592,0.127h-0.226
			c-0.08,0-0.22-0.002-0.42-0.008c-0.2-0.004-0.412-0.01-0.638-0.014c-0.225-0.006-0.438-0.014-0.637-0.023
			c-0.2-0.01-0.341-0.016-0.421-0.016c-0.319-0.09-0.479-0.295-0.479-0.615c0-0.379,0.107-0.621,0.322-0.727
			s0.482-0.168,0.803-0.188l0.06-0.061l0.136-0.584V39.05c0.01-0.029,0.027-0.09,0.052-0.18c0.025-0.09,0.038-0.15,0.038-0.18
			v-0.029V38.63c0-0.02-0.008-0.076-0.022-0.172c-0.016-0.096-0.028-0.152-0.038-0.172c0-0.031-0.002-0.086-0.007-0.166
			c-0.006-0.08-0.011-0.162-0.016-0.248c-0.005-0.084-0.01-0.166-0.015-0.246s-0.008-0.135-0.008-0.166
			c-0.09-0.15-0.205-0.236-0.345-0.262c-0.141-0.025-0.285-0.037-0.435-0.037c-0.251,0-0.483,0.059-0.698,0.18
			c-0.215,0.119-0.412,0.27-0.592,0.449c-0.181,0.18-0.343,0.379-0.488,0.594c-0.145,0.215-0.272,0.416-0.382,0.607
			c-0.011,0.01-0.03,0.037-0.061,0.082c-0.029,0.045-0.05,0.078-0.06,0.098c-0.03,0.049-0.101,0.164-0.21,0.344v1.711
			c-0.051,0.1-0.078,0.186-0.083,0.256c-0.005,0.068-0.007,0.158-0.007,0.27v0.225c0.06,0.09,0.157,0.143,0.292,0.158
			c0.135,0.014,0.275,0.041,0.42,0.082c0.146,0.039,0.271,0.109,0.375,0.209c0.105,0.102,0.158,0.281,0.158,0.541
			c0,0.209-0.078,0.367-0.233,0.473c-0.154,0.105-0.332,0.168-0.532,0.188h-0.615h-0.614c-0.021,0-0.07-0.01-0.15-0.031
			c-0.08-0.02-0.13-0.029-0.15-0.029c-0.17-0.02-0.34-0.033-0.51-0.037c-0.17-0.006-0.322-0.027-0.457-0.068
			c-0.136-0.039-0.243-0.109-0.323-0.209s-0.119-0.26-0.119-0.48C80.087,42.431,80.187,42.218,80.387,42.134z"/>
		<path d="M90.36,39.778c0.24-0.336,0.54-0.58,0.9-0.734c0.359-0.156,0.752-0.25,1.178-0.285c0.425-0.035,0.817-0.068,1.177-0.098
			c0.36-0.031,0.66-0.086,0.9-0.166s0.36-0.24,0.36-0.48c0-0.17-0.03-0.33-0.091-0.479c-0.06-0.15-0.17-0.271-0.329-0.361
			c-0.061-0.029-0.15-0.074-0.271-0.135c-0.12-0.059-0.186-0.09-0.195-0.09h-1.409c-0.081,0-0.136,0.043-0.165,0.127
			c-0.03,0.086-0.058,0.191-0.083,0.316s-0.053,0.262-0.082,0.412c-0.03,0.15-0.078,0.287-0.143,0.412
			c-0.065,0.125-0.16,0.23-0.285,0.314c-0.125,0.086-0.293,0.129-0.503,0.129c-0.32,0-0.582-0.105-0.787-0.316
			c-0.205-0.209-0.308-0.469-0.308-0.779c0-0.18,0.03-0.34,0.09-0.48c0.061-0.139,0.14-0.27,0.24-0.389
			c0.1-0.121,0.215-0.232,0.345-0.338s0.26-0.203,0.391-0.293c0.109-0.08,0.225-0.168,0.345-0.262c0.12-0.096,0.26-0.143,0.42-0.143
			l2.295,0.029c0.13,0,0.282,0.055,0.457,0.164c0.176,0.109,0.346,0.24,0.511,0.389s0.31,0.309,0.435,0.479
			c0.125,0.168,0.203,0.313,0.232,0.432c0.01,0.031,0.025,0.086,0.045,0.164c0.021,0.08,0.04,0.162,0.061,0.248
			c0.02,0.084,0.037,0.164,0.053,0.238c0.015,0.074,0.022,0.127,0.022,0.156v0.463c0,0.119,0.002,0.256,0.007,0.41
			s-0.018,0.291-0.067,0.41v2.523c0,0.279,0.12,0.418,0.36,0.418c0.159,0,0.26-0.068,0.3-0.209s0.075-0.297,0.104-0.473
			c0.03-0.174,0.078-0.332,0.143-0.473c0.065-0.141,0.203-0.209,0.413-0.209c0.109,0,0.205,0.029,0.285,0.09
			c0.079,0.059,0.145,0.135,0.194,0.225s0.085,0.188,0.105,0.293c0.02,0.104,0.03,0.207,0.03,0.307c0,0.221-0.035,0.439-0.105,0.66
			s-0.168,0.418-0.292,0.592c-0.126,0.176-0.28,0.318-0.466,0.428c-0.185,0.111-0.397,0.166-0.637,0.166
			c-0.19,0-0.355-0.023-0.495-0.068c-0.141-0.045-0.295-0.121-0.465-0.232c-0.061-0.029-0.113-0.076-0.158-0.143
			c-0.045-0.064-0.09-0.129-0.135-0.195c-0.045-0.064-0.095-0.121-0.15-0.172c-0.055-0.051-0.117-0.074-0.188-0.074h-0.074
			c-0.141,0.068-0.283,0.154-0.428,0.254c-0.146,0.1-0.293,0.197-0.442,0.293c-0.15,0.096-0.306,0.176-0.465,0.24
			c-0.16,0.064-0.325,0.098-0.495,0.098h-1.351c-0.11,0-0.205-0.027-0.285-0.084c-0.08-0.055-0.159-0.105-0.239-0.156
			c-0.41-0.24-0.708-0.537-0.893-0.893c-0.186-0.355-0.277-0.768-0.277-1.238C90.001,40.591,90.12,40.112,90.36,39.778z
			 M91.216,41.481c0.029,0.109,0.072,0.217,0.127,0.322c0.055,0.104,0.123,0.191,0.203,0.262s0.17,0.105,0.27,0.105h1.53
			c0.01,0,0.042-0.016,0.098-0.045c0.055-0.031,0.103-0.055,0.143-0.076c0.02-0.02,0.067-0.049,0.143-0.09
			c0.074-0.039,0.122-0.064,0.142-0.074c0.37-0.25,0.62-0.51,0.75-0.779c0.13-0.271,0.195-0.621,0.195-1.051v-0.18
			c-0.01,0-0.03-0.008-0.06-0.023c-0.03-0.014-0.051-0.021-0.061-0.021c-0.01-0.01-0.02-0.016-0.029-0.016l-0.03,0.016
			c-0.03,0-0.112,0.012-0.248,0.037c-0.135,0.025-0.277,0.051-0.427,0.074c-0.15,0.025-0.293,0.051-0.428,0.076
			s-0.218,0.037-0.248,0.037c-0.239,0.039-0.482,0.07-0.728,0.09s-0.492,0.051-0.742,0.09c-0.13,0.01-0.245,0.09-0.345,0.24
			c-0.05,0.07-0.112,0.18-0.188,0.33s-0.112,0.279-0.112,0.391C91.171,41.276,91.186,41.37,91.216,41.481z"/>
		<path d="M99.812,42.626c0.02-0.107,0.055-0.207,0.104-0.299c0.051-0.092,0.113-0.17,0.188-0.236c0.075-0.066,0.168-0.1,0.278-0.1
			h2.295l0.075-0.09v-4.5l0.09-0.285v-2.512c0-0.059-0.061-0.121-0.181-0.186s-0.194-0.104-0.225-0.113
			c-0.03,0.01-0.083,0.025-0.157,0.045c-0.075,0.02-0.158,0.041-0.248,0.061s-0.175,0.037-0.255,0.053
			c-0.08,0.014-0.135,0.021-0.165,0.021h-0.24c-0.17,0-0.302-0.018-0.397-0.053c-0.095-0.035-0.212-0.076-0.353-0.127
			c-0.1-0.029-0.189-0.055-0.27-0.074s-0.147-0.051-0.202-0.09c-0.056-0.039-0.098-0.092-0.128-0.156s-0.045-0.162-0.045-0.293
			c0-0.277,0.107-0.471,0.322-0.574c0.215-0.105,0.447-0.158,0.697-0.158c0.181,0,0.357,0.02,0.533,0.061
			c0.175,0.039,0.353,0.059,0.532,0.059c0.14,0,0.274-0.01,0.405-0.029c0.13-0.02,0.265-0.029,0.404-0.029
			c0.13,0,0.271,0.016,0.42,0.045c0.15,0.029,0.29,0.078,0.421,0.143c0.13,0.064,0.237,0.154,0.322,0.268
			c0.085,0.115,0.127,0.258,0.127,0.428v7.953l0.15,0.135h1.995c0.1,0,0.188,0.027,0.263,0.084c0.074,0.057,0.137,0.125,0.188,0.207
			c0.05,0.08,0.087,0.17,0.112,0.268c0.024,0.096,0.037,0.186,0.037,0.268c0,0.184-0.047,0.346-0.143,0.488
			c-0.095,0.145-0.247,0.215-0.457,0.215h-5.805c-0.171,0-0.333-0.059-0.488-0.176s-0.232-0.264-0.232-0.436
			C99.781,42.827,99.791,42.733,99.812,42.626z"/>
		<path d="M108.818,42.288c0.115-0.197,0.293-0.297,0.533-0.297h1.649l0.105-0.15c0-0.039,0.002-0.109,0.007-0.207
			c0.005-0.1,0.013-0.205,0.022-0.314s0.018-0.213,0.022-0.313s0.008-0.17,0.008-0.209c0.01-0.02,0.02-0.068,0.03-0.148
			c0.01-0.08,0.02-0.129,0.03-0.15v-3.293h-1.756c-0.1,0-0.188-0.029-0.262-0.084c-0.075-0.057-0.138-0.125-0.188-0.207
			c-0.051-0.082-0.088-0.172-0.113-0.268c-0.024-0.098-0.037-0.188-0.037-0.268c0-0.164,0.04-0.291,0.12-0.383
			s0.178-0.16,0.292-0.207c0.115-0.045,0.24-0.076,0.375-0.092c0.136-0.016,0.258-0.023,0.368-0.023c0.17,0,0.337,0.012,0.502,0.031
			s0.333,0.029,0.503,0.029c0.12,0,0.237-0.01,0.353-0.029c0.114-0.02,0.232-0.031,0.353-0.031c0.17,0,0.347,0.057,0.532,0.166
			c0.185,0.109,0.277,0.27,0.277,0.48v5.58l0.09,0.09h1.591c0.09,0,0.172,0.033,0.247,0.1s0.14,0.145,0.195,0.236
			c0.055,0.092,0.095,0.189,0.12,0.291c0.024,0.102,0.037,0.188,0.037,0.26c0,0.143-0.037,0.285-0.112,0.428
			c-0.075,0.145-0.198,0.215-0.368,0.215h-5.114c-0.181,0-0.323-0.061-0.428-0.184c-0.105-0.123-0.157-0.27-0.157-0.443
			C108.646,42.688,108.703,42.487,108.818,42.288z M110.926,33.126c0.19-0.201,0.436-0.301,0.735-0.301
			c0.16,0,0.308,0.037,0.442,0.113c0.135,0.074,0.25,0.174,0.345,0.299c0.096,0.125,0.17,0.264,0.226,0.414
			c0.055,0.148,0.082,0.299,0.082,0.449c0,0.301-0.11,0.537-0.33,0.713c-0.22,0.174-0.47,0.262-0.75,0.262
			c-0.34,0-0.598-0.119-0.772-0.359s-0.263-0.525-0.263-0.855C110.641,33.571,110.736,33.325,110.926,33.126z"/>
		<path d="M116.821,42.185c0.17-0.209,0.364-0.42,0.585-0.629c0.22-0.211,0.435-0.422,0.645-0.637c0.21-0.217,0.36-0.428,0.45-0.639
			l1.935-1.936l0.12-0.238l0.705-0.705c0.01-0.051,0.016-0.086,0.016-0.105s0-0.055,0-0.105s-0.025-0.08-0.075-0.09
			c-0.17-0.02-0.34-0.045-0.51-0.074c-0.171-0.031-0.341-0.045-0.511-0.045c-0.25,0-0.532,0.063-0.847,0.188
			c-0.315,0.125-0.553,0.281-0.713,0.471c-0.09,0.102-0.165,0.229-0.225,0.383c-0.061,0.156-0.123,0.307-0.188,0.451
			c-0.065,0.145-0.146,0.27-0.24,0.375c-0.096,0.104-0.218,0.156-0.368,0.156c-0.22,0-0.359-0.074-0.42-0.225
			c-0.06-0.15-0.09-0.314-0.09-0.494v-0.18l0.42-1.771c0.05-0.199,0.183-0.357,0.397-0.473c0.215-0.113,0.423-0.172,0.623-0.172
			c0.34,0,0.677,0.021,1.013,0.063c0.335,0.041,0.672,0.07,1.012,0.088c0.08,0,0.218,0.004,0.413,0.016
			c0.194,0.01,0.402,0.018,0.622,0.021c0.22,0.006,0.425,0.01,0.615,0.016c0.189,0.004,0.325,0.008,0.405,0.008
			c0.31,0.049,0.545,0.186,0.705,0.406c0.01,0.02,0.015,0.064,0.015,0.135s0,0.117,0,0.137c0,0.09-0.003,0.176-0.008,0.256
			s-0.042,0.16-0.112,0.242c-0.04,0.029-0.104,0.088-0.195,0.172c-0.09,0.086-0.185,0.176-0.284,0.271
			c-0.101,0.096-0.195,0.188-0.285,0.271c-0.09,0.086-0.15,0.145-0.181,0.174c-0.149,0.141-0.279,0.287-0.39,0.438
			s-0.235,0.301-0.375,0.451l-0.405,0.406c-0.25,0.232-0.482,0.477-0.697,0.732s-0.438,0.504-0.667,0.746
			c-0.07,0.08-0.155,0.168-0.256,0.264c-0.1,0.096-0.2,0.197-0.3,0.309s-0.194,0.221-0.285,0.332c-0.09,0.109-0.16,0.221-0.21,0.33
			c-0.01,0.021-0.005,0.061,0.016,0.121c0.02,0.061,0.029,0.102,0.029,0.121h2.655c0.01,0,0.035-0.01,0.075-0.031
			c0.04-0.02,0.085-0.041,0.135-0.066s0.098-0.051,0.143-0.074c0.045-0.025,0.083-0.049,0.112-0.068
			c0.15-0.1,0.245-0.266,0.285-0.494c0.04-0.23,0.075-0.467,0.105-0.705c0.029-0.24,0.082-0.453,0.157-0.639
			s0.228-0.277,0.457-0.277c0.091,0,0.175,0.027,0.256,0.082c0.079,0.057,0.149,0.125,0.21,0.211c0.06,0.084,0.104,0.174,0.135,0.27
			s0.045,0.184,0.045,0.262v2.057c0,0.07-0.013,0.148-0.037,0.24c-0.025,0.09-0.061,0.176-0.105,0.262
			c-0.045,0.084-0.1,0.154-0.165,0.209c-0.065,0.057-0.138,0.084-0.218,0.084h-2.88c-0.11,0.059-0.229,0.09-0.359,0.09
			c-0.12,0-0.24,0-0.36,0c-0.2,0-0.388-0.01-0.563-0.031c-0.175-0.02-0.362-0.029-0.563-0.029c-0.141,0-0.271,0.01-0.39,0.029
			c-0.12,0.021-0.245,0.031-0.375,0.031c-0.261,0-0.479-0.068-0.653-0.203s-0.262-0.332-0.262-0.592
			C116.566,42.61,116.65,42.396,116.821,42.185z"/>
		<path d="M125.61,39.778c0.24-0.336,0.54-0.58,0.9-0.734c0.359-0.156,0.752-0.25,1.178-0.285c0.425-0.035,0.817-0.068,1.177-0.098
			c0.36-0.031,0.66-0.086,0.9-0.166s0.36-0.24,0.36-0.48c0-0.17-0.03-0.33-0.091-0.479c-0.06-0.15-0.17-0.271-0.329-0.361
			c-0.061-0.029-0.15-0.074-0.271-0.135c-0.12-0.059-0.186-0.09-0.195-0.09h-1.409c-0.081,0-0.136,0.043-0.165,0.127
			c-0.03,0.086-0.058,0.191-0.083,0.316s-0.053,0.262-0.082,0.412c-0.03,0.15-0.078,0.287-0.143,0.412
			c-0.065,0.125-0.16,0.23-0.285,0.314c-0.125,0.086-0.293,0.129-0.503,0.129c-0.32,0-0.582-0.105-0.787-0.316
			c-0.205-0.209-0.308-0.469-0.308-0.779c0-0.18,0.03-0.34,0.09-0.48c0.061-0.139,0.14-0.27,0.24-0.389
			c0.1-0.121,0.215-0.232,0.345-0.338s0.26-0.203,0.391-0.293c0.109-0.08,0.225-0.168,0.345-0.262c0.12-0.096,0.26-0.143,0.42-0.143
			l2.295,0.029c0.13,0,0.282,0.055,0.457,0.164c0.176,0.109,0.346,0.24,0.511,0.389s0.31,0.309,0.435,0.479
			c0.125,0.168,0.203,0.313,0.232,0.432c0.01,0.031,0.025,0.086,0.045,0.164c0.021,0.08,0.04,0.162,0.061,0.248
			c0.02,0.084,0.037,0.164,0.053,0.238c0.015,0.074,0.022,0.127,0.022,0.156v0.463c0,0.119,0.002,0.256,0.007,0.41
			s-0.018,0.291-0.067,0.41v2.523c0,0.279,0.12,0.418,0.36,0.418c0.159,0,0.26-0.068,0.3-0.209s0.075-0.297,0.104-0.473
			c0.03-0.174,0.078-0.332,0.143-0.473c0.065-0.141,0.203-0.209,0.413-0.209c0.109,0,0.205,0.029,0.285,0.09
			c0.079,0.059,0.145,0.135,0.194,0.225s0.085,0.188,0.105,0.293c0.02,0.104,0.03,0.207,0.03,0.307c0,0.221-0.035,0.439-0.105,0.66
			s-0.168,0.418-0.292,0.592c-0.126,0.176-0.28,0.318-0.466,0.428c-0.185,0.111-0.397,0.166-0.637,0.166
			c-0.19,0-0.355-0.023-0.495-0.068c-0.141-0.045-0.295-0.121-0.465-0.232c-0.061-0.029-0.113-0.076-0.158-0.143
			c-0.045-0.064-0.09-0.129-0.135-0.195c-0.045-0.064-0.095-0.121-0.15-0.172c-0.055-0.051-0.117-0.074-0.188-0.074h-0.074
			c-0.141,0.068-0.283,0.154-0.428,0.254c-0.146,0.1-0.293,0.197-0.442,0.293c-0.15,0.096-0.306,0.176-0.465,0.24
			c-0.16,0.064-0.325,0.098-0.495,0.098h-1.351c-0.11,0-0.205-0.027-0.285-0.084c-0.08-0.055-0.159-0.105-0.239-0.156
			c-0.41-0.24-0.708-0.537-0.893-0.893c-0.186-0.355-0.277-0.768-0.277-1.238C125.251,40.591,125.37,40.112,125.61,39.778z
			 M126.466,41.481c0.029,0.109,0.072,0.217,0.127,0.322c0.055,0.104,0.123,0.191,0.203,0.262s0.17,0.105,0.27,0.105h1.53
			c0.01,0,0.042-0.016,0.098-0.045c0.055-0.031,0.103-0.055,0.143-0.076c0.02-0.02,0.067-0.049,0.143-0.09
			c0.074-0.039,0.122-0.064,0.142-0.074c0.37-0.25,0.62-0.51,0.75-0.779c0.13-0.271,0.195-0.621,0.195-1.051v-0.18
			c-0.01,0-0.03-0.008-0.06-0.023c-0.03-0.014-0.051-0.021-0.061-0.021c-0.01-0.01-0.02-0.016-0.029-0.016l-0.03,0.016
			c-0.03,0-0.112,0.012-0.248,0.037c-0.135,0.025-0.277,0.051-0.427,0.074c-0.15,0.025-0.293,0.051-0.428,0.076
			s-0.218,0.037-0.248,0.037c-0.239,0.039-0.482,0.07-0.728,0.09s-0.492,0.051-0.742,0.09c-0.13,0.01-0.245,0.09-0.345,0.24
			c-0.05,0.07-0.112,0.18-0.188,0.33s-0.112,0.279-0.112,0.391C126.421,41.276,126.436,41.37,126.466,41.481z"/>
		<path d="M137.251,39.478c-0.021-0.379,0.029-0.732,0.149-1.063v-1.662h-1.89c-0.141,0-0.253-0.07-0.338-0.209
			c-0.085-0.141-0.127-0.27-0.127-0.391c0-0.18,0.057-0.328,0.172-0.449c0.115-0.119,0.232-0.234,0.353-0.344
			c0.12-0.1,0.263-0.156,0.428-0.166s0.332-0.016,0.503-0.016c0.18,0,0.347-0.018,0.502-0.053s0.287-0.133,0.397-0.293
			c0.1-0.15,0.15-0.352,0.15-0.604s0.007-0.5,0.022-0.746c0.015-0.246,0.067-0.457,0.157-0.635c0.09-0.176,0.28-0.264,0.57-0.264
			s0.467,0.088,0.532,0.264c0.064,0.178,0.098,0.385,0.098,0.627c0,0.23-0.013,0.457-0.038,0.678
			c-0.024,0.223-0.037,0.453-0.037,0.695c0,0.059,0,0.15,0,0.27c0,0.121,0.005,0.188,0.015,0.197l0.105,0.105
			c0.01,0.01,0.08,0.014,0.21,0.014c0.14,0,0.25,0,0.33,0c0.21,0,0.412-0.012,0.607-0.037c0.195-0.023,0.393-0.037,0.593-0.037
			c0.229,0,0.42,0.09,0.569,0.27c0.15,0.18,0.226,0.375,0.226,0.586c0,0.199-0.063,0.373-0.188,0.518s-0.288,0.217-0.487,0.217
			c-0.251,0-0.483-0.031-0.698-0.098c-0.215-0.064-0.467-0.098-0.757-0.098c-0.061,0-0.148,0.004-0.263,0.008
			c-0.115,0.006-0.178,0.014-0.188,0.023l-0.18,0.164v4.158c0,0.08,0.027,0.17,0.082,0.27s0.125,0.193,0.21,0.283
			s0.178,0.168,0.277,0.232s0.195,0.098,0.285,0.098c0.24,0,0.43-0.059,0.57-0.174c0.14-0.113,0.247-0.256,0.322-0.428
			c0.075-0.17,0.135-0.352,0.18-0.547s0.093-0.377,0.143-0.547s0.12-0.313,0.21-0.428s0.22-0.172,0.391-0.172
			c0.249,0,0.425,0.09,0.524,0.27s0.15,0.375,0.15,0.584c0,0.34-0.051,0.686-0.15,1.035c-0.1,0.352-0.247,0.668-0.442,0.953
			s-0.438,0.52-0.728,0.705s-0.625,0.277-1.005,0.277c-0.15,0-0.265-0.006-0.345-0.016s-0.153-0.027-0.218-0.051
			c-0.065-0.025-0.13-0.061-0.195-0.105c-0.064-0.045-0.152-0.107-0.262-0.188c-0.011,0-0.041-0.012-0.091-0.037
			s-0.1-0.051-0.149-0.074c-0.051-0.025-0.101-0.049-0.15-0.068s-0.08-0.035-0.09-0.045c-0.41-0.318-0.678-0.668-0.803-1.049
			c-0.125-0.379-0.188-0.818-0.188-1.316C137.28,40.222,137.271,39.856,137.251,39.478z"/>
		<path d="M144.022,42.288c0.115-0.197,0.293-0.297,0.533-0.297h1.649l0.105-0.15c0-0.039,0.002-0.109,0.007-0.207
			c0.005-0.1,0.013-0.205,0.022-0.314s0.018-0.213,0.022-0.313s0.008-0.17,0.008-0.209c0.01-0.02,0.02-0.068,0.03-0.148
			c0.01-0.08,0.02-0.129,0.03-0.15v-3.293h-1.756c-0.1,0-0.188-0.029-0.262-0.084c-0.075-0.057-0.138-0.125-0.188-0.207
			c-0.051-0.082-0.088-0.172-0.113-0.268c-0.024-0.098-0.037-0.188-0.037-0.268c0-0.164,0.04-0.291,0.12-0.383
			s0.178-0.16,0.292-0.207c0.115-0.045,0.24-0.076,0.375-0.092c0.136-0.016,0.258-0.023,0.368-0.023c0.17,0,0.337,0.012,0.502,0.031
			s0.333,0.029,0.503,0.029c0.12,0,0.237-0.01,0.353-0.029c0.114-0.02,0.232-0.031,0.353-0.031c0.17,0,0.347,0.057,0.532,0.166
			c0.185,0.109,0.277,0.27,0.277,0.48v5.58l0.09,0.09h1.591c0.09,0,0.172,0.033,0.247,0.1s0.14,0.145,0.195,0.236
			c0.055,0.092,0.095,0.189,0.12,0.291c0.024,0.102,0.037,0.188,0.037,0.26c0,0.143-0.037,0.285-0.112,0.428
			c-0.075,0.145-0.198,0.215-0.368,0.215h-5.114c-0.181,0-0.323-0.061-0.428-0.184c-0.105-0.123-0.157-0.27-0.157-0.443
			C143.851,42.688,143.907,42.487,144.022,42.288z M146.13,33.126c0.19-0.201,0.436-0.301,0.735-0.301
			c0.16,0,0.308,0.037,0.442,0.113c0.135,0.074,0.25,0.174,0.345,0.299c0.096,0.125,0.17,0.264,0.226,0.414
			c0.055,0.148,0.082,0.299,0.082,0.449c0,0.301-0.11,0.537-0.33,0.713c-0.22,0.174-0.47,0.262-0.75,0.262
			c-0.34,0-0.598-0.119-0.772-0.359s-0.263-0.525-0.263-0.855C145.845,33.571,145.94,33.325,146.13,33.126z"/>
		<path d="M151.973,38.196c0.135-0.531,0.348-1,0.638-1.41s0.662-0.738,1.117-0.982c0.455-0.246,0.998-0.369,1.628-0.369
			c0.479,0,0.895,0.094,1.245,0.279c0.35,0.184,0.699,0.426,1.05,0.727c0.01,0.01,0.02,0.023,0.029,0.037
			c0.011,0.016,0.021,0.023,0.03,0.023c0.12,0.23,0.242,0.457,0.367,0.682s0.24,0.455,0.346,0.689
			c0.104,0.236,0.189,0.477,0.255,0.721c0.064,0.246,0.098,0.498,0.098,0.758c0,0.029-0.003,0.088-0.008,0.172
			c-0.005,0.086-0.008,0.139-0.008,0.158c-0.02,0.061-0.047,0.168-0.082,0.322s-0.075,0.32-0.12,0.494
			c-0.045,0.176-0.088,0.344-0.128,0.504s-0.064,0.27-0.074,0.33c-0.08,0.27-0.218,0.555-0.413,0.854
			c-0.194,0.301-0.422,0.574-0.683,0.818c-0.26,0.246-0.542,0.447-0.847,0.607c-0.306,0.16-0.608,0.24-0.908,0.24
			c-0.149,0-0.265-0.01-0.345-0.029c-0.08-0.021-0.147-0.045-0.202-0.076c-0.056-0.029-0.113-0.063-0.173-0.098
			s-0.146-0.066-0.255-0.098c-0.051-0.01-0.146-0.023-0.285-0.045c-0.141-0.02-0.24-0.039-0.3-0.059
			c-0.051-0.021-0.118-0.053-0.203-0.098s-0.17-0.09-0.255-0.135s-0.165-0.086-0.239-0.121c-0.075-0.035-0.118-0.057-0.128-0.066
			c-0.2-0.131-0.383-0.33-0.548-0.602c-0.165-0.27-0.308-0.559-0.427-0.869c-0.12-0.311-0.213-0.619-0.278-0.93
			c-0.064-0.311-0.097-0.576-0.097-0.795C151.771,39.271,151.838,38.726,151.973,38.196z M153.083,40.175
			c0.015,0.141,0.037,0.281,0.067,0.42c0.029,0.141,0.067,0.273,0.112,0.398s0.098,0.217,0.157,0.277l0.705,0.705
			c0.11,0.029,0.197,0.051,0.263,0.061c0.064,0.01,0.133,0.02,0.202,0.029c0.07,0.01,0.13,0.016,0.181,0.016
			c0.01,0.01,0.079,0.014,0.21,0.014c0.14,0,0.244,0,0.314,0c0.2,0,0.373-0.002,0.518-0.006c0.145-0.006,0.308-0.043,0.487-0.113
			c0.43-0.35,0.715-0.729,0.855-1.133c0.14-0.404,0.21-0.873,0.21-1.402c0-0.311-0.032-0.598-0.098-0.863
			c-0.065-0.264-0.152-0.541-0.263-0.832c-0.05-0.129-0.133-0.236-0.247-0.322c-0.115-0.084-0.24-0.16-0.375-0.225
			s-0.275-0.123-0.42-0.172c-0.146-0.051-0.268-0.105-0.368-0.166h-0.944c-0.011,0-0.075,0.037-0.195,0.113
			c-0.12,0.074-0.21,0.133-0.27,0.172c-0.24,0.17-0.433,0.355-0.578,0.555c-0.145,0.201-0.26,0.412-0.345,0.639
			c-0.085,0.225-0.141,0.461-0.165,0.711c-0.025,0.25-0.037,0.516-0.037,0.795C153.061,39.925,153.067,40.036,153.083,40.175z"/>
		<path d="M161.416,42.134c0.2-0.086,0.45-0.139,0.75-0.158l0.06-0.061c0.021-0.139,0.038-0.303,0.053-0.486
			c0.015-0.186,0.037-0.354,0.067-0.504V37.46c0-0.068-0.063-0.121-0.188-0.156s-0.26-0.084-0.405-0.143
			c-0.145-0.061-0.279-0.148-0.404-0.264s-0.188-0.291-0.188-0.531c0-0.26,0.092-0.438,0.277-0.533
			c0.185-0.096,0.388-0.143,0.607-0.143c0.03,0,0.075,0,0.135,0c0.07,0,0.105,0.006,0.105,0.016c0.29,0.039,0.522,0.09,0.697,0.15
			c0.175,0.059,0.313,0.141,0.412,0.246c0.101,0.105,0.17,0.242,0.21,0.412c0.04,0.172,0.07,0.387,0.091,0.646
			c0.01,0.01,0.02,0.014,0.029,0.014h0.03c0.06,0,0.117-0.029,0.173-0.09c0.055-0.059,0.112-0.129,0.172-0.209
			c0.061-0.08,0.12-0.16,0.181-0.24c0.06-0.08,0.119-0.141,0.18-0.18c0.279-0.201,0.577-0.398,0.893-0.594
			c0.314-0.193,0.652-0.291,1.013-0.291c0.22,0,0.442,0.051,0.667,0.156c0.226,0.105,0.425,0.242,0.601,0.412
			c0.175,0.172,0.316,0.365,0.427,0.586s0.165,0.445,0.165,0.676v3.705c-0.04,0.109-0.063,0.209-0.067,0.299
			s-0.008,0.189-0.008,0.301c0,0.029,0.005,0.1,0.016,0.209l0.06,0.061c0.271,0.051,0.513,0.141,0.728,0.27
			c0.215,0.131,0.322,0.355,0.322,0.676c0,0.26-0.077,0.432-0.232,0.518c-0.155,0.084-0.353,0.127-0.592,0.127h-0.226
			c-0.08,0-0.22-0.002-0.42-0.008c-0.2-0.004-0.412-0.01-0.638-0.014c-0.225-0.006-0.438-0.014-0.637-0.023
			c-0.2-0.01-0.341-0.016-0.421-0.016c-0.319-0.09-0.479-0.295-0.479-0.615c0-0.379,0.107-0.621,0.322-0.727
			s0.482-0.168,0.803-0.188l0.06-0.061l0.136-0.584V39.05c0.01-0.029,0.027-0.09,0.052-0.18c0.025-0.09,0.038-0.15,0.038-0.18
			v-0.029V38.63c0-0.02-0.008-0.076-0.022-0.172c-0.016-0.096-0.028-0.152-0.038-0.172c0-0.031-0.002-0.086-0.007-0.166
			c-0.006-0.08-0.011-0.162-0.016-0.248c-0.005-0.084-0.01-0.166-0.015-0.246s-0.008-0.135-0.008-0.166
			c-0.09-0.15-0.205-0.236-0.345-0.262c-0.141-0.025-0.285-0.037-0.435-0.037c-0.251,0-0.483,0.059-0.698,0.18
			c-0.215,0.119-0.412,0.27-0.592,0.449c-0.181,0.18-0.343,0.379-0.488,0.594c-0.145,0.215-0.272,0.416-0.382,0.607
			c-0.011,0.01-0.03,0.037-0.061,0.082c-0.029,0.045-0.05,0.078-0.06,0.098c-0.03,0.049-0.101,0.164-0.21,0.344v1.711
			c-0.051,0.1-0.078,0.186-0.083,0.256c-0.005,0.068-0.007,0.158-0.007,0.27v0.225c0.06,0.09,0.157,0.143,0.292,0.158
			c0.135,0.014,0.275,0.041,0.42,0.082c0.146,0.039,0.271,0.109,0.375,0.209c0.105,0.102,0.158,0.281,0.158,0.541
			c0,0.209-0.078,0.367-0.233,0.473c-0.154,0.105-0.332,0.168-0.532,0.188h-0.615h-0.614c-0.021,0-0.07-0.01-0.15-0.031
			c-0.08-0.02-0.13-0.029-0.15-0.029c-0.17-0.02-0.34-0.033-0.51-0.037c-0.17-0.006-0.322-0.027-0.457-0.068
			c-0.136-0.039-0.243-0.109-0.323-0.209s-0.119-0.26-0.119-0.48C161.116,42.431,161.216,42.218,161.416,42.134z"/>
	</g>
</g>
<g id="threeman">
</g>
<g id="_x32__truths_and_a_lie">
</g>
<g id="cray_cray_cat_lady">
</g>
<g id="siblings">
</g>
<g id="later">
</g>
<g id="waterfall">
</g>
<g id="cheers">
</g>
<g id="rhyme">
</g>
<g id="categories">
</g>
<g id="tits">
</g>
<g id="dicks">
</g>
<g id="questions">
</g>
<g id="double_hands">
</g>
<g id="rewind">
</g>
<g id="Cryptkeeper">
</g>
<g id="Take_2_and_Redo">
</g>
<g id="Embryo">
</g>
<g id="I_am_Groot">
</g>
<g id="Mini_Me">
</g>
<g id="Ditto_1_">
</g>
<g id="reverse">
</g>
</svg>
