<?xml version="1.0" encoding="utf-8"?>
<!-- Generator: Adobe Illustrator 16.0.0, SVG Export Plug-In . SVG Version: 6.00 Build 0)  -->
<!DOCTYPE svg PUBLIC "-//W3C//DTD SVG 1.1//EN" "http://www.w3.org/Graphics/SVG/1.1/DTD/svg11.dtd">
<svg version="1.1" xmlns="http://www.w3.org/2000/svg" xmlns:xlink="http://www.w3.org/1999/xlink" x="0px" y="0px"
	 width="209.759px" height="62.361px" viewBox="0 0 209.759 62.361" enable-background="new 0 0 209.759 62.361"
	 xml:space="preserve">
<g id="Layer_1">
</g>
<g id="Blindman">
</g>
<g id="Compliments">
</g>
<g id="HAT">
</g>
<g id="speech">
</g>
<g id="TREX_ARMS">
</g>
<g id="slim_shady">
</g>
<g id="TIMEOUT">
</g>
<g id="Truth_or_Dare">
</g>
<g id="ARM_WRESTLE">
</g>
<g id="musical_chairs">
</g>
<g id="never_have_i_ever">
</g>
<g id="Trivia">
</g>
<g id="Drink_Pulling">
</g>
<g id="Sharing_is_Caring">
</g>
<g id="Not_It">
</g>
<g id="Cocktail_of_Doom">
</g>
<g id="Heads_up">
</g>
<g id="Archenemy">
</g>
<g id="battle_of_the_sexes">
</g>
<g id="one_must_drink">
</g>
<g id="rainbow_connection">
</g>
<g id="social_drinking">
</g>
<g id="Spin_the_bottle">
</g>
<g id="accents">
</g>
<g id="Slap">
</g>
<g id="down_the_hatch">
</g>
<g id="rubiks_cube">
</g>
<g id="bar_tender">
</g>
<g id="codenames">
</g>
<g id="hand_switch">
</g>
<g id="make_a_rule">
</g>
<g id="no_guts_no_glory">
</g>
<g id="pass">
</g>
<g id="santa">
</g>
<g id="snake_eyes">
</g>
<g id="lightning_round">
</g>
<g id="Bro">
</g>
<g id="LeastDrunk">
</g>
<g id="Know_It_All">
</g>
<g id="EyeContact">
</g>
<g id="UnderGuesser">
</g>
<g id="GodSaveTheQUeen">
</g>
<g id="Ghost">
</g>
<g id="Fortune_Teller">
</g>
<g id="DrinkSwap">
</g>
<g id="DickTator">
</g>
<g id="_x34_Eyes">
</g>
<g id="BabyTalk">
</g>
<g id="Backseat_Driver">
</g>
<g id="BAtman">
</g>
<g id="bodyguard">
</g>
<g id="BuckleUp">
</g>
<g id="RockPaperScissors">
</g>
<g id="Roger_Roger">
</g>
<g id="RoyaleWe">
</g>
<g id="Skip">
</g>
<g id="SwineRules">
</g>
<g id="Touchy_Feeley">
</g>
<g id="Wasted_Education">
</g>
<g id="Layer_86">
</g>
<g id="PointOfNoReturn">
</g>
<g id="Pirate">
</g>
<g id="Thief">
</g>
<g id="DepthPerception">
</g>
<g id="Narcissist">
</g>
<g id="MammaBird">
</g>
<g id="Staringcontest">
</g>
<g id="Cartwheel">
</g>
<g id="Censored">
</g>
<g id="Depersonalization">
</g>
<g id="threeman">
</g>
<g id="_x32__truths_and_a_lie">
</g>
<g id="cray_cray_cat_lady">
</g>
<g id="siblings">
</g>
<g id="later">
</g>
<g id="waterfall">
</g>
<g id="cheers">
</g>
<g id="rhyme">
</g>
<g id="categories">
</g>
<g id="tits">
</g>
<g id="dicks">
</g>
<g id="questions">
</g>
<g id="double_hands">
</g>
<g id="take_2">
</g>
<g id="take_3">
</g>
<g id="give_3">
	<g>
		<path d="M3.564,31.938c0.195-0.756,0.321-1.526,0.378-2.311c0.056-0.783,0.153-1.554,0.294-2.31
			c0.14-0.951,0.462-1.995,0.966-3.129s1.141-2.185,1.911-3.15s1.645-1.777,2.625-2.436s2.017-0.987,3.108-0.987
			c0.644,0,1.315,0.133,2.016,0.399c0.7,0.266,1.316,0.581,1.849,0.944c0.279,0.168,0.546,0.399,0.798,0.693s0.56,0.441,0.924,0.441
			c0.224,0,0.392-0.112,0.504-0.337c0.111-0.224,0.245-0.476,0.399-0.756c0.153-0.279,0.356-0.531,0.608-0.756
			c0.252-0.224,0.63-0.336,1.134-0.336c0.42,0,0.757,0.112,1.009,0.336c0.252,0.225,0.378,0.561,0.378,1.008v4.62
			c-0.084,0.309-0.141,0.798-0.168,1.471c-0.028,0.672-0.099,1.351-0.21,2.036c-0.112,0.687-0.309,1.289-0.589,1.807
			c-0.279,0.519-0.728,0.776-1.344,0.776c-0.561,0-0.959-0.188-1.196-0.566c-0.238-0.378-0.428-0.861-0.567-1.449
			c-0.141-0.588-0.28-1.211-0.42-1.869c-0.141-0.657-0.386-1.281-0.735-1.869c-0.351-0.588-0.854-1.07-1.512-1.448
			c-0.658-0.379-1.562-0.567-2.709-0.567c-1.344,0-2.388,0.435-3.129,1.302c-0.742,0.868-1.31,1.918-1.701,3.15
			c-0.112,0.309-0.183,0.561-0.21,0.756c-0.028,0.196-0.057,0.364-0.084,0.504c-0.028,0.141-0.07,0.287-0.126,0.441
			c-0.057,0.154-0.141,0.356-0.252,0.608v8.064c0,0.645,0.14,1.393,0.42,2.247c0.279,0.854,0.657,1.666,1.134,2.436
			c0.476,0.771,1.05,1.422,1.722,1.953c0.673,0.532,1.414,0.798,2.227,0.798c0.812,0,1.539-0.195,2.184-0.588
			c0.645-0.392,1.19-0.896,1.639-1.512c0.447-0.616,0.79-1.316,1.028-2.101c0.238-0.783,0.357-1.554,0.357-2.31
			c0-0.111,0-0.279,0-0.504c0-0.252-0.015-0.392-0.042-0.42l-0.294-0.336c-0.364-0.028-0.75-0.077-1.155-0.147
			c-0.406-0.069-0.784-0.182-1.134-0.336c-0.351-0.153-0.638-0.363-0.861-0.63c-0.225-0.266-0.336-0.637-0.336-1.113
			c0-0.476,0.14-0.938,0.42-1.386c0.279-0.447,0.686-0.672,1.218-0.672c0.896,0,1.792,0.084,2.688,0.252
			c0.896,0.168,1.792,0.252,2.688,0.252c0.393,0,0.777-0.027,1.155-0.084c0.378-0.056,0.763-0.084,1.155-0.084
			c0.336,0,0.665,0.021,0.987,0.063c0.321,0.042,0.608,0.126,0.86,0.253c0.252,0.126,0.455,0.308,0.609,0.546
			c0.153,0.238,0.23,0.553,0.23,0.944c0,0.532-0.133,0.945-0.398,1.239c-0.267,0.294-0.603,0.504-1.008,0.63
			c-0.406,0.126-0.84,0.203-1.303,0.231c-0.462,0.028-0.875,0.042-1.238,0.042c-0.141,0.057-0.231,0.196-0.273,0.42
			c-0.042,0.225-0.063,0.364-0.063,0.42v4.746c-0.112,0.309-0.168,0.603-0.168,0.882c0,0.252,0,0.532,0,0.84
			c0,0.364,0.027,0.708,0.084,1.029c0.056,0.322,0.084,0.65,0.084,0.986c0,0.616-0.183,1.19-0.546,1.723
			c-0.364,0.532-0.869,0.798-1.513,0.798c-0.364,0-0.65-0.084-0.86-0.252s-0.386-0.357-0.525-0.567
			c-0.141-0.21-0.267-0.398-0.378-0.566c-0.112-0.168-0.252-0.252-0.42-0.252c-0.252,0-0.512,0.07-0.777,0.21
			c-0.267,0.141-0.539,0.301-0.818,0.482c-0.28,0.183-0.547,0.364-0.799,0.546c-0.252,0.183-0.504,0.315-0.756,0.399
			c-0.309,0.141-0.588,0.203-0.84,0.189c-0.252-0.015-0.546-0.021-0.882-0.021c-1.036,0-2.023-0.224-2.961-0.672
			c-0.938-0.447-1.785-1.036-2.541-1.764c-0.756-0.729-1.407-1.555-1.953-2.479s-0.932-1.861-1.155-2.813
			c-0.225-0.757-0.371-1.526-0.44-2.311c-0.07-0.783-0.204-1.554-0.399-2.31V31.938z"/>
		<path d="M28.218,44.79c0.588-0.392,1.246-0.588,1.975-0.588c0.392,0,0.776,0.035,1.154,0.105s0.763,0.104,1.155,0.104
			c0.027,0,0.153-0.007,0.378-0.021c0.224-0.014,0.447-0.042,0.672-0.084c0.224-0.042,0.434-0.098,0.63-0.168
			s0.294-0.147,0.294-0.231V25.345c0.141-0.28,0.225-0.525,0.252-0.735c0.028-0.21,0.042-0.455,0.042-0.735
			c0-0.056-0.007-0.146-0.021-0.272c-0.015-0.126-0.021-0.203-0.021-0.231l-0.168-0.252h-4.451c-0.309,0-0.616-0.076-0.925-0.23
			c-0.308-0.154-0.588-0.357-0.84-0.609s-0.462-0.531-0.63-0.84c-0.168-0.308-0.252-0.616-0.252-0.924
			c0-0.336,0.084-0.645,0.252-0.925c0.168-0.279,0.385-0.518,0.651-0.714c0.266-0.195,0.566-0.342,0.902-0.44
			c0.337-0.098,0.658-0.147,0.967-0.147c0.224,0,0.412,0.008,0.566,0.021c0.153,0.014,0.371,0.091,0.651,0.23h6.72
			c0.447,0.252,1.063,0.364,1.848,0.336c0.784-0.027,1.555-0.014,2.311,0.042c0.756,0.057,1.407,0.225,1.953,0.504
			c0.546,0.28,0.818,0.854,0.818,1.723c0,0.813-0.245,1.337-0.734,1.575c-0.49,0.237-1.1,0.356-1.827,0.356
			c-0.532,0-1.036-0.034-1.512-0.104c-0.477-0.07-0.98-0.105-1.513-0.105h-0.84l-0.168,0.168v7.056
			c0.084,0.309,0.133,0.554,0.147,0.735c0.014,0.183,0.021,0.413,0.021,0.693c0,0.252-0.007,0.477-0.021,0.672
			c-0.015,0.196-0.063,0.435-0.147,0.714v11.004l0.504,0.546h4.074c0.252,0,0.518,0.057,0.798,0.168
			c0.28,0.112,0.532,0.26,0.756,0.441c0.225,0.183,0.413,0.398,0.567,0.65c0.153,0.252,0.231,0.505,0.231,0.757
			c0,0.813-0.315,1.435-0.945,1.868c-0.63,0.435-1.31,0.651-2.037,0.651h-5.754c-0.364-0.141-0.806-0.203-1.323-0.188
			c-0.519,0.014-0.931,0.021-1.239,0.021c-0.645,0-1.246,0.027-1.806,0.084c-0.561,0.056-1.162,0.084-1.806,0.084
			c-0.393,0-0.777-0.035-1.155-0.104c-0.378-0.07-0.722-0.196-1.029-0.379c-0.309-0.182-0.553-0.426-0.734-0.734
			c-0.183-0.308-0.273-0.7-0.273-1.176C27.336,45.784,27.63,45.183,28.218,44.79z"/>
		<path d="M49.764,22.446c-0.42-0.027-0.834-0.069-1.239-0.126c-0.406-0.056-0.777-0.161-1.113-0.315
			c-0.336-0.153-0.603-0.384-0.798-0.692c-0.196-0.308-0.294-0.728-0.294-1.26c0-0.448,0.153-0.875,0.462-1.281
			c0.308-0.405,0.7-0.609,1.176-0.609h7.393c0.56,0,1.008,0.218,1.344,0.651c0.336,0.435,0.504,0.902,0.504,1.407
			c0,0.476-0.091,0.84-0.272,1.092c-0.183,0.252-0.414,0.448-0.693,0.588c-0.28,0.141-0.596,0.245-0.945,0.314
			c-0.351,0.07-0.707,0.147-1.07,0.231c-0.112,0-0.168,0.057-0.168,0.168l2.226,8.526v1.176l2.058,7.854
			c0.056,0.196,0.154,0.364,0.294,0.504c0.141-0.056,0.259-0.188,0.357-0.398c0.098-0.21,0.147-0.343,0.147-0.399l2.31-9.197
			c0.056-1.036,0.217-2.037,0.483-3.004c0.266-0.966,0.538-1.938,0.818-2.919c0.14-0.476,0.231-0.798,0.273-0.966
			s0.063-0.434,0.063-0.798c0-0.056,0.007-0.153,0.021-0.294c0.014-0.14-0.05-0.224-0.189-0.252c-0.729,0-1.379-0.245-1.953-0.735
			c-0.574-0.489-0.86-1.099-0.86-1.826c0-0.477,0.153-0.883,0.462-1.219c0.308-0.336,0.714-0.504,1.218-0.504h5.418
			c0.336,0,0.699,0.042,1.092,0.126c0.392,0.084,0.763,0.218,1.113,0.399c0.35,0.183,0.644,0.413,0.882,0.692
			c0.237,0.28,0.357,0.616,0.357,1.009c0,0.448-0.084,0.805-0.252,1.07c-0.168,0.267-0.386,0.462-0.651,0.588
			c-0.267,0.126-0.581,0.218-0.945,0.273c-0.364,0.057-0.729,0.099-1.092,0.126c-0.393,0.309-0.672,0.687-0.84,1.134
			c-0.448,1.849-0.875,3.661-1.281,5.439s-0.86,3.591-1.365,5.438c-0.195,0.729-0.371,1.506-0.524,2.331
			c-0.154,0.826-0.413,1.575-0.777,2.247l-1.638,7.729c-0.112,0.42-0.413,0.826-0.903,1.218c-0.49,0.393-0.986,0.588-1.491,0.588
			c-0.476,0-0.966-0.147-1.47-0.441s-0.91-0.636-1.218-1.028c-0.225-0.28-0.393-0.588-0.504-0.924
			c-0.112-0.337-0.189-0.687-0.231-1.051c-0.042-0.363-0.077-0.728-0.104-1.092c-0.028-0.363-0.084-0.714-0.168-1.05
			c-0.309-1.596-0.693-3.156-1.155-4.683s-0.89-3.088-1.281-4.684c-0.141-0.504-0.225-1.021-0.252-1.554
			c-0.028-0.531-0.112-1.05-0.252-1.554c0-0.057-0.035-0.189-0.104-0.399c-0.07-0.21-0.147-0.434-0.231-0.672
			c-0.084-0.237-0.161-0.462-0.23-0.672c-0.07-0.21-0.105-0.343-0.105-0.399c-0.028-0.111-0.091-0.385-0.188-0.819
			c-0.099-0.434-0.196-0.902-0.295-1.406c-0.098-0.504-0.195-0.973-0.294-1.407c-0.098-0.434-0.161-0.707-0.188-0.819
			c-0.084-0.308-0.168-0.595-0.252-0.86C50.268,22.789,50.071,22.587,49.764,22.446z"/>
		<path d="M73.619,45.924c0.056-0.308,0.147-0.588,0.273-0.84s0.3-0.454,0.524-0.608c0.224-0.154,0.519-0.231,0.882-0.231h0.253
			c0.056,0.028,0.216,0.063,0.482,0.105c0.266,0.042,0.427,0.063,0.483,0.063h0.084c0.14,0,0.328-0.014,0.566-0.042
			c0.238-0.027,0.483-0.063,0.735-0.104s0.489-0.084,0.714-0.126c0.224-0.042,0.405-0.063,0.546-0.063
			c0.168-0.111,0.294-0.314,0.378-0.608c0.084-0.295,0.126-0.525,0.126-0.693l-0.084-9.87v-0.798l-0.084-5.754
			c0.14-0.364,0.203-0.777,0.189-1.239c-0.015-0.462-0.021-0.861-0.021-1.197v-1.05l-0.336-0.294
			c-0.028-0.027-0.141-0.042-0.336-0.042c-0.196,0-0.351,0-0.462,0c-0.477,0-0.931,0.035-1.365,0.105
			c-0.435,0.069-0.889,0.104-1.364,0.104c-0.757,0-1.373-0.168-1.849-0.504c-0.477-0.336-0.714-0.909-0.714-1.722
			c0-0.672,0.195-1.239,0.588-1.701c0.392-0.462,0.952-0.693,1.681-0.693c3.415,0,6.817,0.035,10.205,0.105s6.79,0.091,10.206,0.063
			c0.42,0.057,0.771,0.322,1.051,0.798c0.279,0.477,0.42,0.925,0.42,1.345v8.861c0,0.504-0.183,0.91-0.546,1.219
			c-0.364,0.308-0.784,0.462-1.261,0.462c-0.393,0-0.776-0.141-1.154-0.42c-0.378-0.28-0.567-0.645-0.567-1.093v-4.452
			c0-0.027-0.091-0.21-0.273-0.546c-0.182-0.336-0.329-0.588-0.44-0.756c-0.141-0.168-0.371-0.398-0.693-0.692
			s-0.595-0.441-0.818-0.441h-8.022l-0.168,0.168c0,0.168-0.007,0.483-0.021,0.945c-0.015,0.462-0.036,0.944-0.063,1.449
			c-0.028,0.504-0.049,0.979-0.063,1.428c-0.014,0.448-0.021,0.756-0.021,0.924c0,0.057-0.028,0.225-0.084,0.504
			c-0.057,0.28-0.084,0.448-0.084,0.504v0.084v0.042c0.027,0.141,0.056,0.315,0.084,0.525c0.027,0.21,0.063,0.406,0.104,0.588
			c0.043,0.183,0.091,0.413,0.147,0.693l0.168,0.168h2.142c0.309-0.225,0.651-0.406,1.029-0.547c0.378-0.14,0.679-0.392,0.903-0.756
			c0.195-0.308,0.308-0.721,0.336-1.238c0.027-0.519,0.069-1.029,0.126-1.533c0.056-0.504,0.182-0.938,0.378-1.302
			c0.195-0.364,0.573-0.547,1.134-0.547c0.448,0,0.812,0.162,1.092,0.483c0.28,0.322,0.42,0.722,0.42,1.197v13.775
			c0,0.896-0.434,1.345-1.302,1.345c-0.561,0-0.98-0.175-1.26-0.525c-0.28-0.35-0.477-0.77-0.588-1.26
			c-0.112-0.49-0.168-1.001-0.168-1.533c0-0.531,0-0.966,0-1.302c-0.057-0.14-0.168-0.35-0.336-0.63s-0.372-0.553-0.609-0.819
			c-0.238-0.266-0.477-0.504-0.714-0.714c-0.238-0.21-0.441-0.315-0.609-0.315h-1.806c-0.112,0-0.168,0.057-0.168,0.168
			c-0.057,0.057-0.112,0.168-0.168,0.336v9.198l0.336,0.336h4.242c0.672-0.195,1.281-0.286,1.827-0.272s1.05,0.007,1.512-0.021
			c0.462-0.027,0.889-0.146,1.281-0.356c0.392-0.21,0.77-0.651,1.134-1.323c0.056-0.084,0.126-0.217,0.21-0.399
			c0.084-0.182,0.126-0.314,0.126-0.398v-4.116c0-0.476,0.168-0.896,0.504-1.26s0.742-0.546,1.218-0.546
			c0.588,0,1.064,0.272,1.429,0.818c0.363,0.546,0.546,1.086,0.546,1.617v5.754c0.14,0.309,0.217,0.567,0.23,0.777
			s0.021,0.469,0.021,0.776c0,1.036-0.309,1.835-0.924,2.395c-0.616,0.561-1.429,0.84-2.437,0.84c-0.309,0-0.603,0-0.882,0
			c-0.252,0-0.532-0.056-0.84-0.168H78.995c-0.364,0.141-0.771,0.203-1.218,0.189c-0.448-0.015-0.84-0.021-1.176-0.021
			c-0.393,0-0.771-0.007-1.134-0.021c-0.364-0.014-0.693-0.084-0.987-0.21s-0.525-0.314-0.693-0.566s-0.252-0.615-0.252-1.092
			C73.535,46.526,73.563,46.232,73.619,45.924z"/>
	</g>
	<g>
		<g>
			<g>
				<g>
					<path d="M137.27,12.219c10.3,0,20.601,0,30.9,0c0.645,0,1.288,0,1.933,0c0.743,0-0.16-1.185-0.344-0.452
						c-0.494,1.964-0.988,3.928-1.482,5.893c-1.59,6.322-3.18,12.646-4.771,18.968c-0.817,3.254-1.269,7.324-3.417,10.027
						c-3.675,4.624-11.852,2.811-13.99-2.314c-0.362-0.869-0.518-1.901-0.743-2.81c-2.495-10.034-4.989-20.068-7.483-30.103
						c-0.194-0.782-1.399-0.45-1.205,0.332c2.065,8.31,4.131,16.62,6.197,24.93c1.673,6.729,2.463,13.183,10.947,13.76
						c8.174,0.557,9.41-7.564,10.9-13.49c2.112-8.399,4.225-16.799,6.337-25.199c0.099-0.393-0.189-0.791-0.603-0.791
						c-11.059,0-22.118,0-33.177,0C136.464,10.969,136.464,12.219,137.27,12.219z"/>
				</g>
			</g>
			<g>
				<g>
					<path d="M144.738,44.125c0,4.229,0,8.456,0,12.685c0,0.341,0.284,0.625,0.625,0.625c5.604,0,11.208,0,16.812,0
						c0.341,0,0.625-0.284,0.625-0.625c0-4.166,0-8.333,0-12.499c0-0.806-1.25-0.806-1.25,0c0,3.815,0,7.631,0,11.445
						c0,1.439-0.192,0.429,0.591,0.429c-0.489,0-0.979,0-1.467,0c-2.302,0-4.604,0-6.904,0c-2.162,0-4.323,0-6.484,0
						c-0.596,0-1.191,0-1.787,0c0.542,0,0.49,1.046,0.49-0.376c0-3.895,0-7.789,0-11.684
						C145.988,43.319,144.738,43.319,144.738,44.125L144.738,44.125z"/>
				</g>
			</g>
		</g>
		<g>
			<g>
				<path d="M143.023,21.567h21.492l-5.121,20.36c0,0-0.714,4.466-5.655,4.406c-4.941-0.061-5.596-4.167-5.596-4.167L143.023,21.567
					z"/>
			</g>
		</g>
	</g>
	<g>
		<g>
			<g>
				<g>
					<path d="M101.436,12.219c10.3,0,20.601,0,30.9,0c0.645,0,1.288,0,1.933,0c0.743,0-0.16-1.185-0.344-0.452
						c-0.494,1.964-0.988,3.928-1.482,5.893c-1.59,6.322-3.18,12.646-4.771,18.968c-0.817,3.254-1.269,7.324-3.417,10.027
						c-3.675,4.624-11.852,2.811-13.99-2.314c-0.362-0.869-0.518-1.901-0.743-2.81c-2.495-10.034-4.989-20.068-7.483-30.103
						c-0.194-0.782-1.399-0.45-1.205,0.332c2.065,8.31,4.131,16.62,6.197,24.93c1.673,6.729,2.463,13.183,10.947,13.76
						c8.174,0.557,9.41-7.564,10.9-13.49c2.112-8.399,4.225-16.799,6.337-25.199c0.099-0.393-0.189-0.791-0.603-0.791
						c-11.059,0-22.118,0-33.177,0C100.63,10.969,100.63,12.219,101.436,12.219z"/>
				</g>
			</g>
			<g>
				<g>
					<path d="M108.904,44.125c0,4.229,0,8.456,0,12.685c0,0.341,0.284,0.625,0.625,0.625c5.604,0,11.208,0,16.812,0
						c0.341,0,0.625-0.284,0.625-0.625c0-4.166,0-8.333,0-12.499c0-0.806-1.25-0.806-1.25,0c0,3.815,0,7.631,0,11.445
						c0,1.439-0.192,0.429,0.591,0.429c-0.489,0-0.979,0-1.467,0c-2.302,0-4.604,0-6.904,0c-2.162,0-4.323,0-6.484,0
						c-0.596,0-1.191,0-1.787,0c0.542,0,0.49,1.046,0.49-0.376c0-3.895,0-7.789,0-11.684
						C110.154,43.319,108.904,43.319,108.904,44.125L108.904,44.125z"/>
				</g>
			</g>
		</g>
		<g>
			<g>
				<path d="M107.189,21.567h21.492l-5.121,20.36c0,0-0.714,4.466-5.655,4.406c-4.941-0.061-5.596-4.167-5.596-4.167L107.189,21.567
					z"/>
			</g>
		</g>
	</g>
	<g>
		<g>
			<g>
				<g>
					<path d="M173.437,12.218c10.3,0,20.601,0,30.9,0c0.645,0,1.288,0,1.933,0c0.743,0-0.16-1.185-0.344-0.452
						c-0.494,1.964-0.988,3.928-1.482,5.893c-1.59,6.322-3.18,12.646-4.771,18.968c-0.817,3.254-1.269,7.324-3.417,10.027
						c-3.675,4.624-11.852,2.811-13.99-2.314c-0.362-0.869-0.518-1.901-0.743-2.81c-2.495-10.034-4.989-20.068-7.483-30.103
						c-0.194-0.782-1.399-0.45-1.205,0.332c2.065,8.31,4.131,16.62,6.197,24.93c1.673,6.729,2.463,13.183,10.947,13.76
						c8.174,0.557,9.41-7.564,10.9-13.49c2.112-8.399,4.225-16.799,6.337-25.199c0.099-0.393-0.189-0.791-0.603-0.791
						c-11.059,0-22.118,0-33.177,0C172.631,10.968,172.631,12.218,173.437,12.218z"/>
				</g>
			</g>
			<g>
				<g>
					<path d="M180.905,44.124c0,4.229,0,8.456,0,12.685c0,0.341,0.284,0.625,0.625,0.625c5.604,0,11.208,0,16.812,0
						c0.341,0,0.625-0.284,0.625-0.625c0-4.166,0-8.333,0-12.499c0-0.806-1.25-0.806-1.25,0c0,3.815,0,7.631,0,11.445
						c0,1.439-0.192,0.429,0.591,0.429c-0.489,0-0.979,0-1.467,0c-2.302,0-4.604,0-6.904,0c-2.162,0-4.323,0-6.484,0
						c-0.596,0-1.191,0-1.787,0c0.542,0,0.49,1.046,0.49-0.376c0-3.895,0-7.789,0-11.684
						C182.155,43.318,180.905,43.318,180.905,44.124L180.905,44.124z"/>
				</g>
			</g>
		</g>
		<g>
			<g>
				<path d="M179.19,21.566h21.492l-5.121,20.36c0,0-0.714,4.466-5.655,4.406c-4.941-0.061-5.596-4.167-5.596-4.167L179.19,21.566z"
					/>
			</g>
		</g>
	</g>
</g>
<g id="give_2">
</g>
<g id="rewind">
</g>
<g id="Cryptkeeper">
</g>
<g id="Take_2_and_Redo">
</g>
<g id="Embryo">
</g>
<g id="I_am_Groot">
</g>
<g id="Mini_Me">
</g>
<g id="Ditto_1_">
</g>
<g id="reverse">
</g>
</svg>
