<?xml version="1.0" encoding="utf-8"?>
<!-- Generator: Adobe Illustrator 16.0.0, SVG Export Plug-In . SVG Version: 6.00 Build 0)  -->
<!DOCTYPE svg PUBLIC "-//W3C//DTD SVG 1.1//EN" "http://www.w3.org/Graphics/SVG/1.1/DTD/svg11.dtd">
<svg version="1.1" xmlns="http://www.w3.org/2000/svg" xmlns:xlink="http://www.w3.org/1999/xlink" x="0px" y="0px"
	 width="209.759px" height="62.361px" viewBox="0 0 209.759 62.361" enable-background="new 0 0 209.759 62.361"
	 xml:space="preserve">
<g id="Layer_1">
</g>
<g id="Blindman">
</g>
<g id="Compliments">
</g>
<g id="HAT">
</g>
<g id="speech">
</g>
<g id="TREX_ARMS">
</g>
<g id="slim_shady">
</g>
<g id="TIMEOUT">
</g>
<g id="Truth_or_Dare">
</g>
<g id="ARM_WRESTLE">
</g>
<g id="musical_chairs">
</g>
<g id="never_have_i_ever">
</g>
<g id="Trivia">
</g>
<g id="Drink_Pulling">
</g>
<g id="Sharing_is_Caring">
</g>
<g id="Not_It">
</g>
<g id="Cocktail_of_Doom">
</g>
<g id="Heads_up">
</g>
<g id="Archenemy">
</g>
<g id="battle_of_the_sexes">
</g>
<g id="one_must_drink">
</g>
<g id="rainbow_connection">
</g>
<g id="social_drinking">
</g>
<g id="Spin_the_bottle">
</g>
<g id="accents">
</g>
<g id="Slap">
</g>
<g id="down_the_hatch">
</g>
<g id="rubiks_cube">
</g>
<g id="bar_tender">
</g>
<g id="codenames">
</g>
<g id="hand_switch">
</g>
<g id="make_a_rule">
</g>
<g id="no_guts_no_glory">
</g>
<g id="pass">
</g>
<g id="santa">
</g>
<g id="snake_eyes">
</g>
<g id="lightning_round">
</g>
<g id="Bro">
</g>
<g id="LeastDrunk">
</g>
<g id="Know_It_All">
	<g id="Layer_94">
	</g>
</g>
<g id="EyeContact">
</g>
<g id="UnderGuesser">
</g>
<g id="GodSaveTheQUeen">
</g>
<g id="Ghost">
</g>
<g id="Fortune_Teller">
</g>
<g id="DrinkSwap">
</g>
<g id="DickTator">
</g>
<g id="_x34_Eyes">
</g>
<g id="BabyTalk">
</g>
<g id="Backseat_Driver">
</g>
<g id="BAtman">
</g>
<g id="bodyguard">
</g>
<g id="BuckleUp">
</g>
<g id="RockPaperScissors">
</g>
<g id="Roger_Roger">
</g>
<g id="RoyaleWe">
</g>
<g id="Skip">
</g>
<g id="SwineRules">
</g>
<g id="Touchy_Feeley">
</g>
<g id="Wasted_Education">
</g>
<g id="Layer_86">
</g>
<g id="PointOfNoReturn">
</g>
<g id="Pirate">
</g>
<g id="Thief">
</g>
<g id="DepthPerception">
</g>
<g id="Narcissist">
</g>
<g id="MammaBird">
</g>
<g id="Staringcontest">
</g>
<g id="Cartwheel">
	<g>
		<g id="line">
			<path fill="none" stroke="#000000" stroke-width="2" stroke-linecap="round" stroke-linejoin="round" stroke-miterlimit="10" d="
				M25.934,23.996"/>
			<path fill="none" stroke="#000000" stroke-width="2" stroke-linecap="round" stroke-linejoin="round" stroke-miterlimit="10" d="
				M42.099,43.433"/>
			<ellipse cx="21.216" cy="31.356" rx="2.741" ry="4.937"/>
			<ellipse cx="35.71" cy="31.358" rx="2.742" ry="4.938"/>
			<path fill="none" stroke="#000000" stroke-width="2" stroke-linecap="round" stroke-linejoin="round" stroke-miterlimit="10" d="
				M48.964,31.453c0.336,1.493,0.515,3.046,0.515,4.638c0,11.605-9.408,21.016-21.015,21.016c-11.607,0-21.016-9.41-21.016-21.016
				c0-1.592,0.178-3.145,0.514-4.638"/>
			<path fill="none" stroke="#000000" stroke-width="2" stroke-linecap="round" stroke-linejoin="round" stroke-miterlimit="10" d="
				M28.464,22.674c8.468-0.116,14.011-2.247,14.011-2.247c2.361,2.116,4.244,4.759,5.46,7.743c0,0,9.681-7.641,2.098-13.803
				c0,0-3.662-3.526-9.171,1.505c0,0-3.55,3.348-12.397,3.385c-8.847-0.037-12.398-3.385-12.398-3.385
				c-5.51-5.031-9.171-1.505-9.171-1.505C-0.688,20.529,8.991,28.17,8.991,28.17c1.218-2.984,3.098-5.627,5.461-7.743
				C14.452,20.427,19.996,22.558,28.464,22.674z"/>
			<path fill="none" stroke="#000000" stroke-width="2" stroke-linecap="round" stroke-linejoin="round" stroke-miterlimit="10" d="
				M28.464,19.257c5.529-0.022,8.924-1.305,10.742-2.287c0,0-1.494-0.522-1.271-2.541c0.066-0.603,0.324-1.488,0.649-2.33
				c0.585-1.51,0.178-2.713-3.759-4.691c0,0-1.903-0.951-2.577-1.165c-0.989-0.312-2.68-0.566-3.784,0.747
				c-1.105-1.313-2.797-1.059-3.787-0.747c-0.672,0.214-2.576,1.165-2.576,1.165c-3.936,1.979-4.343,3.182-3.76,4.691
				c0.327,0.842,0.584,1.728,0.65,2.33c0.223,2.019-1.27,2.541-1.27,2.541C19.539,17.952,22.935,19.234,28.464,19.257L28.464,19.257
				z"/>
			<path fill="none" stroke="#000000" stroke-width="2" stroke-linecap="round" stroke-linejoin="round" d="M41.799,41.244
				c0.012,1.408-0.26,2.802-0.796,4.102c-11.411,2.77-23.236,0.313-25.116-0.117c-0.511-1.267-0.77-2.62-0.761-3.984h0.101
				c0,0,13.524,3.28,26.398,0.063L41.799,41.244z"/>
			<path fill="none" stroke="#000000" stroke-width="2" stroke-linecap="round" stroke-linejoin="round" d="M41.003,45.346
				c-1.635,3.901-5.802,6.607-12.508,6.607c-6.77,0-10.992-2.769-12.608-6.725C17.767,45.658,29.592,48.115,41.003,45.346z"/>
		</g>
		<g id="line_1_">
			
				<circle fill="none" stroke="#000000" stroke-width="2" stroke-linecap="round" stroke-linejoin="round" cx="77.086" cy="36.292" r="21.722"/>
			<path fill="none" stroke="#000000" stroke-width="2" stroke-linecap="round" stroke-linejoin="round" d="M67.815,27.859
				c2.738-1.545,5.901-2.429,9.271-2.429s6.532,0.884,9.271,2.429"/>
			<path d="M82.753,41.016c0-1.565,1.271-2.834,2.832-2.834c1.565,0,2.836,1.269,2.836,2.834c0,1.562-1.271,2.832-2.836,2.832
				C84.023,43.848,82.753,42.577,82.753,41.016"/>
			<path d="M65.752,41.016c0-1.565,1.27-2.834,2.835-2.834c1.562,0,2.832,1.269,2.832,2.834c0,1.562-1.271,2.832-2.832,2.832
				C67.021,43.848,65.752,42.577,65.752,41.016"/>
		</g>
		<g id="line_2_">
			
				<circle fill="none" stroke="#000000" stroke-width="2" stroke-linecap="round" stroke-linejoin="round" cx="125.802" cy="36.292" r="21.722"/>
			<ellipse cx="118.781" cy="31.398" rx="2.834" ry="5.104"/>
			<ellipse cx="132.819" cy="31.402" rx="2.833" ry="5.103"/>
			<path fill="none" stroke="#000000" stroke-width="2" stroke-linecap="round" stroke-linejoin="round" d="M139.585,41.619
				c0.012,1.453-0.269,2.896-0.822,4.24c-11.795,2.861-24.017,0.321-25.963-0.122c-0.526-1.309-0.793-2.708-0.783-4.118h0.104
				c0,0,13.977,3.39,27.284,0.066L139.585,41.619z"/>
			<path fill="none" stroke="#000000" stroke-width="2" stroke-linecap="round" stroke-linejoin="round" d="M138.763,45.859
				c-1.691,4.033-5.997,6.828-12.929,6.828c-6.999,0-11.361-2.861-13.034-6.95C114.746,46.181,126.968,48.721,138.763,45.859z"/>
		</g>
	</g>
	<g>
		<path fill="none" d="M147.359,53.421c0,0-5.229-18.779-2.852-25.849c2.379-7.069,11.521-18.312,17.145-17.317
			c5.621,0.996,14.778,7.823,17.544,15.092c2.765,7.27,0.759,34.951,0.759,34.951"/>
		<path d="M146.784,18.624c-0.176-0.043-0.355-0.092-0.545-0.146c-0.188-0.056-0.365-0.105-0.531-0.149s-0.285-0.079-0.355-0.107
			c-0.324-0.097-0.605-0.237-0.844-0.419c-0.238-0.183-0.506-0.341-0.799-0.475l-1.455-1.206c-0.096-0.128-0.209-0.258-0.33-0.393
			c-0.125-0.132-0.236-0.25-0.34-0.352l-1.461-2.214c-0.059-0.08-0.117-0.212-0.178-0.394c-0.059-0.182-0.111-0.376-0.156-0.587
			c-0.047-0.208-0.084-0.411-0.115-0.608s-0.049-0.352-0.049-0.463c0.012-0.051,0.031-0.136,0.059-0.255
			c0.027-0.116,0.055-0.239,0.082-0.364c0.025-0.127,0.053-0.249,0.08-0.366s0.047-0.202,0.059-0.255
			c0.039-0.139,0.105-0.263,0.203-0.37c0.096-0.107,0.182-0.206,0.258-0.3c0.293-0.351,0.604-0.613,0.938-0.79
			c0.332-0.176,0.725-0.35,1.178-0.52l0.047-0.056c0.045-0.055,0.055-0.132,0.029-0.232c-0.027-0.099-0.057-0.206-0.088-0.317
			c-0.031-0.112-0.049-0.232-0.053-0.359c-0.002-0.128,0.041-0.247,0.133-0.358c0.092-0.109,0.197-0.18,0.313-0.208
			c0.117-0.027,0.234-0.028,0.352-0.001c0.117,0.028,0.23,0.074,0.338,0.142c0.109,0.066,0.211,0.138,0.303,0.215
			c0.102,0.083,0.191,0.177,0.27,0.281c0.078,0.104,0.168,0.197,0.27,0.281l0.027,0.023c0.035,0.014,0.1,0.048,0.195,0.104
			c0.096,0.054,0.156,0.094,0.184,0.116l1.676,1.39c0.074,0.062,0.146,0.149,0.217,0.261c0.07,0.113,0.129,0.236,0.174,0.368
			c0.047,0.133,0.07,0.264,0.07,0.396c0,0.132-0.035,0.24-0.104,0.322c-0.123,0.148-0.275,0.217-0.453,0.208
			c-0.18-0.009-0.361-0.053-0.545-0.133c-0.182-0.082-0.355-0.179-0.52-0.291c-0.162-0.112-0.297-0.189-0.404-0.231
			c-0.258-0.12-0.484-0.214-0.678-0.28c-0.193-0.067-0.385-0.105-0.572-0.113c-0.189-0.008-0.383,0.015-0.584,0.067
			c-0.199,0.054-0.424,0.137-0.678,0.256c-0.025,0.01-0.061,0.03-0.109,0.061c-0.049,0.029-0.076,0.05-0.084,0.059l-0.76,0.915
			c-0.006,0.009-0.012,0.031-0.02,0.066c-0.004,0.033-0.01,0.064-0.016,0.091c-0.029,0.318-0.012,0.645,0.053,0.979
			c0.066,0.336,0.168,0.66,0.303,0.976c0.137,0.315,0.305,0.611,0.506,0.887c0.199,0.275,0.424,0.516,0.674,0.723l1.732,1.435
			c0.027,0.007,0.08,0.036,0.16,0.088c0.082,0.053,0.137,0.082,0.164,0.088c0.307,0.192,0.629,0.37,0.963,0.529
			c0.334,0.161,0.672,0.273,1.016,0.34s0.691,0.069,1.043,0.011c0.352-0.058,0.691-0.21,1.018-0.453
			c0.008-0.009,0.043-0.046,0.105-0.111c0.063-0.066,0.107-0.117,0.139-0.154c0.277-0.332,0.434-0.678,0.473-1.034
			c0.039-0.357,0.004-0.712-0.1-1.064c-0.105-0.353-0.256-0.698-0.449-1.038s-0.381-0.663-0.563-0.971
			c-0.094-0.265-0.061-0.493,0.1-0.687c0.102-0.121,0.205-0.194,0.313-0.222c0.109-0.027,0.219-0.024,0.334,0.007
			c0.113,0.033,0.223,0.089,0.328,0.168s0.205,0.158,0.297,0.234c0.342,0.283,0.637,0.656,0.885,1.119
			c0.246,0.463,0.42,0.951,0.514,1.466c0.096,0.516,0.105,1.024,0.033,1.524c-0.07,0.502-0.26,0.938-0.566,1.307
			c-0.459,0.555-1.01,0.994-1.654,1.318c-0.643,0.324-1.336,0.427-2.08,0.309C147.081,18.693,146.958,18.667,146.784,18.624z"/>
		<path d="M150.958,9.532c0.064-0.492,0.244-0.921,0.537-1.288c0.295-0.367,0.656-0.69,1.086-0.967
			c0.43-0.278,0.826-0.535,1.191-0.771c0.363-0.235,0.65-0.463,0.857-0.684c0.211-0.221,0.246-0.458,0.111-0.712
			c-0.096-0.18-0.219-0.332-0.367-0.456c-0.148-0.125-0.334-0.19-0.553-0.195c-0.082,0.002-0.201,0.006-0.363,0.01
			c-0.16,0.004-0.246,0.01-0.256,0.016l-1.492,0.797c-0.086,0.046-0.119,0.123-0.104,0.229c0.016,0.107,0.047,0.234,0.092,0.381
			c0.045,0.146,0.092,0.308,0.146,0.482c0.053,0.177,0.08,0.349,0.082,0.518c0.002,0.17-0.039,0.334-0.123,0.494
			c-0.086,0.162-0.238,0.301-0.461,0.419c-0.338,0.182-0.676,0.219-1.012,0.113c-0.336-0.107-0.592-0.323-0.766-0.652
			c-0.104-0.189-0.162-0.377-0.176-0.56c-0.016-0.182-0.006-0.364,0.033-0.548c0.037-0.184,0.094-0.367,0.172-0.553
			c0.078-0.184,0.162-0.36,0.248-0.529c0.072-0.147,0.145-0.304,0.219-0.474c0.07-0.168,0.193-0.297,0.361-0.389l2.447-1.266
			c0.137-0.074,0.33-0.103,0.576-0.086c0.248,0.018,0.5,0.058,0.76,0.123s0.502,0.151,0.73,0.26s0.391,0.218,0.49,0.326
			c0.027,0.026,0.074,0.076,0.141,0.149s0.135,0.147,0.205,0.227c0.066,0.079,0.131,0.152,0.189,0.223
			c0.059,0.071,0.096,0.122,0.113,0.153l0.262,0.49c0.066,0.126,0.146,0.27,0.238,0.43c0.094,0.162,0.146,0.318,0.162,0.473
			l1.428,2.67c0.156,0.296,0.363,0.376,0.617,0.24c0.168-0.091,0.236-0.221,0.199-0.393c-0.037-0.171-0.09-0.356-0.158-0.56
			c-0.064-0.202-0.104-0.396-0.115-0.58c-0.012-0.186,0.096-0.337,0.318-0.456c0.117-0.063,0.232-0.083,0.352-0.066
			c0.119,0.019,0.23,0.062,0.334,0.129c0.104,0.066,0.195,0.15,0.277,0.25c0.08,0.1,0.148,0.203,0.205,0.309
			c0.125,0.232,0.211,0.485,0.262,0.758s0.059,0.537,0.027,0.792c-0.035,0.257-0.117,0.495-0.252,0.717
			c-0.133,0.22-0.328,0.397-0.582,0.534c-0.199,0.107-0.387,0.178-0.561,0.208c-0.174,0.032-0.381,0.038-0.625,0.018
			c-0.08,0.002-0.162-0.019-0.246-0.063c-0.086-0.044-0.17-0.085-0.254-0.129s-0.17-0.076-0.256-0.099
			c-0.086-0.021-0.166-0.013-0.24,0.027l-0.08,0.042c-0.109,0.154-0.211,0.324-0.309,0.513c-0.096,0.187-0.197,0.374-0.303,0.559
			c-0.104,0.187-0.223,0.358-0.357,0.518c-0.131,0.159-0.287,0.287-0.467,0.382l-1.43,0.765c-0.115,0.063-0.232,0.088-0.348,0.074
			c-0.117-0.013-0.23-0.022-0.344-0.03c-0.57-0.022-1.053-0.17-1.449-0.44s-0.727-0.655-0.994-1.153
			C151.038,10.595,150.896,10.022,150.958,9.532z M152.827,10.849c0.094,0.101,0.199,0.189,0.316,0.27s0.238,0.135,0.363,0.164
			c0.123,0.029,0.238,0.015,0.346-0.042l1.619-0.865c0.012-0.007,0.035-0.04,0.078-0.104c0.041-0.063,0.076-0.115,0.107-0.16
			c0.01-0.031,0.043-0.091,0.1-0.175c0.057-0.085,0.092-0.139,0.109-0.161c0.25-0.473,0.367-0.89,0.352-1.249
			c-0.016-0.358-0.145-0.767-0.387-1.222l-0.102-0.19c-0.012,0.006-0.035,0.01-0.076,0.01c-0.041,0.002-0.066,0.006-0.076,0.011
			c-0.018-0.005-0.031-0.005-0.041,0l-0.023,0.033c-0.031,0.017-0.111,0.077-0.24,0.181c-0.129,0.103-0.266,0.21-0.41,0.32
			c-0.145,0.112-0.281,0.219-0.41,0.321c-0.127,0.103-0.209,0.163-0.24,0.18c-0.232,0.179-0.471,0.348-0.719,0.508
			c-0.248,0.159-0.492,0.33-0.734,0.514c-0.133,0.085-0.209,0.234-0.23,0.45c-0.014,0.102-0.018,0.254-0.012,0.455
			s0.039,0.359,0.102,0.477C152.663,10.657,152.733,10.749,152.827,10.849z"/>
		<path d="M160.421,8.065c0.225-0.094,0.469-0.1,0.732-0.017c0.16,0.051,0.313,0.113,0.459,0.191
			c0.145,0.077,0.303,0.143,0.475,0.197c0.047,0.014,0.113,0.032,0.201,0.052c0.086,0.021,0.137,0.033,0.148,0.037l0.09-0.046
			c0.016-0.046,0.041-0.12,0.08-0.221c0.037-0.102,0.078-0.212,0.121-0.329c0.043-0.119,0.088-0.23,0.135-0.336
			c0.045-0.105,0.074-0.181,0.088-0.227c0.008-0.022,0.035-0.077,0.08-0.163c0.047-0.087,0.078-0.14,0.098-0.159l0.494-1.694
			l0.102-0.325l0.533-2.06l-0.094-0.181c-0.059-0.019-0.154-0.051-0.289-0.1c-0.137-0.049-0.283-0.102-0.441-0.158
			c-0.158-0.056-0.305-0.11-0.438-0.165c-0.137-0.054-0.23-0.091-0.287-0.108c-0.223-0.096-0.387-0.244-0.492-0.447
			s-0.123-0.419-0.051-0.648c0.07-0.229,0.201-0.404,0.391-0.528c0.191-0.122,0.406-0.146,0.646-0.07
			c0.012,0.004,0.027,0.01,0.051,0.017c0.033,0.011,0.049,0.022,0.045,0.033c0.178,0.08,0.402,0.153,0.678,0.221
			c0.273,0.067,0.547,0.15,0.816,0.247c0.271,0.099,0.518,0.217,0.738,0.355s0.367,0.313,0.439,0.523
			c0.016,0.031,0.023,0.087,0.021,0.169c0,0.081,0.002,0.167,0.006,0.256c0.002,0.089,0.016,0.169,0.039,0.238
			c0.021,0.069,0.057,0.111,0.102,0.125l0.033,0.011c0.445-0.174,0.908-0.317,1.391-0.431s0.957-0.096,1.426,0.053
			c0.287,0.089,0.549,0.225,0.789,0.406c0.238,0.183,0.428,0.389,0.568,0.622c0.141,0.232,0.232,0.49,0.275,0.774
			s0.018,0.576-0.076,0.873c-0.133,0.424-0.346,0.753-0.639,0.988c-0.295,0.235-0.682,0.276-1.164,0.125
			c-0.229-0.072-0.389-0.201-0.48-0.388c-0.092-0.185-0.146-0.395-0.162-0.625c-0.016-0.232-0.002-0.464,0.039-0.696
			c0.041-0.231,0.082-0.43,0.121-0.594c0.006-0.061-0.02-0.1-0.076-0.117c-0.059-0.02-0.098-0.031-0.121-0.039
			c-0.059-0.018-0.113-0.032-0.166-0.043c-0.053-0.01-0.109,0-0.17,0.032c-0.057,0.021-0.152,0.065-0.289,0.136
			c-0.133,0.07-0.277,0.146-0.428,0.224c-0.15,0.079-0.293,0.153-0.428,0.225c-0.137,0.07-0.227,0.118-0.271,0.142
			c-0.061,0.032-0.15,0.088-0.27,0.17c-0.121,0.082-0.242,0.173-0.361,0.273s-0.227,0.202-0.32,0.306
			c-0.096,0.102-0.152,0.182-0.17,0.239l-0.609,1.939c0.004,0.027,0,0.088-0.012,0.186c-0.01,0.098-0.021,0.156-0.027,0.18
			c-0.012,0.034-0.027,0.104-0.047,0.211c-0.021,0.107-0.047,0.22-0.078,0.335c-0.029,0.116-0.059,0.227-0.084,0.332
			c-0.027,0.104-0.047,0.18-0.061,0.226c0.004,0.141,0.049,0.236,0.135,0.288c0.084,0.052,0.189,0.097,0.314,0.137
			c0.127,0.039,0.26,0.068,0.398,0.087c0.139,0.018,0.271,0.047,0.396,0.087c0.264,0.083,0.482,0.229,0.654,0.44
			c0.172,0.213,0.217,0.456,0.129,0.73c-0.072,0.229-0.18,0.393-0.324,0.492c-0.145,0.099-0.309,0.154-0.494,0.165
			c-0.186,0.012-0.379-0.006-0.58-0.05c-0.199-0.044-0.385-0.093-0.557-0.147c-0.195-0.061-0.383-0.131-0.564-0.214
			s-0.371-0.154-0.564-0.216c-0.092-0.027-0.17-0.049-0.234-0.063c-0.066-0.015-0.16-0.022-0.285-0.024l-1.959-0.614
			c-0.273-0.087-0.494-0.257-0.66-0.509c-0.164-0.254-0.203-0.524-0.113-0.811C160.044,8.335,160.198,8.158,160.421,8.065z"/>
		<path d="M172.663,10.033c0.26-0.373,0.57-0.672,0.926-0.895l1.227-1.573l-1.789-1.395c-0.131-0.104-0.186-0.253-0.164-0.448
			c0.023-0.193,0.078-0.349,0.168-0.461c0.131-0.17,0.297-0.271,0.494-0.298c0.195-0.029,0.393-0.052,0.588-0.066
			c0.188-0.006,0.361,0.047,0.525,0.159s0.326,0.229,0.488,0.356c0.17,0.132,0.342,0.239,0.514,0.32s0.371,0.086,0.594,0.015
			c0.205-0.069,0.4-0.222,0.586-0.46c0.186-0.237,0.377-0.468,0.572-0.689c0.195-0.223,0.402-0.382,0.617-0.483
			c0.215-0.101,0.459-0.043,0.734,0.172c0.273,0.214,0.377,0.428,0.309,0.642c-0.068,0.215-0.191,0.437-0.369,0.665
			c-0.172,0.219-0.35,0.424-0.537,0.614c-0.186,0.19-0.369,0.4-0.547,0.629c-0.045,0.057-0.111,0.143-0.201,0.257
			c-0.088,0.114-0.133,0.179-0.131,0.196l0.021,0.178c0.004,0.017,0.066,0.072,0.189,0.168c0.131,0.104,0.236,0.185,0.311,0.244
			c0.199,0.155,0.4,0.293,0.604,0.413s0.398,0.253,0.588,0.4c0.219,0.171,0.332,0.396,0.34,0.677c0.01,0.281-0.063,0.521-0.219,0.72
			c-0.146,0.19-0.334,0.308-0.559,0.352c-0.225,0.045-0.432-0.007-0.621-0.154c-0.236-0.185-0.434-0.387-0.59-0.606
			c-0.154-0.22-0.369-0.437-0.645-0.652c-0.057-0.044-0.141-0.105-0.254-0.187c-0.111-0.079-0.176-0.118-0.193-0.117l-0.293,0.023
			l-3.066,3.935c-0.061,0.076-0.1,0.181-0.121,0.315c-0.021,0.136-0.025,0.276-0.012,0.425c0.014,0.146,0.045,0.289,0.092,0.424
			s0.113,0.235,0.199,0.302c0.227,0.178,0.449,0.263,0.666,0.257c0.217-0.005,0.424-0.06,0.621-0.166
			c0.195-0.104,0.387-0.234,0.574-0.385c0.186-0.151,0.365-0.289,0.537-0.412c0.174-0.125,0.346-0.207,0.516-0.251
			c0.17-0.042,0.334-0.001,0.496,0.125c0.236,0.185,0.336,0.399,0.297,0.643c-0.037,0.245-0.135,0.466-0.289,0.665
			c-0.25,0.321-0.555,0.611-0.906,0.869c-0.352,0.257-0.727,0.448-1.121,0.574c-0.395,0.125-0.799,0.169-1.209,0.13
			s-0.797-0.198-1.156-0.478c-0.143-0.112-0.246-0.202-0.314-0.27c-0.068-0.068-0.125-0.14-0.168-0.211s-0.08-0.152-0.107-0.243
			c-0.027-0.09-0.064-0.214-0.109-0.37c-0.01-0.007-0.029-0.041-0.059-0.102s-0.057-0.123-0.086-0.183
			c-0.029-0.061-0.059-0.118-0.092-0.174s-0.051-0.092-0.053-0.109c-0.152-0.604-0.148-1.133,0.014-1.584
			c0.162-0.45,0.428-0.912,0.795-1.385C172.142,10.76,172.401,10.406,172.663,10.033z"/>
		<path d="M176.927,17.489c0.391-0.397,0.783-0.811,1.176-1.24c0.439-0.488,0.9-1.004,1.385-1.545
			c0.482-0.543,0.93-1.076,1.344-1.604c0.006-0.034,0.016-0.088,0.029-0.164c0.014-0.074,0.029-0.154,0.045-0.237
			c0.016-0.084,0.031-0.163,0.045-0.238s0.029-0.125,0.041-0.148c0.018-0.084,0.061-0.146,0.135-0.188
			c0.072-0.043,0.139-0.085,0.199-0.126c0.168-0.114,0.322-0.173,0.461-0.174c0.139,0,0.266,0.039,0.387,0.118
			c0.117,0.079,0.227,0.183,0.322,0.313c0.098,0.129,0.191,0.265,0.287,0.403c0.088,0.128,0.182,0.275,0.279,0.441
			c0.098,0.164,0.172,0.336,0.223,0.514c0.047,0.177,0.053,0.346,0.02,0.51c-0.035,0.161-0.141,0.302-0.318,0.424
			c-0.16,0.108-0.301,0.151-0.426,0.127c-0.125-0.022-0.238-0.065-0.34-0.127c-0.1-0.062-0.193-0.119-0.277-0.17
			c-0.086-0.05-0.17-0.048-0.248,0.006l-0.09,0.062c-0.088,0.104-0.248,0.283-0.482,0.538c-0.234,0.254-0.48,0.523-0.742,0.812
			s-0.506,0.557-0.734,0.808c-0.229,0.25-0.387,0.427-0.475,0.532c-0.037,0.054-0.129,0.174-0.275,0.362l0.039,0.06l0.32-0.044
			l3.07-1.249l0.699-0.478c0.039-0.027,0.055-0.074,0.045-0.14c-0.01-0.067-0.018-0.142-0.021-0.225
			c-0.008-0.083,0.008-0.174,0.043-0.27c0.035-0.098,0.129-0.197,0.277-0.299c0.098-0.067,0.189-0.12,0.275-0.155
			c0.084-0.036,0.189-0.003,0.318,0.099c0.029,0.022,0.076,0.06,0.141,0.11c0.063,0.052,0.131,0.107,0.201,0.167
			c0.07,0.062,0.135,0.119,0.193,0.174s0.1,0.095,0.119,0.125c0.008,0.01,0.039,0.051,0.094,0.122
			c0.057,0.07,0.098,0.125,0.125,0.165c0.088,0.129,0.195,0.296,0.32,0.501c0.125,0.204,0.229,0.418,0.307,0.641
			c0.08,0.222,0.115,0.434,0.107,0.636c-0.008,0.201-0.105,0.365-0.293,0.493c-0.09,0.063-0.178,0.089-0.262,0.082
			c-0.086-0.008-0.17-0.026-0.256-0.056c-0.084-0.028-0.172-0.063-0.258-0.105c-0.088-0.043-0.184-0.064-0.285-0.066
			c-0.02,0.014-0.068,0.043-0.146,0.088c-0.078,0.047-0.127,0.076-0.146,0.09c-0.039,0.027-0.096,0.068-0.166,0.124
			s-0.111,0.087-0.121,0.094c-0.02,0.014-0.053,0.051-0.098,0.11c-0.047,0.061-0.1,0.126-0.16,0.197
			c-0.061,0.07-0.117,0.138-0.168,0.202c-0.051,0.063-0.082,0.098-0.092,0.105c-0.201,0.195-0.404,0.375-0.611,0.538
			c-0.209,0.164-0.41,0.349-0.604,0.555c-0.096,0.094-0.221,0.22-0.375,0.376s-0.283,0.292-0.387,0.406
			c-0.104,0.115-0.166,0.18-0.186,0.192l-0.02,0.1c0.061,0.046,0.131,0.063,0.211,0.053c0.08-0.012,0.162-0.039,0.248-0.083
			s0.17-0.093,0.248-0.147c0.08-0.055,0.15-0.089,0.215-0.102c0.02-0.014,0.074-0.034,0.166-0.061s0.188-0.055,0.289-0.089
			c0.102-0.032,0.195-0.062,0.287-0.088c0.092-0.025,0.148-0.045,0.168-0.059c0.119-0.038,0.273-0.094,0.465-0.165
			c0.189-0.073,0.381-0.144,0.572-0.217c0.189-0.072,0.352-0.136,0.488-0.193c0.135-0.057,0.209-0.088,0.219-0.095l0.758-0.517
			c0.059-0.041,0.084-0.105,0.074-0.194c-0.008-0.088-0.025-0.187-0.047-0.295c-0.023-0.107-0.033-0.21-0.027-0.308
			c0.006-0.1,0.063-0.186,0.172-0.26c0.158-0.108,0.314-0.157,0.467-0.146c0.154,0.012,0.299,0.059,0.434,0.141
			c0.137,0.082,0.26,0.187,0.369,0.316c0.109,0.127,0.205,0.252,0.285,0.371c0.088,0.128,0.18,0.277,0.273,0.445
			s0.164,0.34,0.207,0.512c0.047,0.173,0.053,0.34,0.018,0.502c-0.035,0.161-0.137,0.301-0.305,0.415l-0.193,0.132
			c-0.033-0.006-0.088-0.016-0.162-0.029c-0.076-0.015-0.154-0.029-0.238-0.046c-0.084-0.015-0.162-0.03-0.238-0.044
			c-0.074-0.015-0.125-0.021-0.152-0.016c-0.006-0.011-0.027-0.011-0.064,0s-0.068,0.018-0.094,0.021
			c-0.037,0.011-0.088,0.022-0.15,0.037c-0.063,0.014-0.129,0.03-0.195,0.047c-0.068,0.018-0.135,0.035-0.193,0.055
			s-0.094,0.032-0.104,0.038c-0.104,0.041-0.266,0.102-0.488,0.181c-0.221,0.08-0.473,0.168-0.756,0.267
			c-0.279,0.097-0.572,0.203-0.873,0.314c-0.303,0.111-0.594,0.219-0.871,0.322c-0.277,0.103-0.529,0.194-0.75,0.272
			c-0.223,0.08-0.385,0.141-0.488,0.181c-0.34,0.204-0.703,0.373-1.092,0.508c-0.387,0.134-0.775,0.247-1.164,0.337
			c-0.154-0.011-0.295-0.042-0.424-0.091c-0.129-0.051-0.236-0.141-0.324-0.269c-0.061-0.089-0.119-0.2-0.172-0.33
			c-0.053-0.132-0.064-0.25-0.035-0.357c0.023-0.133,0.146-0.325,0.365-0.578c0.221-0.252,0.486-0.528,0.799-0.828
			c0.309-0.3,0.641-0.606,0.994-0.921c0.354-0.313,0.678-0.607,0.977-0.884c0.297-0.277,0.539-0.519,0.725-0.725
			c0.186-0.207,0.271-0.343,0.258-0.405c-0.105-0.045-0.217-0.051-0.34-0.019s-0.244,0.083-0.365,0.152
			c-0.121,0.066-0.238,0.137-0.357,0.21c-0.117,0.073-0.223,0.126-0.314,0.161c-0.643,0.251-1.275,0.534-1.895,0.849
			c-0.621,0.315-1.26,0.587-1.914,0.818c-0.195,0.059-0.375,0.06-0.545,0.001c-0.172-0.059-0.311-0.166-0.42-0.324
			c-0.1-0.148-0.158-0.295-0.17-0.439c-0.01-0.146,0.014-0.304,0.072-0.474C176.171,18.333,176.536,17.889,176.927,17.489z"/>
		<path d="M180.974,24.698c0.18,0.051,0.287,0.195,0.316,0.434c0.016,0.143,0.004,0.269-0.037,0.377
			c-0.041,0.106-0.053,0.232-0.035,0.375c0.004,0.035,0.02,0.112,0.045,0.23c0.029,0.044,0.086,0.104,0.168,0.179
			c0.08,0.074,0.135,0.11,0.158,0.107l3.912-0.479l0.354,0.066l2.305-0.282c0.021-0.015,0.08-0.037,0.174-0.067
			c0.092-0.028,0.15-0.044,0.174-0.047c0.072-0.009,0.191-0.03,0.357-0.062c0.164-0.033,0.346-0.064,0.541-0.094
			c0.195-0.03,0.379-0.059,0.551-0.086s0.295-0.045,0.365-0.054c0.045-0.029,0.098-0.072,0.158-0.128
			c0.059-0.056,0.084-0.119,0.074-0.19l-0.119-0.982c-0.01-0.071,0.021-0.139,0.094-0.202c0.07-0.063,0.156-0.125,0.258-0.187
			c0.102-0.061,0.205-0.108,0.309-0.146s0.18-0.059,0.229-0.064c0.225-0.028,0.402,0.012,0.531,0.117
			c0.127,0.104,0.219,0.238,0.275,0.4c0.055,0.163,0.096,0.339,0.119,0.529c0.023,0.203,0.051,0.381,0.084,0.534
			c0.002,0.023,0.02,0.079,0.055,0.166c0.035,0.086,0.053,0.141,0.057,0.165l0.014,0.107c0.037,0.298-0.021,0.582-0.178,0.855
			c-0.152,0.272-0.396,0.429-0.73,0.47l-3.877,0.475c0.004,0.023,0.002,0.063-0.004,0.118c-0.006,0.055-0.006,0.095-0.004,0.118
			c0.037,0.093,0.129,0.163,0.279,0.211c0.152,0.048,0.268,0.097,0.346,0.147c0.395,0.267,0.725,0.592,0.988,0.976
			c0.266,0.386,0.428,0.816,0.486,1.294c0.045,0.368,0.02,0.713-0.074,1.031c-0.094,0.32-0.246,0.596-0.453,0.826
			c-0.207,0.231-0.461,0.423-0.764,0.575c-0.301,0.151-0.637,0.25-1.006,0.295l-4.824,0.59l-0.17,0.237
			c0.008,0.157,0.008,0.316,0.004,0.48s-0.033,0.313-0.092,0.447c-0.055,0.134-0.139,0.245-0.248,0.338
			c-0.109,0.092-0.26,0.149-0.449,0.174c-0.311,0.037-0.549-0.055-0.715-0.276s-0.266-0.475-0.301-0.761
			c-0.012-0.096-0.012-0.192,0.002-0.29c0.01-0.099,0.012-0.195-0.002-0.291c-0.025-0.214-0.064-0.421-0.119-0.619
			c-0.055-0.2-0.096-0.406-0.121-0.62c-0.008-0.06-0.02-0.182-0.035-0.368c-0.018-0.185-0.029-0.307-0.037-0.366
			c0.01-0.11,0.02-0.227,0.029-0.349c0.01-0.121,0.035-0.237,0.076-0.344c0.043-0.108,0.1-0.198,0.176-0.267
			c0.076-0.07,0.186-0.114,0.328-0.132c0.24-0.028,0.406-0.016,0.504,0.038c0.098,0.055,0.242,0.174,0.434,0.355
			c0.07,0.076,0.121,0.158,0.158,0.243c0.033,0.087,0.063,0.177,0.086,0.271c0.023,0.095,0.049,0.185,0.078,0.271
			c0.029,0.088,0.078,0.164,0.146,0.228c0.094-0.012,0.266-0.026,0.512-0.044c0.244-0.019,0.508-0.041,0.789-0.07
			c0.281-0.028,0.543-0.054,0.787-0.077c0.246-0.024,0.416-0.042,0.512-0.054l1.143-0.14c0.203-0.025,0.428-0.043,0.674-0.055
			s0.471-0.053,0.674-0.119c0.205-0.066,0.369-0.173,0.498-0.313c0.127-0.144,0.174-0.358,0.139-0.644
			c-0.047-0.381-0.189-0.718-0.424-1.009c-0.234-0.293-0.516-0.539-0.842-0.74c-0.328-0.202-0.678-0.368-1.049-0.498
			c-0.373-0.129-0.727-0.222-1.059-0.279c-0.014,0.002-0.045,0-0.092-0.006c-0.049-0.006-0.102-0.01-0.156-0.009
			c-0.055,0-0.105,0.001-0.152,0.002c-0.051-0.001-0.08,0-0.092,0.002c-0.025-0.01-0.086-0.017-0.184-0.023
			s-0.158-0.008-0.182-0.005l-1.752,0.213c-0.166,0.021-0.262,0.114-0.283,0.28c-0.021,0.165-0.043,0.347-0.061,0.542
			c-0.02,0.195-0.076,0.381-0.176,0.557c-0.102,0.176-0.316,0.283-0.65,0.324l-0.32,0.04c-0.248-0.14-0.412-0.313-0.49-0.521
			c-0.08-0.208-0.137-0.443-0.168-0.705c-0.025-0.215-0.037-0.422-0.031-0.622s-0.004-0.401-0.027-0.604
			c-0.029-0.238-0.094-0.46-0.191-0.666c-0.098-0.205-0.162-0.428-0.191-0.666c-0.031-0.274,0.033-0.537,0.195-0.794
			c0.162-0.255,0.385-0.4,0.672-0.435C180.599,24.636,180.792,24.648,180.974,24.698z"/>
		<path d="M186.323,35.278c0.445,0.061,0.869,0.167,1.273,0.318s0.777,0.354,1.123,0.607c0.346,0.253,0.629,0.577,0.848,0.972
			c0.025,0.035,0.063,0.101,0.111,0.196s0.102,0.196,0.156,0.305c0.057,0.106,0.104,0.206,0.148,0.295
			c0.043,0.09,0.07,0.152,0.084,0.188c0.061,0.133,0.088,0.267,0.084,0.405c-0.004,0.137-0.006,0.271-0.004,0.404
			c0.01,0.768-0.166,1.418-0.525,1.95s-0.824,1.029-1.395,1.492c-0.072,0.049-0.207,0.113-0.404,0.194s-0.412,0.154-0.645,0.224
			c-0.234,0.069-0.463,0.128-0.684,0.18c-0.221,0.05-0.385,0.075-0.494,0.076c-0.023,0.001-0.074-0.002-0.152-0.007
			c-0.078-0.006-0.129-0.007-0.154-0.007c-0.18-0.105-0.301-0.248-0.363-0.428c-0.063-0.179-0.113-0.365-0.15-0.557
			c-0.002-0.131-0.002-0.368,0-0.711c0.002-0.342,0-0.704-0.004-1.089c-0.004-0.372-0.012-0.729-0.021-1.071
			c-0.01-0.341-0.016-0.578-0.018-0.711c-0.002-0.131-0.006-0.291-0.014-0.477c-0.01-0.186-0.018-0.368-0.025-0.548
			c-0.008-0.181-0.025-0.402-0.053-0.665l-0.057-0.072c-0.012,0-0.053-0.003-0.125-0.007c-0.072-0.006-0.121-0.008-0.146-0.008
			c-0.35,0.005-0.68,0.071-0.992,0.201c-0.313,0.129-0.586,0.306-0.818,0.53s-0.416,0.488-0.553,0.79
			c-0.135,0.302-0.199,0.633-0.197,0.992c0.002,0.036,0.006,0.117,0.012,0.243c0.008,0.127,0.012,0.207,0.014,0.242
			c0.133,0.167,0.229,0.357,0.285,0.573s0.15,0.401,0.287,0.555c0.107,0.118,0.24,0.228,0.398,0.328
			c0.156,0.101,0.309,0.206,0.453,0.319c0.146,0.111,0.268,0.233,0.365,0.364s0.146,0.292,0.15,0.485
			c0.002,0.179-0.051,0.326-0.158,0.442c-0.107,0.114-0.244,0.174-0.412,0.176c-0.275,0.003-0.525-0.055-0.748-0.173
			c-0.223-0.115-0.445-0.246-0.662-0.387c-0.525-0.354-0.904-0.824-1.137-1.409s-0.352-1.19-0.359-1.813
			c-0.006-0.612,0.105-1.166,0.342-1.661c0.234-0.495,0.553-0.912,0.955-1.252c0.406-0.342,0.873-0.604,1.406-0.791
			c0.529-0.187,1.09-0.282,1.68-0.29C185.446,35.189,185.88,35.218,186.323,35.278z M186.595,36.868
			c-0.035,0.001-0.053,0.025-0.053,0.073l0.049,4.157c0,0.023,0.016,0.057,0.045,0.099c0.031,0.042,0.059,0.074,0.084,0.099
			c0.023,0.011,0.066,0.017,0.125,0.016c0.061,0,0.102-0.001,0.127-0.001c0.287-0.004,0.529-0.079,0.727-0.225
			c0.195-0.147,0.35-0.329,0.461-0.545c0.111-0.218,0.191-0.456,0.244-0.715c0.051-0.259,0.074-0.502,0.072-0.73
			c-0.004-0.251-0.039-0.509-0.109-0.771c-0.068-0.265-0.176-0.502-0.322-0.717c-0.146-0.214-0.332-0.392-0.557-0.533
			c-0.223-0.143-0.484-0.21-0.785-0.207C186.679,36.867,186.644,36.868,186.595,36.868z"/>
		<path d="M186.394,43.656c0.443,0.077,0.861,0.201,1.26,0.367s0.764,0.384,1.1,0.65c0.334,0.268,0.604,0.603,0.811,1.004
			c0.021,0.035,0.057,0.103,0.102,0.201c0.047,0.096,0.094,0.2,0.145,0.31c0.053,0.109,0.098,0.209,0.137,0.301
			c0.039,0.091,0.064,0.154,0.076,0.191c0.057,0.133,0.08,0.269,0.07,0.406s-0.016,0.272-0.02,0.405
			c-0.021,0.768-0.221,1.41-0.602,1.928c-0.381,0.519-0.863,0.998-1.451,1.438c-0.074,0.046-0.211,0.104-0.41,0.178
			c-0.199,0.072-0.418,0.139-0.654,0.198s-0.465,0.11-0.688,0.153c-0.225,0.041-0.389,0.062-0.496,0.059
			c-0.025,0-0.076-0.005-0.152-0.014c-0.08-0.008-0.131-0.012-0.154-0.012c-0.178-0.113-0.293-0.261-0.348-0.442
			c-0.057-0.182-0.098-0.369-0.131-0.563c0.006-0.132,0.014-0.368,0.029-0.71c0.016-0.341,0.027-0.704,0.037-1.088
			c0.012-0.372,0.018-0.729,0.02-1.071c0.004-0.342,0.008-0.579,0.012-0.711c0.002-0.132,0.004-0.29,0.002-0.478
			c0-0.186,0-0.368-0.002-0.549s-0.01-0.402-0.029-0.667l-0.051-0.073c-0.014,0-0.055-0.005-0.127-0.013s-0.121-0.013-0.145-0.014
			c-0.35-0.009-0.684,0.046-1.002,0.163c-0.316,0.118-0.596,0.284-0.836,0.499c-0.242,0.217-0.436,0.472-0.582,0.77
			c-0.146,0.296-0.225,0.623-0.234,0.983c-0.002,0.035,0,0.117,0.002,0.242c0.004,0.128,0.004,0.207,0.002,0.244
			c0.127,0.171,0.217,0.366,0.264,0.584c0.049,0.217,0.137,0.404,0.264,0.565c0.105,0.121,0.234,0.236,0.389,0.343
			c0.152,0.105,0.299,0.218,0.441,0.335c0.139,0.118,0.256,0.245,0.35,0.379c0.092,0.135,0.135,0.298,0.131,0.489
			c-0.006,0.181-0.063,0.325-0.174,0.437s-0.252,0.165-0.42,0.16c-0.275-0.007-0.521-0.074-0.74-0.199
			c-0.219-0.126-0.436-0.264-0.646-0.413c-0.512-0.375-0.873-0.858-1.082-1.452c-0.211-0.595-0.307-1.203-0.289-1.826
			c0.016-0.612,0.15-1.16,0.404-1.646c0.252-0.486,0.588-0.892,1.004-1.216c0.418-0.325,0.895-0.571,1.434-0.736
			s1.102-0.241,1.689-0.226C185.521,43.535,185.952,43.579,186.394,43.656z M186.603,45.256c-0.035-0.001-0.055,0.022-0.055,0.07
			l-0.111,4.157c-0.002,0.024,0.014,0.057,0.041,0.1c0.029,0.043,0.057,0.077,0.08,0.102c0.023,0.012,0.064,0.02,0.125,0.021
			c0.059,0.002,0.102,0.003,0.127,0.003c0.287,0.009,0.531-0.058,0.732-0.196c0.203-0.139,0.363-0.314,0.482-0.527
			c0.121-0.213,0.209-0.447,0.271-0.704c0.061-0.256,0.094-0.499,0.1-0.726c0.008-0.253-0.02-0.512-0.078-0.777
			s-0.156-0.508-0.295-0.729c-0.139-0.22-0.316-0.404-0.535-0.553c-0.217-0.151-0.477-0.23-0.775-0.238
			C186.687,45.258,186.651,45.257,186.603,45.256z"/>
		<path d="M181.649,51.672c0.127,0.031,0.244,0.078,0.352,0.145c0.105,0.067,0.197,0.146,0.271,0.24s0.107,0.207,0.102,0.339
			l-0.146,2.751l0.102,0.096l5.393,0.287l0.334,0.127l3.01,0.16c0.072,0.004,0.15-0.063,0.236-0.203
			c0.084-0.14,0.135-0.228,0.148-0.263c-0.01-0.036-0.023-0.101-0.043-0.191c-0.02-0.092-0.039-0.191-0.057-0.301
			c-0.018-0.108-0.033-0.212-0.047-0.309c-0.012-0.097-0.016-0.163-0.016-0.199l0.016-0.288c0.012-0.204,0.041-0.36,0.088-0.473
			c0.047-0.111,0.107-0.249,0.176-0.414c0.041-0.118,0.076-0.224,0.105-0.319c0.029-0.094,0.07-0.173,0.121-0.236
			c0.051-0.064,0.117-0.11,0.195-0.143c0.08-0.031,0.197-0.044,0.354-0.035c0.334,0.018,0.557,0.159,0.668,0.424
			c0.111,0.264,0.16,0.546,0.143,0.845c-0.01,0.217-0.045,0.428-0.104,0.635c-0.061,0.207-0.096,0.419-0.105,0.634
			c-0.01,0.169-0.006,0.33,0.008,0.487c0.016,0.158,0.02,0.319,0.01,0.488c-0.008,0.154-0.035,0.321-0.078,0.5
			c-0.047,0.178-0.113,0.342-0.199,0.494c-0.086,0.151-0.199,0.274-0.344,0.369c-0.141,0.095-0.314,0.136-0.518,0.125l-9.531-0.509
			l-0.172,0.17l-0.127,2.392c-0.006,0.118-0.045,0.223-0.117,0.309s-0.158,0.156-0.26,0.211c-0.1,0.056-0.209,0.094-0.326,0.118
			c-0.119,0.023-0.227,0.033-0.324,0.027c-0.221-0.011-0.412-0.079-0.578-0.201c-0.164-0.123-0.24-0.311-0.227-0.562l0.371-6.957
			c0.012-0.203,0.092-0.394,0.242-0.573c0.15-0.178,0.33-0.262,0.537-0.25C181.409,51.623,181.522,51.64,181.649,51.672z"/>
	</g>
</g>
<g id="Censored">
</g>
<g id="Depersonalization">
</g>
<g id="threeman">
</g>
<g id="_x32__truths_and_a_lie">
</g>
<g id="cray_cray_cat_lady">
</g>
<g id="siblings">
</g>
<g id="later">
</g>
<g id="waterfall">
</g>
<g id="cheers">
</g>
<g id="rhyme">
</g>
<g id="categories">
</g>
<g id="tits">
</g>
<g id="dicks">
</g>
<g id="questions">
</g>
<g id="double_hands">
</g>
<g id="rewind">
</g>
<g id="Cryptkeeper">
</g>
<g id="Take_2_and_Redo">
</g>
<g id="Embryo">
</g>
<g id="I_am_Groot">
</g>
<g id="Mini_Me">
</g>
<g id="Ditto_1_">
</g>
<g id="reverse">
</g>
</svg>
