<?xml version="1.0" encoding="utf-8"?>
<!-- Generator: Adobe Illustrator 16.0.0, SVG Export Plug-In . SVG Version: 6.00 Build 0)  -->
<!DOCTYPE svg PUBLIC "-//W3C//DTD SVG 1.1//EN" "http://www.w3.org/Graphics/SVG/1.1/DTD/svg11.dtd">
<svg version="1.1" xmlns="http://www.w3.org/2000/svg" xmlns:xlink="http://www.w3.org/1999/xlink" x="0px" y="0px"
	 width="209.76px" height="62.36px" viewBox="0 0 209.76 62.36" enable-background="new 0 0 209.76 62.36" xml:space="preserve">
<g id="Layer_1">
</g>
<g id="Blindman">
	<g>
		<path d="M154.974,19.583c0,0.608-0.116,1.18-0.348,1.716c-0.232,0.537-0.548,1.004-0.948,1.404c-0.4,0.4-0.868,0.716-1.404,0.948
			c-0.536,0.232-1.1,0.348-1.692,0.348h-7.944V6.959h7.728c0.591,0,1.128,0.128,1.608,0.384s0.888,0.588,1.224,0.996
			c0.336,0.408,0.596,0.873,0.78,1.392c0.184,0.52,0.276,1.044,0.276,1.572c0,0.864-0.216,1.656-0.648,2.376
			c-0.432,0.72-1.032,1.248-1.8,1.584c0.48,0.144,0.916,0.356,1.308,0.636c0.392,0.28,0.728,0.612,1.008,0.996
			c0.28,0.384,0.492,0.804,0.636,1.26C154.901,18.611,154.974,19.088,154.974,19.583z M143.478,7.728v7.296h6.6
			c0.496,0,0.948-0.104,1.356-0.312c0.408-0.208,0.76-0.484,1.056-0.828c0.296-0.344,0.528-0.732,0.696-1.164
			c0.168-0.432,0.252-0.88,0.252-1.344c0-0.48-0.08-0.94-0.24-1.38c-0.16-0.44-0.38-0.828-0.66-1.164
			c-0.28-0.336-0.616-0.604-1.008-0.804c-0.392-0.2-0.828-0.3-1.308-0.3H143.478z M154.158,19.512c0-0.48-0.088-0.948-0.264-1.404
			c-0.176-0.456-0.417-0.855-0.72-1.2c-0.304-0.344-0.664-0.62-1.08-0.828s-0.864-0.312-1.344-0.312h-7.272v7.464h7.104
			c0.496,0,0.96-0.104,1.392-0.312c0.432-0.208,0.812-0.488,1.14-0.84s0.584-0.752,0.768-1.2
			C154.065,20.432,154.158,19.976,154.158,19.512z"/>
		<path d="M158.213,6.479h0.792v15.384c0,0.464,0.144,0.833,0.432,1.104c0.288,0.272,0.664,0.408,1.128,0.408
			c0.176,0,0.388-0.02,0.636-0.06c0.248-0.04,0.476-0.1,0.684-0.18l0.192,0.672c-0.24,0.08-0.54,0.152-0.9,0.216
			c-0.36,0.064-0.668,0.096-0.924,0.096c-0.608,0-1.1-0.188-1.476-0.564s-0.564-0.884-0.564-1.524V6.479z"/>
		<path d="M164.021,8.496V6.479h0.816v2.016H164.021z M164.021,24V11.52h0.816V24H164.021z"/>
		<path d="M178.685,24h-0.816v-6.96c0-1.712-0.244-2.964-0.732-3.756c-0.488-0.792-1.26-1.188-2.316-1.188
			c-0.561,0-1.12,0.104-1.68,0.312s-1.076,0.496-1.548,0.864c-0.472,0.368-0.888,0.8-1.248,1.296c-0.36,0.496-0.62,1.041-0.78,1.632
			V24h-0.816V11.52h0.792v3.12c0.256-0.496,0.576-0.948,0.96-1.356c0.384-0.408,0.816-0.756,1.296-1.044
			c0.48-0.288,0.988-0.512,1.524-0.672c0.536-0.16,1.083-0.24,1.644-0.24c1.312,0,2.26,0.468,2.844,1.404s0.876,2.34,0.876,4.212V24
			z"/>
		<path d="M187.541,24.24c-0.864,0-1.665-0.185-2.4-0.552s-1.372-0.852-1.908-1.452c-0.536-0.6-0.952-1.284-1.248-2.052
			c-0.296-0.768-0.444-1.56-0.444-2.376c0-0.864,0.144-1.688,0.432-2.472c0.288-0.784,0.688-1.472,1.2-2.064
			c0.512-0.592,1.12-1.064,1.824-1.416c0.704-0.352,1.472-0.528,2.304-0.528c0.56,0,1.088,0.08,1.584,0.24
			c0.496,0.16,0.956,0.38,1.38,0.66c0.424,0.28,0.808,0.604,1.152,0.972c0.344,0.368,0.636,0.752,0.876,1.152V6.479h0.816v16.224
			c0,0.352,0.144,0.528,0.432,0.528V24c-0.048,0.016-0.112,0.024-0.192,0.024c-0.288,0-0.528-0.108-0.72-0.324
			c-0.192-0.216-0.288-0.46-0.288-0.732v-1.512c-0.256,0.416-0.564,0.796-0.924,1.14c-0.36,0.344-0.748,0.636-1.164,0.876
			c-0.417,0.24-0.856,0.428-1.32,0.564C188.469,24.171,188.005,24.24,187.541,24.24z M187.637,23.472
			c0.464,0,0.96-0.096,1.488-0.288c0.528-0.192,1.02-0.452,1.476-0.78c0.456-0.328,0.84-0.711,1.152-1.152
			c0.312-0.44,0.492-0.9,0.54-1.38v-4.296c-0.176-0.48-0.436-0.932-0.78-1.356s-0.74-0.792-1.188-1.104s-0.924-0.56-1.428-0.744
			c-0.504-0.184-0.996-0.276-1.476-0.276c-0.768,0-1.464,0.164-2.088,0.492c-0.624,0.328-1.152,0.76-1.584,1.296
			c-0.432,0.537-0.768,1.145-1.008,1.824c-0.24,0.68-0.36,1.38-0.36,2.1c0,0.752,0.136,1.468,0.408,2.148
			c0.271,0.68,0.644,1.28,1.116,1.8c0.472,0.521,1.028,0.936,1.668,1.248C186.212,23.315,186.901,23.472,187.637,23.472z"/>
		<path d="M158.357,52.799V37.391l-7.152,12.096h-0.576l-7.152-12.096v15.408h-0.84v-17.04h0.768l7.512,12.696l7.512-12.696h0.768
			v17.04H158.357z"/>
		<path d="M166.35,53.04c-0.576,0-1.112-0.101-1.608-0.3s-0.928-0.472-1.296-0.816c-0.368-0.344-0.656-0.748-0.864-1.212
			c-0.208-0.464-0.312-0.968-0.312-1.512c0-0.528,0.128-1.012,0.384-1.452s0.612-0.82,1.068-1.14c0.456-0.32,1-0.568,1.632-0.744
			c0.632-0.176,1.324-0.264,2.076-0.264c0.704,0,1.412,0.057,2.124,0.168c0.712,0.112,1.356,0.28,1.932,0.504v-1.344
			c0-1.248-0.356-2.244-1.068-2.988c-0.712-0.744-1.668-1.116-2.868-1.116c-0.608,0-1.256,0.132-1.944,0.396
			c-0.688,0.264-1.376,0.645-2.064,1.14l-0.384-0.6c1.6-1.088,3.08-1.632,4.44-1.632c1.456,0,2.604,0.432,3.444,1.296
			c0.84,0.864,1.26,2.048,1.26,3.552v6.528c0,0.352,0.144,0.528,0.432,0.528v0.768c-0.048,0.016-0.092,0.024-0.132,0.024
			c-0.041,0-0.076,0-0.108,0c-0.272,0-0.5-0.1-0.684-0.3c-0.185-0.2-0.276-0.444-0.276-0.732v-1.104
			c-0.576,0.752-1.32,1.332-2.232,1.74C168.39,52.835,167.406,53.04,166.35,53.04z M166.446,52.343c0.592,0,1.188-0.08,1.788-0.24
			s1.14-0.38,1.62-0.66c0.48-0.28,0.872-0.604,1.176-0.972c0.304-0.368,0.456-0.76,0.456-1.176v-2.352
			c-1.248-0.48-2.576-0.72-3.984-0.72c-0.656,0-1.256,0.072-1.8,0.216s-1.012,0.344-1.404,0.6s-0.696,0.564-0.912,0.924
			c-0.216,0.36-0.324,0.764-0.324,1.212c0,0.448,0.087,0.864,0.264,1.248s0.416,0.72,0.72,1.008c0.304,0.288,0.66,0.512,1.068,0.672
			C165.522,52.264,165.966,52.343,166.446,52.343z"/>
		<path d="M185.981,52.799h-0.816v-6.96c0-1.712-0.244-2.964-0.732-3.756c-0.488-0.792-1.26-1.188-2.316-1.188
			c-0.561,0-1.12,0.104-1.68,0.312s-1.076,0.496-1.548,0.864c-0.472,0.368-0.888,0.8-1.248,1.296c-0.36,0.496-0.62,1.041-0.78,1.632
			v7.8h-0.816v-12.48h0.792v3.12c0.256-0.496,0.576-0.948,0.96-1.356c0.384-0.408,0.816-0.756,1.296-1.044
			c0.48-0.288,0.988-0.512,1.524-0.672c0.536-0.16,1.083-0.24,1.644-0.24c1.312,0,2.26,0.468,2.844,1.404s0.876,2.34,0.876,4.212
			V52.799z"/>
	</g>
	<path fill="none" stroke="#000000" stroke-miterlimit="10" d="M8.167,31.18c0,0,10.167-13.847,25.25-14.014
		s25.25,14.014,25.25,14.014s-10.792,13.611-25.25,12.861S8.167,31.18,8.167,31.18z"/>
	<path fill="none" stroke="#000000" stroke-miterlimit="10" d="M129.104,30.618c0,0-10.167,13.847-25.25,14.014
		s-25.25-14.014-25.25-14.014s10.792-13.611,25.25-12.861S129.104,30.618,129.104,30.618z"/>
	<g>
		<g>
			<path fill="#F90000" d="M53.125,8.773c-1.618,3.923-6.391,6.855-9.489,9.55c-3.278,2.851-6.506,5.754-9.646,8.758
				C27.511,33.277,22.27,40.58,15.831,46.8c0.327,0.252,0.654,0.505,0.981,0.757c0.202-0.444,0.404-0.889,0.606-1.333
				c0.331-0.728-0.746-1.364-1.079-0.631c-0.202,0.444-0.404,0.889-0.606,1.333c-0.284,0.625,0.443,1.277,0.981,0.757
				c6.884-6.65,12.573-14.377,19.506-21.007c3.582-3.426,7.355-6.653,11.098-9.901c2.708-2.35,5.612-4.277,7.011-7.67
				C54.638,8.36,53.428,8.039,53.125,8.773L53.125,8.773z"/>
		</g>
	</g>
	<g>
		<g>
			<path fill="#F90000" d="M18.388,10.806c1.554,3.557,4.747,6.841,7.23,9.845c2.803,3.391,5.695,6.7,8.693,9.919
				c5.064,5.438,10.889,10.152,17.282,13.939c0.695,0.412,1.324-0.669,0.631-1.079c-7.473-4.427-13.759-10.112-19.576-16.512
				c-3.229-3.552-6.44-7.235-9.303-11.089c-1.614-2.172-3.055-4.177-5.303-5.732c-0.381-0.264-0.969,0.084-0.94,0.54
				c0.02,0.319,0.079,0.508,0.207,0.8C17.631,12.174,18.708,11.537,18.388,10.806L18.388,10.806z"/>
		</g>
	</g>
	<g>
		<g>
			<path fill="#F90000" d="M118.861,13.104c-5.799,5.746-11.992,10.998-17.364,17.167c-2.735,3.142-5.335,6.406-7.976,9.626
				c-0.754,0.919-9.332,10.038-9.495,9.483c-0.226-0.772-1.432-0.443-1.205,0.332c0.08,0.272,0.159,0.544,0.238,0.816
				c0.077,0.263,0.323,0.465,0.603,0.458c1.967-0.045,3.667-2.245,4.937-3.482c3.796-3.698,6.972-8.146,10.331-12.235
				c6.373-7.757,13.709-14.242,20.814-21.282C120.318,13.419,119.434,12.536,118.861,13.104L118.861,13.104z"/>
		</g>
	</g>
	<g>
		<g>
			<path fill="#F90000" d="M88.703,8.527c5.237,8.293,9.187,17.153,14.958,25.174c5.363,7.453,12.236,13.716,18.715,20.165
				c0.572,0.569,1.456-0.314,0.884-0.884c-6.437-6.408-13.03-12.643-18.52-19.912c-5.961-7.893-9.725-16.885-14.958-25.174
				C89.354,7.217,88.271,7.844,88.703,8.527L88.703,8.527z"/>
		</g>
	</g>
</g>
<g id="Compliments">
</g>
<g id="HAT">
</g>
<g id="speech">
</g>
<g id="TREX_ARMS">
</g>
<g id="slim_shady">
</g>
<g id="TIMEOUT">
</g>
<g id="Truth_or_Dare">
</g>
<g id="ARM_WRESTLE">
</g>
<g id="musical_chairs">
</g>
<g id="never_have_i_ever">
</g>
<g id="Trivia">
</g>
<g id="Drink_Pulling">
</g>
<g id="Sharing_is_Caring">
</g>
<g id="Not_It">
</g>
<g id="Cocktail_of_Doom">
</g>
<g id="Heads_up">
</g>
<g id="Archenemy">
</g>
<g id="battle_of_the_sexes">
</g>
<g id="one_must_drink">
</g>
<g id="rainbow_connection">
</g>
<g id="social_drinking">
</g>
<g id="Spin_the_bottle">
</g>
<g id="accents">
</g>
<g id="Slap">
</g>
<g id="down_the_hatch">
</g>
<g id="rubiks_cube">
</g>
<g id="bar_tender">
</g>
<g id="codenames">
</g>
<g id="hand_switch">
</g>
<g id="make_a_rule">
</g>
<g id="no_guts_no_glory">
</g>
<g id="pass">
</g>
<g id="santa">
</g>
<g id="snake_eyes">
</g>
<g id="bodyguard">
</g>
<g id="threeman">
</g>
<g id="_x32__truths_and_a_lie">
</g>
<g id="cray_cray_cat_lady">
</g>
<g id="siblings">
</g>
<g id="later">
</g>
<g id="waterfall">
</g>
<g id="cheers">
</g>
<g id="rhyme">
</g>
<g id="categories">
</g>
<g id="tits">
</g>
<g id="dicks">
</g>
<g id="questions">
</g>
<g id="double_hands">
</g>
<g id="take_2">
</g>
<g id="take_3">
</g>
<g id="give_3">
</g>
<g id="give_2">
</g>
<g id="rewind">
</g>
<g id="Cryptkeeper">
</g>
<g id="Take_2_and_Redo">
</g>
<g id="Embryo">
</g>
<g id="I_am_Groot">
</g>
<g id="Mini_Me">
</g>
<g id="Ditto_1_">
</g>
</svg>
