<?xml version="1.0" encoding="utf-8"?>
<!-- Generator: Adobe Illustrator 16.0.0, SVG Export Plug-In . SVG Version: 6.00 Build 0)  -->
<!DOCTYPE svg PUBLIC "-//W3C//DTD SVG 1.1//EN" "http://www.w3.org/Graphics/SVG/1.1/DTD/svg11.dtd">
<svg version="1.1" xmlns="http://www.w3.org/2000/svg" xmlns:xlink="http://www.w3.org/1999/xlink" x="0px" y="0px"
	 width="209.759px" height="62.36px" viewBox="0 0 209.759 62.36" enable-background="new 0 0 209.759 62.36" xml:space="preserve">
<g id="Layer_1">
</g>
<g id="Hat">
</g>
<g id="Compliments">
</g>
<g id="HAT">
</g>
<g id="speech">
</g>
<g id="TREX_ARMS">
</g>
<g id="Layer_7">
</g>
<g id="TIMEOUT">
</g>
<g id="Layer_9">
</g>
<g id="ARM_WRESTLE">
</g>
<g id="musical_chairs">
</g>
<g id="never_have_i_ever">
</g>
<g id="Trivia">
</g>
<g id="Layer_14">
</g>
<g id="Layer_15">
</g>
<g id="Layer_16">
</g>
<g id="Layer_17">
</g>
<g id="Heads_up">
</g>
<g id="Archenemy">
</g>
<g id="battle_of_the_sexes">
</g>
<g id="one_must_drink">
</g>
<g id="rainbow_connection">
</g>
<g id="social_drinking">
</g>
<g id="Spin_the_bottle">
</g>
<g id="accents">
</g>
<g id="Slap">
</g>
<g id="give_3">
</g>
<g id="Layer_36">
</g>
<g id="Layer_37">
</g>
<g id="Layer_38">
</g>
<g id="Layer_39">
</g>
<g id="Layer_40">
</g>
<g id="Layer_41">
</g>
<g id="Layer_42">
</g>
<g id="Layer_43">
</g>
<g id="Layer_44">
</g>
<g id="Layer_45">
</g>
<g id="Layer_46">
</g>
<g id="Layer_47">
	<g>
		<path d="M216.892,46.681c-1.3,0-2.495-0.279-3.588-0.838c-1.092-0.559-2.034-1.319-2.827-2.282
			c-0.793-0.961-1.411-2.086-1.853-3.373c-0.442-1.287-0.663-2.672-0.663-4.153c0-1.482,0.24-2.86,0.722-4.134
			c0.48-1.274,1.15-2.386,2.009-3.335c0.857-0.948,1.872-1.696,3.042-2.242s2.431-0.819,3.782-0.819
			c1.561,0,2.938,0.357,4.135,1.072c1.195,0.716,2.17,1.658,2.925,2.828v-3.549h4.563V48.32c0,0.571,0.104,0.968,0.313,1.189
			c0.208,0.221,0.571,0.344,1.092,0.37v4.446c-0.442,0.078-0.923,0.137-1.443,0.176c-0.521,0.038-0.988,0.058-1.403,0.058
			c-0.521,0-1.008-0.091-1.463-0.272c-0.455-0.183-0.852-0.429-1.189-0.741c-0.338-0.312-0.611-0.683-0.819-1.111
			s-0.312-0.903-0.312-1.424v-8.307c-0.755,1.326-1.729,2.32-2.925,2.983C219.791,46.35,218.426,46.681,216.892,46.681z
			 M218.842,42.236c1.118,0,2.093-0.313,2.925-0.937s1.547-1.43,2.146-2.418v-4.836c-0.156-0.571-0.409-1.104-0.761-1.599
			c-0.351-0.494-0.761-0.93-1.229-1.307s-0.975-0.669-1.521-0.878c-0.546-0.207-1.093-0.312-1.639-0.312
			c-0.806,0-1.54,0.169-2.203,0.507s-1.235,0.8-1.716,1.385c-0.481,0.585-0.858,1.255-1.131,2.008
			c-0.273,0.755-0.41,1.535-0.41,2.341c0,0.857,0.137,1.651,0.41,2.379c0.272,0.728,0.649,1.364,1.131,1.911
			c0.48,0.546,1.059,0.975,1.735,1.286C217.256,42.08,218.01,42.236,218.842,42.236z"/>
	</g>
</g>
<g id="Layer_48">
</g>
<g id="give_2">
</g>
<g id="rewind">
	<g>
		<path d="M47.441,30.585c-1.586,0.026-3.003,0.332-4.251,0.917s-2.145,1.462-2.69,2.633v12.363h-5.227V26.062h4.797v4.368
			c0.364-0.702,0.793-1.332,1.287-1.892c0.494-0.559,1.027-1.046,1.599-1.462c0.572-0.416,1.151-0.734,1.736-0.956
			c0.585-0.221,1.15-0.332,1.696-0.332c0.286,0,0.5,0,0.644,0c0.143,0,0.279,0.013,0.409,0.039V30.585z"/>
		<path d="M62.535,46.888c-1.639,0-3.12-0.28-4.446-0.839c-1.326-0.559-2.457-1.319-3.394-2.281
			c-0.936-0.961-1.657-2.08-2.164-3.354c-0.507-1.273-0.761-2.613-0.761-4.017c0-1.456,0.247-2.828,0.741-4.114
			c0.493-1.287,1.209-2.418,2.145-3.393c0.937-0.975,2.073-1.749,3.413-2.321c1.339-0.571,2.84-0.858,4.504-0.858
			s3.152,0.287,4.466,0.858c1.313,0.572,2.431,1.34,3.354,2.301c0.922,0.962,1.624,2.081,2.105,3.354
			c0.481,1.274,0.722,2.6,0.722,3.978c0,0.338-0.007,0.663-0.02,0.975c-0.014,0.312-0.046,0.572-0.098,0.78H57.309
			c0.078,0.806,0.273,1.521,0.585,2.145c0.313,0.624,0.715,1.157,1.209,1.599c0.494,0.442,1.053,0.78,1.677,1.014
			c0.624,0.234,1.274,0.351,1.95,0.351c1.04,0,2.021-0.253,2.944-0.76c0.923-0.507,1.554-1.176,1.892-2.009l4.485,1.248
			c-0.755,1.56-1.957,2.841-3.607,3.842C66.792,46.387,64.822,46.888,62.535,46.888z M67.839,34.563
			c-0.131-1.534-0.696-2.762-1.696-3.686c-1.002-0.922-2.217-1.384-3.646-1.384c-0.702,0-1.359,0.124-1.97,0.371
			c-0.611,0.247-1.15,0.591-1.619,1.033c-0.468,0.442-0.852,0.975-1.15,1.599s-0.475,1.313-0.526,2.067H67.839z"/>
		<path d="M104.928,26.062h4.953l-8.541,20.436h-4.29l-3.51-8.97l-3.471,8.97h-4.29l-8.502-20.436h4.914l6.084,15.522l2.496-6.63
			l-3.588-8.853h4.212l2.145,6.279l2.185-6.279h4.212l-3.549,8.853l2.456,6.63L104.928,26.062z"/>
		<path d="M116.004,23.214v-5.187h5.227v5.187H116.004z M116.004,46.498V26.062h5.227v20.436H116.004z"/>
		<path d="M148.646,46.498h-5.226V35.032c0-1.638-0.287-2.834-0.858-3.588c-0.572-0.753-1.365-1.131-2.379-1.131
			c-0.521,0-1.053,0.104-1.6,0.312c-0.546,0.208-1.06,0.501-1.54,0.877c-0.481,0.377-0.917,0.826-1.307,1.346
			c-0.39,0.521-0.677,1.092-0.857,1.716v11.934h-5.227V26.062h4.719v3.783c0.754-1.3,1.846-2.314,3.276-3.042
			c1.43-0.728,3.042-1.092,4.836-1.092c1.273,0,2.313,0.234,3.12,0.702c0.806,0.468,1.43,1.079,1.872,1.833
			c0.441,0.754,0.747,1.612,0.916,2.574c0.169,0.962,0.254,1.938,0.254,2.925V46.498z"/>
		<path d="M165.377,46.888c-1.403,0-2.704-0.273-3.899-0.819c-1.196-0.546-2.224-1.3-3.081-2.262
			c-0.858-0.962-1.528-2.086-2.009-3.374c-0.481-1.287-0.722-2.671-0.722-4.153c0-1.482,0.228-2.86,0.683-4.134
			c0.455-1.273,1.085-2.392,1.892-3.354c0.806-0.961,1.768-1.716,2.886-2.262c1.118-0.546,2.34-0.819,3.666-0.819
			c1.508,0,2.866,0.365,4.075,1.092c1.209,0.728,2.151,1.677,2.828,2.847V18.027h5.226v22.464c0,0.546,0.091,0.936,0.273,1.17
			c0.182,0.234,0.493,0.364,0.936,0.39v4.446c-0.91,0.182-1.651,0.273-2.223,0.273c-0.937,0-1.703-0.234-2.301-0.702
			c-0.599-0.468-0.937-1.079-1.015-1.833l-0.116-1.287c-0.755,1.3-1.775,2.281-3.062,2.944
			C168.127,46.556,166.781,46.888,165.377,46.888z M166.742,42.441c0.493,0,1.001-0.084,1.521-0.253
			c0.521-0.169,1.001-0.41,1.443-0.721c0.442-0.312,0.839-0.676,1.189-1.092c0.352-0.416,0.617-0.871,0.8-1.365v-4.875
			c-0.209-0.572-0.501-1.098-0.878-1.58c-0.377-0.481-0.806-0.897-1.287-1.248s-0.988-0.63-1.521-0.838
			c-0.533-0.208-1.06-0.312-1.58-0.312c-0.779,0-1.501,0.169-2.164,0.507c-0.663,0.338-1.229,0.799-1.696,1.384
			c-0.468,0.585-0.833,1.255-1.092,2.009c-0.261,0.754-0.391,1.534-0.391,2.34c0,0.858,0.143,1.651,0.43,2.379
			c0.285,0.729,0.676,1.365,1.17,1.911c0.493,0.546,1.085,0.975,1.774,1.287C165.149,42.286,165.91,42.441,166.742,42.441z"/>
	</g>
</g>
<g id="Layer_22">
</g>
<g id="Layer_19">
</g>
<g id="Layer_20">
</g>
<g id="Layer_21">
</g>
<g id="Layer_23">
</g>
<g id="Layer_24">
</g>
</svg>
