<?xml version="1.0" encoding="utf-8"?>
<!-- Generator: Adobe Illustrator 16.0.0, SVG Export Plug-In . SVG Version: 6.00 Build 0)  -->
<!DOCTYPE svg PUBLIC "-//W3C//DTD SVG 1.1//EN" "http://www.w3.org/Graphics/SVG/1.1/DTD/svg11.dtd">
<svg version="1.1" xmlns="http://www.w3.org/2000/svg" xmlns:xlink="http://www.w3.org/1999/xlink" x="0px" y="0px"
	 width="209.759px" height="62.361px" viewBox="0 0 209.759 62.361" enable-background="new 0 0 209.759 62.361"
	 xml:space="preserve">
<g id="Layer_1">
</g>
<g id="Blindman">
</g>
<g id="Compliments">
</g>
<g id="HAT">
</g>
<g id="speech">
</g>
<g id="TREX_ARMS">
</g>
<g id="slim_shady">
</g>
<g id="TIMEOUT">
</g>
<g id="Truth_or_Dare">
</g>
<g id="ARM_WRESTLE">
</g>
<g id="musical_chairs">
</g>
<g id="never_have_i_ever">
</g>
<g id="Trivia">
</g>
<g id="Drink_Pulling">
</g>
<g id="Sharing_is_Caring">
</g>
<g id="Not_It">
</g>
<g id="Cocktail_of_Doom">
</g>
<g id="Heads_up">
</g>
<g id="Archenemy">
</g>
<g id="battle_of_the_sexes">
</g>
<g id="one_must_drink">
</g>
<g id="rainbow_connection">
</g>
<g id="social_drinking">
</g>
<g id="Spin_the_bottle">
</g>
<g id="accents">
</g>
<g id="Slap">
</g>
<g id="down_the_hatch">
</g>
<g id="rubiks_cube">
</g>
<g id="bar_tender">
</g>
<g id="codenames">
</g>
<g id="hand_switch">
</g>
<g id="make_a_rule">
</g>
<g id="no_guts_no_glory">
</g>
<g id="pass">
</g>
<g id="santa">
</g>
<g id="snake_eyes">
</g>
<g id="lightning_round">
</g>
<g id="Bro">
</g>
<g id="LeastDrunk">
</g>
<g id="Know_It_All">
	<g id="Layer_94">
	</g>
</g>
<g id="EyeContact">
</g>
<g id="UnderGuesser">
</g>
<g id="GodSaveTheQUeen">
</g>
<g id="Ghost">
</g>
<g id="Fortune_Teller">
	<g>
		<g>
			<path d="M72.575,12.531c0.168,0.357,0.188,0.594,0.071,0.709c-0.065,0.065-0.283,0.15-0.443,0.106
				c-0.671-0.184-1.703-0.943-2.634-1.307c-1.051-0.411-2.229-0.591-3.519-0.557c-0.979,0.026-1.625,0.217-1.914,0.564
				c-0.361,0.436-0.236,1.18,0.361,2.218c0.123,0.214,0.227,0.397,0.314,0.549c0.088,0.153,0.164,0.283,0.226,0.389
				c0.132,0.229,0.259,0.442,0.383,0.64c0.123,0.199,0.3,0.318,0.326,0.298c0.177-0.136,0.398-1.064,0.754-1.506
				c0.355-0.443,0.976-0.673,1.856-0.683c1.054-0.011,2.057,0.309,2.997,0.976c0.736,0.524,1.25,1.095,1.547,1.704
				c0.36,0.739,0.337,1.402-0.049,1.978c-0.345,0.513-0.786,0.758-1.334,0.743c-0.091-0.002-0.24-0.049-0.45-0.14
				c-0.21-0.09-0.338-0.182-0.388-0.276c-0.041-0.078-0.055-0.194-0.036-0.349s-0.027-0.342-0.144-0.563
				c-0.148-0.282-0.414-0.517-0.799-0.701c-0.383-0.184-0.725-0.275-1.022-0.279c-1.081-0.013-1.57,0.44-1.451,1.347
				c0.075,0.575,0.378,1.317,0.905,2.232c0.141,0.244,0.231,0.397,0.267,0.458c0.512,0.888,0.767,1.333,1.278,2.22
				c0.431,0.747,0.922,1.309,1.469,1.688c0.546,0.38,0.859,0.647,0.946,0.802c0.061,0.107,0.038,0.215-0.063,0.323
				c-0.102,0.108-0.228,0.146-0.372,0.119c-2.008-0.184-3.011-0.279-5.015-0.48c-0.29-0.029-0.563-0.098-0.825-0.206
				c-0.263-0.107-0.443-0.233-0.54-0.379c-0.106-0.16-0.115-0.413-0.015-0.768s-0.039-0.836-0.429-1.437
				c-2.345-3.61-3.519-5.415-5.863-9.025c-0.723-1.113-1.404-1.854-2.05-2.215s-1.029-0.627-1.146-0.801
				c-0.232-0.348,0.138-0.54,1.106-0.572c3.045-0.094,4.569-0.144,7.613-0.244c1.404-0.05,2.465-0.112,3.184-0.187
				s1.436-0.193,2.069-0.249c0.451-0.04,1.018,0.313,1.622,1C71.849,11.213,72.248,11.833,72.575,12.531z"/>
			<path d="M97.276,16.625c0.734,2.927,0.624,5.489-0.209,7.608c-0.972,2.473-2.771,3.604-5.538,3.452
				c-2.854-0.157-5.522-1.525-8.16-3.968c-2.134-1.976-3.748-4.094-4.74-6.419c-1.311-3.072-1.312-5.185,0.072-6.39
				c1.06-0.923,3.313-1.469,6.718-1.608c3.481-0.143,6.052,0.196,7.664,1.028C95.104,11.37,96.487,13.479,97.276,16.625z
				 M91.616,17.513c-0.547-1.817-1.073-3.162-1.588-4.027c-1.104-1.854-2.479-2.745-4.083-2.69c-1.272,0.043-2.04,0.657-2.276,1.82
				c-0.236,1.164,0.027,2.741,0.766,4.75c0.726,1.975,1.498,3.625,2.301,4.96c1.429,2.376,2.807,3.613,4.184,3.676
				c1.203,0.055,1.71-1.111,1.573-3.532C92.399,20.827,92.114,19.169,91.616,17.513z"/>
			<path d="M121.507,27.87c0.021,0.055-0.036,0.164-0.124,0.253s-0.185,0.134-0.288,0.134c-1.992-0.006-4.344-1.367-7.266-3.992
				s-4.631-4.796-4.923-6.592c-0.1-0.611-0.022-1.003,0.228-1.182c0.134-0.096,0.315-0.151,0.541-0.156
				c0.206-0.004,0.498,0.048,0.873,0.156c0.373,0.107,0.58,0.162,0.617,0.161c0.618-0.013,1.057-0.302,1.32-0.871
				s0.353-1.195,0.264-1.873c-0.127-0.968-0.449-1.794-0.971-2.475c-0.639-0.832-1.444-1.225-2.402-1.188
				c-1.231,0.048-1.964,0.675-2.167,1.867c-0.117,0.69-0.048,1.745,0.192,3.153c0.179,1.047,0.599,2.948,1.247,5.708
				c0.322,1.372,0.57,2.581,0.746,3.628c0.16,0.954,0.479,1.66,0.957,2.125c0.476,0.464,0.735,0.843,0.781,1.13
				c0.03,0.191-0.021,0.335-0.152,0.427c-0.132,0.094-0.423,0.133-0.872,0.123c-0.156-0.004-0.269-0.005-0.337-0.007
				c-1.159-0.027-1.738-0.044-2.897-0.076c-0.69-0.02-1.189-0.201-1.5-0.545c-0.223-0.247-0.394-0.663-0.514-1.243
				c-0.063-0.299-0.109-0.521-0.141-0.672c-0.349-1.684-0.861-3.893-1.55-6.622s-1.142-4.595-1.354-5.603
				c-0.231-1.102-0.514-1.98-0.871-2.453c-0.312-0.413-0.907-0.884-1.096-1.255c-0.052-0.101,0.028-0.301,0.193-0.458
				c0.164-0.157,0.338-0.24,0.515-0.248c1.479-0.062,3.336-0.199,5.575-0.419S110.724,8.279,113,8.11
				c2.147-0.159,3.831,0.347,4.81,1.353c0.589,0.605,0.924,1.407,1.012,2.392c0.111,1.241-0.293,2.364-1.179,3.363
				s-2.423,2.269-2.653,3.019c-0.164,0.534,0.911,2.303,2.325,4.131C118.729,24.196,120.914,26.318,121.507,27.87z"/>
			<path d="M141.593,11.463c-0.008,0.144-0.014,0.277-0.021,0.399c-0.019,0.369-0.078,0.684-0.167,0.943
				c-0.09,0.259-0.384,0.454-0.475,0.403c-0.447-0.25-1.104-1.742-1.708-2.41c-0.668-0.738-1.528-1.096-2.56-1.052
				c-0.351,0.015-0.613,0.176-0.793,0.478s-0.272,0.678-0.279,1.125c-0.076,5.004-0.115,7.505-0.191,12.509
				c-0.012,0.794,0.11,1.492,0.363,2.097s0.695,1.298,0.8,1.782c0.033,0.153-0.121,0.37-0.348,0.497
				c-0.228,0.128-0.401,0.192-0.521,0.195c-2.127,0.044-3.188,0.06-5.315,0.085c-0.519,0.006-0.784-0.144-0.791-0.445
				c-0.006-0.262,0.163-0.705,0.518-1.335c0.355-0.63,0.526-1.571,0.506-2.822c-0.092-4.94-0.137-7.411-0.23-12.351
				c-0.006-0.363-0.179-0.696-0.525-0.995c-0.347-0.298-0.631-0.441-0.844-0.433c-1.208,0.05-2.147,0.678-2.801,1.876
				c-0.653,1.199-1.131,1.801-1.454,1.812c-0.267,0.009-0.441-0.131-0.524-0.417c-0.083-0.288-0.139-0.7-0.169-1.238
				c-0.048-0.856,0.075-1.73,0.382-2.623c0.391-1.137,0.947-1.725,1.658-1.757c5.515-0.25,8.274-0.377,13.789-0.629
				c0.534-0.024,0.967,0.441,1.292,1.396C141.509,9.508,141.644,10.48,141.593,11.463z"/>
			<path d="M162.163,26.022c0.119,0.257-0.118,0.673-0.449,0.73c-0.641,0.11-2.793,0.309-6.166,0.755
				c-1.558,0.206-2.816,0.33-3.783,0.376c-1.382,0.065-2.536-0.145-3.473-0.615c-1.098-0.551-1.908-1.479-2.443-2.733
				c-0.359-0.843-0.627-1.644-0.757-2.387c-0.13-0.743-0.169-1.484-0.112-2.225c0.041-0.534,0.135-1.216,0.292-2.039
				c0.3-1.567,0.461-2.414,0.475-2.511c0.08-0.569,0.342-1.409,0.672-2.428c0.33-1.019,0.86-2.182,1.074-3.183
				c0.136-0.636-0.3-1.44-0.596-1.974c-0.077-0.14-0.028-0.377,0.096-0.586c0.125-0.21,0.281-0.349,0.458-0.391
				c0.632-0.15,1.501-0.232,2.522-0.299s1.604-0.104,1.743-0.111c0.582-0.026,0.87-0.04,1.452-0.066
				c0.247,0.072,0.416,0.153,0.505,0.223c0.1,0.078,0.174,0.198,0.167,0.332c-0.027,0.503-0.201,1.114-0.413,1.711
				c-0.338,0.955-0.708,1.932-1.008,2.878c-0.264,0.833-0.497,1.822-0.734,2.909c-0.237,1.088-0.402,2.066-0.501,2.933
				c-0.131,1.155-0.179,2.254-0.146,3.3c0.033,1.044,0.138,2.08,0.39,2.966c0.458,1.611,1.687,2.543,3.131,2.373
				c0.285-0.033,0.556-0.105,0.761-0.146s0.41-0.163,0.538-0.351c0.218-0.319,0.382-0.794,0.521-1.304
				c0.139-0.509,0.256-1.052,0.345-1.63c0.048-0.31,0.084-0.546,0.109-0.71c0.378-2.457,0.676-4.613,0.896-6.467
				c0.219-1.854,0.256-3.857,0.416-5.646c0.031-0.352,0.021-0.723-0.104-1.056c-0.124-0.332-0.786-0.877-0.974-1.324
				c-0.056-0.134,0.058-0.46,0.189-0.702s0.372-0.391,0.714-0.447s0.81-0.108,1.407-0.155s1.263-0.089,1.996-0.122
				c0.879-0.04,1.318-0.059,2.197-0.099c0.315,0.211,0.486,0.393,0.521,0.53c0.149,0.598,0.079,1.784-0.246,3.537
				c-0.367,1.979-0.75,4.23-1.155,6.751c-0.405,2.522-0.793,4.493-0.985,5.79c-0.163,1.101-0.153,1.959-0.075,2.424
				C161.706,25.299,162.03,25.737,162.163,26.022z"/>
			<path d="M185.714,15.458c-0.021,0.061-0.429,1.133-1.22,3.219c-0.792,2.086-1.444,3.88-1.962,5.381
				c-0.214,0.62-0.506,1.08-0.876,1.387c-0.372,0.307-0.823,0.486-1.354,0.536c-0.789,0.074-1.099-0.149-0.93-0.673
				c0.052-0.161,0.388-0.592,1.002-1.29c0.296-0.337,0.492-0.657,0.592-0.959c0.172-0.522,0.16-1.105-0.047-1.744
				c-0.207-0.639-0.592-1.407-1.174-2.257c-0.679-0.992-1.409-2.001-2.133-3.012c-1.56-2.067-2.381-3.113-4.101-5.219
				c-0.169-0.234-0.331-0.347-0.483-0.339c-0.154,0.008-0.272,0.186-0.357,0.534c-0.38,1.556-0.598,2.409-0.65,2.551
				c-0.054,0.143-0.167,0.574-0.342,1.291c-1.022,4.198-1.734,7.334-1.585,8.747c0.08,0.757,0.603,1.881,0.592,2.543
				c-0.004,0.242-0.263,0.512-0.55,0.614c-0.288,0.103-0.673,0.172-1.154,0.208c-1.049,0.079-1.58-0.326-1.595-1.212
				c-0.011-0.624,0.354-2.559,1.101-5.801c0.193-0.84,0.505-2.074,0.934-3.699c0.999-3.782,1.592-6.05,1.768-6.809
				c0.214-0.923,0.035-1.69-0.551-2.258c-0.28-0.271-0.395-0.572-0.321-0.901c0.055-0.247,0.222-0.437,0.506-0.571
				c0.285-0.135,0.566-0.208,0.844-0.22c1.615-0.071,2.424-0.106,4.039-0.177c0.791-0.034,1.438,0.163,1.929,0.581
				c0.158,0.135,0.495,0.503,0.981,1.103c0.748,0.922,1.69,2.138,2.784,3.612c0.641,0.862,1.484,1.997,2.387,3.369
				c0.072,0.11,0.138,0.169,0.193,0.166c0.148-0.009,0.297-0.243,0.45-0.706c0.818-2.47,1.354-4.474,1.198-5.514
				c-0.105-0.699-0.673-1.771-0.662-2.352c0.004-0.196,0.318-0.461,0.703-0.596s0.896-0.216,1.529-0.243
				c1.129-0.047,1.597,0.528,1.397,1.718C188.449,7.343,187.487,10.34,185.714,15.458z"/>
			<path d="M203.024,18.451c-0.328,0.64-0.862,1.417-1.593,2.334c-0.731,0.919-1.467,1.866-2.188,2.498
				c-0.221,0.193-0.488,0.344-0.697,0.458c-0.209,0.115-0.413,0.185-0.617,0.21c-4.277,0.526-6.422,0.772-10.718,1.226
				c-0.281,0.049-0.498-0.005-0.644-0.161c-0.146-0.155-0.178-0.343-0.095-0.561c0.067-0.178,0.42-0.586,1.066-1.22
				c0.645-0.634,1.186-1.5,1.617-2.604c1.828-4.71,2.743-7.066,4.569-11.776c0.331-0.847,0.474-1.532,0.365-1.963
				c-0.105-0.421-0.4-1.021-0.38-1.354c0.014-0.223,0.289-0.499,0.523-0.605s0.502-0.167,0.799-0.179
				c0.179-0.007,0.287-0.011,0.326-0.013c3.629-0.147,5.444-0.22,9.074-0.36c1.186-0.046,2.061-0.103,2.628-0.171
				c0.566-0.067,1.188-0.191,1.768-0.248c0.37-0.036,0.463,0.432,0.205,1.328c-0.172,0.596-0.398,1.181-0.687,1.748
				c-0.211,0.415-0.402,0.708-0.565,0.882c-0.164,0.174-0.376,0.269-0.646,0.283c-0.097,0.005-0.404-0.367-0.949-1.129
				c-0.545-0.764-1.533-1.119-2.939-1.057c-1.134,0.05-2.113,0.407-2.917,1.069c-0.563,0.465-0.977,1.009-1.246,1.631
				c-0.093,0.214-0.246,0.546-0.458,0.993c-0.213,0.448-0.355,0.758-0.432,0.934c-0.135,0.311-0.217,0.516-0.237,0.611
				c-0.031,0.149,0.046,0.245,0.098,0.22c0.464-0.23,1.249-1.208,2.082-1.709c0.964-0.579,1.953-0.899,2.95-0.954
				c0.862-0.047,1.374,0.338,1.515,1.14c0.112,0.639,0.04,1.204-0.203,1.698c-0.608,1.235-1.534,2.186-2.755,2.847
				c-0.952,0.516-1.751,0.769-1.99,0.625c-0.043-0.026-0.048-0.125-0.003-0.222c0.035-0.077,0.155-0.233,0.364-0.472
				c0.208-0.237,0.332-0.432,0.381-0.556c0.133-0.333,0.129-0.679-0.103-0.997c-0.153-0.211-0.327-0.313-0.515-0.301
				c-1.026,0.07-2.04,0.748-3.01,2.041c-0.685,0.913-1.347,2.132-2.002,3.649c-0.159,0.369-0.305,0.704-0.436,1.006
				s-0.238,0.589-0.333,0.829c-0.295,0.745-0.457,1.332-0.389,1.712c0.092,0.508,0.515,0.724,1.261,0.644
				c1.197-0.129,2.559-0.682,3.907-1.677c1.324-0.977,2.898-2.664,4.063-3.114c0.122-0.047,0.28,0.062,0.3,0.24
				C203.161,18.08,203.121,18.263,203.024,18.451z"/>
			<path d="M104.338,40.371c0.03,0.128,0.059,0.25,0.085,0.361c0.079,0.331,0.115,0.605,0.109,0.828
				c-0.007,0.224-0.189,0.357-0.285,0.303c-0.59-0.341-1.356-1.707-2.029-2.381c-0.744-0.745-1.545-1.164-2.383-1.252
				c-0.284-0.03-0.461,0.076-0.527,0.32c-0.067,0.245-0.044,0.563,0.07,0.958c1.329,4.512,1.991,6.769,3.314,11.284
				c0.201,0.7,0.486,1.341,0.847,1.924s0.866,1.207,1.105,1.736c0.065,0.145,0.001,0.305-0.145,0.372
				c-0.146,0.068-0.264,0.09-0.358,0.068c-1.664-0.385-2.495-0.588-4.152-1.016c-0.404-0.104-0.652-0.286-0.742-0.547
				c-0.078-0.227-0.069-0.57,0.035-1.041c0.105-0.471-0.021-1.254-0.382-2.339c-0.495-1.488-1.203-3.579-2.128-6.271
				c-0.926-2.69-1.465-4.256-1.61-4.692c-0.105-0.315-0.337-0.626-0.704-0.932c-0.365-0.305-0.638-0.468-0.811-0.489
				c-0.979-0.122-1.576,0.285-1.77,1.206c-0.193,0.92-0.406,1.351-0.666,1.309c-0.215-0.034-0.397-0.18-0.547-0.435
				c-0.15-0.254-0.315-0.608-0.495-1.065c-0.286-0.728-0.438-1.443-0.442-2.152c-0.006-0.902,0.29-1.324,0.867-1.258
				c4.479,0.519,6.724,0.742,11.223,1.122c0.436,0.037,0.917,0.501,1.434,1.399C103.767,38.593,104.126,39.488,104.338,40.371z"/>
			<path d="M121.804,52.6c0.063,0.667,0.023,1.457-0.11,2.356c-0.134,0.9-0.259,1.842-0.538,2.38
				c-0.077,0.147-0.238,0.281-0.357,0.362c-0.119,0.083-0.263,0.111-0.426,0.091c-3.43-0.434-5.141-0.696-8.555-1.314
				c-0.214-0.021-0.424-0.13-0.629-0.33c-0.205-0.199-0.328-0.402-0.371-0.608c-0.035-0.168,0.051-0.501,0.27-1.007
				c0.218-0.506,0.228-1.289,0.02-2.342c-0.895-4.489-1.343-6.733-2.238-11.222c-0.159-0.808-0.386-1.47-0.702-1.916
				c-0.317-0.447-0.83-0.96-1.013-1.377c-0.091-0.208-0.018-0.46,0.123-0.542s0.335-0.115,0.577-0.099
				c0.146,0.01,0.236,0.018,0.269,0.02c2.96,0.203,4.441,0.287,7.406,0.43c0.969,0.047,1.672,0.054,2.111,0.023
				c0.438-0.029,0.925-0.116,1.351-0.136c0.296-0.014,0.611,0.495,0.869,1.439c0.172,0.632,0.29,1.242,0.349,1.831
				c0.043,0.432,0.043,0.733-0.002,0.906c-0.046,0.174-0.176,0.257-0.395,0.245c-0.079-0.004-0.54-0.444-1.401-1.313
				c-0.861-0.869-1.876-1.328-3.023-1.392c-0.925-0.052-1.557,0.227-1.887,0.828c-0.231,0.421-0.296,0.939-0.199,1.552
				c0.033,0.211,0.075,0.536,0.13,0.975s0.096,0.744,0.123,0.917c0.049,0.306,0.089,0.509,0.121,0.604
				c0.052,0.153,0.175,0.257,0.193,0.243c0.168-0.123,0.424-1.102,0.863-1.524c0.509-0.489,1.173-0.716,1.984-0.664
				c0.702,0.045,1.336,0.507,1.881,1.392c0.434,0.704,0.672,1.315,0.729,1.823c0.141,1.271-0.14,2.188-0.825,2.721
				c-0.535,0.416-1.079,0.559-1.363,0.369c-0.064-0.043-0.107-0.145-0.12-0.242c-0.011-0.077,0.014-0.228,0.064-0.453
				c0.051-0.224,0.049-0.412,0.024-0.544c-0.061-0.328-0.249-0.71-0.613-1.086c-0.243-0.249-0.44-0.38-0.592-0.393
				c-0.832-0.07-1.333,0.502-1.478,1.711c-0.103,0.855-0.026,2.027,0.212,3.521c0.058,0.363,0.114,0.693,0.162,0.99
				s0.104,0.579,0.15,0.823c0.137,0.722,0.308,1.333,0.566,1.761c0.348,0.573,0.82,0.904,1.418,0.985
				c0.96,0.13,1.87-0.217,2.47-1.01c0.603-0.798,1.341-2.489,1.817-2.715c0.064-0.03,0.272,0.123,0.386,0.328
				C121.717,52.203,121.785,52.402,121.804,52.6z"/>
			<path d="M137.224,55.854c-0.026,0.776-0.205,1.449-0.526,2.015c-0.425,0.746-0.992,1.11-1.718,1.087
				c-3.429-0.113-5.144-0.219-8.57-0.52c-0.137-0.012-0.294-0.065-0.464-0.159c-0.169-0.094-0.259-0.249-0.272-0.468
				c-0.011-0.159,0.079-0.547,0.276-1.164s0.267-1.506,0.199-2.661c-0.047-0.797-0.177-2.632-0.391-5.503
				c-0.214-2.87-0.347-4.709-0.396-5.525c-0.081-1.354-0.225-2.423-0.493-3.058c-0.232-0.548-0.696-1.215-0.83-1.721
				c-0.054-0.203,0.066-0.434,0.253-0.528c0.188-0.095,0.445-0.14,0.771-0.133c1.867,0.039,2.802,0.053,4.669,0.068
				c0.26,0.002,0.412,0.016,0.461,0.035c0.257,0.104,0.396,0.327,0.402,0.67c0.003,0.141-0.16,0.481-0.485,1.021
				c-0.324,0.54-0.473,1.183-0.453,1.928c0.086,3.321,0.127,4.981,0.213,8.303c0.006,0.24,0.009,0.497,0.009,0.768
				c-0.001,0.272,0.004,0.55,0.012,0.83c0.046,1.751,0.171,3.053,0.375,3.908c0.329,1.386,0.877,2.104,1.655,2.141
				c0.458,0.022,0.832-0.194,1.125-0.649c0.294-0.455,0.442-0.948,0.444-1.476c0.002-0.567-0.147-1.082-0.465-1.477
				c-0.351-0.437-0.977-0.974-1.108-1.342c-0.082-0.23,0.207-0.68,0.636-0.95c0.43-0.271,0.852-0.402,1.262-0.394
				c0.791,0.018,1.558,0.469,2.275,1.355C136.905,53.266,137.271,54.466,137.224,55.854z"/>
			<path d="M152.409,55.393c-0.125,0.785-0.389,1.479-0.781,2.079c-0.519,0.793-1.131,1.214-1.854,1.26
				c-3.413,0.217-5.124,0.274-8.549,0.3c-0.137,0.001-0.286-0.038-0.445-0.119c-0.158-0.081-0.233-0.23-0.219-0.457
				c0.011-0.165,0.153-0.577,0.433-1.235s0.467-1.585,0.549-2.776c0.057-0.822,0.165-2.711,0.323-5.668
				c0.158-2.956,0.266-4.856,0.323-5.699c0.095-1.396,0.089-2.488-0.1-3.134c-0.159-0.548-0.54-1.243-0.608-1.739
				c-0.029-0.213,0.127-0.453,0.326-0.561c0.2-0.107,0.461-0.166,0.786-0.175c1.866-0.05,2.801-0.079,4.666-0.152
				c0.259-0.01,0.41-0.003,0.456,0.015c0.244,0.094,0.355,0.313,0.317,0.664c-0.016,0.144-0.222,0.5-0.616,1.07
				c-0.394,0.57-0.627,1.236-0.703,1.999c-0.342,3.4-0.511,5.101-0.852,8.501c-0.024,0.246-0.057,0.511-0.092,0.789
				c-0.035,0.279-0.064,0.563-0.094,0.851c-0.18,1.793-0.221,3.119-0.126,3.979c0.153,1.392,0.608,2.075,1.385,2.041
				c0.457-0.02,0.861-0.276,1.213-0.767c0.353-0.49,0.563-1.004,0.633-1.541c0.074-0.577-0.011-1.087-0.277-1.461
				c-0.293-0.412-0.856-0.946-0.94-1.276c-0.06-0.232,0.295-0.712,0.759-1.021c0.465-0.31,0.905-0.478,1.314-0.499
				c0.789-0.042,1.497,0.358,2.1,1.198C152.422,52.813,152.634,53.989,152.409,55.393z"/>
			<path d="M167.753,51.188c-0.199,0.689-0.552,1.53-1.047,2.521c-0.495,0.991-0.979,2.001-1.504,2.689
				c-0.153,0.201-0.359,0.367-0.516,0.489c-0.156,0.124-0.313,0.197-0.475,0.224c-3.383,0.547-5.084,0.774-8.492,1.127
				c-0.222,0.043-0.4-0.021-0.535-0.19c-0.135-0.168-0.181-0.365-0.139-0.593c0.034-0.185,0.271-0.603,0.722-1.253
				c0.449-0.65,0.789-1.553,1.014-2.707c0.948-4.918,1.424-7.381,2.37-12.3c0.172-0.885,0.211-1.59,0.07-2.042
				c-0.138-0.441-0.444-1.02-0.467-1.398c-0.014-0.238,0.176-0.521,0.355-0.636s0.391-0.179,0.633-0.196
				c0.146-0.011,0.235-0.021,0.268-0.023c2.959-0.22,4.436-0.344,7.386-0.624c0.964-0.092,1.672-0.188,2.128-0.283
				c0.455-0.095,0.957-0.255,1.416-0.339c0.293-0.054,0.42,0.433,0.306,1.388c-0.076,0.637-0.197,1.263-0.371,1.872
				c-0.128,0.446-0.248,0.763-0.362,0.952c-0.115,0.19-0.279,0.301-0.497,0.326c-0.078,0.009-0.37-0.375-0.896-1.157
				c-0.526-0.783-1.368-1.117-2.51-1.006c-0.92,0.09-1.679,0.493-2.261,1.207c-0.408,0.5-0.686,1.077-0.836,1.733
				c-0.052,0.226-0.142,0.576-0.265,1.049c-0.123,0.474-0.203,0.803-0.245,0.988c-0.075,0.328-0.122,0.543-0.128,0.644
				c-0.01,0.158,0.07,0.253,0.104,0.23c0.35-0.229,0.883-1.292,1.506-1.835c0.722-0.629,1.492-0.99,2.298-1.077
				c0.697-0.075,1.157,0.313,1.357,1.155c0.16,0.672,0.162,1.272,0.017,1.802c-0.363,1.324-1.014,2.355-1.933,3.079
				c-0.716,0.564-1.351,0.828-1.546,0.696c-0.041-0.028-0.053-0.134-0.027-0.237c0.021-0.081,0.103-0.25,0.246-0.505
				c0.143-0.254,0.218-0.461,0.245-0.595c0.071-0.354,0.034-0.716-0.188-1.048c-0.147-0.221-0.301-0.324-0.451-0.308
				c-0.826,0.092-1.574,0.82-2.219,2.189c-0.456,0.968-0.86,2.254-1.225,3.855c-0.089,0.39-0.171,0.742-0.243,1.061
				s-0.126,0.619-0.177,0.875c-0.157,0.784-0.229,1.406-0.132,1.811c0.129,0.54,0.494,0.775,1.087,0.695
				c0.951-0.128,2.006-0.726,2.977-1.778c0.971-1.052,2.086-2.898,2.954-3.367c0.083-0.045,0.23,0.063,0.265,0.253
				C167.824,50.79,167.812,50.985,167.753,51.188z"/>
			<path d="M183.024,52.214c-0.012,0.063-0.112,0.172-0.226,0.279s-0.208,0.173-0.287,0.196c-1.519,0.446-2.622-0.378-3.54-2.576
				s-1.146-4.297-0.449-6.161c0.237-0.635,0.505-1.062,0.793-1.279c0.156-0.118,0.324-0.196,0.504-0.228
				c0.163-0.028,0.362-0.007,0.6,0.061c0.236,0.067,0.371,0.1,0.4,0.095c0.49-0.089,0.981-0.445,1.48-1.063s0.895-1.271,1.175-1.956
				c0.4-0.979,0.575-1.793,0.519-2.446c-0.07-0.797-0.497-1.14-1.268-1.025c-0.99,0.146-1.888,0.854-2.663,2.134
				c-0.449,0.74-0.941,1.852-1.479,3.323c-0.4,1.094-1.048,3.07-1.964,5.924c-0.455,1.417-0.887,2.672-1.289,3.764
				c-0.366,0.994-0.479,1.695-0.345,2.102c0.134,0.405,0.142,0.753,0.029,1.05c-0.075,0.198-0.19,0.361-0.341,0.486
				c-0.151,0.127-0.397,0.231-0.744,0.312c-0.12,0.028-0.208,0.048-0.261,0.061c-0.896,0.206-1.346,0.305-2.244,0.496
				c-0.535,0.114-0.832,0.012-0.9-0.312c-0.049-0.232,0.028-0.663,0.233-1.286c0.106-0.321,0.187-0.563,0.239-0.724
				c0.596-1.809,1.331-4.171,2.199-7.091s1.475-4.925,1.829-6.01c0.388-1.187,0.626-2.106,0.585-2.618
				c-0.032-0.402-0.242-0.971-0.219-1.308c0.009-0.128,0.183-0.33,0.395-0.511c0.211-0.181,0.39-0.28,0.533-0.298
				c1.197-0.146,2.729-0.401,4.603-0.775s3.84-0.844,5.745-1.189c1.721-0.313,2.814,0.052,3.055,0.955
				c0.146,0.545-0.011,1.296-0.453,2.258c-0.558,1.212-1.454,2.369-2.66,3.479s-2.869,2.301-3.625,3.397
				c-0.46,0.667-0.478,2.229-0.33,3.828S183.237,51.114,183.024,52.214z"/>
		</g>
	</g>
	<g>
		<path d="M35.255,21.909c0.186-0.273,0.223-0.623,0.101-0.929l-1.995-4.983c-0.203-0.514-0.786-0.761-1.294-0.555
			c-0.511,0.205-0.76,0.784-0.557,1.295l1.448,3.616h-1.519c-0.551,0-0.996,0.446-0.996,0.997c0,0.55,0.445,0.997,0.996,0.997h2.99
			C34.76,22.347,35.068,22.183,35.255,21.909z"/>
		<path d="M61.749,45.268l2.285-2.285c0.258-0.257,0.354-0.635,0.252-0.984c-0.103-0.349-0.387-0.616-0.743-0.692l-1.068-0.238
			l0.847-7.628l0.991-5.945c0.038-0.233-0.006-0.473-0.127-0.677l-2.059-3.436c-0.382-0.625-1.079-0.998-1.801-0.956
			c-0.722,0.033-1.368,0.457-1.684,1.097c-0.142,0.282-0.216,0.592-0.216,0.897c0,0.198,0.03,0.394,0.1,0.623l0.737,2.209
			l-0.091,0.183l-0.979-1.305c-0.396-0.522-0.998-0.823-1.65-0.823c-0.784,0-1.493,0.437-1.852,1.136
			c-0.267,0.514-0.299,1.129-0.081,1.705l1.717,4.293c-0.664-0.378-1.481-0.46-2.204-0.274l-0.759-2.026v-0.817
			c0-1.063-0.414-2.064-1.17-2.817c-0.536-0.537-1.199-0.902-1.922-1.067c-0.164-0.723-0.531-1.385-1.067-1.922
			c-0.513-0.513-1.139-0.869-1.82-1.044v-4.111c0-1.591-0.619-3.093-1.751-4.237c-0.702-0.693-1.556-1.172-2.473-1.454l2.104-3.79
			c0.159-0.289,0.168-0.636,0.021-0.93l-1.993-3.986c-0.118-0.236-0.327-0.416-0.577-0.499L39.88,2.518l-3.856-2.893
			c-0.173-0.129-0.382-0.2-0.599-0.2h-5.979c-0.216,0-0.426,0.071-0.598,0.2l-3.856,2.893l-2.837,0.946
			c-0.25,0.083-0.459,0.263-0.576,0.499l-1.994,3.986c-0.146,0.294-0.138,0.642,0.021,0.93l2.104,3.79
			c-0.919,0.282-1.773,0.764-2.481,1.463c-1.124,1.135-1.742,2.637-1.742,4.229v4.112c-0.682,0.175-1.309,0.53-1.82,1.043
			c-0.537,0.537-0.902,1.199-1.068,1.923c-0.723,0.165-1.386,0.53-1.922,1.066c-0.753,0.754-1.168,1.755-1.168,2.817v0.817
			l-0.758,2.022c-0.727-0.193-1.532-0.104-2.207,0.278l1.718-4.293c0.002-0.006,0.005-0.012,0.007-0.018
			c0.211-0.559,0.178-1.174-0.086-1.684c-0.358-0.704-1.069-1.141-1.854-1.141c-0.652,0-1.255,0.301-1.653,0.827l-0.977,1.302
			l-0.091-0.182l0.745-2.234c0.062-0.205,0.092-0.4,0.092-0.599c0-0.306-0.073-0.615-0.211-0.89
			c-0.321-0.648-0.967-1.071-1.689-1.105c-0.731-0.044-1.418,0.332-1.805,0.964l-2.053,3.428c-0.121,0.205-0.166,0.443-0.128,0.677
			l0.992,5.946l0.846,7.628l-1.068,0.238c-0.356,0.076-0.641,0.344-0.743,0.692c-0.103,0.35-0.005,0.728,0.252,0.984l2.285,2.285
			l-2.285,2.285c-0.272,0.272-0.363,0.677-0.233,1.039l1.962,5.494c-0.026,0.168-0.024,0.339,0.036,0.5l2.989,7.974
			c0.02,0.052,0.053,0.092,0.079,0.139c0.022,0.04,0.04,0.086,0.068,0.122c0.035,0.044,0.08,0.076,0.119,0.115
			c0.033,0.03,0.062,0.066,0.1,0.092c0.045,0.032,0.098,0.051,0.148,0.075c0.04,0.017,0.077,0.043,0.119,0.057
			c0.098,0.03,0.196,0.046,0.301,0.046h3.985c0.154,0,0.308-0.035,0.446-0.104l3.986-1.993c0.017-0.009,0.028-0.021,0.044-0.032
			c0.044-0.026,0.081-0.056,0.121-0.086c0.048-0.037,0.092-0.075,0.131-0.12c0.03-0.033,0.055-0.07,0.078-0.107
			c0.037-0.054,0.066-0.109,0.092-0.168c0.009-0.022,0.025-0.04,0.033-0.062l1.048-3.144v4.82c0,0.551,0.446,0.996,0.996,0.996
			h29.897c0.55,0,0.995-0.445,0.995-0.996v-4.821l1.049,3.143c0.008,0.023,0.024,0.041,0.033,0.063
			c0.025,0.059,0.054,0.113,0.091,0.166c0.022,0.038,0.048,0.074,0.078,0.109c0.04,0.045,0.084,0.084,0.133,0.12
			c0.037,0.029,0.073,0.058,0.113,0.082c0.02,0.011,0.031,0.026,0.051,0.036l3.985,1.993c0.14,0.069,0.293,0.104,0.447,0.104h3.985
			c0.104,0,0.203-0.016,0.3-0.046c0.044-0.014,0.081-0.04,0.121-0.059c0.051-0.023,0.103-0.041,0.147-0.073
			c0.038-0.025,0.066-0.062,0.1-0.094c0.04-0.037,0.084-0.069,0.118-0.113c0.028-0.037,0.046-0.083,0.07-0.124
			c0.026-0.046,0.059-0.086,0.078-0.137l2.989-7.974c0.06-0.161,0.063-0.332,0.035-0.5l1.962-5.494
			c0.13-0.361,0.04-0.767-0.232-1.038L61.749,45.268z M62.286,27.527l-0.555,3.32l-1.222-1.63l0.722-1.441
			c0.117-0.237,0.137-0.512,0.054-0.762l-0.863-2.602L62.286,27.527z M56.603,27.331l4.697,6.26l-0.782,7.042l-0.37-0.082
			l-1.802-0.405v-7.834c0-0.127-0.023-0.251-0.07-0.368l-1.815-4.584C56.462,27.359,56.603,27.333,56.603,27.331z M55.37,34.177
			l0.984,0.659v2.385l-0.6-0.479c-0.03-0.031-0.062-0.06-0.095-0.088l-1.328-1.056c-0.355-0.284-0.434-0.786-0.201-1.137
			c0.028-0.04,0.058-0.078,0.09-0.115c0.019-0.022,0.036-0.047,0.066-0.073C54.554,34.008,55.051,33.97,55.37,34.177z
			 M50.304,32.155c-0.11,0.186-0.233,0.38-0.362,0.581c-0.044,0.069-0.084,0.135-0.131,0.205c-0.173,0.261-0.36,0.534-0.565,0.813
			c-0.043,0.06-0.091,0.123-0.135,0.182c-0.17,0.229-0.348,0.459-0.536,0.694c-0.075,0.092-0.15,0.185-0.228,0.278
			c-0.201,0.243-0.416,0.489-0.639,0.735c-0.056,0.061-0.107,0.121-0.164,0.181c-0.276,0.301-0.575,0.602-0.888,0.899
			c-0.082,0.079-0.171,0.157-0.257,0.237c-0.248,0.229-0.507,0.458-0.776,0.684c-0.104,0.086-0.206,0.173-0.314,0.259
			c-0.365,0.294-0.744,0.585-1.147,0.862c-0.064-0.142-0.142-0.277-0.213-0.416c-0.058-0.113-0.111-0.229-0.174-0.339
			c-0.105-0.191-0.22-0.377-0.333-0.562c-0.055-0.087-0.104-0.178-0.161-0.263c-0.175-0.268-0.357-0.529-0.55-0.782
			c-0.001-0.001-0.002-0.002-0.004-0.003c-0.191-0.251-0.395-0.494-0.603-0.729c-0.07-0.076-0.144-0.148-0.213-0.222
			c-0.146-0.158-0.292-0.314-0.444-0.463c-0.088-0.086-0.183-0.167-0.273-0.25c-0.141-0.13-0.283-0.261-0.43-0.383
			c-0.102-0.085-0.206-0.165-0.311-0.247c-0.144-0.113-0.288-0.226-0.437-0.334c-0.111-0.079-0.224-0.155-0.337-0.23
			c-0.147-0.101-0.299-0.199-0.451-0.294c-0.117-0.072-0.237-0.143-0.357-0.212c-0.155-0.088-0.309-0.174-0.468-0.256
			c-0.123-0.063-0.248-0.127-0.374-0.187c-0.16-0.076-0.322-0.149-0.485-0.222c-0.129-0.054-0.257-0.109-0.388-0.159
			c-0.167-0.066-0.336-0.127-0.505-0.184c-0.132-0.046-0.263-0.092-0.396-0.133c-0.176-0.055-0.354-0.104-0.533-0.15
			c-0.131-0.034-0.26-0.07-0.392-0.101c-0.189-0.044-0.38-0.078-0.571-0.112c-0.124-0.023-0.249-0.05-0.375-0.069
			c-0.214-0.033-0.431-0.055-0.647-0.076c-0.106-0.011-0.213-0.026-0.319-0.035c-0.324-0.023-0.652-0.038-0.981-0.038
			c-0.33,0-0.657,0.015-0.982,0.038c-0.107,0.009-0.214,0.024-0.32,0.035c-0.216,0.021-0.432,0.043-0.645,0.076
			c-0.127,0.02-0.254,0.047-0.379,0.07c-0.191,0.034-0.38,0.067-0.567,0.111c-0.133,0.03-0.264,0.067-0.396,0.102
			c-0.178,0.047-0.354,0.095-0.528,0.149c-0.136,0.042-0.269,0.088-0.402,0.135c-0.166,0.056-0.332,0.115-0.496,0.18
			c-0.135,0.052-0.267,0.107-0.398,0.164c-0.158,0.069-0.315,0.142-0.471,0.215c-0.132,0.063-0.263,0.128-0.392,0.195
			c-0.15,0.078-0.297,0.159-0.444,0.243c-0.129,0.074-0.257,0.148-0.382,0.226c-0.142,0.088-0.281,0.18-0.42,0.273
			c-0.124,0.083-0.247,0.166-0.369,0.253c-0.134,0.098-0.263,0.198-0.394,0.301c-0.119,0.094-0.238,0.185-0.353,0.282
			c-0.126,0.104-0.248,0.217-0.368,0.327c-0.112,0.102-0.227,0.201-0.335,0.306c-0.119,0.116-0.23,0.237-0.344,0.355
			c-0.104,0.111-0.212,0.218-0.313,0.332c-0.115,0.13-0.222,0.266-0.331,0.398c-0.171,0.21-0.335,0.425-0.494,0.645
			c-0.105,0.146-0.214,0.289-0.312,0.442c-0.085,0.129-0.161,0.262-0.24,0.394c-0.086,0.144-0.175,0.282-0.256,0.431
			c-0.075,0.134-0.141,0.273-0.21,0.411c-0.062,0.12-0.128,0.237-0.186,0.36c-0.401-0.276-0.778-0.566-1.143-0.858
			c-0.108-0.087-0.21-0.174-0.314-0.261c-0.268-0.225-0.525-0.451-0.772-0.68c-0.087-0.08-0.175-0.159-0.259-0.24
			c-0.312-0.297-0.607-0.597-0.886-0.896c-0.057-0.061-0.106-0.122-0.163-0.184c-0.225-0.245-0.437-0.491-0.64-0.734
			c-0.076-0.093-0.152-0.187-0.226-0.278c-0.188-0.233-0.368-0.466-0.536-0.693c-0.045-0.06-0.095-0.122-0.138-0.183
			c-0.204-0.28-0.39-0.552-0.563-0.813c-0.049-0.072-0.091-0.141-0.137-0.211c-0.126-0.197-0.245-0.388-0.355-0.569
			c-0.044-0.073-0.089-0.146-0.129-0.215c-0.122-0.209-0.236-0.408-0.335-0.591c-0.007-0.015-0.017-0.028-0.024-0.043h10.372
			c0.279,0,0.536-0.115,0.719-0.308c0.071-0.024,0.135-0.063,0.203-0.09c0.098-0.042,0.195-0.083,0.288-0.131
			c0.142-0.069,0.276-0.147,0.409-0.229c0.085-0.053,0.171-0.104,0.253-0.162c0.136-0.096,0.262-0.201,0.386-0.309
			c0.067-0.06,0.138-0.111,0.2-0.173c0.155-0.149,0.298-0.31,0.432-0.478c0.023-0.029,0.051-0.054,0.073-0.083
			c0.153-0.2,0.289-0.414,0.411-0.636c0.034-0.063,0.06-0.133,0.094-0.197c0.079-0.162,0.153-0.325,0.216-0.495
			c0.031-0.088,0.055-0.18,0.082-0.27c0.046-0.154,0.09-0.312,0.12-0.473c0.021-0.1,0.032-0.199,0.047-0.301
			c0.011-0.085,0.031-0.168,0.038-0.254l1.304,1.306c0.077,0.075,0.164,0.139,0.26,0.186l1.993,0.997
			c0.14,0.07,0.292,0.104,0.445,0.104s0.306-0.034,0.445-0.104l1.994-0.997c0.095-0.047,0.182-0.11,0.26-0.186l1.303-1.306
			c0.008,0.086,0.027,0.169,0.039,0.254c0.014,0.102,0.025,0.201,0.046,0.302c0.031,0.159,0.074,0.316,0.12,0.471
			c0.027,0.09,0.051,0.183,0.082,0.271c0.062,0.168,0.137,0.329,0.216,0.489c0.033,0.066,0.06,0.14,0.096,0.204
			c0.121,0.222,0.256,0.434,0.408,0.634c0.026,0.033,0.059,0.062,0.084,0.095c0.132,0.162,0.27,0.319,0.421,0.464
			c0.064,0.065,0.139,0.12,0.208,0.182c0.121,0.104,0.244,0.207,0.376,0.301c0.084,0.06,0.173,0.112,0.262,0.167
			c0.13,0.08,0.262,0.156,0.4,0.225c0.095,0.048,0.192,0.091,0.292,0.133c0.068,0.027,0.132,0.065,0.202,0.09
			c0.184,0.191,0.441,0.307,0.72,0.307h10.375c-0.105,0.196-0.229,0.415-0.362,0.64C50.386,32.021,50.345,32.088,50.304,32.155z
			 M40.409,57.226H24.463V56.23c0-0.55,0.448-0.996,0.998-0.996h13.952c0.549,0,0.996,0.446,0.996,0.996V57.226z M38.744,53.24
			H26.135c-2.012-1.407-3.443-3.431-4.151-5.724c1.758,2.832,4.889,4.727,8.46,4.727c1.879,0,3.731-0.54,5.305-1.535
			c0.489,0.335,1.064,0.538,1.671,0.538c1.648,0,2.99-1.34,2.99-2.989c0-0.777-0.305-1.504-0.825-2.054
			c0.531-1.231,0.825-2.567,0.825-3.924c0-3.588-1.912-6.728-4.762-8.482c3.254,0.999,5.937,3.481,7.113,6.799
			c0.423,1.159,0.639,2.396,0.639,3.675C43.399,47.852,41.664,51.183,38.744,53.24z M36.607,48.825
			c-0.119-0.15-0.186-0.352-0.186-0.568c0-0.55,0.446-0.996,0.997-0.996c0.172,0,0.326,0.036,0.465,0.111
			c0.328,0.178,0.531,0.516,0.531,0.885c0,0.551-0.446,0.997-0.996,0.997C37.104,49.254,36.815,49.108,36.607,48.825z
			 M37.823,45.295c-0.134-0.019-0.268-0.027-0.404-0.027c-1.648,0-2.989,1.341-2.989,2.989c0,0.156,0.013,0.31,0.038,0.462
			c0.008,0.06,0.023,0.114,0.037,0.172c0.015,0.071,0.026,0.146,0.048,0.217c-1.231,0.749-2.636,1.143-4.109,1.143
			c-4.396,0-7.973-3.575-7.973-7.971c0-1.118,0.232-2.181,0.648-3.146c0.549,0.695,1.388,1.152,2.342,1.152
			c1.647,0,2.989-1.342,2.989-2.99c0-0.951-0.457-1.792-1.152-2.34c0.966-0.416,2.028-0.649,3.146-0.649
			c4.396,0,7.972,3.577,7.972,7.974C38.415,43.335,38.217,44.346,37.823,45.295z M25.461,36.299c0.549,0,0.996,0.446,0.996,0.996
			c0,0.549-0.447,0.995-0.996,0.995c-0.55,0-0.998-0.446-0.998-0.995c0-0.124,0.031-0.24,0.072-0.351
			c0.183-0.201,0.373-0.392,0.575-0.575C25.219,36.328,25.337,36.299,25.461,36.299z M27.388,22.864l-0.853-5.109l5.901-5.058
			l5.901,5.058l-0.854,5.109l-3.646,3.646l-1.402,0.701l-1.403-0.701L27.388,22.864z M40.297,18.12l1.125-0.374
			c0.271-0.095,0.572,0.033,0.7,0.287c0.088,0.178,0.079,0.385-0.022,0.556l-2.213,3.688c-0.054,0.089-0.196,0.063-0.234,0.019
			c-0.03-0.033-0.039-0.072-0.031-0.117L40.297,18.12z M32.438,10.388c-0.001,0-0.002,0-0.003,0
			c-0.407-0.001-0.995-0.777-0.995-1.992c0-1.217,0.59-1.994,0.997-1.994s0.996,0.777,0.996,1.994
			C33.433,9.61,32.845,10.386,32.438,10.388z M25.252,22.18c0.008,0.043-0.002,0.083-0.032,0.115
			c-0.039,0.044-0.181,0.071-0.234-0.018l-2.212-3.69c-0.103-0.169-0.11-0.377-0.022-0.554c0.1-0.198,0.306-0.318,0.52-0.318
			c0.059,0,0.12,0.01,0.179,0.03l1.126,0.375L25.252,22.18z M45.392,18.361v4.982c0,0.551,0.444,0.999,0.997,0.999
			c0.529,0,1.029,0.205,1.407,0.583c0.379,0.378,0.584,0.877,0.584,1.408c0,0.552,0.446,0.997,0.997,0.997
			c0.53,0,1.031,0.207,1.407,0.584c0.379,0.379,0.586,0.878,0.586,1.408h-9.965c-0.261,0-0.521-0.035-0.778-0.104
			c-1.254-0.338-2.144-1.449-2.207-2.734l0.746-2.239c0.192,0.057,0.391,0.097,0.596,0.097c0.746,0,1.449-0.398,1.835-1.038
			l2.211-3.688c0.455-0.757,0.49-1.681,0.095-2.473c-0.568-1.136-1.904-1.692-3.111-1.288l-1.16,0.387l-3.52-3.019l5.074,1.129
			c0.072,0.016,0.227,0.024,0.3,0.024c0.032,0.005,0.067,0.008,0.1,0.009c0.99,0.038,1.93,0.45,2.64,1.15
			C44.978,16.295,45.392,17.298,45.392,18.361z M43.269,8.371l-2.173,3.917l-6.323-1.405c0.339-0.569,0.558-1.267,0.621-2.042
			l4.287-4.289l2.014,0.671L43.269,8.371z M29.778,1.419h5.316l2.801,2.101l-2.875,2.875c-0.512-1.19-1.461-1.986-2.584-1.986
			c-1.124,0-2.073,0.796-2.583,1.986L26.977,3.52L29.778,1.419z M23.178,5.223l2.014-0.671l4.287,4.289
			c0.063,0.775,0.282,1.473,0.621,2.042l-6.323,1.405l-2.174-3.917L23.178,5.223z M14.087,27.914
			c0.377-0.378,0.878-0.584,1.408-0.584c0.551,0,0.996-0.445,0.996-0.997c0-0.531,0.207-1.031,0.585-1.408
			c0.378-0.378,0.878-0.583,1.407-0.583c0.552,0,0.998-0.448,0.998-0.999v-4.982c0-1.063,0.414-2.066,1.158-2.818
			c0.717-0.709,1.658-1.121,2.646-1.159c0.005,0,0.018,0,0.025-0.001c0.005,0,0.009,0.002,0.013,0.002
			c0.048,0,0.096-0.003,0.142-0.01c0.074,0,0.148-0.008,0.22-0.024l5.075-1.129l-3.52,3.019l-1.162-0.387
			c-1.202-0.4-2.541,0.152-3.11,1.29c-0.396,0.791-0.359,1.715,0.095,2.471l2.212,3.688c0.385,0.64,1.088,1.038,1.835,1.038
			c0.204,0,0.402-0.04,0.597-0.097l0.744,2.239c-0.007,0.161-0.028,0.32-0.061,0.473c-0.229,1.079-1.05,1.966-2.15,2.263
			c-0.254,0.068-0.514,0.104-0.774,0.104h-9.964C13.502,28.792,13.708,28.293,14.087,27.914z M10.621,34.307
			c0.047,0.046,0.081,0.104,0.098,0.123c0.255,0.383,0.179,0.885-0.181,1.17l-1.325,1.055c-0.003,0.003-0.006,0.009-0.01,0.012
			l-0.686,0.547v-2.377l0.976-0.654C9.833,33.962,10.291,33.982,10.621,34.307z M4.454,24.413l-0.867,2.602
			c-0.083,0.25-0.063,0.524,0.055,0.762l0.721,1.441l-1.222,1.63l-0.555-3.32L4.454,24.413z M3.573,33.591L8.329,27.3l0.083,0.061
			c0.003,0.004,0.006,0.025-0.006,0.062l-1.81,4.521c-0.047,0.117-0.07,0.242-0.07,0.369v7.834l-1.801,0.404l-0.37,0.082
			L3.573,33.591z M10.276,61.212H7.229L2.693,48.517l2.543-2.544c0.391-0.391,0.391-1.02,0-1.41l-1.702-1.703l0.168-0.038
			c0.001,0,0.002,0,0.003,0l0.269-0.059l5.182-1.159l-0.606,2.426c-0.102,0.407,0.063,0.839,0.413,1.07l2.62,1.747l1.827,12.799
			L10.276,61.212z M17.647,50.264c-0.479-0.078-0.951,0.205-1.104,0.668l-1.655,4.964l-1.396-9.772
			c-0.039-0.28-0.198-0.53-0.433-0.688l-2.405-1.604l0.824-3.306c0.084-0.335-0.011-0.688-0.251-0.936
			c-0.241-0.246-0.59-0.352-0.929-0.278l-0.111,0.024l0.482-1.288l1.046-0.838l0.063-0.05c0.147-0.116,0.276-0.242,0.395-0.378
			c0.041-0.05,0.072-0.104,0.111-0.155c0.066-0.09,0.138-0.178,0.194-0.273c0.038-0.066,0.064-0.138,0.097-0.205
			c0.043-0.088,0.088-0.174,0.12-0.266c0.026-0.073,0.041-0.15,0.062-0.227c0.023-0.091,0.053-0.18,0.067-0.272
			c0.013-0.078,0.013-0.156,0.018-0.236c0.008-0.094,0.018-0.186,0.016-0.278c-0.001-0.079-0.015-0.159-0.024-0.24
			c-0.009-0.093-0.016-0.187-0.035-0.28c-0.016-0.08-0.045-0.157-0.068-0.237c-0.026-0.093-0.052-0.183-0.09-0.274
			c-0.031-0.078-0.074-0.152-0.113-0.229c-0.036-0.072-0.064-0.146-0.107-0.215l0.216-0.577c0.016,0.026,0.037,0.059,0.052,0.086
			c0.129,0.223,0.27,0.456,0.424,0.7c0.025,0.041,0.048,0.079,0.074,0.12c0.18,0.284,0.38,0.58,0.594,0.885
			c0.06,0.085,0.124,0.173,0.187,0.261c0.166,0.228,0.34,0.46,0.522,0.697c0.084,0.107,0.167,0.214,0.256,0.321
			c0.197,0.246,0.405,0.494,0.625,0.744c0.078,0.09,0.15,0.178,0.23,0.266c0.299,0.333,0.616,0.667,0.955,1.002
			c0.071,0.07,0.147,0.138,0.22,0.207c0.276,0.265,0.563,0.528,0.865,0.79c0.124,0.107,0.251,0.214,0.379,0.319
			c0.282,0.232,0.573,0.462,0.875,0.688c0.132,0.098,0.26,0.197,0.396,0.293c0.229,0.164,0.468,0.323,0.709,0.481
			c-0.336,1.153-0.517,2.355-0.517,3.594c0,3.683,1.559,7.121,4.225,9.55c-0.745,0.545-1.235,1.419-1.235,2.409v1.181
			c-1.158,0.411-1.993,1.508-1.993,2.806v0.996h-1.993v-9.966C18.483,50.759,18.131,50.343,17.647,50.264z M22.471,61.212v-0.996
			c0-0.55,0.446-0.996,0.996-0.996h17.938c0.55,0,0.997,0.446,0.997,0.996v0.996H22.471z M48.329,50.932
			c-0.154-0.463-0.628-0.746-1.104-0.668c-0.483,0.079-0.836,0.495-0.836,0.982v9.966h-1.994v-0.996
			c0-1.297-0.835-2.394-1.992-2.805V56.23c0-0.99-0.49-1.864-1.235-2.408c2.667-2.438,4.225-5.876,4.225-9.552
			c0-1.239-0.181-2.443-0.518-3.593c0.24-0.159,0.48-0.317,0.71-0.481c0.136-0.096,0.264-0.196,0.396-0.294
			c0.303-0.226,0.594-0.455,0.875-0.688c0.129-0.106,0.255-0.213,0.38-0.319c0.301-0.263,0.588-0.525,0.864-0.79
			c0.072-0.07,0.148-0.138,0.221-0.208c0.338-0.334,0.655-0.669,0.956-1.002c0.079-0.088,0.151-0.175,0.229-0.265
			c0.219-0.25,0.428-0.499,0.625-0.744c0.088-0.108,0.172-0.214,0.256-0.321c0.183-0.237,0.356-0.47,0.521-0.698
			c0.063-0.087,0.128-0.175,0.188-0.26c0.214-0.305,0.412-0.602,0.593-0.885c0.027-0.041,0.049-0.08,0.075-0.121
			c0.153-0.244,0.294-0.478,0.423-0.699c0.016-0.027,0.036-0.061,0.053-0.087l0.215,0.574c-0.048,0.077-0.081,0.159-0.121,0.238
			c-0.037,0.07-0.079,0.14-0.109,0.214c-0.037,0.089-0.06,0.182-0.087,0.274c-0.024,0.078-0.053,0.153-0.069,0.232
			c-0.018,0.091-0.022,0.184-0.033,0.276c-0.009,0.081-0.022,0.16-0.025,0.24c-0.002,0.093,0.011,0.184,0.018,0.274
			c0.006,0.08,0.006,0.16,0.019,0.239c0.015,0.094,0.044,0.185,0.069,0.276c0.02,0.075,0.033,0.151,0.059,0.223
			c0.036,0.098,0.083,0.188,0.129,0.28c0.031,0.064,0.055,0.13,0.09,0.19c0.06,0.103,0.135,0.196,0.207,0.293
			c0.034,0.044,0.062,0.094,0.101,0.139c0.117,0.136,0.247,0.263,0.394,0.377l1.105,0.881l0.487,1.298l-0.11-0.024
			c-0.337-0.073-0.688,0.032-0.928,0.278c-0.24,0.248-0.335,0.601-0.251,0.936l0.825,3.306l-2.406,1.604
			c-0.235,0.157-0.394,0.407-0.434,0.688l-1.396,9.772L48.329,50.932z M51.463,59.646l1.827-12.799l2.62-1.747
			c0.35-0.231,0.515-0.663,0.412-1.07l-0.605-2.426l5.182,1.159l0.269,0.059c0.001,0,0.002,0,0.003,0l0.168,0.038l-1.704,1.703
			c-0.389,0.391-0.389,1.02,0,1.41l2.545,2.544l-4.536,12.695h-3.048L51.463,59.646z"/>
	</g>
</g>
<g id="DrinkSwap">
</g>
<g id="DickTator">
</g>
<g id="_x34_Eyes">
</g>
<g id="BabyTalk">
</g>
<g id="Backseat_Driver">
</g>
<g id="BAtman">
</g>
<g id="bodyguard">
</g>
<g id="BuckleUp">
</g>
<g id="RockPaperScissors">
</g>
<g id="Roger_Roger">
</g>
<g id="RoyaleWe">
</g>
<g id="Skip">
</g>
<g id="SwineRules">
</g>
<g id="Touchy_Feeley">
</g>
<g id="Wasted_Education">
</g>
<g id="Layer_86">
</g>
<g id="PointOfNoReturn">
</g>
<g id="Pirate">
</g>
<g id="Thief">
</g>
<g id="DepthPerception">
</g>
<g id="Narcissist">
</g>
<g id="MammaBird">
</g>
<g id="Staringcontest">
</g>
<g id="Cartwheel">
</g>
<g id="Censored">
</g>
<g id="Depersonalization">
</g>
<g id="threeman">
</g>
<g id="_x32__truths_and_a_lie">
</g>
<g id="cray_cray_cat_lady">
</g>
<g id="siblings">
</g>
<g id="later">
</g>
<g id="waterfall">
</g>
<g id="cheers">
</g>
<g id="rhyme">
</g>
<g id="categories">
</g>
<g id="tits">
</g>
<g id="dicks">
</g>
<g id="questions">
</g>
<g id="double_hands">
</g>
<g id="rewind">
</g>
<g id="Cryptkeeper">
</g>
<g id="Take_2_and_Redo">
</g>
<g id="Embryo">
</g>
<g id="I_am_Groot">
</g>
<g id="Mini_Me">
</g>
<g id="Ditto_1_">
</g>
<g id="reverse">
</g>
</svg>
