<?xml version="1.0" encoding="utf-8"?>
<!-- Generator: Adobe Illustrator 16.0.0, SVG Export Plug-In . SVG Version: 6.00 Build 0)  -->
<!DOCTYPE svg PUBLIC "-//W3C//DTD SVG 1.1//EN" "http://www.w3.org/Graphics/SVG/1.1/DTD/svg11.dtd">
<svg version="1.1" xmlns="http://www.w3.org/2000/svg" xmlns:xlink="http://www.w3.org/1999/xlink" x="0px" y="0px"
	 width="209.759px" height="62.361px" viewBox="0 0 209.759 62.361" enable-background="new 0 0 209.759 62.361"
	 xml:space="preserve">
<g id="Layer_1">
</g>
<g id="Blindman">
</g>
<g id="Compliments">
</g>
<g id="HAT">
</g>
<g id="speech">
</g>
<g id="TREX_ARMS">
</g>
<g id="slim_shady">
</g>
<g id="TIMEOUT">
</g>
<g id="Truth_or_Dare">
</g>
<g id="ARM_WRESTLE">
</g>
<g id="musical_chairs">
</g>
<g id="never_have_i_ever">
</g>
<g id="Trivia">
</g>
<g id="Drink_Pulling">
</g>
<g id="Sharing_is_Caring">
</g>
<g id="Not_It">
</g>
<g id="Cocktail_of_Doom">
</g>
<g id="Heads_up">
</g>
<g id="Archenemy">
</g>
<g id="battle_of_the_sexes">
</g>
<g id="one_must_drink">
</g>
<g id="rainbow_connection">
</g>
<g id="social_drinking">
</g>
<g id="Spin_the_bottle">
</g>
<g id="accents">
</g>
<g id="Slap">
</g>
<g id="down_the_hatch">
</g>
<g id="rubiks_cube">
</g>
<g id="bar_tender">
</g>
<g id="codenames">
</g>
<g id="hand_switch">
</g>
<g id="make_a_rule">
</g>
<g id="no_guts_no_glory">
</g>
<g id="pass">
</g>
<g id="santa">
</g>
<g id="snake_eyes">
</g>
<g id="lightning_round">
</g>
<g id="Bro">
</g>
<g id="LeastDrunk">
</g>
<g id="Know_It_All">
</g>
<g id="EyeContact">
</g>
<g id="UnderGuesser">
</g>
<g id="GodSaveTheQUeen">
</g>
<g id="Ghost">
</g>
<g id="Fortune_Teller">
</g>
<g id="DrinkSwap">
</g>
<g id="DickTator">
</g>
<g id="_x34_Eyes">
</g>
<g id="BabyTalk">
</g>
<g id="Backseat_Driver">
</g>
<g id="BAtman">
</g>
<g id="bodyguard">
</g>
<g id="BuckleUp">
</g>
<g id="RockPaperScissors">
</g>
<g id="Roger_Roger">
</g>
<g id="RoyaleWe">
</g>
<g id="Skip">
</g>
<g id="SwineRules">
</g>
<g id="Touchy_Feeley">
</g>
<g id="Wasted_Education">
</g>
<g id="Layer_86">
</g>
<g id="PointOfNoReturn">
</g>
<g id="Pirate">
</g>
<g id="Thief">
</g>
<g id="DepthPerception">
</g>
<g id="Narcissist">
</g>
<g id="MammaBird">
</g>
<g id="Staringcontest">
</g>
<g id="Cartwheel">
</g>
<g id="Censored">
</g>
<g id="Depersonalization">
</g>
<g id="threeman">
</g>
<g id="_x32__truths_and_a_lie">
</g>
<g id="cray_cray_cat_lady">
</g>
<g id="siblings">
</g>
<g id="later">
</g>
<g id="waterfall">
</g>
<g id="cheers">
	<g>
		<path d="M144.35,30.699c-1.184-0.546-2.458-0.867-3.76-0.945c-0.858-1.119-2.731-1.866-2.927-1.941
			c-0.848-0.472-1.323-1.015-1.409-1.613c-0.118-0.817,0.539-1.49,0.545-1.498c1.356-1.169,2.425-0.652,2.797-0.397
			c-0.637,0.751-0.881,1.427-0.723,2.005c0.216,0.8,1.11,1.089,1.146,1.102c2.296,0.707,3.13-1.081,3.139-1.102
			c0.774-2.103-1.106-3.628-1.217-3.714c-1.848-1.786-5.504-0.786-5.66-0.743c-1.007,0.328-1.94,0.851-2.744,1.538
			c-0.831-3.243-2.185-6.33-4.005-9.141c-3.732-5.763-9.259-10.136-15.725-12.44c-3.346-1.185-6.867-1.787-10.414-1.784
			c-6.909-0.012-13.622,2.286-19.075,6.529c-2.638,2.049-4.932,4.507-6.793,7.281c-1.834,2.733-3.22,5.743-4.106,8.915
			c-1.023,0.925-1.73,1.67-1.956,1.913c-7.434-1.223-11.647,0.324-13.876,1.845c-2.447,1.672-3.093,3.625-3.118,3.706
			c-0.738,2.131-0.729,3.95,0.032,5.402c0.979,1.869,2.844,2.442,3,2.486c4.693,1.912,8.503-3.255,9.179-4.245l-0.013,0.038
			c-1.366,4.249-0.97,8.067,1.138,11.043l0.011,0.013c0.042,0.048,1.032,1.217,2.835,1.947c1.354,0.55,3.385,0.919,5.907,0.009
			c0.398,0.679,0.829,1.347,1.28,1.994c-7.239,5.177-11.394,9.663-11.441,9.715c4.657-2.451,12.457-3.733,12.527-3.743
			c0,0,1.544-1.26,2.325-1.869c5.839,5.936,13.82,9.274,22.147,9.263c6.129,0.01,12.121-1.798,17.221-5.195
			c4.926-3.272,8.817-7.877,11.223-13.279c5.259,1.101,8.265,0.598,8.477,0.557c4.071-0.289,6.025-2.264,6.947-3.87
			c1.001-1.743,1.033-3.396,1.035-3.464C148.251,33.323,146.124,31.543,144.35,30.699L144.35,30.699z"/>
		<path fill="#FFFFFF" d="M68.105,44.716c-4.932-6.959,1.517-16.073,1.582-16.165c0.039-0.055,0.047-0.127,0.019-0.188
			c-0.03-0.062-0.089-0.102-0.155-0.108c-2.204-0.17-3.81,0.193-4.769,1.079c-0.832,0.771-0.841,1.647-0.841,1.686
			c0.021,0.403,0.179,0.711,0.466,0.932c0.719,0.544,2.044,0.326,2.357,0.265c0.093,0.051,0.16,0.138,0.188,0.24
			c0.06,0.238-0.106,0.602-0.469,1.021L66.466,33.5c-0.04,0.063-3.969,6.247-8.838,4.253l-0.021-0.009
			c-0.021-0.003-1.857-0.538-2.781-2.306c-0.707-1.355-0.709-3.072-0.007-5.104c0.028-0.083,2.634-7.639,16.679-5.282
			c0.063,0.01,0.127-0.013,0.17-0.059c0.074-0.084,7.563-8.225,13.132-7.017c0.009,0.004,0.018,0.005,0.025,0.005
			c0.019,0.002,1.739,0.158,2.71,1.377c0.57,0.718,0.779,1.666,0.614,2.818c-0.009,0.055-0.78,5.257-11.361,5.579
			c-0.074,0.001-0.141,0.047-0.168,0.114c-1.137,2.646-2.225,7.243-2.236,7.297c-0.602,3.274-0.38,5.448,0.655,6.467
			c0.419,0.426,1.013,0.631,1.604,0.554c4.305,0.041,7.565-6.803,7.701-7.096c0.161-0.396,0.375-0.634,0.633-0.717
			c0.359-0.116,0.715,0.107,0.717,0.11l0.04,0.02c0.314,0.111,0.528,0.287,0.637,0.522c0.189,0.411,0,0.893-0.002,0.896
			c-0.003,0.007-0.005,0.013-0.007,0.02c-1.82,6.396-8.121,9.763-8.185,9.795C72.06,49.213,68.32,44.97,68.105,44.716z"/>
		<path d="M77.765,25.301c4.551,0.166,5.206-1.396,5.258-1.537c0.166-0.37,0.188-0.709,0.063-1.017
			c-0.149-0.322-0.414-0.577-0.741-0.715c-1.866-0.889-4.607,2.811-4.723,2.969c-0.042,0.057-0.047,0.131-0.017,0.194
			C77.634,25.259,77.695,25.299,77.765,25.301L77.765,25.301z M73.319,36.323l-6.612,2.247c0,0,0,0.104,0.01,0.289l6.573-2.21
			L73.319,36.323z M73.248,37.174l-6.504,2.07l0.035,0.306l6.445-1.956C73.231,37.457,73.238,37.317,73.248,37.174L73.248,37.174z
			 M84.614,38.443c0,0,0.142-0.229,0.335-0.579l-1.459,0.158c-1.185,1.724-2.993,3.733-5.427,4.725c0,0-2.899,1.147-4.213-1.364
			l-5.939,1.862c0.712,1.275,1.851,2.416,3.663,2.81C71.572,46.057,78.624,48.177,84.614,38.443L84.614,38.443z M73.429,40.216
			l-6.015,1.967c0.078,0.206,0.166,0.414,0.264,0.617l5.916-2.01C73.529,40.602,73.476,40.41,73.429,40.216z M73.218,38.228
			l-6.324,2.07c0.029,0.155,0.059,0.316,0.1,0.484l6.237-2.119C73.223,38.519,73.219,38.373,73.218,38.228L73.218,38.228z
			 M73.264,39.162l-6.205,1.896c0.047,0.181,0.098,0.362,0.155,0.548l6.105-1.977C73.296,39.475,73.278,39.318,73.264,39.162
			L73.264,39.162z M84.358,36.638c-0.118,0.207-0.248,0.427-0.39,0.655l1.32-0.08c0.099-0.204,0.2-0.423,0.291-0.641L84.358,36.638z
			 M85.812,35.92l0.038-0.123c0.032-0.122,0.057-0.235,0.074-0.349c0,0-0.063-0.498-0.749-0.437c0,0-0.146,0.359-0.438,0.926
			L85.812,35.92z"/>
		<path fill="#FFFFFF" d="M131.729,25.329c-0.337,0.393-0.721,0.741-1.145,1.038c-0.166,0.079-0.617,0.226-0.896,0.052
			c-0.209-0.133-0.317-0.431-0.317-0.889c-0.001-0.068-0.039-0.133-0.1-0.166c-0.062-0.032-0.138-0.027-0.194,0.013
			c-0.118,0.081-2.867,2.055-3.436,8.406c-0.631,0.158-3.343,0.85-3.992,1.191c0.007-0.003-0.365,0.164-0.603-0.013
			c-0.239-0.178-0.312-0.681-0.205-1.415c0.009-0.057,0.929-5.827,2.518-8.841c0.024-0.047,0.206-0.428,0.044-0.729
			c-0.06-0.111-0.191-0.256-0.478-0.292l-1.116-0.075c0.012-0.213,0.005-0.426-0.021-0.637c-0.022-0.169-0.06-0.334-0.108-0.497
			c0.575-0.013,2.31-0.076,3.644-0.461c0.004-0.003,0.009-0.004,0.015-0.006c0.727-0.273,1.868-0.536,2.124-0.256
			c0.363,0.257,0.58,0.677,0.576,1.122c-0.056,0.086-0.031,0.2,0.055,0.257s0.201,0.031,0.257-0.055
			c0.019-0.029,0.029-0.063,0.03-0.096c0.009-0.018,1.088-1.574,2.785-1.459c0.011,0.003,0.021,0.003,0.033,0
			c0.009,0,0.746-0.069,1.206,0.381c0.296,0.289,0.421,0.736,0.376,1.33c-0.003,0.011-0.084,0.74-0.698,1.64
			C131.957,25.021,131.841,25.173,131.729,25.329z M142.086,32.925c1.883,0.552,1.883,2.021,1.883,2.086
			c-0.159,3.505-2.997,5.191-3.027,5.205c-2.275,1.366-5.959,0.949-7.953,0.578c0.073-0.225,0.143-0.453,0.211-0.679
			c1.069,0.044,2.141-0.059,3.184-0.305C141.365,38.622,142.004,34.027,142.086,32.925z M131.659,40.504l-0.058-0.016l-0.984-0.227
			c0.076-0.223,0.148-0.451,0.219-0.676c0.32,0.147,0.662,0.259,1.008,0.341L131.659,40.504L131.659,40.504z M115.106,40.524
			c0.507,0.024,1.059,0.069,1.641,0.134c-0.577,0.809-1.226,1.563-1.938,2.256v-2.41C114.993,40.515,115.097,40.521,115.106,40.524
			L115.106,40.524z M114.436,43.266c-0.809,0.738-1.687,1.392-2.619,1.95v-4.737c0.873-0.024,1.747-0.021,2.619,0.007V43.266z
			 M111.441,45.434c-0.799,0.448-1.634,0.83-2.496,1.14v-5.936c0.913-0.077,1.751-0.123,2.496-0.149V45.434L111.441,45.434z
			 M108.572,46.703c-0.754,0.252-1.525,0.448-2.308,0.587v-6.351c0.806-0.114,1.578-0.2,2.308-0.268V46.703z M105.889,47.352
			c-0.764,0.119-1.534,0.181-2.308,0.188v-6.145c0.79-0.158,1.563-0.29,2.308-0.399V47.352z M103.206,47.539
			c-0.837-0.008-1.671-0.08-2.497-0.215v-5.259c0.848-0.229,1.682-0.425,2.497-0.595V47.539z M100.336,47.259
			c-0.848-0.16-1.683-0.386-2.495-0.678v-3.628c0.838-0.294,1.672-0.554,2.495-0.788V47.259z M97.466,46.439
			c-0.866-0.336-1.701-0.743-2.496-1.223v-1.113c0.831-0.375,1.663-0.713,2.496-1.017V46.439z M94.598,44.984
			c-0.209-0.134-0.415-0.271-0.618-0.411c0.205-0.103,0.411-0.2,0.618-0.295V44.984z"/>
		<path fill="#FFFFFF" d="M93.231,44.956c2.939,2.176,6.504,3.347,10.162,3.337c5.688,0.002,11.006-2.819,14.194-7.529
			c0.547,0.073,1.114,0.159,1.69,0.254c-3.409,5.495-9.418,8.836-15.885,8.832c-4.229,0.008-8.333-1.426-11.637-4.065
			C92.243,45.491,92.735,45.216,93.231,44.956z"/>
		<path fill="#FFFFFF" d="M83.194,51.536c5.369,5.334,12.632,8.321,20.199,8.313c5.584,0.008,11.049-1.62,15.718-4.684
			c4.492-2.939,8.072-7.079,10.333-11.948c0.603,0.152,0.959,0.249,0.978,0.254l0.067,0.018c-2.326,5.1-6.045,9.44-10.727,12.523
			c-4.857,3.203-10.551,4.908-16.369,4.899c-7.905,0.014-15.487-3.131-21.063-8.734C82.617,51.962,82.904,51.747,83.194,51.536
			L83.194,51.536z M78.938,48.121c-0.398-0.573-0.776-1.16-1.133-1.76c0.184-0.091,0.369-0.188,0.553-0.295
			c0.129-0.068,0.255-0.141,0.379-0.216c0.338,0.564,0.7,1.124,1.074,1.668C79.517,47.72,79.224,47.918,78.938,48.121L78.938,48.121
			z M85.996,38.013c0.284-0.619,0.531-1.272,0.726-1.958l0.003-0.003c0.208,0.667,0.453,1.082,0.473,1.118
			c0.037,0.06,0.104,0.092,0.172,0.088c0.578,1.512,1.366,2.933,2.344,4.223c-0.471,0.233-0.938,0.476-1.4,0.725
			C87.363,40.912,86.584,39.504,85.996,38.013z M85.882,34.159c-0.292-0.173-0.641-0.229-0.973-0.151
			c-0.408-2.638-0.248-5.331,0.472-7.901c0.577-0.338,1.038-0.69,1.397-1.02c0.563-0.515,0.945-1.024,1.206-1.468
			c-1.146,2.344-1.742,4.918-1.737,7.527c0,0.769,0.05,1.538,0.151,2.294l0.038,0.179c-0.024,0.298-0.024,0.59-0.006,0.863
			C86.272,34.339,86.084,34.229,85.882,34.159L85.882,34.159z M76.63,41.813l-0.042,0.004c-0.479,0.061-0.96-0.109-1.293-0.457
			c-0.644-0.639-1.26-2.221-0.541-6.125c0.002-0.009,0.054-0.231,0.145-0.602c0.299,2.463,0.917,4.877,1.84,7.18H76.63L76.63,41.813
			z M131.173,21.142c-0.283-0.018-0.567,0.005-0.845,0.063c-0.981-2.658-2.353-5.155-4.066-7.412
			c-1.751-2.301-3.835-4.326-6.186-6.009c-4.862-3.488-10.7-5.358-16.683-5.344c-5.77-0.01-11.406,1.727-16.168,4.983
			c-4.565,3.108-8.135,7.468-10.282,12.556c-0.556,0.372-1.091,0.759-1.589,1.146c2.019-5.634,5.685-10.529,10.521-14.051
			c5.083-3.718,11.22-5.715,17.518-5.698c6.307,0,12.332,1.948,17.427,5.63c4.885,3.53,8.587,8.457,10.618,14.131
			C131.35,21.134,131.261,21.135,131.173,21.142L131.173,21.142z"/>
		<path fill="#FFFFFF" d="M119.824,26.97l-0.01,0.013c-0.042,0.06-1.08,1.472-3.394,1.355c0.004,0-0.947-0.124-1.39-0.827
			c-0.034-0.054-0.095-0.088-0.158-0.088c-0.064,0-0.126,0.034-0.159,0.09c-0.047,0.078-1.157,1.911-0.644,3.309
			c0.02,0.082,0.147,0.542,0.604,0.714c0.459,0.177,1.069-0.018,1.811-0.575c0.02-0.016,1.119-0.954,1.663-1.453
			c0.229-0.14,0.631-0.297,0.789-0.201l0.016,0.008c0.004,0.004,0.174,0.094,0.226,0.307c0.053,0.219-0.036,0.508-0.256,0.835
			c-0.02,0.028-2.757,3.574-5.622,3.494l-0.022,0.002c-0.119,0.01-2.926,0.24-3.543-2.354c-0.007-0.023-0.535-2.291,1.056-5.257
			c0.047-0.088,0.015-0.197-0.07-0.249c-0.087-0.051-0.198-0.023-0.252,0.063c-0.241,0.37-0.506,0.725-0.792,1.062l-0.008,0.013
			c-0.041,0.06-1.08,1.474-3.394,1.355c0.004,0-0.947-0.123-1.39-0.827c-0.036-0.054-0.097-0.088-0.16-0.088
			s-0.124,0.034-0.158,0.09c-0.046,0.078-1.154,1.911-0.645,3.309c0.021,0.082,0.15,0.543,0.605,0.714
			c0.459,0.177,1.067-0.017,1.811-0.574c0.02-0.016,1.121-0.955,1.663-1.452c0.231-0.141,0.63-0.299,0.788-0.203l0.017,0.009
			c0.006,0.003,0.174,0.094,0.226,0.306c0.055,0.219-0.034,0.508-0.256,0.836c-0.022,0.027-2.758,3.573-5.619,3.494l-0.024,0.002
			c-0.12,0.01-2.926,0.239-3.542-2.354c-0.012-0.044-1.02-4.697,4.554-9.422c0.039-0.036,3.183-2.873,6.201-0.863
			c0.066,0.048,1.717,1.269,0.571,3.798c-0.042,0.09-0.004,0.195,0.082,0.242c0.085,0.045,0.193,0.02,0.245-0.063
			c0.725-1.132,1.751-2.267,3.05-3.366c0.037-0.036,3.18-2.873,6.197-0.862c0.006,0.002,0.784,0.573,0.932,1.707
			C121.568,24.188,121.032,25.515,119.824,26.97L119.824,26.97z"/>
		<path fill="#FFFFFF" d="M116.248,30.672c-0.611,0.456-1.108,0.637-1.439,0.519V28.13l0.088-0.179
			c0.572,0.641,1.452,0.756,1.492,0.761c0.233,0.014,0.457,0.009,0.666-0.005v1.27C116.636,30.342,116.255,30.665,116.248,30.672
			L116.248,30.672z M114.436,30.747l-0.004-0.016l-0.008-0.025c-0.184-0.492-0.123-1.067,0.012-1.582V30.747z M109.323,29.607
			c-0.078-0.159-0.204-0.291-0.357-0.377l0.016,0.01c-0.419-0.264-1.117,0.16-1.197,0.207c-0.501,0.453-1.008,0.896-1.523,1.331
			V28.96c1.993,0.094,3.12-0.862,3.531-1.3C109.566,28.291,109.409,28.943,109.323,29.607L109.323,29.607z M104.749,28.2
			c0.354,0.395,0.82,0.591,1.138,0.682v2.188c-0.515,0.346-0.94,0.475-1.23,0.366c-0.295-0.108-0.374-0.452-0.374-0.456
			l-0.009-0.025C103.917,29.999,104.479,28.726,104.749,28.2L104.749,28.2z M98.28,32.795c-0.121,0.46,0.106,0.938,0.537,1.136
			c0.038,0.018,0.618,0.269,0.525,0.733c-0.007,0.031-0.005,0.063,0.006,0.092c0,0.005,0.042,0.164-0.086,0.344
			c-0.151,0.21-0.557,0.476-1.619,0.537c-0.068,0.004-1.745,0.074-2.837,0.781l-0.019,0.014c-0.002,0-0.247,0.197-0.539,0.153
			c-0.199-0.03-0.381-0.167-0.547-0.409c-0.049-0.146-0.366-1.178,0.073-2.604c0.016-0.05,1.379-4.758,1.933-6.294
			c0.028-0.064,0.175-0.453-0.036-0.676c-0.129-0.141-0.346-0.161-0.637-0.063c-0.171,0.065-3.95,1.616-3.565,8.906l-4.022,1.399
			c-0.231-0.46-0.935-2.059-0.531-3.975c0.008-0.043,0.573-3.517,1.675-6.271c0.05-0.124,1.2-3.048,1.2-4.688
			c0.008-0.274-0.103-0.541-0.301-0.732c-0.206-0.182-0.492-0.256-0.855-0.224c-0.08-0.505-0.123-1.052-0.083-1.29h1.737
			c0.038,0.003,1.163,0.056,3.035-0.563c0.271-0.025,0.535,0.077,0.719,0.277c0.328,0.377,0.35,1.128,0.061,2.172
			c-0.028,0.104-0.629,2.459-0.754,3.395c-0.01,0.079,0.031,0.155,0.103,0.191c0.072,0.037,0.159,0.023,0.214-0.036
			c0.023-0.023,2.439-2.396,4.79-1.455c0.021,0.009,1.039,0.344,1.49,1.249c0.284,0.568,0.292,1.242,0.024,2.012
			C99.913,27.06,98.475,30.854,98.28,32.795L98.28,32.795z"/>
		<path fill="#FFFFFF" d="M88.082,37.019l0.774-0.271v1.985C88.564,38.178,88.306,37.604,88.082,37.019z M87.006,30.558
			c0.095-2.783,0.902-5.495,2.344-7.878c-0.249,1.611-1.094,3.755-1.104,3.78C87.703,27.815,87.288,29.344,87.006,30.558z
			 M100.283,24.724c-0.525-1.049-1.651-1.416-1.702-1.432c-0.238-0.096-0.487-0.164-0.742-0.206v-7.38
			c0.813-0.293,1.646-0.52,2.496-0.678v9.807C100.319,24.797,100.302,24.76,100.283,24.724L100.283,24.724z M93.261,18.73
			l-0.034,0.008c-0.298,0.101-0.577,0.181-0.834,0.247c0.686-0.622,1.424-1.187,2.205-1.687v2.345
			c-0.053-0.191-0.146-0.367-0.274-0.516C94.052,18.835,93.658,18.688,93.261,18.73L93.261,18.73z M94.465,21.645
			c0.054-0.195,0.098-0.379,0.129-0.557v2.823c-0.272,0.173-0.535,0.361-0.786,0.565C94.018,23.39,94.46,21.666,94.465,21.645
			L94.465,21.645z M94.97,17.067c0.797-0.479,1.632-0.887,2.496-1.222v7.202c-0.928-0.048-1.797,0.267-2.496,0.644V17.067z
			 M100.709,14.963c0.82-0.132,1.652-0.206,2.497-0.214v8.008c-0.958,0.879-1.796,1.88-2.497,2.976V14.963z M103.581,14.749
			c0.78,0.01,1.551,0.072,2.308,0.188v5.985c-0.727,0.302-1.4,0.715-1.998,1.228l-0.31,0.269V14.749z M106.263,14.997
			c0.788,0.137,1.557,0.333,2.307,0.582v4.928c-0.779-0.086-1.569,0.008-2.307,0.273V14.997z M108.945,15.708
			c0.862,0.309,1.697,0.69,2.496,1.141v5.609c-0.33-0.792-0.879-1.192-0.889-1.2c-0.539-0.359-1.079-0.575-1.607-0.689V15.708z
			 M111.816,17.067c0.933,0.559,1.81,1.212,2.619,1.954v2.56c-0.247,0.184-0.39,0.313-0.397,0.317
			c-0.857,0.728-1.603,1.474-2.222,2.227V17.067z M114.812,19.373c0.423,0.411,0.825,0.847,1.206,1.306
			c-0.474,0.2-0.884,0.434-1.206,0.641V19.373z"/>
		<path fill="#FFFFFF" d="M116.77,20.419c-3.246-4.068-8.172-6.433-13.376-6.421c-4.631,0-8.971,1.817-12.219,5.118
			c0,0-0.057,0.055-0.116,0.127c-0.251,0.036-0.505,0.05-0.759,0.043h-1.373c1.7-2.066,3.819-3.748,6.219-4.936
			c2.564-1.266,5.386-1.919,8.245-1.912c3.056,0,6.088,0.754,8.769,2.179c2.546,1.357,4.745,3.28,6.43,5.622
			C117.977,20.189,117.361,20.25,116.77,20.419z M88.523,22.224c0.044-0.307,0.062-0.604,0.055-0.887
			c0.299-0.041,0.522-0.003,0.659,0.121l0.031,0.031l-0.031-0.021c-0.355,0.518-0.68,1.056-0.976,1.611
			C88.476,22.583,88.519,22.252,88.523,22.224z M90.399,41.147c-0.427-0.554-0.817-1.134-1.169-1.738v-2.788l2.495-0.868v4.785
			C91.256,40.746,90.813,40.949,90.399,41.147z M92.101,31.571c0.803-3.741,3.035-4.669,3.063-4.682
			c0.171-0.058,0.229-0.036,0.237-0.033c0.02,0.033,0.004,0.172-0.042,0.287c-0.562,1.555-1.927,6.272-1.94,6.32
			c-0.512,1.662-0.076,2.814-0.056,2.865c0.004,0.015,0.009,0.027,0.017,0.038c0.23,0.346,0.509,0.541,0.821,0.59
			c0.146,0.019,0.28,0.005,0.396-0.026v2.453c-0.842,0.309-1.674,0.641-2.497,0.994V31.571L92.101,31.571z M94.97,36.759
			c0.016-0.01,0.031-0.021,0.045-0.034c0.798-0.513,1.987-0.662,2.451-0.703v2.409c-0.841,0.249-1.673,0.52-2.496,0.813V36.759z
			 M97.841,36.001c0.885-0.074,1.466-0.309,1.735-0.695c0.128-0.179,0.178-0.4,0.14-0.615c0.085-0.585-0.443-0.973-0.743-1.098
			c-0.271-0.123-0.41-0.426-0.33-0.712l0.009-0.033c0.056-0.594,0.241-1.379,0.467-2.187c-0.018,0.75,0.086,1.214,0.101,1.273
			c0.15,0.72,0.546,1.365,1.117,1.828v3.925c-0.838,0.188-1.67,0.4-2.495,0.637V36.001L97.841,36.001z M100.709,34.02
			c1.093,0.643,2.346,0.563,2.444,0.556h0.053v2.565c-0.861,0.134-1.694,0.288-2.497,0.465V34.02L100.709,34.02z M103.581,34.561
			c0.814-0.07,1.599-0.378,2.308-0.789v3.041c-0.786,0.068-1.557,0.16-2.308,0.271V34.561z M106.263,33.54
			c0.999-0.652,1.816-1.47,2.307-2.019v5.152c-0.782,0.013-1.552,0.049-2.307,0.109V33.54z M108.931,31.103
			c0.081-0.096,0.128-0.16,0.143-0.179c0.076-0.11,0.138-0.216,0.188-0.32c0.004,0.653,0.096,1.046,0.106,1.084
			c0.229,1.095,1.017,1.991,2.074,2.359v2.696c-0.832-0.053-1.664-0.077-2.496-0.072v-5.566h-0.015V31.103z M111.816,34.169
			c0.766,0.206,1.417,0.163,1.487,0.158c0.386,0.011,0.763-0.041,1.134-0.132v2.877c-0.869-0.136-1.742-0.236-2.619-0.301v-2.603
			H111.816z M114.812,34.085c0.813-0.289,1.573-0.712,2.246-1.253v4.675c-1.199-0.207-1.845-0.303-1.865-0.307l-0.381-0.064V34.085z
			 M117.431,32.528c1.047-0.885,1.735-1.779,1.791-1.854c0.295-0.436,0.398-0.82,0.313-1.153c-0.062-0.229-0.212-0.424-0.418-0.541
			l0.014,0.01c-0.419-0.264-1.118,0.159-1.196,0.207l-0.029,0.021c-0.131,0.124-0.298,0.271-0.477,0.43v-0.982
			c0.919-0.13,1.589-0.492,2.027-0.821c0.682,3.33,0.315,6.788-1.048,9.9l-0.977-0.173V32.528L117.431,32.528z M66.854,31.844
			c-0.033-0.012-0.07-0.015-0.105-0.007c-0.015,0.002-1.453,0.317-2.116-0.184c-0.201-0.151-0.32-0.391-0.32-0.644
			c0.004-0.019,0.017-0.752,0.731-1.409c0.82-0.752,2.253-1.094,4.151-0.991c-0.362,0.547-1.187,1.877-1.921,3.638
			C67.19,32.064,67.041,31.92,66.854,31.844z M78.812,54.509c-0.626,0.095-6.468,0.995-10.9,3.018
			c1.597-1.557,5.648-5.281,12.117-9.702c0.091,0.127,0.24,0.332,0.433,0.587c-3.262,2.269-6.421,4.685-9.469,7.233
			c2.452-0.997,7.363-1.913,7.363-1.913c0.93-0.879,2.371-1.987,3.935-3.106c0.208,0.225,0.417,0.444,0.629,0.648
			c-1.411,1.024-2.781,2.104-4.107,3.237V54.509z"/>
		<path fill="#FFFFFF" d="M140.273,43.978h-0.011l-0.012,0.002c-0.036,0.009-3.618,0.639-9.737-0.872
			c-0.098-0.025-10.142-2.709-15.383-2.956c-0.03-0.003-3.573-0.286-8.395,0.332c-4.119,0.531-9.985,1.841-15.29,5.05
			c-0.224-0.187-0.443-0.378-0.659-0.575c9.415-6.573,25.04-5.284,25.04-5.284c4.117-0.124,16.514,3.036,16.514,3.036
			c5.115,1.206,9.566,0.083,9.566,0.083c6.573-1.913,4.701-8.318,4.701-8.318c-0.227-0.689-0.611-1.313-1.124-1.824l-1.354,0.396
			c0.848,0.764,0.938,1.594,0.938,1.594c0.417,3.537-1.997,5.741-1.997,5.741c-2.786,3.451-10.19,1.539-10.19,1.539
			c-2.663-0.499-13.061-3.037-13.061-3.037c-7.279-1.913-14.391-1.248-14.391-1.248c-7.363,0.893-13.8,4.058-16.405,5.486
			c-0.133-0.157-0.263-0.317-0.39-0.48l-0.096-0.126c4.119-2.21,14.869-7.068,26.588-4.943c0.067,0.01,6.274,0.942,16.379,3.284
			c0.248,0.067,6.266,1.703,9.621-0.312c0.028-0.018,3.041-1.799,3.211-5.518c0-0.024,0.018-1.953-2.39-2.521l-0.229-0.055v0.237
			c0,0.223-0.07,5.482-5.431,6.765c-0.06,0.016-5.645,1.455-7.063-2.01c-0.33-0.817-0.345-1.729-0.041-2.557
			c0.486-1.371,1.758-2.544,3.773-3.484l0.291-0.136l-0.263-0.186c-0.127-0.089-3.072-2.228-1.074-5.362l0.091-0.133
			c0.146-0.169,0.274-0.337,0.383-0.498c0.693-0.839,2.105-2.284,3.997-2.869c0.032-0.007,3.616-0.988,5.304,0.662l0.008,0.009
			l0.011,0.006c0.073,0.056,1.792,1.399,1.102,3.283c-0.022,0.047-0.707,1.488-2.682,0.882c-0.004-0.002-0.735-0.241-0.896-0.845
			c-0.129-0.487,0.128-1.094,0.775-1.803l0.124-0.136l-0.134-0.126c-0.016-0.014-1.518-1.383-3.453,0.288
			c-0.042,0.041-0.802,0.817-0.662,1.82c0.104,0.724,0.645,1.363,1.611,1.896l0.012,0.005l0.012,0.007
			c0.02,0.007,2.039,0.784,2.825,1.887l0.056,0.077l0.094,0.003c0.3,0.003,7.349,0.205,7.43,6.884
			C147.918,37.27,147.744,43.455,140.273,43.978L140.273,43.978z"/>
		<path d="M133.412,37.792c0.278,0.309,0.779,0.43,1.486,0.362c0.048-0.009,1.032-0.154,1.637-1.071
			c0.521-0.785,0.6-1.874,0.23-3.241l-0.069-0.247l-0.213,0.14c-0.339,0.219-3.28,2.178-3.286,3.336
			C133.159,37.33,133.237,37.596,133.412,37.792L133.412,37.792z"/>
		<path fill="#FFFFFF" d="M133.566,37.128l0.004-0.021v-0.024c-0.026-0.667,1.682-2.063,2.898-2.89
			c0.267,1.132,0.184,2.034-0.238,2.679c-0.32,0.47-0.811,0.795-1.368,0.907c-0.571,0.056-0.975-0.026-1.167-0.234
			C133.592,37.432,133.546,37.279,133.566,37.128L133.566,37.128z"/>
		<path d="M140.536,30.729l-0.025-0.018l-9.676,2.839c-0.146,0.171-0.283,0.35-0.409,0.535l11.1-3.253
			C141.197,30.776,140.867,30.743,140.536,30.729z M142.352,31l-12.211,3.58c-0.116,0.236-0.2,0.461-0.255,0.678l13.456-3.947
			C143.018,31.187,142.688,31.081,142.352,31L142.352,31z M139.056,29.761c-0.118-0.073-0.236-0.143-0.356-0.211l-4.716,1.383
			c0.104,0.096,0.194,0.175,0.267,0.238L139.056,29.761z M136.848,37.289c-0.703,1.063-1.858,1.228-1.912,1.236
			c-0.832,0.08-1.439-0.082-1.8-0.48c-0.244-0.274-0.358-0.642-0.311-1.005c0.012-0.366,0.223-0.769,0.542-1.17l-3.453,1.013
			c0.179,0.577,0.478,0.918,0.478,0.918c2.412,2.662,6.365,0.831,6.365,0.831c3.129-1.529,4.079-3.58,4.328-5.025l-3.759,1.102
			C137.454,35.746,137.298,36.611,136.848,37.289L136.848,37.289z"/>
		<path fill="#FFFFFF" d="M132.832,36.982c-0.004,0.019-0.008,0.038-0.008,0.058c-0.003,0.026-0.005,0.051-0.003,0.074
			L132.832,36.982z"/>
		<path d="M142.151,32.045c0.405,0.106,0.755,0.235,1.057,0.383l1.477-0.433c-0.257-0.172-0.526-0.325-0.807-0.457L142.151,32.045z
			 M134.046,35.052l-4.188,1.227c-0.018-0.188-0.016-0.375,0.005-0.564l5.225-1.532C134.695,34.48,134.348,34.771,134.046,35.052z
			 M137.072,33.536l0.054,0.208c0.043,0.149,0.074,0.295,0.106,0.438l3.915-1.147c0.015-0.231,0.015-0.463-0.002-0.693
			L137.072,33.536L137.072,33.536z M139.342,29.938l-5.758,1.688c-0.682,0.303-1.327,0.685-1.92,1.14l8.289-2.432
			C139.751,30.199,139.547,30.067,139.342,29.938L139.342,29.938z M88.243,29.355l4.18-1.359c0.167-0.193,0.351-0.374,0.551-0.535
			l-4.555,1.435C88.419,28.898,88.35,29.065,88.243,29.355z M87.406,33.356l3.481-1.132c0.015-0.171,0.035-0.344,0.06-0.52
			l-3.5,1.138C87.43,33.011,87.417,33.183,87.406,33.356z M87.935,30.334l3.76-1.225c0.099-0.203,0.208-0.399,0.332-0.586
			l-3.932,1.279C88.039,29.963,87.988,30.14,87.935,30.334z M87.521,32.261l3.526-1.148c0.036-0.18,0.073-0.359,0.119-0.538
			L87.61,31.73C87.574,31.906,87.544,32.083,87.521,32.261z M87.672,31.398l3.589-1.166c0.056-0.19,0.119-0.378,0.188-0.563
			l-3.653,1.19C87.75,31.038,87.709,31.217,87.672,31.398L87.672,31.398z M90.841,32.863l-3.454,1.124
			c0,0.75,0.078,1.523,0.284,2.272l3.244-1.061C90.915,35.199,90.777,34.191,90.841,32.863z M94.347,33.391c0,0-0.561,2.185,0,2.434
			c0,0,0.562,0.312,1.061-0.249c0,0,1.559-0.687,2.871-0.562l0.748-0.062c0,0,0.188-0.438-0.748-0.438c0,0-1.186-0.376-0.623-1.935
			l0.671-2.15l-3.408,1.11L94.347,33.391z M95.491,29.665l3.417-1.112l0.176-0.555l-3.423,1.111L95.491,29.665z M96.1,27.677
			l3.397-1.106c0.021-0.129,0.041-0.306,0.045-0.493l-3.28,1.066L96.1,27.677z M99.461,25.404l-2.932,0.874l-0.128,0.424
			l3.125-1.019C99.517,25.589,99.494,25.495,99.461,25.404L99.461,25.404z M95.767,28.765l3.424-1.117l0.173-0.554l-3.428,1.113
			L95.767,28.765z M95.128,30.845l3.413-1.111l0.172-0.557l-3.414,1.11L95.128,30.845z M105.372,25.646
			c0.01,0.006,0.954,0.623,0.954,1.424c0,0.081,0.052,0.153,0.129,0.178c0.078,0.025,0.164-0.004,0.21-0.07
			c0.209-0.292,2.007-2.894,1.689-3.989c-0.056-0.204-0.202-0.371-0.397-0.451c-0.124-0.05-1.248-0.396-2.653,2.673
			C105.264,25.495,105.293,25.595,105.372,25.646L105.372,25.646z"/>
		<path fill="#FFFFFF" d="M107.815,23.082c0.094,0.04,0.149,0.106,0.183,0.208c0.195,0.677-0.774,2.362-1.382,3.292
			c-0.193-0.562-0.67-0.979-0.908-1.157C106.929,22.837,107.813,23.082,107.815,23.082z"/>
		<path d="M100.247,31.301c0.016,0.169,0.04,0.341,0.069,0.511c0,0,0.332,2.039,2.994,1.996c0,0,1.873-0.084,4.824-2.703
			c0,0,0.249-0.457,0.124-1.04c0,0-3.41,3.077-4.45,1.913c0,0-0.412-0.504-0.457-1.647L100.247,31.301z M100.817,27.534l3.444-1.074
			c0.063-0.141,0.13-0.289,0.204-0.439l-3.486,1.09C100.921,27.251,100.866,27.392,100.817,27.534L100.817,27.534z M101.483,25.997
			c-0.084,0.162-0.164,0.325-0.238,0.492l3.541-1.108c0.088-0.164,0.181-0.332,0.276-0.501L101.483,25.997L101.483,25.997z
			 M103.67,28.06l-3.287,1.026c-0.117,0.567-0.172,1.146-0.166,1.723l3.137-0.979C103.394,29.229,103.499,28.636,103.67,28.06z
			 M100.475,28.683l3.325-1.04c0.074-0.227,0.16-0.46,0.258-0.705l-3.394,1.061C100.594,28.218,100.53,28.445,100.475,28.683
			L100.475,28.683z M108.498,24.223l2.22-0.695c0.015-0.138,0.024-0.281,0.031-0.425l-2.114,0.658
			C108.593,23.916,108.548,24.07,108.498,24.223z M106.222,27.443c0,0-0.147,0.042-0.32-0.082l-0.608,0.188
			c0.151,0.192,0.35,0.34,0.576,0.428l3.208-1.002c0.237-0.222,0.486-0.496,0.715-0.831l-2.659,0.833
			C106.855,27.275,106.551,27.461,106.222,27.443L106.222,27.443z M107.504,26.486l2.574-0.804c0.119-0.22,0.227-0.462,0.322-0.726
			l-2.487,0.778C107.792,26,107.654,26.255,107.504,26.486L107.504,26.486z M105.467,26.501l-0.545,0.169
			c0.028,0.155,0.078,0.361,0.179,0.569l0.557-0.174C105.566,26.887,105.503,26.697,105.467,26.501z M108.125,25.256l2.422-0.758
			c0.035-0.13,0.063-0.266,0.092-0.403l-2.348,0.732C108.24,24.965,108.186,25.107,108.125,25.256z M110.396,31.051
			c0.018,0.17,0.039,0.342,0.069,0.51c0,0,0.334,2.039,2.994,1.998c0,0,1.874-0.085,4.826-2.703c0,0,0.25-0.458,0.124-1.04
			c0,0-3.412,3.075-4.451,1.912c0,0-0.41-0.504-0.456-1.647L110.396,31.051L110.396,31.051z M110.966,27.285l3.443-1.074
			c0.064-0.142,0.131-0.29,0.204-0.438l-3.485,1.089C111.07,27.002,111.017,27.143,110.966,27.285L110.966,27.285z M111.631,25.748
			c-0.083,0.161-0.162,0.325-0.238,0.491l3.544-1.107c0.086-0.165,0.179-0.333,0.274-0.502L111.631,25.748z M113.819,27.811
			l-3.287,1.026c-0.116,0.566-0.171,1.144-0.163,1.723l3.137-0.981C113.529,29.084,113.622,28.497,113.819,27.811z M110.622,28.434
			l3.326-1.04c0.074-0.226,0.159-0.46,0.257-0.705l-3.393,1.06C110.742,27.968,110.679,28.195,110.622,28.434L110.622,28.434z
			 M118.646,23.974l2.222-0.695c0.015-0.138,0.022-0.281,0.028-0.426l-2.114,0.659C118.741,23.667,118.697,23.82,118.646,23.974z
			 M116.371,27.193c0,0-0.146,0.042-0.32-0.083l-0.606,0.191c0.149,0.191,0.348,0.339,0.575,0.427l3.206-1.002
			c0.237-0.222,0.485-0.498,0.714-0.831l-2.66,0.831C117.003,27.026,116.701,27.212,116.371,27.193z M117.652,26.237l2.573-0.805
			c0.122-0.22,0.229-0.462,0.323-0.725l-2.485,0.778C117.939,25.75,117.803,26.005,117.652,26.237L117.652,26.237z M115.613,26.251
			l-0.543,0.17c0.029,0.156,0.081,0.361,0.18,0.569l0.556-0.175C115.715,26.638,115.651,26.447,115.613,26.251z M118.274,25.005
			l2.42-0.757c0.036-0.13,0.067-0.265,0.093-0.403l-2.346,0.732C118.391,24.717,118.333,24.857,118.274,25.005L118.274,25.005z"/>
		<path d="M115.521,25.396c0.01,0.006,0.956,0.623,0.956,1.424c0,0.082,0.052,0.153,0.13,0.178c0.076,0.024,0.161-0.004,0.207-0.069
			c0.208-0.292,2.007-2.894,1.689-3.99c-0.055-0.205-0.2-0.371-0.397-0.451c-0.124-0.05-1.248-0.396-2.653,2.674
			C115.412,25.245,115.44,25.346,115.521,25.396L115.521,25.396z"/>
		<path fill="#FFFFFF" d="M117.964,22.833c0.093,0.04,0.149,0.105,0.182,0.208c0.198,0.677-0.771,2.361-1.38,3.292
			c-0.193-0.561-0.67-0.979-0.906-1.158C117.08,22.587,117.962,22.833,117.964,22.833z"/>
		<path d="M121.916,31.141l3.422-1.026c0.073-0.293,0.16-0.598,0.26-0.902l-3.47,1.039
			C122.053,30.541,121.983,30.839,121.916,31.141L121.916,31.141z M122.896,27.66l4.081-1.224c0.121-0.16,0.244-0.314,0.376-0.465
			l-4.317,1.295L122.896,27.66L122.896,27.66z M122.217,29.906l3.503-1.05c0.063-0.18,0.134-0.359,0.208-0.537l-3.572,1.07
			L122.217,29.906z M122.489,28.938l3.652-1.097c0.102-0.211,0.209-0.421,0.327-0.627l-3.799,1.14
			C122.61,28.54,122.55,28.736,122.489,28.938z M121.529,33.474c0,0-0.291,0.957,0.623,0.665c0,0,2.038-0.58,2.702-0.706
			c0,0,0.02-1.238,0.364-2.817l-3.403,1.022C121.695,32.238,121.594,32.858,121.529,33.474L121.529,33.474z M123.36,26.353
			c-0.004,0.021-0.006,0.04-0.002,0.049l-0.108,0.28l4.9-1.469c0.155-0.124,0.319-0.239,0.49-0.347l-0.014-0.093L123.36,26.353
			L123.36,26.353z M129.993,25.53l1.717-0.515c0.1-0.141,0.191-0.286,0.275-0.438l-2.121,0.637
			C129.896,25.324,129.938,25.431,129.993,25.53z M129.767,24.726l2.475-0.742c0.033-0.104,0.057-0.208,0.075-0.317l-2.579,0.774
			C129.743,24.524,129.753,24.623,129.767,24.726L129.767,24.726z"/>
	</g>
	<g>
		<g>
			<path d="M34.224,20.172l-2.709-0.382l0.566-4.014l0.133-0.937l0.037-0.264l-0.012-0.001c0.122-1.839-1.197-3.494-3.052-3.756
				l-1.009-0.142c0.06-2.571-1.82-4.843-4.427-5.211c-2.036-0.287-3.967,0.665-5.026,2.279c-0.538-0.983-1.517-1.712-2.711-1.881
				c-1.822-0.257-3.525,0.877-4.033,2.592c-1.593,0.078-2.947,1.212-3.289,2.795l-0.011-0.001l-0.037,0.263l-0.133,0.938
				L4.963,37.604l-0.892,6.319l5.592,0.789l1.201,0.17l4.391,0.619l1.201,0.17l4.391,0.619l1.201,0.17l5.592,0.789l0.893-6.319
				l0.295-2.097l2.709,0.383c2.847,0.401,5.49-1.589,5.893-4.436l1.229-8.717C39.061,23.217,37.07,20.573,34.224,20.172z
				 M9.832,43.513l-4.391-0.62l0.722-5.118c0.171-1.211,1.295-2.057,2.506-1.886c1.21,0.17,2.057,1.295,1.886,2.506L9.832,43.513z
				 M15.425,44.302l-4.392-0.62l0.723-5.118c0.171-1.211,1.294-2.057,2.506-1.886c1.21,0.17,2.056,1.295,1.885,2.506L15.425,44.302z
				 M21.017,45.091l-4.393-0.62l0.723-5.118c0.171-1.211,1.295-2.057,2.507-1.886c1.21,0.17,2.056,1.295,1.886,2.506L21.017,45.091z
				 M26.608,45.88l-4.391-0.62l0.722-5.118c0.171-1.211,1.295-2.057,2.505-1.886c1.211,0.17,2.058,1.295,1.887,2.506L26.608,45.88
				L26.608,45.88z M30.313,19.62l-0.621,4.402l-1.444,10.238l-0.552,3.912c-0.521-0.588-1.245-1-2.082-1.118
				c-1.158-0.164-2.265,0.275-3.004,1.077c-0.488-0.975-1.429-1.703-2.587-1.866c-1.16-0.164-2.267,0.275-3.005,1.077
				c-0.487-0.975-1.43-1.703-2.588-1.866c-1.159-0.164-2.266,0.275-3.004,1.077c-0.488-0.975-1.431-1.703-2.588-1.866
				c-0.838-0.118-1.646,0.078-2.311,0.498L9.712,12.62l2.734,0.386l-0.819,5.807c-0.195,1.385,0.771,2.67,2.156,2.866
				c1.386,0.195,2.671-0.772,2.866-2.157l0.819-5.807l2.574,0.363l0,0l0.17-1.2l0,0l-3.775-0.532l-0.988,7.006
				c-0.103,0.724-0.773,1.228-1.496,1.126c-0.723-0.103-1.227-0.772-1.125-1.495l0.989-7.007l-3.921-0.554
				c0.285-1.112,1.339-1.863,2.509-1.743l0.58,0.059l0.085-0.601c0.199-1.331,1.439-2.259,2.774-2.07
				c1.343,0.189,2.281,1.437,2.092,2.778l1.201,0.169c0.303-2.148,2.297-3.649,4.444-3.346c2.148,0.303,3.649,2.297,3.347,4.445
				l-0.085,0.601l2.174,0.307c1.191,0.168,2.048,1.208,2.017,2.385l-9.221-1.302h-0.001l-0.169,1.2h0.001l9.234,1.304L30.313,19.62
				L30.313,19.62z M30.894,24.192l2.709,0.382c0.42,0.06,0.712,0.449,0.652,0.868l-1.23,8.718c-0.059,0.419-0.447,0.712-0.867,0.652
				l-2.708-0.382L30.894,24.192z M36.228,34.612c-0.309,2.185-2.337,3.712-4.521,3.403l-2.709-0.382l0.282-2.002l2.709,0.382
				c1.081,0.152,2.085-0.603,2.237-1.685l1.23-8.717c0.152-1.082-0.604-2.085-1.685-2.238l-2.708-0.382l0.282-2.002l2.708,0.383
				c2.186,0.309,3.712,2.336,3.404,4.521L36.228,34.612z"/>
		</g>
	</g>
	<path d="M205.636,49.902l-5.202-11.461c-0.655-1.445-1.979-2.447-3.559-2.739l-4.395-7.382c-0.013-0.021-0.027-0.041-0.041-0.062
		c1.101-0.918,1.802-2.299,1.802-3.841c0-2.486-1.822-4.554-4.2-4.939c-1.359-1.466-3.283-2.329-5.332-2.329
		c-0.771,0-1.536,0.123-2.264,0.362c-0.729-0.239-1.493-0.362-2.265-0.362c-4.008,0-7.268,3.261-7.268,7.269
		c0,2.809,1.603,5.249,3.94,6.459l-2.878,4.825c-1.579,0.291-2.903,1.294-3.559,2.739l-5.202,11.461
		c-0.313,0.689-0.009,1.5,0.681,1.813l10.353,4.701c0.179,0.082,0.372,0.123,0.565,0.123c0.163,0,0.326-0.029,0.481-0.087
		c0.34-0.128,0.615-0.386,0.766-0.716l5.202-11.463c0.661-1.455,0.537-3.128-0.301-4.515l0.368-1.326
		c0.369,0.092,0.754,0.141,1.15,0.141c0.983,0,1.898-0.299,2.659-0.811l0.719,2.048c-0.81,1.376-0.923,3.025-0.271,4.463
		l5.202,11.463c0.15,0.33,0.426,0.588,0.766,0.716c0.155,0.058,0.318,0.087,0.48,0.087c0.194,0,0.388-0.041,0.566-0.123
		l10.353-4.701C205.645,51.402,205.948,50.592,205.636,49.902z M180.77,43.143l-4.637,10.215l-7.858-3.569l4.636-10.215
		c0.328-0.724,1.07-1.189,1.938-1.219c0.466-0.015,0.893-0.266,1.131-0.666l3.356-5.629c0.135,0.274,0.29,0.54,0.466,0.79
		c-0.063,0.31-0.095,0.628-0.095,0.949c0,1.208,0.451,2.312,1.192,3.153l-0.749,2.695c-0.118,0.429-0.021,0.889,0.26,1.232
		C180.96,41.553,181.098,42.42,180.77,43.143z M184.48,35.836c-1.124,0-2.035-0.912-2.035-2.037c0-0.626,0.282-1.186,0.727-1.56
		c-0.998-0.485-1.688-1.511-1.688-2.696c0-0.285,0.04-0.562,0.115-0.823c-0.446,0.147-0.923,0.228-1.419,0.228
		c-2.501,0-4.529-2.027-4.529-4.529s2.028-4.53,4.529-4.53c0.825,0,1.598,0.222,2.265,0.607c0.666-0.386,1.439-0.607,2.264-0.607
		c1.708,0,3.193,0.944,3.965,2.339c0.182-0.047,0.37-0.074,0.565-0.074c1.251,0,2.265,1.014,2.265,2.266
		c0,1.25-1.014,2.265-2.265,2.265c-0.195,0-0.384-0.027-0.565-0.074c-0.361,0.654-0.88,1.207-1.504,1.612
		c0.196,0.398,0.309,0.848,0.309,1.322c0,1.186-0.689,2.211-1.688,2.696c0.444,0.374,0.728,0.934,0.728,1.56
		C186.517,34.924,185.605,35.836,184.48,35.836z M194.718,53.357l-4.637-10.215c-0.328-0.723-0.19-1.59,0.359-2.263
		c0.303-0.369,0.391-0.87,0.232-1.32l-1.59-4.496c0.112-0.402,0.172-0.827,0.172-1.265c0-0.322-0.032-0.64-0.095-0.95
		c0.613-0.871,0.985-1.908,1.046-2.995l4.664,7.834c0.238,0.4,0.665,0.651,1.132,0.667c0.868,0.028,1.61,0.495,1.938,1.219
		l4.636,10.215L194.718,53.357z"/>
</g>
<g id="rhyme">
</g>
<g id="categories">
</g>
<g id="tits">
</g>
<g id="dicks">
</g>
<g id="questions">
</g>
<g id="double_hands">
</g>
<g id="rewind">
</g>
<g id="Cryptkeeper">
</g>
<g id="Take_2_and_Redo">
</g>
<g id="Embryo">
</g>
<g id="I_am_Groot">
</g>
<g id="Mini_Me">
</g>
<g id="Ditto_1_">
</g>
<g id="reverse">
</g>
</svg>
