<?xml version="1.0" encoding="utf-8"?>
<!-- Generator: Adobe Illustrator 16.0.0, SVG Export Plug-In . SVG Version: 6.00 Build 0)  -->
<!DOCTYPE svg PUBLIC "-//W3C//DTD SVG 1.1//EN" "http://www.w3.org/Graphics/SVG/1.1/DTD/svg11.dtd">
<svg version="1.1" xmlns="http://www.w3.org/2000/svg" xmlns:xlink="http://www.w3.org/1999/xlink" x="0px" y="0px"
	 width="209.759px" height="62.361px" viewBox="0 0 209.759 62.361" enable-background="new 0 0 209.759 62.361"
	 xml:space="preserve">
<g id="Layer_1">
</g>
<g id="Blindman">
</g>
<g id="Compliments">
</g>
<g id="HAT">
</g>
<g id="speech">
</g>
<g id="TREX_ARMS">
</g>
<g id="slim_shady">
</g>
<g id="TIMEOUT">
</g>
<g id="Truth_or_Dare">
</g>
<g id="ARM_WRESTLE">
</g>
<g id="musical_chairs">
</g>
<g id="never_have_i_ever">
</g>
<g id="Trivia">
</g>
<g id="Drink_Pulling">
</g>
<g id="Sharing_is_Caring">
</g>
<g id="Not_It">
</g>
<g id="Cocktail_of_Doom">
</g>
<g id="Heads_up">
</g>
<g id="Archenemy">
</g>
<g id="battle_of_the_sexes">
</g>
<g id="one_must_drink">
</g>
<g id="rainbow_connection">
</g>
<g id="social_drinking">
</g>
<g id="Spin_the_bottle">
</g>
<g id="accents">
</g>
<g id="Slap">
</g>
<g id="down_the_hatch">
</g>
<g id="rubiks_cube">
</g>
<g id="bar_tender">
</g>
<g id="codenames">
</g>
<g id="hand_switch">
</g>
<g id="make_a_rule">
</g>
<g id="no_guts_no_glory">
</g>
<g id="pass">
</g>
<g id="santa">
</g>
<g id="snake_eyes">
</g>
<g id="lightning_round">
</g>
<g id="Bro">
</g>
<g id="LeastDrunk">
	<g>
		<path d="M25.972,43.45c-0.448,0.059-0.906,0.088-1.375,0.088c-0.382,0-0.708-0.113-0.979-0.342
			c-0.271-0.227-0.407-0.531-0.407-0.912c0-0.396,0.117-0.689,0.353-0.881c0.234-0.189,0.542-0.285,0.924-0.285
			c0.249,0,0.491,0.047,0.726,0.143c0.235,0.096,0.477,0.143,0.727,0.143c0.132,0,0.264-0.043,0.396-0.131
			c0.133-0.09,0.234-0.191,0.309-0.309c0-0.059,0.003-0.168,0.011-0.33c0.007-0.162,0.011-0.271,0.011-0.33c0-0.162,0-0.338,0-0.527
			c0-0.191-0.036-0.375-0.109-0.551v-6.623c0.073-0.205,0.109-0.469,0.109-0.791c0-0.338,0-0.58,0-0.727c0-0.102,0-0.242,0-0.418
			c0-0.189-0.007-0.285-0.021-0.285L26.4,30.073h-2.332c-0.294,0-0.524-0.125-0.693-0.373c-0.168-0.25-0.253-0.5-0.253-0.748
			c0-0.396,0.14-0.689,0.418-0.881c0.278-0.189,0.602-0.285,0.969-0.285c0.293,0,0.586,0.029,0.88,0.088
			c0.293,0.059,0.586,0.088,0.88,0.088c0.234,0,0.462-0.016,0.682-0.045s0.447-0.043,0.683-0.043c0.234,0,0.454,0.014,0.659,0.043
			c0.206,0.029,0.418,0.045,0.639,0.045c0.234,0,0.462-0.016,0.682-0.045s0.454-0.043,0.704-0.043c0.205,0,0.421,0.014,0.649,0.043
			c0.227,0.029,0.436,0.088,0.627,0.176c0.19,0.088,0.348,0.213,0.473,0.375c0.124,0.162,0.187,0.373,0.187,0.639
			c0,0.248-0.076,0.465-0.23,0.648s-0.363,0.275-0.627,0.275h-2.508l-0.088,0.088c0,0.072-0.004,0.197-0.012,0.373
			s-0.015,0.367-0.021,0.572c-0.008,0.205-0.019,0.396-0.033,0.572s-0.022,0.301-0.022,0.373c0,0.029-0.011,0.1-0.032,0.209
			c-0.022,0.111-0.041,0.18-0.056,0.209v8.537c0,0.043,0.044,0.076,0.132,0.098c0.089,0.023,0.19,0.041,0.309,0.057
			c0.117,0.014,0.234,0.029,0.352,0.043c0.117,0.016,0.198,0.029,0.242,0.045c0.103,0.043,0.172,0.076,0.209,0.098
			c0.036,0.023,0.066,0.041,0.088,0.057c0.022,0.014,0.04,0.025,0.056,0.031c0.014,0.008,0.058,0.012,0.132,0.012
			c0.146,0,0.278-0.041,0.396-0.121s0.257-0.129,0.418-0.143c0.059,0,0.176-0.008,0.353-0.021c0.176-0.016,0.359-0.025,0.55-0.033
			s0.37-0.016,0.539-0.023c0.168-0.006,0.289-0.01,0.363-0.01c0.293-0.074,0.502-0.238,0.627-0.496
			c0.124-0.256,0.212-0.557,0.264-0.9c0.051-0.346,0.08-0.709,0.088-1.09c0.007-0.381,0.036-0.732,0.088-1.057
			c0.052-0.322,0.146-0.59,0.286-0.803s0.363-0.318,0.671-0.318c0.264,0,0.473,0.104,0.627,0.309s0.231,0.447,0.231,0.725v3.873
			c0.073,0.146,0.113,0.26,0.121,0.34c0.007,0.082,0.011,0.18,0.011,0.297c0,0.133-0.029,0.291-0.088,0.475
			s-0.136,0.355-0.231,0.516c-0.096,0.162-0.213,0.297-0.352,0.408c-0.14,0.109-0.29,0.164-0.451,0.164h-5.082
			c-0.029,0.016-0.099,0.037-0.209,0.066s-0.18,0.051-0.209,0.066h-0.044c-0.294,0-0.587-0.045-0.88-0.133
			c-0.294-0.088-0.594-0.131-0.902-0.131C26.869,43.362,26.419,43.392,25.972,43.45z"/>
		<path d="M38.467,36.63c0.081-0.543,0.217-1.061,0.407-1.551c0.19-0.492,0.443-0.947,0.759-1.365s0.715-0.758,1.199-1.021
			c0.044-0.029,0.124-0.074,0.242-0.133c0.117-0.059,0.242-0.121,0.374-0.188s0.253-0.123,0.362-0.176
			c0.11-0.051,0.188-0.084,0.231-0.1c0.161-0.072,0.326-0.105,0.495-0.098c0.168,0.008,0.333,0.01,0.495,0.01
			c0.938,0,1.73,0.225,2.376,0.672c0.645,0.447,1.246,1.023,1.804,1.727c0.059,0.088,0.136,0.254,0.231,0.496
			c0.095,0.24,0.183,0.506,0.264,0.791c0.08,0.287,0.15,0.564,0.209,0.836s0.088,0.473,0.088,0.605c0,0.029-0.004,0.092-0.011,0.188
			c-0.008,0.096-0.011,0.156-0.011,0.186c-0.133,0.221-0.309,0.367-0.528,0.441c-0.22,0.072-0.447,0.131-0.682,0.176
			c-0.162,0-0.451-0.004-0.869-0.012s-0.862-0.012-1.331-0.012c-0.455,0-0.892,0.004-1.31,0.012s-0.707,0.012-0.869,0.012
			c-0.161,0-0.355,0.004-0.583,0.01c-0.228,0.008-0.45,0.016-0.671,0.023c-0.22,0.008-0.491,0.025-0.813,0.055l-0.088,0.066
			c0,0.016-0.004,0.066-0.012,0.156c-0.007,0.088-0.011,0.146-0.011,0.176c0,0.428,0.077,0.834,0.231,1.217
			c0.153,0.385,0.366,0.721,0.638,1.008s0.59,0.516,0.957,0.686c0.366,0.17,0.77,0.256,1.21,0.256c0.044,0,0.143-0.004,0.297-0.012
			s0.253-0.012,0.297-0.012c0.205-0.16,0.44-0.273,0.704-0.34c0.265-0.066,0.491-0.18,0.683-0.342
			c0.146-0.131,0.282-0.293,0.406-0.484c0.125-0.189,0.257-0.373,0.396-0.549c0.139-0.176,0.289-0.322,0.451-0.441
			c0.161-0.117,0.358-0.176,0.594-0.176c0.22,0,0.399,0.066,0.539,0.199c0.139,0.131,0.209,0.301,0.209,0.506
			c0,0.338-0.073,0.641-0.22,0.912c-0.147,0.271-0.309,0.539-0.484,0.803c-0.44,0.639-1.02,1.094-1.738,1.369
			s-1.459,0.414-2.222,0.414c-0.748,0-1.423-0.146-2.024-0.441c-0.602-0.293-1.107-0.688-1.518-1.188
			c-0.411-0.498-0.727-1.074-0.946-1.727s-0.33-1.338-0.33-2.057C38.346,37.7,38.386,37.173,38.467,36.63z M40.414,36.321
			c0,0.045,0.029,0.066,0.088,0.066h5.082c0.029,0,0.069-0.018,0.121-0.055c0.051-0.037,0.092-0.07,0.121-0.1
			c0.015-0.029,0.021-0.08,0.021-0.154c0-0.072,0-0.125,0-0.154c0-0.352-0.088-0.648-0.264-0.891s-0.396-0.432-0.66-0.572
			c-0.264-0.139-0.554-0.242-0.869-0.307c-0.315-0.066-0.612-0.1-0.891-0.1c-0.308,0-0.624,0.041-0.946,0.121
			s-0.616,0.209-0.88,0.385s-0.484,0.4-0.66,0.672s-0.264,0.59-0.264,0.957C40.414,36.22,40.414,36.263,40.414,36.321z"/>
		<path d="M51.084,37.983c0.352-0.492,0.792-0.852,1.32-1.078c0.527-0.229,1.104-0.367,1.727-0.418
			c0.623-0.053,1.199-0.1,1.728-0.145c0.527-0.043,0.968-0.123,1.319-0.242c0.353-0.117,0.528-0.352,0.528-0.703
			c0-0.25-0.044-0.484-0.132-0.703c-0.088-0.221-0.25-0.396-0.484-0.529c-0.088-0.043-0.22-0.109-0.396-0.197
			c-0.177-0.088-0.271-0.133-0.286-0.133H54.34c-0.117,0-0.198,0.063-0.242,0.188s-0.084,0.279-0.121,0.463
			c-0.036,0.184-0.076,0.385-0.121,0.604c-0.044,0.221-0.113,0.422-0.209,0.605c-0.095,0.184-0.234,0.338-0.418,0.463
			s-0.429,0.186-0.736,0.186c-0.47,0-0.854-0.152-1.155-0.461s-0.451-0.689-0.451-1.145c0-0.264,0.044-0.498,0.132-0.703
			s0.206-0.396,0.353-0.572s0.315-0.342,0.506-0.496s0.381-0.297,0.572-0.428c0.161-0.117,0.33-0.246,0.506-0.385
			c0.176-0.141,0.381-0.209,0.616-0.209l3.365,0.043c0.19,0,0.415,0.08,0.672,0.24c0.256,0.162,0.506,0.352,0.747,0.57
			c0.242,0.219,0.455,0.453,0.639,0.701c0.183,0.248,0.297,0.459,0.341,0.635c0.015,0.043,0.036,0.123,0.066,0.24
			c0.028,0.117,0.058,0.238,0.088,0.361c0.029,0.125,0.055,0.242,0.076,0.352c0.022,0.109,0.033,0.186,0.033,0.229v0.68
			c0,0.176,0.004,0.375,0.012,0.602c0.007,0.227-0.026,0.428-0.1,0.604v3.699c0,0.41,0.176,0.613,0.528,0.613
			c0.234,0,0.381-0.102,0.439-0.307s0.11-0.438,0.154-0.693s0.113-0.488,0.209-0.693s0.297-0.309,0.605-0.309
			c0.161,0,0.3,0.045,0.418,0.133c0.117,0.088,0.212,0.197,0.286,0.33c0.073,0.133,0.124,0.275,0.153,0.43
			c0.029,0.152,0.044,0.305,0.044,0.449c0,0.324-0.052,0.646-0.153,0.969c-0.104,0.322-0.246,0.613-0.43,0.869
			c-0.184,0.258-0.41,0.467-0.682,0.627c-0.271,0.162-0.583,0.242-0.936,0.242c-0.278,0-0.521-0.033-0.726-0.1
			s-0.433-0.18-0.682-0.34c-0.088-0.045-0.165-0.113-0.231-0.209c-0.065-0.096-0.132-0.191-0.198-0.287
			c-0.065-0.096-0.14-0.18-0.22-0.252c-0.081-0.074-0.173-0.111-0.274-0.111h-0.11c-0.206,0.104-0.415,0.229-0.627,0.375
			c-0.213,0.146-0.429,0.289-0.649,0.43c-0.22,0.139-0.447,0.256-0.682,0.352c-0.235,0.096-0.477,0.143-0.727,0.143h-1.979
			c-0.161,0-0.301-0.041-0.418-0.121s-0.235-0.158-0.353-0.23c-0.602-0.352-1.037-0.789-1.309-1.309
			c-0.271-0.521-0.407-1.127-0.407-1.816C50.556,39.175,50.732,38.474,51.084,37.983z M52.338,40.479
			c0.044,0.162,0.106,0.318,0.188,0.473c0.08,0.154,0.179,0.283,0.297,0.385c0.117,0.104,0.249,0.154,0.396,0.154h2.244
			c0.015,0,0.063-0.021,0.143-0.066c0.081-0.043,0.15-0.08,0.209-0.109c0.029-0.029,0.1-0.072,0.209-0.133
			c0.11-0.057,0.18-0.094,0.21-0.109c0.542-0.365,0.909-0.748,1.1-1.145c0.19-0.395,0.286-0.908,0.286-1.539v-0.264
			c-0.015,0-0.044-0.012-0.088-0.033s-0.074-0.033-0.088-0.033c-0.016-0.014-0.03-0.021-0.045-0.021l-0.044,0.021
			c-0.044,0-0.165,0.018-0.362,0.055c-0.198,0.037-0.407,0.074-0.627,0.109c-0.221,0.037-0.43,0.074-0.627,0.111
			c-0.198,0.037-0.319,0.055-0.363,0.055c-0.353,0.059-0.708,0.104-1.067,0.133s-0.723,0.072-1.089,0.131
			c-0.19,0.016-0.359,0.133-0.506,0.352c-0.073,0.104-0.165,0.264-0.275,0.484c-0.109,0.221-0.165,0.41-0.165,0.572
			C52.271,40.179,52.294,40.317,52.338,40.479z"/>
		<path d="M64.934,42.163c0.007-0.096,0.047-0.217,0.12-0.363v-2.596c0-0.205,0.081-0.371,0.242-0.496
			c0.161-0.123,0.338-0.186,0.528-0.186c0.088,0,0.187,0.01,0.297,0.031c0.11,0.023,0.201,0.07,0.275,0.145
			c0.103,0.117,0.161,0.26,0.176,0.428c0.015,0.17,0.065,0.313,0.154,0.43c0.19,0.264,0.377,0.518,0.561,0.76
			c0.184,0.24,0.385,0.453,0.605,0.637c0.22,0.184,0.465,0.33,0.736,0.439c0.271,0.111,0.583,0.166,0.936,0.166
			c0.308,0,0.619-0.033,0.935-0.1s0.602-0.172,0.858-0.318c0.256-0.146,0.469-0.342,0.638-0.584c0.169-0.24,0.253-0.539,0.253-0.891
			c0-0.248-0.04-0.447-0.121-0.594s-0.245-0.271-0.495-0.373c-0.454-0.146-0.932-0.25-1.43-0.309
			c-0.499-0.059-0.99-0.117-1.474-0.176c-0.484-0.059-0.95-0.139-1.397-0.242s-0.836-0.271-1.166-0.506s-0.594-0.557-0.792-0.969
			c-0.198-0.41-0.297-0.953-0.297-1.627c0-0.777,0.187-1.395,0.561-1.848c0.374-0.455,0.913-0.83,1.617-1.123
			c0.161-0.072,0.334-0.135,0.518-0.188c0.183-0.051,0.37-0.076,0.561-0.076h0.198c0.528,0.074,1.066,0.188,1.617,0.34
			c0.55,0.154,1.045,0.387,1.484,0.693c0.103-0.072,0.188-0.16,0.253-0.264c0.066-0.102,0.133-0.197,0.198-0.285
			c0.066-0.088,0.144-0.162,0.231-0.221s0.205-0.088,0.352-0.088c0.205,0,0.393,0.076,0.562,0.23
			c0.168,0.154,0.245,0.334,0.23,0.539c0,0.088,0.004,0.246,0.011,0.473c0.008,0.229,0.015,0.471,0.022,0.727
			c0.007,0.258,0.019,0.498,0.033,0.727c0.015,0.227,0.021,0.385,0.021,0.473v0.264c0,0.264-0.077,0.531-0.23,0.803
			c-0.154,0.271-0.386,0.408-0.693,0.408c-0.264,0-0.473-0.117-0.627-0.354c-0.154-0.234-0.297-0.502-0.429-0.803
			c-0.132-0.299-0.286-0.59-0.462-0.869c-0.177-0.277-0.426-0.461-0.748-0.549c-0.206-0.059-0.363-0.1-0.474-0.121
			c-0.109-0.021-0.216-0.041-0.318-0.055c-0.104-0.016-0.213-0.023-0.33-0.023c-0.118,0-0.279,0-0.484,0
			c-0.059,0-0.19,0.004-0.396,0.012c-0.206,0.008-0.345,0.012-0.418,0.012c-0.133,0.043-0.265,0.109-0.396,0.197
			s-0.253,0.195-0.363,0.318c-0.109,0.125-0.197,0.262-0.264,0.408s-0.099,0.285-0.099,0.418c0,0.338,0.084,0.594,0.253,0.77
			c0.168,0.176,0.399,0.301,0.692,0.375c0.821-0.029,1.657,0.029,2.509,0.176c0.85,0.146,1.649,0.373,2.397,0.682
			c0.382,0.352,0.708,0.758,0.979,1.221c0.271,0.463,0.406,0.965,0.406,1.508c0,0.557-0.117,1.07-0.352,1.539
			s-0.547,0.877-0.935,1.221c-0.39,0.346-0.829,0.613-1.32,0.803c-0.492,0.191-1.001,0.287-1.529,0.287
			c-0.088,0-0.205-0.004-0.352-0.012c-0.147-0.008-0.228-0.012-0.242-0.012c-0.029,0-0.092-0.01-0.188-0.031
			c-0.095-0.023-0.197-0.049-0.308-0.078s-0.217-0.059-0.319-0.088s-0.176-0.051-0.22-0.066c-0.264-0.072-0.499-0.215-0.704-0.428
			s-0.433-0.385-0.682-0.518c-0.088,0.043-0.15,0.135-0.188,0.275c-0.036,0.139-0.08,0.285-0.132,0.439s-0.14,0.289-0.264,0.406
			c-0.125,0.117-0.319,0.178-0.583,0.178c-0.323,0-0.539-0.129-0.649-0.387c-0.109-0.256-0.165-0.516-0.165-0.779
			C64.922,42.38,64.926,42.259,64.934,42.163z"/>
		<path d="M80.739,37.542c-0.029-0.557,0.044-1.076,0.22-1.559v-2.438h-2.771c-0.206,0-0.371-0.104-0.495-0.307
			c-0.125-0.205-0.188-0.396-0.188-0.572c0-0.264,0.085-0.482,0.253-0.658c0.169-0.176,0.342-0.344,0.518-0.506
			c0.176-0.146,0.385-0.229,0.627-0.242c0.242-0.016,0.487-0.023,0.736-0.023c0.265,0,0.51-0.025,0.737-0.076
			c0.228-0.053,0.422-0.195,0.583-0.432c0.146-0.221,0.22-0.516,0.22-0.885s0.012-0.734,0.033-1.096
			c0.022-0.361,0.1-0.67,0.231-0.928s0.41-0.389,0.836-0.389c0.425,0,0.686,0.131,0.781,0.389c0.095,0.258,0.143,0.563,0.143,0.918
			c0,0.338-0.019,0.67-0.055,0.994c-0.037,0.326-0.056,0.664-0.056,1.018c0,0.09,0,0.223,0,0.398c0,0.178,0.008,0.273,0.022,0.287
			l0.154,0.154c0.014,0.016,0.117,0.023,0.308,0.023c0.205,0,0.366,0,0.484,0c0.308,0,0.604-0.02,0.891-0.057
			c0.286-0.035,0.575-0.055,0.869-0.055c0.337,0,0.616,0.133,0.836,0.396s0.33,0.551,0.33,0.857c0,0.295-0.092,0.547-0.275,0.76
			s-0.422,0.318-0.715,0.318c-0.366,0-0.708-0.047-1.022-0.143c-0.316-0.096-0.687-0.143-1.111-0.143
			c-0.088,0-0.217,0.004-0.385,0.01c-0.169,0.008-0.261,0.02-0.275,0.033l-0.264,0.242v6.098c0,0.117,0.04,0.25,0.121,0.396
			c0.08,0.146,0.183,0.285,0.308,0.416c0.124,0.131,0.26,0.244,0.407,0.34c0.146,0.096,0.286,0.143,0.418,0.143
			c0.352,0,0.63-0.084,0.836-0.254c0.205-0.168,0.363-0.377,0.473-0.627c0.11-0.248,0.198-0.516,0.265-0.803
			c0.065-0.285,0.135-0.553,0.209-0.803c0.073-0.248,0.176-0.457,0.308-0.627c0.132-0.168,0.322-0.252,0.572-0.252
			c0.366,0,0.623,0.131,0.77,0.395c0.146,0.266,0.22,0.551,0.22,0.859c0,0.498-0.073,1.004-0.22,1.518s-0.363,0.979-0.648,1.396
			c-0.286,0.418-0.643,0.764-1.067,1.035c-0.426,0.271-0.917,0.406-1.474,0.406c-0.221,0-0.39-0.008-0.507-0.021
			c-0.117-0.016-0.224-0.041-0.318-0.078c-0.096-0.035-0.191-0.086-0.286-0.152c-0.096-0.066-0.224-0.158-0.385-0.275
			c-0.015,0-0.059-0.018-0.132-0.055c-0.074-0.037-0.147-0.074-0.221-0.109c-0.073-0.037-0.146-0.07-0.22-0.1
			s-0.117-0.051-0.132-0.066c-0.602-0.467-0.994-0.98-1.177-1.537c-0.184-0.555-0.275-1.199-0.275-1.932
			C80.783,38.634,80.769,38.099,80.739,37.542z"/>
		<path d="M90.771,41.304c0.234-0.123,0.535-0.186,0.901-0.186c0.25,0,0.484,0.018,0.704,0.055c0.221,0.037,0.455,0.055,0.704,0.055
			c0.059,0,0.132,0,0.22,0c0.089,0,0.133-0.008,0.133-0.021l0.176-0.154l-0.044-2.42v-0.439v-3.873v-0.418l0.044-3.695
			c0-0.059-0.029-0.088-0.088-0.088c-0.059-0.059-0.118-0.088-0.176-0.088h-1.805c-0.337,0-0.608-0.117-0.813-0.354
			c-0.206-0.234-0.309-0.506-0.309-0.813c0-0.426,0.125-0.727,0.374-0.902s0.572-0.264,0.968-0.264c0.279,0,0.547,0.014,0.804,0.043
			c0.256,0.029,0.531,0.045,0.825,0.045c0.176,0,0.381,0.004,0.615,0.01c0.234,0.008,0.447-0.025,0.639-0.098h3.014
			c0.425,0.176,0.854,0.305,1.287,0.385s0.861,0.209,1.287,0.385c0.513,0.219,0.96,0.561,1.342,1.023
			c0.381,0.461,0.696,0.975,0.946,1.539c0.249,0.564,0.436,1.148,0.561,1.75s0.188,1.15,0.188,1.648
			c0,1.219-0.118,2.398-0.353,3.543s-0.638,2.252-1.21,3.322c-0.044,0.059-0.143,0.164-0.297,0.318s-0.261,0.254-0.319,0.297
			c-0.439,0.352-0.854,0.619-1.242,0.803c-0.39,0.184-0.785,0.316-1.188,0.396s-0.829,0.125-1.276,0.133s-0.957,0.018-1.528,0.033
			c-0.088,0-0.224,0.006-0.407,0.021c-0.184,0.014-0.367,0.025-0.55,0.033c-0.184,0.008-0.349,0.014-0.495,0.021
			s-0.242,0.012-0.286,0.012c-0.029,0-0.11,0.014-0.242,0.043s-0.268,0.059-0.407,0.088s-0.271,0.059-0.396,0.088
			c-0.125,0.029-0.202,0.045-0.231,0.045h-0.374c-0.234,0-0.473-0.025-0.715-0.078c-0.242-0.051-0.462-0.135-0.66-0.252
			c-0.197-0.117-0.359-0.271-0.483-0.463c-0.125-0.189-0.188-0.424-0.188-0.703C90.419,41.704,90.536,41.429,90.771,41.304z
			 M95.699,41.03c0.073,0.043,0.154,0.08,0.242,0.109s0.176,0.051,0.264,0.066c0.088,0.014,0.154,0.021,0.198,0.021
			c0.439,0,0.898-0.018,1.375-0.055s0.92-0.137,1.331-0.297c0.513-0.205,0.92-0.547,1.221-1.023s0.528-1.004,0.683-1.584
			c0.153-0.58,0.249-1.17,0.285-1.771c0.037-0.602,0.056-1.137,0.056-1.605c0-0.939-0.096-1.727-0.286-2.365
			c-0.191-0.639-0.495-1.146-0.913-1.529c-0.418-0.381-0.954-0.656-1.606-0.824s-1.448-0.254-2.387-0.254
			c-0.059,0-0.19,0.008-0.396,0.023l-0.11,0.176v3.432l-0.022,0.439l-0.044,6.887C95.589,40.935,95.626,40.985,95.699,41.03z"/>
		<path d="M106.314,41.579c0.228-0.189,0.51-0.285,0.847-0.285c0.206,0,0.407,0.018,0.605,0.055s0.407,0.055,0.627,0.055
			c0.059,0,0.143-0.004,0.253-0.012c0.11-0.006,0.172-0.01,0.188-0.01l0.088-0.088c0-0.059,0.003-0.154,0.011-0.287
			c0.007-0.131,0.015-0.273,0.022-0.428c0.007-0.154,0.018-0.301,0.032-0.441c0.015-0.139,0.022-0.238,0.022-0.297
			c0-0.029,0.011-0.102,0.033-0.219c0.021-0.117,0.04-0.191,0.055-0.221l-0.044-2.156v-0.418l-0.132-2.596l-0.176-0.176
			c-0.074,0-0.198-0.004-0.374-0.012c-0.177-0.006-0.367-0.014-0.572-0.021c-0.206-0.008-0.396-0.018-0.572-0.033
			c-0.176-0.014-0.301-0.021-0.374-0.021c-0.294-0.029-0.539-0.143-0.737-0.342c-0.197-0.197-0.297-0.443-0.297-0.736
			s0.088-0.547,0.265-0.76c0.176-0.211,0.418-0.318,0.726-0.318c0.015,0,0.036,0,0.066,0c0.044,0,0.065,0.008,0.065,0.021
			c0.234,0.029,0.524,0.033,0.869,0.012s0.693-0.025,1.045-0.012c0.353,0.016,0.683,0.063,0.99,0.143
			c0.308,0.082,0.542,0.232,0.704,0.451c0.029,0.031,0.059,0.092,0.088,0.188s0.063,0.195,0.099,0.297
			c0.037,0.104,0.081,0.191,0.132,0.264c0.052,0.074,0.106,0.111,0.165,0.111h0.044c0.455-0.367,0.942-0.705,1.464-1.012
			c0.521-0.309,1.081-0.463,1.683-0.463c0.366,0,0.723,0.063,1.067,0.188c0.344,0.125,0.641,0.297,0.891,0.516
			c0.249,0.221,0.451,0.488,0.604,0.805c0.154,0.314,0.231,0.662,0.231,1.045c0,0.543-0.129,1.004-0.385,1.385
			c-0.257,0.383-0.693,0.572-1.31,0.572c-0.293,0-0.527-0.092-0.704-0.275c-0.176-0.184-0.315-0.406-0.418-0.67
			s-0.172-0.539-0.209-0.826c-0.036-0.285-0.063-0.531-0.076-0.736c-0.016-0.072-0.06-0.109-0.133-0.109s-0.124,0-0.153,0
			c-0.074,0-0.144,0.004-0.209,0.01c-0.066,0.008-0.129,0.041-0.188,0.1c-0.059,0.045-0.153,0.133-0.286,0.264
			c-0.132,0.133-0.271,0.271-0.418,0.418s-0.286,0.287-0.418,0.418c-0.132,0.133-0.22,0.221-0.264,0.264
			c-0.059,0.059-0.143,0.158-0.253,0.297c-0.11,0.141-0.217,0.291-0.319,0.451c-0.103,0.162-0.19,0.32-0.264,0.475
			c-0.073,0.152-0.11,0.268-0.11,0.34v2.486c0.015,0.029,0.033,0.104,0.056,0.221c0.021,0.117,0.032,0.189,0.032,0.219
			c0,0.045,0.008,0.133,0.022,0.264c0.015,0.133,0.025,0.271,0.033,0.418c0.007,0.148,0.014,0.287,0.021,0.418
			c0.008,0.133,0.011,0.229,0.011,0.287c0.059,0.162,0.146,0.256,0.265,0.285c0.117,0.029,0.256,0.045,0.418,0.045
			c0.161,0,0.326-0.016,0.495-0.045c0.168-0.029,0.333-0.043,0.495-0.043c0.337,0,0.645,0.092,0.924,0.275
			c0.278,0.184,0.418,0.449,0.418,0.803c0,0.293-0.066,0.523-0.198,0.693c-0.132,0.168-0.305,0.293-0.517,0.373
			c-0.213,0.08-0.444,0.133-0.693,0.154c-0.25,0.021-0.484,0.033-0.704,0.033c-0.249,0-0.495-0.016-0.737-0.045
			c-0.241-0.029-0.487-0.043-0.736-0.043c-0.118,0-0.217,0.004-0.297,0.01c-0.081,0.008-0.195,0.033-0.342,0.078h-2.508
			c-0.352,0-0.671-0.117-0.957-0.352c-0.286-0.236-0.429-0.537-0.429-0.902C105.974,42.034,106.087,41.771,106.314,41.579z"/>
		<path d="M121.187,37.091c0.095-0.66,0.143-1.326,0.143-2.002c0-0.043,0-0.109,0-0.197c0-0.104-0.004-0.209-0.011-0.318
			c-0.008-0.111-0.012-0.209-0.012-0.297c0-0.104,0-0.178,0-0.221c-0.161-0.104-0.341-0.172-0.538-0.209
			c-0.198-0.037-0.386-0.08-0.562-0.133c-0.176-0.051-0.322-0.135-0.439-0.252c-0.118-0.117-0.177-0.309-0.177-0.572
			c0-0.25,0.077-0.463,0.231-0.639s0.363-0.264,0.627-0.264h1.804c0.22,0,0.393,0.049,0.518,0.143
			c0.124,0.096,0.22,0.221,0.285,0.373c0.066,0.154,0.11,0.318,0.133,0.494c0.021,0.176,0.032,0.336,0.032,0.482
			c0,0.309-0.019,0.607-0.055,0.9c-0.037,0.293-0.055,0.592-0.055,0.9c0,0.102,0.003,0.26,0.011,0.471
			c0.007,0.213,0.011,0.334,0.011,0.363c0,0.146,0.008,0.406,0.022,0.779s0.029,0.771,0.044,1.195s0.033,0.824,0.055,1.197
			c0.022,0.373,0.033,0.633,0.033,0.779c0.059,0.379,0.18,0.693,0.363,0.943c0.183,0.248,0.487,0.373,0.913,0.373
			c0.176,0,0.374-0.016,0.594-0.045s0.403-0.109,0.55-0.242c0.264-0.234,0.535-0.502,0.814-0.803
			c0.278-0.301,0.527-0.619,0.748-0.957c0.22-0.336,0.402-0.693,0.55-1.066c0.146-0.375,0.22-0.752,0.22-1.133v-3.189
			c0-0.059-0.099-0.1-0.297-0.121c-0.198-0.023-0.418-0.063-0.66-0.121s-0.462-0.158-0.66-0.297
			c-0.198-0.141-0.297-0.35-0.297-0.627c0-0.25,0.077-0.447,0.231-0.596c0.153-0.146,0.37-0.219,0.648-0.219h1.98
			c0.264,0,0.454,0.084,0.571,0.252c0.117,0.17,0.198,0.367,0.242,0.594c0.044,0.229,0.066,0.467,0.066,0.717
			c0,0.248,0.021,0.447,0.065,0.594l-0.044,2.332v0.418l-0.044,4.135l0.177,0.176c0.22,0,0.45,0.008,0.692,0.023
			c0.242,0.014,0.47,0.063,0.683,0.143c0.212,0.082,0.385,0.199,0.517,0.355c0.132,0.154,0.198,0.381,0.198,0.678
			c0,0.266-0.052,0.475-0.154,0.621c-0.103,0.148-0.238,0.256-0.407,0.322s-0.355,0.107-0.561,0.123
			c-0.206,0.016-0.411,0.021-0.616,0.021c-0.117,0-0.305-0.006-0.561-0.021c-0.257-0.016-0.518-0.057-0.781-0.123
			c-0.265-0.066-0.495-0.166-0.693-0.299c-0.198-0.135-0.297-0.313-0.297-0.533v-0.957h-0.088c-0.25,0.268-0.495,0.523-0.737,0.768
			s-0.499,0.467-0.77,0.666c-0.271,0.201-0.565,0.359-0.88,0.479c-0.316,0.117-0.657,0.178-1.023,0.178
			c-0.602,0-1.122-0.141-1.562-0.418c-0.44-0.279-0.804-0.635-1.09-1.068c-0.285-0.432-0.498-0.916-0.638-1.451
			s-0.209-1.066-0.209-1.596C121.043,38.419,121.091,37.751,121.187,37.091z"/>
		<path d="M135.102,41.437c0.293-0.125,0.66-0.201,1.1-0.23l0.088-0.088c0.029-0.205,0.056-0.443,0.077-0.715
			c0.022-0.271,0.056-0.518,0.1-0.738v-5.082c0-0.102-0.092-0.18-0.275-0.23s-0.382-0.121-0.594-0.209
			c-0.213-0.088-0.411-0.217-0.595-0.385s-0.274-0.43-0.274-0.781c0-0.381,0.136-0.641,0.407-0.781
			c0.271-0.139,0.567-0.209,0.891-0.209c0.044,0,0.11,0,0.198,0c0.103,0,0.153,0.008,0.153,0.021
			c0.426,0.059,0.767,0.133,1.023,0.221s0.458,0.209,0.605,0.363c0.146,0.154,0.249,0.355,0.308,0.605
			c0.059,0.248,0.103,0.564,0.132,0.945c0.015,0.016,0.029,0.021,0.044,0.021h0.044c0.088,0,0.173-0.043,0.253-0.131
			c0.081-0.088,0.165-0.191,0.253-0.309s0.177-0.234,0.265-0.352s0.176-0.205,0.264-0.264c0.41-0.295,0.847-0.584,1.309-0.869
			c0.463-0.287,0.957-0.43,1.485-0.43c0.322,0,0.649,0.076,0.979,0.23c0.329,0.154,0.623,0.355,0.88,0.605
			c0.256,0.25,0.465,0.535,0.627,0.857c0.161,0.324,0.242,0.654,0.242,0.99v5.434c-0.06,0.162-0.092,0.309-0.1,0.441
			c-0.008,0.131-0.011,0.277-0.011,0.439c0,0.043,0.007,0.146,0.021,0.309l0.089,0.088c0.396,0.072,0.751,0.205,1.066,0.395
			c0.315,0.191,0.474,0.521,0.474,0.99c0,0.383-0.114,0.635-0.342,0.76s-0.517,0.188-0.869,0.188h-0.329
			c-0.118,0-0.323-0.004-0.616-0.012c-0.294-0.008-0.605-0.014-0.936-0.021s-0.642-0.02-0.935-0.033
			c-0.294-0.014-0.499-0.021-0.616-0.021c-0.47-0.133-0.704-0.434-0.704-0.902c0-0.557,0.157-0.914,0.474-1.066
			c0.314-0.154,0.707-0.246,1.177-0.275l0.088-0.088l0.198-0.859v-3.344c0.014-0.043,0.04-0.131,0.077-0.264
			c0.036-0.133,0.055-0.221,0.055-0.264v-0.045V36.3c0-0.029-0.011-0.113-0.033-0.254c-0.021-0.139-0.04-0.223-0.055-0.252
			c0-0.045-0.004-0.125-0.012-0.242c-0.007-0.117-0.015-0.238-0.021-0.363c-0.008-0.125-0.015-0.246-0.022-0.363
			c-0.007-0.117-0.011-0.197-0.011-0.242c-0.132-0.219-0.301-0.348-0.506-0.385s-0.418-0.055-0.638-0.055
			c-0.367,0-0.708,0.088-1.023,0.264s-0.604,0.396-0.869,0.66c-0.264,0.264-0.502,0.555-0.715,0.869
			c-0.213,0.316-0.399,0.613-0.561,0.891c-0.015,0.016-0.044,0.055-0.088,0.121c-0.045,0.066-0.074,0.113-0.089,0.143
			c-0.044,0.074-0.146,0.242-0.308,0.506v2.51c-0.073,0.146-0.113,0.271-0.121,0.373c-0.008,0.104-0.011,0.234-0.011,0.396v0.33
			c0.088,0.131,0.23,0.209,0.429,0.23s0.403,0.063,0.616,0.121c0.212,0.059,0.396,0.162,0.55,0.309s0.231,0.41,0.231,0.791
			c0,0.309-0.114,0.539-0.341,0.693c-0.229,0.154-0.488,0.246-0.781,0.275h-0.902h-0.902c-0.029,0-0.103-0.016-0.22-0.045
			s-0.19-0.043-0.22-0.043c-0.25-0.029-0.499-0.049-0.748-0.055c-0.25-0.008-0.473-0.041-0.671-0.1s-0.355-0.162-0.473-0.309
			c-0.118-0.146-0.177-0.381-0.177-0.703C134.661,41.874,134.808,41.562,135.102,41.437z"/>
		<path d="M149.246,42.261c0.029-0.131,0.073-0.264,0.133-0.395c0.058-0.133,0.124-0.246,0.197-0.342s0.146-0.143,0.221-0.143h1.474
			l0.264-0.088c0.029-0.016,0.103-0.045,0.221-0.088v-3.104l0.109-0.418v-7.172c0-0.102-0.036-0.211-0.109-0.33
			c-0.074-0.117-0.147-0.205-0.221-0.264c-0.22,0-0.454,0-0.704,0c-0.234,0-0.447-0.021-0.638-0.066
			c-0.19-0.043-0.349-0.131-0.473-0.264c-0.125-0.131-0.188-0.336-0.188-0.615c0-0.367,0.154-0.645,0.462-0.836
			c0.309-0.191,0.631-0.287,0.969-0.287h0.132c0.029,0,0.117,0.016,0.264,0.045s0.234,0.045,0.264,0.045h0.044h0.044
			c0.029,0,0.114-0.016,0.254-0.045c0.139-0.029,0.223-0.045,0.253-0.045h0.044c0.337,0,0.648,0.1,0.935,0.299
			c0.286,0.197,0.451,0.473,0.495,0.824c-0.029,0.469-0.022,0.865,0.022,1.188c0.044,0.322,0.065,0.689,0.065,1.1
			c0,0.119-0.004,0.221-0.011,0.309c-0.008,0.088-0.033,0.197-0.077,0.33v4.906c0,0.059,0.022,0.092,0.066,0.1
			c0.044,0.006,0.08,0.01,0.109,0.01c0.044-0.014,0.073-0.021,0.088-0.021c0.088-0.088,0.242-0.238,0.462-0.451
			c0.221-0.213,0.455-0.443,0.704-0.693c0.25-0.248,0.48-0.484,0.693-0.703c0.212-0.221,0.363-0.375,0.451-0.463
			c0.029-0.029,0.088-0.102,0.176-0.219s0.146-0.191,0.176-0.221c-0.161-0.162-0.334-0.334-0.517-0.518
			c-0.184-0.184-0.275-0.398-0.275-0.648c0-0.234,0.081-0.414,0.242-0.539s0.345-0.217,0.55-0.275c0.044,0,0.117,0,0.22,0
			s0.217-0.004,0.342-0.01c0.124-0.008,0.238-0.012,0.341-0.012s0.176,0,0.22,0c0.22,0,0.524-0.004,0.913-0.012
			c0.389-0.006,0.771,0.023,1.145,0.088c0.373,0.066,0.7,0.184,0.979,0.354c0.278,0.168,0.418,0.436,0.418,0.803
			c0,0.25-0.048,0.428-0.143,0.539c-0.096,0.109-0.217,0.186-0.363,0.23c-0.146,0.043-0.315,0.066-0.506,0.066
			c-0.176,0-0.359,0.008-0.55,0.021c-0.221,0.016-0.43,0.088-0.627,0.221c-0.198,0.131-0.393,0.285-0.583,0.461
			c-0.191,0.176-0.363,0.352-0.518,0.529c-0.154,0.176-0.297,0.314-0.429,0.418c-0.103,0.088-0.217,0.168-0.341,0.24
			c-0.125,0.074-0.239,0.148-0.342,0.221c-0.103,0.074-0.187,0.162-0.253,0.264c-0.065,0.104-0.099,0.242-0.099,0.418
			c0,0.309,0.11,0.609,0.33,0.902s0.425,0.564,0.616,0.814c0.014,0.029,0.065,0.092,0.153,0.188
			c0.089,0.096,0.184,0.201,0.286,0.318s0.194,0.227,0.275,0.33c0.08,0.104,0.128,0.168,0.143,0.197
			c0.177,0.25,0.319,0.506,0.43,0.771c0.109,0.264,0.289,0.49,0.539,0.682c0.293,0,0.575,0.004,0.847,0.01
			c0.271,0.008,0.521,0.045,0.748,0.111c0.227,0.064,0.425,0.18,0.594,0.34c0.169,0.162,0.297,0.412,0.385,0.748
			c0,0.016,0.004,0.063,0.012,0.143c0.007,0.082,0.011,0.137,0.011,0.166c0,0.162-0.041,0.293-0.121,0.396
			c-0.081,0.102-0.18,0.186-0.297,0.252c-0.118,0.066-0.25,0.117-0.396,0.154s-0.286,0.07-0.418,0.1h-1.342h-1.32
			c-0.117,0-0.301-0.023-0.55-0.066c-0.249-0.045-0.439-0.08-0.572-0.109c-0.117-0.029-0.234-0.082-0.352-0.154
			c-0.117-0.074-0.234-0.111-0.352-0.111c-0.206,0-0.415,0.074-0.628,0.221c-0.212,0.146-0.443,0.221-0.692,0.221
			c-0.206,0-0.407-0.016-0.605-0.045c-0.197-0.029-0.399-0.043-0.604-0.043c-0.353,0-0.697,0.014-1.034,0.043
			c-0.338,0.029-0.682,0.045-1.034,0.045h-0.99c-0.322-0.059-0.619-0.158-0.891-0.297c-0.271-0.141-0.407-0.4-0.407-0.781
			C149.202,42.489,149.217,42.394,149.246,42.261z M154.549,38.456c-0.133,0.117-0.25,0.234-0.353,0.352
			c-0.044,0.043-0.11,0.117-0.198,0.221c-0.088,0.102-0.157,0.186-0.209,0.252c-0.051,0.066-0.084,0.107-0.099,0.121v1.805
			c0,0.102,0.088,0.189,0.264,0.264c0.177,0.074,0.374,0.139,0.595,0.197c0.22,0.059,0.432,0.107,0.638,0.143
			c0.205,0.037,0.337,0.07,0.396,0.1c0.029,0.016,0.089,0.059,0.177,0.133c0.088,0.072,0.146,0.109,0.176,0.109
			c0,0.016,0.015,0.021,0.044,0.021s0.059,0,0.088,0c0.161,0,0.337-0.088,0.528-0.264c0.19-0.176,0.286-0.352,0.286-0.527
			c0-0.104-0.089-0.322-0.265-0.66s-0.374-0.686-0.594-1.045s-0.433-0.682-0.638-0.969c-0.206-0.285-0.338-0.428-0.396-0.428
			C154.827,38.28,154.681,38.339,154.549,38.456z"/>
	</g>
</g>
<g id="Know_It_All">
</g>
<g id="EyeContact">
</g>
<g id="UnderGuesser">
</g>
<g id="GodSaveTheQUeen">
</g>
<g id="Ghost">
</g>
<g id="Fortune_Teller">
</g>
<g id="DrinkSwap">
</g>
<g id="DickTator">
</g>
<g id="_x34_Eyes">
</g>
<g id="BabyTalk">
</g>
<g id="Backseat_Driver">
</g>
<g id="BAtman">
</g>
<g id="bodyguard">
</g>
<g id="BuckleUp">
</g>
<g id="RockPaperScissors">
</g>
<g id="Roger_Roger">
</g>
<g id="RoyaleWe">
</g>
<g id="Skip">
</g>
<g id="SwineRules">
</g>
<g id="Touchy_Feeley">
</g>
<g id="Wasted_Education">
</g>
<g id="Layer_86">
</g>
<g id="PointOfNoReturn">
</g>
<g id="Pirate">
</g>
<g id="Thief">
</g>
<g id="DepthPerception">
</g>
<g id="Narcissist">
</g>
<g id="MammaBird">
</g>
<g id="Staringcontest">
</g>
<g id="Cartwheel">
</g>
<g id="Censored">
</g>
<g id="Depersonalization">
</g>
<g id="threeman">
</g>
<g id="_x32__truths_and_a_lie">
</g>
<g id="cray_cray_cat_lady">
</g>
<g id="siblings">
</g>
<g id="later">
</g>
<g id="waterfall">
</g>
<g id="cheers">
</g>
<g id="rhyme">
</g>
<g id="categories">
</g>
<g id="tits">
</g>
<g id="dicks">
</g>
<g id="questions">
</g>
<g id="double_hands">
</g>
<g id="rewind">
</g>
<g id="Cryptkeeper">
</g>
<g id="Take_2_and_Redo">
</g>
<g id="Embryo">
</g>
<g id="I_am_Groot">
</g>
<g id="Mini_Me">
</g>
<g id="Ditto_1_">
</g>
<g id="reverse">
</g>
</svg>
