<?xml version="1.0" encoding="utf-8"?>
<!-- Generator: Adobe Illustrator 16.0.0, SVG Export Plug-In . SVG Version: 6.00 Build 0)  -->
<!DOCTYPE svg PUBLIC "-//W3C//DTD SVG 1.1//EN" "http://www.w3.org/Graphics/SVG/1.1/DTD/svg11.dtd">
<svg version="1.1" xmlns="http://www.w3.org/2000/svg" xmlns:xlink="http://www.w3.org/1999/xlink" x="0px" y="0px"
	 width="209.759px" height="62.361px" viewBox="0 0 209.759 62.361" enable-background="new 0 0 209.759 62.361"
	 xml:space="preserve">
<g id="Layer_1">
</g>
<g id="Blindman">
</g>
<g id="Compliments">
</g>
<g id="HAT">
</g>
<g id="speech">
</g>
<g id="TREX_ARMS">
</g>
<g id="slim_shady">
</g>
<g id="TIMEOUT">
</g>
<g id="Truth_or_Dare">
</g>
<g id="ARM_WRESTLE">
</g>
<g id="musical_chairs">
</g>
<g id="never_have_i_ever">
</g>
<g id="Trivia">
</g>
<g id="Drink_Pulling">
</g>
<g id="Sharing_is_Caring">
</g>
<g id="Not_It">
</g>
<g id="Cocktail_of_Doom">
</g>
<g id="Heads_up">
</g>
<g id="Archenemy">
</g>
<g id="battle_of_the_sexes">
</g>
<g id="one_must_drink">
</g>
<g id="rainbow_connection">
</g>
<g id="social_drinking">
</g>
<g id="Spin_the_bottle">
</g>
<g id="accents">
</g>
<g id="Slap">
</g>
<g id="down_the_hatch">
</g>
<g id="rubiks_cube">
</g>
<g id="bar_tender">
</g>
<g id="codenames">
</g>
<g id="hand_switch">
</g>
<g id="make_a_rule">
</g>
<g id="no_guts_no_glory">
</g>
<g id="pass">
</g>
<g id="santa">
</g>
<g id="snake_eyes">
</g>
<g id="lightning_round">
</g>
<g id="Bro">
</g>
<g id="LeastDrunk">
</g>
<g id="Know_It_All">
	<g id="Layer_94">
	</g>
</g>
<g id="EyeContact">
</g>
<g id="UnderGuesser">
</g>
<g id="GodSaveTheQUeen">
</g>
<g id="Ghost">
</g>
<g id="Fortune_Teller">
</g>
<g id="DrinkSwap">
	<g>
		<path d="M30.074,41.304c0.234-0.124,0.535-0.187,0.901-0.187c0.25,0,0.484,0.019,0.704,0.055c0.221,0.037,0.455,0.055,0.704,0.055
			c0.059,0,0.132,0,0.22,0c0.089,0,0.133-0.007,0.133-0.021l0.176-0.154l-0.044-2.42v-0.439v-3.872v-0.418l0.044-3.696
			c0-0.059-0.029-0.088-0.088-0.088c-0.059-0.059-0.118-0.088-0.176-0.088h-1.805c-0.337,0-0.608-0.117-0.813-0.353
			c-0.206-0.234-0.309-0.506-0.309-0.813c0-0.426,0.125-0.727,0.374-0.902s0.572-0.264,0.968-0.264c0.279,0,0.547,0.015,0.804,0.044
			c0.256,0.029,0.531,0.044,0.825,0.044c0.176,0,0.381,0.004,0.615,0.011c0.234,0.008,0.447-0.025,0.639-0.099h3.014
			c0.425,0.176,0.854,0.305,1.287,0.385c0.433,0.081,0.861,0.209,1.287,0.385c0.513,0.22,0.96,0.562,1.342,1.023
			c0.381,0.462,0.696,0.976,0.946,1.54c0.249,0.564,0.436,1.147,0.561,1.749s0.188,1.151,0.188,1.649
			c0,1.218-0.118,2.398-0.353,3.542c-0.234,1.145-0.638,2.252-1.21,3.322c-0.044,0.059-0.143,0.165-0.297,0.319
			c-0.154,0.153-0.261,0.253-0.319,0.297c-0.439,0.352-0.854,0.619-1.242,0.803c-0.39,0.184-0.785,0.315-1.188,0.396
			c-0.403,0.08-0.829,0.124-1.276,0.132s-0.957,0.019-1.528,0.033c-0.088,0-0.224,0.007-0.407,0.021s-0.367,0.025-0.55,0.033
			c-0.184,0.008-0.349,0.015-0.495,0.021c-0.146,0.008-0.242,0.012-0.286,0.012c-0.029,0-0.11,0.015-0.242,0.044
			s-0.268,0.059-0.407,0.088s-0.271,0.059-0.396,0.088c-0.125,0.029-0.202,0.044-0.231,0.044h-0.374
			c-0.234,0-0.473-0.025-0.715-0.077c-0.242-0.051-0.462-0.136-0.66-0.253c-0.197-0.117-0.359-0.271-0.483-0.462
			c-0.125-0.19-0.188-0.425-0.188-0.704C29.722,41.704,29.839,41.429,30.074,41.304z M35.002,41.029
			c0.073,0.044,0.154,0.08,0.242,0.109c0.088,0.03,0.176,0.052,0.264,0.066s0.154,0.021,0.198,0.021
			c0.439,0,0.898-0.018,1.375-0.055c0.477-0.036,0.92-0.136,1.331-0.297c0.513-0.205,0.92-0.546,1.221-1.023
			c0.301-0.476,0.528-1.004,0.683-1.584c0.153-0.579,0.249-1.169,0.285-1.771c0.037-0.602,0.056-1.137,0.056-1.606
			c0-0.938-0.096-1.727-0.286-2.364c-0.191-0.639-0.495-1.147-0.913-1.529c-0.418-0.381-0.954-0.656-1.606-0.825
			c-0.652-0.168-1.448-0.253-2.387-0.253c-0.059,0-0.19,0.008-0.396,0.022l-0.11,0.176v3.432l-0.022,0.44l-0.044,6.886
			C34.892,40.934,34.929,40.985,35.002,41.029z"/>
		<path d="M45.617,41.579c0.228-0.19,0.51-0.286,0.847-0.286c0.206,0,0.407,0.019,0.605,0.055c0.198,0.037,0.407,0.056,0.627,0.056
			c0.059,0,0.143-0.004,0.253-0.012c0.11-0.007,0.172-0.011,0.188-0.011l0.088-0.088c0-0.059,0.003-0.154,0.011-0.286
			c0.007-0.132,0.015-0.274,0.022-0.429c0.007-0.154,0.018-0.301,0.032-0.44c0.015-0.139,0.022-0.238,0.022-0.297
			c0-0.029,0.011-0.103,0.033-0.22c0.021-0.117,0.04-0.19,0.055-0.22l-0.044-2.156v-0.418l-0.132-2.596l-0.176-0.177
			c-0.074,0-0.198-0.003-0.374-0.011c-0.177-0.007-0.367-0.015-0.572-0.021c-0.206-0.008-0.396-0.019-0.572-0.033
			s-0.301-0.022-0.374-0.022c-0.294-0.029-0.539-0.143-0.737-0.341c-0.197-0.198-0.297-0.443-0.297-0.737
			c0-0.293,0.088-0.546,0.265-0.759c0.176-0.212,0.418-0.319,0.726-0.319c0.015,0,0.036,0,0.066,0c0.044,0,0.065,0.008,0.065,0.022
			c0.234,0.029,0.524,0.033,0.869,0.011c0.345-0.021,0.693-0.025,1.045-0.011c0.353,0.015,0.683,0.063,0.99,0.143
			c0.308,0.081,0.542,0.231,0.704,0.451c0.029,0.03,0.059,0.092,0.088,0.188s0.063,0.194,0.099,0.297
			c0.037,0.103,0.081,0.19,0.132,0.264c0.052,0.074,0.106,0.11,0.165,0.11h0.044c0.455-0.366,0.942-0.704,1.464-1.012
			c0.521-0.309,1.081-0.463,1.683-0.463c0.366,0,0.723,0.063,1.067,0.188c0.344,0.125,0.641,0.297,0.891,0.517
			c0.249,0.221,0.451,0.488,0.604,0.804c0.154,0.315,0.231,0.663,0.231,1.045c0,0.543-0.129,1.005-0.385,1.386
			c-0.257,0.382-0.693,0.572-1.31,0.572c-0.293,0-0.527-0.092-0.704-0.275c-0.176-0.184-0.315-0.407-0.418-0.671
			s-0.172-0.539-0.209-0.825c-0.036-0.286-0.063-0.531-0.076-0.736c-0.016-0.073-0.06-0.11-0.133-0.11s-0.124,0-0.153,0
			c-0.074,0-0.144,0.004-0.209,0.011c-0.066,0.008-0.129,0.041-0.188,0.1c-0.059,0.044-0.153,0.132-0.286,0.264
			c-0.132,0.132-0.271,0.271-0.418,0.418s-0.286,0.286-0.418,0.418s-0.22,0.22-0.264,0.264c-0.059,0.059-0.143,0.158-0.253,0.297
			c-0.11,0.14-0.217,0.29-0.319,0.451c-0.103,0.162-0.19,0.319-0.264,0.474c-0.073,0.153-0.11,0.268-0.11,0.341v2.485
			c0.015,0.03,0.033,0.104,0.056,0.221c0.021,0.117,0.032,0.19,0.032,0.22c0,0.044,0.008,0.132,0.022,0.264s0.025,0.271,0.033,0.418
			c0.007,0.147,0.014,0.286,0.021,0.418c0.008,0.133,0.011,0.228,0.011,0.286c0.059,0.162,0.146,0.257,0.265,0.286
			c0.117,0.029,0.256,0.044,0.418,0.044c0.161,0,0.326-0.015,0.495-0.044c0.168-0.029,0.333-0.044,0.495-0.044
			c0.337,0,0.645,0.092,0.924,0.275c0.278,0.184,0.418,0.45,0.418,0.803c0,0.294-0.066,0.524-0.198,0.693
			c-0.132,0.168-0.305,0.293-0.517,0.374c-0.213,0.08-0.444,0.132-0.693,0.153c-0.25,0.022-0.484,0.033-0.704,0.033
			c-0.249,0-0.495-0.015-0.737-0.044c-0.241-0.029-0.487-0.044-0.736-0.044c-0.118,0-0.217,0.004-0.297,0.011
			c-0.081,0.008-0.195,0.033-0.342,0.077h-2.508c-0.352,0-0.671-0.117-0.957-0.352c-0.286-0.235-0.429-0.536-0.429-0.902
			C45.276,42.034,45.39,41.77,45.617,41.579z"/>
		<path d="M59.146,41.665c0.169-0.292,0.43-0.438,0.781-0.438h2.42l0.154-0.218c0-0.059,0.003-0.16,0.011-0.307
			c0.008-0.146,0.019-0.299,0.033-0.459s0.025-0.313,0.033-0.459c0.007-0.146,0.011-0.248,0.011-0.307
			c0.015-0.028,0.029-0.102,0.044-0.218c0.015-0.117,0.029-0.189,0.044-0.219v-4.832h-2.574c-0.146,0-0.274-0.041-0.385-0.123
			s-0.202-0.184-0.275-0.303c-0.073-0.12-0.128-0.251-0.164-0.394c-0.037-0.142-0.056-0.272-0.056-0.393
			c0-0.239,0.059-0.426,0.176-0.561s0.261-0.235,0.43-0.303c0.168-0.067,0.352-0.112,0.55-0.135s0.377-0.034,0.539-0.034
			c0.249,0,0.495,0.015,0.737,0.044c0.241,0.029,0.487,0.044,0.736,0.044c0.176,0,0.349-0.015,0.518-0.044
			c0.168-0.029,0.341-0.044,0.517-0.044c0.249,0,0.51,0.081,0.781,0.242s0.407,0.396,0.407,0.704v8.184l0.132,0.132h2.332
			c0.132,0,0.253,0.049,0.362,0.146c0.11,0.098,0.206,0.213,0.286,0.348c0.081,0.135,0.14,0.277,0.176,0.427
			c0.037,0.149,0.056,0.276,0.056,0.381c0,0.21-0.056,0.419-0.165,0.629c-0.11,0.209-0.29,0.313-0.539,0.313h-7.502
			c-0.264,0-0.473-0.09-0.627-0.269c-0.154-0.18-0.231-0.396-0.231-0.651C58.894,42.252,58.979,41.956,59.146,41.665z
			 M62.238,28.225c0.278-0.293,0.638-0.439,1.077-0.439c0.234,0,0.451,0.055,0.649,0.165c0.198,0.109,0.366,0.257,0.506,0.439
			c0.14,0.184,0.249,0.386,0.33,0.605c0.08,0.22,0.121,0.439,0.121,0.66c0,0.439-0.161,0.788-0.484,1.045
			c-0.322,0.257-0.689,0.385-1.1,0.385c-0.499,0-0.877-0.176-1.133-0.528c-0.257-0.352-0.385-0.77-0.385-1.254
			C61.82,28.878,61.959,28.519,62.238,28.225z"/>
		<path d="M70.95,41.436c0.293-0.124,0.66-0.201,1.1-0.23l0.088-0.088c0.029-0.205,0.056-0.443,0.077-0.715
			c0.022-0.271,0.056-0.518,0.1-0.737v-5.082c0-0.103-0.092-0.18-0.275-0.231c-0.184-0.051-0.382-0.12-0.594-0.209
			c-0.213-0.088-0.411-0.216-0.595-0.385c-0.184-0.168-0.274-0.429-0.274-0.781c0-0.381,0.136-0.641,0.407-0.78
			c0.271-0.14,0.567-0.209,0.891-0.209c0.044,0,0.11,0,0.198,0c0.103,0,0.153,0.007,0.153,0.021c0.426,0.059,0.767,0.132,1.023,0.22
			c0.257,0.089,0.458,0.21,0.605,0.363c0.146,0.154,0.249,0.356,0.308,0.605s0.103,0.564,0.132,0.945
			c0.015,0.016,0.029,0.022,0.044,0.022h0.044c0.088,0,0.173-0.044,0.253-0.132c0.081-0.088,0.165-0.19,0.253-0.309
			c0.088-0.117,0.177-0.234,0.265-0.352s0.176-0.205,0.264-0.264c0.41-0.294,0.847-0.583,1.309-0.869
			c0.463-0.286,0.957-0.43,1.485-0.43c0.322,0,0.649,0.077,0.979,0.231c0.329,0.154,0.623,0.355,0.88,0.605
			c0.256,0.249,0.465,0.535,0.627,0.857c0.161,0.323,0.242,0.653,0.242,0.99v5.434c-0.06,0.162-0.092,0.309-0.1,0.44
			s-0.011,0.278-0.011,0.439c0,0.044,0.007,0.147,0.021,0.309l0.089,0.088c0.396,0.073,0.751,0.205,1.066,0.396
			c0.315,0.191,0.474,0.521,0.474,0.99c0,0.382-0.114,0.635-0.342,0.759c-0.228,0.125-0.517,0.188-0.869,0.188h-0.329
			c-0.118,0-0.323-0.004-0.616-0.011c-0.294-0.008-0.605-0.015-0.936-0.022c-0.33-0.007-0.642-0.019-0.935-0.033
			c-0.294-0.014-0.499-0.021-0.616-0.021c-0.47-0.132-0.704-0.433-0.704-0.902c0-0.557,0.157-0.913,0.474-1.066
			c0.314-0.154,0.707-0.246,1.177-0.275l0.088-0.088l0.198-0.858v-3.344c0.014-0.044,0.04-0.132,0.077-0.264
			c0.036-0.133,0.055-0.221,0.055-0.265v-0.044v-0.044c0-0.029-0.011-0.113-0.033-0.253c-0.021-0.139-0.04-0.224-0.055-0.253
			c0-0.044-0.004-0.124-0.012-0.242c-0.007-0.117-0.015-0.238-0.021-0.362c-0.008-0.125-0.015-0.246-0.022-0.363
			c-0.007-0.117-0.011-0.198-0.011-0.242c-0.132-0.22-0.301-0.349-0.506-0.385c-0.205-0.037-0.418-0.056-0.638-0.056
			c-0.367,0-0.708,0.089-1.023,0.265s-0.604,0.396-0.869,0.66c-0.264,0.264-0.502,0.554-0.715,0.868
			c-0.213,0.316-0.399,0.613-0.561,0.892c-0.015,0.015-0.044,0.055-0.088,0.121c-0.045,0.065-0.074,0.113-0.089,0.143
			c-0.044,0.074-0.146,0.242-0.308,0.506v2.509c-0.073,0.146-0.113,0.271-0.121,0.373c-0.008,0.104-0.011,0.235-0.011,0.396v0.33
			c0.088,0.132,0.23,0.209,0.429,0.23c0.198,0.022,0.403,0.063,0.616,0.121c0.212,0.06,0.396,0.162,0.55,0.309
			s0.231,0.41,0.231,0.792c0,0.308-0.114,0.539-0.341,0.692c-0.229,0.154-0.488,0.246-0.781,0.275H73.92h-0.902
			c-0.029,0-0.103-0.015-0.22-0.044s-0.19-0.044-0.22-0.044c-0.25-0.029-0.499-0.048-0.748-0.055c-0.25-0.008-0.473-0.041-0.671-0.1
			s-0.355-0.161-0.473-0.308c-0.118-0.146-0.177-0.382-0.177-0.704C70.51,41.873,70.656,41.561,70.95,41.436z"/>
		<path d="M85.095,42.261c0.029-0.132,0.073-0.264,0.133-0.396c0.058-0.132,0.124-0.246,0.197-0.341
			c0.073-0.096,0.146-0.144,0.221-0.144h1.474l0.264-0.088c0.029-0.015,0.103-0.044,0.221-0.088v-3.103l0.109-0.418v-7.172
			c0-0.103-0.036-0.212-0.109-0.33c-0.074-0.117-0.147-0.205-0.221-0.264c-0.22,0-0.454,0-0.704,0c-0.234,0-0.447-0.021-0.638-0.066
			c-0.19-0.044-0.349-0.132-0.473-0.264c-0.125-0.132-0.188-0.337-0.188-0.616c0-0.366,0.154-0.645,0.462-0.836
			c0.309-0.19,0.631-0.286,0.969-0.286h0.132c0.029,0,0.117,0.016,0.264,0.044c0.146,0.03,0.234,0.045,0.264,0.045h0.044h0.044
			c0.029,0,0.114-0.015,0.254-0.045c0.139-0.028,0.223-0.044,0.253-0.044h0.044c0.337,0,0.648,0.1,0.935,0.298
			c0.286,0.197,0.451,0.473,0.495,0.824c-0.029,0.47-0.022,0.866,0.022,1.188c0.044,0.322,0.065,0.689,0.065,1.1
			c0,0.118-0.004,0.221-0.011,0.309c-0.008,0.088-0.033,0.197-0.077,0.33v4.905c0,0.06,0.022,0.092,0.066,0.1
			c0.044,0.007,0.08,0.011,0.109,0.011c0.044-0.015,0.073-0.022,0.088-0.022c0.088-0.088,0.242-0.238,0.462-0.45
			c0.221-0.213,0.455-0.443,0.704-0.693c0.25-0.249,0.48-0.484,0.693-0.704c0.212-0.22,0.363-0.374,0.451-0.462
			c0.029-0.029,0.088-0.103,0.176-0.22s0.146-0.19,0.176-0.221c-0.161-0.161-0.334-0.333-0.517-0.517
			c-0.184-0.184-0.275-0.399-0.275-0.649c0-0.234,0.081-0.414,0.242-0.538c0.161-0.125,0.345-0.217,0.55-0.275
			c0.044,0,0.117,0,0.22,0s0.217-0.004,0.342-0.011c0.124-0.008,0.238-0.012,0.341-0.012s0.176,0,0.22,0
			c0.22,0,0.524-0.003,0.913-0.011c0.389-0.007,0.771,0.022,1.145,0.088c0.373,0.066,0.7,0.184,0.979,0.353s0.418,0.437,0.418,0.803
			c0,0.25-0.048,0.429-0.143,0.539c-0.096,0.11-0.217,0.187-0.363,0.23s-0.315,0.066-0.506,0.066c-0.176,0-0.359,0.008-0.55,0.022
			c-0.221,0.015-0.43,0.088-0.627,0.22c-0.198,0.132-0.393,0.286-0.583,0.462c-0.191,0.176-0.363,0.352-0.518,0.528
			c-0.154,0.176-0.297,0.315-0.429,0.418c-0.103,0.088-0.217,0.168-0.341,0.241c-0.125,0.074-0.239,0.147-0.342,0.221
			s-0.187,0.161-0.253,0.264c-0.065,0.103-0.099,0.242-0.099,0.418c0,0.308,0.11,0.608,0.33,0.902
			c0.22,0.293,0.425,0.564,0.616,0.813c0.014,0.03,0.065,0.092,0.153,0.188c0.089,0.096,0.184,0.201,0.286,0.318
			c0.103,0.118,0.194,0.228,0.275,0.33c0.08,0.104,0.128,0.169,0.143,0.198c0.177,0.25,0.319,0.506,0.43,0.771
			c0.109,0.264,0.289,0.491,0.539,0.682c0.293,0,0.575,0.004,0.847,0.011c0.271,0.008,0.521,0.044,0.748,0.11
			c0.227,0.065,0.425,0.18,0.594,0.341s0.297,0.411,0.385,0.748c0,0.015,0.004,0.063,0.012,0.143
			c0.007,0.081,0.011,0.136,0.011,0.165c0,0.162-0.041,0.294-0.121,0.396c-0.081,0.103-0.18,0.187-0.297,0.253
			c-0.118,0.066-0.25,0.117-0.396,0.154c-0.146,0.036-0.286,0.069-0.418,0.099h-1.342h-1.32c-0.117,0-0.301-0.022-0.55-0.066
			s-0.439-0.08-0.572-0.109c-0.117-0.029-0.234-0.081-0.352-0.154s-0.234-0.11-0.352-0.11c-0.206,0-0.415,0.074-0.628,0.221
			c-0.212,0.146-0.443,0.22-0.692,0.22c-0.206,0-0.407-0.015-0.605-0.044c-0.197-0.029-0.399-0.044-0.604-0.044
			c-0.353,0-0.697,0.015-1.034,0.044c-0.338,0.029-0.682,0.044-1.034,0.044h-0.99c-0.322-0.059-0.619-0.157-0.891-0.297
			s-0.407-0.399-0.407-0.781C85.051,42.488,85.065,42.393,85.095,42.261z M90.397,38.455c-0.133,0.117-0.25,0.234-0.353,0.352
			c-0.044,0.044-0.11,0.118-0.198,0.221s-0.157,0.187-0.209,0.253c-0.051,0.065-0.084,0.106-0.099,0.121v1.804
			c0,0.103,0.088,0.19,0.264,0.264c0.177,0.074,0.374,0.14,0.595,0.198c0.22,0.059,0.432,0.106,0.638,0.143
			c0.205,0.037,0.337,0.07,0.396,0.1c0.029,0.015,0.089,0.059,0.177,0.132s0.146,0.11,0.176,0.11c0,0.015,0.015,0.021,0.044,0.021
			s0.059,0,0.088,0c0.161,0,0.337-0.088,0.528-0.264c0.19-0.176,0.286-0.353,0.286-0.528c0-0.103-0.089-0.322-0.265-0.66
			c-0.176-0.337-0.374-0.686-0.594-1.045s-0.433-0.682-0.638-0.968c-0.206-0.286-0.338-0.429-0.396-0.429
			C90.676,38.279,90.529,38.338,90.397,38.455z"/>
		<path d="M101.947,37.19c0.132,0.184,0.228,0.406,0.286,0.671c0.059,0.264,0.095,0.539,0.109,0.824
			c0.015,0.286,0.052,0.532,0.11,0.737c0.117,0.353,0.305,0.679,0.562,0.979c0.256,0.301,0.553,0.517,0.891,0.648
			c0.132,0.044,0.234,0.077,0.308,0.1c0.073,0.021,0.144,0.04,0.209,0.055c0.066,0.015,0.129,0.033,0.188,0.055
			c0.059,0.022,0.139,0.063,0.242,0.121h1.649c0.161-0.117,0.334-0.188,0.518-0.209c0.183-0.022,0.377-0.063,0.583-0.121
			c0.176-0.044,0.318-0.129,0.429-0.254c0.11-0.124,0.205-0.26,0.286-0.407c0.08-0.146,0.15-0.301,0.209-0.463
			c0.059-0.161,0.124-0.309,0.198-0.44v-1.543c0-0.029-0.033-0.106-0.1-0.23c-0.065-0.125-0.121-0.217-0.165-0.276
			c-0.22-0.337-0.47-0.583-0.748-0.737s-0.575-0.257-0.891-0.309s-0.646-0.081-0.99-0.089c-0.345-0.007-0.7-0.032-1.066-0.077
			c-0.587-0.073-1.155-0.209-1.705-0.407c-0.551-0.198-1.034-0.471-1.452-0.815s-0.756-0.76-1.012-1.245
			c-0.257-0.484-0.386-1.058-0.386-1.719c0-0.308,0.022-0.587,0.066-0.837s0.103-0.492,0.176-0.727
			c0.073-0.235,0.169-0.471,0.286-0.705c0.117-0.235,0.257-0.5,0.418-0.794c0.161-0.176,0.377-0.367,0.649-0.572
			c0.271-0.206,0.564-0.394,0.88-0.563c0.314-0.169,0.63-0.309,0.945-0.419c0.315-0.109,0.598-0.165,0.848-0.165h0.197
			c0.073,0.029,0.202,0.073,0.386,0.132c0.183,0.06,0.374,0.125,0.571,0.198c0.198,0.073,0.386,0.144,0.562,0.209
			c0.176,0.066,0.301,0.114,0.374,0.144c0.146,0.073,0.341,0.194,0.583,0.362c0.242,0.169,0.451,0.253,0.627,0.253h0.088
			c0.029-0.132,0.066-0.274,0.11-0.429s0.103-0.297,0.176-0.429s0.168-0.242,0.286-0.33c0.117-0.088,0.256-0.132,0.418-0.132
			c0.293,0,0.517,0.136,0.671,0.407s0.23,0.547,0.23,0.826v4.054c0,0.22-0.08,0.418-0.241,0.595
			c-0.162,0.176-0.353,0.264-0.572,0.264c-0.323,0-0.547-0.117-0.671-0.352c-0.125-0.235-0.213-0.507-0.265-0.815
			c-0.051-0.309-0.109-0.613-0.176-0.914c-0.065-0.302-0.194-0.525-0.385-0.672c-0.396-0.294-0.844-0.544-1.342-0.749
			c-0.499-0.206-0.99-0.309-1.475-0.309c-0.322,0-0.634,0.059-0.935,0.176c-0.301,0.118-0.572,0.279-0.814,0.485
			c-0.241,0.205-0.437,0.444-0.583,0.716s-0.22,0.568-0.22,0.892c0,0.617,0.117,1.08,0.353,1.389
			c0.234,0.308,0.542,0.528,0.924,0.66c0.381,0.133,0.81,0.213,1.287,0.242c0.477,0.03,0.949,0.066,1.419,0.11
			c0.366,0.029,0.744,0.085,1.133,0.165c0.389,0.081,0.759,0.166,1.111,0.254c0.014,0.015,0.04,0.029,0.076,0.044
			c0.037,0.015,0.063,0.029,0.077,0.044c0.322,0.265,0.627,0.529,0.913,0.793c0.286,0.265,0.535,0.544,0.748,0.837
			c0.213,0.294,0.378,0.621,0.495,0.98c0.117,0.36,0.176,0.768,0.176,1.223c0,0.353-0.029,0.72-0.088,1.102s-0.15,0.753-0.274,1.112
			c-0.125,0.36-0.29,0.694-0.495,1.003c-0.206,0.309-0.462,0.572-0.771,0.793c-0.029,0.015-0.084,0.044-0.165,0.088
			s-0.172,0.092-0.274,0.144c-0.104,0.051-0.195,0.096-0.275,0.132c-0.081,0.037-0.129,0.063-0.143,0.077
			c-0.191,0.117-0.378,0.246-0.562,0.386s-0.399,0.209-0.648,0.209h-2.156c-0.206,0-0.403-0.044-0.594-0.132
			c-0.191-0.088-0.378-0.188-0.562-0.297c-0.184-0.11-0.37-0.209-0.561-0.297c-0.191-0.089-0.396-0.133-0.616-0.133
			c-0.146,0-0.253,0.056-0.319,0.165c-0.065,0.11-0.128,0.228-0.187,0.353c-0.06,0.125-0.14,0.238-0.242,0.341
			s-0.264,0.154-0.484,0.154c-0.249,0-0.477-0.092-0.682-0.272c-0.206-0.182-0.308-0.403-0.308-0.665v-5.068
			c0-0.265,0.088-0.474,0.264-0.627c0.176-0.154,0.389-0.231,0.638-0.231C101.596,36.915,101.815,37.007,101.947,37.19z"/>
		<path d="M115.873,41.074c-0.132-0.67-0.278-1.351-0.439-2.042c-0.19-0.78-0.393-1.602-0.605-2.463
			c-0.212-0.861-0.443-1.682-0.692-2.462c-0.03-0.029-0.077-0.077-0.144-0.144c-0.065-0.066-0.136-0.136-0.209-0.21
			c-0.073-0.073-0.143-0.143-0.209-0.209c-0.065-0.066-0.106-0.114-0.121-0.145c-0.073-0.073-0.106-0.161-0.099-0.265
			c0.007-0.104,0.011-0.198,0.011-0.287c0-0.25,0.048-0.445,0.144-0.585c0.095-0.14,0.224-0.243,0.385-0.31
			c0.161-0.065,0.341-0.103,0.539-0.11c0.198-0.007,0.399-0.011,0.604-0.011c0.19,0,0.403,0.008,0.639,0.022
			c0.234,0.015,0.458,0.059,0.671,0.132c0.212,0.073,0.389,0.184,0.527,0.33c0.14,0.146,0.21,0.352,0.21,0.615
			c0,0.235-0.056,0.407-0.165,0.518c-0.11,0.109-0.231,0.194-0.363,0.253s-0.253,0.113-0.363,0.165s-0.165,0.136-0.165,0.253v0.132
			c0.044,0.162,0.113,0.447,0.209,0.858c0.096,0.41,0.198,0.847,0.309,1.309c0.109,0.462,0.212,0.895,0.308,1.298
			c0.095,0.403,0.165,0.686,0.209,0.848c0.029,0.073,0.088,0.249,0.176,0.527h0.088l0.177-0.352l0.857-3.96v-1.034
			c0-0.059-0.037-0.106-0.11-0.144c-0.073-0.036-0.153-0.08-0.241-0.132c-0.088-0.051-0.169-0.128-0.242-0.23
			s-0.11-0.265-0.11-0.484c0-0.146,0.012-0.274,0.033-0.385c0.022-0.11,0.128-0.194,0.319-0.253
			c0.044-0.015,0.113-0.036,0.209-0.066c0.095-0.029,0.197-0.059,0.308-0.088s0.213-0.055,0.308-0.077
			c0.096-0.021,0.165-0.032,0.21-0.032c0.014,0,0.076-0.004,0.187-0.012c0.11-0.007,0.194-0.011,0.253-0.011
			c0.19,0,0.433,0.008,0.726,0.022c0.294,0.015,0.58,0.059,0.858,0.132s0.517,0.184,0.715,0.33s0.297,0.359,0.297,0.638
			c0,0.132-0.032,0.238-0.099,0.319c-0.066,0.08-0.143,0.153-0.231,0.22c-0.088,0.065-0.184,0.129-0.285,0.187
			c-0.104,0.06-0.191,0.14-0.265,0.242c0,0.029-0.004,0.1-0.011,0.209c-0.008,0.11-0.011,0.18-0.011,0.209
			c0,0.059,0.003,0.144,0.011,0.253c0.007,0.11,0.011,0.173,0.011,0.188c0,0.029,0.015,0.088,0.044,0.176s0.059,0.187,0.088,0.297
			s0.059,0.213,0.089,0.308c0.028,0.096,0.044,0.151,0.044,0.165c0.058,0.338,0.099,0.668,0.12,0.99
			c0.022,0.323,0.07,0.653,0.144,0.99c0.029,0.161,0.069,0.374,0.121,0.638c0.051,0.265,0.099,0.488,0.143,0.671
			c0.044,0.184,0.066,0.29,0.066,0.319l0.088,0.088c0.088-0.029,0.154-0.088,0.198-0.176s0.073-0.19,0.088-0.308
			s0.021-0.235,0.021-0.353s0.015-0.212,0.044-0.286c0-0.029,0.019-0.099,0.056-0.209c0.036-0.109,0.073-0.227,0.109-0.352
			c0.037-0.125,0.073-0.242,0.11-0.353c0.036-0.109,0.055-0.179,0.055-0.209c0.044-0.146,0.096-0.341,0.154-0.583
			s0.117-0.483,0.176-0.726s0.106-0.451,0.144-0.627c0.036-0.176,0.055-0.271,0.055-0.286v-1.122c0-0.088-0.048-0.157-0.143-0.209
			c-0.096-0.051-0.206-0.103-0.33-0.154c-0.125-0.051-0.235-0.113-0.33-0.187c-0.096-0.073-0.144-0.19-0.144-0.353
			c0-0.234,0.059-0.425,0.177-0.571c0.117-0.146,0.264-0.261,0.439-0.342c0.176-0.08,0.366-0.132,0.572-0.153
			c0.205-0.022,0.396-0.033,0.572-0.033c0.19,0,0.402,0.011,0.638,0.033c0.234,0.021,0.454,0.069,0.66,0.143
			c0.205,0.074,0.377,0.184,0.517,0.33s0.209,0.345,0.209,0.594v0.286c-0.029,0.03-0.077,0.077-0.143,0.144
			c-0.066,0.065-0.136,0.136-0.209,0.209c-0.074,0.073-0.144,0.143-0.209,0.209c-0.066,0.065-0.106,0.113-0.121,0.143
			c-0.015,0-0.03,0.022-0.044,0.066c-0.015,0.044-0.03,0.08-0.044,0.109c-0.016,0.044-0.037,0.104-0.066,0.177
			s-0.059,0.15-0.088,0.23c-0.029,0.081-0.055,0.158-0.077,0.231c-0.021,0.073-0.033,0.117-0.033,0.132
			c-0.029,0.132-0.08,0.338-0.153,0.616c-0.074,0.278-0.158,0.594-0.253,0.945c-0.096,0.353-0.191,0.719-0.286,1.101
			c-0.096,0.381-0.188,0.748-0.275,1.1c-0.088,0.353-0.169,0.668-0.242,0.946s-0.125,0.483-0.153,0.616
			c-0.03,0.483-0.11,0.968-0.242,1.451c-0.132,0.484-0.286,0.954-0.462,1.408c-0.118,0.147-0.246,0.268-0.386,0.363
			c-0.139,0.096-0.304,0.143-0.494,0.143c-0.133,0-0.283-0.018-0.451-0.055c-0.169-0.036-0.297-0.106-0.386-0.209
			c-0.117-0.117-0.228-0.374-0.329-0.77c-0.104-0.396-0.198-0.854-0.286-1.375s-0.169-1.067-0.242-1.64
			c-0.073-0.571-0.146-1.104-0.22-1.595c-0.074-0.491-0.151-0.902-0.231-1.232c-0.081-0.33-0.158-0.509-0.23-0.539
			c-0.118,0.074-0.202,0.184-0.254,0.33c-0.051,0.147-0.084,0.305-0.099,0.474s-0.025,0.337-0.033,0.506
			c-0.007,0.169-0.025,0.312-0.055,0.429c-0.19,0.821-0.341,1.654-0.451,2.497c-0.11,0.844-0.274,1.676-0.495,2.497
			c-0.073,0.234-0.198,0.418-0.374,0.55s-0.381,0.198-0.616,0.198c-0.22,0-0.406-0.044-0.561-0.133
			c-0.154-0.088-0.297-0.221-0.429-0.397C116.203,42.418,116.006,41.744,115.873,41.074z"/>
		<path d="M129.293,37.982c0.352-0.491,0.792-0.851,1.32-1.078c0.527-0.228,1.104-0.367,1.727-0.418
			c0.623-0.052,1.199-0.1,1.728-0.144c0.527-0.044,0.968-0.124,1.319-0.242c0.353-0.117,0.528-0.352,0.528-0.703
			c0-0.25-0.044-0.484-0.132-0.704c-0.088-0.221-0.25-0.396-0.484-0.528c-0.088-0.044-0.22-0.11-0.396-0.198
			c-0.177-0.088-0.271-0.132-0.286-0.132h-2.068c-0.117,0-0.198,0.063-0.242,0.188c-0.044,0.124-0.084,0.278-0.121,0.462
			c-0.036,0.184-0.076,0.385-0.121,0.604c-0.044,0.22-0.113,0.422-0.209,0.605c-0.095,0.184-0.234,0.337-0.418,0.462
			s-0.429,0.187-0.736,0.187c-0.47,0-0.854-0.153-1.155-0.462c-0.301-0.308-0.451-0.689-0.451-1.144
			c0-0.265,0.044-0.499,0.132-0.704s0.206-0.396,0.353-0.572s0.315-0.341,0.506-0.495s0.381-0.297,0.572-0.429
			c0.161-0.117,0.33-0.245,0.506-0.385s0.381-0.209,0.616-0.209l3.365,0.044c0.19,0,0.415,0.08,0.672,0.24
			c0.256,0.161,0.506,0.351,0.747,0.57c0.242,0.219,0.455,0.452,0.639,0.7c0.183,0.248,0.297,0.46,0.341,0.635
			c0.015,0.044,0.036,0.124,0.066,0.241c0.028,0.117,0.058,0.237,0.088,0.361c0.029,0.124,0.055,0.241,0.076,0.351
			c0.022,0.109,0.033,0.186,0.033,0.229v0.679c0,0.176,0.004,0.376,0.012,0.603c0.007,0.227-0.026,0.427-0.1,0.603v3.7
			c0,0.409,0.176,0.613,0.528,0.613c0.234,0,0.381-0.103,0.439-0.308s0.11-0.437,0.154-0.693c0.044-0.256,0.113-0.487,0.209-0.692
			s0.297-0.309,0.605-0.309c0.161,0,0.3,0.044,0.418,0.132c0.117,0.089,0.212,0.198,0.286,0.33c0.073,0.133,0.124,0.275,0.153,0.43
			c0.029,0.153,0.044,0.305,0.044,0.45c0,0.323-0.052,0.646-0.153,0.969c-0.104,0.322-0.246,0.612-0.43,0.869
			s-0.41,0.466-0.682,0.627s-0.583,0.241-0.936,0.241c-0.278,0-0.521-0.032-0.726-0.099s-0.433-0.18-0.682-0.341
			c-0.088-0.044-0.165-0.113-0.231-0.209c-0.065-0.096-0.132-0.19-0.198-0.286c-0.065-0.096-0.14-0.18-0.22-0.253
			c-0.081-0.073-0.173-0.11-0.274-0.11h-0.11c-0.206,0.104-0.415,0.228-0.627,0.374c-0.213,0.147-0.429,0.29-0.649,0.43
			c-0.22,0.139-0.447,0.256-0.682,0.352c-0.235,0.096-0.477,0.143-0.727,0.143h-1.979c-0.161,0-0.301-0.04-0.418-0.12
			c-0.117-0.081-0.235-0.158-0.353-0.231c-0.602-0.352-1.037-0.788-1.309-1.309s-0.407-1.126-0.407-1.815
			C128.765,39.174,128.941,38.474,129.293,37.982z M130.547,40.479c0.044,0.162,0.106,0.319,0.188,0.474
			c0.08,0.154,0.179,0.282,0.297,0.385c0.117,0.103,0.249,0.154,0.396,0.154h2.244c0.015,0,0.063-0.022,0.143-0.066
			c0.081-0.044,0.15-0.08,0.209-0.109c0.029-0.029,0.1-0.073,0.209-0.133c0.11-0.058,0.18-0.095,0.21-0.109
			c0.542-0.366,0.909-0.748,1.1-1.145c0.19-0.396,0.286-0.909,0.286-1.54v-0.264c-0.015,0-0.044-0.011-0.088-0.033
			c-0.044-0.021-0.074-0.033-0.088-0.033c-0.016-0.014-0.03-0.021-0.045-0.021l-0.044,0.021c-0.044,0-0.165,0.019-0.362,0.056
			c-0.198,0.036-0.407,0.073-0.627,0.109c-0.221,0.037-0.43,0.074-0.627,0.11c-0.198,0.037-0.319,0.055-0.363,0.055
			c-0.353,0.06-0.708,0.104-1.067,0.133s-0.723,0.073-1.089,0.132c-0.19,0.015-0.359,0.132-0.506,0.352
			c-0.073,0.103-0.165,0.264-0.275,0.484c-0.109,0.22-0.165,0.41-0.165,0.571C130.48,40.179,130.503,40.317,130.547,40.479z"/>
		<path d="M143.164,46.081c0.022-0.119,0.063-0.235,0.121-0.347c0.059-0.113,0.128-0.206,0.209-0.281
			c0.08-0.075,0.187-0.112,0.319-0.112h1.737l0.154-0.219c0.015-0.556,0.052-1.093,0.11-1.612c0.059-0.519,0.088-1.049,0.088-1.59
			c0-0.204-0.019-0.395-0.056-0.57c-0.036-0.175-0.055-0.357-0.055-0.548V40.67c0.015-0.029,0.033-0.116,0.055-0.263
			c0.022-0.146,0.033-0.234,0.033-0.264V40.1c0-0.131-0.015-0.259-0.044-0.384c-0.029-0.124-0.044-0.252-0.044-0.384
			c0-0.233,0.019-0.46,0.055-0.68c0.037-0.219,0.056-0.453,0.056-0.701c0-0.293-0.019-0.578-0.056-0.855
			c-0.036-0.278-0.055-0.563-0.055-0.855c0-0.263,0.019-0.519,0.055-0.768c0.037-0.248,0.056-0.504,0.056-0.768
			c0-0.044-0.004-0.139-0.011-0.285c-0.008-0.146-0.012-0.241-0.012-0.285c-0.161-0.219-0.385-0.354-0.671-0.405
			s-0.572-0.096-0.857-0.132c-0.286-0.036-0.536-0.099-0.748-0.187c-0.213-0.087-0.319-0.277-0.319-0.57
			c0-0.219,0.048-0.395,0.143-0.526c0.096-0.131,0.217-0.233,0.363-0.307c0.146-0.072,0.309-0.124,0.484-0.153
			s0.352-0.044,0.527-0.044c0.279,0,0.564,0.004,0.858,0.011c0.293,0.008,0.572,0.044,0.836,0.11
			c0.264,0.065,0.502,0.176,0.715,0.329s0.37,0.376,0.474,0.668c0.014,0.015,0.028,0.022,0.044,0.022h0.044
			c0.103,0,0.238-0.069,0.406-0.209c0.169-0.139,0.298-0.244,0.386-0.317c0.014-0.015,0.051-0.055,0.109-0.121
			c0.059-0.065,0.121-0.131,0.188-0.197c0.065-0.065,0.128-0.128,0.187-0.187c0.059-0.058,0.096-0.088,0.11-0.088
			c0.015-0.014,0.059-0.024,0.132-0.032s0.154-0.015,0.242-0.022c0.088-0.007,0.172-0.014,0.253-0.021
			c0.08-0.008,0.128-0.011,0.143-0.011c0.029-0.015,0.103-0.033,0.221-0.055c0.117-0.022,0.19-0.033,0.22-0.033
			c0.015,0,0.092-0.004,0.231-0.011c0.139-0.008,0.245-0.012,0.318-0.012c0.689,0,1.302,0.184,1.837,0.55
			c0.535,0.367,0.982,0.829,1.342,1.387s0.635,1.17,0.825,1.837s0.286,1.294,0.286,1.881c0,0.616-0.04,1.191-0.121,1.727
			c-0.08,0.536-0.22,1.034-0.418,1.496s-0.47,0.896-0.813,1.298c-0.345,0.404-0.789,0.781-1.331,1.134
			c-0.162,0.103-0.305,0.187-0.43,0.253c-0.124,0.065-0.245,0.117-0.362,0.153c-0.118,0.037-0.25,0.063-0.396,0.077
			s-0.315,0.022-0.506,0.022c-0.205,0-0.374,0.004-0.506,0.011s-0.294-0.025-0.484-0.099c-0.146-0.059-0.297-0.144-0.451-0.253
			c-0.153-0.11-0.308-0.224-0.462-0.342c-0.153-0.117-0.312-0.22-0.473-0.308s-0.315-0.132-0.462-0.132
			c-0.073,0-0.143,0.021-0.209,0.065s-0.099,0.11-0.099,0.198v2.535l0.176,0.215h1.562c0.132,0,0.242,0.041,0.33,0.124
			c0.088,0.082,0.157,0.183,0.209,0.303c0.052,0.119,0.088,0.243,0.11,0.37c0.021,0.127,0.033,0.243,0.033,0.348
			c0,0.284-0.1,0.539-0.297,0.763c-0.198,0.225-0.444,0.337-0.737,0.337h-4.4c-0.161,0-0.33-0.026-0.506-0.078
			c-0.176-0.053-0.341-0.132-0.495-0.236c-0.153-0.104-0.282-0.228-0.385-0.37s-0.154-0.303-0.154-0.482
			C143.131,46.313,143.143,46.201,143.164,46.081z M148.225,39.61c0.153,0.345,0.352,0.648,0.594,0.913
			c0.242,0.264,0.521,0.477,0.836,0.638s0.686,0.242,1.11,0.242c0.323,0,0.635-0.081,0.936-0.242s0.564-0.37,0.792-0.627
			s0.41-0.547,0.55-0.869s0.224-0.638,0.253-0.946v-0.945c0-0.396-0.011-0.745-0.033-1.046c-0.021-0.3-0.069-0.583-0.143-0.847
			s-0.184-0.524-0.33-0.781c-0.146-0.256-0.352-0.546-0.616-0.868c-0.088-0.117-0.209-0.261-0.362-0.43
			c-0.154-0.168-0.319-0.253-0.495-0.253h-1.563c-0.176,0.162-0.318,0.297-0.429,0.407s-0.22,0.224-0.33,0.341
			c-0.11,0.118-0.202,0.213-0.275,0.286c-0.396,0.44-0.638,0.898-0.726,1.375s-0.132,1.009-0.132,1.595v0.99
			C147.949,38.91,148.07,39.266,148.225,39.61z"/>
	</g>
</g>
<g id="DickTator">
</g>
<g id="_x34_Eyes">
</g>
<g id="BabyTalk">
</g>
<g id="Backseat_Driver">
</g>
<g id="BAtman">
</g>
<g id="bodyguard">
</g>
<g id="BuckleUp">
</g>
<g id="RockPaperScissors">
</g>
<g id="Roger_Roger">
</g>
<g id="RoyaleWe">
</g>
<g id="Skip">
</g>
<g id="SwineRules">
</g>
<g id="Touchy_Feeley">
</g>
<g id="Wasted_Education">
</g>
<g id="Layer_86">
</g>
<g id="PointOfNoReturn">
</g>
<g id="Pirate">
</g>
<g id="Thief">
</g>
<g id="DepthPerception">
</g>
<g id="Narcissist">
</g>
<g id="MammaBird">
</g>
<g id="Staringcontest">
</g>
<g id="Cartwheel">
</g>
<g id="Censored">
</g>
<g id="Depersonalization">
</g>
<g id="threeman">
</g>
<g id="_x32__truths_and_a_lie">
</g>
<g id="cray_cray_cat_lady">
</g>
<g id="siblings">
</g>
<g id="later">
</g>
<g id="waterfall">
</g>
<g id="cheers">
</g>
<g id="rhyme">
</g>
<g id="categories">
</g>
<g id="tits">
</g>
<g id="dicks">
</g>
<g id="questions">
</g>
<g id="double_hands">
</g>
<g id="rewind">
</g>
<g id="Cryptkeeper">
</g>
<g id="Take_2_and_Redo">
</g>
<g id="Embryo">
</g>
<g id="I_am_Groot">
</g>
<g id="Mini_Me">
</g>
<g id="Ditto_1_">
</g>
<g id="reverse">
</g>
</svg>
