<?xml version="1.0" encoding="utf-8"?>
<!-- Generator: Adobe Illustrator 16.0.0, SVG Export Plug-In . SVG Version: 6.00 Build 0)  -->
<!DOCTYPE svg PUBLIC "-//W3C//DTD SVG 1.1//EN" "http://www.w3.org/Graphics/SVG/1.1/DTD/svg11.dtd">
<svg version="1.1" xmlns="http://www.w3.org/2000/svg" xmlns:xlink="http://www.w3.org/1999/xlink" x="0px" y="0px"
	 width="209.759px" height="62.361px" viewBox="0 0 209.759 62.361" enable-background="new 0 0 209.759 62.361"
	 xml:space="preserve">
<g id="Layer_1">
</g>
<g id="Blindman">
</g>
<g id="Compliments">
</g>
<g id="HAT">
</g>
<g id="speech">
</g>
<g id="TREX_ARMS">
</g>
<g id="slim_shady">
</g>
<g id="TIMEOUT">
</g>
<g id="Truth_or_Dare">
</g>
<g id="ARM_WRESTLE">
</g>
<g id="musical_chairs">
</g>
<g id="never_have_i_ever">
</g>
<g id="Trivia">
</g>
<g id="Drink_Pulling">
</g>
<g id="Sharing_is_Caring">
</g>
<g id="Not_It">
</g>
<g id="Cocktail_of_Doom">
</g>
<g id="Heads_up">
</g>
<g id="Archenemy">
</g>
<g id="battle_of_the_sexes">
</g>
<g id="one_must_drink">
</g>
<g id="rainbow_connection">
</g>
<g id="social_drinking">
</g>
<g id="Spin_the_bottle">
</g>
<g id="accents">
</g>
<g id="Slap">
</g>
<g id="down_the_hatch">
</g>
<g id="rubiks_cube">
</g>
<g id="bar_tender">
</g>
<g id="codenames">
</g>
<g id="hand_switch">
</g>
<g id="make_a_rule">
	<g>
		<path d="M12.869,20.466l-0.07-0.105c0-0.092-0.012-0.15-0.035-0.174c0-0.164-0.082-0.303-0.245-0.42
			c-0.07-0.047-0.083-0.094-0.036-0.141h0.036c0-0.047-0.012-0.092-0.036-0.141c-0.023-0.045-0.047-0.092-0.069-0.139
			c-0.141,0.047-0.188,0-0.141-0.141c0.023,0,0.023-0.012,0-0.035c0.047-0.141,0.012-0.221-0.105-0.244
			c-0.047-0.023-0.088-0.041-0.123-0.053s-0.076-0.053-0.122-0.123c-0.047-0.117-0.094-0.232-0.141-0.35s-0.094-0.246-0.14-0.385
			c-0.07-0.023-0.105-0.094-0.105-0.211c-0.024-0.092-0.082-0.209-0.176-0.35c-0.141-0.094-0.21-0.221-0.21-0.385
			c-0.117-0.117-0.199-0.238-0.245-0.367c-0.047-0.129-0.129-0.25-0.245-0.367c-0.07-0.023-0.105-0.023-0.105,0v0.035
			c0.023,0.023,0.035,0.059,0.035,0.104c0,0.047,0,0.094,0,0.141c0.07,0.094,0.105,0.244,0.105,0.455
			c0,0.047,0.005,0.088,0.018,0.123c0.011,0.035,0.005,0.064-0.018,0.086c-0.117,0.094-0.129,0.246-0.035,0.455
			c0.047,0.211,0.07,0.41,0.07,0.596c0,0.188,0.011,0.373,0.034,0.561c0,0.094-0.023,0.152-0.069,0.174
			c-0.07,0.07-0.105,0.188-0.105,0.352v0.455c0.047,0.068,0.07,0.145,0.07,0.227s0.022,0.17,0.07,0.262
			c0.069,0.07,0.081,0.176,0.034,0.316c-0.093,0.094-0.093,0.221,0,0.385c0,0.094,0.012,0.164,0.035,0.209l-0.069,0.49
			c-0.048,0.117-0.035,0.223,0.034,0.316c0.023,0.068,0.023,0.139,0,0.209c-0.023,0.047-0.012,0.152,0.035,0.314
			c0.07,0.141,0.1,0.275,0.088,0.402c-0.012,0.129-0.018,0.287-0.018,0.473c0,0.094-0.012,0.176-0.035,0.246
			c0.023,0.279,0.023,0.617,0,1.014c0.023,0.234,0.023,0.479,0,0.736c-0.023,0.256-0.012,0.514,0.035,0.77v0.211
			c-0.023,0.068-0.035,0.18-0.035,0.332s0.006,0.314,0.018,0.49c0.012,0.174,0.029,0.338,0.053,0.49
			c0.022,0.15,0.035,0.273,0.035,0.367c0,0.047-0.013,0.07-0.035,0.07c-0.047,0.256-0.064,0.443-0.053,0.559
			c0.012,0.117,0.041,0.293,0.088,0.525c-0.023,0.117-0.018,0.211,0.018,0.279c0.034,0.07,0.028,0.164-0.018,0.281
			c0.046,0.139,0.04,0.25-0.018,0.332c-0.059,0.082-0.111,0.18-0.158,0.297c-0.047,0.07-0.104,0.105-0.175,0.105
			c-0.047,0-0.082,0.012-0.104,0.035c-0.023,0.023-0.059,0.012-0.105-0.035c-0.163-0.047-0.332-0.076-0.507-0.088
			c-0.176-0.012-0.356-0.041-0.543-0.088c-0.047-0.023-0.1,0.023-0.157,0.141c-0.059,0.117-0.111,0.152-0.158,0.105
			c-0.187-0.094-0.379-0.135-0.577-0.123s-0.391,0.006-0.577-0.018c-0.117,0-0.24,0-0.368,0S7.218,30.5,7.055,30.476
			c-0.187-0.047-0.326-0.07-0.42-0.07c-0.187,0-0.314-0.068-0.385-0.209c-0.163-0.164-0.233-0.361-0.21-0.596
			c0.023-0.045,0.035-0.15,0.035-0.314c0-0.117,0-0.227,0-0.332s0.012-0.24,0.035-0.402c0.022-0.047,0.028-0.088,0.018-0.123
			c-0.013-0.035-0.018-0.064-0.018-0.088s0-0.092,0-0.209s0-0.246,0-0.385c0-0.141-0.006-0.264-0.018-0.369
			c-0.012-0.104-0.018-0.18-0.018-0.227c0.022-0.07,0.035-0.188,0.035-0.35c0-0.117,0-0.211,0-0.281
			c0-0.068,0.012-0.162,0.035-0.279c0.046-0.047,0.046-0.117,0-0.211c0-0.115,0-0.238,0-0.367c0-0.127,0.022-0.238,0.069-0.332
			v-0.105c-0.047-0.232-0.064-0.467-0.052-0.699c0.011-0.232,0.017-0.479,0.017-0.734v-0.455c0-0.094,0.006-0.182,0.018-0.264
			c0.012-0.08,0.018-0.145,0.018-0.191v-0.561c0.047-0.117,0.047-0.244,0-0.385c0.023-0.117,0.029-0.229,0.018-0.332
			c-0.012-0.105,0.006-0.217,0.053-0.334v-0.314c-0.023-0.186-0.012-0.361,0.035-0.525l-0.07-0.49c0-0.162-0.006-0.309-0.018-0.438
			c-0.012-0.127,0.006-0.285,0.053-0.473c0.022-0.068,0.029-0.133,0.018-0.191s-0.018-0.123-0.018-0.193
			c-0.047-0.256-0.047-0.547,0-0.875c0.022-0.045,0.029-0.092,0.018-0.139s-0.018-0.094-0.018-0.141
			c-0.023-0.141-0.035-0.303-0.035-0.49c0-0.186,0.023-0.35,0.07-0.49c0-0.115-0.006-0.203-0.018-0.262s-0.018-0.135-0.018-0.229
			c0-0.209-0.012-0.396-0.035-0.559c-0.023-0.164-0.012-0.338,0.035-0.525c0.022-0.047,0.029-0.117,0.018-0.211
			c-0.012-0.092-0.018-0.174-0.018-0.244c-0.023-0.141-0.041-0.285-0.053-0.438c-0.012-0.152-0.006-0.309,0.018-0.473
			c0.023-0.022,0.035-0.046,0.035-0.069c-0.047-0.28-0.053-0.548-0.018-0.806c0.035-0.256,0.029-0.513-0.018-0.77
			c0-0.14-0.006-0.292-0.018-0.455s-0.006-0.315,0.018-0.455c0.023-0.047,0.029-0.104,0.018-0.175s-0.018-0.14-0.018-0.21
			c0.023-0.116,0.029-0.239,0.018-0.367C6.256,10.136,6.25,10.014,6.25,9.896c0.047-0.14,0.064-0.25,0.053-0.332
			S6.285,9.384,6.285,9.267c-0.023-0.14-0.041-0.228-0.053-0.263s0.006-0.087,0.053-0.157v-0.07V8.707c0-0.21,0.07-0.386,0.21-0.525
			h0.28L6.88,8.217c0.117,0.047,0.21,0.047,0.28,0s0.163-0.058,0.28-0.035c0.046,0,0.104,0.023,0.175,0.07S7.767,8.311,7.86,8.287
			c0.046,0,0.116,0.047,0.21,0.14C8.14,8.45,8.187,8.415,8.21,8.321c0.047-0.116,0.105-0.14,0.175-0.069h0.07
			c0.023,0,0.053,0.012,0.088,0.035C8.577,8.311,8.63,8.334,8.7,8.356c0.022,0.047,0.093,0.07,0.21,0.07
			c0.35-0.093,0.723-0.082,1.12,0.035c0.116,0.023,0.239,0.041,0.367,0.053s0.251,0.041,0.367,0.087c0.163,0,0.28,0.07,0.351,0.21
			c0.351,0.141,0.585,0.397,0.702,0.771l0.562,1.05c0.094,0.187,0.199,0.385,0.316,0.595s0.233,0.408,0.351,0.595l0.597,1.051
			l0.808,1.364c0.211,0.375,0.415,0.725,0.614,1.051s0.393,0.678,0.579,1.051c0.094,0.139,0.176,0.273,0.246,0.402
			c0.069,0.129,0.129,0.262,0.176,0.402l0.07,0.174h0.07l0.07-0.068l0.594-2.205c0.046-0.211,0.081-0.338,0.104-0.387
			c0.046-0.045,0.093-0.174,0.14-0.385c0.069-0.279,0.151-0.553,0.244-0.822c0.093-0.268,0.163-0.554,0.21-0.857l0.523-1.96
			c0.21-0.606,0.384-1.26,0.524-1.96c0-0.023,0.022-0.082,0.069-0.175c0.093-0.141,0.157-0.286,0.192-0.438
			C18.912,7.907,18.953,7.75,19,7.587c0.022-0.141,0.047-0.233,0.07-0.28c0.022-0.047,0.046-0.163,0.069-0.35l0.14-0.176
			c0.023-0.046,0.053-0.093,0.088-0.14s0.052-0.104,0.052-0.175c0-0.047,0.023-0.07,0.07-0.07c0.046,0,0.087-0.022,0.122-0.069
			s0.064-0.07,0.087-0.07c0.07,0,0.116,0.012,0.14,0.035c0.094,0.093,0.187,0.117,0.279,0.069c0.093-0.046,0.175-0.058,0.245-0.034
			c0.116,0,0.215,0.023,0.296,0.069c0.082,0.047,0.181,0.094,0.298,0.141c0.069,0.069,0.186,0.082,0.349,0.034
			c0.116-0.022,0.215-0.028,0.297-0.018c0.081,0.013,0.181,0.03,0.298,0.053l1.047,0.351c0.303,0.163,0.513,0.338,0.629,0.524
			c0.117,0.164,0.234,0.351,0.353,0.561c0.117,0.21,0.211,0.443,0.282,0.699l0.105,0.176c0.188,0.35,0.347,0.706,0.476,1.067
			c0.129,0.362,0.276,0.741,0.44,1.138c0,0.023,0.012,0.047,0.035,0.069c0.212,0.443,0.364,0.87,0.458,1.277
			c0.095,0.409,0.224,0.812,0.388,1.208l0.247,0.84c0.023,0.047,0.035,0.117,0.035,0.209c0.164,0.281,0.247,0.549,0.247,0.805
			c0.047,0.094,0.088,0.211,0.123,0.352c0.035,0.139,0.064,0.268,0.089,0.385c0.022,0.094,0.052,0.191,0.087,0.297
			s0.064,0.217,0.089,0.332c0.07,0.188,0.105,0.357,0.105,0.508c0,0.152,0.035,0.322,0.106,0.508
			c0.046,0.047,0.063,0.111,0.052,0.193s-0.006,0.145,0.018,0.191c0.118,0.258,0.183,0.49,0.194,0.701
			c0.012,0.209,0.064,0.432,0.158,0.664c0.023,0.117,0.035,0.229,0.035,0.332c0,0.105,0,0.229,0,0.367
			c0.023,0.094,0.036,0.182,0.036,0.264s0.023,0.182,0.07,0.297l0.07,0.42l0.105,0.84c0,0.047,0,0.1,0,0.158
			s0.023,0.111,0.071,0.158l0.176,0.979c0.047,0.328,0.076,0.654,0.088,0.98c0.012,0.328,0.029,0.654,0.053,0.98v0.174
			c0.07,0.328,0.123,0.52,0.159,0.578c0.035,0.059,0.053,0.1,0.053,0.123s0,0.07,0,0.141c0,0.068,0.012,0.268,0.035,0.594
			c0,0.047,0.005,0.105,0.018,0.176c0.012,0.07,0.018,0.139,0.018,0.209c-0.023,0.047-0.03,0.111-0.018,0.193
			c0.012,0.082,0.018,0.146,0.018,0.191c0,0.234,0.005,0.41,0.018,0.525c0.011,0.117,0.018,0.223,0.018,0.314
			c0,0.094,0.005,0.199,0.017,0.316s0.029,0.291,0.053,0.525c0,0.047,0.012,0.115,0.035,0.209s0.047,0.197,0.07,0.314
			c0.093,0.141,0.116,0.316,0.069,0.525c-0.093,0.188-0.14,0.361-0.14,0.525c-0.047,0.094-0.094,0.162-0.14,0.209
			c-0.047,0.07-0.105,0.105-0.175,0.105c-0.048-0.047-0.101-0.059-0.159-0.035s-0.135,0-0.229-0.07
			c-0.047-0.023-0.082-0.006-0.105,0.053s-0.035,0.1-0.035,0.123c-0.117,0.023-0.199,0.023-0.247,0
			c-0.047-0.023-0.094-0.094-0.141-0.209c-0.047-0.023-0.089-0.031-0.124-0.018c-0.034,0.01-0.075-0.006-0.123-0.053
			c-0.023-0.047-0.035-0.029-0.035,0.053c0,0.08-0.012,0.098-0.035,0.051c-0.047,0-0.082,0.012-0.105,0.035
			c-0.024,0.023-0.035,0.012-0.035-0.035c-0.024-0.047-0.036-0.016-0.036,0.088c0,0.105-0.012,0.158-0.035,0.158
			c-0.07,0-0.147,0-0.229,0s-0.146-0.012-0.193-0.035c-0.117-0.117-0.241-0.199-0.37-0.244c-0.129-0.049-0.253-0.094-0.37-0.141
			l-0.105-0.07c-0.023-0.07-0.041-0.029-0.054,0.123c-0.012,0.15-0.018,0.238-0.018,0.262c-0.047,0.047-0.094,0.047-0.141,0
			c-0.142-0.094-0.276-0.164-0.406-0.209c-0.129-0.047-0.252-0.094-0.369-0.141c-0.047-0.023-0.106-0.035-0.176-0.035
			c-0.024,0-0.071-0.047-0.142-0.141c-0.118-0.232-0.177-0.502-0.177-0.805l-0.176-1.469c0-0.141-0.023-0.346-0.07-0.613
			c-0.048-0.268-0.101-0.549-0.159-0.84s-0.105-0.584-0.141-0.875c-0.036-0.291-0.054-0.543-0.054-0.752c0-0.164,0-0.328,0-0.49
			c0-0.164-0.012-0.338-0.034-0.525c-0.023-0.117-0.035-0.229-0.035-0.332c0-0.105-0.023-0.217-0.07-0.334
			c-0.023-0.068-0.029-0.133-0.018-0.191s0.006-0.111-0.018-0.158c-0.069-0.35-0.104-0.711-0.104-1.084
			c-0.047-0.141-0.076-0.293-0.088-0.455c-0.012-0.164-0.041-0.326-0.087-0.49c-0.069-0.141-0.104-0.273-0.104-0.402
			s-0.023-0.25-0.068-0.367c0-0.117-0.006-0.217-0.018-0.299c-0.012-0.08-0.028-0.18-0.052-0.297v-0.105
			c-0.046-0.209-0.092-0.426-0.138-0.646c-0.046-0.223-0.092-0.438-0.138-0.648c-0.022-0.115-0.04-0.238-0.052-0.367
			c-0.012-0.127-0.051-0.262-0.12-0.402c0-0.211-0.012-0.361-0.034-0.455c-0.046-0.141-0.075-0.303-0.087-0.49
			c-0.011-0.186-0.028-0.338-0.051-0.455c0-0.232-0.046-0.408-0.138-0.525c-0.046-0.045-0.075-0.092-0.086-0.139
			c-0.012-0.047-0.029-0.094-0.052-0.141c-0.023-0.094-0.046-0.158-0.069-0.193c-0.022-0.033-0.045-0.086-0.068-0.156
			c0-0.023-0.022-0.035-0.068-0.035H21.85l-0.211,0.77c-0.141,0.49-0.281,0.992-0.421,1.506c-0.141,0.514-0.269,1.037-0.386,1.574
			l-0.386,1.33c-0.048,0.258-0.1,0.543-0.158,0.857s-0.146,0.613-0.264,0.893l-0.42,2.52c0,0.047,0,0.094,0,0.141
			s0.012,0.094,0.035,0.141c0.046,0.117,0.063,0.203,0.052,0.262s-0.018,0.146-0.018,0.262c0.023,0.07,0.029,0.146,0.018,0.229
			s-0.018,0.146-0.018,0.191c0,0.141-0.07,0.211-0.21,0.211c-0.047,0.047-0.094,0.047-0.141,0c-0.07-0.07-0.176-0.094-0.315-0.07
			c-0.07,0-0.152-0.012-0.246-0.035c-0.093-0.023-0.175-0.035-0.245-0.035c-0.07-0.021-0.146-0.039-0.229-0.053
			c-0.082-0.01-0.146-0.039-0.192-0.086h-0.245c-0.141,0-0.27-0.029-0.387-0.088c-0.116-0.059-0.233-0.111-0.35-0.158
			c-0.024,0-0.042-0.006-0.054-0.018s-0.029-0.018-0.053-0.018c-0.116,0.023-0.216,0.006-0.298-0.053
			c-0.082-0.057-0.17-0.063-0.263-0.018c-0.141,0-0.281-0.045-0.421-0.139c-0.095-0.047-0.164-0.07-0.211-0.07
			s-0.1,0.012-0.158,0.035s-0.11,0.012-0.157-0.035s-0.141-0.07-0.28-0.07h-0.035l-0.105-0.141
			c-0.141-0.162-0.246-0.373-0.315-0.629c-0.188-0.35-0.356-0.705-0.509-1.068c-0.152-0.361-0.299-0.717-0.438-1.066l-0.667-1.4
			c-0.023-0.023-0.047-0.059-0.07-0.105s-0.059-0.092-0.104-0.141c0-0.045-0.012-0.08-0.036-0.104c0-0.07-0.034-0.141-0.104-0.211
			H12.869z"/>
		<path d="M48.6,27.712c-0.117-0.117-0.192-0.141-0.228-0.07s-0.111,0.047-0.228-0.07l-0.14-0.035c-0.07,0-0.105,0.012-0.105,0.035
			c-0.023,0.117-0.041,0.24-0.053,0.367c-0.012,0.129,0.006,0.252,0.053,0.367c0.07,0.375,0.1,0.684,0.088,0.928
			c-0.012,0.246,0.087,0.566,0.297,0.963c-0.023,0.023-0.034,0.094-0.034,0.209c-0.023,0.305-0.152,0.49-0.386,0.561
			c-0.047,0-0.082,0.012-0.104,0.035c-0.023,0.023-0.059,0.047-0.105,0.07c-0.023,0.047-0.069,0.059-0.14,0.035
			c-0.047-0.047-0.094-0.082-0.14-0.105c-0.048-0.023-0.07-0.023-0.07,0c-0.047,0.094-0.105,0.193-0.175,0.297
			c-0.07,0.105-0.129,0.146-0.175,0.123c-0.141,0-0.245-0.082-0.315-0.244c-0.047-0.047-0.094-0.059-0.14-0.035
			c-0.048,0.023-0.105,0.047-0.176,0.07c-0.069,0-0.104-0.014-0.104-0.035c0-0.047-0.006-0.1-0.018-0.158s-0.018-0.111-0.018-0.158
			h-0.035c0,0.047-0.006,0.1-0.018,0.158s-0.018,0.111-0.018,0.158c0,0.021-0.012,0.07-0.034,0.139
			c-0.024,0.07-0.048,0.094-0.07,0.07c-0.047-0.047-0.082-0.018-0.105,0.088s-0.059,0.123-0.104,0.053h-0.245
			c-0.07,0-0.117-0.012-0.14-0.035l-0.105-0.141c-0.047-0.07-0.082-0.07-0.104,0c-0.024,0.07-0.082,0.117-0.176,0.141H44.96
			c-0.023,0.023-0.047,0.053-0.07,0.088s-0.035,0.018-0.035-0.053c-0.023-0.023-0.035-0.082-0.035-0.176
			c-0.023,0-0.035,0.012-0.035,0.035c-0.023,0.023-0.034,0.047-0.034,0.07c-0.141,0.07-0.28,0.082-0.42,0.035
			c-0.048,0-0.076-0.012-0.088-0.035s-0.029-0.023-0.053,0c-0.047,0-0.069,0.006-0.069,0.018s-0.013,0.018-0.035,0.018h-0.105
			l-0.245-0.244c-0.023-0.049-0.059-0.014-0.104,0.104c-0.047,0.094-0.094,0.117-0.141,0.07c-0.023-0.047-0.041-0.088-0.052-0.123
			c-0.013-0.033-0.041-0.074-0.088-0.121c-0.07-0.07-0.104-0.176-0.104-0.316c-0.024-0.326-0.059-0.617-0.105-0.875
			c-0.047-0.256-0.07-0.512-0.07-0.77c0.023-0.115,0.029-0.227,0.018-0.332s-0.018-0.215-0.018-0.332
			c0-0.094-0.006-0.182-0.018-0.264c-0.012-0.08-0.018-0.156-0.018-0.227C43.011,27.945,43,27.781,43,27.572v-0.07l-0.105-0.629
			c-0.047-0.141-0.128-0.199-0.245-0.176c-0.069-0.047-0.14-0.105-0.21-0.176c-0.069-0.068-0.128-0.127-0.175-0.174
			c-0.117-0.117-0.257-0.117-0.42,0h-0.14c-0.164-0.094-0.269-0.117-0.315-0.07c-0.07,0.07-0.129,0.105-0.175,0.105
			c-0.094,0-0.141-0.035-0.141-0.105c0.023-0.094,0.006-0.146-0.052-0.158c-0.059-0.012-0.111-0.029-0.158-0.053h-0.069
			c-0.023-0.045-0.041-0.057-0.053-0.035c-0.012,0.025-0.018,0.049-0.018,0.07c-0.047,0.047-0.1,0.059-0.157,0.035
			c-0.059-0.023-0.135-0.035-0.228-0.035h-0.141c-0.187-0.045-0.385-0.109-0.595-0.191s-0.443-0.123-0.7-0.123
			c-0.069,0-0.116-0.012-0.14-0.035c-0.397-0.141-0.794-0.209-1.19-0.209c-0.116,0-0.228,0.006-0.332,0.018
			c-0.105,0.012-0.204,0.051-0.298,0.121l-0.175,0.525c-0.023,0.117-0.041,0.24-0.053,0.367c-0.012,0.129-0.018,0.264-0.018,0.402
			c0,0.047-0.023,0.07-0.069,0.07l-0.035-0.07c0-0.115-0.047-0.209-0.14-0.279c0-0.047-0.024-0.047-0.07,0v0.141l-0.21,1.049
			c-0.047,0.211-0.076,0.367-0.088,0.473s-0.018,0.275-0.018,0.508c0,0.023,0.012,0.047,0.035,0.07s0.059,0.012,0.105-0.035
			l0.069-0.07h0.105c0.093,0,0.14,0.023,0.14,0.07c0,0.188-0.094,0.303-0.279,0.35c-0.024,0.023-0.059,0.012-0.105-0.035
			c-0.023-0.023-0.047-0.035-0.07-0.035c-0.093,0.094-0.187,0.117-0.279,0.07c-0.141-0.047-0.269-0.035-0.386,0.035
			c-0.023,0.023-0.104,0.012-0.245-0.035c-0.047-0.092-0.14-0.105-0.279-0.035c-0.047,0.047-0.1,0.105-0.158,0.176
			c-0.058,0.07-0.122,0.094-0.192,0.07c-0.093-0.047-0.187-0.047-0.279,0c-0.094,0.047-0.199,0.059-0.315,0.035
			c-0.117-0.047-0.233-0.059-0.35-0.035c-0.117,0.023-0.233,0.047-0.351,0.068c-0.233,0-0.438-0.016-0.612-0.051
			s-0.355-0.064-0.542-0.088c-0.024,0-0.065-0.029-0.123-0.088c-0.059-0.059-0.087-0.111-0.087-0.158
			c0-0.045-0.007-0.08-0.018-0.104c-0.013-0.023-0.018-0.047-0.018-0.07c0-0.211,0.005-0.402,0.018-0.578
			c0.011-0.176,0.018-0.355,0.018-0.543c0-0.045,0.011-0.104,0.034-0.174c0-0.047,0.006-0.082,0.018-0.105s0.018-0.059,0.018-0.105
			c0.047-0.467,0.088-0.816,0.123-1.049c0.034-0.234,0.069-0.438,0.104-0.613s0.082-0.35,0.141-0.525
			c0.058-0.174,0.134-0.438,0.227-0.787c0.094-0.326,0.181-0.676,0.263-1.051c0.082-0.373,0.192-0.723,0.333-1.049l0.314-1.365
			c0.047-0.141,0.1-0.285,0.158-0.438c0.058-0.152,0.11-0.309,0.157-0.473c0.07-0.279,0.146-0.566,0.228-0.857
			c0.081-0.291,0.181-0.578,0.297-0.857c0.094-0.188,0.17-0.373,0.228-0.561c0.059-0.186,0.123-0.373,0.193-0.561
			c0.046-0.186,0.11-0.35,0.192-0.488c0.081-0.141,0.146-0.305,0.192-0.49c0.046-0.164,0.104-0.326,0.175-0.49s0.14-0.326,0.21-0.49
			c0.187-0.537,0.379-1.055,0.577-1.557c0.198-0.502,0.391-1.01,0.578-1.523l0.524-1.154c0.21-0.28,0.386-0.606,0.525-0.98
			l0.42-0.979c0.047-0.163,0.122-0.32,0.228-0.473c0.105-0.151,0.216-0.32,0.332-0.508c0.047-0.187,0.111-0.338,0.193-0.455
			c0.081-0.116,0.18-0.232,0.297-0.35c0.141-0.21,0.269-0.351,0.385-0.42c0.187-0.141,0.362-0.163,0.525-0.07
			c0.093,0.047,0.187,0.076,0.28,0.088c0.093,0.012,0.198,0.052,0.314,0.122c0.07,0.164,0.21,0.245,0.42,0.245
			c0.117,0.047,0.198,0.059,0.245,0.035c0.07-0.047,0.151-0.064,0.245-0.053c0.093,0.012,0.187,0.029,0.28,0.053
			c0.022,0,0.047,0.018,0.07,0.053c0.022,0.034,0.046,0.029,0.069-0.018c0.187-0.07,0.379-0.064,0.578,0.018
			c0.197,0.082,0.39,0.1,0.577,0.052c0.07,0.048,0.14,0.07,0.21,0.07s0.14,0.023,0.21,0.07c0.21,0,0.315,0.094,0.315,0.279
			c0,0.188,0.022,0.293,0.069,0.315c0.117,0.233,0.233,0.461,0.351,0.683c0.116,0.222,0.256,0.449,0.42,0.683l0.175,0.42
			c0.116,0.257,0.204,0.502,0.263,0.735c0.058,0.233,0.11,0.479,0.157,0.734l0.07,0.245l0.175,0.595
			c0.047,0.164,0.093,0.304,0.14,0.42c0.047,0.117,0.082,0.234,0.105,0.351c0.046,0.117,0.087,0.257,0.122,0.42
			s0.076,0.327,0.123,0.49c0,0.07,0.011,0.14,0.035,0.21c0.022,0.068,0.046,0.127,0.069,0.174l0.175,1.33l0.21,0.77l0.141,0.807
			l0.175,1.049c0.047,0.188,0.088,0.379,0.122,0.578c0.035,0.197,0.053,0.402,0.053,0.611c-0.023,0.049-0.029,0.088-0.018,0.123
			s0.018,0.076,0.018,0.123c0.047,0.117,0.076,0.223,0.088,0.314c0.012,0.094,0.029,0.199,0.053,0.314
			c0,0.117,0.022,0.293,0.069,0.525c0,0.047,0.006,0.094,0.018,0.141s0.018,0.105,0.018,0.176c0,0.139,0.006,0.273,0.018,0.402
			c0.012,0.127,0.029,0.25,0.053,0.367c0.022,0.117,0.035,0.215,0.035,0.297s0,0.182,0,0.297c0,0.211,0.011,0.352,0.034,0.42
			c0.023,0.049,0.082,0.094,0.176,0.141l0.489,0.246c0.21,0.092,0.368,0.121,0.473,0.086c0.105-0.035,0.251,0.018,0.438,0.158
			c0.07,0.07,0.105,0.152,0.105,0.244c0,0.049-0.006,0.088-0.018,0.123s-0.006,0.076,0.018,0.123c0,0.047,0.005,0.1,0.018,0.158
			c0.011,0.057,0.018,0.109,0.018,0.156c0,0.188,0.005,0.363,0.018,0.525c0.011,0.164,0.04,0.338,0.087,0.525
			c0,0.07-0.006,0.152-0.018,0.244c-0.012,0.094-0.006,0.188,0.018,0.281c0.023,0.115,0.012,0.291-0.035,0.523
			c0,0.164-0.012,0.311-0.035,0.438c-0.023,0.129-0.047,0.264-0.069,0.402c0,0.117-0.035,0.223-0.105,0.316
			c-0.047,0.186-0.11,0.279-0.192,0.279S48.646,27.875,48.6,27.712z M39.114,17.316c-0.069,0.07-0.069,0.141,0,0.211
			c0,0.279-0.006,0.467-0.018,0.561s-0.064,0.268-0.157,0.523c-0.023,0.023-0.035,0.059-0.035,0.105
			c-0.023,0.094-0.052,0.176-0.087,0.246c-0.035,0.068-0.064,0.139-0.088,0.209c-0.07,0.117-0.104,0.211-0.104,0.281
			c0,0.186-0.059,0.303-0.176,0.35c-0.023,0.047-0.058,0.094-0.104,0.139c-0.047,0.047-0.047,0.094,0,0.141
			c0.022,0.047,0.006,0.094-0.053,0.141s-0.087,0.094-0.087,0.139c0.046,0.164,0.034,0.305-0.035,0.42
			c0,0.117,0.058,0.199,0.175,0.246h0.07l1.574,0.279c0.163,0.047,0.333,0.088,0.508,0.123s0.344,0.076,0.508,0.123l1.189,0.209
			h0.07l0.035-0.035c0-0.045,0.005-0.08,0.018-0.104c0.012-0.023,0.018-0.047,0.018-0.07c0-0.303-0.03-0.584-0.088-0.84
			c-0.059-0.258-0.088-0.502-0.088-0.736c-0.047-0.115-0.069-0.303-0.069-0.559c0-0.117-0.023-0.27-0.07-0.455
			c-0.047-0.188-0.082-0.373-0.104-0.561c-0.023-0.188-0.035-0.396-0.035-0.631c0-0.045-0.006-0.074-0.018-0.086
			s-0.018-0.041-0.018-0.088l-0.525-2.311c-0.047-0.186-0.082-0.402-0.104-0.646c-0.023-0.246-0.059-0.461-0.105-0.648l-0.21-0.63
			c0-0.022-0.012-0.034-0.035-0.034s-0.034,0.012-0.034,0.034c-0.024,0.094-0.048,0.152-0.07,0.176
			c-0.023,0.023-0.059,0.058-0.105,0.104c-0.116,0.047-0.21,0.117-0.279,0.21c-0.07,0.094-0.094,0.21-0.07,0.351l-0.07,0.068
			c-0.023,0.023-0.047,0.047-0.069,0.07c-0.023,0.023-0.048,0.07-0.07,0.141c-0.047,0.047-0.047,0.105,0,0.174
			c0,0.049,0.012,0.088,0.035,0.123c0.022,0.035,0.046,0.076,0.069,0.123c0.047,0,0.07,0.023,0.07,0.07
			c-0.047,0.162-0.087,0.309-0.122,0.438s-0.1,0.238-0.192,0.332c0.022,0.141,0.005,0.262-0.053,0.367
			c-0.059,0.105-0.111,0.205-0.157,0.297c-0.048,0.164-0.152,0.281-0.315,0.352c-0.023,0.023-0.035,0.059-0.035,0.104
			c0,0.049-0.023,0.105-0.07,0.176c0,0.047-0.034,0.07-0.104,0.07C39.149,17.13,39.114,17.201,39.114,17.316z M45.449,12.802v0.07
			l0.035-0.07H45.449z M45.694,13.887v-0.07h-0.035L45.694,13.887z M45.835,14.271h0.035v-0.035l-0.035-0.033
			c0,0.023-0.013,0.033-0.035,0.033L45.835,14.271z M46.885,31.107l0.035,0.035c0-0.047,0.011-0.082,0.035-0.105H46.92l-0.035,0.035
			V31.107z M47.06,21.691c0-0.045-0.012-0.08-0.035-0.104v0.068c0,0.025,0.012,0.049,0.035,0.07V21.691z M47.165,22.566v0.07
			l0.034,0.07v-0.209L47.165,22.566z M47.585,28.691c0.022-0.021,0.035-0.045,0.035-0.068v-0.701c0-0.023-0.007-0.035-0.018-0.035
			c-0.013,0-0.018-0.012-0.018-0.035v0.07c-0.023,0.07-0.03,0.129-0.018,0.176c0.012,0.047,0.018,0.094,0.018,0.139V28.691z"/>
		<path d="M60.22,14.761c0.116-0.07,0.233-0.174,0.351-0.314l0.35-0.595c0.047-0.046,0.081-0.093,0.104-0.14
			s0.059-0.059,0.105-0.035c0.14,0,0.245-0.035,0.315-0.105c0.046-0.093,0.069-0.221,0.069-0.385c0.023-0.022,0.023-0.058,0-0.104
			s-0.012-0.094,0.035-0.141v0.035c0.07-0.046,0.128-0.11,0.175-0.192c0.047-0.081,0.105-0.169,0.175-0.263
			c0.117-0.187,0.21-0.361,0.28-0.524s0.175-0.373,0.315-0.631c0.022-0.046,0.052-0.087,0.087-0.122s0.076-0.075,0.123-0.122
			c0-0.07,0.022-0.105,0.069-0.105c0.023,0,0.035-0.035,0.035-0.104c0-0.07,0-0.117,0-0.141c0.093-0.116,0.175-0.245,0.245-0.385
			s0.141-0.28,0.21-0.42c0.047-0.187,0.116-0.361,0.21-0.525c0.093-0.163,0.175-0.338,0.245-0.524
			c0.023-0.047,0.075-0.1,0.157-0.158c0.082-0.058,0.146-0.122,0.193-0.192c0.046-0.046,0.11-0.187,0.192-0.42
			c0.081-0.232,0.146-0.35,0.192-0.35c0.232,0.047,0.385,0,0.455-0.141c0.022-0.046,0.14-0.052,0.35-0.017
			c0.21,0.034,0.326,0.041,0.35,0.017l0.211,0.07l0.21,0.07c0.046,0,0.058,0.029,0.034,0.087C66.041,7.942,66.053,7.96,66.1,7.937
			c0.07,0,0.105-0.012,0.105-0.035c0.022-0.046,0.053-0.069,0.087-0.069c0.035,0,0.076-0.012,0.123-0.035
			c0.093-0.07,0.116-0.075,0.069-0.018c-0.047,0.059-0.012,0.064,0.105,0.018h0.175c0.116,0.047,0.222,0.035,0.315-0.035
			c0.046-0.047,0.081-0.058,0.104-0.035c0.023,0.023,0.07,0.012,0.141-0.035c0.022-0.022,0.081-0.035,0.175-0.035
			c0.046,0.024,0.099,0.048,0.157,0.07c0.058,0.023,0.123,0.035,0.192,0.035c0.07,0.07,0.141,0.07,0.21,0
			c0.117-0.093,0.28-0.116,0.49-0.07c0.14,0,0.233,0.023,0.28,0.07c0.022,0,0.035,0.006,0.035,0.018s0.011,0.018,0.034,0.018
			c0.163,0.28,0.21,0.56,0.141,0.84c-0.047,0.163-0.088,0.339-0.123,0.525c-0.034,0.187-0.075,0.361-0.122,0.524
			c-0.21,0.397-0.402,0.782-0.577,1.155c-0.176,0.373-0.392,0.747-0.647,1.12c-0.234,0.373-0.45,0.752-0.648,1.138
			c-0.198,0.385-0.426,0.764-0.682,1.136l-0.945,1.4l-0.315,0.525L64.7,16.546l-0.455,0.701c-0.094,0.115-0.188,0.227-0.28,0.332
			c-0.094,0.105-0.188,0.238-0.28,0.402c-0.069,0.117-0.151,0.227-0.245,0.332c-0.093,0.105-0.187,0.217-0.279,0.332l-0.351,0.596
			c-0.023,0.047-0.059,0.07-0.104,0.07c-0.047,0-0.047,0.023,0,0.07c0.14,0.094,0.232,0.191,0.279,0.297s0.163,0.182,0.351,0.227
			c0.022,0.025,0.029,0.066,0.018,0.123c-0.013,0.059-0.006,0.1,0.018,0.123l1.26,0.805c0.233,0.188,0.478,0.367,0.735,0.543
			c0.256,0.174,0.513,0.367,0.77,0.578c0.047,0.047,0.088,0.074,0.123,0.086c0.034,0.012,0.063,0.041,0.087,0.088
			c0,0.047,0.012,0.082,0.035,0.105v-0.035c0.07-0.023,0.187,0.006,0.35,0.088s0.338,0.188,0.525,0.314
			c0.187,0.129,0.35,0.24,0.49,0.332c0.14,0.094,0.232,0.129,0.279,0.105c0.023,0,0.047,0.023,0.07,0.07
			c0.047,0.047,0.128,0.088,0.245,0.123c0.116,0.035,0.198,0.1,0.245,0.191l-0.035,0.035l-0.035,0.105
			c0.187,0.023,0.315,0.094,0.385,0.209c0.257,0.117,0.484,0.281,0.683,0.49c0.198,0.211,0.402,0.373,0.613,0.49
			c0.093,0.094,0.232,0.164,0.42,0.211h0.244c0,0.068,0.047,0.117,0.141,0.139v-0.139h0.175c0.047,0,0.093,0.041,0.14,0.121
			c0.047,0.082,0.082,0.135,0.105,0.158c0.373,0.211,0.718,0.408,1.032,0.596c0.315,0.186,0.636,0.408,0.963,0.664
			c0.116,0.117,0.228,0.223,0.332,0.314c0.105,0.094,0.251,0.164,0.438,0.211c0.117,0,0.222,0.082,0.315,0.244
			c0.046,0.047,0.058,0.141,0.035,0.281c0,0.023,0.035,0.07,0.104,0.139c0.023,0.141,0.035,0.234,0.035,0.281
			s-0.059,0.094-0.175,0.139c-0.164,0.117-0.31,0.258-0.438,0.42c-0.129,0.164-0.274,0.305-0.438,0.422l-1.19,1.084
			c-0.093,0.117-0.21,0.211-0.35,0.279c-0.14,0.07-0.269,0.164-0.385,0.281c-0.07,0.07-0.135,0.109-0.192,0.121
			c-0.059,0.012-0.111,0.029-0.158,0.053h-0.104c-0.117-0.047-0.216-0.086-0.298-0.121s-0.17-0.076-0.263-0.123
			c-0.327-0.258-0.659-0.502-0.997-0.734c-0.339-0.234-0.683-0.479-1.032-0.736c-0.141-0.07-0.392-0.221-0.753-0.455
			c-0.362-0.232-0.741-0.477-1.138-0.734c-0.396-0.256-0.765-0.496-1.103-0.717c-0.338-0.223-0.542-0.379-0.612-0.473
			s-0.14-0.164-0.21-0.211c-0.467-0.279-0.904-0.582-1.313-0.91c-0.408-0.326-0.846-0.629-1.313-0.91
			c-0.163-0.139-0.345-0.273-0.543-0.402c-0.198-0.127-0.414-0.25-0.647-0.367c-0.163-0.141-0.332-0.262-0.507-0.367
			s-0.356-0.215-0.543-0.332c-0.023-0.023-0.041-0.07-0.053-0.141s-0.017-0.094-0.017-0.07c-0.048,0-0.07,0.047-0.07,0.141v0.244
			c0.022,0.49,0.046,0.875,0.07,1.156c0.022,0.279,0.046,0.537,0.069,0.77s0.047,0.49,0.07,0.77c0.022,0.281,0.047,0.666,0.07,1.156
			c0,0.186,0,0.373,0,0.559c0,0.188,0.034,0.363,0.104,0.525v0.244l0.035,1.576c0.047,0.279-0.012,0.537-0.175,0.77
			c-0.023,0.023-0.07,0.035-0.141,0.035c-0.069,0-0.128,0.012-0.175,0.035c-0.163,0.209-0.396,0.279-0.7,0.209
			c-0.069,0-0.151-0.006-0.244-0.016c-0.094-0.014-0.188-0.018-0.28-0.018c-0.117-0.023-0.239-0.031-0.368-0.018
			c-0.128,0.01-0.262-0.006-0.402-0.053c-0.069-0.023-0.187-0.035-0.35-0.035c-0.07,0-0.146,0.006-0.228,0.018
			c-0.082,0.012-0.17,0.006-0.263-0.018c-0.21-0.07-0.432-0.1-0.665-0.088s-0.467-0.006-0.7-0.053h-0.21
			c-0.14,0-0.257-0.07-0.35-0.209c0-0.047,0-0.094,0-0.141s-0.012-0.094-0.035-0.141c-0.07-0.094-0.104-0.256-0.104-0.49
			c0.022-0.232,0.022-0.441,0-0.629c-0.023-0.188-0.013-0.373,0.034-0.561c0-0.117,0.006-0.227,0.018-0.332s0.006-0.205-0.018-0.297
			v-1.33c0-0.211-0.006-0.316-0.017-0.316c-0.013,0-0.03,0.023-0.053,0.07c-0.023,0.047-0.041,0.07-0.053,0.07
			s-0.018-0.105-0.018-0.314c-0.023-0.188-0.035-0.391-0.035-0.613c0-0.221,0-0.438,0-0.646l-0.035-1.295v-0.176
			c-0.069-0.607-0.11-1.189-0.122-1.75s-0.029-1.143-0.053-1.75l-0.21-5.984c0-0.234,0-0.438,0-0.614
			c0-0.175-0.023-0.355-0.07-0.542c-0.023-0.07-0.034-0.175-0.034-0.315c0-0.232,0-0.472,0-0.717s-0.013-0.496-0.035-0.753
			c-0.023-0.28-0.07-0.606-0.141-0.979c-0.069-0.373-0.128-0.688-0.175-0.945v-0.07c-0.023-0.116-0.064-0.163-0.122-0.14
			c-0.059,0.023-0.076-0.023-0.053-0.14c0-0.07,0.012-0.158,0.035-0.263c0.022-0.105,0.058-0.216,0.104-0.333
			c0-0.232,0.07-0.42,0.21-0.56c0.047-0.093,0.088-0.175,0.123-0.245s0.087-0.128,0.157-0.175c0.116-0.047,0.216-0.059,0.298-0.035
			c0.081,0.023,0.157,0.035,0.228,0.035c0.187,0.047,0.35,0.029,0.49-0.053c0.14-0.081,0.279-0.099,0.42-0.053
			c0.069,0.023,0.134,0.041,0.192,0.053c0.058,0.012,0.11,0.064,0.157,0.157h0.14c0-0.022,0.006-0.046,0.018-0.069
			S56.276,7.4,56.3,7.446c0.116,0.023,0.257,0.013,0.42-0.034s0.303-0.023,0.42,0.069c0.093,0.047,0.175,0.07,0.245,0.07
			s0.151,0,0.245,0c0.07,0.047,0.151,0.064,0.245,0.053c0.093-0.012,0.198-0.018,0.314-0.018l0.386,0.035h0.069
			c0.047,0,0.1-0.006,0.158-0.018c0.058-0.012,0.11,0.006,0.157,0.052c0.022,0.094,0.035,0.199,0.035,0.315
			c0,0.117,0.005,0.222,0.018,0.315c0.011,0.093,0.018,0.198,0.018,0.314v0.315c-0.048,0.279-0.035,0.514,0.034,0.699
			c-0.093,0.188-0.128,0.362-0.104,0.525c0.022,0.164,0.035,0.327,0.035,0.49c0.022,0.14,0.028,0.286,0.018,0.438
			c-0.013,0.152,0.005,0.297,0.052,0.438c0.117,0.583,0.176,1.167,0.176,1.75s0.022,1.178,0.069,1.786v0.314l0.035,0.035
			l0.035-0.035v-1.365c0-0.117-0.006-0.227-0.018-0.333s-0.018-0.216-0.018-0.332l0.07-0.07c0.046,0.047,0.069,0.082,0.069,0.104
			c0,0.188,0.012,0.386,0.035,0.596c0.023,0.21,0.035,0.408,0.035,0.595v0.49c0,0.092,0.035,0.139,0.105,0.139
			c0.046,0,0.087-0.006,0.122-0.018s0.064-0.018,0.088-0.018c0.022,0.023,0.035,0.047,0.035,0.07c0.046,0,0.081-0.012,0.104-0.035
			v-0.035l0.14-0.139v-0.035C60.196,14.925,60.22,14.855,60.22,14.761z M59.729,15.531c0.023,0,0.047-0.01,0.07-0.033
			s0.012-0.035-0.035-0.035c-0.023,0-0.035,0.012-0.035,0.035V15.531z"/>
		<path d="M84.055,19.802c-0.047,0-0.082,0.023-0.105,0.07v-0.07l-0.175,0.139c-0.047,0.117-0.1,0.182-0.157,0.193
			c-0.059,0.012-0.146,0.018-0.263,0.018c-0.07,0-0.104-0.047-0.104-0.141c-0.048-0.115-0.117-0.168-0.21-0.156
			c-0.094,0.012-0.176,0.041-0.245,0.086l-0.21,0.211c-0.374,0.07-0.729,0.141-1.067,0.209c-0.339,0.07-0.683,0.129-1.033,0.176
			c-0.14,0-0.233,0.023-0.279,0.07c-0.048,0.047-0.129,0.082-0.245,0.105c-0.117,0.047-0.192,0.162-0.228,0.35
			S79.68,21.4,79.68,21.517c0,0.07-0.035,0.152-0.105,0.244c-0.069,0.094-0.104,0.199-0.104,0.316v0.068h0.035
			c0-0.021,0.005-0.039,0.018-0.053c0.011-0.01,0.018-0.027,0.018-0.051v-0.07c-0.023,0,0-0.035,0.069-0.105v0.105
			c0.047,0.162,0.07,0.402,0.07,0.717s0,0.566,0,0.752c0,0.094,0.022,0.164,0.07,0.211c0.022,0.164,0.116,0.244,0.279,0.244
			c0.117,0,0.239,0,0.368,0c0.128,0,0.25-0.012,0.367-0.035c0.187-0.045,0.367-0.074,0.543-0.086
			c0.175-0.012,0.355-0.018,0.542-0.018l0.63-0.07c0.093-0.023,0.233-0.035,0.42-0.035c0.163-0.023,0.303-0.035,0.42-0.035
			s0.233,0,0.351,0c0.187-0.023,0.355-0.047,0.507-0.07c0.152-0.023,0.321-0.035,0.508-0.035c0.023,0,0.192-0.006,0.508-0.018
			c0.314-0.012,0.652-0.021,1.015-0.035c0.361-0.012,0.712-0.027,1.05-0.053c0.338-0.021,0.565-0.045,0.683-0.068h0.105
			c0.7,0,1.399-0.006,2.1-0.018s1.4-0.006,2.101,0.018h0.42c0.046,0,0.099,0.012,0.157,0.035c0.058,0.023,0.11,0.047,0.157,0.068
			c0.141,0.047,0.233,0.129,0.28,0.246c0,0.047,0,0.094,0,0.141s0.012,0.092,0.035,0.139c0,0.07,0.011,0.129,0.035,0.176
			c0.116,0.117,0.187,0.262,0.21,0.438c0.022,0.174,0.058,0.332,0.104,0.473c0.023,0.047,0.041,0.094,0.053,0.139
			c0.012,0.047,0.005,0.117-0.018,0.211c0,0.094,0.012,0.188,0.035,0.279c0.116,0.188,0.192,0.391,0.228,0.613
			s0.087,0.438,0.157,0.646c0.023,0.023,0.029,0.059,0.018,0.105S94.1,27.128,94.1,27.152c0,0.094,0.012,0.164,0.035,0.209
			c0.093,0.094,0.14,0.193,0.14,0.299s0,0.191,0,0.262c0,0.117-0.018,0.135-0.053,0.053c-0.034-0.082-0.075-0.1-0.122-0.053
			l-0.035,0.07c-0.094,0.023-0.181,0.064-0.263,0.123s-0.157,0.1-0.228,0.121l-0.489,0.141c-0.047,0-0.105-0.023-0.176-0.07
			c-0.069-0.047-0.14-0.08-0.21-0.104c-0.163-0.164-0.338-0.205-0.524-0.123c-0.188,0.082-0.385,0.123-0.595,0.123
			c-0.234,0-0.462,0.006-0.683,0.016c-0.223,0.014-0.438-0.004-0.647-0.051h-0.21c-0.21,0.047-0.409,0.068-0.596,0.068
			s-0.408,0-0.665,0c-0.069,0-0.146-0.004-0.228-0.018c-0.082-0.01-0.181-0.004-0.297,0.018c-0.141,0.049-0.298,0.076-0.473,0.088
			s-0.356,0.018-0.543,0.018c-0.326,0.047-0.717,0.059-1.172,0.035s-0.741,0.012-0.857,0.105c-0.023,0.023-0.07,0.035-0.141,0.035
			c-0.069,0.07-0.128,0.07-0.175,0c-0.14-0.094-0.28-0.117-0.42-0.07c-0.07,0-0.152,0.023-0.245,0.07
			c-0.117,0.023-0.216,0.053-0.297,0.088c-0.082,0.035-0.17,0.051-0.263,0.051c-0.117,0.049-0.228,0.076-0.333,0.088
			c-0.104,0.012-0.216,0.041-0.332,0.088h-0.105c-0.117-0.094-0.228-0.117-0.332-0.07c-0.105,0.047-0.24,0.07-0.402,0.07
			c-0.164,0-0.292-0.035-0.386-0.105c-0.069-0.045-0.134-0.035-0.192,0.035S81.5,28.902,81.5,28.972s0,0.156,0,0.262
			s-0.013,0.205-0.035,0.297c-0.023,0.07-0.047,0.135-0.07,0.193s-0.07,0.146-0.14,0.262c-0.047,0.094-0.105,0.117-0.175,0.07
			l-0.525-0.07c-0.047-0.068-0.082-0.082-0.105-0.033c-0.023,0.045-0.047,0.08-0.069,0.104c-0.188,0.047-0.304,0.094-0.351,0.141
			h-0.14c-0.163-0.07-0.321-0.105-0.473-0.105c-0.152,0-0.321-0.023-0.508-0.07c-0.069-0.023-0.146-0.076-0.227-0.156
			c-0.082-0.082-0.182-0.1-0.298-0.053c-0.023,0.023-0.082,0.012-0.175-0.035c-0.141-0.047-0.233-0.07-0.28-0.07
			c-0.117-0.023-0.245-0.059-0.385-0.105c-0.141-0.045-0.269-0.092-0.386-0.139c-0.047-0.047-0.14-0.07-0.279-0.07
			c-0.21,0-0.42-0.006-0.63-0.018s-0.444-0.018-0.7-0.018c-0.117,0-0.233-0.047-0.351-0.141c-0.116-0.092-0.257-0.197-0.42-0.314
			c-0.069-0.117-0.14-0.238-0.21-0.367c-0.069-0.129-0.163-0.25-0.279-0.367c-0.023-0.023-0.035-0.07-0.035-0.141
			c-0.094-0.373-0.199-0.688-0.315-0.945l-0.104-0.141c-0.047-0.115-0.059-0.221-0.035-0.314c0.093-0.092,0.128-0.186,0.104-0.279
			c-0.023-0.07,0.012-0.152,0.105-0.246l-0.07-0.035c-0.117-0.045-0.175-0.127-0.175-0.244s0.023-0.221,0.07-0.314l0.175-0.105
			c0.046-0.047,0.058-0.105,0.035-0.176c-0.047-0.115-0.053-0.203-0.018-0.262s0.075-0.1,0.122-0.123
			c0.023,0,0.041-0.006,0.053-0.018s0.029-0.018,0.053-0.018c0.046-0.021,0.058-0.07,0.035-0.139c-0.023-0.094,0-0.141,0.069-0.141
			c0.233,0,0.386-0.012,0.455-0.035h0.455c0.047,0,0.116-0.023,0.21-0.07c0.21-0.07,0.303-0.209,0.28-0.42
			c-0.047-0.209-0.064-0.408-0.053-0.596c0.012-0.186,0.018-0.385,0.018-0.594c0-0.141,0-0.309,0-0.508c0-0.197,0-0.402,0-0.613
			c0-0.209,0-0.406,0-0.594s0-0.326,0-0.42c0-0.164,0.006-0.326,0.018-0.49s0.018-0.314,0.018-0.455
			c0-0.094-0.006-0.197-0.018-0.314s-0.006-0.234,0.018-0.352c0.022-0.139,0.035-0.268,0.035-0.385c0-0.115,0-0.232,0-0.35v-0.734
			c0-0.094,0.005-0.188,0.018-0.281c0.011-0.092-0.007-0.221-0.053-0.385c-0.023-0.021-0.035-0.07-0.035-0.139
			c0.07-0.258,0.099-0.514,0.088-0.771c-0.013-0.256-0.007-0.5,0.018-0.734c0-0.023,0-0.094,0-0.209c0-0.117,0-0.234,0-0.352
			c0-0.115-0.013-0.279-0.035-0.49c0-0.139-0.082-0.209-0.245-0.209h-0.175c-0.117,0.047-0.188,0.012-0.21-0.105
			c-0.094-0.047-0.188-0.07-0.28-0.07c-0.047-0.022-0.059-0.07-0.035-0.14c0.07-0.117,0.07-0.228,0-0.333
			c-0.07-0.104-0.129-0.181-0.175-0.228c-0.094,0-0.141-0.035-0.141-0.104c0-0.023,0.035-0.059,0.105-0.105v-0.069
			c-0.047-0.117-0.105-0.193-0.175-0.228c-0.07-0.035-0.117-0.1-0.141-0.192c0-0.047-0.034-0.07-0.104-0.07h-0.07
			c-0.069,0.07-0.104,0.035-0.104-0.105c0-0.116-0.006-0.238-0.018-0.367c-0.013-0.128-0.018-0.263-0.018-0.402
			c0-0.047-0.018-0.093-0.053-0.141c-0.035-0.046-0.076-0.093-0.122-0.14H73.8c-0.047-0.046-0.1-0.081-0.157-0.104
			c-0.059-0.023-0.088-0.07-0.088-0.141c0-0.069-0.023-0.128-0.07-0.175c-0.046-0.047-0.069-0.104-0.069-0.175
			c0-0.047-0.018-0.093-0.053-0.141c-0.035-0.046-0.075-0.116-0.123-0.21c0-0.14-0.022-0.232-0.069-0.279s-0.07-0.1-0.07-0.158
			c0-0.058,0-0.146,0-0.262c0-0.187,0.105-0.28,0.315-0.28c0.233-0.07,0.466-0.175,0.699-0.315c0.117-0.022,0.245-0.04,0.386-0.052
			c0.14-0.012,0.256-0.018,0.35-0.018c0.257-0.047,0.519-0.076,0.787-0.088s0.543-0.04,0.823-0.088
			c0.116-0.046,0.245-0.075,0.385-0.087s0.268-0.029,0.385-0.053c0.233-0.022,0.449-0.063,0.647-0.122s0.414-0.11,0.647-0.158
			c0.093,0,0.169-0.011,0.228-0.034s0.123-0.023,0.192,0c0.233,0,0.443-0.012,0.63-0.035s0.386-0.047,0.596-0.07
			c0.116-0.022,0.228-0.04,0.332-0.053c0.105-0.011,0.216-0.018,0.333-0.018c0.116,0,0.197-0.022,0.245-0.069
			c0.162-0.047,0.332-0.076,0.507-0.088s0.333-0.018,0.473-0.018c0.093,0,0.192-0.005,0.298-0.018
			c0.104-0.012,0.204-0.053,0.297-0.122h0.176c0.442,0,0.827-0.035,1.154-0.105c0.117,0.047,0.228,0.047,0.333,0
			c0.104-0.046,0.215-0.058,0.332-0.035c0.396-0.046,0.683-0.052,0.857-0.017c0.176,0.034,0.379,0.041,0.613,0.017
			c0.046,0,0.093,0.007,0.14,0.018c0.046,0.013,0.104,0.018,0.175,0.018c0.187,0,0.361,0,0.525,0c0.163,0,0.338-0.022,0.524-0.069
			c0.093,0,0.204-0.006,0.333-0.018c0.128-0.012,0.238-0.006,0.332,0.018c0.187,0.023,0.355,0.041,0.508,0.052
			c0.151,0.013,0.332,0.018,0.542,0.018c0.094,0,0.176,0.047,0.245,0.141c0.07,0.093,0.151,0.163,0.245,0.21v0.035
			c0,0.023,0.012,0.034,0.035,0.034c0,0.117,0.053,0.24,0.157,0.368c0.105,0.128,0.158,0.262,0.158,0.402
			c0,0.023,0.018,0.035,0.052,0.035c0.035,0,0.064,0.012,0.088,0.035c0.047,0.116,0.07,0.21,0.07,0.279
			c0,0.07,0.022,0.141,0.069,0.21c0.047,0.07,0.07,0.17,0.07,0.298c0,0.129,0.047,0.216,0.14,0.263
			c0.047,0.047,0.105,0.169,0.176,0.367c0.069,0.198,0.081,0.345,0.034,0.438c0.141,0.14,0.198,0.269,0.176,0.385
			c-0.023,0.023,0,0.07,0.069,0.141c0.023,0.023,0.041,0.075,0.053,0.157s0.029,0.146,0.053,0.192
			c0.022,0.023,0.028,0.059,0.018,0.105c-0.013,0.047-0.041,0.058-0.088,0.034c-0.094,0-0.163-0.028-0.21-0.087
			s-0.082-0.041-0.104,0.053c-0.024,0.093-0.094,0.175-0.21,0.244l-0.525,0.21c-0.047,0-0.094-0.005-0.14-0.017
			c-0.048-0.012-0.07-0.041-0.07-0.088c0.093-0.116,0.081-0.21-0.035-0.28c-0.117-0.069-0.298-0.093-0.542-0.069
			c-0.245,0.023-0.438,0.047-0.578,0.069c-0.07-0.022-0.157-0.028-0.263-0.018c-0.104,0.013-0.204,0.018-0.297,0.018
			c-0.117,0-0.245,0.006-0.386,0.018c-0.14,0.012-0.292,0.018-0.454,0.018c-0.117-0.022-0.228-0.029-0.333-0.018
			c-0.104,0.012-0.228,0.018-0.367,0.018c-0.21,0-0.385,0.035-0.525,0.105c-0.047,0.047-0.128,0.064-0.245,0.052
			c-0.117-0.011-0.239-0.022-0.367-0.034c-0.129-0.012-0.245,0-0.35,0.034c-0.105,0.035-0.158,0.1-0.158,0.192
			c-0.117,0.024-0.228,0.048-0.332,0.07c-0.105,0.023-0.216,0.012-0.333-0.035c-0.023,0-0.047-0.011-0.069-0.035v-0.034l-0.035-0.07
			c-0.047-0.047-0.111-0.064-0.192-0.053c-0.082,0.013-0.158,0.053-0.228,0.123c0,0.069-0.07,0.116-0.21,0.14
			c-0.117,0.023-0.223,0.047-0.315,0.07c-0.094,0.023-0.198,0.035-0.314,0.035c-0.117,0-0.188,0.047-0.21,0.14
			c-0.048,0.047-0.082,0.07-0.105,0.07c-0.117-0.023-0.216,0-0.298,0.069c-0.082,0.07-0.157,0.105-0.228,0.105
			c-0.116,0-0.233,0.012-0.35,0.035c-0.117,0.023-0.233,0.034-0.35,0.034c-0.141,0-0.304,0.024-0.49,0.07
			c-0.07,0.023-0.141,0.053-0.21,0.088c-0.07,0.035-0.105,0.076-0.105,0.122c0,0.07-0.012,0.141-0.035,0.21
			c0,0.094-0.023,0.141-0.069,0.141c-0.117,0-0.175,0.012-0.175,0.034c0,0.07-0.007,0.176-0.018,0.315
			c-0.013,0.14-0.018,0.292-0.018,0.455c0,0.164-0.006,0.314-0.018,0.455c-0.013,0.141-0.029,0.223-0.053,0.246l-0.035,0.314
			c0,0.141,0.047,0.209,0.141,0.209h0.84c0.187-0.021,0.385-0.035,0.595-0.035s0.408,0,0.595,0c0.163,0,0.304,0,0.42,0
			c0.117,0,0.233-0.021,0.351-0.068c0.069,0,0.128,0.012,0.175,0.035s0.093,0.012,0.14-0.035c0.141-0.047,0.263-0.076,0.368-0.088
			c0.104-0.012,0.215-0.018,0.332-0.018c0.163,0,0.391-0.018,0.683-0.053c0.291-0.035,0.595-0.07,0.91-0.105
			c0.314-0.035,0.606-0.057,0.875-0.07c0.268-0.01,0.449-0.004,0.542,0.018c0.187,0,0.351,0,0.49,0s0.292,0.023,0.455,0.07
			c0.047,0.047,0.14,0.07,0.28,0.07c0.163,0.047,0.268,0.129,0.314,0.244c0.047,0.188,0.128,0.398,0.245,0.631
			c0.07,0.188,0.157,0.367,0.263,0.543c0.105,0.174,0.181,0.367,0.228,0.576c0,0.117,0.022,0.199,0.07,0.246
			c0.163,0.396,0.279,0.816,0.35,1.26c0,0.164,0.035,0.258,0.105,0.279c0.093,0.094,0.146,0.205,0.157,0.334
			c0.012,0.127,0.029,0.238,0.053,0.332v0.07v0.07c0,0.023-0.013,0.047-0.035,0.068c-0.164,0.164-0.339,0.281-0.525,0.352
			c-0.07,0.047-0.21,0.047-0.42,0l-0.28-0.141c-0.093-0.07-0.187-0.129-0.279-0.176c-0.094-0.045-0.21-0.07-0.351-0.07
			c-0.023,0-0.053-0.004-0.087-0.016c-0.035-0.012-0.064-0.018-0.088-0.018c-0.257-0.094-0.455-0.094-0.595,0
			c-0.07,0.047-0.164,0.047-0.28,0c-0.094-0.047-0.198-0.076-0.315-0.088c-0.116-0.012-0.233-0.006-0.35,0.018
			c-0.094,0.023-0.187,0.035-0.28,0.035c-0.093,0-0.187,0.006-0.279,0.018c-0.094,0.012-0.199,0.018-0.315,0.018
			c-0.257,0.023-0.549,0.033-0.875,0.033h-0.245C84.322,19.906,84.194,19.873,84.055,19.802z"/>
		<path d="M127.209,27.712c-0.117-0.117-0.192-0.141-0.228-0.07s-0.111,0.047-0.228-0.07l-0.14-0.035
			c-0.07,0-0.105,0.012-0.105,0.035c-0.023,0.117-0.041,0.24-0.053,0.367c-0.012,0.129,0.006,0.252,0.053,0.367
			c0.07,0.375,0.1,0.684,0.088,0.928c-0.012,0.246,0.087,0.566,0.297,0.963c-0.023,0.023-0.034,0.094-0.034,0.209
			c-0.023,0.305-0.152,0.49-0.386,0.561c-0.047,0-0.082,0.012-0.104,0.035c-0.023,0.023-0.059,0.047-0.105,0.07
			c-0.023,0.047-0.069,0.059-0.14,0.035c-0.047-0.047-0.094-0.082-0.14-0.105c-0.048-0.023-0.07-0.023-0.07,0
			c-0.047,0.094-0.105,0.193-0.175,0.297c-0.07,0.105-0.129,0.146-0.175,0.123c-0.141,0-0.245-0.082-0.315-0.244
			c-0.047-0.047-0.094-0.059-0.14-0.035c-0.048,0.023-0.105,0.047-0.176,0.07c-0.069,0-0.104-0.014-0.104-0.035
			c0-0.047-0.006-0.1-0.018-0.158s-0.018-0.111-0.018-0.158h-0.035c0,0.047-0.006,0.1-0.018,0.158s-0.018,0.111-0.018,0.158
			c0,0.021-0.012,0.07-0.034,0.139c-0.024,0.07-0.048,0.094-0.07,0.07c-0.047-0.047-0.082-0.018-0.105,0.088
			s-0.059,0.123-0.104,0.053h-0.245c-0.07,0-0.117-0.012-0.14-0.035l-0.105-0.141c-0.047-0.07-0.082-0.07-0.104,0
			c-0.024,0.07-0.082,0.117-0.176,0.141h-0.069c-0.023,0.023-0.047,0.053-0.07,0.088s-0.035,0.018-0.035-0.053
			c-0.023-0.023-0.035-0.082-0.035-0.176c-0.023,0-0.035,0.012-0.035,0.035c-0.023,0.023-0.034,0.047-0.034,0.07
			c-0.141,0.07-0.28,0.082-0.42,0.035c-0.048,0-0.076-0.012-0.088-0.035s-0.029-0.023-0.053,0c-0.047,0-0.069,0.006-0.069,0.018
			s-0.013,0.018-0.035,0.018h-0.105l-0.245-0.244c-0.023-0.049-0.059-0.014-0.104,0.104c-0.047,0.094-0.094,0.117-0.141,0.07
			c-0.023-0.047-0.041-0.088-0.052-0.123c-0.013-0.033-0.041-0.074-0.088-0.121c-0.07-0.07-0.104-0.176-0.104-0.316
			c-0.024-0.326-0.059-0.617-0.105-0.875c-0.047-0.256-0.07-0.512-0.07-0.77c0.023-0.115,0.029-0.227,0.018-0.332
			s-0.018-0.215-0.018-0.332c0-0.094-0.006-0.182-0.018-0.264c-0.012-0.08-0.018-0.156-0.018-0.227
			c-0.023-0.117-0.034-0.281-0.034-0.49v-0.07l-0.105-0.629c-0.047-0.141-0.128-0.199-0.245-0.176
			c-0.069-0.047-0.14-0.105-0.21-0.176c-0.069-0.068-0.128-0.127-0.175-0.174c-0.117-0.117-0.257-0.117-0.42,0h-0.14
			c-0.164-0.094-0.269-0.117-0.315-0.07c-0.07,0.07-0.129,0.105-0.175,0.105c-0.094,0-0.141-0.035-0.141-0.105
			c0.023-0.094,0.006-0.146-0.052-0.158c-0.059-0.012-0.111-0.029-0.158-0.053h-0.069c-0.023-0.045-0.041-0.057-0.053-0.035
			c-0.012,0.025-0.018,0.049-0.018,0.07c-0.047,0.047-0.1,0.059-0.157,0.035c-0.059-0.023-0.135-0.035-0.228-0.035h-0.141
			c-0.187-0.045-0.385-0.109-0.595-0.191s-0.443-0.123-0.7-0.123c-0.069,0-0.116-0.012-0.14-0.035
			c-0.397-0.141-0.794-0.209-1.19-0.209c-0.116,0-0.228,0.006-0.332,0.018c-0.105,0.012-0.204,0.051-0.298,0.121l-0.175,0.525
			c-0.023,0.117-0.041,0.24-0.053,0.367c-0.012,0.129-0.018,0.264-0.018,0.402c0,0.047-0.023,0.07-0.069,0.07l-0.035-0.07
			c0-0.115-0.047-0.209-0.14-0.279c0-0.047-0.024-0.047-0.07,0v0.141l-0.21,1.049c-0.047,0.211-0.076,0.367-0.088,0.473
			s-0.018,0.275-0.018,0.508c0,0.023,0.012,0.047,0.035,0.07s0.059,0.012,0.105-0.035l0.069-0.07h0.105
			c0.093,0,0.14,0.023,0.14,0.07c0,0.188-0.094,0.303-0.279,0.35c-0.024,0.023-0.059,0.012-0.105-0.035
			c-0.023-0.023-0.047-0.035-0.07-0.035c-0.093,0.094-0.187,0.117-0.279,0.07c-0.141-0.047-0.269-0.035-0.386,0.035
			c-0.023,0.023-0.104,0.012-0.245-0.035c-0.047-0.092-0.14-0.105-0.279-0.035c-0.047,0.047-0.1,0.105-0.158,0.176
			c-0.058,0.07-0.122,0.094-0.192,0.07c-0.093-0.047-0.187-0.047-0.279,0c-0.094,0.047-0.199,0.059-0.315,0.035
			c-0.117-0.047-0.233-0.059-0.35-0.035c-0.117,0.023-0.233,0.047-0.351,0.068c-0.233,0-0.438-0.016-0.612-0.051
			s-0.355-0.064-0.542-0.088c-0.024,0-0.065-0.029-0.123-0.088c-0.059-0.059-0.087-0.111-0.087-0.158
			c0-0.045-0.007-0.08-0.018-0.104c-0.013-0.023-0.018-0.047-0.018-0.07c0-0.211,0.005-0.402,0.018-0.578
			c0.011-0.176,0.018-0.355,0.018-0.543c0-0.045,0.011-0.104,0.034-0.174c0-0.047,0.006-0.082,0.018-0.105s0.018-0.059,0.018-0.105
			c0.047-0.467,0.088-0.816,0.123-1.049c0.034-0.234,0.069-0.438,0.104-0.613s0.082-0.35,0.141-0.525
			c0.058-0.174,0.134-0.438,0.227-0.787c0.094-0.326,0.181-0.676,0.263-1.051c0.082-0.373,0.192-0.723,0.333-1.049l0.314-1.365
			c0.047-0.141,0.1-0.285,0.158-0.438c0.058-0.152,0.11-0.309,0.157-0.473c0.07-0.279,0.146-0.566,0.228-0.857
			c0.081-0.291,0.181-0.578,0.297-0.857c0.094-0.188,0.17-0.373,0.228-0.561c0.059-0.186,0.123-0.373,0.193-0.561
			c0.046-0.186,0.11-0.35,0.192-0.488c0.081-0.141,0.146-0.305,0.192-0.49c0.046-0.164,0.104-0.326,0.175-0.49s0.14-0.326,0.21-0.49
			c0.187-0.537,0.379-1.055,0.577-1.557c0.198-0.502,0.391-1.01,0.578-1.523l0.524-1.154c0.21-0.28,0.386-0.606,0.525-0.98
			l0.42-0.979c0.047-0.163,0.122-0.32,0.228-0.473c0.105-0.151,0.216-0.32,0.332-0.508c0.047-0.187,0.111-0.338,0.193-0.455
			c0.081-0.116,0.18-0.232,0.297-0.35c0.141-0.21,0.269-0.351,0.385-0.42c0.187-0.141,0.362-0.163,0.525-0.07
			c0.093,0.047,0.187,0.076,0.28,0.088c0.093,0.012,0.198,0.052,0.314,0.122c0.07,0.164,0.21,0.245,0.42,0.245
			c0.117,0.047,0.198,0.059,0.245,0.035c0.07-0.047,0.151-0.064,0.245-0.053c0.093,0.012,0.187,0.029,0.28,0.053
			c0.022,0,0.047,0.018,0.07,0.053c0.022,0.034,0.046,0.029,0.069-0.018c0.187-0.07,0.379-0.064,0.578,0.018
			c0.197,0.082,0.39,0.1,0.577,0.052c0.07,0.048,0.14,0.07,0.21,0.07s0.14,0.023,0.21,0.07c0.21,0,0.315,0.094,0.315,0.279
			c0,0.188,0.022,0.293,0.069,0.315c0.117,0.233,0.233,0.461,0.351,0.683c0.116,0.222,0.256,0.449,0.42,0.683l0.175,0.42
			c0.116,0.257,0.204,0.502,0.263,0.735c0.058,0.233,0.11,0.479,0.157,0.734l0.07,0.245l0.175,0.595
			c0.047,0.164,0.093,0.304,0.14,0.42c0.047,0.117,0.082,0.234,0.105,0.351c0.046,0.117,0.087,0.257,0.122,0.42
			s0.076,0.327,0.123,0.49c0,0.07,0.011,0.14,0.035,0.21c0.022,0.068,0.046,0.127,0.069,0.174l0.175,1.33l0.21,0.77l0.141,0.807
			l0.175,1.049c0.047,0.188,0.088,0.379,0.122,0.578c0.035,0.197,0.053,0.402,0.053,0.611c-0.023,0.049-0.029,0.088-0.018,0.123
			s0.018,0.076,0.018,0.123c0.047,0.117,0.076,0.223,0.088,0.314c0.012,0.094,0.029,0.199,0.053,0.314
			c0,0.117,0.022,0.293,0.069,0.525c0,0.047,0.006,0.094,0.018,0.141s0.018,0.105,0.018,0.176c0,0.139,0.006,0.273,0.018,0.402
			c0.012,0.127,0.029,0.25,0.053,0.367c0.022,0.117,0.035,0.215,0.035,0.297s0,0.182,0,0.297c0,0.211,0.011,0.352,0.034,0.42
			c0.023,0.049,0.082,0.094,0.176,0.141l0.489,0.246c0.21,0.092,0.368,0.121,0.473,0.086c0.105-0.035,0.251,0.018,0.438,0.158
			c0.07,0.07,0.105,0.152,0.105,0.244c0,0.049-0.006,0.088-0.018,0.123s-0.006,0.076,0.018,0.123c0,0.047,0.005,0.1,0.018,0.158
			c0.011,0.057,0.018,0.109,0.018,0.156c0,0.188,0.005,0.363,0.018,0.525c0.011,0.164,0.04,0.338,0.087,0.525
			c0,0.07-0.006,0.152-0.018,0.244c-0.012,0.094-0.006,0.188,0.018,0.281c0.023,0.115,0.012,0.291-0.035,0.523
			c0,0.164-0.012,0.311-0.035,0.438c-0.023,0.129-0.047,0.264-0.069,0.402c0,0.117-0.035,0.223-0.105,0.316
			c-0.047,0.186-0.11,0.279-0.192,0.279S127.256,27.875,127.209,27.712z M117.724,17.316c-0.069,0.07-0.069,0.141,0,0.211
			c0,0.279-0.006,0.467-0.018,0.561s-0.064,0.268-0.157,0.523c-0.023,0.023-0.035,0.059-0.035,0.105
			c-0.023,0.094-0.052,0.176-0.087,0.246c-0.035,0.068-0.064,0.139-0.088,0.209c-0.07,0.117-0.104,0.211-0.104,0.281
			c0,0.186-0.059,0.303-0.176,0.35c-0.023,0.047-0.058,0.094-0.104,0.139c-0.047,0.047-0.047,0.094,0,0.141
			c0.022,0.047,0.006,0.094-0.053,0.141s-0.087,0.094-0.087,0.139c0.046,0.164,0.034,0.305-0.035,0.42
			c0,0.117,0.058,0.199,0.175,0.246h0.07l1.574,0.279c0.163,0.047,0.333,0.088,0.508,0.123s0.344,0.076,0.508,0.123l1.189,0.209
			h0.07l0.035-0.035c0-0.045,0.005-0.08,0.018-0.104c0.012-0.023,0.018-0.047,0.018-0.07c0-0.303-0.03-0.584-0.088-0.84
			c-0.059-0.258-0.088-0.502-0.088-0.736c-0.047-0.115-0.069-0.303-0.069-0.559c0-0.117-0.023-0.27-0.07-0.455
			c-0.047-0.188-0.082-0.373-0.104-0.561c-0.023-0.188-0.035-0.396-0.035-0.631c0-0.045-0.006-0.074-0.018-0.086
			s-0.018-0.041-0.018-0.088l-0.525-2.311c-0.047-0.186-0.082-0.402-0.104-0.646c-0.023-0.246-0.059-0.461-0.105-0.648l-0.21-0.63
			c0-0.022-0.012-0.034-0.035-0.034s-0.034,0.012-0.034,0.034c-0.024,0.094-0.048,0.152-0.07,0.176
			c-0.023,0.023-0.059,0.058-0.105,0.104c-0.116,0.047-0.21,0.117-0.279,0.21c-0.07,0.094-0.094,0.21-0.07,0.351l-0.07,0.068
			c-0.023,0.023-0.047,0.047-0.069,0.07c-0.023,0.023-0.048,0.07-0.07,0.141c-0.047,0.047-0.047,0.105,0,0.174
			c0,0.049,0.012,0.088,0.035,0.123c0.022,0.035,0.046,0.076,0.069,0.123c0.047,0,0.07,0.023,0.07,0.07
			c-0.047,0.162-0.087,0.309-0.122,0.438s-0.1,0.238-0.192,0.332c0.022,0.141,0.005,0.262-0.053,0.367
			c-0.059,0.105-0.111,0.205-0.157,0.297c-0.048,0.164-0.152,0.281-0.315,0.352c-0.023,0.023-0.035,0.059-0.035,0.104
			c0,0.049-0.023,0.105-0.07,0.176c0,0.047-0.034,0.07-0.104,0.07C117.759,17.13,117.724,17.201,117.724,17.316z M124.059,12.802
			v0.07l0.035-0.07H124.059z M124.304,13.887v-0.07h-0.035L124.304,13.887z M124.444,14.271h0.035v-0.035l-0.035-0.033
			c0,0.023-0.013,0.033-0.035,0.033L124.444,14.271z M125.494,31.107l0.035,0.035c0-0.047,0.011-0.082,0.035-0.105h-0.035
			l-0.035,0.035V31.107z M125.669,21.691c0-0.045-0.012-0.08-0.035-0.104v0.068c0,0.025,0.012,0.049,0.035,0.07V21.691z
			 M125.774,22.566v0.07l0.034,0.07v-0.209L125.774,22.566z M126.194,28.691c0.022-0.021,0.035-0.045,0.035-0.068v-0.701
			c0-0.023-0.007-0.035-0.018-0.035c-0.013,0-0.018-0.012-0.018-0.035v0.07c-0.023,0.07-0.03,0.129-0.018,0.176
			c0.012,0.047,0.018,0.094,0.018,0.139V28.691z"/>
	</g>
	<g>
		<path d="M134.45,57.809l-0.342-0.093c-0.062,0-0.113,0.041-0.154,0.124c0,0.021-0.016,0.03-0.047,0.03s-0.046-0.01-0.046-0.03
			c-0.124-0.124-0.207-0.29-0.248-0.496l-0.063-0.496c-0.021-0.165-0.047-0.352-0.077-0.558c-0.031-0.207-0.067-0.383-0.108-0.527
			c0-0.227-0.011-0.547-0.031-0.961c-0.021-0.413-0.042-0.702-0.063-0.868c0-0.248-0.021-0.495-0.062-0.743
			c-0.042-0.248-0.073-0.496-0.093-0.744c0-0.083-0.011-0.145-0.031-0.187c0-0.103-0.006-0.19-0.016-0.264
			c-0.011-0.071-0.016-0.149-0.016-0.232c-0.021-0.124-0.031-0.263-0.031-0.419c0-0.154-0.021-0.294-0.062-0.418
			c0.021-0.104,0-0.186-0.063-0.248c-0.062-0.063-0.104-0.135-0.124-0.217l-0.062-0.063c-0.042-0.041-0.093-0.088-0.155-0.139
			c-0.062-0.052-0.093-0.129-0.093-0.232c-0.021-0.063-0.083-0.113-0.186-0.156c-0.104-0.082-0.124-0.205-0.063-0.371
			c0.063-0.063,0.031-0.094-0.093-0.094c-0.063,0.021-0.135,0.012-0.217-0.03l-0.063-0.031c0.021-0.124-0.052-0.237-0.217-0.341
			c-0.021-0.041-0.021-0.094,0-0.155l0.062-0.03c0.063-0.042,0.113-0.094,0.155-0.156c0.041-0.062,0.113-0.113,0.217-0.154
			c0.021,0,0.052-0.063,0.094-0.186l0.278-0.311c0.124-0.021,0.191-0.072,0.202-0.154c0.01-0.083,0.015-0.166,0.015-0.248
			c0-0.104,0-0.207,0-0.311s-0.021-0.207-0.062-0.311c-0.042-0.103-0.062-0.206-0.062-0.31c0-0.103,0-0.206,0-0.31l-0.063-0.527
			v-0.154c0-0.248-0.016-0.502-0.047-0.76c-0.03-0.259-0.046-0.521-0.046-0.791c0-0.165-0.031-0.289-0.093-0.372
			c0-0.021-0.006-0.036-0.016-0.046c-0.011-0.011-0.016-0.026-0.016-0.047c0-0.145-0.011-0.289-0.031-0.434
			s-0.042-0.289-0.062-0.435l-0.094-0.744c-0.021-0.247-0.124-0.31-0.31-0.187c-0.104,0.043-0.176,0.078-0.217,0.109
			c-0.042,0.031-0.073,0.057-0.094,0.077s-0.052,0.042-0.093,0.062c-0.041,0.021-0.104,0.063-0.186,0.125h-0.217l-0.62-0.496
			l-0.031-0.094c-0.063-0.103-0.104-0.19-0.124-0.264c-0.021-0.071-0.042-0.148-0.063-0.232c-0.021-0.062-0.113-0.113-0.278-0.154
			c-0.124,0.041-0.165-0.021-0.124-0.186c0-0.021-0.005-0.037-0.016-0.047c-0.01-0.01-0.016-0.025-0.016-0.047l-0.155-0.217
			c-0.082-0.041-0.124-0.104-0.124-0.186c0-0.125-0.051-0.197-0.154-0.217c-0.063-0.083-0.094-0.166-0.094-0.248
			c-0.041-0.187-0.124-0.32-0.248-0.404c-0.124-0.082-0.19-0.175-0.201-0.278c-0.01-0.103-0.036-0.196-0.077-0.278v-0.125
			c0-0.02,0.011-0.041,0.031-0.062c0.104-0.248,0.186-0.403,0.247-0.466c0.063-0.062,0.229-0.144,0.496-0.248l0.403-0.186
			c0.124-0.041,0.228-0.082,0.31-0.123c0.083-0.042,0.145-0.067,0.187-0.078c0.041-0.01,0.093-0.016,0.155-0.016
			c0-0.041,0.082-0.063,0.248-0.063c0.165,0,0.278-0.01,0.341-0.03h0.031c0.124-0.083,0.175-0.155,0.154-0.218
			c-0.021-0.103-0.016-0.19,0.016-0.263s0.025-0.16-0.016-0.264c-0.062-0.103-0.062-0.228,0-0.372
			c0.021-0.021,0.031-0.072,0.031-0.154c0-0.125,0.063-0.238,0.186-0.342c0.042-0.063,0.083-0.082,0.124-0.063
			c0.104,0,0.191,0.016,0.264,0.047s0.15,0.058,0.232,0.078c0.207,0.082,0.419,0.16,0.636,0.232s0.438,0.129,0.667,0.17
			c0.103,0.042,0.217,0.078,0.341,0.109c0.124,0.03,0.237,0.046,0.341,0.046c0.145,0.042,0.248,0.021,0.31-0.062
			c0.083-0.021,0.155-0.021,0.218,0c0.062,0.082,0.144,0.072,0.248-0.031c0.082-0.041,0.206-0.063,0.372-0.063
			c0.103-0.02,0.201-0.041,0.294-0.062s0.181-0.031,0.264-0.031c0.228,0,0.403-0.03,0.527-0.093c0.02,0,0.093-0.021,0.217-0.063
			c0.103-0.082,0.227-0.104,0.372-0.062c0.082,0.021,0.186,0.021,0.31,0c0.145-0.042,0.295-0.072,0.449-0.093
			c0.155-0.021,0.315-0.031,0.48-0.031c0.248,0,0.496-0.005,0.744-0.016c0.248-0.01,0.507-0.016,0.775-0.016
			c0.206,0,0.403,0.006,0.589,0.016c0.186,0.011,0.372,0.036,0.558,0.078c0.187,0.02,0.383,0.057,0.59,0.107
			c0.206,0.053,0.402,0.109,0.589,0.171c0.31,0.042,0.599,0.13,0.868,0.264c0.268,0.135,0.526,0.284,0.774,0.449l0.341,0.372
			c0.041,0.021,0.067,0.042,0.078,0.063c0.01,0.021,0.025,0.041,0.046,0.062c0.104,0.165,0.217,0.331,0.341,0.496
			s0.228,0.341,0.311,0.526l0.186,0.311c0.166,0.228,0.315,0.445,0.45,0.65c0.134,0.207,0.253,0.435,0.356,0.683
			c0.103,0.124,0.19,0.253,0.264,0.388c0.071,0.135,0.149,0.264,0.232,0.387c0.144,0.27,0.217,0.549,0.217,0.838v0.713
			c0,0.186-0.042,0.311-0.124,0.372c-0.063,0.31-0.187,0.558-0.372,0.743l-0.124,0.248c-0.063,0.125-0.129,0.244-0.201,0.357
			c-0.073,0.113-0.161,0.212-0.264,0.294c-0.146,0.228-0.284,0.419-0.419,0.573c-0.135,0.155-0.284,0.316-0.449,0.48
			c-0.166,0.166-0.325,0.321-0.48,0.465c-0.155,0.146-0.336,0.291-0.543,0.435l-0.31,0.31c-0.186,0.187-0.372,0.332-0.558,0.435
			l-0.838,0.589c-0.104,0.104-0.206,0.197-0.31,0.279s-0.217,0.145-0.341,0.186c-0.104,0.042-0.207,0.114-0.311,0.217
			c-0.104,0.104-0.217,0.187-0.341,0.248c-0.041,0.021-0.083,0.047-0.124,0.078s-0.083,0.057-0.124,0.077
			c-0.104,0.083-0.212,0.166-0.325,0.248c-0.114,0.083-0.232,0.146-0.356,0.187l-0.124,0.062c-0.104,0.062-0.166,0.13-0.187,0.202
			s-0.072,0.139-0.154,0.201h0.031l0.123,0.062l0.155,0.062c0.269,0.043,0.496,0.135,0.683,0.279
			c0.02,0.042,0.046,0.063,0.077,0.063s0.066,0.021,0.108,0.063c0.063,0.082,0.145,0.145,0.248,0.186c0.082,0,0.16,0.01,0.232,0.031
			c0.072,0.021,0.149,0.041,0.232,0.062c0.104,0.042,0.165,0.104,0.187,0.187c0.02,0.041,0.041,0.046,0.062,0.016
			c0.021-0.031,0.063-0.037,0.124-0.016l0.217,0.062c0.041,0.042,0.063,0.073,0.063,0.093c0.041,0.124,0.103,0.166,0.186,0.124
			c0.104-0.021,0.181-0.03,0.232-0.03s0.108,0,0.171,0c0.041,0,0.072,0.03,0.093,0.092c0.021,0.063,0.052,0.104,0.093,0.125
			c0.083,0.041,0.155,0.082,0.218,0.123c0.062,0.043,0.134,0.063,0.217,0.063c0.165,0.083,0.31,0.124,0.434,0.124
			c0.041,0.021,0.098,0.046,0.171,0.077c0.072,0.031,0.14,0.058,0.201,0.078l0.992,0.465l0.62,0.186
			c0.082,0.042,0.145,0.053,0.186,0.031c0.063-0.041,0.113-0.051,0.155-0.031c0.041,0.021,0.082,0.053,0.124,0.094
			c0.041,0.021,0.088,0.062,0.14,0.123c0.051,0.063,0.098,0.104,0.14,0.125c0.227,0.082,0.49,0.154,0.79,0.217
			s0.532,0.186,0.697,0.372c0.104,0.042,0.202,0.093,0.295,0.155c0.093,0.062,0.16,0.154,0.201,0.278
			c0.041,0.042,0.063,0.058,0.063,0.047s0.01,0.026,0.031,0.108c0.02,0.104,0.046,0.201,0.077,0.295
			c0.031,0.092-0.006,0.17-0.108,0.232c-0.021,0.041-0.026,0.072-0.016,0.093c0.01,0.021,0.016,0.052,0.016,0.093
			c-0.021,0.041-0.031,0.083-0.031,0.124c0,0.042-0.021,0.073-0.062,0.093c-0.083,0.021-0.094,0.099-0.031,0.232
			c0.062,0.135,0.072,0.201,0.031,0.201c-0.042,0-0.073,0.031-0.094,0.094s-0.041,0.104-0.062,0.124
			c-0.042,0.042-0.026,0.104,0.046,0.187c0.072,0.082,0.067,0.145-0.015,0.186c-0.042,0.021-0.063,0.063-0.063,0.124
			s0.005,0.124,0.016,0.186c0.01,0.062,0.01,0.124,0,0.187c-0.011,0.062-0.047,0.093-0.108,0.093
			c-0.166,0.021-0.259,0.072-0.279,0.155c-0.021,0.082-0.113,0.145-0.279,0.186l-0.093,0.155l-0.031,0.03
			c-0.082,0.041-0.154,0.052-0.217,0.031c-0.062-0.021-0.135-0.01-0.217,0.031c-0.083,0-0.155-0.011-0.217-0.031l-0.341-0.217
			l-0.311-0.186c-0.207-0.083-0.413-0.16-0.62-0.232c-0.206-0.073-0.402-0.171-0.589-0.295c-0.331-0.186-0.672-0.356-1.022-0.512
			c-0.352-0.154-0.713-0.314-1.085-0.48l-1.52-0.713c-0.289-0.124-0.573-0.264-0.853-0.418c-0.278-0.155-0.563-0.273-0.853-0.357
			c-0.289-0.103-0.558-0.195-0.806-0.278s-0.507-0.165-0.775-0.248c-0.145-0.042-0.196,0.011-0.154,0.155v0.123
			c0.041,0.187,0.062,0.367,0.062,0.543s0,0.346,0,0.512v0.248c0,0.269,0.01,0.486,0.031,0.65c0.021,0.166,0.041,0.321,0.062,0.465
			c0.021,0.146,0.041,0.248,0.063,0.311c0,0.269,0.031,0.459,0.093,0.574c0.063,0.113,0.134,0.305,0.217,0.572
			c0,0.063,0.005,0.129,0.016,0.202c0.011,0.072,0.005,0.129-0.016,0.171l-0.062,0.03l-0.341,0.187h-0.031
			c-0.021,0-0.042-0.011-0.063-0.031l-0.062-0.155c-0.063,0-0.104,0.031-0.124,0.093h-0.063c-0.145-0.041-0.269-0.01-0.372,0.094
			s-0.228,0.134-0.371,0.093l-0.031-0.031c-0.124-0.124-0.248-0.145-0.372-0.062c-0.021,0.02-0.042,0.066-0.063,0.139
			s-0.041,0.109-0.062,0.109l-0.155-0.125c-0.062-0.062-0.093-0.072-0.093-0.03c-0.166,0.021-0.3-0.021-0.403-0.124
			c-0.021-0.063-0.072-0.072-0.154-0.031c-0.146,0.041-0.27,0.094-0.372,0.155c-0.104,0.062-0.187,0.041-0.248-0.062V57.809z
			 M140.495,39.83c-0.228,0-0.439,0-0.636,0s-0.408,0.01-0.636,0.031c-0.062,0-0.119,0.005-0.17,0.016
			c-0.052,0.01-0.119,0.015-0.202,0.015l-1.611,0.31c-0.124,0.021-0.248,0.047-0.372,0.078s-0.259,0.067-0.403,0.108
			c-0.083,0-0.145,0.005-0.186,0.016c-0.042,0.011-0.083,0.026-0.124,0.046c-0.042,0-0.063,0.021-0.063,0.063
			c0.063,0.186,0.088,0.377,0.077,0.574c-0.01,0.195,0.005,0.387,0.047,0.572c0.021,0.063,0.031,0.156,0.031,0.279v0.311
			c0.021,0.041,0.031,0.098,0.031,0.17s0,0.14,0,0.201c-0.021,0.104-0.021,0.182,0,0.232c0.02,0.053,0.03,0.13,0.03,0.233
			c0,0.186,0.021,0.388,0.063,0.604c0.041,0.217,0.082,0.418,0.124,0.604c0.021,0.062,0.035,0.119,0.046,0.171
			c0.011,0.051,0.016,0.107,0.016,0.17c-0.021,0.228-0.005,0.439,0.047,0.635c0.051,0.197,0.118,0.398,0.201,0.605
			c0,0.082,0.031,0.104,0.093,0.062c0.145-0.082,0.279-0.171,0.403-0.263c0.124-0.094,0.258-0.191,0.403-0.295l0.217-0.186
			c0.145-0.083,0.289-0.166,0.434-0.248c0.145-0.083,0.29-0.187,0.435-0.311c0.186-0.124,0.372-0.253,0.558-0.388
			c0.187-0.134,0.372-0.273,0.559-0.419c0.289-0.227,0.567-0.465,0.837-0.713c0.268-0.248,0.537-0.506,0.806-0.774
			c0.269-0.228,0.512-0.485,0.729-0.774c0.217-0.29,0.419-0.59,0.604-0.9l0.186-0.402c0.021-0.082-0.021-0.145-0.123-0.186
			c-0.104-0.041-0.213-0.067-0.326-0.078c-0.113-0.01-0.232-0.035-0.356-0.077c-0.165-0.042-0.352-0.067-0.558-0.077
			c-0.207-0.011-0.414-0.016-0.62-0.016H140.495z"/>
		<path d="M153.346,55.794c-0.042,0-0.104-0.031-0.185-0.094c-0.186-0.186-0.34-0.382-0.463-0.588
			c-0.123-0.207-0.235-0.414-0.338-0.621c-0.288-0.558-0.482-1.156-0.585-1.797l-0.369-1.644l-0.154-1.333
			c0-0.186-0.006-0.377-0.016-0.574c-0.011-0.195-0.026-0.376-0.047-0.542c-0.021-0.31-0.021-0.63,0-0.961
			c-0.021-0.103-0.041-0.212-0.062-0.325s-0.011-0.212,0.031-0.295c-0.063-0.165-0.089-0.33-0.078-0.496
			c0.011-0.165-0.005-0.33-0.046-0.496l0.03-0.093c0.021-0.187,0.026-0.376,0.016-0.573c-0.011-0.196-0.026-0.398-0.046-0.604
			c0.02-0.206,0.025-0.407,0.015-0.604c-0.01-0.196-0.005-0.408,0.016-0.636c-0.041-0.165-0.057-0.341-0.046-0.526
			c0.01-0.187,0.035-0.393,0.077-0.621c0-0.082,0.011-0.186,0.031-0.31s0.01-0.247-0.031-0.372v-0.31l0.216-2.015
			c0-0.041,0.005-0.094,0.016-0.155c0.01-0.062,0.005-0.114-0.016-0.155c-0.041-0.165-0.057-0.311-0.046-0.434
			c0.01-0.125,0.025-0.238,0.046-0.342c0.021-0.082,0.016-0.154-0.016-0.217s-0.025-0.123,0.016-0.186l0.154-0.372
			c0-0.104,0.04-0.145,0.123-0.124c0.082-0.041,0.153-0.063,0.215-0.063c0.103-0.041,0.206-0.031,0.309,0.031
			c0.082,0.042,0.164,0.072,0.246,0.094c0.082,0.02,0.164,0.041,0.247,0.062c0.081,0.021,0.163,0.03,0.246,0.03l0.493,0.094
			c0.103,0.082,0.226,0.145,0.369,0.186l0.462,0.031c0.164,0.041,0.323,0.088,0.478,0.14c0.153,0.052,0.313,0.077,0.478,0.077
			c0.205,0,0.369,0.083,0.492,0.248c0.041,0.021,0.066,0.042,0.077,0.063s0.025,0.041,0.046,0.062
			c0.021,0.083,0.052,0.166,0.093,0.248c0.041,0.083,0.041,0.176,0,0.279c-0.021,0.124-0.036,0.237-0.047,0.341
			c-0.01,0.104,0.006,0.217,0.047,0.341v0.279c-0.042,0.269-0.088,0.646-0.14,1.132c-0.052,0.485-0.088,0.873-0.108,1.162
			c0,0.124-0.011,0.269-0.031,0.434c-0.021,0.166-0.011,0.32,0.031,0.465c0,0.104-0.011,0.202-0.031,0.295
			c-0.021,0.094-0.03,0.201-0.03,0.326c0,0.123-0.006,0.237-0.016,0.34c-0.011,0.104-0.006,0.207,0.016,0.311
			c0.041,0.063,0.03,0.145-0.031,0.248c0.021,0.145,0.025,0.264,0.016,0.356c-0.011,0.093-0.016,0.191-0.016,0.294v0.621
			c0,0.104-0.006,0.191-0.016,0.264c-0.011,0.072-0.006,0.16,0.016,0.263c0,0.165-0.006,0.321-0.016,0.466
			c-0.011,0.145-0.006,0.299,0.016,0.465c0,0.186-0.006,0.367-0.016,0.542c-0.011,0.176-0.006,0.356,0.016,0.542
			c0,0.166,0.005,0.321,0.016,0.465c0.01,0.146,0.016,0.29,0.016,0.435c0.062,0.228,0.093,0.413,0.093,0.558
			c0.041,0.125,0.051,0.207,0.03,0.248c0,0.125,0.005,0.232,0.016,0.326c0.011,0.093,0.016,0.191,0.016,0.295
			c0.041,0.082,0.052,0.154,0.031,0.217c0,0.165,0.025,0.33,0.077,0.496c0.052,0.165,0.099,0.32,0.14,0.465l0.187,1.022
			c0.041,0.146,0.082,0.274,0.124,0.388c0.041,0.113,0.103,0.223,0.186,0.325c0,0.042,0.005,0.089,0.016,0.14
			c0.01,0.052,0.036,0.098,0.077,0.14c0,0.021,0.005,0.03,0.016,0.03s0.016-0.01,0.016-0.03c0.145-0.083,0.269-0.165,0.372-0.248
			s0.176-0.187,0.217-0.31c0.021-0.083,0.083-0.145,0.187-0.187c0.124-0.103,0.227-0.217,0.31-0.341
			c0.082-0.124,0.171-0.253,0.264-0.388c0.093-0.134,0.181-0.273,0.264-0.419c0.103-0.164,0.201-0.325,0.294-0.48
			c0.094-0.154,0.191-0.335,0.295-0.542c0-0.041,0.016-0.093,0.046-0.155c0.031-0.062,0.067-0.123,0.109-0.186
			c0.124-0.311,0.253-0.609,0.387-0.899c0.135-0.289,0.264-0.589,0.388-0.899l0.279-0.836c0.062-0.166,0.118-0.352,0.17-0.559
			c0.052-0.206,0.129-0.402,0.233-0.589v-0.093c0-0.145,0.025-0.279,0.077-0.403s0.098-0.259,0.14-0.403l0.217-0.65
			c0-0.145,0.01-0.289,0.031-0.434c0.021-0.145,0.051-0.289,0.093-0.435c0.041-0.083,0.066-0.165,0.077-0.248
			s0.026-0.165,0.047-0.248c0-0.062,0.021-0.113,0.062-0.155c0.042-0.082,0.052-0.145,0.031-0.186c0-0.124,0.011-0.232,0.031-0.326
			c0.021-0.092,0.021-0.19,0-0.294l0.031-0.093c0.041-0.166,0.066-0.342,0.077-0.527c0.01-0.186,0.036-0.372,0.077-0.559
			c0.042-0.205,0.063-0.396,0.063-0.572s0.01-0.367,0.031-0.574c0.02-0.227,0.02-0.465,0-0.713c0.02-0.063,0.025-0.124,0.015-0.186
			c-0.01-0.063-0.005-0.145,0.016-0.248c0.063-0.269,0.083-0.548,0.063-0.838c-0.042-0.123-0.063-0.227-0.063-0.31
			c0-0.082,0-0.187,0-0.31c0-0.041,0.005-0.078,0.016-0.109c0.011-0.03-0.005-0.066-0.046-0.107
			c-0.042-0.083-0.063-0.113-0.063-0.094c0,0.021,0,0,0-0.062l0.063-0.372c0-0.041,0.03-0.088,0.093-0.14
			c0.062-0.052,0.113-0.088,0.155-0.108l0.371,0.063c0.104,0.062,0.218,0.062,0.342,0c0.124-0.063,0.237-0.072,0.341-0.031
			c0.186,0.062,0.366,0.104,0.542,0.123c0.176,0.021,0.347,0.053,0.512,0.094c0.104,0.041,0.191,0.067,0.264,0.077
			c0.072,0.011,0.14,0.036,0.201,0.077h0.589c0.228,0.042,0.393,0.114,0.496,0.218c0.187,0.104,0.279,0.228,0.279,0.372
			c0,0.104,0.01,0.217,0.031,0.341c0.021,0.124,0.021,0.237,0,0.341c0.062,0.145,0.088,0.284,0.077,0.418
			c-0.011,0.135,0.005,0.285,0.047,0.45c0.021,0.124,0.021,0.217,0,0.278l-0.093,1.675c0,0.062,0.004,0.129,0.015,0.201
			c0.011,0.073-0.005,0.161-0.046,0.264v0.03c0.041,0.084,0.046,0.172,0.016,0.264c-0.031,0.094-0.058,0.191-0.078,0.295
			c-0.041,0.104-0.062,0.213-0.062,0.326s-0.011,0.222-0.031,0.324c0,0.063,0,0.13,0,0.202c0,0.073-0.011,0.16-0.031,0.264
			c0,0.104-0.016,0.187-0.046,0.248c-0.031,0.062-0.047,0.134-0.047,0.217c-0.021,0.062-0.031,0.135-0.031,0.217
			c0,0.104-0.005,0.202-0.016,0.295c-0.01,0.093-0.036,0.181-0.077,0.263c-0.042,0.125-0.062,0.218-0.062,0.279
			c-0.021,0.125-0.042,0.248-0.063,0.373c-0.021,0.123-0.052,0.258-0.093,0.402c-0.042,0.063-0.072,0.145-0.093,0.248
			c-0.021,0.104-0.042,0.207-0.063,0.311c-0.021,0.082-0.036,0.16-0.046,0.232c-0.011,0.072-0.037,0.129-0.078,0.17
			c-0.021,0.104-0.046,0.201-0.077,0.295c-0.031,0.093-0.058,0.191-0.078,0.294c-0.104,0.29-0.196,0.573-0.278,0.853
			c-0.083,0.279-0.166,0.563-0.248,0.853c-0.042,0.062-0.078,0.14-0.108,0.232c-0.031,0.093-0.067,0.181-0.108,0.264v0.062
			c0.02,0.145-0.011,0.321-0.094,0.527c0,0.063-0.025,0.129-0.077,0.201c-0.052,0.073-0.099,0.141-0.14,0.202
			c-0.104,0.062-0.135,0.124-0.093,0.186c0,0.083-0.021,0.124-0.063,0.124c-0.062,0.042-0.098,0.088-0.108,0.14
			s-0.036,0.108-0.077,0.171c-0.124,0.31-0.31,0.661-0.558,1.054l-0.124,0.187c-0.063,0.104-0.094,0.206-0.094,0.31
			c0.063,0.124,0.021,0.217-0.124,0.278c-0.082,0.084-0.134,0.156-0.154,0.217l-0.341,0.373l-0.435,0.65
			c-0.062,0.063-0.104,0.135-0.124,0.217c-0.042,0.146-0.113,0.26-0.217,0.342s-0.207,0.166-0.311,0.248
			c-0.145,0.062-0.237,0.135-0.278,0.217c-0.063,0.104-0.146,0.186-0.248,0.248c-0.104,0.063-0.228,0.113-0.372,0.154
			c-0.166,0.104-0.325,0.197-0.48,0.279s-0.347,0.135-0.573,0.155c-0.021-0.021-0.042-0.021-0.063,0
			c-0.124,0.041-0.228,0.057-0.31,0.046c-0.083-0.01-0.166-0.016-0.248-0.016l-1.52-0.123c-0.041,0-0.067-0.011-0.077-0.031
			c-0.011-0.021-0.026-0.021-0.047,0c-0.228,0.041-0.418,0.041-0.573,0s-0.314-0.104-0.479-0.186c-0.062,0-0.118-0.006-0.17-0.016
			c-0.051-0.011-0.098-0.016-0.138-0.016c-0.083,0.041-0.154,0.041-0.216,0c-0.082-0.063-0.186-0.072-0.309-0.031
			c-0.062,0.021-0.123,0.031-0.185,0.031s-0.123-0.031-0.185-0.094c-0.021,0-0.036-0.004-0.046-0.016
			c-0.011-0.01-0.025-0.015-0.046-0.015c-0.145,0.021-0.263,0.005-0.354-0.047c-0.093-0.052-0.189-0.087-0.292-0.108
			c0,0.021-0.011,0.031-0.031,0.031h-0.123H153.346z"/>
		<path d="M174.565,40.883c0.062,0.352,0.082,0.692,0.062,1.022c-0.021,0.332,0,0.672,0.062,1.023v0.124
			c-0.041,0.269-0.031,0.548,0.03,0.837s0.083,0.579,0.063,0.868c0,0.145,0.01,0.274,0.03,0.388s0.031,0.253,0.031,0.418
			c-0.021,0.125-0.026,0.254-0.016,0.388c0.01,0.135,0.016,0.274,0.016,0.419c0,0.104,0.005,0.207,0.016,0.31
			c0.01,0.104,0.016,0.207,0.016,0.31V47.3c0,0.145,0.005,0.289,0.015,0.434c0.011,0.145,0.016,0.279,0.016,0.403
			c0,0.042,0.011,0.089,0.031,0.14c0.021,0.052,0.031,0.108,0.031,0.17c-0.042,0.146-0.063,0.264-0.063,0.357
			c0,0.093,0.005,0.186,0.016,0.278s0.016,0.191,0.016,0.295s0,0.237,0,0.403c-0.021,0.041-0.026,0.062-0.016,0.062
			s0.016,0.021,0.016,0.062c0,0.084,0,0.135,0,0.155s0,0.036,0,0.047s0.005,0.026,0.016,0.046c0.01,0.021,0.016,0.073,0.016,0.155
			c0,0.146-0.011,0.248-0.031,0.31c0,0.29,0.016,0.58,0.047,0.869c0.03,0.289,0.046,0.578,0.046,0.867l0.031,0.063
			c0,0.021,0.01,0.047,0.031,0.077c0.021,0.031,0.051,0.036,0.093,0.016c0.145-0.041,0.273-0.057,0.388-0.046
			c0.113,0.01,0.242,0.005,0.388-0.016c0.103-0.021,0.196-0.031,0.278-0.031c0.083,0,0.187-0.021,0.311-0.063
			c0.062,0,0.159-0.004,0.294-0.016c0.135-0.01,0.284-0.025,0.45-0.047c0.165-0.02,0.314-0.041,0.449-0.062
			c0.134-0.021,0.232-0.03,0.294-0.03c0.104-0.041,0.223-0.063,0.357-0.063c0.134,0,0.252-0.021,0.356-0.063
			c0.062-0.02,0.129-0.041,0.201-0.062s0.16-0.03,0.264-0.03c0.103-0.021,0.201-0.037,0.294-0.047
			c0.094-0.01,0.191-0.036,0.295-0.078c0.082-0.041,0.165-0.01,0.248,0.094c0.041,0.062,0.088,0.119,0.14,0.17
			c0.051,0.052,0.098,0.099,0.14,0.14c0,0.042,0.004,0.067,0.015,0.077c0.011,0.012,0.016,0.037,0.016,0.078
			c-0.021,0.104,0,0.207,0.063,0.31c0.062,0.042,0.093,0.083,0.093,0.124c0.041,0.124,0.088,0.254,0.14,0.388
			c0.051,0.135,0.098,0.263,0.14,0.388c0,0.062,0.005,0.129,0.016,0.201c0.01,0.072,0.046,0.14,0.108,0.201
			c0.062,0.042,0.093,0.114,0.093,0.217c0.021,0.104,0.031,0.15,0.031,0.141c0-0.011,0.02,0.035,0.062,0.139
			c0.082,0.063,0.14,0.145,0.171,0.248c0.03,0.104,0.066,0.207,0.108,0.311c0.082,0.186,0.062,0.352-0.063,0.496
			c-0.041,0.021-0.062,0.041-0.062,0.062s-0.021,0.042-0.063,0.062l-0.154,0.094c-0.146,0.041-0.27,0.077-0.372,0.108
			c-0.104,0.03-0.228,0.046-0.372,0.046c-0.042,0-0.088,0.006-0.14,0.016c-0.052,0.012-0.119,0.026-0.201,0.047l-0.435,0.093
			c-0.062,0-0.119,0.005-0.17,0.016c-0.052,0.011-0.109,0.016-0.171,0.016c-0.166,0.062-0.31,0.093-0.434,0.093
			c-0.063,0.021-0.166,0.031-0.311,0.031c-0.021,0.021-0.119,0.041-0.294,0.063c-0.176,0.02-0.372,0.041-0.59,0.062
			c-0.217,0.021-0.429,0.041-0.635,0.062c-0.207,0.021-0.341,0.052-0.403,0.094h-0.186c-0.229,0-0.455,0.02-0.683,0.062
			s-0.455,0.083-0.682,0.124h-0.217c-0.166,0-0.321,0.005-0.466,0.016c-0.145,0.01-0.289,0.035-0.434,0.078
			c-0.207,0.041-0.393,0.062-0.558,0.062c-0.166,0-0.331,0-0.496,0c-0.104,0.021-0.197-0.042-0.279-0.187l-0.062-0.093
			c-0.042-0.062-0.083-0.093-0.124-0.093c-0.124,0.02-0.213,0.005-0.264-0.047c-0.052-0.052-0.108-0.119-0.171-0.201
			c-0.041-0.166-0.093-0.269-0.155-0.311c-0.062-0.02-0.113-0.072-0.154-0.154c-0.021,0-0.031-0.041-0.031-0.124
			c0.021-0.104,0-0.175-0.063-0.218c-0.062-0.041-0.123-0.082-0.186-0.123h-0.093c-0.083,0-0.135-0.041-0.155-0.125
			c0-0.062-0.011-0.113-0.031-0.154c0-0.063-0.011-0.119-0.03-0.17c-0.021-0.052-0.042-0.099-0.063-0.141
			c-0.042-0.062-0.083-0.129-0.124-0.201c-0.042-0.072-0.062-0.16-0.062-0.264h-0.031c-0.083-0.041-0.13-0.098-0.14-0.17
			c-0.011-0.072-0.026-0.15-0.047-0.232c-0.124-0.145-0.124-0.269,0-0.373l0.063-0.061c0.145-0.166,0.228-0.274,0.248-0.326
			c0.021-0.051,0.021-0.181,0-0.388c0-0.103-0.011-0.217-0.031-0.341s-0.011-0.237,0.031-0.341c0-0.165-0.021-0.29-0.063-0.372
			c0-0.166,0-0.336,0-0.512s-0.011-0.346-0.03-0.512c-0.021-0.186-0.037-0.299-0.047-0.341c-0.011-0.041,0.005-0.175,0.047-0.403
			c-0.021-0.145-0.037-0.325-0.047-0.542c-0.011-0.218-0.021-0.444-0.031-0.683c-0.011-0.236-0.016-0.459-0.016-0.666
			c0-0.206-0.011-0.372-0.03-0.496c0-0.104,0-0.206,0-0.311c0-0.103,0.01-0.205,0.03-0.309c-0.041-0.207-0.062-0.361-0.062-0.466
			c0-0.165-0.006-0.315-0.016-0.449c-0.011-0.134-0.005-0.274,0.016-0.419c0.021-0.393-0.006-0.779-0.077-1.162
			c-0.073-0.383-0.119-0.77-0.14-1.162c0-0.083,0-0.176,0-0.279s0.01-0.196,0.03-0.279c-0.021-0.104-0.025-0.211-0.015-0.325
			c0.01-0.114,0.015-0.222,0.015-0.325l-0.093-0.931c0-0.041-0.005-0.087-0.016-0.14c-0.011-0.051-0.016-0.098-0.016-0.139
			c-0.021-0.228-0.03-0.383-0.03-0.465c0-0.083,0-0.15,0-0.202s-0.006-0.118-0.016-0.202c-0.011-0.082-0.036-0.236-0.077-0.465
			c-0.042-0.103-0.058-0.217-0.047-0.34c0.01-0.125,0.005-0.259-0.016-0.404c-0.021-0.103-0.042-0.195-0.062-0.278
			c-0.021-0.083-0.063-0.187-0.124-0.31c-0.042-0.104-0.063-0.16-0.063-0.171s0-0.077,0-0.202c0-0.123,0.005-0.221,0.016-0.294
			c0.01-0.072-0.006-0.171-0.047-0.294c0.021-0.125,0.026-0.228,0.016-0.311c-0.011-0.082-0.005-0.186,0.016-0.311
			c0-0.02,0.021-0.03,0.063-0.03c0.165-0.124,0.299-0.176,0.402-0.155h0.092c0.185,0.083,0.369,0.098,0.555,0.047
			c0.185-0.052,0.359-0.057,0.523-0.016c0.062,0,0.103,0.01,0.123,0.031c0.123,0.041,0.247,0.062,0.369,0.062
			c0.123,0,0.247,0.011,0.37,0.031c0.103,0,0.216,0,0.339,0s0.246,0.011,0.369,0.03c0.103,0.042,0.2,0.073,0.293,0.094
			c0.092,0.021,0.189,0.072,0.292,0.154c0.308,0.042,0.462,0.197,0.462,0.465c0.021,0.084,0.036,0.15,0.047,0.202
			c0.01,0.052,0.015,0.13,0.015,0.232c0.041,0.104,0.062,0.207,0.062,0.31c0,0.104,0.021,0.217,0.062,0.342
			c0.041,0.062,0.062,0.166,0.062,0.31L174.565,40.883z"/>
		<path d="M192.637,47.176c-0.042,0-0.073,0.021-0.093,0.062v-0.062l-0.155,0.124c-0.042,0.104-0.088,0.16-0.14,0.17
			c-0.052,0.012-0.129,0.016-0.232,0.016c-0.063,0-0.093-0.041-0.093-0.123c-0.042-0.104-0.104-0.15-0.187-0.141
			c-0.083,0.012-0.155,0.037-0.217,0.078l-0.187,0.186c-0.33,0.063-0.646,0.125-0.945,0.187s-0.604,0.114-0.914,0.155
			c-0.124,0-0.207,0.021-0.248,0.062c-0.042,0.042-0.114,0.073-0.217,0.093c-0.104,0.042-0.171,0.145-0.202,0.311
			c-0.03,0.166-0.046,0.3-0.046,0.402c0,0.063-0.031,0.135-0.093,0.217c-0.063,0.084-0.094,0.176-0.094,0.279v0.063h0.031
			c0-0.021,0.005-0.036,0.016-0.047c0.01-0.01,0.016-0.025,0.016-0.047v-0.062c-0.021,0,0-0.03,0.062-0.093v0.093
			c0.041,0.146,0.063,0.356,0.063,0.636s0,0.501,0,0.666c0,0.083,0.021,0.145,0.062,0.187c0.021,0.145,0.104,0.217,0.248,0.217
			c0.104,0,0.212,0,0.325,0c0.114,0,0.223-0.011,0.326-0.03c0.165-0.042,0.325-0.067,0.48-0.078c0.155-0.01,0.314-0.016,0.48-0.016
			l0.558-0.063c0.083-0.02,0.207-0.03,0.372-0.03c0.145-0.021,0.269-0.031,0.372-0.031s0.206,0,0.311,0
			c0.165-0.021,0.314-0.041,0.449-0.062c0.134-0.021,0.283-0.031,0.449-0.031c0.021,0,0.171-0.005,0.449-0.016
			c0.279-0.01,0.579-0.021,0.899-0.031c0.32-0.01,0.63-0.025,0.93-0.047c0.3-0.02,0.501-0.041,0.604-0.062h0.094
			c0.619,0,1.239-0.005,1.859-0.016c0.62-0.01,1.24-0.005,1.86,0.016h0.372c0.041,0,0.088,0.011,0.14,0.031
			c0.051,0.021,0.098,0.042,0.139,0.062c0.124,0.042,0.207,0.114,0.248,0.217c0,0.042,0,0.084,0,0.125s0.011,0.082,0.031,0.123
			c0,0.063,0.011,0.114,0.031,0.155c0.104,0.104,0.165,0.233,0.186,0.388s0.052,0.295,0.094,0.418
			c0.02,0.042,0.035,0.084,0.046,0.125s0.005,0.104-0.016,0.186c0,0.083,0.011,0.166,0.031,0.248
			c0.104,0.166,0.171,0.346,0.201,0.543c0.031,0.196,0.078,0.387,0.14,0.572c0.021,0.021,0.026,0.053,0.016,0.094
			s-0.016,0.072-0.016,0.093c0,0.083,0.011,0.146,0.031,0.187c0.082,0.082,0.124,0.17,0.124,0.264c0,0.092,0,0.17,0,0.232
			c0,0.104-0.016,0.119-0.047,0.046c-0.03-0.071-0.067-0.087-0.108-0.046l-0.03,0.062c-0.083,0.021-0.161,0.058-0.233,0.108
			c-0.072,0.052-0.139,0.088-0.201,0.109l-0.434,0.123c-0.042,0-0.094-0.02-0.155-0.062c-0.063-0.042-0.124-0.072-0.186-0.093
			c-0.146-0.145-0.301-0.182-0.466-0.109c-0.165,0.073-0.341,0.109-0.526,0.109c-0.207,0-0.408,0.005-0.604,0.016
			c-0.197,0.01-0.388-0.006-0.574-0.047h-0.186c-0.187,0.041-0.362,0.063-0.527,0.063s-0.361,0-0.589,0
			c-0.062,0-0.129-0.006-0.201-0.016c-0.073-0.011-0.16-0.006-0.264,0.016c-0.124,0.041-0.264,0.066-0.419,0.076
			c-0.154,0.012-0.314,0.016-0.48,0.016c-0.289,0.042-0.635,0.053-1.038,0.031c-0.403-0.02-0.656,0.011-0.76,0.094
			c-0.021,0.021-0.062,0.03-0.124,0.03c-0.062,0.062-0.113,0.062-0.154,0c-0.124-0.082-0.248-0.103-0.372-0.062
			c-0.063,0-0.135,0.021-0.218,0.062c-0.104,0.021-0.19,0.047-0.263,0.077c-0.073,0.031-0.15,0.047-0.232,0.047
			c-0.104,0.042-0.202,0.067-0.295,0.078c-0.093,0.01-0.191,0.036-0.295,0.077h-0.093c-0.104-0.083-0.201-0.103-0.294-0.062
			c-0.094,0.041-0.213,0.062-0.356,0.062c-0.146,0-0.259-0.031-0.342-0.093c-0.062-0.041-0.119-0.031-0.17,0.031
			c-0.052,0.062-0.078,0.123-0.078,0.186s0,0.139,0,0.232c0,0.093-0.01,0.182-0.03,0.264c-0.021,0.063-0.042,0.119-0.063,0.17
			c-0.021,0.053-0.062,0.129-0.124,0.232c-0.041,0.083-0.093,0.104-0.155,0.063l-0.465-0.063c-0.041-0.062-0.072-0.072-0.093-0.031
			c-0.021,0.042-0.042,0.072-0.062,0.094c-0.166,0.041-0.27,0.082-0.311,0.124h-0.124c-0.145-0.062-0.284-0.093-0.418-0.093
			c-0.135,0-0.284-0.021-0.45-0.063c-0.062-0.021-0.129-0.066-0.201-0.139s-0.16-0.088-0.264-0.047
			c-0.021,0.021-0.072,0.01-0.155-0.031c-0.123-0.041-0.206-0.063-0.247-0.063c-0.104-0.02-0.218-0.051-0.342-0.092
			c-0.124-0.042-0.237-0.083-0.341-0.125c-0.041-0.041-0.124-0.062-0.248-0.062c-0.186,0-0.372-0.005-0.558-0.016
			c-0.187-0.011-0.393-0.016-0.62-0.016c-0.104,0-0.207-0.041-0.31-0.124c-0.104-0.082-0.229-0.176-0.372-0.279
			c-0.063-0.103-0.124-0.211-0.187-0.325c-0.062-0.113-0.145-0.222-0.248-0.325c-0.021-0.021-0.031-0.063-0.031-0.124
			c-0.082-0.331-0.176-0.609-0.278-0.837l-0.094-0.125c-0.041-0.103-0.052-0.195-0.03-0.278c0.082-0.083,0.113-0.165,0.093-0.248
			c-0.021-0.062,0.01-0.134,0.093-0.217l-0.062-0.031c-0.104-0.041-0.155-0.113-0.155-0.217c0-0.103,0.021-0.196,0.062-0.279
			l0.155-0.093c0.041-0.041,0.052-0.093,0.031-0.154c-0.042-0.104-0.047-0.182-0.016-0.233s0.067-0.087,0.108-0.108
			c0.021,0,0.036-0.005,0.047-0.016c0.01-0.01,0.025-0.016,0.046-0.016c0.042-0.02,0.052-0.062,0.031-0.123
			c-0.021-0.083,0-0.125,0.063-0.125c0.206,0,0.341-0.01,0.402-0.031h0.403c0.041,0,0.104-0.02,0.186-0.062
			c0.187-0.062,0.269-0.187,0.248-0.372c-0.041-0.186-0.057-0.361-0.046-0.527c0.01-0.164,0.016-0.34,0.016-0.526
			c0-0.124,0-0.274,0-0.45c0-0.175,0-0.355,0-0.542s0-0.361,0-0.526c0-0.166,0-0.289,0-0.373c0-0.144,0.005-0.289,0.016-0.434
			c0.01-0.145,0.015-0.279,0.015-0.402c0-0.083-0.005-0.176-0.015-0.279c-0.011-0.104-0.006-0.207,0.015-0.311
			c0.021-0.123,0.031-0.236,0.031-0.341c0-0.103,0-0.206,0-0.31v-0.651c0-0.082,0.005-0.165,0.016-0.248
			c0.01-0.082-0.005-0.196-0.047-0.341c-0.021-0.021-0.03-0.063-0.03-0.124c0.062-0.228,0.087-0.454,0.077-0.683
			c-0.011-0.227-0.005-0.443,0.016-0.65c0-0.021,0-0.082,0-0.186s0-0.207,0-0.311s-0.011-0.248-0.031-0.434
			c0-0.125-0.072-0.187-0.217-0.187h-0.155c-0.104,0.042-0.165,0.011-0.186-0.093c-0.083-0.041-0.166-0.063-0.248-0.063
			c-0.042-0.02-0.052-0.062-0.031-0.123c0.063-0.104,0.063-0.202,0-0.295c-0.062-0.094-0.113-0.16-0.155-0.201
			c-0.082,0-0.124-0.031-0.124-0.094c0-0.02,0.031-0.051,0.094-0.093v-0.062c-0.042-0.104-0.094-0.171-0.155-0.201
			c-0.063-0.031-0.104-0.088-0.124-0.172c0-0.041-0.031-0.062-0.093-0.062h-0.063c-0.062,0.062-0.093,0.031-0.093-0.093
			c0-0.104-0.006-0.211-0.016-0.326c-0.011-0.113-0.016-0.232-0.016-0.355c0-0.041-0.016-0.082-0.046-0.125
			c-0.031-0.041-0.067-0.082-0.109-0.123h-0.03c-0.041-0.041-0.088-0.072-0.14-0.094c-0.052-0.02-0.077-0.062-0.077-0.123
			c0-0.063-0.021-0.113-0.063-0.155c-0.041-0.042-0.062-0.093-0.062-0.155c0-0.041-0.016-0.082-0.047-0.124
			c-0.031-0.041-0.067-0.103-0.108-0.187c0-0.123-0.021-0.205-0.063-0.248c-0.041-0.041-0.062-0.087-0.062-0.139s0-0.129,0-0.232
			c0-0.166,0.093-0.248,0.279-0.248c0.206-0.063,0.413-0.155,0.619-0.279c0.104-0.021,0.218-0.035,0.342-0.047
			c0.124-0.01,0.227-0.016,0.31-0.016c0.228-0.041,0.46-0.066,0.697-0.077c0.237-0.01,0.48-0.036,0.729-0.077
			c0.104-0.041,0.217-0.066,0.341-0.078c0.124-0.01,0.238-0.025,0.342-0.046c0.206-0.021,0.397-0.057,0.573-0.108
			c0.175-0.052,0.366-0.098,0.573-0.14c0.083,0,0.149-0.011,0.202-0.031c0.051-0.021,0.108-0.021,0.17,0
			c0.206,0,0.393-0.01,0.559-0.03c0.165-0.021,0.341-0.041,0.526-0.063c0.104-0.021,0.201-0.035,0.295-0.047
			c0.093-0.01,0.19-0.016,0.294-0.016s0.176-0.02,0.217-0.062c0.145-0.041,0.295-0.067,0.45-0.077
			c0.155-0.011,0.294-0.016,0.418-0.016c0.083,0,0.171-0.005,0.264-0.016c0.093-0.01,0.181-0.047,0.264-0.108h0.155
			c0.392,0,0.733-0.031,1.022-0.093c0.104,0.041,0.202,0.041,0.295,0s0.19-0.052,0.294-0.031c0.352-0.041,0.604-0.047,0.76-0.016
			s0.336,0.036,0.543,0.016c0.041,0,0.082,0.006,0.124,0.016c0.041,0.01,0.093,0.016,0.154,0.016c0.165,0,0.32,0,0.465,0
			s0.3-0.021,0.466-0.063c0.082,0,0.181-0.005,0.294-0.016c0.113-0.01,0.212-0.005,0.295,0.016c0.165,0.021,0.314,0.037,0.449,0.047
			c0.134,0.01,0.295,0.016,0.48,0.016c0.082,0,0.155,0.041,0.217,0.123c0.063,0.084,0.135,0.146,0.218,0.187v0.03
			c0,0.021,0.01,0.031,0.03,0.031c0,0.104,0.047,0.213,0.14,0.326s0.14,0.232,0.14,0.356c0,0.021,0.016,0.03,0.047,0.03
			c0.03,0,0.057,0.012,0.077,0.031c0.041,0.104,0.062,0.187,0.062,0.248c0,0.063,0.021,0.125,0.063,0.186
			c0.041,0.063,0.062,0.15,0.062,0.264c0,0.114,0.042,0.191,0.124,0.232c0.042,0.043,0.094,0.15,0.155,0.326
			c0.063,0.176,0.072,0.305,0.031,0.388c0.124,0.124,0.175,0.237,0.155,0.341c-0.021,0.021,0,0.063,0.062,0.124
			c0.021,0.021,0.036,0.067,0.047,0.14c0.01,0.072,0.025,0.129,0.046,0.17c0.021,0.021,0.026,0.053,0.016,0.094
			s-0.036,0.051-0.077,0.031c-0.083,0-0.146-0.026-0.187-0.078c-0.041-0.051-0.072-0.035-0.093,0.047s-0.083,0.154-0.186,0.217
			l-0.466,0.186c-0.041,0-0.082-0.004-0.124-0.016c-0.041-0.01-0.062-0.035-0.062-0.077c0.082-0.103,0.072-0.187-0.031-0.248
			s-0.264-0.082-0.48-0.062s-0.388,0.041-0.512,0.062c-0.062-0.021-0.139-0.025-0.232-0.016c-0.093,0.011-0.181,0.016-0.263,0.016
			c-0.104,0-0.218,0.005-0.342,0.016s-0.258,0.016-0.402,0.016c-0.104-0.021-0.202-0.026-0.295-0.016s-0.201,0.016-0.325,0.016
			c-0.187,0-0.341,0.03-0.465,0.093c-0.042,0.041-0.114,0.057-0.218,0.047s-0.212-0.021-0.325-0.031c-0.113-0.01-0.217,0-0.31,0.031
			c-0.094,0.031-0.14,0.088-0.14,0.17c-0.104,0.021-0.201,0.042-0.295,0.063c-0.093,0.021-0.191,0.01-0.294-0.031
			c-0.021,0-0.042-0.01-0.063-0.031v-0.031l-0.031-0.062c-0.041-0.041-0.098-0.057-0.17-0.046c-0.073,0.01-0.14,0.046-0.201,0.107
			c0,0.063-0.063,0.104-0.187,0.125c-0.104,0.021-0.196,0.041-0.279,0.062c-0.082,0.021-0.176,0.03-0.278,0.03
			c-0.104,0-0.166,0.043-0.187,0.125c-0.041,0.041-0.072,0.062-0.093,0.062c-0.104-0.021-0.191,0-0.264,0.062
			c-0.072,0.063-0.14,0.094-0.201,0.094c-0.104,0-0.207,0.011-0.311,0.031s-0.206,0.031-0.31,0.031c-0.124,0-0.269,0.02-0.434,0.062
			c-0.063,0.021-0.124,0.046-0.187,0.077c-0.062,0.031-0.093,0.067-0.093,0.109c0,0.062-0.011,0.123-0.031,0.186
			c0,0.082-0.021,0.124-0.062,0.124c-0.104,0-0.155,0.011-0.155,0.03c0,0.063-0.006,0.156-0.016,0.279
			c-0.011,0.124-0.016,0.259-0.016,0.403s-0.005,0.278-0.016,0.403c-0.011,0.123-0.026,0.196-0.046,0.217l-0.031,0.279
			c0,0.123,0.041,0.186,0.124,0.186h0.744c0.165-0.021,0.341-0.031,0.526-0.031c0.187,0,0.361,0,0.527,0c0.145,0,0.269,0,0.372,0
			s0.206-0.02,0.31-0.063c0.063,0,0.113,0.012,0.155,0.031c0.041,0.021,0.082,0.012,0.124-0.031
			c0.124-0.041,0.232-0.066,0.325-0.076c0.094-0.011,0.191-0.016,0.295-0.016c0.145,0,0.346-0.016,0.604-0.047
			c0.258-0.031,0.527-0.063,0.806-0.094c0.279-0.03,0.537-0.051,0.775-0.062c0.237-0.011,0.397-0.005,0.48,0.016
			c0.165,0,0.31,0,0.434,0s0.259,0.021,0.403,0.062c0.041,0.042,0.124,0.063,0.248,0.063c0.145,0.041,0.237,0.113,0.279,0.217
			c0.041,0.166,0.113,0.352,0.217,0.559c0.062,0.165,0.14,0.325,0.232,0.48c0.093,0.154,0.16,0.325,0.201,0.512
			c0,0.104,0.021,0.176,0.063,0.217c0.145,0.352,0.248,0.723,0.31,1.115c0,0.145,0.031,0.229,0.093,0.248
			c0.083,0.083,0.129,0.182,0.14,0.295s0.026,0.212,0.047,0.295v0.062v0.062c0,0.021-0.011,0.042-0.031,0.063
			c-0.145,0.145-0.3,0.248-0.465,0.311c-0.062,0.041-0.186,0.041-0.372,0l-0.248-0.125c-0.083-0.062-0.165-0.113-0.248-0.154
			s-0.186-0.063-0.31-0.063c-0.021,0-0.047-0.005-0.078-0.016c-0.03-0.01-0.057-0.016-0.077-0.016c-0.228-0.082-0.403-0.082-0.527,0
			c-0.062,0.042-0.145,0.042-0.248,0c-0.082-0.041-0.176-0.066-0.278-0.077c-0.104-0.011-0.207-0.005-0.311,0.016
			c-0.082,0.021-0.165,0.03-0.248,0.03c-0.082,0-0.165,0.006-0.248,0.016c-0.082,0.012-0.176,0.016-0.278,0.016
			c-0.228,0.021-0.486,0.031-0.775,0.031h-0.217C192.874,47.269,192.761,47.238,192.637,47.176z"/>
	</g>
</g>
<g id="no_guts_no_glory">
</g>
<g id="pass">
</g>
<g id="santa">
</g>
<g id="snake_eyes">
</g>
<g id="bodyguard">
</g>
<g id="threeman">
</g>
<g id="_x32__truths_and_a_lie">
</g>
<g id="cray_cray_cat_lady">
</g>
<g id="siblings">
</g>
<g id="later">
</g>
<g id="waterfall">
</g>
<g id="cheers">
</g>
<g id="rhyme">
</g>
<g id="categories">
</g>
<g id="tits">
</g>
<g id="dicks">
</g>
<g id="questions">
</g>
<g id="double_hands">
</g>
<g id="take_2">
</g>
<g id="take_3">
</g>
<g id="give_3">
</g>
<g id="give_2">
</g>
<g id="rewind">
</g>
<g id="Cryptkeeper">
</g>
<g id="Take_2_and_Redo">
</g>
<g id="Embryo">
</g>
<g id="I_am_Groot">
</g>
<g id="Mini_Me">
</g>
<g id="Ditto_1_">
</g>
</svg>
