<?xml version="1.0" encoding="utf-8"?>
<!-- Generator: Adobe Illustrator 16.0.0, SVG Export Plug-In . SVG Version: 6.00 Build 0)  -->
<!DOCTYPE svg PUBLIC "-//W3C//DTD SVG 1.1//EN" "http://www.w3.org/Graphics/SVG/1.1/DTD/svg11.dtd">
<svg version="1.1" xmlns="http://www.w3.org/2000/svg" xmlns:xlink="http://www.w3.org/1999/xlink" x="0px" y="0px"
	 width="209.759px" height="62.361px" viewBox="0 0 209.759 62.361" enable-background="new 0 0 209.759 62.361"
	 xml:space="preserve">
<g id="Layer_1">
</g>
<g id="Blindman">
</g>
<g id="Compliments">
</g>
<g id="HAT">
</g>
<g id="speech">
</g>
<g id="TREX_ARMS">
</g>
<g id="slim_shady">
</g>
<g id="TIMEOUT">
</g>
<g id="Truth_or_Dare">
</g>
<g id="ARM_WRESTLE">
</g>
<g id="musical_chairs">
</g>
<g id="never_have_i_ever">
</g>
<g id="Trivia">
</g>
<g id="Drink_Pulling">
</g>
<g id="Sharing_is_Caring">
</g>
<g id="Not_It">
</g>
<g id="Cocktail_of_Doom">
</g>
<g id="Heads_up">
</g>
<g id="Archenemy">
</g>
<g id="battle_of_the_sexes">
</g>
<g id="one_must_drink">
</g>
<g id="rainbow_connection">
</g>
<g id="social_drinking">
</g>
<g id="Spin_the_bottle">
</g>
<g id="accents">
</g>
<g id="Slap">
</g>
<g id="down_the_hatch">
</g>
<g id="rubiks_cube">
</g>
<g id="bar_tender">
</g>
<g id="codenames">
</g>
<g id="hand_switch">
</g>
<g id="make_a_rule">
</g>
<g id="no_guts_no_glory">
</g>
<g id="pass">
</g>
<g id="santa">
</g>
<g id="snake_eyes">
</g>
<g id="lightning_round">
</g>
<g id="Bro">
</g>
<g id="LeastDrunk">
</g>
<g id="Know_It_All">
</g>
<g id="EyeContact">
</g>
<g id="UnderGuesser">
</g>
<g id="GodSaveTheQUeen">
</g>
<g id="Ghost">
</g>
<g id="Fortune_Teller">
</g>
<g id="DrinkSwap">
</g>
<g id="DickTator">
</g>
<g id="_x34_Eyes">
</g>
<g id="BabyTalk">
</g>
<g id="Backseat_Driver">
</g>
<g id="BAtman">
</g>
<g id="bodyguard">
</g>
<g id="BuckleUp">
</g>
<g id="RockPaperScissors">
</g>
<g id="Roger_Roger">
</g>
<g id="RoyaleWe">
</g>
<g id="Skip">
</g>
<g id="SwineRules">
</g>
<g id="Touchy_Feeley">
</g>
<g id="Wasted_Education">
</g>
<g id="Layer_86">
</g>
<g id="PointOfNoReturn">
</g>
<g id="Pirate">
</g>
<g id="Thief">
</g>
<g id="DepthPerception">
</g>
<g id="Narcissist">
</g>
<g id="MammaBird">
</g>
<g id="Staringcontest">
</g>
<g id="Cartwheel">
</g>
<g id="Censored">
	<g>
		<path d="M42.208,41.04c-0.096-0.197-0.191-0.406-0.286-0.627c-0.096-0.219-0.188-0.426-0.275-0.615
			c-0.088-0.191-0.146-0.33-0.176-0.418c-0.162-0.381-0.25-0.756-0.264-1.123c-0.016-0.365-0.074-0.74-0.177-1.121v-2.311
			c0.044-0.189,0.081-0.396,0.11-0.615c0.029-0.221,0.051-0.418,0.066-0.594l0.945-3.104c0.029-0.117,0.106-0.273,0.231-0.473
			c0.124-0.197,0.268-0.398,0.429-0.605c0.161-0.205,0.322-0.398,0.484-0.582c0.161-0.184,0.293-0.318,0.396-0.406
			c0.059-0.029,0.154-0.078,0.286-0.145c0.132-0.064,0.268-0.135,0.407-0.209c0.139-0.072,0.274-0.143,0.407-0.209
			c0.132-0.064,0.227-0.113,0.285-0.143c0.162-0.072,0.33-0.105,0.507-0.1c0.176,0.008,0.337,0.012,0.483,0.012
			c0.558,0,1.049,0.088,1.475,0.264c0.425,0.176,0.894,0.412,1.407,0.705h0.088c0.089,0,0.169-0.053,0.242-0.154
			c0.073-0.104,0.15-0.213,0.231-0.33c0.08-0.117,0.18-0.227,0.297-0.33s0.264-0.154,0.44-0.154c0.176,0,0.322,0.045,0.439,0.133
			s0.209,0.197,0.275,0.33c0.065,0.131,0.109,0.273,0.132,0.428c0.021,0.154,0.033,0.305,0.033,0.451
			c0,0.162-0.019,0.32-0.056,0.473c-0.036,0.154-0.055,0.313-0.055,0.475v0.043c0.015,0.045,0.033,0.133,0.055,0.264
			c0.022,0.133,0.033,0.221,0.033,0.264v2.662c0,0.119-0.025,0.254-0.077,0.408s-0.121,0.305-0.209,0.451s-0.194,0.271-0.318,0.373
			c-0.125,0.104-0.253,0.154-0.386,0.154c-0.234,0-0.418-0.088-0.55-0.264s-0.23-0.381-0.297-0.617
			c-0.066-0.234-0.11-0.473-0.132-0.715c-0.022-0.242-0.055-0.428-0.1-0.561c-0.088-0.338-0.176-0.623-0.264-0.857
			s-0.201-0.443-0.341-0.627s-0.312-0.348-0.517-0.496c-0.206-0.146-0.463-0.293-0.771-0.439c-0.029-0.014-0.077-0.033-0.143-0.055
			c-0.066-0.021-0.106-0.033-0.121-0.033h-1.452c-0.015,0-0.041,0.012-0.077,0.033c-0.037,0.021-0.069,0.041-0.099,0.055
			c-0.323,0.221-0.616,0.492-0.88,0.814c-0.265,0.322-0.492,0.67-0.683,1.045c-0.19,0.373-0.337,0.762-0.439,1.166
			c-0.104,0.402-0.154,0.803-0.154,1.199v2.75c0.015,0.029,0.029,0.102,0.044,0.219c0.015,0.119,0.029,0.191,0.044,0.221
			c0.059,0.439,0.143,0.881,0.253,1.32s0.268,0.848,0.473,1.221c0.206,0.375,0.474,0.703,0.804,0.99
			c0.33,0.285,0.736,0.488,1.221,0.605c0.015,0,0.077,0.004,0.188,0.01c0.109,0.008,0.193,0.012,0.253,0.012
			c0.527,0,0.975-0.121,1.342-0.363c0.366-0.242,0.674-0.551,0.924-0.924c0.249-0.373,0.458-0.785,0.627-1.232
			c0.168-0.447,0.326-0.875,0.473-1.287c0.177-0.293,0.418-0.439,0.727-0.439c0.19,0,0.341,0.041,0.451,0.121
			c0.109,0.08,0.193,0.188,0.253,0.318c0.059,0.133,0.091,0.279,0.099,0.441c0.007,0.16,0.011,0.314,0.011,0.461
			c0,0.543-0.121,1.111-0.362,1.705c-0.242,0.594-0.569,1.137-0.979,1.629c-0.411,0.49-0.88,0.898-1.408,1.221
			c-0.527,0.322-1.085,0.484-1.672,0.484c-0.88,0-1.724-0.178-2.53-0.529s-1.444-0.924-1.913-1.715
			C42.372,41.374,42.303,41.239,42.208,41.04z"/>
		<path d="M53.977,36.63c0.081-0.543,0.217-1.061,0.407-1.551c0.19-0.492,0.443-0.947,0.759-1.365s0.715-0.758,1.199-1.021
			c0.044-0.029,0.124-0.074,0.242-0.133c0.117-0.059,0.242-0.121,0.374-0.188s0.253-0.123,0.362-0.176
			c0.11-0.051,0.188-0.084,0.231-0.1c0.161-0.072,0.326-0.105,0.495-0.098c0.168,0.008,0.333,0.01,0.495,0.01
			c0.938,0,1.73,0.225,2.376,0.672c0.645,0.447,1.246,1.023,1.804,1.727c0.059,0.088,0.136,0.254,0.231,0.496
			c0.095,0.24,0.183,0.506,0.264,0.791c0.08,0.287,0.15,0.564,0.209,0.836s0.088,0.473,0.088,0.605c0,0.029-0.004,0.092-0.011,0.188
			c-0.008,0.096-0.011,0.156-0.011,0.186c-0.133,0.221-0.309,0.367-0.528,0.441c-0.22,0.072-0.447,0.131-0.682,0.176
			c-0.162,0-0.451-0.004-0.869-0.012s-0.862-0.012-1.331-0.012c-0.455,0-0.892,0.004-1.31,0.012s-0.707,0.012-0.869,0.012
			c-0.161,0-0.355,0.004-0.583,0.01c-0.228,0.008-0.45,0.016-0.671,0.023c-0.22,0.008-0.491,0.025-0.813,0.055l-0.088,0.066
			c0,0.016-0.004,0.066-0.012,0.156c-0.007,0.088-0.011,0.146-0.011,0.176c0,0.428,0.077,0.834,0.231,1.217
			c0.153,0.385,0.366,0.721,0.638,1.008s0.59,0.516,0.957,0.686c0.366,0.17,0.77,0.256,1.21,0.256c0.044,0,0.143-0.004,0.297-0.012
			s0.253-0.012,0.297-0.012c0.205-0.16,0.44-0.273,0.704-0.34c0.265-0.066,0.491-0.18,0.683-0.342
			c0.146-0.131,0.282-0.293,0.406-0.484c0.125-0.189,0.257-0.373,0.396-0.549c0.139-0.176,0.289-0.322,0.451-0.441
			c0.161-0.117,0.358-0.176,0.594-0.176c0.22,0,0.399,0.066,0.539,0.199c0.139,0.131,0.209,0.301,0.209,0.506
			c0,0.338-0.073,0.641-0.22,0.912c-0.147,0.271-0.309,0.539-0.484,0.803c-0.44,0.639-1.02,1.094-1.738,1.369
			s-1.459,0.414-2.222,0.414c-0.748,0-1.423-0.146-2.024-0.441c-0.602-0.293-1.107-0.688-1.518-1.188
			c-0.411-0.498-0.727-1.074-0.946-1.727s-0.33-1.338-0.33-2.057C53.855,37.7,53.896,37.173,53.977,36.63z M55.924,36.321
			c0,0.045,0.029,0.066,0.088,0.066h5.082c0.029,0,0.069-0.018,0.121-0.055c0.051-0.037,0.092-0.07,0.121-0.1
			c0.015-0.029,0.021-0.08,0.021-0.154c0-0.072,0-0.125,0-0.154c0-0.352-0.088-0.648-0.264-0.891s-0.396-0.432-0.66-0.572
			c-0.264-0.139-0.554-0.242-0.869-0.307c-0.315-0.066-0.612-0.1-0.891-0.1c-0.308,0-0.624,0.041-0.946,0.121
			s-0.616,0.209-0.88,0.385s-0.484,0.4-0.66,0.672s-0.264,0.59-0.264,0.957C55.924,36.22,55.924,36.263,55.924,36.321z"/>
		<path d="M66.506,41.437c0.293-0.125,0.66-0.201,1.1-0.23l0.088-0.088c0.029-0.205,0.056-0.443,0.077-0.715
			c0.022-0.271,0.056-0.518,0.1-0.738v-5.082c0-0.102-0.092-0.18-0.275-0.23s-0.382-0.121-0.594-0.209
			c-0.213-0.088-0.411-0.217-0.595-0.385s-0.274-0.43-0.274-0.781c0-0.381,0.136-0.641,0.407-0.781
			c0.271-0.139,0.567-0.209,0.891-0.209c0.044,0,0.11,0,0.198,0c0.103,0,0.153,0.008,0.153,0.021
			c0.426,0.059,0.767,0.133,1.023,0.221s0.458,0.209,0.605,0.363c0.146,0.154,0.249,0.355,0.308,0.605
			c0.059,0.248,0.103,0.564,0.132,0.945c0.015,0.016,0.029,0.021,0.044,0.021h0.044c0.088,0,0.173-0.043,0.253-0.131
			c0.081-0.088,0.165-0.191,0.253-0.309s0.177-0.234,0.265-0.352s0.176-0.205,0.264-0.264c0.41-0.295,0.847-0.584,1.309-0.869
			c0.463-0.287,0.957-0.43,1.485-0.43c0.322,0,0.649,0.076,0.979,0.23c0.329,0.154,0.623,0.355,0.88,0.605
			c0.256,0.25,0.465,0.535,0.627,0.857c0.161,0.324,0.242,0.654,0.242,0.99v5.434c-0.06,0.162-0.092,0.309-0.1,0.441
			c-0.008,0.131-0.011,0.277-0.011,0.439c0,0.043,0.007,0.146,0.021,0.309l0.089,0.088c0.396,0.072,0.751,0.205,1.066,0.395
			c0.315,0.191,0.474,0.521,0.474,0.99c0,0.383-0.114,0.635-0.342,0.76s-0.517,0.188-0.869,0.188h-0.329
			c-0.118,0-0.323-0.004-0.616-0.012c-0.294-0.008-0.605-0.014-0.936-0.021s-0.642-0.02-0.935-0.033
			c-0.294-0.014-0.499-0.021-0.616-0.021c-0.47-0.133-0.704-0.434-0.704-0.902c0-0.557,0.157-0.914,0.474-1.066
			c0.314-0.154,0.707-0.246,1.177-0.275l0.088-0.088l0.198-0.859v-3.344c0.014-0.043,0.04-0.131,0.077-0.264
			c0.036-0.133,0.055-0.221,0.055-0.264v-0.045V36.3c0-0.029-0.011-0.113-0.033-0.254c-0.021-0.139-0.04-0.223-0.055-0.252
			c0-0.045-0.004-0.125-0.012-0.242c-0.007-0.117-0.015-0.238-0.021-0.363c-0.008-0.125-0.015-0.246-0.022-0.363
			c-0.007-0.117-0.011-0.197-0.011-0.242c-0.132-0.219-0.301-0.348-0.506-0.385s-0.418-0.055-0.638-0.055
			c-0.367,0-0.708,0.088-1.023,0.264s-0.604,0.396-0.869,0.66c-0.264,0.264-0.502,0.555-0.715,0.869
			c-0.213,0.316-0.399,0.613-0.561,0.891c-0.015,0.016-0.044,0.055-0.088,0.121c-0.045,0.066-0.074,0.113-0.089,0.143
			c-0.044,0.074-0.146,0.242-0.308,0.506v2.51c-0.073,0.146-0.113,0.271-0.121,0.373c-0.008,0.104-0.011,0.234-0.011,0.396v0.33
			c0.088,0.131,0.23,0.209,0.429,0.23s0.403,0.063,0.616,0.121c0.212,0.059,0.396,0.162,0.55,0.309s0.231,0.41,0.231,0.791
			c0,0.309-0.114,0.539-0.341,0.693c-0.229,0.154-0.488,0.246-0.781,0.275h-0.902h-0.902c-0.029,0-0.103-0.016-0.22-0.045
			s-0.19-0.043-0.22-0.043c-0.25-0.029-0.499-0.049-0.748-0.055c-0.25-0.008-0.473-0.041-0.671-0.1s-0.355-0.162-0.473-0.309
			c-0.118-0.146-0.177-0.381-0.177-0.703C66.065,41.874,66.212,41.562,66.506,41.437z"/>
		<path d="M81.499,42.163c0.007-0.096,0.047-0.217,0.12-0.363v-2.596c0-0.205,0.081-0.371,0.242-0.496
			c0.161-0.123,0.338-0.186,0.528-0.186c0.088,0,0.187,0.01,0.297,0.031c0.11,0.023,0.201,0.07,0.275,0.145
			c0.103,0.117,0.161,0.26,0.176,0.428c0.015,0.17,0.065,0.313,0.154,0.43c0.19,0.264,0.377,0.518,0.561,0.76
			c0.184,0.24,0.385,0.453,0.605,0.637c0.22,0.184,0.465,0.33,0.736,0.439c0.271,0.111,0.583,0.166,0.936,0.166
			c0.308,0,0.619-0.033,0.935-0.1s0.602-0.172,0.858-0.318c0.256-0.146,0.469-0.342,0.638-0.584c0.169-0.24,0.253-0.539,0.253-0.891
			c0-0.248-0.04-0.447-0.121-0.594s-0.245-0.271-0.495-0.373c-0.454-0.146-0.932-0.25-1.43-0.309
			c-0.499-0.059-0.99-0.117-1.474-0.176c-0.484-0.059-0.95-0.139-1.397-0.242s-0.836-0.271-1.166-0.506s-0.594-0.557-0.792-0.969
			c-0.198-0.41-0.297-0.953-0.297-1.627c0-0.777,0.187-1.395,0.561-1.848c0.374-0.455,0.913-0.83,1.617-1.123
			c0.161-0.072,0.334-0.135,0.518-0.188c0.183-0.051,0.37-0.076,0.561-0.076h0.198c0.528,0.074,1.066,0.188,1.617,0.34
			c0.55,0.154,1.045,0.387,1.484,0.693c0.103-0.072,0.188-0.16,0.253-0.264c0.066-0.102,0.133-0.197,0.198-0.285
			c0.066-0.088,0.144-0.162,0.231-0.221s0.205-0.088,0.352-0.088c0.205,0,0.393,0.076,0.562,0.23
			c0.168,0.154,0.245,0.334,0.23,0.539c0,0.088,0.004,0.246,0.011,0.473c0.008,0.229,0.015,0.471,0.022,0.727
			c0.007,0.258,0.019,0.498,0.033,0.727c0.015,0.227,0.021,0.385,0.021,0.473v0.264c0,0.264-0.077,0.531-0.23,0.803
			c-0.154,0.271-0.386,0.408-0.693,0.408c-0.264,0-0.473-0.117-0.627-0.354c-0.154-0.234-0.297-0.502-0.429-0.803
			c-0.132-0.299-0.286-0.59-0.462-0.869c-0.177-0.277-0.426-0.461-0.748-0.549c-0.206-0.059-0.363-0.1-0.474-0.121
			c-0.109-0.021-0.216-0.041-0.318-0.055c-0.104-0.016-0.213-0.023-0.33-0.023c-0.118,0-0.279,0-0.484,0
			c-0.059,0-0.19,0.004-0.396,0.012c-0.206,0.008-0.345,0.012-0.418,0.012c-0.133,0.043-0.265,0.109-0.396,0.197
			s-0.253,0.195-0.363,0.318c-0.109,0.125-0.197,0.262-0.264,0.408s-0.099,0.285-0.099,0.418c0,0.338,0.084,0.594,0.253,0.77
			c0.168,0.176,0.399,0.301,0.692,0.375c0.821-0.029,1.657,0.029,2.509,0.176c0.85,0.146,1.649,0.373,2.397,0.682
			c0.382,0.352,0.708,0.758,0.979,1.221c0.271,0.463,0.406,0.965,0.406,1.508c0,0.557-0.117,1.07-0.352,1.539
			s-0.547,0.877-0.935,1.221c-0.39,0.346-0.829,0.613-1.32,0.803c-0.492,0.191-1.001,0.287-1.529,0.287
			c-0.088,0-0.205-0.004-0.352-0.012c-0.147-0.008-0.228-0.012-0.242-0.012c-0.029,0-0.092-0.01-0.188-0.031
			c-0.095-0.023-0.197-0.049-0.308-0.078s-0.217-0.059-0.319-0.088s-0.176-0.051-0.22-0.066c-0.264-0.072-0.499-0.215-0.704-0.428
			s-0.433-0.385-0.682-0.518c-0.088,0.043-0.15,0.135-0.188,0.275c-0.036,0.139-0.08,0.285-0.132,0.439s-0.14,0.289-0.264,0.406
			c-0.125,0.117-0.319,0.178-0.583,0.178c-0.323,0-0.539-0.129-0.649-0.387c-0.109-0.256-0.165-0.516-0.165-0.779
			C81.487,42.38,81.491,42.259,81.499,42.163z"/>
		<path d="M93.489,35.661c0.198-0.777,0.51-1.467,0.936-2.068c0.425-0.6,0.972-1.08,1.639-1.439s1.463-0.539,2.387-0.539
			c0.704,0,1.313,0.135,1.826,0.406s1.026,0.627,1.54,1.066c0.015,0.016,0.029,0.033,0.044,0.055
			c0.015,0.023,0.029,0.033,0.044,0.033c0.177,0.338,0.355,0.672,0.539,1.002s0.353,0.668,0.506,1.012
			c0.154,0.346,0.279,0.697,0.374,1.057c0.096,0.359,0.144,0.729,0.144,1.111c0,0.043-0.004,0.127-0.011,0.252
			c-0.008,0.125-0.012,0.201-0.012,0.23c-0.029,0.088-0.069,0.246-0.121,0.473c-0.051,0.229-0.109,0.471-0.176,0.727
			c-0.065,0.258-0.128,0.504-0.187,0.738s-0.096,0.395-0.11,0.482c-0.117,0.396-0.319,0.814-0.604,1.254
			c-0.286,0.441-0.62,0.84-1.001,1.199c-0.382,0.359-0.796,0.656-1.243,0.891c-0.448,0.236-0.892,0.354-1.331,0.354
			c-0.221,0-0.389-0.016-0.506-0.045c-0.118-0.029-0.217-0.066-0.298-0.109c-0.08-0.045-0.164-0.092-0.253-0.143
			c-0.088-0.053-0.212-0.1-0.374-0.145c-0.073-0.014-0.212-0.035-0.418-0.064c-0.205-0.029-0.352-0.059-0.439-0.088
			c-0.073-0.029-0.173-0.078-0.297-0.145c-0.125-0.064-0.25-0.131-0.374-0.197c-0.125-0.066-0.242-0.125-0.353-0.176
			c-0.109-0.051-0.172-0.084-0.187-0.1c-0.294-0.189-0.562-0.484-0.803-0.879c-0.242-0.396-0.451-0.822-0.628-1.277
			c-0.176-0.453-0.312-0.908-0.406-1.363c-0.096-0.455-0.144-0.844-0.144-1.166C93.192,37.237,93.292,36.438,93.489,35.661z
			 M95.117,38.565c0.022,0.205,0.056,0.41,0.1,0.615c0.044,0.207,0.099,0.4,0.165,0.584c0.065,0.184,0.143,0.318,0.23,0.406
			l1.034,1.035c0.161,0.043,0.29,0.072,0.385,0.088c0.096,0.014,0.194,0.029,0.298,0.043c0.102,0.016,0.19,0.023,0.264,0.023
			c0.015,0.014,0.117,0.021,0.308,0.021c0.205,0,0.359,0,0.462,0c0.294,0,0.547-0.004,0.76-0.012
			c0.212-0.008,0.45-0.063,0.715-0.164c0.63-0.514,1.048-1.068,1.254-1.662c0.205-0.594,0.308-1.279,0.308-2.057
			c0-0.455-0.048-0.877-0.143-1.266c-0.096-0.387-0.224-0.795-0.385-1.221c-0.074-0.189-0.195-0.348-0.363-0.473
			c-0.169-0.125-0.353-0.234-0.55-0.33c-0.198-0.096-0.404-0.18-0.616-0.252c-0.213-0.074-0.393-0.154-0.539-0.242h-1.386
			c-0.015,0-0.11,0.055-0.286,0.164s-0.309,0.195-0.396,0.254c-0.352,0.248-0.635,0.52-0.847,0.813
			c-0.213,0.295-0.382,0.605-0.506,0.936c-0.125,0.33-0.206,0.68-0.242,1.045c-0.037,0.367-0.055,0.756-0.055,1.166
			C95.085,38.198,95.096,38.36,95.117,38.565z"/>
		<path d="M106.513,41.579c0.228-0.189,0.51-0.285,0.847-0.285c0.206,0,0.407,0.018,0.605,0.055s0.407,0.055,0.627,0.055
			c0.059,0,0.143-0.004,0.253-0.012c0.11-0.006,0.172-0.01,0.188-0.01l0.088-0.088c0-0.059,0.003-0.154,0.011-0.287
			c0.007-0.131,0.015-0.273,0.022-0.428c0.007-0.154,0.018-0.301,0.032-0.441c0.015-0.139,0.022-0.238,0.022-0.297
			c0-0.029,0.011-0.102,0.033-0.219c0.021-0.117,0.04-0.191,0.055-0.221l-0.044-2.156v-0.418l-0.132-2.596l-0.176-0.176
			c-0.074,0-0.198-0.004-0.374-0.012c-0.177-0.006-0.367-0.014-0.572-0.021c-0.206-0.008-0.396-0.018-0.572-0.033
			c-0.176-0.014-0.301-0.021-0.374-0.021c-0.294-0.029-0.539-0.143-0.737-0.342c-0.197-0.197-0.297-0.443-0.297-0.736
			s0.088-0.547,0.265-0.76c0.176-0.211,0.418-0.318,0.726-0.318c0.015,0,0.036,0,0.066,0c0.044,0,0.065,0.008,0.065,0.021
			c0.234,0.029,0.524,0.033,0.869,0.012s0.693-0.025,1.045-0.012c0.353,0.016,0.683,0.063,0.99,0.143
			c0.308,0.082,0.542,0.232,0.704,0.451c0.029,0.031,0.059,0.092,0.088,0.188s0.063,0.195,0.099,0.297
			c0.037,0.104,0.081,0.191,0.132,0.264c0.052,0.074,0.106,0.111,0.165,0.111h0.044c0.455-0.367,0.942-0.705,1.464-1.012
			c0.521-0.309,1.081-0.463,1.683-0.463c0.366,0,0.723,0.063,1.067,0.188c0.344,0.125,0.641,0.297,0.891,0.516
			c0.249,0.221,0.451,0.488,0.604,0.805c0.154,0.314,0.231,0.662,0.231,1.045c0,0.543-0.129,1.004-0.385,1.385
			c-0.257,0.383-0.693,0.572-1.31,0.572c-0.293,0-0.527-0.092-0.704-0.275c-0.176-0.184-0.315-0.406-0.418-0.67
			s-0.172-0.539-0.209-0.826c-0.036-0.285-0.063-0.531-0.076-0.736c-0.016-0.072-0.06-0.109-0.133-0.109s-0.124,0-0.153,0
			c-0.074,0-0.144,0.004-0.209,0.01c-0.066,0.008-0.129,0.041-0.188,0.1c-0.059,0.045-0.153,0.133-0.286,0.264
			c-0.132,0.133-0.271,0.271-0.418,0.418s-0.286,0.287-0.418,0.418c-0.132,0.133-0.22,0.221-0.264,0.264
			c-0.059,0.059-0.143,0.158-0.253,0.297c-0.11,0.141-0.217,0.291-0.319,0.451c-0.103,0.162-0.19,0.32-0.264,0.475
			c-0.073,0.152-0.11,0.268-0.11,0.34v2.486c0.015,0.029,0.033,0.104,0.056,0.221c0.021,0.117,0.032,0.189,0.032,0.219
			c0,0.045,0.008,0.133,0.022,0.264c0.015,0.133,0.025,0.271,0.033,0.418c0.007,0.148,0.014,0.287,0.021,0.418
			c0.008,0.133,0.011,0.229,0.011,0.287c0.059,0.162,0.146,0.256,0.265,0.285c0.117,0.029,0.256,0.045,0.418,0.045
			c0.161,0,0.326-0.016,0.495-0.045c0.168-0.029,0.333-0.043,0.495-0.043c0.337,0,0.645,0.092,0.924,0.275
			c0.278,0.184,0.418,0.449,0.418,0.803c0,0.293-0.066,0.523-0.198,0.693c-0.132,0.168-0.305,0.293-0.517,0.373
			c-0.213,0.08-0.444,0.133-0.693,0.154c-0.25,0.021-0.484,0.033-0.704,0.033c-0.249,0-0.495-0.016-0.737-0.045
			c-0.241-0.029-0.487-0.043-0.736-0.043c-0.118,0-0.217,0.004-0.297,0.01c-0.081,0.008-0.195,0.033-0.342,0.078h-2.508
			c-0.352,0-0.671-0.117-0.957-0.352c-0.286-0.236-0.429-0.537-0.429-0.902C106.172,42.034,106.285,41.771,106.513,41.579z"/>
		<path d="M119.91,36.63c0.081-0.543,0.217-1.061,0.407-1.551c0.19-0.492,0.443-0.947,0.759-1.365s0.715-0.758,1.199-1.021
			c0.044-0.029,0.124-0.074,0.242-0.133c0.117-0.059,0.242-0.121,0.374-0.188s0.253-0.123,0.362-0.176
			c0.11-0.051,0.188-0.084,0.231-0.1c0.161-0.072,0.326-0.105,0.495-0.098c0.168,0.008,0.333,0.01,0.495,0.01
			c0.938,0,1.73,0.225,2.376,0.672c0.645,0.447,1.246,1.023,1.804,1.727c0.059,0.088,0.136,0.254,0.231,0.496
			c0.095,0.24,0.183,0.506,0.264,0.791c0.08,0.287,0.15,0.564,0.209,0.836s0.088,0.473,0.088,0.605c0,0.029-0.004,0.092-0.011,0.188
			c-0.008,0.096-0.011,0.156-0.011,0.186c-0.133,0.221-0.309,0.367-0.528,0.441c-0.22,0.072-0.447,0.131-0.682,0.176
			c-0.162,0-0.451-0.004-0.869-0.012s-0.862-0.012-1.331-0.012c-0.455,0-0.892,0.004-1.31,0.012s-0.707,0.012-0.869,0.012
			c-0.161,0-0.355,0.004-0.583,0.01c-0.228,0.008-0.45,0.016-0.671,0.023c-0.22,0.008-0.491,0.025-0.813,0.055l-0.088,0.066
			c0,0.016-0.004,0.066-0.012,0.156c-0.007,0.088-0.011,0.146-0.011,0.176c0,0.428,0.077,0.834,0.231,1.217
			c0.153,0.385,0.366,0.721,0.638,1.008s0.59,0.516,0.957,0.686c0.366,0.17,0.77,0.256,1.21,0.256c0.044,0,0.143-0.004,0.297-0.012
			s0.253-0.012,0.297-0.012c0.205-0.16,0.44-0.273,0.704-0.34c0.265-0.066,0.491-0.18,0.683-0.342
			c0.146-0.131,0.282-0.293,0.406-0.484c0.125-0.189,0.257-0.373,0.396-0.549c0.139-0.176,0.289-0.322,0.451-0.441
			c0.161-0.117,0.358-0.176,0.594-0.176c0.22,0,0.399,0.066,0.539,0.199c0.139,0.131,0.209,0.301,0.209,0.506
			c0,0.338-0.073,0.641-0.22,0.912c-0.147,0.271-0.309,0.539-0.484,0.803c-0.44,0.639-1.02,1.094-1.738,1.369
			s-1.459,0.414-2.222,0.414c-0.748,0-1.423-0.146-2.024-0.441c-0.602-0.293-1.107-0.688-1.518-1.188
			c-0.411-0.498-0.727-1.074-0.946-1.727s-0.33-1.338-0.33-2.057C119.789,37.7,119.829,37.173,119.91,36.63z M121.857,36.321
			c0,0.045,0.029,0.066,0.088,0.066h5.082c0.029,0,0.069-0.018,0.121-0.055c0.051-0.037,0.092-0.07,0.121-0.1
			c0.015-0.029,0.021-0.08,0.021-0.154c0-0.072,0-0.125,0-0.154c0-0.352-0.088-0.648-0.264-0.891s-0.396-0.432-0.66-0.572
			c-0.264-0.139-0.554-0.242-0.869-0.307c-0.315-0.066-0.612-0.1-0.891-0.1c-0.308,0-0.624,0.041-0.946,0.121
			s-0.616,0.209-0.88,0.385s-0.484,0.4-0.66,0.672s-0.264,0.59-0.264,0.957C121.857,36.22,121.857,36.263,121.857,36.321z"/>
		<path d="M137.302,31.833c0.322,0.059,0.623,0.176,0.901,0.352c0.161,0.119,0.286,0.225,0.374,0.32s0.234,0.143,0.44,0.143
			c0.014,0,0.059-0.008,0.132-0.021l0.176-0.529v-2.045c0-0.191-0.136-0.301-0.407-0.33s-0.568-0.063-0.891-0.1
			c-0.323-0.035-0.62-0.127-0.891-0.275c-0.272-0.146-0.407-0.432-0.407-0.857c0-0.205,0.065-0.369,0.198-0.494
			c0.132-0.125,0.3-0.188,0.506-0.188h2.662c0.117,0,0.234,0.037,0.352,0.109c0.117,0.074,0.224,0.166,0.319,0.275
			c0.095,0.109,0.172,0.23,0.23,0.363c0.059,0.131,0.088,0.256,0.088,0.373v6.799l0.177,0.418v4.994l0.22,0.176
			c0.146,0,0.355-0.012,0.627-0.033s0.539-0.014,0.803,0.021c0.265,0.037,0.495,0.115,0.693,0.232s0.297,0.307,0.297,0.572
			c0,0.293-0.07,0.527-0.209,0.703c-0.14,0.176-0.319,0.309-0.539,0.396s-0.459,0.143-0.715,0.164
			c-0.257,0.021-0.495,0.033-0.715,0.033c-0.499,0-0.928-0.051-1.287-0.154c-0.359-0.102-0.701-0.344-1.023-0.725
			c-0.015,0-0.036-0.004-0.065-0.012c-0.03-0.008-0.052-0.012-0.066-0.012c-0.073,0-0.129,0.012-0.165,0.033
			c-0.037,0.021-0.065,0.049-0.088,0.078s-0.055,0.064-0.099,0.109c-0.044,0.043-0.118,0.096-0.221,0.154
			c-0.337,0.189-0.642,0.352-0.913,0.484c-0.271,0.131-0.59,0.197-0.957,0.197c-0.542,0-1.052-0.096-1.528-0.285
			c-0.477-0.191-0.91-0.445-1.298-0.76c-0.39-0.314-0.734-0.686-1.034-1.111c-0.301-0.426-0.539-0.879-0.715-1.363
			c0-0.016-0.016-0.063-0.044-0.143c-0.03-0.082-0.063-0.17-0.1-0.266c-0.036-0.094-0.065-0.189-0.088-0.285
			c-0.021-0.096-0.033-0.158-0.033-0.188v-2.662c0-0.102,0.037-0.238,0.11-0.406s0.124-0.289,0.154-0.363
			c0.014-0.045,0.047-0.143,0.099-0.297c0.051-0.154,0.103-0.326,0.154-0.518c0.051-0.189,0.103-0.365,0.153-0.527
			c0.052-0.162,0.085-0.264,0.1-0.309c0.015-0.014,0.044-0.066,0.088-0.154l1.804-1.826c0.088-0.088,0.201-0.152,0.341-0.197
			c0.14-0.043,0.29-0.076,0.451-0.1c0.161-0.021,0.319-0.035,0.474-0.043c0.153-0.008,0.297-0.012,0.429-0.012
			C136.663,31.745,136.979,31.774,137.302,31.833z M134.045,38.862c0.103,0.477,0.268,0.914,0.495,1.309
			c0.228,0.396,0.528,0.719,0.902,0.969s0.825,0.373,1.353,0.373c0.426,0,0.796-0.135,1.111-0.406s0.579-0.602,0.792-0.99
			s0.37-0.807,0.473-1.254s0.154-0.848,0.154-1.199c0-0.426-0.055-0.871-0.165-1.342c-0.109-0.469-0.282-0.902-0.517-1.297
			c-0.235-0.396-0.536-0.727-0.902-0.99c-0.366-0.266-0.8-0.396-1.298-0.396c-0.484,0-0.891,0.131-1.221,0.396
			c-0.33,0.264-0.595,0.586-0.792,0.967c-0.198,0.383-0.338,0.801-0.418,1.254c-0.081,0.455-0.121,0.865-0.121,1.232
			C133.892,37.927,133.942,38.386,134.045,38.862z"/>
	</g>
</g>
<g id="Depersonalization">
</g>
<g id="threeman">
</g>
<g id="_x32__truths_and_a_lie">
</g>
<g id="cray_cray_cat_lady">
</g>
<g id="siblings">
</g>
<g id="later">
</g>
<g id="waterfall">
</g>
<g id="cheers">
</g>
<g id="rhyme">
</g>
<g id="categories">
</g>
<g id="tits">
</g>
<g id="dicks">
</g>
<g id="questions">
</g>
<g id="double_hands">
</g>
<g id="take_2">
</g>
<g id="take_3">
</g>
<g id="give_3">
</g>
<g id="give_2">
</g>
<g id="rewind">
</g>
<g id="Cryptkeeper">
</g>
<g id="Take_2_and_Redo">
</g>
<g id="Embryo">
</g>
<g id="I_am_Groot">
</g>
<g id="Mini_Me">
</g>
<g id="Ditto_1_">
</g>
<g id="reverse">
</g>
</svg>
