<?xml version="1.0" encoding="utf-8"?>
<!-- Generator: Adobe Illustrator 16.0.0, SVG Export Plug-In . SVG Version: 6.00 Build 0)  -->
<!DOCTYPE svg PUBLIC "-//W3C//DTD SVG 1.1//EN" "http://www.w3.org/Graphics/SVG/1.1/DTD/svg11.dtd">
<svg version="1.1" xmlns="http://www.w3.org/2000/svg" xmlns:xlink="http://www.w3.org/1999/xlink" x="0px" y="0px"
	 width="209.759px" height="62.361px" viewBox="0 0 209.759 62.361" enable-background="new 0 0 209.759 62.361"
	 xml:space="preserve">
<g id="Layer_1">
</g>
<g id="Blindman">
</g>
<g id="Compliments">
</g>
<g id="HAT">
</g>
<g id="speech">
</g>
<g id="TREX_ARMS">
</g>
<g id="slim_shady">
</g>
<g id="TIMEOUT">
</g>
<g id="Truth_or_Dare">
</g>
<g id="ARM_WRESTLE">
</g>
<g id="musical_chairs">
</g>
<g id="never_have_i_ever">
</g>
<g id="Trivia">
</g>
<g id="Drink_Pulling">
</g>
<g id="Sharing_is_Caring">
</g>
<g id="Not_It">
</g>
<g id="Cocktail_of_Doom">
</g>
<g id="Heads_up">
</g>
<g id="Archenemy">
</g>
<g id="battle_of_the_sexes">
</g>
<g id="one_must_drink">
</g>
<g id="rainbow_connection">
</g>
<g id="social_drinking">
</g>
<g id="Spin_the_bottle">
</g>
<g id="accents">
</g>
<g id="Slap">
</g>
<g id="down_the_hatch">
</g>
<g id="rubiks_cube">
</g>
<g id="bar_tender">
</g>
<g id="codenames">
</g>
<g id="hand_switch">
</g>
<g id="make_a_rule">
</g>
<g id="no_guts_no_glory">
</g>
<g id="pass">
</g>
<g id="santa">
</g>
<g id="snake_eyes">
</g>
<g id="lightning_round">
</g>
<g id="Bro">
</g>
<g id="LeastDrunk">
</g>
<g id="Know_It_All">
</g>
<g id="EyeContact">
</g>
<g id="UnderGuesser">
</g>
<g id="GodSaveTheQUeen">
</g>
<g id="Ghost">
</g>
<g id="Fortune_Teller">
</g>
<g id="DrinkSwap">
</g>
<g id="DickTator">
</g>
<g id="_x34_Eyes">
</g>
<g id="BabyTalk">
</g>
<g id="Backseat_Driver">
</g>
<g id="BAtman">
</g>
<g id="bodyguard">
</g>
<g id="BuckleUp">
</g>
<g id="RockPaperScissors">
</g>
<g id="Roger_Roger">
</g>
<g id="RoyaleWe">
</g>
<g id="Skip">
</g>
<g id="SwineRules">
</g>
<g id="Touchy_Feeley">
	<g>
		<path d="M6.766,41.931c0.014-0.131,0.044-0.26,0.088-0.385c0.044-0.123,0.106-0.23,0.187-0.318
			c0.081-0.088,0.188-0.133,0.319-0.133h2.068l0.264-0.285V29.876l-0.088-0.088c-0.03-0.016-0.088-0.025-0.176-0.033
			c-0.089-0.008-0.147-0.012-0.177-0.012c-0.044,0-0.121,0.004-0.23,0.012c-0.11,0.008-0.18,0.018-0.209,0.033
			c-0.484,0.117-0.833,0.318-1.045,0.604c-0.213,0.287-0.356,0.602-0.43,0.947c-0.073,0.344-0.106,0.699-0.099,1.066
			c0.007,0.367-0.004,0.701-0.033,1.002s-0.117,0.549-0.264,0.748c-0.146,0.197-0.403,0.297-0.771,0.297
			c-0.293,0-0.513-0.141-0.659-0.418c-0.147-0.279-0.221-0.551-0.221-0.814v-4.225c0-0.102,0.025-0.227,0.077-0.373
			s0.121-0.289,0.209-0.43c0.088-0.139,0.188-0.26,0.297-0.363c0.11-0.102,0.231-0.154,0.363-0.154h2.662
			c0.146-0.072,0.26-0.113,0.341-0.121c0.08-0.006,0.188-0.01,0.319-0.01c0.117,0,0.22,0.004,0.308,0.01
			c0.088,0.008,0.198,0.049,0.33,0.121h4.906c0.293,0,0.553,0.125,0.781,0.375c0.227,0.25,0.341,0.514,0.341,0.791v4.379
			c0,0.293-0.088,0.572-0.265,0.836c-0.176,0.264-0.418,0.396-0.726,0.396c-0.25,0-0.484-0.111-0.704-0.33
			c-0.22-0.221-0.33-0.463-0.33-0.727v-2.332c0-0.25-0.063-0.465-0.187-0.648c-0.125-0.184-0.286-0.338-0.484-0.463
			s-0.411-0.217-0.638-0.275c-0.228-0.059-0.444-0.088-0.649-0.088c-0.029,0-0.088,0.004-0.176,0.012s-0.14,0.012-0.154,0.012
			L11.825,29.7c0,0.176-0.011,0.395-0.033,0.66c-0.021,0.264-0.063,0.498-0.121,0.703l0.044,2.156v0.439l0.11,7.063l0.176,0.176
			c0.234,0,0.514,0.008,0.836,0.021c0.323,0.016,0.627,0.063,0.913,0.143c0.286,0.082,0.528,0.211,0.727,0.387
			c0.197,0.176,0.297,0.439,0.297,0.791c0,0.205-0.044,0.379-0.132,0.518s-0.206,0.25-0.353,0.33s-0.312,0.139-0.495,0.176
			s-0.37,0.055-0.561,0.055c-0.279,0-0.547-0.047-0.803-0.143c-0.257-0.096-0.525-0.143-0.804-0.143
			c-0.469,0-0.916,0.072-1.342,0.219s-0.873,0.221-1.342,0.221c-0.162,0-0.363-0.029-0.605-0.088
			c-0.241-0.059-0.483-0.139-0.726-0.242s-0.447-0.23-0.616-0.385s-0.253-0.32-0.253-0.496C6.743,42.173,6.751,42.063,6.766,41.931z
			"/>
		<path d="M19.096,35.661c0.198-0.777,0.51-1.467,0.936-2.068c0.425-0.6,0.972-1.08,1.639-1.439s1.463-0.539,2.387-0.539
			c0.704,0,1.313,0.135,1.826,0.406s1.026,0.627,1.54,1.066c0.015,0.016,0.029,0.033,0.044,0.055
			c0.015,0.023,0.029,0.033,0.044,0.033c0.177,0.338,0.355,0.672,0.539,1.002s0.353,0.668,0.506,1.012
			c0.154,0.346,0.279,0.697,0.374,1.057c0.096,0.359,0.144,0.729,0.144,1.111c0,0.043-0.004,0.127-0.011,0.252
			c-0.008,0.125-0.012,0.201-0.012,0.23c-0.029,0.088-0.069,0.246-0.121,0.473c-0.051,0.229-0.109,0.471-0.176,0.727
			c-0.065,0.258-0.128,0.504-0.187,0.738s-0.096,0.395-0.11,0.482c-0.117,0.396-0.319,0.814-0.604,1.254
			c-0.286,0.441-0.62,0.84-1.001,1.199c-0.382,0.359-0.796,0.656-1.243,0.891c-0.448,0.236-0.892,0.354-1.331,0.354
			c-0.221,0-0.389-0.016-0.506-0.045c-0.118-0.029-0.217-0.066-0.298-0.109c-0.08-0.045-0.164-0.092-0.253-0.143
			c-0.088-0.053-0.212-0.1-0.374-0.145c-0.073-0.014-0.212-0.035-0.418-0.064c-0.205-0.029-0.352-0.059-0.439-0.088
			c-0.073-0.029-0.173-0.078-0.297-0.145c-0.125-0.064-0.25-0.131-0.374-0.197c-0.125-0.066-0.242-0.125-0.353-0.176
			c-0.109-0.051-0.172-0.084-0.187-0.1c-0.294-0.189-0.562-0.484-0.803-0.879c-0.242-0.396-0.451-0.822-0.628-1.277
			c-0.176-0.453-0.312-0.908-0.406-1.363c-0.096-0.455-0.144-0.844-0.144-1.166C18.799,37.237,18.898,36.438,19.096,35.661z
			 M20.724,38.565c0.022,0.205,0.056,0.41,0.1,0.615c0.044,0.207,0.099,0.4,0.165,0.584c0.065,0.184,0.143,0.318,0.23,0.406
			l1.034,1.035c0.161,0.043,0.29,0.072,0.385,0.088c0.096,0.014,0.194,0.029,0.298,0.043c0.102,0.016,0.19,0.023,0.264,0.023
			c0.015,0.014,0.117,0.021,0.308,0.021c0.205,0,0.359,0,0.462,0c0.294,0,0.547-0.004,0.76-0.012
			c0.212-0.008,0.45-0.063,0.715-0.164c0.63-0.514,1.048-1.068,1.254-1.662c0.205-0.594,0.308-1.279,0.308-2.057
			c0-0.455-0.048-0.877-0.143-1.266c-0.096-0.387-0.224-0.795-0.385-1.221c-0.074-0.189-0.195-0.348-0.363-0.473
			c-0.169-0.125-0.353-0.234-0.55-0.33c-0.198-0.096-0.404-0.18-0.616-0.252c-0.213-0.074-0.393-0.154-0.539-0.242h-1.386
			c-0.015,0-0.11,0.055-0.286,0.164s-0.309,0.195-0.396,0.254c-0.352,0.248-0.635,0.52-0.847,0.813
			c-0.213,0.295-0.382,0.605-0.506,0.936c-0.125,0.33-0.206,0.68-0.242,1.045c-0.037,0.367-0.055,0.756-0.055,1.166
			C20.691,38.198,20.702,38.36,20.724,38.565z"/>
		<path d="M33.22,37.091c0.095-0.66,0.143-1.326,0.143-2.002c0-0.043,0-0.109,0-0.197c0-0.104-0.004-0.209-0.011-0.318
			c-0.008-0.111-0.012-0.209-0.012-0.297c0-0.104,0-0.178,0-0.221c-0.161-0.104-0.341-0.172-0.538-0.209
			c-0.198-0.037-0.386-0.08-0.562-0.133c-0.176-0.051-0.322-0.135-0.439-0.252c-0.118-0.117-0.177-0.309-0.177-0.572
			c0-0.25,0.077-0.463,0.231-0.639s0.363-0.264,0.627-0.264h1.804c0.22,0,0.393,0.049,0.518,0.143
			c0.124,0.096,0.22,0.221,0.285,0.373c0.066,0.154,0.11,0.318,0.133,0.494c0.021,0.176,0.032,0.336,0.032,0.482
			c0,0.309-0.019,0.607-0.055,0.9c-0.037,0.293-0.055,0.592-0.055,0.9c0,0.102,0.003,0.26,0.011,0.471
			c0.007,0.213,0.011,0.334,0.011,0.363c0,0.146,0.008,0.406,0.022,0.779s0.029,0.771,0.044,1.195s0.033,0.824,0.055,1.197
			c0.022,0.373,0.033,0.633,0.033,0.779c0.059,0.379,0.18,0.693,0.363,0.943c0.183,0.248,0.487,0.373,0.913,0.373
			c0.176,0,0.374-0.016,0.594-0.045s0.403-0.109,0.55-0.242c0.264-0.234,0.535-0.502,0.814-0.803
			c0.278-0.301,0.527-0.619,0.748-0.957c0.22-0.336,0.402-0.693,0.55-1.066c0.146-0.375,0.22-0.752,0.22-1.133v-3.189
			c0-0.059-0.099-0.1-0.297-0.121c-0.198-0.023-0.418-0.063-0.66-0.121s-0.462-0.158-0.66-0.297
			c-0.198-0.141-0.297-0.35-0.297-0.627c0-0.25,0.077-0.447,0.231-0.596c0.153-0.146,0.37-0.219,0.648-0.219h1.98
			c0.264,0,0.454,0.084,0.571,0.252c0.117,0.17,0.198,0.367,0.242,0.594c0.044,0.229,0.066,0.467,0.066,0.717
			c0,0.248,0.021,0.447,0.065,0.594l-0.044,2.332v0.418l-0.044,4.135l0.177,0.176c0.22,0,0.45,0.008,0.692,0.023
			c0.242,0.014,0.47,0.063,0.683,0.143c0.212,0.082,0.385,0.199,0.517,0.355c0.132,0.154,0.198,0.381,0.198,0.678
			c0,0.266-0.052,0.475-0.154,0.621c-0.103,0.148-0.238,0.256-0.407,0.322s-0.355,0.107-0.561,0.123
			c-0.206,0.016-0.411,0.021-0.616,0.021c-0.117,0-0.305-0.006-0.561-0.021c-0.257-0.016-0.518-0.057-0.781-0.123
			c-0.265-0.066-0.495-0.166-0.693-0.299c-0.198-0.135-0.297-0.313-0.297-0.533v-0.957h-0.088c-0.25,0.268-0.495,0.523-0.737,0.768
			s-0.499,0.467-0.77,0.666c-0.271,0.201-0.565,0.359-0.88,0.479c-0.316,0.117-0.657,0.178-1.023,0.178
			c-0.602,0-1.122-0.141-1.562-0.418c-0.44-0.279-0.804-0.635-1.09-1.068c-0.285-0.432-0.498-0.916-0.638-1.451
			s-0.209-1.066-0.209-1.596C33.076,38.419,33.124,37.751,33.22,37.091z"/>
		<path d="M46.969,35.694c0.198-0.756,0.498-1.438,0.902-2.045c0.402-0.609,0.909-1.107,1.518-1.496s1.323-0.584,2.145-0.584
			c0.073,0,0.169,0,0.286,0c0.132,0,0.205,0.008,0.221,0.021c0.058,0,0.172,0.02,0.341,0.057c0.168,0.035,0.344,0.076,0.527,0.119
			c0.184,0.045,0.355,0.092,0.518,0.145c0.161,0.051,0.271,0.084,0.33,0.098c0.234,0.207,0.48,0.418,0.736,0.639
			c0.257,0.221,0.491,0.459,0.704,0.715c0.213,0.258,0.386,0.535,0.518,0.836s0.198,0.619,0.198,0.957
			c0,0.221-0.033,0.443-0.1,0.672c-0.065,0.227-0.161,0.428-0.286,0.604c-0.125,0.178-0.278,0.32-0.462,0.43
			s-0.399,0.166-0.648,0.166c-0.455,0-0.836-0.162-1.145-0.484c-0.308-0.322-0.462-0.705-0.462-1.145
			c0-0.189,0.029-0.363,0.088-0.518s0.088-0.332,0.088-0.539v-0.352c-0.015-0.014-0.073-0.072-0.176-0.176
			c-0.103-0.102-0.19-0.154-0.264-0.154h-1.452c-0.029,0-0.106,0.02-0.231,0.055c-0.124,0.037-0.224,0.07-0.297,0.1
			c-0.396,0.176-0.723,0.393-0.979,0.648c-0.257,0.258-0.459,0.547-0.605,0.869s-0.249,0.676-0.308,1.057s-0.088,0.777-0.088,1.188
			c0,0.367,0.036,0.773,0.109,1.221s0.213,0.826,0.418,1.133c0.044,0.045,0.117,0.121,0.221,0.232
			c0.103,0.109,0.212,0.223,0.33,0.34c0.117,0.117,0.23,0.229,0.341,0.33c0.109,0.104,0.187,0.176,0.23,0.221
			c0.044,0.043,0.117,0.1,0.221,0.164c0.102,0.066,0.168,0.1,0.197,0.1h1.893c0.234,0,0.439-0.063,0.616-0.188
			c0.176-0.123,0.333-0.277,0.473-0.461c0.139-0.184,0.264-0.385,0.374-0.605c0.109-0.221,0.224-0.422,0.341-0.605
			s0.242-0.336,0.374-0.461s0.286-0.188,0.462-0.188c0.264,0,0.454,0.1,0.572,0.297c0.117,0.197,0.176,0.422,0.176,0.672
			c0,0.512-0.129,0.996-0.385,1.451c-0.257,0.455-0.587,0.855-0.99,1.199s-0.854,0.619-1.353,0.824
			c-0.499,0.207-0.99,0.309-1.475,0.309c-0.719,0-1.386-0.168-2.002-0.506s-1.151-0.773-1.605-1.309
			c-0.455-0.535-0.811-1.141-1.067-1.816c-0.257-0.674-0.385-1.348-0.385-2.023C46.672,37.187,46.771,36.45,46.969,35.694z"/>
		<path d="M58.618,41.854c0.089-0.213,0.279-0.318,0.572-0.318c0.176,0,0.326,0.033,0.451,0.098c0.124,0.066,0.275,0.1,0.451,0.1
			c0.044,0,0.139-0.008,0.286-0.021c0.059-0.029,0.139-0.088,0.241-0.176s0.154-0.146,0.154-0.176v-4.818l0.132-0.418v-2.838
			c-0.015-0.029-0.032-0.104-0.055-0.221c-0.021-0.117-0.033-0.189-0.033-0.221c0-0.088-0.007-0.234-0.021-0.439
			s-0.026-0.43-0.033-0.67c-0.008-0.242-0.015-0.471-0.022-0.684c-0.007-0.211-0.011-0.361-0.011-0.451
			c-0.029-0.057-0.073-0.127-0.132-0.209c-0.059-0.08-0.132-0.119-0.22-0.119h-1.21c-0.088,0-0.165-0.049-0.231-0.145
			c-0.065-0.094-0.129-0.209-0.187-0.34c-0.06-0.133-0.104-0.264-0.133-0.396s-0.044-0.227-0.044-0.285
			c0-0.279,0.073-0.488,0.221-0.629c0.146-0.139,0.322-0.23,0.527-0.273c0.205-0.045,0.426-0.066,0.66-0.066
			c0.249,0,0.47-0.008,0.66-0.021c0.029,0,0.099-0.016,0.209-0.045s0.18-0.043,0.209-0.043h0.132c0.366,0,0.704,0.113,1.013,0.34
			c0.308,0.229,0.462,0.547,0.462,0.957v4.773c0.029,0,0.076,0.008,0.143,0.023c0.066,0.014,0.113,0.021,0.143,0.021
			c0.117-0.029,0.217-0.133,0.298-0.309c0.08-0.176,0.157-0.307,0.23-0.395c0.382-0.441,0.825-0.793,1.331-1.057
			s1.053-0.396,1.639-0.396c0.455,0,0.869,0.08,1.243,0.242s0.686,0.385,0.936,0.672c0.249,0.285,0.443,0.623,0.583,1.012
			c0.139,0.389,0.209,0.811,0.209,1.264v5.941l0.264,0.242c0.19,0.014,0.385,0.035,0.583,0.064s0.374,0.088,0.528,0.176
			c0.153,0.09,0.278,0.207,0.374,0.354c0.095,0.146,0.143,0.338,0.143,0.572c0,0.381-0.146,0.656-0.439,0.824
			c-0.294,0.168-0.616,0.252-0.969,0.252c-0.117,0-0.234-0.014-0.352-0.043c-0.118-0.029-0.235-0.045-0.353-0.045
			c-0.264,0-0.521,0.02-0.77,0.057c-0.25,0.035-0.506,0.055-0.771,0.055c-0.073,0-0.224-0.004-0.45-0.012
			c-0.228-0.008-0.378-0.012-0.451-0.012c-0.132-0.027-0.271-0.057-0.418-0.088c-0.147-0.029-0.283-0.076-0.407-0.143
			c-0.125-0.066-0.224-0.15-0.297-0.252c-0.073-0.104-0.11-0.242-0.11-0.418c0-0.293,0.04-0.496,0.121-0.605
			s0.245-0.268,0.495-0.473c0.103-0.074,0.209-0.125,0.319-0.154c0.109-0.029,0.223-0.051,0.341-0.066
			c0.117-0.014,0.23-0.033,0.341-0.055s0.209-0.07,0.297-0.143c0-0.117,0.008-0.326,0.022-0.627
			c0.014-0.301,0.025-0.623,0.032-0.969c0.008-0.344,0.015-0.668,0.022-0.969c0.007-0.299,0.011-0.508,0.011-0.627v-1.406
			c0-0.25,0.012-0.525,0.033-0.826c0.022-0.301,0.007-0.578-0.044-0.836c-0.052-0.256-0.154-0.473-0.308-0.648
			c-0.154-0.176-0.407-0.264-0.76-0.264c-0.469,0-0.898,0.121-1.286,0.363c-0.39,0.24-0.73,0.545-1.023,0.912
			c-0.294,0.367-0.547,0.766-0.759,1.199c-0.213,0.432-0.378,0.848-0.495,1.242c0,0.016-0.008,0.053-0.022,0.111
			s-0.025,0.121-0.032,0.186c-0.008,0.066-0.016,0.129-0.022,0.188c-0.008,0.059-0.011,0.096-0.011,0.109
			c-0.015,0.031-0.033,0.104-0.056,0.221c-0.021,0.117-0.032,0.191-0.032,0.221v2.156c0,0.205,0.099,0.332,0.297,0.385
			c0.198,0.051,0.414,0.102,0.648,0.154c0.234,0.051,0.451,0.15,0.649,0.297s0.297,0.424,0.297,0.836v0.395
			c-0.205,0.279-0.439,0.451-0.704,0.518c-0.264,0.066-0.558,0.1-0.88,0.1c-0.264,0-0.517-0.02-0.759-0.055
			c-0.242-0.037-0.488-0.057-0.737-0.057c-0.293,0-0.572,0.045-0.836,0.133s-0.543,0.133-0.836,0.133
			c-0.338,0-0.649-0.119-0.935-0.354c-0.286-0.234-0.43-0.527-0.43-0.879C58.486,42.298,58.53,42.067,58.618,41.854z"/>
		<path d="M74.348,44.132c0.309-0.41,0.741-0.617,1.299-0.617c0.454,0,0.792,0.15,1.012,0.451s0.33,0.664,0.33,1.09
			c0,0.16-0.03,0.297-0.088,0.406c-0.06,0.111-0.088,0.238-0.088,0.385c0,0.029,0.003,0.066,0.011,0.111
			c0.007,0.043,0.033,0.066,0.077,0.066h0.594c0.132-0.104,0.238-0.191,0.319-0.266c0.08-0.072,0.164-0.15,0.253-0.23
			c0.088-0.08,0.161-0.143,0.22-0.188c0.132-0.146,0.26-0.318,0.385-0.516c0.125-0.199,0.234-0.408,0.33-0.627
			c0.096-0.221,0.172-0.445,0.231-0.672c0.058-0.227,0.088-0.436,0.088-0.627c0-0.059,0-0.146,0-0.264
			c0-0.133-0.008-0.205-0.022-0.221c0-0.014-0.015-0.068-0.044-0.164s-0.059-0.199-0.088-0.309s-0.066-0.217-0.11-0.318
			c-0.044-0.104-0.073-0.184-0.088-0.242c-0.073-0.191-0.209-0.529-0.407-1.012c-0.197-0.484-0.406-0.994-0.627-1.529
			c-0.22-0.535-0.429-1.045-0.627-1.529c-0.197-0.484-0.333-0.82-0.406-1.012c-0.03-0.279-0.104-0.594-0.221-0.947
			c-0.117-0.352-0.301-0.607-0.55-0.77c-0.044,0-0.129-0.004-0.253-0.01c-0.125-0.008-0.257-0.016-0.396-0.023
			c-0.14-0.006-0.272-0.018-0.396-0.033c-0.125-0.014-0.209-0.021-0.253-0.021c-0.176-0.029-0.338-0.088-0.484-0.176
			s-0.22-0.234-0.22-0.439c0-0.146,0.011-0.309,0.033-0.484c0.021-0.176,0.063-0.342,0.121-0.494
			c0.059-0.154,0.146-0.287,0.264-0.396c0.117-0.111,0.271-0.166,0.462-0.166h3.433c0.132,0,0.274,0.027,0.429,0.078
			s0.297,0.121,0.429,0.209s0.238,0.193,0.319,0.318c0.08,0.125,0.121,0.26,0.121,0.406c0,0.266-0.074,0.463-0.221,0.596
			c-0.146,0.131-0.304,0.234-0.473,0.307c-0.169,0.074-0.326,0.146-0.473,0.221c-0.147,0.074-0.221,0.176-0.221,0.309
			c0,0.205,0.041,0.422,0.121,0.648c0.081,0.227,0.177,0.459,0.286,0.693c0.11,0.234,0.224,0.461,0.341,0.682
			s0.213,0.426,0.286,0.615c0.029,0.074,0.069,0.176,0.121,0.309s0.106,0.271,0.165,0.418s0.11,0.283,0.154,0.406
			c0.044,0.125,0.073,0.209,0.088,0.254c0.015,0.029,0.033,0.104,0.055,0.221c0.022,0.117,0.056,0.234,0.1,0.352
			s0.099,0.223,0.165,0.318c0.065,0.096,0.143,0.143,0.23,0.143s0.173-0.064,0.253-0.197c0.081-0.133,0.154-0.283,0.221-0.451
			c0.065-0.168,0.12-0.334,0.164-0.494c0.045-0.162,0.081-0.271,0.11-0.33c0.044-0.133,0.113-0.359,0.209-0.684
			c0.096-0.322,0.198-0.666,0.309-1.033c0.109-0.367,0.212-0.711,0.308-1.033c0.095-0.322,0.157-0.551,0.187-0.684
			c0.015-0.027,0.022-0.064,0.022-0.109c0-0.059,0-0.096,0-0.109c0-0.146-0.066-0.254-0.198-0.318
			c-0.132-0.066-0.274-0.141-0.429-0.221s-0.294-0.191-0.418-0.33c-0.125-0.139-0.188-0.355-0.188-0.648
			c0-0.25,0.073-0.455,0.221-0.617c0.146-0.16,0.366-0.242,0.659-0.242h2.839c0.205,0.059,0.414,0.092,0.627,0.1
			c0.212,0.008,0.406,0.029,0.583,0.066c0.176,0.037,0.318,0.113,0.429,0.23s0.165,0.316,0.165,0.594
			c0,0.352-0.055,0.617-0.165,0.793s-0.261,0.297-0.451,0.363c-0.19,0.064-0.418,0.098-0.682,0.098c-0.265,0-0.55,0-0.858,0
			c-0.161,0.117-0.297,0.271-0.407,0.463c-0.109,0.189-0.205,0.396-0.285,0.615c-0.081,0.221-0.147,0.439-0.198,0.66
			c-0.052,0.221-0.1,0.418-0.144,0.594c-0.396,1.467-0.843,2.893-1.342,4.279s-1.026,2.797-1.584,4.234
			c0,0.016-0.011,0.045-0.033,0.088c-0.021,0.045-0.04,0.074-0.055,0.09c-0.015,0.014-0.055,0.068-0.121,0.164
			s-0.106,0.15-0.121,0.164c-0.015,0.029-0.04,0.086-0.077,0.166c-0.036,0.08-0.08,0.172-0.132,0.275
			c-0.052,0.102-0.099,0.193-0.143,0.275c-0.044,0.08-0.074,0.127-0.088,0.143c-0.294,0.41-0.693,0.758-1.199,1.045
			c-0.506,0.285-1.009,0.428-1.507,0.428c-0.382,0-0.756-0.064-1.122-0.197c-0.367-0.133-0.693-0.318-0.979-0.561
			s-0.517-0.527-0.692-0.857c-0.177-0.33-0.265-0.693-0.265-1.09C73.886,45.019,74.04,44.542,74.348,44.132z"/>
		<path d="M102.596,41.536c0.264-0.146,0.579-0.221,0.945-0.221c0.265,0,0.524,0.02,0.781,0.055
			c0.257,0.037,0.518,0.055,0.781,0.055c0.073,0,0.165-0.002,0.275-0.01c0.109-0.008,0.172-0.012,0.187-0.012l0.088-0.088v-2.662
			c-0.029-0.131-0.052-0.23-0.065-0.297c-0.016-0.066-0.022-0.158-0.022-0.275c0-0.102,0.007-0.189,0.022-0.264
			c0.014-0.072,0.036-0.168,0.065-0.285v-6.645l-0.176-0.857l-0.088-0.088c-0.015,0-0.096-0.004-0.242-0.012
			s-0.257-0.012-0.33-0.012c-0.264,0-0.51,0.02-0.737,0.055c-0.228,0.037-0.466,0.057-0.715,0.057c-0.337,0-0.604-0.092-0.803-0.275
			s-0.297-0.443-0.297-0.781s0.113-0.648,0.341-0.936c0.228-0.285,0.524-0.428,0.891-0.428c0.338,0,0.672,0.002,1.001,0.01
			c0.33,0.008,0.656,0.063,0.979,0.166l2.508-0.045h0.418l5.258-0.043c0.278,0,0.535,0.117,0.771,0.352
			c0.234,0.234,0.352,0.492,0.352,0.77v4.73c0,0.131-0.025,0.275-0.077,0.428c-0.051,0.154-0.12,0.305-0.209,0.451
			c-0.088,0.148-0.194,0.27-0.318,0.363c-0.125,0.096-0.253,0.143-0.385,0.143c-0.162,0-0.346-0.076-0.551-0.23
			s-0.308-0.305-0.308-0.451v-3.189c0-0.029-0.041-0.109-0.121-0.242c-0.081-0.131-0.143-0.227-0.187-0.285
			c-0.294-0.367-0.613-0.588-0.957-0.66c-0.345-0.074-0.745-0.111-1.199-0.111c-0.499,0-0.983,0.027-1.452,0.078
			c-0.47,0.051-0.961,0.084-1.474,0.1l-0.089,0.088c0,0.014-0.003,0.105-0.011,0.273c-0.008,0.17-0.011,0.291-0.011,0.363
			c0,0.338,0.019,0.656,0.055,0.957c0.037,0.301,0.056,0.613,0.056,0.936c0,0.205-0.016,0.396-0.044,0.572
			c-0.03,0.176-0.045,0.367-0.045,0.572c0,0.059,0.004,0.143,0.012,0.252c0.007,0.111,0.021,0.217,0.044,0.32
			c0.021,0.102,0.051,0.193,0.088,0.273c0.036,0.082,0.077,0.121,0.121,0.121h1.122c0.088,0,0.172-0.033,0.253-0.098
			c0.08-0.066,0.157-0.15,0.23-0.254c0.073-0.102,0.133-0.209,0.177-0.318c0.044-0.111,0.08-0.201,0.109-0.275
			c0-0.146,0-0.338,0-0.572s0.022-0.461,0.066-0.682s0.124-0.41,0.242-0.572c0.117-0.162,0.3-0.242,0.55-0.242
			c0.205,0,0.407,0.074,0.604,0.221c0.198,0.146,0.297,0.33,0.297,0.549v5.105c0.103,0.16,0.154,0.344,0.154,0.549s0,0.396,0,0.572
			c0,0.162-0.004,0.342-0.011,0.539c-0.008,0.197-0.041,0.385-0.099,0.561c-0.06,0.176-0.151,0.324-0.275,0.441
			c-0.125,0.117-0.305,0.176-0.539,0.176c-0.264,0-0.473-0.096-0.627-0.287c-0.154-0.189-0.246-0.41-0.275-0.66
			c0-0.059-0.007-0.176-0.021-0.352s-0.026-0.359-0.033-0.549c-0.008-0.191-0.015-0.371-0.022-0.539
			c-0.007-0.17-0.011-0.291-0.011-0.363c-0.132-0.383-0.308-0.639-0.527-0.771c-0.221-0.131-0.521-0.197-0.902-0.197h-0.462
			c-0.146,0.104-0.235,0.25-0.265,0.439v0.99c0,0.529,0.026,1.039,0.077,1.529c0.052,0.492,0.085,1.002,0.1,1.529
			c0.073,0.133,0.179,0.209,0.318,0.23s0.275,0.033,0.407,0.033c0.19,0,0.378-0.014,0.562-0.043c0.183-0.029,0.37-0.045,0.561-0.045
			c0.146,0,0.315,0.02,0.506,0.055c0.19,0.037,0.366,0.096,0.528,0.176c0.161,0.082,0.297,0.188,0.407,0.32
			c0.109,0.131,0.165,0.293,0.165,0.482c0,0.514-0.235,0.83-0.704,0.947c-0.059,0-0.165,0.004-0.319,0.01
			c-0.154,0.008-0.319,0.016-0.495,0.023s-0.341,0.018-0.495,0.033c-0.153,0.014-0.261,0.021-0.318,0.021
			c-0.03,0-0.104,0.01-0.221,0.033c-0.117,0.021-0.19,0.041-0.22,0.055h-5.346c-0.118,0-0.224-0.041-0.319-0.121
			s-0.176-0.176-0.242-0.285c-0.065-0.111-0.117-0.229-0.153-0.354c-0.037-0.123-0.056-0.238-0.056-0.34
			C102.199,41.962,102.331,41.683,102.596,41.536z"/>
		<path d="M117.478,36.63c0.081-0.543,0.217-1.061,0.407-1.551c0.19-0.492,0.443-0.947,0.759-1.365s0.715-0.758,1.199-1.021
			c0.044-0.029,0.124-0.074,0.242-0.133c0.117-0.059,0.242-0.121,0.374-0.188s0.253-0.123,0.362-0.176
			c0.11-0.051,0.188-0.084,0.231-0.1c0.161-0.072,0.326-0.105,0.495-0.098c0.168,0.008,0.333,0.01,0.495,0.01
			c0.938,0,1.73,0.225,2.376,0.672c0.645,0.447,1.246,1.023,1.804,1.727c0.059,0.088,0.136,0.254,0.231,0.496
			c0.095,0.24,0.183,0.506,0.264,0.791c0.08,0.287,0.15,0.564,0.209,0.836s0.088,0.473,0.088,0.605c0,0.029-0.004,0.092-0.011,0.188
			c-0.008,0.096-0.011,0.156-0.011,0.186c-0.133,0.221-0.309,0.367-0.528,0.441c-0.22,0.072-0.447,0.131-0.682,0.176
			c-0.162,0-0.451-0.004-0.869-0.012s-0.862-0.012-1.331-0.012c-0.455,0-0.892,0.004-1.31,0.012s-0.707,0.012-0.869,0.012
			c-0.161,0-0.355,0.004-0.583,0.01c-0.228,0.008-0.45,0.016-0.671,0.023c-0.22,0.008-0.491,0.025-0.813,0.055l-0.088,0.066
			c0,0.016-0.004,0.066-0.012,0.156c-0.007,0.088-0.011,0.146-0.011,0.176c0,0.428,0.077,0.834,0.231,1.217
			c0.153,0.385,0.366,0.721,0.638,1.008s0.59,0.516,0.957,0.686c0.366,0.17,0.77,0.256,1.21,0.256c0.044,0,0.143-0.004,0.297-0.012
			s0.253-0.012,0.297-0.012c0.205-0.16,0.44-0.273,0.704-0.34c0.265-0.066,0.491-0.18,0.683-0.342
			c0.146-0.131,0.282-0.293,0.406-0.484c0.125-0.189,0.257-0.373,0.396-0.549c0.139-0.176,0.289-0.322,0.451-0.441
			c0.161-0.117,0.358-0.176,0.594-0.176c0.22,0,0.399,0.066,0.539,0.199c0.139,0.131,0.209,0.301,0.209,0.506
			c0,0.338-0.073,0.641-0.22,0.912c-0.147,0.271-0.309,0.539-0.484,0.803c-0.44,0.639-1.02,1.094-1.738,1.369
			s-1.459,0.414-2.222,0.414c-0.748,0-1.423-0.146-2.024-0.441c-0.602-0.293-1.107-0.688-1.518-1.188
			c-0.411-0.498-0.727-1.074-0.946-1.727s-0.33-1.338-0.33-2.057C117.356,37.7,117.396,37.173,117.478,36.63z M119.425,36.321
			c0,0.045,0.029,0.066,0.088,0.066h5.082c0.029,0,0.069-0.018,0.121-0.055c0.051-0.037,0.092-0.07,0.121-0.1
			c0.015-0.029,0.021-0.08,0.021-0.154c0-0.072,0-0.125,0-0.154c0-0.352-0.088-0.648-0.264-0.891s-0.396-0.432-0.66-0.572
			c-0.264-0.139-0.554-0.242-0.869-0.307c-0.315-0.066-0.612-0.1-0.891-0.1c-0.308,0-0.624,0.041-0.946,0.121
			s-0.616,0.209-0.88,0.385s-0.484,0.4-0.66,0.672s-0.264,0.59-0.264,0.957C119.425,36.22,119.425,36.263,119.425,36.321z"/>
		<path d="M129.688,36.63c0.081-0.543,0.217-1.061,0.407-1.551c0.19-0.492,0.443-0.947,0.759-1.365s0.715-0.758,1.199-1.021
			c0.044-0.029,0.124-0.074,0.242-0.133c0.117-0.059,0.242-0.121,0.374-0.188s0.253-0.123,0.362-0.176
			c0.11-0.051,0.188-0.084,0.231-0.1c0.161-0.072,0.326-0.105,0.495-0.098c0.168,0.008,0.333,0.01,0.495,0.01
			c0.938,0,1.73,0.225,2.376,0.672c0.645,0.447,1.246,1.023,1.804,1.727c0.059,0.088,0.136,0.254,0.231,0.496
			c0.095,0.24,0.183,0.506,0.264,0.791c0.08,0.287,0.15,0.564,0.209,0.836s0.088,0.473,0.088,0.605c0,0.029-0.004,0.092-0.011,0.188
			c-0.008,0.096-0.011,0.156-0.011,0.186c-0.133,0.221-0.309,0.367-0.528,0.441c-0.22,0.072-0.447,0.131-0.682,0.176
			c-0.162,0-0.451-0.004-0.869-0.012s-0.862-0.012-1.331-0.012c-0.455,0-0.892,0.004-1.31,0.012s-0.707,0.012-0.869,0.012
			c-0.161,0-0.355,0.004-0.583,0.01c-0.228,0.008-0.45,0.016-0.671,0.023c-0.22,0.008-0.491,0.025-0.813,0.055l-0.088,0.066
			c0,0.016-0.004,0.066-0.012,0.156c-0.007,0.088-0.011,0.146-0.011,0.176c0,0.428,0.077,0.834,0.231,1.217
			c0.153,0.385,0.366,0.721,0.638,1.008s0.59,0.516,0.957,0.686c0.366,0.17,0.77,0.256,1.21,0.256c0.044,0,0.143-0.004,0.297-0.012
			s0.253-0.012,0.297-0.012c0.205-0.16,0.44-0.273,0.704-0.34c0.265-0.066,0.491-0.18,0.683-0.342
			c0.146-0.131,0.282-0.293,0.406-0.484c0.125-0.189,0.257-0.373,0.396-0.549c0.139-0.176,0.289-0.322,0.451-0.441
			c0.161-0.117,0.358-0.176,0.594-0.176c0.22,0,0.399,0.066,0.539,0.199c0.139,0.131,0.209,0.301,0.209,0.506
			c0,0.338-0.073,0.641-0.22,0.912c-0.147,0.271-0.309,0.539-0.484,0.803c-0.44,0.639-1.02,1.094-1.738,1.369
			s-1.459,0.414-2.222,0.414c-0.748,0-1.423-0.146-2.024-0.441c-0.602-0.293-1.107-0.688-1.518-1.188
			c-0.411-0.498-0.727-1.074-0.946-1.727s-0.33-1.338-0.33-2.057C129.566,37.7,129.606,37.173,129.688,36.63z M131.635,36.321
			c0,0.045,0.029,0.066,0.088,0.066h5.082c0.029,0,0.069-0.018,0.121-0.055c0.051-0.037,0.092-0.07,0.121-0.1
			c0.015-0.029,0.021-0.08,0.021-0.154c0-0.072,0-0.125,0-0.154c0-0.352-0.088-0.648-0.264-0.891s-0.396-0.432-0.66-0.572
			c-0.264-0.139-0.554-0.242-0.869-0.307c-0.315-0.066-0.612-0.1-0.891-0.1c-0.308,0-0.624,0.041-0.946,0.121
			s-0.616,0.209-0.88,0.385s-0.484,0.4-0.66,0.672s-0.264,0.59-0.264,0.957C131.635,36.22,131.635,36.263,131.635,36.321z"/>
		<path d="M141.8,42.159c0.029-0.156,0.08-0.303,0.154-0.438c0.072-0.135,0.164-0.25,0.274-0.348s0.245-0.146,0.407-0.146h3.366
			l0.109-0.131v-6.602l0.132-0.416v-3.684c0-0.088-0.088-0.18-0.264-0.273c-0.176-0.096-0.286-0.15-0.33-0.166
			c-0.044,0.016-0.121,0.037-0.23,0.066c-0.11,0.029-0.231,0.059-0.363,0.088s-0.257,0.055-0.374,0.076
			c-0.117,0.023-0.198,0.033-0.242,0.033h-0.352c-0.25,0-0.444-0.025-0.583-0.076c-0.14-0.051-0.313-0.113-0.518-0.188
			c-0.146-0.043-0.278-0.08-0.396-0.109c-0.118-0.029-0.217-0.072-0.297-0.131c-0.081-0.059-0.144-0.135-0.188-0.23
			c-0.044-0.094-0.065-0.236-0.065-0.428c0-0.408,0.157-0.689,0.473-0.844s0.656-0.23,1.023-0.23c0.264,0,0.523,0.029,0.78,0.088
			s0.518,0.088,0.781,0.088c0.205,0,0.403-0.016,0.594-0.045s0.389-0.043,0.595-0.043c0.19,0,0.396,0.021,0.615,0.066
			c0.221,0.043,0.426,0.113,0.616,0.207c0.19,0.096,0.349,0.227,0.473,0.395c0.125,0.168,0.188,0.377,0.188,0.625V41.03l0.22,0.197
			h2.926c0.146,0,0.275,0.041,0.386,0.123c0.109,0.082,0.201,0.184,0.274,0.303c0.073,0.121,0.129,0.252,0.165,0.393
			c0.037,0.143,0.056,0.273,0.056,0.393c0,0.27-0.07,0.51-0.209,0.719c-0.14,0.209-0.363,0.314-0.672,0.314h-8.514
			c-0.249,0-0.487-0.086-0.715-0.258s-0.341-0.385-0.341-0.641C141.756,42.454,141.771,42.315,141.8,42.159z"/>
		<path d="M154.878,36.63c0.081-0.543,0.217-1.061,0.407-1.551c0.19-0.492,0.443-0.947,0.759-1.365s0.715-0.758,1.199-1.021
			c0.044-0.029,0.124-0.074,0.242-0.133c0.117-0.059,0.242-0.121,0.374-0.188s0.253-0.123,0.362-0.176
			c0.11-0.051,0.188-0.084,0.231-0.1c0.161-0.072,0.326-0.105,0.495-0.098c0.168,0.008,0.333,0.01,0.495,0.01
			c0.938,0,1.73,0.225,2.376,0.672c0.645,0.447,1.246,1.023,1.804,1.727c0.059,0.088,0.136,0.254,0.231,0.496
			c0.095,0.24,0.183,0.506,0.264,0.791c0.08,0.287,0.15,0.564,0.209,0.836s0.088,0.473,0.088,0.605c0,0.029-0.004,0.092-0.011,0.188
			c-0.008,0.096-0.011,0.156-0.011,0.186c-0.133,0.221-0.309,0.367-0.528,0.441c-0.22,0.072-0.447,0.131-0.682,0.176
			c-0.162,0-0.451-0.004-0.869-0.012s-0.862-0.012-1.331-0.012c-0.455,0-0.892,0.004-1.31,0.012s-0.707,0.012-0.869,0.012
			c-0.161,0-0.355,0.004-0.583,0.01c-0.228,0.008-0.45,0.016-0.671,0.023c-0.22,0.008-0.491,0.025-0.813,0.055l-0.088,0.066
			c0,0.016-0.004,0.066-0.012,0.156c-0.007,0.088-0.011,0.146-0.011,0.176c0,0.428,0.077,0.834,0.231,1.217
			c0.153,0.385,0.366,0.721,0.638,1.008s0.59,0.516,0.957,0.686c0.366,0.17,0.77,0.256,1.21,0.256c0.044,0,0.143-0.004,0.297-0.012
			s0.253-0.012,0.297-0.012c0.205-0.16,0.44-0.273,0.704-0.34c0.265-0.066,0.491-0.18,0.683-0.342
			c0.146-0.131,0.282-0.293,0.406-0.484c0.125-0.189,0.257-0.373,0.396-0.549c0.139-0.176,0.289-0.322,0.451-0.441
			c0.161-0.117,0.358-0.176,0.594-0.176c0.22,0,0.399,0.066,0.539,0.199c0.139,0.131,0.209,0.301,0.209,0.506
			c0,0.338-0.073,0.641-0.22,0.912c-0.147,0.271-0.309,0.539-0.484,0.803c-0.44,0.639-1.02,1.094-1.738,1.369
			s-1.459,0.414-2.222,0.414c-0.748,0-1.423-0.146-2.024-0.441c-0.602-0.293-1.107-0.688-1.518-1.188
			c-0.411-0.498-0.727-1.074-0.946-1.727s-0.33-1.338-0.33-2.057C154.757,37.7,154.797,37.173,154.878,36.63z M156.825,36.321
			c0,0.045,0.029,0.066,0.088,0.066h5.082c0.029,0,0.069-0.018,0.121-0.055c0.051-0.037,0.092-0.07,0.121-0.1
			c0.015-0.029,0.021-0.08,0.021-0.154c0-0.072,0-0.125,0-0.154c0-0.352-0.088-0.648-0.264-0.891s-0.396-0.432-0.66-0.572
			c-0.264-0.139-0.554-0.242-0.869-0.307c-0.315-0.066-0.612-0.1-0.891-0.1c-0.308,0-0.624,0.041-0.946,0.121
			s-0.616,0.209-0.88,0.385s-0.484,0.4-0.66,0.672s-0.264,0.59-0.264,0.957C156.825,36.22,156.825,36.263,156.825,36.321z"/>
		<path d="M167.429,44.132c0.309-0.41,0.741-0.617,1.299-0.617c0.454,0,0.792,0.15,1.012,0.451s0.33,0.664,0.33,1.09
			c0,0.16-0.03,0.297-0.088,0.406c-0.06,0.111-0.088,0.238-0.088,0.385c0,0.029,0.003,0.066,0.011,0.111
			c0.007,0.043,0.033,0.066,0.077,0.066h0.594c0.132-0.104,0.238-0.191,0.319-0.266c0.08-0.072,0.164-0.15,0.253-0.23
			c0.088-0.08,0.161-0.143,0.22-0.188c0.132-0.146,0.26-0.318,0.385-0.516c0.125-0.199,0.234-0.408,0.33-0.627
			c0.096-0.221,0.172-0.445,0.231-0.672c0.058-0.227,0.088-0.436,0.088-0.627c0-0.059,0-0.146,0-0.264
			c0-0.133-0.008-0.205-0.022-0.221c0-0.014-0.015-0.068-0.044-0.164s-0.059-0.199-0.088-0.309s-0.066-0.217-0.11-0.318
			c-0.044-0.104-0.073-0.184-0.088-0.242c-0.073-0.191-0.209-0.529-0.407-1.012c-0.197-0.484-0.406-0.994-0.627-1.529
			c-0.22-0.535-0.429-1.045-0.627-1.529c-0.197-0.484-0.333-0.82-0.406-1.012c-0.03-0.279-0.104-0.594-0.221-0.947
			c-0.117-0.352-0.301-0.607-0.55-0.77c-0.044,0-0.129-0.004-0.253-0.01c-0.125-0.008-0.257-0.016-0.396-0.023
			c-0.14-0.006-0.272-0.018-0.396-0.033c-0.125-0.014-0.209-0.021-0.253-0.021c-0.176-0.029-0.338-0.088-0.484-0.176
			s-0.22-0.234-0.22-0.439c0-0.146,0.011-0.309,0.033-0.484c0.021-0.176,0.063-0.342,0.121-0.494
			c0.059-0.154,0.146-0.287,0.264-0.396c0.117-0.111,0.271-0.166,0.462-0.166h3.433c0.132,0,0.274,0.027,0.429,0.078
			s0.297,0.121,0.429,0.209s0.238,0.193,0.319,0.318c0.08,0.125,0.121,0.26,0.121,0.406c0,0.266-0.074,0.463-0.221,0.596
			c-0.146,0.131-0.304,0.234-0.473,0.307c-0.169,0.074-0.326,0.146-0.473,0.221c-0.147,0.074-0.221,0.176-0.221,0.309
			c0,0.205,0.041,0.422,0.121,0.648c0.081,0.227,0.177,0.459,0.286,0.693c0.11,0.234,0.224,0.461,0.341,0.682
			s0.213,0.426,0.286,0.615c0.029,0.074,0.069,0.176,0.121,0.309s0.106,0.271,0.165,0.418s0.11,0.283,0.154,0.406
			c0.044,0.125,0.073,0.209,0.088,0.254c0.015,0.029,0.033,0.104,0.055,0.221c0.022,0.117,0.056,0.234,0.1,0.352
			s0.099,0.223,0.165,0.318c0.065,0.096,0.143,0.143,0.23,0.143s0.173-0.064,0.253-0.197c0.081-0.133,0.154-0.283,0.221-0.451
			c0.065-0.168,0.12-0.334,0.164-0.494c0.045-0.162,0.081-0.271,0.11-0.33c0.044-0.133,0.113-0.359,0.209-0.684
			c0.096-0.322,0.198-0.666,0.309-1.033c0.109-0.367,0.212-0.711,0.308-1.033c0.095-0.322,0.157-0.551,0.187-0.684
			c0.015-0.027,0.022-0.064,0.022-0.109c0-0.059,0-0.096,0-0.109c0-0.146-0.066-0.254-0.198-0.318
			c-0.132-0.066-0.274-0.141-0.429-0.221s-0.294-0.191-0.418-0.33c-0.125-0.139-0.188-0.355-0.188-0.648
			c0-0.25,0.073-0.455,0.221-0.617c0.146-0.16,0.366-0.242,0.659-0.242h2.839c0.205,0.059,0.414,0.092,0.627,0.1
			c0.212,0.008,0.406,0.029,0.583,0.066c0.176,0.037,0.318,0.113,0.429,0.23s0.165,0.316,0.165,0.594
			c0,0.352-0.055,0.617-0.165,0.793s-0.261,0.297-0.451,0.363c-0.19,0.064-0.418,0.098-0.682,0.098c-0.265,0-0.55,0-0.858,0
			c-0.161,0.117-0.297,0.271-0.407,0.463c-0.109,0.189-0.205,0.396-0.285,0.615c-0.081,0.221-0.147,0.439-0.198,0.66
			c-0.052,0.221-0.1,0.418-0.144,0.594c-0.396,1.467-0.843,2.893-1.342,4.279s-1.026,2.797-1.584,4.234
			c0,0.016-0.011,0.045-0.033,0.088c-0.021,0.045-0.04,0.074-0.055,0.09c-0.015,0.014-0.055,0.068-0.121,0.164
			s-0.106,0.15-0.121,0.164c-0.015,0.029-0.04,0.086-0.077,0.166c-0.036,0.08-0.08,0.172-0.132,0.275
			c-0.052,0.102-0.099,0.193-0.143,0.275c-0.044,0.08-0.074,0.127-0.088,0.143c-0.294,0.41-0.693,0.758-1.199,1.045
			c-0.506,0.285-1.009,0.428-1.507,0.428c-0.382,0-0.756-0.064-1.122-0.197c-0.367-0.133-0.693-0.318-0.979-0.561
			s-0.517-0.527-0.692-0.857c-0.177-0.33-0.265-0.693-0.265-1.09C166.967,45.019,167.121,44.542,167.429,44.132z"/>
	</g>
</g>
<g id="Wasted_Education">
</g>
<g id="Layer_86">
</g>
<g id="PointOfNoReturn">
</g>
<g id="Pirate">
</g>
<g id="Thief">
</g>
<g id="DepthPerception">
</g>
<g id="Narcissist">
</g>
<g id="MammaBird">
</g>
<g id="Staringcontest">
</g>
<g id="Cartwheel">
</g>
<g id="Censored">
</g>
<g id="Depersonalization">
</g>
<g id="threeman">
</g>
<g id="_x32__truths_and_a_lie">
</g>
<g id="cray_cray_cat_lady">
</g>
<g id="siblings">
</g>
<g id="later">
</g>
<g id="waterfall">
</g>
<g id="cheers">
</g>
<g id="rhyme">
</g>
<g id="categories">
</g>
<g id="tits">
</g>
<g id="dicks">
</g>
<g id="questions">
</g>
<g id="double_hands">
</g>
<g id="take_2">
</g>
<g id="take_3">
</g>
<g id="give_3">
</g>
<g id="give_2">
</g>
<g id="rewind">
</g>
<g id="Cryptkeeper">
</g>
<g id="Take_2_and_Redo">
</g>
<g id="Embryo">
</g>
<g id="I_am_Groot">
</g>
<g id="Mini_Me">
</g>
<g id="Ditto_1_">
</g>
<g id="reverse">
</g>
</svg>
