<?xml version="1.0" encoding="utf-8"?>
<!-- Generator: Adobe Illustrator 16.0.0, SVG Export Plug-In . SVG Version: 6.00 Build 0)  -->
<!DOCTYPE svg PUBLIC "-//W3C//DTD SVG 1.1//EN" "http://www.w3.org/Graphics/SVG/1.1/DTD/svg11.dtd">
<svg version="1.1" xmlns="http://www.w3.org/2000/svg" xmlns:xlink="http://www.w3.org/1999/xlink" x="0px" y="0px"
	 width="209.759px" height="62.361px" viewBox="0 0 209.759 62.361" enable-background="new 0 0 209.759 62.361"
	 xml:space="preserve">
<g id="Layer_1">
</g>
<g id="Blindman">
</g>
<g id="Compliments">
</g>
<g id="HAT">
</g>
<g id="speech">
</g>
<g id="TREX_ARMS">
</g>
<g id="slim_shady">
</g>
<g id="TIMEOUT">
</g>
<g id="Truth_or_Dare">
</g>
<g id="ARM_WRESTLE">
</g>
<g id="musical_chairs">
</g>
<g id="never_have_i_ever">
</g>
<g id="Trivia">
</g>
<g id="Drink_Pulling">
</g>
<g id="Sharing_is_Caring">
</g>
<g id="Not_It">
</g>
<g id="Cocktail_of_Doom">
</g>
<g id="Heads_up">
</g>
<g id="Archenemy">
</g>
<g id="battle_of_the_sexes">
</g>
<g id="one_must_drink">
</g>
<g id="rainbow_connection">
</g>
<g id="social_drinking">
</g>
<g id="Spin_the_bottle">
</g>
<g id="accents">
</g>
<g id="Slap">
</g>
<g id="down_the_hatch">
</g>
<g id="rubiks_cube">
</g>
<g id="bar_tender">
</g>
<g id="codenames">
</g>
<g id="hand_switch">
</g>
<g id="make_a_rule">
</g>
<g id="no_guts_no_glory">
</g>
<g id="pass">
</g>
<g id="santa">
</g>
<g id="snake_eyes">
</g>
<g id="lightning_round">
</g>
<g id="Bro">
</g>
<g id="LeastDrunk">
</g>
<g id="Know_It_All">
	<g id="Layer_94">
	</g>
</g>
<g id="EyeContact">
</g>
<g id="UnderGuesser">
</g>
<g id="GodSaveTheQUeen">
</g>
<g id="Ghost">
</g>
<g id="Fortune_Teller">
</g>
<g id="DrinkSwap">
</g>
<g id="DickTator">
</g>
<g id="_x34_Eyes">
</g>
<g id="BabyTalk">
</g>
<g id="Backseat_Driver">
</g>
<g id="BAtman">
</g>
<g id="bodyguard">
</g>
<g id="BuckleUp">
</g>
<g id="RockPaperScissors">
</g>
<g id="Roger_Roger">
</g>
<g id="RoyaleWe">
</g>
<g id="Skip">
</g>
<g id="SwineRules">
</g>
<g id="Touchy_Feeley">
</g>
<g id="Wasted_Education">
</g>
<g id="Layer_86">
</g>
<g id="PointOfNoReturn">
</g>
<g id="Pirate">
	<g>
		<path d="M53.922,41.921c0.015-0.139,0.047-0.271,0.099-0.396s0.121-0.23,0.209-0.318s0.205-0.133,0.353-0.133h2.244l0.176-0.197
			v-6.205c0.015-0.629,0.047-1.23,0.099-1.803s0.077-1.166,0.077-1.783V30.36c-0.029-0.074-0.07-0.162-0.121-0.266
			c-0.052-0.102-0.129-0.16-0.23-0.176h-0.507c-0.205,0-0.399,0.016-0.583,0.045s-0.377,0.043-0.583,0.043
			c-0.366,0-0.642-0.109-0.824-0.33c-0.184-0.219-0.275-0.498-0.275-0.836c0-0.102,0.015-0.223,0.044-0.363
			c0.029-0.139,0.077-0.264,0.143-0.373c0.066-0.109,0.146-0.205,0.242-0.285c0.096-0.082,0.217-0.121,0.363-0.121
			c0.044,0,0.11-0.004,0.198-0.012s0.183-0.012,0.286-0.012c0.102,0,0.197,0,0.285,0c0.089,0,0.146,0,0.177,0
			c0.293,0,0.564,0.02,0.813,0.057c0.249,0.035,0.514,0.055,0.792,0.055c0.117,0,0.217-0.008,0.297-0.023
			c0.081-0.014,0.194-0.035,0.342-0.064h3.695c0.015,0,0.073,0.01,0.176,0.033c0.103,0.021,0.217,0.043,0.342,0.064
			c0.124,0.023,0.253,0.049,0.385,0.078s0.234,0.051,0.308,0.066c0.322,0.072,0.631,0.184,0.924,0.328
			c0.294,0.148,0.564,0.324,0.814,0.529c0.132,0.117,0.282,0.305,0.451,0.561c0.168,0.258,0.326,0.539,0.473,0.848
			c0.146,0.307,0.271,0.604,0.374,0.891c0.103,0.285,0.154,0.502,0.154,0.648v1.805c0,0.367-0.125,0.773-0.374,1.221
			c-0.25,0.447-0.558,0.869-0.924,1.266c-0.367,0.395-0.767,0.725-1.199,0.99c-0.433,0.264-0.833,0.395-1.199,0.395h-3.189
			l-0.089,0.088c-0.029,0.176-0.055,0.363-0.076,0.563c-0.022,0.197-0.056,0.385-0.1,0.561v2.156l0.088,0.176
			c0.015,0.014,0.044,0.051,0.088,0.109h2.244c0.146,0,0.271,0.045,0.374,0.133s0.19,0.189,0.265,0.307
			c0.073,0.119,0.128,0.25,0.165,0.396c0.036,0.146,0.055,0.271,0.055,0.375v0.395c-0.146,0.207-0.341,0.375-0.583,0.506
			c-0.242,0.133-0.488,0.199-0.737,0.199c-0.234,0-0.439-0.016-0.616-0.045c-0.176-0.029-0.396-0.08-0.659-0.154h-2.662
			c-0.25,0.133-0.518,0.24-0.804,0.32c-0.285,0.08-0.575,0.121-0.868,0.121c-0.396,0-0.734-0.121-1.013-0.363
			s-0.418-0.568-0.418-0.979C53.899,42.181,53.907,42.06,53.922,41.921z M59.246,35.353c0.029,0,0.143,0.004,0.341,0.012
			s0.348,0.012,0.451,0.012c0.527,0,1.045-0.029,1.551-0.088s0.953-0.188,1.342-0.385c0.389-0.199,0.704-0.488,0.946-0.869
			c0.242-0.383,0.362-0.902,0.362-1.563c0-0.631-0.143-1.119-0.429-1.463c-0.286-0.346-0.648-0.598-1.089-0.76
			c-0.44-0.16-0.921-0.256-1.441-0.285s-1.016-0.045-1.484-0.045h-0.727l-0.088,0.088c0,0.029-0.004,0.129-0.011,0.297
			c-0.008,0.17-0.011,0.291-0.011,0.363c0,0.162-0.004,0.389-0.012,0.682c-0.007,0.295,0.048,0.537,0.165,0.727v3.189L59.246,35.353
			z"/>
		<path d="M68.958,41.665c0.169-0.291,0.43-0.438,0.781-0.438h2.42l0.154-0.219c0-0.059,0.003-0.16,0.011-0.307
			c0.008-0.145,0.019-0.299,0.033-0.459s0.025-0.313,0.033-0.459c0.007-0.145,0.011-0.248,0.011-0.307
			c0.015-0.027,0.029-0.102,0.044-0.217c0.015-0.117,0.029-0.189,0.044-0.219V34.21h-2.574c-0.146,0-0.274-0.041-0.385-0.123
			s-0.202-0.184-0.275-0.303c-0.073-0.121-0.128-0.252-0.164-0.395c-0.037-0.141-0.056-0.271-0.056-0.393
			c0-0.238,0.059-0.426,0.176-0.561s0.261-0.234,0.43-0.303c0.168-0.066,0.352-0.111,0.55-0.135
			c0.198-0.021,0.377-0.033,0.539-0.033c0.249,0,0.495,0.014,0.737,0.043c0.241,0.029,0.487,0.045,0.736,0.045
			c0.176,0,0.349-0.016,0.518-0.045c0.168-0.029,0.341-0.043,0.517-0.043c0.249,0,0.51,0.08,0.781,0.242
			c0.271,0.16,0.407,0.395,0.407,0.703v8.184l0.132,0.133h2.332c0.132,0,0.253,0.049,0.362,0.146
			c0.11,0.098,0.206,0.213,0.286,0.348c0.081,0.135,0.14,0.277,0.176,0.426c0.037,0.15,0.056,0.277,0.056,0.381
			c0,0.211-0.056,0.42-0.165,0.629c-0.11,0.209-0.29,0.314-0.539,0.314h-7.502c-0.264,0-0.473-0.09-0.627-0.27
			s-0.231-0.396-0.231-0.65C68.705,42.253,68.79,41.956,68.958,41.665z M72.05,28.226c0.278-0.293,0.638-0.439,1.077-0.439
			c0.234,0,0.451,0.055,0.649,0.164s0.366,0.258,0.506,0.439c0.14,0.184,0.249,0.387,0.33,0.605c0.08,0.221,0.121,0.439,0.121,0.66
			c0,0.439-0.161,0.789-0.484,1.045c-0.322,0.258-0.689,0.385-1.1,0.385c-0.499,0-0.877-0.176-1.133-0.527
			c-0.257-0.352-0.385-0.77-0.385-1.254C71.632,28.878,71.771,28.519,72.05,28.226z"/>
		<path d="M80.816,41.579c0.228-0.189,0.51-0.285,0.847-0.285c0.206,0,0.407,0.018,0.605,0.055s0.407,0.055,0.627,0.055
			c0.059,0,0.143-0.004,0.253-0.012c0.11-0.006,0.172-0.01,0.188-0.01l0.088-0.088c0-0.059,0.003-0.154,0.011-0.287
			c0.007-0.131,0.015-0.273,0.022-0.428c0.007-0.154,0.018-0.301,0.032-0.441c0.015-0.139,0.022-0.238,0.022-0.297
			c0-0.029,0.011-0.102,0.033-0.219c0.021-0.117,0.04-0.191,0.055-0.221l-0.044-2.156v-0.418l-0.132-2.596l-0.176-0.176
			c-0.074,0-0.198-0.004-0.374-0.012c-0.177-0.006-0.367-0.014-0.572-0.021c-0.206-0.008-0.396-0.018-0.572-0.033
			c-0.176-0.014-0.301-0.021-0.374-0.021c-0.294-0.029-0.539-0.143-0.737-0.342c-0.197-0.197-0.297-0.443-0.297-0.736
			s0.088-0.547,0.265-0.76c0.176-0.211,0.418-0.318,0.726-0.318c0.015,0,0.036,0,0.066,0c0.044,0,0.065,0.008,0.065,0.021
			c0.234,0.029,0.524,0.033,0.869,0.012s0.693-0.025,1.045-0.012c0.353,0.016,0.683,0.063,0.99,0.143
			c0.308,0.082,0.542,0.232,0.704,0.451c0.029,0.031,0.059,0.092,0.088,0.188s0.063,0.195,0.099,0.297
			c0.037,0.104,0.081,0.191,0.132,0.264c0.052,0.074,0.106,0.111,0.165,0.111h0.044c0.455-0.367,0.942-0.705,1.464-1.012
			c0.521-0.309,1.081-0.463,1.683-0.463c0.366,0,0.723,0.063,1.067,0.188c0.344,0.125,0.641,0.297,0.891,0.516
			c0.249,0.221,0.451,0.488,0.604,0.805c0.154,0.314,0.231,0.662,0.231,1.045c0,0.543-0.129,1.004-0.385,1.385
			c-0.257,0.383-0.693,0.572-1.31,0.572c-0.293,0-0.527-0.092-0.704-0.275c-0.176-0.184-0.315-0.406-0.418-0.67
			s-0.172-0.539-0.209-0.826c-0.036-0.285-0.063-0.531-0.076-0.736c-0.016-0.072-0.06-0.109-0.133-0.109s-0.124,0-0.153,0
			c-0.074,0-0.144,0.004-0.209,0.01c-0.066,0.008-0.129,0.041-0.188,0.1c-0.059,0.045-0.153,0.133-0.286,0.264
			c-0.132,0.133-0.271,0.271-0.418,0.418s-0.286,0.287-0.418,0.418c-0.132,0.133-0.22,0.221-0.264,0.264
			c-0.059,0.059-0.143,0.158-0.253,0.297c-0.11,0.141-0.217,0.291-0.319,0.451c-0.103,0.162-0.19,0.32-0.264,0.475
			c-0.073,0.152-0.11,0.268-0.11,0.34v2.486c0.015,0.029,0.033,0.104,0.056,0.221c0.021,0.117,0.032,0.189,0.032,0.219
			c0,0.045,0.008,0.133,0.022,0.264c0.015,0.133,0.025,0.271,0.033,0.418c0.007,0.148,0.014,0.287,0.021,0.418
			c0.008,0.133,0.011,0.229,0.011,0.287c0.059,0.162,0.146,0.256,0.265,0.285c0.117,0.029,0.256,0.045,0.418,0.045
			c0.161,0,0.326-0.016,0.495-0.045c0.168-0.029,0.333-0.043,0.495-0.043c0.337,0,0.645,0.092,0.924,0.275
			c0.278,0.184,0.418,0.449,0.418,0.803c0,0.293-0.066,0.523-0.198,0.693c-0.132,0.168-0.305,0.293-0.517,0.373
			c-0.213,0.08-0.444,0.133-0.693,0.154c-0.25,0.021-0.484,0.033-0.704,0.033c-0.249,0-0.495-0.016-0.737-0.045
			c-0.241-0.029-0.487-0.043-0.736-0.043c-0.118,0-0.217,0.004-0.297,0.01c-0.081,0.008-0.195,0.033-0.342,0.078h-2.508
			c-0.352,0-0.671-0.117-0.957-0.352c-0.286-0.236-0.429-0.537-0.429-0.902C80.476,42.034,80.589,41.771,80.816,41.579z"/>
		<path d="M94.621,37.983c0.352-0.492,0.792-0.852,1.32-1.078c0.527-0.229,1.104-0.367,1.727-0.418
			c0.623-0.053,1.199-0.1,1.728-0.145c0.527-0.043,0.968-0.123,1.319-0.242c0.353-0.117,0.528-0.352,0.528-0.703
			c0-0.25-0.044-0.484-0.132-0.703c-0.088-0.221-0.25-0.396-0.484-0.529c-0.088-0.043-0.22-0.109-0.396-0.197
			c-0.177-0.088-0.271-0.133-0.286-0.133h-2.068c-0.117,0-0.198,0.063-0.242,0.188s-0.084,0.279-0.121,0.463
			c-0.036,0.184-0.076,0.385-0.121,0.604c-0.044,0.221-0.113,0.422-0.209,0.605c-0.095,0.184-0.234,0.338-0.418,0.463
			s-0.429,0.186-0.736,0.186c-0.47,0-0.854-0.152-1.155-0.461s-0.451-0.689-0.451-1.145c0-0.264,0.044-0.498,0.132-0.703
			s0.206-0.396,0.353-0.572s0.315-0.342,0.506-0.496s0.381-0.297,0.572-0.428c0.161-0.117,0.33-0.246,0.506-0.385
			c0.176-0.141,0.381-0.209,0.616-0.209l3.365,0.043c0.19,0,0.415,0.08,0.672,0.24c0.256,0.162,0.506,0.352,0.747,0.57
			c0.242,0.219,0.455,0.453,0.639,0.701c0.183,0.248,0.297,0.459,0.341,0.635c0.015,0.043,0.036,0.123,0.066,0.24
			c0.028,0.117,0.058,0.238,0.088,0.361c0.029,0.125,0.055,0.242,0.076,0.352c0.022,0.109,0.033,0.186,0.033,0.229v0.68
			c0,0.176,0.004,0.375,0.012,0.602c0.007,0.227-0.026,0.428-0.1,0.604v3.699c0,0.41,0.176,0.613,0.528,0.613
			c0.234,0,0.381-0.102,0.439-0.307s0.11-0.438,0.154-0.693s0.113-0.488,0.209-0.693s0.297-0.309,0.605-0.309
			c0.161,0,0.3,0.045,0.418,0.133c0.117,0.088,0.212,0.197,0.286,0.33c0.073,0.133,0.124,0.275,0.153,0.43
			c0.029,0.152,0.044,0.305,0.044,0.449c0,0.324-0.052,0.646-0.153,0.969c-0.104,0.322-0.246,0.613-0.43,0.869
			c-0.184,0.258-0.41,0.467-0.682,0.627c-0.271,0.162-0.583,0.242-0.936,0.242c-0.278,0-0.521-0.033-0.726-0.1
			s-0.433-0.18-0.682-0.34c-0.088-0.045-0.165-0.113-0.231-0.209c-0.065-0.096-0.132-0.191-0.198-0.287
			c-0.065-0.096-0.14-0.18-0.22-0.252c-0.081-0.074-0.173-0.111-0.274-0.111h-0.11c-0.206,0.104-0.415,0.229-0.627,0.375
			c-0.213,0.146-0.429,0.289-0.649,0.43c-0.22,0.139-0.447,0.256-0.682,0.352c-0.235,0.096-0.477,0.143-0.727,0.143h-1.979
			c-0.161,0-0.301-0.041-0.418-0.121s-0.235-0.158-0.353-0.23c-0.602-0.352-1.037-0.789-1.309-1.309
			c-0.271-0.521-0.407-1.127-0.407-1.816C94.093,39.175,94.27,38.474,94.621,37.983z M95.875,40.479
			c0.044,0.162,0.106,0.318,0.188,0.473c0.08,0.154,0.179,0.283,0.297,0.385c0.117,0.104,0.249,0.154,0.396,0.154h2.244
			c0.015,0,0.063-0.021,0.143-0.066c0.081-0.043,0.15-0.08,0.209-0.109c0.029-0.029,0.1-0.072,0.209-0.133
			c0.11-0.057,0.18-0.094,0.21-0.109c0.542-0.365,0.909-0.748,1.1-1.145c0.19-0.395,0.286-0.908,0.286-1.539v-0.264
			c-0.015,0-0.044-0.012-0.088-0.033s-0.074-0.033-0.088-0.033c-0.016-0.014-0.03-0.021-0.045-0.021l-0.044,0.021
			c-0.044,0-0.165,0.018-0.362,0.055c-0.198,0.037-0.407,0.074-0.627,0.109c-0.221,0.037-0.43,0.074-0.627,0.111
			c-0.198,0.037-0.319,0.055-0.363,0.055c-0.353,0.059-0.708,0.104-1.067,0.133s-0.723,0.072-1.089,0.131
			c-0.19,0.016-0.359,0.133-0.506,0.352c-0.073,0.104-0.165,0.264-0.275,0.484c-0.109,0.221-0.165,0.41-0.165,0.572
			C95.809,40.179,95.831,40.317,95.875,40.479z"/>
		<path d="M111.693,37.542c-0.029-0.557,0.044-1.076,0.22-1.559v-2.438h-2.771c-0.206,0-0.371-0.104-0.495-0.307
			c-0.125-0.205-0.188-0.396-0.188-0.572c0-0.264,0.085-0.482,0.253-0.658c0.169-0.176,0.342-0.344,0.518-0.506
			c0.176-0.146,0.385-0.229,0.627-0.242c0.242-0.016,0.487-0.023,0.736-0.023c0.265,0,0.51-0.025,0.737-0.076
			c0.228-0.053,0.422-0.195,0.583-0.432c0.146-0.221,0.22-0.516,0.22-0.885s0.012-0.734,0.033-1.096
			c0.022-0.361,0.1-0.67,0.231-0.928s0.41-0.389,0.836-0.389c0.425,0,0.686,0.131,0.781,0.389c0.095,0.258,0.143,0.563,0.143,0.918
			c0,0.338-0.019,0.67-0.055,0.994c-0.037,0.326-0.056,0.664-0.056,1.018c0,0.09,0,0.223,0,0.398c0,0.178,0.008,0.273,0.022,0.287
			l0.154,0.154c0.014,0.016,0.117,0.023,0.308,0.023c0.205,0,0.366,0,0.484,0c0.308,0,0.604-0.02,0.891-0.057
			c0.286-0.035,0.575-0.055,0.869-0.055c0.337,0,0.616,0.133,0.836,0.396s0.33,0.551,0.33,0.857c0,0.295-0.092,0.547-0.275,0.76
			s-0.422,0.318-0.715,0.318c-0.366,0-0.708-0.047-1.022-0.143c-0.316-0.096-0.687-0.143-1.111-0.143
			c-0.088,0-0.217,0.004-0.385,0.01c-0.169,0.008-0.261,0.02-0.275,0.033l-0.264,0.242v6.098c0,0.117,0.04,0.25,0.121,0.396
			c0.08,0.146,0.183,0.285,0.308,0.416c0.124,0.131,0.26,0.244,0.407,0.34c0.146,0.096,0.286,0.143,0.418,0.143
			c0.352,0,0.63-0.084,0.836-0.254c0.205-0.168,0.363-0.377,0.473-0.627c0.11-0.248,0.198-0.516,0.265-0.803
			c0.065-0.285,0.135-0.553,0.209-0.803c0.073-0.248,0.176-0.457,0.308-0.627c0.132-0.168,0.322-0.252,0.572-0.252
			c0.366,0,0.623,0.131,0.77,0.395c0.146,0.266,0.22,0.551,0.22,0.859c0,0.498-0.073,1.004-0.22,1.518s-0.363,0.979-0.648,1.396
			c-0.286,0.418-0.643,0.764-1.067,1.035c-0.426,0.271-0.917,0.406-1.474,0.406c-0.221,0-0.39-0.008-0.507-0.021
			c-0.117-0.016-0.224-0.041-0.318-0.078c-0.096-0.035-0.191-0.086-0.286-0.152c-0.096-0.066-0.224-0.158-0.385-0.275
			c-0.015,0-0.059-0.018-0.132-0.055c-0.074-0.037-0.147-0.074-0.221-0.109c-0.073-0.037-0.146-0.07-0.22-0.1
			s-0.117-0.051-0.132-0.066c-0.602-0.467-0.994-0.98-1.177-1.537c-0.184-0.555-0.275-1.199-0.275-1.932
			C111.737,38.634,111.723,38.099,111.693,37.542z"/>
		<path d="M121.494,36.63c0.081-0.543,0.217-1.061,0.407-1.551c0.19-0.492,0.443-0.947,0.759-1.365s0.715-0.758,1.199-1.021
			c0.044-0.029,0.124-0.074,0.242-0.133c0.117-0.059,0.242-0.121,0.374-0.188s0.253-0.123,0.362-0.176
			c0.11-0.051,0.188-0.084,0.231-0.1c0.161-0.072,0.326-0.105,0.495-0.098c0.168,0.008,0.333,0.01,0.495,0.01
			c0.938,0,1.73,0.225,2.376,0.672c0.645,0.447,1.246,1.023,1.804,1.727c0.059,0.088,0.136,0.254,0.231,0.496
			c0.095,0.24,0.183,0.506,0.264,0.791c0.08,0.287,0.15,0.564,0.209,0.836s0.088,0.473,0.088,0.605c0,0.029-0.004,0.092-0.011,0.188
			c-0.008,0.096-0.011,0.156-0.011,0.186c-0.133,0.221-0.309,0.367-0.528,0.441c-0.22,0.072-0.447,0.131-0.682,0.176
			c-0.162,0-0.451-0.004-0.869-0.012s-0.862-0.012-1.331-0.012c-0.455,0-0.892,0.004-1.31,0.012s-0.707,0.012-0.869,0.012
			c-0.161,0-0.355,0.004-0.583,0.01c-0.228,0.008-0.45,0.016-0.671,0.023c-0.22,0.008-0.491,0.025-0.813,0.055l-0.088,0.066
			c0,0.016-0.004,0.066-0.012,0.156c-0.007,0.088-0.011,0.146-0.011,0.176c0,0.428,0.077,0.834,0.231,1.217
			c0.153,0.385,0.366,0.721,0.638,1.008s0.59,0.516,0.957,0.686c0.366,0.17,0.77,0.256,1.21,0.256c0.044,0,0.143-0.004,0.297-0.012
			s0.253-0.012,0.297-0.012c0.205-0.16,0.44-0.273,0.704-0.34c0.265-0.066,0.491-0.18,0.683-0.342
			c0.146-0.131,0.282-0.293,0.406-0.484c0.125-0.189,0.257-0.373,0.396-0.549c0.139-0.176,0.289-0.322,0.451-0.441
			c0.161-0.117,0.358-0.176,0.594-0.176c0.22,0,0.399,0.066,0.539,0.199c0.139,0.131,0.209,0.301,0.209,0.506
			c0,0.338-0.073,0.641-0.22,0.912c-0.147,0.271-0.309,0.539-0.484,0.803c-0.44,0.639-1.02,1.094-1.738,1.369
			s-1.459,0.414-2.222,0.414c-0.748,0-1.423-0.146-2.024-0.441c-0.602-0.293-1.107-0.688-1.518-1.188
			c-0.411-0.498-0.727-1.074-0.946-1.727s-0.33-1.338-0.33-2.057C121.373,37.7,121.413,37.173,121.494,36.63z M123.441,36.321
			c0,0.045,0.029,0.066,0.088,0.066h5.082c0.029,0,0.069-0.018,0.121-0.055c0.051-0.037,0.092-0.07,0.121-0.1
			c0.015-0.029,0.021-0.08,0.021-0.154c0-0.072,0-0.125,0-0.154c0-0.352-0.088-0.648-0.264-0.891s-0.396-0.432-0.66-0.572
			c-0.264-0.139-0.554-0.242-0.869-0.307c-0.315-0.066-0.612-0.1-0.891-0.1c-0.308,0-0.624,0.041-0.946,0.121
			s-0.616,0.209-0.88,0.385s-0.484,0.4-0.66,0.672s-0.264,0.59-0.264,0.957C123.441,36.22,123.441,36.263,123.441,36.321z"/>
	</g>
</g>
<g id="Thief">
</g>
<g id="DepthPerception">
</g>
<g id="Narcissist">
</g>
<g id="MammaBird">
</g>
<g id="Staringcontest">
</g>
<g id="Cartwheel">
</g>
<g id="Censored">
</g>
<g id="Depersonalization">
</g>
<g id="threeman">
</g>
<g id="_x32__truths_and_a_lie">
</g>
<g id="cray_cray_cat_lady">
</g>
<g id="siblings">
</g>
<g id="later">
</g>
<g id="waterfall">
</g>
<g id="cheers">
</g>
<g id="rhyme">
</g>
<g id="categories">
</g>
<g id="tits">
</g>
<g id="dicks">
</g>
<g id="questions">
</g>
<g id="double_hands">
</g>
<g id="rewind">
</g>
<g id="Cryptkeeper">
</g>
<g id="Take_2_and_Redo">
</g>
<g id="Embryo">
</g>
<g id="I_am_Groot">
</g>
<g id="Mini_Me">
</g>
<g id="Ditto_1_">
</g>
<g id="reverse">
</g>
</svg>
