<?xml version="1.0" encoding="utf-8"?>
<!-- Generator: Adobe Illustrator 16.0.0, SVG Export Plug-In . SVG Version: 6.00 Build 0)  -->
<!DOCTYPE svg PUBLIC "-//W3C//DTD SVG 1.1//EN" "http://www.w3.org/Graphics/SVG/1.1/DTD/svg11.dtd">
<svg version="1.1" xmlns="http://www.w3.org/2000/svg" xmlns:xlink="http://www.w3.org/1999/xlink" x="0px" y="0px"
	 width="209.759px" height="62.361px" viewBox="0 0 209.759 62.361" enable-background="new 0 0 209.759 62.361"
	 xml:space="preserve">
<g id="Layer_1">
</g>
<g id="Blindman">
</g>
<g id="Compliments">
</g>
<g id="HAT">
</g>
<g id="speech">
</g>
<g id="TREX_ARMS">
</g>
<g id="slim_shady">
</g>
<g id="TIMEOUT">
</g>
<g id="Truth_or_Dare">
</g>
<g id="ARM_WRESTLE">
</g>
<g id="musical_chairs">
</g>
<g id="never_have_i_ever">
</g>
<g id="Trivia">
</g>
<g id="Drink_Pulling">
</g>
<g id="Sharing_is_Caring">
</g>
<g id="Not_It">
</g>
<g id="Cocktail_of_Doom">
</g>
<g id="Heads_up">
</g>
<g id="Archenemy">
</g>
<g id="battle_of_the_sexes">
</g>
<g id="one_must_drink">
</g>
<g id="rainbow_connection">
</g>
<g id="social_drinking">
</g>
<g id="Spin_the_bottle">
</g>
<g id="accents">
</g>
<g id="Slap">
</g>
<g id="rub">
</g>
<g id="down_the_hatch">
</g>
<g id="rubiks_cube">
</g>
<g id="bar_tender">
</g>
<g id="codenames">
</g>
<g id="hand_switch">
</g>
<g id="make_a_rule">
</g>
<g id="no_guts_no_glory">
</g>
<g id="pass">
</g>
<g id="santa">
</g>
<g id="snake_eyes">
</g>
<g id="bodyguard">
</g>
<g id="threeman">
</g>
<g id="_x32__truths_and_a_lie">
</g>
<g id="cray_cray_cat_lady">
</g>
<g id="siblings">
</g>
<g id="later">
</g>
<g id="waterfall">
</g>
<g id="cheers">
</g>
<g id="rhyme">
</g>
<g id="categories">
</g>
<g id="tits">
</g>
<g id="dicks">
</g>
<g id="questions">
</g>
<g id="double_hands">
</g>
<g id="take_2">
	<g>
		<path d="M7.448,45.168c0.035-0.324,0.107-0.639,0.216-0.944s0.261-0.567,0.459-0.783c0.197-0.216,0.459-0.324,0.783-0.324h5.076
			l0.647-0.702V15.576l-0.216-0.216c-0.072-0.035-0.216-0.063-0.432-0.081c-0.217-0.018-0.36-0.027-0.433-0.027
			c-0.107,0-0.297,0.01-0.566,0.027c-0.271,0.019-0.441,0.046-0.514,0.081c-1.188,0.288-2.043,0.783-2.564,1.484
			c-0.522,0.702-0.873,1.477-1.054,2.322c-0.18,0.847-0.261,1.72-0.242,2.619c0.018,0.9-0.01,1.72-0.081,2.457
			c-0.073,0.738-0.289,1.35-0.648,1.836c-0.36,0.486-0.99,0.729-1.89,0.729c-0.721,0-1.261-0.342-1.62-1.026
			c-0.36-0.684-0.54-1.35-0.54-1.998V13.416c0-0.251,0.063-0.558,0.188-0.918c0.126-0.359,0.298-0.71,0.514-1.053
			c0.216-0.342,0.459-0.639,0.729-0.892c0.271-0.251,0.567-0.378,0.892-0.378h6.534c0.359-0.18,0.639-0.278,0.837-0.297
			c0.197-0.018,0.459-0.026,0.782-0.026c0.288,0,0.54,0.009,0.757,0.026c0.216,0.019,0.485,0.117,0.81,0.297h12.042
			c0.72,0,1.358,0.307,1.917,0.918c0.558,0.613,0.837,1.261,0.837,1.944v10.746c0,0.721-0.216,1.404-0.647,2.052
			c-0.433,0.648-1.026,0.973-1.782,0.973c-0.613,0-1.188-0.271-1.729-0.811s-0.81-1.134-0.81-1.782v-5.724
			c0-0.611-0.153-1.143-0.459-1.593c-0.307-0.45-0.702-0.828-1.188-1.134c-0.485-0.306-1.008-0.531-1.565-0.676
			c-0.559-0.144-1.09-0.216-1.594-0.216c-0.072,0-0.216,0.01-0.432,0.027c-0.216,0.019-0.343,0.026-0.378,0.026l-0.216,0.217
			c0,0.432-0.027,0.972-0.081,1.62c-0.054,0.647-0.153,1.224-0.297,1.728l0.107,5.292v1.08l0.271,17.334L20.3,42.63
			c0.575,0,1.26,0.019,2.052,0.055s1.539,0.153,2.241,0.351c0.702,0.198,1.296,0.513,1.782,0.945
			c0.486,0.432,0.729,1.08,0.729,1.943c0,0.505-0.108,0.928-0.324,1.27c-0.216,0.343-0.505,0.612-0.864,0.81
			c-0.36,0.198-0.766,0.343-1.215,0.433c-0.451,0.09-0.91,0.135-1.377,0.135c-0.685,0-1.342-0.116-1.971-0.352
			c-0.631-0.233-1.288-0.351-1.972-0.351c-1.152,0-2.25,0.181-3.294,0.54c-1.044,0.36-2.143,0.54-3.294,0.54
			c-0.396,0-0.891-0.072-1.485-0.216c-0.594-0.144-1.188-0.342-1.781-0.595c-0.595-0.251-1.099-0.566-1.513-0.944
			s-0.621-0.783-0.621-1.215C7.394,45.762,7.412,45.492,7.448,45.168z"/>
		<path d="M31.802,46.311c0-0.071,0.008-0.225,0.026-0.457c0.018-0.233,0.027-0.386,0.027-0.458c0.359-0.431,0.684-0.754,0.972-0.97
			c0.288-0.215,0.595-0.386,0.918-0.512c0.324-0.125,0.666-0.241,1.026-0.349c0.359-0.108,0.791-0.27,1.296-0.485
			c0.252-0.108,0.477-0.306,0.675-0.593c0.197-0.286,0.359-0.592,0.486-0.915c0.126-0.323,0.233-0.655,0.324-0.997
			c0.089-0.341,0.17-0.637,0.243-0.888c0.107-0.359,0.278-0.986,0.513-1.885c0.233-0.897,0.485-1.849,0.756-2.854
			c0.27-1.005,0.521-1.956,0.756-2.854c0.233-0.898,0.405-1.526,0.513-1.886c0.324-0.789,0.54-1.561,0.648-2.314
			s0.306-1.526,0.594-2.315c0.575-1.724,1.161-3.447,1.755-5.17c0.595-1.723,1.143-3.446,1.647-5.17
			c0.107-0.359,0.225-0.808,0.351-1.347c0.126-0.538,0.297-1.049,0.514-1.533c0.216-0.484,0.503-0.898,0.863-1.239
			c0.359-0.341,0.828-0.512,1.404-0.512c0.648,0,1.17,0.216,1.566,0.646c0.396,0.431,0.71,0.942,0.944,1.534
			c0.234,0.593,0.414,1.203,0.54,1.831c0.126,0.629,0.243,1.122,0.352,1.48c0.359,1.222,0.647,2.469,0.863,3.743
			c0.217,1.274,0.63,2.485,1.242,3.634l5.076,19.171c0.108,0.359,0.314,0.646,0.621,0.861c0.306,0.217,0.656,0.387,1.053,0.513
			c0.396,0.126,0.783,0.225,1.161,0.296c0.378,0.072,0.711,0.144,0.999,0.215c0.684,0.432,1.026,1.096,1.026,1.992
			c0,0.862-0.271,1.518-0.811,1.967c-0.54,0.448-1.224,0.673-2.052,0.673c-0.9,0-1.836-0.027-2.808-0.081
			c-0.973-0.054-1.891-0.099-2.754-0.135c-0.577,0-1.117-0.018-1.62-0.054c-0.505-0.035-0.955-0.134-1.351-0.296
			c-0.396-0.162-0.711-0.422-0.944-0.781c-0.235-0.358-0.352-0.861-0.352-1.508v-0.915c0.252-0.322,0.549-0.564,0.892-0.727
			c0.341-0.162,0.683-0.315,1.025-0.458c0.342-0.144,0.648-0.296,0.918-0.458c0.271-0.162,0.459-0.386,0.567-0.673
			c0-0.072-0.019-0.225-0.054-0.458c-0.037-0.233-0.081-0.476-0.136-0.727c-0.054-0.252-0.1-0.484-0.135-0.7
			c-0.036-0.216-0.072-0.359-0.108-0.432c-0.036-0.107-0.09-0.305-0.161-0.592c-0.073-0.286-0.181-0.592-0.324-0.915
			c-0.145-0.323-0.297-0.611-0.459-0.862s-0.334-0.377-0.514-0.377h-8.478c-0.072,0-0.252,0.117-0.54,0.35
			c-0.288,0.234-0.45,0.387-0.486,0.459l-1.512,3.176c0,0.037-0.009,0.145-0.027,0.323c-0.019,0.18-0.026,0.306-0.026,0.378
			c0,0.61,0.17,1.023,0.513,1.238c0.342,0.216,0.711,0.413,1.107,0.592c0.396,0.181,0.764,0.422,1.106,0.728
			c0.342,0.306,0.514,0.835,0.514,1.588c0,0.826-0.279,1.419-0.838,1.778s-1.233,0.538-2.024,0.538
			c-0.505,0-0.999-0.035-1.485-0.108c-0.485-0.071-0.999-0.107-1.539-0.107c-0.721,0-1.422,0.063-2.105,0.188
			c-0.685,0.126-1.387,0.188-2.106,0.188c-0.828,0-1.477-0.313-1.943-0.942C32.035,47.756,31.802,47.064,31.802,46.311z
			 M44.329,33.234c0.396,0.252,0.774,0.387,1.135,0.405c0.359,0.019,0.791,0.026,1.296,0.026c0.72,0,1.431-0.054,2.133-0.162
			c0.702-0.107,1.431-0.197,2.187-0.27l0.217-0.216c0-0.036,0.008-0.136,0.026-0.298c0.018-0.161,0.027-0.278,0.027-0.351
			c0-0.288-0.072-0.783-0.216-1.485c-0.145-0.701-0.334-1.476-0.567-2.321c-0.234-0.846-0.495-1.719-0.783-2.619
			c-0.288-0.899-0.559-1.719-0.81-2.457c-0.253-0.737-0.469-1.351-0.648-1.836c-0.181-0.486-0.288-0.729-0.324-0.729
			c-0.144,0-0.252,0.091-0.323,0.271c-0.073,0.181-0.127,0.306-0.162,0.378c-0.108,0.288-0.262,0.711-0.459,1.269
			c-0.198,0.559-0.405,1.116-0.621,1.674c-0.216,0.559-0.405,1.063-0.567,1.513s-0.262,0.729-0.297,0.837
			c-0.288,0.937-0.576,1.89-0.864,2.862c-0.288,0.972-0.432,1.926-0.432,2.861c0,0.073,0.009,0.181,0.027,0.324
			C44.32,33.055,44.329,33.162,44.329,33.234z"/>
		<path d="M65.281,45.384c0.216-0.323,0.504-0.575,0.864-0.756c0.359-0.18,0.764-0.297,1.215-0.351
			c0.449-0.054,0.908-0.081,1.377-0.081l0.324-0.216V24.324c0.216-0.396,0.323-0.791,0.323-1.188c0-0.432,0-0.863,0-1.296
			c0-1.007-0.009-1.871-0.026-2.592c-0.019-0.72-0.081-1.638-0.189-2.754c-0.288-0.396-0.675-0.603-1.161-0.621
			c-0.485-0.018-0.972-0.045-1.458-0.081c-0.485-0.035-0.909-0.18-1.269-0.432c-0.36-0.252-0.54-0.846-0.54-1.782
			c0-1.115,0.351-1.898,1.053-2.349s1.539-0.676,2.511-0.676c0.828,0,1.629,0.118,2.403,0.353c0.773,0.234,1.593,0.351,2.457,0.351
			c0.612,0,1.196-0.045,1.755-0.135c0.558-0.09,1.143-0.135,1.755-0.135c0.828,0,1.584,0.225,2.269,0.676
			c0.684,0.45,1.025,1.108,1.025,1.974c0,0.469-0.081,0.856-0.242,1.162c-0.162,0.308-0.441,0.604-0.837,0.893
			c-0.108,0.037-0.298,0.081-0.567,0.136c-0.271,0.054-0.567,0.117-0.891,0.188c-0.324,0.072-0.631,0.135-0.919,0.189
			c-0.288,0.054-0.485,0.081-0.594,0.081c-0.036,0-0.126,0.019-0.27,0.055c-0.145,0.036-0.297,0.063-0.459,0.081
			c-0.162,0.019-0.315,0.036-0.459,0.054c-0.145,0.019-0.234,0.027-0.271,0.027c-0.036,0.036-0.081,0.072-0.135,0.107
			c-0.054,0.036-0.081,0.073-0.081,0.108c-0.036,0.469-0.081,0.964-0.135,1.487s-0.153,1.019-0.297,1.486v6.165l0.432,1.243h0.864
			c0.359-0.323,0.647-0.594,0.864-0.811c0.216-0.216,0.44-0.441,0.675-0.676c0.233-0.234,0.423-0.441,0.566-0.622
			c0.396-0.468,0.837-0.963,1.323-1.486s0.818-1.091,0.999-1.704l3.78-3.785c0.18-0.18,0.342-0.45,0.485-0.812
			c0.144-0.36,0.217-0.666,0.217-0.919c0-0.108-0.1-0.252-0.297-0.433c-0.199-0.181-0.424-0.396-0.676-0.648
			s-0.478-0.577-0.675-0.974c-0.198-0.396-0.297-0.865-0.297-1.406c0-0.504,0.108-0.91,0.324-1.217
			c0.216-0.306,0.485-0.54,0.81-0.702s0.693-0.262,1.107-0.298c0.413-0.036,0.818-0.055,1.215-0.055
			c0.611,0,1.215,0.046,1.809,0.136c0.595,0.09,1.196,0.135,1.81,0.135c0.611,0,1.179-0.045,1.701-0.135
			c0.521-0.09,1.088-0.136,1.7-0.136c1.008,0,1.773,0.199,2.295,0.596s0.783,1.117,0.783,2.163c0,0.685-0.153,1.217-0.459,1.595
			c-0.306,0.379-0.693,0.649-1.161,0.812s-0.999,0.262-1.593,0.297c-0.594,0.036-1.161,0.072-1.701,0.108
			c-0.756,0.577-1.377,1.244-1.862,2.001c-0.486,0.757-1.054,1.496-1.701,2.217c-0.289,0.325-0.712,0.739-1.27,1.243
			c-0.559,0.505-1.106,1.037-1.646,1.596s-1.009,1.118-1.404,1.677c-0.396,0.559-0.594,1.036-0.594,1.433
			c0,0.072,0.018,0.271,0.054,0.595c0,0.072,0.099,0.217,0.297,0.433c0.197,0.217,0.315,0.36,0.352,0.433
			c0.359,0.649,0.746,1.506,1.161,2.569c0.413,1.063,0.872,1.974,1.377,2.73c0.972,1.551,1.88,3.146,2.727,4.785
			c0.846,1.641,1.683,3.29,2.511,4.948l1.08,1.027c0.359,0.036,0.818,0.072,1.377,0.108c0.558,0.036,1.098,0.136,1.62,0.298
			c0.521,0.162,0.973,0.396,1.351,0.702c0.378,0.307,0.566,0.73,0.566,1.271c0,1.297-0.333,2.145-0.999,2.541
			s-1.575,0.595-2.727,0.595c-0.612,0-1.188-0.035-1.729-0.108c-0.54-0.071-1.099-0.107-1.674-0.107
			c-0.576,0-1.134,0.036-1.674,0.107c-0.54,0.073-1.116,0.108-1.729,0.108c-0.539,0-1.079-0.045-1.619-0.135
			s-1.026-0.252-1.458-0.486c-0.433-0.233-0.783-0.549-1.054-0.945c-0.27-0.396-0.404-0.918-0.404-1.565
			c0-0.648,0.188-1.08,0.566-1.296s0.792-0.359,1.242-0.433c0.45-0.071,0.864-0.17,1.242-0.297c0.378-0.126,0.566-0.404,0.566-0.837
			c0-0.468-0.107-0.945-0.323-1.431c-0.217-0.486-0.396-0.892-0.54-1.215c0-0.072-0.027-0.153-0.081-0.243
			c-0.055-0.09-0.1-0.153-0.135-0.189c-0.181-0.251-0.433-0.665-0.757-1.242c-0.323-0.575-0.675-1.232-1.053-1.971
			c-0.378-0.737-0.783-1.503-1.215-2.295c-0.432-0.791-0.837-1.521-1.215-2.187s-0.712-1.224-0.999-1.675
			c-0.289-0.449-0.505-0.71-0.648-0.782c-0.072-0.036-0.306,0.126-0.702,0.485c-0.396,0.36-0.828,0.783-1.296,1.27
			c-0.468,0.485-0.9,0.963-1.296,1.431c-0.396,0.469-0.647,0.811-0.756,1.026c-0.216,0.54-0.343,1.134-0.378,1.781
			c-0.036,0.648-0.054,1.278-0.054,1.891v1.404c0.035,0.323,0.071,0.738,0.107,1.241c0.036,0.505,0.081,0.991,0.136,1.458
			c0.054,0.469,0.116,1.045,0.188,1.729l0.432,0.54h3.78c0.54,0,0.963,0.243,1.27,0.729c0.305,0.486,0.459,0.945,0.459,1.377
			c0,0.937-0.378,1.647-1.135,2.134c-0.756,0.485-1.548,0.729-2.376,0.729c-0.504,0-0.999-0.035-1.484-0.108
			c-0.486-0.071-0.981-0.107-1.485-0.107c-1.045,0-2.098,0.063-3.159,0.188c-1.062,0.126-2.151,0.189-3.267,0.189
			c-0.792,0-1.377-0.278-1.755-0.837c-0.378-0.558-0.567-1.196-0.567-1.917C64.957,46.159,65.065,45.708,65.281,45.384z"/>
		<path d="M98.329,45.762c0.071-0.396,0.188-0.756,0.351-1.079c0.162-0.324,0.387-0.585,0.675-0.783
			c0.288-0.197,0.666-0.297,1.134-0.297h0.324c0.072,0.036,0.278,0.081,0.621,0.135c0.342,0.054,0.549,0.081,0.621,0.081h0.108
			c0.18,0,0.423-0.018,0.729-0.054s0.621-0.081,0.945-0.136c0.324-0.054,0.629-0.107,0.918-0.162
			c0.287-0.054,0.521-0.081,0.702-0.081c0.216-0.143,0.378-0.404,0.485-0.782c0.108-0.378,0.162-0.676,0.162-0.892l-0.107-12.689
			v-1.026l-0.108-7.397c0.18-0.468,0.261-0.999,0.243-1.594c-0.019-0.594-0.027-1.106-0.027-1.539v-1.35l-0.432-0.378
			c-0.036-0.035-0.181-0.054-0.432-0.054c-0.253,0-0.451,0-0.595,0c-0.612,0-1.197,0.045-1.755,0.135
			c-0.559,0.09-1.144,0.135-1.755,0.135c-0.972,0-1.765-0.216-2.376-0.647c-0.612-0.433-0.918-1.17-0.918-2.215
			c0-0.863,0.251-1.593,0.756-2.187c0.504-0.594,1.224-0.891,2.16-0.891c4.392,0,8.766,0.045,13.122,0.135
			c4.355,0.09,8.729,0.117,13.122,0.081c0.54,0.072,0.989,0.414,1.35,1.025c0.359,0.613,0.54,1.188,0.54,1.729v11.394
			c0,0.648-0.234,1.171-0.702,1.566c-0.468,0.396-1.008,0.594-1.62,0.594c-0.504,0-0.999-0.18-1.484-0.54
			c-0.486-0.359-0.729-0.827-0.729-1.404V18.87c0-0.035-0.117-0.27-0.351-0.702c-0.234-0.432-0.424-0.756-0.567-0.972
			c-0.181-0.216-0.478-0.513-0.891-0.892c-0.414-0.378-0.766-0.566-1.053-0.566h-10.314l-0.216,0.216
			c0,0.216-0.01,0.621-0.027,1.215c-0.019,0.594-0.045,1.215-0.081,1.863c-0.036,0.647-0.063,1.261-0.081,1.836
			c-0.019,0.576-0.026,0.972-0.026,1.188c0,0.072-0.036,0.288-0.108,0.647c-0.072,0.36-0.107,0.576-0.107,0.648v0.107v0.055
			c0.035,0.18,0.071,0.404,0.107,0.675c0.035,0.27,0.081,0.522,0.135,0.756c0.055,0.234,0.117,0.531,0.189,0.891l0.216,0.216h2.754
			c0.396-0.287,0.837-0.521,1.323-0.701s0.872-0.504,1.161-0.973c0.251-0.396,0.396-0.926,0.432-1.593
			c0.035-0.666,0.09-1.323,0.162-1.971c0.071-0.648,0.233-1.206,0.486-1.674c0.251-0.468,0.737-0.702,1.458-0.702
			c0.575,0,1.043,0.207,1.403,0.621c0.359,0.414,0.54,0.927,0.54,1.539v17.712c0,1.152-0.559,1.728-1.674,1.728
			c-0.721,0-1.261-0.225-1.62-0.675c-0.36-0.45-0.612-0.99-0.756-1.62c-0.145-0.63-0.216-1.287-0.216-1.971s0-1.242,0-1.674
			c-0.072-0.181-0.216-0.45-0.432-0.811c-0.217-0.359-0.478-0.71-0.783-1.053c-0.307-0.342-0.612-0.648-0.918-0.918
			c-0.307-0.271-0.567-0.405-0.783-0.405h-2.322c-0.144,0-0.216,0.072-0.216,0.216c-0.072,0.073-0.145,0.216-0.216,0.433v11.825
			l0.432,0.433h5.454c0.864-0.252,1.647-0.369,2.35-0.352c0.701,0.019,1.35,0.01,1.943-0.026s1.143-0.189,1.647-0.459
			c0.504-0.271,0.989-0.837,1.458-1.701c0.071-0.108,0.162-0.278,0.27-0.513c0.108-0.234,0.162-0.405,0.162-0.514v-5.292
			c0-0.611,0.216-1.151,0.648-1.62c0.432-0.467,0.953-0.701,1.565-0.701c0.756,0,1.368,0.351,1.836,1.053s0.702,1.396,0.702,2.079
			v7.397c0.18,0.396,0.278,0.729,0.297,0.999c0.018,0.271,0.027,0.604,0.027,0.999c0,1.332-0.396,2.358-1.188,3.078
			c-0.792,0.721-1.836,1.08-3.132,1.08c-0.396,0-0.774,0-1.134,0c-0.324,0-0.685-0.071-1.08-0.216h-17.981
			c-0.469,0.181-0.991,0.261-1.566,0.243c-0.576-0.019-1.08-0.027-1.512-0.027c-0.505,0-0.991-0.009-1.458-0.027
			c-0.469-0.018-0.892-0.107-1.27-0.27s-0.675-0.405-0.891-0.729c-0.216-0.323-0.324-0.791-0.324-1.403
			C98.221,46.537,98.256,46.159,98.329,45.762z"/>
	</g>
	<g>
		<g>
			<g>
				<g>
					<path d="M137.415,8.349c10.3,0,20.601,0,30.9,0c0.645,0,1.288,0,1.933,0c0.743,0-0.16-1.185-0.344-0.452
						c-0.494,1.964-0.988,3.928-1.482,5.893c-1.59,6.322-3.18,12.646-4.771,18.968c-0.817,3.254-1.269,7.324-3.417,10.027
						c-3.675,4.624-11.852,2.811-13.99-2.314c-0.362-0.869-0.518-1.901-0.743-2.81c-2.495-10.034-4.989-20.068-7.483-30.103
						c-0.194-0.782-1.399-0.45-1.205,0.332c2.065,8.31,4.131,16.62,6.197,24.93c1.673,6.729,2.463,13.183,10.947,13.76
						c8.174,0.557,9.41-7.564,10.9-13.49c2.112-8.399,4.225-16.799,6.337-25.199c0.099-0.393-0.189-0.791-0.603-0.791
						c-11.059,0-22.118,0-33.177,0C136.609,7.099,136.609,8.349,137.415,8.349z"/>
				</g>
			</g>
			<g>
				<g>
					<path d="M144.884,40.255c0,4.229,0,8.456,0,12.685c0,0.341,0.284,0.625,0.625,0.625c5.604,0,11.208,0,16.812,0
						c0.341,0,0.625-0.284,0.625-0.625c0-4.166,0-8.333,0-12.499c0-0.806-1.25-0.806-1.25,0c0,3.815,0,7.631,0,11.445
						c0,1.439-0.192,0.429,0.591,0.429c-0.489,0-0.979,0-1.467,0c-2.302,0-4.604,0-6.904,0c-2.162,0-4.323,0-6.484,0
						c-0.596,0-1.191,0-1.787,0c0.542,0,0.49,1.046,0.49-0.376c0-3.895,0-7.789,0-11.684
						C146.134,39.449,144.884,39.449,144.884,40.255L144.884,40.255z"/>
				</g>
			</g>
		</g>
		<g>
			<g>
				<path d="M143.169,17.697h21.492l-5.121,20.36c0,0-0.714,4.466-5.655,4.406c-4.941-0.061-5.596-4.167-5.596-4.167L143.169,17.697
					z"/>
			</g>
		</g>
	</g>
	<g>
		<g>
			<g>
				<g>
					<path d="M173.582,8.348c10.3,0,20.601,0,30.9,0c0.645,0,1.288,0,1.933,0c0.743,0-0.16-1.185-0.344-0.452
						c-0.494,1.964-0.988,3.928-1.482,5.893c-1.59,6.322-3.18,12.646-4.771,18.968c-0.817,3.254-1.269,7.324-3.417,10.027
						c-3.675,4.624-11.852,2.811-13.99-2.314c-0.362-0.869-0.518-1.901-0.743-2.81c-2.495-10.034-4.989-20.068-7.483-30.103
						c-0.194-0.782-1.399-0.45-1.205,0.332c2.065,8.31,4.131,16.62,6.197,24.93c1.673,6.729,2.463,13.183,10.947,13.76
						c8.174,0.557,9.41-7.564,10.9-13.49c2.112-8.399,4.225-16.799,6.337-25.199c0.099-0.393-0.189-0.791-0.603-0.791
						c-11.059,0-22.118,0-33.177,0C172.776,7.098,172.776,8.348,173.582,8.348z"/>
				</g>
			</g>
			<g>
				<g>
					<path d="M181.051,40.254c0,4.229,0,8.456,0,12.685c0,0.341,0.284,0.625,0.625,0.625c5.604,0,11.208,0,16.812,0
						c0.341,0,0.625-0.284,0.625-0.625c0-4.166,0-8.333,0-12.499c0-0.806-1.25-0.806-1.25,0c0,3.815,0,7.631,0,11.445
						c0,1.439-0.192,0.429,0.591,0.429c-0.489,0-0.979,0-1.467,0c-2.302,0-4.604,0-6.904,0c-2.162,0-4.323,0-6.484,0
						c-0.596,0-1.191,0-1.787,0c0.542,0,0.49,1.046,0.49-0.376c0-3.895,0-7.789,0-11.684
						C182.301,39.448,181.051,39.448,181.051,40.254L181.051,40.254z"/>
				</g>
			</g>
		</g>
		<g>
			<g>
				<path d="M179.336,17.696h21.492l-5.121,20.36c0,0-0.714,4.466-5.655,4.406c-4.941-0.061-5.596-4.167-5.596-4.167L179.336,17.696
					z"/>
			</g>
		</g>
	</g>
</g>
<g id="take_3">
</g>
<g id="give_3">
</g>
<g id="give_2">
</g>
<g id="rewind">
</g>
<g id="Cryptkeeper">
</g>
<g id="Take_2_and_Redo">
</g>
<g id="Embryo">
</g>
<g id="I_am_Groot">
</g>
<g id="Mini_Me">
</g>
<g id="Ditto_1_">
</g>
</svg>
