<?xml version="1.0" encoding="utf-8"?>
<!-- Generator: Adobe Illustrator 16.0.0, SVG Export Plug-In . SVG Version: 6.00 Build 0)  -->
<!DOCTYPE svg PUBLIC "-//W3C//DTD SVG 1.1//EN" "http://www.w3.org/Graphics/SVG/1.1/DTD/svg11.dtd">
<svg version="1.1" xmlns="http://www.w3.org/2000/svg" xmlns:xlink="http://www.w3.org/1999/xlink" x="0px" y="0px"
	 width="209.759px" height="62.361px" viewBox="0 0 209.759 62.361" enable-background="new 0 0 209.759 62.361"
	 xml:space="preserve">
<g id="Layer_1">
</g>
<g id="Blindman">
</g>
<g id="Compliments">
</g>
<g id="HAT">
</g>
<g id="speech">
</g>
<g id="TREX_ARMS">
</g>
<g id="slim_shady">
</g>
<g id="TIMEOUT">
</g>
<g id="Truth_or_Dare">
</g>
<g id="ARM_WRESTLE">
</g>
<g id="musical_chairs">
</g>
<g id="never_have_i_ever">
</g>
<g id="Trivia">
</g>
<g id="Drink_Pulling">
</g>
<g id="Sharing_is_Caring">
</g>
<g id="Not_It">
</g>
<g id="Cocktail_of_Doom">
</g>
<g id="Heads_up">
</g>
<g id="Archenemy">
</g>
<g id="battle_of_the_sexes">
</g>
<g id="one_must_drink">
</g>
<g id="rainbow_connection">
</g>
<g id="social_drinking">
</g>
<g id="Spin_the_bottle">
</g>
<g id="accents">
</g>
<g id="Slap">
</g>
<g id="down_the_hatch">
</g>
<g id="rubiks_cube">
</g>
<g id="bar_tender">
</g>
<g id="codenames">
</g>
<g id="hand_switch">
</g>
<g id="make_a_rule">
</g>
<g id="no_guts_no_glory">
</g>
<g id="pass">
</g>
<g id="santa">
</g>
<g id="snake_eyes">
</g>
<g id="lightning_round">
</g>
<g id="Bro">
</g>
<g id="LeastDrunk">
</g>
<g id="Know_It_All">
</g>
<g id="EyeContact">
</g>
<g id="UnderGuesser">
</g>
<g id="GodSaveTheQUeen">
</g>
<g id="Ghost">
</g>
<g id="Fortune_Teller">
</g>
<g id="DrinkSwap">
</g>
<g id="DickTator">
</g>
<g id="_x34_Eyes">
</g>
<g id="BabyTalk">
</g>
<g id="Backseat_Driver">
</g>
<g id="BAtman">
</g>
<g id="bodyguard">
</g>
<g id="BuckleUp">
</g>
<g id="RockPaperScissors">
	<g>
		<path d="M15.165,41.708c-0.006-0.342-0.033-0.684-0.081-1.025s-0.123-0.676-0.225-1c-0.103-0.322-0.237-0.629-0.405-0.918
			c-0.084-0.131-0.165-0.281-0.243-0.449s-0.183-0.299-0.314-0.396c-0.169-0.035-0.313-0.064-0.433-0.09
			c-0.12-0.023-0.237-0.039-0.351-0.045c-0.114-0.006-0.231-0.008-0.352-0.008c-0.107,0-0.24,0-0.396,0H11.7
			c-0.072,0-0.18,0.008-0.324,0.025c-0.144,0.02-0.222,0.033-0.233,0.045l-0.072,0.072v3.385c0,0.107,0.107,0.189,0.324,0.242
			c0.216,0.055,0.449,0.117,0.701,0.189s0.486,0.178,0.702,0.314c0.216,0.139,0.324,0.357,0.324,0.658
			c0,0.191-0.051,0.342-0.153,0.449c-0.102,0.107-0.228,0.191-0.378,0.252c-0.149,0.061-0.312,0.1-0.485,0.117
			c-0.175,0.018-0.333,0.027-0.478,0.027H11.43c-0.107,0-0.297-0.004-0.566-0.01c-0.271-0.006-0.556-0.012-0.855-0.018
			s-0.582-0.016-0.846-0.027s-0.45-0.018-0.558-0.018c-0.12,0.012-0.231-0.016-0.333-0.08c-0.103-0.066-0.192-0.154-0.271-0.262
			s-0.138-0.223-0.18-0.342c-0.042-0.121-0.063-0.234-0.063-0.342c0-0.229,0.055-0.406,0.162-0.531
			c0.108-0.127,0.246-0.219,0.414-0.279s0.352-0.096,0.549-0.107c0.198-0.012,0.388-0.02,0.567-0.02
			c0.023-0.023,0.054-0.059,0.09-0.107c0.036-0.047,0.054-0.084,0.054-0.107L9.559,37.29v-0.361L9.45,32.7l-0.145-0.145l-1.134-0.27
			c-0.156-0.049-0.252-0.154-0.288-0.316S7.83,31.667,7.83,31.548c0-0.191,0.048-0.381,0.145-0.566
			c0.096-0.188,0.258-0.279,0.485-0.279h2.754c0.132-0.072,0.252-0.111,0.36-0.117c0.107-0.006,0.228-0.01,0.36-0.01
			c0.623,0,1.251,0.043,1.881,0.127s1.196,0.252,1.701,0.504c0.504,0.252,0.911,0.615,1.224,1.088
			c0.312,0.475,0.468,1.102,0.468,1.881c0,0.336-0.03,0.693-0.09,1.072c-0.061,0.377-0.198,0.705-0.414,0.98
			c-0.072,0.096-0.165,0.186-0.279,0.27s-0.225,0.168-0.333,0.252c-0.107,0.084-0.197,0.178-0.27,0.279s-0.108,0.225-0.108,0.369
			v0.162c0.24,0.371,0.429,0.789,0.567,1.25c0.138,0.463,0.255,0.893,0.351,1.287c0.036,0.145,0.057,0.334,0.063,0.568
			c0.006,0.234,0.057,0.422,0.152,0.566c0.084,0.133,0.187,0.223,0.307,0.27c0.12,0.049,0.239,0.09,0.359,0.127
			c0.12,0.035,0.24,0.084,0.36,0.145c0.12,0.059,0.222,0.16,0.306,0.305c0.108,0.168,0.174,0.283,0.198,0.342
			c0.024,0.061,0.036,0.168,0.036,0.324c0,0.205-0.066,0.402-0.198,0.594c-0.132,0.193-0.317,0.289-0.558,0.289h-0.036
			c-0.216-0.037-0.456-0.051-0.72-0.045c-0.265,0.006-0.517-0.006-0.756-0.037c-0.24-0.029-0.453-0.104-0.64-0.225
			c-0.186-0.119-0.303-0.324-0.351-0.611C15.168,42.384,15.171,42.05,15.165,41.708z M11.232,32.501
			c-0.108,0.037-0.162,0.104-0.162,0.199v3.096c0,0.035,0.018,0.096,0.054,0.18s0.065,0.145,0.09,0.18h0.414
			c0.156,0,0.307-0.012,0.45-0.035c0.144-0.025,0.288-0.037,0.432-0.037c0.181,0,0.354,0.012,0.522,0.037
			c0.168,0.023,0.348,0.035,0.54,0.035h0.594c0.432-0.131,0.789-0.338,1.071-0.621c0.281-0.281,0.423-0.656,0.423-1.125
			c0-0.275-0.036-0.549-0.108-0.818c-0.071-0.27-0.228-0.496-0.468-0.676c-0.456-0.203-0.936-0.338-1.439-0.404
			c-0.505-0.066-1.009-0.1-1.513-0.1c-0.06,0-0.168,0-0.323,0c-0.156,0-0.265,0.006-0.324,0.018
			C11.424,32.442,11.34,32.466,11.232,32.501z"/>
		<path d="M20.745,37.11c0.162-0.637,0.417-1.201,0.766-1.693c0.348-0.492,0.794-0.885,1.341-1.178
			c0.546-0.295,1.196-0.441,1.953-0.441c0.575,0,1.073,0.111,1.493,0.332c0.42,0.223,0.84,0.514,1.261,0.873
			c0.012,0.012,0.023,0.027,0.036,0.045c0.012,0.02,0.023,0.027,0.035,0.027c0.145,0.277,0.291,0.549,0.441,0.818
			c0.149,0.271,0.288,0.547,0.414,0.828c0.126,0.283,0.228,0.57,0.306,0.865c0.078,0.293,0.117,0.596,0.117,0.908
			c0,0.037-0.003,0.105-0.009,0.207s-0.009,0.166-0.009,0.189c-0.024,0.072-0.058,0.201-0.1,0.387s-0.09,0.385-0.144,0.594
			c-0.054,0.211-0.105,0.412-0.153,0.604s-0.078,0.324-0.09,0.396c-0.097,0.324-0.261,0.666-0.495,1.025s-0.507,0.688-0.819,0.98
			c-0.312,0.295-0.65,0.537-1.017,0.73c-0.366,0.191-0.729,0.287-1.089,0.287c-0.18,0-0.318-0.012-0.414-0.035
			c-0.097-0.025-0.177-0.055-0.243-0.092c-0.066-0.035-0.135-0.074-0.207-0.115c-0.072-0.043-0.174-0.082-0.306-0.117
			c-0.061-0.012-0.174-0.031-0.342-0.055c-0.169-0.023-0.288-0.047-0.36-0.072c-0.061-0.023-0.142-0.063-0.243-0.117
			c-0.102-0.053-0.204-0.107-0.306-0.162c-0.103-0.053-0.198-0.102-0.288-0.143c-0.09-0.043-0.142-0.07-0.153-0.082
			c-0.24-0.156-0.459-0.396-0.657-0.721c-0.197-0.322-0.368-0.672-0.513-1.043c-0.144-0.371-0.255-0.744-0.333-1.115
			c-0.078-0.373-0.117-0.691-0.117-0.955C20.502,38.399,20.583,37.745,20.745,37.11z M22.077,39.485
			c0.019,0.168,0.045,0.336,0.081,0.504s0.081,0.328,0.135,0.477c0.055,0.15,0.117,0.262,0.189,0.334l0.846,0.846
			c0.132,0.035,0.237,0.061,0.315,0.072c0.077,0.012,0.158,0.023,0.243,0.035c0.083,0.012,0.155,0.02,0.216,0.02
			c0.012,0.012,0.096,0.018,0.252,0.018c0.168,0,0.294,0,0.378,0c0.24,0,0.446-0.004,0.621-0.01
			c0.174-0.006,0.369-0.051,0.585-0.135c0.516-0.42,0.857-0.873,1.025-1.359s0.252-1.047,0.252-1.684
			c0-0.371-0.039-0.717-0.116-1.033c-0.078-0.318-0.184-0.652-0.315-1c-0.061-0.156-0.159-0.285-0.297-0.387s-0.288-0.191-0.45-0.27
			s-0.33-0.146-0.504-0.207s-0.321-0.127-0.441-0.199h-1.134c-0.012,0-0.09,0.045-0.233,0.135c-0.145,0.092-0.252,0.16-0.324,0.207
			c-0.288,0.205-0.52,0.428-0.693,0.666c-0.174,0.24-0.312,0.496-0.414,0.766c-0.102,0.27-0.168,0.555-0.197,0.855
			c-0.03,0.301-0.046,0.617-0.046,0.953C22.05,39.187,22.06,39.317,22.077,39.485z"/>
		<path d="M31.222,37.136c0.162-0.617,0.407-1.176,0.737-1.674s0.744-0.906,1.242-1.223c0.498-0.318,1.083-0.479,1.755-0.479
			c0.061,0,0.138,0,0.234,0c0.108,0,0.168,0.008,0.18,0.02c0.048,0,0.142,0.014,0.279,0.045c0.138,0.029,0.282,0.063,0.432,0.098
			c0.15,0.037,0.291,0.076,0.424,0.117c0.132,0.043,0.222,0.07,0.27,0.082c0.191,0.168,0.393,0.342,0.603,0.521
			s0.402,0.375,0.576,0.584c0.174,0.211,0.315,0.439,0.423,0.686c0.108,0.246,0.162,0.506,0.162,0.783
			c0,0.18-0.026,0.361-0.081,0.549c-0.054,0.186-0.132,0.35-0.233,0.494c-0.103,0.145-0.229,0.262-0.378,0.352
			c-0.15,0.09-0.327,0.135-0.531,0.135c-0.372,0-0.684-0.133-0.937-0.396C36.126,37.565,36,37.253,36,36.894
			c0-0.156,0.024-0.297,0.072-0.424c0.048-0.125,0.072-0.271,0.072-0.439v-0.289c-0.013-0.012-0.061-0.061-0.145-0.145
			c-0.084-0.082-0.155-0.125-0.216-0.125h-1.188c-0.024,0-0.088,0.016-0.189,0.045s-0.183,0.057-0.243,0.08
			c-0.323,0.145-0.591,0.322-0.801,0.531c-0.21,0.211-0.375,0.447-0.495,0.711c-0.12,0.266-0.204,0.553-0.252,0.865
			s-0.072,0.635-0.072,0.971c0,0.301,0.03,0.633,0.091,1c0.06,0.365,0.174,0.674,0.342,0.926c0.036,0.037,0.096,0.1,0.18,0.189
			s0.174,0.184,0.271,0.279c0.096,0.096,0.188,0.186,0.278,0.27s0.153,0.145,0.189,0.18c0.036,0.037,0.096,0.082,0.18,0.137
			c0.084,0.053,0.138,0.08,0.162,0.08h1.548c0.192,0,0.36-0.051,0.504-0.152c0.145-0.102,0.273-0.229,0.388-0.379
			c0.113-0.15,0.216-0.314,0.306-0.494s0.183-0.346,0.279-0.496c0.096-0.148,0.197-0.275,0.306-0.377s0.234-0.154,0.378-0.154
			c0.216,0,0.372,0.082,0.468,0.244c0.097,0.162,0.145,0.346,0.145,0.549c0,0.42-0.105,0.816-0.315,1.188
			c-0.21,0.373-0.479,0.699-0.81,0.98c-0.33,0.283-0.699,0.508-1.107,0.676s-0.81,0.252-1.206,0.252
			c-0.588,0-1.134-0.137-1.638-0.414c-0.504-0.275-0.942-0.633-1.314-1.07s-0.663-0.934-0.873-1.486
			c-0.21-0.551-0.314-1.104-0.314-1.654C30.979,38.358,31.06,37.755,31.222,37.136z"/>
		<path d="M40.68,42.509c0.024-0.107,0.061-0.215,0.108-0.324c0.048-0.107,0.102-0.199,0.162-0.277
			c0.06-0.078,0.119-0.117,0.18-0.117h1.206l0.216-0.072c0.024-0.012,0.084-0.037,0.18-0.072v-2.537l0.091-0.344v-5.867
			c0-0.084-0.03-0.174-0.091-0.27c-0.06-0.096-0.12-0.168-0.18-0.217c-0.18,0-0.372,0-0.576,0c-0.191,0-0.366-0.018-0.521-0.053
			c-0.156-0.037-0.285-0.109-0.388-0.217c-0.102-0.107-0.152-0.275-0.152-0.504c0-0.301,0.126-0.527,0.378-0.684
			s0.516-0.234,0.792-0.234h0.107c0.024,0,0.097,0.012,0.217,0.035c0.119,0.025,0.191,0.037,0.216,0.037h0.036h0.036
			c0.023,0,0.093-0.012,0.207-0.037c0.113-0.023,0.183-0.035,0.207-0.035h0.035c0.276,0,0.531,0.08,0.766,0.242
			c0.233,0.162,0.369,0.387,0.404,0.676c-0.023,0.385-0.018,0.707,0.019,0.973c0.036,0.264,0.054,0.563,0.054,0.898
			c0,0.098-0.003,0.182-0.009,0.252c-0.006,0.072-0.027,0.162-0.063,0.271v4.014c0,0.047,0.019,0.074,0.055,0.08
			s0.065,0.01,0.09,0.01c0.036-0.012,0.06-0.018,0.072-0.018c0.071-0.072,0.197-0.195,0.378-0.369
			c0.18-0.174,0.371-0.363,0.576-0.568c0.203-0.203,0.393-0.395,0.566-0.574c0.174-0.182,0.297-0.307,0.369-0.379
			c0.023-0.023,0.072-0.084,0.144-0.18c0.072-0.096,0.12-0.156,0.145-0.18c-0.132-0.133-0.273-0.273-0.423-0.424
			c-0.15-0.15-0.226-0.326-0.226-0.531c0-0.191,0.066-0.338,0.198-0.441c0.132-0.102,0.282-0.176,0.45-0.225c0.036,0,0.096,0,0.18,0
			s0.177-0.002,0.279-0.008c0.102-0.006,0.195-0.01,0.279-0.01c0.083,0,0.144,0,0.18,0c0.18,0,0.429-0.002,0.747-0.01
			c0.317-0.006,0.63,0.02,0.936,0.072c0.307,0.055,0.573,0.15,0.802,0.289c0.228,0.137,0.342,0.357,0.342,0.656
			c0,0.205-0.039,0.352-0.117,0.441s-0.177,0.152-0.297,0.189c-0.12,0.035-0.259,0.053-0.414,0.053c-0.145,0-0.294,0.006-0.45,0.02
			c-0.18,0.012-0.351,0.07-0.513,0.18c-0.162,0.107-0.321,0.232-0.478,0.377s-0.297,0.289-0.423,0.432
			c-0.126,0.145-0.243,0.26-0.351,0.344c-0.084,0.07-0.178,0.137-0.279,0.197s-0.195,0.119-0.279,0.18s-0.152,0.133-0.207,0.217
			c-0.054,0.084-0.081,0.197-0.081,0.342c0,0.252,0.091,0.498,0.271,0.738s0.348,0.461,0.504,0.666
			c0.012,0.023,0.054,0.074,0.126,0.152s0.15,0.164,0.234,0.262c0.083,0.096,0.158,0.186,0.225,0.27
			c0.065,0.084,0.104,0.137,0.117,0.162c0.144,0.203,0.261,0.414,0.351,0.629c0.09,0.217,0.237,0.402,0.441,0.559
			c0.24,0,0.471,0.004,0.693,0.01c0.222,0.006,0.426,0.035,0.611,0.09c0.187,0.053,0.348,0.146,0.486,0.279
			c0.138,0.131,0.243,0.336,0.314,0.611c0,0.012,0.003,0.051,0.01,0.117c0.006,0.066,0.009,0.111,0.009,0.135
			c0,0.133-0.033,0.24-0.1,0.324c-0.065,0.084-0.146,0.152-0.242,0.207c-0.097,0.053-0.204,0.096-0.324,0.125
			c-0.12,0.031-0.234,0.059-0.342,0.082h-1.099h-1.08c-0.096,0-0.246-0.018-0.449-0.055c-0.204-0.035-0.36-0.066-0.469-0.09
			c-0.096-0.023-0.191-0.066-0.288-0.125c-0.096-0.061-0.191-0.092-0.287-0.092c-0.169,0-0.34,0.061-0.514,0.182
			c-0.174,0.119-0.363,0.18-0.566,0.18c-0.169,0-0.333-0.012-0.495-0.037c-0.162-0.023-0.327-0.035-0.495-0.035
			c-0.288,0-0.57,0.012-0.846,0.035c-0.276,0.025-0.559,0.037-0.847,0.037h-0.81c-0.265-0.049-0.507-0.129-0.729-0.244
			c-0.222-0.113-0.333-0.326-0.333-0.639C40.644,42.696,40.655,42.618,40.68,42.509z M45.018,39.396
			c-0.107,0.096-0.204,0.191-0.288,0.287c-0.035,0.037-0.09,0.098-0.162,0.182c-0.071,0.084-0.129,0.152-0.171,0.207
			c-0.042,0.053-0.068,0.086-0.081,0.098v1.477c0,0.084,0.072,0.156,0.217,0.217c0.144,0.059,0.306,0.113,0.485,0.162
			c0.181,0.047,0.354,0.086,0.522,0.115c0.168,0.031,0.275,0.059,0.324,0.082c0.023,0.012,0.071,0.049,0.144,0.107
			c0.072,0.061,0.12,0.09,0.145,0.09c0,0.012,0.012,0.018,0.035,0.018c0.024,0,0.048,0,0.072,0c0.132,0,0.276-0.07,0.432-0.215
			c0.156-0.145,0.234-0.289,0.234-0.432c0-0.084-0.072-0.264-0.216-0.541c-0.145-0.275-0.306-0.561-0.486-0.855
			c-0.18-0.293-0.354-0.557-0.521-0.791c-0.169-0.234-0.276-0.352-0.324-0.352C45.246,39.251,45.126,39.3,45.018,39.396z"/>
		<path d="M53.064,42.231c0.012-0.115,0.038-0.223,0.081-0.324c0.042-0.104,0.099-0.189,0.171-0.262s0.168-0.107,0.288-0.107h1.836
			l0.144-0.162V36.3c0.012-0.516,0.039-1.008,0.081-1.477c0.042-0.467,0.063-0.953,0.063-1.457v-0.594
			c-0.024-0.061-0.058-0.133-0.1-0.217s-0.104-0.133-0.188-0.145h-0.414c-0.168,0-0.327,0.012-0.478,0.037
			c-0.149,0.023-0.309,0.035-0.477,0.035c-0.3,0-0.525-0.09-0.675-0.27c-0.15-0.18-0.226-0.408-0.226-0.684
			c0-0.084,0.012-0.184,0.036-0.297c0.024-0.115,0.063-0.217,0.117-0.307s0.12-0.168,0.198-0.234s0.177-0.1,0.297-0.1
			c0.036,0,0.09-0.002,0.162-0.008s0.149-0.01,0.233-0.01s0.162,0,0.234,0s0.12,0,0.144,0c0.24,0,0.462,0.016,0.666,0.045
			c0.204,0.031,0.42,0.045,0.648,0.045c0.096,0,0.177-0.006,0.243-0.018c0.065-0.012,0.159-0.029,0.279-0.055h3.023
			c0.012,0,0.06,0.01,0.145,0.027c0.083,0.018,0.177,0.037,0.278,0.055c0.103,0.018,0.207,0.039,0.315,0.063
			c0.107,0.023,0.191,0.043,0.252,0.055c0.264,0.061,0.516,0.15,0.756,0.27s0.462,0.264,0.666,0.432
			c0.108,0.096,0.23,0.25,0.369,0.459c0.138,0.211,0.267,0.441,0.387,0.693s0.222,0.494,0.306,0.729s0.127,0.412,0.127,0.531v1.477
			c0,0.299-0.103,0.633-0.307,0.998c-0.204,0.367-0.456,0.711-0.756,1.035s-0.627,0.594-0.981,0.811
			c-0.354,0.217-0.681,0.324-0.98,0.324h-2.61l-0.071,0.072c-0.024,0.143-0.046,0.297-0.063,0.459s-0.045,0.314-0.081,0.459v1.764
			l0.072,0.145c0.012,0.012,0.036,0.041,0.072,0.09h1.836c0.119,0,0.222,0.035,0.306,0.107s0.156,0.156,0.216,0.252
			c0.061,0.096,0.105,0.205,0.135,0.324c0.03,0.119,0.045,0.223,0.045,0.307v0.322c-0.119,0.17-0.278,0.307-0.477,0.414
			c-0.198,0.109-0.399,0.162-0.603,0.162c-0.192,0-0.36-0.012-0.505-0.035c-0.144-0.023-0.323-0.066-0.539-0.127h-2.179
			c-0.204,0.109-0.423,0.195-0.657,0.262c-0.233,0.066-0.471,0.1-0.711,0.1c-0.323,0-0.6-0.1-0.827-0.297
			c-0.229-0.199-0.343-0.465-0.343-0.801C53.046,42.444,53.052,42.345,53.064,42.231z M57.42,36.858
			c0.024,0,0.117,0.002,0.279,0.008s0.285,0.01,0.369,0.01c0.432,0,0.854-0.023,1.269-0.072s0.78-0.152,1.099-0.314
			c0.317-0.162,0.575-0.4,0.773-0.711c0.198-0.313,0.297-0.738,0.297-1.279c0-0.516-0.116-0.914-0.351-1.197
			c-0.234-0.281-0.531-0.488-0.891-0.621c-0.36-0.131-0.754-0.209-1.18-0.232c-0.426-0.025-0.831-0.037-1.215-0.037h-0.594
			l-0.072,0.072c0,0.023-0.003,0.105-0.009,0.242c-0.006,0.139-0.009,0.238-0.009,0.299c0,0.131-0.003,0.316-0.01,0.557
			c-0.006,0.24,0.039,0.439,0.136,0.594v2.611L57.42,36.858z"/>
		<path d="M65.592,39.009c0.288-0.402,0.647-0.695,1.08-0.883c0.432-0.186,0.902-0.299,1.413-0.342
			c0.51-0.041,0.98-0.08,1.412-0.117c0.433-0.035,0.792-0.102,1.08-0.197s0.433-0.289,0.433-0.576c0-0.203-0.036-0.396-0.108-0.576
			s-0.204-0.324-0.396-0.432c-0.072-0.037-0.181-0.09-0.324-0.162c-0.145-0.072-0.223-0.107-0.234-0.107h-1.691
			c-0.097,0-0.162,0.051-0.198,0.152s-0.069,0.229-0.1,0.379c-0.029,0.148-0.063,0.314-0.099,0.494s-0.093,0.346-0.171,0.494
			c-0.078,0.15-0.192,0.277-0.342,0.379c-0.15,0.102-0.352,0.152-0.604,0.152c-0.384,0-0.699-0.125-0.944-0.377
			c-0.246-0.252-0.369-0.564-0.369-0.938c0-0.215,0.036-0.406,0.107-0.574c0.072-0.168,0.168-0.324,0.288-0.469
			s0.258-0.279,0.414-0.404c0.156-0.127,0.313-0.244,0.468-0.352c0.133-0.096,0.271-0.201,0.414-0.314
			c0.145-0.115,0.313-0.172,0.505-0.172l2.754,0.035c0.155,0,0.339,0.066,0.549,0.197c0.21,0.133,0.414,0.287,0.611,0.467
			c0.198,0.18,0.372,0.371,0.522,0.574c0.149,0.201,0.243,0.375,0.279,0.518c0.012,0.037,0.029,0.102,0.054,0.197
			c0.023,0.096,0.048,0.195,0.072,0.297c0.023,0.102,0.045,0.197,0.063,0.287c0.019,0.088,0.027,0.152,0.027,0.188v0.555
			c0,0.145,0.003,0.309,0.009,0.494c0.006,0.184-0.021,0.348-0.081,0.492v3.027c0,0.334,0.145,0.502,0.433,0.502
			c0.191,0,0.312-0.084,0.359-0.252s0.09-0.357,0.126-0.566c0.036-0.211,0.093-0.4,0.171-0.568s0.243-0.252,0.495-0.252
			c0.132,0,0.246,0.037,0.342,0.109c0.097,0.072,0.174,0.162,0.234,0.27c0.06,0.107,0.102,0.225,0.126,0.352
			c0.023,0.125,0.036,0.248,0.036,0.369c0,0.264-0.042,0.527-0.126,0.791s-0.201,0.502-0.352,0.711
			c-0.149,0.211-0.336,0.381-0.558,0.514c-0.222,0.131-0.477,0.197-0.765,0.197c-0.229,0-0.427-0.027-0.595-0.08
			c-0.168-0.055-0.354-0.148-0.558-0.279c-0.072-0.037-0.135-0.094-0.189-0.172c-0.054-0.078-0.107-0.156-0.161-0.234
			c-0.055-0.076-0.114-0.146-0.181-0.207c-0.065-0.059-0.141-0.09-0.225-0.09h-0.09c-0.169,0.084-0.34,0.188-0.514,0.307
			c-0.174,0.121-0.351,0.236-0.53,0.352c-0.181,0.113-0.366,0.209-0.559,0.287c-0.191,0.078-0.39,0.117-0.594,0.117h-1.62
			c-0.132,0-0.246-0.033-0.342-0.1c-0.097-0.064-0.192-0.129-0.288-0.188c-0.492-0.289-0.849-0.646-1.071-1.072
			c-0.222-0.426-0.333-0.92-0.333-1.484C65.159,39.983,65.304,39.411,65.592,39.009z M66.617,41.052
			c0.036,0.133,0.087,0.26,0.153,0.387c0.065,0.127,0.146,0.23,0.243,0.314c0.096,0.084,0.204,0.127,0.324,0.127h1.836
			c0.012,0,0.051-0.018,0.116-0.055c0.066-0.035,0.123-0.066,0.172-0.09c0.023-0.023,0.081-0.061,0.171-0.107
			c0.09-0.049,0.146-0.078,0.171-0.09c0.443-0.301,0.744-0.613,0.899-0.938c0.156-0.322,0.234-0.742,0.234-1.26v-0.215
			c-0.012,0-0.036-0.01-0.072-0.027s-0.06-0.027-0.071-0.027c-0.013-0.012-0.024-0.018-0.036-0.018l-0.036,0.018
			c-0.036,0-0.135,0.016-0.297,0.045c-0.162,0.031-0.333,0.061-0.514,0.09c-0.18,0.031-0.351,0.061-0.513,0.09
			c-0.162,0.031-0.261,0.045-0.297,0.045c-0.288,0.049-0.579,0.084-0.873,0.109c-0.294,0.023-0.591,0.059-0.891,0.107
			c-0.156,0.012-0.295,0.107-0.414,0.287c-0.061,0.084-0.136,0.217-0.226,0.396s-0.135,0.336-0.135,0.469
			C66.563,40.806,66.581,40.919,66.617,41.052z"/>
		<path d="M76.94,45.636c0.018-0.098,0.051-0.193,0.099-0.285s0.105-0.168,0.171-0.229c0.066-0.063,0.153-0.092,0.262-0.092h1.422
			l0.126-0.18c0.012-0.455,0.042-0.895,0.09-1.318c0.048-0.426,0.072-0.859,0.072-1.301c0-0.168-0.016-0.324-0.045-0.467
			c-0.03-0.145-0.045-0.293-0.045-0.449v-0.107c0.012-0.023,0.026-0.096,0.045-0.215c0.018-0.121,0.026-0.191,0.026-0.217v-0.035
			c0-0.107-0.012-0.213-0.036-0.314c-0.023-0.102-0.035-0.205-0.035-0.314c0-0.189,0.015-0.375,0.045-0.555
			c0.029-0.18,0.045-0.371,0.045-0.574c0-0.24-0.016-0.473-0.045-0.701c-0.03-0.227-0.045-0.459-0.045-0.699
			c0-0.215,0.015-0.424,0.045-0.627c0.029-0.203,0.045-0.414,0.045-0.629c0-0.035-0.003-0.113-0.009-0.232
			c-0.007-0.119-0.01-0.197-0.01-0.234c-0.132-0.18-0.314-0.289-0.549-0.332c-0.233-0.041-0.468-0.076-0.702-0.107
			c-0.233-0.029-0.438-0.08-0.611-0.152c-0.175-0.07-0.262-0.227-0.262-0.467c0-0.18,0.039-0.322,0.117-0.43
			s0.177-0.191,0.297-0.252c0.12-0.059,0.252-0.102,0.396-0.125c0.144-0.023,0.288-0.035,0.432-0.035
			c0.228,0,0.462,0.002,0.702,0.008s0.468,0.037,0.684,0.09c0.217,0.055,0.411,0.145,0.585,0.27s0.304,0.309,0.388,0.547
			c0.012,0.012,0.023,0.018,0.036,0.018h0.035c0.084,0,0.195-0.057,0.333-0.17c0.139-0.113,0.243-0.201,0.315-0.26
			c0.012-0.012,0.042-0.045,0.09-0.1c0.048-0.053,0.1-0.107,0.153-0.16c0.054-0.055,0.104-0.105,0.153-0.152
			c0.047-0.049,0.077-0.072,0.09-0.072c0.012-0.012,0.048-0.021,0.107-0.027c0.061-0.006,0.126-0.012,0.198-0.018
			s0.141-0.012,0.207-0.018c0.065-0.006,0.104-0.01,0.117-0.01c0.023-0.012,0.084-0.027,0.18-0.045s0.156-0.027,0.18-0.027
			c0.013,0,0.075-0.002,0.189-0.008s0.201-0.01,0.261-0.01c0.564,0,1.065,0.15,1.503,0.449c0.438,0.301,0.804,0.68,1.099,1.135
			c0.294,0.457,0.519,0.957,0.675,1.504c0.155,0.545,0.233,1.059,0.233,1.539c0,0.504-0.032,0.975-0.099,1.412
			s-0.18,0.846-0.342,1.225c-0.162,0.377-0.385,0.732-0.666,1.061c-0.282,0.33-0.646,0.641-1.089,0.928
			c-0.133,0.084-0.249,0.152-0.352,0.207c-0.102,0.055-0.201,0.096-0.297,0.127c-0.096,0.029-0.204,0.051-0.324,0.063
			s-0.258,0.018-0.413,0.018c-0.169,0-0.307,0.004-0.414,0.01c-0.108,0.006-0.24-0.021-0.396-0.082
			c-0.12-0.047-0.243-0.117-0.369-0.207s-0.252-0.182-0.378-0.279c-0.126-0.096-0.255-0.18-0.387-0.252s-0.259-0.107-0.378-0.107
			c-0.061,0-0.117,0.018-0.171,0.055c-0.055,0.035-0.081,0.09-0.081,0.162v2.074l0.144,0.176h1.278c0.107,0,0.198,0.033,0.27,0.1
			c0.072,0.068,0.129,0.15,0.171,0.248s0.072,0.199,0.091,0.303c0.018,0.105,0.026,0.199,0.026,0.285
			c0,0.232-0.081,0.441-0.243,0.625c-0.161,0.184-0.362,0.275-0.603,0.275h-3.6c-0.133,0-0.271-0.021-0.414-0.064
			c-0.145-0.043-0.279-0.107-0.405-0.193s-0.231-0.188-0.315-0.303c-0.084-0.117-0.126-0.248-0.126-0.395
			C76.913,45.825,76.923,45.733,76.94,45.636z M81.08,40.341c0.126,0.281,0.288,0.531,0.486,0.746
			c0.198,0.217,0.426,0.391,0.684,0.523c0.259,0.131,0.562,0.197,0.909,0.197c0.264,0,0.52-0.066,0.766-0.197
			c0.245-0.133,0.461-0.305,0.647-0.514c0.187-0.211,0.336-0.447,0.45-0.711s0.183-0.521,0.207-0.773v-0.775
			c0-0.324-0.009-0.607-0.027-0.854c-0.018-0.246-0.057-0.479-0.117-0.693c-0.06-0.217-0.149-0.43-0.27-0.639
			c-0.12-0.211-0.288-0.447-0.504-0.711c-0.072-0.098-0.171-0.213-0.297-0.352s-0.262-0.207-0.405-0.207h-1.278
			c-0.144,0.133-0.261,0.242-0.351,0.332s-0.18,0.184-0.271,0.279c-0.09,0.096-0.165,0.174-0.225,0.234
			c-0.324,0.359-0.521,0.734-0.594,1.125s-0.108,0.824-0.108,1.305v0.811C80.855,39.769,80.954,40.06,81.08,40.341z"/>
		<path d="M88.982,37.901c0.065-0.443,0.177-0.867,0.333-1.27c0.155-0.4,0.362-0.773,0.621-1.115
			c0.258-0.342,0.585-0.621,0.98-0.838c0.036-0.023,0.102-0.059,0.198-0.107c0.096-0.047,0.198-0.1,0.306-0.152
			c0.108-0.055,0.207-0.102,0.297-0.145c0.091-0.041,0.153-0.068,0.189-0.08c0.132-0.061,0.267-0.088,0.405-0.082
			c0.138,0.006,0.272,0.01,0.404,0.01c0.769,0,1.416,0.182,1.944,0.549c0.528,0.365,1.02,0.836,1.476,1.412
			c0.048,0.072,0.111,0.207,0.189,0.406c0.078,0.197,0.149,0.414,0.216,0.646c0.066,0.234,0.123,0.463,0.171,0.686
			c0.048,0.221,0.072,0.387,0.072,0.494c0,0.023-0.003,0.074-0.009,0.152c-0.007,0.078-0.009,0.129-0.009,0.154
			c-0.108,0.18-0.253,0.299-0.433,0.359s-0.366,0.107-0.558,0.145c-0.133,0-0.369-0.004-0.711-0.01s-0.705-0.008-1.089-0.008
			c-0.372,0-0.729,0.002-1.071,0.008s-0.579,0.01-0.711,0.01c-0.133,0-0.291,0.002-0.478,0.008c-0.186,0.008-0.368,0.014-0.549,0.02
			c-0.18,0.006-0.402,0.021-0.666,0.045l-0.072,0.055c0,0.012-0.003,0.053-0.009,0.127c-0.006,0.072-0.009,0.119-0.009,0.145
			c0,0.35,0.063,0.682,0.189,0.996c0.126,0.313,0.3,0.588,0.521,0.824c0.222,0.234,0.483,0.422,0.783,0.561s0.63,0.209,0.99,0.209
			c0.036,0,0.116-0.004,0.242-0.01c0.127-0.006,0.207-0.01,0.243-0.01c0.168-0.131,0.36-0.225,0.576-0.277
			c0.216-0.055,0.402-0.148,0.559-0.279c0.119-0.109,0.23-0.24,0.333-0.396c0.102-0.156,0.209-0.307,0.323-0.449
			c0.114-0.145,0.237-0.266,0.369-0.361s0.294-0.145,0.486-0.145c0.18,0,0.326,0.055,0.44,0.162
			c0.114,0.109,0.172,0.246,0.172,0.414c0,0.277-0.061,0.525-0.181,0.748s-0.252,0.441-0.396,0.656
			c-0.36,0.521-0.835,0.895-1.422,1.121c-0.589,0.225-1.194,0.338-1.818,0.338c-0.612,0-1.164-0.121-1.656-0.361
			c-0.492-0.238-0.906-0.563-1.242-0.971s-0.594-0.879-0.773-1.414c-0.181-0.533-0.271-1.094-0.271-1.682
			C88.883,38.778,88.916,38.345,88.982,37.901z M90.575,37.649c0,0.035,0.023,0.055,0.072,0.055h4.157
			c0.024,0,0.058-0.016,0.1-0.045c0.042-0.031,0.074-0.057,0.099-0.082c0.012-0.023,0.019-0.066,0.019-0.125
			c0-0.061,0-0.102,0-0.127c0-0.287-0.072-0.531-0.217-0.729c-0.144-0.197-0.323-0.354-0.54-0.469
			c-0.216-0.113-0.452-0.197-0.711-0.252c-0.258-0.053-0.501-0.08-0.729-0.08c-0.252,0-0.511,0.033-0.774,0.098
			c-0.264,0.066-0.504,0.172-0.72,0.316c-0.216,0.143-0.396,0.326-0.54,0.549c-0.144,0.223-0.216,0.482-0.216,0.783
			C90.575,37.565,90.575,37.603,90.575,37.649z"/>
		<path d="M99.278,41.952c0.186-0.156,0.417-0.234,0.693-0.234c0.168,0,0.333,0.016,0.495,0.045
			c0.161,0.029,0.333,0.045,0.513,0.045c0.048,0,0.117-0.004,0.207-0.01s0.141-0.008,0.153-0.008l0.071-0.072
			c0-0.049,0.003-0.127,0.009-0.234s0.013-0.225,0.019-0.352c0.006-0.125,0.015-0.246,0.027-0.359
			c0.012-0.113,0.018-0.195,0.018-0.242c0-0.025,0.009-0.084,0.027-0.182c0.018-0.096,0.032-0.154,0.045-0.18l-0.036-1.764v-0.342
			l-0.108-2.123l-0.144-0.145c-0.061,0-0.162-0.004-0.307-0.01c-0.144-0.006-0.3-0.012-0.468-0.018s-0.324-0.016-0.468-0.027
			s-0.246-0.018-0.306-0.018c-0.24-0.023-0.441-0.117-0.604-0.279s-0.243-0.363-0.243-0.604c0-0.238,0.072-0.445,0.217-0.621
			c0.144-0.174,0.342-0.26,0.594-0.26c0.012,0,0.029,0,0.054,0c0.036,0,0.054,0.006,0.054,0.018c0.192,0.023,0.43,0.027,0.711,0.01
			c0.282-0.02,0.567-0.021,0.855-0.01s0.558,0.051,0.81,0.117s0.444,0.189,0.576,0.369c0.024,0.023,0.048,0.074,0.072,0.152
			c0.023,0.078,0.051,0.16,0.081,0.244c0.029,0.084,0.065,0.154,0.107,0.215s0.087,0.09,0.136,0.09h0.036
			c0.371-0.299,0.771-0.576,1.196-0.828s0.885-0.377,1.377-0.377c0.3,0,0.591,0.051,0.873,0.152s0.525,0.244,0.729,0.424
			s0.369,0.398,0.495,0.656s0.188,0.543,0.188,0.855c0,0.443-0.105,0.822-0.314,1.133c-0.21,0.313-0.567,0.469-1.071,0.469
			c-0.24,0-0.432-0.074-0.576-0.225c-0.144-0.15-0.258-0.334-0.342-0.549c-0.084-0.217-0.142-0.441-0.171-0.676
			c-0.03-0.234-0.052-0.434-0.063-0.604c-0.012-0.059-0.048-0.09-0.107-0.09c-0.061,0-0.103,0-0.126,0
			c-0.061,0-0.117,0.004-0.171,0.01c-0.055,0.006-0.105,0.033-0.153,0.08c-0.048,0.037-0.126,0.109-0.234,0.217
			c-0.107,0.107-0.222,0.223-0.342,0.342c-0.12,0.121-0.234,0.234-0.342,0.342c-0.108,0.109-0.18,0.18-0.216,0.217
			c-0.049,0.047-0.117,0.129-0.207,0.242c-0.09,0.115-0.178,0.238-0.262,0.369c-0.084,0.133-0.155,0.262-0.216,0.387
			c-0.06,0.127-0.09,0.219-0.09,0.279v2.035c0.012,0.023,0.027,0.084,0.045,0.18c0.019,0.096,0.027,0.156,0.027,0.18
			c0,0.035,0.006,0.107,0.018,0.215c0.012,0.109,0.021,0.223,0.027,0.344c0.006,0.119,0.012,0.232,0.018,0.342
			c0.006,0.107,0.01,0.186,0.01,0.232c0.048,0.133,0.119,0.211,0.216,0.234c0.096,0.025,0.21,0.037,0.342,0.037
			s0.267-0.012,0.405-0.037c0.138-0.023,0.272-0.035,0.404-0.035c0.276,0,0.528,0.074,0.757,0.225
			c0.228,0.15,0.342,0.369,0.342,0.656c0,0.24-0.055,0.43-0.162,0.568c-0.108,0.137-0.249,0.24-0.423,0.305
			c-0.175,0.066-0.363,0.109-0.567,0.127s-0.396,0.027-0.576,0.027c-0.204,0-0.404-0.012-0.603-0.037
			c-0.198-0.023-0.399-0.035-0.604-0.035c-0.096,0-0.177,0.002-0.242,0.008c-0.066,0.008-0.16,0.027-0.279,0.064h-2.052
			c-0.288,0-0.55-0.096-0.783-0.289c-0.234-0.191-0.352-0.438-0.352-0.738C98.999,42.323,99.092,42.108,99.278,41.952z"/>
		<path d="M111.563,38.36c0.108,0.15,0.187,0.334,0.234,0.549c0.048,0.217,0.078,0.441,0.09,0.676s0.042,0.436,0.09,0.602
			c0.097,0.289,0.249,0.557,0.459,0.803s0.453,0.422,0.729,0.529c0.107,0.037,0.191,0.064,0.252,0.082
			c0.06,0.018,0.117,0.033,0.171,0.045s0.104,0.027,0.153,0.045c0.048,0.018,0.113,0.051,0.197,0.1h1.351
			c0.132-0.098,0.272-0.154,0.423-0.172s0.309-0.051,0.477-0.1c0.145-0.035,0.262-0.105,0.352-0.207s0.168-0.213,0.234-0.334
			c0.065-0.119,0.122-0.246,0.171-0.377c0.048-0.133,0.102-0.254,0.162-0.361v-1.262c0-0.025-0.027-0.088-0.081-0.189
			c-0.055-0.102-0.1-0.178-0.136-0.227c-0.18-0.275-0.384-0.477-0.611-0.604c-0.229-0.125-0.472-0.209-0.729-0.252
			c-0.258-0.041-0.528-0.066-0.81-0.072c-0.282-0.006-0.573-0.027-0.873-0.063c-0.48-0.061-0.945-0.172-1.396-0.334
			s-0.846-0.385-1.188-0.666c-0.342-0.283-0.618-0.623-0.828-1.02s-0.315-0.865-0.315-1.406c0-0.252,0.019-0.48,0.055-0.686
			c0.035-0.203,0.083-0.402,0.144-0.594c0.06-0.193,0.138-0.385,0.234-0.578c0.096-0.191,0.21-0.408,0.342-0.648
			c0.132-0.145,0.309-0.301,0.531-0.469c0.222-0.168,0.462-0.32,0.72-0.459s0.516-0.252,0.773-0.344
			c0.259-0.09,0.489-0.135,0.693-0.135h0.162c0.06,0.023,0.165,0.061,0.315,0.107c0.149,0.049,0.306,0.104,0.468,0.162
			c0.162,0.061,0.314,0.117,0.459,0.172c0.144,0.053,0.246,0.094,0.306,0.117c0.12,0.061,0.279,0.158,0.478,0.297
			c0.197,0.139,0.368,0.207,0.513,0.207h0.072c0.023-0.109,0.054-0.225,0.09-0.352c0.036-0.125,0.084-0.242,0.144-0.352
			c0.061-0.107,0.138-0.197,0.234-0.27c0.096-0.072,0.21-0.107,0.342-0.107c0.24,0,0.423,0.111,0.549,0.334
			c0.126,0.221,0.189,0.447,0.189,0.676v3.316c0,0.18-0.066,0.342-0.198,0.486s-0.288,0.217-0.468,0.217
			c-0.265,0-0.447-0.098-0.549-0.289c-0.103-0.193-0.175-0.414-0.217-0.666c-0.042-0.254-0.09-0.502-0.144-0.75
			c-0.054-0.246-0.159-0.428-0.315-0.549c-0.323-0.24-0.689-0.445-1.098-0.613s-0.81-0.252-1.206-0.252
			c-0.264,0-0.519,0.049-0.765,0.145s-0.468,0.229-0.666,0.396s-0.357,0.363-0.478,0.586s-0.18,0.465-0.18,0.73
			c0,0.504,0.096,0.883,0.288,1.135c0.191,0.252,0.443,0.434,0.756,0.541c0.312,0.107,0.663,0.174,1.053,0.197
			c0.391,0.025,0.777,0.055,1.161,0.09c0.3,0.025,0.609,0.07,0.927,0.137c0.318,0.066,0.621,0.135,0.909,0.207
			c0.012,0.012,0.033,0.023,0.063,0.035c0.029,0.012,0.051,0.025,0.063,0.037c0.264,0.217,0.514,0.432,0.747,0.648
			c0.234,0.217,0.438,0.445,0.612,0.686s0.309,0.508,0.405,0.801c0.096,0.295,0.144,0.629,0.144,1c0,0.289-0.024,0.59-0.072,0.902
			s-0.123,0.615-0.225,0.91c-0.103,0.295-0.237,0.568-0.405,0.82s-0.378,0.469-0.63,0.648c-0.024,0.012-0.069,0.037-0.135,0.072
			c-0.066,0.035-0.142,0.074-0.225,0.117c-0.085,0.043-0.16,0.078-0.226,0.107c-0.066,0.031-0.105,0.053-0.117,0.064
			c-0.156,0.096-0.309,0.201-0.459,0.314c-0.15,0.115-0.327,0.172-0.53,0.172h-1.765c-0.168,0-0.33-0.037-0.485-0.109
			c-0.156-0.07-0.31-0.152-0.459-0.242c-0.15-0.09-0.304-0.172-0.459-0.242c-0.156-0.072-0.324-0.109-0.505-0.109
			c-0.12,0-0.207,0.045-0.261,0.135c-0.054,0.092-0.105,0.188-0.153,0.289s-0.113,0.195-0.197,0.279s-0.216,0.125-0.396,0.125
			c-0.204,0-0.39-0.074-0.558-0.223s-0.252-0.33-0.252-0.543v-4.148c0-0.215,0.072-0.387,0.216-0.512
			c0.144-0.127,0.317-0.189,0.521-0.189C111.275,38.136,111.455,38.21,111.563,38.36z"/>
		<path d="M121.13,37.136c0.162-0.617,0.407-1.176,0.737-1.674s0.744-0.906,1.242-1.223c0.498-0.318,1.083-0.479,1.755-0.479
			c0.061,0,0.138,0,0.234,0c0.108,0,0.168,0.008,0.18,0.02c0.048,0,0.142,0.014,0.279,0.045c0.138,0.029,0.282,0.063,0.432,0.098
			c0.15,0.037,0.291,0.076,0.424,0.117c0.132,0.043,0.222,0.07,0.27,0.082c0.191,0.168,0.393,0.342,0.603,0.521
			s0.402,0.375,0.576,0.584c0.174,0.211,0.315,0.439,0.423,0.686c0.108,0.246,0.162,0.506,0.162,0.783
			c0,0.18-0.026,0.361-0.081,0.549c-0.054,0.186-0.132,0.35-0.233,0.494c-0.103,0.145-0.229,0.262-0.378,0.352
			c-0.15,0.09-0.327,0.135-0.531,0.135c-0.372,0-0.684-0.133-0.937-0.396c-0.252-0.264-0.378-0.576-0.378-0.936
			c0-0.156,0.024-0.297,0.072-0.424c0.048-0.125,0.072-0.271,0.072-0.439v-0.289c-0.013-0.012-0.061-0.061-0.145-0.145
			c-0.084-0.082-0.155-0.125-0.216-0.125h-1.188c-0.024,0-0.088,0.016-0.189,0.045s-0.183,0.057-0.243,0.08
			c-0.323,0.145-0.591,0.322-0.801,0.531c-0.21,0.211-0.375,0.447-0.495,0.711c-0.12,0.266-0.204,0.553-0.252,0.865
			s-0.072,0.635-0.072,0.971c0,0.301,0.03,0.633,0.091,1c0.06,0.365,0.174,0.674,0.342,0.926c0.036,0.037,0.096,0.1,0.18,0.189
			s0.174,0.184,0.271,0.279c0.096,0.096,0.188,0.186,0.278,0.27s0.153,0.145,0.189,0.18c0.036,0.037,0.096,0.082,0.18,0.137
			c0.084,0.053,0.138,0.08,0.162,0.08h1.548c0.192,0,0.36-0.051,0.504-0.152c0.145-0.102,0.273-0.229,0.388-0.379
			c0.113-0.15,0.216-0.314,0.306-0.494s0.183-0.346,0.279-0.496c0.096-0.148,0.197-0.275,0.306-0.377s0.234-0.154,0.378-0.154
			c0.216,0,0.372,0.082,0.468,0.244c0.097,0.162,0.145,0.346,0.145,0.549c0,0.42-0.105,0.816-0.315,1.188
			c-0.21,0.373-0.479,0.699-0.81,0.98c-0.33,0.283-0.699,0.508-1.107,0.676s-0.81,0.252-1.206,0.252
			c-0.588,0-1.134-0.137-1.638-0.414c-0.504-0.275-0.942-0.633-1.314-1.07s-0.663-0.934-0.873-1.486
			c-0.21-0.551-0.314-1.104-0.314-1.654C120.887,38.358,120.968,37.755,121.13,37.136z"/>
		<path d="M130.759,42.022c0.138-0.24,0.352-0.359,0.64-0.359h1.979l0.126-0.178c0-0.049,0.003-0.131,0.009-0.252
			c0.006-0.119,0.016-0.244,0.027-0.375s0.021-0.256,0.027-0.375c0.006-0.119,0.009-0.203,0.009-0.25
			c0.012-0.025,0.023-0.084,0.036-0.18c0.012-0.096,0.023-0.154,0.036-0.18v-3.953h-2.106c-0.12,0-0.225-0.033-0.314-0.1
			c-0.091-0.068-0.166-0.15-0.226-0.248c-0.061-0.098-0.105-0.205-0.135-0.322c-0.03-0.115-0.045-0.223-0.045-0.32
			c0-0.197,0.048-0.35,0.144-0.459c0.096-0.111,0.213-0.193,0.352-0.248c0.138-0.055,0.288-0.092,0.449-0.111
			c0.162-0.018,0.31-0.027,0.441-0.027c0.204,0,0.405,0.012,0.604,0.037c0.197,0.023,0.398,0.035,0.603,0.035
			c0.144,0,0.285-0.012,0.423-0.035c0.138-0.025,0.279-0.037,0.423-0.037c0.204,0,0.417,0.066,0.64,0.199
			c0.222,0.131,0.333,0.324,0.333,0.576v6.695l0.107,0.107h1.908c0.108,0,0.207,0.041,0.297,0.119
			c0.09,0.08,0.168,0.176,0.234,0.285c0.065,0.111,0.113,0.227,0.144,0.35c0.03,0.121,0.045,0.227,0.045,0.311
			c0,0.172-0.045,0.344-0.135,0.516c-0.09,0.17-0.237,0.256-0.441,0.256h-6.138c-0.216,0-0.387-0.072-0.513-0.221
			c-0.126-0.146-0.189-0.324-0.189-0.531C130.552,42.503,130.621,42.261,130.759,42.022z M133.288,31.026
			c0.228-0.24,0.522-0.361,0.882-0.361c0.192,0,0.369,0.045,0.531,0.135s0.3,0.211,0.414,0.361c0.113,0.15,0.204,0.314,0.27,0.494
			c0.066,0.18,0.1,0.359,0.1,0.541c0,0.359-0.133,0.645-0.396,0.854c-0.264,0.211-0.564,0.316-0.899,0.316
			c-0.408,0-0.718-0.145-0.928-0.434c-0.21-0.287-0.314-0.629-0.314-1.025C132.946,31.56,133.06,31.267,133.288,31.026z"/>
		<path d="M140.065,42.429c0.006-0.078,0.038-0.178,0.099-0.297v-2.125c0-0.168,0.065-0.303,0.198-0.404
			c0.132-0.102,0.275-0.152,0.432-0.152c0.072,0,0.153,0.008,0.243,0.025c0.09,0.02,0.165,0.059,0.225,0.117
			c0.084,0.098,0.132,0.215,0.145,0.352c0.012,0.139,0.054,0.256,0.126,0.352c0.155,0.215,0.309,0.422,0.459,0.621
			c0.149,0.197,0.314,0.371,0.495,0.521c0.18,0.15,0.381,0.27,0.603,0.359s0.478,0.135,0.765,0.135c0.253,0,0.507-0.025,0.766-0.08
			c0.258-0.055,0.492-0.141,0.702-0.262c0.21-0.119,0.384-0.279,0.521-0.477s0.207-0.441,0.207-0.729
			c0-0.205-0.033-0.365-0.099-0.486c-0.066-0.119-0.201-0.223-0.405-0.307c-0.372-0.119-0.762-0.203-1.17-0.252
			c-0.408-0.047-0.81-0.096-1.206-0.143c-0.396-0.049-0.777-0.115-1.143-0.199c-0.366-0.084-0.685-0.221-0.954-0.414
			c-0.271-0.191-0.486-0.455-0.648-0.791s-0.243-0.781-0.243-1.332c0-0.637,0.153-1.141,0.459-1.512
			c0.307-0.373,0.747-0.678,1.323-0.918c0.132-0.061,0.272-0.111,0.423-0.154c0.15-0.041,0.303-0.063,0.459-0.063h0.162
			c0.433,0.061,0.873,0.152,1.323,0.279c0.45,0.125,0.854,0.314,1.215,0.566c0.084-0.059,0.153-0.131,0.207-0.215
			s0.108-0.162,0.162-0.234s0.117-0.133,0.188-0.18c0.072-0.049,0.168-0.072,0.288-0.072c0.168,0,0.321,0.063,0.459,0.189
			c0.139,0.125,0.201,0.271,0.189,0.439c0,0.072,0.003,0.201,0.009,0.387c0.006,0.188,0.012,0.385,0.019,0.596
			c0.006,0.209,0.015,0.408,0.026,0.594s0.019,0.314,0.019,0.387v0.215c0,0.217-0.063,0.436-0.189,0.658s-0.314,0.332-0.566,0.332
			c-0.217,0-0.388-0.096-0.514-0.287s-0.243-0.412-0.351-0.658c-0.108-0.244-0.234-0.482-0.378-0.711
			c-0.145-0.227-0.349-0.377-0.612-0.449c-0.168-0.047-0.297-0.08-0.387-0.1c-0.09-0.018-0.178-0.031-0.262-0.045
			c-0.084-0.012-0.174-0.018-0.27-0.018c-0.097,0-0.229,0-0.396,0c-0.048,0-0.155,0.004-0.323,0.01
			c-0.169,0.006-0.282,0.008-0.342,0.008c-0.108,0.037-0.217,0.09-0.324,0.162c-0.108,0.072-0.207,0.16-0.297,0.262
			c-0.091,0.102-0.162,0.213-0.217,0.332c-0.054,0.121-0.081,0.234-0.081,0.344c0,0.275,0.069,0.484,0.207,0.629
			c0.139,0.145,0.327,0.246,0.567,0.307c0.672-0.023,1.355,0.023,2.052,0.143c0.696,0.121,1.351,0.307,1.962,0.559
			c0.313,0.289,0.579,0.621,0.802,1c0.222,0.377,0.333,0.789,0.333,1.232c0,0.457-0.097,0.877-0.288,1.26
			c-0.192,0.385-0.447,0.717-0.766,1c-0.317,0.281-0.678,0.5-1.08,0.656c-0.401,0.156-0.818,0.234-1.251,0.234
			c-0.071,0-0.168-0.004-0.288-0.01s-0.186-0.008-0.197-0.008c-0.024,0-0.075-0.01-0.153-0.027c-0.078-0.02-0.162-0.039-0.252-0.064
			c-0.09-0.023-0.177-0.047-0.261-0.07c-0.084-0.025-0.145-0.043-0.181-0.055c-0.216-0.061-0.407-0.178-0.575-0.352
			c-0.169-0.174-0.354-0.314-0.559-0.422c-0.072,0.035-0.123,0.111-0.152,0.225c-0.03,0.113-0.066,0.234-0.108,0.359
			c-0.042,0.127-0.114,0.238-0.216,0.334c-0.103,0.096-0.262,0.143-0.478,0.143c-0.264,0-0.44-0.104-0.53-0.314
			c-0.091-0.209-0.136-0.422-0.136-0.639C140.056,42.606,140.059,42.507,140.065,42.429z"/>
		<path d="M149.643,42.429c0.006-0.078,0.038-0.178,0.099-0.297v-2.125c0-0.168,0.065-0.303,0.198-0.404
			c0.132-0.102,0.275-0.152,0.432-0.152c0.072,0,0.153,0.008,0.243,0.025c0.09,0.02,0.165,0.059,0.225,0.117
			c0.084,0.098,0.132,0.215,0.145,0.352c0.012,0.139,0.054,0.256,0.126,0.352c0.155,0.215,0.309,0.422,0.459,0.621
			c0.149,0.197,0.314,0.371,0.495,0.521c0.18,0.15,0.381,0.27,0.603,0.359s0.478,0.135,0.765,0.135c0.253,0,0.507-0.025,0.766-0.08
			c0.258-0.055,0.492-0.141,0.702-0.262c0.21-0.119,0.384-0.279,0.521-0.477s0.207-0.441,0.207-0.729
			c0-0.205-0.033-0.365-0.099-0.486c-0.066-0.119-0.201-0.223-0.405-0.307c-0.372-0.119-0.762-0.203-1.17-0.252
			c-0.408-0.047-0.81-0.096-1.206-0.143c-0.396-0.049-0.777-0.115-1.143-0.199c-0.366-0.084-0.685-0.221-0.954-0.414
			c-0.271-0.191-0.486-0.455-0.648-0.791s-0.243-0.781-0.243-1.332c0-0.637,0.153-1.141,0.459-1.512
			c0.307-0.373,0.747-0.678,1.323-0.918c0.132-0.061,0.272-0.111,0.423-0.154c0.15-0.041,0.303-0.063,0.459-0.063h0.162
			c0.433,0.061,0.873,0.152,1.323,0.279c0.45,0.125,0.854,0.314,1.215,0.566c0.084-0.059,0.153-0.131,0.207-0.215
			s0.108-0.162,0.162-0.234s0.117-0.133,0.188-0.18c0.072-0.049,0.168-0.072,0.288-0.072c0.168,0,0.321,0.063,0.459,0.189
			c0.139,0.125,0.201,0.271,0.189,0.439c0,0.072,0.003,0.201,0.009,0.387c0.006,0.188,0.012,0.385,0.019,0.596
			c0.006,0.209,0.015,0.408,0.026,0.594s0.019,0.314,0.019,0.387v0.215c0,0.217-0.063,0.436-0.189,0.658s-0.314,0.332-0.566,0.332
			c-0.217,0-0.388-0.096-0.514-0.287s-0.243-0.412-0.351-0.658c-0.108-0.244-0.234-0.482-0.378-0.711
			c-0.145-0.227-0.349-0.377-0.612-0.449c-0.168-0.047-0.297-0.08-0.387-0.1c-0.09-0.018-0.178-0.031-0.262-0.045
			c-0.084-0.012-0.174-0.018-0.27-0.018c-0.097,0-0.229,0-0.396,0c-0.048,0-0.155,0.004-0.323,0.01
			c-0.169,0.006-0.282,0.008-0.342,0.008c-0.108,0.037-0.217,0.09-0.324,0.162c-0.108,0.072-0.207,0.16-0.297,0.262
			c-0.091,0.102-0.162,0.213-0.217,0.332c-0.054,0.121-0.081,0.234-0.081,0.344c0,0.275,0.069,0.484,0.207,0.629
			c0.139,0.145,0.327,0.246,0.567,0.307c0.672-0.023,1.355,0.023,2.052,0.143c0.696,0.121,1.351,0.307,1.962,0.559
			c0.313,0.289,0.579,0.621,0.802,1c0.222,0.377,0.333,0.789,0.333,1.232c0,0.457-0.097,0.877-0.288,1.26
			c-0.192,0.385-0.447,0.717-0.766,1c-0.317,0.281-0.678,0.5-1.08,0.656c-0.401,0.156-0.818,0.234-1.251,0.234
			c-0.071,0-0.168-0.004-0.288-0.01s-0.186-0.008-0.197-0.008c-0.024,0-0.075-0.01-0.153-0.027c-0.078-0.02-0.162-0.039-0.252-0.064
			c-0.09-0.023-0.177-0.047-0.261-0.07c-0.084-0.025-0.145-0.043-0.181-0.055c-0.216-0.061-0.407-0.178-0.575-0.352
			c-0.169-0.174-0.354-0.314-0.559-0.422c-0.072,0.035-0.123,0.111-0.152,0.225c-0.03,0.113-0.066,0.234-0.108,0.359
			c-0.042,0.127-0.114,0.238-0.216,0.334c-0.103,0.096-0.262,0.143-0.478,0.143c-0.264,0-0.44-0.104-0.53-0.314
			c-0.091-0.209-0.136-0.422-0.136-0.639C149.633,42.606,149.636,42.507,149.643,42.429z"/>
		<path d="M159.452,37.11c0.162-0.637,0.417-1.201,0.766-1.693c0.348-0.492,0.794-0.885,1.341-1.178
			c0.546-0.295,1.196-0.441,1.953-0.441c0.575,0,1.073,0.111,1.493,0.332c0.42,0.223,0.84,0.514,1.261,0.873
			c0.012,0.012,0.023,0.027,0.036,0.045c0.012,0.02,0.023,0.027,0.035,0.027c0.145,0.277,0.291,0.549,0.441,0.818
			c0.149,0.271,0.288,0.547,0.414,0.828c0.126,0.283,0.228,0.57,0.306,0.865c0.078,0.293,0.117,0.596,0.117,0.908
			c0,0.037-0.003,0.105-0.009,0.207s-0.009,0.166-0.009,0.189c-0.024,0.072-0.058,0.201-0.1,0.387s-0.09,0.385-0.144,0.594
			c-0.054,0.211-0.105,0.412-0.153,0.604s-0.078,0.324-0.09,0.396c-0.097,0.324-0.261,0.666-0.495,1.025s-0.507,0.688-0.819,0.98
			c-0.312,0.295-0.65,0.537-1.017,0.73c-0.366,0.191-0.729,0.287-1.089,0.287c-0.18,0-0.318-0.012-0.414-0.035
			c-0.097-0.025-0.177-0.055-0.243-0.092c-0.066-0.035-0.135-0.074-0.207-0.115c-0.072-0.043-0.174-0.082-0.306-0.117
			c-0.061-0.012-0.174-0.031-0.342-0.055c-0.169-0.023-0.288-0.047-0.36-0.072c-0.061-0.023-0.142-0.063-0.243-0.117
			c-0.102-0.053-0.204-0.107-0.306-0.162c-0.103-0.053-0.198-0.102-0.288-0.143c-0.09-0.043-0.142-0.07-0.153-0.082
			c-0.24-0.156-0.459-0.396-0.657-0.721c-0.197-0.322-0.368-0.672-0.513-1.043c-0.144-0.371-0.255-0.744-0.333-1.115
			c-0.078-0.373-0.117-0.691-0.117-0.955C159.209,38.399,159.29,37.745,159.452,37.11z M160.784,39.485
			c0.019,0.168,0.045,0.336,0.081,0.504s0.081,0.328,0.135,0.477c0.055,0.15,0.117,0.262,0.189,0.334l0.846,0.846
			c0.132,0.035,0.237,0.061,0.315,0.072c0.077,0.012,0.158,0.023,0.243,0.035c0.083,0.012,0.155,0.02,0.216,0.02
			c0.012,0.012,0.096,0.018,0.252,0.018c0.168,0,0.294,0,0.378,0c0.24,0,0.446-0.004,0.621-0.01
			c0.174-0.006,0.369-0.051,0.585-0.135c0.516-0.42,0.857-0.873,1.025-1.359s0.252-1.047,0.252-1.684
			c0-0.371-0.039-0.717-0.116-1.033c-0.078-0.318-0.184-0.652-0.315-1c-0.061-0.156-0.159-0.285-0.297-0.387s-0.288-0.191-0.45-0.27
			s-0.33-0.146-0.504-0.207s-0.321-0.127-0.441-0.199h-1.134c-0.012,0-0.09,0.045-0.233,0.135c-0.145,0.092-0.252,0.16-0.324,0.207
			c-0.288,0.205-0.52,0.428-0.693,0.666c-0.174,0.24-0.312,0.496-0.414,0.766c-0.102,0.27-0.168,0.555-0.197,0.855
			c-0.03,0.301-0.046,0.617-0.046,0.953C160.757,39.187,160.767,39.317,160.784,39.485z"/>
		<path d="M170.108,41.952c0.186-0.156,0.417-0.234,0.693-0.234c0.168,0,0.333,0.016,0.495,0.045
			c0.161,0.029,0.333,0.045,0.513,0.045c0.048,0,0.117-0.004,0.207-0.01s0.141-0.008,0.153-0.008l0.071-0.072
			c0-0.049,0.003-0.127,0.009-0.234s0.013-0.225,0.019-0.352c0.006-0.125,0.015-0.246,0.027-0.359
			c0.012-0.113,0.018-0.195,0.018-0.242c0-0.025,0.009-0.084,0.027-0.182c0.018-0.096,0.032-0.154,0.045-0.18l-0.036-1.764v-0.342
			l-0.108-2.123l-0.144-0.145c-0.061,0-0.162-0.004-0.307-0.01c-0.144-0.006-0.3-0.012-0.468-0.018s-0.324-0.016-0.468-0.027
			s-0.246-0.018-0.306-0.018c-0.24-0.023-0.441-0.117-0.604-0.279s-0.243-0.363-0.243-0.604c0-0.238,0.072-0.445,0.217-0.621
			c0.144-0.174,0.342-0.26,0.594-0.26c0.012,0,0.029,0,0.054,0c0.036,0,0.054,0.006,0.054,0.018c0.192,0.023,0.43,0.027,0.711,0.01
			c0.282-0.02,0.567-0.021,0.855-0.01s0.558,0.051,0.81,0.117s0.444,0.189,0.576,0.369c0.024,0.023,0.048,0.074,0.072,0.152
			c0.023,0.078,0.051,0.16,0.081,0.244c0.029,0.084,0.065,0.154,0.107,0.215s0.087,0.09,0.136,0.09h0.036
			c0.371-0.299,0.771-0.576,1.196-0.828s0.885-0.377,1.377-0.377c0.3,0,0.591,0.051,0.873,0.152s0.525,0.244,0.729,0.424
			s0.369,0.398,0.495,0.656s0.188,0.543,0.188,0.855c0,0.443-0.105,0.822-0.314,1.133c-0.21,0.313-0.567,0.469-1.071,0.469
			c-0.24,0-0.432-0.074-0.576-0.225c-0.144-0.15-0.258-0.334-0.342-0.549c-0.084-0.217-0.142-0.441-0.171-0.676
			c-0.03-0.234-0.052-0.434-0.063-0.604c-0.012-0.059-0.048-0.09-0.107-0.09c-0.061,0-0.103,0-0.126,0
			c-0.061,0-0.117,0.004-0.171,0.01c-0.055,0.006-0.105,0.033-0.153,0.08c-0.048,0.037-0.126,0.109-0.234,0.217
			c-0.107,0.107-0.222,0.223-0.342,0.342c-0.12,0.121-0.234,0.234-0.342,0.342c-0.108,0.109-0.18,0.18-0.216,0.217
			c-0.049,0.047-0.117,0.129-0.207,0.242c-0.09,0.115-0.178,0.238-0.262,0.369c-0.084,0.133-0.155,0.262-0.216,0.387
			c-0.06,0.127-0.09,0.219-0.09,0.279v2.035c0.012,0.023,0.027,0.084,0.045,0.18c0.019,0.096,0.027,0.156,0.027,0.18
			c0,0.035,0.006,0.107,0.018,0.215c0.012,0.109,0.021,0.223,0.027,0.344c0.006,0.119,0.012,0.232,0.018,0.342
			c0.006,0.107,0.01,0.186,0.01,0.232c0.048,0.133,0.119,0.211,0.216,0.234c0.096,0.025,0.21,0.037,0.342,0.037
			s0.267-0.012,0.405-0.037c0.138-0.023,0.272-0.035,0.404-0.035c0.276,0,0.528,0.074,0.757,0.225
			c0.228,0.15,0.342,0.369,0.342,0.656c0,0.24-0.055,0.43-0.162,0.568c-0.108,0.137-0.249,0.24-0.423,0.305
			c-0.175,0.066-0.363,0.109-0.567,0.127s-0.396,0.027-0.576,0.027c-0.204,0-0.404-0.012-0.603-0.037
			c-0.198-0.023-0.399-0.035-0.604-0.035c-0.096,0-0.177,0.002-0.242,0.008c-0.066,0.008-0.16,0.027-0.279,0.064h-2.052
			c-0.288,0-0.55-0.096-0.783-0.289c-0.234-0.191-0.352-0.438-0.352-0.738C169.829,42.323,169.922,42.108,170.108,41.952z"/>
		<path d="M181.7,42.429c0.006-0.078,0.038-0.178,0.099-0.297v-2.125c0-0.168,0.065-0.303,0.198-0.404
			c0.132-0.102,0.275-0.152,0.432-0.152c0.072,0,0.153,0.008,0.243,0.025c0.09,0.02,0.165,0.059,0.225,0.117
			c0.084,0.098,0.132,0.215,0.145,0.352c0.012,0.139,0.054,0.256,0.126,0.352c0.155,0.215,0.309,0.422,0.459,0.621
			c0.149,0.197,0.314,0.371,0.495,0.521c0.18,0.15,0.381,0.27,0.603,0.359s0.478,0.135,0.765,0.135c0.253,0,0.507-0.025,0.766-0.08
			c0.258-0.055,0.492-0.141,0.702-0.262c0.21-0.119,0.384-0.279,0.521-0.477s0.207-0.441,0.207-0.729
			c0-0.205-0.033-0.365-0.099-0.486c-0.066-0.119-0.201-0.223-0.405-0.307c-0.372-0.119-0.762-0.203-1.17-0.252
			c-0.408-0.047-0.81-0.096-1.206-0.143c-0.396-0.049-0.777-0.115-1.143-0.199c-0.366-0.084-0.685-0.221-0.954-0.414
			c-0.271-0.191-0.486-0.455-0.648-0.791s-0.243-0.781-0.243-1.332c0-0.637,0.153-1.141,0.459-1.512
			c0.307-0.373,0.747-0.678,1.323-0.918c0.132-0.061,0.272-0.111,0.423-0.154c0.15-0.041,0.303-0.063,0.459-0.063h0.162
			c0.433,0.061,0.873,0.152,1.323,0.279c0.45,0.125,0.854,0.314,1.215,0.566c0.084-0.059,0.153-0.131,0.207-0.215
			s0.108-0.162,0.162-0.234s0.117-0.133,0.188-0.18c0.072-0.049,0.168-0.072,0.288-0.072c0.168,0,0.321,0.063,0.459,0.189
			c0.139,0.125,0.201,0.271,0.189,0.439c0,0.072,0.003,0.201,0.009,0.387c0.006,0.188,0.012,0.385,0.019,0.596
			c0.006,0.209,0.015,0.408,0.026,0.594s0.019,0.314,0.019,0.387v0.215c0,0.217-0.063,0.436-0.189,0.658s-0.314,0.332-0.566,0.332
			c-0.217,0-0.388-0.096-0.514-0.287s-0.243-0.412-0.351-0.658c-0.108-0.244-0.234-0.482-0.378-0.711
			c-0.145-0.227-0.349-0.377-0.612-0.449c-0.168-0.047-0.297-0.08-0.387-0.1c-0.09-0.018-0.178-0.031-0.262-0.045
			c-0.084-0.012-0.174-0.018-0.27-0.018c-0.097,0-0.229,0-0.396,0c-0.048,0-0.155,0.004-0.323,0.01
			c-0.169,0.006-0.282,0.008-0.342,0.008c-0.108,0.037-0.217,0.09-0.324,0.162c-0.108,0.072-0.207,0.16-0.297,0.262
			c-0.091,0.102-0.162,0.213-0.217,0.332c-0.054,0.121-0.081,0.234-0.081,0.344c0,0.275,0.069,0.484,0.207,0.629
			c0.139,0.145,0.327,0.246,0.567,0.307c0.672-0.023,1.355,0.023,2.052,0.143c0.696,0.121,1.351,0.307,1.962,0.559
			c0.313,0.289,0.579,0.621,0.802,1c0.222,0.377,0.333,0.789,0.333,1.232c0,0.457-0.097,0.877-0.288,1.26
			c-0.192,0.385-0.447,0.717-0.766,1c-0.317,0.281-0.678,0.5-1.08,0.656c-0.401,0.156-0.818,0.234-1.251,0.234
			c-0.071,0-0.168-0.004-0.288-0.01s-0.186-0.008-0.197-0.008c-0.024,0-0.075-0.01-0.153-0.027c-0.078-0.02-0.162-0.039-0.252-0.064
			c-0.09-0.023-0.177-0.047-0.261-0.07c-0.084-0.025-0.145-0.043-0.181-0.055c-0.216-0.061-0.407-0.178-0.575-0.352
			c-0.169-0.174-0.354-0.314-0.559-0.422c-0.072,0.035-0.123,0.111-0.152,0.225c-0.03,0.113-0.066,0.234-0.108,0.359
			c-0.042,0.127-0.114,0.238-0.216,0.334c-0.103,0.096-0.262,0.143-0.478,0.143c-0.264,0-0.44-0.104-0.53-0.314
			c-0.091-0.209-0.136-0.422-0.136-0.639C181.69,42.606,181.693,42.507,181.7,42.429z"/>
	</g>
</g>
<g id="Roger_Roger">
</g>
<g id="RoyaleWe">
</g>
<g id="Skip">
</g>
<g id="SwineRules">
</g>
<g id="Touchy_Feeley">
</g>
<g id="Wasted_Education">
</g>
<g id="Layer_86">
</g>
<g id="PointOfNoReturn">
</g>
<g id="Pirate">
</g>
<g id="Thief">
</g>
<g id="DepthPerception">
</g>
<g id="Narcissist">
</g>
<g id="MammaBird">
</g>
<g id="Staringcontest">
</g>
<g id="Cartwheel">
</g>
<g id="Censored">
</g>
<g id="Depersonalization">
</g>
<g id="threeman">
</g>
<g id="_x32__truths_and_a_lie">
</g>
<g id="cray_cray_cat_lady">
</g>
<g id="siblings">
</g>
<g id="later">
</g>
<g id="waterfall">
</g>
<g id="cheers">
</g>
<g id="rhyme">
</g>
<g id="categories">
</g>
<g id="tits">
</g>
<g id="dicks">
</g>
<g id="questions">
</g>
<g id="double_hands">
</g>
<g id="take_2">
</g>
<g id="take_3">
</g>
<g id="give_3">
</g>
<g id="give_2">
</g>
<g id="rewind">
</g>
<g id="Cryptkeeper">
</g>
<g id="Take_2_and_Redo">
</g>
<g id="Embryo">
</g>
<g id="I_am_Groot">
</g>
<g id="Mini_Me">
</g>
<g id="Ditto_1_">
</g>
<g id="reverse">
</g>
</svg>
