<?xml version="1.0" encoding="utf-8"?>
<!-- Generator: Adobe Illustrator 16.0.0, SVG Export Plug-In . SVG Version: 6.00 Build 0)  -->
<!DOCTYPE svg PUBLIC "-//W3C//DTD SVG 1.1//EN" "http://www.w3.org/Graphics/SVG/1.1/DTD/svg11.dtd">
<svg version="1.1" xmlns="http://www.w3.org/2000/svg" xmlns:xlink="http://www.w3.org/1999/xlink" x="0px" y="0px"
	 width="209.759px" height="62.361px" viewBox="0 0 209.759 62.361" enable-background="new 0 0 209.759 62.361"
	 xml:space="preserve">
<g id="Layer_1">
</g>
<g id="Blindman">
</g>
<g id="Compliments">
</g>
<g id="HAT">
</g>
<g id="speech">
</g>
<g id="TREX_ARMS">
</g>
<g id="slim_shady">
</g>
<g id="TIMEOUT">
</g>
<g id="Truth_or_Dare">
</g>
<g id="ARM_WRESTLE">
</g>
<g id="musical_chairs">
</g>
<g id="never_have_i_ever">
</g>
<g id="Trivia">
</g>
<g id="Drink_Pulling">
</g>
<g id="Sharing_is_Caring">
</g>
<g id="Not_It">
</g>
<g id="Cocktail_of_Doom">
</g>
<g id="Heads_up">
</g>
<g id="Archenemy">
</g>
<g id="battle_of_the_sexes">
</g>
<g id="one_must_drink">
</g>
<g id="rainbow_connection">
</g>
<g id="social_drinking">
</g>
<g id="Spin_the_bottle">
</g>
<g id="accents">
</g>
<g id="Slap">
</g>
<g id="down_the_hatch">
</g>
<g id="rubiks_cube">
</g>
<g id="bar_tender">
</g>
<g id="codenames">
</g>
<g id="hand_switch">
</g>
<g id="make_a_rule">
</g>
<g id="no_guts_no_glory">
</g>
<g id="pass">
</g>
<g id="santa">
</g>
<g id="snake_eyes">
</g>
<g id="lightning_round">
</g>
<g id="Bro">
</g>
<g id="LeastDrunk">
</g>
<g id="Know_It_All">
	<g id="Layer_94">
	</g>
</g>
<g id="EyeContact">
</g>
<g id="UnderGuesser">
</g>
<g id="GodSaveTheQUeen">
</g>
<g id="Ghost">
</g>
<g id="Fortune_Teller">
</g>
<g id="DrinkSwap">
</g>
<g id="DickTator">
</g>
<g id="_x34_Eyes">
</g>
<g id="BabyTalk">
</g>
<g id="Backseat_Driver">
</g>
<g id="BAtman">
</g>
<g id="bodyguard">
</g>
<g id="BuckleUp">
</g>
<g id="RockPaperScissors">
</g>
<g id="Roger_Roger">
</g>
<g id="RoyaleWe">
</g>
<g id="Skip">
</g>
<g id="SwineRules">
</g>
<g id="Touchy_Feeley">
</g>
<g id="Wasted_Education">
</g>
<g id="Layer_86">
</g>
<g id="PointOfNoReturn">
</g>
<g id="Pirate">
</g>
<g id="Thief">
</g>
<g id="DepthPerception">
</g>
<g id="Narcissist">
	<g>
		<path d="M37.125,38.697c-0.14-0.426-0.305-0.851-0.495-1.276c-0.161-0.366-0.366-0.836-0.615-1.408
			c-0.25-0.571-0.495-1.122-0.737-1.649c-0.242-0.528-0.532-1.174-0.869-1.937H34.32v4.4c0.059,0.161,0.088,0.315,0.088,0.462
			c0,0.132,0,0.278,0,0.439c0,0.162,0,0.316,0,0.463c0,0.132-0.029,0.278-0.088,0.439v2.244c0,0.117,0.08,0.234,0.242,0.352
			c0.161,0.118,0.293,0.177,0.396,0.177c0.132,0,0.246-0.033,0.341-0.1c0.096-0.065,0.209-0.099,0.342-0.099h0.22
			c0.059,0.015,0.146,0.04,0.264,0.077c0.117,0.036,0.231,0.073,0.341,0.109c0.11,0.037,0.206,0.07,0.286,0.1
			c0.081,0.029,0.129,0.052,0.144,0.065l0.352,0.353v0.308c0,0.235-0.044,0.466-0.132,0.693s-0.279,0.378-0.572,0.451
			c-0.572-0.029-1.107-0.008-1.605,0.065c-0.499,0.074-1.027,0.11-1.584,0.11h-0.33c-0.088,0-0.239-0.004-0.451-0.011
			c-0.213-0.008-0.437-0.015-0.671-0.022c-0.235-0.007-0.459-0.019-0.671-0.033c-0.213-0.014-0.363-0.021-0.451-0.021
			c-0.235-0.073-0.437-0.194-0.605-0.363c-0.168-0.168-0.253-0.377-0.253-0.627v-0.22c0.059-0.205,0.15-0.437,0.275-0.693
			c0.124-0.256,0.319-0.399,0.583-0.429c0.059,0,0.157-0.004,0.297-0.011c0.14-0.008,0.286-0.015,0.44-0.022
			c0.153-0.007,0.3-0.015,0.439-0.022c0.14-0.007,0.238-0.011,0.297-0.011l0.176-0.176c-0.029-0.322-0.021-0.627,0.022-0.913
			s0.066-0.583,0.066-0.891c0-1.496-0.03-2.988-0.089-4.478c-0.059-1.488-0.088-2.988-0.088-4.499l-0.176-0.153h-1.562
			c-0.118,0-0.209-0.033-0.275-0.1c-0.066-0.065-0.117-0.146-0.154-0.242c-0.036-0.095-0.063-0.197-0.076-0.308
			c-0.016-0.11-0.022-0.201-0.022-0.275c0-0.322,0.117-0.594,0.352-0.813s0.528-0.33,0.881-0.33h2.485
			c0.293,0,0.547,0.125,0.759,0.374c0.213,0.249,0.363,0.499,0.451,0.748c0.029,0.073,0.096,0.246,0.198,0.517
			c0.103,0.271,0.209,0.568,0.319,0.892c0.109,0.322,0.216,0.623,0.318,0.901c0.103,0.279,0.169,0.455,0.198,0.528
			c0.015,0.044,0.066,0.154,0.154,0.33s0.18,0.366,0.274,0.572c0.096,0.205,0.188,0.396,0.275,0.571
			c0.088,0.177,0.14,0.286,0.154,0.33c0,0.015,0.011,0.052,0.032,0.11c0.022,0.059,0.041,0.121,0.056,0.187
			c0.015,0.066,0.033,0.129,0.055,0.188c0.022,0.059,0.033,0.096,0.033,0.11c0.249,0.63,0.517,1.313,0.803,2.046
			s0.591,1.43,0.913,2.09c0.015,0.029,0.044,0.077,0.088,0.143c0.044,0.066,0.073,0.106,0.088,0.121s0.022,0.015,0.022,0
			c0-0.029,0.007-0.044,0.021-0.044c0-0.073,0.004-0.198,0.012-0.374c0.007-0.176,0.014-0.359,0.021-0.55s0.011-0.374,0.011-0.55
			c0-0.177,0-0.301,0-0.374c0-0.029-0.015-0.103-0.044-0.221c-0.029-0.117-0.059-0.19-0.088-0.22v-6.204l-0.22-0.153
			c-0.22-0.015-0.462-0.037-0.726-0.066c-0.265-0.029-0.51-0.092-0.737-0.187c-0.228-0.096-0.415-0.231-0.562-0.407
			s-0.22-0.418-0.22-0.727c0-0.176,0.066-0.341,0.198-0.495c0.132-0.153,0.3-0.23,0.506-0.23h3.344
			c0.146-0.073,0.268-0.117,0.363-0.132c0.095-0.015,0.216-0.022,0.363-0.022c0.439,0,0.836,0.106,1.188,0.319
			c0.353,0.213,0.528,0.554,0.528,1.022c0,0.03-0.004,0.096-0.011,0.198c-0.008,0.103-0.012,0.169-0.012,0.198
			c-0.103,0.161-0.234,0.278-0.396,0.352c-0.162,0.074-0.334,0.121-0.518,0.144c-0.184,0.021-0.37,0.033-0.561,0.033
			s-0.359,0-0.506,0l-0.088,0.088l0.044,4.905v0.418l0.044,7.15c0,0.308-0.121,0.572-0.363,0.792s-0.51,0.33-0.803,0.33
			c-0.265,0-0.521-0.096-0.771-0.286c-0.249-0.19-0.41-0.41-0.483-0.66l-0.858-2.75C37.444,39.533,37.265,39.123,37.125,38.697z"/>
		<path d="M46.024,37.982c0.352-0.491,0.792-0.851,1.32-1.078c0.527-0.228,1.104-0.367,1.727-0.418
			c0.623-0.052,1.199-0.1,1.728-0.144c0.527-0.044,0.968-0.124,1.319-0.242c0.353-0.117,0.528-0.352,0.528-0.703
			c0-0.25-0.044-0.484-0.132-0.704c-0.088-0.221-0.25-0.396-0.484-0.528c-0.088-0.044-0.22-0.11-0.396-0.198
			c-0.177-0.088-0.271-0.132-0.286-0.132H49.28c-0.117,0-0.198,0.063-0.242,0.188c-0.044,0.124-0.084,0.278-0.121,0.462
			c-0.036,0.184-0.076,0.385-0.121,0.604c-0.044,0.22-0.113,0.422-0.209,0.605c-0.095,0.184-0.234,0.337-0.418,0.462
			s-0.429,0.187-0.736,0.187c-0.47,0-0.854-0.153-1.155-0.462c-0.301-0.308-0.451-0.689-0.451-1.144
			c0-0.265,0.044-0.499,0.132-0.704s0.206-0.396,0.353-0.572s0.315-0.341,0.506-0.495s0.381-0.297,0.572-0.429
			c0.161-0.117,0.33-0.245,0.506-0.385s0.381-0.209,0.616-0.209l3.365,0.044c0.19,0,0.415,0.08,0.672,0.24
			c0.256,0.161,0.506,0.351,0.747,0.57c0.242,0.219,0.455,0.452,0.639,0.7c0.183,0.248,0.297,0.46,0.341,0.635
			c0.015,0.044,0.036,0.124,0.066,0.241c0.028,0.117,0.058,0.237,0.088,0.361c0.029,0.124,0.055,0.241,0.076,0.351
			c0.022,0.109,0.033,0.186,0.033,0.229v0.679c0,0.176,0.004,0.376,0.012,0.603c0.007,0.227-0.026,0.427-0.1,0.603v3.7
			c0,0.409,0.176,0.613,0.528,0.613c0.234,0,0.381-0.103,0.439-0.308s0.11-0.437,0.154-0.693c0.044-0.256,0.113-0.487,0.209-0.692
			s0.297-0.309,0.605-0.309c0.161,0,0.3,0.044,0.418,0.132c0.117,0.089,0.212,0.198,0.286,0.33c0.073,0.133,0.124,0.275,0.153,0.43
			c0.029,0.153,0.044,0.305,0.044,0.45c0,0.323-0.052,0.646-0.153,0.969c-0.104,0.322-0.246,0.612-0.43,0.869
			s-0.41,0.466-0.682,0.627s-0.583,0.241-0.936,0.241c-0.278,0-0.521-0.032-0.726-0.099s-0.433-0.18-0.682-0.341
			c-0.088-0.044-0.165-0.113-0.231-0.209c-0.065-0.096-0.132-0.19-0.198-0.286c-0.065-0.096-0.14-0.18-0.22-0.253
			c-0.081-0.073-0.173-0.11-0.274-0.11h-0.11c-0.206,0.104-0.415,0.228-0.627,0.374c-0.213,0.147-0.429,0.29-0.649,0.43
			c-0.22,0.139-0.447,0.256-0.682,0.352c-0.235,0.096-0.477,0.143-0.727,0.143h-1.979c-0.161,0-0.301-0.04-0.418-0.12
			c-0.117-0.081-0.235-0.158-0.353-0.231c-0.602-0.352-1.037-0.788-1.309-1.309s-0.407-1.126-0.407-1.815
			C45.496,39.174,45.673,38.474,46.024,37.982z M47.278,40.479c0.044,0.162,0.106,0.319,0.188,0.474
			c0.08,0.154,0.179,0.282,0.297,0.385c0.117,0.103,0.249,0.154,0.396,0.154h2.244c0.015,0,0.063-0.022,0.143-0.066
			c0.081-0.044,0.15-0.08,0.209-0.109c0.029-0.029,0.1-0.073,0.209-0.133c0.11-0.058,0.18-0.095,0.21-0.109
			c0.542-0.366,0.909-0.748,1.1-1.145c0.19-0.396,0.286-0.909,0.286-1.54v-0.264c-0.015,0-0.044-0.011-0.088-0.033
			c-0.044-0.021-0.074-0.033-0.088-0.033c-0.016-0.014-0.03-0.021-0.045-0.021l-0.044,0.021c-0.044,0-0.165,0.019-0.362,0.056
			c-0.198,0.036-0.407,0.073-0.627,0.109c-0.221,0.037-0.43,0.074-0.627,0.11c-0.198,0.037-0.319,0.055-0.363,0.055
			c-0.353,0.06-0.708,0.104-1.067,0.133s-0.723,0.073-1.089,0.132c-0.19,0.015-0.359,0.132-0.506,0.352
			c-0.073,0.103-0.165,0.264-0.275,0.484c-0.109,0.22-0.165,0.41-0.165,0.571C47.212,40.179,47.234,40.317,47.278,40.479z"/>
		<path d="M60.356,41.579c0.228-0.19,0.51-0.286,0.847-0.286c0.206,0,0.407,0.019,0.605,0.055c0.198,0.037,0.407,0.056,0.627,0.056
			c0.059,0,0.143-0.004,0.253-0.012c0.11-0.007,0.172-0.011,0.188-0.011l0.088-0.088c0-0.059,0.003-0.154,0.011-0.286
			c0.007-0.132,0.015-0.274,0.022-0.429c0.007-0.154,0.018-0.301,0.032-0.44c0.015-0.139,0.022-0.238,0.022-0.297
			c0-0.029,0.011-0.103,0.033-0.22c0.021-0.117,0.04-0.19,0.055-0.22l-0.044-2.156v-0.418l-0.132-2.596l-0.176-0.177
			c-0.074,0-0.198-0.003-0.374-0.011c-0.177-0.007-0.367-0.015-0.572-0.021c-0.206-0.008-0.396-0.019-0.572-0.033
			s-0.301-0.022-0.374-0.022c-0.294-0.029-0.539-0.143-0.737-0.341c-0.197-0.198-0.297-0.443-0.297-0.737
			c0-0.293,0.088-0.546,0.265-0.759c0.176-0.212,0.418-0.319,0.726-0.319c0.015,0,0.036,0,0.066,0c0.044,0,0.065,0.008,0.065,0.022
			c0.234,0.029,0.524,0.033,0.869,0.011c0.345-0.021,0.693-0.025,1.045-0.011c0.353,0.015,0.683,0.063,0.99,0.143
			c0.308,0.081,0.542,0.231,0.704,0.451c0.029,0.03,0.059,0.092,0.088,0.188s0.063,0.194,0.099,0.297
			c0.037,0.103,0.081,0.19,0.132,0.264c0.052,0.074,0.106,0.11,0.165,0.11h0.044c0.455-0.366,0.942-0.704,1.464-1.012
			c0.521-0.309,1.081-0.463,1.683-0.463c0.366,0,0.723,0.063,1.067,0.188c0.344,0.125,0.641,0.297,0.891,0.517
			c0.249,0.221,0.451,0.488,0.604,0.804c0.154,0.315,0.231,0.663,0.231,1.045c0,0.543-0.129,1.005-0.385,1.386
			c-0.257,0.382-0.693,0.572-1.31,0.572c-0.293,0-0.527-0.092-0.704-0.275c-0.176-0.184-0.315-0.407-0.418-0.671
			s-0.172-0.539-0.209-0.825c-0.036-0.286-0.063-0.531-0.076-0.736c-0.016-0.073-0.06-0.11-0.133-0.11s-0.124,0-0.153,0
			c-0.074,0-0.144,0.004-0.209,0.011c-0.066,0.008-0.129,0.041-0.188,0.1c-0.059,0.044-0.153,0.132-0.286,0.264
			c-0.132,0.132-0.271,0.271-0.418,0.418s-0.286,0.286-0.418,0.418s-0.22,0.22-0.264,0.264c-0.059,0.059-0.143,0.158-0.253,0.297
			c-0.11,0.14-0.217,0.29-0.319,0.451c-0.103,0.162-0.19,0.319-0.264,0.474c-0.073,0.153-0.11,0.268-0.11,0.341v2.485
			c0.015,0.03,0.033,0.104,0.056,0.221c0.021,0.117,0.032,0.19,0.032,0.22c0,0.044,0.008,0.132,0.022,0.264s0.025,0.271,0.033,0.418
			c0.007,0.147,0.014,0.286,0.021,0.418c0.008,0.133,0.011,0.228,0.011,0.286c0.059,0.162,0.146,0.257,0.265,0.286
			c0.117,0.029,0.256,0.044,0.418,0.044c0.161,0,0.326-0.015,0.495-0.044c0.168-0.029,0.333-0.044,0.495-0.044
			c0.337,0,0.645,0.092,0.924,0.275c0.278,0.184,0.418,0.45,0.418,0.803c0,0.294-0.066,0.524-0.198,0.693
			c-0.132,0.168-0.305,0.293-0.517,0.374c-0.213,0.08-0.444,0.132-0.693,0.153c-0.25,0.022-0.484,0.033-0.704,0.033
			c-0.249,0-0.495-0.015-0.737-0.044c-0.241-0.029-0.487-0.044-0.736-0.044c-0.118,0-0.217,0.004-0.297,0.011
			c-0.081,0.008-0.195,0.033-0.342,0.077h-2.508c-0.352,0-0.671-0.117-0.957-0.352c-0.286-0.235-0.429-0.536-0.429-0.902
			C60.016,42.034,60.129,41.77,60.356,41.579z"/>
		<path d="M73.909,35.694c0.198-0.756,0.498-1.438,0.902-2.046c0.402-0.608,0.909-1.107,1.518-1.496s1.323-0.583,2.145-0.583
			c0.073,0,0.169,0,0.286,0c0.132,0,0.205,0.007,0.221,0.021c0.058,0,0.172,0.019,0.341,0.056c0.168,0.036,0.344,0.076,0.527,0.12
			s0.355,0.092,0.518,0.144c0.161,0.052,0.271,0.084,0.33,0.099c0.234,0.206,0.48,0.418,0.736,0.639
			c0.257,0.22,0.491,0.458,0.704,0.715s0.386,0.535,0.518,0.836s0.198,0.619,0.198,0.957c0,0.22-0.033,0.443-0.1,0.671
			c-0.065,0.228-0.161,0.429-0.286,0.604c-0.125,0.177-0.278,0.319-0.462,0.43c-0.184,0.109-0.399,0.165-0.648,0.165
			c-0.455,0-0.836-0.161-1.145-0.484c-0.308-0.322-0.462-0.704-0.462-1.144c0-0.19,0.029-0.363,0.088-0.518s0.088-0.333,0.088-0.539
			v-0.352c-0.015-0.015-0.073-0.073-0.176-0.176s-0.19-0.154-0.264-0.154h-1.452c-0.029,0-0.106,0.019-0.231,0.055
			c-0.124,0.037-0.224,0.07-0.297,0.1c-0.396,0.176-0.723,0.392-0.979,0.648c-0.257,0.257-0.459,0.547-0.605,0.869
			s-0.249,0.675-0.308,1.056c-0.059,0.382-0.088,0.778-0.088,1.188c0,0.366,0.036,0.773,0.109,1.221s0.213,0.825,0.418,1.133
			c0.044,0.044,0.117,0.121,0.221,0.231c0.103,0.109,0.212,0.224,0.33,0.341c0.117,0.117,0.23,0.228,0.341,0.33
			c0.109,0.103,0.187,0.176,0.23,0.22s0.117,0.1,0.221,0.165c0.102,0.066,0.168,0.1,0.197,0.1h1.893
			c0.234,0,0.439-0.063,0.616-0.188c0.176-0.124,0.333-0.278,0.473-0.462c0.139-0.184,0.264-0.385,0.374-0.605
			c0.109-0.22,0.224-0.421,0.341-0.604s0.242-0.337,0.374-0.462s0.286-0.188,0.462-0.188c0.264,0,0.454,0.1,0.572,0.297
			c0.117,0.198,0.176,0.422,0.176,0.672c0,0.513-0.129,0.997-0.385,1.451c-0.257,0.455-0.587,0.855-0.99,1.199
			c-0.403,0.345-0.854,0.62-1.353,0.825c-0.499,0.206-0.99,0.308-1.475,0.308c-0.719,0-1.386-0.168-2.002-0.506
			c-0.616-0.337-1.151-0.773-1.605-1.309c-0.455-0.535-0.811-1.141-1.067-1.815c-0.257-0.674-0.385-1.349-0.385-2.023
			C73.612,37.187,73.711,36.449,73.909,35.694z"/>
		<path d="M85.679,41.665c0.169-0.292,0.43-0.438,0.781-0.438h2.42l0.154-0.218c0-0.059,0.003-0.16,0.011-0.307
			c0.008-0.146,0.019-0.299,0.033-0.459s0.025-0.313,0.033-0.459c0.007-0.146,0.011-0.248,0.011-0.307
			c0.015-0.028,0.029-0.102,0.044-0.218c0.015-0.117,0.029-0.189,0.044-0.219v-4.832h-2.574c-0.146,0-0.274-0.041-0.385-0.123
			s-0.202-0.184-0.275-0.303c-0.073-0.12-0.128-0.251-0.164-0.394c-0.037-0.142-0.056-0.272-0.056-0.393
			c0-0.239,0.059-0.426,0.176-0.561s0.261-0.235,0.43-0.303c0.168-0.067,0.352-0.112,0.55-0.135s0.377-0.034,0.539-0.034
			c0.249,0,0.495,0.015,0.737,0.044c0.241,0.029,0.487,0.044,0.736,0.044c0.176,0,0.349-0.015,0.518-0.044
			c0.168-0.029,0.341-0.044,0.517-0.044c0.249,0,0.51,0.081,0.781,0.242s0.407,0.396,0.407,0.704v8.184l0.132,0.132h2.332
			c0.132,0,0.253,0.049,0.362,0.146c0.11,0.098,0.206,0.213,0.286,0.348c0.081,0.135,0.14,0.277,0.176,0.427
			c0.037,0.149,0.056,0.276,0.056,0.381c0,0.21-0.056,0.419-0.165,0.629c-0.11,0.209-0.29,0.313-0.539,0.313h-7.502
			c-0.264,0-0.473-0.09-0.627-0.269c-0.154-0.18-0.231-0.396-0.231-0.651C85.426,42.252,85.511,41.956,85.679,41.665z
			 M88.771,28.225c0.278-0.293,0.638-0.439,1.077-0.439c0.234,0,0.451,0.055,0.649,0.165c0.198,0.109,0.366,0.257,0.506,0.439
			c0.14,0.184,0.249,0.386,0.33,0.605c0.08,0.22,0.121,0.439,0.121,0.66c0,0.439-0.161,0.788-0.484,1.045
			c-0.322,0.257-0.689,0.385-1.1,0.385c-0.499,0-0.877-0.176-1.133-0.528c-0.257-0.352-0.385-0.77-0.385-1.254
			C88.353,28.878,88.491,28.519,88.771,28.225z"/>
		<path d="M97.053,42.162c0.007-0.096,0.047-0.217,0.12-0.363v-2.596c0-0.205,0.081-0.37,0.242-0.495
			c0.161-0.124,0.338-0.187,0.528-0.187c0.088,0,0.187,0.011,0.297,0.032c0.11,0.022,0.201,0.07,0.275,0.144
			c0.103,0.117,0.161,0.261,0.176,0.429c0.015,0.169,0.065,0.312,0.154,0.429c0.19,0.265,0.377,0.518,0.561,0.76
			c0.184,0.241,0.385,0.454,0.605,0.638c0.22,0.184,0.465,0.33,0.736,0.439c0.271,0.11,0.583,0.165,0.936,0.165
			c0.308,0,0.619-0.032,0.935-0.099s0.602-0.172,0.858-0.319c0.256-0.146,0.469-0.341,0.638-0.583
			c0.169-0.241,0.253-0.539,0.253-0.891c0-0.249-0.04-0.447-0.121-0.594s-0.245-0.271-0.495-0.374
			c-0.454-0.146-0.932-0.249-1.43-0.309c-0.499-0.059-0.99-0.117-1.474-0.176c-0.484-0.059-0.95-0.139-1.397-0.242
			c-0.447-0.103-0.836-0.271-1.166-0.506c-0.33-0.234-0.594-0.557-0.792-0.968c-0.198-0.41-0.297-0.953-0.297-1.628
			c0-0.777,0.187-1.394,0.561-1.848c0.374-0.455,0.913-0.829,1.617-1.122c0.161-0.073,0.334-0.136,0.518-0.188
			c0.183-0.051,0.37-0.077,0.561-0.077h0.198c0.528,0.074,1.066,0.188,1.617,0.341c0.55,0.154,1.045,0.386,1.484,0.693
			c0.103-0.073,0.188-0.161,0.253-0.264c0.066-0.103,0.133-0.198,0.198-0.286c0.066-0.088,0.144-0.161,0.231-0.22
			s0.205-0.089,0.352-0.089c0.205,0,0.393,0.077,0.562,0.231c0.168,0.154,0.245,0.334,0.23,0.539c0,0.088,0.004,0.246,0.011,0.473
			c0.008,0.228,0.015,0.47,0.022,0.727c0.007,0.257,0.019,0.498,0.033,0.726s0.021,0.385,0.021,0.473v0.265
			c0,0.264-0.077,0.531-0.23,0.803c-0.154,0.271-0.386,0.407-0.693,0.407c-0.264,0-0.473-0.117-0.627-0.353
			c-0.154-0.234-0.297-0.502-0.429-0.803c-0.132-0.3-0.286-0.59-0.462-0.869c-0.177-0.278-0.426-0.462-0.748-0.55
			c-0.206-0.059-0.363-0.099-0.474-0.121c-0.109-0.021-0.216-0.04-0.318-0.055c-0.104-0.015-0.213-0.022-0.33-0.022
			c-0.118,0-0.279,0-0.484,0c-0.059,0-0.19,0.004-0.396,0.012c-0.206,0.007-0.345,0.011-0.418,0.011
			c-0.133,0.044-0.265,0.11-0.396,0.198s-0.253,0.194-0.363,0.318c-0.109,0.125-0.197,0.261-0.264,0.407s-0.099,0.286-0.099,0.418
			c0,0.338,0.084,0.594,0.253,0.771c0.168,0.176,0.399,0.301,0.692,0.374c0.821-0.029,1.657,0.029,2.509,0.176
			c0.85,0.146,1.649,0.374,2.397,0.682c0.382,0.353,0.708,0.759,0.979,1.221c0.271,0.463,0.406,0.965,0.406,1.508
			c0,0.558-0.117,1.07-0.352,1.54c-0.234,0.469-0.547,0.876-0.935,1.221c-0.39,0.345-0.829,0.612-1.32,0.803
			c-0.492,0.19-1.001,0.286-1.529,0.286c-0.088,0-0.205-0.004-0.352-0.011c-0.147-0.008-0.228-0.012-0.242-0.012
			c-0.029,0-0.092-0.011-0.188-0.032c-0.095-0.022-0.197-0.048-0.308-0.077s-0.217-0.059-0.319-0.088s-0.176-0.052-0.22-0.066
			c-0.264-0.073-0.499-0.216-0.704-0.429s-0.433-0.385-0.682-0.518c-0.088,0.044-0.15,0.136-0.188,0.275
			c-0.036,0.14-0.08,0.286-0.132,0.44c-0.052,0.153-0.14,0.289-0.264,0.406c-0.125,0.117-0.319,0.177-0.583,0.177
			c-0.323,0-0.539-0.129-0.649-0.386c-0.109-0.256-0.165-0.517-0.165-0.78C97.041,42.379,97.045,42.258,97.053,42.162z"/>
		<path d="M108.757,42.162c0.007-0.096,0.047-0.217,0.12-0.363v-2.596c0-0.205,0.081-0.37,0.242-0.495
			c0.161-0.124,0.338-0.187,0.528-0.187c0.088,0,0.187,0.011,0.297,0.032c0.11,0.022,0.201,0.07,0.275,0.144
			c0.103,0.117,0.161,0.261,0.176,0.429c0.015,0.169,0.065,0.312,0.154,0.429c0.19,0.265,0.377,0.518,0.561,0.76
			c0.184,0.241,0.385,0.454,0.605,0.638c0.22,0.184,0.465,0.33,0.736,0.439c0.271,0.11,0.583,0.165,0.936,0.165
			c0.308,0,0.619-0.032,0.935-0.099s0.602-0.172,0.858-0.319c0.256-0.146,0.469-0.341,0.638-0.583
			c0.169-0.241,0.253-0.539,0.253-0.891c0-0.249-0.04-0.447-0.121-0.594s-0.245-0.271-0.495-0.374
			c-0.454-0.146-0.932-0.249-1.43-0.309c-0.499-0.059-0.99-0.117-1.474-0.176c-0.484-0.059-0.95-0.139-1.397-0.242
			c-0.447-0.103-0.836-0.271-1.166-0.506c-0.33-0.234-0.594-0.557-0.792-0.968c-0.198-0.41-0.297-0.953-0.297-1.628
			c0-0.777,0.187-1.394,0.561-1.848c0.374-0.455,0.913-0.829,1.617-1.122c0.161-0.073,0.334-0.136,0.518-0.188
			c0.183-0.051,0.37-0.077,0.561-0.077h0.198c0.528,0.074,1.066,0.188,1.617,0.341c0.55,0.154,1.045,0.386,1.484,0.693
			c0.103-0.073,0.188-0.161,0.253-0.264c0.066-0.103,0.133-0.198,0.198-0.286c0.066-0.088,0.144-0.161,0.231-0.22
			s0.205-0.089,0.352-0.089c0.205,0,0.393,0.077,0.562,0.231c0.168,0.154,0.245,0.334,0.23,0.539c0,0.088,0.004,0.246,0.011,0.473
			c0.008,0.228,0.015,0.47,0.022,0.727c0.007,0.257,0.019,0.498,0.033,0.726s0.021,0.385,0.021,0.473v0.265
			c0,0.264-0.077,0.531-0.23,0.803c-0.154,0.271-0.386,0.407-0.693,0.407c-0.264,0-0.473-0.117-0.627-0.353
			c-0.154-0.234-0.297-0.502-0.429-0.803c-0.132-0.3-0.286-0.59-0.462-0.869c-0.177-0.278-0.426-0.462-0.748-0.55
			c-0.206-0.059-0.363-0.099-0.474-0.121c-0.109-0.021-0.216-0.04-0.318-0.055c-0.104-0.015-0.213-0.022-0.33-0.022
			c-0.118,0-0.279,0-0.484,0c-0.059,0-0.19,0.004-0.396,0.012c-0.206,0.007-0.345,0.011-0.418,0.011
			c-0.133,0.044-0.265,0.11-0.396,0.198S111.11,34.096,111,34.22c-0.109,0.125-0.197,0.261-0.264,0.407s-0.099,0.286-0.099,0.418
			c0,0.338,0.084,0.594,0.253,0.771c0.168,0.176,0.399,0.301,0.692,0.374c0.821-0.029,1.657,0.029,2.509,0.176
			c0.85,0.146,1.649,0.374,2.397,0.682c0.382,0.353,0.708,0.759,0.979,1.221c0.271,0.463,0.406,0.965,0.406,1.508
			c0,0.558-0.117,1.07-0.352,1.54c-0.234,0.469-0.547,0.876-0.935,1.221c-0.39,0.345-0.829,0.612-1.32,0.803
			c-0.492,0.19-1.001,0.286-1.529,0.286c-0.088,0-0.205-0.004-0.352-0.011c-0.147-0.008-0.228-0.012-0.242-0.012
			c-0.029,0-0.092-0.011-0.188-0.032c-0.095-0.022-0.197-0.048-0.308-0.077s-0.217-0.059-0.319-0.088s-0.176-0.052-0.22-0.066
			c-0.264-0.073-0.499-0.216-0.704-0.429s-0.433-0.385-0.682-0.518c-0.088,0.044-0.15,0.136-0.188,0.275
			c-0.036,0.14-0.08,0.286-0.132,0.44c-0.052,0.153-0.14,0.289-0.264,0.406c-0.125,0.117-0.319,0.177-0.583,0.177
			c-0.323,0-0.539-0.129-0.649-0.386c-0.109-0.256-0.165-0.517-0.165-0.78C108.745,42.379,108.749,42.258,108.757,42.162z"/>
		<path d="M120.702,41.665c0.169-0.292,0.43-0.438,0.781-0.438h2.42l0.154-0.218c0-0.059,0.003-0.16,0.011-0.307
			c0.008-0.146,0.019-0.299,0.033-0.459s0.025-0.313,0.033-0.459c0.007-0.146,0.011-0.248,0.011-0.307
			c0.015-0.028,0.029-0.102,0.044-0.218c0.015-0.117,0.029-0.189,0.044-0.219v-4.832h-2.574c-0.146,0-0.274-0.041-0.385-0.123
			s-0.202-0.184-0.275-0.303c-0.073-0.12-0.128-0.251-0.164-0.394c-0.037-0.142-0.056-0.272-0.056-0.393
			c0-0.239,0.059-0.426,0.176-0.561s0.261-0.235,0.43-0.303c0.168-0.067,0.352-0.112,0.55-0.135s0.377-0.034,0.539-0.034
			c0.249,0,0.495,0.015,0.737,0.044c0.241,0.029,0.487,0.044,0.736,0.044c0.176,0,0.349-0.015,0.518-0.044
			c0.168-0.029,0.341-0.044,0.517-0.044c0.249,0,0.51,0.081,0.781,0.242s0.407,0.396,0.407,0.704v8.184l0.132,0.132h2.332
			c0.132,0,0.253,0.049,0.362,0.146c0.11,0.098,0.206,0.213,0.286,0.348c0.081,0.135,0.14,0.277,0.176,0.427
			c0.037,0.149,0.056,0.276,0.056,0.381c0,0.21-0.056,0.419-0.165,0.629c-0.11,0.209-0.29,0.313-0.539,0.313h-7.502
			c-0.264,0-0.473-0.09-0.627-0.269c-0.154-0.18-0.231-0.396-0.231-0.651C120.449,42.252,120.534,41.956,120.702,41.665z
			 M123.794,28.225c0.278-0.293,0.638-0.439,1.077-0.439c0.234,0,0.451,0.055,0.649,0.165c0.198,0.109,0.366,0.257,0.506,0.439
			c0.14,0.184,0.249,0.386,0.33,0.605c0.08,0.22,0.121,0.439,0.121,0.66c0,0.439-0.161,0.788-0.484,1.045
			c-0.322,0.257-0.689,0.385-1.1,0.385c-0.499,0-0.877-0.176-1.133-0.528c-0.257-0.352-0.385-0.77-0.385-1.254
			C123.376,28.878,123.515,28.519,123.794,28.225z"/>
		<path d="M132.077,42.162c0.007-0.096,0.047-0.217,0.12-0.363v-2.596c0-0.205,0.081-0.37,0.242-0.495
			c0.161-0.124,0.338-0.187,0.528-0.187c0.088,0,0.187,0.011,0.297,0.032c0.11,0.022,0.201,0.07,0.275,0.144
			c0.103,0.117,0.161,0.261,0.176,0.429c0.015,0.169,0.065,0.312,0.154,0.429c0.19,0.265,0.377,0.518,0.561,0.76
			c0.184,0.241,0.385,0.454,0.605,0.638c0.22,0.184,0.465,0.33,0.736,0.439c0.271,0.11,0.583,0.165,0.936,0.165
			c0.308,0,0.619-0.032,0.935-0.099s0.602-0.172,0.858-0.319c0.256-0.146,0.469-0.341,0.638-0.583
			c0.169-0.241,0.253-0.539,0.253-0.891c0-0.249-0.04-0.447-0.121-0.594s-0.245-0.271-0.495-0.374
			c-0.454-0.146-0.932-0.249-1.43-0.309c-0.499-0.059-0.99-0.117-1.474-0.176c-0.484-0.059-0.95-0.139-1.397-0.242
			c-0.447-0.103-0.836-0.271-1.166-0.506c-0.33-0.234-0.594-0.557-0.792-0.968c-0.198-0.41-0.297-0.953-0.297-1.628
			c0-0.777,0.187-1.394,0.561-1.848c0.374-0.455,0.913-0.829,1.617-1.122c0.161-0.073,0.334-0.136,0.518-0.188
			c0.183-0.051,0.37-0.077,0.561-0.077h0.198c0.528,0.074,1.066,0.188,1.617,0.341c0.55,0.154,1.045,0.386,1.484,0.693
			c0.103-0.073,0.188-0.161,0.253-0.264c0.066-0.103,0.133-0.198,0.198-0.286c0.066-0.088,0.144-0.161,0.231-0.22
			s0.205-0.089,0.352-0.089c0.205,0,0.393,0.077,0.562,0.231c0.168,0.154,0.245,0.334,0.23,0.539c0,0.088,0.004,0.246,0.011,0.473
			c0.008,0.228,0.015,0.47,0.022,0.727c0.007,0.257,0.019,0.498,0.033,0.726s0.021,0.385,0.021,0.473v0.265
			c0,0.264-0.077,0.531-0.23,0.803c-0.154,0.271-0.386,0.407-0.693,0.407c-0.264,0-0.473-0.117-0.627-0.353
			c-0.154-0.234-0.297-0.502-0.429-0.803c-0.132-0.3-0.286-0.59-0.462-0.869c-0.177-0.278-0.426-0.462-0.748-0.55
			c-0.206-0.059-0.363-0.099-0.474-0.121c-0.109-0.021-0.216-0.04-0.318-0.055c-0.104-0.015-0.213-0.022-0.33-0.022
			c-0.118,0-0.279,0-0.484,0c-0.059,0-0.19,0.004-0.396,0.012c-0.206,0.007-0.345,0.011-0.418,0.011
			c-0.133,0.044-0.265,0.11-0.396,0.198s-0.253,0.194-0.363,0.318c-0.109,0.125-0.197,0.261-0.264,0.407s-0.099,0.286-0.099,0.418
			c0,0.338,0.084,0.594,0.253,0.771c0.168,0.176,0.399,0.301,0.692,0.374c0.821-0.029,1.657,0.029,2.509,0.176
			c0.85,0.146,1.649,0.374,2.397,0.682c0.382,0.353,0.708,0.759,0.979,1.221c0.271,0.463,0.406,0.965,0.406,1.508
			c0,0.558-0.117,1.07-0.352,1.54c-0.234,0.469-0.547,0.876-0.935,1.221c-0.39,0.345-0.829,0.612-1.32,0.803
			c-0.492,0.19-1.001,0.286-1.529,0.286c-0.088,0-0.205-0.004-0.352-0.011c-0.147-0.008-0.228-0.012-0.242-0.012
			c-0.029,0-0.092-0.011-0.188-0.032c-0.095-0.022-0.197-0.048-0.308-0.077s-0.217-0.059-0.319-0.088s-0.176-0.052-0.22-0.066
			c-0.264-0.073-0.499-0.216-0.704-0.429s-0.433-0.385-0.682-0.518c-0.088,0.044-0.15,0.136-0.188,0.275
			c-0.036,0.14-0.08,0.286-0.132,0.44c-0.052,0.153-0.14,0.289-0.264,0.406c-0.125,0.117-0.319,0.177-0.583,0.177
			c-0.323,0-0.539-0.129-0.649-0.386c-0.109-0.256-0.165-0.517-0.165-0.78C132.065,42.379,132.069,42.258,132.077,42.162z"/>
		<path d="M147.883,37.542c-0.029-0.557,0.044-1.076,0.22-1.56v-2.438h-2.771c-0.206,0-0.371-0.103-0.495-0.307
			c-0.125-0.205-0.188-0.396-0.188-0.571c0-0.264,0.085-0.483,0.253-0.658c0.169-0.176,0.342-0.345,0.518-0.506
			c0.176-0.147,0.385-0.229,0.627-0.243s0.487-0.022,0.736-0.022c0.265,0,0.51-0.025,0.737-0.077s0.422-0.195,0.583-0.432
			c0.146-0.221,0.22-0.516,0.22-0.885c0-0.368,0.012-0.733,0.033-1.095c0.022-0.361,0.1-0.671,0.231-0.929s0.41-0.388,0.836-0.388
			c0.425,0,0.686,0.13,0.781,0.388c0.095,0.258,0.143,0.563,0.143,0.918c0,0.339-0.019,0.671-0.055,0.995
			c-0.037,0.325-0.056,0.664-0.056,1.018c0,0.089,0,0.222,0,0.398s0.008,0.272,0.022,0.287l0.154,0.154
			c0.014,0.015,0.117,0.022,0.308,0.022c0.205,0,0.366,0,0.484,0c0.308,0,0.604-0.019,0.891-0.056
			c0.286-0.036,0.575-0.055,0.869-0.055c0.337,0,0.616,0.132,0.836,0.396c0.22,0.264,0.33,0.55,0.33,0.857
			c0,0.294-0.092,0.547-0.275,0.759c-0.184,0.213-0.422,0.319-0.715,0.319c-0.366,0-0.708-0.048-1.022-0.143
			c-0.316-0.096-0.687-0.144-1.111-0.144c-0.088,0-0.217,0.004-0.385,0.011c-0.169,0.008-0.261,0.019-0.275,0.033l-0.264,0.242
			v6.098c0,0.117,0.04,0.249,0.121,0.396c0.08,0.146,0.183,0.285,0.308,0.416c0.124,0.132,0.26,0.245,0.407,0.34
			c0.146,0.096,0.286,0.143,0.418,0.143c0.352,0,0.63-0.084,0.836-0.253c0.205-0.168,0.363-0.377,0.473-0.627
			c0.11-0.249,0.198-0.517,0.265-0.803c0.065-0.286,0.135-0.554,0.209-0.803c0.073-0.249,0.176-0.458,0.308-0.627
			s0.322-0.253,0.572-0.253c0.366,0,0.623,0.132,0.77,0.396c0.146,0.265,0.22,0.55,0.22,0.858c0,0.499-0.073,1.005-0.22,1.518
			c-0.146,0.514-0.363,0.979-0.648,1.397c-0.286,0.418-0.643,0.763-1.067,1.034c-0.426,0.271-0.917,0.406-1.474,0.406
			c-0.221,0-0.39-0.007-0.507-0.021s-0.224-0.04-0.318-0.077c-0.096-0.036-0.191-0.087-0.286-0.153
			c-0.096-0.066-0.224-0.157-0.385-0.274c-0.015,0-0.059-0.019-0.132-0.056c-0.074-0.036-0.147-0.073-0.221-0.109
			s-0.146-0.069-0.22-0.099s-0.117-0.052-0.132-0.066c-0.602-0.468-0.994-0.98-1.177-1.537c-0.184-0.556-0.275-1.2-0.275-1.933
			C147.927,38.633,147.912,38.099,147.883,37.542z"/>
	</g>
</g>
<g id="MammaBird">
</g>
<g id="Staringcontest">
</g>
<g id="Cartwheel">
</g>
<g id="Censored">
</g>
<g id="Depersonalization">
</g>
<g id="threeman">
</g>
<g id="_x32__truths_and_a_lie">
</g>
<g id="cray_cray_cat_lady">
</g>
<g id="siblings">
</g>
<g id="later">
</g>
<g id="waterfall">
</g>
<g id="cheers">
</g>
<g id="rhyme">
</g>
<g id="categories">
</g>
<g id="tits">
</g>
<g id="dicks">
</g>
<g id="questions">
</g>
<g id="double_hands">
</g>
<g id="rewind">
</g>
<g id="Cryptkeeper">
</g>
<g id="Take_2_and_Redo">
</g>
<g id="Embryo">
</g>
<g id="I_am_Groot">
</g>
<g id="Mini_Me">
</g>
<g id="Ditto_1_">
</g>
<g id="reverse">
</g>
</svg>
