<?xml version="1.0" encoding="utf-8"?>
<!-- Generator: Adobe Illustrator 16.0.0, SVG Export Plug-In . SVG Version: 6.00 Build 0)  -->
<!DOCTYPE svg PUBLIC "-//W3C//DTD SVG 1.1//EN" "http://www.w3.org/Graphics/SVG/1.1/DTD/svg11.dtd">
<svg version="1.1" xmlns="http://www.w3.org/2000/svg" xmlns:xlink="http://www.w3.org/1999/xlink" x="0px" y="0px"
	 width="209.759px" height="62.361px" viewBox="0 0 209.759 62.361" enable-background="new 0 0 209.759 62.361"
	 xml:space="preserve">
<g id="Layer_1">
</g>
<g id="Blindman">
</g>
<g id="Compliments">
</g>
<g id="HAT">
</g>
<g id="speech">
</g>
<g id="TREX_ARMS">
</g>
<g id="slim_shady">
</g>
<g id="TIMEOUT">
</g>
<g id="Truth_or_Dare">
</g>
<g id="ARM_WRESTLE">
</g>
<g id="musical_chairs">
</g>
<g id="never_have_i_ever">
</g>
<g id="Trivia">
</g>
<g id="Drink_Pulling">
</g>
<g id="Sharing_is_Caring">
</g>
<g id="Not_It">
</g>
<g id="Cocktail_of_Doom">
</g>
<g id="Heads_up">
</g>
<g id="Archenemy">
</g>
<g id="battle_of_the_sexes">
</g>
<g id="one_must_drink">
</g>
<g id="rainbow_connection">
</g>
<g id="social_drinking">
</g>
<g id="Spin_the_bottle">
</g>
<g id="accents">
</g>
<g id="Slap">
</g>
<g id="down_the_hatch">
</g>
<g id="rubiks_cube">
</g>
<g id="bar_tender">
</g>
<g id="codenames">
</g>
<g id="hand_switch">
</g>
<g id="make_a_rule">
</g>
<g id="no_guts_no_glory">
</g>
<g id="pass">
</g>
<g id="santa">
</g>
<g id="snake_eyes">
</g>
<g id="lightning_round">
</g>
<g id="Bro">
</g>
<g id="LeastDrunk">
</g>
<g id="Know_It_All">
</g>
<g id="EyeContact">
</g>
<g id="UnderGuesser">
</g>
<g id="GodSaveTheQUeen">
</g>
<g id="Ghost">
</g>
<g id="Fortune_Teller">
</g>
<g id="DrinkSwap">
</g>
<g id="DickTator">
</g>
<g id="_x34_Eyes">
</g>
<g id="BabyTalk">
</g>
<g id="Backseat_Driver">
</g>
<g id="BAtman">
</g>
<g id="bodyguard">
</g>
<g id="BuckleUp">
</g>
<g id="RockPaperScissors">
</g>
<g id="Roger_Roger">
</g>
<g id="RoyaleWe">
</g>
<g id="Skip">
</g>
<g id="SwineRules">
</g>
<g id="Touchy_Feeley">
</g>
<g id="Wasted_Education">
</g>
<g id="Layer_86">
</g>
<g id="PointOfNoReturn">
</g>
<g id="Pirate">
</g>
<g id="Thief">
</g>
<g id="DepthPerception">
</g>
<g id="Narcissist">
</g>
<g id="MammaBird">
</g>
<g id="Staringcontest">
</g>
<g id="Cartwheel">
	<g>
		<path d="M33.44,41.04c-0.096-0.197-0.191-0.406-0.286-0.627c-0.096-0.219-0.188-0.426-0.275-0.615
			c-0.088-0.191-0.146-0.33-0.176-0.418c-0.162-0.381-0.25-0.756-0.264-1.123c-0.016-0.365-0.074-0.74-0.177-1.121v-2.311
			c0.044-0.189,0.081-0.396,0.11-0.615c0.029-0.221,0.051-0.418,0.066-0.594l0.945-3.104c0.029-0.117,0.106-0.273,0.231-0.473
			c0.124-0.197,0.268-0.398,0.429-0.605c0.161-0.205,0.322-0.398,0.484-0.582c0.161-0.184,0.293-0.318,0.396-0.406
			c0.059-0.029,0.154-0.078,0.286-0.145c0.132-0.064,0.268-0.135,0.407-0.209c0.139-0.072,0.274-0.143,0.407-0.209
			c0.132-0.064,0.227-0.113,0.285-0.143c0.162-0.072,0.33-0.105,0.507-0.1c0.176,0.008,0.337,0.012,0.483,0.012
			c0.558,0,1.049,0.088,1.475,0.264c0.425,0.176,0.894,0.412,1.407,0.705h0.088c0.089,0,0.169-0.053,0.242-0.154
			c0.073-0.104,0.15-0.213,0.231-0.33c0.08-0.117,0.18-0.227,0.297-0.33s0.264-0.154,0.44-0.154c0.176,0,0.322,0.045,0.439,0.133
			s0.209,0.197,0.275,0.33c0.065,0.131,0.109,0.273,0.132,0.428c0.021,0.154,0.033,0.305,0.033,0.451
			c0,0.162-0.019,0.32-0.056,0.473c-0.036,0.154-0.055,0.313-0.055,0.475v0.043c0.015,0.045,0.033,0.133,0.055,0.264
			c0.022,0.133,0.033,0.221,0.033,0.264v2.662c0,0.119-0.025,0.254-0.077,0.408s-0.121,0.305-0.209,0.451s-0.194,0.271-0.318,0.373
			c-0.125,0.104-0.253,0.154-0.386,0.154c-0.234,0-0.418-0.088-0.55-0.264s-0.23-0.381-0.297-0.617
			c-0.066-0.234-0.11-0.473-0.132-0.715c-0.022-0.242-0.055-0.428-0.1-0.561c-0.088-0.338-0.176-0.623-0.264-0.857
			s-0.201-0.443-0.341-0.627s-0.312-0.348-0.517-0.496c-0.206-0.146-0.463-0.293-0.771-0.439c-0.029-0.014-0.077-0.033-0.143-0.055
			c-0.066-0.021-0.106-0.033-0.121-0.033h-1.452c-0.015,0-0.041,0.012-0.077,0.033c-0.037,0.021-0.069,0.041-0.099,0.055
			c-0.323,0.221-0.616,0.492-0.88,0.814c-0.265,0.322-0.492,0.67-0.683,1.045c-0.19,0.373-0.337,0.762-0.439,1.166
			c-0.104,0.402-0.154,0.803-0.154,1.199v2.75c0.015,0.029,0.029,0.102,0.044,0.219c0.015,0.119,0.029,0.191,0.044,0.221
			c0.059,0.439,0.143,0.881,0.253,1.32s0.268,0.848,0.473,1.221c0.206,0.375,0.474,0.703,0.804,0.99
			c0.33,0.285,0.736,0.488,1.221,0.605c0.015,0,0.077,0.004,0.188,0.01c0.109,0.008,0.193,0.012,0.253,0.012
			c0.527,0,0.975-0.121,1.342-0.363c0.366-0.242,0.674-0.551,0.924-0.924c0.249-0.373,0.458-0.785,0.627-1.232
			c0.168-0.447,0.326-0.875,0.473-1.287c0.177-0.293,0.418-0.439,0.727-0.439c0.19,0,0.341,0.041,0.451,0.121
			c0.109,0.08,0.193,0.188,0.253,0.318c0.059,0.133,0.091,0.279,0.099,0.441c0.007,0.16,0.011,0.314,0.011,0.461
			c0,0.543-0.121,1.111-0.362,1.705c-0.242,0.594-0.569,1.137-0.979,1.629c-0.411,0.49-0.88,0.898-1.408,1.221
			c-0.527,0.322-1.085,0.484-1.672,0.484c-0.88,0-1.724-0.178-2.53-0.529s-1.444-0.924-1.913-1.715
			C33.604,41.374,33.535,41.239,33.44,41.04z"/>
		<path d="M46.496,37.983c0.352-0.492,0.792-0.852,1.32-1.078c0.527-0.229,1.104-0.367,1.727-0.418
			c0.623-0.053,1.199-0.1,1.728-0.145c0.527-0.043,0.968-0.123,1.319-0.242c0.353-0.117,0.528-0.352,0.528-0.703
			c0-0.25-0.044-0.484-0.132-0.703c-0.088-0.221-0.25-0.396-0.484-0.529c-0.088-0.043-0.22-0.109-0.396-0.197
			c-0.177-0.088-0.271-0.133-0.286-0.133h-2.068c-0.117,0-0.198,0.063-0.242,0.188s-0.084,0.279-0.121,0.463
			c-0.036,0.184-0.076,0.385-0.121,0.604c-0.044,0.221-0.113,0.422-0.209,0.605c-0.095,0.184-0.234,0.338-0.418,0.463
			s-0.429,0.186-0.736,0.186c-0.47,0-0.854-0.152-1.155-0.461s-0.451-0.689-0.451-1.145c0-0.264,0.044-0.498,0.132-0.703
			s0.206-0.396,0.353-0.572s0.315-0.342,0.506-0.496s0.381-0.297,0.572-0.428c0.161-0.117,0.33-0.246,0.506-0.385
			c0.176-0.141,0.381-0.209,0.616-0.209l3.365,0.043c0.19,0,0.415,0.08,0.672,0.24c0.256,0.162,0.506,0.352,0.747,0.57
			c0.242,0.219,0.455,0.453,0.639,0.701c0.183,0.248,0.297,0.459,0.341,0.635c0.015,0.043,0.036,0.123,0.066,0.24
			c0.028,0.117,0.058,0.238,0.088,0.361c0.029,0.125,0.055,0.242,0.076,0.352c0.022,0.109,0.033,0.186,0.033,0.229v0.68
			c0,0.176,0.004,0.375,0.012,0.602c0.007,0.227-0.026,0.428-0.1,0.604v3.699c0,0.41,0.176,0.613,0.528,0.613
			c0.234,0,0.381-0.102,0.439-0.307s0.11-0.438,0.154-0.693s0.113-0.488,0.209-0.693s0.297-0.309,0.605-0.309
			c0.161,0,0.3,0.045,0.418,0.133c0.117,0.088,0.212,0.197,0.286,0.33c0.073,0.133,0.124,0.275,0.153,0.43
			c0.029,0.152,0.044,0.305,0.044,0.449c0,0.324-0.052,0.646-0.153,0.969c-0.104,0.322-0.246,0.613-0.43,0.869
			c-0.184,0.258-0.41,0.467-0.682,0.627c-0.271,0.162-0.583,0.242-0.936,0.242c-0.278,0-0.521-0.033-0.726-0.1
			s-0.433-0.18-0.682-0.34c-0.088-0.045-0.165-0.113-0.231-0.209c-0.065-0.096-0.132-0.191-0.198-0.287
			c-0.065-0.096-0.14-0.18-0.22-0.252c-0.081-0.074-0.173-0.111-0.274-0.111h-0.11c-0.206,0.104-0.415,0.229-0.627,0.375
			c-0.213,0.146-0.429,0.289-0.649,0.43c-0.22,0.139-0.447,0.256-0.682,0.352c-0.235,0.096-0.477,0.143-0.727,0.143h-1.979
			c-0.161,0-0.301-0.041-0.418-0.121s-0.235-0.158-0.353-0.23c-0.602-0.352-1.037-0.789-1.309-1.309
			c-0.271-0.521-0.407-1.127-0.407-1.816C45.968,39.175,46.145,38.474,46.496,37.983z M47.75,40.479
			c0.044,0.162,0.106,0.318,0.188,0.473c0.08,0.154,0.179,0.283,0.297,0.385c0.117,0.104,0.249,0.154,0.396,0.154h2.244
			c0.015,0,0.063-0.021,0.143-0.066c0.081-0.043,0.15-0.08,0.209-0.109c0.029-0.029,0.1-0.072,0.209-0.133
			c0.11-0.057,0.18-0.094,0.21-0.109c0.542-0.365,0.909-0.748,1.1-1.145c0.19-0.395,0.286-0.908,0.286-1.539v-0.264
			c-0.015,0-0.044-0.012-0.088-0.033s-0.074-0.033-0.088-0.033c-0.016-0.014-0.03-0.021-0.045-0.021l-0.044,0.021
			c-0.044,0-0.165,0.018-0.362,0.055c-0.198,0.037-0.407,0.074-0.627,0.109c-0.221,0.037-0.43,0.074-0.627,0.111
			c-0.198,0.037-0.319,0.055-0.363,0.055c-0.353,0.059-0.708,0.104-1.067,0.133s-0.723,0.072-1.089,0.131
			c-0.19,0.016-0.359,0.133-0.506,0.352c-0.073,0.104-0.165,0.264-0.275,0.484c-0.109,0.221-0.165,0.41-0.165,0.572
			C47.684,40.179,47.706,40.317,47.75,40.479z"/>
		<path d="M60.829,41.579c0.228-0.189,0.51-0.285,0.847-0.285c0.206,0,0.407,0.018,0.605,0.055s0.407,0.055,0.627,0.055
			c0.059,0,0.143-0.004,0.253-0.012c0.11-0.006,0.172-0.01,0.188-0.01l0.088-0.088c0-0.059,0.003-0.154,0.011-0.287
			c0.007-0.131,0.015-0.273,0.022-0.428c0.007-0.154,0.018-0.301,0.032-0.441c0.015-0.139,0.022-0.238,0.022-0.297
			c0-0.029,0.011-0.102,0.033-0.219c0.021-0.117,0.04-0.191,0.055-0.221l-0.044-2.156v-0.418l-0.132-2.596l-0.176-0.176
			c-0.074,0-0.198-0.004-0.374-0.012c-0.177-0.006-0.367-0.014-0.572-0.021c-0.206-0.008-0.396-0.018-0.572-0.033
			c-0.176-0.014-0.301-0.021-0.374-0.021c-0.294-0.029-0.539-0.143-0.737-0.342c-0.197-0.197-0.297-0.443-0.297-0.736
			s0.088-0.547,0.265-0.76c0.176-0.211,0.418-0.318,0.726-0.318c0.015,0,0.036,0,0.066,0c0.044,0,0.065,0.008,0.065,0.021
			c0.234,0.029,0.524,0.033,0.869,0.012s0.693-0.025,1.045-0.012c0.353,0.016,0.683,0.063,0.99,0.143
			c0.308,0.082,0.542,0.232,0.704,0.451c0.029,0.031,0.059,0.092,0.088,0.188s0.063,0.195,0.099,0.297
			c0.037,0.104,0.081,0.191,0.132,0.264c0.052,0.074,0.106,0.111,0.165,0.111h0.044c0.455-0.367,0.942-0.705,1.464-1.012
			c0.521-0.309,1.081-0.463,1.683-0.463c0.366,0,0.723,0.063,1.067,0.188c0.344,0.125,0.641,0.297,0.891,0.516
			c0.249,0.221,0.451,0.488,0.604,0.805c0.154,0.314,0.231,0.662,0.231,1.045c0,0.543-0.129,1.004-0.385,1.385
			c-0.257,0.383-0.693,0.572-1.31,0.572c-0.293,0-0.527-0.092-0.704-0.275c-0.176-0.184-0.315-0.406-0.418-0.67
			s-0.172-0.539-0.209-0.826c-0.036-0.285-0.063-0.531-0.076-0.736c-0.016-0.072-0.06-0.109-0.133-0.109s-0.124,0-0.153,0
			c-0.074,0-0.144,0.004-0.209,0.01c-0.066,0.008-0.129,0.041-0.188,0.1c-0.059,0.045-0.153,0.133-0.286,0.264
			c-0.132,0.133-0.271,0.271-0.418,0.418s-0.286,0.287-0.418,0.418c-0.132,0.133-0.22,0.221-0.264,0.264
			c-0.059,0.059-0.143,0.158-0.253,0.297c-0.11,0.141-0.217,0.291-0.319,0.451c-0.103,0.162-0.19,0.32-0.264,0.475
			c-0.073,0.152-0.11,0.268-0.11,0.34v2.486c0.015,0.029,0.033,0.104,0.056,0.221c0.021,0.117,0.032,0.189,0.032,0.219
			c0,0.045,0.008,0.133,0.022,0.264c0.015,0.133,0.025,0.271,0.033,0.418c0.007,0.148,0.014,0.287,0.021,0.418
			c0.008,0.133,0.011,0.229,0.011,0.287c0.059,0.162,0.146,0.256,0.265,0.285c0.117,0.029,0.256,0.045,0.418,0.045
			c0.161,0,0.326-0.016,0.495-0.045c0.168-0.029,0.333-0.043,0.495-0.043c0.337,0,0.645,0.092,0.924,0.275
			c0.278,0.184,0.418,0.449,0.418,0.803c0,0.293-0.066,0.523-0.198,0.693c-0.132,0.168-0.305,0.293-0.517,0.373
			c-0.213,0.08-0.444,0.133-0.693,0.154c-0.25,0.021-0.484,0.033-0.704,0.033c-0.249,0-0.495-0.016-0.737-0.045
			c-0.241-0.029-0.487-0.043-0.736-0.043c-0.118,0-0.217,0.004-0.297,0.01c-0.081,0.008-0.195,0.033-0.342,0.078h-2.508
			c-0.352,0-0.671-0.117-0.957-0.352c-0.286-0.236-0.429-0.537-0.429-0.902C60.488,42.034,60.602,41.771,60.829,41.579z"/>
		<path d="M77.34,37.542c-0.029-0.557,0.044-1.076,0.22-1.559v-2.438h-2.771c-0.206,0-0.371-0.104-0.495-0.307
			c-0.125-0.205-0.188-0.396-0.188-0.572c0-0.264,0.085-0.482,0.253-0.658c0.169-0.176,0.342-0.344,0.518-0.506
			c0.176-0.146,0.385-0.229,0.627-0.242c0.242-0.016,0.487-0.023,0.736-0.023c0.265,0,0.51-0.025,0.737-0.076
			c0.228-0.053,0.422-0.195,0.583-0.432c0.146-0.221,0.22-0.516,0.22-0.885s0.012-0.734,0.033-1.096
			c0.022-0.361,0.1-0.67,0.231-0.928s0.41-0.389,0.836-0.389c0.425,0,0.686,0.131,0.781,0.389c0.095,0.258,0.143,0.563,0.143,0.918
			c0,0.338-0.019,0.67-0.055,0.994c-0.037,0.326-0.056,0.664-0.056,1.018c0,0.09,0,0.223,0,0.398c0,0.178,0.008,0.273,0.022,0.287
			l0.154,0.154c0.014,0.016,0.117,0.023,0.308,0.023c0.205,0,0.366,0,0.484,0c0.308,0,0.604-0.02,0.891-0.057
			c0.286-0.035,0.575-0.055,0.869-0.055c0.337,0,0.616,0.133,0.836,0.396s0.33,0.551,0.33,0.857c0,0.295-0.092,0.547-0.275,0.76
			s-0.422,0.318-0.715,0.318c-0.366,0-0.708-0.047-1.022-0.143c-0.316-0.096-0.687-0.143-1.111-0.143
			c-0.088,0-0.217,0.004-0.385,0.01c-0.169,0.008-0.261,0.02-0.275,0.033l-0.264,0.242v6.098c0,0.117,0.04,0.25,0.121,0.396
			c0.08,0.146,0.183,0.285,0.308,0.416c0.124,0.131,0.26,0.244,0.407,0.34c0.146,0.096,0.286,0.143,0.418,0.143
			c0.352,0,0.63-0.084,0.836-0.254c0.205-0.168,0.363-0.377,0.473-0.627c0.11-0.248,0.198-0.516,0.265-0.803
			c0.065-0.285,0.135-0.553,0.209-0.803c0.073-0.248,0.176-0.457,0.308-0.627c0.132-0.168,0.322-0.252,0.572-0.252
			c0.366,0,0.623,0.131,0.77,0.395c0.146,0.266,0.22,0.551,0.22,0.859c0,0.498-0.073,1.004-0.22,1.518s-0.363,0.979-0.648,1.396
			c-0.286,0.418-0.643,0.764-1.067,1.035c-0.426,0.271-0.917,0.406-1.474,0.406c-0.221,0-0.39-0.008-0.507-0.021
			c-0.117-0.016-0.224-0.041-0.318-0.078c-0.096-0.035-0.191-0.086-0.286-0.152c-0.096-0.066-0.224-0.158-0.385-0.275
			c-0.015,0-0.059-0.018-0.132-0.055c-0.074-0.037-0.147-0.074-0.221-0.109c-0.073-0.037-0.146-0.07-0.22-0.1
			s-0.117-0.051-0.132-0.066c-0.602-0.467-0.994-0.98-1.177-1.537c-0.184-0.555-0.275-1.199-0.275-1.932
			C77.384,38.634,77.369,38.099,77.34,37.542z"/>
		<path d="M89.528,41.075c-0.132-0.67-0.278-1.352-0.439-2.043c-0.19-0.779-0.393-1.602-0.605-2.463
			c-0.212-0.861-0.443-1.682-0.692-2.461c-0.03-0.029-0.077-0.078-0.144-0.145c-0.065-0.066-0.136-0.135-0.209-0.209
			s-0.143-0.143-0.209-0.209c-0.065-0.066-0.106-0.115-0.121-0.145c-0.073-0.074-0.106-0.162-0.099-0.266
			c0.007-0.104,0.011-0.197,0.011-0.287c0-0.25,0.048-0.445,0.144-0.584c0.095-0.141,0.224-0.244,0.385-0.311
			c0.161-0.064,0.341-0.102,0.539-0.109s0.399-0.012,0.604-0.012c0.19,0,0.403,0.008,0.639,0.023
			c0.234,0.014,0.458,0.059,0.671,0.131c0.212,0.074,0.389,0.184,0.527,0.33c0.14,0.146,0.21,0.352,0.21,0.615
			c0,0.236-0.056,0.408-0.165,0.518c-0.11,0.109-0.231,0.195-0.363,0.254s-0.253,0.113-0.363,0.164
			c-0.11,0.053-0.165,0.137-0.165,0.254v0.131c0.044,0.162,0.113,0.447,0.209,0.859c0.096,0.41,0.198,0.846,0.309,1.309
			c0.109,0.461,0.212,0.895,0.308,1.297c0.095,0.404,0.165,0.686,0.209,0.848c0.029,0.074,0.088,0.25,0.176,0.527h0.088l0.177-0.352
			l0.857-3.959v-1.035c0-0.059-0.037-0.105-0.11-0.143s-0.153-0.08-0.241-0.133c-0.088-0.051-0.169-0.127-0.242-0.23
			c-0.073-0.102-0.11-0.264-0.11-0.484c0-0.146,0.012-0.273,0.033-0.385c0.022-0.109,0.128-0.193,0.319-0.252
			c0.044-0.016,0.113-0.037,0.209-0.066c0.095-0.029,0.197-0.059,0.308-0.088s0.213-0.055,0.308-0.078
			c0.096-0.021,0.165-0.031,0.21-0.031c0.014,0,0.076-0.004,0.187-0.012s0.194-0.012,0.253-0.012c0.19,0,0.433,0.008,0.726,0.023
			c0.294,0.014,0.58,0.059,0.858,0.131c0.278,0.074,0.517,0.184,0.715,0.33s0.297,0.359,0.297,0.639
			c0,0.131-0.032,0.238-0.099,0.318s-0.143,0.154-0.231,0.221c-0.088,0.064-0.184,0.129-0.285,0.186
			c-0.104,0.061-0.191,0.141-0.265,0.242c0,0.029-0.004,0.1-0.011,0.209c-0.008,0.111-0.011,0.18-0.011,0.209
			c0,0.059,0.003,0.145,0.011,0.254c0.007,0.109,0.011,0.172,0.011,0.188c0,0.029,0.015,0.088,0.044,0.176s0.059,0.186,0.088,0.297
			c0.029,0.109,0.059,0.213,0.089,0.307c0.028,0.096,0.044,0.152,0.044,0.166c0.058,0.338,0.099,0.668,0.12,0.99
			c0.022,0.322,0.07,0.652,0.144,0.99c0.029,0.16,0.069,0.373,0.121,0.637c0.051,0.266,0.099,0.488,0.143,0.672
			s0.066,0.289,0.066,0.318l0.088,0.088c0.088-0.029,0.154-0.088,0.198-0.176s0.073-0.189,0.088-0.307s0.021-0.236,0.021-0.354
			s0.015-0.211,0.044-0.285c0-0.029,0.019-0.1,0.056-0.209c0.036-0.109,0.073-0.227,0.109-0.352c0.037-0.125,0.073-0.242,0.11-0.354
			c0.036-0.109,0.055-0.178,0.055-0.209c0.044-0.146,0.096-0.34,0.154-0.582s0.117-0.484,0.176-0.727s0.106-0.451,0.144-0.627
			c0.036-0.176,0.055-0.271,0.055-0.285v-1.123c0-0.088-0.048-0.156-0.143-0.209c-0.096-0.051-0.206-0.102-0.33-0.154
			c-0.125-0.051-0.235-0.113-0.33-0.186c-0.096-0.074-0.144-0.191-0.144-0.354c0-0.234,0.059-0.424,0.177-0.57
			c0.117-0.146,0.264-0.262,0.439-0.342s0.366-0.133,0.572-0.154c0.205-0.021,0.396-0.033,0.572-0.033
			c0.19,0,0.402,0.012,0.638,0.033c0.234,0.021,0.454,0.07,0.66,0.143c0.205,0.074,0.377,0.184,0.517,0.33s0.209,0.346,0.209,0.594
			v0.287c-0.029,0.029-0.077,0.076-0.143,0.143c-0.066,0.066-0.136,0.137-0.209,0.209c-0.074,0.074-0.144,0.143-0.209,0.209
			c-0.066,0.066-0.106,0.113-0.121,0.143c-0.015,0-0.03,0.023-0.044,0.066c-0.015,0.045-0.03,0.08-0.044,0.109
			c-0.016,0.045-0.037,0.104-0.066,0.178c-0.029,0.072-0.059,0.15-0.088,0.23s-0.055,0.158-0.077,0.23
			c-0.021,0.074-0.033,0.117-0.033,0.133c-0.029,0.131-0.08,0.338-0.153,0.615c-0.074,0.279-0.158,0.594-0.253,0.945
			c-0.096,0.354-0.191,0.719-0.286,1.102c-0.096,0.381-0.188,0.748-0.275,1.1s-0.169,0.668-0.242,0.945
			c-0.073,0.279-0.125,0.484-0.153,0.617c-0.03,0.482-0.11,0.967-0.242,1.451s-0.286,0.953-0.462,1.408
			c-0.118,0.146-0.246,0.268-0.386,0.363c-0.139,0.096-0.304,0.143-0.494,0.143c-0.133,0-0.283-0.018-0.451-0.055
			c-0.169-0.037-0.297-0.107-0.386-0.209c-0.117-0.117-0.228-0.375-0.329-0.77c-0.104-0.396-0.198-0.855-0.286-1.375
			c-0.088-0.521-0.169-1.068-0.242-1.641c-0.073-0.57-0.146-1.104-0.22-1.594c-0.074-0.492-0.151-0.902-0.231-1.232
			c-0.081-0.33-0.158-0.51-0.23-0.539c-0.118,0.074-0.202,0.184-0.254,0.33c-0.051,0.146-0.084,0.305-0.099,0.473
			c-0.015,0.17-0.025,0.338-0.033,0.506c-0.007,0.17-0.025,0.313-0.055,0.43c-0.19,0.82-0.341,1.654-0.451,2.496
			c-0.11,0.844-0.274,1.676-0.495,2.498c-0.073,0.234-0.198,0.418-0.374,0.549c-0.176,0.133-0.381,0.199-0.616,0.199
			c-0.22,0-0.406-0.045-0.561-0.133s-0.297-0.221-0.429-0.398C89.858,42.419,89.661,41.745,89.528,41.075z"/>
		<path d="M102.552,41.854c0.089-0.213,0.279-0.318,0.572-0.318c0.176,0,0.326,0.033,0.451,0.098c0.124,0.066,0.275,0.1,0.451,0.1
			c0.044,0,0.139-0.008,0.286-0.021c0.059-0.029,0.139-0.088,0.241-0.176s0.154-0.146,0.154-0.176v-4.818l0.132-0.418v-2.838
			c-0.015-0.029-0.032-0.104-0.055-0.221c-0.021-0.117-0.033-0.189-0.033-0.221c0-0.088-0.007-0.234-0.021-0.439
			s-0.026-0.43-0.033-0.67c-0.008-0.242-0.015-0.471-0.022-0.684c-0.007-0.211-0.011-0.361-0.011-0.451
			c-0.029-0.057-0.073-0.127-0.132-0.209c-0.059-0.08-0.132-0.119-0.22-0.119h-1.21c-0.088,0-0.165-0.049-0.231-0.145
			c-0.065-0.094-0.129-0.209-0.187-0.34c-0.06-0.133-0.104-0.264-0.133-0.396s-0.044-0.227-0.044-0.285
			c0-0.279,0.073-0.488,0.221-0.629c0.146-0.139,0.322-0.23,0.527-0.273c0.205-0.045,0.426-0.066,0.66-0.066
			c0.249,0,0.47-0.008,0.66-0.021c0.029,0,0.099-0.016,0.209-0.045s0.18-0.043,0.209-0.043h0.132c0.366,0,0.704,0.113,1.013,0.34
			c0.308,0.229,0.462,0.547,0.462,0.957v4.773c0.029,0,0.076,0.008,0.143,0.023c0.066,0.014,0.113,0.021,0.143,0.021
			c0.117-0.029,0.217-0.133,0.298-0.309c0.08-0.176,0.157-0.307,0.23-0.395c0.382-0.441,0.825-0.793,1.331-1.057
			s1.053-0.396,1.639-0.396c0.455,0,0.869,0.08,1.243,0.242s0.686,0.385,0.936,0.672c0.249,0.285,0.443,0.623,0.583,1.012
			c0.139,0.389,0.209,0.811,0.209,1.264v5.941l0.264,0.242c0.19,0.014,0.385,0.035,0.583,0.064s0.374,0.088,0.528,0.176
			c0.153,0.09,0.278,0.207,0.374,0.354c0.095,0.146,0.143,0.338,0.143,0.572c0,0.381-0.146,0.656-0.439,0.824
			c-0.294,0.168-0.616,0.252-0.969,0.252c-0.117,0-0.234-0.014-0.352-0.043c-0.118-0.029-0.235-0.045-0.353-0.045
			c-0.264,0-0.521,0.02-0.77,0.057c-0.25,0.035-0.506,0.055-0.771,0.055c-0.073,0-0.224-0.004-0.45-0.012
			c-0.228-0.008-0.378-0.012-0.451-0.012c-0.132-0.027-0.271-0.057-0.418-0.088c-0.147-0.029-0.283-0.076-0.407-0.143
			c-0.125-0.066-0.224-0.15-0.297-0.252c-0.073-0.104-0.11-0.242-0.11-0.418c0-0.293,0.04-0.496,0.121-0.605
			s0.245-0.268,0.495-0.473c0.103-0.074,0.209-0.125,0.319-0.154c0.109-0.029,0.223-0.051,0.341-0.066
			c0.117-0.014,0.23-0.033,0.341-0.055s0.209-0.07,0.297-0.143c0-0.117,0.008-0.326,0.022-0.627
			c0.014-0.301,0.025-0.623,0.032-0.969c0.008-0.344,0.015-0.668,0.022-0.969c0.007-0.299,0.011-0.508,0.011-0.627v-1.406
			c0-0.25,0.012-0.525,0.033-0.826c0.022-0.301,0.007-0.578-0.044-0.836c-0.052-0.256-0.154-0.473-0.308-0.648
			c-0.154-0.176-0.407-0.264-0.76-0.264c-0.469,0-0.898,0.121-1.286,0.363c-0.39,0.24-0.73,0.545-1.023,0.912
			c-0.294,0.367-0.547,0.766-0.759,1.199c-0.213,0.432-0.378,0.848-0.495,1.242c0,0.016-0.008,0.053-0.022,0.111
			s-0.025,0.121-0.032,0.186c-0.008,0.066-0.016,0.129-0.022,0.188c-0.008,0.059-0.011,0.096-0.011,0.109
			c-0.015,0.031-0.033,0.104-0.056,0.221c-0.021,0.117-0.032,0.191-0.032,0.221v2.156c0,0.205,0.099,0.332,0.297,0.385
			c0.198,0.051,0.414,0.102,0.648,0.154c0.234,0.051,0.451,0.15,0.649,0.297s0.297,0.424,0.297,0.836v0.395
			c-0.205,0.279-0.439,0.451-0.704,0.518c-0.264,0.066-0.558,0.1-0.88,0.1c-0.264,0-0.517-0.02-0.759-0.055
			c-0.242-0.037-0.488-0.057-0.737-0.057c-0.293,0-0.572,0.045-0.836,0.133s-0.543,0.133-0.836,0.133
			c-0.338,0-0.649-0.119-0.935-0.354c-0.286-0.234-0.43-0.527-0.43-0.879C102.42,42.298,102.464,42.067,102.552,41.854z"/>
		<path d="M117.94,36.63c0.081-0.543,0.217-1.061,0.407-1.551c0.19-0.492,0.443-0.947,0.759-1.365s0.715-0.758,1.199-1.021
			c0.044-0.029,0.124-0.074,0.242-0.133c0.117-0.059,0.242-0.121,0.374-0.188s0.253-0.123,0.362-0.176
			c0.11-0.051,0.188-0.084,0.231-0.1c0.161-0.072,0.326-0.105,0.495-0.098c0.168,0.008,0.333,0.01,0.495,0.01
			c0.938,0,1.73,0.225,2.376,0.672c0.645,0.447,1.246,1.023,1.804,1.727c0.059,0.088,0.136,0.254,0.231,0.496
			c0.095,0.24,0.183,0.506,0.264,0.791c0.08,0.287,0.15,0.564,0.209,0.836s0.088,0.473,0.088,0.605c0,0.029-0.004,0.092-0.011,0.188
			c-0.008,0.096-0.011,0.156-0.011,0.186c-0.133,0.221-0.309,0.367-0.528,0.441c-0.22,0.072-0.447,0.131-0.682,0.176
			c-0.162,0-0.451-0.004-0.869-0.012s-0.862-0.012-1.331-0.012c-0.455,0-0.892,0.004-1.31,0.012s-0.707,0.012-0.869,0.012
			c-0.161,0-0.355,0.004-0.583,0.01c-0.228,0.008-0.45,0.016-0.671,0.023c-0.22,0.008-0.491,0.025-0.813,0.055l-0.088,0.066
			c0,0.016-0.004,0.066-0.012,0.156c-0.007,0.088-0.011,0.146-0.011,0.176c0,0.428,0.077,0.834,0.231,1.217
			c0.153,0.385,0.366,0.721,0.638,1.008s0.59,0.516,0.957,0.686c0.366,0.17,0.77,0.256,1.21,0.256c0.044,0,0.143-0.004,0.297-0.012
			s0.253-0.012,0.297-0.012c0.205-0.16,0.44-0.273,0.704-0.34c0.265-0.066,0.491-0.18,0.683-0.342
			c0.146-0.131,0.282-0.293,0.406-0.484c0.125-0.189,0.257-0.373,0.396-0.549c0.139-0.176,0.289-0.322,0.451-0.441
			c0.161-0.117,0.358-0.176,0.594-0.176c0.22,0,0.399,0.066,0.539,0.199c0.139,0.131,0.209,0.301,0.209,0.506
			c0,0.338-0.073,0.641-0.22,0.912c-0.147,0.271-0.309,0.539-0.484,0.803c-0.44,0.639-1.02,1.094-1.738,1.369
			s-1.459,0.414-2.222,0.414c-0.748,0-1.423-0.146-2.024-0.441c-0.602-0.293-1.107-0.688-1.518-1.188
			c-0.411-0.498-0.727-1.074-0.946-1.727s-0.33-1.338-0.33-2.057C117.819,37.7,117.859,37.173,117.94,36.63z M119.888,36.321
			c0,0.045,0.029,0.066,0.088,0.066h5.082c0.029,0,0.069-0.018,0.121-0.055c0.051-0.037,0.092-0.07,0.121-0.1
			c0.015-0.029,0.021-0.08,0.021-0.154c0-0.072,0-0.125,0-0.154c0-0.352-0.088-0.648-0.264-0.891s-0.396-0.432-0.66-0.572
			c-0.264-0.139-0.554-0.242-0.869-0.307c-0.315-0.066-0.612-0.1-0.891-0.1c-0.308,0-0.624,0.041-0.946,0.121
			s-0.616,0.209-0.88,0.385s-0.484,0.4-0.66,0.672s-0.264,0.59-0.264,0.957C119.888,36.22,119.888,36.263,119.888,36.321z"/>
		<path d="M130.15,36.63c0.081-0.543,0.217-1.061,0.407-1.551c0.19-0.492,0.443-0.947,0.759-1.365s0.715-0.758,1.199-1.021
			c0.044-0.029,0.124-0.074,0.242-0.133c0.117-0.059,0.242-0.121,0.374-0.188s0.253-0.123,0.362-0.176
			c0.11-0.051,0.188-0.084,0.231-0.1c0.161-0.072,0.326-0.105,0.495-0.098c0.168,0.008,0.333,0.01,0.495,0.01
			c0.938,0,1.73,0.225,2.376,0.672c0.645,0.447,1.246,1.023,1.804,1.727c0.059,0.088,0.136,0.254,0.231,0.496
			c0.095,0.24,0.183,0.506,0.264,0.791c0.08,0.287,0.15,0.564,0.209,0.836s0.088,0.473,0.088,0.605c0,0.029-0.004,0.092-0.011,0.188
			c-0.008,0.096-0.011,0.156-0.011,0.186c-0.133,0.221-0.309,0.367-0.528,0.441c-0.22,0.072-0.447,0.131-0.682,0.176
			c-0.162,0-0.451-0.004-0.869-0.012s-0.862-0.012-1.331-0.012c-0.455,0-0.892,0.004-1.31,0.012s-0.707,0.012-0.869,0.012
			c-0.161,0-0.355,0.004-0.583,0.01c-0.228,0.008-0.45,0.016-0.671,0.023c-0.22,0.008-0.491,0.025-0.813,0.055l-0.088,0.066
			c0,0.016-0.004,0.066-0.012,0.156c-0.007,0.088-0.011,0.146-0.011,0.176c0,0.428,0.077,0.834,0.231,1.217
			c0.153,0.385,0.366,0.721,0.638,1.008s0.59,0.516,0.957,0.686c0.366,0.17,0.77,0.256,1.21,0.256c0.044,0,0.143-0.004,0.297-0.012
			s0.253-0.012,0.297-0.012c0.205-0.16,0.44-0.273,0.704-0.34c0.265-0.066,0.491-0.18,0.683-0.342
			c0.146-0.131,0.282-0.293,0.406-0.484c0.125-0.189,0.257-0.373,0.396-0.549c0.139-0.176,0.289-0.322,0.451-0.441
			c0.161-0.117,0.358-0.176,0.594-0.176c0.22,0,0.399,0.066,0.539,0.199c0.139,0.131,0.209,0.301,0.209,0.506
			c0,0.338-0.073,0.641-0.22,0.912c-0.147,0.271-0.309,0.539-0.484,0.803c-0.44,0.639-1.02,1.094-1.738,1.369
			s-1.459,0.414-2.222,0.414c-0.748,0-1.423-0.146-2.024-0.441c-0.602-0.293-1.107-0.688-1.518-1.188
			c-0.411-0.498-0.727-1.074-0.946-1.727s-0.33-1.338-0.33-2.057C130.029,37.7,130.069,37.173,130.15,36.63z M132.098,36.321
			c0,0.045,0.029,0.066,0.088,0.066h5.082c0.029,0,0.069-0.018,0.121-0.055c0.051-0.037,0.092-0.07,0.121-0.1
			c0.015-0.029,0.021-0.08,0.021-0.154c0-0.072,0-0.125,0-0.154c0-0.352-0.088-0.648-0.264-0.891s-0.396-0.432-0.66-0.572
			c-0.264-0.139-0.554-0.242-0.869-0.307c-0.315-0.066-0.612-0.1-0.891-0.1c-0.308,0-0.624,0.041-0.946,0.121
			s-0.616,0.209-0.88,0.385s-0.484,0.4-0.66,0.672s-0.264,0.59-0.264,0.957C132.098,36.22,132.098,36.263,132.098,36.321z"/>
		<path d="M142.262,42.159c0.029-0.156,0.08-0.303,0.154-0.438c0.072-0.135,0.164-0.25,0.274-0.348s0.245-0.146,0.407-0.146h3.366
			l0.109-0.131v-6.602l0.132-0.416v-3.684c0-0.088-0.088-0.18-0.264-0.273c-0.176-0.096-0.286-0.15-0.33-0.166
			c-0.044,0.016-0.121,0.037-0.23,0.066c-0.11,0.029-0.231,0.059-0.363,0.088s-0.257,0.055-0.374,0.076
			c-0.117,0.023-0.198,0.033-0.242,0.033h-0.352c-0.25,0-0.444-0.025-0.583-0.076c-0.14-0.051-0.313-0.113-0.518-0.188
			c-0.146-0.043-0.278-0.08-0.396-0.109c-0.118-0.029-0.217-0.072-0.297-0.131c-0.081-0.059-0.144-0.135-0.188-0.23
			c-0.044-0.094-0.065-0.236-0.065-0.428c0-0.408,0.157-0.689,0.473-0.844s0.656-0.23,1.023-0.23c0.264,0,0.523,0.029,0.78,0.088
			s0.518,0.088,0.781,0.088c0.205,0,0.403-0.016,0.594-0.045s0.389-0.043,0.595-0.043c0.19,0,0.396,0.021,0.615,0.066
			c0.221,0.043,0.426,0.113,0.616,0.207c0.19,0.096,0.349,0.227,0.473,0.395c0.125,0.168,0.188,0.377,0.188,0.625V41.03l0.22,0.197
			h2.926c0.146,0,0.275,0.041,0.386,0.123c0.109,0.082,0.201,0.184,0.274,0.303c0.073,0.121,0.129,0.252,0.165,0.393
			c0.037,0.143,0.056,0.273,0.056,0.393c0,0.27-0.07,0.51-0.209,0.719c-0.14,0.209-0.363,0.314-0.672,0.314h-8.514
			c-0.249,0-0.487-0.086-0.715-0.258s-0.341-0.385-0.341-0.641C142.218,42.454,142.232,42.315,142.262,42.159z"/>
	</g>
</g>
<g id="Censored">
</g>
<g id="Depersonalization">
</g>
<g id="threeman">
</g>
<g id="_x32__truths_and_a_lie">
</g>
<g id="cray_cray_cat_lady">
</g>
<g id="siblings">
</g>
<g id="later">
</g>
<g id="waterfall">
</g>
<g id="cheers">
</g>
<g id="rhyme">
</g>
<g id="categories">
</g>
<g id="tits">
</g>
<g id="dicks">
</g>
<g id="questions">
</g>
<g id="double_hands">
</g>
<g id="take_2">
</g>
<g id="take_3">
</g>
<g id="give_3">
</g>
<g id="give_2">
</g>
<g id="rewind">
</g>
<g id="Cryptkeeper">
</g>
<g id="Take_2_and_Redo">
</g>
<g id="Embryo">
</g>
<g id="I_am_Groot">
</g>
<g id="Mini_Me">
</g>
<g id="Ditto_1_">
</g>
<g id="reverse">
</g>
</svg>
