<?xml version="1.0" encoding="utf-8"?>
<!-- Generator: Adobe Illustrator 16.0.0, SVG Export Plug-In . SVG Version: 6.00 Build 0)  -->
<!DOCTYPE svg PUBLIC "-//W3C//DTD SVG 1.1//EN" "http://www.w3.org/Graphics/SVG/1.1/DTD/svg11.dtd">
<svg version="1.1" xmlns="http://www.w3.org/2000/svg" xmlns:xlink="http://www.w3.org/1999/xlink" x="0px" y="0px"
	 width="209.759px" height="62.361px" viewBox="0 0 209.759 62.361" enable-background="new 0 0 209.759 62.361"
	 xml:space="preserve">
<g id="Layer_1">
</g>
<g id="Blindman">
</g>
<g id="Compliments">
</g>
<g id="HAT">
</g>
<g id="speech">
</g>
<g id="TREX_ARMS">
</g>
<g id="slim_shady">
</g>
<g id="TIMEOUT">
</g>
<g id="Truth_or_Dare">
</g>
<g id="ARM_WRESTLE">
</g>
<g id="musical_chairs">
</g>
<g id="never_have_i_ever">
</g>
<g id="Trivia">
</g>
<g id="Drink_Pulling">
</g>
<g id="Sharing_is_Caring">
</g>
<g id="Not_It">
</g>
<g id="Cocktail_of_Doom">
</g>
<g id="Heads_up">
</g>
<g id="Archenemy">
</g>
<g id="battle_of_the_sexes">
</g>
<g id="one_must_drink">
</g>
<g id="rainbow_connection">
</g>
<g id="social_drinking">
</g>
<g id="Spin_the_bottle">
</g>
<g id="accents">
</g>
<g id="Slap">
</g>
<g id="down_the_hatch">
</g>
<g id="rubiks_cube">
</g>
<g id="bar_tender">
</g>
<g id="codenames">
</g>
<g id="hand_switch">
</g>
<g id="make_a_rule">
</g>
<g id="no_guts_no_glory">
</g>
<g id="pass">
</g>
<g id="santa">
</g>
<g id="snake_eyes">
</g>
<g id="lightning_round">
</g>
<g id="Bro">
</g>
<g id="LeastDrunk">
</g>
<g id="Know_It_All">
</g>
<g id="EyeContact">
</g>
<g id="UnderGuesser">
</g>
<g id="GodSaveTheQUeen">
</g>
<g id="Ghost">
</g>
<g id="Fortune_Teller">
</g>
<g id="DrinkSwap">
</g>
<g id="DickTator">
</g>
<g id="_x34_Eyes">
	<g>
		<path d="M63.438,41.964c0.073-0.198,0.212-0.355,0.418-0.473c0.264-0.073,0.542-0.144,0.836-0.209
			c0.293-0.066,0.586-0.113,0.88-0.144l0.176-0.176v-1.276l-0.176-0.176c-0.146-0.015-0.242-0.021-0.286-0.021
			c-0.146,0-0.282,0.004-0.407,0.011c-0.124,0.008-0.268,0.041-0.429,0.099h-3.872c-0.249,0-0.484-0.103-0.704-0.308
			s-0.33-0.433-0.33-0.682v-0.221c0.278-0.571,0.572-1.136,0.88-1.693c0.309-0.558,0.616-1.115,0.925-1.672
			c0.542-0.969,1.063-1.933,1.562-2.894c0.498-0.96,1.07-1.888,1.716-2.783c0.117-0.176,0.228-0.374,0.33-0.594
			s0.217-0.429,0.341-0.627c0.125-0.198,0.271-0.363,0.44-0.495c0.168-0.132,0.385-0.198,0.648-0.198
			c0.265,0,0.507,0.07,0.727,0.209c0.22,0.14,0.366,0.334,0.439,0.583c0.015,0.074,0.041,0.173,0.077,0.298
			c0.037,0.124,0.073,0.253,0.11,0.385c0.036,0.132,0.066,0.249,0.088,0.352c0.022,0.103,0.033,0.162,0.033,0.176v8.009h1.936
			c0.132,0,0.25,0.04,0.353,0.121c0.103,0.08,0.19,0.18,0.264,0.297s0.132,0.241,0.176,0.374c0.044,0.132,0.066,0.249,0.066,0.352
			c0,0.44-0.228,0.719-0.682,0.836c-0.06,0-0.165,0.004-0.319,0.011c-0.154,0.008-0.319,0.016-0.495,0.022
			c-0.176,0.008-0.345,0.019-0.506,0.033c-0.162,0.015-0.271,0.021-0.33,0.021c-0.132,0.03-0.234,0.056-0.308,0.077
			c-0.074,0.022-0.14,0.048-0.198,0.077s-0.088,0.066-0.088,0.11v1.1c0,0.088,0.055,0.176,0.165,0.264
			c0.109,0.088,0.201,0.147,0.274,0.177c0.265,0,0.514,0.003,0.748,0.011s0.443,0.044,0.627,0.109
			c0.184,0.066,0.33,0.181,0.44,0.342c0.109,0.161,0.165,0.396,0.165,0.704c0,0.249-0.081,0.462-0.242,0.638
			s-0.374,0.264-0.638,0.264h-5.082c-0.235,0-0.437-0.08-0.605-0.242c-0.169-0.161-0.253-0.352-0.253-0.571
			C63.327,42.364,63.363,42.162,63.438,41.964z M62.381,37.443c0,0.044,0.029,0.073,0.089,0.088h0.682
			c0.425,0,0.843-0.025,1.254-0.077c0.41-0.052,0.828-0.084,1.254-0.099c0.088-0.059,0.15-0.144,0.188-0.254
			c0.036-0.109,0.062-0.227,0.076-0.352c0.015-0.124,0.019-0.245,0.012-0.363c-0.008-0.117-0.012-0.212-0.012-0.286
			c0-0.293-0.019-0.579-0.055-0.857c-0.037-0.278-0.055-0.564-0.055-0.858c0-0.542,0.021-1.066,0.065-1.573
			c0.044-0.506,0.066-1.037,0.066-1.595c-0.088,0-0.238,0.129-0.451,0.385c-0.213,0.257-0.451,0.583-0.715,0.979
			c-0.264,0.396-0.539,0.836-0.825,1.32c-0.286,0.483-0.543,0.953-0.77,1.407c-0.228,0.455-0.418,0.862-0.572,1.222
			s-0.231,0.619-0.231,0.78C62.381,37.341,62.381,37.385,62.381,37.443z"/>
		<path d="M73.425,42.173c0.029-0.161,0.077-0.308,0.143-0.439c0.066-0.133,0.158-0.238,0.275-0.319
			c0.117-0.08,0.271-0.121,0.462-0.121h0.132c0.029,0.015,0.113,0.033,0.253,0.055c0.14,0.022,0.224,0.033,0.253,0.033h0.045
			c0.072,0,0.172-0.007,0.297-0.021c0.124-0.015,0.253-0.033,0.385-0.056c0.132-0.021,0.256-0.044,0.374-0.065
			c0.117-0.022,0.212-0.033,0.286-0.033c0.088-0.059,0.153-0.165,0.197-0.319c0.045-0.153,0.066-0.274,0.066-0.362l-0.044-5.171
			v-0.418l-0.044-3.014c0.073-0.19,0.106-0.407,0.099-0.648c-0.007-0.242-0.011-0.451-0.011-0.628v-0.55l-0.176-0.153
			c-0.015-0.015-0.073-0.022-0.176-0.022c-0.104,0-0.184,0-0.242,0c-0.25,0-0.488,0.019-0.715,0.055
			c-0.228,0.037-0.466,0.056-0.716,0.056c-0.396,0-0.719-0.088-0.968-0.265c-0.249-0.176-0.374-0.477-0.374-0.901
			c0-0.353,0.103-0.649,0.309-0.892c0.205-0.241,0.498-0.362,0.88-0.362c1.789,0,3.571,0.019,5.346,0.055
			c1.774,0.037,3.557,0.048,5.346,0.033c0.221,0.029,0.403,0.169,0.551,0.418c0.146,0.249,0.22,0.483,0.22,0.704v4.642
			c0,0.264-0.096,0.477-0.286,0.638c-0.19,0.162-0.411,0.242-0.66,0.242c-0.205,0-0.407-0.073-0.604-0.22
			c-0.198-0.146-0.297-0.337-0.297-0.572v-2.332c0-0.015-0.048-0.109-0.144-0.286c-0.096-0.176-0.173-0.308-0.23-0.396
			c-0.074-0.088-0.195-0.209-0.363-0.363c-0.169-0.154-0.312-0.23-0.429-0.23h-4.202l-0.088,0.088c0,0.088-0.004,0.253-0.012,0.495
			c-0.007,0.241-0.019,0.494-0.032,0.759c-0.016,0.264-0.026,0.514-0.033,0.748c-0.008,0.234-0.012,0.396-0.012,0.483
			c0,0.03-0.015,0.118-0.044,0.265s-0.044,0.234-0.044,0.264v0.044v0.022c0.015,0.073,0.029,0.165,0.044,0.274
			c0.015,0.11,0.033,0.213,0.056,0.309c0.021,0.095,0.047,0.216,0.077,0.362l0.088,0.088h1.122c0.161-0.117,0.341-0.212,0.539-0.285
			c0.197-0.073,0.355-0.206,0.473-0.396c0.103-0.161,0.161-0.377,0.176-0.649c0.015-0.271,0.036-0.538,0.066-0.803
			c0.029-0.264,0.095-0.491,0.197-0.682s0.301-0.286,0.595-0.286c0.234,0,0.425,0.085,0.571,0.253
			c0.146,0.169,0.221,0.378,0.221,0.627v7.216c0,0.47-0.228,0.704-0.683,0.704c-0.293,0-0.514-0.091-0.659-0.274
			c-0.147-0.184-0.25-0.403-0.309-0.66s-0.088-0.524-0.088-0.804c0-0.278,0-0.506,0-0.682c-0.029-0.073-0.088-0.184-0.176-0.33
			s-0.194-0.289-0.319-0.429s-0.249-0.264-0.374-0.374s-0.23-0.165-0.318-0.165h-0.946c-0.059,0-0.088,0.029-0.088,0.088
			c-0.03,0.029-0.059,0.088-0.088,0.176v4.818l0.176,0.176h2.222c0.353-0.103,0.671-0.15,0.957-0.143
			c0.286,0.007,0.55,0.004,0.792-0.012c0.242-0.014,0.466-0.076,0.671-0.187s0.403-0.341,0.594-0.693
			c0.029-0.044,0.066-0.113,0.11-0.209c0.044-0.095,0.066-0.165,0.066-0.209v-2.155c0-0.25,0.088-0.47,0.264-0.66
			s0.389-0.286,0.638-0.286c0.309,0,0.558,0.143,0.748,0.429s0.286,0.568,0.286,0.847v3.015c0.073,0.161,0.113,0.297,0.121,0.407
			c0.007,0.109,0.011,0.245,0.011,0.406c0,0.543-0.161,0.961-0.483,1.254c-0.323,0.294-0.748,0.44-1.276,0.44
			c-0.161,0-0.315,0-0.462,0c-0.132,0-0.278-0.029-0.44-0.088h-7.325c-0.191,0.073-0.404,0.106-0.639,0.099
			c-0.234-0.007-0.439-0.011-0.615-0.011c-0.206,0-0.404-0.004-0.595-0.011c-0.19-0.008-0.362-0.044-0.517-0.11
			c-0.154-0.065-0.275-0.165-0.363-0.297s-0.132-0.322-0.132-0.572C73.381,42.488,73.396,42.335,73.425,42.173z"/>
		<path d="M89.264,44.131c0.309-0.41,0.741-0.616,1.299-0.616c0.454,0,0.792,0.15,1.012,0.451s0.33,0.664,0.33,1.089
			c0,0.161-0.03,0.297-0.088,0.407c-0.06,0.11-0.088,0.238-0.088,0.385c0,0.029,0.003,0.066,0.011,0.11
			c0.007,0.044,0.033,0.066,0.077,0.066h0.594c0.132-0.104,0.238-0.191,0.319-0.265c0.08-0.073,0.164-0.15,0.253-0.23
			c0.088-0.081,0.161-0.144,0.22-0.188c0.132-0.146,0.26-0.318,0.385-0.517s0.234-0.407,0.33-0.627
			c0.096-0.221,0.172-0.444,0.231-0.671c0.058-0.228,0.088-0.437,0.088-0.627c0-0.059,0-0.146,0-0.265
			c0-0.132-0.008-0.205-0.022-0.22c0-0.015-0.015-0.069-0.044-0.165s-0.059-0.198-0.088-0.308c-0.029-0.11-0.066-0.217-0.11-0.319
			s-0.073-0.184-0.088-0.242c-0.073-0.19-0.209-0.528-0.407-1.012c-0.197-0.484-0.406-0.993-0.627-1.529
			c-0.22-0.535-0.429-1.045-0.627-1.529c-0.197-0.483-0.333-0.82-0.406-1.012c-0.03-0.278-0.104-0.594-0.221-0.946
			c-0.117-0.352-0.301-0.608-0.55-0.77c-0.044,0-0.129-0.004-0.253-0.011c-0.125-0.008-0.257-0.015-0.396-0.022
			c-0.14-0.007-0.272-0.018-0.396-0.033c-0.125-0.014-0.209-0.021-0.253-0.021c-0.176-0.029-0.338-0.088-0.484-0.176
			s-0.22-0.234-0.22-0.44c0-0.146,0.011-0.308,0.033-0.484c0.021-0.176,0.063-0.341,0.121-0.494
			c0.059-0.154,0.146-0.286,0.264-0.396s0.271-0.165,0.462-0.165h3.433c0.132,0,0.274,0.026,0.429,0.077
			c0.154,0.052,0.297,0.121,0.429,0.209s0.238,0.194,0.319,0.319c0.08,0.124,0.121,0.26,0.121,0.406
			c0,0.265-0.074,0.463-0.221,0.595s-0.304,0.234-0.473,0.308s-0.326,0.146-0.473,0.22c-0.147,0.074-0.221,0.177-0.221,0.309
			c0,0.205,0.041,0.422,0.121,0.648c0.081,0.228,0.177,0.459,0.286,0.693c0.11,0.234,0.224,0.462,0.341,0.682
			c0.117,0.221,0.213,0.426,0.286,0.616c0.029,0.073,0.069,0.176,0.121,0.308c0.052,0.133,0.106,0.272,0.165,0.419
			s0.11,0.282,0.154,0.406c0.044,0.125,0.073,0.209,0.088,0.253c0.015,0.03,0.033,0.104,0.055,0.221
			c0.022,0.117,0.056,0.234,0.1,0.352s0.099,0.224,0.165,0.319c0.065,0.096,0.143,0.143,0.23,0.143s0.173-0.065,0.253-0.198
			c0.081-0.132,0.154-0.282,0.221-0.45c0.065-0.169,0.12-0.334,0.164-0.495c0.045-0.161,0.081-0.271,0.11-0.33
			c0.044-0.132,0.113-0.359,0.209-0.683c0.096-0.322,0.198-0.667,0.309-1.033c0.109-0.367,0.212-0.712,0.308-1.034
			c0.095-0.322,0.157-0.55,0.187-0.683c0.015-0.028,0.022-0.065,0.022-0.109c0-0.059,0-0.096,0-0.11
			c0-0.146-0.066-0.253-0.198-0.318c-0.132-0.066-0.274-0.14-0.429-0.221c-0.154-0.08-0.294-0.19-0.418-0.33
			c-0.125-0.139-0.188-0.355-0.188-0.648c0-0.249,0.073-0.455,0.221-0.616c0.146-0.161,0.366-0.242,0.659-0.242h2.839
			c0.205,0.059,0.414,0.092,0.627,0.1c0.212,0.007,0.406,0.029,0.583,0.065c0.176,0.037,0.318,0.114,0.429,0.231
			s0.165,0.315,0.165,0.594c0,0.352-0.055,0.616-0.165,0.792s-0.261,0.297-0.451,0.363c-0.19,0.065-0.418,0.099-0.682,0.099
			c-0.265,0-0.55,0-0.858,0c-0.161,0.117-0.297,0.271-0.407,0.462c-0.109,0.19-0.205,0.396-0.285,0.616
			c-0.081,0.22-0.147,0.439-0.198,0.66c-0.052,0.22-0.1,0.418-0.144,0.594c-0.396,1.467-0.843,2.893-1.342,4.279
			c-0.499,1.386-1.026,2.797-1.584,4.234c0,0.015-0.011,0.044-0.033,0.088c-0.021,0.044-0.04,0.073-0.055,0.089
			c-0.015,0.014-0.055,0.069-0.121,0.164c-0.066,0.096-0.106,0.15-0.121,0.165c-0.015,0.029-0.04,0.085-0.077,0.165
			c-0.036,0.081-0.08,0.173-0.132,0.275s-0.099,0.194-0.143,0.275c-0.044,0.08-0.074,0.128-0.088,0.143
			c-0.294,0.41-0.693,0.759-1.199,1.045s-1.009,0.429-1.507,0.429c-0.382,0-0.756-0.065-1.122-0.197
			c-0.367-0.133-0.693-0.319-0.979-0.562s-0.517-0.527-0.692-0.857c-0.177-0.33-0.265-0.693-0.265-1.09
			C88.802,45.019,88.956,44.541,89.264,44.131z"/>
		<path d="M104.146,36.629c0.081-0.542,0.217-1.06,0.407-1.551s0.443-0.946,0.759-1.364s0.715-0.759,1.199-1.022
			c0.044-0.029,0.124-0.073,0.242-0.133c0.117-0.058,0.242-0.12,0.374-0.187s0.253-0.124,0.362-0.176
			c0.11-0.052,0.188-0.085,0.231-0.1c0.161-0.073,0.326-0.105,0.495-0.099c0.168,0.008,0.333,0.011,0.495,0.011
			c0.938,0,1.73,0.224,2.376,0.671c0.645,0.448,1.246,1.023,1.804,1.728c0.059,0.088,0.136,0.253,0.231,0.495
			c0.095,0.241,0.183,0.506,0.264,0.792c0.08,0.286,0.15,0.564,0.209,0.836s0.088,0.473,0.088,0.604c0,0.03-0.004,0.092-0.011,0.188
			c-0.008,0.096-0.011,0.157-0.011,0.187c-0.133,0.22-0.309,0.367-0.528,0.44s-0.447,0.132-0.682,0.176
			c-0.162,0-0.451-0.004-0.869-0.011c-0.418-0.008-0.862-0.012-1.331-0.012c-0.455,0-0.892,0.004-1.31,0.012
			c-0.418,0.007-0.707,0.011-0.869,0.011c-0.161,0-0.355,0.004-0.583,0.011c-0.228,0.008-0.45,0.015-0.671,0.022
			c-0.22,0.008-0.491,0.026-0.813,0.056l-0.088,0.066c0,0.015-0.004,0.066-0.012,0.155c-0.007,0.088-0.011,0.147-0.011,0.177
			c0,0.428,0.077,0.833,0.231,1.217c0.153,0.384,0.366,0.72,0.638,1.008c0.271,0.287,0.59,0.516,0.957,0.686
			c0.366,0.17,0.77,0.255,1.21,0.255c0.044,0,0.143-0.004,0.297-0.012c0.154-0.007,0.253-0.011,0.297-0.011
			c0.205-0.161,0.44-0.274,0.704-0.341c0.265-0.066,0.491-0.18,0.683-0.341c0.146-0.132,0.282-0.294,0.406-0.484
			c0.125-0.19,0.257-0.374,0.396-0.55c0.139-0.176,0.289-0.322,0.451-0.44c0.161-0.117,0.358-0.176,0.594-0.176
			c0.22,0,0.399,0.066,0.539,0.198c0.139,0.132,0.209,0.301,0.209,0.506c0,0.338-0.073,0.642-0.22,0.913
			c-0.147,0.271-0.309,0.539-0.484,0.803c-0.44,0.638-1.02,1.094-1.738,1.369s-1.459,0.413-2.222,0.413
			c-0.748,0-1.423-0.146-2.024-0.44c-0.602-0.293-1.107-0.688-1.518-1.188c-0.411-0.498-0.727-1.074-0.946-1.728
			c-0.22-0.652-0.33-1.338-0.33-2.057C104.025,37.7,104.065,37.172,104.146,36.629z M106.094,36.321
			c0,0.044,0.029,0.065,0.088,0.065h5.082c0.029,0,0.069-0.018,0.121-0.055c0.051-0.036,0.092-0.069,0.121-0.099
			c0.015-0.029,0.021-0.081,0.021-0.154s0-0.125,0-0.154c0-0.352-0.088-0.648-0.264-0.891s-0.396-0.433-0.66-0.572
			c-0.264-0.139-0.554-0.242-0.869-0.308c-0.315-0.066-0.612-0.1-0.891-0.1c-0.308,0-0.624,0.041-0.946,0.121
			c-0.322,0.081-0.616,0.209-0.88,0.385c-0.264,0.177-0.484,0.4-0.66,0.672s-0.264,0.59-0.264,0.957
			C106.094,36.219,106.094,36.263,106.094,36.321z"/>
		<path d="M116.248,42.162c0.007-0.096,0.047-0.217,0.12-0.363v-2.596c0-0.205,0.081-0.37,0.242-0.495
			c0.161-0.124,0.338-0.187,0.528-0.187c0.088,0,0.187,0.011,0.297,0.032c0.11,0.022,0.201,0.07,0.275,0.144
			c0.103,0.117,0.161,0.261,0.176,0.429c0.015,0.169,0.065,0.312,0.154,0.429c0.19,0.265,0.377,0.518,0.561,0.76
			c0.184,0.241,0.385,0.454,0.605,0.638c0.22,0.184,0.465,0.33,0.736,0.439c0.271,0.11,0.583,0.165,0.936,0.165
			c0.308,0,0.619-0.032,0.935-0.099s0.602-0.172,0.858-0.319c0.256-0.146,0.469-0.341,0.638-0.583
			c0.169-0.241,0.253-0.539,0.253-0.891c0-0.249-0.04-0.447-0.121-0.594s-0.245-0.271-0.495-0.374
			c-0.454-0.146-0.932-0.249-1.43-0.309c-0.499-0.059-0.99-0.117-1.474-0.176c-0.484-0.059-0.95-0.139-1.397-0.242
			c-0.447-0.103-0.836-0.271-1.166-0.506c-0.33-0.234-0.594-0.557-0.792-0.968c-0.198-0.41-0.297-0.953-0.297-1.628
			c0-0.777,0.187-1.394,0.561-1.848c0.374-0.455,0.913-0.829,1.617-1.122c0.161-0.073,0.334-0.136,0.518-0.188
			c0.183-0.051,0.37-0.077,0.561-0.077h0.198c0.528,0.074,1.066,0.188,1.617,0.341c0.55,0.154,1.045,0.386,1.484,0.693
			c0.103-0.073,0.188-0.161,0.253-0.264c0.066-0.103,0.133-0.198,0.198-0.286c0.066-0.088,0.144-0.161,0.231-0.22
			s0.205-0.089,0.352-0.089c0.205,0,0.393,0.077,0.562,0.231c0.168,0.154,0.245,0.334,0.23,0.539c0,0.088,0.004,0.246,0.011,0.473
			c0.008,0.228,0.015,0.47,0.022,0.727c0.007,0.257,0.019,0.498,0.033,0.726s0.021,0.385,0.021,0.473v0.265
			c0,0.264-0.077,0.531-0.23,0.803c-0.154,0.271-0.386,0.407-0.693,0.407c-0.264,0-0.473-0.117-0.627-0.353
			c-0.154-0.234-0.297-0.502-0.429-0.803c-0.132-0.3-0.286-0.59-0.462-0.869c-0.177-0.278-0.426-0.462-0.748-0.55
			c-0.206-0.059-0.363-0.099-0.474-0.121c-0.109-0.021-0.216-0.04-0.318-0.055c-0.104-0.015-0.213-0.022-0.33-0.022
			c-0.118,0-0.279,0-0.484,0c-0.059,0-0.19,0.004-0.396,0.012c-0.206,0.007-0.345,0.011-0.418,0.011
			c-0.133,0.044-0.265,0.11-0.396,0.198s-0.253,0.194-0.363,0.318c-0.109,0.125-0.197,0.261-0.264,0.407s-0.099,0.286-0.099,0.418
			c0,0.338,0.084,0.594,0.253,0.771c0.168,0.176,0.399,0.301,0.692,0.374c0.821-0.029,1.657,0.029,2.509,0.176
			c0.85,0.146,1.649,0.374,2.397,0.682c0.382,0.353,0.708,0.759,0.979,1.221c0.271,0.463,0.406,0.965,0.406,1.508
			c0,0.558-0.117,1.07-0.352,1.54c-0.234,0.469-0.547,0.876-0.935,1.221c-0.39,0.345-0.829,0.612-1.32,0.803
			c-0.492,0.19-1.001,0.286-1.529,0.286c-0.088,0-0.205-0.004-0.352-0.011c-0.147-0.008-0.228-0.012-0.242-0.012
			c-0.029,0-0.092-0.011-0.188-0.032c-0.095-0.022-0.197-0.048-0.308-0.077s-0.217-0.059-0.319-0.088s-0.176-0.052-0.22-0.066
			c-0.264-0.073-0.499-0.216-0.704-0.429s-0.433-0.385-0.682-0.518c-0.088,0.044-0.15,0.136-0.188,0.275
			c-0.036,0.14-0.08,0.286-0.132,0.44c-0.052,0.153-0.14,0.289-0.264,0.406c-0.125,0.117-0.319,0.177-0.583,0.177
			c-0.323,0-0.539-0.129-0.649-0.386c-0.109-0.256-0.165-0.517-0.165-0.78C116.236,42.379,116.24,42.258,116.248,42.162z"/>
	</g>
</g>
<g id="BabyTalk">
</g>
<g id="Backseat_Driver">
</g>
<g id="BAtman">
</g>
<g id="bodyguard">
</g>
<g id="BuckleUp">
</g>
<g id="RockPaperScissors">
</g>
<g id="Roger_Roger">
</g>
<g id="RoyaleWe">
</g>
<g id="Skip">
</g>
<g id="SwineRules">
</g>
<g id="Touchy_Feeley">
</g>
<g id="Wasted_Education">
</g>
<g id="Layer_86">
</g>
<g id="PointOfNoReturn">
</g>
<g id="Pirate">
</g>
<g id="Thief">
</g>
<g id="DepthPerception">
</g>
<g id="Narcissist">
</g>
<g id="MammaBird">
</g>
<g id="Staringcontest">
</g>
<g id="Cartwheel">
</g>
<g id="Censored">
</g>
<g id="Depersonalization">
</g>
<g id="threeman">
</g>
<g id="_x32__truths_and_a_lie">
</g>
<g id="cray_cray_cat_lady">
</g>
<g id="siblings">
</g>
<g id="later">
</g>
<g id="waterfall">
</g>
<g id="cheers">
</g>
<g id="rhyme">
</g>
<g id="categories">
</g>
<g id="tits">
</g>
<g id="dicks">
</g>
<g id="questions">
</g>
<g id="double_hands">
</g>
<g id="take_2">
</g>
<g id="take_3">
</g>
<g id="give_3">
</g>
<g id="give_2">
</g>
<g id="rewind">
</g>
<g id="Cryptkeeper">
</g>
<g id="Take_2_and_Redo">
</g>
<g id="Embryo">
</g>
<g id="I_am_Groot">
</g>
<g id="Mini_Me">
</g>
<g id="Ditto_1_">
</g>
<g id="reverse">
</g>
</svg>
