<?xml version="1.0" encoding="utf-8"?>
<!-- Generator: Adobe Illustrator 16.0.0, SVG Export Plug-In . SVG Version: 6.00 Build 0)  -->
<!DOCTYPE svg PUBLIC "-//W3C//DTD SVG 1.1//EN" "http://www.w3.org/Graphics/SVG/1.1/DTD/svg11.dtd">
<svg version="1.1" xmlns="http://www.w3.org/2000/svg" xmlns:xlink="http://www.w3.org/1999/xlink" x="0px" y="0px"
	 width="209.759px" height="62.361px" viewBox="0 0 209.759 62.361" enable-background="new 0 0 209.759 62.361"
	 xml:space="preserve">
<g id="Layer_1">
</g>
<g id="Hat">
</g>
<g id="Compliments">
</g>
<g id="HAT">
</g>
<g id="speech">
</g>
<g id="TREX_ARMS">
</g>
<g id="Layer_7">
</g>
<g id="TIMEOUT">
</g>
<g id="Layer_9">
</g>
<g id="ARM_WRESTLE">
</g>
<g id="musical_chairs">
</g>
<g id="never_have_i_ever">
</g>
<g id="Trivia">
</g>
<g id="Layer_14">
</g>
<g id="Layer_15">
</g>
<g id="Layer_16">
</g>
<g id="Layer_17">
</g>
<g id="Heads_up">
</g>
<g id="Archenemy">
</g>
<g id="battle_of_the_sexes">
</g>
<g id="one_must_drink">
</g>
<g id="rainbow_connection">
</g>
<g id="social_drinking">
</g>
<g id="Spin_the_bottle">
</g>
<g id="accents">
</g>
<g id="Slap">
</g>
<g id="give_3">
</g>
<g id="Layer_36">
</g>
<g id="Layer_37">
</g>
<g id="Layer_38">
</g>
<g id="Layer_39">
</g>
<g id="Layer_40">
	<g>
		<path d="M44.116,15.156h5.227v21.918c0,0.754,0.182,1.338,0.546,1.754c0.363,0.416,0.883,0.625,1.56,0.625
			c0.313,0,0.656-0.053,1.033-0.156s0.734-0.234,1.073-0.391l0.702,3.979c-0.702,0.338-1.521,0.598-2.457,0.779
			c-0.937,0.182-1.781,0.273-2.535,0.273c-1.639,0-2.906-0.436-3.803-1.307c-0.897-0.871-1.346-2.111-1.346-3.725V15.156z"/>
		<path d="M65.8,44.016c-0.988,0-1.911-0.162-2.77-0.488c-0.857-0.324-1.599-0.779-2.223-1.365
			c-0.624-0.584-1.111-1.268-1.462-2.047c-0.352-0.779-0.527-1.639-0.527-2.574c0-0.961,0.215-1.852,0.644-2.672
			c0.43-0.818,1.027-1.514,1.794-2.086s1.684-1.02,2.75-1.346c1.065-0.324,2.235-0.486,3.51-0.486c0.91,0,1.8,0.078,2.672,0.232
			c0.87,0.156,1.644,0.379,2.32,0.664v-1.17c0-1.352-0.384-2.393-1.15-3.121c-0.768-0.727-1.905-1.092-3.413-1.092
			c-1.092,0-2.158,0.195-3.197,0.586c-1.04,0.391-2.106,0.961-3.198,1.715l-1.599-3.314c2.625-1.742,5.46-2.613,8.502-2.613
			c2.938,0,5.219,0.723,6.844,2.166c1.625,1.441,2.438,3.529,2.438,6.258v6.357c0,0.547,0.098,0.936,0.293,1.17
			s0.513,0.365,0.955,0.391v4.445c-0.884,0.182-1.651,0.273-2.301,0.273c-0.988,0-1.749-0.221-2.281-0.662
			c-0.533-0.443-0.865-1.027-0.995-1.756l-0.116-1.131c-0.911,1.195-2.016,2.105-3.315,2.73
			C68.672,43.703,67.282,44.016,65.8,44.016z M67.282,40.193c0.883,0,1.722-0.156,2.515-0.469c0.793-0.311,1.41-0.727,1.853-1.248
			c0.572-0.441,0.858-0.936,0.858-1.48v-2.34c-0.624-0.234-1.301-0.424-2.028-0.566s-1.43-0.215-2.105-0.215
			c-1.353,0-2.457,0.307-3.315,0.916c-0.857,0.611-1.287,1.385-1.287,2.322c0,0.883,0.338,1.617,1.015,2.203
			C65.462,39.9,66.293,40.193,67.282,40.193z"/>
		<path d="M98.403,42.572c-0.702,0.313-1.56,0.625-2.574,0.936c-1.014,0.313-2.08,0.469-3.198,0.469
			c-0.728,0-1.41-0.092-2.047-0.273c-0.638-0.182-1.196-0.475-1.677-0.877c-0.481-0.402-0.865-0.922-1.151-1.561
			c-0.286-0.637-0.429-1.41-0.429-2.32V27.207h-2.69v-4.018h2.69v-6.631h5.227v6.631h4.29v4.018h-4.29v9.984
			c0,0.727,0.188,1.24,0.565,1.539c0.376,0.299,0.838,0.449,1.384,0.449c0.547,0,1.079-0.092,1.6-0.273
			c0.52-0.182,0.936-0.338,1.248-0.467L98.403,42.572z"/>
		<path d="M113.809,44.016c-1.639,0-3.12-0.279-4.446-0.838s-2.457-1.32-3.394-2.283c-0.936-0.961-1.657-2.078-2.164-3.354
			c-0.507-1.273-0.761-2.613-0.761-4.016c0-1.457,0.247-2.828,0.741-4.115c0.493-1.287,1.209-2.418,2.145-3.393
			c0.937-0.977,2.073-1.748,3.413-2.32c1.339-0.572,2.84-0.859,4.504-0.859s3.152,0.287,4.466,0.859
			c1.313,0.572,2.431,1.338,3.354,2.301c0.922,0.961,1.624,2.08,2.105,3.354s0.722,2.6,0.722,3.979c0,0.338-0.007,0.662-0.02,0.975
			c-0.014,0.313-0.046,0.572-0.098,0.779h-15.795c0.078,0.807,0.273,1.521,0.585,2.145c0.313,0.625,0.715,1.158,1.209,1.6
			c0.494,0.443,1.053,0.781,1.677,1.014c0.624,0.234,1.274,0.352,1.95,0.352c1.04,0,2.021-0.254,2.944-0.76
			c0.923-0.508,1.554-1.176,1.892-2.01l4.485,1.248c-0.755,1.561-1.957,2.842-3.607,3.842
			C118.065,43.516,116.096,44.016,113.809,44.016z M119.112,31.691c-0.131-1.533-0.696-2.762-1.696-3.686
			c-1.002-0.922-2.217-1.385-3.646-1.385c-0.702,0-1.359,0.125-1.97,0.371c-0.611,0.248-1.15,0.592-1.619,1.033
			c-0.468,0.443-0.852,0.975-1.15,1.6c-0.299,0.623-0.475,1.313-0.526,2.066H119.112z"/>
		<path d="M143.565,27.713c-1.586,0.027-3.003,0.332-4.251,0.918c-1.248,0.584-2.145,1.461-2.69,2.631v12.363h-5.227V23.189h4.797
			v4.367c0.364-0.701,0.793-1.332,1.287-1.891s1.027-1.047,1.599-1.463c0.572-0.416,1.151-0.734,1.736-0.955s1.15-0.332,1.696-0.332
			c0.286,0,0.5,0,0.644,0c0.143,0,0.279,0.014,0.409,0.039V27.713z"/>
	</g>
</g>
<g id="Layer_41">
</g>
<g id="Layer_42">
</g>
<g id="Layer_43">
</g>
<g id="Layer_44">
</g>
<g id="Layer_45">
</g>
<g id="Layer_46">
</g>
<g id="Layer_47">
</g>
<g id="Layer_48">
</g>
<g id="give_2">
</g>
<g id="rewind">
</g>
<g id="Layer_22">
</g>
<g id="Layer_19">
</g>
<g id="Layer_20">
</g>
<g id="Layer_21">
</g>
<g id="Layer_23">
</g>
<g id="Layer_24">
</g>
</svg>
