<?xml version="1.0" encoding="utf-8"?>
<!-- Generator: Adobe Illustrator 16.0.0, SVG Export Plug-In . SVG Version: 6.00 Build 0)  -->
<!DOCTYPE svg PUBLIC "-//W3C//DTD SVG 1.1//EN" "http://www.w3.org/Graphics/SVG/1.1/DTD/svg11.dtd">
<svg version="1.1" xmlns="http://www.w3.org/2000/svg" xmlns:xlink="http://www.w3.org/1999/xlink" x="0px" y="0px"
	 width="209.759px" height="62.361px" viewBox="0 0 209.759 62.361" enable-background="new 0 0 209.759 62.361"
	 xml:space="preserve">
<g id="Layer_1">
</g>
<g id="Hat">
</g>
<g id="Compliments">
</g>
<g id="HAT">
</g>
<g id="speech">
</g>
<g id="TREX_ARMS">
</g>
<g id="slim_shady">
</g>
<g id="TIMEOUT">
</g>
<g id="Truth_or_Dare">
</g>
<g id="ARM_WRESTLE">
</g>
<g id="musical_chairs">
</g>
<g id="never_have_i_ever">
</g>
<g id="Trivia">
</g>
<g id="Drink_Pulling">
</g>
<g id="Sharing_is_Caring">
</g>
<g id="Not_It">
</g>
<g id="Cocktail_of_Doom">
</g>
<g id="Heads_up">
</g>
<g id="Archenemy">
</g>
<g id="battle_of_the_sexes">
</g>
<g id="one_must_drink">
</g>
<g id="rainbow_connection">
</g>
<g id="social_drinking">
</g>
<g id="Spin_the_bottle">
</g>
<g id="accents">
</g>
<g id="Slap">
</g>
<g id="give_3">
</g>
<g id="rub">
</g>
<g id="down_the_hatch">
</g>
<g id="rubiks_cube">
</g>
<g id="bar_tender">
</g>
<g id="codenames">
</g>
<g id="hand_switch">
</g>
<g id="make_a_rule">
</g>
<g id="no_guts_no_glory">
</g>
<g id="pass">
</g>
<g id="santa">
</g>
<g id="snake_eyes">
</g>
<g id="bodyguard">
</g>
<g id="threeman">
</g>
<g id="_x32__truths_and_a_lie">
</g>
<g id="cray_cray_cat_lady">
</g>
<g id="siblings">
</g>
<g id="take_2">
</g>
<g id="take_3">
</g>
<g id="later">
</g>
<g id="waterfall">
</g>
<g id="cheers">
</g>
<g id="rhyme">
</g>
<g id="categories">
</g>
<g id="tits">
</g>
<g id="dicks">
	<g>
		<path d="M46.788,44.016c-1.403,0-2.704-0.272-3.899-0.818c-1.196-0.546-2.224-1.3-3.081-2.263
			c-0.858-0.961-1.528-2.086-2.009-3.373c-0.481-1.287-0.722-2.672-0.722-4.153c0-1.482,0.228-2.86,0.683-4.134
			c0.455-1.274,1.085-2.393,1.892-3.354c0.806-0.962,1.768-1.716,2.886-2.262s2.34-0.819,3.666-0.819
			c1.508,0,2.866,0.364,4.075,1.092c1.209,0.729,2.151,1.678,2.828,2.848V15.156h5.226V37.62c0,0.546,0.091,0.936,0.273,1.17
			c0.182,0.234,0.493,0.364,0.936,0.39v4.446c-0.91,0.182-1.651,0.273-2.223,0.273c-0.937,0-1.703-0.234-2.301-0.702
			c-0.599-0.469-0.937-1.079-1.015-1.833l-0.116-1.287c-0.755,1.3-1.775,2.281-3.062,2.944
			C49.538,43.685,48.192,44.016,46.788,44.016z M48.153,39.57c0.493,0,1.001-0.084,1.521-0.254c0.521-0.169,1.001-0.409,1.443-0.722
			c0.442-0.312,0.839-0.676,1.189-1.092c0.352-0.416,0.617-0.871,0.8-1.365v-4.875c-0.209-0.571-0.501-1.098-0.878-1.579
			c-0.377-0.48-0.806-0.897-1.287-1.248s-0.988-0.63-1.521-0.839c-0.533-0.207-1.06-0.312-1.58-0.312
			c-0.779,0-1.501,0.169-2.164,0.507s-1.229,0.8-1.696,1.385s-0.833,1.255-1.092,2.008c-0.261,0.755-0.391,1.535-0.391,2.341
			c0,0.857,0.143,1.651,0.43,2.379c0.285,0.728,0.676,1.364,1.17,1.911c0.493,0.546,1.085,0.975,1.774,1.286
			C46.561,39.414,47.321,39.57,48.153,39.57z"/>
		<path d="M67.185,20.343v-5.187h5.227v5.187H67.185z M67.185,43.626V23.19h5.227v20.436H67.185z"/>
		<path d="M79.547,33.408c0-1.43,0.247-2.782,0.741-4.057c0.493-1.273,1.209-2.392,2.145-3.354c0.937-0.962,2.067-1.729,3.394-2.301
			s2.82-0.858,4.485-0.858c2.235,0,4.14,0.481,5.713,1.443s2.75,2.223,3.529,3.783l-5.108,1.56
			c-0.442-0.754-1.027-1.332-1.755-1.735c-0.729-0.403-1.535-0.604-2.418-0.604c-0.755,0-1.457,0.149-2.106,0.448
			c-0.65,0.299-1.216,0.716-1.696,1.248c-0.481,0.533-0.858,1.177-1.131,1.931c-0.273,0.754-0.41,1.586-0.41,2.496
			s0.143,1.742,0.43,2.496c0.285,0.754,0.669,1.403,1.15,1.949c0.48,0.547,1.046,0.97,1.696,1.268
			c0.649,0.3,1.339,0.449,2.067,0.449c0.936,0,1.8-0.234,2.593-0.702s1.346-1.04,1.658-1.716l5.108,1.56
			c-0.702,1.561-1.859,2.834-3.471,3.822c-1.612,0.988-3.549,1.481-5.812,1.481c-1.664,0-3.158-0.286-4.484-0.857
			c-1.326-0.572-2.457-1.346-3.394-2.32c-0.936-0.976-1.657-2.106-2.164-3.394S79.547,34.812,79.547,33.408z"/>
		<path d="M120.497,43.626l-5.928-8.853l-2.808,2.769v6.084h-5.227v-28.47h5.227v17.276l8.189-9.204h5.577l-7.605,8.658
			l8.151,11.739H120.497z"/>
		<path d="M139.724,44.016c-1.716,0-3.393-0.272-5.03-0.818c-1.639-0.546-3.042-1.326-4.212-2.34l1.949-3.276
			c1.248,0.884,2.464,1.554,3.646,2.009c1.184,0.455,2.36,0.683,3.53,0.683c1.039,0,1.858-0.195,2.457-0.586
			c0.598-0.39,0.896-0.948,0.896-1.677c0-0.728-0.351-1.261-1.053-1.599s-1.847-0.728-3.433-1.17
			c-1.325-0.364-2.456-0.715-3.393-1.054c-0.936-0.337-1.69-0.721-2.262-1.15c-0.572-0.429-0.988-0.922-1.248-1.481
			c-0.261-0.559-0.391-1.229-0.391-2.009c0-1.039,0.201-1.976,0.604-2.808s0.969-1.541,1.697-2.126
			c0.728-0.585,1.579-1.033,2.554-1.346c0.976-0.312,2.034-0.468,3.179-0.468c1.534,0,2.971,0.222,4.31,0.663
			c1.339,0.442,2.567,1.157,3.686,2.146l-2.105,3.158c-1.041-0.779-2.048-1.352-3.022-1.716c-0.976-0.363-1.944-0.546-2.906-0.546
			c-0.884,0-1.625,0.183-2.223,0.546c-0.599,0.364-0.897,0.949-0.897,1.755c0,0.364,0.071,0.663,0.215,0.897
			c0.143,0.233,0.37,0.442,0.683,0.624c0.312,0.182,0.722,0.357,1.229,0.526s1.137,0.345,1.892,0.526
			c1.404,0.364,2.606,0.729,3.607,1.092c1.001,0.364,1.819,0.78,2.457,1.248c0.637,0.468,1.104,1.008,1.404,1.619
			c0.298,0.61,0.448,1.345,0.448,2.203c0,2.002-0.741,3.582-2.223,4.738C144.287,43.438,142.271,44.016,139.724,44.016z"/>
	</g>
</g>
<g id="questions">
</g>
<g id="double_hands">
</g>
<g id="give_2">
</g>
<g id="rewind">
</g>
<g id="Cryptkeeper">
</g>
<g id="Take_2_and_Redo">
</g>
<g id="Embryo">
</g>
<g id="I_am_Groot">
</g>
<g id="Mini_Me">
</g>
<g id="Ditto_1_">
</g>
</svg>
