<?xml version="1.0" encoding="utf-8"?>
<!-- Generator: Adobe Illustrator 16.0.0, SVG Export Plug-In . SVG Version: 6.00 Build 0)  -->
<!DOCTYPE svg PUBLIC "-//W3C//DTD SVG 1.1//EN" "http://www.w3.org/Graphics/SVG/1.1/DTD/svg11.dtd">
<svg version="1.1" xmlns="http://www.w3.org/2000/svg" xmlns:xlink="http://www.w3.org/1999/xlink" x="0px" y="0px"
	 width="209.759px" height="62.361px" viewBox="0 0 209.759 62.361" enable-background="new 0 0 209.759 62.361"
	 xml:space="preserve">
<g id="Layer_1">
</g>
<g id="Blindman">
</g>
<g id="Compliments">
</g>
<g id="HAT">
</g>
<g id="speech">
</g>
<g id="TREX_ARMS">
</g>
<g id="slim_shady">
</g>
<g id="TIMEOUT">
</g>
<g id="Truth_or_Dare">
</g>
<g id="ARM_WRESTLE">
</g>
<g id="musical_chairs">
</g>
<g id="never_have_i_ever">
</g>
<g id="Trivia">
</g>
<g id="Drink_Pulling">
</g>
<g id="Sharing_is_Caring">
</g>
<g id="Not_It">
</g>
<g id="Cocktail_of_Doom">
</g>
<g id="Heads_up">
</g>
<g id="Archenemy">
</g>
<g id="battle_of_the_sexes">
</g>
<g id="one_must_drink">
</g>
<g id="rainbow_connection">
</g>
<g id="social_drinking">
</g>
<g id="Spin_the_bottle">
</g>
<g id="accents">
</g>
<g id="Slap">
</g>
<g id="down_the_hatch">
</g>
<g id="rubiks_cube">
</g>
<g id="bar_tender">
</g>
<g id="codenames">
</g>
<g id="hand_switch">
</g>
<g id="make_a_rule">
</g>
<g id="no_guts_no_glory">
</g>
<g id="pass">
</g>
<g id="santa">
</g>
<g id="snake_eyes">
</g>
<g id="lightning_round">
</g>
<g id="Bro">
</g>
<g id="LeastDrunk">
</g>
<g id="Know_It_All">
</g>
<g id="EyeContact">
</g>
<g id="UnderGuesser">
</g>
<g id="GodSaveTheQUeen">
</g>
<g id="Ghost">
</g>
<g id="Fortune_Teller">
</g>
<g id="DrinkSwap">
</g>
<g id="DickTator">
</g>
<g id="_x34_Eyes">
</g>
<g id="BabyTalk">
</g>
<g id="Backseat_Driver">
</g>
<g id="BAtman">
</g>
<g id="bodyguard">
</g>
<g id="BuckleUp">
	<g>
		<path d="M37.741,41.43h0.527c0.25,0,0.499,0.018,0.748,0.055s0.506,0.055,0.771,0.055c0.044,0,0.113-0.004,0.209-0.012
			c0.095-0.006,0.15-0.01,0.165-0.01l0.088-0.088V30.338c0-0.088-0.066-0.154-0.198-0.199c-0.132-0.043-0.257-0.064-0.374-0.064
			h-0.154c-0.176,0-0.349,0.014-0.517,0.043c-0.169,0.029-0.341,0.045-0.517,0.045c-0.382,0-0.716-0.092-1.001-0.275
			c-0.286-0.184-0.43-0.48-0.43-0.891c0-0.322,0.096-0.584,0.286-0.781c0.19-0.199,0.447-0.297,0.771-0.297
			c0.234,0,0.439,0.01,0.615,0.033c0.177,0.021,0.396,0.068,0.66,0.143h1.342c0.616,0,1.225-0.045,1.826-0.133
			s1.21-0.131,1.826-0.131h0.44c0.645,0.102,1.228,0.26,1.749,0.473c0.521,0.213,0.964,0.488,1.331,0.824
			c0.366,0.338,0.648,0.752,0.847,1.244c0.198,0.49,0.297,1.066,0.297,1.727c0,0.322-0.044,0.66-0.132,1.012s-0.22,0.66-0.396,0.924
			c-0.073,0.088-0.19,0.242-0.352,0.463c-0.162,0.219-0.242,0.41-0.242,0.572c0,0.088,0.04,0.18,0.121,0.273
			c0.08,0.096,0.172,0.195,0.275,0.297c0.103,0.104,0.205,0.199,0.308,0.287s0.184,0.176,0.242,0.264
			c0.234,0.426,0.41,0.818,0.527,1.178c0.118,0.359,0.177,0.773,0.177,1.242c0,0.338-0.037,0.693-0.11,1.066
			c-0.073,0.375-0.18,0.746-0.319,1.111c-0.139,0.367-0.312,0.713-0.517,1.035s-0.44,0.602-0.704,0.836
			c-0.366,0.205-0.729,0.395-1.089,0.57c-0.359,0.178-0.744,0.301-1.155,0.375c-0.293,0-0.773,0.004-1.44,0.012
			c-0.668,0.006-1.397,0.01-2.189,0.01s-1.521,0-2.188,0c-0.668,0-1.141,0-1.419,0h-0.265c-0.337,0-0.608-0.113-0.813-0.34
			c-0.206-0.227-0.309-0.502-0.309-0.824C37.059,41.963,37.286,41.619,37.741,41.43z M42.229,33.898
			c0,0.162,0.077,0.262,0.231,0.299s0.304,0.057,0.451,0.057h0.264c0.47,0,0.961-0.008,1.474-0.021
			c0.514-0.016,0.969-0.037,1.364-0.068c0.103-0.059,0.217-0.133,0.341-0.221c0.125-0.09,0.246-0.189,0.363-0.301
			s0.216-0.234,0.297-0.367s0.121-0.273,0.121-0.422v-1.469c0-0.059-0.029-0.117-0.088-0.178c-0.176-0.281-0.326-0.484-0.451-0.611
			c-0.125-0.125-0.261-0.215-0.407-0.266c-0.146-0.053-0.312-0.09-0.494-0.111c-0.184-0.023-0.422-0.07-0.716-0.145h-2.75V33.898z
			 M42.493,36.189c-0.044,0.029-0.1,0.074-0.165,0.133c-0.066,0.059-0.1,0.102-0.1,0.131v4.906c0,0.133,0.085,0.225,0.253,0.275
			c0.169,0.051,0.298,0.076,0.386,0.076c0.498,0,0.993-0.025,1.484-0.076s0.994-0.084,1.507-0.1
			c0.382-0.146,0.693-0.309,0.936-0.484s0.437-0.377,0.583-0.604c0.146-0.229,0.245-0.488,0.297-0.781
			c0.051-0.293,0.077-0.631,0.077-1.012c0-0.191,0.003-0.412,0.011-0.66c0.008-0.25-0.055-0.447-0.187-0.594l-1.034-1.035
			c-0.044-0.043-0.121-0.1-0.231-0.164c-0.109-0.066-0.18-0.1-0.209-0.1h-2.485c-0.118,0.088-0.206,0.139-0.265,0.154
			c-0.059,0.014-0.14,0.021-0.242,0.021s-0.194-0.014-0.274-0.043c-0.081-0.029-0.173-0.045-0.275-0.045H42.493z"/>
		<path d="M53.724,37.092c0.095-0.66,0.143-1.328,0.143-2.002c0-0.045,0-0.111,0-0.199c0-0.102-0.004-0.209-0.011-0.318
			c-0.008-0.109-0.012-0.209-0.012-0.297c0-0.102,0-0.176,0-0.221c-0.161-0.102-0.341-0.172-0.538-0.209
			c-0.198-0.035-0.386-0.08-0.562-0.131s-0.322-0.137-0.439-0.254c-0.118-0.117-0.177-0.307-0.177-0.572
			c0-0.248,0.077-0.461,0.231-0.637s0.363-0.264,0.627-0.264h1.804c0.22,0,0.393,0.047,0.518,0.143
			c0.124,0.094,0.22,0.219,0.285,0.373c0.066,0.152,0.11,0.318,0.133,0.494c0.021,0.174,0.032,0.336,0.032,0.482
			c0,0.307-0.019,0.607-0.055,0.9c-0.037,0.293-0.055,0.592-0.055,0.898c0,0.104,0.003,0.26,0.011,0.473
			c0.007,0.213,0.011,0.332,0.011,0.361c0,0.146,0.008,0.406,0.022,0.779s0.029,0.773,0.044,1.197s0.033,0.822,0.055,1.195
			c0.022,0.373,0.033,0.633,0.033,0.779c0.059,0.381,0.18,0.695,0.363,0.943c0.183,0.25,0.487,0.373,0.913,0.373
			c0.176,0,0.374-0.014,0.594-0.043s0.403-0.111,0.55-0.242c0.264-0.234,0.535-0.502,0.814-0.803
			c0.278-0.301,0.527-0.619,0.748-0.957c0.22-0.338,0.402-0.693,0.55-1.068c0.146-0.373,0.22-0.75,0.22-1.133v-3.189
			c0-0.059-0.099-0.1-0.297-0.121s-0.418-0.063-0.66-0.121s-0.462-0.156-0.66-0.297c-0.198-0.139-0.297-0.348-0.297-0.627
			c0-0.25,0.077-0.447,0.231-0.594c0.153-0.146,0.37-0.221,0.648-0.221h1.98c0.264,0,0.454,0.086,0.571,0.254
			s0.198,0.367,0.242,0.594c0.044,0.229,0.066,0.465,0.066,0.715s0.021,0.447,0.065,0.594l-0.044,2.332v0.418l-0.044,4.137
			l0.177,0.176c0.22,0,0.45,0.008,0.692,0.021c0.242,0.016,0.47,0.063,0.683,0.145c0.212,0.08,0.385,0.199,0.517,0.354
			c0.132,0.156,0.198,0.383,0.198,0.678c0,0.268-0.052,0.475-0.154,0.623s-0.238,0.256-0.407,0.322s-0.355,0.107-0.561,0.121
			c-0.206,0.016-0.411,0.023-0.616,0.023c-0.117,0-0.305-0.008-0.561-0.023c-0.257-0.014-0.518-0.055-0.781-0.121
			c-0.265-0.066-0.495-0.168-0.693-0.301s-0.297-0.311-0.297-0.533v-0.955h-0.088c-0.25,0.266-0.495,0.521-0.737,0.768
			c-0.242,0.244-0.499,0.465-0.77,0.666c-0.271,0.199-0.565,0.359-0.88,0.477c-0.316,0.119-0.657,0.178-1.023,0.178
			c-0.602,0-1.122-0.139-1.562-0.418c-0.44-0.277-0.804-0.633-1.09-1.066c-0.285-0.432-0.498-0.916-0.638-1.451
			c-0.14-0.537-0.209-1.068-0.209-1.596C53.58,38.42,53.628,37.752,53.724,37.092z"/>
		<path d="M67.473,35.695c0.198-0.756,0.498-1.438,0.902-2.047c0.402-0.607,0.909-1.107,1.518-1.496s1.323-0.582,2.145-0.582
			c0.073,0,0.169,0,0.286,0c0.132,0,0.205,0.006,0.221,0.021c0.058,0,0.172,0.018,0.341,0.055c0.168,0.037,0.344,0.076,0.527,0.121
			c0.184,0.043,0.355,0.092,0.518,0.143c0.161,0.053,0.271,0.084,0.33,0.1c0.234,0.205,0.48,0.418,0.736,0.639
			c0.257,0.219,0.491,0.457,0.704,0.715c0.213,0.256,0.386,0.535,0.518,0.836s0.198,0.619,0.198,0.957c0,0.219-0.033,0.443-0.1,0.67
			c-0.065,0.229-0.161,0.43-0.286,0.605s-0.278,0.318-0.462,0.43c-0.184,0.109-0.399,0.164-0.648,0.164
			c-0.455,0-0.836-0.16-1.145-0.484c-0.308-0.322-0.462-0.703-0.462-1.143c0-0.191,0.029-0.363,0.088-0.518s0.088-0.334,0.088-0.539
			V33.99c-0.015-0.016-0.073-0.074-0.176-0.176c-0.103-0.104-0.19-0.154-0.264-0.154h-1.452c-0.029,0-0.106,0.018-0.231,0.055
			c-0.124,0.037-0.224,0.07-0.297,0.1c-0.396,0.176-0.723,0.391-0.979,0.648c-0.257,0.256-0.459,0.547-0.605,0.869
			s-0.249,0.674-0.308,1.055c-0.059,0.383-0.088,0.779-0.088,1.189c0,0.365,0.036,0.773,0.109,1.221s0.213,0.824,0.418,1.133
			c0.044,0.043,0.117,0.121,0.221,0.23c0.103,0.109,0.212,0.225,0.33,0.342c0.117,0.117,0.23,0.227,0.341,0.33
			c0.109,0.102,0.187,0.176,0.23,0.219c0.044,0.045,0.117,0.1,0.221,0.166c0.102,0.066,0.168,0.1,0.197,0.1h1.893
			c0.234,0,0.439-0.063,0.616-0.188c0.176-0.125,0.333-0.279,0.473-0.463c0.139-0.184,0.264-0.385,0.374-0.605
			c0.109-0.219,0.224-0.42,0.341-0.604s0.242-0.338,0.374-0.463s0.286-0.188,0.462-0.188c0.264,0,0.454,0.1,0.572,0.297
			c0.117,0.199,0.176,0.422,0.176,0.672c0,0.514-0.129,0.998-0.385,1.451c-0.257,0.455-0.587,0.855-0.99,1.199
			c-0.403,0.346-0.854,0.621-1.353,0.826c-0.499,0.205-0.99,0.307-1.475,0.307c-0.719,0-1.386-0.168-2.002-0.506
			c-0.616-0.336-1.151-0.773-1.605-1.309c-0.455-0.535-0.811-1.141-1.067-1.814s-0.385-1.35-0.385-2.023
			C67.176,37.188,67.274,36.449,67.473,35.695z"/>
		<path d="M79.033,42.262c0.029-0.133,0.073-0.264,0.133-0.396c0.058-0.131,0.124-0.246,0.197-0.34
			c0.073-0.096,0.146-0.145,0.221-0.145h1.474l0.264-0.088c0.029-0.014,0.103-0.043,0.221-0.088v-3.102l0.109-0.418v-7.172
			c0-0.104-0.036-0.213-0.109-0.33c-0.074-0.117-0.147-0.205-0.221-0.264c-0.22,0-0.454,0-0.704,0c-0.234,0-0.447-0.021-0.638-0.066
			s-0.349-0.133-0.473-0.264c-0.125-0.133-0.188-0.338-0.188-0.617c0-0.365,0.154-0.645,0.462-0.836
			c0.309-0.189,0.631-0.285,0.969-0.285h0.132c0.029,0,0.117,0.016,0.264,0.043c0.146,0.031,0.234,0.045,0.264,0.045h0.044h0.044
			c0.029,0,0.114-0.014,0.254-0.045c0.139-0.027,0.223-0.043,0.253-0.043h0.044c0.337,0,0.648,0.1,0.935,0.297
			s0.451,0.473,0.495,0.824c-0.029,0.471-0.022,0.867,0.022,1.189c0.044,0.322,0.065,0.689,0.065,1.1
			c0,0.117-0.004,0.221-0.011,0.309c-0.008,0.088-0.033,0.197-0.077,0.33v4.904c0,0.061,0.022,0.092,0.066,0.1
			s0.08,0.012,0.109,0.012c0.044-0.016,0.073-0.023,0.088-0.023c0.088-0.088,0.242-0.238,0.462-0.449
			c0.221-0.213,0.455-0.443,0.704-0.693c0.25-0.25,0.48-0.484,0.693-0.705c0.212-0.219,0.363-0.373,0.451-0.461
			c0.029-0.029,0.088-0.104,0.176-0.221s0.146-0.189,0.176-0.221c-0.161-0.16-0.334-0.332-0.517-0.516
			c-0.184-0.184-0.275-0.4-0.275-0.65c0-0.234,0.081-0.414,0.242-0.537c0.161-0.125,0.345-0.217,0.55-0.275c0.044,0,0.117,0,0.22,0
			s0.217-0.004,0.342-0.012c0.124-0.008,0.238-0.012,0.341-0.012s0.176,0,0.22,0c0.22,0,0.524-0.002,0.913-0.01
			s0.771,0.021,1.145,0.088c0.373,0.066,0.7,0.184,0.979,0.352c0.278,0.17,0.418,0.438,0.418,0.803c0,0.25-0.048,0.43-0.143,0.539
			c-0.096,0.111-0.217,0.188-0.363,0.23c-0.146,0.045-0.315,0.066-0.506,0.066c-0.176,0-0.359,0.008-0.55,0.023
			c-0.221,0.014-0.43,0.088-0.627,0.219c-0.198,0.133-0.393,0.287-0.583,0.463c-0.191,0.176-0.363,0.352-0.518,0.527
			s-0.297,0.316-0.429,0.418c-0.103,0.088-0.217,0.168-0.341,0.242c-0.125,0.074-0.239,0.146-0.342,0.221
			c-0.103,0.072-0.187,0.16-0.253,0.264c-0.065,0.102-0.099,0.242-0.099,0.418c0,0.307,0.11,0.607,0.33,0.902
			c0.22,0.293,0.425,0.564,0.616,0.813c0.014,0.031,0.065,0.092,0.153,0.188c0.089,0.096,0.184,0.201,0.286,0.318
			c0.103,0.119,0.194,0.229,0.275,0.33c0.08,0.104,0.128,0.17,0.143,0.199c0.177,0.25,0.319,0.506,0.43,0.77
			c0.109,0.264,0.289,0.492,0.539,0.682c0.293,0,0.575,0.004,0.847,0.012s0.521,0.043,0.748,0.109
			c0.227,0.066,0.425,0.18,0.594,0.342c0.169,0.16,0.297,0.41,0.385,0.748c0,0.014,0.004,0.063,0.012,0.143
			c0.007,0.08,0.011,0.135,0.011,0.164c0,0.162-0.041,0.295-0.121,0.396c-0.081,0.104-0.18,0.188-0.297,0.254
			c-0.118,0.066-0.25,0.117-0.396,0.154c-0.146,0.035-0.286,0.068-0.418,0.098h-1.342h-1.32c-0.117,0-0.301-0.021-0.55-0.066
			c-0.249-0.043-0.439-0.08-0.572-0.109c-0.117-0.029-0.234-0.08-0.352-0.154c-0.117-0.072-0.234-0.109-0.352-0.109
			c-0.206,0-0.415,0.074-0.628,0.221c-0.212,0.146-0.443,0.219-0.692,0.219c-0.206,0-0.407-0.014-0.605-0.043
			c-0.197-0.029-0.399-0.045-0.604-0.045c-0.353,0-0.697,0.016-1.034,0.045c-0.338,0.029-0.682,0.043-1.034,0.043h-0.99
			c-0.322-0.059-0.619-0.156-0.891-0.297c-0.271-0.139-0.407-0.398-0.407-0.781C78.989,42.488,79.004,42.393,79.033,42.262z
			 M84.336,38.455c-0.133,0.117-0.25,0.234-0.353,0.352c-0.044,0.045-0.11,0.119-0.198,0.221c-0.088,0.104-0.157,0.188-0.209,0.254
			c-0.051,0.064-0.084,0.105-0.099,0.121v1.803c0,0.104,0.088,0.191,0.264,0.264c0.177,0.074,0.374,0.141,0.595,0.199
			c0.22,0.059,0.432,0.105,0.638,0.143c0.205,0.037,0.337,0.07,0.396,0.1c0.029,0.014,0.089,0.059,0.177,0.131
			c0.088,0.074,0.146,0.111,0.176,0.111c0,0.014,0.015,0.021,0.044,0.021s0.059,0,0.088,0c0.161,0,0.337-0.088,0.528-0.264
			c0.19-0.176,0.286-0.354,0.286-0.529c0-0.102-0.089-0.322-0.265-0.66c-0.176-0.336-0.374-0.686-0.594-1.045
			s-0.433-0.682-0.638-0.967c-0.206-0.287-0.338-0.43-0.396-0.43C84.614,38.279,84.468,38.338,84.336,38.455z"/>
		<path d="M95.05,42.158c0.029-0.156,0.08-0.303,0.154-0.438c0.072-0.135,0.164-0.25,0.274-0.348s0.245-0.146,0.407-0.146h3.366
			l0.109-0.131v-6.6l0.132-0.416v-3.684c0-0.088-0.088-0.18-0.264-0.275c-0.176-0.094-0.286-0.148-0.33-0.164
			c-0.044,0.016-0.121,0.037-0.23,0.066c-0.11,0.029-0.231,0.059-0.363,0.088s-0.257,0.055-0.374,0.076s-0.198,0.033-0.242,0.033
			h-0.352c-0.25,0-0.444-0.025-0.583-0.078c-0.14-0.051-0.313-0.113-0.518-0.186c-0.146-0.043-0.278-0.08-0.396-0.109
			c-0.118-0.029-0.217-0.074-0.297-0.133c-0.081-0.059-0.144-0.135-0.188-0.229c-0.044-0.096-0.065-0.238-0.065-0.428
			c0-0.41,0.157-0.691,0.473-0.846c0.315-0.152,0.656-0.229,1.023-0.229c0.264,0,0.523,0.029,0.78,0.086
			c0.257,0.059,0.518,0.088,0.781,0.088c0.205,0,0.403-0.014,0.594-0.043s0.389-0.045,0.595-0.045c0.19,0,0.396,0.023,0.615,0.066
			c0.221,0.045,0.426,0.113,0.616,0.209c0.19,0.094,0.349,0.227,0.473,0.395c0.125,0.168,0.188,0.377,0.188,0.625v11.664l0.22,0.197
			h2.926c0.146,0,0.275,0.043,0.386,0.125c0.109,0.082,0.201,0.184,0.274,0.303s0.129,0.25,0.165,0.393
			c0.037,0.143,0.056,0.273,0.056,0.393c0,0.27-0.07,0.508-0.209,0.719c-0.14,0.209-0.363,0.313-0.672,0.313h-8.514
			c-0.249,0-0.487-0.086-0.715-0.258s-0.341-0.385-0.341-0.639C95.006,42.455,95.021,42.316,95.05,42.158z"/>
		<path d="M108.128,36.629c0.081-0.541,0.217-1.059,0.407-1.551c0.19-0.49,0.443-0.945,0.759-1.363s0.715-0.76,1.199-1.023
			c0.044-0.029,0.124-0.072,0.242-0.133c0.117-0.057,0.242-0.119,0.374-0.186s0.253-0.125,0.362-0.176
			c0.11-0.053,0.188-0.086,0.231-0.1c0.161-0.074,0.326-0.105,0.495-0.1c0.168,0.008,0.333,0.012,0.495,0.012
			c0.938,0,1.73,0.223,2.376,0.67c0.645,0.449,1.246,1.023,1.804,1.729c0.059,0.088,0.136,0.252,0.231,0.494
			c0.095,0.242,0.183,0.506,0.264,0.793c0.08,0.285,0.15,0.564,0.209,0.836s0.088,0.473,0.088,0.604
			c0,0.031-0.004,0.092-0.011,0.188c-0.008,0.096-0.011,0.158-0.011,0.188c-0.133,0.219-0.309,0.367-0.528,0.439
			c-0.22,0.074-0.447,0.133-0.682,0.176c-0.162,0-0.451-0.004-0.869-0.01c-0.418-0.008-0.862-0.012-1.331-0.012
			c-0.455,0-0.892,0.004-1.31,0.012c-0.418,0.006-0.707,0.01-0.869,0.01c-0.161,0-0.355,0.004-0.583,0.012s-0.45,0.014-0.671,0.021
			c-0.22,0.008-0.491,0.027-0.813,0.057l-0.088,0.066c0,0.014-0.004,0.066-0.012,0.154c-0.007,0.088-0.011,0.148-0.011,0.178
			c0,0.428,0.077,0.832,0.231,1.217c0.153,0.383,0.366,0.719,0.638,1.008c0.271,0.287,0.59,0.516,0.957,0.686
			c0.366,0.17,0.77,0.254,1.21,0.254c0.044,0,0.143-0.004,0.297-0.012c0.154-0.006,0.253-0.01,0.297-0.01
			c0.205-0.162,0.44-0.275,0.704-0.342c0.265-0.066,0.491-0.18,0.683-0.34c0.146-0.133,0.282-0.295,0.406-0.484
			c0.125-0.191,0.257-0.375,0.396-0.551c0.139-0.176,0.289-0.322,0.451-0.439c0.161-0.117,0.358-0.176,0.594-0.176
			c0.22,0,0.399,0.066,0.539,0.197c0.139,0.133,0.209,0.301,0.209,0.506c0,0.338-0.073,0.643-0.22,0.914
			c-0.147,0.271-0.309,0.539-0.484,0.803c-0.44,0.637-1.02,1.094-1.738,1.369s-1.459,0.412-2.222,0.412
			c-0.748,0-1.423-0.146-2.024-0.439s-1.107-0.689-1.518-1.188c-0.411-0.498-0.727-1.074-0.946-1.729
			c-0.22-0.652-0.33-1.338-0.33-2.057C108.007,37.701,108.047,37.172,108.128,36.629z M110.075,36.322
			c0,0.043,0.029,0.064,0.088,0.064h5.082c0.029,0,0.069-0.018,0.121-0.055c0.051-0.035,0.092-0.068,0.121-0.098
			c0.015-0.029,0.021-0.082,0.021-0.154c0-0.074,0-0.125,0-0.154c0-0.352-0.088-0.648-0.264-0.891s-0.396-0.434-0.66-0.572
			s-0.554-0.242-0.869-0.309s-0.612-0.1-0.891-0.1c-0.308,0-0.624,0.041-0.946,0.121c-0.322,0.082-0.616,0.209-0.88,0.385
			c-0.264,0.178-0.484,0.4-0.66,0.672s-0.264,0.59-0.264,0.957C110.075,36.219,110.075,36.264,110.075,36.322z"/>
		<path d="M122.065,30.08l-1.408-0.375c-0.206-0.059-0.33-0.184-0.374-0.375s-0.066-0.367-0.066-0.529
			c0-0.295,0.077-0.563,0.231-0.805c0.154-0.244,0.392-0.365,0.715-0.365h3.872c0.308,0,0.561,0.107,0.759,0.32
			s0.297,0.465,0.297,0.758c0,0.264-0.055,0.473-0.165,0.627c-0.109,0.154-0.253,0.268-0.429,0.342s-0.374,0.121-0.594,0.143
			c-0.221,0.021-0.433,0.041-0.639,0.055c-0.059,0.029-0.106,0.184-0.143,0.465c-0.037,0.279-0.063,0.596-0.077,0.949
			s-0.025,0.703-0.033,1.049c-0.007,0.346-0.011,0.586-0.011,0.717c0,0.178-0.004,0.383-0.011,0.619
			c-0.008,0.236,0.04,0.436,0.143,0.596v5.102c0,0.133,0.056,0.311,0.165,0.531c0.11,0.221,0.249,0.438,0.418,0.65
			c0.169,0.215,0.345,0.402,0.528,0.564s0.349,0.242,0.495,0.242h1.54c0.205,0,0.414-0.07,0.627-0.209
			c0.212-0.141,0.414-0.311,0.604-0.508c0.19-0.199,0.353-0.416,0.484-0.652s0.22-0.441,0.264-0.619
			c0.029-1.295,0.056-2.682,0.077-4.162c0.022-1.479,0.025-2.889,0.011-4.229c0.015-0.029,0.029-0.111,0.044-0.244
			s0.029-0.221,0.045-0.264v-0.045c0-0.104-0.019-0.209-0.056-0.32c-0.036-0.109-0.106-0.188-0.209-0.232
			c-0.176-0.029-0.359-0.068-0.55-0.121c-0.19-0.051-0.367-0.123-0.528-0.219s-0.297-0.217-0.406-0.363
			c-0.11-0.146-0.165-0.33-0.165-0.551c0-0.307,0.105-0.549,0.318-0.727c0.213-0.176,0.466-0.264,0.759-0.264
			c0.146,0,0.282,0.016,0.407,0.045s0.253,0.043,0.385,0.043c0.265,0,0.521-0.018,0.771-0.055c0.249-0.035,0.506-0.055,0.77-0.055
			c0.044,0,0.11,0,0.198,0c0.103,0,0.205,0.004,0.309,0.012c0.102,0.008,0.197,0.01,0.285,0.01c0.103,0,0.169,0,0.198,0
			c0.337,0.029,0.638,0.154,0.902,0.375c0.264,0.219,0.396,0.514,0.396,0.879c0,0.236-0.051,0.418-0.153,0.551
			c-0.104,0.133-0.235,0.227-0.396,0.285s-0.338,0.096-0.528,0.111c-0.19,0.014-0.374,0.029-0.55,0.043
			c-0.117,0.029-0.176,0.088-0.176,0.178c0,0.072,0,0.146,0,0.221c0,0.191,0.015,0.375,0.044,0.551
			c0.029,0.178,0.044,0.369,0.044,0.574c0,0.162-0.004,0.299-0.011,0.408c-0.008,0.111-0.048,0.24-0.121,0.387v6.664
			c-0.088,0.221-0.14,0.449-0.154,0.686c-0.015,0.234-0.065,0.463-0.153,0.684c-0.162,0.428-0.371,0.871-0.627,1.336
			c-0.257,0.463-0.562,0.828-0.913,1.092c-0.455,0.295-0.932,0.529-1.431,0.707c-0.498,0.176-1.012,0.264-1.54,0.264
			c-0.777,0-1.488-0.18-2.134-0.539c-0.646-0.361-1.188-0.85-1.628-1.469c-0.19-0.264-0.326-0.572-0.407-0.926
			c-0.08-0.354-0.187-0.676-0.318-0.971V30.08z"/>
		<path d="M135.825,46.082c0.022-0.119,0.063-0.236,0.121-0.348c0.059-0.113,0.128-0.205,0.209-0.281
			c0.08-0.074,0.187-0.111,0.319-0.111h1.737l0.154-0.219c0.015-0.557,0.052-1.094,0.11-1.613c0.059-0.518,0.088-1.049,0.088-1.59
			c0-0.203-0.019-0.395-0.056-0.57c-0.036-0.174-0.055-0.357-0.055-0.547V40.67c0.015-0.029,0.033-0.115,0.055-0.262
			c0.022-0.146,0.033-0.234,0.033-0.264V40.1c0-0.131-0.015-0.258-0.044-0.383s-0.044-0.252-0.044-0.385
			c0-0.232,0.019-0.459,0.055-0.68c0.037-0.219,0.056-0.453,0.056-0.701c0-0.293-0.019-0.578-0.056-0.855
			c-0.036-0.277-0.055-0.563-0.055-0.855c0-0.262,0.019-0.518,0.055-0.768c0.037-0.248,0.056-0.504,0.056-0.768
			c0-0.043-0.004-0.139-0.011-0.285c-0.008-0.145-0.012-0.24-0.012-0.285c-0.161-0.219-0.385-0.354-0.671-0.404
			s-0.572-0.096-0.857-0.133c-0.286-0.035-0.536-0.098-0.748-0.186c-0.213-0.088-0.319-0.277-0.319-0.57
			c0-0.219,0.048-0.395,0.143-0.527c0.096-0.131,0.217-0.232,0.363-0.307c0.146-0.072,0.309-0.123,0.484-0.152
			s0.352-0.045,0.527-0.045c0.279,0,0.564,0.004,0.858,0.012c0.293,0.008,0.572,0.043,0.836,0.109s0.502,0.176,0.715,0.33
			c0.213,0.152,0.37,0.375,0.474,0.668c0.014,0.014,0.028,0.021,0.044,0.021h0.044c0.103,0,0.238-0.068,0.406-0.209
			c0.169-0.139,0.298-0.244,0.386-0.316c0.014-0.016,0.051-0.055,0.109-0.121s0.121-0.131,0.188-0.197
			c0.065-0.066,0.128-0.129,0.187-0.188c0.059-0.057,0.096-0.088,0.11-0.088c0.015-0.014,0.059-0.023,0.132-0.031
			s0.154-0.016,0.242-0.023c0.088-0.006,0.172-0.014,0.253-0.021c0.08-0.008,0.128-0.01,0.143-0.01
			c0.029-0.016,0.103-0.033,0.221-0.055c0.117-0.023,0.19-0.033,0.22-0.033c0.015,0,0.092-0.004,0.231-0.012
			c0.139-0.008,0.245-0.012,0.318-0.012c0.689,0,1.302,0.184,1.837,0.551s0.982,0.828,1.342,1.387
			c0.359,0.557,0.635,1.17,0.825,1.836c0.19,0.668,0.286,1.295,0.286,1.881c0,0.617-0.04,1.191-0.121,1.727
			c-0.08,0.537-0.22,1.035-0.418,1.496c-0.198,0.463-0.47,0.896-0.813,1.299c-0.345,0.404-0.789,0.781-1.331,1.133
			c-0.162,0.104-0.305,0.188-0.43,0.254c-0.124,0.064-0.245,0.117-0.362,0.152c-0.118,0.037-0.25,0.063-0.396,0.078
			c-0.146,0.014-0.315,0.021-0.506,0.021c-0.205,0-0.374,0.004-0.506,0.012c-0.132,0.006-0.294-0.025-0.484-0.1
			c-0.146-0.059-0.297-0.143-0.451-0.252c-0.153-0.111-0.308-0.225-0.462-0.342c-0.153-0.117-0.312-0.221-0.473-0.309
			s-0.315-0.131-0.462-0.131c-0.073,0-0.143,0.021-0.209,0.064c-0.066,0.045-0.099,0.111-0.099,0.199v2.535l0.176,0.215h1.562
			c0.132,0,0.242,0.041,0.33,0.123s0.157,0.184,0.209,0.303s0.088,0.244,0.11,0.371c0.021,0.127,0.033,0.242,0.033,0.348
			c0,0.283-0.1,0.539-0.297,0.762c-0.198,0.225-0.444,0.338-0.737,0.338h-4.4c-0.161,0-0.33-0.027-0.506-0.078
			c-0.176-0.053-0.341-0.133-0.495-0.236c-0.153-0.105-0.282-0.229-0.385-0.371s-0.154-0.303-0.154-0.482
			C135.792,46.314,135.804,46.201,135.825,46.082z M140.886,39.611c0.153,0.344,0.352,0.648,0.594,0.912S142,41,142.315,41.162
			c0.315,0.16,0.686,0.242,1.11,0.242c0.323,0,0.635-0.082,0.936-0.242c0.301-0.162,0.564-0.371,0.792-0.627
			c0.228-0.258,0.41-0.547,0.55-0.869s0.224-0.639,0.253-0.947v-0.945c0-0.396-0.011-0.744-0.033-1.045
			c-0.021-0.301-0.069-0.584-0.143-0.848s-0.184-0.523-0.33-0.781c-0.146-0.256-0.352-0.545-0.616-0.867
			c-0.088-0.117-0.209-0.262-0.362-0.43c-0.154-0.168-0.319-0.254-0.495-0.254h-1.563c-0.176,0.162-0.318,0.297-0.429,0.408
			c-0.11,0.109-0.22,0.223-0.33,0.34c-0.11,0.119-0.202,0.213-0.275,0.287c-0.396,0.439-0.638,0.898-0.726,1.375
			s-0.132,1.008-0.132,1.594v0.99C140.61,38.91,140.731,39.266,140.886,39.611z"/>
	</g>
</g>
<g id="RockPaperScissors">
</g>
<g id="Roger_Roger">
</g>
<g id="RoyaleWe">
</g>
<g id="Skip">
</g>
<g id="SwineRules">
</g>
<g id="Touchy_Feeley">
</g>
<g id="Wasted_Education">
</g>
<g id="Layer_86">
</g>
<g id="PointOfNoReturn">
</g>
<g id="Pirate">
</g>
<g id="Thief">
</g>
<g id="DepthPerception">
</g>
<g id="Narcissist">
</g>
<g id="MammaBird">
</g>
<g id="Staringcontest">
</g>
<g id="Cartwheel">
</g>
<g id="Censored">
</g>
<g id="Depersonalization">
</g>
<g id="threeman">
</g>
<g id="_x32__truths_and_a_lie">
</g>
<g id="cray_cray_cat_lady">
</g>
<g id="siblings">
</g>
<g id="later">
</g>
<g id="waterfall">
</g>
<g id="cheers">
</g>
<g id="rhyme">
</g>
<g id="categories">
</g>
<g id="tits">
</g>
<g id="dicks">
</g>
<g id="questions">
</g>
<g id="double_hands">
</g>
<g id="take_2">
</g>
<g id="take_3">
</g>
<g id="give_3">
</g>
<g id="give_2">
</g>
<g id="rewind">
</g>
<g id="Cryptkeeper">
</g>
<g id="Take_2_and_Redo">
</g>
<g id="Embryo">
</g>
<g id="I_am_Groot">
</g>
<g id="Mini_Me">
</g>
<g id="Ditto_1_">
</g>
<g id="reverse">
</g>
</svg>
