<?xml version="1.0" encoding="utf-8"?>
<!-- Generator: Adobe Illustrator 16.0.0, SVG Export Plug-In . SVG Version: 6.00 Build 0)  -->
<!DOCTYPE svg PUBLIC "-//W3C//DTD SVG 1.1//EN" "http://www.w3.org/Graphics/SVG/1.1/DTD/svg11.dtd">
<svg version="1.1" xmlns="http://www.w3.org/2000/svg" xmlns:xlink="http://www.w3.org/1999/xlink" x="0px" y="0px"
	 width="209.759px" height="62.361px" viewBox="0 0 209.759 62.361" enable-background="new 0 0 209.759 62.361"
	 xml:space="preserve">
<g id="Layer_1">
</g>
<g id="Blindman">
</g>
<g id="Compliments">
</g>
<g id="HAT">
</g>
<g id="speech">
</g>
<g id="TREX_ARMS">
</g>
<g id="slim_shady">
</g>
<g id="TIMEOUT">
</g>
<g id="Truth_or_Dare">
</g>
<g id="ARM_WRESTLE">
</g>
<g id="musical_chairs">
</g>
<g id="never_have_i_ever">
</g>
<g id="Trivia">
</g>
<g id="Drink_Pulling">
</g>
<g id="Sharing_is_Caring">
</g>
<g id="Not_It">
</g>
<g id="Cocktail_of_Doom">
</g>
<g id="Heads_up">
</g>
<g id="Archenemy">
</g>
<g id="battle_of_the_sexes">
</g>
<g id="one_must_drink">
</g>
<g id="rainbow_connection">
</g>
<g id="social_drinking">
	<g>
		<path d="M31.901,30.824c0.468,0.288,1.151,0.528,1.871,0.528c1.067,0,1.691-0.564,1.691-1.38c0-0.756-0.433-1.188-1.523-1.606
			c-1.319-0.468-2.135-1.151-2.135-2.291c0-1.26,1.043-2.195,2.614-2.195c0.827,0,1.428,0.192,1.787,0.396l-0.288,0.852
			c-0.264-0.145-0.804-0.384-1.535-0.384c-1.104,0-1.522,0.659-1.522,1.211c0,0.756,0.491,1.127,1.606,1.56
			c1.367,0.527,2.063,1.187,2.063,2.374c0,1.248-0.924,2.327-2.831,2.327c-0.779,0-1.631-0.229-2.063-0.516L31.901,30.824z"/>
		<path d="M43.251,29.146c0,2.146-1.487,3.082-2.891,3.082c-1.571,0-2.782-1.151-2.782-2.986c0-1.942,1.271-3.082,2.878-3.082
			C42.123,26.159,43.251,27.37,43.251,29.146z M38.646,29.205c0,1.271,0.731,2.231,1.763,2.231c1.008,0,1.763-0.948,1.763-2.255
			c0-0.983-0.491-2.231-1.738-2.231C39.185,26.95,38.646,28.102,38.646,29.205z"/>
		<path d="M48.724,31.88c-0.276,0.144-0.888,0.336-1.668,0.336c-1.751,0-2.89-1.188-2.89-2.963c0-1.787,1.223-3.082,3.118-3.082
			c0.623,0,1.175,0.156,1.463,0.3l-0.239,0.815c-0.252-0.144-0.648-0.275-1.224-0.275c-1.331,0-2.051,0.983-2.051,2.194
			c0,1.344,0.863,2.171,2.015,2.171c0.6,0,0.995-0.156,1.295-0.288L48.724,31.88z"/>
		<path d="M51.137,24.66c0.012,0.359-0.252,0.647-0.672,0.647c-0.371,0-0.636-0.288-0.636-0.647c0-0.372,0.276-0.66,0.66-0.66
			C50.885,24,51.137,24.288,51.137,24.66z M49.962,32.096v-5.805h1.055v5.805H49.962z"/>
		<path d="M55.983,32.096l-0.084-0.731h-0.036c-0.324,0.456-0.947,0.863-1.775,0.863c-1.175,0-1.774-0.827-1.774-1.667
			c0-1.403,1.247-2.171,3.49-2.159v-0.119c0-0.48-0.132-1.344-1.319-1.344c-0.54,0-1.104,0.168-1.512,0.432l-0.239-0.695
			c0.479-0.312,1.175-0.516,1.906-0.516c1.775,0,2.207,1.211,2.207,2.374v2.171c0,0.504,0.024,0.996,0.096,1.392H55.983z
			 M55.827,29.134c-1.151-0.024-2.458,0.18-2.458,1.307c0,0.684,0.455,1.008,0.995,1.008c0.756,0,1.235-0.479,1.403-0.972
			c0.036-0.107,0.06-0.228,0.06-0.336V29.134z"/>
		<path d="M58.554,23.58h1.055v8.516h-1.055V23.58z"/>
		<path d="M63.965,24.12c0.636-0.096,1.392-0.168,2.219-0.168c1.5,0,2.567,0.348,3.274,1.008c0.72,0.659,1.14,1.595,1.14,2.902
			c0,1.319-0.408,2.398-1.163,3.142c-0.756,0.756-2.003,1.164-3.574,1.164c-0.744,0-1.367-0.036-1.896-0.097V24.12z M65.009,31.269
			c0.264,0.048,0.647,0.06,1.056,0.06c2.23,0,3.441-1.247,3.441-3.43c0.013-1.907-1.067-3.119-3.273-3.119
			c-0.54,0-0.948,0.049-1.224,0.108V31.269z"/>
		<path d="M71.921,28.102c0-0.684-0.013-1.271-0.049-1.811h0.924l0.036,1.14h0.048c0.264-0.78,0.899-1.271,1.607-1.271
			c0.12,0,0.204,0.012,0.3,0.036v0.995c-0.108-0.024-0.216-0.036-0.36-0.036c-0.743,0-1.271,0.563-1.415,1.355
			c-0.023,0.144-0.048,0.312-0.048,0.491v3.095h-1.043V28.102z"/>
		<path d="M77.067,24.66c0.012,0.359-0.252,0.647-0.672,0.647c-0.371,0-0.636-0.288-0.636-0.647c0-0.372,0.276-0.66,0.66-0.66
			C76.815,24,77.067,24.288,77.067,24.66z M75.893,32.096v-5.805h1.055v5.805H75.893z"/>
		<path d="M78.701,27.862c0-0.6-0.013-1.092-0.049-1.571h0.936l0.061,0.959h0.023c0.288-0.552,0.96-1.091,1.919-1.091
			c0.804,0,2.051,0.479,2.051,2.471v3.466h-1.055V28.75c0-0.936-0.349-1.716-1.344-1.716c-0.695,0-1.235,0.492-1.415,1.08
			c-0.048,0.132-0.072,0.312-0.072,0.491v3.49h-1.055V27.862z"/>
		<path d="M86.403,28.953h0.024c0.144-0.203,0.348-0.455,0.516-0.659l1.703-2.003h1.271l-2.242,2.387l2.555,3.418h-1.283
			l-2.003-2.782l-0.54,0.6v2.183H85.36V23.58h1.043V28.953z"/>
		<path d="M92.367,24.66c0.012,0.359-0.252,0.647-0.672,0.647c-0.371,0-0.636-0.288-0.636-0.647c0-0.372,0.276-0.66,0.66-0.66
			C92.115,24,92.367,24.288,92.367,24.66z M91.192,32.096v-5.805h1.055v5.805H91.192z"/>
		<path d="M94.001,27.862c0-0.6-0.013-1.092-0.049-1.571h0.936l0.061,0.959h0.023c0.288-0.552,0.96-1.091,1.919-1.091
			c0.804,0,2.051,0.479,2.051,2.471v3.466h-1.055V28.75c0-0.936-0.348-1.716-1.344-1.716c-0.695,0-1.235,0.492-1.415,1.08
			c-0.048,0.132-0.072,0.312-0.072,0.491v3.49h-1.055V27.862z"/>
		<path d="M105.661,26.291c-0.024,0.42-0.048,0.888-0.048,1.595v3.37c0,1.332-0.264,2.147-0.828,2.65
			c-0.563,0.528-1.379,0.696-2.11,0.696c-0.696,0-1.464-0.168-1.931-0.479l0.264-0.804c0.384,0.239,0.983,0.455,1.703,0.455
			c1.079,0,1.871-0.563,1.871-2.026v-0.647h-0.024c-0.324,0.539-0.947,0.971-1.847,0.971c-1.439,0-2.471-1.223-2.471-2.83
			c0-1.967,1.283-3.082,2.614-3.082c1.008,0,1.56,0.527,1.811,1.007h0.024l0.048-0.875H105.661z M104.569,28.582
			c0-0.181-0.012-0.336-0.06-0.48c-0.192-0.611-0.708-1.115-1.476-1.115c-1.007,0-1.727,0.852-1.727,2.195
			c0,1.139,0.575,2.087,1.715,2.087c0.647,0,1.235-0.408,1.463-1.08c0.061-0.18,0.084-0.384,0.084-0.563V28.582z"/>
	</g>
	<g>
		<g>
			<path d="M166.874,34.975v7.755c0,0.625,0.506,1.131,1.131,1.131s1.131-0.506,1.131-1.131v-7.046l-3.582-3.781
				c-0.782-0.825-1.091-1.979-0.825-3.085l0.862-3.592h-1.008l0.756-1.146c0.159,0.072,0.327,0.13,0.503,0.166
				c0.182-0.537,0.49-1.005,0.887-1.375c0.52-0.484,1.191-0.797,1.927-0.875c0.11-0.011,0.222-0.019,0.334-0.02v-3.699
				c0-0.625-0.506-1.131-1.13-1.131s-1.131,0.507-1.131,1.131v1.363c-0.135-0.023-0.273-0.039-0.416-0.039
				c-0.144,0-0.282,0.016-0.419,0.04v-3.22c0-0.624-0.506-1.13-1.131-1.13c-0.624,0-1.13,0.506-1.13,1.13v6.139l-0.548,0.831
				l-0.547-0.831v-6.139c0-0.624-0.507-1.13-1.131-1.13s-1.13,0.506-1.13,1.13v3.22c-0.137-0.024-0.276-0.04-0.419-0.04
				c-0.289,0-0.564,0.055-0.82,0.15v-5.257c0-0.624-0.506-1.13-1.13-1.13c-0.625,0-1.131,0.506-1.131,1.13v6.139l-0.694,1.053
				v-5.265c0-0.624-0.506-1.13-1.13-1.13c-0.625,0-1.131,0.506-1.131,1.13v1.403c-0.256-0.096-0.53-0.15-0.82-0.15
				c-1.295,0-2.346,1.051-2.346,2.346c0,1.296,1.051,2.346,2.346,2.346c0.289,0,0.564-0.055,0.82-0.15v0.684
				c0,0.138,0.027,0.272,0.076,0.399h-0.896h-2.018l-1.758-2.665v-6.138c0-0.625-0.506-1.131-1.13-1.131
				c-0.625,0-1.131,0.506-1.131,1.13v6.478c0,0.222,0.064,0.438,0.187,0.622l3.049,4.626v4.942
				c-0.015,0.072-0.022,0.147-0.022,0.224v9.417c0,0.625,0.506,1.131,1.131,1.131c0.624,0,1.13-0.506,1.13-1.131v-7.755h0.563h0.563
				v7.755c0,0.625,0.506,1.131,1.131,1.131c0.624,0,1.13-0.506,1.13-1.131v-9.417c0-0.076-0.008-0.151-0.021-0.224v-4.919
				l1.254,1.903v4.942c-0.015,0.072-0.022,0.147-0.022,0.224v9.417c0,0.625,0.506,1.131,1.131,1.131
				c0.624,0,1.131-0.506,1.131-1.131v-7.755h0.562h0.563v7.755c0,0.625,0.506,1.131,1.13,1.131s1.131-0.506,1.131-1.131v-9.417
				c0-0.076-0.009-0.151-0.022-0.224v-4.942l0.427-0.648l0.427,0.648v4.942c-0.015,0.072-0.022,0.147-0.022,0.224v9.417
				c0,0.625,0.506,1.131,1.13,1.131c0.625,0,1.131-0.506,1.131-1.131v-7.755h0.563H166.874L166.874,34.975z M159.857,25.226h-2.019
				l-0.69-1.049l0.688-1.044c0.408,0.693,1.159,1.159,2.021,1.159c0.348,0,0.677-0.078,0.973-0.213l0.756,1.146L159.857,25.226
				L159.857,25.226z"/>
			<path d="M171.567,23.168c0.116-0.187,0.24-0.366,0.377-0.536c0.127-0.159,0.261-0.312,0.404-0.456
				c0.251-0.253,0.526-0.481,0.822-0.683c0.322-0.22,0.669-0.406,1.035-0.557v-1.813c0-0.624-0.506-1.13-1.131-1.13
				c-0.278,0-0.529,0.104-0.727,0.271v-1.844c0-0.624-0.506-1.13-1.131-1.13s-1.131,0.506-1.131,1.13v5.734
				c0.26,0.088,0.501,0.206,0.725,0.349C171.098,22.688,171.352,22.911,171.567,23.168z"/>
			<polygon points="170.825,37.467 169.941,36.534 169.941,43.285 170.825,42.206 			"/>
			<path d="M202.649,14.211c-0.624,0-1.131,0.506-1.131,1.131v6.139l-1.757,2.665h-2.018h-0.896
				c0.048-0.128,0.075-0.262,0.075-0.399v-0.684c0.256,0.096,0.531,0.15,0.82,0.15c1.295,0,2.345-1.051,2.345-2.346
				c0-1.296-1.05-2.346-2.345-2.346c-0.289,0-0.564,0.055-0.82,0.15v-1.403c0-0.624-0.506-1.131-1.131-1.131
				c-0.624,0-1.13,0.507-1.13,1.131v5.265l-0.694-1.053v-6.139c0-0.625-0.506-1.131-1.131-1.131c-0.624,0-1.13,0.506-1.13,1.131
				v5.257c-0.256-0.096-0.532-0.15-0.82-0.15c-0.144,0-0.283,0.015-0.419,0.039v-3.219c0-0.625-0.506-1.131-1.13-1.131
				c-0.625,0-1.131,0.506-1.131,1.131v6.139l-0.548,0.831l-0.086-0.131v0.261v3.848v0.261l0.086-0.13l0.427,0.647v4.942
				c-0.015,0.072-0.022,0.146-0.022,0.224v9.417c0,0.625,0.506,1.131,1.131,1.131c0.624,0,1.131-0.506,1.131-1.131v-7.755h0.562
				h0.563v7.755c0,0.625,0.505,1.131,1.13,1.131c0.624,0,1.131-0.506,1.131-1.131V34.16c0-0.077-0.008-0.151-0.022-0.224v-4.942
				l1.255-1.903v4.919c-0.015,0.072-0.022,0.146-0.022,0.224v9.417c0,0.624,0.506,1.131,1.13,1.131c0.625,0,1.131-0.507,1.131-1.131
				v-7.755h0.563h0.562v7.755c0,0.624,0.506,1.131,1.131,1.131s1.131-0.507,1.131-1.131v-9.417c0-0.077-0.008-0.151-0.023-0.224
				v-4.942l3.05-4.626c0.121-0.185,0.187-0.401,0.187-0.622v-6.478C203.78,14.718,203.274,14.211,202.649,14.211z M192.906,26.072
				h-2.018h-1.729l0.756-1.146c0.297,0.136,0.626,0.213,0.974,0.213c0.862,0,1.613-0.466,2.021-1.158l0.688,1.043L192.906,26.072z"
				/>
			<path d="M187.234,30.038c-0.063,0.13-0.132,0.257-0.212,0.379l-4.44,6.735v7.008c0.023,0.16,0.036,0.321,0.036,0.48v0.055
				c0.04,0.005,0.08,0.013,0.123,0.013c0.623,0,1.13-0.506,1.13-1.131v-7.755h0.562h0.563v7.755c0,0.625,0.506,1.131,1.131,1.131
				c0.624,0,1.13-0.506,1.13-1.131V34.16c0-0.077-0.008-0.151-0.022-0.224L187.234,30.038L187.234,30.038z"/>
			<path d="M180.658,17.269c0-0.625-0.507-1.131-1.131-1.131s-1.13,0.506-1.13,1.131v0.147c-0.197-0.166-0.449-0.271-0.728-0.271
				c-0.624,0-1.131,0.507-1.131,1.131v2.249c0.654,0.023,1.279,0.157,1.858,0.387c0.137,0.054,0.271,0.115,0.402,0.18
				c0.718,0.351,1.352,0.846,1.858,1.452V17.269L180.658,17.269z"/>
			<path d="M156.266,12.309c0.675-0.885,0.705-2.13,0.147-3.104c-0.604-1.053-3.239-3.059-1.783-4.226
				c0.808-0.648-0.337-1.776-1.136-1.136c-0.948,0.76-1.038,1.926-0.709,3.031c0.44,1.472,3.328,3.003,2.094,4.623
				C154.251,12.322,155.646,13.12,156.266,12.309z"/>
			<path d="M198.125,5.446c1.03-0.104,0.684-1.674-0.336-1.57c-1.209,0.122-1.919,1.052-2.242,2.158
				c-0.431,1.475,1.16,4.33-0.756,5.019c-0.976,0.351-0.238,1.779,0.723,1.434c1.047-0.376,1.749-1.404,1.811-2.524
				C197.391,8.75,196.269,5.634,198.125,5.446z"/>
			<path d="M166.674,12.132c0.172,1.108,0.974,2.063,2.053,2.332c0.99,0.248,1.582-1.246,0.577-1.498
				c-1.976-0.495-0.676-3.495-1.251-4.919c-0.433-1.069-1.23-1.924-2.446-1.926c-1.024-0.001-1.213,1.595-0.178,1.596
				C167.294,7.72,166.487,10.933,166.674,12.132z"/>
			<path d="M186.298,6.377c0.472-1.053,0.536-2.221-0.305-3.098c-0.709-0.741-1.99,0.229-1.274,0.977
				c1.29,1.347-1.587,2.99-2.323,3.955c-0.68,0.892-0.813,2.13-0.261,3.096c0.507,0.887,1.995,0.278,1.48-0.622
				C182.605,8.918,185.669,7.778,186.298,6.377z"/>
			<path d="M171.802,8.06c0.431,1.036,1.435,1.772,2.547,1.779c1.021,0.007,1.241-1.586,0.205-1.593
				c-2.036-0.013-1.483-3.234-2.38-4.482c-0.673-0.936-1.652-1.577-2.832-1.291c-0.997,0.242-0.802,1.837,0.204,1.593
				C171.359,3.626,171.337,6.938,171.802,8.06z"/>
			<path d="M160.458,12.451c1.45,0,1.45-2.248,0-2.248C159.009,10.203,159.009,12.451,160.458,12.451z"/>
			<path d="M149.7,9.239c1.449,0,1.449-2.248,0-2.248C148.25,6.991,148.25,9.239,149.7,9.239z"/>
			<path d="M179.888,4.102c-1.449,0-1.449,2.248,0,2.248C181.338,6.35,181.338,4.102,179.888,4.102z"/>
			<path d="M177.801,12.13c1.449,0,1.449-2.248,0-2.248C176.351,9.882,176.351,12.13,177.801,12.13z"/>
			<path d="M190.165,8.758c1.449,0,1.449-2.248,0-2.248C188.715,6.51,188.715,8.758,190.165,8.758z"/>
			<path d="M203.011,8.919c-1.449,0-1.449,2.247,0,2.247S204.46,8.919,203.011,8.919z"/>
			<path d="M181.61,35.71l4.071-6.177c0.188-0.284,0.287-0.618,0.287-0.959v-2.501V25.78v-1.215v-3.541v-4.758
				c0-0.042-0.003-0.085-0.006-0.127c-0.065-0.903-0.818-1.617-1.738-1.617c-0.964,0-1.744,0.781-1.744,1.744v1.805v3.424v2.598
				v1.98v1.978l-0.849,1.286l-1.861,2.826h-4.205h-0.385h-2.362l-2.915-3.077l0.578-2.408l0.227-0.944
				c0.001-0.004,0.001-0.007,0.002-0.01c0.011-0.047,0.02-0.093,0.026-0.138c0.002-0.023,0.006-0.045,0.009-0.068
				c0.021-0.199,0.009-0.397-0.035-0.586c-0.041-0.179-0.11-0.35-0.204-0.505c-0.233-0.387-0.614-0.684-1.087-0.797
				c-0.011-0.003-0.021-0.004-0.033-0.007c-0.126-0.027-0.252-0.043-0.376-0.043c-0.007,0-0.014,0.002-0.021,0.002
				c-0.779,0.009-1.483,0.544-1.674,1.336l-0.073,0.307l-0.113,0.475l-0.838,3.492c-0.139,0.574,0.023,1.179,0.43,1.606l2.415,2.551
				l0.829,0.874l2.466,2.604v0.002v5.949l-0.229,0.278l-1.913,2.34l-3.652,4.464c-0.584,0.715-0.512,1.761,0.167,2.387l4.444,4.103
				c0.335,0.31,0.759,0.463,1.182,0.463c0.47,0,0.938-0.188,1.282-0.562c0.653-0.708,0.609-1.812-0.099-2.465l-3.236-2.987
				l2.94-3.593h4.206v11.965c0,0.963,0.781,1.744,1.744,1.744c0.964,0,1.744-0.781,1.744-1.744V44.642
				c0-0.119-0.013-0.234-0.035-0.347v-7.623L181.61,35.71z"/>
			<path d="M172.428,27.08c0.267,1.116,0.995,2.054,1.978,2.592c0.356,0.196,0.748,0.339,1.16,0.419
				c0.25,0.048,0.507,0.075,0.771,0.075c1.58,0,2.943-0.913,3.602-2.238c0.153-0.31,0.271-0.64,0.342-0.987
				c0.052-0.258,0.08-0.524,0.08-0.798c0-0.314-0.04-0.618-0.108-0.912c-0.212-0.913-0.734-1.705-1.45-2.262
				c-0.129-0.101-0.264-0.191-0.403-0.275c-0.244-0.146-0.504-0.268-0.777-0.359c-0.342-0.116-0.704-0.185-1.08-0.203
				c-0.068-0.004-0.135-0.011-0.204-0.011c-0.584,0-1.139,0.128-1.64,0.352c-0.17,0.076-0.333,0.165-0.49,0.263
				c-1.019,0.639-1.732,1.717-1.868,2.972c-0.002,0.022-0.003,0.045-0.007,0.068c-0.01,0.107-0.015,0.218-0.016,0.328
				c0,0.014-0.002,0.026-0.002,0.04c0,0.13,0.007,0.258,0.02,0.385C172.351,26.717,172.384,26.899,172.428,27.08z"/>
		</g>
	</g>
</g>
<g id="Spin_the_bottle">
</g>
<g id="accents">
</g>
<g id="Slap">
</g>
<g id="rub">
</g>
<g id="down_the_hatch">
</g>
<g id="rubiks_cube">
</g>
<g id="bar_tender">
</g>
<g id="codenames">
</g>
<g id="hand_switch">
</g>
<g id="make_a_rule">
</g>
<g id="no_guts_no_glory">
</g>
<g id="pass">
</g>
<g id="santa">
</g>
<g id="snake_eyes">
</g>
<g id="bodyguard">
</g>
<g id="threeman">
</g>
<g id="_x32__truths_and_a_lie">
</g>
<g id="cray_cray_cat_lady">
</g>
<g id="siblings">
</g>
<g id="later">
</g>
<g id="waterfall">
</g>
<g id="cheers">
</g>
<g id="rhyme">
</g>
<g id="categories">
</g>
<g id="tits">
</g>
<g id="dicks">
</g>
<g id="questions">
</g>
<g id="double_hands">
</g>
<g id="take_2">
</g>
<g id="take_3">
</g>
<g id="give_3">
</g>
<g id="give_2">
</g>
<g id="rewind">
</g>
<g id="Cryptkeeper">
</g>
<g id="Take_2_and_Redo">
</g>
<g id="Embryo">
</g>
<g id="I_am_Groot">
</g>
<g id="Mini_Me">
</g>
<g id="Ditto_1_">
</g>
</svg>
