<?xml version="1.0" encoding="utf-8"?>
<!-- Generator: Adobe Illustrator 16.0.0, SVG Export Plug-In . SVG Version: 6.00 Build 0)  -->
<!DOCTYPE svg PUBLIC "-//W3C//DTD SVG 1.1//EN" "http://www.w3.org/Graphics/SVG/1.1/DTD/svg11.dtd">
<svg version="1.1" xmlns="http://www.w3.org/2000/svg" xmlns:xlink="http://www.w3.org/1999/xlink" x="0px" y="0px"
	 width="209.759px" height="62.361px" viewBox="0 0 209.759 62.361" enable-background="new 0 0 209.759 62.361"
	 xml:space="preserve">
<g id="Layer_1">
</g>
<g id="Blindman">
</g>
<g id="Compliments">
</g>
<g id="HAT">
</g>
<g id="speech">
</g>
<g id="TREX_ARMS">
</g>
<g id="slim_shady">
</g>
<g id="TIMEOUT">
</g>
<g id="Truth_or_Dare">
</g>
<g id="ARM_WRESTLE">
</g>
<g id="musical_chairs">
</g>
<g id="never_have_i_ever">
</g>
<g id="Trivia">
</g>
<g id="Drink_Pulling">
</g>
<g id="Sharing_is_Caring">
</g>
<g id="Not_It">
</g>
<g id="Cocktail_of_Doom">
</g>
<g id="Heads_up">
</g>
<g id="Archenemy">
</g>
<g id="battle_of_the_sexes">
</g>
<g id="one_must_drink">
</g>
<g id="rainbow_connection">
</g>
<g id="social_drinking">
</g>
<g id="Spin_the_bottle">
</g>
<g id="accents">
</g>
<g id="Slap">
</g>
<g id="rub">
</g>
<g id="down_the_hatch">
</g>
<g id="rubiks_cube">
</g>
<g id="bar_tender">
</g>
<g id="codenames">
</g>
<g id="hand_switch">
</g>
<g id="make_a_rule">
</g>
<g id="no_guts_no_glory">
</g>
<g id="pass">
</g>
<g id="santa">
</g>
<g id="snake_eyes">
</g>
<g id="bodyguard">
	<g>
		<path d="M30.69,43.846c-0.881,0-1.665-0.197-2.354-0.594s-1.232-0.939-1.628-1.629v2.002h-2.574V27.566h2.948v6.555
			c0.41-0.703,0.949-1.25,1.617-1.639c0.667-0.389,1.448-0.582,2.343-0.582c0.748,0,1.43,0.16,2.046,0.482
			c0.616,0.324,1.147,0.756,1.595,1.299s0.792,1.18,1.034,1.914c0.242,0.732,0.363,1.504,0.363,2.311
			c0,0.836-0.136,1.613-0.407,2.332s-0.648,1.346-1.133,1.881s-1.056,0.957-1.716,1.264C32.164,43.691,31.452,43.846,30.69,43.846z
			 M29.876,41.338c0.469,0,0.902-0.092,1.298-0.275c0.396-0.184,0.733-0.43,1.012-0.736c0.279-0.309,0.495-0.668,0.649-1.078
			s0.231-0.852,0.231-1.32s-0.074-0.916-0.221-1.342s-0.355-0.799-0.627-1.123c-0.271-0.322-0.59-0.578-0.957-0.77
			c-0.366-0.189-0.77-0.285-1.21-0.285c-0.66,0-1.25,0.217-1.771,0.648c-0.521,0.434-0.921,0.965-1.199,1.596v2.75
			c0.103,0.293,0.253,0.557,0.451,0.791s0.421,0.438,0.671,0.605c0.249,0.168,0.521,0.301,0.813,0.396
			C29.312,41.291,29.598,41.338,29.876,41.338z"/>
		<path d="M45.496,43.846c-0.938,0-1.782-0.162-2.53-0.484s-1.382-0.76-1.902-1.309c-0.521-0.551-0.921-1.184-1.199-1.902
			c-0.279-0.719-0.418-1.475-0.418-2.268c0-0.807,0.139-1.568,0.418-2.287c0.278-0.719,0.678-1.354,1.199-1.902
			c0.521-0.551,1.154-0.986,1.902-1.311c0.748-0.322,1.592-0.482,2.53-0.482s1.778,0.16,2.519,0.482
			c0.741,0.324,1.372,0.76,1.893,1.311c0.521,0.549,0.92,1.184,1.199,1.902c0.278,0.719,0.418,1.48,0.418,2.287
			c0,0.793-0.14,1.549-0.418,2.268c-0.279,0.719-0.675,1.352-1.188,1.902c-0.514,0.549-1.144,0.986-1.892,1.309
			S46.435,43.846,45.496,43.846z M42.482,37.883c0,0.514,0.076,0.98,0.23,1.398s0.366,0.779,0.639,1.088
			c0.271,0.309,0.59,0.547,0.956,0.715c0.367,0.17,0.763,0.254,1.188,0.254c0.425,0,0.821-0.084,1.188-0.254
			c0.367-0.168,0.686-0.406,0.957-0.715s0.484-0.674,0.639-1.1c0.153-0.426,0.23-0.895,0.23-1.408c0-0.498-0.077-0.961-0.23-1.387
			c-0.154-0.424-0.367-0.791-0.639-1.1c-0.271-0.307-0.59-0.545-0.957-0.715c-0.366-0.168-0.763-0.252-1.188-0.252
			c-0.426,0-0.821,0.088-1.188,0.264c-0.366,0.176-0.686,0.418-0.956,0.727c-0.272,0.307-0.484,0.674-0.639,1.1
			S42.482,37.385,42.482,37.883z"/>
		<path d="M60.367,43.846c-0.792,0-1.525-0.154-2.2-0.463c-0.675-0.307-1.254-0.732-1.738-1.275
			c-0.483-0.543-0.861-1.178-1.133-1.902c-0.271-0.727-0.407-1.508-0.407-2.344s0.129-1.613,0.386-2.332
			c0.256-0.719,0.611-1.35,1.066-1.893c0.455-0.541,0.997-0.967,1.628-1.275s1.32-0.461,2.068-0.461
			c0.851,0,1.617,0.205,2.299,0.615s1.214,0.945,1.595,1.605v-6.555h2.948v12.672c0,0.307,0.052,0.527,0.154,0.66
			c0.103,0.131,0.278,0.205,0.527,0.219v2.508c-0.513,0.104-0.931,0.154-1.254,0.154c-0.527,0-0.96-0.131-1.298-0.396
			c-0.337-0.264-0.527-0.607-0.572-1.033l-0.065-0.727c-0.426,0.734-1.001,1.287-1.728,1.662
			C61.918,43.658,61.159,43.846,60.367,43.846z M61.137,41.338c0.278,0,0.564-0.047,0.858-0.143
			c0.293-0.096,0.564-0.232,0.813-0.408c0.25-0.176,0.474-0.381,0.671-0.615c0.198-0.234,0.349-0.492,0.451-0.77v-2.75
			c-0.117-0.324-0.282-0.621-0.495-0.893c-0.212-0.27-0.454-0.506-0.726-0.703s-0.558-0.355-0.858-0.473s-0.598-0.176-0.891-0.176
			c-0.44,0-0.847,0.096-1.221,0.285c-0.374,0.191-0.693,0.451-0.957,0.781c-0.265,0.33-0.47,0.707-0.616,1.133
			s-0.22,0.865-0.22,1.32c0,0.484,0.08,0.932,0.242,1.342c0.161,0.41,0.381,0.77,0.659,1.078s0.612,0.551,1.001,0.727
			S60.667,41.338,61.137,41.338z"/>
		<path d="M72.115,45.869c0.249,0.074,0.491,0.129,0.726,0.166c0.235,0.035,0.433,0.055,0.595,0.055c0.19,0,0.366-0.037,0.527-0.111
			c0.161-0.072,0.309-0.201,0.44-0.385s0.264-0.436,0.396-0.758c0.133-0.322,0.271-0.727,0.418-1.211l-4.554-11.527h3.036
			l3.124,8.977l2.772-8.977h2.771l-4.84,13.816c-0.279,0.807-0.756,1.467-1.43,1.979c-0.675,0.514-1.511,0.771-2.509,0.771
			c-0.234,0-0.473-0.02-0.715-0.055c-0.242-0.037-0.495-0.1-0.759-0.188V45.869z"/>
		<path d="M97.349,43.691c-0.777,0-1.481-0.154-2.111-0.463c-0.631-0.307-1.177-0.729-1.64-1.264
			c-0.462-0.535-0.817-1.156-1.066-1.859c-0.25-0.703-0.374-1.451-0.374-2.244c0-0.836,0.132-1.613,0.396-2.332
			c0.265-0.719,0.631-1.35,1.101-1.893c0.469-0.541,1.034-0.967,1.693-1.275c0.66-0.309,1.387-0.461,2.179-0.461
			c0.895,0,1.679,0.201,2.354,0.604c0.675,0.404,1.232,0.943,1.672,1.617v-2.023h2.574v10.979c0,0.85-0.161,1.613-0.484,2.287
			c-0.322,0.674-0.767,1.246-1.33,1.717c-0.565,0.469-1.24,0.828-2.024,1.078c-0.785,0.248-1.639,0.373-2.563,0.373
			c-1.261,0-2.32-0.209-3.179-0.627c-0.857-0.418-1.595-1.008-2.211-1.771l1.606-1.561c0.439,0.541,0.993,0.967,1.66,1.275
			c0.668,0.309,1.375,0.461,2.123,0.461c0.455,0,0.892-0.063,1.31-0.186c0.418-0.125,0.788-0.32,1.111-0.584
			c0.322-0.264,0.575-0.602,0.759-1.012c0.183-0.41,0.274-0.895,0.274-1.451v-1.453c-0.381,0.66-0.916,1.17-1.605,1.529
			S98.141,43.691,97.349,43.691z M98.339,41.338c0.322,0,0.631-0.051,0.924-0.154c0.294-0.104,0.564-0.242,0.814-0.418
			c0.249-0.176,0.469-0.381,0.66-0.615c0.19-0.234,0.337-0.484,0.439-0.748v-2.75c-0.264-0.676-0.679-1.219-1.243-1.629
			s-1.154-0.615-1.771-0.615c-0.455,0-0.865,0.098-1.232,0.297c-0.366,0.197-0.682,0.461-0.945,0.791
			c-0.265,0.33-0.466,0.709-0.605,1.133c-0.14,0.426-0.209,0.865-0.209,1.32c0,0.471,0.081,0.91,0.242,1.32s0.385,0.77,0.671,1.078
			s0.619,0.551,1.001,0.727C97.466,41.25,97.885,41.338,98.339,41.338z"/>
		<path d="M112.396,43.846c-1.188,0-2.09-0.381-2.706-1.145c-0.616-0.762-0.924-1.893-0.924-3.387v-7.217h2.947v6.578
			c0,1.775,0.639,2.662,1.914,2.662c0.572,0,1.126-0.172,1.661-0.518c0.535-0.344,0.972-0.869,1.31-1.572v-7.15h2.947v8.141
			c0,0.307,0.056,0.527,0.165,0.66c0.11,0.131,0.29,0.205,0.539,0.219v2.508c-0.293,0.059-0.539,0.096-0.737,0.111
			c-0.197,0.014-0.377,0.021-0.538,0.021c-0.528,0-0.957-0.121-1.287-0.363s-0.524-0.576-0.583-1.002l-0.066-0.924
			c-0.514,0.793-1.174,1.387-1.979,1.783C114.251,43.648,113.364,43.846,112.396,43.846z"/>
		<path d="M127.709,43.846c-0.558,0-1.078-0.092-1.563-0.275c-0.483-0.184-0.901-0.439-1.254-0.77
			c-0.352-0.33-0.627-0.715-0.825-1.156c-0.197-0.439-0.297-0.924-0.297-1.451c0-0.543,0.121-1.045,0.363-1.508
			c0.242-0.461,0.579-0.854,1.012-1.176s0.949-0.576,1.551-0.76s1.262-0.275,1.98-0.275c0.513,0,1.016,0.045,1.507,0.133
			s0.928,0.213,1.31,0.375v-0.66c0-0.764-0.217-1.35-0.649-1.762c-0.433-0.41-1.074-0.615-1.925-0.615
			c-0.616,0-1.218,0.109-1.805,0.33c-0.586,0.221-1.188,0.543-1.804,0.969l-0.901-1.871c1.48-0.982,3.079-1.473,4.796-1.473
			c1.657,0,2.943,0.406,3.86,1.221c0.917,0.813,1.375,1.99,1.375,3.531v3.586c0,0.307,0.056,0.527,0.165,0.66
			c0.11,0.131,0.29,0.205,0.539,0.219v2.508c-0.499,0.104-0.932,0.154-1.298,0.154c-0.558,0-0.986-0.125-1.287-0.373
			c-0.301-0.25-0.487-0.58-0.561-0.99l-0.066-0.639c-0.514,0.676-1.137,1.188-1.87,1.541
			C129.329,43.67,128.545,43.846,127.709,43.846z M128.545,41.689c0.498,0,0.972-0.088,1.419-0.264s0.795-0.41,1.045-0.705
			c0.322-0.248,0.484-0.527,0.484-0.836v-1.318c-0.353-0.133-0.734-0.238-1.145-0.32c-0.411-0.08-0.807-0.121-1.188-0.121
			c-0.764,0-1.387,0.174-1.87,0.518c-0.484,0.344-0.727,0.781-0.727,1.309c0,0.5,0.19,0.914,0.572,1.244
			C127.518,41.525,127.987,41.689,128.545,41.689z"/>
		<path d="M146.145,34.65c-0.895,0.014-1.694,0.186-2.398,0.516s-1.21,0.826-1.518,1.486v6.973h-2.948V32.098h2.706v2.463
			c0.205-0.395,0.447-0.75,0.727-1.066c0.278-0.314,0.579-0.59,0.901-0.824s0.649-0.414,0.979-0.539s0.648-0.188,0.957-0.188
			c0.161,0,0.282,0,0.362,0c0.081,0,0.158,0.008,0.231,0.021V34.65z"/>
		<path d="M154.087,43.846c-0.792,0-1.525-0.154-2.2-0.463c-0.675-0.307-1.254-0.732-1.738-1.275
			c-0.483-0.543-0.861-1.178-1.133-1.902c-0.271-0.727-0.407-1.508-0.407-2.344s0.129-1.613,0.386-2.332
			c0.256-0.719,0.611-1.35,1.066-1.893c0.455-0.541,0.997-0.967,1.628-1.275s1.32-0.461,2.068-0.461
			c0.851,0,1.617,0.205,2.299,0.615s1.214,0.945,1.595,1.605v-6.555h2.948v12.672c0,0.307,0.052,0.527,0.154,0.66
			c0.103,0.131,0.278,0.205,0.527,0.219v2.508c-0.513,0.104-0.931,0.154-1.254,0.154c-0.527,0-0.96-0.131-1.298-0.396
			c-0.337-0.264-0.527-0.607-0.572-1.033l-0.065-0.727c-0.426,0.734-1.001,1.287-1.728,1.662
			C155.638,43.658,154.879,43.846,154.087,43.846z M154.856,41.338c0.278,0,0.564-0.047,0.858-0.143
			c0.293-0.096,0.564-0.232,0.813-0.408c0.25-0.176,0.474-0.381,0.671-0.615c0.198-0.234,0.349-0.492,0.451-0.77v-2.75
			c-0.117-0.324-0.282-0.621-0.495-0.893c-0.212-0.27-0.454-0.506-0.726-0.703s-0.558-0.355-0.858-0.473s-0.598-0.176-0.891-0.176
			c-0.44,0-0.847,0.096-1.221,0.285c-0.374,0.191-0.693,0.451-0.957,0.781c-0.265,0.33-0.47,0.707-0.616,1.133
			s-0.22,0.865-0.22,1.32c0,0.484,0.08,0.932,0.242,1.342c0.161,0.41,0.381,0.77,0.659,1.078s0.612,0.551,1.001,0.727
			S154.387,41.338,154.856,41.338z"/>
	</g>
</g>
<g id="threeman">
</g>
<g id="_x32__truths_and_a_lie">
</g>
<g id="cray_cray_cat_lady">
</g>
<g id="siblings">
</g>
<g id="later">
</g>
<g id="waterfall">
</g>
<g id="cheers">
</g>
<g id="rhyme">
</g>
<g id="categories">
</g>
<g id="tits">
</g>
<g id="dicks">
</g>
<g id="questions">
</g>
<g id="double_hands">
</g>
<g id="take_2">
</g>
<g id="take_3">
</g>
<g id="give_3">
</g>
<g id="give_2">
</g>
<g id="rewind">
</g>
<g id="Cryptkeeper">
</g>
<g id="Take_2_and_Redo">
</g>
<g id="Embryo">
</g>
<g id="I_am_Groot">
</g>
<g id="Mini_Me">
</g>
<g id="Ditto_1_">
</g>
</svg>
