<?xml version="1.0" encoding="utf-8"?>
<!-- Generator: Adobe Illustrator 16.0.0, SVG Export Plug-In . SVG Version: 6.00 Build 0)  -->
<!DOCTYPE svg PUBLIC "-//W3C//DTD SVG 1.1//EN" "http://www.w3.org/Graphics/SVG/1.1/DTD/svg11.dtd">
<svg version="1.1" xmlns="http://www.w3.org/2000/svg" xmlns:xlink="http://www.w3.org/1999/xlink" x="0px" y="0px"
	 width="209.759px" height="62.361px" viewBox="0 0 209.759 62.361" enable-background="new 0 0 209.759 62.361"
	 xml:space="preserve">
<g id="Layer_1">
</g>
<g id="Blindman">
</g>
<g id="Compliments">
</g>
<g id="HAT">
</g>
<g id="speech">
</g>
<g id="TREX_ARMS">
</g>
<g id="slim_shady">
</g>
<g id="TIMEOUT">
</g>
<g id="Truth_or_Dare">
</g>
<g id="ARM_WRESTLE">
</g>
<g id="musical_chairs">
</g>
<g id="never_have_i_ever">
</g>
<g id="Trivia">
</g>
<g id="Drink_Pulling">
</g>
<g id="Sharing_is_Caring">
</g>
<g id="Not_It">
</g>
<g id="Cocktail_of_Doom">
</g>
<g id="Heads_up">
</g>
<g id="Archenemy">
</g>
<g id="battle_of_the_sexes">
</g>
<g id="one_must_drink">
</g>
<g id="rainbow_connection">
</g>
<g id="social_drinking">
</g>
<g id="Spin_the_bottle">
</g>
<g id="accents">
</g>
<g id="Slap">
</g>
<g id="rub">
</g>
<g id="down_the_hatch">
</g>
<g id="rubiks_cube">
</g>
<g id="bar_tender">
</g>
<g id="codenames">
</g>
<g id="hand_switch">
</g>
<g id="make_a_rule">
</g>
<g id="no_guts_no_glory">
</g>
<g id="pass">
</g>
<g id="santa">
</g>
<g id="snake_eyes">
</g>
<g id="bodyguard">
</g>
<g id="threeman">
</g>
<g id="_x32__truths_and_a_lie">
</g>
<g id="cray_cray_cat_lady">
</g>
<g id="siblings">
</g>
<g id="later">
</g>
<g id="waterfall">
</g>
<g id="cheers">
</g>
<g id="rhyme">
	<g>
		<path d="M40.002,27.714c-1.586,0.026-3.003,0.332-4.251,0.917s-2.145,1.462-2.69,2.632v12.363h-5.227V23.19h4.797v4.367
			c0.364-0.701,0.793-1.332,1.287-1.892c0.494-0.559,1.027-1.046,1.599-1.462c0.572-0.416,1.151-0.734,1.736-0.956
			c0.585-0.22,1.15-0.331,1.696-0.331c0.286,0,0.5,0,0.644,0c0.143,0,0.279,0.014,0.409,0.039V27.714z"/>
		<path d="M65.625,43.626h-5.226V32.16c0-1.612-0.3-2.802-0.897-3.568c-0.599-0.767-1.443-1.15-2.535-1.15
			c-0.468,0-0.962,0.104-1.481,0.312c-0.521,0.208-1.015,0.501-1.482,0.878s-0.897,0.825-1.287,1.345
			c-0.39,0.521-0.677,1.093-0.857,1.717v11.934h-5.227v-28.47h5.227v11.816c0.753-1.325,1.774-2.346,3.061-3.062
			c1.287-0.715,2.711-1.072,4.271-1.072c1.326,0,2.405,0.228,3.237,0.683s1.482,1.06,1.95,1.813
			c0.468,0.755,0.793,1.612,0.975,2.574s0.273,1.95,0.273,2.964V43.626z"/>
		<path d="M73.775,47.604c0.442,0.13,0.871,0.228,1.287,0.293c0.416,0.064,0.767,0.098,1.054,0.098c0.337,0,0.649-0.065,0.936-0.195
			s0.546-0.357,0.78-0.683c0.233-0.325,0.468-0.773,0.702-1.346c0.233-0.571,0.48-1.286,0.74-2.145L71.202,23.19h5.382l5.538,15.911
			l4.914-15.911h4.914l-8.58,24.491c-0.494,1.43-1.34,2.6-2.535,3.511c-1.196,0.909-2.679,1.364-4.446,1.364
			c-0.416,0-0.839-0.032-1.268-0.097c-0.429-0.065-0.877-0.176-1.346-0.332V47.604z"/>
		<path d="M130.247,43.626h-5.226V32.16c0-1.638-0.28-2.834-0.839-3.588c-0.56-0.754-1.333-1.131-2.32-1.131
			c-1.04,0-2.016,0.396-2.925,1.189c-0.911,0.793-1.561,1.826-1.95,3.101v11.895h-5.227V32.16c0-1.638-0.279-2.834-0.838-3.588
			c-0.56-0.754-1.333-1.131-2.32-1.131c-1.015,0-1.983,0.39-2.906,1.17c-0.923,0.779-1.579,1.807-1.969,3.081v11.934h-5.227V23.19
			h4.719v3.782c0.754-1.325,1.788-2.346,3.101-3.062c1.313-0.715,2.814-1.072,4.505-1.072c1.716,0,3.042,0.416,3.978,1.248
			c0.937,0.832,1.534,1.859,1.794,3.081c0.832-1.404,1.885-2.477,3.159-3.218c1.273-0.74,2.73-1.111,4.368-1.111
			c1.248,0,2.274,0.234,3.081,0.702c0.806,0.468,1.43,1.079,1.872,1.833c0.441,0.754,0.747,1.612,0.916,2.574
			s0.254,1.937,0.254,2.925V43.626z"/>
		<path d="M147.992,44.016c-1.639,0-3.12-0.279-4.446-0.838s-2.457-1.319-3.394-2.282c-0.936-0.961-1.657-2.079-2.164-3.354
			c-0.507-1.273-0.761-2.613-0.761-4.017c0-1.456,0.247-2.828,0.741-4.115c0.493-1.287,1.209-2.418,2.145-3.393
			c0.937-0.976,2.073-1.748,3.413-2.32c1.339-0.572,2.84-0.858,4.504-0.858s3.152,0.286,4.466,0.858
			c1.313,0.572,2.431,1.339,3.354,2.301c0.922,0.962,1.624,2.08,2.105,3.354c0.481,1.274,0.722,2.601,0.722,3.979
			c0,0.338-0.007,0.663-0.02,0.975c-0.014,0.313-0.046,0.572-0.098,0.78h-15.795c0.078,0.807,0.273,1.521,0.585,2.145
			c0.313,0.624,0.715,1.157,1.209,1.6s1.053,0.78,1.677,1.014c0.624,0.234,1.274,0.352,1.95,0.352c1.04,0,2.021-0.254,2.944-0.761
			s1.554-1.176,1.892-2.009l4.485,1.248c-0.755,1.561-1.957,2.841-3.607,3.842C152.249,43.516,150.279,44.016,147.992,44.016z
			 M153.296,31.692c-0.131-1.534-0.696-2.763-1.696-3.686c-1.002-0.923-2.217-1.385-3.646-1.385c-0.702,0-1.359,0.124-1.97,0.37
			c-0.611,0.248-1.15,0.592-1.619,1.034c-0.468,0.442-0.852,0.975-1.15,1.599s-0.475,1.313-0.526,2.067H153.296z"/>
	</g>
</g>
<g id="categories">
</g>
<g id="tits">
</g>
<g id="dicks">
</g>
<g id="questions">
</g>
<g id="double_hands">
</g>
<g id="take_2">
</g>
<g id="take_3">
</g>
<g id="give_3">
</g>
<g id="give_2">
</g>
<g id="rewind">
</g>
<g id="Cryptkeeper">
</g>
<g id="Take_2_and_Redo">
</g>
<g id="Embryo">
</g>
<g id="I_am_Groot">
</g>
<g id="Mini_Me">
</g>
<g id="Ditto_1_">
</g>
</svg>
