<?xml version="1.0" encoding="utf-8"?>
<!-- Generator: Adobe Illustrator 16.0.0, SVG Export Plug-In . SVG Version: 6.00 Build 0)  -->
<!DOCTYPE svg PUBLIC "-//W3C//DTD SVG 1.1//EN" "http://www.w3.org/Graphics/SVG/1.1/DTD/svg11.dtd">
<svg version="1.1" xmlns="http://www.w3.org/2000/svg" xmlns:xlink="http://www.w3.org/1999/xlink" x="0px" y="0px"
	 width="209.759px" height="62.361px" viewBox="0 0 209.759 62.361" enable-background="new 0 0 209.759 62.361"
	 xml:space="preserve">
<g id="Layer_1">
</g>
<g id="Hat">
</g>
<g id="Compliments">
</g>
<g id="HAT">
</g>
<g id="speech">
</g>
<g id="TREX_ARMS">
</g>
<g id="Layer_7">
</g>
<g id="TIMEOUT">
</g>
<g id="Layer_9">
</g>
<g id="ARM_WRESTLE">
</g>
<g id="musical_chairs">
</g>
<g id="never_have_i_ever">
</g>
<g id="Trivia">
</g>
<g id="Layer_14">
</g>
<g id="Layer_15">
</g>
<g id="Layer_16">
</g>
<g id="Layer_17">
</g>
<g id="Heads_up">
</g>
<g id="Archenemy">
</g>
<g id="battle_of_the_sexes">
</g>
<g id="one_must_drink">
</g>
<g id="rainbow_connection">
</g>
<g id="social_drinking">
</g>
<g id="Spin_the_bottle">
</g>
<g id="accents">
</g>
<g id="Slap">
</g>
<g id="give_3">
</g>
<g id="give_2">
</g>
<g id="rewind">
</g>
<g id="Layer_22">
</g>
<g id="Layer_19">
</g>
<g id="Layer_20">
</g>
<g id="Layer_21">
</g>
<g id="Layer_23">
	<g>
		<path d="M31.432,29.917c-0.047-0.186-0.093-0.32-0.14-0.402c-0.047-0.083-0.104-0.148-0.175-0.197
			c-0.069-0.049-0.174-0.084-0.314-0.107c-0.139-0.023-0.355-0.035-0.646-0.035h-5.491c-0.283,0-0.491,0.01-0.622,0.028
			c-0.131,0.02-0.234,0.051-0.311,0.096c-0.076,0.044-0.141,0.109-0.191,0.196s-0.102,0.228-0.152,0.422h-0.311v-2.646h0.311
			c0.06,0.241,0.127,0.408,0.203,0.502c0.076,0.093,0.188,0.156,0.337,0.189c0.148,0.034,0.394,0.051,0.736,0.051h2.431
			c0.64,0,1.286,0.01,1.939,0.029c0.654,0.019,1.102,0.041,1.343,0.066v-0.107l-6.29-2.514v-0.73l6.392-2.336v-0.107
			c-0.258,0.021-0.726,0.041-1.403,0.06c-0.677,0.02-1.373,0.028-2.088,0.028h-2.323c-0.283,0-0.491,0.01-0.622,0.029
			c-0.131,0.019-0.234,0.051-0.311,0.095c-0.076,0.045-0.141,0.11-0.191,0.197s-0.102,0.228-0.152,0.422h-0.311v-2.317h0.311
			c0.068,0.263,0.144,0.438,0.226,0.527c0.083,0.089,0.2,0.147,0.353,0.175s0.385,0.041,0.698,0.041h5.491
			c0.291,0,0.504-0.011,0.638-0.032c0.133-0.021,0.236-0.056,0.311-0.104s0.134-0.113,0.178-0.193
			c0.045-0.08,0.095-0.218,0.149-0.413h0.311v2.267l-6.176,2.228l6.176,2.451v2.145H31.432z"/>
		<path d="M23.389,31.977c0.051,0.166,0.096,0.283,0.134,0.353c0.038,0.07,0.091,0.129,0.159,0.178
			c0.067,0.049,0.171,0.087,0.311,0.114s0.357,0.041,0.654,0.041h2.768c0.271,0,0.488-0.004,0.653-0.012
			c0.165-0.009,0.297-0.039,0.396-0.09s0.174-0.128,0.223-0.231s0.09-0.251,0.124-0.44h0.336l0.057,1.479v0.387h-4.538
			c-0.364,0-0.617,0.018-0.759,0.051c-0.142,0.034-0.249,0.099-0.323,0.194c-0.074,0.095-0.139,0.251-0.194,0.466h-0.311v-2.488
			H23.389z M31.635,33.793h-1.231v-1.168h1.231V33.793z"/>
		<path d="M23.078,42.448v-2.502h0.311c0.051,0.166,0.096,0.284,0.134,0.355c0.038,0.072,0.091,0.133,0.159,0.182
			c0.067,0.049,0.172,0.087,0.313,0.114s0.356,0.041,0.645,0.041h1.663c0.296,0,0.564-0.009,0.807-0.025
			c0.24-0.017,0.438-0.046,0.593-0.086s0.275-0.089,0.362-0.146c0.087-0.058,0.16-0.125,0.222-0.203s0.11-0.168,0.146-0.27
			s0.054-0.235,0.054-0.4s-0.033-0.321-0.099-0.47s-0.179-0.312-0.339-0.489c-0.161-0.178-0.32-0.307-0.477-0.387
			s-0.336-0.121-0.539-0.121h-2.368c-0.364,0-0.617,0.018-0.759,0.051c-0.142,0.034-0.249,0.099-0.323,0.194
			c-0.074,0.095-0.139,0.251-0.194,0.466h-0.311v-2.488h0.311c0.051,0.166,0.096,0.283,0.134,0.353
			c0.038,0.07,0.091,0.129,0.159,0.178c0.067,0.049,0.171,0.087,0.311,0.114s0.357,0.041,0.654,0.041h2.768
			c0.271,0,0.488-0.004,0.653-0.012c0.165-0.009,0.297-0.039,0.396-0.09s0.174-0.128,0.223-0.231s0.09-0.251,0.124-0.44h0.336
			l0.057,1.484v0.388l-1.034-0.069l-0.025,0.088c0.317,0.313,0.544,0.566,0.679,0.759c0.136,0.192,0.24,0.388,0.314,0.584
			c0.074,0.197,0.111,0.405,0.111,0.626c0,0.229-0.026,0.433-0.079,0.612s-0.135,0.338-0.245,0.476
			c-0.109,0.138-0.246,0.251-0.409,0.34s-0.358,0.155-0.587,0.2c-0.229,0.044-0.519,0.066-0.869,0.066h-2.394
			c-0.292,0-0.504,0.009-0.635,0.025s-0.232,0.047-0.305,0.089s-0.132,0.104-0.181,0.184c-0.049,0.081-0.101,0.221-0.156,0.42
			H23.078z"/>
		<path d="M23.389,44.196c0.051,0.166,0.096,0.283,0.134,0.353c0.038,0.07,0.091,0.129,0.159,0.178
			c0.067,0.049,0.171,0.087,0.311,0.114s0.357,0.041,0.654,0.041h2.768c0.271,0,0.488-0.004,0.653-0.012
			c0.165-0.009,0.297-0.039,0.396-0.09s0.174-0.128,0.223-0.231s0.09-0.251,0.124-0.44h0.336l0.057,1.479v0.387h-4.538
			c-0.364,0-0.617,0.018-0.759,0.051c-0.142,0.034-0.249,0.099-0.323,0.194c-0.074,0.095-0.139,0.251-0.194,0.466h-0.311v-2.488
			H23.389z M31.635,46.013h-1.231v-1.168h1.231V46.013z"/>
		<path d="M18.432,34.662c-0.047-0.186-0.093-0.32-0.14-0.402c-0.047-0.083-0.104-0.148-0.175-0.197
			c-0.069-0.049-0.174-0.084-0.314-0.107c-0.139-0.023-0.355-0.035-0.646-0.035h-5.491c-0.283,0-0.491,0.01-0.622,0.028
			c-0.131,0.02-0.234,0.051-0.311,0.096c-0.076,0.044-0.141,0.109-0.191,0.196s-0.102,0.228-0.152,0.422h-0.311v-2.646h0.311
			c0.06,0.241,0.127,0.408,0.203,0.502c0.076,0.093,0.188,0.156,0.337,0.189c0.148,0.034,0.394,0.051,0.736,0.051h2.431
			c0.64,0,1.286,0.01,1.939,0.029c0.654,0.019,1.102,0.041,1.343,0.066v-0.107l-6.29-2.514v-0.73l6.392-2.336v-0.107
			c-0.258,0.021-0.726,0.041-1.403,0.06c-0.677,0.02-1.373,0.028-2.088,0.028h-2.323c-0.283,0-0.491,0.01-0.622,0.029
			c-0.131,0.019-0.234,0.051-0.311,0.095c-0.076,0.045-0.141,0.11-0.191,0.197s-0.102,0.228-0.152,0.422h-0.311v-2.317h0.311
			c0.068,0.263,0.144,0.438,0.226,0.527c0.083,0.089,0.2,0.147,0.353,0.175s0.385,0.041,0.698,0.041h5.491
			c0.291,0,0.504-0.011,0.638-0.032c0.133-0.021,0.236-0.056,0.311-0.104s0.134-0.113,0.178-0.193
			c0.045-0.08,0.095-0.218,0.149-0.413h0.311v2.267l-6.176,2.228l6.176,2.451v2.145H18.432z"/>
		<path d="M11.157,41.794c-0.283-0.271-0.506-0.52-0.667-0.746c-0.16-0.227-0.286-0.475-0.377-0.746
			c-0.091-0.271-0.137-0.568-0.137-0.895c0-0.872,0.262-1.529,0.784-1.975c0.522-0.443,1.294-0.666,2.313-0.666
			c0.631,0,1.188,0.113,1.67,0.34s0.854,0.549,1.117,0.968c0.262,0.419,0.393,0.901,0.393,1.447c0,0.428-0.067,0.791-0.203,1.092
			c-0.135,0.301-0.32,0.541-0.555,0.721c-0.235,0.18-0.531,0.319-0.889,0.419s-0.824,0.155-1.4,0.168v-3.999h-0.113
			c-0.5,0-0.92,0.056-1.261,0.168s-0.607,0.297-0.8,0.553s-0.289,0.589-0.289,0.999c0,0.348,0.065,0.659,0.194,0.937
			s0.339,0.554,0.632,0.829L11.157,41.794z M13.734,40.728c0.457-0.025,0.83-0.082,1.12-0.172c0.29-0.088,0.513-0.222,0.667-0.399
			s0.231-0.41,0.231-0.698c0-0.436-0.175-0.784-0.523-1.044c-0.35-0.261-0.848-0.414-1.495-0.46V40.728z"/>
	</g>
	<g>
		<g>
			<g>
				<polyline fill="none" stroke="#000000" stroke-width="0.5" stroke-miterlimit="10" points="192.762,30.306 192.762,20.512 
					187.093,20.512 187.093,30.306 				"/>
				<polyline fill="none" stroke="#000000" stroke-width="0.5" stroke-miterlimit="10" points="187.093,30.306 187.093,20.512 
					181.424,20.512 181.424,30.306 				"/>
				<polyline fill="none" stroke="#000000" stroke-width="0.5" stroke-miterlimit="10" points="181.424,30.306 181.424,20.512 
					175.755,20.512 175.755,30.306 				"/>
			</g>
			<g>
				<polyline fill="none" stroke="#000000" stroke-width="0.5" stroke-miterlimit="10" points="175.755,30.306 175.755,20.512 
					170.086,20.512 170.086,30.306 				"/>
				<polyline fill="none" stroke="#000000" stroke-width="0.5" stroke-miterlimit="10" points="170.086,30.306 170.086,20.512 
					164.417,20.512 164.417,30.306 				"/>
				<polyline fill="none" stroke="#000000" stroke-width="0.5" stroke-miterlimit="10" points="164.417,30.306 164.417,20.512 
					158.748,20.512 158.748,30.306 				"/>
			</g>
			<g>
				<polyline fill="none" stroke="#000000" stroke-width="0.5" stroke-miterlimit="10" points="158.748,30.306 158.748,20.512 
					153.079,20.512 153.079,30.306 				"/>
				<polyline fill="none" stroke="#000000" stroke-width="0.5" stroke-miterlimit="10" points="153.079,30.306 153.079,20.512 
					147.41,20.512 147.41,30.306 				"/>
				<polyline fill="none" stroke="#000000" stroke-width="0.5" stroke-miterlimit="10" points="147.41,30.306 147.41,20.512 
					141.741,20.512 141.741,30.306 				"/>
			</g>
			<g>
				<polyline fill="none" stroke="#000000" stroke-width="0.5" stroke-miterlimit="10" points="141.741,30.306 141.741,20.512 
					136.072,20.512 136.072,30.306 				"/>
				<polyline fill="none" stroke="#000000" stroke-width="0.5" stroke-miterlimit="10" points="136.072,30.306 136.072,20.512 
					130.403,20.512 130.403,30.306 				"/>
				<polyline fill="none" stroke="#000000" stroke-width="0.5" stroke-miterlimit="10" points="130.403,30.306 130.403,20.512 
					124.734,20.512 124.734,30.306 				"/>
			</g>
			<g>
				<polyline fill="none" stroke="#000000" stroke-width="0.5" stroke-miterlimit="10" points="124.729,30.306 124.729,20.512 
					119.06,20.512 119.06,30.306 				"/>
				<polyline fill="none" stroke="#000000" stroke-width="0.5" stroke-miterlimit="10" points="119.06,30.306 119.06,20.512 
					113.391,20.512 113.391,30.306 				"/>
				<polyline fill="none" stroke="#000000" stroke-width="0.5" stroke-miterlimit="10" points="113.391,30.306 113.391,20.512 
					107.722,20.512 107.722,30.306 				"/>
			</g>
			<g>
				<polyline fill="none" stroke="#000000" stroke-width="0.5" stroke-miterlimit="10" points="107.722,30.306 107.722,20.512 
					102.053,20.512 102.053,30.306 				"/>
				<polyline fill="none" stroke="#000000" stroke-width="0.5" stroke-miterlimit="10" points="102.053,30.306 102.053,20.512 
					96.384,20.512 96.384,30.306 				"/>
				<polyline fill="none" stroke="#000000" stroke-width="0.5" stroke-miterlimit="10" points="96.384,30.306 96.384,20.512 
					90.715,20.512 90.715,30.306 				"/>
			</g>
			<g>
				<polyline fill="none" stroke="#000000" stroke-width="0.5" stroke-miterlimit="10" points="90.715,30.306 90.715,20.512 
					85.046,20.512 85.046,30.306 				"/>
				<polyline fill="none" stroke="#000000" stroke-width="0.5" stroke-miterlimit="10" points="85.046,30.306 85.046,20.512 
					79.377,20.512 79.377,30.306 				"/>
				<polyline fill="none" stroke="#000000" stroke-width="0.5" stroke-miterlimit="10" points="79.377,30.306 79.377,20.512 
					73.708,20.512 73.708,30.306 				"/>
			</g>
			<g>
				<polyline fill="none" stroke="#000000" stroke-width="0.5" stroke-miterlimit="10" points="73.702,30.306 73.702,20.512 
					68.033,20.512 68.033,30.306 				"/>
				<polyline fill="none" stroke="#000000" stroke-width="0.5" stroke-miterlimit="10" points="68.033,30.306 68.033,20.512 
					62.364,20.512 62.364,30.306 				"/>
				<polyline fill="none" stroke="#000000" stroke-width="0.5" stroke-miterlimit="10" points="62.364,30.306 62.364,20.512 
					56.695,20.512 56.695,30.306 				"/>
			</g>
			<g>
				<polyline fill="none" stroke="#000000" stroke-width="0.5" stroke-miterlimit="10" points="56.695,30.306 56.695,20.512 
					51.026,20.512 51.026,30.306 				"/>
				<polyline fill="none" stroke="#000000" stroke-width="0.5" stroke-miterlimit="10" points="51.026,30.306 51.026,20.512 
					45.357,20.512 45.357,30.306 				"/>
				<polyline fill="none" stroke="#000000" stroke-width="0.5" stroke-miterlimit="10" points="45.357,30.306 45.357,20.512 
					39.688,20.512 39.688,30.306 				"/>
			</g>
		</g>
		
			<rect x="39.689" y="20.595" fill="none" stroke="#000000" stroke-width="0.5" stroke-miterlimit="10" width="170.079" height="28.119"/>
	</g>
</g>
<g id="Layer_24">
</g>
</svg>
