<?xml version="1.0" encoding="utf-8"?>
<!-- Generator: Adobe Illustrator 16.0.0, SVG Export Plug-In . SVG Version: 6.00 Build 0)  -->
<!DOCTYPE svg PUBLIC "-//W3C//DTD SVG 1.1//EN" "http://www.w3.org/Graphics/SVG/1.1/DTD/svg11.dtd">
<svg version="1.1" xmlns="http://www.w3.org/2000/svg" xmlns:xlink="http://www.w3.org/1999/xlink" x="0px" y="0px"
	 width="209.759px" height="62.36px" viewBox="0 0 209.759 62.36" enable-background="new 0 0 209.759 62.36" xml:space="preserve">
<g id="Layer_1">
</g>
<g id="Hat">
</g>
<g id="Compliments">
</g>
<g id="HAT">
</g>
<g id="speech">
</g>
<g id="TREX_ARMS">
</g>
<g id="Layer_7">
</g>
<g id="TIMEOUT">
</g>
<g id="Layer_9">
</g>
<g id="ARM_WRESTLE">
</g>
<g id="musical_chairs">
</g>
<g id="never_have_i_ever">
</g>
<g id="Trivia">
</g>
<g id="Layer_14">
</g>
<g id="Layer_15">
</g>
<g id="Layer_16">
</g>
<g id="Layer_17">
</g>
<g id="Heads_up">
</g>
<g id="Archenemy">
</g>
<g id="battle_of_the_sexes">
</g>
<g id="one_must_drink">
</g>
<g id="rainbow_connection">
</g>
<g id="social_drinking">
</g>
<g id="Spin_the_bottle">
	<g>
		<path d="M99.017,34.104c0.468,0.288,1.151,0.528,1.871,0.528c1.067,0,1.691-0.564,1.691-1.38c0-0.756-0.432-1.188-1.523-1.606
			c-1.319-0.468-2.135-1.151-2.135-2.291c0-1.26,1.043-2.195,2.614-2.195c0.828,0,1.427,0.192,1.787,0.396l-0.288,0.852
			c-0.264-0.145-0.803-0.384-1.535-0.384c-1.103,0-1.523,0.659-1.523,1.211c0,0.756,0.492,1.127,1.607,1.56
			c1.367,0.527,2.063,1.187,2.063,2.374c0,1.248-0.923,2.327-2.831,2.327c-0.779,0-1.631-0.229-2.063-0.516L99.017,34.104z"/>
		<path d="M105.041,31.465c0-0.743-0.024-1.343-0.048-1.895h0.947l0.048,0.995h0.024c0.432-0.707,1.115-1.127,2.063-1.127
			c1.403,0,2.459,1.188,2.459,2.95c0,2.087-1.271,3.118-2.639,3.118c-0.768,0-1.439-0.336-1.787-0.911h-0.024v3.154h-1.043V31.465z
			 M106.084,33.013c0,0.155,0.024,0.3,0.048,0.432c0.192,0.731,0.828,1.235,1.583,1.235c1.116,0,1.763-0.912,1.763-2.243
			c0-1.163-0.612-2.159-1.727-2.159c-0.72,0-1.391,0.517-1.595,1.308c-0.036,0.132-0.072,0.288-0.072,0.432V33.013z"/>
		<path d="M113.044,27.939c0.012,0.359-0.252,0.647-0.671,0.647c-0.372,0-0.636-0.288-0.636-0.647c0-0.372,0.276-0.66,0.66-0.66
			C112.792,27.279,113.044,27.567,113.044,27.939z M111.869,35.375V29.57h1.056v5.805H111.869z"/>
		<path d="M114.677,31.142c0-0.6-0.012-1.092-0.048-1.571h0.936l0.06,0.959h0.024c0.288-0.552,0.959-1.091,1.919-1.091
			c0.803,0,2.051,0.479,2.051,2.471v3.466h-1.056v-3.346c0-0.936-0.348-1.716-1.343-1.716c-0.695,0-1.235,0.492-1.415,1.08
			c-0.048,0.132-0.072,0.312-0.072,0.491v3.49h-1.056V31.142z"/>
		<path d="M125.152,27.903v1.667h1.511v0.804h-1.511v3.13c0,0.72,0.204,1.128,0.791,1.128c0.276,0,0.48-0.036,0.612-0.072
			l0.048,0.791c-0.204,0.084-0.527,0.145-0.936,0.145c-0.492,0-0.888-0.156-1.14-0.444c-0.3-0.312-0.407-0.827-0.407-1.511v-3.166
			h-0.9V29.57h0.9v-1.392L125.152,27.903z"/>
		<path d="M127.853,26.859h1.055v3.622h0.024c0.168-0.3,0.432-0.563,0.756-0.743c0.312-0.18,0.684-0.3,1.079-0.3
			c0.779,0,2.026,0.479,2.026,2.482v3.454h-1.055v-3.334c0-0.936-0.349-1.728-1.344-1.728c-0.684,0-1.224,0.48-1.415,1.056
			c-0.06,0.144-0.072,0.3-0.072,0.504v3.502h-1.055V26.859z"/>
		<path d="M135.1,32.664c0.024,1.428,0.936,2.016,1.991,2.016c0.756,0,1.211-0.132,1.607-0.3l0.18,0.755
			c-0.372,0.168-1.008,0.36-1.931,0.36c-1.787,0-2.854-1.176-2.854-2.927s1.031-3.13,2.723-3.13c1.895,0,2.398,1.667,2.398,2.734
			c0,0.216-0.024,0.384-0.036,0.491H135.1z M138.195,31.909c0.012-0.672-0.276-1.716-1.463-1.716c-1.067,0-1.535,0.984-1.619,1.716
			H138.195z"/>
		<path d="M143.02,35.375c0.024-0.396,0.049-0.983,0.049-1.499v-7.017h1.043v3.646h0.024c0.371-0.647,1.043-1.067,1.979-1.067
			c1.439,0,2.459,1.199,2.446,2.962c0,2.075-1.307,3.106-2.603,3.106c-0.839,0-1.511-0.323-1.942-1.091h-0.036l-0.048,0.959H143.02z
			 M144.112,33.048c0,0.133,0.024,0.265,0.048,0.384c0.204,0.732,0.815,1.235,1.583,1.235c1.104,0,1.764-0.899,1.764-2.23
			c0-1.163-0.6-2.159-1.728-2.159c-0.72,0-1.392,0.492-1.607,1.296c-0.023,0.12-0.06,0.264-0.06,0.432V33.048z"/>
		<path d="M155.149,32.425c0,2.146-1.487,3.082-2.891,3.082c-1.571,0-2.782-1.151-2.782-2.986c0-1.942,1.271-3.082,2.878-3.082
			C154.021,29.438,155.149,30.649,155.149,32.425z M150.543,32.484c0,1.271,0.731,2.231,1.763,2.231
			c1.008,0,1.763-0.948,1.763-2.255c0-0.983-0.491-2.231-1.738-2.231C151.083,30.229,150.543,31.381,150.543,32.484z"/>
		<path d="M157.755,27.903v1.667h1.512v0.804h-1.512v3.13c0,0.72,0.204,1.128,0.792,1.128c0.275,0,0.479-0.036,0.611-0.072
			l0.048,0.791c-0.203,0.084-0.527,0.145-0.936,0.145c-0.491,0-0.887-0.156-1.139-0.444c-0.3-0.312-0.408-0.827-0.408-1.511v-3.166
			h-0.899V29.57h0.899v-1.392L157.755,27.903z"/>
		<path d="M161.727,27.903v1.667h1.512v0.804h-1.512v3.13c0,0.72,0.204,1.128,0.792,1.128c0.275,0,0.479-0.036,0.611-0.072
			l0.048,0.791c-0.203,0.084-0.527,0.145-0.936,0.145c-0.491,0-0.887-0.156-1.139-0.444c-0.3-0.312-0.408-0.827-0.408-1.511v-3.166
			h-0.899V29.57h0.899v-1.392L161.727,27.903z"/>
		<path d="M164.428,26.859h1.055v8.516h-1.055V26.859z"/>
		<path d="M167.847,32.664c0.024,1.428,0.936,2.016,1.991,2.016c0.756,0,1.211-0.132,1.607-0.3l0.18,0.755
			c-0.372,0.168-1.008,0.36-1.931,0.36c-1.787,0-2.854-1.176-2.854-2.927s1.031-3.13,2.723-3.13c1.895,0,2.398,1.667,2.398,2.734
			c0,0.216-0.024,0.384-0.036,0.491H167.847z M170.942,31.909c0.012-0.672-0.276-1.716-1.463-1.716
			c-1.067,0-1.535,0.984-1.619,1.716H170.942z"/>
	</g>
</g>
<g id="accents">
</g>
<g id="Slap">
</g>
<g id="give_3">
</g>
<g id="give_2">
</g>
<g id="rewind">
</g>
<g id="Layer_22">
</g>
<g id="Layer_19">
</g>
<g id="Layer_20">
</g>
<g id="Layer_21">
</g>
<g id="Layer_23">
</g>
<g id="Layer_24">
</g>
</svg>
