<?xml version="1.0" encoding="utf-8"?>
<!-- Generator: Adobe Illustrator 16.0.0, SVG Export Plug-In . SVG Version: 6.00 Build 0)  -->
<!DOCTYPE svg PUBLIC "-//W3C//DTD SVG 1.1//EN" "http://www.w3.org/Graphics/SVG/1.1/DTD/svg11.dtd">
<svg version="1.1" xmlns="http://www.w3.org/2000/svg" xmlns:xlink="http://www.w3.org/1999/xlink" x="0px" y="0px"
	 width="209.759px" height="62.361px" viewBox="0 0 209.759 62.361" enable-background="new 0 0 209.759 62.361"
	 xml:space="preserve">
<g id="Layer_1">
</g>
<g id="Blindman">
</g>
<g id="Compliments">
</g>
<g id="HAT">
</g>
<g id="speech">
</g>
<g id="TREX_ARMS">
</g>
<g id="slim_shady">
</g>
<g id="TIMEOUT">
</g>
<g id="Truth_or_Dare">
</g>
<g id="ARM_WRESTLE">
</g>
<g id="musical_chairs">
</g>
<g id="never_have_i_ever">
</g>
<g id="Trivia">
</g>
<g id="Drink_Pulling">
</g>
<g id="Sharing_is_Caring">
</g>
<g id="Not_It">
</g>
<g id="Cocktail_of_Doom">
</g>
<g id="Heads_up">
</g>
<g id="Archenemy">
</g>
<g id="battle_of_the_sexes">
</g>
<g id="one_must_drink">
</g>
<g id="rainbow_connection">
</g>
<g id="social_drinking">
</g>
<g id="Spin_the_bottle">
</g>
<g id="accents">
</g>
<g id="Slap">
</g>
<g id="down_the_hatch">
</g>
<g id="rubiks_cube">
</g>
<g id="bar_tender">
</g>
<g id="codenames">
</g>
<g id="hand_switch">
</g>
<g id="make_a_rule">
</g>
<g id="no_guts_no_glory">
</g>
<g id="pass">
</g>
<g id="santa">
</g>
<g id="snake_eyes">
</g>
<g id="lightning_round">
</g>
<g id="Bro">
	<g>
		<path d="M72.083,41.429h0.527c0.25,0,0.499,0.02,0.748,0.055c0.249,0.037,0.506,0.055,0.771,0.055c0.044,0,0.113-0.002,0.209-0.01
			c0.095-0.008,0.15-0.012,0.165-0.012l0.088-0.088V30.337c0-0.088-0.066-0.154-0.198-0.197c-0.132-0.045-0.257-0.066-0.374-0.066
			h-0.154c-0.176,0-0.349,0.016-0.517,0.045c-0.169,0.029-0.341,0.043-0.517,0.043c-0.382,0-0.716-0.092-1.001-0.275
			c-0.286-0.182-0.43-0.479-0.43-0.891c0-0.322,0.096-0.582,0.286-0.781c0.19-0.197,0.447-0.297,0.771-0.297
			c0.234,0,0.439,0.012,0.615,0.033c0.177,0.021,0.396,0.07,0.66,0.143h1.342c0.616,0,1.225-0.043,1.826-0.131
			s1.21-0.133,1.826-0.133h0.44c0.645,0.104,1.228,0.262,1.749,0.473c0.521,0.213,0.964,0.488,1.331,0.826
			c0.366,0.338,0.648,0.752,0.847,1.242c0.198,0.492,0.297,1.066,0.297,1.727c0,0.324-0.044,0.66-0.132,1.014
			c-0.088,0.352-0.22,0.658-0.396,0.924c-0.073,0.088-0.19,0.242-0.352,0.461c-0.162,0.221-0.242,0.412-0.242,0.572
			c0,0.088,0.04,0.18,0.121,0.275c0.08,0.096,0.172,0.193,0.275,0.297c0.103,0.104,0.205,0.197,0.308,0.285s0.184,0.176,0.242,0.266
			c0.234,0.424,0.41,0.816,0.527,1.176c0.118,0.359,0.177,0.773,0.177,1.244c0,0.336-0.037,0.691-0.11,1.066
			c-0.073,0.373-0.18,0.744-0.319,1.111c-0.139,0.365-0.312,0.711-0.517,1.033s-0.44,0.602-0.704,0.836
			c-0.366,0.205-0.729,0.396-1.089,0.572s-0.744,0.301-1.155,0.373c-0.293,0-0.773,0.004-1.44,0.012
			c-0.668,0.008-1.397,0.012-2.189,0.012s-1.521,0-2.188,0c-0.668,0-1.141,0-1.419,0h-0.265c-0.337,0-0.608-0.113-0.813-0.34
			c-0.206-0.229-0.309-0.502-0.309-0.824C71.4,41.964,71.628,41.62,72.083,41.429z M76.57,33.897c0,0.164,0.077,0.264,0.231,0.301
			s0.304,0.055,0.451,0.055h0.264c0.47,0,0.961-0.006,1.474-0.021c0.514-0.016,0.969-0.037,1.364-0.066
			c0.103-0.061,0.217-0.133,0.341-0.223c0.125-0.09,0.246-0.189,0.363-0.301s0.216-0.232,0.297-0.367
			c0.081-0.133,0.121-0.273,0.121-0.422v-1.467c0-0.061-0.029-0.119-0.088-0.178c-0.176-0.281-0.326-0.486-0.451-0.611
			c-0.125-0.127-0.261-0.215-0.407-0.268s-0.312-0.09-0.494-0.111c-0.184-0.021-0.422-0.07-0.716-0.145h-2.75V33.897z M76.835,36.19
			c-0.044,0.029-0.1,0.072-0.165,0.131c-0.066,0.059-0.1,0.104-0.1,0.133v4.906c0,0.131,0.085,0.223,0.253,0.273
			c0.169,0.053,0.298,0.078,0.386,0.078c0.498,0,0.993-0.025,1.484-0.078c0.491-0.051,0.994-0.084,1.507-0.098
			c0.382-0.146,0.693-0.309,0.936-0.484s0.437-0.377,0.583-0.605c0.146-0.227,0.245-0.486,0.297-0.781
			c0.051-0.293,0.077-0.631,0.077-1.012c0-0.189,0.003-0.41,0.011-0.66c0.008-0.248-0.055-0.447-0.187-0.594l-1.034-1.033
			c-0.044-0.045-0.121-0.1-0.231-0.166c-0.109-0.066-0.18-0.1-0.209-0.1h-2.485c-0.118,0.09-0.206,0.141-0.265,0.154
			c-0.059,0.016-0.14,0.023-0.242,0.023s-0.194-0.016-0.274-0.045c-0.081-0.029-0.173-0.043-0.275-0.043H76.835z"/>
		<path d="M95.524,41.282c-0.008-0.418-0.041-0.836-0.1-1.254s-0.15-0.824-0.274-1.221c-0.125-0.396-0.29-0.77-0.495-1.123
			c-0.104-0.16-0.202-0.344-0.297-0.549c-0.096-0.205-0.225-0.367-0.386-0.484c-0.205-0.043-0.381-0.08-0.527-0.109
			c-0.147-0.029-0.29-0.049-0.43-0.055c-0.14-0.008-0.282-0.012-0.429-0.012c-0.132,0-0.294,0-0.484,0h-0.813
			c-0.088,0-0.22,0.012-0.396,0.033c-0.176,0.021-0.271,0.041-0.285,0.055l-0.089,0.088v4.137c0,0.131,0.133,0.23,0.396,0.297
			s0.55,0.143,0.858,0.23c0.308,0.088,0.594,0.217,0.857,0.385c0.264,0.17,0.396,0.438,0.396,0.803c0,0.234-0.063,0.418-0.188,0.551
			c-0.125,0.131-0.278,0.234-0.462,0.309c-0.184,0.072-0.382,0.121-0.594,0.143c-0.213,0.021-0.407,0.033-0.583,0.033h-0.242
			c-0.132,0-0.363-0.004-0.693-0.012s-0.678-0.014-1.045-0.021c-0.366-0.008-0.711-0.02-1.034-0.033
			c-0.322-0.014-0.55-0.021-0.682-0.021c-0.146,0.014-0.282-0.02-0.407-0.1c-0.124-0.08-0.234-0.188-0.33-0.318
			c-0.095-0.133-0.168-0.271-0.22-0.418s-0.077-0.287-0.077-0.418c0-0.279,0.066-0.496,0.198-0.65s0.301-0.268,0.506-0.34
			c0.205-0.074,0.429-0.117,0.671-0.133c0.242-0.014,0.474-0.021,0.693-0.021c0.029-0.029,0.065-0.074,0.11-0.133
			c0.044-0.059,0.065-0.102,0.065-0.131l-0.044-4.906v-0.439l-0.132-5.17l-0.176-0.178l-1.387-0.33
			c-0.19-0.057-0.308-0.186-0.352-0.385c-0.044-0.197-0.066-0.369-0.066-0.516c0-0.234,0.059-0.467,0.177-0.693
			c0.117-0.229,0.314-0.342,0.594-0.342h3.366c0.161-0.088,0.308-0.135,0.439-0.143s0.278-0.012,0.44-0.012
			c0.763,0,1.528,0.053,2.299,0.154c0.77,0.104,1.463,0.309,2.079,0.617c0.616,0.307,1.114,0.752,1.496,1.33
			c0.381,0.58,0.571,1.346,0.571,2.299c0,0.41-0.036,0.848-0.109,1.309c-0.073,0.463-0.242,0.863-0.506,1.199
			c-0.088,0.117-0.202,0.229-0.341,0.33c-0.14,0.104-0.275,0.205-0.407,0.309s-0.242,0.217-0.33,0.34
			c-0.088,0.125-0.132,0.275-0.132,0.451v0.199c0.293,0.455,0.523,0.965,0.692,1.529s0.312,1.088,0.43,1.572
			c0.044,0.176,0.069,0.406,0.076,0.693c0.008,0.285,0.07,0.518,0.188,0.693c0.103,0.16,0.228,0.271,0.374,0.33
			s0.293,0.109,0.439,0.152c0.146,0.045,0.294,0.104,0.44,0.178c0.146,0.072,0.271,0.197,0.374,0.373
			c0.132,0.205,0.213,0.346,0.242,0.418c0.029,0.074,0.044,0.205,0.044,0.396c0,0.25-0.081,0.49-0.242,0.727
			c-0.161,0.234-0.389,0.352-0.682,0.352h-0.044c-0.265-0.045-0.558-0.063-0.88-0.055c-0.323,0.006-0.631-0.008-0.925-0.045
			c-0.293-0.037-0.554-0.129-0.78-0.275c-0.228-0.146-0.371-0.395-0.43-0.748C95.527,42.108,95.531,41.7,95.524,41.282z
			 M90.717,30.03c-0.132,0.043-0.198,0.123-0.198,0.242v3.783c0,0.043,0.022,0.117,0.066,0.221c0.044,0.102,0.08,0.176,0.11,0.219
			h0.506c0.19,0,0.374-0.014,0.55-0.043s0.352-0.045,0.528-0.045c0.22,0,0.432,0.016,0.638,0.045
			c0.205,0.029,0.425,0.043,0.66,0.043h0.726c0.528-0.16,0.965-0.414,1.31-0.758c0.344-0.346,0.517-0.805,0.517-1.375
			c0-0.338-0.044-0.672-0.132-1.002s-0.279-0.605-0.572-0.824c-0.558-0.25-1.144-0.414-1.76-0.496
			c-0.616-0.08-1.232-0.121-1.848-0.121c-0.074,0-0.206,0-0.396,0s-0.322,0.008-0.396,0.023
			C90.951,29.956,90.849,29.985,90.717,30.03z"/>
		<path d="M108.448,27.235c0.249,0.059,0.491,0.141,0.726,0.242c0.234,0.104,0.466,0.23,0.693,0.385s0.466,0.326,0.715,0.518
			c0.117,0.088,0.253,0.176,0.407,0.264s0.275,0.197,0.363,0.33c0.176,0.264,0.337,0.531,0.483,0.803s0.33,0.518,0.55,0.736
			c0.338,0.734,0.608,1.475,0.814,2.223c0.205,0.748,0.308,1.518,0.308,2.311c0,0.777-0.063,1.572-0.187,2.387
			c-0.125,0.814-0.341,1.584-0.649,2.311c-0.308,0.725-0.723,1.379-1.243,1.957c-0.521,0.58-1.177,1.023-1.969,1.332
			c-0.176,0.072-0.322,0.143-0.439,0.209c-0.118,0.064-0.231,0.127-0.342,0.186c-0.109,0.059-0.23,0.107-0.362,0.145
			c-0.132,0.035-0.309,0.055-0.528,0.055c-0.382,0-0.708-0.059-0.979-0.176c-0.271-0.117-0.569-0.258-0.892-0.418
			c-0.029-0.016-0.103-0.053-0.22-0.111s-0.242-0.121-0.374-0.186c-0.132-0.066-0.261-0.129-0.385-0.188
			c-0.125-0.059-0.202-0.104-0.231-0.133c-0.264-0.176-0.521-0.424-0.77-0.748c-0.25-0.322-0.48-0.67-0.693-1.045
			c-0.213-0.373-0.399-0.744-0.561-1.111c-0.162-0.365-0.286-0.688-0.374-0.967c-0.03-0.059-0.06-0.143-0.088-0.254
			c-0.03-0.109-0.056-0.219-0.077-0.33c-0.022-0.109-0.044-0.209-0.066-0.297c-0.021-0.088-0.033-0.139-0.033-0.154v-3.541
			c0-0.016,0.019-0.096,0.056-0.242c0.036-0.146,0.076-0.313,0.121-0.494c0.044-0.184,0.091-0.367,0.143-0.551
			c0.051-0.184,0.092-0.326,0.121-0.43c0.19-0.615,0.425-1.229,0.704-1.836c0.278-0.609,0.623-1.156,1.034-1.639
			c0.41-0.484,0.894-0.877,1.451-1.178s1.203-0.451,1.937-0.451C107.92,27.147,108.198,27.177,108.448,27.235z M104.07,37.058
			c0.088,0.58,0.22,1.135,0.396,1.662c0.044,0.131,0.144,0.33,0.297,0.594c0.154,0.264,0.33,0.521,0.528,0.77
			c0.198,0.25,0.399,0.471,0.605,0.66c0.205,0.191,0.388,0.287,0.55,0.287h2.156c0.352,0,0.667-0.113,0.945-0.342
			c0.278-0.227,0.521-0.498,0.727-0.814c0.205-0.314,0.374-0.652,0.506-1.012s0.234-0.67,0.308-0.936
			c0.073-0.205,0.15-0.381,0.231-0.527c0.08-0.146,0.121-0.344,0.121-0.594v-2.838c-0.088-0.381-0.173-0.744-0.253-1.09
			c-0.081-0.344-0.188-0.67-0.319-0.979s-0.301-0.605-0.506-0.891c-0.206-0.287-0.477-0.561-0.814-0.826
			c-0.322-0.248-0.608-0.473-0.857-0.67c-0.25-0.197-0.58-0.297-0.99-0.297c-0.646,0-1.203,0.227-1.672,0.682
			c-0.47,0.455-0.858,1.004-1.166,1.65c-0.309,0.645-0.539,1.32-0.693,2.023c-0.153,0.705-0.23,1.299-0.23,1.781
			C103.938,35.911,103.982,36.479,104.07,37.058z"/>
	</g>
</g>
<g id="LeastDrunk">
</g>
<g id="Know_It_All">
</g>
<g id="EyeContact">
</g>
<g id="UnderGuesser">
</g>
<g id="GodSaveTheQUeen">
</g>
<g id="Ghost">
</g>
<g id="Fortune_Teller">
</g>
<g id="DrinkSwap">
</g>
<g id="DickTator">
</g>
<g id="_x34_Eyes">
</g>
<g id="BabyTalk">
</g>
<g id="Backseat_Driver">
</g>
<g id="BAtman">
</g>
<g id="bodyguard">
</g>
<g id="BuckleUp">
</g>
<g id="RockPaperScissors">
</g>
<g id="Roger_Roger">
</g>
<g id="RoyaleWe">
</g>
<g id="Skip">
</g>
<g id="SwineRules">
</g>
<g id="Touchy_Feeley">
</g>
<g id="Wasted_Education">
</g>
<g id="Layer_86">
</g>
<g id="PointOfNoReturn">
</g>
<g id="Pirate">
</g>
<g id="Thief">
</g>
<g id="DepthPerception">
</g>
<g id="Narcissist">
</g>
<g id="MammaBird">
</g>
<g id="Staringcontest">
</g>
<g id="Cartwheel">
</g>
<g id="Censored">
</g>
<g id="Depersonalization">
</g>
<g id="threeman">
</g>
<g id="_x32__truths_and_a_lie">
</g>
<g id="cray_cray_cat_lady">
</g>
<g id="siblings">
</g>
<g id="later">
</g>
<g id="waterfall">
</g>
<g id="cheers">
</g>
<g id="rhyme">
</g>
<g id="categories">
</g>
<g id="tits">
</g>
<g id="dicks">
</g>
<g id="questions">
</g>
<g id="double_hands">
</g>
<g id="rewind">
</g>
<g id="Cryptkeeper">
</g>
<g id="Take_2_and_Redo">
</g>
<g id="Embryo">
</g>
<g id="I_am_Groot">
</g>
<g id="Mini_Me">
</g>
<g id="Ditto_1_">
</g>
<g id="reverse">
</g>
</svg>
