<?xml version="1.0" encoding="utf-8"?>
<!-- Generator: Adobe Illustrator 16.0.0, SVG Export Plug-In . SVG Version: 6.00 Build 0)  -->
<!DOCTYPE svg PUBLIC "-//W3C//DTD SVG 1.1//EN" "http://www.w3.org/Graphics/SVG/1.1/DTD/svg11.dtd">
<svg version="1.1" xmlns="http://www.w3.org/2000/svg" xmlns:xlink="http://www.w3.org/1999/xlink" x="0px" y="0px"
	 width="209.759px" height="62.361px" viewBox="0 0 209.759 62.361" enable-background="new 0 0 209.759 62.361"
	 xml:space="preserve">
<g id="Layer_1">
</g>
<g id="Blindman">
</g>
<g id="Compliments">
</g>
<g id="HAT">
</g>
<g id="speech">
</g>
<g id="TREX_ARMS">
</g>
<g id="slim_shady">
</g>
<g id="TIMEOUT">
</g>
<g id="Truth_or_Dare">
</g>
<g id="ARM_WRESTLE">
</g>
<g id="musical_chairs">
</g>
<g id="never_have_i_ever">
</g>
<g id="Trivia">
</g>
<g id="Drink_Pulling">
</g>
<g id="Sharing_is_Caring">
</g>
<g id="Not_It">
</g>
<g id="Cocktail_of_Doom">
</g>
<g id="Heads_up">
</g>
<g id="Archenemy">
</g>
<g id="battle_of_the_sexes">
</g>
<g id="one_must_drink">
</g>
<g id="rainbow_connection">
</g>
<g id="social_drinking">
</g>
<g id="Spin_the_bottle">
</g>
<g id="accents">
</g>
<g id="Slap">
</g>
<g id="down_the_hatch">
</g>
<g id="rubiks_cube">
</g>
<g id="bar_tender">
</g>
<g id="codenames">
</g>
<g id="hand_switch">
</g>
<g id="make_a_rule">
</g>
<g id="no_guts_no_glory">
</g>
<g id="pass">
</g>
<g id="santa">
</g>
<g id="snake_eyes">
</g>
<g id="lightning_round">
</g>
<g id="Bro">
</g>
<g id="LeastDrunk">
</g>
<g id="Know_It_All">
	<g id="Layer_94">
	</g>
</g>
<g id="EyeContact">
</g>
<g id="UnderGuesser">
</g>
<g id="GodSaveTheQUeen">
</g>
<g id="Ghost">
</g>
<g id="Fortune_Teller">
</g>
<g id="DrinkSwap">
</g>
<g id="DickTator">
</g>
<g id="_x34_Eyes">
</g>
<g id="BabyTalk">
</g>
<g id="Backseat_Driver">
</g>
<g id="BAtman">
</g>
<g id="bodyguard">
</g>
<g id="BuckleUp">
</g>
<g id="RockPaperScissors">
</g>
<g id="Roger_Roger">
</g>
<g id="RoyaleWe">
</g>
<g id="Skip">
</g>
<g id="SwineRules">
</g>
<g id="Touchy_Feeley">
</g>
<g id="Wasted_Education">
</g>
<g id="Layer_86">
</g>
<g id="PointOfNoReturn">
	<g>
		<path d="M8.13,42.231c0.012-0.115,0.038-0.223,0.081-0.324c0.042-0.104,0.099-0.189,0.171-0.262s0.168-0.107,0.288-0.107h1.836
			l0.144-0.162V36.3c0.012-0.516,0.039-1.008,0.081-1.477c0.042-0.467,0.063-0.953,0.063-1.457v-0.594
			c-0.024-0.061-0.058-0.133-0.1-0.217s-0.104-0.133-0.188-0.145h-0.414c-0.168,0-0.327,0.012-0.478,0.037
			c-0.149,0.023-0.309,0.035-0.477,0.035c-0.3,0-0.525-0.09-0.675-0.27c-0.15-0.18-0.226-0.408-0.226-0.684
			c0-0.084,0.012-0.184,0.036-0.297c0.024-0.115,0.063-0.217,0.117-0.307s0.12-0.168,0.198-0.234s0.177-0.1,0.297-0.1
			c0.036,0,0.09-0.002,0.162-0.008s0.149-0.01,0.233-0.01s0.162,0,0.234,0s0.12,0,0.144,0c0.24,0,0.462,0.016,0.666,0.045
			c0.204,0.031,0.42,0.045,0.648,0.045c0.096,0,0.177-0.006,0.243-0.018c0.065-0.012,0.159-0.029,0.279-0.055h3.023
			c0.012,0,0.06,0.01,0.145,0.027c0.083,0.018,0.177,0.037,0.278,0.055c0.103,0.018,0.207,0.039,0.315,0.063
			c0.107,0.023,0.191,0.043,0.252,0.055c0.264,0.061,0.516,0.15,0.756,0.27s0.462,0.264,0.666,0.432
			c0.108,0.096,0.23,0.25,0.369,0.459c0.138,0.211,0.267,0.441,0.387,0.693s0.222,0.494,0.306,0.729s0.127,0.412,0.127,0.531v1.477
			c0,0.299-0.103,0.633-0.307,0.998c-0.204,0.367-0.456,0.711-0.756,1.035s-0.627,0.594-0.981,0.811
			c-0.354,0.217-0.681,0.324-0.98,0.324h-2.61l-0.071,0.072c-0.024,0.143-0.046,0.297-0.063,0.459s-0.045,0.314-0.081,0.459v1.764
			l0.072,0.145c0.012,0.012,0.036,0.041,0.072,0.09h1.836c0.119,0,0.222,0.035,0.306,0.107s0.156,0.156,0.216,0.252
			c0.061,0.096,0.105,0.205,0.135,0.324c0.03,0.119,0.045,0.223,0.045,0.307v0.322c-0.119,0.17-0.278,0.307-0.477,0.414
			c-0.198,0.109-0.399,0.162-0.603,0.162c-0.192,0-0.36-0.012-0.505-0.035c-0.144-0.023-0.323-0.066-0.539-0.127h-2.179
			c-0.204,0.109-0.423,0.195-0.657,0.262c-0.233,0.066-0.471,0.1-0.711,0.1c-0.323,0-0.6-0.1-0.827-0.297
			c-0.229-0.199-0.343-0.465-0.343-0.801C8.111,42.444,8.117,42.345,8.13,42.231z M12.485,36.858c0.024,0,0.117,0.002,0.279,0.008
			s0.285,0.01,0.369,0.01c0.432,0,0.854-0.023,1.269-0.072s0.78-0.152,1.099-0.314c0.317-0.162,0.575-0.4,0.773-0.711
			c0.198-0.313,0.297-0.738,0.297-1.279c0-0.516-0.116-0.914-0.351-1.197c-0.234-0.281-0.531-0.488-0.891-0.621
			c-0.36-0.131-0.754-0.209-1.18-0.232c-0.426-0.025-0.831-0.037-1.215-0.037h-0.594l-0.072,0.072c0,0.023-0.003,0.105-0.009,0.242
			c-0.006,0.139-0.009,0.238-0.009,0.299c0,0.131-0.003,0.316-0.01,0.557c-0.006,0.24,0.039,0.439,0.136,0.594v2.611L12.485,36.858z
			"/>
		<path d="M20.469,37.11c0.162-0.637,0.417-1.201,0.766-1.693c0.348-0.492,0.794-0.885,1.341-1.178
			c0.546-0.295,1.196-0.441,1.953-0.441c0.575,0,1.073,0.111,1.493,0.332c0.42,0.223,0.84,0.514,1.261,0.873
			c0.012,0.012,0.023,0.027,0.036,0.045c0.012,0.02,0.023,0.027,0.035,0.027c0.145,0.277,0.291,0.549,0.441,0.818
			c0.149,0.271,0.288,0.547,0.414,0.828c0.126,0.283,0.228,0.57,0.306,0.865c0.078,0.293,0.117,0.596,0.117,0.908
			c0,0.037-0.003,0.105-0.009,0.207s-0.009,0.166-0.009,0.189c-0.024,0.072-0.058,0.201-0.1,0.387s-0.09,0.385-0.144,0.594
			c-0.054,0.211-0.105,0.412-0.153,0.604s-0.078,0.324-0.09,0.396c-0.097,0.324-0.261,0.666-0.495,1.025s-0.507,0.688-0.819,0.98
			c-0.312,0.295-0.65,0.537-1.017,0.73c-0.366,0.191-0.729,0.287-1.089,0.287c-0.18,0-0.318-0.012-0.414-0.035
			c-0.097-0.025-0.177-0.055-0.243-0.092c-0.066-0.035-0.135-0.074-0.207-0.115c-0.072-0.043-0.174-0.082-0.306-0.117
			c-0.061-0.012-0.174-0.031-0.342-0.055c-0.169-0.023-0.288-0.047-0.36-0.072c-0.061-0.023-0.142-0.063-0.243-0.117
			c-0.102-0.053-0.204-0.107-0.306-0.162c-0.103-0.053-0.198-0.102-0.288-0.143c-0.09-0.043-0.142-0.07-0.153-0.082
			c-0.24-0.156-0.459-0.396-0.657-0.721c-0.197-0.322-0.368-0.672-0.513-1.043c-0.144-0.371-0.255-0.744-0.333-1.115
			c-0.078-0.373-0.117-0.691-0.117-0.955C20.226,38.399,20.307,37.745,20.469,37.11z M21.801,39.485
			c0.019,0.168,0.045,0.336,0.081,0.504s0.081,0.328,0.135,0.477c0.055,0.15,0.117,0.262,0.189,0.334l0.846,0.846
			c0.132,0.035,0.237,0.061,0.315,0.072c0.077,0.012,0.158,0.023,0.243,0.035c0.083,0.012,0.155,0.02,0.216,0.02
			c0.012,0.012,0.096,0.018,0.252,0.018c0.168,0,0.294,0,0.378,0c0.24,0,0.446-0.004,0.621-0.01
			c0.174-0.006,0.369-0.051,0.585-0.135c0.516-0.42,0.857-0.873,1.025-1.359s0.252-1.047,0.252-1.684
			c0-0.371-0.039-0.717-0.116-1.033c-0.078-0.318-0.184-0.652-0.315-1c-0.061-0.156-0.159-0.285-0.297-0.387s-0.288-0.191-0.45-0.27
			s-0.33-0.146-0.504-0.207s-0.321-0.127-0.441-0.199h-1.134c-0.012,0-0.09,0.045-0.233,0.135c-0.145,0.092-0.252,0.16-0.324,0.207
			c-0.288,0.205-0.52,0.428-0.693,0.666c-0.174,0.24-0.312,0.496-0.414,0.766c-0.102,0.27-0.168,0.555-0.197,0.855
			c-0.03,0.301-0.046,0.617-0.046,0.953C21.773,39.187,21.783,39.317,21.801,39.485z"/>
		<path d="M30.926,42.022c0.138-0.24,0.352-0.359,0.64-0.359h1.979l0.126-0.178c0-0.049,0.003-0.131,0.009-0.252
			c0.006-0.119,0.016-0.244,0.027-0.375s0.021-0.256,0.027-0.375c0.006-0.119,0.009-0.203,0.009-0.25
			c0.012-0.025,0.023-0.084,0.036-0.18c0.012-0.096,0.023-0.154,0.036-0.18v-3.953h-2.106c-0.12,0-0.225-0.033-0.314-0.1
			c-0.091-0.068-0.166-0.15-0.226-0.248c-0.061-0.098-0.105-0.205-0.135-0.322c-0.03-0.115-0.045-0.223-0.045-0.32
			c0-0.197,0.048-0.35,0.144-0.459c0.096-0.111,0.213-0.193,0.352-0.248c0.138-0.055,0.288-0.092,0.449-0.111
			c0.162-0.018,0.31-0.027,0.441-0.027c0.204,0,0.405,0.012,0.604,0.037c0.197,0.023,0.398,0.035,0.603,0.035
			c0.144,0,0.285-0.012,0.423-0.035c0.138-0.025,0.279-0.037,0.423-0.037c0.204,0,0.417,0.066,0.64,0.199
			c0.222,0.131,0.333,0.324,0.333,0.576v6.695l0.107,0.107h1.908c0.108,0,0.207,0.041,0.297,0.119
			c0.09,0.08,0.168,0.176,0.234,0.285c0.065,0.111,0.113,0.227,0.144,0.35c0.03,0.121,0.045,0.227,0.045,0.311
			c0,0.172-0.045,0.344-0.135,0.516c-0.09,0.17-0.237,0.256-0.441,0.256h-6.138c-0.216,0-0.387-0.072-0.513-0.221
			c-0.126-0.146-0.189-0.324-0.189-0.531C30.719,42.503,30.788,42.261,30.926,42.022z M33.455,31.026
			c0.228-0.24,0.522-0.361,0.882-0.361c0.192,0,0.369,0.045,0.531,0.135s0.3,0.211,0.414,0.361c0.113,0.15,0.204,0.314,0.27,0.494
			c0.066,0.18,0.1,0.359,0.1,0.541c0,0.359-0.133,0.645-0.396,0.854c-0.264,0.211-0.564,0.316-0.899,0.316
			c-0.408,0-0.718-0.145-0.928-0.434c-0.21-0.287-0.314-0.629-0.314-1.025C33.113,31.56,33.227,31.267,33.455,31.026z"/>
		<path d="M40.583,41.835c0.24-0.102,0.54-0.166,0.9-0.189l0.071-0.072c0.024-0.168,0.045-0.363,0.063-0.584
			c0.018-0.223,0.045-0.424,0.081-0.604v-4.158c0-0.084-0.075-0.146-0.226-0.189c-0.149-0.041-0.312-0.098-0.485-0.17
			c-0.175-0.072-0.336-0.178-0.486-0.316c-0.15-0.137-0.225-0.35-0.225-0.639c0-0.311,0.11-0.523,0.333-0.639
			c0.222-0.113,0.465-0.172,0.729-0.172c0.036,0,0.09,0,0.162,0c0.084,0,0.126,0.008,0.126,0.02c0.348,0.047,0.627,0.107,0.837,0.18
			s0.375,0.17,0.495,0.297c0.12,0.125,0.204,0.291,0.252,0.494c0.048,0.205,0.084,0.463,0.108,0.775
			c0.012,0.012,0.023,0.018,0.035,0.018h0.036c0.072,0,0.142-0.037,0.207-0.107c0.066-0.072,0.136-0.156,0.207-0.252
			c0.072-0.098,0.145-0.193,0.216-0.289c0.072-0.096,0.145-0.168,0.217-0.215c0.336-0.24,0.692-0.479,1.07-0.713
			c0.378-0.232,0.783-0.35,1.216-0.35c0.264,0,0.53,0.063,0.801,0.189c0.27,0.125,0.51,0.291,0.72,0.494
			c0.21,0.205,0.381,0.438,0.513,0.701c0.132,0.266,0.198,0.535,0.198,0.811v4.445c-0.048,0.133-0.075,0.252-0.081,0.361
			c-0.006,0.107-0.009,0.229-0.009,0.359c0,0.037,0.006,0.121,0.018,0.252l0.072,0.072c0.324,0.061,0.615,0.168,0.873,0.324
			s0.387,0.426,0.387,0.811c0,0.311-0.093,0.518-0.278,0.621c-0.187,0.102-0.424,0.152-0.711,0.152h-0.271
			c-0.096,0-0.264-0.004-0.504-0.01s-0.495-0.012-0.765-0.018c-0.271-0.006-0.525-0.016-0.766-0.027s-0.408-0.018-0.504-0.018
			c-0.384-0.107-0.576-0.354-0.576-0.738c0-0.455,0.129-0.746,0.388-0.873c0.258-0.125,0.578-0.201,0.963-0.225l0.071-0.072
			l0.162-0.701v-2.736c0.012-0.037,0.033-0.107,0.063-0.217c0.029-0.107,0.045-0.18,0.045-0.215v-0.037v-0.035
			c0-0.023-0.009-0.094-0.027-0.207c-0.018-0.113-0.033-0.184-0.045-0.207c0-0.037-0.003-0.102-0.009-0.199
			c-0.006-0.096-0.012-0.193-0.018-0.297c-0.007-0.102-0.013-0.199-0.019-0.297c-0.006-0.096-0.009-0.162-0.009-0.197
			c-0.108-0.18-0.246-0.285-0.414-0.314c-0.168-0.031-0.342-0.045-0.522-0.045c-0.3,0-0.579,0.072-0.837,0.215
			c-0.258,0.145-0.494,0.324-0.711,0.541c-0.216,0.215-0.411,0.453-0.585,0.711s-0.327,0.5-0.459,0.729
			c-0.012,0.012-0.036,0.045-0.071,0.1c-0.036,0.053-0.061,0.092-0.072,0.117c-0.036,0.059-0.12,0.197-0.252,0.414v2.051
			c-0.061,0.121-0.094,0.223-0.1,0.307s-0.009,0.191-0.009,0.324v0.27c0.072,0.107,0.189,0.172,0.352,0.189
			c0.161,0.018,0.329,0.051,0.504,0.098c0.174,0.049,0.323,0.133,0.449,0.252c0.127,0.121,0.189,0.338,0.189,0.648
			c0,0.252-0.093,0.441-0.279,0.568c-0.186,0.125-0.398,0.201-0.639,0.225h-0.738h-0.737c-0.024,0-0.085-0.012-0.181-0.037
			c-0.096-0.023-0.156-0.035-0.18-0.035c-0.204-0.023-0.408-0.039-0.612-0.045s-0.387-0.033-0.549-0.082
			c-0.162-0.047-0.291-0.131-0.387-0.252c-0.097-0.119-0.145-0.311-0.145-0.576C40.223,42.192,40.343,41.937,40.583,41.835z"/>
		<path d="M54.768,38.649c-0.024-0.455,0.036-0.881,0.18-1.277v-1.994H52.68c-0.169,0-0.304-0.084-0.405-0.25
			c-0.103-0.168-0.153-0.324-0.153-0.469c0-0.215,0.069-0.395,0.207-0.539c0.138-0.143,0.279-0.281,0.423-0.412
			c0.145-0.121,0.315-0.188,0.514-0.199s0.398-0.018,0.603-0.018c0.216,0,0.417-0.021,0.604-0.064
			c0.186-0.041,0.345-0.16,0.477-0.354c0.12-0.18,0.18-0.422,0.18-0.723c0-0.303,0.01-0.602,0.027-0.896
			c0.019-0.295,0.081-0.549,0.189-0.76c0.107-0.211,0.336-0.316,0.684-0.316s0.561,0.105,0.639,0.316s0.117,0.461,0.117,0.752
			c0,0.277-0.015,0.549-0.045,0.814s-0.045,0.541-0.045,0.832c0,0.072,0,0.18,0,0.324c0,0.146,0.006,0.225,0.018,0.236l0.127,0.127
			c0.012,0.012,0.096,0.018,0.252,0.018c0.167,0,0.3,0,0.396,0c0.252,0,0.495-0.016,0.729-0.045
			c0.233-0.029,0.471-0.045,0.711-0.045c0.275,0,0.504,0.107,0.684,0.324c0.18,0.215,0.271,0.449,0.271,0.701
			c0,0.24-0.075,0.447-0.226,0.621s-0.345,0.262-0.585,0.262c-0.3,0-0.579-0.039-0.837-0.117s-0.562-0.117-0.909-0.117
			c-0.072,0-0.177,0.002-0.314,0.008c-0.139,0.008-0.214,0.016-0.226,0.027l-0.216,0.199v4.988c0,0.096,0.033,0.203,0.099,0.324
			c0.066,0.119,0.15,0.232,0.252,0.34c0.103,0.107,0.213,0.201,0.333,0.277c0.12,0.078,0.234,0.117,0.343,0.117
			c0.288,0,0.516-0.068,0.684-0.207c0.168-0.137,0.297-0.309,0.387-0.512c0.091-0.205,0.162-0.424,0.217-0.658
			c0.054-0.234,0.11-0.453,0.171-0.656c0.06-0.205,0.144-0.375,0.252-0.514c0.107-0.137,0.264-0.207,0.468-0.207
			c0.3,0,0.51,0.107,0.63,0.324s0.18,0.449,0.18,0.701c0,0.408-0.06,0.822-0.18,1.242c-0.12,0.422-0.297,0.801-0.531,1.145
			c-0.233,0.342-0.524,0.623-0.873,0.846c-0.348,0.223-0.75,0.332-1.206,0.332c-0.18,0-0.317-0.006-0.414-0.018
			c-0.096-0.012-0.183-0.033-0.261-0.063s-0.156-0.072-0.233-0.125c-0.078-0.055-0.184-0.129-0.315-0.227
			c-0.012,0-0.048-0.014-0.108-0.045c-0.06-0.029-0.12-0.059-0.18-0.088c-0.061-0.031-0.12-0.059-0.18-0.082
			c-0.061-0.023-0.097-0.041-0.108-0.053c-0.492-0.385-0.813-0.803-0.963-1.258s-0.225-0.982-0.225-1.582
			C54.804,39.54,54.791,39.104,54.768,38.649z"/>
		<path d="M67.925,30.216c0.204,0.047,0.402,0.113,0.594,0.197c0.192,0.084,0.381,0.189,0.567,0.314
			c0.186,0.127,0.381,0.268,0.585,0.424c0.096,0.072,0.207,0.145,0.333,0.217s0.225,0.162,0.297,0.27
			c0.145,0.215,0.276,0.436,0.396,0.656c0.119,0.223,0.27,0.424,0.449,0.604c0.276,0.6,0.498,1.205,0.666,1.818
			c0.168,0.611,0.252,1.242,0.252,1.891c0,0.635-0.051,1.285-0.152,1.951c-0.103,0.666-0.279,1.297-0.531,1.891
			s-0.591,1.129-1.017,1.602c-0.427,0.475-0.964,0.838-1.611,1.09c-0.145,0.061-0.265,0.117-0.36,0.17
			c-0.096,0.055-0.188,0.105-0.278,0.154c-0.091,0.047-0.189,0.086-0.298,0.117c-0.107,0.029-0.252,0.045-0.432,0.045
			c-0.313,0-0.579-0.049-0.801-0.145c-0.223-0.096-0.466-0.209-0.729-0.342c-0.023-0.012-0.084-0.043-0.18-0.09
			c-0.096-0.049-0.198-0.1-0.306-0.152c-0.108-0.055-0.214-0.105-0.315-0.154c-0.102-0.047-0.165-0.084-0.188-0.107
			c-0.217-0.145-0.427-0.348-0.631-0.611c-0.204-0.266-0.393-0.551-0.566-0.855c-0.174-0.307-0.327-0.609-0.459-0.91
			c-0.133-0.299-0.234-0.563-0.306-0.791c-0.024-0.049-0.049-0.117-0.072-0.207c-0.024-0.09-0.045-0.18-0.063-0.27
			c-0.018-0.09-0.036-0.172-0.054-0.244s-0.027-0.113-0.027-0.125v-2.898c0-0.012,0.016-0.078,0.045-0.197
			c0.03-0.121,0.063-0.256,0.1-0.406s0.074-0.299,0.117-0.449c0.041-0.15,0.074-0.268,0.099-0.352
			c0.156-0.504,0.348-1.004,0.576-1.502c0.228-0.498,0.51-0.945,0.846-1.342s0.731-0.717,1.188-0.963
			c0.455-0.246,0.983-0.369,1.584-0.369C67.493,30.144,67.721,30.167,67.925,30.216z M64.343,38.253
			c0.072,0.475,0.18,0.926,0.324,1.359c0.036,0.107,0.117,0.27,0.243,0.484c0.126,0.217,0.27,0.428,0.432,0.631
			c0.162,0.205,0.327,0.385,0.495,0.539c0.168,0.156,0.317,0.234,0.45,0.234h1.764c0.288,0,0.546-0.092,0.774-0.279
			c0.228-0.186,0.426-0.406,0.594-0.666c0.168-0.258,0.306-0.533,0.414-0.828c0.107-0.293,0.191-0.549,0.252-0.764
			c0.06-0.168,0.123-0.313,0.188-0.432c0.066-0.121,0.1-0.283,0.1-0.486v-2.322c-0.072-0.313-0.142-0.609-0.207-0.891
			c-0.066-0.283-0.153-0.549-0.261-0.801c-0.108-0.252-0.246-0.496-0.414-0.73c-0.169-0.232-0.391-0.459-0.666-0.674
			c-0.265-0.205-0.498-0.387-0.702-0.549s-0.475-0.244-0.811-0.244c-0.528,0-0.983,0.188-1.367,0.559
			c-0.385,0.371-0.702,0.822-0.954,1.35c-0.252,0.529-0.441,1.08-0.567,1.656s-0.189,1.063-0.189,1.459
			C64.234,37.313,64.271,37.778,64.343,38.253z"/>
		<path d="M74.414,42.024c0.162-0.193,0.399-0.289,0.711-0.289c0.108,0,0.213,0.012,0.315,0.037
			c0.102,0.023,0.207,0.035,0.314,0.035h0.181c0.048,0,0.11-0.01,0.188-0.027s0.153-0.033,0.226-0.045
			c0.071-0.012,0.168-0.035,0.288-0.072l0.071-0.07v-5.76c0-0.084-0.042-0.152-0.126-0.207c-0.084-0.053-0.162-0.08-0.233-0.08
			c-0.156,0-0.307,0.039-0.45,0.117c-0.145,0.076-0.307,0.115-0.486,0.115c-0.264,0-0.468-0.053-0.612-0.16
			c-0.144-0.109-0.306-0.27-0.485-0.484c0-0.025-0.003-0.078-0.009-0.162c-0.007-0.084-0.01-0.139-0.01-0.162
			c0-0.275,0.084-0.475,0.252-0.602c0.168-0.125,0.369-0.209,0.604-0.25c0.233-0.043,0.482-0.057,0.747-0.045
			c0.264,0.012,0.485,0.018,0.666,0.018l0.144-0.125c0.084-0.359,0.162-0.668,0.234-0.924c0.072-0.258,0.168-0.488,0.288-0.691
			c0.119-0.203,0.275-0.395,0.468-0.574c0.191-0.18,0.45-0.365,0.774-0.557c0.012-0.012,0.045-0.035,0.099-0.07
			c0.054-0.037,0.093-0.061,0.117-0.072c0.168-0.096,0.359-0.158,0.576-0.189c0.216-0.029,0.396-0.063,0.54-0.098h0.035
			c0.36,0,0.744,0.043,1.152,0.131s0.786,0.229,1.134,0.422c0.349,0.195,0.636,0.441,0.864,0.742c0.228,0.301,0.342,0.666,0.342,1.1
			c0,0.203-0.026,0.398-0.081,0.584c-0.054,0.186-0.135,0.357-0.243,0.514c-0.107,0.156-0.242,0.279-0.404,0.369
			s-0.352,0.135-0.567,0.135c-0.288,0-0.51-0.078-0.666-0.234s-0.27-0.346-0.342-0.566c-0.072-0.223-0.111-0.459-0.117-0.711
			s0.003-0.48,0.027-0.686c-0.168-0.131-0.31-0.213-0.423-0.242c-0.114-0.029-0.262-0.045-0.441-0.045
			c-0.216,0-0.432,0.039-0.648,0.117c-0.216,0.078-0.404,0.184-0.566,0.314c-0.162,0.133-0.294,0.297-0.396,0.496
			c-0.102,0.197-0.152,0.41-0.152,0.639c0,0.023,0.003,0.072,0.009,0.143c0.006,0.072,0.009,0.115,0.009,0.127l0.072,0.072
			c0.132,0.023,0.243,0.039,0.333,0.045s0.183,0.012,0.279,0.018c0.096,0.006,0.174,0.01,0.233,0.01
			c0.168,0.012,0.342,0.021,0.522,0.027c0.18,0.006,0.342,0.033,0.485,0.08c0.145,0.049,0.262,0.129,0.352,0.242
			c0.09,0.115,0.135,0.285,0.135,0.514c0,0.301-0.114,0.525-0.342,0.676c-0.229,0.15-0.48,0.225-0.756,0.225
			c-0.169,0-0.324-0.012-0.469-0.037c-0.144-0.023-0.3-0.035-0.468-0.035h-0.306l-0.072,0.072v5.85h1.692
			c0.119,0,0.225,0.037,0.314,0.107c0.09,0.072,0.165,0.16,0.226,0.262c0.06,0.102,0.104,0.213,0.135,0.332
			c0.029,0.121,0.045,0.229,0.045,0.324c0,0.168-0.045,0.334-0.135,0.496s-0.237,0.242-0.441,0.242h-5.364
			c-0.204,0-0.359-0.08-0.468-0.242c-0.107-0.162-0.162-0.328-0.162-0.496C74.171,42.462,74.252,42.216,74.414,42.024z"/>
		<path d="M91.334,39.593c-0.114-0.348-0.249-0.695-0.405-1.043c-0.132-0.301-0.3-0.684-0.504-1.152s-0.405-0.918-0.603-1.35
			c-0.198-0.432-0.436-0.961-0.712-1.584h-0.071v3.6c0.048,0.133,0.071,0.258,0.071,0.379c0,0.107,0,0.227,0,0.359s0,0.258,0,0.377
			c0,0.109-0.023,0.229-0.071,0.361v1.836c0,0.096,0.065,0.191,0.197,0.287c0.133,0.096,0.24,0.145,0.324,0.145
			c0.108,0,0.201-0.027,0.279-0.082c0.078-0.053,0.171-0.08,0.279-0.08h0.18c0.048,0.012,0.12,0.033,0.216,0.063
			c0.096,0.031,0.189,0.061,0.279,0.09c0.09,0.031,0.168,0.059,0.233,0.082c0.066,0.023,0.105,0.041,0.117,0.053l0.288,0.289v0.252
			c0,0.191-0.036,0.381-0.107,0.566c-0.072,0.188-0.229,0.309-0.469,0.369c-0.468-0.023-0.906-0.006-1.313,0.055
			c-0.408,0.061-0.84,0.09-1.296,0.09h-0.271c-0.071,0-0.195-0.004-0.369-0.01s-0.356-0.012-0.549-0.018s-0.375-0.016-0.549-0.027
			s-0.297-0.018-0.369-0.018c-0.192-0.061-0.357-0.158-0.495-0.297s-0.207-0.309-0.207-0.514v-0.18
			c0.048-0.168,0.123-0.357,0.226-0.566c0.102-0.211,0.261-0.326,0.477-0.352c0.048,0,0.129-0.002,0.243-0.008
			c0.114-0.008,0.234-0.014,0.36-0.02s0.245-0.012,0.359-0.018s0.195-0.01,0.243-0.01l0.145-0.143
			c-0.024-0.264-0.019-0.514,0.018-0.748s0.054-0.477,0.054-0.729c0-1.225-0.023-2.445-0.071-3.662
			c-0.049-1.219-0.072-2.445-0.072-3.682l-0.145-0.127h-1.277c-0.097,0-0.171-0.025-0.226-0.08
			c-0.054-0.055-0.096-0.119-0.126-0.197s-0.051-0.162-0.063-0.252c-0.013-0.092-0.019-0.166-0.019-0.227
			c0-0.264,0.097-0.486,0.288-0.666c0.192-0.18,0.433-0.27,0.721-0.27h2.033c0.24,0,0.447,0.102,0.621,0.307
			c0.174,0.203,0.297,0.408,0.369,0.611c0.024,0.061,0.078,0.201,0.162,0.424c0.084,0.221,0.171,0.465,0.261,0.729
			s0.177,0.51,0.262,0.738c0.083,0.229,0.138,0.371,0.161,0.432c0.013,0.035,0.055,0.125,0.126,0.27
			c0.072,0.145,0.147,0.301,0.226,0.469s0.153,0.324,0.225,0.467c0.072,0.145,0.114,0.234,0.126,0.271
			c0,0.012,0.009,0.041,0.027,0.09c0.018,0.047,0.033,0.098,0.045,0.152s0.027,0.105,0.045,0.152
			c0.019,0.049,0.027,0.078,0.027,0.092c0.204,0.516,0.423,1.072,0.656,1.674c0.234,0.6,0.483,1.17,0.747,1.709
			c0.013,0.025,0.036,0.063,0.072,0.117s0.06,0.088,0.072,0.1c0.012,0.012,0.018,0.012,0.018,0c0-0.025,0.006-0.037,0.019-0.037
			c0-0.059,0.003-0.162,0.009-0.305c0.006-0.145,0.012-0.295,0.018-0.451s0.01-0.305,0.01-0.449s0-0.246,0-0.307
			c0-0.023-0.013-0.084-0.036-0.18c-0.024-0.096-0.049-0.156-0.072-0.18v-5.076l-0.18-0.127c-0.181-0.012-0.378-0.029-0.595-0.053
			c-0.216-0.023-0.417-0.076-0.603-0.154c-0.187-0.076-0.339-0.188-0.459-0.332s-0.18-0.342-0.18-0.594
			c0-0.145,0.054-0.279,0.162-0.406c0.107-0.125,0.245-0.188,0.413-0.188h2.736c0.12-0.061,0.219-0.096,0.297-0.109
			c0.078-0.012,0.177-0.018,0.297-0.018c0.36,0,0.685,0.088,0.973,0.262s0.432,0.453,0.432,0.836c0,0.025-0.003,0.078-0.009,0.162
			s-0.009,0.139-0.009,0.162c-0.084,0.133-0.192,0.229-0.324,0.289c-0.133,0.059-0.273,0.098-0.423,0.117
			c-0.15,0.018-0.304,0.025-0.459,0.025c-0.156,0-0.295,0-0.414,0l-0.072,0.072l0.036,4.014v0.344l0.036,5.85
			c0,0.252-0.1,0.467-0.297,0.648c-0.198,0.18-0.417,0.27-0.657,0.27c-0.216,0-0.426-0.078-0.63-0.234s-0.336-0.336-0.396-0.541
			l-0.702-2.25C91.595,40.278,91.447,39.942,91.334,39.593z"/>
		<path d="M98.426,37.11c0.162-0.637,0.417-1.201,0.766-1.693c0.348-0.492,0.794-0.885,1.341-1.178
			c0.546-0.295,1.196-0.441,1.953-0.441c0.575,0,1.073,0.111,1.493,0.332c0.42,0.223,0.84,0.514,1.261,0.873
			c0.012,0.012,0.023,0.027,0.036,0.045c0.012,0.02,0.023,0.027,0.035,0.027c0.145,0.277,0.291,0.549,0.441,0.818
			c0.149,0.271,0.288,0.547,0.414,0.828c0.126,0.283,0.228,0.57,0.306,0.865c0.078,0.293,0.117,0.596,0.117,0.908
			c0,0.037-0.003,0.105-0.009,0.207s-0.009,0.166-0.009,0.189c-0.024,0.072-0.058,0.201-0.1,0.387s-0.09,0.385-0.144,0.594
			c-0.054,0.211-0.105,0.412-0.153,0.604s-0.078,0.324-0.09,0.396c-0.097,0.324-0.261,0.666-0.495,1.025s-0.507,0.688-0.819,0.98
			c-0.312,0.295-0.65,0.537-1.017,0.73c-0.366,0.191-0.729,0.287-1.089,0.287c-0.18,0-0.318-0.012-0.414-0.035
			c-0.097-0.025-0.177-0.055-0.243-0.092c-0.066-0.035-0.135-0.074-0.207-0.115c-0.072-0.043-0.174-0.082-0.306-0.117
			c-0.061-0.012-0.174-0.031-0.342-0.055c-0.169-0.023-0.288-0.047-0.36-0.072c-0.061-0.023-0.142-0.063-0.243-0.117
			c-0.102-0.053-0.204-0.107-0.306-0.162c-0.103-0.053-0.198-0.102-0.288-0.143c-0.09-0.043-0.142-0.07-0.153-0.082
			c-0.24-0.156-0.459-0.396-0.657-0.721c-0.197-0.322-0.368-0.672-0.513-1.043c-0.144-0.371-0.255-0.744-0.333-1.115
			c-0.078-0.373-0.117-0.691-0.117-0.955C98.183,38.399,98.264,37.745,98.426,37.11z M99.758,39.485
			c0.019,0.168,0.045,0.336,0.081,0.504s0.081,0.328,0.135,0.477c0.055,0.15,0.117,0.262,0.189,0.334l0.846,0.846
			c0.132,0.035,0.237,0.061,0.315,0.072c0.077,0.012,0.158,0.023,0.243,0.035c0.083,0.012,0.155,0.02,0.216,0.02
			c0.012,0.012,0.096,0.018,0.252,0.018c0.168,0,0.294,0,0.378,0c0.24,0,0.446-0.004,0.621-0.01
			c0.174-0.006,0.369-0.051,0.585-0.135c0.516-0.42,0.857-0.873,1.025-1.359s0.252-1.047,0.252-1.684
			c0-0.371-0.039-0.717-0.116-1.033c-0.078-0.318-0.184-0.652-0.315-1c-0.061-0.156-0.159-0.285-0.297-0.387s-0.288-0.191-0.45-0.27
			s-0.33-0.146-0.504-0.207s-0.321-0.127-0.441-0.199h-1.134c-0.012,0-0.09,0.045-0.233,0.135c-0.145,0.092-0.252,0.16-0.324,0.207
			c-0.288,0.205-0.52,0.428-0.693,0.666c-0.174,0.24-0.312,0.496-0.414,0.766c-0.102,0.27-0.168,0.555-0.197,0.855
			c-0.03,0.301-0.046,0.617-0.046,0.953C99.73,39.187,99.74,39.317,99.758,39.485z"/>
		<path d="M116.083,41.708c-0.006-0.342-0.033-0.684-0.081-1.025s-0.123-0.676-0.225-1c-0.103-0.322-0.237-0.629-0.405-0.918
			c-0.084-0.131-0.165-0.281-0.243-0.449s-0.183-0.299-0.314-0.396c-0.169-0.035-0.313-0.064-0.433-0.09
			c-0.12-0.023-0.237-0.039-0.351-0.045c-0.114-0.006-0.231-0.008-0.352-0.008c-0.107,0-0.24,0-0.396,0h-0.666
			c-0.072,0-0.18,0.008-0.324,0.025c-0.144,0.02-0.222,0.033-0.233,0.045l-0.072,0.072v3.385c0,0.107,0.107,0.189,0.324,0.242
			c0.216,0.055,0.449,0.117,0.701,0.189s0.486,0.178,0.702,0.314c0.216,0.139,0.324,0.357,0.324,0.658
			c0,0.191-0.051,0.342-0.153,0.449c-0.102,0.107-0.228,0.191-0.378,0.252c-0.149,0.061-0.312,0.1-0.485,0.117
			c-0.175,0.018-0.333,0.027-0.478,0.027h-0.198c-0.107,0-0.297-0.004-0.566-0.01c-0.271-0.006-0.556-0.012-0.855-0.018
			s-0.582-0.016-0.846-0.027s-0.45-0.018-0.558-0.018c-0.12,0.012-0.231-0.016-0.333-0.08c-0.103-0.066-0.192-0.154-0.271-0.262
			s-0.138-0.223-0.18-0.342c-0.042-0.121-0.063-0.234-0.063-0.342c0-0.229,0.055-0.406,0.162-0.531
			c0.108-0.127,0.246-0.219,0.414-0.279s0.352-0.096,0.549-0.107c0.198-0.012,0.388-0.02,0.567-0.02
			c0.023-0.023,0.054-0.059,0.09-0.107c0.036-0.047,0.054-0.084,0.054-0.107l-0.035-4.014v-0.361l-0.108-4.229l-0.145-0.145
			l-1.134-0.27c-0.156-0.049-0.252-0.154-0.288-0.316s-0.054-0.303-0.054-0.422c0-0.191,0.048-0.381,0.145-0.566
			c0.096-0.188,0.258-0.279,0.485-0.279h2.754c0.132-0.072,0.252-0.111,0.36-0.117c0.107-0.006,0.228-0.01,0.36-0.01
			c0.623,0,1.251,0.043,1.881,0.127s1.196,0.252,1.701,0.504c0.504,0.252,0.911,0.615,1.224,1.088
			c0.312,0.475,0.468,1.102,0.468,1.881c0,0.336-0.03,0.693-0.09,1.072c-0.061,0.377-0.198,0.705-0.414,0.98
			c-0.072,0.096-0.165,0.186-0.279,0.27s-0.225,0.168-0.333,0.252c-0.107,0.084-0.197,0.178-0.27,0.279s-0.108,0.225-0.108,0.369
			v0.162c0.24,0.371,0.429,0.789,0.567,1.25c0.138,0.463,0.255,0.893,0.351,1.287c0.036,0.145,0.057,0.334,0.063,0.568
			c0.006,0.234,0.057,0.422,0.152,0.566c0.084,0.133,0.187,0.223,0.307,0.27c0.12,0.049,0.239,0.09,0.359,0.127
			c0.12,0.035,0.24,0.084,0.36,0.145c0.12,0.059,0.222,0.16,0.306,0.305c0.108,0.168,0.174,0.283,0.198,0.342
			c0.024,0.061,0.036,0.168,0.036,0.324c0,0.205-0.066,0.402-0.198,0.594c-0.132,0.193-0.317,0.289-0.558,0.289h-0.036
			c-0.216-0.037-0.456-0.051-0.72-0.045c-0.265,0.006-0.517-0.006-0.756-0.037c-0.24-0.029-0.453-0.104-0.64-0.225
			c-0.186-0.119-0.303-0.324-0.351-0.611C116.086,42.384,116.089,42.05,116.083,41.708z M112.15,32.501
			c-0.108,0.037-0.162,0.104-0.162,0.199v3.096c0,0.035,0.018,0.096,0.054,0.18s0.065,0.145,0.09,0.18h0.414
			c0.156,0,0.307-0.012,0.45-0.035c0.144-0.025,0.288-0.037,0.432-0.037c0.181,0,0.354,0.012,0.522,0.037
			c0.168,0.023,0.348,0.035,0.54,0.035h0.594c0.432-0.131,0.789-0.338,1.071-0.621c0.281-0.281,0.423-0.656,0.423-1.125
			c0-0.275-0.036-0.549-0.108-0.818c-0.071-0.27-0.228-0.496-0.468-0.676c-0.456-0.203-0.936-0.338-1.439-0.404
			c-0.505-0.066-1.009-0.1-1.513-0.1c-0.06,0-0.168,0-0.323,0c-0.156,0-0.265,0.006-0.324,0.018
			C112.342,32.442,112.258,32.466,112.15,32.501z"/>
		<path d="M121.52,37.901c0.065-0.443,0.177-0.867,0.333-1.27c0.155-0.4,0.362-0.773,0.621-1.115
			c0.258-0.342,0.585-0.621,0.98-0.838c0.036-0.023,0.102-0.059,0.198-0.107c0.096-0.047,0.198-0.1,0.306-0.152
			c0.108-0.055,0.207-0.102,0.297-0.145c0.091-0.041,0.153-0.068,0.189-0.08c0.132-0.061,0.267-0.088,0.405-0.082
			c0.138,0.006,0.272,0.01,0.404,0.01c0.769,0,1.416,0.182,1.944,0.549c0.528,0.365,1.02,0.836,1.476,1.412
			c0.048,0.072,0.111,0.207,0.189,0.406c0.078,0.197,0.149,0.414,0.216,0.646c0.066,0.234,0.123,0.463,0.171,0.686
			c0.048,0.221,0.072,0.387,0.072,0.494c0,0.023-0.003,0.074-0.009,0.152c-0.007,0.078-0.009,0.129-0.009,0.154
			c-0.108,0.18-0.253,0.299-0.433,0.359s-0.366,0.107-0.558,0.145c-0.133,0-0.369-0.004-0.711-0.01s-0.705-0.008-1.089-0.008
			c-0.372,0-0.729,0.002-1.071,0.008s-0.579,0.01-0.711,0.01c-0.133,0-0.291,0.002-0.478,0.008c-0.186,0.008-0.368,0.014-0.549,0.02
			c-0.18,0.006-0.402,0.021-0.666,0.045l-0.072,0.055c0,0.012-0.003,0.053-0.009,0.127c-0.006,0.072-0.009,0.119-0.009,0.145
			c0,0.35,0.063,0.682,0.189,0.996c0.126,0.313,0.3,0.588,0.521,0.824c0.222,0.234,0.483,0.422,0.783,0.561s0.63,0.209,0.99,0.209
			c0.036,0,0.116-0.004,0.242-0.01c0.127-0.006,0.207-0.01,0.243-0.01c0.168-0.131,0.36-0.225,0.576-0.277
			c0.216-0.055,0.402-0.148,0.559-0.279c0.119-0.109,0.23-0.24,0.333-0.396c0.102-0.156,0.209-0.307,0.323-0.449
			c0.114-0.145,0.237-0.266,0.369-0.361s0.294-0.145,0.486-0.145c0.18,0,0.326,0.055,0.44,0.162
			c0.114,0.109,0.172,0.246,0.172,0.414c0,0.277-0.061,0.525-0.181,0.748s-0.252,0.441-0.396,0.656
			c-0.36,0.521-0.835,0.895-1.422,1.121c-0.589,0.225-1.194,0.338-1.818,0.338c-0.612,0-1.164-0.121-1.656-0.361
			c-0.492-0.238-0.906-0.563-1.242-0.971s-0.594-0.879-0.773-1.414c-0.181-0.533-0.271-1.094-0.271-1.682
			C121.42,38.778,121.453,38.345,121.52,37.901z M123.112,37.649c0,0.035,0.023,0.055,0.072,0.055h4.157
			c0.024,0,0.058-0.016,0.1-0.045c0.042-0.031,0.074-0.057,0.099-0.082c0.012-0.023,0.019-0.066,0.019-0.125
			c0-0.061,0-0.102,0-0.127c0-0.287-0.072-0.531-0.217-0.729c-0.144-0.197-0.323-0.354-0.54-0.469
			c-0.216-0.113-0.452-0.197-0.711-0.252c-0.258-0.053-0.501-0.08-0.729-0.08c-0.252,0-0.511,0.033-0.774,0.098
			c-0.264,0.066-0.504,0.172-0.72,0.316c-0.216,0.143-0.396,0.326-0.54,0.549c-0.144,0.223-0.216,0.482-0.216,0.783
			C123.112,37.565,123.112,37.603,123.112,37.649z"/>
		<path d="M134.057,38.649c-0.024-0.455,0.036-0.881,0.18-1.277v-1.994h-2.268c-0.169,0-0.304-0.084-0.405-0.25
			c-0.103-0.168-0.153-0.324-0.153-0.469c0-0.215,0.069-0.395,0.207-0.539c0.138-0.143,0.279-0.281,0.423-0.412
			c0.145-0.121,0.315-0.188,0.514-0.199s0.398-0.018,0.603-0.018c0.216,0,0.417-0.021,0.604-0.064
			c0.186-0.041,0.345-0.16,0.477-0.354c0.12-0.18,0.18-0.422,0.18-0.723c0-0.303,0.01-0.602,0.027-0.896
			c0.019-0.295,0.081-0.549,0.189-0.76c0.107-0.211,0.336-0.316,0.684-0.316s0.561,0.105,0.639,0.316s0.117,0.461,0.117,0.752
			c0,0.277-0.015,0.549-0.045,0.814s-0.045,0.541-0.045,0.832c0,0.072,0,0.18,0,0.324c0,0.146,0.006,0.225,0.018,0.236l0.127,0.127
			c0.012,0.012,0.096,0.018,0.252,0.018c0.167,0,0.3,0,0.396,0c0.252,0,0.495-0.016,0.729-0.045
			c0.233-0.029,0.471-0.045,0.711-0.045c0.275,0,0.504,0.107,0.684,0.324c0.18,0.215,0.271,0.449,0.271,0.701
			c0,0.24-0.075,0.447-0.226,0.621s-0.345,0.262-0.585,0.262c-0.3,0-0.579-0.039-0.837-0.117s-0.562-0.117-0.909-0.117
			c-0.072,0-0.177,0.002-0.314,0.008c-0.139,0.008-0.214,0.016-0.226,0.027l-0.216,0.199v4.988c0,0.096,0.033,0.203,0.099,0.324
			c0.066,0.119,0.15,0.232,0.252,0.34c0.103,0.107,0.213,0.201,0.333,0.277c0.12,0.078,0.234,0.117,0.343,0.117
			c0.288,0,0.516-0.068,0.684-0.207c0.168-0.137,0.297-0.309,0.387-0.512c0.091-0.205,0.162-0.424,0.217-0.658
			c0.054-0.234,0.11-0.453,0.171-0.656c0.06-0.205,0.144-0.375,0.252-0.514c0.107-0.137,0.264-0.207,0.468-0.207
			c0.3,0,0.51,0.107,0.63,0.324s0.18,0.449,0.18,0.701c0,0.408-0.06,0.822-0.18,1.242c-0.12,0.422-0.297,0.801-0.531,1.145
			c-0.233,0.342-0.524,0.623-0.873,0.846c-0.348,0.223-0.75,0.332-1.206,0.332c-0.18,0-0.317-0.006-0.414-0.018
			c-0.096-0.012-0.183-0.033-0.261-0.063s-0.156-0.072-0.233-0.125c-0.078-0.055-0.184-0.129-0.315-0.227
			c-0.012,0-0.048-0.014-0.108-0.045c-0.06-0.029-0.12-0.059-0.18-0.088c-0.061-0.031-0.12-0.059-0.18-0.082
			c-0.061-0.023-0.097-0.041-0.108-0.053c-0.492-0.385-0.813-0.803-0.963-1.258s-0.225-0.982-0.225-1.582
			C134.093,39.54,134.08,39.104,134.057,38.649z"/>
		<path d="M144.001,38.28c0.077-0.541,0.116-1.086,0.116-1.639c0-0.035,0-0.09,0-0.162c0-0.084-0.003-0.172-0.009-0.262
			s-0.009-0.17-0.009-0.242c0-0.084,0-0.145,0-0.18c-0.132-0.084-0.279-0.141-0.441-0.172c-0.161-0.029-0.314-0.064-0.459-0.107
			c-0.144-0.043-0.264-0.111-0.359-0.207c-0.097-0.096-0.145-0.252-0.145-0.469c0-0.203,0.063-0.377,0.189-0.521
			s0.297-0.217,0.513-0.217h1.477c0.18,0,0.32,0.041,0.423,0.117c0.102,0.078,0.18,0.18,0.233,0.307
			c0.055,0.125,0.091,0.26,0.108,0.402c0.018,0.145,0.027,0.275,0.027,0.396c0,0.25-0.016,0.496-0.045,0.736
			c-0.03,0.238-0.046,0.484-0.046,0.736c0,0.084,0.003,0.213,0.01,0.385c0.006,0.174,0.009,0.273,0.009,0.297
			c0,0.119,0.006,0.332,0.018,0.639c0.012,0.305,0.024,0.631,0.036,0.979c0.012,0.346,0.027,0.672,0.045,0.979
			c0.019,0.305,0.027,0.518,0.027,0.637c0.048,0.311,0.146,0.568,0.297,0.771c0.15,0.205,0.398,0.307,0.747,0.307
			c0.144,0,0.306-0.012,0.486-0.037c0.18-0.023,0.329-0.09,0.449-0.197c0.217-0.191,0.438-0.41,0.666-0.656
			c0.229-0.246,0.433-0.508,0.612-0.783c0.18-0.277,0.33-0.568,0.45-0.873c0.12-0.307,0.18-0.615,0.18-0.928v-2.609
			c0-0.049-0.081-0.082-0.243-0.1s-0.342-0.051-0.54-0.1c-0.197-0.047-0.378-0.129-0.54-0.242c-0.161-0.113-0.242-0.285-0.242-0.514
			c0-0.203,0.063-0.365,0.188-0.486c0.126-0.119,0.303-0.18,0.531-0.18h1.62c0.216,0,0.372,0.07,0.468,0.207
			c0.096,0.139,0.162,0.301,0.198,0.486s0.054,0.381,0.054,0.586c0,0.203,0.018,0.365,0.054,0.484l-0.036,1.908v0.342l-0.035,3.385
			l0.144,0.145c0.18,0,0.369,0.006,0.567,0.018c0.197,0.012,0.384,0.051,0.558,0.117s0.315,0.164,0.423,0.291
			c0.108,0.127,0.162,0.311,0.162,0.555c0,0.217-0.042,0.387-0.126,0.508s-0.195,0.209-0.333,0.264s-0.291,0.088-0.459,0.1
			c-0.168,0.014-0.336,0.02-0.504,0.02c-0.096,0-0.249-0.006-0.459-0.02c-0.21-0.012-0.423-0.045-0.639-0.1
			c-0.217-0.055-0.405-0.137-0.567-0.246c-0.162-0.107-0.243-0.254-0.243-0.436v-0.781h-0.072c-0.204,0.219-0.404,0.428-0.603,0.627
			s-0.408,0.381-0.63,0.545c-0.223,0.164-0.462,0.295-0.72,0.391c-0.259,0.098-0.537,0.146-0.837,0.146
			c-0.492,0-0.919-0.115-1.278-0.342c-0.36-0.229-0.657-0.52-0.892-0.873c-0.233-0.354-0.407-0.75-0.521-1.189
			c-0.114-0.438-0.171-0.873-0.171-1.305C143.884,39.366,143.923,38.819,144.001,38.28z"/>
		<path d="M156.15,41.952c0.186-0.156,0.417-0.234,0.693-0.234c0.168,0,0.333,0.016,0.495,0.045
			c0.161,0.029,0.333,0.045,0.513,0.045c0.048,0,0.117-0.004,0.207-0.01s0.141-0.008,0.153-0.008l0.071-0.072
			c0-0.049,0.003-0.127,0.009-0.234s0.013-0.225,0.019-0.352c0.006-0.125,0.015-0.246,0.027-0.359
			c0.012-0.113,0.018-0.195,0.018-0.242c0-0.025,0.009-0.084,0.027-0.182c0.018-0.096,0.032-0.154,0.045-0.18l-0.036-1.764v-0.342
			l-0.108-2.123l-0.144-0.145c-0.061,0-0.162-0.004-0.307-0.01c-0.144-0.006-0.3-0.012-0.468-0.018s-0.324-0.016-0.468-0.027
			s-0.246-0.018-0.306-0.018c-0.24-0.023-0.441-0.117-0.604-0.279s-0.243-0.363-0.243-0.604c0-0.238,0.072-0.445,0.217-0.621
			c0.144-0.174,0.342-0.26,0.594-0.26c0.012,0,0.029,0,0.054,0c0.036,0,0.054,0.006,0.054,0.018c0.192,0.023,0.43,0.027,0.711,0.01
			c0.282-0.02,0.567-0.021,0.855-0.01s0.558,0.051,0.81,0.117s0.444,0.189,0.576,0.369c0.024,0.023,0.048,0.074,0.072,0.152
			c0.023,0.078,0.051,0.16,0.081,0.244c0.029,0.084,0.065,0.154,0.107,0.215s0.087,0.09,0.136,0.09h0.036
			c0.371-0.299,0.771-0.576,1.196-0.828s0.885-0.377,1.377-0.377c0.3,0,0.591,0.051,0.873,0.152s0.525,0.244,0.729,0.424
			s0.369,0.398,0.495,0.656s0.188,0.543,0.188,0.855c0,0.443-0.105,0.822-0.314,1.133c-0.21,0.313-0.567,0.469-1.071,0.469
			c-0.24,0-0.432-0.074-0.576-0.225c-0.144-0.15-0.258-0.334-0.342-0.549c-0.084-0.217-0.142-0.441-0.171-0.676
			c-0.03-0.234-0.052-0.434-0.063-0.604c-0.012-0.059-0.048-0.09-0.107-0.09c-0.061,0-0.103,0-0.126,0
			c-0.061,0-0.117,0.004-0.171,0.01c-0.055,0.006-0.105,0.033-0.153,0.08c-0.048,0.037-0.126,0.109-0.234,0.217
			c-0.107,0.107-0.222,0.223-0.342,0.342c-0.12,0.121-0.234,0.234-0.342,0.342c-0.108,0.109-0.18,0.18-0.216,0.217
			c-0.049,0.047-0.117,0.129-0.207,0.242c-0.09,0.115-0.178,0.238-0.262,0.369c-0.084,0.133-0.155,0.262-0.216,0.387
			c-0.06,0.127-0.09,0.219-0.09,0.279v2.035c0.012,0.023,0.027,0.084,0.045,0.18c0.019,0.096,0.027,0.156,0.027,0.18
			c0,0.035,0.006,0.107,0.018,0.215c0.012,0.109,0.021,0.223,0.027,0.344c0.006,0.119,0.012,0.232,0.018,0.342
			c0.006,0.107,0.01,0.186,0.01,0.232c0.048,0.133,0.119,0.211,0.216,0.234c0.096,0.025,0.21,0.037,0.342,0.037
			s0.267-0.012,0.405-0.037c0.138-0.023,0.272-0.035,0.404-0.035c0.276,0,0.528,0.074,0.757,0.225
			c0.228,0.15,0.342,0.369,0.342,0.656c0,0.24-0.055,0.43-0.162,0.568c-0.108,0.137-0.249,0.24-0.423,0.305
			c-0.175,0.066-0.363,0.109-0.567,0.127s-0.396,0.027-0.576,0.027c-0.204,0-0.404-0.012-0.603-0.037
			c-0.198-0.023-0.399-0.035-0.604-0.035c-0.096,0-0.177,0.002-0.242,0.008c-0.066,0.008-0.16,0.027-0.279,0.064h-2.052
			c-0.288,0-0.55-0.096-0.783-0.289c-0.234-0.191-0.352-0.438-0.352-0.738C155.871,42.323,155.964,42.108,156.15,41.952z"/>
		<path d="M167.373,41.835c0.24-0.102,0.54-0.166,0.9-0.189l0.071-0.072c0.024-0.168,0.045-0.363,0.063-0.584
			c0.018-0.223,0.045-0.424,0.081-0.604v-4.158c0-0.084-0.075-0.146-0.226-0.189c-0.149-0.041-0.312-0.098-0.485-0.17
			c-0.175-0.072-0.336-0.178-0.486-0.316c-0.15-0.137-0.225-0.35-0.225-0.639c0-0.311,0.11-0.523,0.333-0.639
			c0.222-0.113,0.465-0.172,0.729-0.172c0.036,0,0.09,0,0.162,0c0.084,0,0.126,0.008,0.126,0.02c0.348,0.047,0.627,0.107,0.837,0.18
			s0.375,0.17,0.495,0.297c0.12,0.125,0.204,0.291,0.252,0.494c0.048,0.205,0.084,0.463,0.108,0.775
			c0.012,0.012,0.023,0.018,0.035,0.018h0.036c0.072,0,0.142-0.037,0.207-0.107c0.066-0.072,0.136-0.156,0.207-0.252
			c0.072-0.098,0.145-0.193,0.216-0.289c0.072-0.096,0.145-0.168,0.217-0.215c0.336-0.24,0.692-0.479,1.07-0.713
			c0.378-0.232,0.783-0.35,1.216-0.35c0.264,0,0.53,0.063,0.801,0.189c0.27,0.125,0.51,0.291,0.72,0.494
			c0.21,0.205,0.381,0.438,0.513,0.701c0.132,0.266,0.198,0.535,0.198,0.811v4.445c-0.048,0.133-0.075,0.252-0.081,0.361
			c-0.006,0.107-0.009,0.229-0.009,0.359c0,0.037,0.006,0.121,0.018,0.252l0.072,0.072c0.324,0.061,0.615,0.168,0.873,0.324
			s0.387,0.426,0.387,0.811c0,0.311-0.093,0.518-0.278,0.621c-0.187,0.102-0.424,0.152-0.711,0.152h-0.271
			c-0.096,0-0.264-0.004-0.504-0.01s-0.495-0.012-0.765-0.018c-0.271-0.006-0.525-0.016-0.766-0.027s-0.408-0.018-0.504-0.018
			c-0.384-0.107-0.576-0.354-0.576-0.738c0-0.455,0.129-0.746,0.388-0.873c0.258-0.125,0.578-0.201,0.963-0.225l0.071-0.072
			l0.162-0.701v-2.736c0.012-0.037,0.033-0.107,0.063-0.217c0.029-0.107,0.045-0.18,0.045-0.215v-0.037v-0.035
			c0-0.023-0.009-0.094-0.027-0.207c-0.018-0.113-0.033-0.184-0.045-0.207c0-0.037-0.003-0.102-0.009-0.199
			c-0.006-0.096-0.012-0.193-0.018-0.297c-0.007-0.102-0.013-0.199-0.019-0.297c-0.006-0.096-0.009-0.162-0.009-0.197
			c-0.108-0.18-0.246-0.285-0.414-0.314c-0.168-0.031-0.342-0.045-0.522-0.045c-0.3,0-0.579,0.072-0.837,0.215
			c-0.258,0.145-0.494,0.324-0.711,0.541c-0.216,0.215-0.411,0.453-0.585,0.711s-0.327,0.5-0.459,0.729
			c-0.012,0.012-0.036,0.045-0.071,0.1c-0.036,0.053-0.061,0.092-0.072,0.117c-0.036,0.059-0.12,0.197-0.252,0.414v2.051
			c-0.061,0.121-0.094,0.223-0.1,0.307s-0.009,0.191-0.009,0.324v0.27c0.072,0.107,0.189,0.172,0.352,0.189
			c0.161,0.018,0.329,0.051,0.504,0.098c0.174,0.049,0.323,0.133,0.449,0.252c0.127,0.121,0.189,0.338,0.189,0.648
			c0,0.252-0.093,0.441-0.279,0.568c-0.186,0.125-0.398,0.201-0.639,0.225h-0.738h-0.737c-0.024,0-0.085-0.012-0.181-0.037
			c-0.096-0.023-0.156-0.035-0.18-0.035c-0.204-0.023-0.408-0.039-0.612-0.045s-0.387-0.033-0.549-0.082
			c-0.162-0.047-0.291-0.131-0.387-0.252c-0.097-0.119-0.145-0.311-0.145-0.576C167.013,42.192,167.133,41.937,167.373,41.835z"/>
	</g>
</g>
<g id="Pirate">
</g>
<g id="Thief">
</g>
<g id="DepthPerception">
</g>
<g id="Narcissist">
</g>
<g id="MammaBird">
</g>
<g id="Staringcontest">
</g>
<g id="Cartwheel">
</g>
<g id="Censored">
</g>
<g id="Depersonalization">
</g>
<g id="threeman">
</g>
<g id="_x32__truths_and_a_lie">
</g>
<g id="cray_cray_cat_lady">
</g>
<g id="siblings">
</g>
<g id="later">
</g>
<g id="waterfall">
</g>
<g id="cheers">
</g>
<g id="rhyme">
</g>
<g id="categories">
</g>
<g id="tits">
</g>
<g id="dicks">
</g>
<g id="questions">
</g>
<g id="double_hands">
</g>
<g id="rewind">
</g>
<g id="Cryptkeeper">
</g>
<g id="Take_2_and_Redo">
</g>
<g id="Embryo">
</g>
<g id="I_am_Groot">
</g>
<g id="Mini_Me">
</g>
<g id="Ditto_1_">
</g>
<g id="reverse">
</g>
</svg>
