<?xml version="1.0" encoding="utf-8"?>
<!-- Generator: Adobe Illustrator 16.0.0, SVG Export Plug-In . SVG Version: 6.00 Build 0)  -->
<!DOCTYPE svg PUBLIC "-//W3C//DTD SVG 1.1//EN" "http://www.w3.org/Graphics/SVG/1.1/DTD/svg11.dtd">
<svg version="1.1" xmlns="http://www.w3.org/2000/svg" xmlns:xlink="http://www.w3.org/1999/xlink" x="0px" y="0px"
	 width="209.759px" height="62.361px" viewBox="0 0 209.759 62.361" enable-background="new 0 0 209.759 62.361"
	 xml:space="preserve">
<g id="Layer_1">
</g>
<g id="Hat">
</g>
<g id="Compliments">
</g>
<g id="HAT">
</g>
<g id="speech">
</g>
<g id="TREX_ARMS">
</g>
<g id="slim_shady">
</g>
<g id="TIMEOUT">
</g>
<g id="Truth_or_Dare">
</g>
<g id="ARM_WRESTLE">
</g>
<g id="musical_chairs">
</g>
<g id="never_have_i_ever">
</g>
<g id="Trivia">
</g>
<g id="Drink_Pulling">
</g>
<g id="Sharing_is_Caring">
</g>
<g id="Not_It">
</g>
<g id="Cocktail_of_Doom">
</g>
<g id="Heads_up">
</g>
<g id="Archenemy">
</g>
<g id="battle_of_the_sexes">
</g>
<g id="one_must_drink">
</g>
<g id="rainbow_connection">
</g>
<g id="social_drinking">
</g>
<g id="Spin_the_bottle">
</g>
<g id="accents">
</g>
<g id="Slap">
</g>
<g id="give_3">
</g>
<g id="rub">
</g>
<g id="down_the_hatch">
</g>
<g id="rubiks_cube">
</g>
<g id="bar_tender">
</g>
<g id="codenames">
</g>
<g id="hand_switch">
</g>
<g id="make_a_rule">
</g>
<g id="no_guts_no_glory">
</g>
<g id="pass">
</g>
<g id="santa">
</g>
<g id="snake_eyes">
</g>
<g id="bodyguard">
</g>
<g id="threeman">
</g>
<g id="_x32__truths_and_a_lie">
</g>
<g id="cray_cray_cat_lady">
</g>
<g id="siblings">
</g>
<g id="take_2">
</g>
<g id="take_3">
</g>
<g id="later">
</g>
<g id="waterfall">
</g>
<g id="cheers">
	<g>
		<path d="M20.932,33.408c0-1.43,0.247-2.782,0.741-4.057c0.493-1.273,1.209-2.392,2.145-3.354c0.937-0.962,2.067-1.729,3.394-2.301
			s2.82-0.858,4.485-0.858c2.235,0,4.14,0.481,5.713,1.443s2.75,2.223,3.529,3.783l-5.108,1.56
			c-0.442-0.754-1.027-1.332-1.755-1.735c-0.729-0.403-1.535-0.604-2.418-0.604c-0.755,0-1.457,0.149-2.106,0.448
			c-0.65,0.299-1.216,0.716-1.696,1.248c-0.481,0.533-0.858,1.177-1.131,1.931c-0.273,0.754-0.41,1.586-0.41,2.496
			s0.143,1.742,0.43,2.496c0.285,0.754,0.669,1.403,1.15,1.949c0.48,0.547,1.046,0.97,1.696,1.268
			c0.649,0.3,1.339,0.449,2.067,0.449c0.936,0,1.8-0.234,2.593-0.702s1.346-1.04,1.658-1.716l5.108,1.56
			c-0.702,1.561-1.859,2.834-3.471,3.822c-1.612,0.988-3.549,1.481-5.812,1.481c-1.664,0-3.158-0.286-4.484-0.857
			c-1.326-0.572-2.457-1.346-3.394-2.32c-0.936-0.976-1.657-2.106-2.164-3.394S20.932,34.812,20.932,33.408z"/>
		<path d="M66.913,43.626h-5.226V32.16c0-1.612-0.3-2.802-0.897-3.568c-0.599-0.767-1.443-1.15-2.535-1.15
			c-0.468,0-0.962,0.104-1.481,0.312c-0.521,0.208-1.015,0.501-1.482,0.878s-0.897,0.825-1.287,1.345
			c-0.39,0.521-0.677,1.093-0.857,1.717v11.934H47.92v-28.47h5.227v11.816c0.753-1.325,1.774-2.346,3.061-3.062
			c1.287-0.715,2.711-1.072,4.271-1.072c1.326,0,2.405,0.228,3.237,0.683s1.482,1.06,1.95,1.813
			c0.468,0.755,0.793,1.612,0.975,2.574s0.273,1.95,0.273,2.964V43.626z"/>
		<path d="M84.657,44.016c-1.639,0-3.12-0.279-4.446-0.838s-2.457-1.319-3.394-2.282c-0.936-0.961-1.657-2.079-2.164-3.354
			c-0.507-1.273-0.761-2.613-0.761-4.017c0-1.456,0.247-2.828,0.741-4.115c0.493-1.287,1.209-2.418,2.145-3.393
			c0.937-0.976,2.073-1.748,3.413-2.32c1.339-0.572,2.84-0.858,4.504-0.858s3.152,0.286,4.466,0.858
			c1.313,0.572,2.431,1.339,3.354,2.301c0.922,0.962,1.624,2.08,2.105,3.354c0.481,1.274,0.722,2.601,0.722,3.979
			c0,0.338-0.007,0.663-0.02,0.975c-0.014,0.313-0.046,0.572-0.098,0.78H79.431c0.078,0.807,0.273,1.521,0.585,2.145
			c0.313,0.624,0.715,1.157,1.209,1.6s1.053,0.78,1.677,1.014c0.624,0.234,1.274,0.352,1.95,0.352c1.04,0,2.021-0.254,2.944-0.761
			s1.554-1.176,1.892-2.009l4.485,1.248c-0.755,1.561-1.957,2.841-3.607,3.842C88.914,43.516,86.944,44.016,84.657,44.016z
			 M89.961,31.692c-0.131-1.534-0.696-2.763-1.696-3.686c-1.002-0.923-2.217-1.385-3.646-1.385c-0.702,0-1.359,0.124-1.97,0.37
			c-0.611,0.248-1.15,0.592-1.619,1.034c-0.468,0.442-0.852,0.975-1.15,1.599s-0.475,1.313-0.526,2.067H89.961z"/>
		<path d="M111.724,44.016c-1.639,0-3.12-0.279-4.446-0.838s-2.457-1.319-3.394-2.282c-0.936-0.961-1.657-2.079-2.164-3.354
			c-0.507-1.273-0.761-2.613-0.761-4.017c0-1.456,0.247-2.828,0.741-4.115c0.493-1.287,1.209-2.418,2.145-3.393
			c0.937-0.976,2.073-1.748,3.413-2.32c1.339-0.572,2.84-0.858,4.504-0.858s3.152,0.286,4.466,0.858
			c1.313,0.572,2.431,1.339,3.354,2.301c0.922,0.962,1.624,2.08,2.105,3.354c0.481,1.274,0.722,2.601,0.722,3.979
			c0,0.338-0.007,0.663-0.02,0.975c-0.014,0.313-0.046,0.572-0.098,0.78h-15.795c0.078,0.807,0.273,1.521,0.585,2.145
			c0.313,0.624,0.715,1.157,1.209,1.6s1.053,0.78,1.677,1.014c0.624,0.234,1.274,0.352,1.95,0.352c1.04,0,2.021-0.254,2.944-0.761
			s1.554-1.176,1.892-2.009l4.485,1.248c-0.755,1.561-1.957,2.841-3.607,3.842C115.98,43.516,114.011,44.016,111.724,44.016z
			 M117.027,31.692c-0.131-1.534-0.696-2.763-1.696-3.686c-1.002-0.923-2.217-1.385-3.646-1.385c-0.702,0-1.359,0.124-1.97,0.37
			c-0.611,0.248-1.15,0.592-1.619,1.034c-0.468,0.442-0.852,0.975-1.15,1.599s-0.475,1.313-0.526,2.067H117.027z"/>
		<path d="M141.48,27.714c-1.586,0.026-3.003,0.332-4.251,0.917s-2.145,1.462-2.69,2.632v12.363h-5.227V23.19h4.797v4.367
			c0.364-0.701,0.793-1.332,1.287-1.892c0.494-0.559,1.027-1.046,1.599-1.462c0.572-0.416,1.151-0.734,1.736-0.956
			c0.585-0.22,1.15-0.331,1.696-0.331c0.286,0,0.5,0,0.644,0c0.143,0,0.279,0.014,0.409,0.039V27.714z"/>
		<path d="M155.831,44.016c-1.716,0-3.393-0.272-5.03-0.818c-1.639-0.546-3.042-1.326-4.212-2.34l1.949-3.276
			c1.248,0.884,2.464,1.554,3.646,2.009c1.184,0.455,2.36,0.683,3.53,0.683c1.039,0,1.858-0.195,2.457-0.586
			c0.598-0.39,0.896-0.948,0.896-1.677c0-0.728-0.351-1.261-1.053-1.599s-1.847-0.728-3.433-1.17
			c-1.325-0.364-2.456-0.715-3.393-1.054c-0.936-0.337-1.69-0.721-2.262-1.15c-0.572-0.429-0.988-0.922-1.248-1.481
			c-0.261-0.559-0.391-1.229-0.391-2.009c0-1.039,0.201-1.976,0.604-2.808s0.969-1.541,1.697-2.126
			c0.728-0.585,1.579-1.033,2.554-1.346c0.976-0.312,2.034-0.468,3.179-0.468c1.534,0,2.971,0.222,4.31,0.663
			c1.339,0.442,2.567,1.157,3.686,2.146l-2.105,3.158c-1.041-0.779-2.048-1.352-3.022-1.716c-0.976-0.363-1.944-0.546-2.906-0.546
			c-0.884,0-1.625,0.183-2.223,0.546c-0.599,0.364-0.897,0.949-0.897,1.755c0,0.364,0.071,0.663,0.215,0.897
			c0.143,0.233,0.37,0.442,0.683,0.624c0.312,0.182,0.722,0.357,1.229,0.526s1.137,0.345,1.892,0.526
			c1.404,0.364,2.606,0.729,3.607,1.092c1.001,0.364,1.819,0.78,2.457,1.248c0.637,0.468,1.104,1.008,1.404,1.619
			c0.298,0.61,0.448,1.345,0.448,2.203c0,2.002-0.741,3.582-2.223,4.738C160.395,43.438,158.379,44.016,155.831,44.016z"/>
	</g>
</g>
<g id="rhyme">
</g>
<g id="categories">
</g>
<g id="tits">
</g>
<g id="dicks">
</g>
<g id="questions">
</g>
<g id="double_hands">
</g>
<g id="give_2">
</g>
<g id="rewind">
</g>
<g id="Cryptkeeper">
</g>
<g id="Take_2_and_Redo">
</g>
<g id="Embryo">
</g>
<g id="I_am_Groot">
</g>
<g id="Mini_Me">
</g>
<g id="Ditto_1_">
</g>
</svg>
