<?xml version="1.0" encoding="utf-8"?>
<!-- Generator: Adobe Illustrator 16.0.0, SVG Export Plug-In . SVG Version: 6.00 Build 0)  -->
<!DOCTYPE svg PUBLIC "-//W3C//DTD SVG 1.1//EN" "http://www.w3.org/Graphics/SVG/1.1/DTD/svg11.dtd">
<svg version="1.1" xmlns="http://www.w3.org/2000/svg" xmlns:xlink="http://www.w3.org/1999/xlink" x="0px" y="0px"
	 width="209.759px" height="62.361px" viewBox="0 0 209.759 62.361" enable-background="new 0 0 209.759 62.361"
	 xml:space="preserve">
<g id="Layer_1">
</g>
<g id="Blindman">
</g>
<g id="Compliments">
</g>
<g id="HAT">
</g>
<g id="speech">
</g>
<g id="TREX_ARMS">
</g>
<g id="slim_shady">
</g>
<g id="TIMEOUT">
</g>
<g id="Truth_or_Dare">
</g>
<g id="ARM_WRESTLE">
</g>
<g id="musical_chairs">
</g>
<g id="never_have_i_ever">
</g>
<g id="Trivia">
</g>
<g id="Drink_Pulling">
</g>
<g id="Sharing_is_Caring">
</g>
<g id="Not_It">
</g>
<g id="Cocktail_of_Doom">
</g>
<g id="Heads_up">
</g>
<g id="Archenemy">
</g>
<g id="battle_of_the_sexes">
</g>
<g id="one_must_drink">
</g>
<g id="rainbow_connection">
</g>
<g id="social_drinking">
</g>
<g id="Spin_the_bottle">
</g>
<g id="accents">
</g>
<g id="Slap">
</g>
<g id="down_the_hatch">
</g>
<g id="rubiks_cube">
</g>
<g id="bar_tender">
</g>
<g id="codenames">
</g>
<g id="hand_switch">
</g>
<g id="make_a_rule">
</g>
<g id="no_guts_no_glory">
</g>
<g id="pass">
</g>
<g id="santa">
</g>
<g id="snake_eyes">
</g>
<g id="lightning_round">
</g>
<g id="Bro">
</g>
<g id="LeastDrunk">
</g>
<g id="Know_It_All">
</g>
<g id="EyeContact">
</g>
<g id="UnderGuesser">
</g>
<g id="GodSaveTheQUeen">
</g>
<g id="Ghost">
</g>
<g id="Fortune_Teller">
</g>
<g id="DrinkSwap">
</g>
<g id="DickTator">
</g>
<g id="_x34_Eyes">
</g>
<g id="BabyTalk">
</g>
<g id="Backseat_Driver">
</g>
<g id="BAtman">
</g>
<g id="bodyguard">
</g>
<g id="BuckleUp">
</g>
<g id="RockPaperScissors">
</g>
<g id="Roger_Roger">
</g>
<g id="RoyaleWe">
</g>
<g id="Skip">
</g>
<g id="SwineRules">
</g>
<g id="Touchy_Feeley">
</g>
<g id="Wasted_Education">
	<g>
		<path d="M13.821,32.378c0.063-0.107,0.151-0.189,0.264-0.248s0.237-0.096,0.376-0.113c0.139-0.016,0.282-0.023,0.432-0.023
			c0.139,0,0.302,0.012,0.488,0.033s0.362,0.061,0.528,0.119c0.165,0.059,0.307,0.145,0.424,0.256s0.176,0.26,0.176,0.439
			c0,0.172-0.031,0.297-0.096,0.377s-0.136,0.145-0.216,0.191c-0.08,0.049-0.166,0.088-0.256,0.121
			c-0.091,0.031-0.158,0.084-0.2,0.16v0.336c0,0.299,0.04,0.578,0.12,0.84s0.146,0.535,0.2,0.824
			c0.117,0.629,0.239,1.264,0.367,1.902c0.128,0.641,0.234,1.281,0.32,1.92h0.064c0.042-0.191,0.077-0.354,0.104-0.486
			c0.026-0.135,0.054-0.273,0.08-0.416c0.026-0.145,0.045-0.266,0.056-0.361c0.075-0.447,0.134-0.896,0.177-1.344
			c0.042-0.447,0.09-0.896,0.144-1.344c0-0.021,0.011-0.08,0.032-0.176s0.042-0.195,0.063-0.297s0.043-0.199,0.064-0.295
			s0.032-0.154,0.032-0.176v-0.465V33.69c-0.075-0.086-0.149-0.158-0.225-0.217c-0.074-0.059-0.144-0.117-0.208-0.176
			c-0.063-0.059-0.114-0.129-0.151-0.209c-0.038-0.08-0.057-0.184-0.057-0.311c0-0.215,0.075-0.398,0.225-0.553
			c0.148-0.154,0.336-0.232,0.56-0.232h0.032c0.149,0.021,0.354,0.029,0.616,0.023c0.261-0.004,0.52,0.01,0.775,0.041
			s0.478,0.102,0.664,0.207c0.187,0.107,0.28,0.283,0.28,0.529c0,0.17-0.026,0.301-0.08,0.391c-0.054,0.092-0.115,0.166-0.184,0.225
			c-0.07,0.059-0.137,0.113-0.2,0.16c-0.064,0.049-0.102,0.109-0.112,0.184v0.432c0,0.076,0.016,0.262,0.048,0.561
			s0.072,0.648,0.12,1.049s0.102,0.82,0.16,1.264s0.117,0.852,0.176,1.225s0.112,0.682,0.16,0.928
			c0.048,0.244,0.088,0.367,0.12,0.367h0.032c0.16-0.682,0.293-1.352,0.399-2.008s0.203-1.324,0.288-2.008
			c0.032-0.266,0.072-0.523,0.12-0.768c0.048-0.246,0.072-0.502,0.072-0.768v-0.465c-0.064-0.096-0.136-0.162-0.216-0.199
			s-0.155-0.076-0.225-0.113s-0.131-0.09-0.184-0.16c-0.054-0.068-0.08-0.189-0.08-0.359c0-0.246,0.085-0.43,0.256-0.553
			c0.171-0.121,0.368-0.184,0.592-0.184c0.182,0,0.379,0.016,0.592,0.049c0.214,0.031,0.405,0.059,0.576,0.08
			c0.203,0.021,0.347,0.098,0.433,0.23c0.085,0.135,0.128,0.297,0.128,0.488c0,0.119-0.019,0.223-0.057,0.313
			c-0.037,0.092-0.08,0.176-0.128,0.256s-0.096,0.16-0.144,0.24s-0.083,0.174-0.104,0.279c-0.149,0.662-0.267,1.32-0.352,1.977
			c-0.086,0.656-0.197,1.314-0.336,1.977c-0.011,0.031-0.024,0.082-0.04,0.152c-0.017,0.068-0.035,0.143-0.056,0.223
			c-0.021,0.08-0.04,0.156-0.057,0.225c-0.016,0.07-0.029,0.119-0.04,0.152c-0.054,0.17-0.104,0.414-0.151,0.729
			c-0.049,0.314-0.102,0.654-0.16,1.023c-0.059,0.367-0.126,0.742-0.2,1.119c-0.075,0.379-0.163,0.721-0.264,1.025
			c-0.102,0.303-0.228,0.555-0.376,0.752c-0.15,0.197-0.32,0.295-0.513,0.295c-0.234,0-0.432-0.105-0.592-0.32
			c-0.063-0.084-0.12-0.221-0.168-0.408c-0.048-0.186-0.086-0.385-0.112-0.6c-0.026-0.213-0.045-0.424-0.056-0.631
			c-0.011-0.209-0.021-0.371-0.032-0.488c0-0.033-0.005-0.104-0.016-0.217c-0.011-0.111-0.019-0.236-0.024-0.375
			c-0.005-0.139-0.011-0.264-0.016-0.377c-0.006-0.111-0.008-0.184-0.008-0.215c-0.043-0.459-0.097-0.92-0.16-1.385
			c-0.064-0.465-0.139-0.92-0.225-1.367c-0.021-0.086-0.045-0.189-0.071-0.313c-0.027-0.123-0.046-0.184-0.057-0.184h-0.063
			c-0.011,0-0.029,0.061-0.056,0.184c-0.027,0.123-0.046,0.227-0.057,0.313c-0.128,0.873-0.242,1.752-0.344,2.631
			c-0.102,0.881-0.237,1.758-0.408,2.633c-0.032,0.148-0.062,0.291-0.088,0.424s-0.069,0.254-0.128,0.359
			c-0.059,0.107-0.142,0.189-0.248,0.248s-0.256,0.088-0.448,0.088c-0.149,0-0.274-0.018-0.376-0.055
			c-0.102-0.039-0.194-0.127-0.279-0.266c-0.097-0.148-0.171-0.346-0.225-0.592c-0.054-0.244-0.096-0.5-0.128-0.768
			c-0.032-0.266-0.059-0.531-0.08-0.791c-0.021-0.262-0.048-0.484-0.08-0.664c-0.171-1.047-0.352-2.09-0.544-3.129
			c-0.191-1.039-0.384-2.082-0.576-3.129c-0.031-0.18-0.088-0.324-0.168-0.432c-0.08-0.105-0.16-0.201-0.239-0.287
			c-0.08-0.086-0.15-0.176-0.208-0.271c-0.06-0.098-0.089-0.225-0.089-0.385C13.725,32.628,13.757,32.483,13.821,32.378z"/>
		<path d="M25.324,39.522c0.256-0.357,0.576-0.619,0.96-0.785s0.803-0.266,1.256-0.305c0.453-0.037,0.872-0.07,1.256-0.104
			c0.385-0.031,0.704-0.09,0.96-0.176c0.257-0.086,0.385-0.256,0.385-0.512c0-0.182-0.032-0.352-0.097-0.512
			c-0.063-0.16-0.182-0.289-0.352-0.385c-0.064-0.031-0.16-0.08-0.288-0.145c-0.128-0.063-0.197-0.096-0.208-0.096h-1.504
			c-0.086,0-0.145,0.047-0.176,0.137c-0.032,0.09-0.062,0.203-0.088,0.336c-0.027,0.133-0.057,0.279-0.089,0.439
			c-0.031,0.16-0.082,0.307-0.151,0.441c-0.069,0.133-0.171,0.244-0.305,0.336c-0.133,0.09-0.312,0.135-0.535,0.135
			c-0.342,0-0.622-0.111-0.841-0.336s-0.327-0.5-0.327-0.832c0-0.191,0.031-0.361,0.096-0.512c0.063-0.148,0.149-0.287,0.256-0.416
			c0.106-0.127,0.229-0.248,0.368-0.359c0.139-0.113,0.277-0.217,0.416-0.313c0.117-0.086,0.24-0.178,0.368-0.279
			s0.277-0.152,0.447-0.152l2.448,0.031c0.139,0,0.302,0.059,0.488,0.176s0.368,0.254,0.544,0.414s0.33,0.328,0.464,0.51
			c0.134,0.18,0.216,0.334,0.248,0.461c0.011,0.033,0.026,0.09,0.048,0.176s0.043,0.172,0.064,0.264
			c0.021,0.09,0.04,0.174,0.056,0.254s0.024,0.135,0.024,0.168v0.492c0,0.129,0.002,0.273,0.008,0.439
			c0.005,0.164-0.019,0.311-0.072,0.438v2.691c0,0.297,0.128,0.445,0.384,0.445c0.171,0,0.277-0.074,0.32-0.223
			c0.043-0.15,0.08-0.318,0.112-0.504c0.031-0.188,0.082-0.355,0.151-0.504c0.069-0.15,0.217-0.225,0.44-0.225
			c0.117,0,0.219,0.031,0.304,0.096c0.086,0.064,0.154,0.145,0.208,0.24s0.091,0.199,0.112,0.313
			c0.021,0.111,0.032,0.221,0.032,0.328c0,0.234-0.038,0.469-0.112,0.703c-0.075,0.234-0.179,0.445-0.313,0.633
			c-0.133,0.186-0.298,0.338-0.495,0.455c-0.198,0.117-0.425,0.176-0.681,0.176c-0.202,0-0.379-0.023-0.527-0.072
			c-0.149-0.047-0.315-0.131-0.496-0.248c-0.064-0.031-0.12-0.082-0.168-0.15c-0.048-0.07-0.097-0.139-0.145-0.209
			c-0.048-0.068-0.102-0.131-0.16-0.184s-0.125-0.08-0.199-0.08h-0.08c-0.149,0.074-0.302,0.166-0.456,0.271
			c-0.155,0.107-0.313,0.211-0.473,0.313c-0.159,0.102-0.325,0.186-0.496,0.256c-0.17,0.07-0.347,0.104-0.527,0.104h-1.44
			c-0.117,0-0.219-0.029-0.304-0.088c-0.086-0.059-0.171-0.115-0.256-0.168c-0.438-0.256-0.755-0.572-0.952-0.951
			s-0.296-0.818-0.296-1.32C24.94,40.388,25.068,39.88,25.324,39.522z M26.236,41.337c0.032,0.117,0.077,0.232,0.136,0.344
			c0.059,0.113,0.131,0.207,0.216,0.281c0.086,0.074,0.182,0.111,0.288,0.111h1.632c0.011,0,0.046-0.016,0.104-0.047
			c0.059-0.033,0.109-0.059,0.152-0.08c0.021-0.021,0.071-0.055,0.151-0.098c0.08-0.041,0.131-0.068,0.152-0.08
			c0.395-0.266,0.661-0.543,0.8-0.832c0.139-0.287,0.208-0.66,0.208-1.119v-0.191c-0.011,0-0.032-0.008-0.063-0.025
			c-0.032-0.016-0.054-0.023-0.064-0.023c-0.011-0.01-0.021-0.016-0.032-0.016l-0.032,0.016c-0.031,0-0.119,0.014-0.264,0.041
			c-0.144,0.025-0.296,0.053-0.456,0.08c-0.16,0.025-0.312,0.053-0.456,0.08c-0.144,0.025-0.231,0.039-0.264,0.039
			c-0.256,0.043-0.515,0.074-0.776,0.096c-0.261,0.021-0.525,0.055-0.792,0.096c-0.139,0.012-0.261,0.098-0.368,0.256
			c-0.053,0.076-0.119,0.193-0.199,0.354s-0.12,0.299-0.12,0.416C26.188,41.118,26.204,41.22,26.236,41.337z"/>
		<path d="M35.396,42.562c0.005-0.068,0.034-0.158,0.088-0.264v-1.889c0-0.148,0.059-0.27,0.176-0.359s0.246-0.137,0.385-0.137
			c0.063,0,0.136,0.008,0.216,0.023c0.08,0.018,0.146,0.051,0.2,0.105c0.074,0.086,0.117,0.189,0.128,0.311
			c0.01,0.123,0.048,0.229,0.111,0.313c0.139,0.193,0.274,0.377,0.408,0.553s0.28,0.33,0.44,0.463c0.16,0.135,0.338,0.24,0.536,0.32
			c0.197,0.08,0.424,0.121,0.68,0.121c0.224,0,0.45-0.025,0.68-0.072c0.229-0.049,0.438-0.125,0.624-0.232
			c0.187-0.105,0.342-0.248,0.464-0.424c0.123-0.176,0.185-0.393,0.185-0.648c0-0.182-0.029-0.324-0.088-0.432
			c-0.06-0.107-0.179-0.197-0.36-0.271c-0.331-0.107-0.678-0.182-1.04-0.225s-0.72-0.086-1.072-0.127
			c-0.352-0.043-0.69-0.102-1.016-0.178c-0.325-0.074-0.608-0.197-0.848-0.367c-0.24-0.17-0.433-0.404-0.576-0.703
			c-0.145-0.299-0.216-0.693-0.216-1.186c0-0.564,0.136-1.012,0.407-1.344c0.272-0.33,0.664-0.602,1.177-0.816
			c0.117-0.053,0.242-0.098,0.376-0.135c0.133-0.037,0.269-0.057,0.407-0.057h0.145c0.384,0.055,0.775,0.137,1.176,0.248
			s0.76,0.279,1.08,0.504c0.074-0.053,0.136-0.117,0.184-0.191c0.049-0.074,0.097-0.145,0.145-0.209
			c0.048-0.063,0.104-0.117,0.168-0.16c0.063-0.041,0.149-0.063,0.256-0.063c0.149,0,0.285,0.055,0.408,0.168
			c0.122,0.111,0.179,0.242,0.168,0.391c0,0.064,0.002,0.18,0.008,0.344c0.005,0.166,0.011,0.342,0.016,0.529
			c0.006,0.186,0.014,0.363,0.024,0.527c0.011,0.166,0.016,0.281,0.016,0.344v0.193c0,0.191-0.056,0.387-0.168,0.584
			c-0.111,0.197-0.279,0.295-0.504,0.295c-0.191,0-0.344-0.084-0.456-0.256c-0.111-0.17-0.216-0.365-0.312-0.584
			s-0.208-0.43-0.336-0.633c-0.128-0.201-0.31-0.336-0.544-0.398c-0.149-0.043-0.265-0.072-0.345-0.088
			c-0.079-0.018-0.157-0.029-0.231-0.041c-0.075-0.01-0.155-0.016-0.24-0.016s-0.203,0-0.352,0c-0.043,0-0.139,0.002-0.288,0.008
			s-0.251,0.008-0.305,0.008c-0.096,0.033-0.191,0.08-0.287,0.145c-0.097,0.064-0.185,0.141-0.265,0.232
			c-0.08,0.09-0.144,0.189-0.191,0.295c-0.049,0.107-0.072,0.209-0.072,0.305c0,0.246,0.062,0.432,0.184,0.561
			c0.123,0.127,0.291,0.219,0.504,0.271c0.598-0.021,1.206,0.021,1.824,0.127c0.618,0.107,1.2,0.273,1.744,0.496
			c0.277,0.256,0.515,0.553,0.712,0.889s0.296,0.701,0.296,1.096c0,0.406-0.085,0.779-0.256,1.121
			c-0.171,0.34-0.397,0.637-0.68,0.887c-0.283,0.252-0.603,0.445-0.96,0.584s-0.729,0.209-1.112,0.209
			c-0.064,0-0.149-0.004-0.256-0.008c-0.106-0.006-0.166-0.008-0.176-0.008c-0.021,0-0.067-0.01-0.137-0.025
			s-0.144-0.033-0.224-0.055s-0.157-0.043-0.232-0.064c-0.074-0.021-0.128-0.037-0.159-0.049c-0.192-0.053-0.363-0.156-0.513-0.311
			c-0.149-0.156-0.314-0.281-0.496-0.377c-0.063,0.031-0.109,0.1-0.136,0.199c-0.026,0.102-0.059,0.209-0.096,0.32
			c-0.038,0.113-0.102,0.211-0.192,0.297c-0.091,0.084-0.231,0.127-0.424,0.127c-0.234,0-0.392-0.092-0.472-0.279
			s-0.12-0.377-0.12-0.568C35.389,42.72,35.391,42.632,35.396,42.562z"/>
		<path d="M46.892,39.202c-0.021-0.404,0.032-0.783,0.16-1.135v-1.773h-2.016c-0.149,0-0.27-0.074-0.36-0.223
			s-0.136-0.287-0.136-0.416c0-0.191,0.062-0.35,0.184-0.479c0.123-0.127,0.248-0.25,0.376-0.367
			c0.128-0.107,0.28-0.166,0.456-0.178c0.176-0.01,0.354-0.016,0.536-0.016c0.192,0,0.37-0.018,0.536-0.057
			c0.165-0.037,0.307-0.141,0.424-0.313c0.106-0.162,0.16-0.375,0.16-0.645c0-0.268,0.008-0.533,0.024-0.795
			c0.016-0.264,0.071-0.488,0.168-0.676c0.096-0.188,0.298-0.283,0.607-0.283s0.499,0.096,0.568,0.283s0.104,0.41,0.104,0.666
			c0,0.248-0.014,0.488-0.04,0.725s-0.04,0.482-0.04,0.74c0,0.064,0,0.16,0,0.289s0.006,0.199,0.017,0.209l0.111,0.113
			c0.011,0.01,0.086,0.016,0.225,0.016c0.149,0,0.267,0,0.352,0c0.225,0,0.44-0.014,0.648-0.041
			c0.208-0.025,0.418-0.039,0.632-0.039c0.245,0,0.448,0.096,0.608,0.287c0.159,0.193,0.239,0.4,0.239,0.625
			c0,0.213-0.066,0.396-0.199,0.553c-0.134,0.154-0.308,0.23-0.521,0.23c-0.267,0-0.515-0.033-0.744-0.104
			c-0.229-0.068-0.499-0.104-0.808-0.104c-0.064,0-0.157,0.002-0.28,0.008s-0.189,0.014-0.2,0.023l-0.191,0.176v4.436
			c0,0.086,0.029,0.182,0.088,0.287c0.059,0.107,0.133,0.207,0.224,0.303s0.189,0.178,0.296,0.248
			c0.106,0.068,0.208,0.104,0.305,0.104c0.256,0,0.458-0.063,0.607-0.184c0.149-0.123,0.265-0.275,0.344-0.457
			c0.08-0.182,0.145-0.375,0.192-0.584c0.048-0.207,0.099-0.402,0.152-0.584c0.053-0.182,0.128-0.332,0.224-0.455
			s0.234-0.186,0.416-0.186c0.267,0,0.453,0.098,0.56,0.289c0.107,0.191,0.16,0.4,0.16,0.623c0,0.363-0.053,0.732-0.16,1.105
			c-0.106,0.373-0.264,0.711-0.472,1.016c-0.208,0.303-0.467,0.555-0.775,0.752c-0.31,0.197-0.667,0.295-1.072,0.295
			c-0.16,0-0.283-0.004-0.368-0.016c-0.086-0.01-0.163-0.029-0.232-0.055c-0.069-0.027-0.139-0.064-0.208-0.113
			c-0.069-0.047-0.162-0.113-0.279-0.199c-0.011,0-0.043-0.014-0.097-0.039c-0.053-0.027-0.106-0.055-0.159-0.08
			c-0.054-0.027-0.107-0.051-0.16-0.072c-0.054-0.021-0.086-0.037-0.097-0.047c-0.438-0.342-0.723-0.715-0.855-1.119
			c-0.134-0.404-0.2-0.873-0.2-1.404C46.924,39.995,46.913,39.606,46.892,39.202z"/>
		<path d="M54.021,38.538c0.059-0.395,0.157-0.771,0.296-1.129s0.322-0.688,0.552-0.992c0.229-0.303,0.521-0.551,0.872-0.744
			c0.032-0.021,0.091-0.053,0.176-0.096c0.086-0.043,0.177-0.088,0.272-0.135c0.096-0.049,0.184-0.092,0.264-0.129
			s0.137-0.061,0.168-0.072c0.117-0.053,0.237-0.076,0.36-0.072c0.122,0.006,0.242,0.008,0.36,0.008
			c0.683,0,1.258,0.164,1.728,0.488c0.47,0.326,0.906,0.744,1.313,1.256c0.042,0.064,0.098,0.186,0.168,0.361
			c0.069,0.176,0.133,0.367,0.191,0.576c0.059,0.207,0.109,0.41,0.152,0.607c0.042,0.197,0.063,0.344,0.063,0.439
			c0,0.021-0.002,0.066-0.008,0.137c-0.005,0.068-0.008,0.113-0.008,0.135c-0.096,0.16-0.224,0.268-0.384,0.32
			c-0.16,0.055-0.325,0.096-0.496,0.129c-0.117,0-0.328-0.004-0.632-0.008c-0.305-0.006-0.627-0.008-0.968-0.008
			c-0.331,0-0.648,0.002-0.952,0.008c-0.305,0.004-0.515,0.008-0.633,0.008c-0.117,0-0.258,0.002-0.424,0.008
			c-0.165,0.006-0.328,0.01-0.487,0.016c-0.16,0.006-0.357,0.02-0.593,0.041l-0.063,0.047c0,0.012-0.003,0.049-0.008,0.113
			c-0.006,0.064-0.009,0.107-0.009,0.129c0,0.311,0.057,0.607,0.169,0.885c0.111,0.279,0.266,0.523,0.464,0.732
			c0.197,0.211,0.429,0.377,0.695,0.5s0.561,0.186,0.88,0.186c0.032,0,0.104-0.004,0.217-0.008c0.111-0.006,0.184-0.01,0.216-0.01
			c0.149-0.117,0.32-0.199,0.512-0.248c0.192-0.047,0.357-0.129,0.496-0.248c0.106-0.096,0.205-0.213,0.296-0.352
			s0.187-0.271,0.288-0.4c0.102-0.127,0.211-0.234,0.328-0.318c0.117-0.086,0.261-0.129,0.432-0.129c0.16,0,0.291,0.049,0.393,0.145
			c0.101,0.096,0.151,0.219,0.151,0.367c0,0.246-0.053,0.467-0.159,0.664c-0.107,0.197-0.225,0.393-0.353,0.584
			c-0.32,0.465-0.741,0.795-1.264,0.996c-0.523,0.201-1.062,0.301-1.616,0.301c-0.544,0-1.035-0.107-1.472-0.32
			c-0.438-0.213-0.806-0.502-1.104-0.863c-0.299-0.363-0.528-0.781-0.688-1.258c-0.16-0.473-0.24-0.973-0.24-1.494
			C53.933,39.315,53.962,38.933,54.021,38.538z M55.437,38.313c0,0.031,0.021,0.049,0.063,0.049h3.696
			c0.021,0,0.051-0.014,0.088-0.041c0.037-0.025,0.066-0.051,0.088-0.072c0.011-0.021,0.017-0.059,0.017-0.111s0-0.09,0-0.111
			c0-0.258-0.064-0.473-0.192-0.648s-0.288-0.314-0.479-0.416c-0.192-0.102-0.403-0.176-0.633-0.225
			c-0.229-0.047-0.445-0.072-0.647-0.072c-0.224,0-0.453,0.029-0.688,0.088c-0.234,0.059-0.447,0.152-0.64,0.281
			c-0.192,0.127-0.352,0.291-0.479,0.488c-0.129,0.197-0.192,0.428-0.192,0.695C55.437,38.239,55.437,38.271,55.437,38.313z"/>
		<path d="M66.668,35.05c0.235,0.043,0.454,0.127,0.656,0.256c0.117,0.086,0.208,0.162,0.272,0.232
			c0.063,0.068,0.17,0.104,0.319,0.104c0.011,0,0.043-0.006,0.097-0.016l0.128-0.385v-1.488c0-0.139-0.099-0.219-0.296-0.24
			c-0.198-0.02-0.414-0.045-0.648-0.07c-0.234-0.027-0.451-0.094-0.647-0.201c-0.198-0.105-0.297-0.314-0.297-0.623
			c0-0.15,0.049-0.27,0.145-0.361c0.096-0.09,0.219-0.135,0.368-0.135H68.7c0.085,0,0.171,0.025,0.256,0.08
			c0.086,0.053,0.163,0.119,0.232,0.199s0.125,0.168,0.168,0.264c0.042,0.096,0.063,0.188,0.063,0.271v4.945l0.129,0.303v3.633
			l0.159,0.129c0.106,0,0.259-0.01,0.456-0.025s0.393-0.01,0.584,0.016c0.192,0.027,0.36,0.084,0.504,0.17
			c0.145,0.084,0.217,0.223,0.217,0.416c0,0.213-0.051,0.383-0.152,0.512c-0.102,0.127-0.232,0.223-0.392,0.287
			c-0.16,0.064-0.334,0.104-0.521,0.121c-0.187,0.016-0.36,0.023-0.52,0.023c-0.363,0-0.675-0.037-0.937-0.113
			c-0.262-0.074-0.51-0.25-0.744-0.527c-0.011,0-0.026-0.002-0.048-0.008s-0.037-0.008-0.048-0.008c-0.054,0-0.094,0.008-0.12,0.023
			s-0.048,0.035-0.063,0.057c-0.017,0.021-0.04,0.047-0.072,0.08c-0.032,0.031-0.086,0.068-0.16,0.111
			c-0.245,0.139-0.467,0.256-0.664,0.352c-0.197,0.098-0.43,0.145-0.696,0.145c-0.395,0-0.766-0.068-1.111-0.207
			c-0.347-0.139-0.662-0.322-0.944-0.553c-0.283-0.229-0.533-0.498-0.752-0.809c-0.219-0.309-0.392-0.639-0.521-0.992
			c0-0.01-0.011-0.045-0.031-0.104c-0.021-0.059-0.046-0.123-0.072-0.191c-0.026-0.07-0.048-0.139-0.064-0.209
			c-0.016-0.068-0.023-0.113-0.023-0.135v-1.936c0-0.076,0.026-0.174,0.08-0.297c0.053-0.123,0.09-0.211,0.111-0.264
			c0.011-0.033,0.035-0.104,0.072-0.217c0.037-0.111,0.074-0.236,0.112-0.375c0.037-0.139,0.074-0.268,0.112-0.385
			c0.037-0.117,0.061-0.191,0.071-0.225c0.011-0.01,0.032-0.047,0.064-0.111l1.312-1.328c0.064-0.064,0.146-0.111,0.248-0.145
			c0.102-0.031,0.211-0.055,0.328-0.07c0.117-0.018,0.232-0.027,0.344-0.033c0.112-0.006,0.217-0.008,0.313-0.008
			C66.204,34.985,66.434,35.007,66.668,35.05z M64.301,40.161c0.074,0.348,0.194,0.664,0.359,0.953
			c0.165,0.287,0.384,0.521,0.656,0.703c0.271,0.182,0.6,0.271,0.984,0.271c0.309,0,0.578-0.098,0.808-0.295
			s0.421-0.438,0.576-0.721c0.154-0.283,0.269-0.586,0.344-0.912c0.074-0.324,0.112-0.615,0.112-0.871
			c0-0.311-0.04-0.635-0.12-0.977s-0.206-0.656-0.376-0.943c-0.171-0.289-0.39-0.529-0.656-0.721s-0.581-0.287-0.944-0.287
			c-0.352,0-0.647,0.096-0.888,0.287s-0.432,0.428-0.576,0.703c-0.144,0.279-0.245,0.582-0.304,0.912
			c-0.059,0.332-0.088,0.631-0.088,0.896C64.188,39.481,64.226,39.815,64.301,40.161z"/>
		<path d="M82.988,42.569c0.021-0.117,0.057-0.225,0.104-0.32s0.114-0.172,0.2-0.232c0.085-0.057,0.197-0.088,0.336-0.088h0.096
			c0.021,0.012,0.082,0.025,0.184,0.041s0.163,0.023,0.185,0.023h0.032c0.053,0,0.125-0.006,0.216-0.016
			c0.09-0.01,0.184-0.023,0.279-0.041c0.097-0.016,0.187-0.031,0.272-0.047c0.085-0.016,0.154-0.023,0.208-0.023
			c0.064-0.043,0.112-0.121,0.144-0.232c0.032-0.111,0.049-0.201,0.049-0.264l-0.032-3.76v-0.305l-0.032-2.191
			c0.054-0.139,0.077-0.297,0.072-0.473c-0.006-0.176-0.008-0.328-0.008-0.457v-0.398l-0.128-0.113
			c-0.011-0.01-0.054-0.016-0.129-0.016c-0.074,0-0.133,0-0.176,0c-0.182,0-0.354,0.014-0.52,0.041
			c-0.166,0.025-0.339,0.039-0.521,0.039c-0.288,0-0.522-0.064-0.704-0.191c-0.181-0.129-0.271-0.348-0.271-0.656
			c0-0.256,0.074-0.473,0.224-0.648s0.362-0.264,0.641-0.264c1.301,0,2.597,0.014,3.888,0.039c1.29,0.027,2.586,0.035,3.888,0.025
			c0.16,0.021,0.293,0.123,0.4,0.303c0.106,0.182,0.16,0.354,0.16,0.514v3.375c0,0.191-0.07,0.348-0.208,0.465
			c-0.139,0.117-0.299,0.176-0.48,0.176c-0.149,0-0.296-0.055-0.439-0.16c-0.145-0.107-0.217-0.246-0.217-0.416v-1.697
			c0-0.01-0.034-0.078-0.104-0.207s-0.126-0.225-0.168-0.287c-0.054-0.064-0.142-0.152-0.264-0.266
			c-0.123-0.111-0.228-0.168-0.313-0.168h-3.056l-0.064,0.064c0,0.064-0.003,0.184-0.008,0.359
			c-0.006,0.178-0.014,0.361-0.024,0.553s-0.019,0.373-0.023,0.545c-0.006,0.17-0.008,0.287-0.008,0.352
			c0,0.021-0.011,0.086-0.032,0.191c-0.021,0.107-0.032,0.172-0.032,0.191v0.033v0.016c0.011,0.053,0.021,0.119,0.032,0.199
			s0.023,0.156,0.04,0.225c0.016,0.07,0.034,0.158,0.056,0.264l0.064,0.064h0.815c0.117-0.086,0.248-0.154,0.393-0.207
			c0.144-0.055,0.258-0.15,0.344-0.289c0.074-0.117,0.117-0.273,0.128-0.473c0.011-0.197,0.026-0.391,0.048-0.584
			c0.021-0.191,0.069-0.357,0.145-0.496c0.074-0.137,0.218-0.207,0.432-0.207c0.171,0,0.31,0.061,0.416,0.184s0.16,0.275,0.16,0.457
			v5.248c0,0.34-0.166,0.512-0.496,0.512c-0.214,0-0.374-0.066-0.48-0.201c-0.106-0.133-0.181-0.293-0.224-0.479
			c-0.043-0.188-0.064-0.383-0.064-0.584c0-0.203,0-0.369,0-0.496c-0.021-0.055-0.063-0.135-0.128-0.24
			c-0.063-0.107-0.141-0.211-0.231-0.313s-0.182-0.191-0.272-0.271s-0.168-0.121-0.231-0.121H86.86
			c-0.043,0-0.063,0.021-0.063,0.064c-0.021,0.021-0.043,0.064-0.064,0.129v3.504l0.128,0.127h1.616
			c0.256-0.074,0.488-0.109,0.696-0.104s0.399,0.002,0.576-0.008c0.176-0.012,0.338-0.057,0.487-0.137s0.294-0.248,0.433-0.504
			c0.021-0.031,0.048-0.082,0.08-0.152c0.031-0.068,0.048-0.119,0.048-0.152V39.37c0-0.182,0.063-0.342,0.191-0.48
			s0.283-0.209,0.464-0.209c0.225,0,0.405,0.105,0.544,0.313c0.139,0.209,0.208,0.414,0.208,0.617v2.191
			c0.054,0.117,0.083,0.215,0.089,0.295c0.005,0.08,0.008,0.18,0.008,0.297c0,0.395-0.118,0.699-0.353,0.912s-0.544,0.32-0.928,0.32
			c-0.117,0-0.229,0-0.336,0c-0.096,0-0.203-0.021-0.32-0.064h-5.328c-0.139,0.053-0.293,0.078-0.464,0.072
			s-0.319-0.008-0.447-0.008c-0.15,0-0.294-0.004-0.433-0.008c-0.139-0.006-0.264-0.033-0.376-0.08
			c-0.112-0.049-0.2-0.121-0.264-0.217c-0.064-0.096-0.096-0.234-0.096-0.416C82.957,42.8,82.967,42.687,82.988,42.569z"/>
		<path d="M98.028,35.05c0.235,0.043,0.454,0.127,0.656,0.256c0.117,0.086,0.208,0.162,0.272,0.232
			c0.063,0.068,0.17,0.104,0.319,0.104c0.011,0,0.043-0.006,0.097-0.016l0.128-0.385v-1.488c0-0.139-0.099-0.219-0.296-0.24
			c-0.198-0.02-0.414-0.045-0.648-0.07c-0.234-0.027-0.451-0.094-0.647-0.201c-0.198-0.105-0.297-0.314-0.297-0.623
			c0-0.15,0.049-0.27,0.145-0.361c0.096-0.09,0.219-0.135,0.368-0.135h1.936c0.085,0,0.171,0.025,0.256,0.08
			c0.086,0.053,0.163,0.119,0.232,0.199s0.125,0.168,0.168,0.264c0.042,0.096,0.063,0.188,0.063,0.271v4.945l0.129,0.303v3.633
			l0.159,0.129c0.106,0,0.259-0.01,0.456-0.025s0.393-0.01,0.584,0.016c0.192,0.027,0.36,0.084,0.504,0.17
			c0.145,0.084,0.217,0.223,0.217,0.416c0,0.213-0.051,0.383-0.152,0.512c-0.102,0.127-0.232,0.223-0.392,0.287
			c-0.16,0.064-0.334,0.104-0.521,0.121c-0.187,0.016-0.36,0.023-0.52,0.023c-0.363,0-0.675-0.037-0.937-0.113
			c-0.262-0.074-0.51-0.25-0.744-0.527c-0.011,0-0.026-0.002-0.048-0.008s-0.037-0.008-0.048-0.008c-0.054,0-0.094,0.008-0.12,0.023
			s-0.048,0.035-0.063,0.057c-0.017,0.021-0.04,0.047-0.072,0.08c-0.032,0.031-0.086,0.068-0.16,0.111
			c-0.245,0.139-0.467,0.256-0.664,0.352c-0.197,0.098-0.43,0.145-0.696,0.145c-0.395,0-0.766-0.068-1.111-0.207
			c-0.347-0.139-0.662-0.322-0.944-0.553c-0.283-0.229-0.533-0.498-0.752-0.809c-0.219-0.309-0.392-0.639-0.521-0.992
			c0-0.01-0.011-0.045-0.031-0.104c-0.021-0.059-0.046-0.123-0.072-0.191c-0.026-0.07-0.048-0.139-0.064-0.209
			c-0.016-0.068-0.023-0.113-0.023-0.135v-1.936c0-0.076,0.026-0.174,0.08-0.297c0.053-0.123,0.09-0.211,0.111-0.264
			c0.011-0.033,0.035-0.104,0.072-0.217c0.037-0.111,0.074-0.236,0.112-0.375c0.037-0.139,0.074-0.268,0.112-0.385
			c0.037-0.117,0.061-0.191,0.071-0.225c0.011-0.01,0.032-0.047,0.064-0.111l1.312-1.328c0.064-0.064,0.146-0.111,0.248-0.145
			c0.102-0.031,0.211-0.055,0.328-0.07c0.117-0.018,0.232-0.027,0.344-0.033c0.112-0.006,0.217-0.008,0.313-0.008
			C97.564,34.985,97.794,35.007,98.028,35.05z M95.661,40.161c0.074,0.348,0.194,0.664,0.359,0.953
			c0.165,0.287,0.384,0.521,0.656,0.703c0.271,0.182,0.6,0.271,0.984,0.271c0.309,0,0.578-0.098,0.808-0.295
			s0.421-0.438,0.576-0.721c0.154-0.283,0.269-0.586,0.344-0.912c0.074-0.324,0.112-0.615,0.112-0.871
			c0-0.311-0.04-0.635-0.12-0.977s-0.206-0.656-0.376-0.943c-0.171-0.289-0.39-0.529-0.656-0.721s-0.581-0.287-0.944-0.287
			c-0.352,0-0.647,0.096-0.888,0.287s-0.432,0.428-0.576,0.703c-0.144,0.279-0.245,0.582-0.304,0.912
			c-0.059,0.332-0.088,0.631-0.088,0.896C95.549,39.481,95.586,39.815,95.661,40.161z"/>
		<path d="M105.845,38.874c0.069-0.48,0.104-0.965,0.104-1.457c0-0.031,0-0.08,0-0.143c0-0.076-0.003-0.152-0.008-0.232
			c-0.006-0.08-0.008-0.152-0.008-0.217c0-0.074,0-0.127,0-0.16c-0.118-0.074-0.248-0.125-0.393-0.152
			c-0.144-0.025-0.279-0.059-0.407-0.096s-0.235-0.098-0.32-0.184c-0.086-0.086-0.128-0.225-0.128-0.416
			c0-0.182,0.056-0.336,0.168-0.465c0.112-0.127,0.264-0.191,0.456-0.191h1.312c0.16,0,0.285,0.035,0.376,0.104
			c0.091,0.07,0.16,0.16,0.208,0.271c0.048,0.113,0.08,0.232,0.097,0.359c0.016,0.129,0.023,0.244,0.023,0.352
			c0,0.223-0.014,0.441-0.04,0.654s-0.04,0.432-0.04,0.654c0,0.074,0.003,0.189,0.008,0.344c0.006,0.154,0.009,0.242,0.009,0.264
			c0,0.105,0.005,0.295,0.016,0.566s0.021,0.561,0.032,0.869s0.023,0.6,0.04,0.871c0.016,0.271,0.023,0.459,0.023,0.566
			c0.043,0.275,0.131,0.506,0.265,0.686c0.133,0.182,0.354,0.271,0.664,0.271c0.128,0,0.271-0.01,0.432-0.031s0.293-0.08,0.4-0.176
			c0.191-0.172,0.389-0.365,0.592-0.584c0.202-0.219,0.384-0.451,0.544-0.697c0.16-0.244,0.293-0.504,0.399-0.775
			c0.107-0.271,0.16-0.547,0.16-0.824v-2.32c0-0.041-0.071-0.072-0.216-0.088c-0.144-0.016-0.304-0.045-0.479-0.088
			c-0.177-0.043-0.336-0.113-0.48-0.215c-0.144-0.102-0.216-0.254-0.216-0.457c0-0.182,0.056-0.324,0.168-0.432
			s0.27-0.16,0.472-0.16h1.44c0.191,0,0.33,0.061,0.416,0.184c0.085,0.123,0.144,0.268,0.176,0.432
			c0.032,0.166,0.048,0.34,0.048,0.521s0.017,0.324,0.048,0.432l-0.031,1.695v0.305l-0.032,3.008l0.128,0.127
			c0.16,0,0.328,0.006,0.504,0.018c0.176,0.01,0.341,0.045,0.496,0.104c0.154,0.059,0.28,0.145,0.376,0.258s0.144,0.277,0.144,0.494
			c0,0.193-0.037,0.344-0.111,0.451c-0.075,0.107-0.174,0.186-0.296,0.234c-0.123,0.049-0.259,0.078-0.408,0.09
			c-0.149,0.01-0.299,0.016-0.448,0.016c-0.086,0-0.222-0.006-0.408-0.016c-0.187-0.012-0.376-0.041-0.567-0.09
			c-0.192-0.049-0.36-0.121-0.505-0.219c-0.144-0.096-0.216-0.225-0.216-0.387v-0.695h-0.063c-0.182,0.193-0.36,0.381-0.536,0.559
			s-0.363,0.338-0.561,0.484c-0.197,0.145-0.41,0.262-0.64,0.348s-0.478,0.129-0.744,0.129c-0.438,0-0.815-0.102-1.136-0.305
			s-0.584-0.461-0.792-0.775s-0.362-0.666-0.464-1.057c-0.102-0.389-0.152-0.775-0.152-1.16
			C105.74,39.839,105.775,39.353,105.845,38.874z"/>
		<path d="M115.846,37.858c0.144-0.551,0.362-1.047,0.655-1.488c0.294-0.443,0.662-0.807,1.104-1.088
			c0.442-0.283,0.962-0.424,1.56-0.424c0.054,0,0.123,0,0.208,0c0.097,0,0.149,0.004,0.16,0.016c0.043,0,0.125,0.014,0.248,0.039
			c0.123,0.027,0.251,0.057,0.384,0.088c0.134,0.033,0.259,0.066,0.376,0.105c0.117,0.037,0.197,0.061,0.24,0.07
			c0.171,0.15,0.35,0.305,0.536,0.465s0.357,0.334,0.512,0.52c0.154,0.188,0.28,0.391,0.376,0.607
			c0.097,0.219,0.145,0.451,0.145,0.697c0,0.16-0.024,0.322-0.072,0.488c-0.048,0.164-0.117,0.311-0.208,0.439
			s-0.203,0.232-0.336,0.313c-0.134,0.08-0.291,0.119-0.472,0.119c-0.331,0-0.608-0.117-0.832-0.352
			c-0.225-0.234-0.336-0.512-0.336-0.832c0-0.139,0.021-0.264,0.063-0.377c0.043-0.111,0.064-0.242,0.064-0.391v-0.256
			c-0.011-0.012-0.054-0.055-0.128-0.129c-0.075-0.074-0.139-0.111-0.192-0.111h-1.056c-0.021,0-0.078,0.014-0.168,0.039
			c-0.091,0.027-0.163,0.051-0.217,0.072c-0.287,0.129-0.525,0.285-0.712,0.473c-0.187,0.186-0.333,0.396-0.439,0.631
			c-0.107,0.236-0.182,0.492-0.225,0.77c-0.042,0.277-0.063,0.564-0.063,0.863c0,0.268,0.026,0.563,0.08,0.889
			c0.053,0.324,0.154,0.6,0.304,0.822c0.032,0.033,0.085,0.09,0.16,0.17c0.074,0.078,0.154,0.162,0.24,0.246
			c0.085,0.086,0.168,0.166,0.248,0.24c0.08,0.076,0.136,0.129,0.168,0.16c0.031,0.033,0.085,0.072,0.16,0.121
			c0.074,0.047,0.122,0.072,0.144,0.072h1.376c0.171,0,0.32-0.047,0.448-0.137s0.242-0.203,0.344-0.336s0.192-0.279,0.272-0.439
			c0.079-0.16,0.162-0.307,0.247-0.441c0.086-0.133,0.177-0.244,0.272-0.336c0.096-0.09,0.208-0.135,0.336-0.135
			c0.192,0,0.33,0.072,0.416,0.215c0.085,0.145,0.128,0.307,0.128,0.488c0,0.373-0.094,0.727-0.28,1.057s-0.427,0.621-0.72,0.871
			c-0.293,0.252-0.621,0.451-0.983,0.6c-0.363,0.15-0.721,0.225-1.072,0.225c-0.523,0-1.008-0.123-1.456-0.367
			c-0.448-0.246-0.838-0.563-1.168-0.953c-0.331-0.389-0.59-0.828-0.776-1.32c-0.187-0.49-0.28-0.98-0.28-1.471
			C115.629,38.942,115.701,38.407,115.846,37.858z"/>
		<path d="M124.604,39.522c0.256-0.357,0.576-0.619,0.96-0.785s0.803-0.266,1.256-0.305c0.453-0.037,0.872-0.07,1.256-0.104
			c0.385-0.031,0.704-0.09,0.96-0.176c0.257-0.086,0.385-0.256,0.385-0.512c0-0.182-0.032-0.352-0.097-0.512
			c-0.063-0.16-0.182-0.289-0.352-0.385c-0.064-0.031-0.16-0.08-0.288-0.145c-0.128-0.063-0.197-0.096-0.208-0.096h-1.504
			c-0.086,0-0.145,0.047-0.176,0.137c-0.032,0.09-0.062,0.203-0.088,0.336c-0.027,0.133-0.057,0.279-0.089,0.439
			c-0.031,0.16-0.082,0.307-0.151,0.441c-0.069,0.133-0.171,0.244-0.305,0.336c-0.133,0.09-0.312,0.135-0.535,0.135
			c-0.342,0-0.622-0.111-0.841-0.336s-0.327-0.5-0.327-0.832c0-0.191,0.031-0.361,0.096-0.512c0.063-0.148,0.149-0.287,0.256-0.416
			c0.106-0.127,0.229-0.248,0.368-0.359c0.139-0.113,0.277-0.217,0.416-0.313c0.117-0.086,0.24-0.178,0.368-0.279
			s0.277-0.152,0.447-0.152l2.448,0.031c0.139,0,0.302,0.059,0.488,0.176s0.368,0.254,0.544,0.414s0.33,0.328,0.464,0.51
			c0.134,0.18,0.216,0.334,0.248,0.461c0.011,0.033,0.026,0.09,0.048,0.176s0.043,0.172,0.064,0.264
			c0.021,0.09,0.04,0.174,0.056,0.254s0.024,0.135,0.024,0.168v0.492c0,0.129,0.002,0.273,0.008,0.439
			c0.005,0.164-0.019,0.311-0.072,0.438v2.691c0,0.297,0.128,0.445,0.384,0.445c0.171,0,0.277-0.074,0.32-0.223
			c0.043-0.15,0.08-0.318,0.112-0.504c0.031-0.188,0.082-0.355,0.151-0.504c0.069-0.15,0.217-0.225,0.44-0.225
			c0.117,0,0.219,0.031,0.304,0.096c0.086,0.064,0.154,0.145,0.208,0.24s0.091,0.199,0.112,0.313
			c0.021,0.111,0.032,0.221,0.032,0.328c0,0.234-0.038,0.469-0.112,0.703c-0.075,0.234-0.179,0.445-0.313,0.633
			c-0.133,0.186-0.298,0.338-0.495,0.455c-0.198,0.117-0.425,0.176-0.681,0.176c-0.202,0-0.379-0.023-0.527-0.072
			c-0.149-0.047-0.315-0.131-0.496-0.248c-0.064-0.031-0.12-0.082-0.168-0.15c-0.048-0.07-0.097-0.139-0.145-0.209
			c-0.048-0.068-0.102-0.131-0.16-0.184s-0.125-0.08-0.199-0.08h-0.08c-0.149,0.074-0.302,0.166-0.456,0.271
			c-0.155,0.107-0.313,0.211-0.473,0.313c-0.159,0.102-0.325,0.186-0.496,0.256c-0.17,0.07-0.347,0.104-0.527,0.104h-1.44
			c-0.117,0-0.219-0.029-0.304-0.088c-0.086-0.059-0.171-0.115-0.256-0.168c-0.438-0.256-0.755-0.572-0.952-0.951
			s-0.296-0.818-0.296-1.32C124.221,40.388,124.349,39.88,124.604,39.522z M125.517,41.337c0.032,0.117,0.077,0.232,0.136,0.344
			c0.059,0.113,0.131,0.207,0.216,0.281c0.086,0.074,0.182,0.111,0.288,0.111h1.632c0.011,0,0.046-0.016,0.104-0.047
			c0.059-0.033,0.109-0.059,0.152-0.08c0.021-0.021,0.071-0.055,0.151-0.098c0.08-0.041,0.131-0.068,0.152-0.08
			c0.395-0.266,0.661-0.543,0.8-0.832c0.139-0.287,0.208-0.66,0.208-1.119v-0.191c-0.011,0-0.032-0.008-0.063-0.025
			c-0.032-0.016-0.054-0.023-0.064-0.023c-0.011-0.01-0.021-0.016-0.032-0.016l-0.032,0.016c-0.031,0-0.119,0.014-0.264,0.041
			c-0.144,0.025-0.296,0.053-0.456,0.08c-0.16,0.025-0.312,0.053-0.456,0.08c-0.144,0.025-0.231,0.039-0.264,0.039
			c-0.256,0.043-0.515,0.074-0.776,0.096c-0.261,0.021-0.525,0.055-0.792,0.096c-0.139,0.012-0.261,0.098-0.368,0.256
			c-0.053,0.076-0.119,0.193-0.199,0.354s-0.12,0.299-0.12,0.416C125.469,41.118,125.484,41.22,125.517,41.337z"/>
		<path d="M137.021,39.202c-0.021-0.404,0.032-0.783,0.16-1.135v-1.773h-2.016c-0.149,0-0.27-0.074-0.36-0.223
			s-0.136-0.287-0.136-0.416c0-0.191,0.062-0.35,0.184-0.479c0.123-0.127,0.248-0.25,0.376-0.367
			c0.128-0.107,0.28-0.166,0.456-0.178c0.176-0.01,0.354-0.016,0.536-0.016c0.192,0,0.37-0.018,0.536-0.057
			c0.165-0.037,0.307-0.141,0.424-0.313c0.106-0.162,0.16-0.375,0.16-0.645c0-0.268,0.008-0.533,0.024-0.795
			c0.016-0.264,0.071-0.488,0.168-0.676c0.096-0.188,0.298-0.283,0.607-0.283s0.499,0.096,0.568,0.283s0.104,0.41,0.104,0.666
			c0,0.248-0.014,0.488-0.04,0.725s-0.04,0.482-0.04,0.74c0,0.064,0,0.16,0,0.289s0.006,0.199,0.017,0.209l0.111,0.113
			c0.011,0.01,0.086,0.016,0.225,0.016c0.149,0,0.267,0,0.352,0c0.225,0,0.44-0.014,0.648-0.041
			c0.208-0.025,0.418-0.039,0.632-0.039c0.245,0,0.448,0.096,0.608,0.287c0.159,0.193,0.239,0.4,0.239,0.625
			c0,0.213-0.066,0.396-0.199,0.553c-0.134,0.154-0.308,0.23-0.521,0.23c-0.267,0-0.515-0.033-0.744-0.104
			c-0.229-0.068-0.499-0.104-0.808-0.104c-0.064,0-0.157,0.002-0.28,0.008s-0.189,0.014-0.2,0.023l-0.191,0.176v4.436
			c0,0.086,0.029,0.182,0.088,0.287c0.059,0.107,0.133,0.207,0.224,0.303s0.189,0.178,0.296,0.248
			c0.106,0.068,0.208,0.104,0.305,0.104c0.256,0,0.458-0.063,0.607-0.184c0.149-0.123,0.265-0.275,0.344-0.457
			c0.08-0.182,0.145-0.375,0.192-0.584c0.048-0.207,0.099-0.402,0.152-0.584c0.053-0.182,0.128-0.332,0.224-0.455
			s0.234-0.186,0.416-0.186c0.267,0,0.453,0.098,0.56,0.289c0.107,0.191,0.16,0.4,0.16,0.623c0,0.363-0.053,0.732-0.16,1.105
			c-0.106,0.373-0.264,0.711-0.472,1.016c-0.208,0.303-0.467,0.555-0.775,0.752c-0.31,0.197-0.667,0.295-1.072,0.295
			c-0.16,0-0.283-0.004-0.368-0.016c-0.086-0.01-0.163-0.029-0.232-0.055c-0.069-0.027-0.139-0.064-0.208-0.113
			c-0.069-0.047-0.162-0.113-0.279-0.199c-0.011,0-0.043-0.014-0.097-0.039c-0.053-0.027-0.106-0.055-0.159-0.08
			c-0.054-0.027-0.107-0.051-0.16-0.072c-0.054-0.021-0.086-0.037-0.097-0.047c-0.438-0.342-0.723-0.715-0.855-1.119
			c-0.134-0.404-0.2-0.873-0.2-1.404C137.053,39.995,137.042,39.606,137.021,39.202z"/>
		<path d="M144.244,42.2c0.123-0.213,0.313-0.318,0.568-0.318h1.76l0.112-0.16c0-0.041,0.002-0.115,0.008-0.223
			c0.005-0.105,0.014-0.217,0.024-0.334c0.01-0.115,0.019-0.227,0.023-0.334c0.006-0.105,0.008-0.18,0.008-0.221
			c0.011-0.021,0.021-0.074,0.032-0.16c0.011-0.084,0.021-0.137,0.032-0.158v-3.514h-1.872c-0.106,0-0.2-0.031-0.28-0.09
			c-0.08-0.061-0.146-0.135-0.2-0.221c-0.053-0.088-0.093-0.182-0.119-0.285c-0.027-0.104-0.04-0.199-0.04-0.287
			c0-0.174,0.042-0.309,0.128-0.408c0.085-0.098,0.188-0.17,0.312-0.219s0.256-0.082,0.4-0.098c0.144-0.018,0.274-0.025,0.392-0.025
			c0.182,0,0.36,0.01,0.536,0.031s0.354,0.033,0.536,0.033c0.128,0,0.253-0.012,0.376-0.033c0.122-0.021,0.248-0.031,0.376-0.031
			c0.182,0,0.37,0.059,0.568,0.176c0.197,0.117,0.296,0.289,0.296,0.512v5.953l0.096,0.096h1.696c0.096,0,0.184,0.035,0.264,0.105
			s0.149,0.156,0.208,0.254s0.102,0.201,0.128,0.309c0.026,0.109,0.04,0.203,0.04,0.277c0,0.154-0.04,0.305-0.12,0.457
			s-0.211,0.229-0.392,0.229h-5.456c-0.192,0-0.344-0.064-0.456-0.195s-0.168-0.287-0.168-0.473
			C144.061,42.628,144.122,42.411,144.244,42.2z M146.492,32.425c0.203-0.213,0.464-0.318,0.784-0.318
			c0.171,0,0.328,0.039,0.472,0.119c0.145,0.08,0.267,0.188,0.368,0.32s0.182,0.279,0.24,0.439s0.088,0.32,0.088,0.48
			c0,0.32-0.117,0.572-0.352,0.76c-0.235,0.188-0.502,0.279-0.801,0.279c-0.362,0-0.637-0.127-0.823-0.383
			c-0.188-0.256-0.28-0.561-0.28-0.912C146.188,32.899,146.29,32.64,146.492,32.425z"/>
		<path d="M152.725,37.833c0.144-0.564,0.37-1.066,0.68-1.504s0.707-0.785,1.192-1.047s1.063-0.393,1.736-0.393
			c0.512,0,0.954,0.098,1.327,0.295c0.374,0.199,0.747,0.457,1.12,0.777c0.011,0.01,0.021,0.023,0.032,0.039
			s0.021,0.025,0.032,0.025c0.128,0.244,0.259,0.486,0.392,0.727c0.134,0.24,0.256,0.486,0.368,0.736
			c0.112,0.252,0.203,0.508,0.272,0.768c0.069,0.262,0.104,0.531,0.104,0.809c0,0.031-0.003,0.094-0.008,0.184
			c-0.006,0.092-0.008,0.146-0.008,0.168c-0.021,0.064-0.051,0.18-0.088,0.344c-0.038,0.166-0.08,0.342-0.128,0.529
			c-0.049,0.186-0.094,0.365-0.137,0.535c-0.042,0.172-0.069,0.289-0.08,0.352c-0.085,0.289-0.231,0.592-0.439,0.912
			s-0.451,0.611-0.729,0.873s-0.578,0.477-0.903,0.648c-0.326,0.17-0.648,0.256-0.969,0.256c-0.159,0-0.282-0.012-0.367-0.033
			c-0.086-0.021-0.158-0.047-0.217-0.08c-0.059-0.031-0.119-0.066-0.184-0.104s-0.154-0.072-0.272-0.104
			c-0.053-0.012-0.154-0.027-0.304-0.049s-0.256-0.043-0.319-0.064c-0.054-0.02-0.126-0.055-0.217-0.104
			c-0.091-0.047-0.182-0.096-0.271-0.145c-0.091-0.047-0.176-0.09-0.256-0.127s-0.126-0.061-0.137-0.072
			c-0.213-0.139-0.407-0.352-0.584-0.641c-0.176-0.287-0.327-0.596-0.456-0.928c-0.128-0.33-0.227-0.66-0.296-0.992
			c-0.069-0.33-0.104-0.613-0.104-0.848C152.509,38.979,152.581,38.399,152.725,37.833z M153.908,39.946
			c0.017,0.148,0.04,0.299,0.072,0.447c0.032,0.15,0.072,0.291,0.12,0.424s0.104,0.232,0.168,0.297l0.752,0.752
			c0.117,0.031,0.211,0.053,0.28,0.063c0.069,0.012,0.141,0.021,0.216,0.033c0.074,0.01,0.139,0.016,0.192,0.016
			c0.01,0.01,0.085,0.016,0.224,0.016c0.149,0,0.262,0,0.336,0c0.213,0,0.397-0.002,0.552-0.008
			c0.155-0.006,0.328-0.045,0.521-0.119c0.458-0.373,0.763-0.777,0.912-1.209s0.224-0.93,0.224-1.496c0-0.33-0.035-0.637-0.104-0.92
			c-0.07-0.281-0.163-0.578-0.28-0.889c-0.054-0.137-0.142-0.252-0.264-0.344c-0.123-0.09-0.257-0.17-0.4-0.24
			c-0.145-0.068-0.294-0.129-0.448-0.184c-0.154-0.053-0.285-0.111-0.392-0.176h-1.008c-0.011,0-0.08,0.041-0.208,0.121
			s-0.225,0.141-0.288,0.184c-0.256,0.182-0.462,0.379-0.616,0.592c-0.155,0.213-0.277,0.439-0.368,0.68s-0.149,0.494-0.176,0.76
			c-0.027,0.268-0.04,0.551-0.04,0.848C153.885,39.679,153.893,39.796,153.908,39.946z"/>
		<path d="M162.797,42.034c0.213-0.092,0.479-0.146,0.8-0.168l0.063-0.064c0.021-0.15,0.04-0.322,0.057-0.52
			c0.016-0.197,0.04-0.377,0.071-0.537V37.05c0-0.074-0.066-0.131-0.199-0.168c-0.134-0.037-0.278-0.088-0.433-0.152
			s-0.299-0.158-0.432-0.279c-0.134-0.123-0.2-0.313-0.2-0.568c0-0.277,0.099-0.467,0.296-0.568s0.413-0.152,0.648-0.152
			c0.031,0,0.08,0,0.144,0c0.074,0,0.112,0.006,0.112,0.016c0.309,0.043,0.557,0.098,0.744,0.16
			c0.187,0.064,0.333,0.152,0.439,0.264c0.106,0.113,0.182,0.26,0.225,0.441c0.042,0.182,0.074,0.41,0.096,0.688
			c0.011,0.012,0.021,0.016,0.032,0.016h0.031c0.064,0,0.126-0.031,0.185-0.096s0.12-0.139,0.184-0.225
			c0.064-0.084,0.128-0.17,0.192-0.256c0.063-0.084,0.128-0.148,0.191-0.191c0.299-0.213,0.616-0.424,0.952-0.633
			c0.336-0.207,0.696-0.311,1.08-0.311c0.234,0,0.473,0.055,0.712,0.168c0.24,0.111,0.453,0.258,0.641,0.439
			c0.187,0.182,0.338,0.389,0.456,0.623c0.117,0.236,0.176,0.477,0.176,0.721v3.951c-0.043,0.119-0.066,0.225-0.072,0.32
			s-0.008,0.203-0.008,0.32c0,0.033,0.005,0.107,0.016,0.225l0.064,0.064c0.288,0.053,0.546,0.148,0.775,0.287
			s0.345,0.379,0.345,0.721c0,0.277-0.083,0.461-0.248,0.551c-0.166,0.092-0.376,0.137-0.632,0.137h-0.24
			c-0.086,0-0.235-0.002-0.448-0.008c-0.214-0.006-0.439-0.01-0.68-0.016s-0.467-0.014-0.681-0.025
			c-0.213-0.01-0.362-0.016-0.447-0.016c-0.342-0.096-0.513-0.314-0.513-0.656c0-0.404,0.115-0.664,0.345-0.775
			c0.229-0.111,0.515-0.178,0.855-0.199l0.064-0.064l0.144-0.625v-2.432c0.011-0.031,0.029-0.096,0.057-0.191
			c0.026-0.096,0.04-0.16,0.04-0.191v-0.033v-0.031c0-0.021-0.009-0.082-0.024-0.184s-0.029-0.164-0.04-0.186
			c0-0.031-0.003-0.09-0.008-0.176c-0.006-0.084-0.011-0.172-0.017-0.264c-0.005-0.09-0.011-0.178-0.016-0.264
			c-0.006-0.086-0.008-0.145-0.008-0.176c-0.096-0.16-0.219-0.254-0.368-0.281c-0.149-0.025-0.304-0.039-0.464-0.039
			c-0.267,0-0.515,0.064-0.744,0.191c-0.229,0.129-0.44,0.289-0.632,0.48c-0.192,0.191-0.365,0.402-0.521,0.633
			c-0.154,0.229-0.29,0.445-0.407,0.646c-0.011,0.012-0.032,0.041-0.064,0.088c-0.032,0.049-0.054,0.084-0.064,0.105
			c-0.031,0.053-0.106,0.176-0.224,0.367v1.824c-0.054,0.107-0.083,0.197-0.088,0.271c-0.006,0.076-0.008,0.172-0.008,0.289v0.24
			c0.063,0.096,0.168,0.15,0.312,0.168c0.145,0.016,0.294,0.045,0.448,0.088s0.288,0.117,0.4,0.223
			c0.111,0.107,0.168,0.299,0.168,0.576c0,0.225-0.083,0.393-0.248,0.504c-0.166,0.113-0.355,0.18-0.568,0.201h-0.656h-0.655
			c-0.021,0-0.075-0.012-0.16-0.033c-0.086-0.021-0.139-0.031-0.16-0.031c-0.182-0.021-0.363-0.035-0.544-0.039
			c-0.182-0.006-0.344-0.029-0.488-0.072c-0.144-0.043-0.259-0.117-0.344-0.225c-0.086-0.107-0.128-0.277-0.128-0.512
			C162.477,42.351,162.583,42.124,162.797,42.034z"/>
	</g>
</g>
<g id="Layer_86">
</g>
<g id="PointOfNoReturn">
</g>
<g id="Pirate">
</g>
<g id="Thief">
</g>
<g id="DepthPerception">
</g>
<g id="Narcissist">
</g>
<g id="MammaBird">
</g>
<g id="Staringcontest">
</g>
<g id="Cartwheel">
</g>
<g id="Censored">
</g>
<g id="Depersonalization">
</g>
<g id="threeman">
</g>
<g id="_x32__truths_and_a_lie">
</g>
<g id="cray_cray_cat_lady">
</g>
<g id="siblings">
</g>
<g id="later">
</g>
<g id="waterfall">
</g>
<g id="cheers">
</g>
<g id="rhyme">
</g>
<g id="categories">
</g>
<g id="tits">
</g>
<g id="dicks">
</g>
<g id="questions">
</g>
<g id="double_hands">
</g>
<g id="take_2">
</g>
<g id="take_3">
</g>
<g id="give_3">
</g>
<g id="give_2">
</g>
<g id="rewind">
</g>
<g id="Cryptkeeper">
</g>
<g id="Take_2_and_Redo">
</g>
<g id="Embryo">
</g>
<g id="I_am_Groot">
</g>
<g id="Mini_Me">
</g>
<g id="Ditto_1_">
</g>
<g id="reverse">
</g>
</svg>
