<?xml version="1.0" encoding="utf-8"?>
<!-- Generator: Adobe Illustrator 16.0.0, SVG Export Plug-In . SVG Version: 6.00 Build 0)  -->
<!DOCTYPE svg PUBLIC "-//W3C//DTD SVG 1.1//EN" "http://www.w3.org/Graphics/SVG/1.1/DTD/svg11.dtd">
<svg version="1.1" xmlns="http://www.w3.org/2000/svg" xmlns:xlink="http://www.w3.org/1999/xlink" x="0px" y="0px"
	 width="209.759px" height="62.361px" viewBox="0 0 209.759 62.361" enable-background="new 0 0 209.759 62.361"
	 xml:space="preserve">
<g id="Layer_1">
</g>
<g id="Hat">
</g>
<g id="Compliments">
</g>
<g id="HAT">
</g>
<g id="speech">
</g>
<g id="TREX_ARMS">
</g>
<g id="slim_shady">
</g>
<g id="TIMEOUT">
</g>
<g id="Truth_or_Dare">
</g>
<g id="ARM_WRESTLE">
</g>
<g id="musical_chairs">
</g>
<g id="never_have_i_ever">
</g>
<g id="Trivia">
</g>
<g id="Drink_Pulling">
</g>
<g id="Sharing_is_Caring">
</g>
<g id="Not_It">
</g>
<g id="Cocktail_of_Doom">
</g>
<g id="Heads_up">
</g>
<g id="Archenemy">
</g>
<g id="battle_of_the_sexes">
</g>
<g id="one_must_drink">
</g>
<g id="rainbow_connection">
</g>
<g id="social_drinking">
</g>
<g id="Spin_the_bottle">
</g>
<g id="accents">
</g>
<g id="Slap">
</g>
<g id="give_3">
</g>
<g id="rub">
</g>
<g id="down_the_hatch">
</g>
<g id="rubiks_cube">
</g>
<g id="bar_tender">
</g>
<g id="codenames">
</g>
<g id="hand_switch">
</g>
<g id="make_a_rule">
</g>
<g id="no_guts_no_glory">
</g>
<g id="pass">
</g>
<g id="santa">
</g>
<g id="snake_eyes">
</g>
<g id="bodyguard">
</g>
<g id="threeman">
</g>
<g id="_x32__truths_and_a_lie">
	<g>
		<path d="M25.943,43.626c0-0.42,0.032-0.8,0.098-1.141s0.18-0.656,0.343-0.945s0.388-0.561,0.672-0.813
			c0.285-0.252,0.646-0.499,1.086-0.741c0.382-0.205,0.721-0.386,1.015-0.539c0.294-0.154,0.539-0.297,0.735-0.428
			c0.195-0.13,0.345-0.263,0.447-0.398s0.154-0.292,0.154-0.469c0-0.28-0.112-0.521-0.336-0.722c-0.224-0.2-0.546-0.301-0.966-0.301
			c-0.225,0-0.43,0.03-0.616,0.091c-0.187,0.062-0.362,0.143-0.525,0.245s-0.313,0.217-0.447,0.343
			c-0.136,0.126-0.26,0.26-0.371,0.399l-1.204-1.386c0.121-0.131,0.294-0.273,0.518-0.428c0.225-0.153,0.488-0.298,0.791-0.434
			c0.304-0.135,0.64-0.247,1.008-0.336c0.369-0.089,0.764-0.133,1.184-0.133c0.476,0,0.9,0.059,1.273,0.175
			c0.374,0.117,0.688,0.28,0.945,0.49s0.452,0.462,0.588,0.756s0.203,0.613,0.203,0.959c0,0.327-0.061,0.616-0.182,0.868
			c-0.122,0.252-0.275,0.476-0.462,0.672c-0.188,0.196-0.391,0.366-0.609,0.511c-0.22,0.145-0.432,0.273-0.637,0.385
			c-0.168,0.094-0.359,0.201-0.574,0.322s-0.427,0.255-0.637,0.399s-0.404,0.294-0.581,0.447c-0.178,0.154-0.313,0.307-0.406,0.455
			h4.242v1.694H25.943z"/>
		<path d="M44.577,43.248c-0.252,0.112-0.56,0.224-0.924,0.336s-0.747,0.168-1.148,0.168c-0.261,0-0.506-0.033-0.734-0.098
			c-0.229-0.065-0.43-0.171-0.603-0.315s-0.311-0.331-0.413-0.56s-0.153-0.507-0.153-0.833v-4.214h-0.967V36.29h0.967v-2.38h1.876
			v2.38h1.54v1.442h-1.54v3.584c0,0.261,0.067,0.445,0.202,0.553c0.136,0.107,0.302,0.161,0.497,0.161
			c0.196,0,0.388-0.033,0.574-0.099c0.187-0.064,0.336-0.121,0.448-0.168L44.577,43.248z"/>
		<path d="M51.255,37.914c-0.569,0.01-1.078,0.119-1.525,0.329c-0.448,0.21-0.771,0.524-0.966,0.944v4.438h-1.877V36.29h1.723v1.568
			c0.131-0.252,0.284-0.479,0.462-0.68c0.177-0.2,0.368-0.375,0.574-0.524c0.205-0.149,0.413-0.264,0.623-0.344
			c0.21-0.079,0.413-0.118,0.608-0.118c0.103,0,0.18,0,0.231,0c0.051,0,0.1,0.005,0.146,0.014V37.914z"/>
		<path d="M55.874,43.766c-0.756,0-1.33-0.242-1.722-0.728s-0.588-1.204-0.588-2.156V36.29h1.876v4.186
			c0,1.13,0.406,1.694,1.218,1.694c0.364,0,0.716-0.109,1.057-0.329c0.341-0.219,0.618-0.553,0.833-1.001v-4.55h1.876v5.18
			c0,0.196,0.035,0.336,0.105,0.42s0.185,0.131,0.343,0.141v1.596c-0.187,0.037-0.343,0.061-0.469,0.07
			c-0.126,0.009-0.24,0.014-0.343,0.014c-0.336,0-0.609-0.077-0.819-0.231c-0.21-0.153-0.334-0.366-0.371-0.637l-0.042-0.588
			c-0.327,0.504-0.747,0.882-1.26,1.134C57.055,43.64,56.49,43.766,55.874,43.766z"/>
		<path d="M68.013,43.248c-0.252,0.112-0.56,0.224-0.924,0.336s-0.747,0.168-1.148,0.168c-0.261,0-0.506-0.033-0.734-0.098
			c-0.229-0.065-0.43-0.171-0.603-0.315s-0.311-0.331-0.413-0.56s-0.153-0.507-0.153-0.833v-4.214H63.07V36.29h0.967v-2.38h1.876
			v2.38h1.54v1.442h-1.54v3.584c0,0.261,0.067,0.445,0.202,0.553c0.136,0.107,0.302,0.161,0.497,0.161
			c0.196,0,0.388-0.033,0.574-0.099c0.187-0.064,0.336-0.121,0.448-0.168L68.013,43.248z"/>
		<path d="M77.141,43.626h-1.876V39.51c0-0.578-0.107-1.006-0.322-1.281c-0.215-0.274-0.518-0.412-0.909-0.412
			c-0.168,0-0.346,0.037-0.532,0.111c-0.188,0.075-0.364,0.18-0.532,0.315c-0.168,0.135-0.322,0.296-0.462,0.482
			c-0.14,0.188-0.243,0.393-0.308,0.616v4.284h-1.877v-10.22h1.877v4.242c0.271-0.477,0.637-0.843,1.099-1.1
			s0.973-0.385,1.533-0.385c0.476,0,0.863,0.082,1.162,0.245c0.298,0.163,0.531,0.38,0.699,0.65
			c0.168,0.271,0.285,0.579,0.351,0.925c0.065,0.345,0.098,0.699,0.098,1.063V43.626z"/>
		<path d="M82.88,43.766c-0.616,0-1.218-0.098-1.806-0.294c-0.588-0.195-1.093-0.476-1.513-0.84l0.7-1.176
			c0.448,0.317,0.885,0.558,1.31,0.721c0.424,0.164,0.847,0.245,1.267,0.245c0.373,0,0.667-0.07,0.882-0.21s0.322-0.341,0.322-0.602
			c0-0.262-0.126-0.453-0.378-0.574s-0.663-0.262-1.232-0.42c-0.476-0.131-0.882-0.257-1.218-0.378s-0.606-0.26-0.812-0.413
			c-0.206-0.154-0.355-0.331-0.448-0.532c-0.094-0.2-0.141-0.441-0.141-0.721c0-0.373,0.072-0.71,0.218-1.008
			c0.145-0.299,0.348-0.554,0.608-0.764c0.262-0.21,0.567-0.371,0.917-0.482c0.351-0.112,0.73-0.168,1.142-0.168
			c0.55,0,1.065,0.079,1.547,0.237c0.48,0.159,0.921,0.416,1.323,0.771l-0.757,1.134c-0.373-0.28-0.734-0.485-1.085-0.616
			c-0.35-0.131-0.697-0.196-1.043-0.196c-0.317,0-0.583,0.065-0.798,0.196s-0.322,0.341-0.322,0.63c0,0.131,0.026,0.238,0.077,0.322
			c0.052,0.084,0.133,0.159,0.245,0.224c0.112,0.065,0.259,0.129,0.441,0.189c0.182,0.061,0.408,0.124,0.679,0.188
			c0.504,0.131,0.936,0.262,1.295,0.393s0.653,0.28,0.882,0.448s0.396,0.361,0.504,0.581c0.107,0.219,0.161,0.482,0.161,0.791
			c0,0.719-0.266,1.285-0.798,1.7C84.518,43.559,83.795,43.766,82.88,43.766z"/>
		<path d="M95.089,43.766c-0.355,0-0.687-0.058-0.994-0.175c-0.309-0.116-0.574-0.28-0.798-0.49
			c-0.225-0.21-0.399-0.455-0.525-0.734c-0.126-0.28-0.189-0.588-0.189-0.924c0-0.346,0.077-0.665,0.231-0.959
			s0.368-0.544,0.644-0.749c0.275-0.206,0.604-0.366,0.987-0.483c0.383-0.116,0.803-0.175,1.26-0.175
			c0.327,0,0.646,0.027,0.959,0.084c0.313,0.056,0.591,0.135,0.833,0.238v-0.421c0-0.484-0.138-0.858-0.413-1.119
			c-0.275-0.262-0.684-0.393-1.225-0.393c-0.392,0-0.774,0.07-1.148,0.21c-0.373,0.141-0.756,0.346-1.147,0.616l-0.574-1.19
			c0.942-0.625,1.96-0.938,3.052-0.938c1.055,0,1.874,0.259,2.457,0.777c0.584,0.518,0.875,1.267,0.875,2.246v2.282
			c0,0.196,0.035,0.336,0.105,0.42s0.184,0.131,0.343,0.141v1.596c-0.317,0.065-0.593,0.098-0.826,0.098
			c-0.354,0-0.628-0.079-0.818-0.237c-0.191-0.159-0.311-0.369-0.357-0.63l-0.042-0.406c-0.327,0.429-0.724,0.756-1.19,0.979
			C96.119,43.654,95.62,43.766,95.089,43.766z M95.62,42.394c0.317,0,0.618-0.056,0.903-0.168c0.284-0.111,0.506-0.261,0.665-0.447
			c0.205-0.159,0.308-0.336,0.308-0.532v-0.84c-0.224-0.084-0.467-0.152-0.728-0.203c-0.262-0.052-0.514-0.077-0.756-0.077
			c-0.485,0-0.882,0.109-1.19,0.329c-0.308,0.22-0.462,0.497-0.462,0.833c0,0.317,0.121,0.581,0.364,0.791
			C94.967,42.289,95.266,42.394,95.62,42.394z"/>
		<path d="M109.27,43.626h-1.876V39.51c0-0.588-0.103-1.017-0.308-1.288c-0.206-0.271-0.49-0.405-0.854-0.405
			c-0.187,0-0.378,0.037-0.574,0.111c-0.195,0.075-0.38,0.18-0.553,0.315c-0.173,0.135-0.329,0.296-0.469,0.482
			c-0.14,0.188-0.243,0.393-0.308,0.616v4.284h-1.877V36.29h1.694v1.358c0.271-0.467,0.663-0.831,1.176-1.093
			c0.514-0.261,1.093-0.392,1.736-0.392c0.457,0,0.831,0.084,1.12,0.252s0.513,0.388,0.672,0.658
			c0.158,0.271,0.269,0.578,0.329,0.924s0.091,0.695,0.091,1.05V43.626z"/>
		<path d="M115.275,43.766c-0.504,0-0.971-0.098-1.399-0.294c-0.43-0.195-0.798-0.466-1.106-0.812
			c-0.308-0.346-0.548-0.749-0.721-1.211s-0.259-0.959-0.259-1.491s0.081-1.026,0.245-1.484c0.163-0.457,0.39-0.858,0.679-1.204
			c0.289-0.345,0.635-0.615,1.036-0.812s0.84-0.294,1.315-0.294c0.542,0,1.029,0.131,1.463,0.392
			c0.435,0.262,0.772,0.603,1.016,1.022v-4.172h1.876v8.063c0,0.196,0.032,0.336,0.098,0.42s0.178,0.131,0.336,0.141v1.596
			c-0.326,0.065-0.593,0.098-0.798,0.098c-0.336,0-0.611-0.084-0.826-0.252s-0.336-0.387-0.363-0.657l-0.042-0.463
			c-0.271,0.467-0.638,0.819-1.1,1.058S115.78,43.766,115.275,43.766z M115.766,42.17c0.178,0,0.359-0.03,0.546-0.091
			s0.359-0.147,0.519-0.259c0.158-0.112,0.301-0.243,0.427-0.393s0.222-0.313,0.287-0.49v-1.75c-0.075-0.205-0.18-0.394-0.315-0.566
			c-0.135-0.173-0.289-0.322-0.462-0.448s-0.354-0.226-0.546-0.301c-0.191-0.074-0.38-0.112-0.567-0.112
			c-0.279,0-0.538,0.061-0.776,0.183c-0.238,0.121-0.441,0.286-0.609,0.497c-0.168,0.21-0.299,0.45-0.392,0.721
			c-0.094,0.271-0.141,0.551-0.141,0.84c0,0.308,0.052,0.593,0.154,0.854c0.103,0.262,0.243,0.49,0.42,0.687
			c0.178,0.196,0.39,0.35,0.638,0.462C115.194,42.114,115.467,42.17,115.766,42.17z"/>
		<path d="M129.29,43.766c-0.355,0-0.687-0.058-0.994-0.175c-0.309-0.116-0.574-0.28-0.798-0.49
			c-0.225-0.21-0.399-0.455-0.525-0.734c-0.126-0.28-0.189-0.588-0.189-0.924c0-0.346,0.077-0.665,0.231-0.959
			s0.368-0.544,0.644-0.749c0.275-0.206,0.604-0.366,0.987-0.483c0.383-0.116,0.803-0.175,1.26-0.175
			c0.327,0,0.646,0.027,0.959,0.084c0.313,0.056,0.591,0.135,0.833,0.238v-0.421c0-0.484-0.138-0.858-0.413-1.119
			c-0.275-0.262-0.684-0.393-1.225-0.393c-0.392,0-0.774,0.07-1.148,0.21c-0.373,0.141-0.756,0.346-1.147,0.616l-0.574-1.19
			c0.942-0.625,1.96-0.938,3.052-0.938c1.055,0,1.874,0.259,2.457,0.777c0.584,0.518,0.875,1.267,0.875,2.246v2.282
			c0,0.196,0.035,0.336,0.105,0.42s0.184,0.131,0.343,0.141v1.596c-0.317,0.065-0.593,0.098-0.826,0.098
			c-0.354,0-0.628-0.079-0.818-0.237c-0.191-0.159-0.311-0.369-0.357-0.63l-0.042-0.406c-0.327,0.429-0.724,0.756-1.19,0.979
			C130.32,43.654,129.821,43.766,129.29,43.766z M129.821,42.394c0.317,0,0.618-0.056,0.903-0.168
			c0.284-0.111,0.506-0.261,0.665-0.447c0.205-0.159,0.308-0.336,0.308-0.532v-0.84c-0.224-0.084-0.467-0.152-0.728-0.203
			c-0.262-0.052-0.514-0.077-0.756-0.077c-0.485,0-0.882,0.109-1.19,0.329c-0.308,0.22-0.462,0.497-0.462,0.833
			c0,0.317,0.121,0.581,0.364,0.791C129.168,42.289,129.467,42.394,129.821,42.394z"/>
		<path d="M141.329,33.406h1.876v7.868c0,0.271,0.065,0.48,0.196,0.63s0.317,0.224,0.56,0.224c0.112,0,0.236-0.019,0.371-0.056
			c0.136-0.037,0.264-0.084,0.385-0.141l0.253,1.429c-0.253,0.121-0.547,0.215-0.883,0.279c-0.336,0.065-0.639,0.099-0.909,0.099
			c-0.589,0-1.044-0.156-1.365-0.47c-0.322-0.313-0.483-0.758-0.483-1.337V33.406z"/>
		<path d="M147.11,35.268v-1.861h1.877v1.861H147.11z M147.11,43.626V36.29h1.877v7.336H147.11z"/>
		<path d="M155.413,43.766c-0.588,0-1.12-0.1-1.596-0.301c-0.477-0.2-0.882-0.474-1.218-0.819c-0.336-0.345-0.596-0.746-0.777-1.203
			c-0.182-0.458-0.273-0.938-0.273-1.442c0-0.522,0.089-1.015,0.267-1.477c0.177-0.463,0.434-0.868,0.77-1.219
			c0.336-0.35,0.744-0.627,1.226-0.833c0.48-0.205,1.02-0.308,1.616-0.308c0.598,0,1.132,0.103,1.604,0.308
			c0.471,0.206,0.872,0.481,1.204,0.826c0.331,0.346,0.583,0.747,0.756,1.204s0.259,0.934,0.259,1.428
			c0,0.122-0.002,0.238-0.007,0.351c-0.005,0.111-0.017,0.205-0.035,0.279h-5.67c0.028,0.29,0.098,0.547,0.21,0.771
			s0.257,0.415,0.435,0.574c0.177,0.158,0.378,0.279,0.602,0.363s0.457,0.126,0.7,0.126c0.373,0,0.726-0.091,1.057-0.272
			s0.558-0.422,0.679-0.721l1.61,0.447c-0.271,0.561-0.702,1.021-1.295,1.379C156.941,43.586,156.234,43.766,155.413,43.766z
			 M157.317,39.342c-0.047-0.551-0.25-0.991-0.609-1.323c-0.359-0.331-0.796-0.496-1.309-0.496c-0.252,0-0.488,0.044-0.707,0.133
			c-0.22,0.089-0.413,0.212-0.581,0.371c-0.168,0.158-0.306,0.35-0.413,0.573c-0.107,0.225-0.171,0.472-0.189,0.742H157.317z"/>
	</g>
</g>
<g id="cray_cray_cat_lady">
</g>
<g id="siblings">
</g>
<g id="take_2">
</g>
<g id="take_3">
</g>
<g id="later">
</g>
<g id="waterfall">
</g>
<g id="cheers">
</g>
<g id="rhyme">
</g>
<g id="categories">
</g>
<g id="tits">
</g>
<g id="dicks">
</g>
<g id="questions">
</g>
<g id="double_hands">
</g>
<g id="give_2">
</g>
<g id="rewind">
</g>
<g id="Cryptkeeper">
</g>
<g id="Take_2_and_Redo">
</g>
<g id="Embryo">
</g>
<g id="I_am_Groot">
</g>
<g id="Mini_Me">
</g>
<g id="Ditto_1_">
</g>
</svg>
