<?xml version="1.0" encoding="utf-8"?>
<!-- Generator: Adobe Illustrator 16.0.0, SVG Export Plug-In . SVG Version: 6.00 Build 0)  -->
<!DOCTYPE svg PUBLIC "-//W3C//DTD SVG 1.1//EN" "http://www.w3.org/Graphics/SVG/1.1/DTD/svg11.dtd">
<svg version="1.1" xmlns="http://www.w3.org/2000/svg" xmlns:xlink="http://www.w3.org/1999/xlink" x="0px" y="0px"
	 width="209.759px" height="62.361px" viewBox="0 0 209.759 62.361" enable-background="new 0 0 209.759 62.361"
	 xml:space="preserve">
<g id="Layer_1">
</g>
<g id="Blindman">
</g>
<g id="Compliments">
</g>
<g id="HAT">
</g>
<g id="speech">
</g>
<g id="TREX_ARMS">
</g>
<g id="slim_shady">
</g>
<g id="TIMEOUT">
</g>
<g id="Truth_or_Dare">
</g>
<g id="ARM_WRESTLE">
</g>
<g id="musical_chairs">
</g>
<g id="never_have_i_ever">
</g>
<g id="Trivia">
</g>
<g id="Drink_Pulling">
</g>
<g id="Sharing_is_Caring">
</g>
<g id="Not_It">
</g>
<g id="Cocktail_of_Doom">
</g>
<g id="Heads_up">
</g>
<g id="Archenemy">
</g>
<g id="battle_of_the_sexes">
</g>
<g id="one_must_drink">
</g>
<g id="rainbow_connection">
</g>
<g id="social_drinking">
</g>
<g id="Spin_the_bottle">
</g>
<g id="accents">
</g>
<g id="Slap">
</g>
<g id="down_the_hatch">
</g>
<g id="rubiks_cube">
</g>
<g id="bar_tender">
</g>
<g id="codenames">
</g>
<g id="hand_switch">
</g>
<g id="make_a_rule">
</g>
<g id="no_guts_no_glory">
</g>
<g id="pass">
</g>
<g id="santa">
</g>
<g id="snake_eyes">
</g>
<g id="lightning_round">
</g>
<g id="Bro">
</g>
<g id="LeastDrunk">
</g>
<g id="Know_It_All">
</g>
<g id="EyeContact">
</g>
<g id="UnderGuesser">
</g>
<g id="GodSaveTheQUeen">
</g>
<g id="Ghost">
</g>
<g id="Fortune_Teller">
</g>
<g id="DrinkSwap">
</g>
<g id="DickTator">
</g>
<g id="_x34_Eyes">
</g>
<g id="BabyTalk">
</g>
<g id="Backseat_Driver">
</g>
<g id="BAtman">
</g>
<g id="bodyguard">
</g>
<g id="BuckleUp">
</g>
<g id="RockPaperScissors">
</g>
<g id="Roger_Roger">
</g>
<g id="RoyaleWe">
</g>
<g id="Skip">
</g>
<g id="SwineRules">
</g>
<g id="Touchy_Feeley">
</g>
<g id="Wasted_Education">
</g>
<g id="Layer_86">
</g>
<g id="PointOfNoReturn">
</g>
<g id="Pirate">
</g>
<g id="Thief">
</g>
<g id="DepthPerception">
</g>
<g id="Narcissist">
</g>
<g id="MammaBird">
</g>
<g id="Staringcontest">
</g>
<g id="Cartwheel">
</g>
<g id="Censored">
</g>
<g id="Depersonalization">
</g>
<g id="threeman">
</g>
<g id="_x32__truths_and_a_lie">
</g>
<g id="cray_cray_cat_lady">
</g>
<g id="siblings">
</g>
<g id="later">
</g>
<g id="waterfall">
</g>
<g id="cheers">
</g>
<g id="rhyme">
</g>
<g id="categories">
	<g>
		<path d="M8.645,40.632c-0.147-0.306-0.295-0.629-0.442-0.969s-0.289-0.657-0.425-0.952c-0.136-0.294-0.227-0.51-0.272-0.646
			c-0.249-0.59-0.385-1.168-0.407-1.734c-0.023-0.566-0.114-1.145-0.272-1.734v-3.569c0.068-0.295,0.124-0.612,0.17-0.952
			c0.045-0.34,0.079-0.646,0.103-0.918l1.462-4.794c0.045-0.182,0.164-0.426,0.356-0.731s0.414-0.617,0.663-0.935
			s0.499-0.617,0.748-0.901c0.249-0.283,0.453-0.493,0.612-0.629c0.09-0.045,0.238-0.119,0.442-0.221
			c0.203-0.103,0.413-0.21,0.629-0.323c0.215-0.113,0.425-0.221,0.629-0.323c0.204-0.102,0.351-0.175,0.441-0.221
			c0.249-0.113,0.511-0.164,0.782-0.153c0.272,0.012,0.521,0.018,0.748,0.018c0.861,0,1.62,0.136,2.278,0.407
			c0.657,0.272,1.382,0.635,2.176,1.088h0.136c0.136,0,0.261-0.079,0.374-0.237s0.232-0.328,0.357-0.51
			c0.124-0.182,0.277-0.352,0.459-0.511c0.181-0.158,0.408-0.237,0.68-0.237c0.272,0,0.498,0.067,0.68,0.203
			c0.182,0.137,0.323,0.307,0.426,0.511c0.102,0.204,0.17,0.425,0.203,0.663c0.034,0.237,0.052,0.471,0.052,0.696
			c0,0.25-0.029,0.493-0.085,0.731c-0.058,0.238-0.085,0.481-0.085,0.73v0.068c0.021,0.068,0.051,0.204,0.085,0.408
			c0.033,0.204,0.051,0.34,0.051,0.408v4.113c0,0.182-0.04,0.392-0.119,0.629c-0.08,0.238-0.187,0.471-0.323,0.697
			c-0.136,0.228-0.301,0.42-0.493,0.578c-0.192,0.159-0.391,0.238-0.595,0.238c-0.362,0-0.646-0.136-0.85-0.408
			s-0.357-0.589-0.459-0.952c-0.103-0.362-0.17-0.73-0.204-1.104s-0.085-0.663-0.153-0.867c-0.136-0.521-0.271-0.963-0.408-1.326
			c-0.136-0.362-0.312-0.686-0.526-0.969c-0.216-0.283-0.482-0.538-0.799-0.766c-0.318-0.226-0.715-0.453-1.19-0.68
			c-0.046-0.022-0.119-0.051-0.221-0.085c-0.103-0.034-0.165-0.051-0.188-0.051h-2.244c-0.022,0-0.063,0.017-0.118,0.051
			c-0.058,0.034-0.108,0.063-0.153,0.085c-0.499,0.34-0.952,0.76-1.36,1.258c-0.408,0.499-0.76,1.037-1.054,1.615
			c-0.295,0.578-0.521,1.179-0.68,1.802c-0.159,0.624-0.238,1.241-0.238,1.854v4.25c0.022,0.046,0.045,0.158,0.067,0.34
			s0.046,0.295,0.068,0.34c0.091,0.68,0.221,1.36,0.392,2.04c0.17,0.68,0.413,1.309,0.73,1.887s0.731,1.088,1.241,1.53
			s1.139,0.754,1.887,0.935c0.022,0,0.119,0.006,0.289,0.018s0.3,0.017,0.391,0.017c0.816,0,1.508-0.187,2.074-0.561
			s1.043-0.851,1.428-1.428c0.386-0.578,0.709-1.213,0.97-1.904c0.26-0.691,0.504-1.354,0.73-1.989
			c0.272-0.453,0.646-0.68,1.122-0.68c0.295,0,0.527,0.063,0.697,0.187c0.17,0.125,0.3,0.289,0.391,0.493s0.142,0.431,0.153,0.68
			c0.011,0.25,0.017,0.488,0.017,0.715c0,0.839-0.187,1.717-0.561,2.635s-0.879,1.757-1.513,2.516
			c-0.635,0.76-1.36,1.389-2.177,1.887c-0.815,0.499-1.678,0.748-2.584,0.748c-1.359,0-2.663-0.271-3.909-0.815
			c-1.247-0.544-2.233-1.428-2.958-2.652C8.899,41.147,8.792,40.938,8.645,40.632z"/>
		<path d="M28.823,35.906c0.544-0.76,1.224-1.314,2.04-1.666c0.815-0.352,1.705-0.566,2.669-0.646
			c0.963-0.079,1.853-0.152,2.669-0.221c0.815-0.068,1.496-0.192,2.04-0.374s0.815-0.544,0.815-1.088
			c0-0.386-0.067-0.748-0.204-1.088c-0.136-0.34-0.385-0.612-0.747-0.816c-0.137-0.068-0.341-0.17-0.612-0.306
			c-0.272-0.136-0.42-0.204-0.442-0.204h-3.195c-0.183,0-0.307,0.097-0.374,0.289c-0.068,0.192-0.131,0.431-0.188,0.714
			s-0.119,0.595-0.187,0.935c-0.068,0.341-0.177,0.652-0.323,0.936c-0.147,0.283-0.363,0.521-0.646,0.714s-0.663,0.289-1.139,0.289
			c-0.726,0-1.32-0.238-1.785-0.714c-0.465-0.477-0.697-1.065-0.697-1.769c0-0.407,0.068-0.77,0.204-1.088
			c0.137-0.317,0.317-0.611,0.544-0.884s0.487-0.527,0.782-0.765c0.294-0.238,0.589-0.459,0.884-0.663
			c0.249-0.182,0.511-0.38,0.782-0.596c0.272-0.215,0.589-0.322,0.952-0.322l5.202,0.067c0.294,0,0.64,0.125,1.037,0.373
			c0.396,0.248,0.781,0.542,1.155,0.88c0.374,0.339,0.703,0.699,0.986,1.083s0.459,0.711,0.527,0.981
			c0.022,0.067,0.056,0.191,0.102,0.372c0.045,0.181,0.091,0.367,0.136,0.559c0.046,0.192,0.085,0.373,0.119,0.541
			c0.034,0.169,0.052,0.288,0.052,0.355v1.049c0,0.271,0.005,0.581,0.017,0.931c0.011,0.35-0.04,0.66-0.153,0.931v5.72
			c0,0.633,0.272,0.948,0.816,0.948c0.362,0,0.589-0.158,0.68-0.477c0.091-0.317,0.17-0.674,0.238-1.07s0.175-0.754,0.323-1.071
			c0.146-0.317,0.459-0.477,0.935-0.477c0.249,0,0.465,0.068,0.646,0.204c0.181,0.137,0.328,0.307,0.441,0.511
			c0.113,0.203,0.192,0.425,0.238,0.662c0.045,0.238,0.068,0.471,0.068,0.697c0,0.499-0.08,0.998-0.238,1.496
			c-0.159,0.499-0.38,0.946-0.663,1.343c-0.284,0.397-0.635,0.72-1.054,0.97c-0.42,0.249-0.901,0.374-1.445,0.374
			c-0.431,0-0.805-0.052-1.122-0.153c-0.317-0.103-0.669-0.277-1.054-0.527c-0.137-0.067-0.255-0.175-0.357-0.323
			c-0.102-0.146-0.204-0.294-0.306-0.441c-0.103-0.147-0.216-0.277-0.34-0.392c-0.125-0.112-0.267-0.17-0.426-0.17h-0.17
			c-0.317,0.159-0.641,0.353-0.969,0.578c-0.329,0.228-0.663,0.448-1.003,0.663c-0.34,0.216-0.691,0.397-1.054,0.544
			c-0.363,0.147-0.737,0.222-1.122,0.222h-3.061c-0.249,0-0.465-0.063-0.646-0.188c-0.182-0.124-0.363-0.243-0.544-0.357
			c-0.93-0.544-1.604-1.218-2.023-2.022c-0.42-0.805-0.629-1.739-0.629-2.805C28.007,37.748,28.279,36.666,28.823,35.906z
			 M30.761,39.765c0.068,0.25,0.164,0.493,0.289,0.731c0.124,0.238,0.277,0.437,0.459,0.595c0.182,0.159,0.386,0.238,0.612,0.238
			h3.468c0.022,0,0.097-0.034,0.221-0.103c0.125-0.067,0.232-0.124,0.323-0.17c0.045-0.045,0.153-0.113,0.323-0.204
			c0.17-0.09,0.277-0.146,0.323-0.17c0.838-0.566,1.405-1.155,1.699-1.768c0.295-0.612,0.442-1.405,0.442-2.38v-0.408
			c-0.022,0-0.068-0.017-0.136-0.051c-0.068-0.034-0.114-0.051-0.136-0.051c-0.023-0.022-0.046-0.034-0.068-0.034l-0.068,0.034
			c-0.067,0-0.255,0.028-0.561,0.085c-0.307,0.057-0.629,0.113-0.969,0.17c-0.341,0.057-0.663,0.113-0.97,0.17
			c-0.306,0.057-0.493,0.085-0.561,0.085c-0.544,0.091-1.094,0.158-1.649,0.204c-0.556,0.045-1.116,0.113-1.683,0.204
			c-0.295,0.022-0.556,0.203-0.782,0.544c-0.113,0.158-0.255,0.407-0.425,0.748c-0.17,0.34-0.255,0.635-0.255,0.884
			C30.659,39.301,30.693,39.516,30.761,39.765z"/>
		<path d="M55.206,35.226c-0.046-0.859,0.068-1.662,0.34-2.409v-3.768h-4.284c-0.317,0-0.572-0.158-0.765-0.475
			s-0.289-0.611-0.289-0.883c0-0.406,0.13-0.746,0.392-1.018c0.26-0.271,0.526-0.531,0.799-0.781
			c0.271-0.227,0.595-0.353,0.969-0.375c0.374-0.023,0.753-0.035,1.139-0.035c0.408,0,0.788-0.039,1.14-0.119
			c0.351-0.08,0.651-0.303,0.9-0.667c0.227-0.341,0.34-0.797,0.34-1.367c0-0.569,0.018-1.134,0.052-1.692
			c0.033-0.558,0.152-1.036,0.356-1.436c0.204-0.398,0.635-0.599,1.292-0.599s1.06,0.2,1.207,0.599
			c0.147,0.399,0.222,0.872,0.222,1.419c0,0.524-0.029,1.037-0.086,1.538c-0.057,0.502-0.085,1.025-0.085,1.572
			c0,0.137,0,0.342,0,0.615c0,0.274,0.012,0.423,0.034,0.444l0.238,0.239c0.022,0.022,0.181,0.033,0.476,0.033
			c0.317,0,0.566,0,0.748,0c0.477,0,0.936-0.027,1.377-0.085c0.442-0.056,0.89-0.085,1.344-0.085c0.521,0,0.951,0.204,1.292,0.612
			c0.34,0.408,0.51,0.85,0.51,1.326c0,0.453-0.142,0.845-0.425,1.173c-0.284,0.329-0.652,0.493-1.105,0.493
			c-0.566,0-1.094-0.073-1.581-0.221s-1.06-0.222-1.717-0.222c-0.136,0-0.335,0.006-0.595,0.018
			c-0.261,0.012-0.403,0.028-0.425,0.051l-0.408,0.374v9.424c0,0.181,0.062,0.385,0.187,0.61c0.124,0.227,0.283,0.44,0.477,0.644
			c0.192,0.204,0.401,0.379,0.629,0.525c0.226,0.147,0.441,0.221,0.646,0.221c0.544,0,0.975-0.13,1.292-0.391
			s0.562-0.584,0.731-0.97c0.17-0.385,0.306-0.799,0.408-1.24c0.102-0.442,0.209-0.855,0.322-1.241s0.272-0.708,0.477-0.969
			s0.498-0.392,0.884-0.392c0.566,0,0.963,0.204,1.19,0.612c0.226,0.408,0.34,0.85,0.34,1.326c0,0.771-0.114,1.553-0.34,2.346
			c-0.228,0.794-0.562,1.513-1.004,2.159c-0.441,0.646-0.991,1.179-1.648,1.598c-0.658,0.42-1.417,0.629-2.278,0.629
			c-0.34,0-0.601-0.011-0.782-0.034c-0.182-0.021-0.346-0.062-0.492-0.118c-0.148-0.057-0.295-0.136-0.442-0.237
			s-0.346-0.243-0.595-0.425c-0.023,0-0.091-0.027-0.204-0.085c-0.114-0.056-0.227-0.113-0.34-0.169
			c-0.114-0.057-0.228-0.107-0.341-0.153c-0.113-0.045-0.182-0.079-0.203-0.102c-0.93-0.724-1.536-1.516-1.819-2.376
			c-0.284-0.859-0.425-1.854-0.425-2.986C55.274,36.911,55.251,36.086,55.206,35.226z"/>
		<path d="M70.354,33.815c0.124-0.839,0.334-1.638,0.629-2.397c0.294-0.759,0.686-1.462,1.173-2.108
			c0.487-0.646,1.104-1.173,1.853-1.581c0.068-0.045,0.192-0.112,0.374-0.203s0.374-0.188,0.578-0.289
			c0.204-0.103,0.392-0.192,0.562-0.272c0.17-0.079,0.289-0.13,0.356-0.153c0.249-0.112,0.505-0.164,0.766-0.152
			c0.26,0.012,0.515,0.017,0.765,0.017c1.45,0,2.674,0.346,3.672,1.037c0.997,0.691,1.927,1.581,2.788,2.669
			c0.09,0.136,0.209,0.391,0.357,0.765c0.146,0.374,0.283,0.782,0.407,1.225c0.125,0.441,0.232,0.873,0.323,1.292
			c0.091,0.42,0.136,0.73,0.136,0.935c0,0.046-0.006,0.143-0.017,0.289c-0.012,0.147-0.017,0.244-0.017,0.289
			c-0.204,0.34-0.477,0.567-0.816,0.68c-0.34,0.114-0.691,0.204-1.054,0.272c-0.25,0-0.697-0.005-1.344-0.017
			c-0.646-0.012-1.331-0.018-2.057-0.018c-0.703,0-1.377,0.006-2.022,0.018c-0.646,0.012-1.095,0.017-1.344,0.017
			s-0.55,0.006-0.9,0.017c-0.352,0.012-0.697,0.023-1.037,0.035s-0.76,0.04-1.258,0.085l-0.137,0.103
			c0,0.023-0.006,0.103-0.017,0.24c-0.012,0.137-0.017,0.228-0.017,0.273c0,0.661,0.118,1.288,0.356,1.881s0.566,1.112,0.986,1.557
			c0.419,0.444,0.912,0.798,1.479,1.061s1.19,0.393,1.87,0.393c0.068,0,0.221-0.005,0.459-0.017
			c0.238-0.011,0.392-0.017,0.459-0.017c0.317-0.249,0.68-0.426,1.088-0.527s0.76-0.277,1.055-0.527
			c0.226-0.204,0.436-0.453,0.629-0.748c0.192-0.294,0.396-0.577,0.611-0.85s0.447-0.498,0.697-0.68
			c0.249-0.182,0.556-0.272,0.918-0.272c0.34,0,0.617,0.103,0.833,0.306c0.215,0.204,0.323,0.465,0.323,0.782
			c0,0.521-0.114,0.992-0.34,1.411c-0.228,0.42-0.477,0.833-0.748,1.24c-0.681,0.985-1.576,1.691-2.687,2.117
			c-1.11,0.425-2.256,0.638-3.434,0.638c-1.156,0-2.199-0.227-3.128-0.68c-0.93-0.453-1.712-1.065-2.347-1.836
			s-1.121-1.66-1.462-2.669c-0.34-1.009-0.51-2.068-0.51-3.18C70.166,35.47,70.229,34.653,70.354,33.815z M73.362,33.339
			c0,0.068,0.045,0.103,0.136,0.103h7.854c0.045,0,0.107-0.028,0.187-0.086c0.079-0.056,0.142-0.106,0.188-0.152
			c0.021-0.045,0.033-0.124,0.033-0.238c0-0.113,0-0.192,0-0.238c0-0.544-0.136-1.003-0.407-1.377
			c-0.272-0.374-0.612-0.668-1.021-0.884c-0.408-0.215-0.855-0.374-1.343-0.476c-0.487-0.103-0.946-0.153-1.377-0.153
			c-0.477,0-0.964,0.063-1.462,0.188c-0.499,0.124-0.952,0.322-1.36,0.595c-0.408,0.271-0.748,0.617-1.02,1.037
			c-0.272,0.419-0.408,0.912-0.408,1.479C73.362,33.181,73.362,33.249,73.362,33.339z"/>
		<path d="M89.342,44.593c0.203-0.43,0.498-0.861,0.884-1.292l0.034-0.17c0-0.227-0.046-0.453-0.137-0.68s-0.187-0.453-0.289-0.681
			c-0.102-0.226-0.198-0.459-0.289-0.696c-0.091-0.238-0.136-0.481-0.136-0.731c0-0.771,0.176-1.444,0.527-2.022
			c0.351-0.578,0.799-1.128,1.343-1.649c0.022-0.045,0.034-0.113,0.034-0.204c0-0.09,0-0.158,0-0.204
			c0-0.521-0.074-1.02-0.221-1.496c-0.148-0.476-0.222-0.974-0.222-1.496c0-1.428,0.368-2.674,1.105-3.739
			c0.736-1.065,1.751-1.882,3.043-2.448c0.067-0.022,0.164-0.057,0.289-0.103c0.124-0.045,0.255-0.09,0.391-0.136
			c0.136-0.045,0.272-0.085,0.408-0.119c0.136-0.033,0.238-0.051,0.306-0.051c0.295,0,0.59,0.051,0.884,0.153
			c0.295,0.102,0.584,0.21,0.867,0.323s0.572,0.221,0.867,0.322c0.294,0.103,0.601,0.153,0.918,0.153h0.646
			c0.68-0.635,1.462-0.952,2.346-0.952c0.453,0,0.918,0.074,1.394,0.221c0.477,0.148,0.901,0.363,1.275,0.646
			s0.68,0.629,0.918,1.037s0.357,0.861,0.357,1.359c0,0.636-0.139,1.207-0.415,1.718c-0.276,0.51-0.772,0.765-1.486,0.765
			c-0.507,0-0.91-0.113-1.21-0.34c-0.299-0.227-0.541-0.481-0.726-0.765c-0.184-0.283-0.339-0.539-0.464-0.766
			c-0.126-0.227-0.256-0.34-0.392-0.34c0,0.566,0.079,1.105,0.238,1.615c0.158,0.51,0.237,1.049,0.237,1.615
			c0,0.611-0.063,1.212-0.187,1.802c-0.125,0.59-0.323,1.139-0.595,1.648c-0.272,0.511-0.618,0.964-1.037,1.36
			c-0.42,0.396-0.924,0.709-1.514,0.935c-0.227,0.091-0.419,0.177-0.577,0.256c-0.159,0.079-0.313,0.152-0.459,0.221
			c-0.148,0.067-0.307,0.119-0.477,0.153c-0.17,0.033-0.391,0.051-0.663,0.051c-0.362,0-0.703-0.048-1.02-0.142
			c-0.318-0.095-0.629-0.195-0.936-0.301c-0.306-0.105-0.617-0.205-0.935-0.3c-0.317-0.094-0.658-0.142-1.021-0.142
			c-0.431,0-0.72,0.142-0.866,0.425c-0.148,0.283-0.222,0.606-0.222,0.969v0.476c0.045,0.091,0.125,0.182,0.238,0.272
			s0.227,0.136,0.34,0.136c0.793,0,1.564-0.113,2.313-0.34s1.518-0.34,2.312-0.34h1.19c0.045,0,0.164,0.022,0.356,0.067
			s0.402,0.09,0.629,0.136c0.227,0.045,0.437,0.09,0.629,0.135s0.312,0.067,0.357,0.067c0.294,0.045,0.691,0.067,1.19,0.067
			c0.521,0,0.977,0.068,1.367,0.203c0.161,0.067,0.282,0.124,0.363,0.169s0.144,0.09,0.19,0.136
			c0.046,0.045,0.104,0.101,0.173,0.169c0.069,0.067,0.185,0.169,0.347,0.304c0.346,0.293,0.657,0.563,0.935,0.811
			c0.276,0.248,0.519,0.513,0.727,0.794c0.207,0.281,0.369,0.592,0.484,0.93s0.174,0.72,0.174,1.148c0,1.081-0.238,1.987-0.714,2.72
			c-0.477,0.732-1.1,1.317-1.87,1.758c-0.771,0.438-1.627,0.754-2.567,0.945s-1.864,0.287-2.771,0.287
			c-1.021,0-1.984-0.046-2.891-0.136c-0.906-0.091-1.836-0.306-2.788-0.646c-0.182-0.067-0.334-0.164-0.459-0.289
			c-0.124-0.124-0.277-0.209-0.459-0.255c-0.93-0.317-1.648-0.787-2.158-1.41c-0.511-0.624-0.766-1.457-0.766-2.499
			C89.035,45.556,89.138,45.023,89.342,44.593z M93.948,47.789c0.736,0.294,1.547,0.441,2.431,0.441
			c0.726,0,1.468-0.011,2.228-0.033c0.759-0.023,1.467-0.058,2.125-0.103c0.249-0.067,0.549-0.158,0.9-0.271
			c0.352-0.114,0.686-0.261,1.004-0.442c0.316-0.182,0.589-0.396,0.815-0.646c0.227-0.25,0.34-0.544,0.34-0.885
			c0-0.544-0.289-0.975-0.867-1.292c-0.577-0.316-1.246-0.561-2.006-0.73s-1.508-0.277-2.244-0.323
			c-0.736-0.045-1.264-0.068-1.58-0.068c-0.432,0-0.941,0.018-1.53,0.052c-0.59,0.033-1.15,0.13-1.684,0.289
			c-0.532,0.158-0.985,0.391-1.359,0.696c-0.374,0.307-0.562,0.742-0.562,1.31v0.578C92.549,47.019,93.212,47.494,93.948,47.789z
			 M93.475,34.847c0.172,0.458,0.412,0.864,0.722,1.218c0.309,0.355,0.675,0.646,1.099,0.875c0.424,0.229,0.876,0.344,1.356,0.344
			c0.526,0,1.001-0.103,1.425-0.309s0.784-0.48,1.082-0.824c0.297-0.343,0.526-0.743,0.687-1.201c0.16-0.457,0.24-0.938,0.24-1.44
			c0-1.03-0.263-1.894-0.79-2.591c-0.526-0.698-1.316-1.047-2.369-1.047c-0.48,0-0.944,0.092-1.391,0.274s-0.842,0.435-1.185,0.755
			c-0.344,0.32-0.618,0.698-0.824,1.133s-0.309,0.903-0.309,1.406C93.218,33.92,93.303,34.39,93.475,34.847z"/>
		<path d="M111.288,32.319c0.307-1.201,0.787-2.267,1.445-3.196c0.657-0.93,1.501-1.672,2.533-2.228
			c1.031-0.555,2.261-0.833,3.688-0.833c1.088,0,2.028,0.21,2.822,0.63c0.793,0.419,1.586,0.969,2.38,1.648
			c0.022,0.023,0.045,0.051,0.068,0.085c0.022,0.034,0.045,0.051,0.067,0.051c0.272,0.522,0.55,1.037,0.833,1.548
			c0.283,0.51,0.544,1.031,0.782,1.563c0.238,0.533,0.431,1.077,0.578,1.632c0.147,0.556,0.221,1.128,0.221,1.717
			c0,0.068-0.006,0.199-0.017,0.392c-0.012,0.192-0.018,0.312-0.018,0.356c-0.045,0.137-0.107,0.38-0.187,0.731
			c-0.08,0.352-0.17,0.726-0.272,1.122c-0.102,0.396-0.198,0.776-0.289,1.139c-0.091,0.363-0.147,0.612-0.17,0.748
			c-0.182,0.612-0.492,1.258-0.935,1.938c-0.442,0.68-0.958,1.298-1.547,1.853c-0.59,0.556-1.23,1.015-1.921,1.377
			c-0.692,0.362-1.377,0.544-2.058,0.544c-0.34,0-0.601-0.022-0.781-0.067c-0.182-0.046-0.335-0.103-0.459-0.17
			c-0.125-0.068-0.256-0.143-0.392-0.222s-0.329-0.152-0.578-0.221c-0.113-0.022-0.328-0.057-0.646-0.103
			c-0.318-0.045-0.544-0.09-0.681-0.136c-0.113-0.045-0.267-0.119-0.459-0.221c-0.192-0.103-0.385-0.204-0.577-0.306
			c-0.193-0.103-0.374-0.192-0.544-0.272c-0.171-0.079-0.268-0.13-0.289-0.153c-0.454-0.294-0.867-0.748-1.241-1.359
			c-0.374-0.612-0.697-1.27-0.969-1.973c-0.272-0.702-0.482-1.404-0.63-2.107c-0.147-0.702-0.221-1.304-0.221-1.802
			C110.829,34.756,110.982,33.521,111.288,32.319z M113.805,36.807c0.033,0.318,0.085,0.635,0.152,0.952
			c0.068,0.317,0.153,0.618,0.255,0.901c0.103,0.283,0.222,0.493,0.357,0.629l1.598,1.598c0.249,0.068,0.447,0.114,0.596,0.137
			c0.146,0.022,0.3,0.045,0.459,0.067c0.158,0.023,0.294,0.034,0.407,0.034c0.022,0.022,0.182,0.034,0.477,0.034
			c0.317,0,0.555,0,0.714,0c0.453,0,0.844-0.006,1.173-0.018c0.328-0.011,0.697-0.096,1.105-0.255
			c0.974-0.793,1.62-1.648,1.938-2.566s0.477-1.978,0.477-3.18c0-0.702-0.074-1.354-0.222-1.955c-0.147-0.6-0.346-1.229-0.595-1.887
			c-0.113-0.294-0.301-0.538-0.562-0.73s-0.544-0.362-0.85-0.511c-0.306-0.146-0.624-0.277-0.952-0.391
			c-0.329-0.113-0.606-0.238-0.833-0.374h-2.142c-0.023,0-0.17,0.085-0.442,0.255c-0.271,0.17-0.476,0.301-0.611,0.391
			c-0.545,0.386-0.981,0.806-1.31,1.259c-0.329,0.453-0.59,0.935-0.782,1.444c-0.192,0.511-0.317,1.049-0.374,1.615
			c-0.057,0.567-0.085,1.168-0.085,1.802C113.753,36.24,113.771,36.49,113.805,36.807z"/>
		<path d="M131.416,41.465c0.351-0.294,0.787-0.441,1.309-0.441c0.317,0,0.629,0.028,0.935,0.085
			c0.307,0.057,0.629,0.085,0.97,0.085c0.09,0,0.221-0.006,0.391-0.018c0.17-0.011,0.267-0.017,0.289-0.017l0.136-0.136
			c0-0.091,0.006-0.238,0.018-0.442c0.011-0.204,0.021-0.425,0.033-0.663s0.028-0.464,0.052-0.68
			c0.022-0.216,0.033-0.368,0.033-0.459c0-0.046,0.018-0.158,0.052-0.341c0.034-0.181,0.062-0.294,0.085-0.34l-0.068-3.332v-0.646
			l-0.204-4.012l-0.271-0.272c-0.114,0-0.307-0.005-0.578-0.017c-0.272-0.012-0.567-0.022-0.884-0.034
			c-0.318-0.012-0.612-0.028-0.885-0.051c-0.271-0.022-0.465-0.034-0.577-0.034c-0.454-0.045-0.833-0.222-1.14-0.527
			c-0.306-0.306-0.459-0.686-0.459-1.139s0.136-0.845,0.408-1.173c0.271-0.329,0.646-0.493,1.122-0.493c0.022,0,0.057,0,0.102,0
			c0.068,0,0.103,0.012,0.103,0.034c0.362,0.045,0.81,0.051,1.343,0.017c0.532-0.034,1.071-0.039,1.615-0.017
			s1.054,0.097,1.529,0.221c0.477,0.125,0.839,0.356,1.089,0.697c0.045,0.045,0.09,0.142,0.136,0.289
			c0.045,0.147,0.096,0.3,0.153,0.459c0.056,0.158,0.124,0.295,0.203,0.407c0.079,0.114,0.165,0.17,0.256,0.17h0.067
			c0.702-0.565,1.456-1.088,2.261-1.563s1.672-0.714,2.602-0.714c0.566,0,1.116,0.097,1.648,0.289
			c0.533,0.192,0.992,0.459,1.377,0.799c0.386,0.34,0.697,0.754,0.936,1.241s0.357,1.025,0.357,1.614
			c0,0.839-0.199,1.554-0.596,2.143c-0.396,0.59-1.07,0.884-2.022,0.884c-0.454,0-0.816-0.142-1.088-0.425
			c-0.272-0.283-0.488-0.629-0.646-1.037c-0.159-0.408-0.267-0.833-0.323-1.275c-0.057-0.441-0.097-0.821-0.119-1.139
			c-0.022-0.113-0.091-0.17-0.203-0.17c-0.114,0-0.193,0-0.238,0c-0.114,0-0.221,0.006-0.323,0.017
			c-0.102,0.012-0.198,0.063-0.289,0.153c-0.091,0.068-0.238,0.204-0.441,0.408c-0.204,0.204-0.42,0.42-0.646,0.646
			c-0.227,0.228-0.442,0.442-0.646,0.646c-0.204,0.204-0.341,0.34-0.408,0.408c-0.091,0.091-0.222,0.243-0.392,0.459
			s-0.334,0.447-0.492,0.696c-0.159,0.25-0.295,0.493-0.408,0.731c-0.114,0.238-0.17,0.414-0.17,0.527v3.842
			c0.022,0.046,0.051,0.158,0.085,0.34s0.051,0.295,0.051,0.34c0,0.068,0.011,0.204,0.034,0.408c0.022,0.204,0.039,0.42,0.051,0.646
			c0.011,0.228,0.022,0.442,0.034,0.646c0.011,0.204,0.017,0.352,0.017,0.442c0.091,0.249,0.227,0.396,0.408,0.441
			c0.181,0.046,0.396,0.068,0.646,0.068c0.25,0,0.505-0.022,0.766-0.068c0.26-0.045,0.516-0.067,0.765-0.067
			c0.521,0,0.997,0.142,1.428,0.425s0.646,0.696,0.646,1.24c0,0.454-0.102,0.812-0.306,1.071c-0.204,0.261-0.471,0.454-0.8,0.578
			c-0.328,0.125-0.686,0.204-1.07,0.238c-0.386,0.034-0.748,0.051-1.088,0.051c-0.386,0-0.766-0.022-1.14-0.068
			c-0.374-0.045-0.754-0.067-1.139-0.067c-0.182,0-0.335,0.006-0.459,0.017c-0.125,0.012-0.301,0.051-0.527,0.119h-3.876
			c-0.544,0-1.037-0.182-1.479-0.544c-0.442-0.362-0.663-0.827-0.663-1.395C130.889,42.168,131.063,41.76,131.416,41.465z"/>
		<path d="M152.326,41.598c0.26-0.451,0.662-0.677,1.207-0.677h3.739l0.238-0.338c0-0.09,0.005-0.247,0.017-0.473
			s0.028-0.462,0.052-0.71c0.021-0.247,0.039-0.484,0.051-0.71c0.011-0.225,0.017-0.382,0.017-0.473
			c0.022-0.045,0.045-0.157,0.068-0.338c0.022-0.18,0.045-0.293,0.068-0.338v-7.467h-3.979c-0.227,0-0.425-0.063-0.595-0.191
			c-0.17-0.127-0.313-0.282-0.425-0.468c-0.114-0.185-0.199-0.387-0.256-0.607c-0.057-0.219-0.085-0.422-0.085-0.606
			c0-0.369,0.091-0.658,0.272-0.867c0.181-0.208,0.402-0.363,0.663-0.468c0.26-0.104,0.544-0.173,0.85-0.208
			c0.307-0.035,0.584-0.052,0.833-0.052c0.386,0,0.766,0.022,1.14,0.067c0.374,0.046,0.753,0.068,1.139,0.068
			c0.271,0,0.538-0.022,0.799-0.068c0.261-0.045,0.527-0.067,0.799-0.067c0.386,0,0.787,0.124,1.207,0.373
			c0.419,0.25,0.629,0.612,0.629,1.089v12.647l0.204,0.204h3.604c0.204,0,0.391,0.075,0.561,0.226s0.317,0.33,0.442,0.538
			c0.124,0.208,0.215,0.428,0.271,0.658c0.057,0.231,0.085,0.428,0.085,0.59c0,0.323-0.085,0.647-0.255,0.971
			c-0.17,0.324-0.447,0.485-0.833,0.485h-11.594c-0.408,0-0.731-0.139-0.969-0.416c-0.238-0.277-0.357-0.612-0.357-1.005
			C151.935,42.505,152.064,42.048,152.326,41.598z M157.103,20.827c0.431-0.453,0.986-0.681,1.666-0.681
			c0.362,0,0.697,0.086,1.003,0.256c0.307,0.17,0.566,0.396,0.782,0.68c0.215,0.283,0.385,0.595,0.51,0.935
			c0.125,0.341,0.188,0.681,0.188,1.021c0,0.68-0.25,1.219-0.748,1.615c-0.499,0.396-1.065,0.595-1.7,0.595
			c-0.771,0-1.354-0.272-1.751-0.816s-0.595-1.189-0.595-1.938C156.457,21.836,156.672,21.28,157.103,20.827z"/>
		<path d="M170.073,33.815c0.124-0.839,0.334-1.638,0.629-2.397c0.294-0.759,0.686-1.462,1.173-2.108
			c0.487-0.646,1.104-1.173,1.853-1.581c0.068-0.045,0.192-0.112,0.374-0.203s0.374-0.188,0.578-0.289
			c0.204-0.103,0.392-0.192,0.562-0.272c0.17-0.079,0.289-0.13,0.356-0.153c0.249-0.112,0.505-0.164,0.766-0.152
			c0.26,0.012,0.515,0.017,0.765,0.017c1.45,0,2.674,0.346,3.672,1.037c0.997,0.691,1.927,1.581,2.788,2.669
			c0.09,0.136,0.209,0.391,0.357,0.765c0.146,0.374,0.283,0.782,0.407,1.225c0.125,0.441,0.232,0.873,0.323,1.292
			c0.091,0.42,0.136,0.73,0.136,0.935c0,0.046-0.006,0.143-0.017,0.289c-0.012,0.147-0.017,0.244-0.017,0.289
			c-0.204,0.34-0.477,0.567-0.816,0.68c-0.34,0.114-0.691,0.204-1.054,0.272c-0.25,0-0.697-0.005-1.344-0.017
			c-0.646-0.012-1.331-0.018-2.057-0.018c-0.703,0-1.377,0.006-2.022,0.018c-0.646,0.012-1.095,0.017-1.344,0.017
			s-0.55,0.006-0.9,0.017c-0.352,0.012-0.697,0.023-1.037,0.035s-0.76,0.04-1.258,0.085l-0.137,0.103
			c0,0.023-0.006,0.103-0.017,0.24c-0.012,0.137-0.017,0.228-0.017,0.273c0,0.661,0.118,1.288,0.356,1.881s0.566,1.112,0.986,1.557
			c0.419,0.444,0.912,0.798,1.479,1.061s1.19,0.393,1.87,0.393c0.068,0,0.221-0.005,0.459-0.017
			c0.238-0.011,0.392-0.017,0.459-0.017c0.317-0.249,0.68-0.426,1.088-0.527s0.76-0.277,1.055-0.527
			c0.226-0.204,0.436-0.453,0.629-0.748c0.192-0.294,0.396-0.577,0.611-0.85s0.447-0.498,0.697-0.68
			c0.249-0.182,0.556-0.272,0.918-0.272c0.34,0,0.617,0.103,0.833,0.306c0.215,0.204,0.323,0.465,0.323,0.782
			c0,0.521-0.114,0.992-0.34,1.411c-0.228,0.42-0.477,0.833-0.748,1.24c-0.681,0.985-1.576,1.691-2.687,2.117
			c-1.11,0.425-2.256,0.638-3.434,0.638c-1.156,0-2.199-0.227-3.128-0.68c-0.93-0.453-1.712-1.065-2.347-1.836
			s-1.121-1.66-1.462-2.669c-0.34-1.009-0.51-2.068-0.51-3.18C169.886,35.47,169.948,34.653,170.073,33.815z M173.082,33.339
			c0,0.068,0.045,0.103,0.136,0.103h7.854c0.045,0,0.107-0.028,0.187-0.086c0.079-0.056,0.142-0.106,0.188-0.152
			c0.021-0.045,0.033-0.124,0.033-0.238c0-0.113,0-0.192,0-0.238c0-0.544-0.136-1.003-0.407-1.377
			c-0.272-0.374-0.612-0.668-1.021-0.884c-0.408-0.215-0.855-0.374-1.343-0.476c-0.487-0.103-0.946-0.153-1.377-0.153
			c-0.477,0-0.964,0.063-1.462,0.188c-0.499,0.124-0.952,0.322-1.36,0.595c-0.408,0.271-0.748,0.617-1.02,1.037
			c-0.272,0.419-0.408,0.912-0.408,1.479C173.082,33.181,173.082,33.249,173.082,33.339z"/>
		<path d="M188.773,42.366c0.011-0.147,0.073-0.334,0.187-0.562v-4.012c0-0.317,0.124-0.572,0.374-0.765
			c0.249-0.192,0.521-0.289,0.816-0.289c0.136,0,0.289,0.017,0.459,0.051s0.311,0.107,0.425,0.221
			c0.158,0.182,0.249,0.403,0.271,0.663c0.022,0.261,0.103,0.482,0.238,0.663c0.294,0.408,0.583,0.799,0.867,1.173
			c0.283,0.374,0.595,0.703,0.935,0.986s0.72,0.51,1.14,0.68c0.419,0.17,0.9,0.255,1.444,0.255c0.477,0,0.958-0.051,1.445-0.152
			c0.487-0.103,0.929-0.267,1.326-0.493c0.396-0.227,0.725-0.527,0.986-0.901c0.26-0.374,0.391-0.833,0.391-1.377
			c0-0.385-0.063-0.691-0.188-0.918c-0.124-0.227-0.38-0.419-0.765-0.578c-0.703-0.227-1.439-0.385-2.21-0.476
			s-1.53-0.182-2.278-0.272c-0.748-0.09-1.468-0.215-2.158-0.374c-0.692-0.158-1.292-0.419-1.803-0.781
			c-0.51-0.362-0.918-0.861-1.224-1.496s-0.459-1.474-0.459-2.517c0-1.201,0.289-2.153,0.867-2.855s1.411-1.28,2.499-1.734
			c0.249-0.113,0.515-0.209,0.799-0.289c0.283-0.079,0.572-0.119,0.867-0.119h0.306c0.816,0.114,1.649,0.289,2.499,0.527
			s1.615,0.595,2.295,1.071c0.158-0.113,0.289-0.25,0.391-0.408c0.103-0.158,0.204-0.307,0.307-0.442
			c0.102-0.136,0.221-0.249,0.356-0.34c0.137-0.09,0.317-0.136,0.544-0.136c0.317,0,0.606,0.119,0.867,0.356
			c0.261,0.238,0.38,0.517,0.357,0.833c0,0.137,0.005,0.38,0.017,0.731s0.022,0.726,0.034,1.122
			c0.011,0.396,0.028,0.771,0.051,1.122s0.034,0.595,0.034,0.73v0.408c0,0.408-0.119,0.822-0.357,1.241
			c-0.237,0.42-0.595,0.629-1.07,0.629c-0.408,0-0.731-0.182-0.969-0.544c-0.238-0.362-0.46-0.776-0.663-1.241
			c-0.204-0.464-0.442-0.912-0.715-1.343c-0.271-0.431-0.657-0.714-1.155-0.85c-0.318-0.091-0.562-0.153-0.731-0.188
			s-0.335-0.063-0.493-0.085s-0.328-0.034-0.51-0.034s-0.431,0-0.748,0c-0.091,0-0.295,0.006-0.612,0.018s-0.532,0.017-0.646,0.017
			c-0.204,0.068-0.408,0.17-0.612,0.306c-0.204,0.137-0.391,0.301-0.561,0.493c-0.17,0.193-0.307,0.403-0.408,0.629
			c-0.102,0.228-0.153,0.442-0.153,0.646c0,0.521,0.131,0.918,0.392,1.189c0.26,0.272,0.617,0.465,1.07,0.578
			c1.27-0.045,2.562,0.046,3.876,0.272s2.551,0.578,3.706,1.054c0.59,0.544,1.094,1.173,1.514,1.887
			c0.419,0.714,0.629,1.491,0.629,2.329c0,0.862-0.182,1.655-0.544,2.38c-0.363,0.726-0.845,1.355-1.445,1.888
			s-1.281,0.946-2.04,1.24c-0.76,0.295-1.547,0.442-2.363,0.442c-0.136,0-0.317-0.005-0.544-0.017s-0.352-0.018-0.374-0.018
			c-0.045,0-0.142-0.017-0.289-0.051s-0.306-0.073-0.476-0.119c-0.17-0.045-0.335-0.09-0.493-0.136
			c-0.158-0.045-0.271-0.079-0.34-0.103c-0.408-0.112-0.771-0.334-1.088-0.663c-0.317-0.328-0.669-0.595-1.054-0.799
			c-0.137,0.068-0.233,0.21-0.289,0.426c-0.058,0.215-0.125,0.441-0.204,0.68c-0.08,0.238-0.216,0.447-0.408,0.629
			c-0.192,0.181-0.493,0.271-0.901,0.271c-0.498,0-0.833-0.197-1.003-0.595c-0.17-0.396-0.255-0.799-0.255-1.207
			C188.756,42.7,188.762,42.514,188.773,42.366z"/>
	</g>
</g>
<g id="tits">
</g>
<g id="dicks">
</g>
<g id="questions">
</g>
<g id="double_hands">
</g>
<g id="take_2">
</g>
<g id="take_3">
</g>
<g id="give_3">
</g>
<g id="give_2">
</g>
<g id="rewind">
</g>
<g id="Cryptkeeper">
</g>
<g id="Take_2_and_Redo">
</g>
<g id="Embryo">
</g>
<g id="I_am_Groot">
</g>
<g id="Mini_Me">
</g>
<g id="Ditto_1_">
</g>
<g id="reverse">
</g>
</svg>
