<?xml version="1.0" encoding="utf-8"?>
<!-- Generator: Adobe Illustrator 16.0.0, SVG Export Plug-In . SVG Version: 6.00 Build 0)  -->
<!DOCTYPE svg PUBLIC "-//W3C//DTD SVG 1.1//EN" "http://www.w3.org/Graphics/SVG/1.1/DTD/svg11.dtd">
<svg version="1.1" xmlns="http://www.w3.org/2000/svg" xmlns:xlink="http://www.w3.org/1999/xlink" x="0px" y="0px"
	 width="209.759px" height="62.36px" viewBox="0 0 209.759 62.36" enable-background="new 0 0 209.759 62.36" xml:space="preserve">
<g id="Layer_1">
</g>
<g id="Hat">
</g>
<g id="Compliments">
</g>
<g id="HAT">
</g>
<g id="speech">
</g>
<g id="TREX_ARMS">
</g>
<g id="Layer_7">
</g>
<g id="TIMEOUT">
</g>
<g id="Layer_9">
</g>
<g id="ARM_WRESTLE">
</g>
<g id="musical_chairs">
</g>
<g id="never_have_i_ever">
</g>
<g id="Trivia">
</g>
<g id="Layer_14">
</g>
<g id="Layer_15">
</g>
<g id="Layer_16">
</g>
<g id="Layer_17">
</g>
<g id="Heads_up">
</g>
<g id="Archenemy">
</g>
<g id="battle_of_the_sexes">
</g>
<g id="one_must_drink">
</g>
<g id="rainbow_connection">
</g>
<g id="social_drinking">
</g>
<g id="Spin_the_bottle">
</g>
<g id="accents">
</g>
<g id="Slap">
	<g>
		<path d="M87.363,18.56c-9.339-4.561-19.339-3.561-28.339-3.561c-4,0-10,3-6,7c12,8,31-2,36,10c4,10-17,16-28,19c-10,3-22,2-31-4
			c2-2,5-6,7-6c11,1,29,8,37-4c-11-6-24-2-35-10c-3-2-5-7-2-11c13-14,34-8,50.246-3.986L87.363,18.56z"/>
		<path d="M79.396,51.653c6.627-8.654,17.627-12.654,23.627-22.654c5-9-5-15-10-21c11-3,23,10,18,21c-3,6-9,10-14,15
			c3-0.5,5.75-0.25,8.5,0.125s5.5,0.875,8.5,0.875c-1.75,2.5-3.813,4.125-6.093,5.168c-6.84,3.128-15.639,1.016-23.834,1.567
			C81.336,51.677,79.396,51.653,79.396,51.653z"/>
		<path d="M131.608,8.99c19.416,6.009,18.416,29.009,12.416,44.009c0,0-8,2-8-3c1-3,2-6,4-8c-9-3-19,2-24,10c-2,1-5,0-8,0
			c1.667-1.5,3.417-3,5.184-4.523c8.816-7.477,18.816-15.477,19.85-27.492C132.798,13.69,131.608,8.99,131.608,8.99z
			 M140.942,35.426c0.082-5.427,0.082-11.427-2.918-16.427c1,6-3,11-6.433,16.4L140.942,35.426z"/>
		<path d="M150.568,52.299c7.456-13.3,9.456-30.3,1.456-43.3c14-3,36,2,34,20c-1,10-14,7-21,10c-3,2-2,9-4.642,13.267
			L150.568,52.299z M165.835,30.255c4.188,1.744,8.188,0.744,12.188-1.256c2-2,2-5,0-8c-4-5-11-7-16-3c-1,1,2,3,2.471,5.306
			C165.38,26.773,165.835,30.255,165.835,30.255z"/>
	</g>
</g>
<g id="give_3">
</g>
<g id="Layer_36">
</g>
<g id="Layer_37">
</g>
<g id="Layer_38">
</g>
<g id="Layer_39">
</g>
<g id="Layer_40">
</g>
<g id="Layer_41">
</g>
<g id="Layer_42">
</g>
<g id="Layer_43">
</g>
<g id="Layer_44">
</g>
<g id="Layer_45">
</g>
<g id="Layer_46">
</g>
<g id="Layer_47">
</g>
<g id="Layer_48">
</g>
<g id="give_2">
</g>
<g id="rewind">
</g>
<g id="Layer_22">
</g>
<g id="Layer_19">
</g>
<g id="Layer_20">
</g>
<g id="Layer_21">
</g>
<g id="Layer_23">
</g>
<g id="Layer_24">
</g>
</svg>
