<?xml version="1.0" encoding="utf-8"?>
<!-- Generator: Adobe Illustrator 16.0.0, SVG Export Plug-In . SVG Version: 6.00 Build 0)  -->
<!DOCTYPE svg PUBLIC "-//W3C//DTD SVG 1.1//EN" "http://www.w3.org/Graphics/SVG/1.1/DTD/svg11.dtd">
<svg version="1.1" xmlns="http://www.w3.org/2000/svg" xmlns:xlink="http://www.w3.org/1999/xlink" x="0px" y="0px"
	 width="209.759px" height="62.361px" viewBox="0 0 209.759 62.361" enable-background="new 0 0 209.759 62.361"
	 xml:space="preserve">
<g id="Layer_1">
</g>
<g id="Blindman">
</g>
<g id="Compliments">
</g>
<g id="HAT">
</g>
<g id="speech">
</g>
<g id="TREX_ARMS">
</g>
<g id="slim_shady">
</g>
<g id="TIMEOUT">
</g>
<g id="Truth_or_Dare">
</g>
<g id="ARM_WRESTLE">
</g>
<g id="musical_chairs">
</g>
<g id="never_have_i_ever">
</g>
<g id="Trivia">
</g>
<g id="Drink_Pulling">
</g>
<g id="Sharing_is_Caring">
</g>
<g id="Not_It">
</g>
<g id="Cocktail_of_Doom">
</g>
<g id="Heads_up">
</g>
<g id="Archenemy">
</g>
<g id="battle_of_the_sexes">
</g>
<g id="one_must_drink">
</g>
<g id="rainbow_connection">
</g>
<g id="social_drinking">
</g>
<g id="Spin_the_bottle">
</g>
<g id="accents">
</g>
<g id="Slap">
</g>
<g id="rub">
</g>
<g id="down_the_hatch">
	<path d="M46.033,32.122l4.75,28.94l11.709,1.299l13.666-3.174l25,2c0,0,15.75-3.58,16.25-3.165s25.625,2.54,25.625,2.54l27.75-2.54
		l2.375-11.585l-13.125-6l-4.5-8.315l-22,6.083l-12.375-6.083l-21.018,3.832l-19.482,3.108l-3.625-5.416l-15.5,1.791L46.033,32.122z
		"/>
	<polygon points="5.242,3.646 10.909,31.181 31.742,29.146 52.742,31.181 83.575,31.181 112.409,28.646 119.742,17.565 
		113.742,4.489 67.909,5.313 39.742,0.727 34.909,5.646 24.742,1.646 	"/>
	<polygon points="128.242,1.813 123.73,15.953 132.575,29.979 145.575,29.979 162.471,28.25 178.575,31.181 202.783,24.813 
		195.075,2.949 176.409,7.646 162.736,6.354 159.909,0.826 145.846,3.375 	"/>
	<g>
		<path fill="#FFFFFF" d="M20.088,3.631c6.645,3.773,10.195,5.807,10.652,6.1c-0.398,6.211-0.697,9.58-0.896,10.107
			c-3.797,3.844-5.754,5.766-5.871,5.766L11.984,26.5c-0.152-0.516-1.189-7.248-3.111-20.197C9.998,5.928,13.736,5.037,20.088,3.631
			z M17.205,10.398v0.123l0.879,10.424c3.258-0.773,4.887-1.254,4.887-1.441c0-0.281,0.369-2.461,1.107-6.539
			C19.637,11.254,17.346,10.398,17.205,10.398z"/>
		<path fill="#FFFFFF" d="M43.143,8.957c4.453,1.195,6.814,1.922,7.084,2.18c2.449,3.469,3.826,5.467,4.131,5.994
			c-1.582,5.016-2.49,7.523-2.725,7.523c-5.273,1.23-8.033,1.846-8.279,1.846c-4.359-2.543-6.68-3.961-6.961-4.254
			c-0.152-4.734-0.229-7.348-0.229-7.84c-0.07-0.141-0.105-0.246-0.105-0.316c4.5-3.422,6.826-5.133,6.979-5.133H43.143z
			 M42.809,15.391c-0.07,0.469-0.176,2.174-0.316,5.115l3.92,0.879c0.938-2.93,1.406-4.494,1.406-4.693
			c-3.117-0.938-4.787-1.406-5.01-1.406V15.391z"/>
		<path fill="#FFFFFF" d="M67.094,8.939c0.152,0.199,0.943,3.598,2.373,10.195h0.123c0-0.152,0.867-1.494,2.602-4.025
			c0.727,0.492,2.109,1.559,4.148,3.199h0.246v-0.123c0.316-4.57,0.551-7.102,0.703-7.594c4.828,0.246,7.242,0.445,7.242,0.598
			c-2.215,8.906-3.398,13.535-3.551,13.887c-0.738,0.082-2.285,0.316-4.641,0.703c-1.934-3.035-3.041-4.652-3.322-4.852
			c-1.266,3.375-2.057,5.232-2.373,5.572h-4.746c-0.293-0.094-1.676-3.141-4.148-9.141c-1.582-3.352-2.373-5.168-2.373-5.449
			C59.377,11.652,61.949,10.662,67.094,8.939z"/>
		<path fill="#FFFFFF" d="M105.441,8.939l5.854,4.025c-0.41,6.68-0.697,10.582-0.861,11.707c-0.68,0.082-2.748,0.205-6.205,0.369
			l-0.123-0.246l-0.615-9.387l-0.246-0.123c-2.238,0.48-3.779,0.844-4.623,1.09c0.234,3.996,0.352,6.885,0.352,8.666
			c-3.492,0.973-5.402,1.459-5.73,1.459c-2.273-10.008-3.41-15.293-3.41-15.855c4.945-0.645,7.629-0.967,8.051-0.967v0.123
			c0.082,0.059,0.205,1.277,0.369,3.656C102.787,10.445,105.184,8.939,105.441,8.939z"/>
		<path fill="#FFFFFF" d="M134.078,3.631l7.734,1.371l-0.738,5.871c1.535-0.082,2.66-0.123,3.375-0.123h1.125l0.246-0.123
			l0.123,0.246c-0.246,3.563-0.457,5.566-0.633,6.012l-0.246-0.141c-0.176,0-1.758-0.082-4.746-0.246
			c-0.164,2.754-0.287,6.047-0.369,9.879l-0.246,0.123c-3.773-0.246-6.023-0.457-6.75-0.633l0.123-0.492
			c0-1.02,0.164-4.184,0.492-9.492c-3.164-0.176-4.746-0.387-4.746-0.633c0.164-3.914,0.375-5.871,0.633-5.871l4.623,0.879V8.746
			c0-1.23-0.047-2.895-0.141-4.992C134.031,3.754,134.078,3.713,134.078,3.631z"/>
		<path fill="#FFFFFF" d="M159.066,3.631c0.07,0.105,0.398,3.316,0.984,9.633c4.523-1.383,6.932-2.074,7.225-2.074l4.482,3.059
			c-0.727,6.68-1.201,10.582-1.424,11.707l-6.223,0.211c0-0.07-0.041-0.105-0.123-0.105l0.123-0.439
			c0-0.949,0.141-3.832,0.422-8.648c-1.711-0.07-2.982-0.105-3.814-0.105h-0.439c0.504,5.355,0.756,8.273,0.756,8.754l-5.906,0.879
			c-0.223-0.75-1.535-7.752-3.938-21.006c0-0.375,0.914-0.668,2.742-0.879C156.242,3.959,157.953,3.631,159.066,3.631z"/>
		<path fill="#FFFFFF" d="M186.798,8.957c5.309,2.73,8.25,4.324,8.824,4.781c-0.762,3.563-1.213,5.396-1.354,5.502h-11.109v0.193
			l3.111,3.85l4.887-2.496c0.48,0.832,1.172,2.285,2.074,4.359c-0.422,0.141-3.498,0.592-9.229,1.354
			c-4.746-3.129-7.137-4.758-7.172-4.887c0.762-6.082,1.213-9.123,1.354-9.123C183.142,10.381,186.013,9.203,186.798,8.957z
			 M185.655,13.211c-0.094,0.234-0.715,1.166-1.863,2.795c0,0.492,0.691,0.738,2.074,0.738c0,0.07,1.002,0.24,3.006,0.51
			c0.551-0.762,0.826-1.207,0.826-1.336c-0.176-1.043-0.557-1.564-1.143-1.564L185.655,13.211z"/>
		<path fill="#FFFFFF" d="M64.932,35.631c5.074,0.609,7.717,0.99,7.928,1.143v0.123l-0.914,21.146l-0.246,0.105
			c-1.219,0-3.246,0.117-6.082,0.352c-0.152-0.457-0.229-1.453-0.229-2.988V52.98l-0.123-0.686c0-0.082,0.041-0.123,0.123-0.123
			l-0.123-0.791v-2.074c-2.051,0-4.078,0.076-6.082,0.229l0.457,7.822c-0.598,0.152-2.666,0.533-6.205,1.143
			c-0.176,0-0.75-4.365-1.723-13.096c-0.082-0.199-0.504-3.381-1.266-9.545c3.551,0.082,6.158,0.123,7.822,0.123
			c0.176,0,0.363,2.754,0.563,8.262h6.328v-1.143c0-0.281-0.041-0.627-0.123-1.037c0-0.07,0.041-0.105,0.123-0.105l-0.123-0.58
			v-2.637C65.037,38.086,65.002,37.049,64.932,35.631z"/>
		<path fill="#FFFFFF" d="M80.744,40.939c6.961,0.961,10.441,1.553,10.441,1.775c2.742,2.355,4.113,3.615,4.113,3.779
			c-1.113,3.48-1.746,5.596-1.898,6.346c1.113,2.473,1.746,3.949,1.898,4.43c0,0.141-1.816,0.516-5.449,1.125
			c-0.047-0.199-0.381-0.645-1.002-1.336c-5.016,0.961-7.717,1.441-8.104,1.441l-2.672-7.225l5.889-3.111
			c0.949,0.152,2.432,0.229,4.447,0.229c0-0.258,0.035-1.037,0.105-2.338c-0.34,0-3.375,0.223-9.105,0.668l-0.105-0.229
			C80.1,42.791,80.58,40.939,80.744,40.939z M84.4,51.275c0,0.129,0.375,1.5,1.125,4.113h0.105c1.477-0.961,2.215-1.594,2.215-1.898
			l0.229-1.881C87.793,51.609,86.568,51.498,84.4,51.275z"/>
		<path fill="#FFFFFF" d="M105.645,35.631l7.734,1.371l-0.738,5.871c1.535-0.082,2.66-0.123,3.375-0.123h1.125l0.246-0.123
			l0.123,0.246c-0.246,3.563-0.457,5.566-0.633,6.012l-0.246-0.141c-0.176,0-1.758-0.082-4.746-0.246
			c-0.164,2.754-0.287,6.047-0.369,9.879L111.27,58.5c-3.773-0.246-6.023-0.457-6.75-0.633l0.123-0.492
			c0-1.02,0.164-4.184,0.492-9.492c-3.164-0.176-4.746-0.387-4.746-0.633c0.164-3.914,0.375-5.871,0.633-5.871l4.623,0.879v-1.512
			c0-1.23-0.047-2.895-0.141-4.992C105.598,35.754,105.645,35.713,105.645,35.631z"/>
		<path fill="#FFFFFF" d="M129.666,40.957c5.285,0.996,8.051,1.564,8.297,1.705v0.211c-1.137,3.211-1.705,4.875-1.705,4.992h-0.105
			c-0.293,0-1.711-0.457-4.254-1.371c-1.418,2.379-2.127,3.65-2.127,3.814l3.516,3.41c2.719-2.555,4.102-3.832,4.148-3.832
			c2.121,2.777,3.182,4.336,3.182,4.676c-1.16,0.668-3.182,1.98-6.064,3.938c-5.578-1.207-8.59-1.881-9.035-2.021l-2.76-8.93
			L129.666,40.957z"/>
		<path fill="#FFFFFF" d="M153.652,35.631c0.07,0.105,0.398,3.316,0.984,9.633c4.523-1.383,6.932-2.074,7.225-2.074l4.482,3.059
			c-0.727,6.68-1.201,10.582-1.424,11.707l-6.223,0.211c0-0.07-0.041-0.105-0.123-0.105l0.123-0.439
			c0-0.949,0.141-3.832,0.422-8.648c-1.711-0.07-2.982-0.105-3.814-0.105h-0.439c0.504,5.355,0.756,8.273,0.756,8.754l-5.906,0.879
			c-0.223-0.75-1.535-7.752-3.938-21.006c0-0.375,0.914-0.668,2.742-0.879C150.828,35.959,152.539,35.631,153.652,35.631z"/>
	</g>
</g>
<g id="rubiks_cube">
</g>
<g id="bar_tender">
</g>
<g id="codenames">
</g>
<g id="hand_switch">
</g>
<g id="make_a_rule">
</g>
<g id="no_guts_no_glory">
</g>
<g id="pass">
</g>
<g id="santa">
</g>
<g id="snake_eyes">
</g>
<g id="bodyguard">
</g>
<g id="threeman">
</g>
<g id="_x32__truths_and_a_lie">
</g>
<g id="cray_cray_cat_lady">
</g>
<g id="siblings">
</g>
<g id="later">
</g>
<g id="waterfall">
</g>
<g id="cheers">
</g>
<g id="rhyme">
</g>
<g id="categories">
</g>
<g id="tits">
</g>
<g id="dicks">
</g>
<g id="questions">
</g>
<g id="double_hands">
</g>
<g id="take_2">
</g>
<g id="take_3">
</g>
<g id="give_3">
</g>
<g id="give_2">
</g>
<g id="rewind">
</g>
<g id="Cryptkeeper">
</g>
<g id="Take_2_and_Redo">
</g>
<g id="Embryo">
</g>
<g id="I_am_Groot">
</g>
<g id="Mini_Me">
</g>
<g id="Ditto_1_">
</g>
</svg>
