<?xml version="1.0" encoding="utf-8"?>
<!-- Generator: Adobe Illustrator 16.0.0, SVG Export Plug-In . SVG Version: 6.00 Build 0)  -->
<!DOCTYPE svg PUBLIC "-//W3C//DTD SVG 1.1//EN" "http://www.w3.org/Graphics/SVG/1.1/DTD/svg11.dtd">
<svg version="1.1" xmlns="http://www.w3.org/2000/svg" xmlns:xlink="http://www.w3.org/1999/xlink" x="0px" y="0px"
	 width="209.759px" height="62.361px" viewBox="0 0 209.759 62.361" enable-background="new 0 0 209.759 62.361"
	 xml:space="preserve">
<g id="Layer_1">
</g>
<g id="Blindman">
</g>
<g id="Compliments">
</g>
<g id="HAT">
</g>
<g id="speech">
</g>
<g id="TREX_ARMS">
</g>
<g id="slim_shady">
</g>
<g id="TIMEOUT">
</g>
<g id="Truth_or_Dare">
</g>
<g id="ARM_WRESTLE">
</g>
<g id="musical_chairs">
</g>
<g id="never_have_i_ever">
</g>
<g id="Trivia">
</g>
<g id="Drink_Pulling">
</g>
<g id="Sharing_is_Caring">
</g>
<g id="Not_It">
</g>
<g id="Cocktail_of_Doom">
</g>
<g id="Heads_up">
</g>
<g id="Archenemy">
</g>
<g id="battle_of_the_sexes">
</g>
<g id="one_must_drink">
</g>
<g id="rainbow_connection">
</g>
<g id="social_drinking">
</g>
<g id="Spin_the_bottle">
</g>
<g id="accents">
</g>
<g id="Slap">
</g>
<g id="down_the_hatch">
</g>
<g id="rubiks_cube">
</g>
<g id="bar_tender">
</g>
<g id="codenames">
</g>
<g id="hand_switch">
</g>
<g id="make_a_rule">
</g>
<g id="no_guts_no_glory">
</g>
<g id="pass">
</g>
<g id="santa">
</g>
<g id="snake_eyes">
</g>
<g id="lightning_round">
</g>
<g id="Bro">
</g>
<g id="LeastDrunk">
</g>
<g id="Know_It_All">
</g>
<g id="EyeContact">
</g>
<g id="UnderGuesser">
</g>
<g id="GodSaveTheQUeen">
</g>
<g id="Ghost">
</g>
<g id="Fortune_Teller">
	<g>
		<path d="M0.078,41.535c0.264-0.146,0.579-0.22,0.945-0.22c0.265,0,0.524,0.019,0.781,0.055c0.257,0.037,0.518,0.055,0.781,0.055
			c0.073,0,0.165-0.003,0.275-0.011c0.109-0.007,0.172-0.011,0.187-0.011l0.088-0.088v-2.662c-0.029-0.132-0.052-0.231-0.065-0.297
			c-0.016-0.066-0.022-0.158-0.022-0.275c0-0.103,0.007-0.19,0.022-0.264c0.014-0.073,0.036-0.169,0.065-0.286v-6.645L2.96,30.029
			l-0.088-0.088c-0.015,0-0.096-0.004-0.242-0.012c-0.146-0.007-0.257-0.011-0.33-0.011c-0.264,0-0.51,0.019-0.737,0.055
			c-0.228,0.037-0.466,0.056-0.715,0.056c-0.337,0-0.604-0.092-0.803-0.275s-0.297-0.443-0.297-0.781
			c0-0.337,0.113-0.648,0.341-0.935s0.524-0.429,0.891-0.429c0.338,0,0.672,0.003,1.001,0.011c0.33,0.008,0.656,0.063,0.979,0.165
			l2.508-0.044h0.418l5.258-0.044c0.278,0,0.535,0.117,0.771,0.352c0.234,0.235,0.352,0.492,0.352,0.771v4.729
			c0,0.132-0.025,0.275-0.077,0.429c-0.051,0.154-0.12,0.305-0.209,0.451c-0.088,0.147-0.194,0.269-0.318,0.363
			c-0.125,0.096-0.253,0.143-0.385,0.143c-0.162,0-0.346-0.076-0.551-0.23s-0.308-0.305-0.308-0.451v-3.189
			c0-0.029-0.041-0.11-0.121-0.242c-0.081-0.132-0.143-0.228-0.187-0.286c-0.294-0.366-0.613-0.587-0.957-0.66
			c-0.345-0.073-0.745-0.11-1.199-0.11c-0.499,0-0.983,0.026-1.452,0.077c-0.47,0.052-0.961,0.085-1.474,0.1l-0.089,0.088
			c0,0.015-0.003,0.106-0.011,0.274c-0.008,0.169-0.011,0.29-0.011,0.363c0,0.338,0.019,0.656,0.055,0.957
			c0.037,0.301,0.056,0.612,0.056,0.935c0,0.206-0.016,0.396-0.044,0.572c-0.03,0.176-0.045,0.367-0.045,0.572
			c0,0.059,0.004,0.143,0.012,0.253c0.007,0.11,0.021,0.217,0.044,0.319c0.021,0.103,0.051,0.194,0.088,0.274
			c0.036,0.081,0.077,0.121,0.121,0.121h1.122c0.088,0,0.172-0.033,0.253-0.099c0.08-0.066,0.157-0.15,0.23-0.253
			S6.942,34.11,6.986,34s0.08-0.201,0.109-0.275c0-0.146,0-0.337,0-0.571s0.022-0.462,0.066-0.683
			c0.044-0.22,0.124-0.41,0.242-0.571c0.117-0.162,0.3-0.242,0.55-0.242c0.205,0,0.407,0.073,0.604,0.22
			c0.198,0.146,0.297,0.33,0.297,0.55v5.104c0.103,0.161,0.154,0.345,0.154,0.55s0,0.396,0,0.572c0,0.161-0.004,0.341-0.011,0.539
			C8.991,39.39,8.958,39.577,8.9,39.753c-0.06,0.176-0.151,0.323-0.275,0.44C8.5,40.311,8.32,40.369,8.086,40.369
			c-0.264,0-0.473-0.096-0.627-0.286s-0.246-0.41-0.275-0.66c0-0.059-0.007-0.176-0.021-0.352c-0.015-0.177-0.026-0.359-0.033-0.55
			c-0.008-0.191-0.015-0.371-0.022-0.539c-0.007-0.169-0.011-0.29-0.011-0.363c-0.132-0.382-0.308-0.638-0.527-0.771
			c-0.221-0.132-0.521-0.197-0.902-0.197H5.204c-0.146,0.103-0.235,0.249-0.265,0.439v0.99c0,0.528,0.026,1.038,0.077,1.529
			c0.052,0.491,0.085,1.001,0.1,1.528c0.073,0.133,0.179,0.209,0.318,0.231c0.14,0.021,0.275,0.033,0.407,0.033
			c0.19,0,0.378-0.015,0.562-0.044c0.183-0.029,0.37-0.044,0.561-0.044c0.146,0,0.315,0.019,0.506,0.055
			c0.19,0.037,0.366,0.096,0.528,0.176c0.161,0.081,0.297,0.188,0.407,0.319c0.109,0.132,0.165,0.293,0.165,0.483
			c0,0.514-0.235,0.829-0.704,0.946c-0.059,0-0.165,0.004-0.319,0.011c-0.154,0.008-0.319,0.015-0.495,0.022
			s-0.341,0.019-0.495,0.033c-0.153,0.015-0.261,0.021-0.318,0.021c-0.03,0-0.104,0.011-0.221,0.033s-0.19,0.041-0.22,0.055H0.452
			c-0.118,0-0.224-0.04-0.319-0.121c-0.096-0.08-0.176-0.176-0.242-0.285c-0.065-0.11-0.117-0.228-0.153-0.353
			c-0.037-0.124-0.056-0.238-0.056-0.341C-0.318,41.961-0.187,41.682,0.078,41.535z"/>
		<path d="M15.137,35.661c0.198-0.777,0.51-1.467,0.936-2.068c0.425-0.601,0.972-1.081,1.639-1.44s1.463-0.539,2.387-0.539
			c0.704,0,1.313,0.136,1.826,0.406c0.514,0.272,1.026,0.628,1.54,1.067c0.015,0.015,0.029,0.033,0.044,0.055
			c0.015,0.022,0.029,0.033,0.044,0.033c0.177,0.338,0.355,0.671,0.539,1.001s0.353,0.668,0.506,1.013
			c0.154,0.345,0.279,0.696,0.374,1.056c0.096,0.359,0.144,0.729,0.144,1.111c0,0.044-0.004,0.128-0.011,0.253
			c-0.008,0.124-0.012,0.201-0.012,0.23c-0.029,0.088-0.069,0.246-0.121,0.473c-0.051,0.229-0.109,0.47-0.176,0.727
			c-0.065,0.257-0.128,0.503-0.187,0.737s-0.096,0.396-0.11,0.483c-0.117,0.396-0.319,0.814-0.604,1.254
			c-0.286,0.44-0.62,0.84-1.001,1.199c-0.382,0.359-0.796,0.656-1.243,0.891c-0.448,0.235-0.892,0.353-1.331,0.353
			c-0.221,0-0.389-0.015-0.506-0.044c-0.118-0.029-0.217-0.066-0.298-0.11c-0.08-0.044-0.164-0.092-0.253-0.143
			c-0.088-0.052-0.212-0.1-0.374-0.144c-0.073-0.014-0.212-0.036-0.418-0.065c-0.205-0.029-0.352-0.059-0.439-0.088
			c-0.073-0.029-0.173-0.077-0.297-0.144c-0.125-0.065-0.25-0.132-0.374-0.198c-0.125-0.065-0.242-0.124-0.353-0.176
			c-0.109-0.051-0.172-0.084-0.187-0.099c-0.294-0.19-0.562-0.484-0.803-0.88c-0.242-0.396-0.451-0.821-0.628-1.276
			c-0.176-0.454-0.312-0.909-0.406-1.364c-0.096-0.454-0.144-0.843-0.144-1.166C14.84,37.237,14.939,36.438,15.137,35.661z
			 M16.765,38.565c0.022,0.205,0.056,0.41,0.1,0.615c0.044,0.206,0.099,0.4,0.165,0.583c0.065,0.184,0.143,0.319,0.23,0.407
			l1.034,1.034c0.161,0.044,0.29,0.073,0.385,0.088c0.096,0.015,0.194,0.029,0.298,0.044c0.102,0.015,0.19,0.022,0.264,0.022
			c0.015,0.015,0.117,0.021,0.308,0.021c0.205,0,0.359,0,0.462,0c0.294,0,0.547-0.003,0.76-0.011
			c0.212-0.008,0.45-0.063,0.715-0.165c0.63-0.514,1.048-1.067,1.254-1.661c0.205-0.594,0.308-1.279,0.308-2.057
			c0-0.455-0.048-0.877-0.143-1.266c-0.096-0.388-0.224-0.795-0.385-1.221c-0.074-0.19-0.195-0.349-0.363-0.473
			c-0.169-0.125-0.353-0.234-0.55-0.33c-0.198-0.096-0.404-0.18-0.616-0.253c-0.213-0.073-0.393-0.154-0.539-0.242h-1.386
			c-0.015,0-0.11,0.055-0.286,0.165c-0.176,0.109-0.309,0.194-0.396,0.253c-0.352,0.249-0.635,0.521-0.847,0.813
			c-0.213,0.294-0.382,0.605-0.506,0.936c-0.125,0.33-0.206,0.679-0.242,1.045c-0.037,0.367-0.055,0.756-0.055,1.166
			C16.732,38.198,16.743,38.359,16.765,38.565z"/>
		<path d="M28.16,41.579c0.228-0.19,0.51-0.286,0.847-0.286c0.206,0,0.407,0.019,0.605,0.055c0.198,0.037,0.407,0.056,0.627,0.056
			c0.059,0,0.143-0.004,0.253-0.012c0.11-0.007,0.172-0.011,0.188-0.011l0.088-0.088c0-0.059,0.003-0.154,0.011-0.286
			c0.007-0.132,0.015-0.274,0.022-0.429c0.007-0.154,0.018-0.301,0.032-0.44c0.015-0.139,0.022-0.238,0.022-0.297
			c0-0.029,0.011-0.103,0.033-0.22c0.021-0.117,0.04-0.19,0.055-0.22l-0.044-2.156v-0.418l-0.132-2.596l-0.176-0.177
			c-0.074,0-0.198-0.003-0.374-0.011c-0.177-0.007-0.367-0.015-0.572-0.021c-0.206-0.008-0.396-0.019-0.572-0.033
			s-0.301-0.022-0.374-0.022c-0.294-0.029-0.539-0.143-0.737-0.341c-0.197-0.198-0.297-0.443-0.297-0.737
			c0-0.293,0.088-0.546,0.265-0.759c0.176-0.212,0.418-0.319,0.726-0.319c0.015,0,0.036,0,0.066,0c0.044,0,0.065,0.008,0.065,0.022
			c0.234,0.029,0.524,0.033,0.869,0.011c0.345-0.021,0.693-0.025,1.045-0.011c0.353,0.015,0.683,0.063,0.99,0.143
			c0.308,0.081,0.542,0.231,0.704,0.451c0.029,0.03,0.059,0.092,0.088,0.188s0.063,0.194,0.099,0.297
			c0.037,0.103,0.081,0.19,0.132,0.264c0.052,0.074,0.106,0.11,0.165,0.11h0.044c0.455-0.366,0.942-0.704,1.464-1.012
			c0.521-0.309,1.081-0.463,1.683-0.463c0.366,0,0.723,0.063,1.067,0.188c0.344,0.125,0.641,0.297,0.891,0.517
			c0.249,0.221,0.451,0.488,0.604,0.804c0.154,0.315,0.231,0.663,0.231,1.045c0,0.543-0.129,1.005-0.385,1.386
			c-0.257,0.382-0.693,0.572-1.31,0.572c-0.293,0-0.527-0.092-0.704-0.275c-0.176-0.184-0.315-0.407-0.418-0.671
			s-0.172-0.539-0.209-0.825c-0.036-0.286-0.063-0.531-0.076-0.736c-0.016-0.073-0.06-0.11-0.133-0.11s-0.124,0-0.153,0
			c-0.074,0-0.144,0.004-0.209,0.011c-0.066,0.008-0.129,0.041-0.188,0.1c-0.059,0.044-0.153,0.132-0.286,0.264
			c-0.132,0.132-0.271,0.271-0.418,0.418s-0.286,0.286-0.418,0.418s-0.22,0.22-0.264,0.264c-0.059,0.059-0.143,0.158-0.253,0.297
			c-0.11,0.14-0.217,0.29-0.319,0.451c-0.103,0.162-0.19,0.319-0.264,0.474c-0.073,0.153-0.11,0.268-0.11,0.341v2.485
			c0.015,0.03,0.033,0.104,0.056,0.221c0.021,0.117,0.032,0.19,0.032,0.22c0,0.044,0.008,0.132,0.022,0.264s0.025,0.271,0.033,0.418
			c0.007,0.147,0.014,0.286,0.021,0.418c0.008,0.133,0.011,0.228,0.011,0.286c0.059,0.162,0.146,0.257,0.265,0.286
			c0.117,0.029,0.256,0.044,0.418,0.044c0.161,0,0.326-0.015,0.495-0.044c0.168-0.029,0.333-0.044,0.495-0.044
			c0.337,0,0.645,0.092,0.924,0.275c0.278,0.184,0.418,0.45,0.418,0.803c0,0.294-0.066,0.524-0.198,0.693
			c-0.132,0.168-0.305,0.293-0.517,0.374c-0.213,0.08-0.444,0.132-0.693,0.153c-0.25,0.022-0.484,0.033-0.704,0.033
			c-0.249,0-0.495-0.015-0.737-0.044c-0.241-0.029-0.487-0.044-0.736-0.044c-0.118,0-0.217,0.004-0.297,0.011
			c-0.081,0.008-0.195,0.033-0.342,0.077h-2.508c-0.352,0-0.671-0.117-0.957-0.352c-0.286-0.235-0.429-0.536-0.429-0.902
			C27.819,42.034,27.933,41.77,28.16,41.579z"/>
		<path d="M44.671,37.542c-0.029-0.557,0.044-1.076,0.22-1.56v-2.438h-2.771c-0.206,0-0.371-0.103-0.495-0.307
			c-0.125-0.205-0.188-0.396-0.188-0.571c0-0.264,0.085-0.483,0.253-0.658c0.169-0.176,0.342-0.345,0.518-0.506
			c0.176-0.147,0.385-0.229,0.627-0.243s0.487-0.022,0.736-0.022c0.265,0,0.51-0.025,0.737-0.077s0.422-0.195,0.583-0.432
			c0.146-0.221,0.22-0.516,0.22-0.885c0-0.368,0.012-0.733,0.033-1.095c0.022-0.361,0.1-0.671,0.231-0.929s0.41-0.388,0.836-0.388
			c0.425,0,0.686,0.13,0.781,0.388c0.095,0.258,0.143,0.563,0.143,0.918c0,0.339-0.019,0.671-0.055,0.995
			c-0.037,0.325-0.056,0.664-0.056,1.018c0,0.089,0,0.222,0,0.398s0.008,0.272,0.022,0.287l0.154,0.154
			c0.014,0.015,0.117,0.022,0.308,0.022c0.205,0,0.366,0,0.484,0c0.308,0,0.604-0.019,0.891-0.056
			c0.286-0.036,0.575-0.055,0.869-0.055c0.337,0,0.616,0.132,0.836,0.396c0.22,0.264,0.33,0.55,0.33,0.857
			c0,0.294-0.092,0.547-0.275,0.759c-0.184,0.213-0.422,0.319-0.715,0.319c-0.366,0-0.708-0.048-1.022-0.143
			c-0.316-0.096-0.687-0.144-1.111-0.144c-0.088,0-0.217,0.004-0.385,0.011c-0.169,0.008-0.261,0.019-0.275,0.033l-0.264,0.242
			v6.098c0,0.117,0.04,0.249,0.121,0.396c0.08,0.146,0.183,0.285,0.308,0.416c0.124,0.132,0.26,0.245,0.407,0.34
			c0.146,0.096,0.286,0.143,0.418,0.143c0.352,0,0.63-0.084,0.836-0.253c0.205-0.168,0.363-0.377,0.473-0.627
			c0.11-0.249,0.198-0.517,0.265-0.803c0.065-0.286,0.135-0.554,0.209-0.803c0.073-0.249,0.176-0.458,0.308-0.627
			s0.322-0.253,0.572-0.253c0.366,0,0.623,0.132,0.77,0.396c0.146,0.265,0.22,0.55,0.22,0.858c0,0.499-0.073,1.005-0.22,1.518
			c-0.146,0.514-0.363,0.979-0.648,1.397c-0.286,0.418-0.643,0.763-1.067,1.034c-0.426,0.271-0.917,0.406-1.474,0.406
			c-0.221,0-0.39-0.007-0.507-0.021s-0.224-0.04-0.318-0.077c-0.096-0.036-0.191-0.087-0.286-0.153
			c-0.096-0.066-0.224-0.157-0.385-0.274c-0.015,0-0.059-0.019-0.132-0.056c-0.074-0.036-0.147-0.073-0.221-0.109
			s-0.146-0.069-0.22-0.099s-0.117-0.052-0.132-0.066c-0.602-0.468-0.994-0.98-1.177-1.537c-0.184-0.556-0.275-1.2-0.275-1.933
			C44.715,38.633,44.7,38.099,44.671,37.542z"/>
		<path d="M56.827,37.091c0.095-0.66,0.143-1.327,0.143-2.002c0-0.044,0-0.11,0-0.198c0-0.103-0.004-0.209-0.011-0.318
			c-0.008-0.11-0.012-0.209-0.012-0.297c0-0.103,0-0.177,0-0.221c-0.161-0.103-0.341-0.172-0.538-0.209
			c-0.198-0.036-0.386-0.08-0.562-0.132c-0.176-0.051-0.322-0.136-0.439-0.253c-0.118-0.117-0.177-0.308-0.177-0.572
			c0-0.249,0.077-0.462,0.231-0.638s0.363-0.264,0.627-0.264h1.804c0.22,0,0.393,0.048,0.518,0.143
			c0.124,0.095,0.22,0.22,0.285,0.373c0.066,0.153,0.11,0.318,0.133,0.494c0.021,0.175,0.032,0.336,0.032,0.482
			c0,0.308-0.019,0.607-0.055,0.9c-0.037,0.293-0.055,0.592-0.055,0.899c0,0.103,0.003,0.26,0.011,0.472
			c0.007,0.213,0.011,0.333,0.011,0.362c0,0.146,0.008,0.406,0.022,0.779s0.029,0.772,0.044,1.196s0.033,0.823,0.055,1.196
			c0.022,0.373,0.033,0.633,0.033,0.779c0.059,0.38,0.18,0.694,0.363,0.943c0.183,0.249,0.487,0.373,0.913,0.373
			c0.176,0,0.374-0.015,0.594-0.044s0.403-0.11,0.55-0.242c0.264-0.234,0.535-0.502,0.814-0.803
			c0.278-0.301,0.527-0.619,0.748-0.957c0.22-0.337,0.402-0.693,0.55-1.067c0.146-0.374,0.22-0.751,0.22-1.133v-3.189
			c0-0.059-0.099-0.1-0.297-0.121c-0.198-0.022-0.418-0.063-0.66-0.121s-0.462-0.157-0.66-0.297s-0.297-0.349-0.297-0.627
			c0-0.25,0.077-0.447,0.231-0.595c0.153-0.146,0.37-0.22,0.648-0.22h1.98c0.264,0,0.454,0.085,0.571,0.253
			c0.117,0.169,0.198,0.367,0.242,0.594c0.044,0.229,0.066,0.466,0.066,0.716c0,0.249,0.021,0.447,0.065,0.594l-0.044,2.332v0.418
			l-0.044,4.136l0.177,0.176c0.22,0,0.45,0.008,0.692,0.022s0.47,0.063,0.683,0.144c0.212,0.081,0.385,0.199,0.517,0.354
			s0.198,0.382,0.198,0.678c0,0.267-0.052,0.475-0.154,0.622c-0.103,0.148-0.238,0.256-0.407,0.322s-0.355,0.107-0.561,0.122
			c-0.206,0.016-0.411,0.022-0.616,0.022c-0.117,0-0.305-0.007-0.561-0.022c-0.257-0.015-0.518-0.056-0.781-0.122
			c-0.265-0.066-0.495-0.167-0.693-0.3c-0.198-0.134-0.297-0.312-0.297-0.533v-0.956h-0.088c-0.25,0.267-0.495,0.522-0.737,0.768
			c-0.242,0.244-0.499,0.466-0.77,0.666c-0.271,0.2-0.565,0.359-0.88,0.478c-0.316,0.118-0.657,0.178-1.023,0.178
			c-0.602,0-1.122-0.14-1.562-0.418c-0.44-0.278-0.804-0.634-1.09-1.067c-0.285-0.432-0.498-0.916-0.638-1.451
			c-0.14-0.536-0.209-1.067-0.209-1.596C56.684,38.419,56.731,37.751,56.827,37.091z"/>
		<path d="M70.741,41.436c0.293-0.124,0.66-0.201,1.1-0.23l0.088-0.088c0.029-0.205,0.056-0.443,0.077-0.715
			c0.022-0.271,0.056-0.518,0.1-0.737v-5.082c0-0.103-0.092-0.18-0.275-0.231c-0.184-0.051-0.382-0.12-0.594-0.209
			c-0.213-0.088-0.411-0.216-0.595-0.385c-0.184-0.168-0.274-0.429-0.274-0.781c0-0.381,0.136-0.641,0.407-0.78
			c0.271-0.14,0.567-0.209,0.891-0.209c0.044,0,0.11,0,0.198,0c0.103,0,0.153,0.007,0.153,0.021c0.426,0.059,0.767,0.132,1.023,0.22
			c0.257,0.089,0.458,0.21,0.605,0.363c0.146,0.154,0.249,0.356,0.308,0.605s0.103,0.564,0.132,0.945
			c0.015,0.016,0.029,0.022,0.044,0.022h0.044c0.088,0,0.173-0.044,0.253-0.132c0.081-0.088,0.165-0.19,0.253-0.309
			c0.088-0.117,0.177-0.234,0.265-0.352s0.176-0.205,0.264-0.264c0.41-0.294,0.847-0.583,1.309-0.869
			c0.463-0.286,0.957-0.43,1.485-0.43c0.322,0,0.649,0.077,0.979,0.231c0.329,0.154,0.623,0.355,0.88,0.605
			c0.256,0.249,0.465,0.535,0.627,0.857c0.161,0.323,0.242,0.653,0.242,0.99v5.434c-0.06,0.162-0.092,0.309-0.1,0.44
			s-0.011,0.278-0.011,0.439c0,0.044,0.007,0.147,0.021,0.309l0.089,0.088c0.396,0.073,0.751,0.205,1.066,0.396
			c0.315,0.191,0.474,0.521,0.474,0.99c0,0.382-0.114,0.635-0.342,0.759c-0.228,0.125-0.517,0.188-0.869,0.188h-0.329
			c-0.118,0-0.323-0.004-0.616-0.011c-0.294-0.008-0.605-0.015-0.936-0.022c-0.33-0.007-0.642-0.019-0.935-0.033
			c-0.294-0.014-0.499-0.021-0.616-0.021c-0.47-0.132-0.704-0.433-0.704-0.902c0-0.557,0.157-0.913,0.474-1.066
			c0.314-0.154,0.707-0.246,1.177-0.275l0.088-0.088l0.198-0.858v-3.344c0.014-0.044,0.04-0.132,0.077-0.264
			c0.036-0.133,0.055-0.221,0.055-0.265v-0.044v-0.044c0-0.029-0.011-0.113-0.033-0.253c-0.021-0.139-0.04-0.224-0.055-0.253
			c0-0.044-0.004-0.124-0.012-0.242c-0.007-0.117-0.015-0.238-0.021-0.362c-0.008-0.125-0.015-0.246-0.022-0.363
			c-0.007-0.117-0.011-0.198-0.011-0.242c-0.132-0.22-0.301-0.349-0.506-0.385c-0.205-0.037-0.418-0.056-0.638-0.056
			c-0.367,0-0.708,0.089-1.023,0.265s-0.604,0.396-0.869,0.66c-0.264,0.264-0.502,0.554-0.715,0.868
			c-0.213,0.316-0.399,0.613-0.561,0.892c-0.015,0.015-0.044,0.055-0.088,0.121c-0.045,0.065-0.074,0.113-0.089,0.143
			c-0.044,0.074-0.146,0.242-0.308,0.506v2.509c-0.073,0.146-0.113,0.271-0.121,0.373c-0.008,0.104-0.011,0.235-0.011,0.396v0.33
			c0.088,0.132,0.23,0.209,0.429,0.23c0.198,0.022,0.403,0.063,0.616,0.121c0.212,0.06,0.396,0.162,0.55,0.309
			s0.231,0.41,0.231,0.792c0,0.308-0.114,0.539-0.341,0.692c-0.229,0.154-0.488,0.246-0.781,0.275h-0.902h-0.902
			c-0.029,0-0.103-0.015-0.22-0.044s-0.19-0.044-0.22-0.044c-0.25-0.029-0.499-0.048-0.748-0.055c-0.25-0.008-0.473-0.041-0.671-0.1
			s-0.355-0.161-0.473-0.308c-0.118-0.146-0.177-0.382-0.177-0.704C70.301,41.873,70.447,41.561,70.741,41.436z"/>
		<path d="M84.964,36.629c0.081-0.542,0.217-1.06,0.407-1.551s0.443-0.946,0.759-1.364s0.715-0.759,1.199-1.022
			c0.044-0.029,0.124-0.073,0.242-0.133c0.117-0.058,0.242-0.12,0.374-0.187s0.253-0.124,0.362-0.176
			c0.11-0.052,0.188-0.085,0.231-0.1c0.161-0.073,0.326-0.105,0.495-0.099c0.168,0.008,0.333,0.011,0.495,0.011
			c0.938,0,1.73,0.224,2.376,0.671c0.645,0.448,1.246,1.023,1.804,1.728c0.059,0.088,0.136,0.253,0.231,0.495
			c0.095,0.241,0.183,0.506,0.264,0.792c0.08,0.286,0.15,0.564,0.209,0.836s0.088,0.473,0.088,0.604c0,0.03-0.004,0.092-0.011,0.188
			c-0.008,0.096-0.011,0.157-0.011,0.187c-0.133,0.22-0.309,0.367-0.528,0.44s-0.447,0.132-0.682,0.176
			c-0.162,0-0.451-0.004-0.869-0.011c-0.418-0.008-0.862-0.012-1.331-0.012c-0.455,0-0.892,0.004-1.31,0.012
			c-0.418,0.007-0.707,0.011-0.869,0.011c-0.161,0-0.355,0.004-0.583,0.011c-0.228,0.008-0.45,0.015-0.671,0.022
			c-0.22,0.008-0.491,0.026-0.813,0.056l-0.088,0.066c0,0.015-0.004,0.066-0.012,0.155c-0.007,0.088-0.011,0.147-0.011,0.177
			c0,0.428,0.077,0.833,0.231,1.217c0.153,0.384,0.366,0.72,0.638,1.008c0.271,0.287,0.59,0.516,0.957,0.686
			c0.366,0.17,0.77,0.255,1.21,0.255c0.044,0,0.143-0.004,0.297-0.012c0.154-0.007,0.253-0.011,0.297-0.011
			c0.205-0.161,0.44-0.274,0.704-0.341c0.265-0.066,0.491-0.18,0.683-0.341c0.146-0.132,0.282-0.294,0.406-0.484
			c0.125-0.19,0.257-0.374,0.396-0.55c0.139-0.176,0.289-0.322,0.451-0.44c0.161-0.117,0.358-0.176,0.594-0.176
			c0.22,0,0.399,0.066,0.539,0.198c0.139,0.132,0.209,0.301,0.209,0.506c0,0.338-0.073,0.642-0.22,0.913
			c-0.147,0.271-0.309,0.539-0.484,0.803c-0.44,0.638-1.02,1.094-1.738,1.369s-1.459,0.413-2.222,0.413
			c-0.748,0-1.423-0.146-2.024-0.44c-0.602-0.293-1.107-0.688-1.518-1.188c-0.411-0.498-0.727-1.074-0.946-1.728
			c-0.22-0.652-0.33-1.338-0.33-2.057C84.843,37.7,84.883,37.172,84.964,36.629z M86.911,36.321c0,0.044,0.029,0.065,0.088,0.065
			h5.082c0.029,0,0.069-0.018,0.121-0.055c0.051-0.036,0.092-0.069,0.121-0.099c0.015-0.029,0.021-0.081,0.021-0.154
			s0-0.125,0-0.154c0-0.352-0.088-0.648-0.264-0.891s-0.396-0.433-0.66-0.572c-0.264-0.139-0.554-0.242-0.869-0.308
			c-0.315-0.066-0.612-0.1-0.891-0.1c-0.308,0-0.624,0.041-0.946,0.121c-0.322,0.081-0.616,0.209-0.88,0.385
			c-0.264,0.177-0.484,0.4-0.66,0.672s-0.264,0.59-0.264,0.957C86.911,36.219,86.911,36.263,86.911,36.321z"/>
		<path d="M111.617,41.931c0.014-0.132,0.044-0.26,0.088-0.385c0.044-0.124,0.106-0.23,0.187-0.319
			c0.081-0.088,0.188-0.132,0.319-0.132h2.068l0.264-0.286V29.875l-0.088-0.088c-0.03-0.015-0.088-0.025-0.176-0.033
			c-0.089-0.007-0.147-0.011-0.177-0.011c-0.044,0-0.121,0.004-0.23,0.011c-0.11,0.008-0.18,0.019-0.209,0.033
			c-0.484,0.117-0.833,0.319-1.045,0.604c-0.213,0.286-0.356,0.602-0.43,0.946s-0.106,0.7-0.099,1.067
			c0.007,0.366-0.004,0.7-0.033,1.001s-0.117,0.55-0.264,0.748c-0.146,0.197-0.403,0.297-0.771,0.297
			c-0.293,0-0.513-0.14-0.659-0.418c-0.147-0.278-0.221-0.55-0.221-0.814v-4.224c0-0.103,0.025-0.228,0.077-0.374
			s0.121-0.289,0.209-0.429s0.188-0.261,0.297-0.363c0.11-0.103,0.231-0.154,0.363-0.154h2.662c0.146-0.073,0.26-0.113,0.341-0.121
			c0.08-0.007,0.188-0.011,0.319-0.011c0.117,0,0.22,0.004,0.308,0.011c0.088,0.008,0.198,0.048,0.33,0.121h4.906
			c0.293,0,0.553,0.125,0.781,0.374c0.227,0.25,0.341,0.514,0.341,0.792v4.378c0,0.294-0.088,0.572-0.265,0.836
			c-0.176,0.265-0.418,0.396-0.726,0.396c-0.25,0-0.484-0.11-0.704-0.33s-0.33-0.462-0.33-0.727v-2.331
			c0-0.25-0.063-0.466-0.187-0.649c-0.125-0.184-0.286-0.337-0.484-0.462s-0.411-0.217-0.638-0.275
			c-0.228-0.059-0.444-0.088-0.649-0.088c-0.029,0-0.088,0.004-0.176,0.011c-0.088,0.008-0.14,0.012-0.154,0.012l-0.088,0.088
			c0,0.176-0.011,0.396-0.033,0.66c-0.021,0.264-0.063,0.498-0.121,0.704l0.044,2.155v0.44l0.11,7.062l0.176,0.177
			c0.234,0,0.514,0.007,0.836,0.021c0.323,0.015,0.627,0.063,0.913,0.143c0.286,0.081,0.528,0.21,0.727,0.386
			c0.197,0.176,0.297,0.439,0.297,0.792c0,0.205-0.044,0.378-0.132,0.517c-0.088,0.14-0.206,0.25-0.353,0.33
			c-0.146,0.081-0.312,0.14-0.495,0.176c-0.184,0.037-0.37,0.056-0.561,0.056c-0.279,0-0.547-0.048-0.803-0.144
			c-0.257-0.095-0.525-0.143-0.804-0.143c-0.469,0-0.916,0.073-1.342,0.22s-0.873,0.22-1.342,0.22c-0.162,0-0.363-0.029-0.605-0.088
			c-0.241-0.059-0.483-0.139-0.726-0.242c-0.242-0.103-0.447-0.23-0.616-0.385s-0.253-0.319-0.253-0.495
			C111.595,42.173,111.603,42.063,111.617,41.931z"/>
		<path d="M123.771,36.629c0.081-0.542,0.217-1.06,0.407-1.551s0.443-0.946,0.759-1.364s0.715-0.759,1.199-1.022
			c0.044-0.029,0.124-0.073,0.242-0.133c0.117-0.058,0.242-0.12,0.374-0.187s0.253-0.124,0.362-0.176
			c0.11-0.052,0.188-0.085,0.231-0.1c0.161-0.073,0.326-0.105,0.495-0.099c0.168,0.008,0.333,0.011,0.495,0.011
			c0.938,0,1.73,0.224,2.376,0.671c0.645,0.448,1.246,1.023,1.804,1.728c0.059,0.088,0.136,0.253,0.231,0.495
			c0.095,0.241,0.183,0.506,0.264,0.792c0.08,0.286,0.15,0.564,0.209,0.836s0.088,0.473,0.088,0.604c0,0.03-0.004,0.092-0.011,0.188
			c-0.008,0.096-0.011,0.157-0.011,0.187c-0.133,0.22-0.309,0.367-0.528,0.44s-0.447,0.132-0.682,0.176
			c-0.162,0-0.451-0.004-0.869-0.011c-0.418-0.008-0.862-0.012-1.331-0.012c-0.455,0-0.892,0.004-1.31,0.012
			c-0.418,0.007-0.707,0.011-0.869,0.011c-0.161,0-0.355,0.004-0.583,0.011c-0.228,0.008-0.45,0.015-0.671,0.022
			c-0.22,0.008-0.491,0.026-0.813,0.056l-0.088,0.066c0,0.015-0.004,0.066-0.012,0.155c-0.007,0.088-0.011,0.147-0.011,0.177
			c0,0.428,0.077,0.833,0.231,1.217c0.153,0.384,0.366,0.72,0.638,1.008c0.271,0.287,0.59,0.516,0.957,0.686
			c0.366,0.17,0.77,0.255,1.21,0.255c0.044,0,0.143-0.004,0.297-0.012c0.154-0.007,0.253-0.011,0.297-0.011
			c0.205-0.161,0.44-0.274,0.704-0.341c0.265-0.066,0.491-0.18,0.683-0.341c0.146-0.132,0.282-0.294,0.406-0.484
			c0.125-0.19,0.257-0.374,0.396-0.55c0.139-0.176,0.289-0.322,0.451-0.44c0.161-0.117,0.358-0.176,0.594-0.176
			c0.22,0,0.399,0.066,0.539,0.198c0.139,0.132,0.209,0.301,0.209,0.506c0,0.338-0.073,0.642-0.22,0.913
			c-0.147,0.271-0.309,0.539-0.484,0.803c-0.44,0.638-1.02,1.094-1.738,1.369s-1.459,0.413-2.222,0.413
			c-0.748,0-1.423-0.146-2.024-0.44c-0.602-0.293-1.107-0.688-1.518-1.188c-0.411-0.498-0.727-1.074-0.946-1.728
			c-0.22-0.652-0.33-1.338-0.33-2.057C123.65,37.7,123.69,37.172,123.771,36.629z M125.719,36.321c0,0.044,0.029,0.065,0.088,0.065
			h5.082c0.029,0,0.069-0.018,0.121-0.055c0.051-0.036,0.092-0.069,0.121-0.099c0.015-0.029,0.021-0.081,0.021-0.154
			s0-0.125,0-0.154c0-0.352-0.088-0.648-0.264-0.891s-0.396-0.433-0.66-0.572c-0.264-0.139-0.554-0.242-0.869-0.308
			c-0.315-0.066-0.612-0.1-0.891-0.1c-0.308,0-0.624,0.041-0.946,0.121c-0.322,0.081-0.616,0.209-0.88,0.385
			c-0.264,0.177-0.484,0.4-0.66,0.672s-0.264,0.59-0.264,0.957C125.719,36.219,125.719,36.263,125.719,36.321z"/>
		<path d="M135.884,42.158c0.029-0.156,0.08-0.303,0.154-0.438c0.072-0.135,0.164-0.25,0.274-0.348s0.245-0.146,0.407-0.146h3.366
			l0.109-0.131v-6.601l0.132-0.416v-3.684c0-0.088-0.088-0.18-0.264-0.274s-0.286-0.149-0.33-0.165
			c-0.044,0.016-0.121,0.037-0.23,0.066c-0.11,0.029-0.231,0.059-0.363,0.088s-0.257,0.055-0.374,0.076
			c-0.117,0.022-0.198,0.033-0.242,0.033h-0.352c-0.25,0-0.444-0.025-0.583-0.077c-0.14-0.051-0.313-0.113-0.518-0.187
			c-0.146-0.043-0.278-0.08-0.396-0.109c-0.118-0.029-0.217-0.073-0.297-0.132c-0.081-0.059-0.144-0.135-0.188-0.229
			s-0.065-0.237-0.065-0.428c0-0.409,0.157-0.69,0.473-0.845c0.315-0.153,0.656-0.229,1.023-0.229c0.264,0,0.523,0.029,0.78,0.087
			c0.257,0.059,0.518,0.088,0.781,0.088c0.205,0,0.403-0.015,0.594-0.044s0.389-0.044,0.595-0.044c0.19,0,0.396,0.022,0.615,0.066
			c0.221,0.044,0.426,0.113,0.616,0.208s0.349,0.227,0.473,0.395c0.125,0.168,0.188,0.377,0.188,0.625v11.665l0.22,0.197h2.926
			c0.146,0,0.275,0.042,0.386,0.124c0.109,0.082,0.201,0.184,0.274,0.303c0.073,0.12,0.129,0.251,0.165,0.393
			c0.037,0.143,0.056,0.273,0.056,0.393c0,0.27-0.07,0.509-0.209,0.719c-0.14,0.209-0.363,0.313-0.672,0.313h-8.514
			c-0.249,0-0.487-0.086-0.715-0.258s-0.341-0.385-0.341-0.64C135.84,42.454,135.854,42.315,135.884,42.158z"/>
		<path d="M148.863,42.158c0.029-0.156,0.08-0.303,0.154-0.438c0.072-0.135,0.164-0.25,0.274-0.348s0.245-0.146,0.407-0.146h3.366
			l0.109-0.131v-6.601l0.132-0.416v-3.684c0-0.088-0.088-0.18-0.264-0.274s-0.286-0.149-0.33-0.165
			c-0.044,0.016-0.121,0.037-0.23,0.066c-0.11,0.029-0.231,0.059-0.363,0.088s-0.257,0.055-0.374,0.076
			c-0.117,0.022-0.198,0.033-0.242,0.033h-0.352c-0.25,0-0.444-0.025-0.583-0.077c-0.14-0.051-0.313-0.113-0.518-0.187
			c-0.146-0.043-0.278-0.08-0.396-0.109c-0.118-0.029-0.217-0.073-0.297-0.132c-0.081-0.059-0.144-0.135-0.188-0.229
			s-0.065-0.237-0.065-0.428c0-0.409,0.157-0.69,0.473-0.845c0.315-0.153,0.656-0.229,1.023-0.229c0.264,0,0.523,0.029,0.78,0.087
			c0.257,0.059,0.518,0.088,0.781,0.088c0.205,0,0.403-0.015,0.594-0.044s0.389-0.044,0.595-0.044c0.19,0,0.396,0.022,0.615,0.066
			c0.221,0.044,0.426,0.113,0.616,0.208s0.349,0.227,0.473,0.395c0.125,0.168,0.188,0.377,0.188,0.625v11.665l0.22,0.197h2.926
			c0.146,0,0.275,0.042,0.386,0.124c0.109,0.082,0.201,0.184,0.274,0.303c0.073,0.12,0.129,0.251,0.165,0.393
			c0.037,0.143,0.056,0.273,0.056,0.393c0,0.27-0.07,0.509-0.209,0.719c-0.14,0.209-0.363,0.313-0.672,0.313h-8.514
			c-0.249,0-0.487-0.086-0.715-0.258s-0.341-0.385-0.341-0.64C148.819,42.454,148.834,42.315,148.863,42.158z"/>
		<path d="M161.941,36.629c0.081-0.542,0.217-1.06,0.407-1.551s0.443-0.946,0.759-1.364s0.715-0.759,1.199-1.022
			c0.044-0.029,0.124-0.073,0.242-0.133c0.117-0.058,0.242-0.12,0.374-0.187s0.253-0.124,0.362-0.176
			c0.11-0.052,0.188-0.085,0.231-0.1c0.161-0.073,0.326-0.105,0.495-0.099c0.168,0.008,0.333,0.011,0.495,0.011
			c0.938,0,1.73,0.224,2.376,0.671c0.645,0.448,1.246,1.023,1.804,1.728c0.059,0.088,0.136,0.253,0.231,0.495
			c0.095,0.241,0.183,0.506,0.264,0.792c0.08,0.286,0.15,0.564,0.209,0.836s0.088,0.473,0.088,0.604c0,0.03-0.004,0.092-0.011,0.188
			c-0.008,0.096-0.011,0.157-0.011,0.187c-0.133,0.22-0.309,0.367-0.528,0.44s-0.447,0.132-0.682,0.176
			c-0.162,0-0.451-0.004-0.869-0.011c-0.418-0.008-0.862-0.012-1.331-0.012c-0.455,0-0.892,0.004-1.31,0.012
			c-0.418,0.007-0.707,0.011-0.869,0.011c-0.161,0-0.355,0.004-0.583,0.011c-0.228,0.008-0.45,0.015-0.671,0.022
			c-0.22,0.008-0.491,0.026-0.813,0.056l-0.088,0.066c0,0.015-0.004,0.066-0.012,0.155c-0.007,0.088-0.011,0.147-0.011,0.177
			c0,0.428,0.077,0.833,0.231,1.217c0.153,0.384,0.366,0.72,0.638,1.008c0.271,0.287,0.59,0.516,0.957,0.686
			c0.366,0.17,0.77,0.255,1.21,0.255c0.044,0,0.143-0.004,0.297-0.012c0.154-0.007,0.253-0.011,0.297-0.011
			c0.205-0.161,0.44-0.274,0.704-0.341c0.265-0.066,0.491-0.18,0.683-0.341c0.146-0.132,0.282-0.294,0.406-0.484
			c0.125-0.19,0.257-0.374,0.396-0.55c0.139-0.176,0.289-0.322,0.451-0.44c0.161-0.117,0.358-0.176,0.594-0.176
			c0.22,0,0.399,0.066,0.539,0.198c0.139,0.132,0.209,0.301,0.209,0.506c0,0.338-0.073,0.642-0.22,0.913
			c-0.147,0.271-0.309,0.539-0.484,0.803c-0.44,0.638-1.02,1.094-1.738,1.369s-1.459,0.413-2.222,0.413
			c-0.748,0-1.423-0.146-2.024-0.44c-0.602-0.293-1.107-0.688-1.518-1.188c-0.411-0.498-0.727-1.074-0.946-1.728
			c-0.22-0.652-0.33-1.338-0.33-2.057C161.82,37.7,161.86,37.172,161.941,36.629z M163.889,36.321c0,0.044,0.029,0.065,0.088,0.065
			h5.082c0.029,0,0.069-0.018,0.121-0.055c0.051-0.036,0.092-0.069,0.121-0.099c0.015-0.029,0.021-0.081,0.021-0.154
			s0-0.125,0-0.154c0-0.352-0.088-0.648-0.264-0.891s-0.396-0.433-0.66-0.572c-0.264-0.139-0.554-0.242-0.869-0.308
			c-0.315-0.066-0.612-0.1-0.891-0.1c-0.308,0-0.624,0.041-0.946,0.121c-0.322,0.081-0.616,0.209-0.88,0.385
			c-0.264,0.177-0.484,0.4-0.66,0.672s-0.264,0.59-0.264,0.957C163.889,36.219,163.889,36.263,163.889,36.321z"/>
		<path d="M174.525,41.579c0.228-0.19,0.51-0.286,0.847-0.286c0.206,0,0.407,0.019,0.605,0.055c0.198,0.037,0.407,0.056,0.627,0.056
			c0.059,0,0.143-0.004,0.253-0.012c0.11-0.007,0.172-0.011,0.188-0.011l0.088-0.088c0-0.059,0.003-0.154,0.011-0.286
			c0.007-0.132,0.015-0.274,0.022-0.429c0.007-0.154,0.018-0.301,0.032-0.44c0.015-0.139,0.022-0.238,0.022-0.297
			c0-0.029,0.011-0.103,0.033-0.22c0.021-0.117,0.04-0.19,0.055-0.22l-0.044-2.156v-0.418l-0.132-2.596l-0.176-0.177
			c-0.074,0-0.198-0.003-0.374-0.011c-0.177-0.007-0.367-0.015-0.572-0.021c-0.206-0.008-0.396-0.019-0.572-0.033
			s-0.301-0.022-0.374-0.022c-0.294-0.029-0.539-0.143-0.737-0.341c-0.197-0.198-0.297-0.443-0.297-0.737
			c0-0.293,0.088-0.546,0.265-0.759c0.176-0.212,0.418-0.319,0.726-0.319c0.015,0,0.036,0,0.066,0c0.044,0,0.065,0.008,0.065,0.022
			c0.234,0.029,0.524,0.033,0.869,0.011c0.345-0.021,0.693-0.025,1.045-0.011c0.353,0.015,0.683,0.063,0.99,0.143
			c0.308,0.081,0.542,0.231,0.704,0.451c0.029,0.03,0.059,0.092,0.088,0.188s0.063,0.194,0.099,0.297
			c0.037,0.103,0.081,0.19,0.132,0.264c0.052,0.074,0.106,0.11,0.165,0.11h0.044c0.455-0.366,0.942-0.704,1.464-1.012
			c0.521-0.309,1.081-0.463,1.683-0.463c0.366,0,0.723,0.063,1.067,0.188c0.344,0.125,0.641,0.297,0.891,0.517
			c0.249,0.221,0.451,0.488,0.604,0.804c0.154,0.315,0.231,0.663,0.231,1.045c0,0.543-0.129,1.005-0.385,1.386
			c-0.257,0.382-0.693,0.572-1.31,0.572c-0.293,0-0.527-0.092-0.704-0.275c-0.176-0.184-0.315-0.407-0.418-0.671
			s-0.172-0.539-0.209-0.825c-0.036-0.286-0.063-0.531-0.076-0.736c-0.016-0.073-0.06-0.11-0.133-0.11s-0.124,0-0.153,0
			c-0.074,0-0.144,0.004-0.209,0.011c-0.066,0.008-0.129,0.041-0.188,0.1c-0.059,0.044-0.153,0.132-0.286,0.264
			c-0.132,0.132-0.271,0.271-0.418,0.418s-0.286,0.286-0.418,0.418s-0.22,0.22-0.264,0.264c-0.059,0.059-0.143,0.158-0.253,0.297
			c-0.11,0.14-0.217,0.29-0.319,0.451c-0.103,0.162-0.19,0.319-0.264,0.474c-0.073,0.153-0.11,0.268-0.11,0.341v2.485
			c0.015,0.03,0.033,0.104,0.056,0.221c0.021,0.117,0.032,0.19,0.032,0.22c0,0.044,0.008,0.132,0.022,0.264s0.025,0.271,0.033,0.418
			c0.007,0.147,0.014,0.286,0.021,0.418c0.008,0.133,0.011,0.228,0.011,0.286c0.059,0.162,0.146,0.257,0.265,0.286
			c0.117,0.029,0.256,0.044,0.418,0.044c0.161,0,0.326-0.015,0.495-0.044c0.168-0.029,0.333-0.044,0.495-0.044
			c0.337,0,0.645,0.092,0.924,0.275c0.278,0.184,0.418,0.45,0.418,0.803c0,0.294-0.066,0.524-0.198,0.693
			c-0.132,0.168-0.305,0.293-0.517,0.374c-0.213,0.08-0.444,0.132-0.693,0.153c-0.25,0.022-0.484,0.033-0.704,0.033
			c-0.249,0-0.495-0.015-0.737-0.044c-0.241-0.029-0.487-0.044-0.736-0.044c-0.118,0-0.217,0.004-0.297,0.011
			c-0.081,0.008-0.195,0.033-0.342,0.077h-2.508c-0.352,0-0.671-0.117-0.957-0.352c-0.286-0.235-0.429-0.536-0.429-0.902
			C174.185,42.034,174.298,41.77,174.525,41.579z"/>
	</g>
</g>
<g id="DrinkSwap">
</g>
<g id="DickTator">
</g>
<g id="_x34_Eyes">
</g>
<g id="BabyTalk">
</g>
<g id="Backseat_Driver">
</g>
<g id="BAtman">
</g>
<g id="bodyguard">
</g>
<g id="BuckleUp">
</g>
<g id="RockPaperScissors">
</g>
<g id="Roger_Roger">
</g>
<g id="RoyaleWe">
</g>
<g id="Skip">
</g>
<g id="SwineRules">
</g>
<g id="Touchy_Feeley">
</g>
<g id="Wasted_Education">
</g>
<g id="Layer_86">
</g>
<g id="PointOfNoReturn">
</g>
<g id="Pirate">
</g>
<g id="Thief">
</g>
<g id="DepthPerception">
</g>
<g id="Narcissist">
</g>
<g id="MammaBird">
</g>
<g id="Staringcontest">
</g>
<g id="Cartwheel">
</g>
<g id="Censored">
</g>
<g id="Depersonalization">
</g>
<g id="threeman">
</g>
<g id="_x32__truths_and_a_lie">
</g>
<g id="cray_cray_cat_lady">
</g>
<g id="siblings">
</g>
<g id="later">
</g>
<g id="waterfall">
</g>
<g id="cheers">
</g>
<g id="rhyme">
</g>
<g id="categories">
</g>
<g id="tits">
</g>
<g id="dicks">
</g>
<g id="questions">
</g>
<g id="double_hands">
</g>
<g id="take_2">
</g>
<g id="take_3">
</g>
<g id="give_3">
</g>
<g id="give_2">
</g>
<g id="rewind">
</g>
<g id="Cryptkeeper">
</g>
<g id="Take_2_and_Redo">
</g>
<g id="Embryo">
</g>
<g id="I_am_Groot">
</g>
<g id="Mini_Me">
</g>
<g id="Ditto_1_">
</g>
<g id="reverse">
</g>
</svg>
