<?xml version="1.0" encoding="utf-8"?>
<!-- Generator: Adobe Illustrator 16.0.0, SVG Export Plug-In . SVG Version: 6.00 Build 0)  -->
<!DOCTYPE svg PUBLIC "-//W3C//DTD SVG 1.1//EN" "http://www.w3.org/Graphics/SVG/1.1/DTD/svg11.dtd">
<svg version="1.1" xmlns="http://www.w3.org/2000/svg" xmlns:xlink="http://www.w3.org/1999/xlink" x="0px" y="0px"
	 width="209.759px" height="62.361px" viewBox="0 0 209.759 62.361" enable-background="new 0 0 209.759 62.361"
	 xml:space="preserve">
<g id="Layer_1">
</g>
<g id="Hat">
</g>
<g id="Compliments">
</g>
<g id="HAT">
</g>
<g id="speech">
</g>
<g id="TREX_ARMS">
</g>
<g id="Layer_7">
</g>
<g id="TIMEOUT">
</g>
<g id="Layer_9">
</g>
<g id="ARM_WRESTLE">
</g>
<g id="musical_chairs">
</g>
<g id="never_have_i_ever">
</g>
<g id="Trivia">
</g>
<g id="Layer_14">
</g>
<g id="Layer_15">
</g>
<g id="Layer_16">
</g>
<g id="Layer_17">
</g>
<g id="Heads_up">
</g>
<g id="Archenemy">
</g>
<g id="battle_of_the_sexes">
</g>
<g id="one_must_drink">
</g>
<g id="rainbow_connection">
</g>
<g id="social_drinking">
</g>
<g id="Spin_the_bottle">
</g>
<g id="accents">
</g>
<g id="Slap">
</g>
<g id="give_3">
</g>
<g id="Layer_36">
</g>
<g id="Layer_37">
	<g>
		<path d="M17.598,44.015c-1.716,0-3.393-0.272-5.03-0.818c-1.639-0.546-3.042-1.326-4.212-2.34l1.949-3.276
			c1.248,0.884,2.464,1.554,3.646,2.009c1.184,0.455,2.36,0.683,3.53,0.683c1.039,0,1.858-0.195,2.457-0.586
			c0.598-0.39,0.896-0.948,0.896-1.677c0-0.728-0.351-1.261-1.053-1.599s-1.847-0.728-3.433-1.17
			c-1.325-0.364-2.456-0.715-3.393-1.054c-0.936-0.337-1.69-0.721-2.262-1.15c-0.572-0.429-0.988-0.922-1.248-1.481
			c-0.261-0.559-0.391-1.229-0.391-2.009c0-1.039,0.201-1.976,0.604-2.808s0.969-1.541,1.697-2.126
			c0.728-0.585,1.579-1.033,2.554-1.346c0.976-0.312,2.034-0.468,3.179-0.468c1.534,0,2.971,0.222,4.31,0.663
			c1.339,0.442,2.567,1.157,3.686,2.146l-2.105,3.158c-1.041-0.779-2.048-1.352-3.022-1.716c-0.976-0.363-1.944-0.546-2.906-0.546
			c-0.884,0-1.625,0.183-2.223,0.546c-0.599,0.364-0.897,0.949-0.897,1.755c0,0.364,0.071,0.663,0.215,0.897
			c0.143,0.233,0.37,0.442,0.683,0.624c0.312,0.182,0.722,0.357,1.229,0.526s1.137,0.345,1.892,0.526
			c1.404,0.364,2.606,0.729,3.607,1.092c1.001,0.364,1.819,0.78,2.457,1.248c0.637,0.468,1.104,1.008,1.404,1.619
			c0.298,0.61,0.448,1.345,0.448,2.203c0,2.002-0.741,3.582-2.223,4.738C22.161,43.437,20.146,44.015,17.598,44.015z"/>
		<path d="M32.964,20.342v-5.187h5.227v5.187H32.964z M32.964,43.625V23.19h5.227v20.436H32.964z"/>
		<path d="M58.235,44.015c-1.56,0-2.951-0.351-4.173-1.053c-1.223-0.702-2.185-1.663-2.886-2.886v3.549h-4.563v-28.47h5.227v11.622
			c0.728-1.248,1.683-2.217,2.866-2.906c1.183-0.688,2.567-1.033,4.153-1.033c1.326,0,2.535,0.286,3.627,0.858
			s2.034,1.339,2.827,2.301s1.404,2.093,1.833,3.393c0.43,1.301,0.644,2.666,0.644,4.096c0,1.481-0.24,2.86-0.721,4.134
			c-0.481,1.274-1.151,2.386-2.009,3.334c-0.858,0.95-1.872,1.697-3.042,2.243S59.587,44.015,58.235,44.015z M56.792,39.57
			c0.832,0,1.6-0.162,2.302-0.488c0.701-0.324,1.3-0.76,1.794-1.306c0.493-0.547,0.877-1.184,1.15-1.911
			c0.272-0.728,0.409-1.508,0.409-2.34s-0.13-1.625-0.39-2.38c-0.261-0.753-0.631-1.416-1.111-1.988
			c-0.481-0.572-1.047-1.027-1.697-1.365c-0.649-0.338-1.364-0.507-2.145-0.507c-1.17,0-2.217,0.384-3.14,1.15
			c-0.923,0.768-1.632,1.71-2.125,2.827v4.875c0.181,0.521,0.448,0.988,0.799,1.404c0.352,0.416,0.747,0.773,1.189,1.072
			c0.442,0.3,0.923,0.533,1.443,0.702C55.791,39.486,56.298,39.57,56.792,39.57z"/>
		<path d="M75.005,15.156h5.227v21.918c0,0.754,0.182,1.339,0.546,1.755c0.363,0.416,0.883,0.624,1.56,0.624
			c0.313,0,0.656-0.052,1.033-0.156c0.377-0.104,0.734-0.234,1.073-0.39l0.702,3.978c-0.702,0.339-1.521,0.599-2.457,0.78
			c-0.937,0.182-1.781,0.272-2.535,0.272c-1.639,0-2.906-0.435-3.803-1.306c-0.897-0.871-1.346-2.112-1.346-3.725V15.156z"/>
		<path d="M91.111,20.342v-5.187h5.227v5.187H91.111z M91.111,43.625V23.19h5.227v20.436H91.111z"/>
		<path d="M123.754,43.625h-5.226V32.16c0-1.638-0.287-2.834-0.858-3.588c-0.572-0.754-1.365-1.131-2.379-1.131
			c-0.521,0-1.053,0.104-1.6,0.312c-0.546,0.208-1.06,0.501-1.54,0.878c-0.481,0.377-0.917,0.825-1.307,1.345
			c-0.39,0.521-0.677,1.093-0.857,1.717v11.934h-5.227V23.19h4.719v3.782c0.754-1.3,1.846-2.313,3.276-3.042
			c1.43-0.728,3.042-1.092,4.836-1.092c1.273,0,2.313,0.234,3.12,0.702c0.806,0.468,1.43,1.079,1.872,1.833
			c0.441,0.754,0.747,1.612,0.916,2.574s0.254,1.937,0.254,2.925V43.625z"/>
		<path d="M140.017,43.743c-1.379,0-2.626-0.273-3.744-0.819s-2.086-1.293-2.905-2.242s-1.45-2.048-1.892-3.296
			c-0.442-1.248-0.663-2.574-0.663-3.978c0-1.482,0.234-2.86,0.702-4.134c0.468-1.274,1.117-2.393,1.95-3.354
			c0.831-0.962,1.833-1.716,3.003-2.262s2.457-0.819,3.86-0.819c1.586,0,2.978,0.357,4.174,1.072
			c1.195,0.716,2.184,1.671,2.964,2.867V23.19h4.563v19.461c0,1.507-0.286,2.859-0.857,4.056c-0.572,1.195-1.359,2.21-2.359,3.042
			c-1.002,0.832-2.198,1.469-3.589,1.911c-1.391,0.441-2.905,0.663-4.543,0.663c-2.236,0-4.114-0.371-5.636-1.111
			c-1.521-0.741-2.827-1.788-3.919-3.14l2.847-2.77c0.78,0.962,1.761,1.716,2.944,2.263c1.183,0.546,2.438,0.818,3.764,0.818
			c0.806,0,1.579-0.11,2.32-0.331c0.741-0.222,1.397-0.565,1.97-1.034c0.571-0.468,1.02-1.066,1.346-1.794
			c0.324-0.728,0.487-1.586,0.487-2.573v-2.574c-0.677,1.17-1.625,2.073-2.847,2.71C142.733,43.424,141.421,43.743,140.017,43.743z
			 M141.771,39.57c0.571,0,1.118-0.091,1.638-0.273c0.521-0.182,1.001-0.429,1.443-0.741c0.441-0.312,0.832-0.676,1.17-1.092
			c0.338-0.415,0.598-0.857,0.78-1.326v-4.875c-0.468-1.195-1.203-2.157-2.204-2.886c-1.001-0.728-2.047-1.092-3.139-1.092
			c-0.807,0-1.535,0.176-2.185,0.526c-0.65,0.351-1.209,0.819-1.677,1.404s-0.826,1.254-1.072,2.008
			c-0.248,0.755-0.371,1.535-0.371,2.341c0,0.832,0.143,1.612,0.43,2.34c0.285,0.728,0.682,1.364,1.189,1.911
			c0.507,0.546,1.098,0.975,1.774,1.286C140.225,39.414,140.966,39.57,141.771,39.57z"/>
		<path d="M168.174,44.015c-1.716,0-3.393-0.272-5.03-0.818c-1.639-0.546-3.042-1.326-4.212-2.34l1.949-3.276
			c1.248,0.884,2.464,1.554,3.646,2.009c1.184,0.455,2.36,0.683,3.53,0.683c1.039,0,1.858-0.195,2.457-0.586
			c0.598-0.39,0.896-0.948,0.896-1.677c0-0.728-0.351-1.261-1.053-1.599s-1.847-0.728-3.433-1.17
			c-1.325-0.364-2.456-0.715-3.393-1.054c-0.936-0.337-1.69-0.721-2.262-1.15c-0.572-0.429-0.988-0.922-1.248-1.481
			c-0.261-0.559-0.391-1.229-0.391-2.009c0-1.039,0.201-1.976,0.604-2.808s0.969-1.541,1.697-2.126
			c0.728-0.585,1.579-1.033,2.554-1.346c0.976-0.312,2.034-0.468,3.179-0.468c1.534,0,2.971,0.222,4.31,0.663
			c1.339,0.442,2.567,1.157,3.686,2.146l-2.105,3.158c-1.041-0.779-2.048-1.352-3.022-1.716c-0.976-0.363-1.944-0.546-2.906-0.546
			c-0.884,0-1.625,0.183-2.223,0.546c-0.599,0.364-0.897,0.949-0.897,1.755c0,0.364,0.071,0.663,0.215,0.897
			c0.143,0.233,0.37,0.442,0.683,0.624c0.312,0.182,0.722,0.357,1.229,0.526s1.137,0.345,1.892,0.526
			c1.404,0.364,2.606,0.729,3.607,1.092c1.001,0.364,1.819,0.78,2.457,1.248c0.637,0.468,1.104,1.008,1.404,1.619
			c0.298,0.61,0.448,1.345,0.448,2.203c0,2.002-0.741,3.582-2.223,4.738C172.737,43.437,170.722,44.015,168.174,44.015z"/>
	</g>
</g>
<g id="Layer_38">
</g>
<g id="Layer_39">
</g>
<g id="Layer_40">
</g>
<g id="Layer_41">
</g>
<g id="Layer_42">
</g>
<g id="Layer_43">
</g>
<g id="Layer_44">
</g>
<g id="Layer_45">
</g>
<g id="Layer_46">
</g>
<g id="Layer_47">
</g>
<g id="Layer_48">
</g>
<g id="give_2">
</g>
<g id="rewind">
</g>
<g id="Layer_22">
</g>
<g id="Layer_19">
</g>
<g id="Layer_20">
</g>
<g id="Layer_21">
</g>
<g id="Layer_23">
</g>
<g id="Layer_24">
</g>
</svg>
