<?xml version="1.0" encoding="utf-8"?>
<!-- Generator: Adobe Illustrator 16.0.0, SVG Export Plug-In . SVG Version: 6.00 Build 0)  -->
<!DOCTYPE svg PUBLIC "-//W3C//DTD SVG 1.1//EN" "http://www.w3.org/Graphics/SVG/1.1/DTD/svg11.dtd">
<svg version="1.1" xmlns="http://www.w3.org/2000/svg" xmlns:xlink="http://www.w3.org/1999/xlink" x="0px" y="0px"
	 width="209.759px" height="62.361px" viewBox="0 0 209.759 62.361" enable-background="new 0 0 209.759 62.361"
	 xml:space="preserve">
<g id="Layer_1">
</g>
<g id="Blindman">
</g>
<g id="Compliments">
</g>
<g id="HAT">
</g>
<g id="speech">
</g>
<g id="TREX_ARMS">
</g>
<g id="slim_shady">
</g>
<g id="TIMEOUT">
</g>
<g id="Truth_or_Dare">
</g>
<g id="ARM_WRESTLE">
</g>
<g id="musical_chairs">
</g>
<g id="never_have_i_ever">
</g>
<g id="Trivia">
</g>
<g id="Drink_Pulling">
</g>
<g id="Sharing_is_Caring">
</g>
<g id="Not_It">
</g>
<g id="Cocktail_of_Doom">
</g>
<g id="Heads_up">
</g>
<g id="Archenemy">
</g>
<g id="battle_of_the_sexes">
</g>
<g id="one_must_drink">
</g>
<g id="rainbow_connection">
</g>
<g id="social_drinking">
</g>
<g id="Spin_the_bottle">
</g>
<g id="accents">
</g>
<g id="Slap">
</g>
<g id="rub">
</g>
<g id="down_the_hatch">
</g>
<g id="rubiks_cube">
</g>
<g id="bar_tender">
</g>
<g id="codenames">
</g>
<g id="hand_switch">
</g>
<g id="make_a_rule">
	<g>
		<path d="M39.567,43.626h-2.948v-6.469c0-0.924-0.157-1.598-0.473-2.023s-0.752-0.639-1.31-0.639c-0.586,0-1.137,0.225-1.649,0.672
			c-0.514,0.447-0.88,1.029-1.101,1.748v6.711H29.14v-6.469c0-0.924-0.158-1.598-0.474-2.023s-0.751-0.639-1.309-0.639
			c-0.572,0-1.118,0.221-1.639,0.66c-0.521,0.439-0.892,1.02-1.111,1.738v6.732h-2.948V32.097h2.662v2.135
			c0.426-0.748,1.009-1.324,1.749-1.727c0.74-0.404,1.588-0.605,2.541-0.605c0.968,0,1.716,0.234,2.244,0.703
			c0.528,0.471,0.865,1.049,1.012,1.738c0.47-0.791,1.063-1.396,1.782-1.814s1.54-0.627,2.464-0.627
			c0.704,0,1.283,0.133,1.738,0.396c0.454,0.264,0.807,0.607,1.056,1.033s0.422,0.91,0.518,1.453
			c0.095,0.543,0.143,1.092,0.143,1.648V43.626z"/>
		<path d="M47.378,43.845c-0.558,0-1.078-0.092-1.563-0.273c-0.483-0.184-0.901-0.441-1.254-0.771
			c-0.352-0.33-0.627-0.715-0.825-1.154c-0.197-0.439-0.297-0.924-0.297-1.451c0-0.543,0.121-1.045,0.363-1.508
			s0.579-0.854,1.012-1.178c0.433-0.322,0.949-0.574,1.551-0.758s1.262-0.275,1.98-0.275c0.513,0,1.016,0.043,1.507,0.133
			c0.491,0.088,0.928,0.211,1.31,0.373v-0.66c0-0.762-0.217-1.35-0.649-1.76s-1.074-0.615-1.925-0.615
			c-0.616,0-1.218,0.109-1.805,0.33c-0.586,0.219-1.188,0.541-1.804,0.967l-0.901-1.869c1.48-0.982,3.079-1.475,4.796-1.475
			c1.657,0,2.943,0.406,3.86,1.221s1.375,1.992,1.375,3.531v3.586c0,0.309,0.056,0.527,0.165,0.66
			c0.11,0.133,0.29,0.205,0.539,0.221v2.508c-0.499,0.102-0.932,0.154-1.298,0.154c-0.558,0-0.986-0.125-1.287-0.375
			c-0.301-0.248-0.487-0.578-0.561-0.99l-0.066-0.637c-0.514,0.674-1.137,1.188-1.87,1.539S48.214,43.845,47.378,43.845z
			 M48.214,41.691c0.498,0,0.972-0.09,1.419-0.266s0.795-0.41,1.045-0.703c0.322-0.25,0.484-0.527,0.484-0.836v-1.32
			c-0.353-0.133-0.734-0.238-1.145-0.318c-0.411-0.08-0.807-0.121-1.188-0.121c-0.764,0-1.387,0.172-1.87,0.516
			c-0.484,0.346-0.727,0.781-0.727,1.311c0,0.498,0.19,0.912,0.572,1.242C47.187,41.525,47.656,41.691,48.214,41.691z"/>
		<path d="M66.825,43.626l-3.344-4.994l-1.584,1.563v3.432h-2.948V27.566h2.948v9.746l4.62-5.191h3.146l-4.29,4.883l4.599,6.623
			H66.825z"/>
		<path d="M78.067,43.845c-0.925,0-1.761-0.156-2.509-0.473c-0.748-0.314-1.386-0.744-1.914-1.287
			c-0.527-0.541-0.935-1.172-1.221-1.891s-0.429-1.475-0.429-2.268c0-0.82,0.139-1.594,0.418-2.32
			c0.278-0.727,0.682-1.363,1.21-1.914s1.169-0.986,1.925-1.309c0.755-0.322,1.603-0.484,2.541-0.484s1.778,0.162,2.519,0.484
			c0.741,0.322,1.372,0.756,1.893,1.297c0.521,0.543,0.916,1.174,1.188,1.893s0.407,1.467,0.407,2.244
			c0,0.191-0.004,0.375-0.011,0.551c-0.008,0.176-0.025,0.322-0.055,0.439h-8.91c0.044,0.455,0.153,0.857,0.33,1.209
			c0.176,0.354,0.403,0.654,0.682,0.902c0.278,0.25,0.594,0.441,0.946,0.572c0.352,0.133,0.718,0.199,1.1,0.199
			c0.587,0,1.141-0.145,1.661-0.43c0.521-0.287,0.876-0.664,1.067-1.133l2.529,0.703C83.01,41.712,82.331,42.435,81.4,43
			C80.469,43.564,79.357,43.845,78.067,43.845z M81.059,36.894c-0.073-0.865-0.393-1.559-0.957-2.078
			c-0.564-0.521-1.25-0.781-2.057-0.781c-0.396,0-0.767,0.068-1.111,0.209c-0.345,0.139-0.648,0.334-0.913,0.582
			c-0.264,0.25-0.48,0.551-0.648,0.902c-0.169,0.352-0.268,0.74-0.297,1.166H81.059z"/>
		<path d="M98.505,43.845c-0.558,0-1.078-0.092-1.563-0.273c-0.483-0.184-0.901-0.441-1.254-0.771
			c-0.352-0.33-0.627-0.715-0.825-1.154c-0.197-0.439-0.297-0.924-0.297-1.451c0-0.543,0.121-1.045,0.363-1.508
			s0.579-0.854,1.012-1.178c0.433-0.322,0.949-0.574,1.551-0.758s1.262-0.275,1.98-0.275c0.513,0,1.016,0.043,1.507,0.133
			c0.491,0.088,0.928,0.211,1.31,0.373v-0.66c0-0.762-0.217-1.35-0.649-1.76s-1.074-0.615-1.925-0.615
			c-0.616,0-1.218,0.109-1.805,0.33c-0.586,0.219-1.188,0.541-1.804,0.967l-0.901-1.869c1.48-0.982,3.079-1.475,4.796-1.475
			c1.657,0,2.943,0.406,3.86,1.221s1.375,1.992,1.375,3.531v3.586c0,0.309,0.056,0.527,0.165,0.66
			c0.11,0.133,0.29,0.205,0.539,0.221v2.508c-0.499,0.102-0.932,0.154-1.298,0.154c-0.558,0-0.986-0.125-1.287-0.375
			c-0.301-0.248-0.487-0.578-0.561-0.99l-0.066-0.637c-0.514,0.674-1.137,1.188-1.87,1.539S99.341,43.845,98.505,43.845z
			 M99.341,41.691c0.498,0,0.972-0.09,1.419-0.266s0.795-0.41,1.045-0.703c0.322-0.25,0.484-0.527,0.484-0.836v-1.32
			c-0.353-0.133-0.734-0.238-1.145-0.318c-0.411-0.08-0.807-0.121-1.188-0.121c-0.764,0-1.387,0.172-1.87,0.516
			c-0.484,0.346-0.727,0.781-0.727,1.311c0,0.498,0.19,0.912,0.572,1.242C98.313,41.525,98.783,41.691,99.341,41.691z"/>
		<path d="M124.311,34.65c-0.895,0.016-1.694,0.188-2.398,0.518s-1.21,0.824-1.518,1.484v6.975h-2.948V32.097h2.706v2.465
			c0.205-0.396,0.447-0.752,0.727-1.066c0.278-0.316,0.579-0.592,0.901-0.826s0.649-0.414,0.979-0.539
			c0.33-0.123,0.648-0.186,0.957-0.186c0.161,0,0.282,0,0.362,0c0.081,0,0.158,0.006,0.231,0.021V34.65z"/>
		<path d="M131.57,43.845c-1.188,0-2.09-0.381-2.706-1.143c-0.616-0.764-0.924-1.893-0.924-3.389v-7.217h2.947v6.578
			c0,1.775,0.639,2.662,1.914,2.662c0.572,0,1.126-0.172,1.661-0.516c0.535-0.346,0.972-0.869,1.31-1.574v-7.15h2.947v8.141
			c0,0.309,0.056,0.527,0.165,0.66c0.11,0.133,0.29,0.205,0.539,0.221v2.508c-0.293,0.059-0.539,0.096-0.737,0.109
			c-0.197,0.014-0.377,0.021-0.538,0.021c-0.528,0-0.957-0.121-1.287-0.363c-0.33-0.24-0.524-0.574-0.583-1l-0.066-0.924
			c-0.514,0.791-1.174,1.387-1.979,1.781C133.425,43.648,132.538,43.845,131.57,43.845z"/>
		<path d="M143.715,27.566h2.947v12.363c0,0.426,0.103,0.756,0.309,0.99c0.205,0.234,0.498,0.354,0.88,0.354
			c0.176,0,0.37-0.029,0.583-0.09c0.212-0.057,0.414-0.131,0.604-0.219l0.396,2.244c-0.396,0.189-0.858,0.338-1.386,0.439
			c-0.528,0.102-1.005,0.154-1.431,0.154c-0.924,0-1.639-0.246-2.145-0.736c-0.506-0.492-0.759-1.191-0.759-2.102V27.566z"/>
		<path d="M158.146,43.845c-0.925,0-1.761-0.156-2.509-0.473c-0.748-0.314-1.386-0.744-1.914-1.287
			c-0.527-0.541-0.935-1.172-1.221-1.891s-0.429-1.475-0.429-2.268c0-0.82,0.139-1.594,0.418-2.32
			c0.278-0.727,0.682-1.363,1.21-1.914s1.169-0.986,1.925-1.309c0.755-0.322,1.603-0.484,2.541-0.484s1.778,0.162,2.519,0.484
			c0.741,0.322,1.372,0.756,1.893,1.297c0.521,0.543,0.916,1.174,1.188,1.893s0.407,1.467,0.407,2.244
			c0,0.191-0.004,0.375-0.011,0.551c-0.008,0.176-0.025,0.322-0.055,0.439h-8.91c0.044,0.455,0.153,0.857,0.33,1.209
			c0.176,0.354,0.403,0.654,0.682,0.902c0.278,0.25,0.594,0.441,0.946,0.572c0.352,0.133,0.718,0.199,1.1,0.199
			c0.587,0,1.141-0.145,1.661-0.43c0.521-0.287,0.876-0.664,1.067-1.133l2.529,0.703c-0.425,0.881-1.104,1.604-2.034,2.168
			C160.548,43.564,159.437,43.845,158.146,43.845z M161.138,36.894c-0.073-0.865-0.393-1.559-0.957-2.078
			c-0.564-0.521-1.25-0.781-2.057-0.781c-0.396,0-0.767,0.068-1.111,0.209c-0.345,0.139-0.648,0.334-0.913,0.582
			c-0.264,0.25-0.48,0.551-0.648,0.902c-0.169,0.352-0.268,0.74-0.297,1.166H161.138z"/>
	</g>
</g>
<g id="no_guts_no_glory">
</g>
<g id="pass">
</g>
<g id="santa">
</g>
<g id="snake_eyes">
</g>
<g id="bodyguard">
</g>
<g id="threeman">
</g>
<g id="_x32__truths_and_a_lie">
</g>
<g id="cray_cray_cat_lady">
</g>
<g id="siblings">
</g>
<g id="later">
</g>
<g id="waterfall">
</g>
<g id="cheers">
</g>
<g id="rhyme">
</g>
<g id="categories">
</g>
<g id="tits">
</g>
<g id="dicks">
</g>
<g id="questions">
</g>
<g id="double_hands">
</g>
<g id="take_2">
</g>
<g id="take_3">
</g>
<g id="give_3">
</g>
<g id="give_2">
</g>
<g id="rewind">
</g>
<g id="Cryptkeeper">
</g>
<g id="Take_2_and_Redo">
</g>
<g id="Embryo">
</g>
<g id="I_am_Groot">
</g>
<g id="Mini_Me">
</g>
<g id="Ditto_1_">
</g>
</svg>
