<?xml version="1.0" encoding="utf-8"?>
<!-- Generator: Adobe Illustrator 16.0.0, SVG Export Plug-In . SVG Version: 6.00 Build 0)  -->
<!DOCTYPE svg PUBLIC "-//W3C//DTD SVG 1.1//EN" "http://www.w3.org/Graphics/SVG/1.1/DTD/svg11.dtd">
<svg version="1.1" xmlns="http://www.w3.org/2000/svg" xmlns:xlink="http://www.w3.org/1999/xlink" x="0px" y="0px"
	 width="209.759px" height="62.361px" viewBox="0 0 209.759 62.361" enable-background="new 0 0 209.759 62.361"
	 xml:space="preserve">
<g id="Layer_1">
</g>
<g id="Blindman">
</g>
<g id="Compliments">
</g>
<g id="HAT">
</g>
<g id="speech">
</g>
<g id="TREX_ARMS">
</g>
<g id="slim_shady">
</g>
<g id="TIMEOUT">
</g>
<g id="Truth_or_Dare">
</g>
<g id="ARM_WRESTLE">
</g>
<g id="musical_chairs">
</g>
<g id="never_have_i_ever">
</g>
<g id="Trivia">
</g>
<g id="Drink_Pulling">
</g>
<g id="Sharing_is_Caring">
</g>
<g id="Not_It">
</g>
<g id="Cocktail_of_Doom">
</g>
<g id="Heads_up">
</g>
<g id="Archenemy">
</g>
<g id="battle_of_the_sexes">
</g>
<g id="one_must_drink">
</g>
<g id="rainbow_connection">
</g>
<g id="social_drinking">
</g>
<g id="Spin_the_bottle">
</g>
<g id="accents">
</g>
<g id="Slap">
</g>
<g id="down_the_hatch">
</g>
<g id="rubiks_cube">
</g>
<g id="bar_tender">
</g>
<g id="codenames">
</g>
<g id="hand_switch">
</g>
<g id="make_a_rule">
</g>
<g id="no_guts_no_glory">
</g>
<g id="pass">
</g>
<g id="santa">
</g>
<g id="snake_eyes">
</g>
<g id="bodyguard">
</g>
<g id="threeman">
</g>
<g id="_x32__truths_and_a_lie">
</g>
<g id="cray_cray_cat_lady">
</g>
<g id="siblings">
</g>
<g id="later">
</g>
<g id="waterfall">
</g>
<g id="cheers">
</g>
<g id="rhyme">
</g>
<g id="categories">
</g>
<g id="tits">
</g>
<g id="dicks">
</g>
<g id="questions">
	<g>
		<path d="M21.521,44.137H7.573l-4.408-4.408V21.536l4.408-4.408h8.22l4.391,4.408V37.11h1.337V44.137z M20.779,43.397V37.85h-1.318
			V21.862l-4.011-3.993H7.916l-4.01,3.993v17.542l4.01,3.993H20.779z M19.678,42.294H8.35l-3.324-3.343V22.313l3.324-3.342h6.667
			l3.324,3.342V37.29l-1.662,1.662h2.999V42.294z M13.354,37.29V23.975h-3.343V37.29H13.354z"/>
		<path d="M44.818,39.729l-4.391,4.408h-8.22L27.8,39.729V17.127h17.019V39.729z M44.096,39.404V17.869H28.541v21.535l4.01,3.993
			h7.534L44.096,39.404z M42.976,38.952l-3.324,3.343h-6.667l-3.324-3.343v-19.98h4.986V37.29h3.343V18.971h4.986V38.952z"/>
		<path d="M67.394,44.137H52.037v-27.01h15.356v8.69h-6.648v0.487h6.648v8.69h-6.648v0.452h6.648V44.137z M66.653,43.397v-7.209
			h-6.648v-1.934h6.648v-7.208h-6.648v-1.97h6.648v-7.208H52.778v25.528H66.653z M65.551,42.294H53.897V18.971h11.653v5.004h-6.667
			v4.174h6.667v5.004h-6.667v4.137h6.667V42.294z"/>
		<path d="M91.631,39.657l-4.391,4.408h-8.22l-4.408-4.408v-5.962h3.233l-3.233-3.216v-9.016l4.408-4.408h8.22l4.391,4.408v5.944
			h-3.216l3.216,3.216V39.657z M90.908,39.332V30.93l-4.264-4.264h4.264V21.79l-4.011-3.993h-7.534l-4.01,3.993v8.4l4.264,4.246
			h-4.264v4.896l4.01,3.993h7.534L90.908,39.332z M89.571,38.952l-3.343,3.343H79.58l-3.324-3.343v-3.324h4.986v1.662h3.324v-4.137
			H79.58l-3.324-3.342v-7.498l3.324-3.342h6.648l3.343,3.342v3.324h-5.005v-1.662h-3.324v4.174h4.986l3.343,3.342V38.952z"/>
		<path d="M115.687,25.818H110.7v18.319h-8.708V25.818h-4.986v-8.69h18.681V25.818z M114.945,25.077v-7.208H97.746v7.208h4.986
			v18.32h7.227v-18.32H114.945z M113.844,23.975h-5.004v18.319h-4.986V23.975h-5.005v-5.004h14.995V23.975z"/>
		<path d="M129.753,44.137h-8.708v-27.01h8.708V44.137z M129.013,43.397V17.869h-7.227v25.528H129.013z M127.892,42.294h-4.986
			V18.971h4.986V42.294z"/>
		<path d="M153.972,39.729l-4.391,4.408h-8.22l-4.408-4.408V21.536l4.408-4.408h8.22l4.391,4.408V39.729z M153.249,39.404V21.862
			l-4.011-3.993h-7.534l-4.01,3.993v17.542l4.01,3.993h7.534L153.249,39.404z M152.129,38.952l-3.324,3.343h-6.667l-3.324-3.343
			V22.313l3.324-3.342h6.667l3.324,3.342V38.952z M147.143,37.29V23.975H143.8V37.29H147.143z"/>
		<path d="M178.209,44.137H161.19v-27.01h17.019V44.137z M177.486,43.397V17.869h-7.227v4.028l-1.445-4.028h-6.883v25.528h7.227
			v-4.029l1.445,4.029H177.486z M176.366,42.294h-4.986l-3.343-9.322v9.322h-4.986V18.971h4.986l3.343,9.322v-9.322h4.986V42.294z"
			/>
		<path d="M202.446,39.657l-4.391,4.408h-8.22l-4.408-4.408v-5.962h3.233l-3.233-3.216v-9.016l4.408-4.408h8.22l4.391,4.408v5.944
			h-3.216l3.216,3.216V39.657z M201.724,39.332V30.93l-4.264-4.264h4.264V21.79l-4.011-3.993h-7.534l-4.01,3.993v8.4l4.264,4.246
			h-4.264v4.896l4.01,3.993h7.534L201.724,39.332z M200.387,38.952l-3.343,3.343h-6.648l-3.324-3.343v-3.324h4.986v1.662h3.324
			v-4.137h-4.986l-3.324-3.342v-7.498l3.324-3.342h6.648l3.343,3.342v3.324h-5.005v-1.662h-3.324v4.174h4.986l3.343,3.342V38.952z"
			/>
	</g>
</g>
<g id="double_hands">
</g>
<g id="take_2">
</g>
<g id="take_3">
</g>
<g id="give_3">
</g>
<g id="give_2">
</g>
<g id="rewind">
</g>
<g id="Cryptkeeper">
</g>
<g id="Take_2_and_Redo">
</g>
<g id="Embryo">
</g>
<g id="I_am_Groot">
</g>
<g id="Mini_Me">
</g>
<g id="Ditto_1_">
</g>
</svg>
