<?xml version="1.0" encoding="utf-8"?>
<!-- Generator: Adobe Illustrator 16.0.0, SVG Export Plug-In . SVG Version: 6.00 Build 0)  -->
<!DOCTYPE svg PUBLIC "-//W3C//DTD SVG 1.1//EN" "http://www.w3.org/Graphics/SVG/1.1/DTD/svg11.dtd">
<svg version="1.1" xmlns="http://www.w3.org/2000/svg" xmlns:xlink="http://www.w3.org/1999/xlink" x="0px" y="0px"
	 width="209.759px" height="62.361px" viewBox="0 0 209.759 62.361" enable-background="new 0 0 209.759 62.361"
	 xml:space="preserve">
<g id="Layer_1">
</g>
<g id="Blindman">
</g>
<g id="Compliments">
</g>
<g id="HAT">
</g>
<g id="speech">
</g>
<g id="TREX_ARMS">
</g>
<g id="slim_shady">
</g>
<g id="TIMEOUT">
</g>
<g id="Truth_or_Dare">
</g>
<g id="ARM_WRESTLE">
</g>
<g id="musical_chairs">
</g>
<g id="never_have_i_ever">
</g>
<g id="Trivia">
</g>
<g id="Drink_Pulling">
</g>
<g id="Sharing_is_Caring">
</g>
<g id="Not_It">
</g>
<g id="Cocktail_of_Doom">
</g>
<g id="Heads_up">
</g>
<g id="Archenemy">
</g>
<g id="battle_of_the_sexes">
</g>
<g id="one_must_drink">
</g>
<g id="rainbow_connection">
</g>
<g id="social_drinking">
</g>
<g id="Spin_the_bottle">
</g>
<g id="accents">
</g>
<g id="Slap">
</g>
<g id="down_the_hatch">
</g>
<g id="rubiks_cube">
</g>
<g id="bar_tender">
</g>
<g id="codenames">
</g>
<g id="hand_switch">
</g>
<g id="make_a_rule">
</g>
<g id="no_guts_no_glory">
</g>
<g id="pass">
</g>
<g id="santa">
</g>
<g id="snake_eyes">
</g>
<g id="lightning_round">
</g>
<g id="Bro">
</g>
<g id="LeastDrunk">
</g>
<g id="Know_It_All">
	<g id="Layer_94">
	</g>
</g>
<g id="EyeContact">
</g>
<g id="UnderGuesser">
</g>
<g id="GodSaveTheQUeen">
</g>
<g id="Ghost">
</g>
<g id="Fortune_Teller">
</g>
<g id="DrinkSwap">
</g>
<g id="DickTator">
</g>
<g id="_x34_Eyes">
</g>
<g id="BabyTalk">
</g>
<g id="Backseat_Driver">
</g>
<g id="BAtman">
</g>
<g id="bodyguard">
</g>
<g id="BuckleUp">
</g>
<g id="RockPaperScissors">
</g>
<g id="Roger_Roger">
</g>
<g id="RoyaleWe">
</g>
<g id="Skip">
</g>
<g id="SwineRules">
	<g>
		<path d="M28.248,37.19c0.132,0.184,0.228,0.406,0.286,0.672c0.059,0.264,0.095,0.539,0.109,0.824s0.052,0.531,0.11,0.736
			c0.117,0.354,0.305,0.68,0.562,0.98c0.256,0.301,0.553,0.516,0.891,0.648c0.132,0.043,0.234,0.076,0.308,0.1
			c0.073,0.021,0.144,0.039,0.209,0.055c0.066,0.014,0.129,0.033,0.188,0.055s0.139,0.063,0.242,0.121h1.649
			c0.161-0.117,0.334-0.188,0.518-0.209c0.183-0.023,0.377-0.063,0.583-0.121c0.176-0.045,0.318-0.129,0.429-0.254
			s0.205-0.26,0.286-0.408c0.08-0.146,0.15-0.301,0.209-0.463c0.059-0.16,0.124-0.309,0.198-0.439v-1.543
			c0-0.029-0.033-0.107-0.1-0.23c-0.065-0.125-0.121-0.217-0.165-0.277c-0.22-0.336-0.47-0.582-0.748-0.736
			s-0.575-0.258-0.891-0.309c-0.315-0.053-0.646-0.082-0.99-0.09c-0.345-0.006-0.7-0.031-1.066-0.076
			c-0.587-0.074-1.155-0.209-1.705-0.408c-0.551-0.197-1.034-0.471-1.452-0.814c-0.418-0.346-0.756-0.76-1.012-1.246
			c-0.257-0.484-0.386-1.057-0.386-1.719c0-0.307,0.022-0.586,0.066-0.836s0.103-0.492,0.176-0.727
			c0.073-0.236,0.169-0.471,0.286-0.705c0.117-0.236,0.257-0.5,0.418-0.795c0.161-0.176,0.377-0.367,0.649-0.572
			c0.271-0.205,0.564-0.393,0.88-0.563c0.314-0.168,0.63-0.309,0.945-0.418s0.598-0.166,0.848-0.166h0.197
			c0.073,0.029,0.202,0.074,0.386,0.133c0.183,0.059,0.374,0.125,0.571,0.197c0.198,0.074,0.386,0.145,0.562,0.209
			c0.176,0.066,0.301,0.115,0.374,0.145c0.146,0.072,0.341,0.193,0.583,0.361c0.242,0.17,0.451,0.254,0.627,0.254h0.088
			c0.029-0.133,0.066-0.275,0.11-0.43s0.103-0.297,0.176-0.428c0.073-0.133,0.168-0.242,0.286-0.33
			c0.117-0.088,0.256-0.133,0.418-0.133c0.293,0,0.517,0.137,0.671,0.408s0.23,0.547,0.23,0.826v4.053
			c0,0.221-0.08,0.418-0.241,0.596c-0.162,0.176-0.353,0.264-0.572,0.264c-0.323,0-0.547-0.117-0.671-0.352
			c-0.125-0.236-0.213-0.508-0.265-0.816c-0.051-0.309-0.109-0.613-0.176-0.914c-0.065-0.301-0.194-0.525-0.385-0.672
			c-0.396-0.293-0.844-0.543-1.342-0.748c-0.499-0.207-0.99-0.309-1.475-0.309c-0.322,0-0.634,0.059-0.935,0.176
			s-0.572,0.279-0.814,0.484c-0.241,0.205-0.437,0.445-0.583,0.717s-0.22,0.568-0.22,0.891c0,0.617,0.117,1.08,0.353,1.389
			c0.234,0.309,0.542,0.529,0.924,0.66c0.381,0.133,0.81,0.213,1.287,0.242c0.477,0.031,0.949,0.066,1.419,0.111
			c0.366,0.029,0.744,0.084,1.133,0.164c0.389,0.082,0.759,0.166,1.111,0.254c0.014,0.016,0.04,0.029,0.076,0.045
			c0.037,0.014,0.063,0.029,0.077,0.043c0.322,0.266,0.627,0.529,0.913,0.793c0.286,0.266,0.535,0.545,0.748,0.838
			s0.378,0.621,0.495,0.98s0.176,0.768,0.176,1.223c0,0.352-0.029,0.719-0.088,1.102c-0.059,0.381-0.15,0.752-0.274,1.111
			c-0.125,0.361-0.29,0.695-0.495,1.004c-0.206,0.309-0.462,0.572-0.771,0.793c-0.029,0.014-0.084,0.043-0.165,0.088
			c-0.081,0.043-0.172,0.092-0.274,0.143c-0.104,0.051-0.195,0.096-0.275,0.133c-0.081,0.037-0.129,0.063-0.143,0.076
			c-0.191,0.117-0.378,0.246-0.562,0.387c-0.184,0.139-0.399,0.209-0.648,0.209H31.24c-0.206,0-0.403-0.045-0.594-0.133
			c-0.191-0.088-0.378-0.188-0.562-0.297s-0.37-0.209-0.561-0.297c-0.191-0.088-0.396-0.133-0.616-0.133
			c-0.146,0-0.253,0.057-0.319,0.166c-0.065,0.109-0.128,0.227-0.187,0.352c-0.06,0.125-0.14,0.238-0.242,0.342
			c-0.103,0.102-0.264,0.154-0.484,0.154c-0.249,0-0.477-0.092-0.682-0.273c-0.206-0.182-0.308-0.402-0.308-0.664v-5.068
			c0-0.266,0.088-0.475,0.264-0.627c0.176-0.154,0.389-0.232,0.638-0.232C27.896,36.915,28.116,37.007,28.248,37.19z"/>
		<path d="M42.174,41.075c-0.132-0.67-0.278-1.352-0.439-2.043c-0.19-0.779-0.393-1.602-0.605-2.463
			c-0.212-0.861-0.443-1.682-0.692-2.461c-0.03-0.029-0.077-0.078-0.144-0.145c-0.065-0.066-0.136-0.135-0.209-0.209
			s-0.143-0.143-0.209-0.209c-0.065-0.066-0.106-0.115-0.121-0.145c-0.073-0.074-0.106-0.162-0.099-0.266
			c0.007-0.104,0.011-0.197,0.011-0.287c0-0.25,0.048-0.445,0.144-0.584c0.095-0.141,0.224-0.244,0.385-0.311
			c0.161-0.064,0.341-0.102,0.539-0.109s0.399-0.012,0.604-0.012c0.19,0,0.403,0.008,0.639,0.023
			c0.234,0.014,0.458,0.059,0.671,0.131c0.212,0.074,0.389,0.184,0.527,0.33c0.14,0.146,0.21,0.352,0.21,0.615
			c0,0.236-0.056,0.408-0.165,0.518c-0.11,0.109-0.231,0.195-0.363,0.254s-0.253,0.113-0.363,0.164
			c-0.11,0.053-0.165,0.137-0.165,0.254v0.131c0.044,0.162,0.113,0.447,0.209,0.859c0.096,0.41,0.198,0.846,0.309,1.309
			c0.109,0.461,0.212,0.895,0.308,1.297c0.095,0.404,0.165,0.686,0.209,0.848c0.029,0.074,0.088,0.25,0.176,0.527h0.088l0.177-0.352
			l0.857-3.959v-1.035c0-0.059-0.037-0.105-0.11-0.143s-0.153-0.08-0.241-0.133c-0.088-0.051-0.169-0.127-0.242-0.23
			c-0.073-0.102-0.11-0.264-0.11-0.484c0-0.146,0.012-0.273,0.033-0.385c0.022-0.109,0.128-0.193,0.319-0.252
			c0.044-0.016,0.113-0.037,0.209-0.066c0.095-0.029,0.197-0.059,0.308-0.088s0.213-0.055,0.308-0.078
			c0.096-0.021,0.165-0.031,0.21-0.031c0.014,0,0.076-0.004,0.187-0.012s0.194-0.012,0.253-0.012c0.19,0,0.433,0.008,0.726,0.023
			c0.294,0.014,0.58,0.059,0.858,0.131c0.278,0.074,0.517,0.184,0.715,0.33s0.297,0.359,0.297,0.639
			c0,0.131-0.032,0.238-0.099,0.318s-0.143,0.154-0.231,0.221c-0.088,0.064-0.184,0.129-0.285,0.186
			c-0.104,0.061-0.191,0.141-0.265,0.242c0,0.029-0.004,0.1-0.011,0.209c-0.008,0.111-0.011,0.18-0.011,0.209
			c0,0.059,0.003,0.145,0.011,0.254c0.007,0.109,0.011,0.172,0.011,0.188c0,0.029,0.015,0.088,0.044,0.176s0.059,0.186,0.088,0.297
			c0.029,0.109,0.059,0.213,0.089,0.307c0.028,0.096,0.044,0.152,0.044,0.166c0.058,0.338,0.099,0.668,0.12,0.99
			c0.022,0.322,0.07,0.652,0.144,0.99c0.029,0.16,0.069,0.373,0.121,0.637c0.051,0.266,0.099,0.488,0.143,0.672
			s0.066,0.289,0.066,0.318l0.088,0.088c0.088-0.029,0.154-0.088,0.198-0.176s0.073-0.189,0.088-0.307s0.021-0.236,0.021-0.354
			s0.015-0.211,0.044-0.285c0-0.029,0.019-0.1,0.056-0.209c0.036-0.109,0.073-0.227,0.109-0.352c0.037-0.125,0.073-0.242,0.11-0.354
			c0.036-0.109,0.055-0.178,0.055-0.209c0.044-0.146,0.096-0.34,0.154-0.582s0.117-0.484,0.176-0.727s0.106-0.451,0.144-0.627
			c0.036-0.176,0.055-0.271,0.055-0.285v-1.123c0-0.088-0.048-0.156-0.143-0.209c-0.096-0.051-0.206-0.102-0.33-0.154
			c-0.125-0.051-0.235-0.113-0.33-0.186c-0.096-0.074-0.144-0.191-0.144-0.354c0-0.234,0.059-0.424,0.177-0.57
			c0.117-0.146,0.264-0.262,0.439-0.342s0.366-0.133,0.572-0.154c0.205-0.021,0.396-0.033,0.572-0.033
			c0.19,0,0.402,0.012,0.638,0.033c0.234,0.021,0.454,0.07,0.66,0.143c0.205,0.074,0.377,0.184,0.517,0.33s0.209,0.346,0.209,0.594
			v0.287c-0.029,0.029-0.077,0.076-0.143,0.143c-0.066,0.066-0.136,0.137-0.209,0.209c-0.074,0.074-0.144,0.143-0.209,0.209
			c-0.066,0.066-0.106,0.113-0.121,0.143c-0.015,0-0.03,0.023-0.044,0.066c-0.015,0.045-0.03,0.08-0.044,0.109
			c-0.016,0.045-0.037,0.104-0.066,0.178c-0.029,0.072-0.059,0.15-0.088,0.23s-0.055,0.158-0.077,0.23
			c-0.021,0.074-0.033,0.117-0.033,0.133c-0.029,0.131-0.08,0.338-0.153,0.615c-0.074,0.279-0.158,0.594-0.253,0.945
			c-0.096,0.354-0.191,0.719-0.286,1.102c-0.096,0.381-0.188,0.748-0.275,1.1s-0.169,0.668-0.242,0.945
			c-0.073,0.279-0.125,0.484-0.153,0.617c-0.03,0.482-0.11,0.967-0.242,1.451s-0.286,0.953-0.462,1.408
			c-0.118,0.146-0.246,0.268-0.386,0.363c-0.139,0.096-0.304,0.143-0.494,0.143c-0.133,0-0.283-0.018-0.451-0.055
			c-0.169-0.037-0.297-0.107-0.386-0.209c-0.117-0.117-0.228-0.375-0.329-0.77c-0.104-0.396-0.198-0.855-0.286-1.375
			c-0.088-0.521-0.169-1.068-0.242-1.641c-0.073-0.57-0.146-1.104-0.22-1.594c-0.074-0.492-0.151-0.902-0.231-1.232
			c-0.081-0.33-0.158-0.51-0.23-0.539c-0.118,0.074-0.202,0.184-0.254,0.33c-0.051,0.146-0.084,0.305-0.099,0.473
			c-0.015,0.17-0.025,0.338-0.033,0.506c-0.007,0.17-0.025,0.313-0.055,0.43c-0.19,0.82-0.341,1.654-0.451,2.496
			c-0.11,0.844-0.274,1.676-0.495,2.498c-0.073,0.234-0.198,0.418-0.374,0.549c-0.176,0.133-0.381,0.199-0.616,0.199
			c-0.22,0-0.406-0.045-0.561-0.133s-0.297-0.221-0.429-0.398C42.504,42.419,42.307,41.745,42.174,41.075z"/>
		<path d="M55.318,41.665c0.169-0.291,0.43-0.438,0.781-0.438h2.42l0.154-0.219c0-0.059,0.003-0.16,0.011-0.307
			c0.008-0.145,0.019-0.299,0.033-0.459s0.025-0.313,0.033-0.459c0.007-0.145,0.011-0.248,0.011-0.307
			c0.015-0.027,0.029-0.102,0.044-0.217c0.015-0.117,0.029-0.189,0.044-0.219V34.21h-2.574c-0.146,0-0.274-0.041-0.385-0.123
			s-0.202-0.184-0.275-0.303c-0.073-0.121-0.128-0.252-0.164-0.395c-0.037-0.141-0.056-0.271-0.056-0.393
			c0-0.238,0.059-0.426,0.176-0.561s0.261-0.234,0.43-0.303c0.168-0.066,0.352-0.111,0.55-0.135
			c0.198-0.021,0.377-0.033,0.539-0.033c0.249,0,0.495,0.014,0.737,0.043c0.241,0.029,0.487,0.045,0.736,0.045
			c0.176,0,0.349-0.016,0.518-0.045c0.168-0.029,0.341-0.043,0.517-0.043c0.249,0,0.51,0.08,0.781,0.242
			c0.271,0.16,0.407,0.395,0.407,0.703v8.184l0.132,0.133h2.332c0.132,0,0.253,0.049,0.362,0.146
			c0.11,0.098,0.206,0.213,0.286,0.348c0.081,0.135,0.14,0.277,0.176,0.426c0.037,0.15,0.056,0.277,0.056,0.381
			c0,0.211-0.056,0.42-0.165,0.629c-0.11,0.209-0.29,0.314-0.539,0.314h-7.502c-0.264,0-0.473-0.09-0.627-0.27
			s-0.231-0.396-0.231-0.65C55.065,42.253,55.15,41.956,55.318,41.665z M58.41,28.226c0.278-0.293,0.638-0.439,1.077-0.439
			c0.234,0,0.451,0.055,0.649,0.164s0.366,0.258,0.506,0.439c0.14,0.184,0.249,0.387,0.33,0.605c0.08,0.221,0.121,0.439,0.121,0.66
			c0,0.439-0.161,0.789-0.484,1.045c-0.322,0.258-0.689,0.385-1.1,0.385c-0.499,0-0.877-0.176-1.133-0.527
			c-0.257-0.352-0.385-0.77-0.385-1.254C57.992,28.878,58.131,28.519,58.41,28.226z"/>
		<path d="M67.122,41.437c0.293-0.125,0.66-0.201,1.1-0.23l0.088-0.088c0.029-0.205,0.056-0.443,0.077-0.715
			c0.022-0.271,0.056-0.518,0.1-0.738v-5.082c0-0.102-0.092-0.18-0.275-0.23s-0.382-0.121-0.594-0.209
			c-0.213-0.088-0.411-0.217-0.595-0.385s-0.274-0.43-0.274-0.781c0-0.381,0.136-0.641,0.407-0.781
			c0.271-0.139,0.567-0.209,0.891-0.209c0.044,0,0.11,0,0.198,0c0.103,0,0.153,0.008,0.153,0.021
			c0.426,0.059,0.767,0.133,1.023,0.221s0.458,0.209,0.605,0.363c0.146,0.154,0.249,0.355,0.308,0.605
			c0.059,0.248,0.103,0.564,0.132,0.945c0.015,0.016,0.029,0.021,0.044,0.021h0.044c0.088,0,0.173-0.043,0.253-0.131
			c0.081-0.088,0.165-0.191,0.253-0.309s0.177-0.234,0.265-0.352s0.176-0.205,0.264-0.264c0.41-0.295,0.847-0.584,1.309-0.869
			c0.463-0.287,0.957-0.43,1.485-0.43c0.322,0,0.649,0.076,0.979,0.23c0.329,0.154,0.623,0.355,0.88,0.605
			c0.256,0.25,0.465,0.535,0.627,0.857c0.161,0.324,0.242,0.654,0.242,0.99v5.434c-0.06,0.162-0.092,0.309-0.1,0.441
			C77.003,40.501,77,40.647,77,40.81c0,0.043,0.007,0.146,0.021,0.309l0.089,0.088c0.396,0.072,0.751,0.205,1.066,0.395
			c0.315,0.191,0.474,0.521,0.474,0.99c0,0.383-0.114,0.635-0.342,0.76s-0.517,0.188-0.869,0.188H77.11
			c-0.118,0-0.323-0.004-0.616-0.012c-0.294-0.008-0.605-0.014-0.936-0.021s-0.642-0.02-0.935-0.033
			c-0.294-0.014-0.499-0.021-0.616-0.021c-0.47-0.133-0.704-0.434-0.704-0.902c0-0.557,0.157-0.914,0.474-1.066
			c0.314-0.154,0.707-0.246,1.177-0.275l0.088-0.088l0.198-0.859v-3.344c0.014-0.043,0.04-0.131,0.077-0.264
			c0.036-0.133,0.055-0.221,0.055-0.264v-0.045V36.3c0-0.029-0.011-0.113-0.033-0.254c-0.021-0.139-0.04-0.223-0.055-0.252
			c0-0.045-0.004-0.125-0.012-0.242c-0.007-0.117-0.015-0.238-0.021-0.363c-0.008-0.125-0.015-0.246-0.022-0.363
			c-0.007-0.117-0.011-0.197-0.011-0.242c-0.132-0.219-0.301-0.348-0.506-0.385s-0.418-0.055-0.638-0.055
			c-0.367,0-0.708,0.088-1.023,0.264s-0.604,0.396-0.869,0.66c-0.264,0.264-0.502,0.555-0.715,0.869
			c-0.213,0.316-0.399,0.613-0.561,0.891c-0.015,0.016-0.044,0.055-0.088,0.121c-0.045,0.066-0.074,0.113-0.089,0.143
			c-0.044,0.074-0.146,0.242-0.308,0.506v2.51c-0.073,0.146-0.113,0.271-0.121,0.373c-0.008,0.104-0.011,0.234-0.011,0.396v0.33
			c0.088,0.131,0.23,0.209,0.429,0.23s0.403,0.063,0.616,0.121c0.212,0.059,0.396,0.162,0.55,0.309s0.231,0.41,0.231,0.791
			c0,0.309-0.114,0.539-0.341,0.693c-0.229,0.154-0.488,0.246-0.781,0.275h-0.902h-0.902c-0.029,0-0.103-0.016-0.22-0.045
			s-0.19-0.043-0.22-0.043c-0.25-0.029-0.499-0.049-0.748-0.055c-0.25-0.008-0.473-0.041-0.671-0.1s-0.355-0.162-0.473-0.309
			c-0.118-0.146-0.177-0.381-0.177-0.703C66.682,41.874,66.828,41.562,67.122,41.437z"/>
		<path d="M81.345,36.63c0.081-0.543,0.217-1.061,0.407-1.551c0.19-0.492,0.443-0.947,0.759-1.365s0.715-0.758,1.199-1.021
			c0.044-0.029,0.124-0.074,0.242-0.133c0.117-0.059,0.242-0.121,0.374-0.188s0.253-0.123,0.362-0.176
			c0.11-0.051,0.188-0.084,0.231-0.1c0.161-0.072,0.326-0.105,0.495-0.098c0.168,0.008,0.333,0.01,0.495,0.01
			c0.938,0,1.73,0.225,2.376,0.672c0.645,0.447,1.246,1.023,1.804,1.727c0.059,0.088,0.136,0.254,0.231,0.496
			c0.095,0.24,0.183,0.506,0.264,0.791c0.08,0.287,0.15,0.564,0.209,0.836s0.088,0.473,0.088,0.605c0,0.029-0.004,0.092-0.011,0.188
			c-0.008,0.096-0.011,0.156-0.011,0.186c-0.133,0.221-0.309,0.367-0.528,0.441c-0.22,0.072-0.447,0.131-0.682,0.176
			c-0.162,0-0.451-0.004-0.869-0.012s-0.862-0.012-1.331-0.012c-0.455,0-0.892,0.004-1.31,0.012s-0.707,0.012-0.869,0.012
			c-0.161,0-0.355,0.004-0.583,0.01c-0.228,0.008-0.45,0.016-0.671,0.023c-0.22,0.008-0.491,0.025-0.813,0.055l-0.088,0.066
			c0,0.016-0.004,0.066-0.012,0.156c-0.007,0.088-0.011,0.146-0.011,0.176c0,0.428,0.077,0.834,0.231,1.217
			c0.153,0.385,0.366,0.721,0.638,1.008s0.59,0.516,0.957,0.686c0.366,0.17,0.77,0.256,1.21,0.256c0.044,0,0.143-0.004,0.297-0.012
			s0.253-0.012,0.297-0.012c0.205-0.16,0.44-0.273,0.704-0.34c0.265-0.066,0.491-0.18,0.683-0.342
			c0.146-0.131,0.282-0.293,0.406-0.484c0.125-0.189,0.257-0.373,0.396-0.549c0.139-0.176,0.289-0.322,0.451-0.441
			c0.161-0.117,0.358-0.176,0.594-0.176c0.22,0,0.399,0.066,0.539,0.199c0.139,0.131,0.209,0.301,0.209,0.506
			c0,0.338-0.073,0.641-0.22,0.912c-0.147,0.271-0.309,0.539-0.484,0.803c-0.44,0.639-1.02,1.094-1.738,1.369
			s-1.459,0.414-2.222,0.414c-0.748,0-1.423-0.146-2.024-0.441c-0.602-0.293-1.107-0.688-1.518-1.188
			c-0.411-0.498-0.727-1.074-0.946-1.727s-0.33-1.338-0.33-2.057C81.224,37.7,81.264,37.173,81.345,36.63z M83.292,36.321
			c0,0.045,0.029,0.066,0.088,0.066h5.082c0.029,0,0.069-0.018,0.121-0.055c0.051-0.037,0.092-0.07,0.121-0.1
			c0.015-0.029,0.021-0.08,0.021-0.154c0-0.072,0-0.125,0-0.154c0-0.352-0.088-0.648-0.264-0.891s-0.396-0.432-0.66-0.572
			c-0.264-0.139-0.554-0.242-0.869-0.307c-0.315-0.066-0.612-0.1-0.891-0.1c-0.308,0-0.624,0.041-0.946,0.121
			s-0.616,0.209-0.88,0.385s-0.484,0.4-0.66,0.672s-0.264,0.59-0.264,0.957C83.292,36.22,83.292,36.263,83.292,36.321z"/>
		<path d="M102.487,41.282c-0.008-0.418-0.041-0.836-0.1-1.254s-0.15-0.824-0.274-1.221c-0.125-0.396-0.29-0.77-0.495-1.123
			c-0.104-0.16-0.202-0.344-0.297-0.549c-0.096-0.205-0.225-0.367-0.386-0.484c-0.205-0.043-0.381-0.08-0.527-0.109
			c-0.147-0.029-0.29-0.049-0.43-0.055c-0.14-0.008-0.282-0.012-0.429-0.012c-0.132,0-0.294,0-0.484,0h-0.813
			c-0.088,0-0.22,0.012-0.396,0.033c-0.176,0.021-0.271,0.041-0.285,0.055l-0.089,0.088v4.137c0,0.131,0.133,0.23,0.396,0.297
			s0.55,0.143,0.858,0.23c0.308,0.088,0.594,0.217,0.857,0.385c0.264,0.17,0.396,0.438,0.396,0.803c0,0.234-0.063,0.418-0.188,0.551
			c-0.125,0.131-0.278,0.234-0.462,0.309c-0.184,0.072-0.382,0.121-0.594,0.143c-0.213,0.021-0.407,0.033-0.583,0.033h-0.242
			c-0.132,0-0.363-0.004-0.693-0.012s-0.678-0.014-1.045-0.021c-0.366-0.008-0.711-0.02-1.034-0.033
			c-0.322-0.014-0.55-0.021-0.682-0.021c-0.146,0.014-0.282-0.02-0.407-0.1c-0.124-0.08-0.234-0.188-0.33-0.318
			c-0.095-0.133-0.168-0.271-0.22-0.418s-0.077-0.287-0.077-0.418c0-0.279,0.066-0.496,0.198-0.65s0.301-0.268,0.506-0.34
			c0.205-0.074,0.429-0.117,0.671-0.133c0.242-0.014,0.474-0.021,0.693-0.021c0.029-0.029,0.065-0.074,0.11-0.133
			c0.044-0.059,0.065-0.102,0.065-0.131l-0.044-4.906v-0.439l-0.132-5.17l-0.176-0.178l-1.387-0.33
			c-0.19-0.057-0.308-0.186-0.352-0.385c-0.044-0.197-0.066-0.369-0.066-0.516c0-0.234,0.059-0.467,0.177-0.693
			c0.117-0.229,0.314-0.342,0.594-0.342h3.366c0.161-0.088,0.308-0.135,0.439-0.143s0.278-0.012,0.44-0.012
			c0.763,0,1.528,0.053,2.299,0.154c0.77,0.104,1.463,0.309,2.079,0.617c0.616,0.307,1.114,0.752,1.496,1.33
			c0.381,0.58,0.571,1.346,0.571,2.299c0,0.41-0.036,0.848-0.109,1.309c-0.073,0.463-0.242,0.863-0.506,1.199
			c-0.088,0.117-0.202,0.229-0.341,0.33c-0.14,0.104-0.275,0.205-0.407,0.309s-0.242,0.217-0.33,0.34
			c-0.088,0.125-0.132,0.275-0.132,0.451v0.199c0.293,0.455,0.523,0.965,0.692,1.529s0.312,1.088,0.43,1.572
			c0.044,0.176,0.069,0.406,0.076,0.693c0.008,0.285,0.07,0.518,0.188,0.693c0.103,0.16,0.228,0.271,0.374,0.33
			s0.293,0.109,0.439,0.152c0.146,0.045,0.294,0.104,0.44,0.178c0.146,0.072,0.271,0.197,0.374,0.373
			c0.132,0.205,0.213,0.346,0.242,0.418c0.029,0.074,0.044,0.205,0.044,0.396c0,0.25-0.081,0.49-0.242,0.727
			c-0.161,0.234-0.389,0.352-0.682,0.352h-0.044c-0.265-0.045-0.558-0.063-0.88-0.055c-0.323,0.006-0.631-0.008-0.925-0.045
			c-0.293-0.037-0.554-0.129-0.78-0.275c-0.228-0.146-0.371-0.395-0.43-0.748C102.49,42.108,102.494,41.7,102.487,41.282z
			 M97.68,30.03c-0.132,0.043-0.198,0.123-0.198,0.242v3.783c0,0.043,0.022,0.117,0.066,0.221c0.044,0.102,0.08,0.176,0.11,0.219
			h0.506c0.19,0,0.374-0.014,0.55-0.043s0.352-0.045,0.528-0.045c0.22,0,0.432,0.016,0.638,0.045
			c0.205,0.029,0.425,0.043,0.66,0.043h0.726c0.528-0.16,0.965-0.414,1.31-0.758c0.344-0.346,0.517-0.805,0.517-1.375
			c0-0.338-0.044-0.672-0.132-1.002s-0.279-0.605-0.572-0.824c-0.558-0.25-1.144-0.414-1.76-0.496
			c-0.616-0.08-1.232-0.121-1.848-0.121c-0.074,0-0.206,0-0.396,0s-0.322,0.008-0.396,0.023
			C97.914,29.956,97.812,29.985,97.68,30.03z"/>
		<path d="M110.604,37.091c0.095-0.66,0.143-1.326,0.143-2.002c0-0.043,0-0.109,0-0.197c0-0.104-0.004-0.209-0.011-0.318
			c-0.008-0.111-0.012-0.209-0.012-0.297c0-0.104,0-0.178,0-0.221c-0.161-0.104-0.341-0.172-0.538-0.209
			c-0.198-0.037-0.386-0.08-0.562-0.133c-0.176-0.051-0.322-0.135-0.439-0.252c-0.118-0.117-0.177-0.309-0.177-0.572
			c0-0.25,0.077-0.463,0.231-0.639s0.363-0.264,0.627-0.264h1.804c0.22,0,0.393,0.049,0.518,0.143
			c0.124,0.096,0.22,0.221,0.285,0.373c0.066,0.154,0.11,0.318,0.133,0.494c0.021,0.176,0.032,0.336,0.032,0.482
			c0,0.309-0.019,0.607-0.055,0.9c-0.037,0.293-0.055,0.592-0.055,0.9c0,0.102,0.003,0.26,0.011,0.471
			c0.007,0.213,0.011,0.334,0.011,0.363c0,0.146,0.008,0.406,0.022,0.779s0.029,0.771,0.044,1.195s0.033,0.824,0.055,1.197
			c0.022,0.373,0.033,0.633,0.033,0.779c0.059,0.379,0.18,0.693,0.363,0.943c0.183,0.248,0.487,0.373,0.913,0.373
			c0.176,0,0.374-0.016,0.594-0.045s0.403-0.109,0.55-0.242c0.264-0.234,0.535-0.502,0.814-0.803
			c0.278-0.301,0.527-0.619,0.748-0.957c0.22-0.336,0.402-0.693,0.55-1.066c0.146-0.375,0.22-0.752,0.22-1.133v-3.189
			c0-0.059-0.099-0.1-0.297-0.121c-0.198-0.023-0.418-0.063-0.66-0.121s-0.462-0.158-0.66-0.297
			c-0.198-0.141-0.297-0.35-0.297-0.627c0-0.25,0.077-0.447,0.231-0.596c0.153-0.146,0.37-0.219,0.648-0.219h1.98
			c0.264,0,0.454,0.084,0.571,0.252c0.117,0.17,0.198,0.367,0.242,0.594c0.044,0.229,0.066,0.467,0.066,0.717
			c0,0.248,0.021,0.447,0.065,0.594l-0.044,2.332v0.418l-0.044,4.135l0.177,0.176c0.22,0,0.45,0.008,0.692,0.023
			c0.242,0.014,0.47,0.063,0.683,0.143c0.212,0.082,0.385,0.199,0.517,0.355c0.132,0.154,0.198,0.381,0.198,0.678
			c0,0.266-0.052,0.475-0.154,0.621c-0.103,0.148-0.238,0.256-0.407,0.322s-0.355,0.107-0.561,0.123
			c-0.206,0.016-0.411,0.021-0.616,0.021c-0.117,0-0.305-0.006-0.561-0.021c-0.257-0.016-0.518-0.057-0.781-0.123
			c-0.265-0.066-0.495-0.166-0.693-0.299c-0.198-0.135-0.297-0.313-0.297-0.533v-0.957h-0.088c-0.25,0.268-0.495,0.523-0.737,0.768
			s-0.499,0.467-0.77,0.666c-0.271,0.201-0.565,0.359-0.88,0.479c-0.316,0.117-0.657,0.178-1.023,0.178
			c-0.602,0-1.122-0.141-1.562-0.418c-0.44-0.279-0.804-0.635-1.09-1.068c-0.285-0.432-0.498-0.916-0.638-1.451
			s-0.209-1.066-0.209-1.596C110.461,38.419,110.509,37.751,110.604,37.091z"/>
		<path d="M124.102,42.159c0.029-0.156,0.08-0.303,0.154-0.438c0.072-0.135,0.164-0.25,0.274-0.348s0.245-0.146,0.407-0.146h3.366
			l0.109-0.131v-6.602l0.132-0.416v-3.684c0-0.088-0.088-0.18-0.264-0.273c-0.176-0.096-0.286-0.15-0.33-0.166
			c-0.044,0.016-0.121,0.037-0.23,0.066c-0.11,0.029-0.231,0.059-0.363,0.088s-0.257,0.055-0.374,0.076
			c-0.117,0.023-0.198,0.033-0.242,0.033h-0.352c-0.25,0-0.444-0.025-0.583-0.076c-0.14-0.051-0.313-0.113-0.518-0.188
			c-0.146-0.043-0.278-0.08-0.396-0.109c-0.118-0.029-0.217-0.072-0.297-0.131c-0.081-0.059-0.144-0.135-0.188-0.23
			c-0.044-0.094-0.065-0.236-0.065-0.428c0-0.408,0.157-0.689,0.473-0.844s0.656-0.23,1.023-0.23c0.264,0,0.523,0.029,0.78,0.088
			s0.518,0.088,0.781,0.088c0.205,0,0.403-0.016,0.594-0.045s0.389-0.043,0.595-0.043c0.19,0,0.396,0.021,0.615,0.066
			c0.221,0.043,0.426,0.113,0.616,0.207c0.19,0.096,0.349,0.227,0.473,0.395c0.125,0.168,0.188,0.377,0.188,0.625V41.03l0.22,0.197
			h2.926c0.146,0,0.275,0.041,0.386,0.123c0.109,0.082,0.201,0.184,0.274,0.303c0.073,0.121,0.129,0.252,0.165,0.393
			c0.037,0.143,0.056,0.273,0.056,0.393c0,0.27-0.07,0.51-0.209,0.719c-0.14,0.209-0.363,0.314-0.672,0.314h-8.514
			c-0.249,0-0.487-0.086-0.715-0.258s-0.341-0.385-0.341-0.641C124.058,42.454,124.072,42.315,124.102,42.159z"/>
		<path d="M137.18,36.63c0.081-0.543,0.217-1.061,0.407-1.551c0.19-0.492,0.443-0.947,0.759-1.365s0.715-0.758,1.199-1.021
			c0.044-0.029,0.124-0.074,0.242-0.133c0.117-0.059,0.242-0.121,0.374-0.188s0.253-0.123,0.362-0.176
			c0.11-0.051,0.188-0.084,0.231-0.1c0.161-0.072,0.326-0.105,0.495-0.098c0.168,0.008,0.333,0.01,0.495,0.01
			c0.938,0,1.73,0.225,2.376,0.672c0.645,0.447,1.246,1.023,1.804,1.727c0.059,0.088,0.136,0.254,0.231,0.496
			c0.095,0.24,0.183,0.506,0.264,0.791c0.08,0.287,0.15,0.564,0.209,0.836s0.088,0.473,0.088,0.605c0,0.029-0.004,0.092-0.011,0.188
			c-0.008,0.096-0.011,0.156-0.011,0.186c-0.133,0.221-0.309,0.367-0.528,0.441c-0.22,0.072-0.447,0.131-0.682,0.176
			c-0.162,0-0.451-0.004-0.869-0.012s-0.862-0.012-1.331-0.012c-0.455,0-0.892,0.004-1.31,0.012s-0.707,0.012-0.869,0.012
			c-0.161,0-0.355,0.004-0.583,0.01c-0.228,0.008-0.45,0.016-0.671,0.023c-0.22,0.008-0.491,0.025-0.813,0.055l-0.088,0.066
			c0,0.016-0.004,0.066-0.012,0.156c-0.007,0.088-0.011,0.146-0.011,0.176c0,0.428,0.077,0.834,0.231,1.217
			c0.153,0.385,0.366,0.721,0.638,1.008s0.59,0.516,0.957,0.686c0.366,0.17,0.77,0.256,1.21,0.256c0.044,0,0.143-0.004,0.297-0.012
			s0.253-0.012,0.297-0.012c0.205-0.16,0.44-0.273,0.704-0.34c0.265-0.066,0.491-0.18,0.683-0.342
			c0.146-0.131,0.282-0.293,0.406-0.484c0.125-0.189,0.257-0.373,0.396-0.549c0.139-0.176,0.289-0.322,0.451-0.441
			c0.161-0.117,0.358-0.176,0.594-0.176c0.22,0,0.399,0.066,0.539,0.199c0.139,0.131,0.209,0.301,0.209,0.506
			c0,0.338-0.073,0.641-0.22,0.912c-0.147,0.271-0.309,0.539-0.484,0.803c-0.44,0.639-1.02,1.094-1.738,1.369
			s-1.459,0.414-2.222,0.414c-0.748,0-1.423-0.146-2.024-0.441c-0.602-0.293-1.107-0.688-1.518-1.188
			c-0.411-0.498-0.727-1.074-0.946-1.727s-0.33-1.338-0.33-2.057C137.059,37.7,137.099,37.173,137.18,36.63z M139.127,36.321
			c0,0.045,0.029,0.066,0.088,0.066h5.082c0.029,0,0.069-0.018,0.121-0.055c0.051-0.037,0.092-0.07,0.121-0.1
			c0.015-0.029,0.021-0.08,0.021-0.154c0-0.072,0-0.125,0-0.154c0-0.352-0.088-0.648-0.264-0.891s-0.396-0.432-0.66-0.572
			c-0.264-0.139-0.554-0.242-0.869-0.307c-0.315-0.066-0.612-0.1-0.891-0.1c-0.308,0-0.624,0.041-0.946,0.121
			s-0.616,0.209-0.88,0.385s-0.484,0.4-0.66,0.672s-0.264,0.59-0.264,0.957C139.127,36.22,139.127,36.263,139.127,36.321z"/>
		<path d="M149.28,42.163c0.007-0.096,0.047-0.217,0.12-0.363v-2.596c0-0.205,0.081-0.371,0.242-0.496
			c0.161-0.123,0.338-0.186,0.528-0.186c0.088,0,0.187,0.01,0.297,0.031c0.11,0.023,0.201,0.07,0.275,0.145
			c0.103,0.117,0.161,0.26,0.176,0.428c0.015,0.17,0.065,0.313,0.154,0.43c0.19,0.264,0.377,0.518,0.561,0.76
			c0.184,0.24,0.385,0.453,0.605,0.637c0.22,0.184,0.465,0.33,0.736,0.439c0.271,0.111,0.583,0.166,0.936,0.166
			c0.308,0,0.619-0.033,0.935-0.1s0.602-0.172,0.858-0.318c0.256-0.146,0.469-0.342,0.638-0.584c0.169-0.24,0.253-0.539,0.253-0.891
			c0-0.248-0.04-0.447-0.121-0.594s-0.245-0.271-0.495-0.373c-0.454-0.146-0.932-0.25-1.43-0.309
			c-0.499-0.059-0.99-0.117-1.474-0.176c-0.484-0.059-0.95-0.139-1.397-0.242s-0.836-0.271-1.166-0.506s-0.594-0.557-0.792-0.969
			c-0.198-0.41-0.297-0.953-0.297-1.627c0-0.777,0.187-1.395,0.561-1.848c0.374-0.455,0.913-0.83,1.617-1.123
			c0.161-0.072,0.334-0.135,0.518-0.188c0.183-0.051,0.37-0.076,0.561-0.076h0.198c0.528,0.074,1.066,0.188,1.617,0.34
			c0.55,0.154,1.045,0.387,1.484,0.693c0.103-0.072,0.188-0.16,0.253-0.264c0.066-0.102,0.133-0.197,0.198-0.285
			c0.066-0.088,0.144-0.162,0.231-0.221s0.205-0.088,0.352-0.088c0.205,0,0.393,0.076,0.562,0.23
			c0.168,0.154,0.245,0.334,0.23,0.539c0,0.088,0.004,0.246,0.011,0.473c0.008,0.229,0.015,0.471,0.022,0.727
			c0.007,0.258,0.019,0.498,0.033,0.727c0.015,0.227,0.021,0.385,0.021,0.473v0.264c0,0.264-0.077,0.531-0.23,0.803
			c-0.154,0.271-0.386,0.408-0.693,0.408c-0.264,0-0.473-0.117-0.627-0.354c-0.154-0.234-0.297-0.502-0.429-0.803
			c-0.132-0.299-0.286-0.59-0.462-0.869c-0.177-0.277-0.426-0.461-0.748-0.549c-0.206-0.059-0.363-0.1-0.474-0.121
			c-0.109-0.021-0.216-0.041-0.318-0.055c-0.104-0.016-0.213-0.023-0.33-0.023c-0.118,0-0.279,0-0.484,0
			c-0.059,0-0.19,0.004-0.396,0.012c-0.206,0.008-0.345,0.012-0.418,0.012c-0.133,0.043-0.265,0.109-0.396,0.197
			s-0.253,0.195-0.363,0.318c-0.109,0.125-0.197,0.262-0.264,0.408s-0.099,0.285-0.099,0.418c0,0.338,0.084,0.594,0.253,0.77
			c0.168,0.176,0.399,0.301,0.692,0.375c0.821-0.029,1.657,0.029,2.509,0.176c0.85,0.146,1.649,0.373,2.397,0.682
			c0.382,0.352,0.708,0.758,0.979,1.221c0.271,0.463,0.406,0.965,0.406,1.508c0,0.557-0.117,1.07-0.352,1.539
			s-0.547,0.877-0.935,1.221c-0.39,0.346-0.829,0.613-1.32,0.803c-0.492,0.191-1.001,0.287-1.529,0.287
			c-0.088,0-0.205-0.004-0.352-0.012c-0.147-0.008-0.228-0.012-0.242-0.012c-0.029,0-0.092-0.01-0.188-0.031
			c-0.095-0.023-0.197-0.049-0.308-0.078s-0.217-0.059-0.319-0.088s-0.176-0.051-0.22-0.066c-0.264-0.072-0.499-0.215-0.704-0.428
			s-0.433-0.385-0.682-0.518c-0.088,0.043-0.15,0.135-0.188,0.275c-0.036,0.139-0.08,0.285-0.132,0.439s-0.14,0.289-0.264,0.406
			c-0.125,0.117-0.319,0.178-0.583,0.178c-0.323,0-0.539-0.129-0.649-0.387c-0.109-0.256-0.165-0.516-0.165-0.779
			C149.269,42.38,149.272,42.259,149.28,42.163z"/>
	</g>
</g>
<g id="Touchy_Feeley">
</g>
<g id="Wasted_Education">
</g>
<g id="Layer_86">
</g>
<g id="PointOfNoReturn">
</g>
<g id="Pirate">
</g>
<g id="Thief">
</g>
<g id="DepthPerception">
</g>
<g id="Narcissist">
</g>
<g id="MammaBird">
</g>
<g id="Staringcontest">
</g>
<g id="Cartwheel">
</g>
<g id="Censored">
</g>
<g id="Depersonalization">
</g>
<g id="threeman">
</g>
<g id="_x32__truths_and_a_lie">
</g>
<g id="cray_cray_cat_lady">
</g>
<g id="siblings">
</g>
<g id="later">
</g>
<g id="waterfall">
</g>
<g id="cheers">
</g>
<g id="rhyme">
</g>
<g id="categories">
</g>
<g id="tits">
</g>
<g id="dicks">
</g>
<g id="questions">
</g>
<g id="double_hands">
</g>
<g id="rewind">
</g>
<g id="Cryptkeeper">
</g>
<g id="Take_2_and_Redo">
</g>
<g id="Embryo">
</g>
<g id="I_am_Groot">
</g>
<g id="Mini_Me">
</g>
<g id="Ditto_1_">
</g>
<g id="reverse">
</g>
</svg>
