<?xml version="1.0" encoding="utf-8"?>
<!-- Generator: Adobe Illustrator 16.0.0, SVG Export Plug-In . SVG Version: 6.00 Build 0)  -->
<!DOCTYPE svg PUBLIC "-//W3C//DTD SVG 1.1//EN" "http://www.w3.org/Graphics/SVG/1.1/DTD/svg11.dtd">
<svg version="1.1" xmlns="http://www.w3.org/2000/svg" xmlns:xlink="http://www.w3.org/1999/xlink" x="0px" y="0px"
	 width="209.759px" height="62.361px" viewBox="0 0 209.759 62.361" enable-background="new 0 0 209.759 62.361"
	 xml:space="preserve">
<g id="Layer_1">
</g>
<g id="Blindman">
</g>
<g id="Compliments">
</g>
<g id="HAT">
</g>
<g id="speech">
</g>
<g id="TREX_ARMS">
</g>
<g id="slim_shady">
</g>
<g id="TIMEOUT">
</g>
<g id="Truth_or_Dare">
</g>
<g id="ARM_WRESTLE">
</g>
<g id="musical_chairs">
</g>
<g id="never_have_i_ever">
</g>
<g id="Trivia">
</g>
<g id="Drink_Pulling">
</g>
<g id="Sharing_is_Caring">
</g>
<g id="Not_It">
</g>
<g id="Cocktail_of_Doom">
</g>
<g id="Heads_up">
</g>
<g id="Archenemy">
</g>
<g id="battle_of_the_sexes">
</g>
<g id="one_must_drink">
</g>
<g id="rainbow_connection">
</g>
<g id="social_drinking">
</g>
<g id="Spin_the_bottle">
</g>
<g id="accents">
</g>
<g id="Slap">
</g>
<g id="rub">
</g>
<g id="down_the_hatch">
</g>
<g id="rubiks_cube">
</g>
<g id="bar_tender">
</g>
<g id="codenames">
</g>
<g id="hand_switch">
</g>
<g id="make_a_rule">
</g>
<g id="no_guts_no_glory">
</g>
<g id="pass">
	<g>
		<path d="M73.37,43.846c-0.909,0-1.701-0.201-2.376-0.604s-1.203-0.949-1.584-1.64v6.71h-2.948V32.098h2.574v1.98
			c0.425-0.675,0.976-1.206,1.65-1.595c0.674-0.389,1.451-0.583,2.332-0.583c0.776,0,1.495,0.157,2.155,0.473
			s1.229,0.74,1.705,1.276c0.477,0.535,0.851,1.166,1.122,1.892s0.407,1.492,0.407,2.299c0,0.836-0.125,1.621-0.374,2.354
			c-0.25,0.733-0.598,1.371-1.045,1.914c-0.447,0.542-0.979,0.968-1.595,1.275C74.778,43.692,74.104,43.846,73.37,43.846z
			 M72.38,41.338c0.44,0,0.848-0.095,1.222-0.286c0.374-0.19,0.692-0.447,0.957-0.77c0.264-0.322,0.469-0.696,0.615-1.122
			s0.221-0.865,0.221-1.32c0-0.483-0.081-0.935-0.242-1.353c-0.162-0.418-0.385-0.781-0.671-1.089
			c-0.286-0.309-0.624-0.551-1.013-0.727s-0.811-0.264-1.265-0.264c-0.278,0-0.564,0.048-0.858,0.143
			c-0.293,0.096-0.564,0.231-0.813,0.407c-0.25,0.176-0.473,0.382-0.671,0.616s-0.349,0.491-0.451,0.77v2.706
			c0.264,0.66,0.667,1.207,1.21,1.64C71.162,41.122,71.749,41.338,72.38,41.338z"/>
		<path d="M85.646,43.846c-0.558,0-1.078-0.092-1.563-0.274c-0.483-0.184-0.901-0.44-1.254-0.771
			c-0.352-0.33-0.627-0.715-0.825-1.155c-0.197-0.439-0.297-0.924-0.297-1.451c0-0.543,0.121-1.045,0.363-1.508
			c0.242-0.462,0.579-0.854,1.012-1.177c0.433-0.322,0.949-0.575,1.551-0.759s1.262-0.275,1.98-0.275
			c0.513,0,1.016,0.044,1.507,0.133c0.491,0.088,0.928,0.212,1.31,0.374v-0.66c0-0.763-0.217-1.35-0.649-1.761
			c-0.433-0.41-1.074-0.615-1.925-0.615c-0.616,0-1.218,0.109-1.805,0.33c-0.586,0.22-1.188,0.542-1.804,0.968l-0.901-1.87
			c1.48-0.982,3.079-1.474,4.796-1.474c1.657,0,2.943,0.406,3.86,1.221c0.917,0.813,1.375,1.991,1.375,3.531v3.586
			c0,0.308,0.056,0.527,0.165,0.66c0.11,0.132,0.29,0.205,0.539,0.22v2.508c-0.499,0.103-0.932,0.154-1.298,0.154
			c-0.558,0-0.986-0.125-1.287-0.374s-0.487-0.579-0.561-0.99l-0.066-0.638c-0.514,0.675-1.137,1.188-1.87,1.54
			C87.267,43.67,86.482,43.846,85.646,43.846z M86.482,41.69c0.498,0,0.972-0.089,1.419-0.265s0.795-0.41,1.045-0.704
			c0.322-0.249,0.484-0.527,0.484-0.836v-1.319c-0.353-0.133-0.734-0.238-1.145-0.319c-0.411-0.08-0.807-0.121-1.188-0.121
			c-0.764,0-1.387,0.173-1.87,0.517c-0.484,0.345-0.727,0.781-0.727,1.31c0,0.499,0.19,0.913,0.572,1.243
			C85.455,41.525,85.925,41.69,86.482,41.69z"/>
		<path d="M101.574,43.846c-0.968,0-1.914-0.153-2.838-0.462c-0.925-0.308-1.717-0.748-2.376-1.319l1.1-1.849
			c0.704,0.499,1.39,0.877,2.057,1.133c0.668,0.257,1.331,0.386,1.991,0.386c0.587,0,1.049-0.11,1.386-0.33
			c0.338-0.221,0.507-0.535,0.507-0.946c0-0.41-0.198-0.711-0.595-0.902c-0.396-0.19-1.041-0.41-1.936-0.66
			c-0.748-0.205-1.386-0.402-1.914-0.594c-0.528-0.19-0.954-0.407-1.276-0.648c-0.322-0.242-0.558-0.521-0.704-0.836
			s-0.22-0.693-0.22-1.134c0-0.586,0.113-1.114,0.341-1.584c0.228-0.469,0.547-0.868,0.957-1.198c0.411-0.33,0.892-0.583,1.441-0.76
			c0.55-0.176,1.147-0.264,1.793-0.264c0.865,0,1.676,0.125,2.431,0.374c0.756,0.25,1.448,0.652,2.079,1.21l-1.188,1.782
			c-0.587-0.44-1.155-0.763-1.705-0.968c-0.551-0.206-1.097-0.309-1.64-0.309c-0.498,0-0.916,0.103-1.254,0.309
			c-0.337,0.205-0.506,0.535-0.506,0.989c0,0.206,0.04,0.374,0.121,0.507c0.08,0.132,0.209,0.249,0.385,0.352
			s0.407,0.202,0.693,0.297c0.286,0.096,0.642,0.194,1.067,0.297c0.792,0.206,1.47,0.411,2.034,0.616s1.026,0.44,1.387,0.704
			c0.358,0.264,0.623,0.568,0.792,0.913c0.168,0.345,0.253,0.759,0.253,1.243c0,1.129-0.418,2.021-1.254,2.673
			S103.011,43.846,101.574,43.846z"/>
		<path d="M114.598,43.846c-0.968,0-1.914-0.153-2.838-0.462c-0.925-0.308-1.717-0.748-2.376-1.319l1.1-1.849
			c0.704,0.499,1.39,0.877,2.057,1.133c0.668,0.257,1.331,0.386,1.991,0.386c0.587,0,1.049-0.11,1.386-0.33
			c0.338-0.221,0.507-0.535,0.507-0.946c0-0.41-0.198-0.711-0.595-0.902c-0.396-0.19-1.041-0.41-1.936-0.66
			c-0.748-0.205-1.386-0.402-1.914-0.594c-0.528-0.19-0.954-0.407-1.276-0.648c-0.322-0.242-0.558-0.521-0.704-0.836
			s-0.22-0.693-0.22-1.134c0-0.586,0.113-1.114,0.341-1.584c0.228-0.469,0.547-0.868,0.957-1.198c0.411-0.33,0.892-0.583,1.441-0.76
			c0.55-0.176,1.147-0.264,1.793-0.264c0.865,0,1.676,0.125,2.431,0.374c0.756,0.25,1.448,0.652,2.079,1.21l-1.188,1.782
			c-0.587-0.44-1.155-0.763-1.705-0.968c-0.551-0.206-1.097-0.309-1.64-0.309c-0.498,0-0.916,0.103-1.254,0.309
			c-0.337,0.205-0.506,0.535-0.506,0.989c0,0.206,0.04,0.374,0.121,0.507c0.08,0.132,0.209,0.249,0.385,0.352
			s0.407,0.202,0.693,0.297c0.286,0.096,0.642,0.194,1.067,0.297c0.792,0.206,1.47,0.411,2.034,0.616s1.026,0.44,1.387,0.704
			c0.358,0.264,0.623,0.568,0.792,0.913c0.168,0.345,0.253,0.759,0.253,1.243c0,1.129-0.418,2.021-1.254,2.673
			S116.034,43.846,114.598,43.846z"/>
	</g>
</g>
<g id="santa">
</g>
<g id="snake_eyes">
</g>
<g id="bodyguard">
</g>
<g id="threeman">
</g>
<g id="_x32__truths_and_a_lie">
</g>
<g id="cray_cray_cat_lady">
</g>
<g id="siblings">
</g>
<g id="later">
</g>
<g id="waterfall">
</g>
<g id="cheers">
</g>
<g id="rhyme">
</g>
<g id="categories">
</g>
<g id="tits">
</g>
<g id="dicks">
</g>
<g id="questions">
</g>
<g id="double_hands">
</g>
<g id="take_2">
</g>
<g id="take_3">
</g>
<g id="give_3">
</g>
<g id="give_2">
</g>
<g id="rewind">
</g>
<g id="Cryptkeeper">
</g>
<g id="Take_2_and_Redo">
</g>
<g id="Embryo">
</g>
<g id="I_am_Groot">
</g>
<g id="Mini_Me">
</g>
<g id="Ditto_1_">
</g>
</svg>
