<?xml version="1.0" encoding="utf-8"?>
<!-- Generator: Adobe Illustrator 16.0.0, SVG Export Plug-In . SVG Version: 6.00 Build 0)  -->
<!DOCTYPE svg PUBLIC "-//W3C//DTD SVG 1.1//EN" "http://www.w3.org/Graphics/SVG/1.1/DTD/svg11.dtd">
<svg version="1.1" xmlns="http://www.w3.org/2000/svg" xmlns:xlink="http://www.w3.org/1999/xlink" x="0px" y="0px"
	 width="209.759px" height="62.361px" viewBox="0 0 209.759 62.361" enable-background="new 0 0 209.759 62.361"
	 xml:space="preserve">
<g id="Layer_1">
</g>
<g id="Hat">
</g>
<g id="Compliments">
</g>
<g id="HAT">
</g>
<g id="speech">
</g>
<g id="TREX_ARMS">
</g>
<g id="Layer_7">
</g>
<g id="TIMEOUT">
</g>
<g id="Layer_9">
</g>
<g id="ARM_WRESTLE">
</g>
<g id="musical_chairs">
</g>
<g id="never_have_i_ever">
</g>
<g id="Trivia">
</g>
<g id="Layer_14">
</g>
<g id="Layer_15">
</g>
<g id="Layer_16">
</g>
<g id="Layer_17">
</g>
<g id="Heads_up">
</g>
<g id="Archenemy">
</g>
<g id="battle_of_the_sexes">
</g>
<g id="one_must_drink">
</g>
<g id="rainbow_connection">
</g>
<g id="social_drinking">
	<g>
		<path d="M83.492,34.991c0.468,0.288,1.151,0.528,1.871,0.528c1.067,0,1.691-0.564,1.691-1.38c0-0.756-0.433-1.188-1.523-1.606
			c-1.319-0.468-2.135-1.151-2.135-2.291c0-1.26,1.043-2.195,2.614-2.195c0.827,0,1.428,0.192,1.787,0.396l-0.288,0.852
			c-0.264-0.145-0.804-0.384-1.535-0.384c-1.104,0-1.522,0.659-1.522,1.211c0,0.756,0.491,1.127,1.606,1.56
			c1.367,0.527,2.063,1.187,2.063,2.374c0,1.248-0.924,2.327-2.831,2.327c-0.779,0-1.631-0.229-2.063-0.516L83.492,34.991z"/>
		<path d="M94.842,33.313c0,2.146-1.487,3.082-2.891,3.082c-1.571,0-2.782-1.151-2.782-2.986c0-1.942,1.271-3.082,2.878-3.082
			C93.714,30.326,94.842,31.537,94.842,33.313z M90.236,33.372c0,1.271,0.731,2.231,1.763,2.231c1.008,0,1.763-0.948,1.763-2.255
			c0-0.983-0.491-2.231-1.738-2.231C90.775,31.117,90.236,32.269,90.236,33.372z"/>
		<path d="M100.314,36.047c-0.276,0.144-0.888,0.336-1.668,0.336c-1.751,0-2.89-1.188-2.89-2.963c0-1.787,1.223-3.082,3.118-3.082
			c0.623,0,1.175,0.156,1.463,0.3l-0.239,0.815c-0.252-0.144-0.648-0.275-1.224-0.275c-1.331,0-2.051,0.983-2.051,2.194
			c0,1.344,0.863,2.171,2.015,2.171c0.6,0,0.995-0.156,1.295-0.288L100.314,36.047z"/>
		<path d="M102.728,28.827c0.012,0.359-0.252,0.647-0.672,0.647c-0.371,0-0.636-0.288-0.636-0.647c0-0.372,0.276-0.66,0.66-0.66
			C102.476,28.167,102.728,28.455,102.728,28.827z M101.553,36.263v-5.805h1.055v5.805H101.553z"/>
		<path d="M107.574,36.263l-0.084-0.731h-0.036c-0.324,0.456-0.947,0.863-1.775,0.863c-1.175,0-1.774-0.827-1.774-1.667
			c0-1.403,1.247-2.171,3.49-2.159v-0.119c0-0.48-0.132-1.344-1.319-1.344c-0.54,0-1.104,0.168-1.512,0.432l-0.239-0.695
			c0.479-0.312,1.175-0.516,1.906-0.516c1.775,0,2.207,1.211,2.207,2.374v2.171c0,0.504,0.024,0.996,0.096,1.392H107.574z
			 M107.418,33.301c-1.151-0.024-2.458,0.18-2.458,1.307c0,0.684,0.455,1.008,0.995,1.008c0.756,0,1.235-0.479,1.403-0.972
			c0.036-0.107,0.06-0.228,0.06-0.336V33.301z"/>
		<path d="M110.145,27.747h1.055v8.516h-1.055V27.747z"/>
		<path d="M115.556,28.287c0.636-0.096,1.392-0.168,2.219-0.168c1.5,0,2.567,0.348,3.274,1.008c0.72,0.659,1.14,1.595,1.14,2.902
			c0,1.319-0.408,2.398-1.163,3.142c-0.756,0.756-2.003,1.164-3.574,1.164c-0.744,0-1.367-0.036-1.896-0.097V28.287z M116.6,35.436
			c0.264,0.048,0.647,0.06,1.056,0.06c2.23,0,3.441-1.247,3.441-3.43c0.013-1.907-1.067-3.119-3.273-3.119
			c-0.54,0-0.948,0.049-1.224,0.108V35.436z"/>
		<path d="M123.512,32.269c0-0.684-0.013-1.271-0.049-1.811h0.924l0.036,1.14h0.048c0.264-0.78,0.899-1.271,1.607-1.271
			c0.12,0,0.204,0.012,0.3,0.036v0.995c-0.108-0.024-0.216-0.036-0.36-0.036c-0.743,0-1.271,0.563-1.415,1.355
			c-0.023,0.144-0.048,0.312-0.048,0.491v3.095h-1.043V32.269z"/>
		<path d="M128.658,28.827c0.012,0.359-0.252,0.647-0.672,0.647c-0.371,0-0.636-0.288-0.636-0.647c0-0.372,0.276-0.66,0.66-0.66
			C128.406,28.167,128.658,28.455,128.658,28.827z M127.483,36.263v-5.805h1.055v5.805H127.483z"/>
		<path d="M130.292,32.029c0-0.6-0.013-1.092-0.049-1.571h0.936l0.061,0.959h0.023c0.288-0.552,0.96-1.091,1.919-1.091
			c0.804,0,2.051,0.479,2.051,2.471v3.466h-1.055v-3.346c0-0.936-0.349-1.716-1.344-1.716c-0.695,0-1.235,0.492-1.415,1.08
			c-0.048,0.132-0.072,0.312-0.072,0.491v3.49h-1.055V32.029z"/>
		<path d="M137.994,33.12h0.024c0.144-0.203,0.348-0.455,0.516-0.659l1.703-2.003h1.271l-2.242,2.387l2.555,3.418h-1.283
			l-2.003-2.782l-0.54,0.6v2.183h-1.043v-8.516h1.043V33.12z"/>
		<path d="M143.958,28.827c0.012,0.359-0.252,0.647-0.672,0.647c-0.371,0-0.636-0.288-0.636-0.647c0-0.372,0.276-0.66,0.66-0.66
			C143.706,28.167,143.958,28.455,143.958,28.827z M142.783,36.263v-5.805h1.055v5.805H142.783z"/>
		<path d="M145.592,32.029c0-0.6-0.013-1.092-0.049-1.571h0.936l0.061,0.959h0.023c0.288-0.552,0.96-1.091,1.919-1.091
			c0.804,0,2.051,0.479,2.051,2.471v3.466h-1.055v-3.346c0-0.936-0.348-1.716-1.344-1.716c-0.695,0-1.235,0.492-1.415,1.08
			c-0.048,0.132-0.072,0.312-0.072,0.491v3.49h-1.055V32.029z"/>
		<path d="M157.252,30.458c-0.024,0.42-0.048,0.888-0.048,1.595v3.37c0,1.332-0.264,2.147-0.828,2.65
			c-0.563,0.528-1.379,0.696-2.11,0.696c-0.696,0-1.464-0.168-1.931-0.479l0.264-0.804c0.384,0.239,0.983,0.455,1.703,0.455
			c1.079,0,1.871-0.563,1.871-2.026v-0.647h-0.024c-0.324,0.539-0.947,0.971-1.847,0.971c-1.439,0-2.471-1.223-2.471-2.83
			c0-1.967,1.283-3.082,2.614-3.082c1.008,0,1.56,0.527,1.811,1.007h0.024l0.048-0.875H157.252z M156.16,32.749
			c0-0.181-0.012-0.336-0.06-0.48c-0.192-0.611-0.708-1.115-1.476-1.115c-1.007,0-1.727,0.852-1.727,2.195
			c0,1.139,0.575,2.087,1.715,2.087c0.647,0,1.235-0.408,1.463-1.08c0.061-0.18,0.084-0.384,0.084-0.563V32.749z"/>
	</g>
</g>
<g id="Spin_the_bottle">
</g>
<g id="accents">
</g>
<g id="Slap">
</g>
<g id="Layer_22">
</g>
<g id="Layer_19">
</g>
<g id="Layer_20">
</g>
<g id="Layer_21">
</g>
<g id="Layer_23">
</g>
<g id="Layer_24">
</g>
</svg>
