<?xml version="1.0" encoding="utf-8"?>
<!-- Generator: Adobe Illustrator 16.0.0, SVG Export Plug-In . SVG Version: 6.00 Build 0)  -->
<!DOCTYPE svg PUBLIC "-//W3C//DTD SVG 1.1//EN" "http://www.w3.org/Graphics/SVG/1.1/DTD/svg11.dtd">
<svg version="1.1" xmlns="http://www.w3.org/2000/svg" xmlns:xlink="http://www.w3.org/1999/xlink" x="0px" y="0px"
	 width="209.759px" height="62.361px" viewBox="0 0 209.759 62.361" enable-background="new 0 0 209.759 62.361"
	 xml:space="preserve">
<g id="Layer_1">
</g>
<g id="Blindman">
</g>
<g id="Compliments">
</g>
<g id="HAT">
</g>
<g id="speech">
</g>
<g id="TREX_ARMS">
</g>
<g id="slim_shady">
</g>
<g id="TIMEOUT">
</g>
<g id="Truth_or_Dare">
</g>
<g id="ARM_WRESTLE">
</g>
<g id="musical_chairs">
</g>
<g id="never_have_i_ever">
</g>
<g id="Trivia">
</g>
<g id="Drink_Pulling">
</g>
<g id="Sharing_is_Caring">
</g>
<g id="Not_It">
</g>
<g id="Cocktail_of_Doom">
</g>
<g id="Heads_up">
</g>
<g id="Archenemy">
</g>
<g id="battle_of_the_sexes">
</g>
<g id="one_must_drink">
</g>
<g id="rainbow_connection">
</g>
<g id="social_drinking">
</g>
<g id="Spin_the_bottle">
</g>
<g id="accents">
</g>
<g id="Slap">
</g>
<g id="down_the_hatch">
</g>
<g id="rubiks_cube">
</g>
<g id="bar_tender">
</g>
<g id="codenames">
</g>
<g id="hand_switch">
</g>
<g id="make_a_rule">
</g>
<g id="no_guts_no_glory">
</g>
<g id="pass">
</g>
<g id="santa">
</g>
<g id="snake_eyes">
</g>
<g id="lightning_round">
</g>
<g id="Bro">
</g>
<g id="LeastDrunk">
</g>
<g id="Know_It_All">
</g>
<g id="EyeContact">
</g>
<g id="UnderGuesser">
</g>
<g id="GodSaveTheQUeen">
</g>
<g id="Ghost">
</g>
<g id="Fortune_Teller">
</g>
<g id="DrinkSwap">
</g>
<g id="DickTator">
</g>
<g id="_x34_Eyes">
</g>
<g id="BabyTalk">
</g>
<g id="Backseat_Driver">
	<g>
		<path d="M10.633,42.148h0.527c0.25,0,0.499,0.02,0.748,0.055c0.249,0.037,0.506,0.055,0.771,0.055c0.044,0,0.113-0.002,0.209-0.01
			c0.095-0.008,0.15-0.012,0.165-0.012l0.088-0.088V31.057c0-0.088-0.066-0.154-0.198-0.197c-0.132-0.045-0.257-0.066-0.374-0.066
			h-0.154c-0.176,0-0.349,0.016-0.517,0.045c-0.169,0.029-0.341,0.043-0.517,0.043c-0.382,0-0.716-0.092-1.001-0.275
			c-0.286-0.182-0.43-0.479-0.43-0.891c0-0.322,0.096-0.582,0.286-0.781c0.19-0.197,0.447-0.297,0.771-0.297
			c0.234,0,0.439,0.012,0.615,0.033c0.177,0.021,0.396,0.07,0.66,0.143h1.342c0.616,0,1.225-0.043,1.826-0.131
			s1.21-0.133,1.826-0.133h0.44c0.645,0.104,1.228,0.262,1.749,0.473c0.521,0.213,0.964,0.488,1.331,0.826
			c0.366,0.338,0.648,0.752,0.847,1.242c0.198,0.492,0.297,1.066,0.297,1.727c0,0.324-0.044,0.66-0.132,1.014
			c-0.088,0.352-0.22,0.658-0.396,0.924c-0.073,0.088-0.19,0.242-0.352,0.461c-0.162,0.221-0.242,0.412-0.242,0.572
			c0,0.088,0.04,0.18,0.121,0.275c0.08,0.096,0.172,0.193,0.275,0.297c0.103,0.104,0.205,0.197,0.308,0.285s0.184,0.176,0.242,0.266
			c0.234,0.424,0.41,0.816,0.527,1.176c0.118,0.359,0.177,0.773,0.177,1.244c0,0.336-0.037,0.691-0.11,1.066
			c-0.073,0.373-0.18,0.744-0.319,1.111c-0.139,0.365-0.312,0.711-0.517,1.033s-0.44,0.602-0.704,0.836
			c-0.366,0.205-0.729,0.396-1.089,0.572s-0.744,0.301-1.155,0.373c-0.293,0-0.773,0.004-1.44,0.012
			c-0.668,0.008-1.397,0.012-2.189,0.012s-1.521,0-2.188,0c-0.668,0-1.141,0-1.419,0h-0.265c-0.337,0-0.608-0.113-0.813-0.34
			c-0.206-0.229-0.309-0.502-0.309-0.824C9.95,42.684,10.178,42.34,10.633,42.148z M15.12,34.617c0,0.164,0.077,0.264,0.231,0.301
			s0.304,0.055,0.451,0.055h0.264c0.47,0,0.961-0.006,1.474-0.021c0.514-0.016,0.969-0.037,1.364-0.066
			c0.103-0.061,0.217-0.133,0.341-0.223c0.125-0.09,0.246-0.189,0.363-0.301s0.216-0.232,0.297-0.367
			c0.081-0.133,0.121-0.273,0.121-0.422v-1.467c0-0.061-0.029-0.119-0.088-0.178c-0.176-0.281-0.326-0.486-0.451-0.611
			c-0.125-0.127-0.261-0.215-0.407-0.268s-0.312-0.09-0.494-0.111c-0.184-0.021-0.422-0.07-0.716-0.145h-2.75V34.617z M15.385,36.91
			c-0.044,0.029-0.1,0.072-0.165,0.131c-0.066,0.059-0.1,0.104-0.1,0.133v4.906c0,0.131,0.085,0.223,0.253,0.273
			c0.169,0.053,0.298,0.078,0.386,0.078c0.498,0,0.993-0.025,1.484-0.078c0.491-0.051,0.994-0.084,1.507-0.098
			c0.382-0.146,0.693-0.309,0.936-0.484s0.437-0.377,0.583-0.605c0.146-0.227,0.245-0.486,0.297-0.781
			c0.051-0.293,0.077-0.631,0.077-1.012c0-0.189,0.003-0.41,0.011-0.66c0.008-0.248-0.055-0.447-0.187-0.594l-1.034-1.033
			c-0.044-0.045-0.121-0.1-0.231-0.166c-0.109-0.066-0.18-0.1-0.209-0.1h-2.485c-0.118,0.09-0.206,0.141-0.265,0.154
			c-0.059,0.016-0.14,0.023-0.242,0.023s-0.194-0.016-0.274-0.045c-0.081-0.029-0.173-0.043-0.275-0.043H15.385z"/>
		<path d="M25.548,38.703c0.352-0.492,0.792-0.852,1.32-1.078c0.527-0.229,1.104-0.367,1.727-0.418
			c0.623-0.053,1.199-0.1,1.728-0.145c0.527-0.043,0.968-0.123,1.319-0.242c0.353-0.117,0.528-0.352,0.528-0.703
			c0-0.25-0.044-0.484-0.132-0.703c-0.088-0.221-0.25-0.396-0.484-0.529c-0.088-0.043-0.22-0.109-0.396-0.197
			c-0.177-0.088-0.271-0.133-0.286-0.133h-2.068c-0.117,0-0.198,0.063-0.242,0.188s-0.084,0.279-0.121,0.463
			c-0.036,0.184-0.076,0.385-0.121,0.604c-0.044,0.221-0.113,0.422-0.209,0.605c-0.095,0.184-0.234,0.338-0.418,0.463
			s-0.429,0.186-0.736,0.186c-0.47,0-0.854-0.152-1.155-0.461s-0.451-0.689-0.451-1.145c0-0.264,0.044-0.498,0.132-0.703
			s0.206-0.396,0.353-0.572s0.315-0.342,0.506-0.496s0.381-0.297,0.572-0.428c0.161-0.117,0.33-0.246,0.506-0.385
			c0.176-0.141,0.381-0.209,0.616-0.209l3.365,0.043c0.19,0,0.415,0.08,0.672,0.24c0.256,0.162,0.506,0.352,0.747,0.57
			c0.242,0.219,0.455,0.453,0.639,0.701c0.183,0.248,0.297,0.459,0.341,0.635c0.015,0.043,0.036,0.123,0.066,0.24
			c0.028,0.117,0.058,0.238,0.088,0.361c0.029,0.125,0.055,0.242,0.076,0.352c0.022,0.109,0.033,0.186,0.033,0.229v0.68
			c0,0.176,0.004,0.375,0.012,0.602c0.007,0.227-0.026,0.428-0.1,0.604v3.699c0,0.41,0.176,0.613,0.528,0.613
			c0.234,0,0.381-0.102,0.439-0.307s0.11-0.438,0.154-0.693s0.113-0.488,0.209-0.693s0.297-0.309,0.605-0.309
			c0.161,0,0.3,0.045,0.418,0.133c0.117,0.088,0.212,0.197,0.286,0.33c0.073,0.133,0.124,0.275,0.153,0.43
			c0.029,0.152,0.044,0.305,0.044,0.449c0,0.324-0.052,0.646-0.153,0.969c-0.104,0.322-0.246,0.613-0.43,0.869
			c-0.184,0.258-0.41,0.467-0.682,0.627c-0.271,0.162-0.583,0.242-0.936,0.242c-0.278,0-0.521-0.033-0.726-0.1
			s-0.433-0.18-0.682-0.34c-0.088-0.045-0.165-0.113-0.231-0.209c-0.065-0.096-0.132-0.191-0.198-0.287
			c-0.065-0.096-0.14-0.18-0.22-0.252c-0.081-0.074-0.173-0.111-0.274-0.111h-0.11c-0.206,0.104-0.415,0.229-0.627,0.375
			c-0.213,0.146-0.429,0.289-0.649,0.43c-0.22,0.139-0.447,0.256-0.682,0.352c-0.235,0.096-0.477,0.143-0.727,0.143h-1.979
			c-0.161,0-0.301-0.041-0.418-0.121s-0.235-0.158-0.353-0.23c-0.602-0.352-1.037-0.789-1.309-1.309
			c-0.271-0.521-0.407-1.127-0.407-1.816C25.02,39.895,25.196,39.193,25.548,38.703z M26.802,41.199
			c0.044,0.162,0.106,0.318,0.188,0.473c0.08,0.154,0.179,0.283,0.297,0.385c0.117,0.104,0.249,0.154,0.396,0.154h2.244
			c0.015,0,0.063-0.021,0.143-0.066c0.081-0.043,0.15-0.08,0.209-0.109c0.029-0.029,0.1-0.072,0.209-0.133
			c0.11-0.057,0.18-0.094,0.21-0.109c0.542-0.365,0.909-0.748,1.1-1.145c0.19-0.395,0.286-0.908,0.286-1.539v-0.264
			c-0.015,0-0.044-0.012-0.088-0.033s-0.074-0.033-0.088-0.033c-0.016-0.014-0.03-0.021-0.045-0.021l-0.044,0.021
			c-0.044,0-0.165,0.018-0.362,0.055c-0.198,0.037-0.407,0.074-0.627,0.109c-0.221,0.037-0.43,0.074-0.627,0.111
			c-0.198,0.037-0.319,0.055-0.363,0.055c-0.353,0.059-0.708,0.104-1.067,0.133s-0.723,0.072-1.089,0.131
			c-0.19,0.016-0.359,0.133-0.506,0.352c-0.073,0.104-0.165,0.264-0.275,0.484c-0.109,0.221-0.165,0.41-0.165,0.572
			C26.735,40.898,26.758,41.037,26.802,41.199z"/>
		<path d="M39.661,36.414c0.198-0.756,0.498-1.438,0.902-2.045c0.402-0.609,0.909-1.107,1.518-1.496s1.323-0.584,2.145-0.584
			c0.073,0,0.169,0,0.286,0c0.132,0,0.205,0.008,0.221,0.021c0.058,0,0.172,0.02,0.341,0.057c0.168,0.035,0.344,0.076,0.527,0.119
			c0.184,0.045,0.355,0.092,0.518,0.145c0.161,0.051,0.271,0.084,0.33,0.098c0.234,0.207,0.48,0.418,0.736,0.639
			c0.257,0.221,0.491,0.459,0.704,0.715c0.213,0.258,0.386,0.535,0.518,0.836s0.198,0.619,0.198,0.957
			c0,0.221-0.033,0.443-0.1,0.672c-0.065,0.227-0.161,0.428-0.286,0.604c-0.125,0.178-0.278,0.32-0.462,0.43
			s-0.399,0.166-0.648,0.166c-0.455,0-0.836-0.162-1.145-0.484c-0.308-0.322-0.462-0.705-0.462-1.145
			c0-0.189,0.029-0.363,0.088-0.518s0.088-0.332,0.088-0.539v-0.352c-0.015-0.014-0.073-0.072-0.176-0.176
			c-0.103-0.102-0.19-0.154-0.264-0.154h-1.452c-0.029,0-0.106,0.02-0.231,0.055c-0.124,0.037-0.224,0.07-0.297,0.1
			c-0.396,0.176-0.723,0.393-0.979,0.648c-0.257,0.258-0.459,0.547-0.605,0.869s-0.249,0.676-0.308,1.057s-0.088,0.777-0.088,1.188
			c0,0.367,0.036,0.773,0.109,1.221s0.213,0.826,0.418,1.133c0.044,0.045,0.117,0.121,0.221,0.232
			c0.103,0.109,0.212,0.223,0.33,0.34c0.117,0.117,0.23,0.229,0.341,0.33c0.109,0.104,0.187,0.176,0.23,0.221
			c0.044,0.043,0.117,0.1,0.221,0.164c0.102,0.066,0.168,0.1,0.197,0.1h1.893c0.234,0,0.439-0.063,0.616-0.188
			c0.176-0.123,0.333-0.277,0.473-0.461c0.139-0.184,0.264-0.385,0.374-0.605c0.109-0.221,0.224-0.422,0.341-0.605
			s0.242-0.336,0.374-0.461s0.286-0.188,0.462-0.188c0.264,0,0.454,0.1,0.572,0.297c0.117,0.197,0.176,0.422,0.176,0.672
			c0,0.512-0.129,0.996-0.385,1.451c-0.257,0.455-0.587,0.855-0.99,1.199s-0.854,0.619-1.353,0.824
			c-0.499,0.207-0.99,0.309-1.475,0.309c-0.719,0-1.386-0.168-2.002-0.506S41.271,43,40.816,42.465
			c-0.455-0.535-0.811-1.141-1.067-1.816c-0.257-0.674-0.385-1.348-0.385-2.023C39.364,37.906,39.463,37.17,39.661,36.414z"/>
		<path d="M51.222,42.98c0.029-0.131,0.073-0.264,0.133-0.395c0.058-0.133,0.124-0.246,0.197-0.342s0.146-0.143,0.221-0.143h1.474
			l0.264-0.088c0.029-0.016,0.103-0.045,0.221-0.088v-3.104l0.109-0.418v-7.172c0-0.102-0.036-0.211-0.109-0.33
			c-0.074-0.117-0.147-0.205-0.221-0.264c-0.22,0-0.454,0-0.704,0c-0.234,0-0.447-0.021-0.638-0.066
			c-0.19-0.043-0.349-0.131-0.473-0.264c-0.125-0.131-0.188-0.336-0.188-0.615c0-0.367,0.154-0.645,0.462-0.836
			c0.309-0.191,0.631-0.287,0.969-0.287h0.132c0.029,0,0.117,0.016,0.264,0.045s0.234,0.045,0.264,0.045h0.044h0.044
			c0.029,0,0.114-0.016,0.254-0.045c0.139-0.029,0.223-0.045,0.253-0.045h0.044c0.337,0,0.648,0.1,0.935,0.299
			c0.286,0.197,0.451,0.473,0.495,0.824c-0.029,0.469-0.022,0.865,0.022,1.188c0.044,0.322,0.065,0.689,0.065,1.1
			c0,0.119-0.004,0.221-0.011,0.309c-0.008,0.088-0.033,0.197-0.077,0.33v4.906c0,0.059,0.022,0.092,0.066,0.1
			c0.044,0.006,0.08,0.01,0.109,0.01c0.044-0.014,0.073-0.021,0.088-0.021c0.088-0.088,0.242-0.238,0.462-0.451
			c0.221-0.213,0.455-0.443,0.704-0.693c0.25-0.248,0.48-0.484,0.693-0.703c0.212-0.221,0.363-0.375,0.451-0.463
			c0.029-0.029,0.088-0.102,0.176-0.219s0.146-0.191,0.176-0.221c-0.161-0.162-0.334-0.334-0.517-0.518
			c-0.184-0.184-0.275-0.398-0.275-0.648c0-0.234,0.081-0.414,0.242-0.539s0.345-0.217,0.55-0.275c0.044,0,0.117,0,0.22,0
			s0.217-0.004,0.342-0.01c0.124-0.008,0.238-0.012,0.341-0.012s0.176,0,0.22,0c0.22,0,0.524-0.004,0.913-0.012
			c0.389-0.006,0.771,0.023,1.145,0.088c0.373,0.066,0.7,0.184,0.979,0.354c0.278,0.168,0.418,0.436,0.418,0.803
			c0,0.25-0.048,0.428-0.143,0.539c-0.096,0.109-0.217,0.186-0.363,0.23c-0.146,0.043-0.315,0.066-0.506,0.066
			c-0.176,0-0.359,0.008-0.55,0.021c-0.221,0.016-0.43,0.088-0.627,0.221c-0.198,0.131-0.393,0.285-0.583,0.461
			c-0.191,0.176-0.363,0.352-0.518,0.529c-0.154,0.176-0.297,0.314-0.429,0.418c-0.103,0.088-0.217,0.168-0.341,0.24
			c-0.125,0.074-0.239,0.148-0.342,0.221c-0.103,0.074-0.187,0.162-0.253,0.264c-0.065,0.104-0.099,0.242-0.099,0.418
			c0,0.309,0.11,0.609,0.33,0.902s0.425,0.564,0.616,0.814c0.014,0.029,0.065,0.092,0.153,0.188
			c0.089,0.096,0.184,0.201,0.286,0.318s0.194,0.227,0.275,0.33c0.08,0.104,0.128,0.168,0.143,0.197
			c0.177,0.25,0.319,0.506,0.43,0.771c0.109,0.264,0.289,0.49,0.539,0.682c0.293,0,0.575,0.004,0.847,0.01
			c0.271,0.008,0.521,0.045,0.748,0.111c0.227,0.064,0.425,0.18,0.594,0.34c0.169,0.162,0.297,0.412,0.385,0.748
			c0,0.016,0.004,0.063,0.012,0.143c0.007,0.082,0.011,0.137,0.011,0.166c0,0.162-0.041,0.293-0.121,0.396
			c-0.081,0.102-0.18,0.186-0.297,0.252c-0.118,0.066-0.25,0.117-0.396,0.154s-0.286,0.07-0.418,0.1H61.21h-1.32
			c-0.117,0-0.301-0.023-0.55-0.066c-0.249-0.045-0.439-0.08-0.572-0.109c-0.117-0.029-0.234-0.082-0.352-0.154
			c-0.117-0.074-0.234-0.111-0.352-0.111c-0.206,0-0.415,0.074-0.628,0.221c-0.212,0.146-0.443,0.221-0.692,0.221
			c-0.206,0-0.407-0.016-0.605-0.045c-0.197-0.029-0.399-0.043-0.604-0.043c-0.353,0-0.697,0.014-1.034,0.043
			c-0.338,0.029-0.682,0.045-1.034,0.045h-0.99c-0.322-0.059-0.619-0.158-0.891-0.297c-0.271-0.141-0.407-0.4-0.407-0.781
			C51.178,43.209,51.192,43.113,51.222,42.98z M56.524,39.176c-0.133,0.117-0.25,0.234-0.353,0.352
			c-0.044,0.043-0.11,0.117-0.198,0.221c-0.088,0.102-0.157,0.186-0.209,0.252c-0.051,0.066-0.084,0.107-0.099,0.121v1.805
			c0,0.102,0.088,0.189,0.264,0.264c0.177,0.074,0.374,0.139,0.595,0.197c0.22,0.059,0.432,0.107,0.638,0.143
			c0.205,0.037,0.337,0.07,0.396,0.1c0.029,0.016,0.089,0.059,0.177,0.133c0.088,0.072,0.146,0.109,0.176,0.109
			c0,0.016,0.015,0.021,0.044,0.021s0.059,0,0.088,0c0.161,0,0.337-0.088,0.528-0.264c0.19-0.176,0.286-0.352,0.286-0.527
			c0-0.104-0.089-0.322-0.265-0.66s-0.374-0.686-0.594-1.045s-0.433-0.682-0.638-0.969C57.154,39.143,57.022,39,56.964,39
			C56.803,39,56.656,39.059,56.524,39.176z"/>
		<path d="M66.348,42.883c0.007-0.096,0.047-0.217,0.12-0.363v-2.596c0-0.205,0.081-0.371,0.242-0.496
			c0.161-0.123,0.338-0.186,0.528-0.186c0.088,0,0.187,0.01,0.297,0.031c0.11,0.023,0.201,0.07,0.275,0.145
			c0.103,0.117,0.161,0.26,0.176,0.428c0.015,0.17,0.065,0.313,0.154,0.43c0.19,0.264,0.377,0.518,0.561,0.76
			c0.184,0.24,0.385,0.453,0.605,0.637c0.22,0.184,0.465,0.33,0.736,0.439c0.271,0.111,0.583,0.166,0.936,0.166
			c0.308,0,0.619-0.033,0.935-0.1s0.602-0.172,0.858-0.318c0.256-0.146,0.469-0.342,0.638-0.584c0.169-0.24,0.253-0.539,0.253-0.891
			c0-0.248-0.04-0.447-0.121-0.594s-0.245-0.271-0.495-0.373c-0.454-0.146-0.932-0.25-1.43-0.309
			c-0.499-0.059-0.99-0.117-1.474-0.176c-0.484-0.059-0.95-0.139-1.397-0.242s-0.836-0.271-1.166-0.506s-0.594-0.557-0.792-0.969
			c-0.198-0.41-0.297-0.953-0.297-1.627c0-0.777,0.187-1.395,0.561-1.848c0.374-0.455,0.913-0.83,1.617-1.123
			c0.161-0.072,0.334-0.135,0.518-0.188c0.183-0.051,0.37-0.076,0.561-0.076h0.198c0.528,0.074,1.066,0.188,1.617,0.34
			c0.55,0.154,1.045,0.387,1.484,0.693c0.103-0.072,0.188-0.16,0.253-0.264c0.066-0.102,0.133-0.197,0.198-0.285
			c0.066-0.088,0.144-0.162,0.231-0.221s0.205-0.088,0.352-0.088c0.205,0,0.393,0.076,0.562,0.23
			c0.168,0.154,0.245,0.334,0.23,0.539c0,0.088,0.004,0.246,0.011,0.473c0.008,0.229,0.015,0.471,0.022,0.727
			c0.007,0.258,0.019,0.498,0.033,0.727c0.015,0.227,0.021,0.385,0.021,0.473v0.264c0,0.264-0.077,0.531-0.23,0.803
			c-0.154,0.271-0.386,0.408-0.693,0.408c-0.264,0-0.473-0.117-0.627-0.354c-0.154-0.234-0.297-0.502-0.429-0.803
			c-0.132-0.299-0.286-0.59-0.462-0.869c-0.177-0.277-0.426-0.461-0.748-0.549c-0.206-0.059-0.363-0.1-0.474-0.121
			c-0.109-0.021-0.216-0.041-0.318-0.055c-0.104-0.016-0.213-0.023-0.33-0.023c-0.118,0-0.279,0-0.484,0
			c-0.059,0-0.19,0.004-0.396,0.012c-0.206,0.008-0.345,0.012-0.418,0.012c-0.133,0.043-0.265,0.109-0.396,0.197
			s-0.253,0.195-0.363,0.318c-0.109,0.125-0.197,0.262-0.264,0.408s-0.099,0.285-0.099,0.418c0,0.338,0.084,0.594,0.253,0.77
			c0.168,0.176,0.399,0.301,0.692,0.375c0.821-0.029,1.657,0.029,2.509,0.176c0.85,0.146,1.649,0.373,2.397,0.682
			c0.382,0.352,0.708,0.758,0.979,1.221c0.271,0.463,0.406,0.965,0.406,1.508c0,0.557-0.117,1.07-0.352,1.539
			s-0.547,0.877-0.935,1.221c-0.39,0.346-0.829,0.613-1.32,0.803c-0.492,0.191-1.001,0.287-1.529,0.287
			c-0.088,0-0.205-0.004-0.352-0.012c-0.147-0.008-0.228-0.012-0.242-0.012c-0.029,0-0.092-0.01-0.188-0.031
			c-0.095-0.023-0.197-0.049-0.308-0.078s-0.217-0.059-0.319-0.088s-0.176-0.051-0.22-0.066c-0.264-0.072-0.499-0.215-0.704-0.428
			s-0.433-0.385-0.682-0.518c-0.088,0.043-0.15,0.135-0.188,0.275c-0.036,0.139-0.08,0.285-0.132,0.439s-0.14,0.289-0.264,0.406
			c-0.125,0.117-0.319,0.178-0.583,0.178c-0.323,0-0.539-0.129-0.649-0.387c-0.109-0.256-0.165-0.516-0.165-0.779
			C66.336,43.1,66.34,42.979,66.348,42.883z"/>
		<path d="M78.161,37.35c0.081-0.543,0.217-1.061,0.407-1.551c0.19-0.492,0.443-0.947,0.759-1.365s0.715-0.758,1.199-1.021
			c0.044-0.029,0.124-0.074,0.242-0.133c0.117-0.059,0.242-0.121,0.374-0.188s0.253-0.123,0.362-0.176
			c0.11-0.051,0.188-0.084,0.231-0.1c0.161-0.072,0.326-0.105,0.495-0.098c0.168,0.008,0.333,0.01,0.495,0.01
			c0.938,0,1.73,0.225,2.376,0.672c0.645,0.447,1.246,1.023,1.804,1.727c0.059,0.088,0.136,0.254,0.231,0.496
			c0.095,0.24,0.183,0.506,0.264,0.791c0.08,0.287,0.15,0.564,0.209,0.836s0.088,0.473,0.088,0.605c0,0.029-0.004,0.092-0.011,0.188
			c-0.008,0.096-0.011,0.156-0.011,0.186c-0.133,0.221-0.309,0.367-0.528,0.441c-0.22,0.072-0.447,0.131-0.682,0.176
			c-0.162,0-0.451-0.004-0.869-0.012s-0.862-0.012-1.331-0.012c-0.455,0-0.892,0.004-1.31,0.012s-0.707,0.012-0.869,0.012
			c-0.161,0-0.355,0.004-0.583,0.01c-0.228,0.008-0.45,0.016-0.671,0.023c-0.22,0.008-0.491,0.025-0.813,0.055L79.933,39
			c0,0.016-0.004,0.066-0.012,0.156c-0.007,0.088-0.011,0.146-0.011,0.176c0,0.428,0.077,0.834,0.231,1.217
			c0.153,0.385,0.366,0.721,0.638,1.008s0.59,0.516,0.957,0.686c0.366,0.17,0.77,0.256,1.21,0.256c0.044,0,0.143-0.004,0.297-0.012
			s0.253-0.012,0.297-0.012c0.205-0.16,0.44-0.273,0.704-0.34c0.265-0.066,0.491-0.18,0.683-0.342
			c0.146-0.131,0.282-0.293,0.406-0.484c0.125-0.189,0.257-0.373,0.396-0.549c0.139-0.176,0.289-0.322,0.451-0.441
			c0.161-0.117,0.358-0.176,0.594-0.176c0.22,0,0.399,0.066,0.539,0.199c0.139,0.131,0.209,0.301,0.209,0.506
			c0,0.338-0.073,0.641-0.22,0.912c-0.147,0.271-0.309,0.539-0.484,0.803c-0.44,0.639-1.02,1.094-1.738,1.369
			s-1.459,0.414-2.222,0.414c-0.748,0-1.423-0.146-2.024-0.441c-0.602-0.293-1.107-0.688-1.518-1.188
			c-0.411-0.498-0.727-1.074-0.946-1.727s-0.33-1.338-0.33-2.057C78.04,38.42,78.08,37.893,78.161,37.35z M80.108,37.041
			c0,0.045,0.029,0.066,0.088,0.066h5.082c0.029,0,0.069-0.018,0.121-0.055c0.051-0.037,0.092-0.07,0.121-0.1
			c0.015-0.029,0.021-0.08,0.021-0.154c0-0.072,0-0.125,0-0.154c0-0.352-0.088-0.648-0.264-0.891s-0.396-0.432-0.66-0.572
			c-0.264-0.139-0.554-0.242-0.869-0.307c-0.315-0.066-0.612-0.1-0.891-0.1c-0.308,0-0.624,0.041-0.946,0.121
			s-0.616,0.209-0.88,0.385s-0.484,0.4-0.66,0.672s-0.264,0.59-0.264,0.957C80.108,36.939,80.108,36.982,80.108,37.041z"/>
		<path d="M90.778,38.703c0.352-0.492,0.792-0.852,1.32-1.078c0.527-0.229,1.104-0.367,1.727-0.418
			c0.623-0.053,1.199-0.1,1.728-0.145c0.527-0.043,0.968-0.123,1.319-0.242c0.353-0.117,0.528-0.352,0.528-0.703
			c0-0.25-0.044-0.484-0.132-0.703c-0.088-0.221-0.25-0.396-0.484-0.529c-0.088-0.043-0.22-0.109-0.396-0.197
			c-0.177-0.088-0.271-0.133-0.286-0.133h-2.068c-0.117,0-0.198,0.063-0.242,0.188s-0.084,0.279-0.121,0.463
			c-0.036,0.184-0.076,0.385-0.121,0.604c-0.044,0.221-0.113,0.422-0.209,0.605c-0.095,0.184-0.234,0.338-0.418,0.463
			s-0.429,0.186-0.736,0.186c-0.47,0-0.854-0.152-1.155-0.461s-0.451-0.689-0.451-1.145c0-0.264,0.044-0.498,0.132-0.703
			s0.206-0.396,0.353-0.572s0.315-0.342,0.506-0.496s0.381-0.297,0.572-0.428c0.161-0.117,0.33-0.246,0.506-0.385
			c0.176-0.141,0.381-0.209,0.616-0.209l3.365,0.043c0.19,0,0.415,0.08,0.672,0.24c0.256,0.162,0.506,0.352,0.747,0.57
			c0.242,0.219,0.455,0.453,0.639,0.701c0.183,0.248,0.297,0.459,0.341,0.635c0.015,0.043,0.036,0.123,0.066,0.24
			c0.028,0.117,0.058,0.238,0.088,0.361c0.029,0.125,0.055,0.242,0.076,0.352c0.022,0.109,0.033,0.186,0.033,0.229v0.68
			c0,0.176,0.004,0.375,0.012,0.602c0.007,0.227-0.026,0.428-0.1,0.604v3.699c0,0.41,0.176,0.613,0.528,0.613
			c0.234,0,0.381-0.102,0.439-0.307s0.11-0.438,0.154-0.693s0.113-0.488,0.209-0.693s0.297-0.309,0.605-0.309
			c0.161,0,0.3,0.045,0.418,0.133c0.117,0.088,0.212,0.197,0.286,0.33c0.073,0.133,0.124,0.275,0.153,0.43
			c0.029,0.152,0.044,0.305,0.044,0.449c0,0.324-0.052,0.646-0.153,0.969c-0.104,0.322-0.246,0.613-0.43,0.869
			c-0.184,0.258-0.41,0.467-0.682,0.627c-0.271,0.162-0.583,0.242-0.936,0.242c-0.278,0-0.521-0.033-0.726-0.1
			s-0.433-0.18-0.682-0.34c-0.088-0.045-0.165-0.113-0.231-0.209c-0.065-0.096-0.132-0.191-0.198-0.287
			c-0.065-0.096-0.14-0.18-0.22-0.252c-0.081-0.074-0.173-0.111-0.274-0.111H97.4c-0.206,0.104-0.415,0.229-0.627,0.375
			c-0.213,0.146-0.429,0.289-0.649,0.43c-0.22,0.139-0.447,0.256-0.682,0.352c-0.235,0.096-0.477,0.143-0.727,0.143h-1.979
			c-0.161,0-0.301-0.041-0.418-0.121s-0.235-0.158-0.353-0.23c-0.602-0.352-1.037-0.789-1.309-1.309
			c-0.271-0.521-0.407-1.127-0.407-1.816C90.25,39.895,90.427,39.193,90.778,38.703z M92.032,41.199
			c0.044,0.162,0.106,0.318,0.188,0.473c0.08,0.154,0.179,0.283,0.297,0.385c0.117,0.104,0.249,0.154,0.396,0.154h2.244
			c0.015,0,0.063-0.021,0.143-0.066c0.081-0.043,0.15-0.08,0.209-0.109c0.029-0.029,0.1-0.072,0.209-0.133
			c0.11-0.057,0.18-0.094,0.21-0.109c0.542-0.365,0.909-0.748,1.1-1.145c0.19-0.395,0.286-0.908,0.286-1.539v-0.264
			c-0.015,0-0.044-0.012-0.088-0.033s-0.074-0.033-0.088-0.033c-0.016-0.014-0.03-0.021-0.045-0.021l-0.044,0.021
			c-0.044,0-0.165,0.018-0.362,0.055c-0.198,0.037-0.407,0.074-0.627,0.109c-0.221,0.037-0.43,0.074-0.627,0.111
			c-0.198,0.037-0.319,0.055-0.363,0.055c-0.353,0.059-0.708,0.104-1.067,0.133s-0.723,0.072-1.089,0.131
			c-0.19,0.016-0.359,0.133-0.506,0.352c-0.073,0.104-0.165,0.264-0.275,0.484c-0.109,0.221-0.165,0.41-0.165,0.572
			C91.966,40.898,91.988,41.037,92.032,41.199z"/>
		<path d="M107.851,38.262c-0.029-0.557,0.044-1.076,0.22-1.559v-2.438h-2.771c-0.206,0-0.371-0.104-0.495-0.307
			c-0.125-0.205-0.188-0.396-0.188-0.572c0-0.264,0.085-0.482,0.253-0.658c0.169-0.176,0.342-0.344,0.518-0.506
			c0.176-0.146,0.385-0.229,0.627-0.242c0.242-0.016,0.487-0.023,0.736-0.023c0.265,0,0.51-0.025,0.737-0.076
			c0.228-0.053,0.422-0.195,0.583-0.432c0.146-0.221,0.22-0.516,0.22-0.885s0.012-0.734,0.033-1.096
			c0.022-0.361,0.1-0.67,0.231-0.928s0.41-0.389,0.836-0.389c0.425,0,0.686,0.131,0.781,0.389c0.095,0.258,0.143,0.563,0.143,0.918
			c0,0.338-0.019,0.67-0.055,0.994c-0.037,0.326-0.056,0.664-0.056,1.018c0,0.09,0,0.223,0,0.398c0,0.178,0.008,0.273,0.022,0.287
			l0.154,0.154c0.014,0.016,0.117,0.023,0.308,0.023c0.205,0,0.366,0,0.484,0c0.308,0,0.604-0.02,0.891-0.057
			c0.286-0.035,0.575-0.055,0.869-0.055c0.337,0,0.616,0.133,0.836,0.396s0.33,0.551,0.33,0.857c0,0.295-0.092,0.547-0.275,0.76
			s-0.422,0.318-0.715,0.318c-0.366,0-0.708-0.047-1.022-0.143c-0.316-0.096-0.687-0.143-1.111-0.143
			c-0.088,0-0.217,0.004-0.385,0.01c-0.169,0.008-0.261,0.02-0.275,0.033l-0.264,0.242v6.098c0,0.117,0.04,0.25,0.121,0.396
			c0.08,0.146,0.183,0.285,0.308,0.416c0.124,0.131,0.26,0.244,0.407,0.34c0.146,0.096,0.286,0.143,0.418,0.143
			c0.352,0,0.63-0.084,0.836-0.254c0.205-0.168,0.363-0.377,0.473-0.627c0.11-0.248,0.198-0.516,0.265-0.803
			c0.065-0.285,0.135-0.553,0.209-0.803c0.073-0.248,0.176-0.457,0.308-0.627c0.132-0.168,0.322-0.252,0.572-0.252
			c0.366,0,0.623,0.131,0.77,0.395c0.146,0.266,0.22,0.551,0.22,0.859c0,0.498-0.073,1.004-0.22,1.518s-0.363,0.979-0.648,1.396
			c-0.286,0.418-0.643,0.764-1.067,1.035c-0.426,0.271-0.917,0.406-1.474,0.406c-0.221,0-0.39-0.008-0.507-0.021
			c-0.117-0.016-0.224-0.041-0.318-0.078c-0.096-0.035-0.191-0.086-0.286-0.152c-0.096-0.066-0.224-0.158-0.385-0.275
			c-0.015,0-0.059-0.018-0.132-0.055c-0.074-0.037-0.147-0.074-0.221-0.109c-0.073-0.037-0.146-0.07-0.22-0.1
			s-0.117-0.051-0.132-0.066c-0.602-0.467-0.994-0.98-1.177-1.537c-0.184-0.555-0.275-1.199-0.275-1.932
			C107.895,39.354,107.88,38.818,107.851,38.262z"/>
		<path d="M130.973,42.023c0.234-0.123,0.535-0.186,0.901-0.186c0.25,0,0.484,0.018,0.704,0.055
			c0.221,0.037,0.455,0.055,0.704,0.055c0.059,0,0.132,0,0.22,0c0.089,0,0.133-0.008,0.133-0.021l0.176-0.154l-0.044-2.42v-0.439
			v-3.873v-0.418l0.044-3.695c0-0.059-0.029-0.088-0.088-0.088c-0.059-0.059-0.118-0.088-0.176-0.088h-1.805
			c-0.337,0-0.608-0.117-0.813-0.354c-0.206-0.234-0.309-0.506-0.309-0.813c0-0.426,0.125-0.727,0.374-0.902
			s0.572-0.264,0.968-0.264c0.279,0,0.547,0.014,0.804,0.043c0.256,0.029,0.531,0.045,0.825,0.045c0.176,0,0.381,0.004,0.615,0.01
			c0.234,0.008,0.447-0.025,0.639-0.098h3.014c0.425,0.176,0.854,0.305,1.287,0.385s0.861,0.209,1.287,0.385
			c0.513,0.219,0.96,0.561,1.342,1.023c0.381,0.461,0.696,0.975,0.946,1.539c0.249,0.564,0.436,1.148,0.561,1.75
			s0.188,1.15,0.188,1.648c0,1.219-0.118,2.398-0.353,3.543s-0.638,2.252-1.21,3.322c-0.044,0.059-0.143,0.164-0.297,0.318
			s-0.261,0.254-0.319,0.297c-0.439,0.352-0.854,0.619-1.242,0.803c-0.39,0.184-0.785,0.316-1.188,0.396s-0.829,0.125-1.276,0.133
			s-0.957,0.018-1.528,0.033c-0.088,0-0.224,0.006-0.407,0.021c-0.184,0.014-0.367,0.025-0.55,0.033
			c-0.184,0.008-0.349,0.014-0.495,0.021s-0.242,0.012-0.286,0.012c-0.029,0-0.11,0.014-0.242,0.043s-0.268,0.059-0.407,0.088
			s-0.271,0.059-0.396,0.088c-0.125,0.029-0.202,0.045-0.231,0.045h-0.374c-0.234,0-0.473-0.025-0.715-0.078
			c-0.242-0.051-0.462-0.135-0.66-0.252c-0.197-0.117-0.359-0.271-0.483-0.463c-0.125-0.189-0.188-0.424-0.188-0.703
			C130.62,42.424,130.737,42.148,130.973,42.023z M135.9,41.75c0.073,0.043,0.154,0.08,0.242,0.109s0.176,0.051,0.264,0.066
			c0.088,0.014,0.154,0.021,0.198,0.021c0.439,0,0.898-0.018,1.375-0.055s0.92-0.137,1.331-0.297
			c0.513-0.205,0.92-0.547,1.221-1.023s0.528-1.004,0.683-1.584c0.153-0.58,0.249-1.17,0.285-1.771
			c0.037-0.602,0.056-1.137,0.056-1.605c0-0.939-0.096-1.727-0.286-2.365c-0.191-0.639-0.495-1.146-0.913-1.529
			c-0.418-0.381-0.954-0.656-1.606-0.824s-1.448-0.254-2.387-0.254c-0.059,0-0.19,0.008-0.396,0.023l-0.11,0.176v3.432l-0.022,0.439
			l-0.044,6.887C135.79,41.654,135.827,41.705,135.9,41.75z"/>
		<path d="M146.516,42.299c0.228-0.189,0.51-0.285,0.847-0.285c0.206,0,0.407,0.018,0.605,0.055s0.407,0.055,0.627,0.055
			c0.059,0,0.143-0.004,0.253-0.012c0.11-0.006,0.172-0.01,0.188-0.01l0.088-0.088c0-0.059,0.003-0.154,0.011-0.287
			c0.007-0.131,0.015-0.273,0.022-0.428c0.007-0.154,0.018-0.301,0.032-0.441c0.015-0.139,0.022-0.238,0.022-0.297
			c0-0.029,0.011-0.102,0.033-0.219c0.021-0.117,0.04-0.191,0.055-0.221l-0.044-2.156v-0.418l-0.132-2.596l-0.176-0.176
			c-0.074,0-0.198-0.004-0.374-0.012c-0.177-0.006-0.367-0.014-0.572-0.021c-0.206-0.008-0.396-0.018-0.572-0.033
			c-0.176-0.014-0.301-0.021-0.374-0.021c-0.294-0.029-0.539-0.143-0.737-0.342c-0.197-0.197-0.297-0.443-0.297-0.736
			s0.088-0.547,0.265-0.76c0.176-0.211,0.418-0.318,0.726-0.318c0.015,0,0.036,0,0.066,0c0.044,0,0.065,0.008,0.065,0.021
			c0.234,0.029,0.524,0.033,0.869,0.012s0.693-0.025,1.045-0.012c0.353,0.016,0.683,0.063,0.99,0.143
			c0.308,0.082,0.542,0.232,0.704,0.451c0.029,0.031,0.059,0.092,0.088,0.188s0.063,0.195,0.099,0.297
			c0.037,0.104,0.081,0.191,0.132,0.264c0.052,0.074,0.106,0.111,0.165,0.111h0.044c0.455-0.367,0.942-0.705,1.464-1.012
			c0.521-0.309,1.081-0.463,1.683-0.463c0.366,0,0.723,0.063,1.067,0.188c0.344,0.125,0.641,0.297,0.891,0.516
			c0.249,0.221,0.451,0.488,0.604,0.805c0.154,0.314,0.231,0.662,0.231,1.045c0,0.543-0.129,1.004-0.385,1.385
			c-0.257,0.383-0.693,0.572-1.31,0.572c-0.293,0-0.527-0.092-0.704-0.275c-0.176-0.184-0.315-0.406-0.418-0.67
			s-0.172-0.539-0.209-0.826c-0.036-0.285-0.063-0.531-0.076-0.736c-0.016-0.072-0.06-0.109-0.133-0.109s-0.124,0-0.153,0
			c-0.074,0-0.144,0.004-0.209,0.01c-0.066,0.008-0.129,0.041-0.188,0.1c-0.059,0.045-0.153,0.133-0.286,0.264
			c-0.132,0.133-0.271,0.271-0.418,0.418s-0.286,0.287-0.418,0.418c-0.132,0.133-0.22,0.221-0.264,0.264
			c-0.059,0.059-0.143,0.158-0.253,0.297c-0.11,0.141-0.217,0.291-0.319,0.451c-0.103,0.162-0.19,0.32-0.264,0.475
			c-0.073,0.152-0.11,0.268-0.11,0.34v2.486c0.015,0.029,0.033,0.104,0.056,0.221c0.021,0.117,0.032,0.189,0.032,0.219
			c0,0.045,0.008,0.133,0.022,0.264c0.015,0.133,0.025,0.271,0.033,0.418c0.007,0.148,0.014,0.287,0.021,0.418
			c0.008,0.133,0.011,0.229,0.011,0.287c0.059,0.162,0.146,0.256,0.265,0.285c0.117,0.029,0.256,0.045,0.418,0.045
			c0.161,0,0.326-0.016,0.495-0.045c0.168-0.029,0.333-0.043,0.495-0.043c0.337,0,0.645,0.092,0.924,0.275
			c0.278,0.184,0.418,0.449,0.418,0.803c0,0.293-0.066,0.523-0.198,0.693c-0.132,0.168-0.305,0.293-0.517,0.373
			c-0.213,0.08-0.444,0.133-0.693,0.154c-0.25,0.021-0.484,0.033-0.704,0.033c-0.249,0-0.495-0.016-0.737-0.045
			c-0.241-0.029-0.487-0.043-0.736-0.043c-0.118,0-0.217,0.004-0.297,0.01c-0.081,0.008-0.195,0.033-0.342,0.078h-2.508
			c-0.352,0-0.671-0.117-0.957-0.352c-0.286-0.236-0.429-0.537-0.429-0.902C146.175,42.754,146.288,42.49,146.516,42.299z"/>
		<path d="M160.045,42.385c0.169-0.291,0.43-0.438,0.781-0.438h2.42l0.154-0.219c0-0.059,0.003-0.16,0.011-0.307
			c0.008-0.145,0.019-0.299,0.033-0.459s0.025-0.313,0.033-0.459c0.007-0.145,0.011-0.248,0.011-0.307
			c0.015-0.027,0.029-0.102,0.044-0.217c0.015-0.117,0.029-0.189,0.044-0.219V34.93h-2.574c-0.146,0-0.274-0.041-0.385-0.123
			s-0.202-0.184-0.275-0.303c-0.073-0.121-0.128-0.252-0.164-0.395c-0.037-0.141-0.056-0.271-0.056-0.393
			c0-0.238,0.059-0.426,0.176-0.561s0.261-0.234,0.43-0.303c0.168-0.066,0.352-0.111,0.55-0.135
			c0.198-0.021,0.377-0.033,0.539-0.033c0.249,0,0.495,0.014,0.737,0.043c0.241,0.029,0.487,0.045,0.736,0.045
			c0.176,0,0.349-0.016,0.518-0.045c0.168-0.029,0.341-0.043,0.517-0.043c0.249,0,0.51,0.08,0.781,0.242
			c0.271,0.16,0.407,0.395,0.407,0.703v8.184l0.132,0.133h2.332c0.132,0,0.253,0.049,0.362,0.146
			c0.11,0.098,0.206,0.213,0.286,0.348c0.081,0.135,0.14,0.277,0.176,0.426c0.037,0.15,0.056,0.277,0.056,0.381
			c0,0.211-0.056,0.42-0.165,0.629c-0.11,0.209-0.29,0.314-0.539,0.314h-7.502c-0.264,0-0.473-0.09-0.627-0.27
			s-0.231-0.396-0.231-0.65C159.792,42.973,159.877,42.676,160.045,42.385z M163.137,28.945c0.278-0.293,0.638-0.439,1.077-0.439
			c0.234,0,0.451,0.055,0.649,0.164s0.366,0.258,0.506,0.439c0.14,0.184,0.249,0.387,0.33,0.605c0.08,0.221,0.121,0.439,0.121,0.66
			c0,0.439-0.161,0.789-0.484,1.045c-0.322,0.258-0.689,0.385-1.1,0.385c-0.499,0-0.877-0.176-1.133-0.527
			c-0.257-0.352-0.385-0.77-0.385-1.254C162.719,29.598,162.857,29.238,163.137,28.945z"/>
		<path d="M172.267,34.643c-0.338-0.059-0.624-0.242-0.858-0.549v-0.396c0-0.234,0.052-0.43,0.154-0.584
			c0.103-0.152,0.238-0.273,0.407-0.361c0.168-0.088,0.355-0.146,0.561-0.176s0.418-0.045,0.639-0.045h0.22
			c0.029,0,0.103,0.016,0.22,0.045s0.242,0.059,0.374,0.088s0.261,0.059,0.385,0.088c0.125,0.029,0.202,0.043,0.231,0.043h0.044
			c0.205,0,0.407-0.014,0.604-0.043c0.198-0.029,0.399-0.045,0.605-0.045c0.161,0,0.33,0.008,0.506,0.021
			c0.176,0.016,0.337,0.057,0.484,0.121c0.146,0.066,0.268,0.162,0.362,0.287c0.096,0.125,0.144,0.297,0.144,0.516
			c0,0.279-0.1,0.467-0.297,0.563c-0.198,0.096-0.418,0.164-0.66,0.209c-0.242,0.043-0.462,0.092-0.66,0.143
			s-0.297,0.164-0.297,0.34c0,0.207,0.044,0.445,0.132,0.717s0.188,0.545,0.297,0.824c0.11,0.279,0.224,0.555,0.341,0.824
			c0.117,0.271,0.213,0.504,0.286,0.693c0.117,0.383,0.221,0.74,0.309,1.078s0.212,0.689,0.374,1.057
			c0.044,0.088,0.095,0.197,0.153,0.33c0.059,0.131,0.121,0.264,0.188,0.396c0.065,0.131,0.15,0.293,0.253,0.482l0.088,0.088
			c0.044-0.029,0.136-0.193,0.275-0.494c0.139-0.301,0.293-0.674,0.462-1.123c0.168-0.447,0.348-0.934,0.539-1.463
			c0.19-0.527,0.366-1.025,0.527-1.496c0.161-0.469,0.294-0.871,0.396-1.209s0.153-0.543,0.153-0.615
			c0-0.029-0.003-0.082-0.011-0.154c-0.008-0.074-0.011-0.125-0.011-0.154c-0.103-0.162-0.253-0.264-0.451-0.309
			c-0.198-0.043-0.393-0.084-0.583-0.121c-0.19-0.035-0.355-0.098-0.495-0.188c-0.14-0.088-0.209-0.256-0.209-0.506
			c0-0.336,0.129-0.578,0.385-0.725c0.257-0.146,0.539-0.221,0.848-0.221h0.242c0.103,0,0.274,0.004,0.517,0.012
			s0.502,0.018,0.781,0.033c0.278,0.014,0.539,0.025,0.781,0.031c0.241,0.008,0.414,0.012,0.517,0.012
			c0.19,0.045,0.377,0.084,0.561,0.121s0.349,0.092,0.495,0.166c0.146,0.072,0.268,0.176,0.363,0.307
			c0.095,0.133,0.143,0.309,0.143,0.529c0,0.219-0.069,0.381-0.209,0.482c-0.14,0.104-0.304,0.176-0.494,0.221
			c-0.191,0.045-0.396,0.066-0.616,0.066c-0.206,0-0.374,0-0.506,0c-0.089,0.059-0.165,0.162-0.231,0.307
			c-0.066,0.148-0.129,0.309-0.187,0.484c-0.06,0.176-0.118,0.35-0.177,0.518s-0.117,0.305-0.176,0.406
			c-0.382,1.248-0.785,2.482-1.21,3.707c-0.426,1.225-0.829,2.461-1.21,3.707c-0.044,0.207-0.184,0.385-0.418,0.539
			s-0.455,0.232-0.66,0.232s-0.433-0.053-0.682-0.154c-0.25-0.104-0.433-0.25-0.55-0.441c-0.25-0.41-0.451-0.887-0.605-1.43
			c-0.154-0.541-0.297-1.012-0.429-1.408c-0.015-0.043-0.048-0.131-0.1-0.264c-0.051-0.131-0.103-0.271-0.153-0.418
			c-0.052-0.146-0.106-0.285-0.165-0.418c-0.059-0.131-0.096-0.227-0.11-0.285c0-0.016-0.019-0.063-0.055-0.143
			c-0.037-0.082-0.074-0.166-0.11-0.254c-0.037-0.088-0.073-0.168-0.11-0.242c-0.036-0.072-0.063-0.117-0.076-0.131
			c-0.015-0.045-0.048-0.146-0.1-0.309s-0.103-0.334-0.153-0.518c-0.052-0.184-0.104-0.355-0.154-0.518
			c-0.052-0.16-0.085-0.264-0.099-0.307c-0.147-0.41-0.29-0.818-0.43-1.221c-0.14-0.404-0.312-0.797-0.517-1.178
			c0-0.059-0.029-0.088-0.088-0.088C172.948,34.746,172.604,34.701,172.267,34.643z"/>
		<path d="M186.753,37.35c0.081-0.543,0.217-1.061,0.407-1.551c0.19-0.492,0.443-0.947,0.759-1.365s0.715-0.758,1.199-1.021
			c0.044-0.029,0.124-0.074,0.242-0.133c0.117-0.059,0.242-0.121,0.374-0.188s0.253-0.123,0.362-0.176
			c0.11-0.051,0.188-0.084,0.231-0.1c0.161-0.072,0.326-0.105,0.495-0.098c0.168,0.008,0.333,0.01,0.495,0.01
			c0.938,0,1.73,0.225,2.376,0.672c0.645,0.447,1.246,1.023,1.804,1.727c0.059,0.088,0.136,0.254,0.231,0.496
			c0.095,0.24,0.183,0.506,0.264,0.791c0.08,0.287,0.15,0.564,0.209,0.836s0.088,0.473,0.088,0.605c0,0.029-0.004,0.092-0.011,0.188
			c-0.008,0.096-0.011,0.156-0.011,0.186c-0.133,0.221-0.309,0.367-0.528,0.441c-0.22,0.072-0.447,0.131-0.682,0.176
			c-0.162,0-0.451-0.004-0.869-0.012s-0.862-0.012-1.331-0.012c-0.455,0-0.892,0.004-1.31,0.012s-0.707,0.012-0.869,0.012
			c-0.161,0-0.355,0.004-0.583,0.01c-0.228,0.008-0.45,0.016-0.671,0.023c-0.22,0.008-0.491,0.025-0.813,0.055L188.524,39
			c0,0.016-0.004,0.066-0.012,0.156c-0.007,0.088-0.011,0.146-0.011,0.176c0,0.428,0.077,0.834,0.231,1.217
			c0.153,0.385,0.366,0.721,0.638,1.008s0.59,0.516,0.957,0.686c0.366,0.17,0.77,0.256,1.21,0.256c0.044,0,0.143-0.004,0.297-0.012
			s0.253-0.012,0.297-0.012c0.205-0.16,0.44-0.273,0.704-0.34c0.265-0.066,0.491-0.18,0.683-0.342
			c0.146-0.131,0.282-0.293,0.406-0.484c0.125-0.189,0.257-0.373,0.396-0.549c0.139-0.176,0.289-0.322,0.451-0.441
			c0.161-0.117,0.358-0.176,0.594-0.176c0.22,0,0.399,0.066,0.539,0.199c0.139,0.131,0.209,0.301,0.209,0.506
			c0,0.338-0.073,0.641-0.22,0.912c-0.147,0.271-0.309,0.539-0.484,0.803c-0.44,0.639-1.02,1.094-1.738,1.369
			s-1.459,0.414-2.222,0.414c-0.748,0-1.423-0.146-2.024-0.441c-0.602-0.293-1.107-0.688-1.518-1.188
			c-0.411-0.498-0.727-1.074-0.946-1.727s-0.33-1.338-0.33-2.057C186.632,38.42,186.672,37.893,186.753,37.35z M188.7,37.041
			c0,0.045,0.029,0.066,0.088,0.066h5.082c0.029,0,0.069-0.018,0.121-0.055c0.051-0.037,0.092-0.07,0.121-0.1
			c0.015-0.029,0.021-0.08,0.021-0.154c0-0.072,0-0.125,0-0.154c0-0.352-0.088-0.648-0.264-0.891s-0.396-0.432-0.66-0.572
			c-0.264-0.139-0.554-0.242-0.869-0.307c-0.315-0.066-0.612-0.1-0.891-0.1c-0.308,0-0.624,0.041-0.946,0.121
			s-0.616,0.209-0.88,0.385s-0.484,0.4-0.66,0.672s-0.264,0.59-0.264,0.957C188.7,36.939,188.7,36.982,188.7,37.041z"/>
		<path d="M199.337,42.299c0.228-0.189,0.51-0.285,0.847-0.285c0.206,0,0.407,0.018,0.605,0.055s0.407,0.055,0.627,0.055
			c0.059,0,0.143-0.004,0.253-0.012c0.11-0.006,0.172-0.01,0.188-0.01l0.088-0.088c0-0.059,0.003-0.154,0.011-0.287
			c0.007-0.131,0.015-0.273,0.022-0.428c0.007-0.154,0.018-0.301,0.032-0.441c0.015-0.139,0.022-0.238,0.022-0.297
			c0-0.029,0.011-0.102,0.033-0.219c0.021-0.117,0.04-0.191,0.055-0.221l-0.044-2.156v-0.418l-0.132-2.596l-0.176-0.176
			c-0.074,0-0.198-0.004-0.374-0.012c-0.177-0.006-0.367-0.014-0.572-0.021c-0.206-0.008-0.396-0.018-0.572-0.033
			c-0.176-0.014-0.301-0.021-0.374-0.021c-0.294-0.029-0.539-0.143-0.737-0.342c-0.197-0.197-0.297-0.443-0.297-0.736
			s0.088-0.547,0.265-0.76c0.176-0.211,0.418-0.318,0.726-0.318c0.015,0,0.036,0,0.066,0c0.044,0,0.065,0.008,0.065,0.021
			c0.234,0.029,0.524,0.033,0.869,0.012s0.693-0.025,1.045-0.012c0.353,0.016,0.683,0.063,0.99,0.143
			c0.308,0.082,0.542,0.232,0.704,0.451c0.029,0.031,0.059,0.092,0.088,0.188s0.063,0.195,0.099,0.297
			c0.037,0.104,0.081,0.191,0.132,0.264c0.052,0.074,0.106,0.111,0.165,0.111h0.044c0.455-0.367,0.942-0.705,1.464-1.012
			c0.521-0.309,1.081-0.463,1.683-0.463c0.366,0,0.723,0.063,1.067,0.188c0.344,0.125,0.641,0.297,0.891,0.516
			c0.249,0.221,0.451,0.488,0.604,0.805c0.154,0.314,0.231,0.662,0.231,1.045c0,0.543-0.129,1.004-0.385,1.385
			c-0.257,0.383-0.693,0.572-1.31,0.572c-0.293,0-0.527-0.092-0.704-0.275c-0.176-0.184-0.315-0.406-0.418-0.67
			s-0.172-0.539-0.209-0.826c-0.036-0.285-0.063-0.531-0.076-0.736c-0.016-0.072-0.06-0.109-0.133-0.109s-0.124,0-0.153,0
			c-0.074,0-0.144,0.004-0.209,0.01c-0.066,0.008-0.129,0.041-0.188,0.1c-0.059,0.045-0.153,0.133-0.286,0.264
			c-0.132,0.133-0.271,0.271-0.418,0.418s-0.286,0.287-0.418,0.418c-0.132,0.133-0.22,0.221-0.264,0.264
			c-0.059,0.059-0.143,0.158-0.253,0.297c-0.11,0.141-0.217,0.291-0.319,0.451c-0.103,0.162-0.19,0.32-0.264,0.475
			c-0.073,0.152-0.11,0.268-0.11,0.34v2.486c0.015,0.029,0.033,0.104,0.056,0.221c0.021,0.117,0.032,0.189,0.032,0.219
			c0,0.045,0.008,0.133,0.022,0.264c0.015,0.133,0.025,0.271,0.033,0.418c0.007,0.148,0.014,0.287,0.021,0.418
			c0.008,0.133,0.011,0.229,0.011,0.287c0.059,0.162,0.146,0.256,0.265,0.285c0.117,0.029,0.256,0.045,0.418,0.045
			c0.161,0,0.326-0.016,0.495-0.045c0.168-0.029,0.333-0.043,0.495-0.043c0.337,0,0.645,0.092,0.924,0.275
			c0.278,0.184,0.418,0.449,0.418,0.803c0,0.293-0.066,0.523-0.198,0.693c-0.132,0.168-0.305,0.293-0.517,0.373
			c-0.213,0.08-0.444,0.133-0.693,0.154c-0.25,0.021-0.484,0.033-0.704,0.033c-0.249,0-0.495-0.016-0.737-0.045
			c-0.241-0.029-0.487-0.043-0.736-0.043c-0.118,0-0.217,0.004-0.297,0.01c-0.081,0.008-0.195,0.033-0.342,0.078h-2.508
			c-0.352,0-0.671-0.117-0.957-0.352c-0.286-0.236-0.429-0.537-0.429-0.902C198.996,42.754,199.109,42.49,199.337,42.299z"/>
	</g>
</g>
<g id="BAtman">
</g>
<g id="bodyguard">
</g>
<g id="BuckleUp">
</g>
<g id="RockPaperScissors">
</g>
<g id="Roger_Roger">
</g>
<g id="RoyaleWe">
</g>
<g id="Skip">
</g>
<g id="SwineRules">
</g>
<g id="Touchy_Feeley">
</g>
<g id="Wasted_Education">
</g>
<g id="Layer_86">
</g>
<g id="PointOfNoReturn">
</g>
<g id="Pirate">
</g>
<g id="Thief">
</g>
<g id="DepthPerception">
</g>
<g id="Narcissist">
</g>
<g id="MammaBird">
</g>
<g id="Staringcontest">
</g>
<g id="Cartwheel">
</g>
<g id="Censored">
</g>
<g id="Depersonalization">
</g>
<g id="threeman">
</g>
<g id="_x32__truths_and_a_lie">
</g>
<g id="cray_cray_cat_lady">
</g>
<g id="siblings">
</g>
<g id="later">
</g>
<g id="waterfall">
</g>
<g id="cheers">
</g>
<g id="rhyme">
</g>
<g id="categories">
</g>
<g id="tits">
</g>
<g id="dicks">
</g>
<g id="questions">
</g>
<g id="double_hands">
</g>
<g id="take_2">
</g>
<g id="take_3">
</g>
<g id="give_3">
</g>
<g id="give_2">
</g>
<g id="rewind">
</g>
<g id="Cryptkeeper">
</g>
<g id="Take_2_and_Redo">
</g>
<g id="Embryo">
</g>
<g id="I_am_Groot">
</g>
<g id="Mini_Me">
</g>
<g id="Ditto_1_">
</g>
<g id="reverse">
</g>
</svg>
