<?xml version="1.0" encoding="utf-8"?>
<!-- Generator: Adobe Illustrator 16.0.0, SVG Export Plug-In . SVG Version: 6.00 Build 0)  -->
<!DOCTYPE svg PUBLIC "-//W3C//DTD SVG 1.1//EN" "http://www.w3.org/Graphics/SVG/1.1/DTD/svg11.dtd">
<svg version="1.1" xmlns="http://www.w3.org/2000/svg" xmlns:xlink="http://www.w3.org/1999/xlink" x="0px" y="0px"
	 width="209.759px" height="62.361px" viewBox="0 0 209.759 62.361" enable-background="new 0 0 209.759 62.361"
	 xml:space="preserve">
<g id="Layer_1">
</g>
<g id="Blindman">
</g>
<g id="Compliments">
</g>
<g id="HAT">
</g>
<g id="speech">
</g>
<g id="TREX_ARMS">
</g>
<g id="slim_shady">
</g>
<g id="TIMEOUT">
</g>
<g id="Truth_or_Dare">
</g>
<g id="ARM_WRESTLE">
</g>
<g id="musical_chairs">
</g>
<g id="never_have_i_ever">
</g>
<g id="Trivia">
</g>
<g id="Drink_Pulling">
</g>
<g id="Sharing_is_Caring">
</g>
<g id="Not_It">
</g>
<g id="Cocktail_of_Doom">
</g>
<g id="Heads_up">
</g>
<g id="Archenemy">
</g>
<g id="battle_of_the_sexes">
</g>
<g id="one_must_drink">
</g>
<g id="rainbow_connection">
</g>
<g id="social_drinking">
</g>
<g id="Spin_the_bottle">
</g>
<g id="accents">
</g>
<g id="Slap">
</g>
<g id="down_the_hatch">
</g>
<g id="rubiks_cube">
</g>
<g id="bar_tender">
</g>
<g id="codenames">
</g>
<g id="hand_switch">
</g>
<g id="make_a_rule">
</g>
<g id="no_guts_no_glory">
</g>
<g id="pass">
</g>
<g id="santa">
</g>
<g id="snake_eyes">
</g>
<g id="lightning_round">
</g>
<g id="Bro">
</g>
<g id="LeastDrunk">
</g>
<g id="Know_It_All">
</g>
<g id="EyeContact">
</g>
<g id="UnderGuesser">
</g>
<g id="GodSaveTheQUeen">
</g>
<g id="Ghost">
</g>
<g id="Fortune_Teller">
</g>
<g id="DrinkSwap">
</g>
<g id="DickTator">
</g>
<g id="_x34_Eyes">
</g>
<g id="BabyTalk">
</g>
<g id="Backseat_Driver">
</g>
<g id="BAtman">
</g>
<g id="bodyguard">
</g>
<g id="BuckleUp">
</g>
<g id="RockPaperScissors">
</g>
<g id="Roger_Roger">
	<g>
		<path d="M26.885,41.282c-0.008-0.418-0.041-0.836-0.1-1.254s-0.15-0.824-0.274-1.221c-0.125-0.396-0.29-0.77-0.495-1.123
			c-0.104-0.16-0.202-0.344-0.297-0.549c-0.096-0.205-0.225-0.367-0.386-0.484c-0.205-0.043-0.381-0.08-0.527-0.109
			c-0.147-0.029-0.29-0.049-0.43-0.055c-0.14-0.008-0.282-0.012-0.429-0.012c-0.132,0-0.294,0-0.484,0h-0.813
			c-0.088,0-0.22,0.012-0.396,0.033c-0.176,0.021-0.271,0.041-0.285,0.055l-0.089,0.088v4.137c0,0.131,0.133,0.23,0.396,0.297
			s0.55,0.143,0.858,0.23c0.308,0.088,0.594,0.217,0.857,0.385c0.264,0.17,0.396,0.438,0.396,0.803c0,0.234-0.063,0.418-0.188,0.551
			c-0.125,0.131-0.278,0.234-0.462,0.309c-0.184,0.072-0.382,0.121-0.594,0.143c-0.213,0.021-0.407,0.033-0.583,0.033h-0.242
			c-0.132,0-0.363-0.004-0.693-0.012s-0.678-0.014-1.045-0.021c-0.366-0.008-0.711-0.02-1.034-0.033
			c-0.322-0.014-0.55-0.021-0.682-0.021c-0.146,0.014-0.282-0.02-0.407-0.1c-0.124-0.08-0.234-0.188-0.33-0.318
			c-0.095-0.133-0.168-0.271-0.22-0.418s-0.077-0.287-0.077-0.418c0-0.279,0.066-0.496,0.198-0.65s0.301-0.268,0.506-0.34
			c0.205-0.074,0.429-0.117,0.671-0.133c0.242-0.014,0.474-0.021,0.693-0.021c0.029-0.029,0.065-0.074,0.11-0.133
			c0.044-0.059,0.065-0.102,0.065-0.131l-0.044-4.906v-0.439l-0.132-5.17l-0.176-0.178l-1.387-0.33
			c-0.19-0.057-0.308-0.186-0.352-0.385c-0.044-0.197-0.066-0.369-0.066-0.516c0-0.234,0.059-0.467,0.177-0.693
			c0.117-0.229,0.314-0.342,0.594-0.342h3.366c0.161-0.088,0.308-0.135,0.439-0.143s0.278-0.012,0.44-0.012
			c0.763,0,1.528,0.053,2.299,0.154c0.77,0.104,1.463,0.309,2.079,0.617c0.616,0.307,1.114,0.752,1.496,1.33
			c0.381,0.58,0.571,1.346,0.571,2.299c0,0.41-0.036,0.848-0.109,1.309c-0.073,0.463-0.242,0.863-0.506,1.199
			c-0.088,0.117-0.202,0.229-0.341,0.33c-0.14,0.104-0.275,0.205-0.407,0.309s-0.242,0.217-0.33,0.34
			c-0.088,0.125-0.132,0.275-0.132,0.451v0.199c0.293,0.455,0.523,0.965,0.692,1.529s0.312,1.088,0.43,1.572
			c0.044,0.176,0.069,0.406,0.076,0.693c0.008,0.285,0.07,0.518,0.188,0.693c0.103,0.16,0.228,0.271,0.374,0.33
			s0.293,0.109,0.439,0.152c0.146,0.045,0.294,0.104,0.44,0.178c0.146,0.072,0.271,0.197,0.374,0.373
			c0.132,0.205,0.213,0.346,0.242,0.418c0.029,0.074,0.044,0.205,0.044,0.396c0,0.25-0.081,0.49-0.242,0.727
			c-0.161,0.234-0.389,0.352-0.682,0.352h-0.044c-0.265-0.045-0.558-0.063-0.88-0.055c-0.323,0.006-0.631-0.008-0.925-0.045
			c-0.293-0.037-0.554-0.129-0.78-0.275c-0.228-0.146-0.371-0.395-0.43-0.748C26.888,42.108,26.892,41.7,26.885,41.282z
			 M22.077,30.03c-0.132,0.043-0.198,0.123-0.198,0.242v3.783c0,0.043,0.022,0.117,0.066,0.221c0.044,0.102,0.08,0.176,0.11,0.219
			h0.506c0.19,0,0.374-0.014,0.55-0.043s0.352-0.045,0.528-0.045c0.22,0,0.432,0.016,0.638,0.045
			c0.205,0.029,0.425,0.043,0.66,0.043h0.726c0.528-0.16,0.965-0.414,1.31-0.758c0.344-0.346,0.517-0.805,0.517-1.375
			c0-0.338-0.044-0.672-0.132-1.002s-0.279-0.605-0.572-0.824c-0.558-0.25-1.144-0.414-1.76-0.496
			c-0.616-0.08-1.232-0.121-1.848-0.121c-0.074,0-0.206,0-0.396,0s-0.322,0.008-0.396,0.023
			C22.312,29.956,22.209,29.985,22.077,30.03z"/>
		<path d="M33.704,35.661c0.198-0.777,0.51-1.467,0.936-2.068c0.425-0.6,0.972-1.08,1.639-1.439s1.463-0.539,2.387-0.539
			c0.704,0,1.313,0.135,1.826,0.406s1.026,0.627,1.54,1.066c0.015,0.016,0.029,0.033,0.044,0.055
			c0.015,0.023,0.029,0.033,0.044,0.033c0.177,0.338,0.355,0.672,0.539,1.002s0.353,0.668,0.506,1.012
			c0.154,0.346,0.279,0.697,0.374,1.057c0.096,0.359,0.144,0.729,0.144,1.111c0,0.043-0.004,0.127-0.011,0.252
			c-0.008,0.125-0.012,0.201-0.012,0.23c-0.029,0.088-0.069,0.246-0.121,0.473c-0.051,0.229-0.109,0.471-0.176,0.727
			c-0.065,0.258-0.128,0.504-0.187,0.738s-0.096,0.395-0.11,0.482c-0.117,0.396-0.319,0.814-0.604,1.254
			c-0.286,0.441-0.62,0.84-1.001,1.199c-0.382,0.359-0.796,0.656-1.243,0.891c-0.448,0.236-0.892,0.354-1.331,0.354
			c-0.221,0-0.389-0.016-0.506-0.045c-0.118-0.029-0.217-0.066-0.298-0.109c-0.08-0.045-0.164-0.092-0.253-0.143
			c-0.088-0.053-0.212-0.1-0.374-0.145c-0.073-0.014-0.212-0.035-0.418-0.064c-0.205-0.029-0.352-0.059-0.439-0.088
			c-0.073-0.029-0.173-0.078-0.297-0.145c-0.125-0.064-0.25-0.131-0.374-0.197c-0.125-0.066-0.242-0.125-0.353-0.176
			c-0.109-0.051-0.172-0.084-0.187-0.1c-0.294-0.189-0.562-0.484-0.803-0.879c-0.242-0.396-0.451-0.822-0.628-1.277
			c-0.176-0.453-0.312-0.908-0.406-1.363c-0.096-0.455-0.144-0.844-0.144-1.166C33.407,37.237,33.507,36.438,33.704,35.661z
			 M35.332,38.565c0.022,0.205,0.056,0.41,0.1,0.615c0.044,0.207,0.099,0.4,0.165,0.584c0.065,0.184,0.143,0.318,0.23,0.406
			l1.034,1.035c0.161,0.043,0.29,0.072,0.385,0.088c0.096,0.014,0.194,0.029,0.298,0.043c0.102,0.016,0.19,0.023,0.264,0.023
			c0.015,0.014,0.117,0.021,0.308,0.021c0.205,0,0.359,0,0.462,0c0.294,0,0.547-0.004,0.76-0.012
			c0.212-0.008,0.45-0.063,0.715-0.164c0.63-0.514,1.048-1.068,1.254-1.662c0.205-0.594,0.308-1.279,0.308-2.057
			c0-0.455-0.048-0.877-0.143-1.266c-0.096-0.387-0.224-0.795-0.385-1.221c-0.074-0.189-0.195-0.348-0.363-0.473
			c-0.169-0.125-0.353-0.234-0.55-0.33c-0.198-0.096-0.404-0.18-0.616-0.252c-0.213-0.074-0.393-0.154-0.539-0.242h-1.386
			c-0.015,0-0.11,0.055-0.286,0.164s-0.309,0.195-0.396,0.254c-0.352,0.248-0.635,0.52-0.847,0.813
			c-0.213,0.295-0.382,0.605-0.506,0.936c-0.125,0.33-0.206,0.68-0.242,1.045c-0.037,0.367-0.055,0.756-0.055,1.166
			C35.3,38.198,35.311,38.36,35.332,38.565z"/>
		<path d="M46.431,43.603c0.132-0.277,0.322-0.557,0.572-0.836l0.021-0.109c0-0.146-0.029-0.293-0.088-0.439
			s-0.121-0.293-0.187-0.439c-0.066-0.146-0.129-0.297-0.188-0.451s-0.088-0.313-0.088-0.475c0-0.498,0.113-0.934,0.341-1.309
			c0.228-0.373,0.518-0.729,0.869-1.066c0.015-0.029,0.022-0.074,0.022-0.133s0-0.102,0-0.131c0-0.338-0.048-0.66-0.144-0.969
			s-0.143-0.631-0.143-0.967c0-0.926,0.238-1.73,0.715-2.42s1.133-1.219,1.969-1.584c0.044-0.016,0.106-0.037,0.188-0.066
			c0.08-0.029,0.165-0.059,0.253-0.088s0.176-0.055,0.264-0.078c0.088-0.021,0.154-0.033,0.198-0.033c0.19,0,0.381,0.033,0.572,0.1
			c0.19,0.066,0.377,0.137,0.561,0.209c0.184,0.074,0.37,0.143,0.562,0.209c0.19,0.066,0.388,0.1,0.594,0.1h0.418
			c0.439-0.41,0.946-0.617,1.518-0.617c0.293,0,0.594,0.049,0.902,0.145c0.308,0.096,0.583,0.234,0.825,0.418
			c0.241,0.184,0.439,0.406,0.594,0.67s0.23,0.559,0.23,0.881c0,0.41-0.089,0.781-0.268,1.111c-0.179,0.328-0.5,0.494-0.962,0.494
			c-0.328,0-0.589-0.074-0.782-0.221c-0.194-0.146-0.351-0.311-0.47-0.494s-0.22-0.348-0.301-0.496
			c-0.081-0.146-0.165-0.219-0.253-0.219c0,0.367,0.051,0.715,0.153,1.045s0.154,0.678,0.154,1.045c0,0.396-0.041,0.785-0.121,1.166
			c-0.081,0.381-0.209,0.736-0.385,1.066s-0.4,0.623-0.671,0.881c-0.271,0.256-0.598,0.459-0.979,0.605
			c-0.146,0.059-0.271,0.113-0.374,0.164s-0.201,0.1-0.297,0.143c-0.096,0.045-0.198,0.078-0.308,0.1
			c-0.11,0.021-0.253,0.033-0.43,0.033c-0.234,0-0.454-0.031-0.659-0.092c-0.206-0.063-0.407-0.127-0.605-0.195
			c-0.198-0.066-0.399-0.133-0.604-0.193c-0.206-0.061-0.426-0.092-0.66-0.092c-0.279,0-0.466,0.092-0.562,0.275
			s-0.143,0.393-0.143,0.627v0.307c0.029,0.061,0.08,0.119,0.154,0.178c0.073,0.059,0.146,0.088,0.22,0.088
			c0.513,0,1.012-0.074,1.496-0.221c0.483-0.146,0.982-0.221,1.496-0.221h0.77c0.029,0,0.106,0.016,0.231,0.045
			c0.124,0.029,0.26,0.059,0.406,0.088s0.282,0.057,0.407,0.086s0.201,0.045,0.231,0.045c0.19,0.029,0.447,0.043,0.77,0.043
			c0.338,0,0.633,0.045,0.885,0.131c0.104,0.045,0.184,0.08,0.235,0.109c0.053,0.029,0.093,0.059,0.123,0.088
			s0.067,0.066,0.112,0.109s0.119,0.109,0.224,0.197c0.224,0.189,0.426,0.363,0.604,0.523c0.18,0.16,0.336,0.332,0.471,0.514
			c0.135,0.184,0.239,0.383,0.313,0.602c0.075,0.219,0.112,0.467,0.112,0.744c0,0.699-0.154,1.285-0.462,1.76
			c-0.308,0.473-0.712,0.852-1.21,1.137c-0.499,0.283-1.053,0.488-1.661,0.613c-0.608,0.123-1.206,0.186-1.793,0.186
			c-0.66,0-1.283-0.031-1.87-0.09s-1.188-0.197-1.804-0.418c-0.117-0.043-0.217-0.105-0.297-0.186
			c-0.081-0.082-0.18-0.137-0.297-0.166c-0.602-0.205-1.067-0.51-1.397-0.912c-0.33-0.404-0.495-0.943-0.495-1.617
			C46.232,44.228,46.299,43.882,46.431,43.603z M49.412,45.671c0.476,0.191,1.001,0.287,1.572,0.287c0.47,0,0.95-0.008,1.441-0.023
			c0.491-0.014,0.949-0.035,1.375-0.064c0.161-0.045,0.355-0.104,0.583-0.176c0.228-0.074,0.443-0.17,0.648-0.287
			c0.206-0.117,0.382-0.256,0.528-0.418s0.22-0.352,0.22-0.572c0-0.352-0.187-0.631-0.561-0.836s-0.807-0.363-1.298-0.473
			c-0.492-0.109-0.976-0.18-1.452-0.209s-0.817-0.043-1.023-0.043c-0.278,0-0.608,0.01-0.989,0.031
			c-0.382,0.023-0.745,0.086-1.089,0.188c-0.346,0.104-0.639,0.254-0.881,0.451c-0.241,0.197-0.362,0.48-0.362,0.848v0.373
			C48.506,45.173,48.935,45.481,49.412,45.671z M49.105,37.298c0.111,0.295,0.267,0.559,0.467,0.787
			c0.199,0.23,0.437,0.418,0.711,0.566c0.273,0.148,0.566,0.223,0.878,0.223c0.34,0,0.647-0.066,0.922-0.201
			c0.273-0.133,0.507-0.311,0.699-0.531c0.192-0.223,0.341-0.482,0.444-0.777c0.104-0.297,0.156-0.607,0.156-0.934
			c0-0.666-0.171-1.225-0.512-1.676c-0.34-0.451-0.852-0.678-1.532-0.678c-0.312,0-0.611,0.061-0.9,0.178
			c-0.289,0.119-0.545,0.281-0.767,0.488s-0.399,0.453-0.533,0.732c-0.133,0.281-0.2,0.586-0.2,0.912
			C48.938,36.698,48.994,37.001,49.105,37.298z"/>
		<path d="M61.335,36.63c0.081-0.543,0.217-1.061,0.407-1.551c0.19-0.492,0.443-0.947,0.759-1.365s0.715-0.758,1.199-1.021
			c0.044-0.029,0.124-0.074,0.242-0.133c0.117-0.059,0.242-0.121,0.374-0.188s0.253-0.123,0.362-0.176
			c0.11-0.051,0.188-0.084,0.231-0.1c0.161-0.072,0.326-0.105,0.495-0.098c0.168,0.008,0.333,0.01,0.495,0.01
			c0.938,0,1.73,0.225,2.376,0.672c0.645,0.447,1.246,1.023,1.804,1.727c0.059,0.088,0.136,0.254,0.231,0.496
			c0.095,0.24,0.183,0.506,0.264,0.791c0.08,0.287,0.15,0.564,0.209,0.836s0.088,0.473,0.088,0.605c0,0.029-0.004,0.092-0.011,0.188
			c-0.008,0.096-0.011,0.156-0.011,0.186c-0.133,0.221-0.309,0.367-0.528,0.441c-0.22,0.072-0.447,0.131-0.682,0.176
			c-0.162,0-0.451-0.004-0.869-0.012s-0.862-0.012-1.331-0.012c-0.455,0-0.892,0.004-1.31,0.012s-0.707,0.012-0.869,0.012
			c-0.161,0-0.355,0.004-0.583,0.01c-0.228,0.008-0.45,0.016-0.671,0.023c-0.22,0.008-0.491,0.025-0.813,0.055l-0.088,0.066
			c0,0.016-0.004,0.066-0.012,0.156c-0.007,0.088-0.011,0.146-0.011,0.176c0,0.428,0.077,0.834,0.231,1.217
			c0.153,0.385,0.366,0.721,0.638,1.008s0.59,0.516,0.957,0.686c0.366,0.17,0.77,0.256,1.21,0.256c0.044,0,0.143-0.004,0.297-0.012
			s0.253-0.012,0.297-0.012c0.205-0.16,0.44-0.273,0.704-0.34c0.265-0.066,0.491-0.18,0.683-0.342
			c0.146-0.131,0.282-0.293,0.406-0.484c0.125-0.189,0.257-0.373,0.396-0.549c0.139-0.176,0.289-0.322,0.451-0.441
			c0.161-0.117,0.358-0.176,0.594-0.176c0.22,0,0.399,0.066,0.539,0.199c0.139,0.131,0.209,0.301,0.209,0.506
			c0,0.338-0.073,0.641-0.22,0.912c-0.147,0.271-0.309,0.539-0.484,0.803c-0.44,0.639-1.02,1.094-1.738,1.369
			s-1.459,0.414-2.222,0.414c-0.748,0-1.423-0.146-2.024-0.441c-0.602-0.293-1.107-0.688-1.518-1.188
			c-0.411-0.498-0.727-1.074-0.946-1.727s-0.33-1.338-0.33-2.057C61.214,37.7,61.254,37.173,61.335,36.63z M63.282,36.321
			c0,0.045,0.029,0.066,0.088,0.066h5.082c0.029,0,0.069-0.018,0.121-0.055c0.051-0.037,0.092-0.07,0.121-0.1
			c0.015-0.029,0.021-0.08,0.021-0.154c0-0.072,0-0.125,0-0.154c0-0.352-0.088-0.648-0.264-0.891s-0.396-0.432-0.66-0.572
			c-0.264-0.139-0.554-0.242-0.869-0.307c-0.315-0.066-0.612-0.1-0.891-0.1c-0.308,0-0.624,0.041-0.946,0.121
			s-0.616,0.209-0.88,0.385s-0.484,0.4-0.66,0.672s-0.264,0.59-0.264,0.957C63.282,36.22,63.282,36.263,63.282,36.321z"/>
		<path d="M73.919,41.579c0.228-0.189,0.51-0.285,0.847-0.285c0.206,0,0.407,0.018,0.605,0.055s0.407,0.055,0.627,0.055
			c0.059,0,0.143-0.004,0.253-0.012c0.11-0.006,0.172-0.01,0.188-0.01l0.088-0.088c0-0.059,0.003-0.154,0.011-0.287
			c0.007-0.131,0.015-0.273,0.022-0.428c0.007-0.154,0.018-0.301,0.032-0.441c0.015-0.139,0.022-0.238,0.022-0.297
			c0-0.029,0.011-0.102,0.033-0.219c0.021-0.117,0.04-0.191,0.055-0.221l-0.044-2.156v-0.418l-0.132-2.596l-0.176-0.176
			c-0.074,0-0.198-0.004-0.374-0.012c-0.177-0.006-0.367-0.014-0.572-0.021c-0.206-0.008-0.396-0.018-0.572-0.033
			c-0.176-0.014-0.301-0.021-0.374-0.021c-0.294-0.029-0.539-0.143-0.737-0.342c-0.197-0.197-0.297-0.443-0.297-0.736
			s0.088-0.547,0.265-0.76c0.176-0.211,0.418-0.318,0.726-0.318c0.015,0,0.036,0,0.066,0c0.044,0,0.065,0.008,0.065,0.021
			c0.234,0.029,0.524,0.033,0.869,0.012s0.693-0.025,1.045-0.012c0.353,0.016,0.683,0.063,0.99,0.143
			c0.308,0.082,0.542,0.232,0.704,0.451c0.029,0.031,0.059,0.092,0.088,0.188s0.063,0.195,0.099,0.297
			c0.037,0.104,0.081,0.191,0.132,0.264c0.052,0.074,0.106,0.111,0.165,0.111h0.044c0.455-0.367,0.942-0.705,1.464-1.012
			c0.521-0.309,1.081-0.463,1.683-0.463c0.366,0,0.723,0.063,1.067,0.188c0.344,0.125,0.641,0.297,0.891,0.516
			c0.249,0.221,0.451,0.488,0.604,0.805c0.154,0.314,0.231,0.662,0.231,1.045c0,0.543-0.129,1.004-0.385,1.385
			c-0.257,0.383-0.693,0.572-1.31,0.572c-0.293,0-0.527-0.092-0.704-0.275c-0.176-0.184-0.315-0.406-0.418-0.67
			s-0.172-0.539-0.209-0.826c-0.036-0.285-0.063-0.531-0.076-0.736c-0.016-0.072-0.06-0.109-0.133-0.109s-0.124,0-0.153,0
			c-0.074,0-0.144,0.004-0.209,0.01c-0.066,0.008-0.129,0.041-0.188,0.1c-0.059,0.045-0.153,0.133-0.286,0.264
			c-0.132,0.133-0.271,0.271-0.418,0.418s-0.286,0.287-0.418,0.418c-0.132,0.133-0.22,0.221-0.264,0.264
			c-0.059,0.059-0.143,0.158-0.253,0.297c-0.11,0.141-0.217,0.291-0.319,0.451c-0.103,0.162-0.19,0.32-0.264,0.475
			c-0.073,0.152-0.11,0.268-0.11,0.34v2.486c0.015,0.029,0.033,0.104,0.056,0.221c0.021,0.117,0.032,0.189,0.032,0.219
			c0,0.045,0.008,0.133,0.022,0.264c0.015,0.133,0.025,0.271,0.033,0.418c0.007,0.148,0.014,0.287,0.021,0.418
			c0.008,0.133,0.011,0.229,0.011,0.287c0.059,0.162,0.146,0.256,0.265,0.285c0.117,0.029,0.256,0.045,0.418,0.045
			c0.161,0,0.326-0.016,0.495-0.045c0.168-0.029,0.333-0.043,0.495-0.043c0.337,0,0.645,0.092,0.924,0.275
			c0.278,0.184,0.418,0.449,0.418,0.803c0,0.293-0.066,0.523-0.198,0.693c-0.132,0.168-0.305,0.293-0.517,0.373
			c-0.213,0.08-0.444,0.133-0.693,0.154c-0.25,0.021-0.484,0.033-0.704,0.033c-0.249,0-0.495-0.016-0.737-0.045
			c-0.241-0.029-0.487-0.043-0.736-0.043c-0.118,0-0.217,0.004-0.297,0.01c-0.081,0.008-0.195,0.033-0.342,0.078h-2.508
			c-0.352,0-0.671-0.117-0.957-0.352c-0.286-0.236-0.429-0.537-0.429-0.902C73.578,42.034,73.691,41.771,73.919,41.579z"/>
		<path d="M109.34,41.282c-0.008-0.418-0.041-0.836-0.1-1.254s-0.15-0.824-0.274-1.221c-0.125-0.396-0.29-0.77-0.495-1.123
			c-0.104-0.16-0.202-0.344-0.297-0.549c-0.096-0.205-0.225-0.367-0.386-0.484c-0.205-0.043-0.381-0.08-0.527-0.109
			c-0.147-0.029-0.29-0.049-0.43-0.055c-0.14-0.008-0.282-0.012-0.429-0.012c-0.132,0-0.294,0-0.484,0h-0.813
			c-0.088,0-0.22,0.012-0.396,0.033c-0.176,0.021-0.271,0.041-0.285,0.055l-0.089,0.088v4.137c0,0.131,0.133,0.23,0.396,0.297
			s0.55,0.143,0.858,0.23c0.308,0.088,0.594,0.217,0.857,0.385c0.264,0.17,0.396,0.438,0.396,0.803c0,0.234-0.063,0.418-0.188,0.551
			c-0.125,0.131-0.278,0.234-0.462,0.309c-0.184,0.072-0.382,0.121-0.594,0.143c-0.213,0.021-0.407,0.033-0.583,0.033h-0.242
			c-0.132,0-0.363-0.004-0.693-0.012s-0.678-0.014-1.045-0.021c-0.366-0.008-0.711-0.02-1.034-0.033
			c-0.322-0.014-0.55-0.021-0.682-0.021c-0.146,0.014-0.282-0.02-0.407-0.1c-0.124-0.08-0.234-0.188-0.33-0.318
			c-0.095-0.133-0.168-0.271-0.22-0.418s-0.077-0.287-0.077-0.418c0-0.279,0.066-0.496,0.198-0.65s0.301-0.268,0.506-0.34
			c0.205-0.074,0.429-0.117,0.671-0.133c0.242-0.014,0.474-0.021,0.693-0.021c0.029-0.029,0.065-0.074,0.11-0.133
			c0.044-0.059,0.065-0.102,0.065-0.131l-0.044-4.906v-0.439l-0.132-5.17l-0.176-0.178l-1.387-0.33
			c-0.19-0.057-0.308-0.186-0.352-0.385c-0.044-0.197-0.066-0.369-0.066-0.516c0-0.234,0.059-0.467,0.177-0.693
			c0.117-0.229,0.314-0.342,0.594-0.342h3.366c0.161-0.088,0.308-0.135,0.439-0.143s0.278-0.012,0.44-0.012
			c0.763,0,1.528,0.053,2.299,0.154c0.77,0.104,1.463,0.309,2.079,0.617c0.616,0.307,1.114,0.752,1.496,1.33
			c0.381,0.58,0.571,1.346,0.571,2.299c0,0.41-0.036,0.848-0.109,1.309c-0.073,0.463-0.242,0.863-0.506,1.199
			c-0.088,0.117-0.202,0.229-0.341,0.33c-0.14,0.104-0.275,0.205-0.407,0.309s-0.242,0.217-0.33,0.34
			c-0.088,0.125-0.132,0.275-0.132,0.451v0.199c0.293,0.455,0.523,0.965,0.692,1.529s0.312,1.088,0.43,1.572
			c0.044,0.176,0.069,0.406,0.076,0.693c0.008,0.285,0.07,0.518,0.188,0.693c0.103,0.16,0.228,0.271,0.374,0.33
			s0.293,0.109,0.439,0.152c0.146,0.045,0.294,0.104,0.44,0.178c0.146,0.072,0.271,0.197,0.374,0.373
			c0.132,0.205,0.213,0.346,0.242,0.418c0.029,0.074,0.044,0.205,0.044,0.396c0,0.25-0.081,0.49-0.242,0.727
			c-0.161,0.234-0.389,0.352-0.682,0.352h-0.044c-0.265-0.045-0.558-0.063-0.88-0.055c-0.323,0.006-0.631-0.008-0.925-0.045
			c-0.293-0.037-0.554-0.129-0.78-0.275c-0.228-0.146-0.371-0.395-0.43-0.748C109.343,42.108,109.347,41.7,109.34,41.282z
			 M104.532,30.03c-0.132,0.043-0.198,0.123-0.198,0.242v3.783c0,0.043,0.022,0.117,0.066,0.221c0.044,0.102,0.08,0.176,0.11,0.219
			h0.506c0.19,0,0.374-0.014,0.55-0.043s0.352-0.045,0.528-0.045c0.22,0,0.432,0.016,0.638,0.045
			c0.205,0.029,0.425,0.043,0.66,0.043h0.726c0.528-0.16,0.965-0.414,1.31-0.758c0.344-0.346,0.517-0.805,0.517-1.375
			c0-0.338-0.044-0.672-0.132-1.002s-0.279-0.605-0.572-0.824c-0.558-0.25-1.144-0.414-1.76-0.496
			c-0.616-0.08-1.232-0.121-1.848-0.121c-0.074,0-0.206,0-0.396,0s-0.322,0.008-0.396,0.023
			C104.767,29.956,104.664,29.985,104.532,30.03z"/>
		<path d="M116.158,35.661c0.198-0.777,0.51-1.467,0.936-2.068c0.425-0.6,0.972-1.08,1.639-1.439s1.463-0.539,2.387-0.539
			c0.704,0,1.313,0.135,1.826,0.406s1.026,0.627,1.54,1.066c0.015,0.016,0.029,0.033,0.044,0.055
			c0.015,0.023,0.029,0.033,0.044,0.033c0.177,0.338,0.355,0.672,0.539,1.002s0.353,0.668,0.506,1.012
			c0.154,0.346,0.279,0.697,0.374,1.057c0.096,0.359,0.144,0.729,0.144,1.111c0,0.043-0.004,0.127-0.011,0.252
			c-0.008,0.125-0.012,0.201-0.012,0.23c-0.029,0.088-0.069,0.246-0.121,0.473c-0.051,0.229-0.109,0.471-0.176,0.727
			c-0.065,0.258-0.128,0.504-0.187,0.738s-0.096,0.395-0.11,0.482c-0.117,0.396-0.319,0.814-0.604,1.254
			c-0.286,0.441-0.62,0.84-1.001,1.199c-0.382,0.359-0.796,0.656-1.243,0.891c-0.448,0.236-0.892,0.354-1.331,0.354
			c-0.221,0-0.389-0.016-0.506-0.045c-0.118-0.029-0.217-0.066-0.298-0.109c-0.08-0.045-0.164-0.092-0.253-0.143
			c-0.088-0.053-0.212-0.1-0.374-0.145c-0.073-0.014-0.212-0.035-0.418-0.064c-0.205-0.029-0.352-0.059-0.439-0.088
			c-0.073-0.029-0.173-0.078-0.297-0.145c-0.125-0.064-0.25-0.131-0.374-0.197c-0.125-0.066-0.242-0.125-0.353-0.176
			c-0.109-0.051-0.172-0.084-0.187-0.1c-0.294-0.189-0.562-0.484-0.803-0.879c-0.242-0.396-0.451-0.822-0.628-1.277
			c-0.176-0.453-0.312-0.908-0.406-1.363c-0.096-0.455-0.144-0.844-0.144-1.166C115.861,37.237,115.961,36.438,116.158,35.661z
			 M117.786,38.565c0.022,0.205,0.056,0.41,0.1,0.615c0.044,0.207,0.099,0.4,0.165,0.584c0.065,0.184,0.143,0.318,0.23,0.406
			l1.034,1.035c0.161,0.043,0.29,0.072,0.385,0.088c0.096,0.014,0.194,0.029,0.298,0.043c0.102,0.016,0.19,0.023,0.264,0.023
			c0.015,0.014,0.117,0.021,0.308,0.021c0.205,0,0.359,0,0.462,0c0.294,0,0.547-0.004,0.76-0.012
			c0.212-0.008,0.45-0.063,0.715-0.164c0.63-0.514,1.048-1.068,1.254-1.662c0.205-0.594,0.308-1.279,0.308-2.057
			c0-0.455-0.048-0.877-0.143-1.266c-0.096-0.387-0.224-0.795-0.385-1.221c-0.074-0.189-0.195-0.348-0.363-0.473
			c-0.169-0.125-0.353-0.234-0.55-0.33c-0.198-0.096-0.404-0.18-0.616-0.252c-0.213-0.074-0.393-0.154-0.539-0.242h-1.386
			c-0.015,0-0.11,0.055-0.286,0.164s-0.309,0.195-0.396,0.254c-0.352,0.248-0.635,0.52-0.847,0.813
			c-0.213,0.295-0.382,0.605-0.506,0.936c-0.125,0.33-0.206,0.68-0.242,1.045c-0.037,0.367-0.055,0.756-0.055,1.166
			C117.754,38.198,117.765,38.36,117.786,38.565z"/>
		<path d="M128.886,43.603c0.132-0.277,0.322-0.557,0.572-0.836l0.021-0.109c0-0.146-0.029-0.293-0.088-0.439
			s-0.121-0.293-0.187-0.439c-0.066-0.146-0.129-0.297-0.188-0.451s-0.088-0.313-0.088-0.475c0-0.498,0.113-0.934,0.341-1.309
			c0.228-0.373,0.518-0.729,0.869-1.066c0.015-0.029,0.022-0.074,0.022-0.133s0-0.102,0-0.131c0-0.338-0.048-0.66-0.144-0.969
			s-0.143-0.631-0.143-0.967c0-0.926,0.238-1.73,0.715-2.42s1.133-1.219,1.969-1.584c0.044-0.016,0.106-0.037,0.188-0.066
			c0.08-0.029,0.165-0.059,0.253-0.088s0.176-0.055,0.264-0.078c0.088-0.021,0.154-0.033,0.198-0.033c0.19,0,0.381,0.033,0.572,0.1
			c0.19,0.066,0.377,0.137,0.561,0.209c0.184,0.074,0.37,0.143,0.562,0.209c0.19,0.066,0.388,0.1,0.594,0.1h0.418
			c0.439-0.41,0.946-0.617,1.518-0.617c0.293,0,0.594,0.049,0.902,0.145c0.308,0.096,0.583,0.234,0.825,0.418
			c0.241,0.184,0.439,0.406,0.594,0.67s0.23,0.559,0.23,0.881c0,0.41-0.089,0.781-0.268,1.111c-0.179,0.328-0.5,0.494-0.962,0.494
			c-0.328,0-0.589-0.074-0.782-0.221c-0.194-0.146-0.351-0.311-0.47-0.494s-0.22-0.348-0.301-0.496
			c-0.081-0.146-0.165-0.219-0.253-0.219c0,0.367,0.051,0.715,0.153,1.045s0.154,0.678,0.154,1.045c0,0.396-0.041,0.785-0.121,1.166
			c-0.081,0.381-0.209,0.736-0.385,1.066s-0.4,0.623-0.671,0.881c-0.271,0.256-0.598,0.459-0.979,0.605
			c-0.146,0.059-0.271,0.113-0.374,0.164s-0.201,0.1-0.297,0.143c-0.096,0.045-0.198,0.078-0.308,0.1
			c-0.11,0.021-0.253,0.033-0.43,0.033c-0.234,0-0.454-0.031-0.659-0.092c-0.206-0.063-0.407-0.127-0.605-0.195
			c-0.198-0.066-0.399-0.133-0.604-0.193c-0.206-0.061-0.426-0.092-0.66-0.092c-0.279,0-0.466,0.092-0.562,0.275
			s-0.143,0.393-0.143,0.627v0.307c0.029,0.061,0.08,0.119,0.154,0.178c0.073,0.059,0.146,0.088,0.22,0.088
			c0.513,0,1.012-0.074,1.496-0.221c0.483-0.146,0.982-0.221,1.496-0.221h0.77c0.029,0,0.106,0.016,0.231,0.045
			c0.124,0.029,0.26,0.059,0.406,0.088s0.282,0.057,0.407,0.086s0.201,0.045,0.231,0.045c0.19,0.029,0.447,0.043,0.77,0.043
			c0.338,0,0.633,0.045,0.885,0.131c0.104,0.045,0.184,0.08,0.235,0.109c0.053,0.029,0.093,0.059,0.123,0.088
			s0.067,0.066,0.112,0.109s0.119,0.109,0.224,0.197c0.224,0.189,0.426,0.363,0.604,0.523c0.18,0.16,0.336,0.332,0.471,0.514
			c0.135,0.184,0.239,0.383,0.313,0.602c0.075,0.219,0.112,0.467,0.112,0.744c0,0.699-0.154,1.285-0.462,1.76
			c-0.308,0.473-0.712,0.852-1.21,1.137c-0.499,0.283-1.053,0.488-1.661,0.613c-0.608,0.123-1.206,0.186-1.793,0.186
			c-0.66,0-1.283-0.031-1.87-0.09s-1.188-0.197-1.804-0.418c-0.117-0.043-0.217-0.105-0.297-0.186
			c-0.081-0.082-0.18-0.137-0.297-0.166c-0.602-0.205-1.067-0.51-1.397-0.912c-0.33-0.404-0.495-0.943-0.495-1.617
			C128.688,44.228,128.754,43.882,128.886,43.603z M131.867,45.671c0.476,0.191,1.001,0.287,1.572,0.287
			c0.47,0,0.95-0.008,1.441-0.023c0.491-0.014,0.949-0.035,1.375-0.064c0.161-0.045,0.355-0.104,0.583-0.176
			c0.228-0.074,0.443-0.17,0.648-0.287c0.206-0.117,0.382-0.256,0.528-0.418s0.22-0.352,0.22-0.572c0-0.352-0.187-0.631-0.561-0.836
			s-0.807-0.363-1.298-0.473c-0.492-0.109-0.976-0.18-1.452-0.209s-0.817-0.043-1.023-0.043c-0.278,0-0.608,0.01-0.989,0.031
			c-0.382,0.023-0.745,0.086-1.089,0.188c-0.346,0.104-0.639,0.254-0.881,0.451c-0.241,0.197-0.362,0.48-0.362,0.848v0.373
			C130.961,45.173,131.39,45.481,131.867,45.671z M131.561,37.298c0.111,0.295,0.267,0.559,0.467,0.787
			c0.199,0.23,0.437,0.418,0.711,0.566c0.273,0.148,0.566,0.223,0.878,0.223c0.34,0,0.647-0.066,0.922-0.201
			c0.273-0.133,0.507-0.311,0.699-0.531c0.192-0.223,0.341-0.482,0.444-0.777c0.104-0.297,0.156-0.607,0.156-0.934
			c0-0.666-0.171-1.225-0.512-1.676c-0.34-0.451-0.852-0.678-1.532-0.678c-0.312,0-0.611,0.061-0.9,0.178
			c-0.289,0.119-0.545,0.281-0.767,0.488s-0.399,0.453-0.533,0.732c-0.133,0.281-0.2,0.586-0.2,0.912
			C131.394,36.698,131.449,37.001,131.561,37.298z"/>
		<path d="M143.79,36.63c0.081-0.543,0.217-1.061,0.407-1.551c0.19-0.492,0.443-0.947,0.759-1.365s0.715-0.758,1.199-1.021
			c0.044-0.029,0.124-0.074,0.242-0.133c0.117-0.059,0.242-0.121,0.374-0.188s0.253-0.123,0.362-0.176
			c0.11-0.051,0.188-0.084,0.231-0.1c0.161-0.072,0.326-0.105,0.495-0.098c0.168,0.008,0.333,0.01,0.495,0.01
			c0.938,0,1.73,0.225,2.376,0.672c0.645,0.447,1.246,1.023,1.804,1.727c0.059,0.088,0.136,0.254,0.231,0.496
			c0.095,0.24,0.183,0.506,0.264,0.791c0.08,0.287,0.15,0.564,0.209,0.836s0.088,0.473,0.088,0.605c0,0.029-0.004,0.092-0.011,0.188
			c-0.008,0.096-0.011,0.156-0.011,0.186c-0.133,0.221-0.309,0.367-0.528,0.441c-0.22,0.072-0.447,0.131-0.682,0.176
			c-0.162,0-0.451-0.004-0.869-0.012s-0.862-0.012-1.331-0.012c-0.455,0-0.892,0.004-1.31,0.012s-0.707,0.012-0.869,0.012
			c-0.161,0-0.355,0.004-0.583,0.01c-0.228,0.008-0.45,0.016-0.671,0.023c-0.22,0.008-0.491,0.025-0.813,0.055l-0.088,0.066
			c0,0.016-0.004,0.066-0.012,0.156c-0.007,0.088-0.011,0.146-0.011,0.176c0,0.428,0.077,0.834,0.231,1.217
			c0.153,0.385,0.366,0.721,0.638,1.008s0.59,0.516,0.957,0.686c0.366,0.17,0.77,0.256,1.21,0.256c0.044,0,0.143-0.004,0.297-0.012
			s0.253-0.012,0.297-0.012c0.205-0.16,0.44-0.273,0.704-0.34c0.265-0.066,0.491-0.18,0.683-0.342
			c0.146-0.131,0.282-0.293,0.406-0.484c0.125-0.189,0.257-0.373,0.396-0.549c0.139-0.176,0.289-0.322,0.451-0.441
			c0.161-0.117,0.358-0.176,0.594-0.176c0.22,0,0.399,0.066,0.539,0.199c0.139,0.131,0.209,0.301,0.209,0.506
			c0,0.338-0.073,0.641-0.22,0.912c-0.147,0.271-0.309,0.539-0.484,0.803c-0.44,0.639-1.02,1.094-1.738,1.369
			s-1.459,0.414-2.222,0.414c-0.748,0-1.423-0.146-2.024-0.441c-0.602-0.293-1.107-0.688-1.518-1.188
			c-0.411-0.498-0.727-1.074-0.946-1.727s-0.33-1.338-0.33-2.057C143.669,37.7,143.709,37.173,143.79,36.63z M145.737,36.321
			c0,0.045,0.029,0.066,0.088,0.066h5.082c0.029,0,0.069-0.018,0.121-0.055c0.051-0.037,0.092-0.07,0.121-0.1
			c0.015-0.029,0.021-0.08,0.021-0.154c0-0.072,0-0.125,0-0.154c0-0.352-0.088-0.648-0.264-0.891s-0.396-0.432-0.66-0.572
			c-0.264-0.139-0.554-0.242-0.869-0.307c-0.315-0.066-0.612-0.1-0.891-0.1c-0.308,0-0.624,0.041-0.946,0.121
			s-0.616,0.209-0.88,0.385s-0.484,0.4-0.66,0.672s-0.264,0.59-0.264,0.957C145.737,36.22,145.737,36.263,145.737,36.321z"/>
		<path d="M156.374,41.579c0.228-0.189,0.51-0.285,0.847-0.285c0.206,0,0.407,0.018,0.605,0.055s0.407,0.055,0.627,0.055
			c0.059,0,0.143-0.004,0.253-0.012c0.11-0.006,0.172-0.01,0.188-0.01l0.088-0.088c0-0.059,0.003-0.154,0.011-0.287
			c0.007-0.131,0.015-0.273,0.022-0.428c0.007-0.154,0.018-0.301,0.032-0.441c0.015-0.139,0.022-0.238,0.022-0.297
			c0-0.029,0.011-0.102,0.033-0.219c0.021-0.117,0.04-0.191,0.055-0.221l-0.044-2.156v-0.418l-0.132-2.596l-0.176-0.176
			c-0.074,0-0.198-0.004-0.374-0.012c-0.177-0.006-0.367-0.014-0.572-0.021c-0.206-0.008-0.396-0.018-0.572-0.033
			c-0.176-0.014-0.301-0.021-0.374-0.021c-0.294-0.029-0.539-0.143-0.737-0.342c-0.197-0.197-0.297-0.443-0.297-0.736
			s0.088-0.547,0.265-0.76c0.176-0.211,0.418-0.318,0.726-0.318c0.015,0,0.036,0,0.066,0c0.044,0,0.065,0.008,0.065,0.021
			c0.234,0.029,0.524,0.033,0.869,0.012s0.693-0.025,1.045-0.012c0.353,0.016,0.683,0.063,0.99,0.143
			c0.308,0.082,0.542,0.232,0.704,0.451c0.029,0.031,0.059,0.092,0.088,0.188s0.063,0.195,0.099,0.297
			c0.037,0.104,0.081,0.191,0.132,0.264c0.052,0.074,0.106,0.111,0.165,0.111h0.044c0.455-0.367,0.942-0.705,1.464-1.012
			c0.521-0.309,1.081-0.463,1.683-0.463c0.366,0,0.723,0.063,1.067,0.188c0.344,0.125,0.641,0.297,0.891,0.516
			c0.249,0.221,0.451,0.488,0.604,0.805c0.154,0.314,0.231,0.662,0.231,1.045c0,0.543-0.129,1.004-0.385,1.385
			c-0.257,0.383-0.693,0.572-1.31,0.572c-0.293,0-0.527-0.092-0.704-0.275c-0.176-0.184-0.315-0.406-0.418-0.67
			s-0.172-0.539-0.209-0.826c-0.036-0.285-0.063-0.531-0.076-0.736c-0.016-0.072-0.06-0.109-0.133-0.109s-0.124,0-0.153,0
			c-0.074,0-0.144,0.004-0.209,0.01c-0.066,0.008-0.129,0.041-0.188,0.1c-0.059,0.045-0.153,0.133-0.286,0.264
			c-0.132,0.133-0.271,0.271-0.418,0.418s-0.286,0.287-0.418,0.418c-0.132,0.133-0.22,0.221-0.264,0.264
			c-0.059,0.059-0.143,0.158-0.253,0.297c-0.11,0.141-0.217,0.291-0.319,0.451c-0.103,0.162-0.19,0.32-0.264,0.475
			c-0.073,0.152-0.11,0.268-0.11,0.34v2.486c0.015,0.029,0.033,0.104,0.056,0.221c0.021,0.117,0.032,0.189,0.032,0.219
			c0,0.045,0.008,0.133,0.022,0.264c0.015,0.133,0.025,0.271,0.033,0.418c0.007,0.148,0.014,0.287,0.021,0.418
			c0.008,0.133,0.011,0.229,0.011,0.287c0.059,0.162,0.146,0.256,0.265,0.285c0.117,0.029,0.256,0.045,0.418,0.045
			c0.161,0,0.326-0.016,0.495-0.045c0.168-0.029,0.333-0.043,0.495-0.043c0.337,0,0.645,0.092,0.924,0.275
			c0.278,0.184,0.418,0.449,0.418,0.803c0,0.293-0.066,0.523-0.198,0.693c-0.132,0.168-0.305,0.293-0.517,0.373
			c-0.213,0.08-0.444,0.133-0.693,0.154c-0.25,0.021-0.484,0.033-0.704,0.033c-0.249,0-0.495-0.016-0.737-0.045
			c-0.241-0.029-0.487-0.043-0.736-0.043c-0.118,0-0.217,0.004-0.297,0.01c-0.081,0.008-0.195,0.033-0.342,0.078h-2.508
			c-0.352,0-0.671-0.117-0.957-0.352c-0.286-0.236-0.429-0.537-0.429-0.902C156.033,42.034,156.146,41.771,156.374,41.579z"/>
	</g>
</g>
<g id="RoyaleWe">
</g>
<g id="Skip">
</g>
<g id="SwineRules">
</g>
<g id="Touchy_Feeley">
</g>
<g id="Wasted_Education">
</g>
<g id="Layer_86">
</g>
<g id="PointOfNoReturn">
</g>
<g id="Pirate">
</g>
<g id="Thief">
</g>
<g id="DepthPerception">
</g>
<g id="Narcissist">
</g>
<g id="MammaBird">
</g>
<g id="Staringcontest">
</g>
<g id="Cartwheel">
</g>
<g id="Censored">
</g>
<g id="Depersonalization">
</g>
<g id="threeman">
</g>
<g id="_x32__truths_and_a_lie">
</g>
<g id="cray_cray_cat_lady">
</g>
<g id="siblings">
</g>
<g id="later">
</g>
<g id="waterfall">
</g>
<g id="cheers">
</g>
<g id="rhyme">
</g>
<g id="categories">
</g>
<g id="tits">
</g>
<g id="dicks">
</g>
<g id="questions">
</g>
<g id="double_hands">
</g>
<g id="rewind">
</g>
<g id="Cryptkeeper">
</g>
<g id="Take_2_and_Redo">
</g>
<g id="Embryo">
</g>
<g id="I_am_Groot">
</g>
<g id="Mini_Me">
</g>
<g id="Ditto_1_">
</g>
<g id="reverse">
</g>
</svg>
