<?xml version="1.0" encoding="utf-8"?>
<!-- Generator: Adobe Illustrator 16.0.0, SVG Export Plug-In . SVG Version: 6.00 Build 0)  -->
<!DOCTYPE svg PUBLIC "-//W3C//DTD SVG 1.1//EN" "http://www.w3.org/Graphics/SVG/1.1/DTD/svg11.dtd">
<svg version="1.1" xmlns="http://www.w3.org/2000/svg" xmlns:xlink="http://www.w3.org/1999/xlink" x="0px" y="0px"
	 width="209.759px" height="62.361px" viewBox="0 0 209.759 62.361" enable-background="new 0 0 209.759 62.361"
	 xml:space="preserve">
<g id="Layer_1">
</g>
<g id="Blindman">
</g>
<g id="Compliments">
</g>
<g id="HAT">
</g>
<g id="speech">
</g>
<g id="TREX_ARMS">
</g>
<g id="slim_shady">
</g>
<g id="TIMEOUT">
</g>
<g id="Truth_or_Dare">
</g>
<g id="ARM_WRESTLE">
</g>
<g id="musical_chairs">
</g>
<g id="never_have_i_ever">
</g>
<g id="Trivia">
</g>
<g id="Drink_Pulling">
</g>
<g id="Sharing_is_Caring">
</g>
<g id="Not_It">
</g>
<g id="Cocktail_of_Doom">
</g>
<g id="Heads_up">
</g>
<g id="Archenemy">
</g>
<g id="battle_of_the_sexes">
</g>
<g id="one_must_drink">
</g>
<g id="rainbow_connection">
</g>
<g id="social_drinking">
</g>
<g id="Spin_the_bottle">
</g>
<g id="accents">
</g>
<g id="Slap">
</g>
<g id="down_the_hatch">
</g>
<g id="rubiks_cube">
</g>
<g id="bar_tender">
</g>
<g id="codenames">
</g>
<g id="hand_switch">
</g>
<g id="make_a_rule">
</g>
<g id="no_guts_no_glory">
</g>
<g id="pass">
</g>
<g id="santa">
</g>
<g id="snake_eyes">
</g>
<g id="lightning_round">
</g>
<g id="Bro">
</g>
<g id="LeastDrunk">
</g>
<g id="Know_It_All">
	<g id="Layer_94">
	</g>
</g>
<g id="EyeContact">
</g>
<g id="UnderGuesser">
</g>
<g id="GodSaveTheQUeen">
	<g>
		<path d="M44.527,31.148c0.061-0.234,0.1-0.473,0.117-0.717c0.018-0.242,0.048-0.48,0.091-0.715
			c0.043-0.293,0.144-0.617,0.299-0.969c0.156-0.35,0.354-0.676,0.592-0.975s0.509-0.549,0.813-0.754
			c0.304-0.203,0.624-0.305,0.962-0.305c0.199,0,0.407,0.041,0.624,0.123s0.407,0.18,0.572,0.293
			c0.086,0.051,0.169,0.123,0.247,0.215c0.078,0.09,0.173,0.137,0.286,0.137c0.068,0,0.121-0.035,0.155-0.105
			c0.035-0.068,0.076-0.146,0.124-0.234c0.047-0.086,0.11-0.164,0.188-0.232c0.078-0.07,0.194-0.105,0.351-0.105
			c0.13,0,0.234,0.035,0.313,0.105c0.078,0.068,0.117,0.172,0.117,0.311v1.432c-0.026,0.094-0.044,0.246-0.053,0.455
			c-0.009,0.207-0.03,0.418-0.064,0.629c-0.035,0.213-0.096,0.398-0.183,0.561c-0.086,0.16-0.226,0.24-0.416,0.24
			c-0.173,0-0.297-0.059-0.37-0.176c-0.074-0.117-0.132-0.268-0.176-0.449c-0.043-0.182-0.087-0.375-0.13-0.578
			s-0.119-0.396-0.228-0.578s-0.265-0.332-0.468-0.449c-0.204-0.117-0.483-0.176-0.839-0.176c-0.416,0-0.738,0.135-0.968,0.404
			c-0.23,0.268-0.405,0.594-0.527,0.975c-0.034,0.096-0.056,0.174-0.064,0.234s-0.018,0.111-0.026,0.156
			c-0.009,0.043-0.021,0.088-0.039,0.135c-0.018,0.049-0.043,0.111-0.078,0.189v2.496c0,0.199,0.044,0.432,0.131,0.695
			c0.086,0.264,0.203,0.516,0.351,0.754s0.325,0.439,0.533,0.605c0.208,0.164,0.438,0.246,0.688,0.246
			c0.252,0,0.477-0.061,0.677-0.182c0.199-0.121,0.368-0.277,0.507-0.469c0.139-0.189,0.244-0.406,0.318-0.65
			c0.073-0.242,0.11-0.48,0.11-0.715c0-0.033,0-0.086,0-0.156c0-0.076-0.005-0.121-0.013-0.129l-0.091-0.104
			c-0.113-0.01-0.232-0.025-0.358-0.047c-0.125-0.021-0.242-0.055-0.351-0.104c-0.108-0.047-0.197-0.113-0.267-0.195
			s-0.104-0.197-0.104-0.344c0-0.148,0.043-0.291,0.13-0.43c0.086-0.139,0.212-0.207,0.377-0.207c0.277,0,0.555,0.025,0.832,0.078
			c0.277,0.051,0.555,0.078,0.832,0.078c0.121,0,0.24-0.01,0.357-0.027s0.235-0.025,0.357-0.025c0.104,0,0.206,0.006,0.306,0.02
			s0.188,0.039,0.267,0.078c0.077,0.039,0.141,0.096,0.188,0.168c0.047,0.074,0.071,0.172,0.071,0.293
			c0,0.166-0.041,0.293-0.124,0.385c-0.082,0.09-0.187,0.154-0.312,0.193c-0.126,0.039-0.26,0.064-0.403,0.072
			c-0.143,0.008-0.271,0.014-0.383,0.014c-0.044,0.018-0.072,0.061-0.085,0.129c-0.013,0.07-0.02,0.113-0.02,0.131v1.469
			c-0.035,0.096-0.052,0.186-0.052,0.273c0,0.078,0,0.164,0,0.26c0,0.111,0.009,0.219,0.025,0.318
			c0.018,0.1,0.026,0.201,0.026,0.305c0,0.191-0.057,0.369-0.169,0.533c-0.112,0.166-0.269,0.248-0.468,0.248
			c-0.113,0-0.202-0.027-0.267-0.078c-0.065-0.053-0.119-0.111-0.163-0.176c-0.043-0.064-0.082-0.123-0.116-0.176
			c-0.035-0.053-0.078-0.078-0.13-0.078c-0.078,0-0.159,0.021-0.241,0.064c-0.082,0.045-0.167,0.094-0.253,0.15
			c-0.087,0.057-0.169,0.113-0.247,0.168c-0.078,0.057-0.156,0.098-0.234,0.125c-0.096,0.043-0.182,0.063-0.26,0.059
			c-0.078-0.006-0.169-0.008-0.273-0.008c-0.32,0-0.626-0.068-0.916-0.207c-0.291-0.139-0.553-0.32-0.787-0.547
			c-0.233-0.225-0.436-0.48-0.604-0.768c-0.169-0.285-0.288-0.576-0.357-0.869c-0.069-0.234-0.114-0.473-0.136-0.717
			c-0.022-0.242-0.063-0.48-0.124-0.715V31.148z"/>
		<path d="M53.296,31.629c0.117-0.459,0.301-0.867,0.553-1.223c0.251-0.355,0.573-0.639,0.968-0.852s0.865-0.318,1.411-0.318
			c0.416,0,0.775,0.08,1.079,0.24c0.303,0.16,0.606,0.371,0.909,0.631c0.009,0.008,0.018,0.02,0.026,0.033
			c0.009,0.012,0.018,0.02,0.026,0.02c0.104,0.199,0.21,0.396,0.318,0.59c0.108,0.195,0.208,0.395,0.299,0.6
			c0.091,0.203,0.164,0.41,0.221,0.623s0.085,0.432,0.085,0.656c0,0.027-0.002,0.076-0.007,0.15
			c-0.004,0.074-0.006,0.119-0.006,0.137c-0.018,0.051-0.042,0.145-0.072,0.279s-0.064,0.277-0.104,0.428
			c-0.039,0.152-0.076,0.299-0.11,0.436c-0.035,0.139-0.057,0.234-0.065,0.287c-0.069,0.234-0.188,0.48-0.357,0.74
			s-0.366,0.496-0.592,0.709s-0.47,0.389-0.734,0.527s-0.526,0.207-0.786,0.207c-0.13,0-0.229-0.008-0.299-0.025
			c-0.07-0.018-0.128-0.039-0.176-0.066c-0.048-0.025-0.098-0.053-0.149-0.084c-0.052-0.029-0.126-0.059-0.221-0.084
			c-0.044-0.008-0.126-0.021-0.247-0.039c-0.122-0.018-0.208-0.035-0.261-0.053c-0.043-0.016-0.102-0.045-0.175-0.084
			c-0.074-0.039-0.147-0.078-0.222-0.117c-0.073-0.039-0.143-0.072-0.208-0.104c-0.064-0.031-0.102-0.051-0.11-0.059
			c-0.173-0.113-0.331-0.285-0.475-0.52c-0.143-0.234-0.267-0.486-0.37-0.754c-0.104-0.27-0.185-0.537-0.24-0.807
			c-0.057-0.268-0.085-0.498-0.085-0.689C53.12,32.561,53.179,32.088,53.296,31.629z M54.258,33.344
			c0.013,0.123,0.032,0.244,0.059,0.365c0.025,0.121,0.059,0.236,0.098,0.344c0.039,0.109,0.084,0.189,0.136,0.24l0.611,0.611
			c0.096,0.025,0.171,0.043,0.228,0.053c0.057,0.008,0.115,0.018,0.176,0.025s0.112,0.014,0.156,0.014
			c0.008,0.008,0.068,0.012,0.182,0.012c0.121,0,0.212,0,0.272,0c0.174,0,0.323-0.002,0.449-0.006
			c0.125-0.004,0.267-0.037,0.422-0.098c0.373-0.303,0.62-0.631,0.741-0.98c0.121-0.352,0.182-0.758,0.182-1.217
			c0-0.268-0.027-0.518-0.084-0.746c-0.057-0.23-0.132-0.471-0.228-0.723c-0.044-0.113-0.115-0.205-0.215-0.279
			s-0.208-0.139-0.324-0.195c-0.117-0.057-0.239-0.105-0.364-0.148c-0.126-0.045-0.232-0.092-0.318-0.145h-0.819
			c-0.009,0-0.065,0.033-0.169,0.098c-0.104,0.066-0.182,0.115-0.234,0.15c-0.208,0.146-0.375,0.307-0.5,0.48
			c-0.126,0.174-0.226,0.357-0.299,0.553c-0.074,0.195-0.122,0.4-0.144,0.617s-0.032,0.447-0.032,0.689
			C54.238,33.129,54.245,33.223,54.258,33.344z"/>
		<path d="M63.832,29.367c0.19,0.033,0.368,0.104,0.533,0.207c0.096,0.07,0.169,0.133,0.221,0.189
			c0.053,0.057,0.139,0.084,0.261,0.084c0.008,0,0.034-0.004,0.078-0.014l0.104-0.311v-1.211c0-0.111-0.08-0.176-0.24-0.193
			c-0.161-0.018-0.336-0.037-0.526-0.059c-0.191-0.021-0.366-0.076-0.527-0.162c-0.16-0.088-0.24-0.256-0.24-0.508
			c0-0.121,0.039-0.219,0.117-0.293c0.078-0.072,0.178-0.109,0.299-0.109h1.573c0.069,0,0.139,0.021,0.208,0.064
			s0.132,0.098,0.188,0.162s0.102,0.137,0.137,0.215c0.034,0.078,0.052,0.152,0.052,0.221v4.018l0.104,0.246v2.951l0.131,0.104
			c0.086,0,0.21-0.006,0.37-0.02c0.16-0.012,0.318-0.008,0.475,0.014s0.292,0.066,0.409,0.137c0.117,0.068,0.176,0.182,0.176,0.338
			c0,0.174-0.041,0.313-0.124,0.416c-0.082,0.104-0.188,0.182-0.318,0.234c-0.13,0.051-0.271,0.084-0.422,0.098
			c-0.152,0.012-0.293,0.02-0.423,0.02c-0.295,0-0.548-0.031-0.761-0.092c-0.212-0.061-0.414-0.203-0.604-0.43
			c-0.009,0-0.021-0.002-0.039-0.006s-0.03-0.006-0.039-0.006c-0.043,0-0.075,0.006-0.097,0.02
			c-0.022,0.012-0.039,0.027-0.053,0.045c-0.013,0.018-0.032,0.039-0.059,0.064c-0.025,0.027-0.069,0.057-0.13,0.092
			c-0.199,0.113-0.379,0.207-0.539,0.285s-0.35,0.117-0.565,0.117c-0.321,0-0.622-0.057-0.903-0.168
			c-0.282-0.113-0.538-0.262-0.768-0.449c-0.229-0.186-0.434-0.404-0.61-0.656c-0.178-0.252-0.319-0.52-0.423-0.807
			c0-0.008-0.009-0.037-0.026-0.084s-0.037-0.1-0.059-0.156s-0.039-0.111-0.052-0.168s-0.02-0.094-0.02-0.111v-1.572
			c0-0.061,0.021-0.141,0.065-0.24c0.043-0.1,0.073-0.172,0.091-0.215c0.009-0.027,0.028-0.086,0.059-0.176
			c0.03-0.092,0.061-0.193,0.091-0.307c0.03-0.111,0.061-0.215,0.091-0.311s0.05-0.156,0.059-0.182
			c0.009-0.01,0.026-0.039,0.052-0.092l1.066-1.078c0.052-0.053,0.119-0.092,0.201-0.117c0.082-0.027,0.171-0.047,0.267-0.059
			c0.096-0.014,0.188-0.021,0.279-0.027c0.091-0.004,0.176-0.006,0.254-0.006C63.455,29.314,63.642,29.332,63.832,29.367z
			 M61.908,33.52c0.061,0.281,0.158,0.539,0.293,0.773c0.134,0.234,0.312,0.426,0.532,0.572c0.222,0.148,0.488,0.221,0.8,0.221
			c0.251,0,0.47-0.08,0.656-0.24s0.343-0.355,0.469-0.584c0.125-0.23,0.219-0.477,0.279-0.742c0.061-0.264,0.091-0.5,0.091-0.709
			c0-0.25-0.032-0.514-0.098-0.793c-0.064-0.277-0.167-0.531-0.306-0.766s-0.316-0.43-0.532-0.586
			c-0.217-0.156-0.473-0.234-0.768-0.234c-0.286,0-0.526,0.078-0.722,0.234c-0.194,0.156-0.351,0.348-0.468,0.572
			c-0.117,0.227-0.199,0.473-0.247,0.74c-0.048,0.27-0.071,0.512-0.071,0.729C61.817,32.967,61.848,33.238,61.908,33.52z"/>
		<path d="M70.268,32.531c0.078,0.109,0.134,0.242,0.169,0.396c0.034,0.156,0.056,0.318,0.064,0.488s0.03,0.314,0.065,0.436
			c0.069,0.207,0.18,0.4,0.331,0.578c0.152,0.178,0.327,0.307,0.527,0.383c0.077,0.027,0.138,0.047,0.182,0.059
			c0.043,0.014,0.084,0.025,0.123,0.033c0.039,0.01,0.076,0.02,0.111,0.033c0.034,0.012,0.082,0.037,0.143,0.07h0.975
			c0.096-0.068,0.197-0.109,0.306-0.123s0.224-0.037,0.345-0.072c0.104-0.025,0.188-0.076,0.254-0.148
			c0.064-0.074,0.121-0.154,0.169-0.242c0.047-0.086,0.088-0.178,0.123-0.273c0.034-0.094,0.073-0.182,0.117-0.26v-0.912
			c0-0.018-0.02-0.063-0.059-0.137c-0.039-0.072-0.071-0.127-0.098-0.162c-0.13-0.199-0.277-0.346-0.441-0.436
			c-0.165-0.092-0.341-0.152-0.527-0.184c-0.187-0.029-0.381-0.047-0.585-0.051c-0.203-0.004-0.414-0.02-0.63-0.047
			c-0.347-0.043-0.683-0.123-1.008-0.24s-0.611-0.277-0.858-0.482c-0.246-0.203-0.446-0.449-0.598-0.734
			c-0.151-0.287-0.228-0.625-0.228-1.016c0-0.182,0.013-0.348,0.039-0.496c0.026-0.146,0.061-0.289,0.104-0.428
			c0.043-0.141,0.099-0.279,0.169-0.418c0.069-0.139,0.151-0.295,0.247-0.469c0.095-0.104,0.223-0.217,0.383-0.338
			s0.334-0.232,0.521-0.332c0.186-0.1,0.372-0.182,0.559-0.248c0.187-0.064,0.354-0.098,0.501-0.098h0.116
			c0.044,0.018,0.119,0.043,0.228,0.078s0.222,0.074,0.339,0.117c0.116,0.043,0.227,0.084,0.331,0.123
			c0.104,0.039,0.178,0.068,0.221,0.086c0.087,0.043,0.202,0.113,0.345,0.213s0.267,0.15,0.37,0.15h0.053
			c0.017-0.078,0.039-0.162,0.064-0.254c0.026-0.09,0.061-0.176,0.104-0.254c0.043-0.078,0.1-0.143,0.169-0.195
			c0.069-0.051,0.151-0.076,0.247-0.076c0.173,0,0.306,0.08,0.396,0.24s0.137,0.322,0.137,0.488v2.395
			c0,0.131-0.048,0.248-0.144,0.352s-0.208,0.156-0.338,0.156c-0.19,0-0.323-0.068-0.396-0.209c-0.074-0.139-0.126-0.299-0.156-0.48
			s-0.064-0.363-0.104-0.541s-0.115-0.311-0.228-0.396c-0.234-0.174-0.499-0.32-0.793-0.443c-0.295-0.121-0.585-0.182-0.871-0.182
			c-0.19,0-0.375,0.035-0.553,0.104c-0.178,0.07-0.338,0.166-0.48,0.287c-0.144,0.121-0.259,0.262-0.345,0.424
			c-0.087,0.16-0.13,0.336-0.13,0.527c0,0.363,0.069,0.637,0.208,0.818c0.138,0.184,0.32,0.313,0.546,0.391
			c0.225,0.078,0.479,0.127,0.76,0.145c0.282,0.018,0.562,0.039,0.839,0.064c0.217,0.018,0.439,0.051,0.67,0.098
			c0.229,0.047,0.448,0.098,0.656,0.15c0.009,0.008,0.023,0.018,0.046,0.025c0.021,0.008,0.036,0.018,0.045,0.025
			c0.19,0.156,0.371,0.313,0.54,0.469s0.315,0.322,0.441,0.496c0.126,0.172,0.224,0.365,0.293,0.578s0.104,0.453,0.104,0.723
			c0,0.209-0.018,0.426-0.052,0.65c-0.035,0.227-0.089,0.445-0.162,0.658c-0.074,0.213-0.172,0.41-0.293,0.592
			s-0.273,0.338-0.455,0.469c-0.018,0.008-0.05,0.025-0.098,0.053c-0.048,0.025-0.102,0.053-0.162,0.084s-0.115,0.057-0.163,0.078
			c-0.047,0.021-0.075,0.037-0.084,0.045c-0.113,0.07-0.224,0.146-0.332,0.229s-0.235,0.123-0.383,0.123h-1.274
			c-0.121,0-0.238-0.025-0.351-0.078c-0.113-0.051-0.224-0.109-0.332-0.176c-0.108-0.064-0.219-0.123-0.331-0.174
			c-0.113-0.053-0.234-0.078-0.364-0.078c-0.087,0-0.149,0.031-0.188,0.098c-0.039,0.064-0.076,0.133-0.11,0.207
			c-0.035,0.074-0.082,0.141-0.143,0.201c-0.062,0.061-0.156,0.092-0.286,0.092c-0.147,0-0.282-0.055-0.403-0.162
			c-0.121-0.105-0.182-0.238-0.182-0.393v-2.994c0-0.156,0.052-0.279,0.155-0.371c0.104-0.092,0.229-0.137,0.377-0.137
			C70.06,32.369,70.189,32.424,70.268,32.531z"/>
		<path d="M77.326,33c0.208-0.291,0.468-0.502,0.779-0.637c0.313-0.135,0.652-0.217,1.021-0.248
			c0.368-0.029,0.709-0.059,1.021-0.084c0.313-0.025,0.572-0.074,0.78-0.143c0.208-0.07,0.313-0.209,0.313-0.416
			c0-0.146-0.026-0.287-0.078-0.416c-0.053-0.131-0.147-0.234-0.286-0.313c-0.052-0.025-0.13-0.064-0.234-0.117
			c-0.104-0.051-0.16-0.078-0.169-0.078H79.25c-0.069,0-0.117,0.037-0.144,0.111c-0.025,0.074-0.05,0.164-0.071,0.273
			c-0.021,0.107-0.045,0.227-0.071,0.357c-0.026,0.129-0.067,0.248-0.124,0.357c-0.056,0.107-0.139,0.199-0.246,0.273
			c-0.109,0.072-0.254,0.109-0.436,0.109c-0.278,0-0.506-0.09-0.683-0.273c-0.178-0.182-0.267-0.406-0.267-0.676
			c0-0.156,0.025-0.295,0.078-0.416c0.052-0.121,0.121-0.234,0.208-0.338c0.086-0.104,0.186-0.201,0.299-0.293
			c0.112-0.09,0.226-0.174,0.338-0.252c0.096-0.07,0.195-0.146,0.299-0.229c0.104-0.082,0.226-0.123,0.364-0.123l1.989,0.025
			c0.112,0,0.244,0.049,0.396,0.143c0.151,0.096,0.299,0.207,0.441,0.336c0.144,0.131,0.269,0.268,0.377,0.414
			s0.176,0.273,0.202,0.375c0.008,0.027,0.021,0.074,0.039,0.143c0.017,0.07,0.034,0.141,0.052,0.215
			c0.017,0.072,0.032,0.143,0.045,0.207c0.014,0.064,0.02,0.109,0.02,0.135v0.402c0,0.104,0.002,0.221,0.007,0.355
			c0.004,0.133-0.016,0.252-0.059,0.355v2.188c0,0.24,0.104,0.361,0.313,0.361c0.138,0,0.225-0.061,0.26-0.182
			c0.034-0.121,0.064-0.258,0.091-0.41c0.026-0.15,0.067-0.287,0.123-0.408c0.057-0.121,0.176-0.182,0.358-0.182
			c0.095,0,0.177,0.025,0.246,0.078c0.069,0.051,0.126,0.115,0.17,0.193c0.043,0.078,0.073,0.164,0.091,0.254
			c0.017,0.092,0.025,0.18,0.025,0.268c0,0.189-0.03,0.381-0.091,0.57c-0.061,0.191-0.146,0.363-0.253,0.514
			c-0.108,0.152-0.243,0.275-0.403,0.371s-0.345,0.143-0.553,0.143c-0.165,0-0.308-0.02-0.429-0.059
			c-0.122-0.039-0.256-0.105-0.403-0.201c-0.052-0.025-0.098-0.066-0.137-0.123s-0.077-0.113-0.116-0.17
			c-0.039-0.055-0.083-0.105-0.131-0.148c-0.047-0.043-0.102-0.064-0.162-0.064h-0.064c-0.122,0.061-0.245,0.133-0.371,0.221
			c-0.126,0.086-0.253,0.17-0.384,0.254c-0.13,0.082-0.264,0.15-0.402,0.207s-0.282,0.084-0.43,0.084h-1.17
			c-0.095,0-0.178-0.023-0.247-0.07c-0.069-0.049-0.139-0.094-0.208-0.137c-0.355-0.209-0.612-0.467-0.773-0.773
			c-0.16-0.309-0.24-0.666-0.24-1.072C77.014,33.705,77.118,33.291,77.326,33z M78.066,34.475c0.026,0.096,0.063,0.189,0.111,0.281
			c0.047,0.09,0.105,0.166,0.175,0.227s0.147,0.092,0.234,0.092h1.326c0.008,0,0.036-0.014,0.084-0.039
			c0.048-0.027,0.089-0.049,0.124-0.066c0.017-0.016,0.059-0.043,0.123-0.078c0.065-0.033,0.106-0.055,0.124-0.064
			c0.32-0.217,0.537-0.441,0.649-0.676s0.169-0.537,0.169-0.91v-0.156c-0.009,0-0.025-0.006-0.052-0.02
			c-0.026-0.012-0.043-0.02-0.052-0.02c-0.009-0.008-0.018-0.012-0.026-0.012l-0.025,0.012c-0.026,0-0.098,0.012-0.215,0.033
			s-0.24,0.043-0.371,0.064c-0.13,0.021-0.253,0.043-0.37,0.064c-0.117,0.023-0.188,0.033-0.215,0.033
			c-0.208,0.035-0.418,0.061-0.63,0.078c-0.213,0.018-0.427,0.043-0.644,0.078c-0.113,0.008-0.213,0.078-0.299,0.207
			c-0.044,0.063-0.098,0.156-0.163,0.287c-0.064,0.129-0.098,0.242-0.098,0.338C78.027,34.299,78.041,34.381,78.066,34.475z"/>
		<path d="M86.01,30.602c-0.199-0.035-0.368-0.143-0.507-0.324v-0.234c0-0.139,0.03-0.254,0.091-0.346
			c0.061-0.09,0.141-0.162,0.241-0.213c0.099-0.053,0.21-0.088,0.331-0.105s0.247-0.025,0.377-0.025h0.13
			c0.018,0,0.061,0.008,0.13,0.025s0.144,0.035,0.222,0.053c0.077,0.018,0.153,0.035,0.228,0.053
			c0.073,0.016,0.118,0.025,0.136,0.025h0.026c0.121,0,0.24-0.01,0.357-0.025c0.117-0.018,0.236-0.027,0.357-0.027
			c0.096,0,0.195,0.006,0.299,0.014c0.104,0.008,0.199,0.033,0.286,0.07c0.087,0.039,0.158,0.096,0.215,0.17
			c0.056,0.074,0.084,0.176,0.084,0.305c0,0.166-0.059,0.275-0.175,0.332c-0.117,0.057-0.247,0.098-0.391,0.123
			c-0.143,0.027-0.272,0.055-0.39,0.086c-0.117,0.029-0.176,0.098-0.176,0.201c0,0.121,0.026,0.262,0.078,0.422
			s0.11,0.324,0.176,0.488c0.064,0.164,0.132,0.326,0.201,0.486c0.069,0.162,0.126,0.297,0.169,0.41
			c0.069,0.225,0.13,0.438,0.183,0.637c0.052,0.199,0.125,0.408,0.221,0.625c0.025,0.051,0.056,0.117,0.091,0.193
			c0.034,0.078,0.071,0.156,0.11,0.234s0.089,0.174,0.149,0.287l0.053,0.051c0.025-0.016,0.079-0.113,0.162-0.291
			c0.082-0.178,0.173-0.398,0.272-0.664c0.1-0.264,0.206-0.553,0.319-0.863c0.112-0.313,0.216-0.607,0.312-0.885
			s0.174-0.516,0.234-0.715s0.091-0.32,0.091-0.365c0-0.016-0.002-0.047-0.007-0.09c-0.004-0.043-0.006-0.074-0.006-0.092
			c-0.062-0.096-0.149-0.156-0.267-0.182s-0.232-0.049-0.345-0.072c-0.112-0.021-0.21-0.057-0.293-0.109
			c-0.082-0.053-0.123-0.152-0.123-0.299c0-0.199,0.076-0.342,0.228-0.43c0.151-0.086,0.318-0.129,0.5-0.129h0.144
			c0.061,0,0.162,0.002,0.306,0.006c0.143,0.004,0.297,0.012,0.461,0.02c0.165,0.008,0.318,0.016,0.462,0.02
			c0.143,0.004,0.244,0.006,0.306,0.006c0.112,0.027,0.223,0.051,0.331,0.072s0.206,0.055,0.293,0.098
			c0.086,0.043,0.157,0.104,0.214,0.182s0.085,0.182,0.085,0.313c0,0.129-0.041,0.225-0.124,0.285
			c-0.082,0.061-0.18,0.104-0.292,0.131c-0.113,0.025-0.234,0.039-0.364,0.039c-0.121,0-0.221,0-0.299,0
			c-0.052,0.033-0.098,0.096-0.137,0.182s-0.076,0.182-0.11,0.285c-0.035,0.105-0.069,0.207-0.104,0.307
			c-0.035,0.1-0.07,0.18-0.104,0.24c-0.226,0.736-0.464,1.467-0.715,2.189c-0.252,0.725-0.49,1.455-0.715,2.191
			c-0.026,0.121-0.108,0.227-0.247,0.318s-0.269,0.137-0.391,0.137c-0.121,0-0.255-0.031-0.402-0.092s-0.256-0.146-0.325-0.26
			c-0.147-0.242-0.267-0.523-0.357-0.846c-0.091-0.32-0.176-0.598-0.254-0.83c-0.009-0.027-0.028-0.078-0.059-0.156
			s-0.061-0.16-0.091-0.248c-0.03-0.086-0.063-0.168-0.098-0.246c-0.034-0.078-0.056-0.135-0.064-0.17
			c0-0.008-0.011-0.037-0.032-0.084c-0.022-0.047-0.044-0.098-0.065-0.15c-0.021-0.051-0.044-0.1-0.065-0.143
			s-0.036-0.068-0.045-0.078c-0.009-0.025-0.028-0.086-0.059-0.182s-0.061-0.197-0.091-0.305c-0.03-0.109-0.061-0.211-0.091-0.307
			c-0.031-0.096-0.051-0.156-0.059-0.182c-0.087-0.242-0.172-0.482-0.254-0.721s-0.185-0.471-0.306-0.695
			c0-0.035-0.018-0.053-0.052-0.053C86.413,30.662,86.209,30.637,86.01,30.602z"/>
		<path d="M94.57,32.201c0.048-0.32,0.128-0.627,0.241-0.918c0.112-0.289,0.262-0.559,0.448-0.805
			c0.187-0.248,0.423-0.449,0.708-0.605c0.026-0.018,0.074-0.043,0.144-0.078c0.069-0.033,0.143-0.07,0.221-0.109
			s0.149-0.074,0.215-0.105c0.064-0.029,0.11-0.049,0.137-0.057c0.095-0.045,0.192-0.064,0.292-0.059
			c0.1,0.004,0.197,0.006,0.293,0.006c0.554,0,1.022,0.133,1.403,0.396c0.382,0.264,0.736,0.604,1.066,1.02
			c0.034,0.053,0.08,0.15,0.137,0.293c0.056,0.143,0.107,0.299,0.155,0.469c0.048,0.168,0.089,0.334,0.124,0.494
			c0.034,0.16,0.052,0.279,0.052,0.357c0,0.018-0.002,0.053-0.007,0.109c-0.004,0.057-0.006,0.094-0.006,0.111
			c-0.078,0.129-0.183,0.217-0.313,0.26s-0.265,0.078-0.402,0.104c-0.096,0-0.267-0.002-0.514-0.006s-0.51-0.006-0.787-0.006
			c-0.269,0-0.526,0.002-0.773,0.006s-0.418,0.006-0.513,0.006c-0.096,0-0.211,0.002-0.345,0.008
			c-0.135,0.004-0.267,0.008-0.396,0.012c-0.13,0.006-0.291,0.016-0.481,0.033l-0.052,0.039c0,0.01-0.002,0.039-0.007,0.092
			c-0.004,0.053-0.006,0.088-0.006,0.105c0,0.252,0.045,0.492,0.136,0.719c0.092,0.227,0.217,0.426,0.377,0.596
			c0.161,0.17,0.35,0.305,0.566,0.404c0.216,0.102,0.454,0.15,0.715,0.15c0.025,0,0.084-0.002,0.175-0.006
			c0.092-0.004,0.149-0.008,0.176-0.008c0.121-0.094,0.26-0.162,0.416-0.201s0.29-0.105,0.403-0.201
			c0.086-0.078,0.167-0.174,0.24-0.285c0.073-0.113,0.151-0.221,0.234-0.326c0.082-0.104,0.171-0.189,0.267-0.26
			c0.095-0.068,0.212-0.104,0.351-0.104c0.13,0,0.236,0.039,0.318,0.117s0.124,0.178,0.124,0.299c0,0.199-0.044,0.379-0.131,0.539
			c-0.086,0.16-0.182,0.318-0.285,0.475c-0.261,0.377-0.603,0.646-1.027,0.809c-0.425,0.164-0.862,0.244-1.313,0.244
			c-0.441,0-0.84-0.086-1.195-0.26s-0.654-0.406-0.897-0.701c-0.242-0.295-0.429-0.635-0.559-1.021
			c-0.13-0.385-0.195-0.791-0.195-1.215C94.499,32.834,94.522,32.521,94.57,32.201z M95.721,32.018c0,0.027,0.018,0.039,0.053,0.039
			h3.003c0.017,0,0.041-0.01,0.071-0.031s0.054-0.041,0.071-0.059c0.009-0.018,0.014-0.049,0.014-0.092s0-0.072,0-0.09
			c0-0.209-0.053-0.385-0.156-0.527c-0.104-0.143-0.234-0.256-0.391-0.338c-0.155-0.082-0.327-0.143-0.513-0.182
			c-0.187-0.039-0.362-0.059-0.527-0.059c-0.182,0-0.368,0.023-0.559,0.07c-0.19,0.049-0.364,0.125-0.52,0.229
			c-0.156,0.104-0.286,0.236-0.391,0.396c-0.104,0.16-0.156,0.35-0.156,0.566C95.721,31.957,95.721,31.984,95.721,32.018z"/>
		<path d="M102.585,35.334c0.009-0.078,0.026-0.154,0.052-0.229c0.026-0.072,0.063-0.137,0.11-0.188
			c0.048-0.053,0.111-0.078,0.188-0.078h1.223l0.156-0.17v-6.461l-0.053-0.051c-0.018-0.01-0.052-0.016-0.104-0.02
			c-0.052-0.006-0.087-0.008-0.104-0.008c-0.025,0-0.071,0.002-0.136,0.008c-0.065,0.004-0.106,0.01-0.124,0.02
			c-0.286,0.068-0.492,0.188-0.617,0.357c-0.126,0.168-0.211,0.355-0.254,0.559s-0.063,0.414-0.059,0.631
			c0.005,0.217-0.002,0.414-0.02,0.592s-0.069,0.324-0.155,0.441c-0.087,0.117-0.239,0.176-0.455,0.176
			c-0.174,0-0.304-0.082-0.391-0.248c-0.087-0.164-0.13-0.324-0.13-0.48v-2.496c0-0.061,0.016-0.135,0.046-0.221
			s0.071-0.172,0.123-0.254s0.11-0.154,0.176-0.215c0.064-0.061,0.137-0.09,0.215-0.09h1.572c0.087-0.045,0.154-0.068,0.202-0.072
			c0.047-0.004,0.11-0.006,0.188-0.006c0.069,0,0.13,0.002,0.182,0.006s0.117,0.027,0.195,0.072h2.898
			c0.174,0,0.327,0.072,0.462,0.221c0.134,0.146,0.201,0.303,0.201,0.467v2.588c0,0.174-0.052,0.338-0.156,0.494
			c-0.104,0.156-0.246,0.234-0.429,0.234c-0.147,0-0.286-0.066-0.416-0.195c-0.13-0.131-0.195-0.273-0.195-0.43v-1.377
			c0-0.148-0.036-0.275-0.11-0.385c-0.073-0.107-0.169-0.199-0.286-0.271c-0.116-0.074-0.242-0.129-0.377-0.164
			c-0.134-0.033-0.262-0.051-0.383-0.051c-0.018,0-0.053,0.002-0.104,0.006s-0.082,0.006-0.091,0.006l-0.052,0.053
			c0,0.104-0.007,0.234-0.02,0.391s-0.037,0.295-0.071,0.416l0.025,1.273v0.26l0.065,4.174l0.104,0.104
			c0.139,0,0.304,0.004,0.494,0.014c0.19,0.008,0.371,0.035,0.54,0.084c0.169,0.047,0.312,0.123,0.429,0.227
			c0.117,0.105,0.176,0.26,0.176,0.469c0,0.121-0.026,0.223-0.078,0.305c-0.053,0.084-0.122,0.148-0.208,0.195
			c-0.087,0.049-0.185,0.082-0.293,0.104c-0.108,0.023-0.219,0.033-0.331,0.033c-0.165,0-0.323-0.027-0.475-0.084
			c-0.152-0.057-0.311-0.084-0.475-0.084c-0.277,0-0.542,0.043-0.793,0.129c-0.252,0.088-0.516,0.131-0.793,0.131
			c-0.096,0-0.215-0.018-0.357-0.053c-0.144-0.035-0.286-0.082-0.429-0.143c-0.144-0.061-0.265-0.137-0.364-0.229
			c-0.1-0.09-0.149-0.188-0.149-0.291C102.572,35.477,102.576,35.412,102.585,35.334z"/>
		<path d="M109.773,35.287c0.052-0.125,0.164-0.188,0.338-0.188c0.104,0,0.192,0.02,0.267,0.059
			c0.073,0.039,0.162,0.059,0.267,0.059c0.026,0,0.082-0.004,0.169-0.014c0.034-0.018,0.082-0.051,0.143-0.104
			s0.092-0.086,0.092-0.104v-2.848l0.077-0.246v-1.678c-0.009-0.018-0.02-0.061-0.032-0.131c-0.013-0.068-0.02-0.111-0.02-0.129
			c0-0.053-0.004-0.139-0.013-0.26s-0.016-0.254-0.02-0.396c-0.005-0.145-0.009-0.277-0.013-0.404
			c-0.005-0.125-0.007-0.213-0.007-0.266c-0.018-0.035-0.044-0.076-0.078-0.123c-0.034-0.049-0.078-0.072-0.13-0.072h-0.715
			c-0.052,0-0.098-0.027-0.137-0.084s-0.076-0.123-0.11-0.201c-0.035-0.078-0.061-0.156-0.078-0.234s-0.026-0.135-0.026-0.17
			c0-0.164,0.044-0.287,0.13-0.369c0.087-0.084,0.191-0.137,0.313-0.164c0.121-0.025,0.251-0.039,0.39-0.039
			c0.147,0,0.277-0.004,0.391-0.012c0.017,0,0.059-0.01,0.123-0.027c0.065-0.016,0.106-0.025,0.124-0.025h0.077
			c0.217,0,0.416,0.068,0.599,0.201c0.182,0.135,0.272,0.324,0.272,0.566v2.82c0.018,0,0.046,0.004,0.085,0.014
			c0.039,0.008,0.067,0.014,0.084,0.014c0.069-0.018,0.128-0.078,0.176-0.184c0.048-0.104,0.093-0.182,0.137-0.232
			c0.226-0.262,0.487-0.469,0.786-0.625s0.622-0.234,0.969-0.234c0.269,0,0.514,0.049,0.734,0.143
			c0.221,0.096,0.405,0.229,0.553,0.396c0.147,0.17,0.262,0.369,0.345,0.6c0.082,0.229,0.123,0.479,0.123,0.746v3.51l0.156,0.145
			c0.112,0.008,0.228,0.021,0.345,0.039s0.221,0.051,0.312,0.104s0.165,0.121,0.221,0.207c0.057,0.088,0.085,0.201,0.085,0.338
			c0,0.227-0.087,0.389-0.26,0.488c-0.174,0.1-0.364,0.15-0.572,0.15c-0.069,0-0.139-0.01-0.208-0.027s-0.139-0.025-0.208-0.025
			c-0.156,0-0.308,0.012-0.455,0.033s-0.299,0.031-0.455,0.031c-0.043,0-0.132-0.002-0.267-0.006
			c-0.134-0.004-0.223-0.006-0.267-0.006c-0.077-0.018-0.16-0.035-0.246-0.053c-0.087-0.018-0.167-0.045-0.241-0.084
			c-0.073-0.039-0.132-0.09-0.175-0.15c-0.044-0.061-0.065-0.143-0.065-0.246c0-0.174,0.023-0.293,0.071-0.357
			c0.048-0.066,0.146-0.158,0.293-0.279c0.061-0.045,0.123-0.074,0.188-0.092c0.064-0.018,0.132-0.031,0.201-0.039
			s0.137-0.02,0.201-0.033c0.065-0.012,0.124-0.041,0.176-0.084c0-0.068,0.004-0.193,0.013-0.371s0.016-0.367,0.02-0.57
			c0.005-0.205,0.009-0.395,0.014-0.572c0.004-0.178,0.006-0.301,0.006-0.371v-0.832c0-0.146,0.007-0.311,0.02-0.488
			c0.014-0.178,0.005-0.342-0.025-0.494c-0.031-0.15-0.091-0.279-0.183-0.383c-0.091-0.104-0.24-0.156-0.448-0.156
			c-0.277,0-0.531,0.072-0.761,0.215s-0.431,0.322-0.604,0.539c-0.173,0.217-0.322,0.453-0.448,0.709s-0.224,0.5-0.292,0.734
			c0,0.01-0.005,0.031-0.014,0.064c-0.009,0.035-0.015,0.072-0.02,0.111c-0.004,0.039-0.009,0.076-0.013,0.111
			c-0.005,0.033-0.007,0.055-0.007,0.064c-0.009,0.018-0.02,0.061-0.032,0.129c-0.013,0.07-0.02,0.113-0.02,0.131v1.273
			c0,0.121,0.059,0.197,0.176,0.229c0.117,0.029,0.244,0.061,0.383,0.09c0.139,0.031,0.267,0.09,0.384,0.176
			c0.117,0.088,0.176,0.252,0.176,0.494v0.234c-0.122,0.164-0.26,0.266-0.416,0.305s-0.33,0.059-0.521,0.059
			c-0.155,0-0.305-0.01-0.448-0.031c-0.143-0.021-0.288-0.033-0.436-0.033c-0.173,0-0.338,0.025-0.494,0.078
			c-0.155,0.053-0.32,0.078-0.494,0.078c-0.199,0-0.383-0.07-0.552-0.209s-0.254-0.311-0.254-0.52
			C109.695,35.551,109.722,35.414,109.773,35.287z"/>
		<path d="M118.867,32.201c0.048-0.32,0.128-0.627,0.241-0.918c0.112-0.289,0.262-0.559,0.448-0.805
			c0.187-0.248,0.423-0.449,0.708-0.605c0.026-0.018,0.074-0.043,0.144-0.078c0.069-0.033,0.143-0.07,0.221-0.109
			s0.149-0.074,0.215-0.105c0.064-0.029,0.11-0.049,0.137-0.057c0.095-0.045,0.192-0.064,0.292-0.059
			c0.1,0.004,0.197,0.006,0.293,0.006c0.554,0,1.022,0.133,1.403,0.396c0.382,0.264,0.736,0.604,1.066,1.02
			c0.034,0.053,0.08,0.15,0.137,0.293c0.056,0.143,0.107,0.299,0.155,0.469c0.048,0.168,0.089,0.334,0.124,0.494
			c0.034,0.16,0.052,0.279,0.052,0.357c0,0.018-0.002,0.053-0.007,0.109c-0.004,0.057-0.006,0.094-0.006,0.111
			c-0.078,0.129-0.183,0.217-0.313,0.26s-0.265,0.078-0.402,0.104c-0.096,0-0.267-0.002-0.514-0.006s-0.51-0.006-0.787-0.006
			c-0.269,0-0.526,0.002-0.773,0.006s-0.418,0.006-0.513,0.006c-0.096,0-0.211,0.002-0.345,0.008
			c-0.135,0.004-0.267,0.008-0.396,0.012c-0.13,0.006-0.291,0.016-0.481,0.033l-0.052,0.039c0,0.01-0.002,0.039-0.007,0.092
			c-0.004,0.053-0.006,0.088-0.006,0.105c0,0.252,0.045,0.492,0.136,0.719c0.092,0.227,0.217,0.426,0.377,0.596
			c0.161,0.17,0.35,0.305,0.566,0.404c0.216,0.102,0.454,0.15,0.715,0.15c0.025,0,0.084-0.002,0.175-0.006
			c0.092-0.004,0.149-0.008,0.176-0.008c0.121-0.094,0.26-0.162,0.416-0.201s0.29-0.105,0.403-0.201
			c0.086-0.078,0.167-0.174,0.24-0.285c0.073-0.113,0.151-0.221,0.234-0.326c0.082-0.104,0.171-0.189,0.267-0.26
			c0.095-0.068,0.212-0.104,0.351-0.104c0.13,0,0.236,0.039,0.318,0.117s0.124,0.178,0.124,0.299c0,0.199-0.044,0.379-0.131,0.539
			c-0.086,0.16-0.182,0.318-0.285,0.475c-0.261,0.377-0.603,0.646-1.027,0.809c-0.425,0.164-0.862,0.244-1.313,0.244
			c-0.441,0-0.84-0.086-1.195-0.26s-0.654-0.406-0.897-0.701c-0.242-0.295-0.429-0.635-0.559-1.021
			c-0.13-0.385-0.195-0.791-0.195-1.215C118.796,32.834,118.819,32.521,118.867,32.201z M120.018,32.018
			c0,0.027,0.018,0.039,0.053,0.039h3.003c0.017,0,0.041-0.01,0.071-0.031s0.054-0.041,0.071-0.059
			c0.009-0.018,0.014-0.049,0.014-0.092s0-0.072,0-0.09c0-0.209-0.053-0.385-0.156-0.527c-0.104-0.143-0.234-0.256-0.391-0.338
			c-0.155-0.082-0.327-0.143-0.513-0.182c-0.187-0.039-0.362-0.059-0.527-0.059c-0.182,0-0.368,0.023-0.559,0.07
			c-0.19,0.049-0.364,0.125-0.52,0.229c-0.156,0.104-0.286,0.236-0.391,0.396c-0.104,0.16-0.156,0.35-0.156,0.566
			C120.018,31.957,120.018,31.984,120.018,32.018z"/>
		<path d="M129.573,36.582c-0.286,0-0.57-0.039-0.852-0.117c-0.282-0.078-0.549-0.188-0.8-0.326
			c-0.252-0.139-0.481-0.307-0.689-0.506s-0.377-0.426-0.507-0.676c-0.025-0.053-0.059-0.117-0.098-0.195
			c-0.038-0.078-0.077-0.154-0.116-0.229c-0.039-0.072-0.074-0.139-0.104-0.193c-0.03-0.057-0.045-0.09-0.045-0.098l-0.352-1.521
			v-1.781c0-0.035,0.011-0.105,0.032-0.215c0.021-0.107,0.046-0.227,0.072-0.357c0.025-0.129,0.054-0.256,0.084-0.377
			s0.054-0.213,0.071-0.273c0.104-0.338,0.243-0.674,0.416-1.006c0.174-0.334,0.384-0.635,0.631-0.904s0.53-0.486,0.852-0.65
			c0.32-0.164,0.676-0.246,1.065-0.246c0.208,0,0.401,0.027,0.579,0.084s0.353,0.133,0.526,0.227
			c0.018,0.01,0.059,0.031,0.123,0.066c0.065,0.033,0.135,0.07,0.208,0.109c0.074,0.039,0.142,0.076,0.202,0.111
			s0.1,0.057,0.117,0.064c0.277,0.199,0.502,0.457,0.676,0.773c0.173,0.316,0.325,0.623,0.455,0.916
			c0.025,0.061,0.061,0.117,0.104,0.17c0.044,0.053,0.074,0.113,0.091,0.182c0.061,0.209,0.106,0.412,0.137,0.611
			s0.071,0.402,0.124,0.611v1.572c-0.122,0.529-0.25,1.035-0.384,1.521c-0.135,0.484-0.345,0.961-0.631,1.43
			c-0.018,0.018-0.048,0.051-0.091,0.098s-0.089,0.096-0.137,0.143c-0.047,0.049-0.095,0.094-0.143,0.137s-0.08,0.07-0.098,0.078
			c-0.069,0.061-0.123,0.102-0.162,0.123s-0.067,0.041-0.085,0.059s-0.03,0.045-0.039,0.084s-0.013,0.104-0.013,0.189
			c0,0.078,0.004,0.195,0.013,0.352s0.033,0.309,0.071,0.461c0.039,0.152,0.094,0.283,0.163,0.396s0.164,0.17,0.286,0.17
			c0.164,0,0.283-0.059,0.357-0.176c0.073-0.117,0.123-0.264,0.149-0.436c0.026-0.174,0.041-0.361,0.045-0.561
			c0.005-0.199,0.022-0.385,0.053-0.559c0.03-0.172,0.089-0.318,0.175-0.436c0.087-0.117,0.222-0.176,0.403-0.176
			c0.147,0,0.258,0.072,0.332,0.215c0.073,0.143,0.118,0.275,0.136,0.396c0,0.045,0.002,0.133,0.007,0.268
			c0.004,0.135,0.007,0.223,0.007,0.266c0,0.252-0.024,0.525-0.072,0.818c-0.047,0.295-0.132,0.568-0.253,0.82
			c-0.122,0.25-0.286,0.461-0.494,0.631c-0.208,0.168-0.473,0.252-0.793,0.252c-0.313,0-0.578-0.07-0.8-0.213
			c-0.221-0.145-0.398-0.33-0.533-0.561c-0.134-0.229-0.235-0.482-0.305-0.76s-0.108-0.547-0.117-0.807L129.573,36.582z
			 M129.768,33.338c0.217,0.178,0.407,0.379,0.572,0.605c0.061,0.086,0.102,0.186,0.123,0.299c0.022,0.111,0.063,0.217,0.124,0.311
			h0.026h0.025c0.018-0.008,0.037-0.025,0.059-0.051c0.021-0.027,0.037-0.043,0.046-0.053c0.216-0.355,0.366-0.703,0.448-1.047
			c0.082-0.342,0.171-0.707,0.267-1.098v-1.469l-0.313-1.119c-0.025-0.094-0.091-0.225-0.194-0.389
			c-0.104-0.166-0.224-0.33-0.357-0.494c-0.135-0.166-0.275-0.307-0.423-0.424c-0.147-0.115-0.277-0.174-0.39-0.174h-0.976
			c-0.009,0-0.032,0.006-0.071,0.02c-0.039,0.012-0.067,0.023-0.085,0.031c-0.277,0.139-0.5,0.297-0.669,0.475
			s-0.306,0.373-0.409,0.586c-0.104,0.211-0.187,0.441-0.247,0.688c-0.062,0.248-0.126,0.514-0.195,0.801v1.885
			c0,0.146,0.03,0.305,0.091,0.475c0.061,0.168,0.135,0.314,0.221,0.436l0.039,0.012c0.009,0,0.026-0.004,0.053-0.012
			c0.017-0.01,0.061-0.041,0.13-0.098s0.112-0.094,0.13-0.111c0.173-0.104,0.368-0.188,0.585-0.252
			c0.217-0.066,0.425-0.098,0.624-0.098C129.295,33.072,129.551,33.16,129.768,33.338z M128.169,34.918
			c0.087,0.086,0.19,0.16,0.312,0.221c0.122,0.061,0.247,0.105,0.377,0.137c0.131,0.029,0.238,0.045,0.325,0.045
			c0.104,0,0.204-0.016,0.299-0.045c0.096-0.031,0.144-0.111,0.144-0.24c0-0.088-0.011-0.18-0.032-0.279
			c-0.022-0.1-0.063-0.186-0.124-0.254c-0.043-0.061-0.11-0.137-0.201-0.229c-0.091-0.09-0.142-0.137-0.149-0.137h-0.56
			c-0.043,0-0.093,0.018-0.149,0.053s-0.112,0.078-0.169,0.131c-0.057,0.051-0.104,0.105-0.143,0.162s-0.059,0.102-0.059,0.137
			C128.039,34.73,128.082,34.83,128.169,34.918z"/>
		<path d="M135.591,28.33l-0.832-0.221c-0.121-0.035-0.194-0.109-0.221-0.223s-0.039-0.217-0.039-0.313
			c0-0.174,0.046-0.332,0.137-0.477c0.091-0.143,0.231-0.215,0.423-0.215h2.287c0.183,0,0.332,0.064,0.449,0.189
			s0.175,0.275,0.175,0.447c0,0.156-0.032,0.281-0.097,0.371c-0.065,0.092-0.15,0.158-0.254,0.201
			c-0.104,0.045-0.221,0.072-0.351,0.086c-0.131,0.012-0.256,0.023-0.377,0.031c-0.035,0.018-0.063,0.109-0.085,0.275
			c-0.021,0.164-0.037,0.352-0.046,0.561s-0.015,0.416-0.02,0.619c-0.004,0.205-0.006,0.346-0.006,0.424
			c0,0.105-0.003,0.227-0.007,0.365c-0.004,0.141,0.023,0.258,0.085,0.354v3.014c0,0.078,0.032,0.184,0.097,0.314
			c0.065,0.129,0.147,0.258,0.247,0.385c0.1,0.125,0.204,0.236,0.313,0.332s0.206,0.145,0.292,0.145h0.91
			c0.121,0,0.245-0.041,0.371-0.125c0.125-0.082,0.244-0.182,0.357-0.299c0.112-0.119,0.208-0.246,0.286-0.387
			c0.077-0.139,0.13-0.26,0.155-0.365c0.018-0.766,0.033-1.584,0.046-2.459s0.015-1.707,0.007-2.5
			c0.008-0.018,0.017-0.064,0.025-0.143s0.018-0.131,0.026-0.156v-0.027c0-0.061-0.011-0.123-0.032-0.189
			c-0.022-0.064-0.063-0.109-0.124-0.137c-0.104-0.018-0.212-0.041-0.325-0.07c-0.112-0.031-0.217-0.074-0.312-0.131
			c-0.096-0.057-0.176-0.127-0.24-0.215c-0.065-0.086-0.098-0.195-0.098-0.324c0-0.182,0.063-0.326,0.188-0.43
			c0.125-0.104,0.274-0.156,0.448-0.156c0.087,0,0.167,0.01,0.24,0.027c0.074,0.018,0.149,0.025,0.228,0.025
			c0.156,0,0.308-0.012,0.455-0.033s0.299-0.031,0.455-0.031c0.026,0,0.065,0,0.117,0c0.061,0,0.121,0.002,0.182,0.006
			s0.117,0.006,0.169,0.006c0.061,0,0.1,0,0.117,0c0.199,0.018,0.377,0.092,0.533,0.221c0.156,0.131,0.234,0.305,0.234,0.521
			c0,0.139-0.031,0.246-0.092,0.324s-0.139,0.135-0.233,0.17c-0.096,0.033-0.2,0.057-0.313,0.064s-0.221,0.018-0.325,0.025
			c-0.069,0.018-0.104,0.053-0.104,0.105c0,0.043,0,0.086,0,0.129c0,0.113,0.009,0.223,0.026,0.326
			c0.017,0.105,0.025,0.219,0.025,0.34c0,0.096-0.002,0.176-0.006,0.242c-0.005,0.064-0.028,0.141-0.072,0.227v3.939
			c-0.052,0.131-0.082,0.266-0.091,0.404s-0.039,0.273-0.091,0.404c-0.096,0.252-0.219,0.516-0.37,0.789
			c-0.152,0.273-0.332,0.488-0.54,0.645c-0.269,0.174-0.551,0.314-0.845,0.418c-0.295,0.105-0.599,0.156-0.91,0.156
			c-0.46,0-0.88-0.105-1.261-0.318c-0.382-0.213-0.702-0.502-0.962-0.867c-0.113-0.156-0.193-0.34-0.241-0.547
			c-0.048-0.209-0.11-0.4-0.188-0.574V28.33z"/>
		<path d="M143.774,32.201c0.048-0.32,0.128-0.627,0.241-0.918c0.112-0.289,0.262-0.559,0.448-0.805
			c0.187-0.248,0.423-0.449,0.708-0.605c0.026-0.018,0.074-0.043,0.144-0.078c0.069-0.033,0.143-0.07,0.221-0.109
			s0.149-0.074,0.215-0.105c0.064-0.029,0.11-0.049,0.137-0.057c0.095-0.045,0.192-0.064,0.292-0.059
			c0.1,0.004,0.197,0.006,0.293,0.006c0.554,0,1.022,0.133,1.403,0.396c0.382,0.264,0.736,0.604,1.066,1.02
			c0.034,0.053,0.08,0.15,0.137,0.293c0.056,0.143,0.107,0.299,0.155,0.469c0.048,0.168,0.089,0.334,0.124,0.494
			c0.034,0.16,0.052,0.279,0.052,0.357c0,0.018-0.002,0.053-0.007,0.109c-0.004,0.057-0.006,0.094-0.006,0.111
			c-0.078,0.129-0.183,0.217-0.313,0.26s-0.265,0.078-0.402,0.104c-0.096,0-0.267-0.002-0.514-0.006s-0.51-0.006-0.787-0.006
			c-0.269,0-0.526,0.002-0.773,0.006s-0.418,0.006-0.513,0.006c-0.096,0-0.211,0.002-0.345,0.008
			c-0.135,0.004-0.267,0.008-0.396,0.012c-0.13,0.006-0.291,0.016-0.481,0.033l-0.052,0.039c0,0.01-0.002,0.039-0.007,0.092
			c-0.004,0.053-0.006,0.088-0.006,0.105c0,0.252,0.045,0.492,0.136,0.719c0.092,0.227,0.217,0.426,0.377,0.596
			c0.161,0.17,0.35,0.305,0.566,0.404c0.216,0.102,0.454,0.15,0.715,0.15c0.025,0,0.084-0.002,0.175-0.006
			c0.092-0.004,0.149-0.008,0.176-0.008c0.121-0.094,0.26-0.162,0.416-0.201s0.29-0.105,0.403-0.201
			c0.086-0.078,0.167-0.174,0.24-0.285c0.073-0.113,0.151-0.221,0.234-0.326c0.082-0.104,0.171-0.189,0.267-0.26
			c0.095-0.068,0.212-0.104,0.351-0.104c0.13,0,0.236,0.039,0.318,0.117s0.124,0.178,0.124,0.299c0,0.199-0.044,0.379-0.131,0.539
			c-0.086,0.16-0.182,0.318-0.285,0.475c-0.261,0.377-0.603,0.646-1.027,0.809c-0.425,0.164-0.862,0.244-1.313,0.244
			c-0.441,0-0.84-0.086-1.195-0.26s-0.654-0.406-0.897-0.701c-0.242-0.295-0.429-0.635-0.559-1.021
			c-0.13-0.385-0.195-0.791-0.195-1.215C143.703,32.834,143.727,32.521,143.774,32.201z M144.925,32.018
			c0,0.027,0.018,0.039,0.053,0.039h3.003c0.017,0,0.041-0.01,0.071-0.031s0.054-0.041,0.071-0.059
			c0.009-0.018,0.014-0.049,0.014-0.092s0-0.072,0-0.09c0-0.209-0.053-0.385-0.156-0.527c-0.104-0.143-0.234-0.256-0.391-0.338
			c-0.155-0.082-0.327-0.143-0.513-0.182c-0.187-0.039-0.362-0.059-0.527-0.059c-0.182,0-0.368,0.023-0.559,0.07
			c-0.19,0.049-0.364,0.125-0.52,0.229c-0.156,0.104-0.286,0.236-0.391,0.396c-0.104,0.16-0.156,0.35-0.156,0.566
			C144.925,31.957,144.925,31.984,144.925,32.018z"/>
		<path d="M150.989,32.201c0.048-0.32,0.128-0.627,0.241-0.918c0.112-0.289,0.262-0.559,0.448-0.805
			c0.187-0.248,0.423-0.449,0.708-0.605c0.026-0.018,0.074-0.043,0.144-0.078c0.069-0.033,0.143-0.07,0.221-0.109
			s0.149-0.074,0.215-0.105c0.064-0.029,0.11-0.049,0.137-0.057c0.095-0.045,0.192-0.064,0.292-0.059
			c0.1,0.004,0.197,0.006,0.293,0.006c0.554,0,1.022,0.133,1.403,0.396c0.382,0.264,0.736,0.604,1.066,1.02
			c0.034,0.053,0.08,0.15,0.137,0.293c0.056,0.143,0.107,0.299,0.155,0.469c0.048,0.168,0.089,0.334,0.124,0.494
			c0.034,0.16,0.052,0.279,0.052,0.357c0,0.018-0.002,0.053-0.007,0.109c-0.004,0.057-0.006,0.094-0.006,0.111
			c-0.078,0.129-0.183,0.217-0.313,0.26s-0.265,0.078-0.402,0.104c-0.096,0-0.267-0.002-0.514-0.006s-0.51-0.006-0.787-0.006
			c-0.269,0-0.526,0.002-0.773,0.006s-0.418,0.006-0.513,0.006c-0.096,0-0.211,0.002-0.345,0.008
			c-0.135,0.004-0.267,0.008-0.396,0.012c-0.13,0.006-0.291,0.016-0.481,0.033l-0.052,0.039c0,0.01-0.002,0.039-0.007,0.092
			c-0.004,0.053-0.006,0.088-0.006,0.105c0,0.252,0.045,0.492,0.136,0.719c0.092,0.227,0.217,0.426,0.377,0.596
			c0.161,0.17,0.35,0.305,0.566,0.404c0.216,0.102,0.454,0.15,0.715,0.15c0.025,0,0.084-0.002,0.175-0.006
			c0.092-0.004,0.149-0.008,0.176-0.008c0.121-0.094,0.26-0.162,0.416-0.201s0.29-0.105,0.403-0.201
			c0.086-0.078,0.167-0.174,0.24-0.285c0.073-0.113,0.151-0.221,0.234-0.326c0.082-0.104,0.171-0.189,0.267-0.26
			c0.095-0.068,0.212-0.104,0.351-0.104c0.13,0,0.236,0.039,0.318,0.117s0.124,0.178,0.124,0.299c0,0.199-0.044,0.379-0.131,0.539
			c-0.086,0.16-0.182,0.318-0.285,0.475c-0.261,0.377-0.603,0.646-1.027,0.809c-0.425,0.164-0.862,0.244-1.313,0.244
			c-0.441,0-0.84-0.086-1.195-0.26s-0.654-0.406-0.897-0.701c-0.242-0.295-0.429-0.635-0.559-1.021
			c-0.13-0.385-0.195-0.791-0.195-1.215C150.918,32.834,150.941,32.521,150.989,32.201z M152.14,32.018
			c0,0.027,0.018,0.039,0.053,0.039h3.003c0.017,0,0.041-0.01,0.071-0.031s0.054-0.041,0.071-0.059
			c0.009-0.018,0.014-0.049,0.014-0.092s0-0.072,0-0.09c0-0.209-0.053-0.385-0.156-0.527c-0.104-0.143-0.234-0.256-0.391-0.338
			c-0.155-0.082-0.327-0.143-0.513-0.182c-0.187-0.039-0.362-0.059-0.527-0.059c-0.182,0-0.368,0.023-0.559,0.07
			c-0.19,0.049-0.364,0.125-0.52,0.229c-0.156,0.104-0.286,0.236-0.391,0.396c-0.104,0.16-0.156,0.35-0.156,0.566
			C152.14,31.957,152.14,31.984,152.14,32.018z"/>
		<path d="M158.393,35.041c0.174-0.074,0.391-0.119,0.65-0.137l0.052-0.053c0.018-0.121,0.032-0.262,0.046-0.422
			c0.013-0.16,0.032-0.305,0.059-0.436v-3.002c0-0.061-0.055-0.107-0.163-0.137c-0.108-0.031-0.226-0.072-0.351-0.123
			c-0.126-0.053-0.243-0.129-0.352-0.229s-0.162-0.254-0.162-0.461c0-0.227,0.08-0.379,0.24-0.463
			c0.16-0.082,0.336-0.123,0.526-0.123c0.026,0,0.065,0,0.117,0c0.061,0,0.091,0.006,0.091,0.014
			c0.252,0.035,0.453,0.078,0.604,0.129c0.152,0.053,0.271,0.125,0.358,0.215c0.086,0.092,0.146,0.211,0.182,0.357
			c0.034,0.148,0.061,0.334,0.078,0.561c0.009,0.008,0.017,0.012,0.025,0.012h0.026c0.052,0,0.102-0.025,0.149-0.078
			c0.048-0.051,0.098-0.111,0.149-0.182c0.052-0.068,0.104-0.139,0.156-0.207c0.052-0.07,0.104-0.123,0.156-0.156
			c0.242-0.174,0.5-0.346,0.773-0.514c0.272-0.17,0.565-0.254,0.877-0.254c0.19,0,0.384,0.045,0.579,0.137
			c0.194,0.09,0.368,0.211,0.52,0.357s0.275,0.316,0.371,0.506c0.095,0.191,0.143,0.387,0.143,0.586v3.211
			c-0.035,0.096-0.055,0.182-0.059,0.26s-0.007,0.166-0.007,0.26c0,0.027,0.005,0.088,0.014,0.182l0.052,0.053
			c0.234,0.043,0.444,0.121,0.631,0.234c0.186,0.113,0.279,0.307,0.279,0.584c0,0.227-0.067,0.375-0.201,0.449
			c-0.135,0.074-0.306,0.111-0.514,0.111h-0.195c-0.069,0-0.19-0.002-0.364-0.008c-0.173-0.004-0.357-0.008-0.552-0.012
			c-0.195-0.006-0.38-0.012-0.553-0.02c-0.174-0.01-0.295-0.014-0.364-0.014c-0.277-0.078-0.416-0.256-0.416-0.533
			c0-0.328,0.093-0.539,0.279-0.631c0.187-0.09,0.418-0.145,0.695-0.162l0.053-0.053l0.116-0.506v-1.977
			c0.009-0.025,0.024-0.078,0.046-0.156s0.032-0.129,0.032-0.156v-0.025v-0.025c0-0.018-0.006-0.068-0.02-0.15
			c-0.013-0.082-0.023-0.131-0.032-0.148c0-0.027-0.002-0.074-0.007-0.145c-0.004-0.068-0.008-0.141-0.013-0.213
			c-0.004-0.074-0.009-0.146-0.013-0.215c-0.005-0.07-0.007-0.117-0.007-0.143c-0.078-0.131-0.178-0.207-0.299-0.229
			s-0.247-0.031-0.377-0.031c-0.217,0-0.418,0.051-0.604,0.154c-0.187,0.105-0.357,0.234-0.514,0.391s-0.297,0.328-0.423,0.514
			c-0.125,0.186-0.235,0.361-0.331,0.527c-0.009,0.008-0.026,0.031-0.052,0.07c-0.026,0.039-0.044,0.068-0.052,0.084
			c-0.026,0.045-0.087,0.145-0.183,0.301v1.48c-0.043,0.088-0.067,0.16-0.071,0.221c-0.005,0.063-0.007,0.139-0.007,0.234v0.195
			c0.053,0.078,0.137,0.123,0.254,0.137s0.238,0.037,0.364,0.072c0.125,0.033,0.233,0.094,0.324,0.182
			c0.092,0.086,0.137,0.242,0.137,0.467c0,0.184-0.067,0.318-0.201,0.41c-0.135,0.092-0.288,0.145-0.462,0.162h-0.533h-0.532
			c-0.018,0-0.062-0.008-0.13-0.025c-0.07-0.018-0.113-0.025-0.131-0.025c-0.147-0.018-0.294-0.029-0.441-0.033
			s-0.279-0.023-0.396-0.059s-0.21-0.096-0.279-0.182c-0.07-0.086-0.104-0.225-0.104-0.416
			C158.133,35.299,158.22,35.115,158.393,35.041z"/>
	</g>
</g>
<g id="Ghost">
</g>
<g id="Fortune_Teller">
</g>
<g id="DrinkSwap">
</g>
<g id="DickTator">
</g>
<g id="_x34_Eyes">
</g>
<g id="BabyTalk">
</g>
<g id="Backseat_Driver">
</g>
<g id="BAtman">
</g>
<g id="bodyguard">
</g>
<g id="BuckleUp">
</g>
<g id="RockPaperScissors">
</g>
<g id="Roger_Roger">
</g>
<g id="RoyaleWe">
</g>
<g id="Skip">
</g>
<g id="SwineRules">
</g>
<g id="Touchy_Feeley">
</g>
<g id="Wasted_Education">
</g>
<g id="Layer_86">
</g>
<g id="PointOfNoReturn">
</g>
<g id="Pirate">
</g>
<g id="Thief">
</g>
<g id="DepthPerception">
</g>
<g id="Narcissist">
</g>
<g id="MammaBird">
</g>
<g id="Staringcontest">
</g>
<g id="Cartwheel">
</g>
<g id="Censored">
</g>
<g id="Depersonalization">
</g>
<g id="threeman">
</g>
<g id="_x32__truths_and_a_lie">
</g>
<g id="cray_cray_cat_lady">
</g>
<g id="siblings">
</g>
<g id="later">
</g>
<g id="waterfall">
</g>
<g id="cheers">
</g>
<g id="rhyme">
</g>
<g id="categories">
</g>
<g id="tits">
</g>
<g id="dicks">
</g>
<g id="questions">
</g>
<g id="double_hands">
</g>
<g id="rewind">
</g>
<g id="Cryptkeeper">
</g>
<g id="Take_2_and_Redo">
</g>
<g id="Embryo">
</g>
<g id="I_am_Groot">
</g>
<g id="Mini_Me">
</g>
<g id="Ditto_1_">
</g>
<g id="reverse">
</g>
</svg>
