<?xml version="1.0" encoding="utf-8"?>
<!-- Generator: Adobe Illustrator 16.0.0, SVG Export Plug-In . SVG Version: 6.00 Build 0)  -->
<!DOCTYPE svg PUBLIC "-//W3C//DTD SVG 1.1//EN" "http://www.w3.org/Graphics/SVG/1.1/DTD/svg11.dtd">
<svg version="1.1" xmlns="http://www.w3.org/2000/svg" xmlns:xlink="http://www.w3.org/1999/xlink" x="0px" y="0px"
	 width="209.759px" height="62.361px" viewBox="0 0 209.759 62.361" enable-background="new 0 0 209.759 62.361"
	 xml:space="preserve">
<g id="Layer_1">
</g>
<g id="Blindman">
</g>
<g id="Compliments">
</g>
<g id="HAT">
</g>
<g id="speech">
</g>
<g id="TREX_ARMS">
</g>
<g id="slim_shady">
</g>
<g id="TIMEOUT">
</g>
<g id="Truth_or_Dare">
</g>
<g id="ARM_WRESTLE">
</g>
<g id="musical_chairs">
</g>
<g id="never_have_i_ever">
</g>
<g id="Trivia">
</g>
<g id="Drink_Pulling">
</g>
<g id="Sharing_is_Caring">
</g>
<g id="Not_It">
</g>
<g id="Cocktail_of_Doom">
</g>
<g id="Heads_up">
</g>
<g id="Archenemy">
</g>
<g id="battle_of_the_sexes">
</g>
<g id="one_must_drink">
</g>
<g id="rainbow_connection">
</g>
<g id="social_drinking">
</g>
<g id="Spin_the_bottle">
</g>
<g id="accents">
</g>
<g id="Slap">
</g>
<g id="down_the_hatch">
</g>
<g id="rubiks_cube">
</g>
<g id="bar_tender">
</g>
<g id="codenames">
</g>
<g id="hand_switch">
</g>
<g id="make_a_rule">
</g>
<g id="no_guts_no_glory">
</g>
<g id="pass">
</g>
<g id="santa">
</g>
<g id="snake_eyes">
</g>
<g id="lightning_round">
</g>
<g id="Bro">
</g>
<g id="LeastDrunk">
</g>
<g id="Know_It_All">
</g>
<g id="EyeContact">
</g>
<g id="UnderGuesser">
</g>
<g id="GodSaveTheQUeen">
</g>
<g id="Ghost">
</g>
<g id="Fortune_Teller">
</g>
<g id="DrinkSwap">
</g>
<g id="DickTator">
</g>
<g id="_x34_Eyes">
</g>
<g id="BabyTalk">
</g>
<g id="Backseat_Driver">
</g>
<g id="BAtman">
</g>
<g id="bodyguard">
</g>
<g id="BuckleUp">
</g>
<g id="RockPaperScissors">
</g>
<g id="Roger_Roger">
</g>
<g id="RoyaleWe">
</g>
<g id="Skip">
</g>
<g id="SwineRules">
</g>
<g id="Touchy_Feeley">
</g>
<g id="Wasted_Education">
</g>
<g id="Layer_86">
</g>
<g id="PointOfNoReturn">
</g>
<g id="Pirate">
</g>
<g id="Thief">
	<g>
		<path d="M61.083,41.932c0.014-0.133,0.044-0.26,0.088-0.385s0.106-0.23,0.187-0.32c0.081-0.088,0.188-0.131,0.319-0.131h2.068
			l0.264-0.287V29.875l-0.088-0.088c-0.03-0.014-0.088-0.025-0.176-0.033c-0.089-0.006-0.147-0.01-0.177-0.01
			c-0.044,0-0.121,0.004-0.23,0.01c-0.11,0.008-0.18,0.02-0.209,0.033c-0.484,0.117-0.833,0.32-1.045,0.605
			c-0.213,0.285-0.356,0.602-0.43,0.945c-0.073,0.346-0.106,0.701-0.099,1.068c0.007,0.365-0.004,0.699-0.033,1
			s-0.117,0.551-0.264,0.748s-0.403,0.297-0.771,0.297c-0.293,0-0.513-0.139-0.659-0.418c-0.147-0.277-0.221-0.549-0.221-0.814
			v-4.223c0-0.104,0.025-0.229,0.077-0.375s0.121-0.289,0.209-0.428c0.088-0.141,0.188-0.262,0.297-0.363
			c0.11-0.104,0.231-0.154,0.363-0.154h2.662c0.146-0.074,0.26-0.113,0.341-0.121c0.08-0.008,0.188-0.012,0.319-0.012
			c0.117,0,0.22,0.004,0.308,0.012s0.198,0.047,0.33,0.121h4.906c0.293,0,0.553,0.125,0.781,0.373
			c0.227,0.25,0.341,0.514,0.341,0.793v4.377c0,0.295-0.088,0.572-0.265,0.836c-0.176,0.266-0.418,0.396-0.726,0.396
			c-0.25,0-0.484-0.109-0.704-0.33c-0.22-0.219-0.33-0.461-0.33-0.727v-2.33c0-0.25-0.063-0.467-0.187-0.65
			c-0.125-0.184-0.286-0.336-0.484-0.461s-0.411-0.217-0.638-0.275c-0.228-0.059-0.444-0.088-0.649-0.088
			c-0.029,0-0.088,0.004-0.176,0.01c-0.088,0.008-0.14,0.012-0.154,0.012l-0.088,0.088c0,0.176-0.011,0.396-0.033,0.66
			c-0.021,0.264-0.063,0.498-0.121,0.705l0.044,2.154v0.441l0.11,7.061l0.176,0.178c0.234,0,0.514,0.006,0.836,0.021
			c0.323,0.014,0.627,0.063,0.913,0.143s0.528,0.209,0.727,0.385c0.197,0.176,0.297,0.439,0.297,0.793
			c0,0.205-0.044,0.377-0.132,0.516c-0.088,0.141-0.206,0.25-0.353,0.33c-0.146,0.082-0.312,0.141-0.495,0.176
			c-0.184,0.037-0.37,0.057-0.561,0.057c-0.279,0-0.547-0.049-0.803-0.145c-0.257-0.094-0.525-0.143-0.804-0.143
			c-0.469,0-0.916,0.074-1.342,0.221s-0.873,0.219-1.342,0.219c-0.162,0-0.363-0.029-0.605-0.088
			c-0.241-0.059-0.483-0.139-0.726-0.242c-0.242-0.102-0.447-0.23-0.616-0.385s-0.253-0.318-0.253-0.494
			C61.061,42.174,61.068,42.064,61.083,41.932z"/>
		<path d="M73.248,41.854c0.089-0.211,0.279-0.318,0.572-0.318c0.176,0,0.326,0.033,0.451,0.1c0.124,0.066,0.275,0.1,0.451,0.1
			c0.044,0,0.139-0.008,0.286-0.023c0.059-0.029,0.139-0.088,0.241-0.176s0.154-0.146,0.154-0.176v-4.818l0.132-0.418v-2.838
			c-0.015-0.029-0.032-0.102-0.055-0.219c-0.021-0.117-0.033-0.191-0.033-0.221c0-0.088-0.007-0.234-0.021-0.439
			s-0.026-0.43-0.033-0.672c-0.008-0.242-0.015-0.469-0.022-0.682c-0.007-0.213-0.011-0.363-0.011-0.451
			c-0.029-0.059-0.073-0.129-0.132-0.209s-0.132-0.121-0.22-0.121h-1.21c-0.088,0-0.165-0.047-0.231-0.143
			c-0.065-0.096-0.129-0.209-0.187-0.342c-0.06-0.131-0.104-0.264-0.133-0.396c-0.029-0.131-0.044-0.227-0.044-0.285
			c0-0.279,0.073-0.488,0.221-0.627c0.146-0.139,0.322-0.23,0.527-0.275c0.205-0.043,0.426-0.066,0.66-0.066
			c0.249,0,0.47-0.006,0.66-0.021c0.029,0,0.099-0.014,0.209-0.043s0.18-0.045,0.209-0.045h0.132c0.366,0,0.704,0.113,1.013,0.342
			c0.308,0.227,0.462,0.547,0.462,0.957V34.1c0.029,0,0.076,0.008,0.143,0.021c0.066,0.016,0.113,0.021,0.143,0.021
			c0.117-0.027,0.217-0.131,0.298-0.307c0.08-0.176,0.157-0.309,0.23-0.396c0.382-0.439,0.825-0.791,1.331-1.057
			c0.506-0.264,1.053-0.395,1.639-0.395c0.455,0,0.869,0.08,1.243,0.24c0.374,0.162,0.686,0.387,0.936,0.672
			c0.249,0.285,0.443,0.623,0.583,1.012c0.139,0.389,0.209,0.811,0.209,1.266v5.939l0.264,0.242c0.19,0.016,0.385,0.037,0.583,0.066
			s0.374,0.088,0.528,0.176c0.153,0.088,0.278,0.205,0.374,0.352c0.095,0.146,0.143,0.338,0.143,0.572
			c0,0.381-0.146,0.656-0.439,0.824c-0.294,0.17-0.616,0.254-0.969,0.254c-0.117,0-0.234-0.014-0.352-0.045
			c-0.118-0.029-0.235-0.043-0.353-0.043c-0.264,0-0.521,0.018-0.77,0.055c-0.25,0.037-0.506,0.055-0.771,0.055
			c-0.073,0-0.224-0.004-0.45-0.01c-0.228-0.008-0.378-0.012-0.451-0.012c-0.132-0.029-0.271-0.059-0.418-0.088
			c-0.147-0.029-0.283-0.076-0.407-0.143c-0.125-0.066-0.224-0.15-0.297-0.254c-0.073-0.102-0.11-0.242-0.11-0.418
			c0-0.293,0.04-0.494,0.121-0.605c0.081-0.109,0.245-0.268,0.495-0.473c0.103-0.072,0.209-0.123,0.319-0.154
			c0.109-0.029,0.223-0.051,0.341-0.064c0.117-0.016,0.23-0.033,0.341-0.057c0.11-0.021,0.209-0.068,0.297-0.143
			c0-0.117,0.008-0.326,0.022-0.627c0.014-0.301,0.025-0.623,0.032-0.967c0.008-0.346,0.015-0.668,0.022-0.969
			c0.007-0.301,0.011-0.51,0.011-0.627v-1.408c0-0.25,0.012-0.523,0.033-0.824c0.022-0.301,0.007-0.58-0.044-0.836
			c-0.052-0.258-0.154-0.475-0.308-0.65c-0.154-0.176-0.407-0.264-0.76-0.264c-0.469,0-0.898,0.121-1.286,0.363
			c-0.39,0.242-0.73,0.547-1.023,0.912c-0.294,0.367-0.547,0.768-0.759,1.199c-0.213,0.434-0.378,0.848-0.495,1.244
			c0,0.014-0.008,0.051-0.022,0.109s-0.025,0.121-0.032,0.188c-0.008,0.066-0.016,0.129-0.022,0.188
			c-0.008,0.059-0.011,0.094-0.011,0.109c-0.015,0.029-0.033,0.104-0.056,0.221c-0.021,0.117-0.032,0.189-0.032,0.219v2.156
			c0,0.205,0.099,0.334,0.297,0.385c0.198,0.053,0.414,0.104,0.648,0.154s0.451,0.15,0.649,0.297s0.297,0.426,0.297,0.836v0.396
			c-0.205,0.279-0.439,0.451-0.704,0.518c-0.264,0.064-0.558,0.098-0.88,0.098c-0.264,0-0.517-0.018-0.759-0.055
			s-0.488-0.055-0.737-0.055c-0.293,0-0.572,0.043-0.836,0.133c-0.264,0.088-0.543,0.131-0.836,0.131
			c-0.338,0-0.649-0.117-0.935-0.352c-0.286-0.234-0.43-0.527-0.43-0.881C73.116,42.299,73.16,42.066,73.248,41.854z"/>
		<path d="M89.649,41.666c0.169-0.293,0.43-0.439,0.781-0.439h2.42l0.154-0.217c0-0.059,0.003-0.16,0.011-0.307
			s0.019-0.299,0.033-0.459s0.025-0.314,0.033-0.459c0.007-0.146,0.011-0.248,0.011-0.307c0.015-0.029,0.029-0.102,0.044-0.219
			s0.029-0.189,0.044-0.219v-4.832h-2.574c-0.146,0-0.274-0.041-0.385-0.123s-0.202-0.184-0.275-0.303s-0.128-0.25-0.164-0.393
			c-0.037-0.143-0.056-0.273-0.056-0.393c0-0.24,0.059-0.426,0.176-0.561s0.261-0.236,0.43-0.303
			c0.168-0.068,0.352-0.113,0.55-0.135c0.198-0.023,0.377-0.035,0.539-0.035c0.249,0,0.495,0.016,0.737,0.045
			c0.241,0.029,0.487,0.043,0.736,0.043c0.176,0,0.349-0.014,0.518-0.043c0.168-0.029,0.341-0.045,0.517-0.045
			c0.249,0,0.51,0.082,0.781,0.242c0.271,0.162,0.407,0.396,0.407,0.705v8.184l0.132,0.131h2.332c0.132,0,0.253,0.049,0.362,0.146
			c0.11,0.098,0.206,0.213,0.286,0.348c0.081,0.135,0.14,0.277,0.176,0.428c0.037,0.148,0.056,0.275,0.056,0.381
			c0,0.209-0.056,0.418-0.165,0.629c-0.11,0.209-0.29,0.313-0.539,0.313h-7.502c-0.264,0-0.473-0.09-0.627-0.268
			c-0.154-0.18-0.231-0.396-0.231-0.652C89.396,42.252,89.481,41.957,89.649,41.666z M92.741,28.225
			c0.278-0.293,0.638-0.439,1.077-0.439c0.234,0,0.451,0.055,0.649,0.166c0.198,0.109,0.366,0.256,0.506,0.439
			s0.249,0.385,0.33,0.605c0.08,0.219,0.121,0.439,0.121,0.66c0,0.439-0.161,0.787-0.484,1.045c-0.322,0.256-0.689,0.385-1.1,0.385
			c-0.499,0-0.877-0.176-1.133-0.529c-0.257-0.352-0.385-0.77-0.385-1.254C92.323,28.879,92.462,28.52,92.741,28.225z"/>
		<path d="M101.133,36.629c0.081-0.541,0.217-1.059,0.407-1.551c0.19-0.49,0.443-0.945,0.759-1.363s0.715-0.76,1.199-1.023
			c0.044-0.029,0.124-0.072,0.242-0.133c0.117-0.057,0.242-0.119,0.374-0.186s0.253-0.125,0.362-0.176
			c0.11-0.053,0.188-0.086,0.231-0.1c0.161-0.074,0.326-0.105,0.495-0.1c0.168,0.008,0.333,0.012,0.495,0.012
			c0.938,0,1.73,0.223,2.376,0.67c0.645,0.449,1.246,1.023,1.804,1.729c0.059,0.088,0.136,0.252,0.231,0.494
			c0.095,0.242,0.183,0.506,0.264,0.793c0.08,0.285,0.15,0.564,0.209,0.836s0.088,0.473,0.088,0.604
			c0,0.031-0.004,0.092-0.011,0.188c-0.008,0.096-0.011,0.158-0.011,0.188c-0.133,0.219-0.309,0.367-0.528,0.439
			c-0.22,0.074-0.447,0.133-0.682,0.176c-0.162,0-0.451-0.004-0.869-0.01c-0.418-0.008-0.862-0.012-1.331-0.012
			c-0.455,0-0.892,0.004-1.31,0.012c-0.418,0.006-0.707,0.01-0.869,0.01c-0.161,0-0.355,0.004-0.583,0.012s-0.45,0.014-0.671,0.021
			c-0.22,0.008-0.491,0.027-0.813,0.057l-0.088,0.066c0,0.014-0.004,0.066-0.012,0.154c-0.007,0.088-0.011,0.148-0.011,0.178
			c0,0.428,0.077,0.832,0.231,1.217c0.153,0.383,0.366,0.719,0.638,1.008c0.271,0.287,0.59,0.516,0.957,0.686
			c0.366,0.17,0.77,0.254,1.21,0.254c0.044,0,0.143-0.004,0.297-0.012c0.154-0.006,0.253-0.01,0.297-0.01
			c0.205-0.162,0.44-0.275,0.704-0.342c0.265-0.066,0.491-0.18,0.683-0.34c0.146-0.133,0.282-0.295,0.406-0.484
			c0.125-0.191,0.257-0.375,0.396-0.551c0.139-0.176,0.289-0.322,0.451-0.439c0.161-0.117,0.358-0.176,0.594-0.176
			c0.22,0,0.399,0.066,0.539,0.197c0.139,0.133,0.209,0.301,0.209,0.506c0,0.338-0.073,0.643-0.22,0.914
			c-0.147,0.271-0.309,0.539-0.484,0.803c-0.44,0.637-1.02,1.094-1.738,1.369s-1.459,0.412-2.222,0.412
			c-0.748,0-1.423-0.146-2.024-0.439s-1.107-0.689-1.518-1.188c-0.411-0.498-0.727-1.074-0.946-1.729
			c-0.22-0.652-0.33-1.338-0.33-2.057C101.012,37.701,101.052,37.172,101.133,36.629z M103.08,36.322
			c0,0.043,0.029,0.064,0.088,0.064h5.082c0.029,0,0.069-0.018,0.121-0.055c0.051-0.035,0.092-0.068,0.121-0.098
			c0.015-0.029,0.021-0.082,0.021-0.154c0-0.074,0-0.125,0-0.154c0-0.352-0.088-0.648-0.264-0.891s-0.396-0.434-0.66-0.572
			s-0.554-0.242-0.869-0.309s-0.612-0.1-0.891-0.1c-0.308,0-0.624,0.041-0.946,0.121c-0.322,0.082-0.616,0.209-0.88,0.385
			c-0.264,0.178-0.484,0.4-0.66,0.672s-0.264,0.59-0.264,0.957C103.08,36.219,103.08,36.264,103.08,36.322z"/>
		<path d="M114.398,41.668c0.198-0.234,0.488-0.352,0.869-0.352c0.132,0,0.261,0.014,0.386,0.043
			c0.124,0.029,0.253,0.045,0.385,0.045h0.22c0.059,0,0.136-0.012,0.231-0.033c0.095-0.023,0.187-0.041,0.274-0.055
			c0.088-0.016,0.205-0.045,0.353-0.088l0.088-0.088v-7.039c0-0.104-0.052-0.188-0.154-0.254c-0.103-0.064-0.198-0.098-0.286-0.098
			c-0.19,0-0.374,0.047-0.55,0.143s-0.374,0.143-0.594,0.143c-0.323,0-0.572-0.066-0.748-0.197s-0.374-0.328-0.594-0.592
			c0-0.029-0.004-0.096-0.012-0.197c-0.008-0.104-0.011-0.168-0.011-0.197c0-0.336,0.103-0.582,0.308-0.734
			c0.206-0.154,0.451-0.256,0.737-0.309c0.286-0.051,0.59-0.068,0.913-0.055c0.322,0.016,0.594,0.023,0.814,0.023l0.176-0.154
			c0.103-0.439,0.197-0.814,0.286-1.129c0.088-0.314,0.205-0.596,0.352-0.846c0.146-0.248,0.337-0.48,0.572-0.701
			c0.234-0.219,0.55-0.445,0.945-0.68c0.015-0.014,0.056-0.043,0.121-0.088c0.066-0.043,0.114-0.072,0.144-0.088
			c0.205-0.117,0.439-0.193,0.704-0.23c0.264-0.035,0.483-0.076,0.66-0.119h0.044c0.439,0,0.909,0.053,1.407,0.16
			c0.499,0.107,0.961,0.279,1.387,0.516c0.425,0.236,0.777,0.539,1.056,0.906s0.418,0.814,0.418,1.344
			c0,0.25-0.033,0.486-0.099,0.715c-0.066,0.227-0.165,0.436-0.297,0.627c-0.133,0.191-0.298,0.34-0.495,0.451
			c-0.198,0.109-0.43,0.164-0.693,0.164c-0.352,0-0.624-0.096-0.814-0.285c-0.19-0.191-0.329-0.422-0.418-0.693
			c-0.088-0.271-0.136-0.561-0.143-0.869c-0.008-0.309,0.004-0.586,0.033-0.836c-0.206-0.162-0.378-0.26-0.518-0.297
			s-0.318-0.055-0.539-0.055c-0.264,0-0.527,0.047-0.792,0.143c-0.264,0.096-0.494,0.225-0.692,0.385
			c-0.198,0.162-0.359,0.363-0.484,0.605s-0.187,0.502-0.187,0.781c0,0.029,0.003,0.088,0.011,0.176
			c0.007,0.088,0.011,0.139,0.011,0.154l0.088,0.088c0.161,0.029,0.297,0.047,0.407,0.055s0.224,0.016,0.341,0.021
			c0.117,0.008,0.213,0.012,0.286,0.012c0.205,0.014,0.418,0.025,0.638,0.033c0.221,0.008,0.419,0.041,0.595,0.098
			c0.176,0.061,0.318,0.158,0.429,0.299c0.11,0.139,0.165,0.348,0.165,0.627c0,0.365-0.14,0.641-0.418,0.824
			c-0.279,0.184-0.587,0.275-0.924,0.275c-0.206,0-0.396-0.016-0.572-0.045s-0.367-0.043-0.572-0.043h-0.374l-0.088,0.088v7.15
			h2.068c0.146,0,0.274,0.043,0.385,0.131s0.201,0.195,0.275,0.318c0.073,0.125,0.128,0.262,0.165,0.408
			c0.036,0.146,0.055,0.279,0.055,0.396c0,0.205-0.055,0.406-0.165,0.604c-0.11,0.199-0.29,0.297-0.539,0.297h-6.556
			c-0.25,0-0.44-0.098-0.572-0.297c-0.132-0.197-0.198-0.398-0.198-0.604C114.102,42.203,114.201,41.902,114.398,41.668z"/>
	</g>
</g>
<g id="DepthPerception">
</g>
<g id="Narcissist">
</g>
<g id="MammaBird">
</g>
<g id="Staringcontest">
</g>
<g id="Cartwheel">
</g>
<g id="Censored">
</g>
<g id="Depersonalization">
</g>
<g id="threeman">
</g>
<g id="_x32__truths_and_a_lie">
</g>
<g id="cray_cray_cat_lady">
</g>
<g id="siblings">
</g>
<g id="later">
</g>
<g id="waterfall">
</g>
<g id="cheers">
</g>
<g id="rhyme">
</g>
<g id="categories">
</g>
<g id="tits">
</g>
<g id="dicks">
</g>
<g id="questions">
</g>
<g id="double_hands">
</g>
<g id="rewind">
</g>
<g id="Cryptkeeper">
</g>
<g id="Take_2_and_Redo">
</g>
<g id="Embryo">
</g>
<g id="I_am_Groot">
</g>
<g id="Mini_Me">
</g>
<g id="Ditto_1_">
</g>
<g id="reverse">
</g>
</svg>
