<?xml version="1.0" encoding="utf-8"?>
<!-- Generator: Adobe Illustrator 16.0.0, SVG Export Plug-In . SVG Version: 6.00 Build 0)  -->
<!DOCTYPE svg PUBLIC "-//W3C//DTD SVG 1.1//EN" "http://www.w3.org/Graphics/SVG/1.1/DTD/svg11.dtd">
<svg version="1.1" xmlns="http://www.w3.org/2000/svg" xmlns:xlink="http://www.w3.org/1999/xlink" x="0px" y="0px"
	 width="209.759px" height="62.361px" viewBox="0 0 209.759 62.361" enable-background="new 0 0 209.759 62.361"
	 xml:space="preserve">
<g id="Layer_1">
</g>
<g id="Hat">
</g>
<g id="Compliments">
</g>
<g id="HAT">
</g>
<g id="speech">
</g>
<g id="TREX_ARMS">
</g>
<g id="slim_shady">
</g>
<g id="TIMEOUT">
</g>
<g id="Truth_or_Dare">
</g>
<g id="ARM_WRESTLE">
</g>
<g id="musical_chairs">
</g>
<g id="never_have_i_ever">
</g>
<g id="Trivia">
</g>
<g id="Drink_Pulling">
</g>
<g id="Sharing_is_Caring">
</g>
<g id="Not_It">
</g>
<g id="Cocktail_of_Doom">
</g>
<g id="Heads_up">
</g>
<g id="Archenemy">
</g>
<g id="battle_of_the_sexes">
</g>
<g id="one_must_drink">
</g>
<g id="rainbow_connection">
</g>
<g id="social_drinking">
</g>
<g id="Spin_the_bottle">
</g>
<g id="accents">
</g>
<g id="Slap">
</g>
<g id="give_3">
</g>
<g id="rub">
</g>
<g id="down_the_hatch">
</g>
<g id="rubiks_cube">
</g>
<g id="bar_tender">
</g>
<g id="codenames">
</g>
<g id="hand_switch">
</g>
<g id="make_a_rule">
</g>
<g id="no_guts_no_glory">
</g>
<g id="pass">
</g>
<g id="santa">
</g>
<g id="snake_eyes">
</g>
<g id="bodyguard">
</g>
<g id="threeman">
</g>
<g id="_x32__truths_and_a_lie">
</g>
<g id="cray_cray_cat_lady">
</g>
<g id="siblings">
</g>
<g id="take_2">
</g>
<g id="take_3">
</g>
<g id="later">
</g>
<g id="waterfall">
</g>
<g id="cheers">
</g>
<g id="rhyme">
</g>
<g id="categories">
</g>
<g id="tits">
</g>
<g id="dicks">
</g>
<g id="questions">
</g>
<g id="double_hands">
</g>
<g id="give_2">
	<g>
		<path d="M42.177,45.208c-1.379,0-2.626-0.273-3.744-0.819s-2.086-1.293-2.905-2.242s-1.45-2.048-1.892-3.296
			c-0.442-1.248-0.663-2.574-0.663-3.978c0-1.482,0.234-2.86,0.702-4.134c0.468-1.274,1.117-2.392,1.95-3.354
			c0.831-0.961,1.833-1.716,3.003-2.262c1.17-0.547,2.457-0.819,3.86-0.819c1.586,0,2.978,0.358,4.174,1.073
			c1.195,0.715,2.184,1.67,2.964,2.865v-3.588h4.563v19.462c0,1.507-0.286,2.859-0.857,4.056c-0.572,1.195-1.359,2.21-2.359,3.042
			c-1.002,0.832-2.198,1.469-3.589,1.911c-1.391,0.441-2.905,0.663-4.543,0.663c-2.236,0-4.114-0.371-5.636-1.111
			c-1.521-0.741-2.827-1.788-3.919-3.14l2.847-2.77c0.78,0.962,1.761,1.716,2.944,2.263c1.183,0.546,2.438,0.818,3.764,0.818
			c0.806,0,1.579-0.11,2.32-0.331c0.741-0.222,1.397-0.565,1.97-1.034c0.571-0.468,1.02-1.066,1.346-1.794
			c0.324-0.728,0.487-1.586,0.487-2.573v-2.574c-0.677,1.17-1.625,2.073-2.847,2.71C44.894,44.889,43.581,45.208,42.177,45.208z
			 M43.932,41.035c0.571,0,1.118-0.091,1.638-0.273c0.521-0.182,1.001-0.429,1.443-0.741c0.441-0.312,0.832-0.676,1.17-1.092
			c0.338-0.415,0.598-0.857,0.78-1.326v-4.875c-0.468-1.195-1.203-2.157-2.204-2.886c-1.001-0.728-2.047-1.092-3.139-1.092
			c-0.807,0-1.535,0.176-2.185,0.526c-0.65,0.351-1.209,0.819-1.677,1.404s-0.826,1.254-1.072,2.008
			c-0.248,0.755-0.371,1.535-0.371,2.341c0,0.832,0.143,1.612,0.43,2.34c0.285,0.728,0.682,1.364,1.189,1.911
			c0.507,0.546,1.098,0.975,1.774,1.286C42.385,40.878,43.126,41.035,43.932,41.035z"/>
		<path d="M62.612,21.807v-5.187h5.227v5.187H62.612z M62.612,45.09V24.654h5.227V45.09H62.612z"/>
		<path d="M81.761,45.09l-7.527-20.437h5.383l5.187,16.186l5.227-16.186h4.913L87.416,45.09H81.761z"/>
		<path d="M110.153,45.48c-1.639,0-3.12-0.279-4.446-0.838s-2.457-1.319-3.394-2.282c-0.936-0.961-1.657-2.079-2.164-3.354
			c-0.507-1.273-0.761-2.613-0.761-4.017c0-1.456,0.247-2.828,0.741-4.115c0.493-1.287,1.209-2.418,2.145-3.393
			c0.937-0.975,2.073-1.748,3.413-2.32c1.339-0.572,2.84-0.858,4.504-0.858s3.152,0.286,4.466,0.858
			c1.313,0.572,2.431,1.34,3.354,2.301c0.922,0.962,1.624,2.08,2.105,3.354c0.481,1.274,0.722,2.601,0.722,3.979
			c0,0.338-0.007,0.663-0.02,0.975c-0.014,0.313-0.046,0.572-0.098,0.78h-15.795c0.078,0.807,0.273,1.521,0.585,2.145
			c0.313,0.624,0.715,1.157,1.209,1.6s1.053,0.78,1.677,1.014c0.624,0.234,1.274,0.352,1.95,0.352c1.04,0,2.021-0.254,2.944-0.761
			s1.554-1.176,1.892-2.009l4.485,1.248c-0.755,1.561-1.957,2.841-3.607,3.842C114.41,44.98,112.44,45.48,110.153,45.48z
			 M115.457,33.157c-0.131-1.534-0.696-2.763-1.696-3.687c-1.002-0.922-2.217-1.384-3.646-1.384c-0.702,0-1.359,0.124-1.97,0.37
			c-0.611,0.248-1.15,0.592-1.619,1.033c-0.468,0.443-0.852,0.976-1.15,1.6s-0.475,1.313-0.526,2.067H115.457z"/>
		<path d="M139.91,45.09c0-1.17,0.091-2.229,0.272-3.179c0.182-0.948,0.5-1.826,0.956-2.632c0.454-0.806,1.078-1.561,1.871-2.263
			s1.801-1.391,3.023-2.066c1.065-0.572,2.008-1.073,2.827-1.502s1.501-0.825,2.048-1.189c0.546-0.363,0.961-0.734,1.247-1.111
			s0.43-0.813,0.43-1.307c0-0.779-0.313-1.449-0.937-2.008c-0.624-0.56-1.521-0.84-2.69-0.84c-0.624,0-1.196,0.086-1.716,0.254
			c-0.521,0.17-1.009,0.396-1.463,0.683c-0.455,0.286-0.871,0.604-1.248,0.956c-0.377,0.351-0.722,0.721-1.033,1.111l-3.354-3.861
			c0.338-0.363,0.819-0.76,1.443-1.189c0.624-0.429,1.358-0.832,2.203-1.209s1.781-0.688,2.809-0.936
			c1.026-0.247,2.125-0.371,3.295-0.371c1.326,0,2.509,0.163,3.549,0.488c1.04,0.324,1.917,0.779,2.633,1.364
			c0.715,0.585,1.261,1.287,1.638,2.106c0.377,0.818,0.565,1.709,0.565,2.672c0,0.91-0.169,1.715-0.507,2.417
			s-0.767,1.326-1.287,1.872s-1.086,1.021-1.696,1.424c-0.611,0.403-1.203,0.761-1.774,1.072c-0.468,0.261-1.001,0.56-1.599,0.897
			c-0.599,0.338-1.189,0.708-1.774,1.111s-1.125,0.819-1.619,1.248s-0.871,0.852-1.131,1.268h11.817v4.719H139.91z"/>
	</g>
</g>
<g id="rewind">
</g>
<g id="Cryptkeeper">
</g>
<g id="Take_2_and_Redo">
</g>
<g id="Embryo">
</g>
<g id="I_am_Groot">
</g>
<g id="Mini_Me">
</g>
<g id="Ditto_1_">
</g>
</svg>
