<?xml version="1.0" encoding="utf-8"?>
<!-- Generator: Adobe Illustrator 16.0.0, SVG Export Plug-In . SVG Version: 6.00 Build 0)  -->
<!DOCTYPE svg PUBLIC "-//W3C//DTD SVG 1.1//EN" "http://www.w3.org/Graphics/SVG/1.1/DTD/svg11.dtd">
<svg version="1.1" xmlns="http://www.w3.org/2000/svg" xmlns:xlink="http://www.w3.org/1999/xlink" x="0px" y="0px"
	 width="209.759px" height="62.361px" viewBox="0 0 209.759 62.361" enable-background="new 0 0 209.759 62.361"
	 xml:space="preserve">
<g id="Layer_1">
</g>
<g id="Blindman">
</g>
<g id="Compliments">
</g>
<g id="HAT">
</g>
<g id="speech">
</g>
<g id="TREX_ARMS">
</g>
<g id="slim_shady">
</g>
<g id="TIMEOUT">
</g>
<g id="Truth_or_Dare">
</g>
<g id="ARM_WRESTLE">
</g>
<g id="musical_chairs">
</g>
<g id="never_have_i_ever">
</g>
<g id="Trivia">
</g>
<g id="Drink_Pulling">
</g>
<g id="Sharing_is_Caring">
</g>
<g id="Not_It">
</g>
<g id="Cocktail_of_Doom">
</g>
<g id="Heads_up">
</g>
<g id="Archenemy">
</g>
<g id="battle_of_the_sexes">
</g>
<g id="one_must_drink">
</g>
<g id="rainbow_connection">
</g>
<g id="social_drinking">
</g>
<g id="Spin_the_bottle">
</g>
<g id="accents">
</g>
<g id="Slap">
</g>
<g id="down_the_hatch">
</g>
<g id="rubiks_cube">
</g>
<g id="bar_tender">
</g>
<g id="codenames">
</g>
<g id="hand_switch">
</g>
<g id="make_a_rule">
</g>
<g id="no_guts_no_glory">
</g>
<g id="pass">
</g>
<g id="santa">
</g>
<g id="snake_eyes">
</g>
<g id="lightning_round">
</g>
<g id="Bro">
</g>
<g id="LeastDrunk">
</g>
<g id="Know_It_All">
</g>
<g id="EyeContact">
</g>
<g id="UnderGuesser">
</g>
<g id="GodSaveTheQUeen">
</g>
<g id="Ghost">
</g>
<g id="Fortune_Teller">
</g>
<g id="DrinkSwap">
</g>
<g id="DickTator">
</g>
<g id="_x34_Eyes">
</g>
<g id="BabyTalk">
</g>
<g id="Backseat_Driver">
</g>
<g id="BAtman">
</g>
<g id="bodyguard">
</g>
<g id="BuckleUp">
</g>
<g id="RockPaperScissors">
</g>
<g id="Roger_Roger">
</g>
<g id="RoyaleWe">
	<g>
		<path d="M47.399,41.282c-0.008-0.418-0.041-0.836-0.1-1.254s-0.15-0.824-0.274-1.221c-0.125-0.396-0.29-0.77-0.495-1.123
			c-0.104-0.16-0.202-0.344-0.297-0.549c-0.096-0.205-0.225-0.367-0.386-0.484c-0.205-0.043-0.381-0.08-0.527-0.109
			c-0.147-0.029-0.29-0.049-0.43-0.055c-0.14-0.008-0.282-0.012-0.429-0.012c-0.132,0-0.294,0-0.484,0h-0.813
			c-0.088,0-0.22,0.012-0.396,0.033c-0.176,0.021-0.271,0.041-0.285,0.055l-0.089,0.088v4.137c0,0.131,0.133,0.23,0.396,0.297
			s0.55,0.143,0.858,0.23c0.308,0.088,0.594,0.217,0.857,0.385c0.264,0.17,0.396,0.438,0.396,0.803c0,0.234-0.063,0.418-0.188,0.551
			c-0.125,0.131-0.278,0.234-0.462,0.309c-0.184,0.072-0.382,0.121-0.594,0.143c-0.213,0.021-0.407,0.033-0.583,0.033h-0.242
			c-0.132,0-0.363-0.004-0.693-0.012s-0.678-0.014-1.045-0.021c-0.366-0.008-0.711-0.02-1.034-0.033
			c-0.322-0.014-0.55-0.021-0.682-0.021c-0.146,0.014-0.282-0.02-0.407-0.1c-0.124-0.08-0.234-0.188-0.33-0.318
			c-0.095-0.133-0.168-0.271-0.22-0.418s-0.077-0.287-0.077-0.418c0-0.279,0.066-0.496,0.198-0.65s0.301-0.268,0.506-0.34
			c0.205-0.074,0.429-0.117,0.671-0.133c0.242-0.014,0.474-0.021,0.693-0.021c0.029-0.029,0.065-0.074,0.11-0.133
			c0.044-0.059,0.065-0.102,0.065-0.131l-0.044-4.906v-0.439l-0.132-5.17l-0.176-0.178l-1.387-0.33
			c-0.19-0.057-0.308-0.186-0.352-0.385c-0.044-0.197-0.066-0.369-0.066-0.516c0-0.234,0.059-0.467,0.177-0.693
			c0.117-0.229,0.314-0.342,0.594-0.342h3.366c0.161-0.088,0.308-0.135,0.439-0.143s0.278-0.012,0.44-0.012
			c0.763,0,1.528,0.053,2.299,0.154c0.77,0.104,1.463,0.309,2.079,0.617c0.616,0.307,1.114,0.752,1.496,1.33
			c0.381,0.58,0.571,1.346,0.571,2.299c0,0.41-0.036,0.848-0.109,1.309c-0.073,0.463-0.242,0.863-0.506,1.199
			c-0.088,0.117-0.202,0.229-0.341,0.33c-0.14,0.104-0.275,0.205-0.407,0.309s-0.242,0.217-0.33,0.34
			c-0.088,0.125-0.132,0.275-0.132,0.451v0.199c0.293,0.455,0.523,0.965,0.692,1.529s0.312,1.088,0.43,1.572
			c0.044,0.176,0.069,0.406,0.076,0.693c0.008,0.285,0.07,0.518,0.188,0.693c0.103,0.16,0.228,0.271,0.374,0.33
			s0.293,0.109,0.439,0.152c0.146,0.045,0.294,0.104,0.44,0.178c0.146,0.072,0.271,0.197,0.374,0.373
			c0.132,0.205,0.213,0.346,0.242,0.418c0.029,0.074,0.044,0.205,0.044,0.396c0,0.25-0.081,0.49-0.242,0.727
			c-0.161,0.234-0.389,0.352-0.682,0.352h-0.044c-0.265-0.045-0.558-0.063-0.88-0.055c-0.323,0.006-0.631-0.008-0.925-0.045
			c-0.293-0.037-0.554-0.129-0.78-0.275c-0.228-0.146-0.371-0.395-0.43-0.748C47.402,42.108,47.406,41.7,47.399,41.282z
			 M42.592,30.03c-0.132,0.043-0.198,0.123-0.198,0.242v3.783c0,0.043,0.022,0.117,0.066,0.221c0.044,0.102,0.08,0.176,0.11,0.219
			h0.506c0.19,0,0.374-0.014,0.55-0.043s0.352-0.045,0.528-0.045c0.22,0,0.432,0.016,0.638,0.045
			c0.205,0.029,0.425,0.043,0.66,0.043h0.726c0.528-0.16,0.965-0.414,1.31-0.758c0.344-0.346,0.517-0.805,0.517-1.375
			c0-0.338-0.044-0.672-0.132-1.002s-0.279-0.605-0.572-0.824c-0.558-0.25-1.144-0.414-1.76-0.496
			c-0.616-0.08-1.232-0.121-1.848-0.121c-0.074,0-0.206,0-0.396,0s-0.322,0.008-0.396,0.023
			C42.826,29.956,42.724,29.985,42.592,30.03z"/>
		<path d="M54.218,35.661c0.198-0.777,0.51-1.467,0.936-2.068c0.425-0.6,0.972-1.08,1.639-1.439s1.463-0.539,2.387-0.539
			c0.704,0,1.313,0.135,1.826,0.406s1.026,0.627,1.54,1.066c0.015,0.016,0.029,0.033,0.044,0.055
			c0.015,0.023,0.029,0.033,0.044,0.033c0.177,0.338,0.355,0.672,0.539,1.002s0.353,0.668,0.506,1.012
			c0.154,0.346,0.279,0.697,0.374,1.057c0.096,0.359,0.144,0.729,0.144,1.111c0,0.043-0.004,0.127-0.011,0.252
			c-0.008,0.125-0.012,0.201-0.012,0.23c-0.029,0.088-0.069,0.246-0.121,0.473c-0.051,0.229-0.109,0.471-0.176,0.727
			c-0.065,0.258-0.128,0.504-0.187,0.738s-0.096,0.395-0.11,0.482c-0.117,0.396-0.319,0.814-0.604,1.254
			c-0.286,0.441-0.62,0.84-1.001,1.199c-0.382,0.359-0.796,0.656-1.243,0.891c-0.448,0.236-0.892,0.354-1.331,0.354
			c-0.221,0-0.389-0.016-0.506-0.045c-0.118-0.029-0.217-0.066-0.298-0.109c-0.08-0.045-0.164-0.092-0.253-0.143
			c-0.088-0.053-0.212-0.1-0.374-0.145c-0.073-0.014-0.212-0.035-0.418-0.064c-0.205-0.029-0.352-0.059-0.439-0.088
			c-0.073-0.029-0.173-0.078-0.297-0.145c-0.125-0.064-0.25-0.131-0.374-0.197c-0.125-0.066-0.242-0.125-0.353-0.176
			c-0.109-0.051-0.172-0.084-0.187-0.1c-0.294-0.189-0.562-0.484-0.803-0.879c-0.242-0.396-0.451-0.822-0.628-1.277
			c-0.176-0.453-0.312-0.908-0.406-1.363c-0.096-0.455-0.144-0.844-0.144-1.166C53.921,37.237,54.021,36.438,54.218,35.661z
			 M55.846,38.565c0.022,0.205,0.056,0.41,0.1,0.615c0.044,0.207,0.099,0.4,0.165,0.584c0.065,0.184,0.143,0.318,0.23,0.406
			l1.034,1.035c0.161,0.043,0.29,0.072,0.385,0.088c0.096,0.014,0.194,0.029,0.298,0.043c0.102,0.016,0.19,0.023,0.264,0.023
			c0.015,0.014,0.117,0.021,0.308,0.021c0.205,0,0.359,0,0.462,0c0.294,0,0.547-0.004,0.76-0.012
			c0.212-0.008,0.45-0.063,0.715-0.164c0.63-0.514,1.048-1.068,1.254-1.662c0.205-0.594,0.308-1.279,0.308-2.057
			c0-0.455-0.048-0.877-0.143-1.266c-0.096-0.387-0.224-0.795-0.385-1.221c-0.074-0.189-0.195-0.348-0.363-0.473
			c-0.169-0.125-0.353-0.234-0.55-0.33c-0.198-0.096-0.404-0.18-0.616-0.252c-0.213-0.074-0.393-0.154-0.539-0.242h-1.386
			c-0.015,0-0.11,0.055-0.286,0.164s-0.309,0.195-0.396,0.254c-0.352,0.248-0.635,0.52-0.847,0.813
			c-0.213,0.295-0.382,0.605-0.506,0.936c-0.125,0.33-0.206,0.68-0.242,1.045c-0.037,0.367-0.055,0.756-0.055,1.166
			C55.813,38.198,55.824,38.36,55.846,38.565z"/>
		<path d="M67.208,44.132c0.309-0.41,0.741-0.617,1.299-0.617c0.454,0,0.792,0.15,1.012,0.451s0.33,0.664,0.33,1.09
			c0,0.16-0.03,0.297-0.088,0.406c-0.06,0.111-0.088,0.238-0.088,0.385c0,0.029,0.003,0.066,0.011,0.111
			c0.007,0.043,0.033,0.066,0.077,0.066h0.594c0.132-0.104,0.238-0.191,0.319-0.266c0.08-0.072,0.164-0.15,0.253-0.23
			c0.088-0.08,0.161-0.143,0.22-0.188c0.132-0.146,0.26-0.318,0.385-0.516c0.125-0.199,0.234-0.408,0.33-0.627
			c0.096-0.221,0.172-0.445,0.231-0.672c0.058-0.227,0.088-0.436,0.088-0.627c0-0.059,0-0.146,0-0.264
			c0-0.133-0.008-0.205-0.022-0.221c0-0.014-0.015-0.068-0.044-0.164s-0.059-0.199-0.088-0.309s-0.066-0.217-0.11-0.318
			c-0.044-0.104-0.073-0.184-0.088-0.242c-0.073-0.191-0.209-0.529-0.407-1.012c-0.197-0.484-0.406-0.994-0.627-1.529
			c-0.22-0.535-0.429-1.045-0.627-1.529c-0.197-0.484-0.333-0.82-0.406-1.012c-0.03-0.279-0.104-0.594-0.221-0.947
			c-0.117-0.352-0.301-0.607-0.55-0.77c-0.044,0-0.129-0.004-0.253-0.01c-0.125-0.008-0.257-0.016-0.396-0.023
			c-0.14-0.006-0.272-0.018-0.396-0.033c-0.125-0.014-0.209-0.021-0.253-0.021c-0.176-0.029-0.338-0.088-0.484-0.176
			s-0.22-0.234-0.22-0.439c0-0.146,0.011-0.309,0.033-0.484c0.021-0.176,0.063-0.342,0.121-0.494
			c0.059-0.154,0.146-0.287,0.264-0.396c0.117-0.111,0.271-0.166,0.462-0.166h3.433c0.132,0,0.274,0.027,0.429,0.078
			s0.297,0.121,0.429,0.209s0.238,0.193,0.319,0.318c0.08,0.125,0.121,0.26,0.121,0.406c0,0.266-0.074,0.463-0.221,0.596
			c-0.146,0.131-0.304,0.234-0.473,0.307c-0.169,0.074-0.326,0.146-0.473,0.221c-0.147,0.074-0.221,0.176-0.221,0.309
			c0,0.205,0.041,0.422,0.121,0.648c0.081,0.227,0.177,0.459,0.286,0.693c0.11,0.234,0.224,0.461,0.341,0.682
			s0.213,0.426,0.286,0.615c0.029,0.074,0.069,0.176,0.121,0.309s0.106,0.271,0.165,0.418s0.11,0.283,0.154,0.406
			c0.044,0.125,0.073,0.209,0.088,0.254c0.015,0.029,0.033,0.104,0.055,0.221c0.022,0.117,0.056,0.234,0.1,0.352
			s0.099,0.223,0.165,0.318c0.065,0.096,0.143,0.143,0.23,0.143s0.173-0.064,0.253-0.197c0.081-0.133,0.154-0.283,0.221-0.451
			c0.065-0.168,0.12-0.334,0.164-0.494c0.045-0.162,0.081-0.271,0.11-0.33c0.044-0.133,0.113-0.359,0.209-0.684
			c0.096-0.322,0.198-0.666,0.309-1.033c0.109-0.367,0.212-0.711,0.308-1.033c0.095-0.322,0.157-0.551,0.187-0.684
			c0.015-0.027,0.022-0.064,0.022-0.109c0-0.059,0-0.096,0-0.109c0-0.146-0.066-0.254-0.198-0.318
			c-0.132-0.066-0.274-0.141-0.429-0.221s-0.294-0.191-0.418-0.33c-0.125-0.139-0.188-0.355-0.188-0.648
			c0-0.25,0.073-0.455,0.221-0.617c0.146-0.16,0.366-0.242,0.659-0.242h2.839c0.205,0.059,0.414,0.092,0.627,0.1
			c0.212,0.008,0.406,0.029,0.583,0.066c0.176,0.037,0.318,0.113,0.429,0.23s0.165,0.316,0.165,0.594
			c0,0.352-0.055,0.617-0.165,0.793s-0.261,0.297-0.451,0.363c-0.19,0.064-0.418,0.098-0.682,0.098c-0.265,0-0.55,0-0.858,0
			c-0.161,0.117-0.297,0.271-0.407,0.463c-0.109,0.189-0.205,0.396-0.285,0.615c-0.081,0.221-0.147,0.439-0.198,0.66
			c-0.052,0.221-0.1,0.418-0.144,0.594c-0.396,1.467-0.843,2.893-1.342,4.279s-1.026,2.797-1.584,4.234
			c0,0.016-0.011,0.045-0.033,0.088c-0.021,0.045-0.04,0.074-0.055,0.09c-0.015,0.014-0.055,0.068-0.121,0.164
			s-0.106,0.15-0.121,0.164c-0.015,0.029-0.04,0.086-0.077,0.166c-0.036,0.08-0.08,0.172-0.132,0.275
			c-0.052,0.102-0.099,0.193-0.143,0.275c-0.044,0.08-0.074,0.127-0.088,0.143c-0.294,0.41-0.693,0.758-1.199,1.045
			c-0.506,0.285-1.009,0.428-1.507,0.428c-0.382,0-0.756-0.064-1.122-0.197c-0.367-0.133-0.693-0.318-0.979-0.561
			s-0.517-0.527-0.692-0.857c-0.177-0.33-0.265-0.693-0.265-1.09C66.746,45.019,66.9,44.542,67.208,44.132z"/>
		<path d="M82.498,37.983c0.352-0.492,0.792-0.852,1.32-1.078c0.527-0.229,1.104-0.367,1.727-0.418
			c0.623-0.053,1.199-0.1,1.728-0.145c0.527-0.043,0.968-0.123,1.319-0.242c0.353-0.117,0.528-0.352,0.528-0.703
			c0-0.25-0.044-0.484-0.132-0.703c-0.088-0.221-0.25-0.396-0.484-0.529c-0.088-0.043-0.22-0.109-0.396-0.197
			c-0.177-0.088-0.271-0.133-0.286-0.133h-2.068c-0.117,0-0.198,0.063-0.242,0.188s-0.084,0.279-0.121,0.463
			c-0.036,0.184-0.076,0.385-0.121,0.604c-0.044,0.221-0.113,0.422-0.209,0.605c-0.095,0.184-0.234,0.338-0.418,0.463
			s-0.429,0.186-0.736,0.186c-0.47,0-0.854-0.152-1.155-0.461S82.3,35.192,82.3,34.737c0-0.264,0.044-0.498,0.132-0.703
			s0.206-0.396,0.353-0.572s0.315-0.342,0.506-0.496s0.381-0.297,0.572-0.428c0.161-0.117,0.33-0.246,0.506-0.385
			c0.176-0.141,0.381-0.209,0.616-0.209l3.365,0.043c0.19,0,0.415,0.08,0.672,0.24c0.256,0.162,0.506,0.352,0.747,0.57
			c0.242,0.219,0.455,0.453,0.639,0.701c0.183,0.248,0.297,0.459,0.341,0.635c0.015,0.043,0.036,0.123,0.066,0.24
			c0.028,0.117,0.058,0.238,0.088,0.361c0.029,0.125,0.055,0.242,0.076,0.352c0.022,0.109,0.033,0.186,0.033,0.229v0.68
			c0,0.176,0.004,0.375,0.012,0.602c0.007,0.227-0.026,0.428-0.1,0.604v3.699c0,0.41,0.176,0.613,0.528,0.613
			c0.234,0,0.381-0.102,0.439-0.307s0.11-0.438,0.154-0.693s0.113-0.488,0.209-0.693s0.297-0.309,0.605-0.309
			c0.161,0,0.3,0.045,0.418,0.133c0.117,0.088,0.212,0.197,0.286,0.33c0.073,0.133,0.124,0.275,0.153,0.43
			c0.029,0.152,0.044,0.305,0.044,0.449c0,0.324-0.052,0.646-0.153,0.969c-0.104,0.322-0.246,0.613-0.43,0.869
			c-0.184,0.258-0.41,0.467-0.682,0.627c-0.271,0.162-0.583,0.242-0.936,0.242c-0.278,0-0.521-0.033-0.726-0.1
			s-0.433-0.18-0.682-0.34c-0.088-0.045-0.165-0.113-0.231-0.209c-0.065-0.096-0.132-0.191-0.198-0.287
			c-0.065-0.096-0.14-0.18-0.22-0.252c-0.081-0.074-0.173-0.111-0.274-0.111h-0.11c-0.206,0.104-0.415,0.229-0.627,0.375
			c-0.213,0.146-0.429,0.289-0.649,0.43c-0.22,0.139-0.447,0.256-0.682,0.352c-0.235,0.096-0.477,0.143-0.727,0.143h-1.979
			c-0.161,0-0.301-0.041-0.418-0.121s-0.235-0.158-0.353-0.23c-0.602-0.352-1.037-0.789-1.309-1.309
			c-0.271-0.521-0.407-1.127-0.407-1.816C81.97,39.175,82.146,38.474,82.498,37.983z M83.752,40.479
			c0.044,0.162,0.106,0.318,0.188,0.473c0.08,0.154,0.179,0.283,0.297,0.385c0.117,0.104,0.249,0.154,0.396,0.154h2.244
			c0.015,0,0.063-0.021,0.143-0.066c0.081-0.043,0.15-0.08,0.209-0.109c0.029-0.029,0.1-0.072,0.209-0.133
			c0.11-0.057,0.18-0.094,0.21-0.109c0.542-0.365,0.909-0.748,1.1-1.145c0.19-0.395,0.286-0.908,0.286-1.539v-0.264
			c-0.015,0-0.044-0.012-0.088-0.033s-0.074-0.033-0.088-0.033c-0.016-0.014-0.03-0.021-0.045-0.021l-0.044,0.021
			c-0.044,0-0.165,0.018-0.362,0.055c-0.198,0.037-0.407,0.074-0.627,0.109c-0.221,0.037-0.43,0.074-0.627,0.111
			c-0.198,0.037-0.319,0.055-0.363,0.055c-0.353,0.059-0.708,0.104-1.067,0.133s-0.723,0.072-1.089,0.131
			c-0.19,0.016-0.359,0.133-0.506,0.352c-0.073,0.104-0.165,0.264-0.275,0.484c-0.109,0.221-0.165,0.41-0.165,0.572
			C83.686,40.179,83.708,40.317,83.752,40.479z"/>
		<path d="M96.359,42.159c0.029-0.156,0.08-0.303,0.154-0.438c0.072-0.135,0.164-0.25,0.274-0.348s0.245-0.146,0.407-0.146h3.366
			l0.109-0.131v-6.602l0.132-0.416v-3.684c0-0.088-0.088-0.18-0.264-0.273c-0.176-0.096-0.286-0.15-0.33-0.166
			c-0.044,0.016-0.121,0.037-0.23,0.066c-0.11,0.029-0.231,0.059-0.363,0.088s-0.257,0.055-0.374,0.076
			c-0.117,0.023-0.198,0.033-0.242,0.033h-0.352c-0.25,0-0.444-0.025-0.583-0.076c-0.14-0.051-0.313-0.113-0.518-0.188
			c-0.146-0.043-0.278-0.08-0.396-0.109c-0.118-0.029-0.217-0.072-0.297-0.131c-0.081-0.059-0.144-0.135-0.188-0.23
			c-0.044-0.094-0.065-0.236-0.065-0.428c0-0.408,0.157-0.689,0.473-0.844s0.656-0.23,1.023-0.23c0.264,0,0.523,0.029,0.78,0.088
			s0.518,0.088,0.781,0.088c0.205,0,0.403-0.016,0.594-0.045s0.389-0.043,0.595-0.043c0.19,0,0.396,0.021,0.615,0.066
			c0.221,0.043,0.426,0.113,0.616,0.207c0.19,0.096,0.349,0.227,0.473,0.395c0.125,0.168,0.188,0.377,0.188,0.625V41.03l0.22,0.197
			h2.926c0.146,0,0.275,0.041,0.386,0.123c0.109,0.082,0.201,0.184,0.274,0.303c0.073,0.121,0.129,0.252,0.165,0.393
			c0.037,0.143,0.056,0.273,0.056,0.393c0,0.27-0.07,0.51-0.209,0.719c-0.14,0.209-0.363,0.314-0.672,0.314h-8.514
			c-0.249,0-0.487-0.086-0.715-0.258s-0.341-0.385-0.341-0.641C96.315,42.454,96.33,42.315,96.359,42.159z"/>
		<path d="M109.438,36.63c0.081-0.543,0.217-1.061,0.407-1.551c0.19-0.492,0.443-0.947,0.759-1.365s0.715-0.758,1.199-1.021
			c0.044-0.029,0.124-0.074,0.242-0.133c0.117-0.059,0.242-0.121,0.374-0.188s0.253-0.123,0.362-0.176
			c0.11-0.051,0.188-0.084,0.231-0.1c0.161-0.072,0.326-0.105,0.495-0.098c0.168,0.008,0.333,0.01,0.495,0.01
			c0.938,0,1.73,0.225,2.376,0.672c0.645,0.447,1.246,1.023,1.804,1.727c0.059,0.088,0.136,0.254,0.231,0.496
			c0.095,0.24,0.183,0.506,0.264,0.791c0.08,0.287,0.15,0.564,0.209,0.836s0.088,0.473,0.088,0.605c0,0.029-0.004,0.092-0.011,0.188
			c-0.008,0.096-0.011,0.156-0.011,0.186c-0.133,0.221-0.309,0.367-0.528,0.441c-0.22,0.072-0.447,0.131-0.682,0.176
			c-0.162,0-0.451-0.004-0.869-0.012s-0.862-0.012-1.331-0.012c-0.455,0-0.892,0.004-1.31,0.012s-0.707,0.012-0.869,0.012
			c-0.161,0-0.355,0.004-0.583,0.01c-0.228,0.008-0.45,0.016-0.671,0.023c-0.22,0.008-0.491,0.025-0.813,0.055l-0.088,0.066
			c0,0.016-0.004,0.066-0.012,0.156c-0.007,0.088-0.011,0.146-0.011,0.176c0,0.428,0.077,0.834,0.231,1.217
			c0.153,0.385,0.366,0.721,0.638,1.008s0.59,0.516,0.957,0.686c0.366,0.17,0.77,0.256,1.21,0.256c0.044,0,0.143-0.004,0.297-0.012
			s0.253-0.012,0.297-0.012c0.205-0.16,0.44-0.273,0.704-0.34c0.265-0.066,0.491-0.18,0.683-0.342
			c0.146-0.131,0.282-0.293,0.406-0.484c0.125-0.189,0.257-0.373,0.396-0.549c0.139-0.176,0.289-0.322,0.451-0.441
			c0.161-0.117,0.358-0.176,0.594-0.176c0.22,0,0.399,0.066,0.539,0.199c0.139,0.131,0.209,0.301,0.209,0.506
			c0,0.338-0.073,0.641-0.22,0.912c-0.147,0.271-0.309,0.539-0.484,0.803c-0.44,0.639-1.02,1.094-1.738,1.369
			s-1.459,0.414-2.222,0.414c-0.748,0-1.423-0.146-2.024-0.441c-0.602-0.293-1.107-0.688-1.518-1.188
			c-0.411-0.498-0.727-1.074-0.946-1.727s-0.33-1.338-0.33-2.057C109.316,37.7,109.356,37.173,109.438,36.63z M111.385,36.321
			c0,0.045,0.029,0.066,0.088,0.066h5.082c0.029,0,0.069-0.018,0.121-0.055c0.051-0.037,0.092-0.07,0.121-0.1
			c0.015-0.029,0.021-0.08,0.021-0.154c0-0.072,0-0.125,0-0.154c0-0.352-0.088-0.648-0.264-0.891s-0.396-0.432-0.66-0.572
			c-0.264-0.139-0.554-0.242-0.869-0.307c-0.315-0.066-0.612-0.1-0.891-0.1c-0.308,0-0.624,0.041-0.946,0.121
			s-0.616,0.209-0.88,0.385s-0.484,0.4-0.66,0.672s-0.264,0.59-0.264,0.957C111.385,36.22,111.385,36.263,111.385,36.321z"/>
		<path d="M121.637,28.159c0.088-0.146,0.209-0.26,0.363-0.34c0.153-0.082,0.326-0.133,0.517-0.154
			c0.19-0.023,0.389-0.033,0.594-0.033c0.19,0,0.414,0.014,0.671,0.043s0.499,0.086,0.727,0.166c0.227,0.08,0.421,0.197,0.583,0.352
			c0.161,0.154,0.242,0.355,0.242,0.605c0,0.234-0.044,0.406-0.133,0.518c-0.088,0.109-0.187,0.197-0.297,0.264
			c-0.109,0.064-0.228,0.121-0.352,0.164c-0.125,0.045-0.217,0.117-0.275,0.221v0.461c0,0.412,0.056,0.797,0.165,1.156
			c0.11,0.359,0.202,0.736,0.275,1.133c0.161,0.865,0.33,1.738,0.506,2.617c0.176,0.881,0.322,1.76,0.44,2.641h0.088
			c0.058-0.264,0.105-0.488,0.143-0.672c0.036-0.182,0.073-0.373,0.11-0.572c0.036-0.197,0.062-0.361,0.077-0.494
			c0.102-0.615,0.183-1.232,0.241-1.848c0.059-0.617,0.125-1.232,0.198-1.848c0-0.029,0.015-0.111,0.044-0.242
			c0.029-0.133,0.059-0.268,0.088-0.408c0.029-0.139,0.059-0.273,0.088-0.406s0.044-0.213,0.044-0.242v-0.639v-0.637
			c-0.103-0.117-0.205-0.217-0.308-0.297s-0.198-0.162-0.286-0.242s-0.157-0.176-0.209-0.287c-0.052-0.109-0.077-0.252-0.077-0.428
			c0-0.293,0.103-0.547,0.309-0.76c0.205-0.213,0.462-0.318,0.77-0.318h0.044c0.205,0.029,0.487,0.041,0.848,0.033
			c0.358-0.008,0.715,0.01,1.066,0.055c0.353,0.043,0.656,0.139,0.913,0.285s0.385,0.389,0.385,0.727
			c0,0.234-0.036,0.414-0.109,0.539c-0.074,0.125-0.158,0.229-0.253,0.309c-0.096,0.08-0.188,0.154-0.275,0.219
			c-0.088,0.066-0.14,0.15-0.154,0.254v0.594c0,0.104,0.022,0.359,0.066,0.77c0.044,0.412,0.099,0.891,0.165,1.441
			c0.065,0.551,0.139,1.129,0.22,1.738s0.161,1.17,0.242,1.684c0.08,0.514,0.154,0.938,0.22,1.275
			c0.066,0.338,0.121,0.506,0.165,0.506h0.044c0.221-0.939,0.403-1.859,0.55-2.762c0.146-0.9,0.279-1.822,0.396-2.76
			c0.044-0.367,0.099-0.719,0.165-1.057s0.099-0.689,0.099-1.057v-0.637c-0.088-0.133-0.187-0.225-0.297-0.275
			c-0.109-0.051-0.213-0.104-0.308-0.154c-0.096-0.051-0.18-0.125-0.253-0.221c-0.074-0.094-0.11-0.26-0.11-0.494
			c0-0.338,0.117-0.59,0.353-0.76c0.234-0.168,0.506-0.252,0.813-0.252c0.249,0,0.521,0.021,0.814,0.066
			c0.293,0.043,0.557,0.08,0.792,0.109c0.278,0.029,0.476,0.135,0.594,0.318c0.117,0.184,0.176,0.408,0.176,0.672
			c0,0.162-0.025,0.305-0.077,0.428c-0.052,0.125-0.109,0.242-0.176,0.354c-0.066,0.109-0.132,0.219-0.198,0.33
			c-0.065,0.109-0.113,0.238-0.143,0.385c-0.206,0.908-0.367,1.814-0.484,2.717s-0.271,1.807-0.462,2.717
			c-0.015,0.045-0.033,0.113-0.055,0.209c-0.022,0.096-0.048,0.197-0.077,0.309c-0.029,0.109-0.055,0.213-0.077,0.307
			c-0.021,0.096-0.04,0.166-0.055,0.209c-0.074,0.236-0.144,0.568-0.209,1.002c-0.066,0.432-0.14,0.902-0.22,1.408
			c-0.081,0.506-0.173,1.02-0.275,1.539c-0.103,0.521-0.224,0.99-0.363,1.408s-0.312,0.764-0.517,1.035
			c-0.206,0.271-0.44,0.406-0.704,0.406c-0.323,0-0.594-0.146-0.814-0.439c-0.088-0.117-0.165-0.305-0.23-0.563
			c-0.066-0.256-0.118-0.531-0.154-0.824c-0.037-0.293-0.063-0.582-0.077-0.869c-0.015-0.285-0.029-0.51-0.044-0.67
			c0-0.045-0.008-0.145-0.021-0.297c-0.015-0.154-0.026-0.328-0.033-0.518c-0.008-0.191-0.015-0.363-0.022-0.518
			c-0.007-0.154-0.011-0.252-0.011-0.297c-0.059-0.631-0.132-1.266-0.22-1.902c-0.088-0.639-0.191-1.266-0.309-1.881
			c-0.029-0.117-0.063-0.262-0.099-0.43c-0.037-0.168-0.063-0.254-0.077-0.254h-0.088c-0.015,0-0.04,0.086-0.077,0.254
			c-0.036,0.168-0.063,0.313-0.077,0.43c-0.176,1.201-0.333,2.408-0.473,3.619c-0.14,1.209-0.326,2.416-0.561,3.617
			c-0.044,0.207-0.085,0.4-0.121,0.584c-0.037,0.184-0.096,0.348-0.177,0.494c-0.08,0.148-0.194,0.262-0.341,0.342
			s-0.352,0.121-0.616,0.121c-0.205,0-0.377-0.025-0.517-0.076c-0.14-0.053-0.268-0.174-0.385-0.363
			c-0.132-0.205-0.235-0.477-0.309-0.814s-0.132-0.689-0.176-1.057c-0.044-0.365-0.08-0.729-0.109-1.088
			c-0.03-0.359-0.066-0.664-0.11-0.914c-0.234-1.438-0.484-2.871-0.748-4.301s-0.528-2.863-0.792-4.301
			c-0.044-0.25-0.121-0.447-0.231-0.594c-0.109-0.146-0.22-0.279-0.329-0.396c-0.11-0.117-0.206-0.242-0.286-0.373
			c-0.081-0.133-0.121-0.309-0.121-0.529C121.505,28.505,121.549,28.306,121.637,28.159z"/>
		<path d="M137.047,36.63c0.081-0.543,0.217-1.061,0.407-1.551c0.19-0.492,0.443-0.947,0.759-1.365s0.715-0.758,1.199-1.021
			c0.044-0.029,0.124-0.074,0.242-0.133c0.117-0.059,0.242-0.121,0.374-0.188s0.253-0.123,0.362-0.176
			c0.11-0.051,0.188-0.084,0.231-0.1c0.161-0.072,0.326-0.105,0.495-0.098c0.168,0.008,0.333,0.01,0.495,0.01
			c0.938,0,1.73,0.225,2.376,0.672c0.645,0.447,1.246,1.023,1.804,1.727c0.059,0.088,0.136,0.254,0.231,0.496
			c0.095,0.24,0.183,0.506,0.264,0.791c0.08,0.287,0.15,0.564,0.209,0.836s0.088,0.473,0.088,0.605c0,0.029-0.004,0.092-0.011,0.188
			c-0.008,0.096-0.011,0.156-0.011,0.186c-0.133,0.221-0.309,0.367-0.528,0.441c-0.22,0.072-0.447,0.131-0.682,0.176
			c-0.162,0-0.451-0.004-0.869-0.012s-0.862-0.012-1.331-0.012c-0.455,0-0.892,0.004-1.31,0.012s-0.707,0.012-0.869,0.012
			c-0.161,0-0.355,0.004-0.583,0.01c-0.228,0.008-0.45,0.016-0.671,0.023c-0.22,0.008-0.491,0.025-0.813,0.055l-0.088,0.066
			c0,0.016-0.004,0.066-0.012,0.156c-0.007,0.088-0.011,0.146-0.011,0.176c0,0.428,0.077,0.834,0.231,1.217
			c0.153,0.385,0.366,0.721,0.638,1.008s0.59,0.516,0.957,0.686c0.366,0.17,0.77,0.256,1.21,0.256c0.044,0,0.143-0.004,0.297-0.012
			s0.253-0.012,0.297-0.012c0.205-0.16,0.44-0.273,0.704-0.34c0.265-0.066,0.491-0.18,0.683-0.342
			c0.146-0.131,0.282-0.293,0.406-0.484c0.125-0.189,0.257-0.373,0.396-0.549c0.139-0.176,0.289-0.322,0.451-0.441
			c0.161-0.117,0.358-0.176,0.594-0.176c0.22,0,0.399,0.066,0.539,0.199c0.139,0.131,0.209,0.301,0.209,0.506
			c0,0.338-0.073,0.641-0.22,0.912c-0.147,0.271-0.309,0.539-0.484,0.803c-0.44,0.639-1.02,1.094-1.738,1.369
			s-1.459,0.414-2.222,0.414c-0.748,0-1.423-0.146-2.024-0.441c-0.602-0.293-1.107-0.688-1.518-1.188
			c-0.411-0.498-0.727-1.074-0.946-1.727s-0.33-1.338-0.33-2.057C136.926,37.7,136.966,37.173,137.047,36.63z M138.994,36.321
			c0,0.045,0.029,0.066,0.088,0.066h5.082c0.029,0,0.069-0.018,0.121-0.055c0.051-0.037,0.092-0.07,0.121-0.1
			c0.015-0.029,0.021-0.08,0.021-0.154c0-0.072,0-0.125,0-0.154c0-0.352-0.088-0.648-0.264-0.891s-0.396-0.432-0.66-0.572
			c-0.264-0.139-0.554-0.242-0.869-0.307c-0.315-0.066-0.612-0.1-0.891-0.1c-0.308,0-0.624,0.041-0.946,0.121
			s-0.616,0.209-0.88,0.385s-0.484,0.4-0.66,0.672s-0.264,0.59-0.264,0.957C138.994,36.22,138.994,36.263,138.994,36.321z"/>
	</g>
</g>
<g id="Skip">
</g>
<g id="SwineRules">
</g>
<g id="Touchy_Feeley">
</g>
<g id="Wasted_Education">
</g>
<g id="Layer_86">
</g>
<g id="PointOfNoReturn">
</g>
<g id="Pirate">
</g>
<g id="Thief">
</g>
<g id="DepthPerception">
</g>
<g id="Narcissist">
</g>
<g id="MammaBird">
</g>
<g id="Staringcontest">
</g>
<g id="Cartwheel">
</g>
<g id="Censored">
</g>
<g id="Depersonalization">
</g>
<g id="threeman">
</g>
<g id="_x32__truths_and_a_lie">
</g>
<g id="cray_cray_cat_lady">
</g>
<g id="siblings">
</g>
<g id="later">
</g>
<g id="waterfall">
</g>
<g id="cheers">
</g>
<g id="rhyme">
</g>
<g id="categories">
</g>
<g id="tits">
</g>
<g id="dicks">
</g>
<g id="questions">
</g>
<g id="double_hands">
</g>
<g id="take_2">
</g>
<g id="take_3">
</g>
<g id="give_3">
</g>
<g id="give_2">
</g>
<g id="rewind">
</g>
<g id="Cryptkeeper">
</g>
<g id="Take_2_and_Redo">
</g>
<g id="Embryo">
</g>
<g id="I_am_Groot">
</g>
<g id="Mini_Me">
</g>
<g id="Ditto_1_">
</g>
<g id="reverse">
</g>
</svg>
