<?xml version="1.0" encoding="utf-8"?>
<!-- Generator: Adobe Illustrator 16.0.0, SVG Export Plug-In . SVG Version: 6.00 Build 0)  -->
<!DOCTYPE svg PUBLIC "-//W3C//DTD SVG 1.1//EN" "http://www.w3.org/Graphics/SVG/1.1/DTD/svg11.dtd">
<svg version="1.1" xmlns="http://www.w3.org/2000/svg" xmlns:xlink="http://www.w3.org/1999/xlink" x="0px" y="0px"
	 width="209.759px" height="62.361px" viewBox="0 0 209.759 62.361" enable-background="new 0 0 209.759 62.361"
	 xml:space="preserve">
<g id="Layer_1">
</g>
<g id="Hat">
</g>
<g id="Compliments">
</g>
<g id="HAT">
</g>
<g id="speech">
</g>
<g id="TREX_ARMS">
</g>
<g id="Layer_7">
</g>
<g id="TIMEOUT">
</g>
<g id="Layer_9">
</g>
<g id="ARM_WRESTLE">
</g>
<g id="musical_chairs">
</g>
<g id="never_have_i_ever">
</g>
<g id="Trivia">
</g>
<g id="Layer_14">
</g>
<g id="Layer_15">
</g>
<g id="Layer_16">
</g>
<g id="Layer_17">
</g>
<g id="Heads_up">
</g>
<g id="Archenemy">
</g>
<g id="battle_of_the_sexes">
</g>
<g id="one_must_drink">
</g>
<g id="rainbow_connection">
</g>
<g id="social_drinking">
</g>
<g id="Spin_the_bottle">
</g>
<g id="accents">
</g>
<g id="Slap">
</g>
<g id="give_3">
	<g>
		<path d="M38.657,43.743c-1.379,0-2.626-0.273-3.744-0.819s-2.086-1.293-2.905-2.242s-1.45-2.048-1.892-3.296
			c-0.442-1.248-0.663-2.574-0.663-3.978c0-1.482,0.234-2.86,0.702-4.134c0.468-1.274,1.117-2.393,1.95-3.354
			c0.831-0.962,1.833-1.716,3.003-2.262s2.457-0.819,3.86-0.819c1.586,0,2.978,0.357,4.174,1.072
			c1.195,0.716,2.184,1.671,2.964,2.867V23.19h4.563v19.461c0,1.507-0.286,2.859-0.857,4.056c-0.572,1.195-1.359,2.21-2.359,3.042
			c-1.002,0.832-2.198,1.469-3.589,1.911c-1.391,0.441-2.905,0.663-4.543,0.663c-2.236,0-4.114-0.371-5.636-1.111
			c-1.521-0.741-2.827-1.788-3.919-3.14l2.847-2.77c0.78,0.962,1.761,1.716,2.944,2.263c1.183,0.546,2.438,0.818,3.764,0.818
			c0.806,0,1.579-0.11,2.32-0.331c0.741-0.222,1.397-0.565,1.97-1.034c0.571-0.468,1.02-1.066,1.346-1.794
			c0.324-0.728,0.487-1.586,0.487-2.573v-2.574c-0.677,1.17-1.625,2.073-2.847,2.71C41.374,43.425,40.062,43.743,38.657,43.743z
			 M40.412,39.57c0.571,0,1.118-0.091,1.638-0.273c0.521-0.182,1.001-0.429,1.443-0.741c0.441-0.312,0.832-0.676,1.17-1.092
			c0.338-0.415,0.598-0.857,0.78-1.326v-4.875c-0.468-1.195-1.203-2.157-2.204-2.886c-1.001-0.728-2.047-1.092-3.139-1.092
			c-0.807,0-1.535,0.176-2.185,0.526c-0.65,0.351-1.209,0.819-1.677,1.404s-0.826,1.254-1.072,2.008
			c-0.248,0.755-0.371,1.535-0.371,2.341c0,0.832,0.143,1.612,0.43,2.34c0.285,0.728,0.682,1.364,1.189,1.911
			c0.507,0.546,1.098,0.975,1.774,1.286C38.865,39.414,39.606,39.57,40.412,39.57z"/>
		<path d="M59.093,20.343v-5.187h5.227v5.187H59.093z M59.093,43.626V23.19h5.227v20.436H59.093z"/>
		<path d="M78.241,43.626L70.714,23.19h5.383l5.187,16.185L86.51,23.19h4.913l-7.526,20.436H78.241z"/>
		<path d="M106.634,44.016c-1.639,0-3.12-0.279-4.446-0.838s-2.457-1.319-3.394-2.282c-0.936-0.961-1.657-2.079-2.164-3.354
			c-0.507-1.273-0.761-2.613-0.761-4.017c0-1.456,0.247-2.828,0.741-4.115c0.493-1.287,1.209-2.418,2.145-3.393
			c0.937-0.976,2.073-1.748,3.413-2.32c1.339-0.572,2.84-0.858,4.504-0.858s3.152,0.286,4.466,0.858
			c1.313,0.572,2.431,1.339,3.354,2.301c0.922,0.962,1.624,2.08,2.105,3.354c0.481,1.274,0.722,2.601,0.722,3.979
			c0,0.338-0.007,0.663-0.02,0.975c-0.014,0.313-0.046,0.572-0.098,0.78h-15.795c0.078,0.807,0.273,1.521,0.585,2.145
			c0.313,0.624,0.715,1.157,1.209,1.6s1.053,0.78,1.677,1.014c0.624,0.234,1.274,0.352,1.95,0.352c1.04,0,2.021-0.254,2.944-0.761
			s1.554-1.176,1.892-2.009l4.485,1.248c-0.755,1.561-1.957,2.841-3.607,3.842C110.891,43.516,108.921,44.016,106.634,44.016z
			 M111.938,31.692c-0.131-1.534-0.696-2.763-1.696-3.686c-1.002-0.923-2.217-1.385-3.646-1.385c-0.702,0-1.359,0.124-1.97,0.37
			c-0.611,0.248-1.15,0.592-1.619,1.034c-0.468,0.442-0.852,0.975-1.15,1.599s-0.475,1.313-0.526,2.067H111.938z"/>
		<path d="M149.768,34.422c1.611,0.286,2.918,1.06,3.919,2.32c1.001,1.262,1.502,2.802,1.502,4.622c0,1.222-0.241,2.326-0.722,3.314
			c-0.481,0.988-1.157,1.826-2.028,2.516c-0.871,0.688-1.931,1.222-3.179,1.6c-1.248,0.376-2.651,0.565-4.212,0.565
			c-1.976,0-3.725-0.319-5.245-0.956c-1.521-0.638-2.788-1.566-3.803-2.788l2.964-3.705c0.676,0.857,1.482,1.521,2.418,1.989
			c0.937,0.468,2.106,0.701,3.511,0.701c1.585,0,2.794-0.312,3.627-0.936c0.831-0.624,1.248-1.586,1.248-2.886
			c0-1.352-0.481-2.393-1.443-3.12s-2.418-1.092-4.368-1.092h-1.092v-3.9h1.209c1.611,0,2.859-0.357,3.744-1.072
			c0.884-0.715,1.326-1.632,1.326-2.75c0-1.065-0.365-1.858-1.093-2.379c-0.728-0.52-1.677-0.78-2.847-0.78
			c-1.196,0-2.269,0.273-3.218,0.819s-1.723,1.313-2.32,2.301l-3.275-3.666c0.39-0.598,0.909-1.137,1.56-1.618
			c0.649-0.48,1.385-0.897,2.203-1.248c0.819-0.351,1.71-0.624,2.672-0.819c0.962-0.194,1.95-0.292,2.964-0.292
			c1.326,0,2.535,0.169,3.627,0.507s2.034,0.807,2.828,1.404c0.792,0.598,1.403,1.319,1.833,2.164
			c0.429,0.846,0.643,1.788,0.643,2.828c0,0.779-0.116,1.521-0.351,2.223s-0.572,1.339-1.014,1.911
			c-0.442,0.572-0.969,1.053-1.58,1.442C151.164,34.032,150.495,34.292,149.768,34.422z"/>
	</g>
</g>
<g id="give_2">
</g>
<g id="rewind">
</g>
<g id="Layer_22">
</g>
<g id="Layer_19">
</g>
<g id="Layer_20">
</g>
<g id="Layer_21">
</g>
<g id="Layer_23">
</g>
<g id="Layer_24">
</g>
</svg>
