<?xml version="1.0" encoding="utf-8"?>
<!-- Generator: Adobe Illustrator 16.0.0, SVG Export Plug-In . SVG Version: 6.00 Build 0)  -->
<!DOCTYPE svg PUBLIC "-//W3C//DTD SVG 1.1//EN" "http://www.w3.org/Graphics/SVG/1.1/DTD/svg11.dtd">
<svg version="1.1" xmlns="http://www.w3.org/2000/svg" xmlns:xlink="http://www.w3.org/1999/xlink" x="0px" y="0px"
	 width="209.759px" height="62.361px" viewBox="0 0 209.759 62.361" enable-background="new 0 0 209.759 62.361"
	 xml:space="preserve">
<g id="Layer_1">
</g>
<g id="Hat">
</g>
<g id="Compliments">
</g>
<g id="HAT">
</g>
<g id="speech">
</g>
<g id="TREX_ARMS">
</g>
<g id="slim_shady">
</g>
<g id="TIMEOUT">
</g>
<g id="Truth_or_Dare">
</g>
<g id="ARM_WRESTLE">
</g>
<g id="musical_chairs">
</g>
<g id="never_have_i_ever">
</g>
<g id="Trivia">
</g>
<g id="Drink_Pulling">
</g>
<g id="Sharing_is_Caring">
</g>
<g id="Not_It">
</g>
<g id="Cocktail_of_Doom">
</g>
<g id="Heads_up">
</g>
<g id="Archenemy">
</g>
<g id="battle_of_the_sexes">
</g>
<g id="one_must_drink">
</g>
<g id="rainbow_connection">
</g>
<g id="social_drinking">
</g>
<g id="Spin_the_bottle">
</g>
<g id="accents">
</g>
<g id="Slap">
</g>
<g id="give_3">
</g>
<g id="rub">
</g>
<g id="down_the_hatch">
</g>
<g id="rubiks_cube">
</g>
<g id="bar_tender">
</g>
<g id="codenames">
</g>
<g id="hand_switch">
</g>
<g id="make_a_rule">
</g>
<g id="no_guts_no_glory">
	<g>
		<path d="M16.121,35.18h-2.947v-6.468c0-0.924-0.162-1.599-0.484-2.024c-0.323-0.425-0.771-0.638-1.342-0.638
			c-0.294,0-0.594,0.059-0.902,0.176c-0.308,0.117-0.598,0.282-0.869,0.495S9.06,27.187,8.84,27.479
			c-0.221,0.294-0.382,0.616-0.484,0.968v6.732H5.407V23.651h2.662v2.135c0.426-0.733,1.041-1.306,1.848-1.717
			c0.807-0.41,1.717-0.615,2.729-0.615c0.719,0,1.305,0.132,1.76,0.396s0.807,0.608,1.057,1.034
			c0.249,0.426,0.421,0.909,0.517,1.452c0.095,0.543,0.143,1.093,0.143,1.649V35.18z"/>
		<path d="M26.109,35.399c-0.938,0-1.782-0.161-2.53-0.483c-0.748-0.323-1.382-0.76-1.902-1.31c-0.521-0.55-0.921-1.184-1.199-1.902
			c-0.279-0.719-0.418-1.475-0.418-2.267c0-0.807,0.139-1.569,0.418-2.288c0.278-0.718,0.678-1.353,1.199-1.902
			c0.521-0.551,1.154-0.986,1.902-1.31c0.748-0.322,1.592-0.483,2.53-0.483s1.778,0.161,2.519,0.483
			c0.741,0.323,1.372,0.759,1.893,1.31c0.521,0.55,0.92,1.185,1.199,1.902c0.278,0.719,0.418,1.481,0.418,2.288
			c0,0.792-0.14,1.548-0.418,2.267c-0.279,0.719-0.675,1.353-1.188,1.902s-1.144,0.986-1.892,1.31
			C27.892,35.238,27.048,35.399,26.109,35.399z M23.096,29.438c0,0.514,0.076,0.979,0.23,1.397s0.366,0.78,0.639,1.089
			c0.271,0.308,0.59,0.547,0.956,0.715c0.367,0.169,0.763,0.253,1.188,0.253c0.425,0,0.821-0.084,1.188-0.253
			c0.367-0.168,0.686-0.407,0.957-0.715c0.271-0.309,0.484-0.675,0.639-1.101c0.153-0.425,0.23-0.894,0.23-1.407
			c0-0.499-0.077-0.961-0.23-1.387c-0.154-0.425-0.367-0.792-0.639-1.1s-0.59-0.546-0.957-0.715
			c-0.366-0.169-0.763-0.253-1.188-0.253c-0.426,0-0.821,0.088-1.188,0.264c-0.366,0.176-0.686,0.418-0.956,0.727
			c-0.272,0.308-0.484,0.675-0.639,1.1C23.172,28.478,23.096,28.939,23.096,29.438z"/>
		<path d="M48.086,35.246c-0.777,0-1.481-0.154-2.111-0.463c-0.631-0.308-1.177-0.729-1.64-1.265
			c-0.462-0.535-0.817-1.155-1.066-1.858c-0.25-0.704-0.374-1.452-0.374-2.244c0-0.836,0.132-1.613,0.396-2.332
			c0.265-0.719,0.631-1.35,1.101-1.893c0.469-0.542,1.034-0.968,1.693-1.275c0.66-0.309,1.387-0.462,2.179-0.462
			c0.895,0,1.679,0.201,2.354,0.604s1.232,0.942,1.672,1.617v-2.024h2.574V34.63c0,0.851-0.161,1.613-0.484,2.288
			c-0.322,0.674-0.767,1.246-1.33,1.716c-0.565,0.469-1.24,0.828-2.024,1.078c-0.785,0.249-1.639,0.374-2.563,0.374
			c-1.261,0-2.32-0.209-3.179-0.627c-0.857-0.418-1.595-1.009-2.211-1.771l1.606-1.562c0.439,0.542,0.993,0.968,1.66,1.275
			c0.668,0.309,1.375,0.462,2.123,0.462c0.455,0,0.892-0.063,1.31-0.187c0.418-0.125,0.788-0.319,1.111-0.583
			c0.322-0.264,0.575-0.602,0.759-1.012c0.183-0.411,0.274-0.896,0.274-1.452v-1.452c-0.381,0.66-0.916,1.17-1.605,1.529
			S48.878,35.246,48.086,35.246z M49.076,32.892c0.322,0,0.631-0.051,0.924-0.154c0.294-0.103,0.564-0.241,0.814-0.418
			c0.249-0.176,0.469-0.381,0.66-0.615c0.19-0.234,0.337-0.484,0.439-0.748v-2.75c-0.264-0.675-0.679-1.218-1.243-1.628
			c-0.564-0.411-1.154-0.616-1.771-0.616c-0.455,0-0.865,0.099-1.232,0.297c-0.366,0.198-0.682,0.462-0.945,0.792
			c-0.265,0.33-0.466,0.708-0.605,1.133c-0.14,0.426-0.209,0.865-0.209,1.32c0,0.47,0.081,0.909,0.242,1.319
			c0.161,0.411,0.385,0.771,0.671,1.078c0.286,0.309,0.619,0.551,1.001,0.727C48.203,32.804,48.622,32.892,49.076,32.892z"/>
		<path d="M63.135,35.399c-1.188,0-2.09-0.381-2.706-1.144s-0.924-1.893-0.924-3.388v-7.217h2.947v6.578
			c0,1.775,0.639,2.662,1.914,2.662c0.572,0,1.126-0.172,1.661-0.517s0.972-0.869,1.31-1.573v-7.15h2.947v8.141
			c0,0.308,0.056,0.527,0.165,0.66c0.11,0.132,0.29,0.205,0.539,0.22v2.508c-0.293,0.059-0.539,0.096-0.737,0.11
			c-0.197,0.014-0.377,0.021-0.538,0.021c-0.528,0-0.957-0.121-1.287-0.363c-0.33-0.241-0.524-0.575-0.583-1.001l-0.066-0.924
			c-0.514,0.792-1.174,1.387-1.979,1.782C64.989,35.202,64.103,35.399,63.135,35.399z"/>
		<path d="M82.208,34.586c-0.396,0.176-0.88,0.352-1.452,0.527c-0.572,0.177-1.174,0.265-1.804,0.265
			c-0.411,0-0.796-0.052-1.155-0.154s-0.675-0.268-0.946-0.495c-0.271-0.227-0.487-0.521-0.648-0.88
			c-0.162-0.359-0.242-0.795-0.242-1.309v-6.622h-1.518v-2.267h1.518v-3.739h2.948v3.739h2.42v2.267h-2.42v5.632
			c0,0.411,0.106,0.7,0.318,0.869c0.213,0.169,0.474,0.253,0.781,0.253c0.309,0,0.608-0.052,0.902-0.154
			c0.293-0.103,0.528-0.19,0.704-0.264L82.208,34.586z"/>
		<path d="M90.194,35.399c-0.968,0-1.914-0.153-2.838-0.462c-0.925-0.308-1.717-0.748-2.376-1.319l1.1-1.849
			c0.704,0.499,1.39,0.877,2.057,1.133c0.668,0.257,1.331,0.386,1.991,0.386c0.587,0,1.049-0.11,1.386-0.33
			c0.338-0.221,0.507-0.535,0.507-0.946c0-0.41-0.198-0.711-0.595-0.902c-0.396-0.19-1.041-0.41-1.936-0.66
			c-0.748-0.205-1.386-0.402-1.914-0.594c-0.528-0.19-0.954-0.407-1.276-0.648c-0.322-0.242-0.558-0.521-0.704-0.836
			s-0.22-0.693-0.22-1.134c0-0.586,0.113-1.114,0.341-1.584c0.228-0.469,0.547-0.868,0.957-1.198c0.411-0.33,0.892-0.583,1.441-0.76
			c0.55-0.176,1.147-0.264,1.793-0.264c0.865,0,1.676,0.125,2.431,0.374c0.756,0.25,1.448,0.652,2.079,1.21l-1.188,1.782
			c-0.587-0.44-1.155-0.763-1.705-0.968c-0.551-0.206-1.097-0.309-1.64-0.309c-0.498,0-0.916,0.103-1.254,0.309
			c-0.337,0.205-0.506,0.535-0.506,0.989c0,0.206,0.04,0.374,0.121,0.507c0.08,0.132,0.209,0.249,0.385,0.352
			s0.407,0.202,0.693,0.297c0.286,0.096,0.642,0.194,1.067,0.297c0.792,0.206,1.47,0.411,2.034,0.616s1.026,0.44,1.387,0.704
			c0.358,0.264,0.623,0.568,0.792,0.913c0.168,0.345,0.253,0.759,0.253,1.243c0,1.129-0.418,2.021-1.254,2.673
			S91.631,35.399,90.194,35.399z"/>
		<path d="M116.945,35.18h-2.947v-6.468c0-0.924-0.162-1.599-0.484-2.024c-0.323-0.425-0.771-0.638-1.342-0.638
			c-0.294,0-0.594,0.059-0.902,0.176c-0.308,0.117-0.598,0.282-0.869,0.495s-0.517,0.466-0.736,0.759
			c-0.221,0.294-0.382,0.616-0.484,0.968v6.732h-2.948V23.651h2.662v2.135c0.426-0.733,1.041-1.306,1.848-1.717
			c0.807-0.41,1.717-0.615,2.729-0.615c0.719,0,1.305,0.132,1.76,0.396s0.807,0.608,1.057,1.034
			c0.249,0.426,0.421,0.909,0.517,1.452c0.095,0.543,0.143,1.093,0.143,1.649V35.18z"/>
		<path d="M126.934,35.399c-0.938,0-1.782-0.161-2.53-0.483c-0.748-0.323-1.382-0.76-1.902-1.31
			c-0.521-0.55-0.921-1.184-1.199-1.902c-0.279-0.719-0.418-1.475-0.418-2.267c0-0.807,0.139-1.569,0.418-2.288
			c0.278-0.718,0.678-1.353,1.199-1.902c0.521-0.551,1.154-0.986,1.902-1.31c0.748-0.322,1.592-0.483,2.53-0.483
			s1.778,0.161,2.519,0.483c0.741,0.323,1.372,0.759,1.893,1.31c0.521,0.55,0.92,1.185,1.199,1.902
			c0.278,0.719,0.418,1.481,0.418,2.288c0,0.792-0.14,1.548-0.418,2.267c-0.279,0.719-0.675,1.353-1.188,1.902
			s-1.144,0.986-1.892,1.31C128.716,35.238,127.872,35.399,126.934,35.399z M123.92,29.438c0,0.514,0.076,0.979,0.23,1.397
			s0.366,0.78,0.639,1.089c0.271,0.308,0.59,0.547,0.956,0.715c0.367,0.169,0.763,0.253,1.188,0.253
			c0.425,0,0.821-0.084,1.188-0.253c0.367-0.168,0.686-0.407,0.957-0.715c0.271-0.309,0.484-0.675,0.639-1.101
			c0.153-0.425,0.23-0.894,0.23-1.407c0-0.499-0.077-0.961-0.23-1.387c-0.154-0.425-0.367-0.792-0.639-1.1s-0.59-0.546-0.957-0.715
			c-0.366-0.169-0.763-0.253-1.188-0.253c-0.426,0-0.821,0.088-1.188,0.264c-0.366,0.176-0.686,0.418-0.956,0.727
			c-0.272,0.308-0.484,0.675-0.639,1.1C123.996,28.478,123.92,28.939,123.92,29.438z"/>
		<path d="M148.91,35.246c-0.777,0-1.481-0.154-2.111-0.463c-0.631-0.308-1.177-0.729-1.64-1.265
			c-0.462-0.535-0.817-1.155-1.066-1.858c-0.25-0.704-0.374-1.452-0.374-2.244c0-0.836,0.132-1.613,0.396-2.332
			c0.265-0.719,0.631-1.35,1.101-1.893c0.469-0.542,1.034-0.968,1.693-1.275c0.66-0.309,1.387-0.462,2.179-0.462
			c0.895,0,1.679,0.201,2.354,0.604s1.232,0.942,1.672,1.617v-2.024h2.574V34.63c0,0.851-0.161,1.613-0.484,2.288
			c-0.322,0.674-0.767,1.246-1.33,1.716c-0.565,0.469-1.24,0.828-2.024,1.078c-0.785,0.249-1.639,0.374-2.563,0.374
			c-1.261,0-2.32-0.209-3.179-0.627c-0.857-0.418-1.595-1.009-2.211-1.771l1.606-1.562c0.439,0.542,0.993,0.968,1.66,1.275
			c0.668,0.309,1.375,0.462,2.123,0.462c0.455,0,0.892-0.063,1.31-0.187c0.418-0.125,0.788-0.319,1.111-0.583
			c0.322-0.264,0.575-0.602,0.759-1.012c0.183-0.411,0.274-0.896,0.274-1.452v-1.452c-0.381,0.66-0.916,1.17-1.605,1.529
			S149.702,35.246,148.91,35.246z M149.9,32.892c0.322,0,0.631-0.051,0.924-0.154c0.294-0.103,0.564-0.241,0.814-0.418
			c0.249-0.176,0.469-0.381,0.66-0.615c0.19-0.234,0.337-0.484,0.439-0.748v-2.75c-0.264-0.675-0.679-1.218-1.243-1.628
			c-0.564-0.411-1.154-0.616-1.771-0.616c-0.455,0-0.865,0.099-1.232,0.297c-0.366,0.198-0.682,0.462-0.945,0.792
			c-0.265,0.33-0.466,0.708-0.605,1.133c-0.14,0.426-0.209,0.865-0.209,1.32c0,0.47,0.081,0.909,0.242,1.319
			c0.161,0.411,0.385,0.771,0.671,1.078c0.286,0.309,0.619,0.551,1.001,0.727C149.027,32.804,149.446,32.892,149.9,32.892z"/>
		<path d="M160.417,19.12h2.947v12.363c0,0.426,0.103,0.756,0.309,0.99c0.205,0.234,0.498,0.353,0.88,0.353
			c0.176,0,0.37-0.029,0.583-0.089c0.212-0.058,0.414-0.132,0.604-0.22l0.396,2.244c-0.396,0.19-0.858,0.338-1.386,0.44
			c-0.528,0.102-1.005,0.153-1.431,0.153c-0.924,0-1.639-0.245-2.145-0.736s-0.759-1.191-0.759-2.102V19.12z"/>
		<path d="M174.826,35.399c-0.938,0-1.782-0.161-2.53-0.483c-0.748-0.323-1.382-0.76-1.902-1.31
			c-0.521-0.55-0.921-1.184-1.199-1.902c-0.279-0.719-0.418-1.475-0.418-2.267c0-0.807,0.139-1.569,0.418-2.288
			c0.278-0.718,0.678-1.353,1.199-1.902c0.521-0.551,1.154-0.986,1.902-1.31c0.748-0.322,1.592-0.483,2.53-0.483
			s1.778,0.161,2.519,0.483c0.741,0.323,1.372,0.759,1.893,1.31c0.521,0.55,0.92,1.185,1.199,1.902
			c0.278,0.719,0.418,1.481,0.418,2.288c0,0.792-0.14,1.548-0.418,2.267c-0.279,0.719-0.675,1.353-1.188,1.902
			s-1.144,0.986-1.892,1.31C176.608,35.238,175.765,35.399,174.826,35.399z M171.813,29.438c0,0.514,0.076,0.979,0.23,1.397
			s0.366,0.78,0.639,1.089c0.271,0.308,0.59,0.547,0.956,0.715c0.367,0.169,0.763,0.253,1.188,0.253
			c0.425,0,0.821-0.084,1.188-0.253c0.367-0.168,0.686-0.407,0.957-0.715c0.271-0.309,0.484-0.675,0.639-1.101
			c0.153-0.425,0.23-0.894,0.23-1.407c0-0.499-0.077-0.961-0.23-1.387c-0.154-0.425-0.367-0.792-0.639-1.1s-0.59-0.546-0.957-0.715
			c-0.366-0.169-0.763-0.253-1.188-0.253c-0.426,0-0.821,0.088-1.188,0.264c-0.366,0.176-0.686,0.418-0.956,0.727
			c-0.272,0.308-0.484,0.675-0.639,1.1C171.889,28.478,171.813,28.939,171.813,29.438z"/>
		<path d="M191.788,26.204c-0.895,0.015-1.694,0.187-2.398,0.517s-1.21,0.825-1.518,1.485v6.974h-2.948V23.651h2.706v2.464
			c0.205-0.396,0.447-0.751,0.727-1.066c0.278-0.315,0.579-0.591,0.901-0.825s0.649-0.414,0.979-0.539
			c0.33-0.124,0.648-0.187,0.957-0.187c0.161,0,0.282,0,0.362,0c0.081,0,0.158,0.007,0.231,0.021V26.204z"/>
		<path d="M195.77,37.424c0.249,0.073,0.491,0.128,0.726,0.165c0.235,0.036,0.433,0.055,0.595,0.055c0.19,0,0.366-0.037,0.527-0.11
			s0.309-0.201,0.44-0.385s0.264-0.437,0.396-0.759c0.133-0.322,0.271-0.726,0.418-1.21l-4.554-11.528h3.036l3.124,8.977
			l2.772-8.977h2.771l-4.84,13.816c-0.279,0.807-0.756,1.467-1.43,1.979c-0.675,0.514-1.511,0.771-2.509,0.771
			c-0.234,0-0.473-0.019-0.715-0.055c-0.242-0.037-0.495-0.1-0.759-0.188V37.424z"/>
	</g>
</g>
<g id="pass">
</g>
<g id="santa">
</g>
<g id="snake_eyes">
</g>
<g id="bodyguard">
</g>
<g id="threeman">
</g>
<g id="_x32__truths_and_a_lie">
</g>
<g id="cray_cray_cat_lady">
</g>
<g id="siblings">
</g>
<g id="take_2">
</g>
<g id="take_3">
</g>
<g id="later">
</g>
<g id="waterfall">
</g>
<g id="cheers">
</g>
<g id="rhyme">
</g>
<g id="categories">
</g>
<g id="tits">
</g>
<g id="dicks">
</g>
<g id="questions">
</g>
<g id="double_hands">
</g>
<g id="give_2">
</g>
<g id="rewind">
</g>
<g id="Cryptkeeper">
</g>
<g id="Take_2_and_Redo">
</g>
<g id="Embryo">
</g>
<g id="I_am_Groot">
</g>
<g id="Mini_Me">
</g>
<g id="Ditto_1_">
</g>
</svg>
