<?xml version="1.0" encoding="utf-8"?>
<!-- Generator: Adobe Illustrator 16.0.0, SVG Export Plug-In . SVG Version: 6.00 Build 0)  -->
<!DOCTYPE svg PUBLIC "-//W3C//DTD SVG 1.1//EN" "http://www.w3.org/Graphics/SVG/1.1/DTD/svg11.dtd">
<svg version="1.1" xmlns="http://www.w3.org/2000/svg" xmlns:xlink="http://www.w3.org/1999/xlink" x="0px" y="0px"
	 width="209.759px" height="62.361px" viewBox="0 0 209.759 62.361" enable-background="new 0 0 209.759 62.361"
	 xml:space="preserve">
<g id="Layer_1">
</g>
<g id="Hat">
</g>
<g id="Compliments">
</g>
<g id="HAT">
</g>
<g id="speech">
</g>
<g id="TREX_ARMS">
</g>
<g id="slim_shady">
</g>
<g id="TIMEOUT">
</g>
<g id="Truth_or_Dare">
</g>
<g id="ARM_WRESTLE">
</g>
<g id="musical_chairs">
</g>
<g id="never_have_i_ever">
</g>
<g id="Trivia">
</g>
<g id="Drink_Pulling">
</g>
<g id="Sharing_is_Caring">
</g>
<g id="Not_It">
</g>
<g id="Cocktail_of_Doom">
</g>
<g id="Heads_up">
</g>
<g id="Archenemy">
</g>
<g id="battle_of_the_sexes">
</g>
<g id="one_must_drink">
</g>
<g id="rainbow_connection">
</g>
<g id="social_drinking">
</g>
<g id="Spin_the_bottle">
</g>
<g id="accents">
</g>
<g id="Slap">
</g>
<g id="give_3">
</g>
<g id="rub">
</g>
<g id="down_the_hatch">
	<g>
		<path d="M13.213,44.824c-0.792,0-1.525-0.153-2.2-0.462c-0.675-0.308-1.254-0.733-1.738-1.275
			c-0.483-0.543-0.861-1.178-1.133-1.903c-0.271-0.727-0.407-1.507-0.407-2.343s0.129-1.613,0.386-2.332
			c0.256-0.719,0.611-1.35,1.066-1.893c0.455-0.542,0.997-0.968,1.628-1.275c0.631-0.309,1.32-0.462,2.068-0.462
			c0.851,0,1.617,0.205,2.299,0.615c0.682,0.411,1.214,0.946,1.595,1.606v-6.556h2.948v12.672c0,0.308,0.052,0.527,0.154,0.66
			c0.103,0.132,0.278,0.205,0.527,0.22v2.508c-0.513,0.103-0.931,0.154-1.254,0.154c-0.527,0-0.96-0.132-1.298-0.396
			c-0.337-0.264-0.527-0.608-0.572-1.034l-0.065-0.726c-0.426,0.733-1.001,1.287-1.728,1.661
			C14.764,44.638,14.005,44.824,13.213,44.824z M13.982,42.316c0.278,0,0.564-0.047,0.858-0.143
			c0.293-0.096,0.564-0.231,0.813-0.407c0.25-0.176,0.474-0.381,0.671-0.616c0.198-0.234,0.349-0.491,0.451-0.77v-2.75
			c-0.117-0.323-0.282-0.62-0.495-0.892c-0.212-0.271-0.454-0.506-0.726-0.704c-0.271-0.197-0.558-0.355-0.858-0.473
			s-0.598-0.176-0.891-0.176c-0.44,0-0.847,0.096-1.221,0.286s-0.693,0.45-0.957,0.78c-0.265,0.33-0.47,0.708-0.616,1.134
			c-0.146,0.425-0.22,0.865-0.22,1.319c0,0.484,0.08,0.932,0.242,1.342c0.161,0.411,0.381,0.771,0.659,1.078
			c0.278,0.309,0.612,0.551,1.001,0.727S13.513,42.316,13.982,42.316z"/>
		<path d="M30.042,44.824c-0.938,0-1.782-0.161-2.53-0.483c-0.748-0.323-1.382-0.76-1.902-1.31c-0.521-0.55-0.921-1.184-1.199-1.902
			c-0.279-0.719-0.418-1.475-0.418-2.267c0-0.807,0.139-1.569,0.418-2.288c0.278-0.718,0.678-1.353,1.199-1.902
			c0.521-0.551,1.154-0.986,1.902-1.31c0.748-0.322,1.592-0.483,2.53-0.483s1.778,0.161,2.519,0.483
			c0.741,0.323,1.372,0.759,1.893,1.31c0.521,0.55,0.92,1.185,1.199,1.902c0.278,0.719,0.418,1.481,0.418,2.288
			c0,0.792-0.14,1.548-0.418,2.267c-0.279,0.719-0.675,1.353-1.188,1.902s-1.144,0.986-1.892,1.31
			C31.824,44.663,30.98,44.824,30.042,44.824z M27.028,38.862c0,0.514,0.076,0.979,0.23,1.397s0.366,0.78,0.639,1.089
			c0.271,0.308,0.59,0.547,0.956,0.715c0.367,0.169,0.763,0.253,1.188,0.253c0.425,0,0.821-0.084,1.188-0.253
			c0.367-0.168,0.686-0.407,0.957-0.715c0.271-0.309,0.484-0.675,0.639-1.101c0.153-0.425,0.23-0.894,0.23-1.407
			c0-0.499-0.077-0.961-0.23-1.387c-0.154-0.425-0.367-0.792-0.639-1.1s-0.59-0.546-0.957-0.715
			c-0.366-0.169-0.763-0.253-1.188-0.253c-0.426,0-0.821,0.088-1.188,0.264c-0.366,0.176-0.686,0.418-0.956,0.727
			c-0.272,0.308-0.484,0.675-0.639,1.1C27.104,37.902,27.028,38.364,27.028,38.862z"/>
		<path d="M54.021,33.076h2.794l-4.817,11.528h-2.42l-1.98-5.06l-1.958,5.06h-2.42l-4.796-11.528h2.772l3.432,8.756l1.408-3.739
			l-2.024-4.994h2.376l1.21,3.542l1.232-3.542h2.376l-2.002,4.994l1.386,3.739L54.021,33.076z"/>
		<path d="M70.983,44.604h-2.947v-6.468c0-0.924-0.162-1.599-0.484-2.024c-0.323-0.425-0.771-0.638-1.342-0.638
			c-0.294,0-0.594,0.059-0.902,0.176c-0.308,0.117-0.598,0.282-0.869,0.495s-0.517,0.466-0.736,0.759
			c-0.221,0.294-0.382,0.616-0.484,0.968v6.732H60.27V33.076h2.662v2.135c0.426-0.733,1.041-1.306,1.848-1.717
			c0.807-0.41,1.717-0.615,2.729-0.615c0.719,0,1.305,0.132,1.76,0.396s0.807,0.608,1.057,1.034
			c0.249,0.426,0.421,0.909,0.517,1.452c0.095,0.543,0.143,1.093,0.143,1.649V44.604z"/>
		<path d="M89.926,44.011c-0.396,0.176-0.88,0.352-1.452,0.527c-0.572,0.177-1.174,0.265-1.804,0.265
			c-0.411,0-0.796-0.052-1.155-0.154s-0.675-0.268-0.946-0.495c-0.271-0.227-0.487-0.521-0.648-0.88
			c-0.162-0.359-0.242-0.795-0.242-1.309v-6.622H82.16v-2.267h1.518v-3.739h2.948v3.739h2.42v2.267h-2.42v5.632
			c0,0.411,0.106,0.7,0.318,0.869c0.213,0.169,0.474,0.253,0.781,0.253c0.309,0,0.608-0.052,0.902-0.154
			c0.293-0.103,0.528-0.19,0.704-0.264L89.926,44.011z"/>
		<path d="M104.269,44.604h-2.947v-6.468c0-0.909-0.169-1.58-0.507-2.014c-0.337-0.432-0.813-0.648-1.43-0.648
			c-0.264,0-0.543,0.059-0.836,0.176c-0.294,0.117-0.572,0.282-0.836,0.495s-0.506,0.466-0.726,0.759
			c-0.221,0.294-0.382,0.616-0.484,0.968v6.732h-2.948v-16.06h2.948v6.666c0.425-0.748,1.001-1.324,1.727-1.728
			c0.727-0.403,1.529-0.604,2.409-0.604c0.748,0,1.356,0.128,1.826,0.385s0.836,0.598,1.1,1.022c0.265,0.426,0.447,0.91,0.551,1.452
			c0.103,0.543,0.153,1.101,0.153,1.672V44.604z"/>
		<path d="M114.279,44.824c-0.925,0-1.761-0.157-2.509-0.473s-1.386-0.744-1.914-1.287c-0.527-0.542-0.935-1.173-1.221-1.892
			s-0.429-1.475-0.429-2.267c0-0.821,0.139-1.595,0.418-2.32c0.278-0.727,0.682-1.364,1.21-1.914
			c0.528-0.551,1.169-0.986,1.925-1.31c0.755-0.322,1.603-0.483,2.541-0.483s1.778,0.161,2.519,0.483
			c0.741,0.323,1.372,0.756,1.893,1.298c0.521,0.543,0.916,1.174,1.188,1.893s0.407,1.467,0.407,2.244
			c0,0.19-0.004,0.374-0.011,0.55c-0.008,0.176-0.025,0.322-0.055,0.439h-8.91c0.044,0.455,0.153,0.858,0.33,1.21
			c0.176,0.353,0.403,0.653,0.682,0.902c0.278,0.25,0.594,0.44,0.946,0.572c0.352,0.132,0.718,0.198,1.1,0.198
			c0.587,0,1.141-0.144,1.661-0.43s0.876-0.663,1.067-1.133l2.529,0.704c-0.425,0.88-1.104,1.603-2.034,2.167
			C116.681,44.542,115.569,44.824,114.279,44.824z M117.271,37.872c-0.073-0.865-0.393-1.558-0.957-2.078s-1.25-0.781-2.057-0.781
			c-0.396,0-0.767,0.069-1.111,0.209s-0.648,0.334-0.913,0.583c-0.264,0.249-0.48,0.55-0.648,0.901
			c-0.169,0.353-0.268,0.741-0.297,1.166H117.271z"/>
		<path d="M142.284,44.604h-2.947v-6.468c0-0.909-0.169-1.58-0.507-2.014c-0.337-0.432-0.813-0.648-1.43-0.648
			c-0.264,0-0.543,0.059-0.836,0.176c-0.294,0.117-0.572,0.282-0.836,0.495s-0.506,0.466-0.726,0.759
			c-0.221,0.294-0.382,0.616-0.484,0.968v6.732h-2.948v-16.06h2.948v6.666c0.425-0.748,1.001-1.324,1.727-1.728
			c0.727-0.403,1.529-0.604,2.409-0.604c0.748,0,1.356,0.128,1.826,0.385s0.836,0.598,1.1,1.022c0.265,0.426,0.447,0.91,0.551,1.452
			c0.103,0.543,0.153,1.101,0.153,1.672V44.604z"/>
		<path d="M150.095,44.824c-0.558,0-1.078-0.092-1.563-0.274c-0.483-0.184-0.901-0.44-1.254-0.771
			c-0.352-0.33-0.627-0.715-0.825-1.155c-0.197-0.439-0.297-0.924-0.297-1.451c0-0.543,0.121-1.045,0.363-1.508
			c0.242-0.462,0.579-0.854,1.012-1.177c0.433-0.322,0.949-0.575,1.551-0.759s1.262-0.275,1.98-0.275
			c0.513,0,1.016,0.044,1.507,0.133c0.491,0.088,0.928,0.212,1.31,0.374v-0.66c0-0.763-0.217-1.35-0.649-1.761
			c-0.433-0.41-1.074-0.615-1.925-0.615c-0.616,0-1.218,0.109-1.805,0.33c-0.586,0.22-1.188,0.542-1.804,0.968l-0.901-1.87
			c1.48-0.982,3.079-1.474,4.796-1.474c1.657,0,2.943,0.406,3.86,1.221c0.917,0.813,1.375,1.991,1.375,3.531v3.586
			c0,0.308,0.056,0.527,0.165,0.66c0.11,0.132,0.29,0.205,0.539,0.22v2.508c-0.499,0.103-0.932,0.154-1.298,0.154
			c-0.558,0-0.986-0.125-1.287-0.374s-0.487-0.579-0.561-0.99l-0.066-0.638c-0.514,0.675-1.137,1.188-1.87,1.54
			C151.715,44.648,150.931,44.824,150.095,44.824z M150.931,42.669c0.498,0,0.972-0.089,1.419-0.265s0.795-0.41,1.045-0.704
			c0.322-0.249,0.484-0.527,0.484-0.836v-1.319c-0.353-0.133-0.734-0.238-1.145-0.319c-0.411-0.08-0.807-0.121-1.188-0.121
			c-0.764,0-1.387,0.173-1.87,0.517c-0.484,0.345-0.727,0.781-0.727,1.31c0,0.499,0.19,0.913,0.572,1.243
			C149.903,42.504,150.373,42.669,150.931,42.669z"/>
		<path d="M168.486,44.011c-0.396,0.176-0.88,0.352-1.452,0.527c-0.572,0.177-1.174,0.265-1.804,0.265
			c-0.411,0-0.796-0.052-1.155-0.154s-0.675-0.268-0.946-0.495c-0.271-0.227-0.487-0.521-0.648-0.88
			c-0.162-0.359-0.242-0.795-0.242-1.309v-6.622h-1.518v-2.267h1.518v-3.739h2.948v3.739h2.42v2.267h-2.42v5.632
			c0,0.411,0.106,0.7,0.318,0.869c0.213,0.169,0.474,0.253,0.781,0.253c0.309,0,0.608-0.052,0.902-0.154
			c0.293-0.103,0.528-0.19,0.704-0.264L168.486,44.011z"/>
		<path d="M171.104,38.841c0-0.807,0.139-1.569,0.418-2.288c0.278-0.719,0.682-1.35,1.21-1.893c0.528-0.542,1.166-0.975,1.914-1.298
			c0.748-0.322,1.591-0.483,2.53-0.483c1.261,0,2.335,0.271,3.223,0.813c0.887,0.543,1.551,1.254,1.991,2.134l-2.883,0.88
			c-0.249-0.425-0.579-0.751-0.989-0.979c-0.411-0.228-0.866-0.341-1.364-0.341c-0.426,0-0.821,0.084-1.188,0.253
			c-0.366,0.169-0.686,0.403-0.956,0.704c-0.272,0.301-0.484,0.663-0.639,1.089s-0.23,0.895-0.23,1.408s0.08,0.982,0.241,1.407
			c0.162,0.426,0.378,0.792,0.649,1.101c0.271,0.308,0.59,0.547,0.957,0.715c0.366,0.169,0.755,0.253,1.166,0.253
			c0.528,0,1.016-0.132,1.463-0.396c0.447-0.265,0.759-0.587,0.936-0.969l2.882,0.88c-0.396,0.881-1.049,1.6-1.958,2.156
			c-0.91,0.558-2.002,0.836-3.278,0.836c-0.938,0-1.782-0.161-2.53-0.483c-0.748-0.323-1.386-0.76-1.914-1.31
			c-0.527-0.55-0.935-1.188-1.221-1.914C171.247,40.392,171.104,39.633,171.104,38.841z"/>
		<path d="M197.042,44.604h-2.947v-6.468c0-0.909-0.169-1.58-0.507-2.014c-0.337-0.432-0.813-0.648-1.43-0.648
			c-0.264,0-0.543,0.059-0.836,0.176c-0.294,0.117-0.572,0.282-0.836,0.495s-0.506,0.466-0.726,0.759
			c-0.221,0.294-0.382,0.616-0.484,0.968v6.732h-2.948v-16.06h2.948v6.666c0.425-0.748,1.001-1.324,1.727-1.728
			c0.727-0.403,1.529-0.604,2.409-0.604c0.748,0,1.356,0.128,1.826,0.385s0.836,0.598,1.1,1.022c0.265,0.426,0.447,0.91,0.551,1.452
			c0.103,0.543,0.153,1.101,0.153,1.672V44.604z"/>
	</g>
</g>
<g id="rubiks_cube">
</g>
<g id="bar_tender">
</g>
<g id="codenames">
</g>
<g id="hand_switch">
</g>
<g id="make_a_rule">
</g>
<g id="no_guts_no_glory">
</g>
<g id="pass">
</g>
<g id="santa">
</g>
<g id="snake_eyes">
</g>
<g id="bodyguard">
</g>
<g id="threeman">
</g>
<g id="_x32__truths_and_a_lie">
</g>
<g id="cray_cray_cat_lady">
</g>
<g id="siblings">
</g>
<g id="take_2">
</g>
<g id="take_3">
</g>
<g id="later">
</g>
<g id="waterfall">
</g>
<g id="cheers">
</g>
<g id="rhyme">
</g>
<g id="categories">
</g>
<g id="tits">
</g>
<g id="dicks">
</g>
<g id="questions">
</g>
<g id="double_hands">
</g>
<g id="give_2">
</g>
<g id="rewind">
</g>
<g id="Cryptkeeper">
</g>
<g id="Take_2_and_Redo">
</g>
<g id="Embryo">
</g>
<g id="I_am_Groot">
</g>
<g id="Mini_Me">
</g>
<g id="Ditto_1_">
</g>
</svg>
