<?xml version="1.0" encoding="utf-8"?>
<!-- Generator: Adobe Illustrator 16.0.0, SVG Export Plug-In . SVG Version: 6.00 Build 0)  -->
<!DOCTYPE svg PUBLIC "-//W3C//DTD SVG 1.1//EN" "http://www.w3.org/Graphics/SVG/1.1/DTD/svg11.dtd">
<svg version="1.1" xmlns="http://www.w3.org/2000/svg" xmlns:xlink="http://www.w3.org/1999/xlink" x="0px" y="0px"
	 width="209.759px" height="62.361px" viewBox="0 0 209.759 62.361" enable-background="new 0 0 209.759 62.361"
	 xml:space="preserve">
<g id="Layer_1">
</g>
<g id="Blindman">
</g>
<g id="Compliments">
</g>
<g id="HAT">
</g>
<g id="speech">
</g>
<g id="TREX_ARMS">
</g>
<g id="slim_shady">
</g>
<g id="TIMEOUT">
</g>
<g id="Truth_or_Dare">
</g>
<g id="ARM_WRESTLE">
</g>
<g id="musical_chairs">
</g>
<g id="never_have_i_ever">
</g>
<g id="Trivia">
</g>
<g id="Drink_Pulling">
</g>
<g id="Sharing_is_Caring">
</g>
<g id="Not_It">
</g>
<g id="Cocktail_of_Doom">
</g>
<g id="Heads_up">
</g>
<g id="Archenemy">
</g>
<g id="battle_of_the_sexes">
</g>
<g id="one_must_drink">
</g>
<g id="rainbow_connection">
</g>
<g id="social_drinking">
</g>
<g id="Spin_the_bottle">
</g>
<g id="accents">
</g>
<g id="Slap">
</g>
<g id="down_the_hatch">
</g>
<g id="rubiks_cube">
</g>
<g id="bar_tender">
</g>
<g id="codenames">
</g>
<g id="hand_switch">
</g>
<g id="make_a_rule">
</g>
<g id="no_guts_no_glory">
</g>
<g id="pass">
</g>
<g id="santa">
</g>
<g id="snake_eyes">
</g>
<g id="lightning_round">
</g>
<g id="Bro">
</g>
<g id="LeastDrunk">
</g>
<g id="Know_It_All">
	<g>
		<path d="M18.063,42.019c0.088-0.131,0.205-0.234,0.352-0.307c0.146-0.074,0.312-0.121,0.495-0.143
			c0.184-0.023,0.37-0.033,0.561-0.033l0.133-0.088V33.44c0.088-0.162,0.132-0.324,0.132-0.484c0-0.176,0-0.354,0-0.529
			c0-0.41-0.004-0.762-0.012-1.055c-0.007-0.293-0.032-0.668-0.076-1.123c-0.118-0.16-0.275-0.244-0.474-0.252
			s-0.396-0.02-0.594-0.033c-0.198-0.016-0.37-0.074-0.517-0.176c-0.147-0.104-0.221-0.346-0.221-0.727
			c0-0.455,0.144-0.773,0.43-0.957c0.285-0.184,0.627-0.275,1.022-0.275c0.337,0,0.663,0.049,0.979,0.145
			c0.314,0.096,0.648,0.143,1.001,0.143c0.249,0,0.487-0.02,0.715-0.055c0.227-0.037,0.465-0.057,0.715-0.057
			c0.337,0,0.646,0.092,0.924,0.275s0.418,0.453,0.418,0.805c0,0.191-0.033,0.35-0.099,0.475c-0.066,0.125-0.18,0.246-0.341,0.363
			c-0.044,0.014-0.121,0.033-0.231,0.055s-0.23,0.047-0.363,0.076c-0.132,0.031-0.257,0.057-0.374,0.078s-0.197,0.033-0.241,0.033
			c-0.016,0-0.052,0.008-0.11,0.021c-0.059,0.016-0.121,0.025-0.188,0.033c-0.065,0.008-0.128,0.016-0.187,0.021
			c-0.059,0.008-0.096,0.012-0.11,0.012c-0.015,0.016-0.032,0.029-0.055,0.045c-0.022,0.014-0.033,0.029-0.033,0.043
			c-0.015,0.191-0.033,0.393-0.055,0.605c-0.022,0.213-0.063,0.416-0.121,0.605v2.512l0.176,0.508h0.353
			c0.146-0.133,0.264-0.242,0.352-0.33s0.18-0.18,0.275-0.275c0.095-0.096,0.172-0.18,0.23-0.254
			c0.161-0.191,0.341-0.393,0.539-0.605s0.334-0.445,0.407-0.695l1.54-1.541c0.073-0.074,0.139-0.184,0.198-0.33
			c0.059-0.148,0.088-0.271,0.088-0.375c0-0.045-0.041-0.104-0.121-0.176c-0.081-0.074-0.173-0.162-0.275-0.266
			c-0.103-0.102-0.194-0.234-0.274-0.396c-0.081-0.162-0.121-0.352-0.121-0.572c0-0.205,0.044-0.371,0.132-0.496
			s0.198-0.221,0.33-0.285c0.132-0.066,0.282-0.107,0.451-0.123c0.168-0.014,0.333-0.021,0.495-0.021
			c0.249,0,0.494,0.02,0.736,0.055c0.242,0.037,0.487,0.057,0.737,0.057c0.249,0,0.48-0.02,0.693-0.057
			c0.212-0.035,0.443-0.055,0.692-0.055c0.41,0,0.723,0.082,0.936,0.242c0.212,0.162,0.318,0.455,0.318,0.883
			c0,0.277-0.063,0.494-0.187,0.648c-0.125,0.154-0.283,0.266-0.474,0.33c-0.19,0.066-0.406,0.107-0.648,0.121
			c-0.242,0.016-0.473,0.031-0.693,0.045c-0.308,0.234-0.561,0.508-0.759,0.814c-0.198,0.309-0.429,0.609-0.693,0.904
			c-0.117,0.133-0.289,0.301-0.517,0.506s-0.451,0.424-0.671,0.65c-0.22,0.229-0.411,0.455-0.572,0.684
			c-0.161,0.227-0.242,0.422-0.242,0.584c0,0.029,0.008,0.109,0.022,0.242c0,0.029,0.04,0.088,0.121,0.176
			c0.08,0.088,0.128,0.146,0.143,0.176c0.146,0.266,0.305,0.613,0.474,1.047c0.168,0.434,0.355,0.805,0.561,1.113
			c0.396,0.631,0.767,1.281,1.111,1.949c0.344,0.668,0.686,1.34,1.022,2.016l0.44,0.418c0.146,0.016,0.333,0.029,0.561,0.045
			c0.228,0.014,0.447,0.055,0.66,0.121s0.396,0.162,0.55,0.287c0.154,0.123,0.231,0.297,0.231,0.518
			c0,0.527-0.136,0.873-0.407,1.035c-0.271,0.16-0.642,0.242-1.111,0.242c-0.249,0-0.483-0.016-0.703-0.045
			c-0.221-0.029-0.448-0.043-0.683-0.043s-0.462,0.014-0.682,0.043s-0.455,0.045-0.704,0.045c-0.22,0-0.44-0.02-0.66-0.055
			c-0.22-0.037-0.418-0.104-0.594-0.199s-0.319-0.223-0.429-0.385c-0.11-0.16-0.165-0.373-0.165-0.639
			c0-0.264,0.076-0.439,0.23-0.527s0.322-0.146,0.506-0.176s0.353-0.07,0.506-0.121c0.154-0.051,0.231-0.164,0.231-0.342
			c0-0.189-0.044-0.385-0.132-0.582s-0.162-0.363-0.221-0.494c0-0.029-0.011-0.063-0.032-0.1c-0.022-0.037-0.041-0.063-0.056-0.078
			c-0.073-0.102-0.176-0.27-0.308-0.506c-0.132-0.234-0.275-0.502-0.429-0.803c-0.154-0.301-0.319-0.611-0.495-0.936
			c-0.176-0.322-0.341-0.619-0.495-0.891s-0.29-0.498-0.407-0.682s-0.205-0.289-0.264-0.318c-0.029-0.016-0.125,0.051-0.286,0.197
			s-0.338,0.318-0.528,0.518c-0.19,0.197-0.366,0.393-0.527,0.582c-0.162,0.191-0.265,0.33-0.309,0.418
			c-0.088,0.221-0.14,0.463-0.153,0.727c-0.016,0.264-0.022,0.521-0.022,0.77v0.572c0.015,0.133,0.029,0.301,0.044,0.506
			s0.033,0.404,0.055,0.594c0.022,0.191,0.048,0.426,0.077,0.705l0.176,0.219h1.54c0.221,0,0.393,0.1,0.518,0.299
			c0.124,0.197,0.187,0.385,0.187,0.561c0,0.381-0.153,0.67-0.462,0.869c-0.308,0.197-0.631,0.297-0.968,0.297
			c-0.206,0-0.407-0.016-0.605-0.045c-0.197-0.029-0.399-0.043-0.604-0.043c-0.426,0-0.854,0.025-1.287,0.076
			s-0.877,0.078-1.331,0.078c-0.322,0-0.561-0.115-0.715-0.342s-0.231-0.488-0.231-0.781C17.93,42.335,17.974,42.151,18.063,42.019z
			"/>
		<path d="M33.858,41.437c0.293-0.125,0.66-0.201,1.1-0.23l0.088-0.088c0.029-0.205,0.056-0.443,0.077-0.715
			c0.022-0.271,0.056-0.518,0.1-0.738v-5.082c0-0.102-0.092-0.18-0.275-0.23s-0.382-0.121-0.594-0.209
			c-0.213-0.088-0.411-0.217-0.595-0.385s-0.274-0.43-0.274-0.781c0-0.381,0.136-0.641,0.407-0.781
			c0.271-0.139,0.567-0.209,0.891-0.209c0.044,0,0.11,0,0.198,0c0.103,0,0.153,0.008,0.153,0.021
			c0.426,0.059,0.767,0.133,1.023,0.221s0.458,0.209,0.605,0.363c0.146,0.154,0.249,0.355,0.308,0.605
			c0.059,0.248,0.103,0.564,0.132,0.945c0.015,0.016,0.029,0.021,0.044,0.021h0.044c0.088,0,0.173-0.043,0.253-0.131
			c0.081-0.088,0.165-0.191,0.253-0.309s0.177-0.234,0.265-0.352s0.176-0.205,0.264-0.264c0.41-0.295,0.847-0.584,1.309-0.869
			c0.463-0.287,0.957-0.43,1.485-0.43c0.322,0,0.649,0.076,0.979,0.23c0.329,0.154,0.623,0.355,0.88,0.605
			c0.256,0.25,0.465,0.535,0.627,0.857c0.161,0.324,0.242,0.654,0.242,0.99v5.434c-0.06,0.162-0.092,0.309-0.1,0.441
			c-0.008,0.131-0.011,0.277-0.011,0.439c0,0.043,0.007,0.146,0.021,0.309l0.089,0.088c0.396,0.072,0.751,0.205,1.066,0.395
			c0.315,0.191,0.474,0.521,0.474,0.99c0,0.383-0.114,0.635-0.342,0.76s-0.517,0.188-0.869,0.188h-0.329
			c-0.118,0-0.323-0.004-0.616-0.012c-0.294-0.008-0.605-0.014-0.936-0.021s-0.642-0.02-0.935-0.033
			c-0.294-0.014-0.499-0.021-0.616-0.021c-0.47-0.133-0.704-0.434-0.704-0.902c0-0.557,0.157-0.914,0.474-1.066
			c0.314-0.154,0.707-0.246,1.177-0.275l0.088-0.088l0.198-0.859v-3.344c0.014-0.043,0.04-0.131,0.077-0.264
			c0.036-0.133,0.055-0.221,0.055-0.264v-0.045V36.3c0-0.029-0.011-0.113-0.033-0.254c-0.021-0.139-0.04-0.223-0.055-0.252
			c0-0.045-0.004-0.125-0.012-0.242c-0.007-0.117-0.015-0.238-0.021-0.363c-0.008-0.125-0.015-0.246-0.022-0.363
			c-0.007-0.117-0.011-0.197-0.011-0.242c-0.132-0.219-0.301-0.348-0.506-0.385s-0.418-0.055-0.638-0.055
			c-0.367,0-0.708,0.088-1.023,0.264s-0.604,0.396-0.869,0.66c-0.264,0.264-0.502,0.555-0.715,0.869
			c-0.213,0.316-0.399,0.613-0.561,0.891c-0.015,0.016-0.044,0.055-0.088,0.121c-0.045,0.066-0.074,0.113-0.089,0.143
			c-0.044,0.074-0.146,0.242-0.308,0.506v2.51c-0.073,0.146-0.113,0.271-0.121,0.373c-0.008,0.104-0.011,0.234-0.011,0.396v0.33
			c0.088,0.131,0.23,0.209,0.429,0.23s0.403,0.063,0.616,0.121c0.212,0.059,0.396,0.162,0.55,0.309s0.231,0.41,0.231,0.791
			c0,0.309-0.114,0.539-0.341,0.693c-0.229,0.154-0.488,0.246-0.781,0.275h-0.902h-0.902c-0.029,0-0.103-0.016-0.22-0.045
			s-0.19-0.043-0.22-0.043c-0.25-0.029-0.499-0.049-0.748-0.055c-0.25-0.008-0.473-0.041-0.671-0.1s-0.355-0.162-0.473-0.309
			c-0.118-0.146-0.177-0.381-0.177-0.703C33.418,41.874,33.564,41.562,33.858,41.437z"/>
		<path d="M49.136,35.661c0.198-0.777,0.51-1.467,0.936-2.068c0.425-0.6,0.972-1.08,1.639-1.439s1.463-0.539,2.387-0.539
			c0.704,0,1.313,0.135,1.826,0.406s1.026,0.627,1.54,1.066c0.015,0.016,0.029,0.033,0.044,0.055
			c0.015,0.023,0.029,0.033,0.044,0.033c0.177,0.338,0.355,0.672,0.539,1.002s0.353,0.668,0.506,1.012
			c0.154,0.346,0.279,0.697,0.374,1.057c0.096,0.359,0.144,0.729,0.144,1.111c0,0.043-0.004,0.127-0.011,0.252
			c-0.008,0.125-0.012,0.201-0.012,0.23c-0.029,0.088-0.069,0.246-0.121,0.473c-0.051,0.229-0.109,0.471-0.176,0.727
			c-0.065,0.258-0.128,0.504-0.187,0.738s-0.096,0.395-0.11,0.482c-0.117,0.396-0.319,0.814-0.604,1.254
			c-0.286,0.441-0.62,0.84-1.001,1.199c-0.382,0.359-0.796,0.656-1.243,0.891c-0.448,0.236-0.892,0.354-1.331,0.354
			c-0.221,0-0.389-0.016-0.506-0.045c-0.118-0.029-0.217-0.066-0.298-0.109c-0.08-0.045-0.164-0.092-0.253-0.143
			c-0.088-0.053-0.212-0.1-0.374-0.145c-0.073-0.014-0.212-0.035-0.418-0.064c-0.205-0.029-0.352-0.059-0.439-0.088
			c-0.073-0.029-0.173-0.078-0.297-0.145c-0.125-0.064-0.25-0.131-0.374-0.197c-0.125-0.066-0.242-0.125-0.353-0.176
			c-0.109-0.051-0.172-0.084-0.187-0.1c-0.294-0.189-0.562-0.484-0.803-0.879c-0.242-0.396-0.451-0.822-0.628-1.277
			c-0.176-0.453-0.312-0.908-0.406-1.363c-0.096-0.455-0.144-0.844-0.144-1.166C48.839,37.237,48.938,36.438,49.136,35.661z
			 M50.764,38.565c0.022,0.205,0.056,0.41,0.1,0.615c0.044,0.207,0.099,0.4,0.165,0.584c0.065,0.184,0.143,0.318,0.23,0.406
			l1.034,1.035c0.161,0.043,0.29,0.072,0.385,0.088c0.096,0.014,0.194,0.029,0.298,0.043c0.102,0.016,0.19,0.023,0.264,0.023
			c0.015,0.014,0.117,0.021,0.308,0.021c0.205,0,0.359,0,0.462,0c0.294,0,0.547-0.004,0.76-0.012
			c0.212-0.008,0.45-0.063,0.715-0.164c0.63-0.514,1.048-1.068,1.254-1.662c0.205-0.594,0.308-1.279,0.308-2.057
			c0-0.455-0.048-0.877-0.143-1.266c-0.096-0.387-0.224-0.795-0.385-1.221c-0.074-0.189-0.195-0.348-0.363-0.473
			c-0.169-0.125-0.353-0.234-0.55-0.33c-0.198-0.096-0.404-0.18-0.616-0.252c-0.213-0.074-0.393-0.154-0.539-0.242h-1.386
			c-0.015,0-0.11,0.055-0.286,0.164s-0.309,0.195-0.396,0.254c-0.352,0.248-0.635,0.52-0.847,0.813
			c-0.213,0.295-0.382,0.605-0.506,0.936c-0.125,0.33-0.206,0.68-0.242,1.045c-0.037,0.367-0.055,0.756-0.055,1.166
			C50.731,38.198,50.742,38.36,50.764,38.565z"/>
		<path d="M64.173,41.075c-0.132-0.67-0.278-1.352-0.439-2.043c-0.19-0.779-0.393-1.602-0.605-2.463
			c-0.212-0.861-0.443-1.682-0.692-2.461c-0.03-0.029-0.077-0.078-0.144-0.145c-0.065-0.066-0.136-0.135-0.209-0.209
			s-0.143-0.143-0.209-0.209c-0.065-0.066-0.106-0.115-0.121-0.145c-0.073-0.074-0.106-0.162-0.099-0.266
			c0.007-0.104,0.011-0.197,0.011-0.287c0-0.25,0.048-0.445,0.144-0.584c0.095-0.141,0.224-0.244,0.385-0.311
			c0.161-0.064,0.341-0.102,0.539-0.109s0.399-0.012,0.604-0.012c0.19,0,0.403,0.008,0.639,0.023
			c0.234,0.014,0.458,0.059,0.671,0.131c0.212,0.074,0.389,0.184,0.527,0.33c0.14,0.146,0.21,0.352,0.21,0.615
			c0,0.236-0.056,0.408-0.165,0.518c-0.11,0.109-0.231,0.195-0.363,0.254s-0.253,0.113-0.363,0.164
			c-0.11,0.053-0.165,0.137-0.165,0.254v0.131c0.044,0.162,0.113,0.447,0.209,0.859c0.096,0.41,0.198,0.846,0.309,1.309
			c0.109,0.461,0.212,0.895,0.308,1.297c0.095,0.404,0.165,0.686,0.209,0.848c0.029,0.074,0.088,0.25,0.176,0.527h0.088l0.177-0.352
			l0.857-3.959v-1.035c0-0.059-0.037-0.105-0.11-0.143s-0.153-0.08-0.241-0.133c-0.088-0.051-0.169-0.127-0.242-0.23
			c-0.073-0.102-0.11-0.264-0.11-0.484c0-0.146,0.012-0.273,0.033-0.385c0.022-0.109,0.128-0.193,0.319-0.252
			c0.044-0.016,0.113-0.037,0.209-0.066c0.095-0.029,0.197-0.059,0.308-0.088s0.213-0.055,0.308-0.078
			c0.096-0.021,0.165-0.031,0.21-0.031c0.014,0,0.076-0.004,0.187-0.012s0.194-0.012,0.253-0.012c0.19,0,0.433,0.008,0.726,0.023
			c0.294,0.014,0.58,0.059,0.858,0.131c0.278,0.074,0.517,0.184,0.715,0.33s0.297,0.359,0.297,0.639
			c0,0.131-0.032,0.238-0.099,0.318s-0.143,0.154-0.231,0.221c-0.088,0.064-0.184,0.129-0.285,0.186
			c-0.104,0.061-0.191,0.141-0.265,0.242c0,0.029-0.004,0.1-0.011,0.209c-0.008,0.111-0.011,0.18-0.011,0.209
			c0,0.059,0.003,0.145,0.011,0.254c0.007,0.109,0.011,0.172,0.011,0.188c0,0.029,0.015,0.088,0.044,0.176s0.059,0.186,0.088,0.297
			c0.029,0.109,0.059,0.213,0.089,0.307c0.028,0.096,0.044,0.152,0.044,0.166c0.058,0.338,0.099,0.668,0.12,0.99
			c0.022,0.322,0.07,0.652,0.144,0.99c0.029,0.16,0.069,0.373,0.121,0.637c0.051,0.266,0.099,0.488,0.143,0.672
			s0.066,0.289,0.066,0.318l0.088,0.088c0.088-0.029,0.154-0.088,0.198-0.176s0.073-0.189,0.088-0.307s0.021-0.236,0.021-0.354
			s0.015-0.211,0.044-0.285c0-0.029,0.019-0.1,0.056-0.209c0.036-0.109,0.073-0.227,0.109-0.352c0.037-0.125,0.073-0.242,0.11-0.354
			c0.036-0.109,0.055-0.178,0.055-0.209c0.044-0.146,0.096-0.34,0.154-0.582s0.117-0.484,0.176-0.727s0.106-0.451,0.144-0.627
			c0.036-0.176,0.055-0.271,0.055-0.285v-1.123c0-0.088-0.048-0.156-0.143-0.209c-0.096-0.051-0.206-0.102-0.33-0.154
			c-0.125-0.051-0.235-0.113-0.33-0.186c-0.096-0.074-0.144-0.191-0.144-0.354c0-0.234,0.059-0.424,0.177-0.57
			c0.117-0.146,0.264-0.262,0.439-0.342s0.366-0.133,0.572-0.154c0.205-0.021,0.396-0.033,0.572-0.033
			c0.19,0,0.402,0.012,0.638,0.033c0.234,0.021,0.454,0.07,0.66,0.143c0.205,0.074,0.377,0.184,0.517,0.33s0.209,0.346,0.209,0.594
			v0.287c-0.029,0.029-0.077,0.076-0.143,0.143c-0.066,0.066-0.136,0.137-0.209,0.209c-0.074,0.074-0.144,0.143-0.209,0.209
			c-0.066,0.066-0.106,0.113-0.121,0.143c-0.015,0-0.03,0.023-0.044,0.066c-0.015,0.045-0.03,0.08-0.044,0.109
			c-0.016,0.045-0.037,0.104-0.066,0.178c-0.029,0.072-0.059,0.15-0.088,0.23s-0.055,0.158-0.077,0.23
			c-0.021,0.074-0.033,0.117-0.033,0.133c-0.029,0.131-0.08,0.338-0.153,0.615c-0.074,0.279-0.158,0.594-0.253,0.945
			c-0.096,0.354-0.191,0.719-0.286,1.102c-0.096,0.381-0.188,0.748-0.275,1.1s-0.169,0.668-0.242,0.945
			c-0.073,0.279-0.125,0.484-0.153,0.617c-0.03,0.482-0.11,0.967-0.242,1.451s-0.286,0.953-0.462,1.408
			c-0.118,0.146-0.246,0.268-0.386,0.363c-0.139,0.096-0.304,0.143-0.494,0.143c-0.133,0-0.283-0.018-0.451-0.055
			c-0.169-0.037-0.297-0.107-0.386-0.209c-0.117-0.117-0.228-0.375-0.329-0.77c-0.104-0.396-0.198-0.855-0.286-1.375
			c-0.088-0.521-0.169-1.068-0.242-1.641c-0.073-0.57-0.146-1.104-0.22-1.594c-0.074-0.492-0.151-0.902-0.231-1.232
			c-0.081-0.33-0.158-0.51-0.23-0.539c-0.118,0.074-0.202,0.184-0.254,0.33c-0.051,0.146-0.084,0.305-0.099,0.473
			c-0.015,0.17-0.025,0.338-0.033,0.506c-0.007,0.17-0.025,0.313-0.055,0.43c-0.19,0.82-0.341,1.654-0.451,2.496
			c-0.11,0.844-0.274,1.676-0.495,2.498c-0.073,0.234-0.198,0.418-0.374,0.549c-0.176,0.133-0.381,0.199-0.616,0.199
			c-0.22,0-0.406-0.045-0.561-0.133s-0.297-0.221-0.429-0.398C64.503,42.419,64.306,41.745,64.173,41.075z"/>
		<path d="M90.617,41.579c0.309-0.205,0.652-0.307,1.034-0.307c0.205,0,0.407,0.018,0.605,0.055
			c0.197,0.035,0.399,0.055,0.604,0.055c0.015,0,0.081-0.004,0.198-0.012s0.234-0.021,0.352-0.043
			c0.117-0.023,0.228-0.053,0.33-0.088c0.103-0.037,0.154-0.078,0.154-0.121v-9.725c0.073-0.146,0.117-0.275,0.132-0.385
			s0.022-0.238,0.022-0.385c0-0.029-0.004-0.078-0.012-0.143c-0.007-0.066-0.011-0.107-0.011-0.121l-0.088-0.133h-2.332
			c-0.161,0-0.322-0.041-0.483-0.121c-0.162-0.08-0.309-0.188-0.44-0.318c-0.132-0.133-0.242-0.279-0.33-0.441
			c-0.088-0.16-0.132-0.322-0.132-0.482c0-0.178,0.044-0.338,0.132-0.484s0.201-0.271,0.341-0.375c0.14-0.102,0.297-0.18,0.474-0.23
			c0.176-0.051,0.344-0.076,0.506-0.076c0.117,0,0.216,0.004,0.297,0.01c0.08,0.008,0.194,0.049,0.341,0.121h3.521
			c0.234,0.133,0.557,0.191,0.968,0.176c0.41-0.014,0.813-0.006,1.21,0.023c0.396,0.029,0.736,0.117,1.022,0.264
			s0.43,0.447,0.43,0.902c0,0.424-0.129,0.699-0.386,0.824s-0.575,0.188-0.957,0.188c-0.278,0-0.542-0.02-0.792-0.055
			c-0.249-0.037-0.513-0.057-0.792-0.057h-0.439l-0.088,0.088v3.697c0.044,0.162,0.069,0.289,0.077,0.385
			c0.007,0.096,0.011,0.217,0.011,0.363c0,0.131-0.004,0.25-0.011,0.352c-0.008,0.104-0.033,0.229-0.077,0.373v5.766l0.264,0.285
			h2.134c0.132,0,0.271,0.029,0.418,0.088s0.278,0.137,0.396,0.23c0.117,0.096,0.216,0.209,0.297,0.342
			c0.08,0.133,0.121,0.264,0.121,0.396c0,0.426-0.165,0.752-0.495,0.979s-0.686,0.342-1.067,0.342h-3.014
			c-0.19-0.074-0.422-0.107-0.693-0.1s-0.487,0.012-0.648,0.012c-0.338,0-0.653,0.014-0.946,0.043s-0.608,0.045-0.946,0.045
			c-0.205,0-0.406-0.02-0.604-0.057c-0.198-0.035-0.378-0.102-0.539-0.197s-0.29-0.223-0.385-0.385
			c-0.096-0.162-0.144-0.367-0.144-0.615C90.155,42.101,90.31,41.784,90.617,41.579z"/>
		<path d="M105.423,37.542c-0.029-0.557,0.044-1.076,0.22-1.559v-2.438h-2.771c-0.206,0-0.371-0.104-0.495-0.307
			c-0.125-0.205-0.188-0.396-0.188-0.572c0-0.264,0.085-0.482,0.253-0.658c0.169-0.176,0.342-0.344,0.518-0.506
			c0.176-0.146,0.385-0.229,0.627-0.242c0.242-0.016,0.487-0.023,0.736-0.023c0.265,0,0.51-0.025,0.737-0.076
			c0.228-0.053,0.422-0.195,0.583-0.432c0.146-0.221,0.22-0.516,0.22-0.885s0.012-0.734,0.033-1.096
			c0.022-0.361,0.1-0.67,0.231-0.928s0.41-0.389,0.836-0.389c0.425,0,0.686,0.131,0.781,0.389c0.095,0.258,0.143,0.563,0.143,0.918
			c0,0.338-0.019,0.67-0.055,0.994c-0.037,0.326-0.056,0.664-0.056,1.018c0,0.09,0,0.223,0,0.398c0,0.178,0.008,0.273,0.022,0.287
			l0.154,0.154c0.014,0.016,0.117,0.023,0.308,0.023c0.205,0,0.366,0,0.484,0c0.308,0,0.604-0.02,0.891-0.057
			c0.286-0.035,0.575-0.055,0.869-0.055c0.337,0,0.616,0.133,0.836,0.396s0.33,0.551,0.33,0.857c0,0.295-0.092,0.547-0.275,0.76
			s-0.422,0.318-0.715,0.318c-0.366,0-0.708-0.047-1.022-0.143c-0.316-0.096-0.687-0.143-1.111-0.143
			c-0.088,0-0.217,0.004-0.385,0.01c-0.169,0.008-0.261,0.02-0.275,0.033l-0.264,0.242v6.098c0,0.117,0.04,0.25,0.121,0.396
			c0.08,0.146,0.183,0.285,0.308,0.416c0.124,0.131,0.26,0.244,0.407,0.34c0.146,0.096,0.286,0.143,0.418,0.143
			c0.352,0,0.63-0.084,0.836-0.254c0.205-0.168,0.363-0.377,0.473-0.627c0.11-0.248,0.198-0.516,0.265-0.803
			c0.065-0.285,0.135-0.553,0.209-0.803c0.073-0.248,0.176-0.457,0.308-0.627c0.132-0.168,0.322-0.252,0.572-0.252
			c0.366,0,0.623,0.131,0.77,0.395c0.146,0.266,0.22,0.551,0.22,0.859c0,0.498-0.073,1.004-0.22,1.518s-0.363,0.979-0.648,1.396
			c-0.286,0.418-0.643,0.764-1.067,1.035c-0.426,0.271-0.917,0.406-1.474,0.406c-0.221,0-0.39-0.008-0.507-0.021
			c-0.117-0.016-0.224-0.041-0.318-0.078c-0.096-0.035-0.191-0.086-0.286-0.152c-0.096-0.066-0.224-0.158-0.385-0.275
			c-0.015,0-0.059-0.018-0.132-0.055c-0.074-0.037-0.147-0.074-0.221-0.109c-0.073-0.037-0.146-0.07-0.22-0.1
			s-0.117-0.051-0.132-0.066c-0.602-0.467-0.994-0.98-1.177-1.537c-0.184-0.555-0.275-1.199-0.275-1.932
			C105.467,38.634,105.452,38.099,105.423,37.542z"/>
		<path d="M128.171,42.397c0-0.029,0.003-0.092,0.011-0.188c0.007-0.094,0.011-0.156,0.011-0.186
			c0.146-0.176,0.278-0.307,0.396-0.395c0.117-0.088,0.242-0.158,0.374-0.209s0.271-0.098,0.418-0.143
			c0.146-0.045,0.322-0.109,0.527-0.197c0.103-0.045,0.194-0.125,0.275-0.242c0.08-0.117,0.146-0.24,0.198-0.373
			c0.051-0.131,0.095-0.266,0.132-0.406c0.036-0.139,0.069-0.258,0.099-0.361c0.044-0.146,0.114-0.402,0.209-0.768
			c0.096-0.365,0.198-0.752,0.309-1.162c0.109-0.41,0.212-0.797,0.308-1.164c0.096-0.365,0.165-0.621,0.209-0.768
			c0.132-0.322,0.22-0.635,0.265-0.943c0.044-0.307,0.124-0.621,0.241-0.943c0.234-0.701,0.474-1.404,0.715-2.105
			c0.242-0.703,0.466-1.404,0.672-2.105c0.044-0.146,0.091-0.33,0.143-0.549c0.051-0.221,0.121-0.428,0.209-0.625
			s0.205-0.367,0.352-0.506s0.338-0.209,0.572-0.209c0.265,0,0.477,0.09,0.639,0.264c0.161,0.176,0.289,0.385,0.385,0.625
			c0.095,0.242,0.168,0.49,0.22,0.746c0.051,0.256,0.099,0.457,0.143,0.604c0.146,0.498,0.265,1.006,0.353,1.525
			s0.257,1.012,0.506,1.48l2.068,7.811c0.044,0.146,0.128,0.264,0.253,0.352c0.124,0.088,0.268,0.156,0.429,0.207
			c0.161,0.053,0.319,0.092,0.473,0.121c0.154,0.029,0.29,0.059,0.407,0.088c0.278,0.176,0.418,0.447,0.418,0.813
			c0,0.35-0.109,0.617-0.33,0.801c-0.22,0.182-0.498,0.273-0.836,0.273c-0.366,0-0.748-0.01-1.144-0.033
			c-0.396-0.021-0.771-0.039-1.122-0.055c-0.235,0-0.455-0.008-0.66-0.021s-0.389-0.055-0.55-0.121
			c-0.162-0.066-0.29-0.172-0.385-0.318c-0.096-0.146-0.144-0.35-0.144-0.613v-0.373c0.103-0.131,0.224-0.23,0.363-0.297
			c0.139-0.066,0.278-0.127,0.418-0.186c0.139-0.059,0.264-0.121,0.374-0.188c0.109-0.066,0.187-0.156,0.23-0.273
			c0-0.029-0.007-0.092-0.021-0.188c-0.015-0.094-0.033-0.193-0.055-0.295c-0.022-0.104-0.041-0.197-0.056-0.285
			s-0.029-0.146-0.044-0.176c-0.015-0.045-0.036-0.125-0.065-0.242c-0.03-0.117-0.074-0.24-0.133-0.373
			c-0.059-0.131-0.12-0.248-0.187-0.352c-0.066-0.102-0.136-0.152-0.209-0.152h-3.454c-0.029,0-0.103,0.047-0.22,0.143
			c-0.118,0.096-0.184,0.156-0.198,0.186l-0.616,1.295c0,0.016-0.004,0.059-0.011,0.131c-0.008,0.074-0.011,0.125-0.011,0.154
			c0,0.25,0.069,0.418,0.209,0.506c0.139,0.088,0.289,0.168,0.451,0.24c0.161,0.074,0.311,0.172,0.45,0.297
			c0.14,0.123,0.209,0.34,0.209,0.646c0,0.336-0.113,0.578-0.341,0.725s-0.502,0.219-0.825,0.219c-0.205,0-0.406-0.014-0.604-0.043
			s-0.407-0.045-0.627-0.045c-0.294,0-0.58,0.025-0.858,0.078c-0.278,0.051-0.564,0.076-0.857,0.076
			c-0.338,0-0.602-0.129-0.792-0.385C128.266,42.985,128.171,42.704,128.171,42.397z M133.274,37.069
			c0.161,0.104,0.315,0.158,0.462,0.166c0.146,0.006,0.323,0.01,0.528,0.01c0.293,0,0.583-0.021,0.869-0.066
			c0.286-0.043,0.583-0.08,0.891-0.109l0.088-0.088c0-0.014,0.004-0.055,0.012-0.121c0.007-0.066,0.011-0.113,0.011-0.143
			c0-0.117-0.029-0.318-0.088-0.605c-0.059-0.285-0.136-0.602-0.231-0.945c-0.096-0.346-0.201-0.701-0.318-1.068
			c-0.118-0.365-0.228-0.699-0.33-1c-0.104-0.301-0.191-0.551-0.265-0.748s-0.117-0.297-0.132-0.297
			c-0.059,0-0.103,0.037-0.132,0.109c-0.029,0.074-0.052,0.125-0.066,0.154c-0.044,0.117-0.106,0.289-0.187,0.518
			c-0.081,0.227-0.165,0.455-0.253,0.682s-0.165,0.434-0.231,0.615c-0.065,0.184-0.106,0.297-0.121,0.342
			c-0.117,0.381-0.234,0.77-0.352,1.166s-0.176,0.785-0.176,1.166c0,0.029,0.003,0.074,0.011,0.131
			C133.271,36.997,133.274,37.04,133.274,37.069z"/>
		<path d="M143.703,42.159c0.029-0.156,0.08-0.303,0.154-0.438c0.072-0.135,0.164-0.25,0.274-0.348s0.245-0.146,0.407-0.146h3.366
			l0.109-0.131v-6.602l0.132-0.416v-3.684c0-0.088-0.088-0.18-0.264-0.273c-0.176-0.096-0.286-0.15-0.33-0.166
			c-0.044,0.016-0.121,0.037-0.23,0.066c-0.11,0.029-0.231,0.059-0.363,0.088s-0.257,0.055-0.374,0.076
			c-0.117,0.023-0.198,0.033-0.242,0.033h-0.352c-0.25,0-0.444-0.025-0.583-0.076c-0.14-0.051-0.313-0.113-0.518-0.188
			c-0.146-0.043-0.278-0.08-0.396-0.109c-0.118-0.029-0.217-0.072-0.297-0.131c-0.081-0.059-0.144-0.135-0.188-0.23
			c-0.044-0.094-0.065-0.236-0.065-0.428c0-0.408,0.157-0.689,0.473-0.844s0.656-0.23,1.023-0.23c0.264,0,0.523,0.029,0.78,0.088
			s0.518,0.088,0.781,0.088c0.205,0,0.403-0.016,0.594-0.045s0.389-0.043,0.595-0.043c0.19,0,0.396,0.021,0.615,0.066
			c0.221,0.043,0.426,0.113,0.616,0.207c0.19,0.096,0.349,0.227,0.473,0.395c0.125,0.168,0.188,0.377,0.188,0.625V41.03l0.22,0.197
			h2.926c0.146,0,0.275,0.041,0.386,0.123c0.109,0.082,0.201,0.184,0.274,0.303c0.073,0.121,0.129,0.252,0.165,0.393
			c0.037,0.143,0.056,0.273,0.056,0.393c0,0.27-0.07,0.51-0.209,0.719c-0.14,0.209-0.363,0.314-0.672,0.314h-8.514
			c-0.249,0-0.487-0.086-0.715-0.258s-0.341-0.385-0.341-0.641C143.659,42.454,143.674,42.315,143.703,42.159z"/>
		<path d="M156.683,42.159c0.029-0.156,0.08-0.303,0.154-0.438c0.072-0.135,0.164-0.25,0.274-0.348s0.245-0.146,0.407-0.146h3.366
			l0.109-0.131v-6.602l0.132-0.416v-3.684c0-0.088-0.088-0.18-0.264-0.273c-0.176-0.096-0.286-0.15-0.33-0.166
			c-0.044,0.016-0.121,0.037-0.23,0.066c-0.11,0.029-0.231,0.059-0.363,0.088s-0.257,0.055-0.374,0.076
			c-0.117,0.023-0.198,0.033-0.242,0.033h-0.352c-0.25,0-0.444-0.025-0.583-0.076c-0.14-0.051-0.313-0.113-0.518-0.188
			c-0.146-0.043-0.278-0.08-0.396-0.109c-0.118-0.029-0.217-0.072-0.297-0.131c-0.081-0.059-0.144-0.135-0.188-0.23
			c-0.044-0.094-0.065-0.236-0.065-0.428c0-0.408,0.157-0.689,0.473-0.844s0.656-0.23,1.023-0.23c0.264,0,0.523,0.029,0.78,0.088
			s0.518,0.088,0.781,0.088c0.205,0,0.403-0.016,0.594-0.045s0.389-0.043,0.595-0.043c0.19,0,0.396,0.021,0.615,0.066
			c0.221,0.043,0.426,0.113,0.616,0.207c0.19,0.096,0.349,0.227,0.473,0.395c0.125,0.168,0.188,0.377,0.188,0.625V41.03l0.22,0.197
			h2.926c0.146,0,0.275,0.041,0.386,0.123c0.109,0.082,0.201,0.184,0.274,0.303c0.073,0.121,0.129,0.252,0.165,0.393
			c0.037,0.143,0.056,0.273,0.056,0.393c0,0.27-0.07,0.51-0.209,0.719c-0.14,0.209-0.363,0.314-0.672,0.314h-8.514
			c-0.249,0-0.487-0.086-0.715-0.258s-0.341-0.385-0.341-0.641C156.639,42.454,156.653,42.315,156.683,42.159z"/>
	</g>
</g>
<g id="EyeContact">
</g>
<g id="UnderGuesser">
</g>
<g id="GodSaveTheQUeen">
</g>
<g id="Ghost">
</g>
<g id="Fortune_Teller">
</g>
<g id="DrinkSwap">
</g>
<g id="DickTator">
</g>
<g id="_x34_Eyes">
</g>
<g id="BabyTalk">
</g>
<g id="Backseat_Driver">
</g>
<g id="BAtman">
</g>
<g id="bodyguard">
</g>
<g id="BuckleUp">
</g>
<g id="RockPaperScissors">
</g>
<g id="Roger_Roger">
</g>
<g id="RoyaleWe">
</g>
<g id="Skip">
</g>
<g id="SwineRules">
</g>
<g id="Touchy_Feeley">
</g>
<g id="Wasted_Education">
</g>
<g id="Layer_86">
</g>
<g id="PointOfNoReturn">
</g>
<g id="Pirate">
</g>
<g id="Thief">
</g>
<g id="DepthPerception">
</g>
<g id="Narcissist">
</g>
<g id="MammaBird">
</g>
<g id="Staringcontest">
</g>
<g id="Cartwheel">
</g>
<g id="Censored">
</g>
<g id="Depersonalization">
</g>
<g id="threeman">
</g>
<g id="_x32__truths_and_a_lie">
</g>
<g id="cray_cray_cat_lady">
</g>
<g id="siblings">
</g>
<g id="later">
</g>
<g id="waterfall">
</g>
<g id="cheers">
</g>
<g id="rhyme">
</g>
<g id="categories">
</g>
<g id="tits">
</g>
<g id="dicks">
</g>
<g id="questions">
</g>
<g id="double_hands">
</g>
<g id="rewind">
</g>
<g id="Cryptkeeper">
</g>
<g id="Take_2_and_Redo">
</g>
<g id="Embryo">
</g>
<g id="I_am_Groot">
</g>
<g id="Mini_Me">
</g>
<g id="Ditto_1_">
</g>
<g id="reverse">
</g>
</svg>
