<?xml version="1.0" encoding="utf-8"?>
<!-- Generator: Adobe Illustrator 16.0.0, SVG Export Plug-In . SVG Version: 6.00 Build 0)  -->
<!DOCTYPE svg PUBLIC "-//W3C//DTD SVG 1.1//EN" "http://www.w3.org/Graphics/SVG/1.1/DTD/svg11.dtd">
<svg version="1.1" xmlns="http://www.w3.org/2000/svg" xmlns:xlink="http://www.w3.org/1999/xlink" x="0px" y="0px"
	 width="209.759px" height="62.361px" viewBox="0 0 209.759 62.361" enable-background="new 0 0 209.759 62.361"
	 xml:space="preserve">
<g id="Layer_1">
</g>
<g id="Blindman">
</g>
<g id="Compliments">
</g>
<g id="HAT">
</g>
<g id="speech">
</g>
<g id="TREX_ARMS">
</g>
<g id="slim_shady">
</g>
<g id="TIMEOUT">
</g>
<g id="Truth_or_Dare">
</g>
<g id="ARM_WRESTLE">
</g>
<g id="musical_chairs">
</g>
<g id="never_have_i_ever">
</g>
<g id="Trivia">
</g>
<g id="Drink_Pulling">
</g>
<g id="Sharing_is_Caring">
</g>
<g id="Not_It">
</g>
<g id="Cocktail_of_Doom">
</g>
<g id="Heads_up">
</g>
<g id="Archenemy">
</g>
<g id="battle_of_the_sexes">
</g>
<g id="one_must_drink">
</g>
<g id="rainbow_connection">
</g>
<g id="social_drinking">
</g>
<g id="Spin_the_bottle">
</g>
<g id="accents">
</g>
<g id="Slap">
</g>
<g id="down_the_hatch">
</g>
<g id="rubiks_cube">
</g>
<g id="bar_tender">
</g>
<g id="codenames">
</g>
<g id="hand_switch">
</g>
<g id="make_a_rule">
</g>
<g id="no_guts_no_glory">
</g>
<g id="pass">
</g>
<g id="santa">
</g>
<g id="snake_eyes">
</g>
<g id="lightning_round">
</g>
<g id="Bro">
</g>
<g id="LeastDrunk">
</g>
<g id="Know_It_All">
</g>
<g id="EyeContact">
</g>
<g id="UnderGuesser">
</g>
<g id="GodSaveTheQUeen">
</g>
<g id="Ghost">
</g>
<g id="Fortune_Teller">
</g>
<g id="DrinkSwap">
</g>
<g id="DickTator">
</g>
<g id="_x34_Eyes">
</g>
<g id="BabyTalk">
	<g>
		<path d="M36.333,41.429h0.527c0.25,0,0.499,0.019,0.748,0.055c0.249,0.037,0.506,0.055,0.771,0.055
			c0.044,0,0.113-0.003,0.209-0.011c0.095-0.007,0.15-0.011,0.165-0.011l0.088-0.088V30.337c0-0.088-0.066-0.154-0.198-0.198
			s-0.257-0.065-0.374-0.065h-0.154c-0.176,0-0.349,0.015-0.517,0.044c-0.169,0.029-0.341,0.044-0.517,0.044
			c-0.382,0-0.716-0.092-1.001-0.275c-0.286-0.183-0.43-0.479-0.43-0.891c0-0.322,0.096-0.583,0.286-0.781s0.447-0.297,0.771-0.297
			c0.234,0,0.439,0.011,0.615,0.033c0.177,0.021,0.396,0.069,0.66,0.143h1.342c0.616,0,1.225-0.044,1.826-0.132
			s1.21-0.132,1.826-0.132h0.44c0.645,0.103,1.228,0.261,1.749,0.473c0.521,0.213,0.964,0.488,1.331,0.825
			c0.366,0.338,0.648,0.752,0.847,1.243s0.297,1.066,0.297,1.727c0,0.323-0.044,0.66-0.132,1.013
			c-0.088,0.352-0.22,0.659-0.396,0.924c-0.073,0.088-0.19,0.242-0.352,0.462c-0.162,0.22-0.242,0.411-0.242,0.572
			c0,0.088,0.04,0.18,0.121,0.274c0.08,0.096,0.172,0.194,0.275,0.297c0.103,0.104,0.205,0.198,0.308,0.286s0.184,0.176,0.242,0.265
			c0.234,0.425,0.41,0.817,0.527,1.177c0.118,0.359,0.177,0.773,0.177,1.243c0,0.337-0.037,0.692-0.11,1.066
			s-0.18,0.745-0.319,1.111c-0.139,0.366-0.312,0.712-0.517,1.034s-0.44,0.602-0.704,0.836c-0.366,0.205-0.729,0.396-1.089,0.571
			c-0.359,0.177-0.744,0.301-1.155,0.374c-0.293,0-0.773,0.004-1.44,0.012c-0.668,0.007-1.397,0.011-2.189,0.011s-1.521,0-2.188,0
			c-0.668,0-1.141,0-1.419,0h-0.265c-0.337,0-0.608-0.113-0.813-0.34c-0.206-0.228-0.309-0.502-0.309-0.824
			C35.65,41.963,35.878,41.619,36.333,41.429z M40.82,33.897c0,0.163,0.077,0.263,0.231,0.3s0.304,0.056,0.451,0.056h0.264
			c0.47,0,0.961-0.007,1.474-0.021c0.514-0.016,0.969-0.037,1.364-0.067c0.103-0.06,0.217-0.133,0.341-0.222
			c0.125-0.09,0.246-0.189,0.363-0.301s0.216-0.233,0.297-0.367c0.081-0.133,0.121-0.273,0.121-0.422v-1.468
			c0-0.06-0.029-0.118-0.088-0.178c-0.176-0.281-0.326-0.485-0.451-0.611s-0.261-0.215-0.407-0.267
			c-0.146-0.053-0.312-0.09-0.494-0.111c-0.184-0.022-0.422-0.07-0.716-0.145h-2.75V33.897z M41.085,36.189
			c-0.044,0.029-0.1,0.073-0.165,0.132c-0.066,0.059-0.1,0.103-0.1,0.132v4.906c0,0.132,0.085,0.224,0.253,0.274
			c0.169,0.052,0.298,0.077,0.386,0.077c0.498,0,0.993-0.025,1.484-0.077c0.491-0.051,0.994-0.084,1.507-0.099
			c0.382-0.146,0.693-0.309,0.936-0.484s0.437-0.377,0.583-0.604s0.245-0.487,0.297-0.781c0.051-0.293,0.077-0.631,0.077-1.012
			c0-0.19,0.003-0.411,0.011-0.66s-0.055-0.447-0.187-0.594l-1.034-1.034c-0.044-0.044-0.121-0.1-0.231-0.165
			c-0.109-0.066-0.18-0.1-0.209-0.1h-2.485c-0.118,0.089-0.206,0.14-0.265,0.154s-0.14,0.022-0.242,0.022s-0.194-0.015-0.274-0.044
			c-0.081-0.029-0.173-0.044-0.275-0.044H41.085z"/>
		<path d="M51.248,37.982c0.352-0.491,0.792-0.851,1.32-1.078c0.527-0.228,1.104-0.367,1.727-0.418
			c0.623-0.052,1.199-0.1,1.728-0.144c0.527-0.044,0.968-0.124,1.319-0.242c0.353-0.117,0.528-0.352,0.528-0.703
			c0-0.25-0.044-0.484-0.132-0.704c-0.088-0.221-0.25-0.396-0.484-0.528c-0.088-0.044-0.22-0.11-0.396-0.198
			c-0.177-0.088-0.271-0.132-0.286-0.132h-2.068c-0.117,0-0.198,0.063-0.242,0.188c-0.044,0.124-0.084,0.278-0.121,0.462
			c-0.036,0.184-0.076,0.385-0.121,0.604c-0.044,0.22-0.113,0.422-0.209,0.605c-0.095,0.184-0.234,0.337-0.418,0.462
			s-0.429,0.187-0.736,0.187c-0.47,0-0.854-0.153-1.155-0.462c-0.301-0.308-0.451-0.689-0.451-1.144
			c0-0.265,0.044-0.499,0.132-0.704s0.206-0.396,0.353-0.572s0.315-0.341,0.506-0.495s0.381-0.297,0.572-0.429
			c0.161-0.117,0.33-0.245,0.506-0.385s0.381-0.209,0.616-0.209l3.365,0.044c0.19,0,0.415,0.08,0.672,0.24
			c0.256,0.161,0.506,0.351,0.747,0.57c0.242,0.219,0.455,0.452,0.639,0.7c0.183,0.248,0.297,0.46,0.341,0.635
			c0.015,0.044,0.036,0.124,0.066,0.241c0.028,0.117,0.058,0.237,0.088,0.361c0.029,0.124,0.055,0.241,0.076,0.351
			c0.022,0.109,0.033,0.186,0.033,0.229v0.679c0,0.176,0.004,0.376,0.012,0.603c0.007,0.227-0.026,0.427-0.1,0.603v3.7
			c0,0.409,0.176,0.613,0.528,0.613c0.234,0,0.381-0.103,0.439-0.308s0.11-0.437,0.154-0.693c0.044-0.256,0.113-0.487,0.209-0.692
			s0.297-0.309,0.605-0.309c0.161,0,0.3,0.044,0.418,0.132c0.117,0.089,0.212,0.198,0.286,0.33c0.073,0.133,0.124,0.275,0.153,0.43
			c0.029,0.153,0.044,0.305,0.044,0.45c0,0.323-0.052,0.646-0.153,0.969c-0.104,0.322-0.246,0.612-0.43,0.869
			s-0.41,0.466-0.682,0.627s-0.583,0.241-0.936,0.241c-0.278,0-0.521-0.032-0.726-0.099s-0.433-0.18-0.682-0.341
			c-0.088-0.044-0.165-0.113-0.231-0.209c-0.065-0.096-0.132-0.19-0.198-0.286c-0.065-0.096-0.14-0.18-0.22-0.253
			c-0.081-0.073-0.173-0.11-0.274-0.11h-0.11c-0.206,0.104-0.415,0.228-0.627,0.374c-0.213,0.147-0.429,0.29-0.649,0.43
			c-0.22,0.139-0.447,0.256-0.682,0.352c-0.235,0.096-0.477,0.143-0.727,0.143h-1.979c-0.161,0-0.301-0.04-0.418-0.12
			c-0.117-0.081-0.235-0.158-0.353-0.231c-0.602-0.352-1.037-0.788-1.309-1.309s-0.407-1.126-0.407-1.815
			C50.72,39.174,50.896,38.474,51.248,37.982z M52.502,40.479c0.044,0.162,0.106,0.319,0.188,0.474
			c0.08,0.154,0.179,0.282,0.297,0.385c0.117,0.103,0.249,0.154,0.396,0.154h2.244c0.015,0,0.063-0.022,0.143-0.066
			c0.081-0.044,0.15-0.08,0.209-0.109c0.029-0.029,0.1-0.073,0.209-0.133c0.11-0.058,0.18-0.095,0.21-0.109
			c0.542-0.366,0.909-0.748,1.1-1.145c0.19-0.396,0.286-0.909,0.286-1.54v-0.264c-0.015,0-0.044-0.011-0.088-0.033
			c-0.044-0.021-0.074-0.033-0.088-0.033c-0.016-0.014-0.03-0.021-0.045-0.021l-0.044,0.021c-0.044,0-0.165,0.019-0.362,0.056
			c-0.198,0.036-0.407,0.073-0.627,0.109c-0.221,0.037-0.43,0.074-0.627,0.11c-0.198,0.037-0.319,0.055-0.363,0.055
			c-0.353,0.06-0.708,0.104-1.067,0.133s-0.723,0.073-1.089,0.132c-0.19,0.015-0.359,0.132-0.506,0.352
			c-0.073,0.103-0.165,0.264-0.275,0.484c-0.109,0.22-0.165,0.41-0.165,0.571C52.436,40.179,52.458,40.317,52.502,40.479z"/>
		<path d="M70.619,42.822c-0.037,0.007-0.07,0.011-0.099,0.011c-0.191,0.22-0.338,0.378-0.44,0.473
			c-0.103,0.096-0.286,0.144-0.55,0.144c-0.338,0-0.572-0.117-0.704-0.353c-0.132-0.234-0.198-0.506-0.198-0.813
			c0-0.382,0.044-0.759,0.132-1.133s0.133-0.752,0.133-1.134c0-0.146-0.004-0.267-0.012-0.362s-0.048-0.217-0.121-0.363v-9.13
			c-0.059-0.044-0.103-0.073-0.132-0.088s-0.081-0.037-0.154-0.066c-0.029,0-0.117,0.011-0.264,0.033
			c-0.146,0.021-0.234,0.033-0.264,0.033c-0.015,0.015-0.029,0.021-0.044,0.021c-0.176,0-0.378-0.011-0.605-0.033
			c-0.228-0.021-0.439-0.072-0.638-0.153s-0.363-0.19-0.495-0.33s-0.198-0.326-0.198-0.562c0-0.088-0.004-0.172-0.011-0.253
			c-0.008-0.08,0.025-0.157,0.099-0.23c0.015-0.015,0.052-0.052,0.11-0.11s0.121-0.121,0.188-0.187
			c0.065-0.066,0.124-0.129,0.176-0.188c0.051-0.059,0.091-0.095,0.121-0.109c0.058-0.059,0.117-0.089,0.176-0.089h2.684
			c0.117,0,0.242,0.03,0.374,0.089s0.257,0.136,0.374,0.23c0.117,0.096,0.213,0.206,0.286,0.33c0.073,0.125,0.11,0.253,0.11,0.385
			v3.784c0,0.073,0.025,0.121,0.077,0.143c0.051,0.022,0.099,0.033,0.143,0.033c0.176,0,0.333-0.047,0.473-0.143
			s0.278-0.205,0.418-0.33c0.14-0.124,0.282-0.234,0.43-0.33c0.146-0.095,0.308-0.143,0.483-0.143h2.156
			c0.234,0,0.429,0.08,0.583,0.241c0.154,0.162,0.305,0.309,0.451,0.44c0.293,0.278,0.542,0.539,0.748,0.781
			c0.205,0.241,0.389,0.491,0.55,0.748s0.301,0.531,0.418,0.824c0.117,0.294,0.234,0.631,0.353,1.013
			c0.014,0.029,0.032,0.088,0.055,0.176c0.021,0.088,0.033,0.14,0.033,0.154v2.332c-0.044,0.176-0.077,0.318-0.1,0.429
			c-0.021,0.11-0.052,0.22-0.088,0.33c-0.037,0.109-0.063,0.201-0.077,0.274c-0.146,0.528-0.349,1.034-0.604,1.519
			c-0.257,0.483-0.568,0.913-0.936,1.287c-0.366,0.374-0.792,0.675-1.275,0.901c-0.484,0.228-1.02,0.342-1.606,0.342
			c-0.322,0-0.638-0.044-0.946-0.133c-0.308-0.088-0.608-0.19-0.901-0.308c-0.162-0.059-0.29-0.146-0.385-0.264
			c-0.096-0.117-0.231-0.177-0.407-0.177C70.682,42.811,70.655,42.814,70.619,42.822z M76.119,36.354
			c-0.066-0.388-0.238-0.81-0.517-1.265c-0.045-0.088-0.11-0.194-0.198-0.319c-0.088-0.124-0.191-0.249-0.309-0.373
			c-0.117-0.125-0.241-0.228-0.374-0.309c-0.132-0.08-0.264-0.121-0.396-0.121h-1.65c-0.22,0-0.443,0.114-0.671,0.341
			c-0.228,0.228-0.439,0.495-0.638,0.804c-0.198,0.308-0.359,0.623-0.484,0.945c-0.124,0.323-0.187,0.572-0.187,0.748v2.332
			c0,0.015,0.021,0.07,0.065,0.165c0.044,0.096,0.096,0.213,0.154,0.353s0.103,0.253,0.132,0.341
			c0.029,0.073,0.092,0.187,0.188,0.341c0.095,0.154,0.205,0.315,0.33,0.484c0.124,0.169,0.249,0.315,0.374,0.439
			c0.124,0.125,0.23,0.188,0.318,0.188h2.156c0.015-0.015,0.066-0.063,0.154-0.144c0.088-0.08,0.194-0.187,0.318-0.318
			c0.125-0.133,0.224-0.234,0.298-0.309c0.425-0.439,0.703-0.891,0.836-1.353c0.132-0.462,0.197-0.994,0.197-1.596
			C76.218,37.201,76.186,36.743,76.119,36.354z"/>
		<path d="M81.058,44.131c0.309-0.41,0.741-0.616,1.299-0.616c0.454,0,0.792,0.15,1.012,0.451s0.33,0.664,0.33,1.089
			c0,0.161-0.03,0.297-0.088,0.407c-0.06,0.11-0.088,0.238-0.088,0.385c0,0.029,0.003,0.066,0.011,0.11
			c0.007,0.044,0.033,0.066,0.077,0.066h0.594c0.132-0.104,0.238-0.191,0.319-0.265c0.08-0.073,0.164-0.15,0.253-0.23
			c0.088-0.081,0.161-0.144,0.22-0.188c0.132-0.146,0.26-0.318,0.385-0.517s0.234-0.407,0.33-0.627
			c0.096-0.221,0.172-0.444,0.231-0.671C86,43.299,86.03,43.09,86.03,42.899c0-0.059,0-0.146,0-0.265
			c0-0.132-0.008-0.205-0.022-0.22c0-0.015-0.015-0.069-0.044-0.165s-0.059-0.198-0.088-0.308c-0.029-0.11-0.066-0.217-0.11-0.319
			s-0.073-0.184-0.088-0.242c-0.073-0.19-0.209-0.528-0.407-1.012c-0.197-0.484-0.406-0.993-0.627-1.529
			c-0.22-0.535-0.429-1.045-0.627-1.529c-0.197-0.483-0.333-0.82-0.406-1.012c-0.03-0.278-0.104-0.594-0.221-0.946
			c-0.117-0.352-0.301-0.608-0.55-0.77c-0.044,0-0.129-0.004-0.253-0.011c-0.125-0.008-0.257-0.015-0.396-0.022
			c-0.14-0.007-0.272-0.018-0.396-0.033c-0.125-0.014-0.209-0.021-0.253-0.021c-0.176-0.029-0.338-0.088-0.484-0.176
			s-0.22-0.234-0.22-0.44c0-0.146,0.011-0.308,0.033-0.484c0.021-0.176,0.063-0.341,0.121-0.494
			c0.059-0.154,0.146-0.286,0.264-0.396s0.271-0.165,0.462-0.165h3.433c0.132,0,0.274,0.026,0.429,0.077
			c0.154,0.052,0.297,0.121,0.429,0.209s0.238,0.194,0.319,0.319c0.08,0.124,0.121,0.26,0.121,0.406
			c0,0.265-0.074,0.463-0.221,0.595s-0.304,0.234-0.473,0.308s-0.326,0.146-0.473,0.22c-0.147,0.074-0.221,0.177-0.221,0.309
			c0,0.205,0.041,0.422,0.121,0.648c0.081,0.228,0.177,0.459,0.286,0.693c0.11,0.234,0.224,0.462,0.341,0.682
			c0.117,0.221,0.213,0.426,0.286,0.616c0.029,0.073,0.069,0.176,0.121,0.308c0.052,0.133,0.106,0.272,0.165,0.419
			s0.11,0.282,0.154,0.406c0.044,0.125,0.073,0.209,0.088,0.253c0.015,0.03,0.033,0.104,0.055,0.221
			c0.022,0.117,0.056,0.234,0.1,0.352s0.099,0.224,0.165,0.319c0.065,0.096,0.143,0.143,0.23,0.143s0.173-0.065,0.253-0.198
			c0.081-0.132,0.154-0.282,0.221-0.45c0.065-0.169,0.12-0.334,0.164-0.495c0.045-0.161,0.081-0.271,0.11-0.33
			c0.044-0.132,0.113-0.359,0.209-0.683c0.096-0.322,0.198-0.667,0.309-1.033c0.109-0.367,0.212-0.712,0.308-1.034
			c0.095-0.322,0.157-0.55,0.187-0.683c0.015-0.028,0.022-0.065,0.022-0.109c0-0.059,0-0.096,0-0.11
			c0-0.146-0.066-0.253-0.198-0.318c-0.132-0.066-0.274-0.14-0.429-0.221c-0.154-0.08-0.294-0.19-0.418-0.33
			c-0.125-0.139-0.188-0.355-0.188-0.648c0-0.249,0.073-0.455,0.221-0.616c0.146-0.161,0.366-0.242,0.659-0.242h2.839
			c0.205,0.059,0.414,0.092,0.627,0.1c0.212,0.007,0.406,0.029,0.583,0.065c0.176,0.037,0.318,0.114,0.429,0.231
			s0.165,0.315,0.165,0.594c0,0.352-0.055,0.616-0.165,0.792s-0.261,0.297-0.451,0.363c-0.19,0.065-0.418,0.099-0.682,0.099
			c-0.265,0-0.55,0-0.858,0c-0.161,0.117-0.297,0.271-0.407,0.462c-0.109,0.19-0.205,0.396-0.285,0.616
			c-0.081,0.22-0.147,0.439-0.198,0.66c-0.052,0.22-0.1,0.418-0.144,0.594c-0.396,1.467-0.843,2.893-1.342,4.279
			c-0.499,1.386-1.026,2.797-1.584,4.234c0,0.015-0.011,0.044-0.033,0.088c-0.021,0.044-0.04,0.073-0.055,0.089
			c-0.015,0.014-0.055,0.069-0.121,0.164c-0.066,0.096-0.106,0.15-0.121,0.165c-0.015,0.029-0.04,0.085-0.077,0.165
			c-0.036,0.081-0.08,0.173-0.132,0.275s-0.099,0.194-0.143,0.275c-0.044,0.08-0.074,0.128-0.088,0.143
			c-0.294,0.41-0.693,0.759-1.199,1.045s-1.009,0.429-1.507,0.429c-0.382,0-0.756-0.065-1.122-0.197
			c-0.367-0.133-0.693-0.319-0.979-0.562s-0.517-0.527-0.692-0.857c-0.177-0.33-0.265-0.693-0.265-1.09
			C80.596,45.019,80.75,44.541,81.058,44.131z"/>
		<path d="M97.295,41.931c0.014-0.132,0.044-0.26,0.088-0.385c0.044-0.124,0.106-0.23,0.187-0.319
			c0.081-0.088,0.188-0.132,0.319-0.132h2.068l0.264-0.286V29.875l-0.088-0.088c-0.03-0.015-0.088-0.025-0.176-0.033
			c-0.089-0.007-0.147-0.011-0.177-0.011c-0.044,0-0.121,0.004-0.23,0.011c-0.11,0.008-0.18,0.019-0.209,0.033
			c-0.484,0.117-0.833,0.319-1.045,0.604c-0.213,0.286-0.356,0.602-0.43,0.946s-0.106,0.7-0.099,1.067
			c0.007,0.366-0.004,0.7-0.033,1.001s-0.117,0.55-0.264,0.748c-0.146,0.197-0.403,0.297-0.771,0.297
			c-0.293,0-0.513-0.14-0.659-0.418c-0.147-0.278-0.221-0.55-0.221-0.814v-4.224c0-0.103,0.025-0.228,0.077-0.374
			s0.121-0.289,0.209-0.429s0.188-0.261,0.297-0.363c0.11-0.103,0.231-0.154,0.363-0.154h2.662c0.146-0.073,0.26-0.113,0.341-0.121
			c0.08-0.007,0.188-0.011,0.319-0.011c0.117,0,0.22,0.004,0.308,0.011c0.088,0.008,0.198,0.048,0.33,0.121h4.906
			c0.293,0,0.553,0.125,0.781,0.374c0.227,0.25,0.341,0.514,0.341,0.792v4.378c0,0.294-0.088,0.572-0.265,0.836
			c-0.176,0.265-0.418,0.396-0.726,0.396c-0.25,0-0.484-0.11-0.704-0.33s-0.33-0.462-0.33-0.727v-2.331
			c0-0.25-0.063-0.466-0.187-0.649c-0.125-0.184-0.286-0.337-0.484-0.462s-0.411-0.217-0.638-0.275
			c-0.228-0.059-0.444-0.088-0.649-0.088c-0.029,0-0.088,0.004-0.176,0.011c-0.088,0.008-0.14,0.012-0.154,0.012l-0.088,0.088
			c0,0.176-0.011,0.396-0.033,0.66c-0.021,0.264-0.063,0.498-0.121,0.704l0.044,2.155v0.44l0.11,7.062l0.176,0.177
			c0.234,0,0.514,0.007,0.836,0.021c0.323,0.015,0.627,0.063,0.913,0.143c0.286,0.081,0.528,0.21,0.727,0.386
			c0.197,0.176,0.297,0.439,0.297,0.792c0,0.205-0.044,0.378-0.132,0.517c-0.088,0.14-0.206,0.25-0.353,0.33
			c-0.146,0.081-0.312,0.14-0.495,0.176c-0.184,0.037-0.37,0.056-0.561,0.056c-0.279,0-0.547-0.048-0.803-0.144
			c-0.257-0.095-0.525-0.143-0.804-0.143c-0.469,0-0.916,0.073-1.342,0.22s-0.873,0.22-1.342,0.22c-0.162,0-0.363-0.029-0.605-0.088
			c-0.241-0.059-0.483-0.139-0.726-0.242c-0.242-0.103-0.447-0.23-0.616-0.385s-0.253-0.319-0.253-0.495
			C97.272,42.173,97.28,42.063,97.295,41.931z"/>
		<path d="M109.856,37.982c0.352-0.491,0.792-0.851,1.32-1.078c0.527-0.228,1.104-0.367,1.727-0.418
			c0.623-0.052,1.199-0.1,1.728-0.144c0.527-0.044,0.968-0.124,1.319-0.242c0.353-0.117,0.528-0.352,0.528-0.703
			c0-0.25-0.044-0.484-0.132-0.704c-0.088-0.221-0.25-0.396-0.484-0.528c-0.088-0.044-0.22-0.11-0.396-0.198
			c-0.177-0.088-0.271-0.132-0.286-0.132h-2.068c-0.117,0-0.198,0.063-0.242,0.188c-0.044,0.124-0.084,0.278-0.121,0.462
			c-0.036,0.184-0.076,0.385-0.121,0.604c-0.044,0.22-0.113,0.422-0.209,0.605c-0.095,0.184-0.234,0.337-0.418,0.462
			s-0.429,0.187-0.736,0.187c-0.47,0-0.854-0.153-1.155-0.462c-0.301-0.308-0.451-0.689-0.451-1.144
			c0-0.265,0.044-0.499,0.132-0.704s0.206-0.396,0.353-0.572s0.315-0.341,0.506-0.495s0.381-0.297,0.572-0.429
			c0.161-0.117,0.33-0.245,0.506-0.385s0.381-0.209,0.616-0.209l3.365,0.044c0.19,0,0.415,0.08,0.672,0.24
			c0.256,0.161,0.506,0.351,0.747,0.57c0.242,0.219,0.455,0.452,0.639,0.7c0.183,0.248,0.297,0.46,0.341,0.635
			c0.015,0.044,0.036,0.124,0.066,0.241c0.028,0.117,0.058,0.237,0.088,0.361c0.029,0.124,0.055,0.241,0.076,0.351
			c0.022,0.109,0.033,0.186,0.033,0.229v0.679c0,0.176,0.004,0.376,0.012,0.603c0.007,0.227-0.026,0.427-0.1,0.603v3.7
			c0,0.409,0.176,0.613,0.528,0.613c0.234,0,0.381-0.103,0.439-0.308s0.11-0.437,0.154-0.693c0.044-0.256,0.113-0.487,0.209-0.692
			s0.297-0.309,0.605-0.309c0.161,0,0.3,0.044,0.418,0.132c0.117,0.089,0.212,0.198,0.286,0.33c0.073,0.133,0.124,0.275,0.153,0.43
			c0.029,0.153,0.044,0.305,0.044,0.45c0,0.323-0.052,0.646-0.153,0.969c-0.104,0.322-0.246,0.612-0.43,0.869
			s-0.41,0.466-0.682,0.627s-0.583,0.241-0.936,0.241c-0.278,0-0.521-0.032-0.726-0.099s-0.433-0.18-0.682-0.341
			c-0.088-0.044-0.165-0.113-0.231-0.209c-0.065-0.096-0.132-0.19-0.198-0.286c-0.065-0.096-0.14-0.18-0.22-0.253
			c-0.081-0.073-0.173-0.11-0.274-0.11h-0.11c-0.206,0.104-0.415,0.228-0.627,0.374c-0.213,0.147-0.429,0.29-0.649,0.43
			c-0.22,0.139-0.447,0.256-0.682,0.352c-0.235,0.096-0.477,0.143-0.727,0.143h-1.979c-0.161,0-0.301-0.04-0.418-0.12
			c-0.117-0.081-0.235-0.158-0.353-0.231c-0.602-0.352-1.037-0.788-1.309-1.309s-0.407-1.126-0.407-1.815
			C109.328,39.174,109.505,38.474,109.856,37.982z M111.11,40.479c0.044,0.162,0.106,0.319,0.188,0.474
			c0.08,0.154,0.179,0.282,0.297,0.385c0.117,0.103,0.249,0.154,0.396,0.154h2.244c0.015,0,0.063-0.022,0.143-0.066
			c0.081-0.044,0.15-0.08,0.209-0.109c0.029-0.029,0.1-0.073,0.209-0.133c0.11-0.058,0.18-0.095,0.21-0.109
			c0.542-0.366,0.909-0.748,1.1-1.145c0.19-0.396,0.286-0.909,0.286-1.54v-0.264c-0.015,0-0.044-0.011-0.088-0.033
			c-0.044-0.021-0.074-0.033-0.088-0.033c-0.016-0.014-0.03-0.021-0.045-0.021l-0.044,0.021c-0.044,0-0.165,0.019-0.362,0.056
			c-0.198,0.036-0.407,0.073-0.627,0.109c-0.221,0.037-0.43,0.074-0.627,0.11c-0.198,0.037-0.319,0.055-0.363,0.055
			c-0.353,0.06-0.708,0.104-1.067,0.133s-0.723,0.073-1.089,0.132c-0.19,0.015-0.359,0.132-0.506,0.352
			c-0.073,0.103-0.165,0.264-0.275,0.484c-0.109,0.22-0.165,0.41-0.165,0.571C111.044,40.179,111.066,40.317,111.11,40.479z"/>
		<path d="M123.717,42.158c0.029-0.156,0.08-0.303,0.154-0.438c0.072-0.135,0.164-0.25,0.274-0.348s0.245-0.146,0.407-0.146h3.366
			l0.109-0.131v-6.601l0.132-0.416v-3.684c0-0.088-0.088-0.18-0.264-0.274s-0.286-0.149-0.33-0.165
			c-0.044,0.016-0.121,0.037-0.23,0.066c-0.11,0.029-0.231,0.059-0.363,0.088s-0.257,0.055-0.374,0.076
			c-0.117,0.022-0.198,0.033-0.242,0.033h-0.352c-0.25,0-0.444-0.025-0.583-0.077c-0.14-0.051-0.313-0.113-0.518-0.187
			c-0.146-0.043-0.278-0.08-0.396-0.109c-0.118-0.029-0.217-0.073-0.297-0.132c-0.081-0.059-0.144-0.135-0.188-0.229
			s-0.065-0.237-0.065-0.428c0-0.409,0.157-0.69,0.473-0.845c0.315-0.153,0.656-0.229,1.023-0.229c0.264,0,0.523,0.029,0.78,0.087
			c0.257,0.059,0.518,0.088,0.781,0.088c0.205,0,0.403-0.015,0.594-0.044s0.389-0.044,0.595-0.044c0.19,0,0.396,0.022,0.615,0.066
			c0.221,0.044,0.426,0.113,0.616,0.208s0.349,0.227,0.473,0.395c0.125,0.168,0.188,0.377,0.188,0.625v11.665l0.22,0.197h2.926
			c0.146,0,0.275,0.042,0.386,0.124c0.109,0.082,0.201,0.184,0.274,0.303c0.073,0.12,0.129,0.251,0.165,0.393
			c0.037,0.143,0.056,0.273,0.056,0.393c0,0.27-0.07,0.509-0.209,0.719c-0.14,0.209-0.363,0.313-0.672,0.313h-8.514
			c-0.249,0-0.487-0.086-0.715-0.258s-0.341-0.385-0.341-0.64C123.673,42.454,123.688,42.315,123.717,42.158z"/>
		<path d="M136.718,42.261c0.029-0.132,0.073-0.264,0.133-0.396c0.058-0.132,0.124-0.246,0.197-0.341
			c0.073-0.096,0.146-0.144,0.221-0.144h1.474l0.264-0.088c0.029-0.015,0.103-0.044,0.221-0.088v-3.103l0.109-0.418v-7.172
			c0-0.103-0.036-0.212-0.109-0.33c-0.074-0.117-0.147-0.205-0.221-0.264c-0.22,0-0.454,0-0.704,0c-0.234,0-0.447-0.021-0.638-0.066
			c-0.19-0.044-0.349-0.132-0.473-0.264c-0.125-0.132-0.188-0.337-0.188-0.616c0-0.366,0.154-0.645,0.462-0.836
			c0.309-0.19,0.631-0.286,0.969-0.286h0.132c0.029,0,0.117,0.016,0.264,0.044c0.146,0.03,0.234,0.045,0.264,0.045h0.044h0.044
			c0.029,0,0.114-0.015,0.254-0.045c0.139-0.028,0.223-0.044,0.253-0.044h0.044c0.337,0,0.648,0.1,0.935,0.298
			c0.286,0.197,0.451,0.473,0.495,0.824c-0.029,0.47-0.022,0.866,0.022,1.188c0.044,0.322,0.065,0.689,0.065,1.1
			c0,0.118-0.004,0.221-0.011,0.309c-0.008,0.088-0.033,0.197-0.077,0.33v4.905c0,0.06,0.022,0.092,0.066,0.1
			c0.044,0.007,0.08,0.011,0.109,0.011c0.044-0.015,0.073-0.022,0.088-0.022c0.088-0.088,0.242-0.238,0.462-0.45
			c0.221-0.213,0.455-0.443,0.704-0.693c0.25-0.249,0.48-0.484,0.693-0.704c0.212-0.22,0.363-0.374,0.451-0.462
			c0.029-0.029,0.088-0.103,0.176-0.22s0.146-0.19,0.176-0.221c-0.161-0.161-0.334-0.333-0.517-0.517
			c-0.184-0.184-0.275-0.399-0.275-0.649c0-0.234,0.081-0.414,0.242-0.538c0.161-0.125,0.345-0.217,0.55-0.275
			c0.044,0,0.117,0,0.22,0s0.217-0.004,0.342-0.011c0.124-0.008,0.238-0.012,0.341-0.012s0.176,0,0.22,0
			c0.22,0,0.524-0.003,0.913-0.011c0.389-0.007,0.771,0.022,1.145,0.088c0.373,0.066,0.7,0.184,0.979,0.353s0.418,0.437,0.418,0.803
			c0,0.25-0.048,0.429-0.143,0.539c-0.096,0.11-0.217,0.187-0.363,0.23s-0.315,0.066-0.506,0.066c-0.176,0-0.359,0.008-0.55,0.022
			c-0.221,0.015-0.43,0.088-0.627,0.22c-0.198,0.132-0.393,0.286-0.583,0.462c-0.191,0.176-0.363,0.352-0.518,0.528
			c-0.154,0.176-0.297,0.315-0.429,0.418c-0.103,0.088-0.217,0.168-0.341,0.241c-0.125,0.074-0.239,0.147-0.342,0.221
			s-0.187,0.161-0.253,0.264c-0.065,0.103-0.099,0.242-0.099,0.418c0,0.308,0.11,0.608,0.33,0.902
			c0.22,0.293,0.425,0.564,0.616,0.813c0.014,0.03,0.065,0.092,0.153,0.188c0.089,0.096,0.184,0.201,0.286,0.318
			c0.103,0.118,0.194,0.228,0.275,0.33c0.08,0.104,0.128,0.169,0.143,0.198c0.177,0.25,0.319,0.506,0.43,0.771
			c0.109,0.264,0.289,0.491,0.539,0.682c0.293,0,0.575,0.004,0.847,0.011c0.271,0.008,0.521,0.044,0.748,0.11
			c0.227,0.065,0.425,0.18,0.594,0.341s0.297,0.411,0.385,0.748c0,0.015,0.004,0.063,0.012,0.143
			c0.007,0.081,0.011,0.136,0.011,0.165c0,0.162-0.041,0.294-0.121,0.396c-0.081,0.103-0.18,0.187-0.297,0.253
			c-0.118,0.066-0.25,0.117-0.396,0.154c-0.146,0.036-0.286,0.069-0.418,0.099h-1.342h-1.32c-0.117,0-0.301-0.022-0.55-0.066
			s-0.439-0.08-0.572-0.109c-0.117-0.029-0.234-0.081-0.352-0.154s-0.234-0.11-0.352-0.11c-0.206,0-0.415,0.074-0.628,0.221
			c-0.212,0.146-0.443,0.22-0.692,0.22c-0.206,0-0.407-0.015-0.605-0.044c-0.197-0.029-0.399-0.044-0.604-0.044
			c-0.353,0-0.697,0.015-1.034,0.044c-0.338,0.029-0.682,0.044-1.034,0.044h-0.99c-0.322-0.059-0.619-0.157-0.891-0.297
			s-0.407-0.399-0.407-0.781C136.674,42.488,136.688,42.393,136.718,42.261z M142.021,38.455c-0.133,0.117-0.25,0.234-0.353,0.352
			c-0.044,0.044-0.11,0.118-0.198,0.221s-0.157,0.187-0.209,0.253c-0.051,0.065-0.084,0.106-0.099,0.121v1.804
			c0,0.103,0.088,0.19,0.264,0.264c0.177,0.074,0.374,0.14,0.595,0.198c0.22,0.059,0.432,0.106,0.638,0.143
			c0.205,0.037,0.337,0.07,0.396,0.1c0.029,0.015,0.089,0.059,0.177,0.132s0.146,0.11,0.176,0.11c0,0.015,0.015,0.021,0.044,0.021
			s0.059,0,0.088,0c0.161,0,0.337-0.088,0.528-0.264c0.19-0.176,0.286-0.353,0.286-0.528c0-0.103-0.089-0.322-0.265-0.66
			c-0.176-0.337-0.374-0.686-0.594-1.045s-0.433-0.682-0.638-0.968c-0.206-0.286-0.338-0.429-0.396-0.429
			C142.299,38.279,142.152,38.338,142.021,38.455z"/>
	</g>
</g>
<g id="Backseat_Driver">
</g>
<g id="BAtman">
</g>
<g id="bodyguard">
</g>
<g id="BuckleUp">
</g>
<g id="RockPaperScissors">
</g>
<g id="Roger_Roger">
</g>
<g id="RoyaleWe">
</g>
<g id="Skip">
</g>
<g id="SwineRules">
</g>
<g id="Touchy_Feeley">
</g>
<g id="Wasted_Education">
</g>
<g id="Layer_86">
</g>
<g id="PointOfNoReturn">
</g>
<g id="Pirate">
</g>
<g id="Thief">
</g>
<g id="DepthPerception">
</g>
<g id="Narcissist">
</g>
<g id="MammaBird">
</g>
<g id="Staringcontest">
</g>
<g id="Cartwheel">
</g>
<g id="Censored">
</g>
<g id="Depersonalization">
</g>
<g id="threeman">
</g>
<g id="_x32__truths_and_a_lie">
</g>
<g id="cray_cray_cat_lady">
</g>
<g id="siblings">
</g>
<g id="later">
</g>
<g id="waterfall">
</g>
<g id="cheers">
</g>
<g id="rhyme">
</g>
<g id="categories">
</g>
<g id="tits">
</g>
<g id="dicks">
</g>
<g id="questions">
</g>
<g id="double_hands">
</g>
<g id="take_2">
</g>
<g id="take_3">
</g>
<g id="give_3">
</g>
<g id="give_2">
</g>
<g id="rewind">
</g>
<g id="Cryptkeeper">
</g>
<g id="Take_2_and_Redo">
</g>
<g id="Embryo">
</g>
<g id="I_am_Groot">
</g>
<g id="Mini_Me">
</g>
<g id="Ditto_1_">
</g>
<g id="reverse">
</g>
</svg>
