<?xml version="1.0" encoding="utf-8"?>
<!-- Generator: Adobe Illustrator 16.0.0, SVG Export Plug-In . SVG Version: 6.00 Build 0)  -->
<!DOCTYPE svg PUBLIC "-//W3C//DTD SVG 1.1//EN" "http://www.w3.org/Graphics/SVG/1.1/DTD/svg11.dtd">
<svg version="1.1" xmlns="http://www.w3.org/2000/svg" xmlns:xlink="http://www.w3.org/1999/xlink" x="0px" y="0px"
	 width="209.759px" height="62.361px" viewBox="0 0 209.759 62.361" enable-background="new 0 0 209.759 62.361"
	 xml:space="preserve">
<g id="Layer_1">
</g>
<g id="Hat">
</g>
<g id="Compliments">
</g>
<g id="HAT">
</g>
<g id="speech">
</g>
<g id="TREX_ARMS">
</g>
<g id="slim_shady">
</g>
<g id="TIMEOUT">
</g>
<g id="Truth_or_Dare">
</g>
<g id="ARM_WRESTLE">
</g>
<g id="musical_chairs">
</g>
<g id="never_have_i_ever">
</g>
<g id="Trivia">
</g>
<g id="Drink_Pulling">
</g>
<g id="Sharing_is_Caring">
</g>
<g id="Not_It">
</g>
<g id="Cocktail_of_Doom">
</g>
<g id="Heads_up">
</g>
<g id="Archenemy">
</g>
<g id="battle_of_the_sexes">
</g>
<g id="one_must_drink">
</g>
<g id="rainbow_connection">
</g>
<g id="social_drinking">
</g>
<g id="Spin_the_bottle">
</g>
<g id="accents">
</g>
<g id="Slap">
</g>
<g id="give_3">
</g>
<g id="rub">
</g>
<g id="down_the_hatch">
</g>
<g id="rubiks_cube">
</g>
<g id="bar_tender">
</g>
<g id="codenames">
</g>
<g id="hand_switch">
</g>
<g id="make_a_rule">
</g>
<g id="no_guts_no_glory">
</g>
<g id="pass">
</g>
<g id="santa">
</g>
<g id="snake_eyes">
</g>
<g id="bodyguard">
</g>
<g id="threeman">
	<g>
		<path d="M42.196,43.032c-0.396,0.176-0.88,0.352-1.452,0.527c-0.572,0.177-1.174,0.265-1.804,0.265
			c-0.411,0-0.796-0.052-1.155-0.154s-0.675-0.268-0.946-0.495c-0.271-0.227-0.487-0.521-0.648-0.88
			c-0.162-0.359-0.242-0.795-0.242-1.309v-6.622h-1.518v-2.267h1.518v-3.739h2.948v3.739h2.42v2.267h-2.42v5.632
			c0,0.411,0.106,0.7,0.318,0.869c0.213,0.169,0.474,0.253,0.781,0.253c0.309,0,0.608-0.052,0.902-0.154
			c0.293-0.103,0.528-0.19,0.704-0.264L42.196,43.032z"/>
		<path d="M56.54,43.626h-2.947v-6.468c0-0.909-0.169-1.58-0.507-2.014c-0.337-0.432-0.813-0.648-1.43-0.648
			c-0.264,0-0.543,0.059-0.836,0.176c-0.294,0.117-0.572,0.282-0.836,0.495s-0.506,0.466-0.726,0.759
			c-0.221,0.294-0.382,0.616-0.484,0.968v6.732h-2.948v-16.06h2.948v6.666c0.425-0.748,1.001-1.324,1.727-1.728
			c0.727-0.403,1.529-0.604,2.409-0.604c0.748,0,1.356,0.128,1.826,0.385s0.836,0.598,1.1,1.022c0.265,0.426,0.447,0.91,0.551,1.452
			c0.103,0.543,0.153,1.101,0.153,1.672V43.626z"/>
		<path d="M68.067,34.65c-0.895,0.015-1.694,0.187-2.398,0.517s-1.21,0.825-1.518,1.485v6.974h-2.948V32.098h2.706v2.464
			c0.205-0.396,0.447-0.751,0.727-1.066c0.278-0.315,0.579-0.591,0.901-0.825s0.649-0.414,0.979-0.539
			c0.33-0.124,0.648-0.187,0.957-0.187c0.161,0,0.282,0,0.362,0c0.081,0,0.158,0.007,0.231,0.021V34.65z"/>
		<path d="M76.582,43.846c-0.925,0-1.761-0.157-2.509-0.473s-1.386-0.744-1.914-1.287c-0.527-0.542-0.935-1.173-1.221-1.892
			s-0.429-1.475-0.429-2.267c0-0.821,0.139-1.595,0.418-2.32c0.278-0.727,0.682-1.364,1.21-1.914
			c0.528-0.551,1.169-0.986,1.925-1.31c0.755-0.322,1.603-0.483,2.541-0.483s1.778,0.161,2.519,0.483
			c0.741,0.323,1.372,0.756,1.893,1.298c0.521,0.543,0.916,1.174,1.188,1.893s0.407,1.467,0.407,2.244
			c0,0.19-0.004,0.374-0.011,0.55c-0.008,0.176-0.025,0.322-0.055,0.439h-8.91c0.044,0.455,0.153,0.858,0.33,1.21
			c0.176,0.353,0.403,0.653,0.682,0.902c0.278,0.25,0.594,0.44,0.946,0.572c0.352,0.132,0.718,0.198,1.1,0.198
			c0.587,0,1.141-0.144,1.661-0.43s0.876-0.663,1.067-1.133l2.529,0.704c-0.425,0.88-1.104,1.603-2.034,2.167
			C78.983,43.563,77.872,43.846,76.582,43.846z M79.573,36.894c-0.073-0.865-0.393-1.558-0.957-2.078s-1.25-0.781-2.057-0.781
			c-0.396,0-0.767,0.069-1.111,0.209s-0.648,0.334-0.913,0.583c-0.264,0.249-0.48,0.55-0.648,0.901
			c-0.169,0.353-0.268,0.741-0.297,1.166H79.573z"/>
		<path d="M91.851,43.846c-0.925,0-1.761-0.157-2.509-0.473s-1.386-0.744-1.914-1.287c-0.527-0.542-0.935-1.173-1.221-1.892
			s-0.429-1.475-0.429-2.267c0-0.821,0.139-1.595,0.418-2.32c0.278-0.727,0.682-1.364,1.21-1.914
			c0.528-0.551,1.169-0.986,1.925-1.31c0.755-0.322,1.603-0.483,2.541-0.483s1.778,0.161,2.519,0.483
			c0.741,0.323,1.372,0.756,1.893,1.298c0.521,0.543,0.916,1.174,1.188,1.893s0.407,1.467,0.407,2.244
			c0,0.19-0.004,0.374-0.011,0.55c-0.008,0.176-0.025,0.322-0.055,0.439h-8.91c0.044,0.455,0.153,0.858,0.33,1.21
			c0.176,0.353,0.403,0.653,0.682,0.902c0.278,0.25,0.594,0.44,0.946,0.572c0.352,0.132,0.718,0.198,1.1,0.198
			c0.587,0,1.141-0.144,1.661-0.43s0.876-0.663,1.067-1.133l2.529,0.704c-0.425,0.88-1.104,1.603-2.034,2.167
			C94.252,43.563,93.141,43.846,91.851,43.846z M94.842,36.894c-0.073-0.865-0.393-1.558-0.957-2.078s-1.25-0.781-2.057-0.781
			c-0.396,0-0.767,0.069-1.111,0.209s-0.648,0.334-0.913,0.583c-0.264,0.249-0.48,0.55-0.648,0.901
			c-0.169,0.353-0.268,0.741-0.297,1.166H94.842z"/>
		<path d="M119.68,43.626h-2.948v-6.468c0-0.924-0.157-1.599-0.473-2.024c-0.315-0.425-0.752-0.638-1.31-0.638
			c-0.586,0-1.137,0.224-1.649,0.671c-0.514,0.447-0.88,1.03-1.101,1.749v6.71h-2.947v-6.468c0-0.924-0.158-1.599-0.474-2.024
			c-0.315-0.425-0.751-0.638-1.309-0.638c-0.572,0-1.118,0.22-1.639,0.66c-0.521,0.439-0.892,1.02-1.111,1.737v6.732h-2.948V32.098
			h2.662v2.135c0.426-0.748,1.009-1.324,1.749-1.728s1.588-0.604,2.541-0.604c0.968,0,1.716,0.234,2.244,0.703
			c0.528,0.47,0.865,1.049,1.012,1.738c0.47-0.792,1.063-1.396,1.782-1.814s1.54-0.627,2.464-0.627c0.704,0,1.283,0.132,1.738,0.396
			c0.454,0.264,0.807,0.608,1.056,1.034s0.422,0.909,0.518,1.452c0.095,0.543,0.143,1.093,0.143,1.649V43.626z"/>
		<path d="M127.49,43.846c-0.558,0-1.078-0.092-1.563-0.274c-0.483-0.184-0.901-0.44-1.254-0.771
			c-0.352-0.33-0.627-0.715-0.825-1.155c-0.197-0.439-0.297-0.924-0.297-1.451c0-0.543,0.121-1.045,0.363-1.508
			c0.242-0.462,0.579-0.854,1.012-1.177c0.433-0.322,0.949-0.575,1.551-0.759s1.262-0.275,1.98-0.275
			c0.513,0,1.016,0.044,1.507,0.133c0.491,0.088,0.928,0.212,1.31,0.374v-0.66c0-0.763-0.217-1.35-0.649-1.761
			c-0.433-0.41-1.074-0.615-1.925-0.615c-0.616,0-1.218,0.109-1.805,0.33c-0.586,0.22-1.188,0.542-1.804,0.968l-0.901-1.87
			c1.48-0.982,3.079-1.474,4.796-1.474c1.657,0,2.943,0.406,3.86,1.221c0.917,0.813,1.375,1.991,1.375,3.531v3.586
			c0,0.308,0.056,0.527,0.165,0.66c0.11,0.132,0.29,0.205,0.539,0.22v2.508c-0.499,0.103-0.932,0.154-1.298,0.154
			c-0.558,0-0.986-0.125-1.287-0.374s-0.487-0.579-0.561-0.99l-0.066-0.638c-0.514,0.675-1.137,1.188-1.87,1.54
			C129.11,43.67,128.326,43.846,127.49,43.846z M128.326,41.69c0.498,0,0.972-0.089,1.419-0.265s0.795-0.41,1.045-0.704
			c0.322-0.249,0.484-0.527,0.484-0.836v-1.319c-0.353-0.133-0.734-0.238-1.145-0.319c-0.411-0.08-0.807-0.121-1.188-0.121
			c-0.764,0-1.387,0.173-1.87,0.517c-0.484,0.345-0.727,0.781-0.727,1.31c0,0.499,0.19,0.913,0.572,1.243
			C127.299,41.525,127.769,41.69,128.326,41.69z"/>
		<path d="M149.775,43.626h-2.947v-6.468c0-0.924-0.162-1.599-0.484-2.024c-0.323-0.425-0.771-0.638-1.342-0.638
			c-0.294,0-0.594,0.059-0.902,0.176c-0.308,0.117-0.598,0.282-0.869,0.495s-0.517,0.466-0.736,0.759
			c-0.221,0.294-0.382,0.616-0.484,0.968v6.732h-2.948V32.098h2.662v2.135c0.426-0.733,1.041-1.306,1.848-1.717
			c0.807-0.41,1.717-0.615,2.729-0.615c0.719,0,1.305,0.132,1.76,0.396s0.807,0.608,1.057,1.034
			c0.249,0.426,0.421,0.909,0.517,1.452c0.095,0.543,0.143,1.093,0.143,1.649V43.626z"/>
	</g>
</g>
<g id="_x32__truths_and_a_lie">
</g>
<g id="cray_cray_cat_lady">
</g>
<g id="siblings">
</g>
<g id="take_2">
</g>
<g id="take_3">
</g>
<g id="later">
</g>
<g id="waterfall">
</g>
<g id="cheers">
</g>
<g id="rhyme">
</g>
<g id="categories">
</g>
<g id="tits">
</g>
<g id="dicks">
</g>
<g id="questions">
</g>
<g id="double_hands">
</g>
<g id="give_2">
</g>
<g id="rewind">
</g>
<g id="Cryptkeeper">
</g>
<g id="Take_2_and_Redo">
</g>
<g id="Embryo">
</g>
<g id="I_am_Groot">
</g>
<g id="Mini_Me">
</g>
<g id="Ditto_1_">
</g>
</svg>
