<?xml version="1.0" encoding="utf-8"?>
<!-- Generator: Adobe Illustrator 16.0.0, SVG Export Plug-In . SVG Version: 6.00 Build 0)  -->
<!DOCTYPE svg PUBLIC "-//W3C//DTD SVG 1.1//EN" "http://www.w3.org/Graphics/SVG/1.1/DTD/svg11.dtd">
<svg version="1.1" xmlns="http://www.w3.org/2000/svg" xmlns:xlink="http://www.w3.org/1999/xlink" x="0px" y="0px"
	 width="209.759px" height="62.361px" viewBox="0 0 209.759 62.361" enable-background="new 0 0 209.759 62.361"
	 xml:space="preserve">
<g id="Layer_1">
</g>
<g id="Blindman">
</g>
<g id="Compliments">
</g>
<g id="HAT">
</g>
<g id="speech">
</g>
<g id="TREX_ARMS">
</g>
<g id="slim_shady">
</g>
<g id="TIMEOUT">
</g>
<g id="Truth_or_Dare">
</g>
<g id="ARM_WRESTLE">
</g>
<g id="musical_chairs">
</g>
<g id="never_have_i_ever">
</g>
<g id="Trivia">
</g>
<g id="Drink_Pulling">
</g>
<g id="Sharing_is_Caring">
</g>
<g id="Not_It">
</g>
<g id="Cocktail_of_Doom">
</g>
<g id="Heads_up">
</g>
<g id="Archenemy">
</g>
<g id="battle_of_the_sexes">
</g>
<g id="one_must_drink">
</g>
<g id="rainbow_connection">
</g>
<g id="social_drinking">
</g>
<g id="Spin_the_bottle">
</g>
<g id="accents">
</g>
<g id="Slap">
</g>
<g id="down_the_hatch">
</g>
<g id="rubiks_cube">
</g>
<g id="bar_tender">
</g>
<g id="codenames">
</g>
<g id="hand_switch">
</g>
<g id="make_a_rule">
</g>
<g id="no_guts_no_glory">
</g>
<g id="pass">
</g>
<g id="santa">
</g>
<g id="snake_eyes">
</g>
<g id="lightning_round">
</g>
<g id="Bro">
</g>
<g id="LeastDrunk">
</g>
<g id="Know_It_All">
</g>
<g id="EyeContact">
</g>
<g id="UnderGuesser">
</g>
<g id="GodSaveTheQUeen">
</g>
<g id="Ghost">
</g>
<g id="Fortune_Teller">
</g>
<g id="DrinkSwap">
</g>
<g id="DickTator">
</g>
<g id="_x34_Eyes">
</g>
<g id="BabyTalk">
</g>
<g id="Backseat_Driver">
</g>
<g id="BAtman">
</g>
<g id="bodyguard">
</g>
<g id="BuckleUp">
</g>
<g id="RockPaperScissors">
</g>
<g id="Roger_Roger">
</g>
<g id="RoyaleWe">
</g>
<g id="Skip">
</g>
<g id="SwineRules">
	<g>
		<path d="M28.248,37.191c0.132,0.184,0.228,0.406,0.286,0.67s0.095,0.539,0.109,0.824c0.015,0.287,0.052,0.533,0.11,0.738
			c0.117,0.352,0.305,0.678,0.562,0.979c0.256,0.301,0.553,0.518,0.891,0.648c0.132,0.045,0.234,0.078,0.308,0.1
			s0.144,0.041,0.209,0.055c0.066,0.016,0.129,0.033,0.188,0.055c0.059,0.023,0.139,0.063,0.242,0.121h1.649
			c0.161-0.117,0.334-0.188,0.518-0.209c0.183-0.021,0.377-0.063,0.583-0.121c0.176-0.043,0.318-0.129,0.429-0.254
			c0.11-0.123,0.205-0.26,0.286-0.406c0.08-0.146,0.15-0.301,0.209-0.463s0.124-0.309,0.198-0.441v-1.543
			c0-0.029-0.033-0.105-0.1-0.23c-0.065-0.125-0.121-0.217-0.165-0.275c-0.22-0.338-0.47-0.584-0.748-0.738
			s-0.575-0.256-0.891-0.309c-0.315-0.051-0.646-0.08-0.99-0.088s-0.7-0.033-1.066-0.078c-0.587-0.072-1.155-0.209-1.705-0.406
			c-0.551-0.199-1.034-0.471-1.452-0.816c-0.418-0.344-0.756-0.76-1.012-1.244c-0.257-0.484-0.386-1.059-0.386-1.719
			c0-0.309,0.022-0.588,0.066-0.838s0.103-0.492,0.176-0.727s0.169-0.471,0.286-0.705s0.257-0.5,0.418-0.793
			c0.161-0.176,0.377-0.367,0.649-0.572c0.271-0.207,0.564-0.395,0.88-0.563c0.314-0.17,0.63-0.309,0.945-0.42
			c0.315-0.109,0.598-0.164,0.848-0.164h0.197c0.073,0.029,0.202,0.072,0.386,0.131c0.183,0.061,0.374,0.125,0.571,0.199
			c0.198,0.072,0.386,0.143,0.562,0.209s0.301,0.113,0.374,0.143c0.146,0.074,0.341,0.195,0.583,0.363s0.451,0.252,0.627,0.252
			h0.088c0.029-0.131,0.066-0.273,0.11-0.428s0.103-0.297,0.176-0.43c0.073-0.131,0.168-0.242,0.286-0.33
			c0.117-0.088,0.256-0.131,0.418-0.131c0.293,0,0.517,0.135,0.671,0.406s0.23,0.547,0.23,0.826v4.055
			c0,0.219-0.08,0.418-0.241,0.594c-0.162,0.176-0.353,0.264-0.572,0.264c-0.323,0-0.547-0.117-0.671-0.352
			c-0.125-0.234-0.213-0.506-0.265-0.814c-0.051-0.309-0.109-0.613-0.176-0.914c-0.065-0.303-0.194-0.525-0.385-0.672
			c-0.396-0.295-0.844-0.545-1.342-0.75c-0.499-0.205-0.99-0.309-1.475-0.309c-0.322,0-0.634,0.059-0.935,0.176
			c-0.301,0.119-0.572,0.279-0.814,0.486c-0.241,0.205-0.437,0.443-0.583,0.715s-0.22,0.568-0.22,0.893
			c0,0.617,0.117,1.08,0.353,1.389c0.234,0.307,0.542,0.527,0.924,0.66c0.381,0.133,0.81,0.213,1.287,0.242
			c0.477,0.029,0.949,0.066,1.419,0.109c0.366,0.029,0.744,0.086,1.133,0.166s0.759,0.166,1.111,0.254
			c0.014,0.014,0.04,0.029,0.076,0.043c0.037,0.016,0.063,0.029,0.077,0.045c0.322,0.264,0.627,0.529,0.913,0.793
			s0.535,0.543,0.748,0.836c0.213,0.295,0.378,0.621,0.495,0.98c0.117,0.361,0.176,0.768,0.176,1.223
			c0,0.354-0.029,0.721-0.088,1.102c-0.059,0.383-0.15,0.754-0.274,1.113c-0.125,0.359-0.29,0.693-0.495,1.002
			c-0.206,0.309-0.462,0.572-0.771,0.793c-0.029,0.016-0.084,0.045-0.165,0.088c-0.081,0.045-0.172,0.092-0.274,0.145
			c-0.104,0.051-0.195,0.096-0.275,0.131c-0.081,0.037-0.129,0.063-0.143,0.078c-0.191,0.117-0.378,0.246-0.562,0.385
			c-0.184,0.141-0.399,0.209-0.648,0.209H31.24c-0.206,0-0.403-0.043-0.594-0.131c-0.191-0.088-0.378-0.188-0.562-0.297
			c-0.184-0.111-0.37-0.209-0.561-0.297c-0.191-0.09-0.396-0.133-0.616-0.133c-0.146,0-0.253,0.055-0.319,0.164
			c-0.065,0.111-0.128,0.229-0.187,0.354c-0.06,0.125-0.14,0.238-0.242,0.34c-0.103,0.104-0.264,0.154-0.484,0.154
			c-0.249,0-0.477-0.092-0.682-0.271c-0.206-0.182-0.308-0.404-0.308-0.666v-5.068c0-0.264,0.088-0.473,0.264-0.627
			s0.389-0.23,0.638-0.23C27.896,36.916,28.116,37.008,28.248,37.191z"/>
		<path d="M42.174,41.074c-0.132-0.67-0.278-1.35-0.439-2.041c-0.19-0.781-0.393-1.602-0.605-2.463
			c-0.212-0.861-0.443-1.682-0.692-2.463c-0.03-0.029-0.077-0.076-0.144-0.143c-0.065-0.066-0.136-0.137-0.209-0.211
			c-0.073-0.072-0.143-0.143-0.209-0.209c-0.065-0.066-0.106-0.113-0.121-0.145c-0.073-0.072-0.106-0.16-0.099-0.264
			c0.007-0.104,0.011-0.199,0.011-0.287c0-0.25,0.048-0.445,0.144-0.586c0.095-0.139,0.224-0.242,0.385-0.309
			s0.341-0.104,0.539-0.111c0.198-0.006,0.399-0.01,0.604-0.01c0.19,0,0.403,0.008,0.639,0.021c0.234,0.016,0.458,0.059,0.671,0.133
			c0.212,0.072,0.389,0.184,0.527,0.33c0.14,0.146,0.21,0.352,0.21,0.615c0,0.234-0.056,0.406-0.165,0.518
			c-0.11,0.109-0.231,0.193-0.363,0.252s-0.253,0.113-0.363,0.166c-0.11,0.051-0.165,0.135-0.165,0.252v0.133
			c0.044,0.162,0.113,0.447,0.209,0.857s0.198,0.848,0.309,1.309c0.109,0.463,0.212,0.895,0.308,1.299
			c0.095,0.402,0.165,0.686,0.209,0.848c0.029,0.072,0.088,0.248,0.176,0.527h0.088l0.177-0.352l0.857-3.961v-1.033
			c0-0.059-0.037-0.107-0.11-0.145c-0.073-0.035-0.153-0.08-0.241-0.131s-0.169-0.129-0.242-0.23
			c-0.073-0.104-0.11-0.266-0.11-0.484c0-0.146,0.012-0.275,0.033-0.385c0.022-0.111,0.128-0.195,0.319-0.254
			c0.044-0.014,0.113-0.035,0.209-0.066c0.095-0.029,0.197-0.059,0.308-0.088s0.213-0.055,0.308-0.076
			c0.096-0.021,0.165-0.033,0.21-0.033c0.014,0,0.076-0.004,0.187-0.012c0.11-0.006,0.194-0.01,0.253-0.01
			c0.19,0,0.433,0.008,0.726,0.021c0.294,0.016,0.58,0.059,0.858,0.133c0.278,0.072,0.517,0.184,0.715,0.33s0.297,0.359,0.297,0.637
			c0,0.133-0.032,0.238-0.099,0.32c-0.066,0.08-0.143,0.152-0.231,0.219c-0.088,0.066-0.184,0.129-0.285,0.188
			c-0.104,0.059-0.191,0.139-0.265,0.242c0,0.029-0.004,0.1-0.011,0.209c-0.008,0.109-0.011,0.18-0.011,0.209
			c0,0.059,0.003,0.143,0.011,0.252c0.007,0.111,0.011,0.174,0.011,0.188c0,0.029,0.015,0.088,0.044,0.176s0.059,0.188,0.088,0.297
			c0.029,0.111,0.059,0.213,0.089,0.309c0.028,0.096,0.044,0.15,0.044,0.164c0.058,0.338,0.099,0.668,0.12,0.99
			c0.022,0.324,0.07,0.654,0.144,0.99c0.029,0.162,0.069,0.375,0.121,0.639c0.051,0.264,0.099,0.488,0.143,0.67
			c0.044,0.184,0.066,0.291,0.066,0.32l0.088,0.088c0.088-0.029,0.154-0.088,0.198-0.176s0.073-0.191,0.088-0.309
			s0.021-0.234,0.021-0.352s0.015-0.213,0.044-0.287c0-0.029,0.019-0.098,0.056-0.209c0.036-0.109,0.073-0.227,0.109-0.352
			c0.037-0.125,0.073-0.242,0.11-0.352c0.036-0.109,0.055-0.18,0.055-0.209c0.044-0.146,0.096-0.342,0.154-0.584
			s0.117-0.482,0.176-0.725s0.106-0.451,0.144-0.627c0.036-0.176,0.055-0.271,0.055-0.287v-1.121c0-0.088-0.048-0.158-0.143-0.209
			c-0.096-0.051-0.206-0.104-0.33-0.154c-0.125-0.051-0.235-0.113-0.33-0.188c-0.096-0.072-0.144-0.189-0.144-0.352
			c0-0.234,0.059-0.426,0.177-0.572c0.117-0.146,0.264-0.26,0.439-0.342c0.176-0.08,0.366-0.131,0.572-0.152
			c0.205-0.023,0.396-0.033,0.572-0.033c0.19,0,0.402,0.01,0.638,0.033c0.234,0.021,0.454,0.068,0.66,0.143
			c0.205,0.074,0.377,0.184,0.517,0.33s0.209,0.344,0.209,0.594v0.285c-0.029,0.031-0.077,0.078-0.143,0.145
			c-0.066,0.064-0.136,0.135-0.209,0.209c-0.074,0.072-0.144,0.143-0.209,0.209c-0.066,0.064-0.106,0.113-0.121,0.143
			c-0.015,0-0.03,0.021-0.044,0.066c-0.015,0.043-0.03,0.08-0.044,0.109c-0.016,0.043-0.037,0.104-0.066,0.176
			c-0.029,0.074-0.059,0.15-0.088,0.23c-0.029,0.082-0.055,0.158-0.077,0.232c-0.021,0.072-0.033,0.117-0.033,0.131
			c-0.029,0.133-0.08,0.338-0.153,0.617c-0.074,0.277-0.158,0.594-0.253,0.945c-0.096,0.352-0.191,0.719-0.286,1.1
			c-0.096,0.381-0.188,0.748-0.275,1.1c-0.088,0.354-0.169,0.668-0.242,0.947c-0.073,0.277-0.125,0.482-0.153,0.615
			c-0.03,0.484-0.11,0.969-0.242,1.451c-0.132,0.484-0.286,0.955-0.462,1.408c-0.118,0.148-0.246,0.268-0.386,0.363
			c-0.139,0.096-0.304,0.143-0.494,0.143c-0.133,0-0.283-0.018-0.451-0.055c-0.169-0.035-0.297-0.105-0.386-0.209
			c-0.117-0.117-0.228-0.373-0.329-0.77c-0.104-0.396-0.198-0.854-0.286-1.375c-0.088-0.52-0.169-1.066-0.242-1.639
			s-0.146-1.104-0.22-1.596c-0.074-0.49-0.151-0.902-0.231-1.232c-0.081-0.33-0.158-0.508-0.23-0.539
			c-0.118,0.074-0.202,0.184-0.254,0.33c-0.051,0.148-0.084,0.305-0.099,0.475c-0.015,0.168-0.025,0.336-0.033,0.506
			c-0.007,0.168-0.025,0.311-0.055,0.428c-0.19,0.822-0.341,1.654-0.451,2.498s-0.274,1.676-0.495,2.496
			c-0.073,0.234-0.198,0.418-0.374,0.551c-0.176,0.131-0.381,0.197-0.616,0.197c-0.22,0-0.406-0.043-0.561-0.133
			c-0.154-0.088-0.297-0.221-0.429-0.396C42.504,42.418,42.307,41.744,42.174,41.074z"/>
		<path d="M55.318,41.666c0.169-0.293,0.43-0.439,0.781-0.439h2.42l0.154-0.217c0-0.059,0.003-0.16,0.011-0.307
			s0.019-0.299,0.033-0.459s0.025-0.314,0.033-0.459c0.007-0.146,0.011-0.248,0.011-0.307c0.015-0.029,0.029-0.102,0.044-0.219
			s0.029-0.189,0.044-0.219v-4.832h-2.574c-0.146,0-0.274-0.041-0.385-0.123s-0.202-0.184-0.275-0.303s-0.128-0.25-0.164-0.393
			c-0.037-0.143-0.056-0.273-0.056-0.393c0-0.24,0.059-0.426,0.176-0.561s0.261-0.236,0.43-0.303
			c0.168-0.068,0.352-0.113,0.55-0.135c0.198-0.023,0.377-0.035,0.539-0.035c0.249,0,0.495,0.016,0.737,0.045
			c0.241,0.029,0.487,0.043,0.736,0.043c0.176,0,0.349-0.014,0.518-0.043c0.168-0.029,0.341-0.045,0.517-0.045
			c0.249,0,0.51,0.082,0.781,0.242c0.271,0.162,0.407,0.396,0.407,0.705v8.184l0.132,0.131h2.332c0.132,0,0.253,0.049,0.362,0.146
			c0.11,0.098,0.206,0.213,0.286,0.348c0.081,0.135,0.14,0.277,0.176,0.428c0.037,0.148,0.056,0.275,0.056,0.381
			c0,0.209-0.056,0.418-0.165,0.629c-0.11,0.209-0.29,0.313-0.539,0.313h-7.502c-0.264,0-0.473-0.09-0.627-0.268
			c-0.154-0.18-0.231-0.396-0.231-0.652C55.065,42.252,55.15,41.957,55.318,41.666z M58.41,28.225
			c0.278-0.293,0.638-0.439,1.077-0.439c0.234,0,0.451,0.055,0.649,0.166c0.198,0.109,0.366,0.256,0.506,0.439
			s0.249,0.385,0.33,0.605c0.08,0.219,0.121,0.439,0.121,0.66c0,0.439-0.161,0.787-0.484,1.045c-0.322,0.256-0.689,0.385-1.1,0.385
			c-0.499,0-0.877-0.176-1.133-0.529c-0.257-0.352-0.385-0.77-0.385-1.254C57.992,28.879,58.131,28.52,58.41,28.225z"/>
		<path d="M67.122,41.436c0.293-0.123,0.66-0.201,1.1-0.23l0.088-0.088c0.029-0.205,0.056-0.443,0.077-0.715
			c0.022-0.271,0.056-0.518,0.1-0.736v-5.082c0-0.104-0.092-0.18-0.275-0.232c-0.184-0.051-0.382-0.119-0.594-0.209
			c-0.213-0.088-0.411-0.215-0.595-0.385c-0.184-0.168-0.274-0.428-0.274-0.781c0-0.381,0.136-0.641,0.407-0.779
			c0.271-0.141,0.567-0.209,0.891-0.209c0.044,0,0.11,0,0.198,0c0.103,0,0.153,0.006,0.153,0.021
			c0.426,0.059,0.767,0.131,1.023,0.219c0.257,0.09,0.458,0.211,0.605,0.363c0.146,0.154,0.249,0.357,0.308,0.605
			c0.059,0.25,0.103,0.564,0.132,0.945c0.015,0.016,0.029,0.023,0.044,0.023h0.044c0.088,0,0.173-0.045,0.253-0.133
			c0.081-0.088,0.165-0.189,0.253-0.309c0.088-0.117,0.177-0.234,0.265-0.352s0.176-0.205,0.264-0.264
			c0.41-0.293,0.847-0.582,1.309-0.869c0.463-0.285,0.957-0.43,1.485-0.43c0.322,0,0.649,0.078,0.979,0.232
			c0.329,0.154,0.623,0.355,0.88,0.605c0.256,0.248,0.465,0.535,0.627,0.857c0.161,0.322,0.242,0.652,0.242,0.99v5.434
			c-0.06,0.162-0.092,0.309-0.1,0.439C77.003,40.502,77,40.648,77,40.809c0,0.045,0.007,0.148,0.021,0.309l0.089,0.088
			c0.396,0.074,0.751,0.205,1.066,0.396s0.474,0.521,0.474,0.99c0,0.381-0.114,0.635-0.342,0.758
			c-0.228,0.125-0.517,0.188-0.869,0.188H77.11c-0.118,0-0.323-0.004-0.616-0.01c-0.294-0.008-0.605-0.016-0.936-0.023
			c-0.33-0.006-0.642-0.018-0.935-0.033c-0.294-0.014-0.499-0.021-0.616-0.021c-0.47-0.131-0.704-0.432-0.704-0.902
			c0-0.557,0.157-0.912,0.474-1.066c0.314-0.154,0.707-0.246,1.177-0.275l0.088-0.088l0.198-0.857v-3.344
			c0.014-0.045,0.04-0.133,0.077-0.264c0.036-0.133,0.055-0.221,0.055-0.266v-0.043v-0.045c0-0.029-0.011-0.113-0.033-0.252
			c-0.021-0.139-0.04-0.225-0.055-0.254c0-0.043-0.004-0.123-0.012-0.242c-0.007-0.117-0.015-0.238-0.021-0.361
			c-0.008-0.125-0.015-0.246-0.022-0.363c-0.007-0.117-0.011-0.199-0.011-0.242c-0.132-0.221-0.301-0.35-0.506-0.385
			c-0.205-0.037-0.418-0.057-0.638-0.057c-0.367,0-0.708,0.09-1.023,0.266s-0.604,0.395-0.869,0.66
			c-0.264,0.264-0.502,0.553-0.715,0.867c-0.213,0.316-0.399,0.613-0.561,0.893c-0.015,0.014-0.044,0.055-0.088,0.121
			c-0.045,0.064-0.074,0.113-0.089,0.143c-0.044,0.074-0.146,0.242-0.308,0.506v2.508c-0.073,0.146-0.113,0.271-0.121,0.373
			c-0.008,0.104-0.011,0.236-0.011,0.396v0.33c0.088,0.133,0.23,0.209,0.429,0.23c0.198,0.023,0.403,0.064,0.616,0.121
			c0.212,0.061,0.396,0.162,0.55,0.309s0.231,0.41,0.231,0.793c0,0.307-0.114,0.539-0.341,0.691
			c-0.229,0.154-0.488,0.246-0.781,0.275h-0.902h-0.902c-0.029,0-0.103-0.014-0.22-0.043s-0.19-0.045-0.22-0.045
			c-0.25-0.029-0.499-0.047-0.748-0.055c-0.25-0.008-0.473-0.041-0.671-0.1s-0.355-0.16-0.473-0.307
			c-0.118-0.146-0.177-0.383-0.177-0.705C66.682,41.873,66.828,41.561,67.122,41.436z"/>
		<path d="M81.345,36.629c0.081-0.541,0.217-1.059,0.407-1.551c0.19-0.49,0.443-0.945,0.759-1.363s0.715-0.76,1.199-1.023
			c0.044-0.029,0.124-0.072,0.242-0.133c0.117-0.057,0.242-0.119,0.374-0.186s0.253-0.125,0.362-0.176
			c0.11-0.053,0.188-0.086,0.231-0.1c0.161-0.074,0.326-0.105,0.495-0.1c0.168,0.008,0.333,0.012,0.495,0.012
			c0.938,0,1.73,0.223,2.376,0.67c0.645,0.449,1.246,1.023,1.804,1.729c0.059,0.088,0.136,0.252,0.231,0.494
			c0.095,0.242,0.183,0.506,0.264,0.793c0.08,0.285,0.15,0.564,0.209,0.836s0.088,0.473,0.088,0.604
			c0,0.031-0.004,0.092-0.011,0.188c-0.008,0.096-0.011,0.158-0.011,0.188c-0.133,0.219-0.309,0.367-0.528,0.439
			c-0.22,0.074-0.447,0.133-0.682,0.176c-0.162,0-0.451-0.004-0.869-0.01c-0.418-0.008-0.862-0.012-1.331-0.012
			c-0.455,0-0.892,0.004-1.31,0.012c-0.418,0.006-0.707,0.01-0.869,0.01c-0.161,0-0.355,0.004-0.583,0.012s-0.45,0.014-0.671,0.021
			c-0.22,0.008-0.491,0.027-0.813,0.057l-0.088,0.066c0,0.014-0.004,0.066-0.012,0.154c-0.007,0.088-0.011,0.148-0.011,0.178
			c0,0.428,0.077,0.832,0.231,1.217c0.153,0.383,0.366,0.719,0.638,1.008c0.271,0.287,0.59,0.516,0.957,0.686
			c0.366,0.17,0.77,0.254,1.21,0.254c0.044,0,0.143-0.004,0.297-0.012c0.154-0.006,0.253-0.01,0.297-0.01
			c0.205-0.162,0.44-0.275,0.704-0.342c0.265-0.066,0.491-0.18,0.683-0.34c0.146-0.133,0.282-0.295,0.406-0.484
			c0.125-0.191,0.257-0.375,0.396-0.551c0.139-0.176,0.289-0.322,0.451-0.439c0.161-0.117,0.358-0.176,0.594-0.176
			c0.22,0,0.399,0.066,0.539,0.197c0.139,0.133,0.209,0.301,0.209,0.506c0,0.338-0.073,0.643-0.22,0.914
			c-0.147,0.271-0.309,0.539-0.484,0.803c-0.44,0.637-1.02,1.094-1.738,1.369s-1.459,0.412-2.222,0.412
			c-0.748,0-1.423-0.146-2.024-0.439s-1.107-0.689-1.518-1.188c-0.411-0.498-0.727-1.074-0.946-1.729
			c-0.22-0.652-0.33-1.338-0.33-2.057C81.224,37.701,81.264,37.172,81.345,36.629z M83.292,36.322c0,0.043,0.029,0.064,0.088,0.064
			h5.082c0.029,0,0.069-0.018,0.121-0.055c0.051-0.035,0.092-0.068,0.121-0.098c0.015-0.029,0.021-0.082,0.021-0.154
			c0-0.074,0-0.125,0-0.154c0-0.352-0.088-0.648-0.264-0.891s-0.396-0.434-0.66-0.572s-0.554-0.242-0.869-0.309
			s-0.612-0.1-0.891-0.1c-0.308,0-0.624,0.041-0.946,0.121c-0.322,0.082-0.616,0.209-0.88,0.385c-0.264,0.178-0.484,0.4-0.66,0.672
			s-0.264,0.59-0.264,0.957C83.292,36.219,83.292,36.264,83.292,36.322z"/>
		<path d="M102.487,41.283c-0.008-0.418-0.041-0.836-0.1-1.254s-0.15-0.826-0.274-1.223c-0.125-0.395-0.29-0.77-0.495-1.121
			c-0.104-0.162-0.202-0.344-0.297-0.551c-0.096-0.205-0.225-0.365-0.386-0.482c-0.205-0.045-0.381-0.082-0.527-0.111
			c-0.147-0.029-0.29-0.047-0.43-0.055s-0.282-0.012-0.429-0.012c-0.132,0-0.294,0-0.484,0h-0.813c-0.088,0-0.22,0.012-0.396,0.033
			c-0.176,0.023-0.271,0.041-0.285,0.057l-0.089,0.088v4.135c0,0.133,0.133,0.23,0.396,0.297s0.55,0.143,0.858,0.232
			c0.308,0.088,0.594,0.215,0.857,0.385c0.264,0.168,0.396,0.436,0.396,0.803c0,0.234-0.063,0.418-0.188,0.549
			c-0.125,0.133-0.278,0.236-0.462,0.309c-0.184,0.074-0.382,0.121-0.594,0.143c-0.213,0.023-0.407,0.033-0.583,0.033h-0.242
			c-0.132,0-0.363-0.004-0.693-0.01c-0.33-0.008-0.678-0.016-1.045-0.023c-0.366-0.006-0.711-0.018-1.034-0.033
			c-0.322-0.014-0.55-0.021-0.682-0.021c-0.146,0.016-0.282-0.018-0.407-0.1c-0.124-0.08-0.234-0.186-0.33-0.318
			c-0.095-0.131-0.168-0.271-0.22-0.418s-0.077-0.285-0.077-0.418c0-0.277,0.066-0.494,0.198-0.648s0.301-0.268,0.506-0.342
			c0.205-0.072,0.429-0.117,0.671-0.131c0.242-0.016,0.474-0.023,0.693-0.023c0.029-0.029,0.065-0.072,0.11-0.131
			c0.044-0.059,0.065-0.104,0.065-0.133l-0.044-4.906v-0.439l-0.132-5.17l-0.176-0.176l-1.387-0.33
			c-0.19-0.059-0.308-0.188-0.352-0.385c-0.044-0.199-0.066-0.371-0.066-0.518c0-0.234,0.059-0.465,0.177-0.693
			c0.117-0.227,0.314-0.34,0.594-0.34h3.366c0.161-0.088,0.308-0.137,0.439-0.145c0.132-0.006,0.278-0.01,0.44-0.01
			c0.763,0,1.528,0.051,2.299,0.154c0.77,0.102,1.463,0.307,2.079,0.615s1.114,0.752,1.496,1.332
			c0.381,0.578,0.571,1.346,0.571,2.299c0,0.41-0.036,0.846-0.109,1.309c-0.073,0.461-0.242,0.861-0.506,1.199
			c-0.088,0.117-0.202,0.227-0.341,0.33c-0.14,0.102-0.275,0.205-0.407,0.307c-0.132,0.104-0.242,0.217-0.33,0.342
			s-0.132,0.275-0.132,0.451v0.197c0.293,0.455,0.523,0.965,0.692,1.529s0.312,1.09,0.43,1.574c0.044,0.176,0.069,0.406,0.076,0.691
			c0.008,0.287,0.07,0.518,0.188,0.693c0.103,0.162,0.228,0.271,0.374,0.33s0.293,0.109,0.439,0.154
			c0.146,0.043,0.294,0.104,0.44,0.176c0.146,0.074,0.271,0.197,0.374,0.375c0.132,0.205,0.213,0.344,0.242,0.418
			c0.029,0.072,0.044,0.205,0.044,0.395c0,0.25-0.081,0.492-0.242,0.727s-0.389,0.352-0.682,0.352h-0.044
			c-0.265-0.043-0.558-0.063-0.88-0.055c-0.323,0.008-0.631-0.008-0.925-0.043c-0.293-0.037-0.554-0.129-0.78-0.275
			c-0.228-0.146-0.371-0.396-0.43-0.748C102.49,42.107,102.494,41.701,102.487,41.283z M97.68,30.029
			c-0.132,0.045-0.198,0.125-0.198,0.242v3.783c0,0.045,0.022,0.119,0.066,0.221c0.044,0.104,0.08,0.176,0.11,0.221h0.506
			c0.19,0,0.374-0.016,0.55-0.045s0.352-0.043,0.528-0.043c0.22,0,0.432,0.014,0.638,0.043c0.205,0.029,0.425,0.045,0.66,0.045
			h0.726c0.528-0.162,0.965-0.414,1.31-0.76c0.344-0.344,0.517-0.803,0.517-1.375c0-0.338-0.044-0.67-0.132-1
			s-0.279-0.605-0.572-0.826c-0.558-0.248-1.144-0.414-1.76-0.494s-1.232-0.121-1.848-0.121c-0.074,0-0.206,0-0.396,0
			s-0.322,0.008-0.396,0.021C97.914,29.957,97.812,29.986,97.68,30.029z"/>
		<path d="M110.604,37.092c0.095-0.66,0.143-1.328,0.143-2.002c0-0.045,0-0.111,0-0.199c0-0.102-0.004-0.209-0.011-0.318
			c-0.008-0.109-0.012-0.209-0.012-0.297c0-0.102,0-0.176,0-0.221c-0.161-0.102-0.341-0.172-0.538-0.209
			c-0.198-0.035-0.386-0.08-0.562-0.131s-0.322-0.137-0.439-0.254c-0.118-0.117-0.177-0.307-0.177-0.572
			c0-0.248,0.077-0.461,0.231-0.637s0.363-0.264,0.627-0.264h1.804c0.22,0,0.393,0.047,0.518,0.143
			c0.124,0.094,0.22,0.219,0.285,0.373c0.066,0.152,0.11,0.318,0.133,0.494c0.021,0.174,0.032,0.336,0.032,0.482
			c0,0.307-0.019,0.607-0.055,0.9c-0.037,0.293-0.055,0.592-0.055,0.898c0,0.104,0.003,0.26,0.011,0.473
			c0.007,0.213,0.011,0.332,0.011,0.361c0,0.146,0.008,0.406,0.022,0.779s0.029,0.773,0.044,1.197s0.033,0.822,0.055,1.195
			c0.022,0.373,0.033,0.633,0.033,0.779c0.059,0.381,0.18,0.695,0.363,0.943c0.183,0.25,0.487,0.373,0.913,0.373
			c0.176,0,0.374-0.014,0.594-0.043s0.403-0.111,0.55-0.242c0.264-0.234,0.535-0.502,0.814-0.803
			c0.278-0.301,0.527-0.619,0.748-0.957c0.22-0.338,0.402-0.693,0.55-1.068c0.146-0.373,0.22-0.75,0.22-1.133v-3.189
			c0-0.059-0.099-0.1-0.297-0.121s-0.418-0.063-0.66-0.121s-0.462-0.156-0.66-0.297c-0.198-0.139-0.297-0.348-0.297-0.627
			c0-0.25,0.077-0.447,0.231-0.594c0.153-0.146,0.37-0.221,0.648-0.221h1.98c0.264,0,0.454,0.086,0.571,0.254
			s0.198,0.367,0.242,0.594c0.044,0.229,0.066,0.465,0.066,0.715s0.021,0.447,0.065,0.594l-0.044,2.332v0.418l-0.044,4.137
			l0.177,0.176c0.22,0,0.45,0.008,0.692,0.021c0.242,0.016,0.47,0.063,0.683,0.145c0.212,0.08,0.385,0.199,0.517,0.354
			c0.132,0.156,0.198,0.383,0.198,0.678c0,0.268-0.052,0.475-0.154,0.623s-0.238,0.256-0.407,0.322s-0.355,0.107-0.561,0.121
			c-0.206,0.016-0.411,0.023-0.616,0.023c-0.117,0-0.305-0.008-0.561-0.023c-0.257-0.014-0.518-0.055-0.781-0.121
			c-0.265-0.066-0.495-0.168-0.693-0.301s-0.297-0.311-0.297-0.533v-0.955h-0.088c-0.25,0.266-0.495,0.521-0.737,0.768
			c-0.242,0.244-0.499,0.465-0.77,0.666c-0.271,0.199-0.565,0.359-0.88,0.477c-0.316,0.119-0.657,0.178-1.023,0.178
			c-0.602,0-1.122-0.139-1.562-0.418c-0.44-0.277-0.804-0.633-1.09-1.066c-0.285-0.432-0.498-0.916-0.638-1.451
			c-0.14-0.537-0.209-1.068-0.209-1.596C110.461,38.42,110.509,37.752,110.604,37.092z"/>
		<path d="M124.102,42.158c0.029-0.156,0.08-0.303,0.154-0.438c0.072-0.135,0.164-0.25,0.274-0.348s0.245-0.146,0.407-0.146h3.366
			l0.109-0.131v-6.6l0.132-0.416v-3.684c0-0.088-0.088-0.18-0.264-0.275c-0.176-0.094-0.286-0.148-0.33-0.164
			c-0.044,0.016-0.121,0.037-0.23,0.066c-0.11,0.029-0.231,0.059-0.363,0.088s-0.257,0.055-0.374,0.076s-0.198,0.033-0.242,0.033
			h-0.352c-0.25,0-0.444-0.025-0.583-0.078c-0.14-0.051-0.313-0.113-0.518-0.186c-0.146-0.043-0.278-0.08-0.396-0.109
			c-0.118-0.029-0.217-0.074-0.297-0.133c-0.081-0.059-0.144-0.135-0.188-0.229c-0.044-0.096-0.065-0.238-0.065-0.428
			c0-0.41,0.157-0.691,0.473-0.846c0.315-0.152,0.656-0.229,1.023-0.229c0.264,0,0.523,0.029,0.78,0.086
			c0.257,0.059,0.518,0.088,0.781,0.088c0.205,0,0.403-0.014,0.594-0.043s0.389-0.045,0.595-0.045c0.19,0,0.396,0.023,0.615,0.066
			c0.221,0.045,0.426,0.113,0.616,0.209c0.19,0.094,0.349,0.227,0.473,0.395c0.125,0.168,0.188,0.377,0.188,0.625v11.664l0.22,0.197
			h2.926c0.146,0,0.275,0.043,0.386,0.125c0.109,0.082,0.201,0.184,0.274,0.303s0.129,0.25,0.165,0.393
			c0.037,0.143,0.056,0.273,0.056,0.393c0,0.27-0.07,0.508-0.209,0.719c-0.14,0.209-0.363,0.313-0.672,0.313h-8.514
			c-0.249,0-0.487-0.086-0.715-0.258s-0.341-0.385-0.341-0.639C124.058,42.455,124.072,42.316,124.102,42.158z"/>
		<path d="M137.18,36.629c0.081-0.541,0.217-1.059,0.407-1.551c0.19-0.49,0.443-0.945,0.759-1.363s0.715-0.76,1.199-1.023
			c0.044-0.029,0.124-0.072,0.242-0.133c0.117-0.057,0.242-0.119,0.374-0.186s0.253-0.125,0.362-0.176
			c0.11-0.053,0.188-0.086,0.231-0.1c0.161-0.074,0.326-0.105,0.495-0.1c0.168,0.008,0.333,0.012,0.495,0.012
			c0.938,0,1.73,0.223,2.376,0.67c0.645,0.449,1.246,1.023,1.804,1.729c0.059,0.088,0.136,0.252,0.231,0.494
			c0.095,0.242,0.183,0.506,0.264,0.793c0.08,0.285,0.15,0.564,0.209,0.836s0.088,0.473,0.088,0.604
			c0,0.031-0.004,0.092-0.011,0.188c-0.008,0.096-0.011,0.158-0.011,0.188c-0.133,0.219-0.309,0.367-0.528,0.439
			c-0.22,0.074-0.447,0.133-0.682,0.176c-0.162,0-0.451-0.004-0.869-0.01c-0.418-0.008-0.862-0.012-1.331-0.012
			c-0.455,0-0.892,0.004-1.31,0.012c-0.418,0.006-0.707,0.01-0.869,0.01c-0.161,0-0.355,0.004-0.583,0.012s-0.45,0.014-0.671,0.021
			c-0.22,0.008-0.491,0.027-0.813,0.057l-0.088,0.066c0,0.014-0.004,0.066-0.012,0.154c-0.007,0.088-0.011,0.148-0.011,0.178
			c0,0.428,0.077,0.832,0.231,1.217c0.153,0.383,0.366,0.719,0.638,1.008c0.271,0.287,0.59,0.516,0.957,0.686
			c0.366,0.17,0.77,0.254,1.21,0.254c0.044,0,0.143-0.004,0.297-0.012c0.154-0.006,0.253-0.01,0.297-0.01
			c0.205-0.162,0.44-0.275,0.704-0.342c0.265-0.066,0.491-0.18,0.683-0.34c0.146-0.133,0.282-0.295,0.406-0.484
			c0.125-0.191,0.257-0.375,0.396-0.551c0.139-0.176,0.289-0.322,0.451-0.439c0.161-0.117,0.358-0.176,0.594-0.176
			c0.22,0,0.399,0.066,0.539,0.197c0.139,0.133,0.209,0.301,0.209,0.506c0,0.338-0.073,0.643-0.22,0.914
			c-0.147,0.271-0.309,0.539-0.484,0.803c-0.44,0.637-1.02,1.094-1.738,1.369s-1.459,0.412-2.222,0.412
			c-0.748,0-1.423-0.146-2.024-0.439s-1.107-0.689-1.518-1.188c-0.411-0.498-0.727-1.074-0.946-1.729
			c-0.22-0.652-0.33-1.338-0.33-2.057C137.059,37.701,137.099,37.172,137.18,36.629z M139.127,36.322
			c0,0.043,0.029,0.064,0.088,0.064h5.082c0.029,0,0.069-0.018,0.121-0.055c0.051-0.035,0.092-0.068,0.121-0.098
			c0.015-0.029,0.021-0.082,0.021-0.154c0-0.074,0-0.125,0-0.154c0-0.352-0.088-0.648-0.264-0.891s-0.396-0.434-0.66-0.572
			s-0.554-0.242-0.869-0.309s-0.612-0.1-0.891-0.1c-0.308,0-0.624,0.041-0.946,0.121c-0.322,0.082-0.616,0.209-0.88,0.385
			c-0.264,0.178-0.484,0.4-0.66,0.672s-0.264,0.59-0.264,0.957C139.127,36.219,139.127,36.264,139.127,36.322z"/>
		<path d="M149.28,42.162c0.007-0.096,0.047-0.217,0.12-0.363v-2.596c0-0.205,0.081-0.369,0.242-0.494s0.338-0.188,0.528-0.188
			c0.088,0,0.187,0.012,0.297,0.033s0.201,0.07,0.275,0.143c0.103,0.117,0.161,0.262,0.176,0.43s0.065,0.311,0.154,0.428
			c0.19,0.266,0.377,0.518,0.561,0.76s0.385,0.455,0.605,0.639c0.22,0.184,0.465,0.33,0.736,0.439s0.583,0.164,0.936,0.164
			c0.308,0,0.619-0.031,0.935-0.098s0.602-0.172,0.858-0.32c0.256-0.146,0.469-0.34,0.638-0.582s0.253-0.539,0.253-0.891
			c0-0.25-0.04-0.447-0.121-0.594s-0.245-0.271-0.495-0.375c-0.454-0.146-0.932-0.248-1.43-0.309
			c-0.499-0.059-0.99-0.117-1.474-0.176c-0.484-0.059-0.95-0.139-1.397-0.242c-0.447-0.102-0.836-0.27-1.166-0.506
			c-0.33-0.234-0.594-0.557-0.792-0.967s-0.297-0.953-0.297-1.629c0-0.777,0.187-1.393,0.561-1.848s0.913-0.828,1.617-1.121
			c0.161-0.074,0.334-0.137,0.518-0.188c0.183-0.051,0.37-0.078,0.561-0.078h0.198c0.528,0.074,1.066,0.188,1.617,0.342
			c0.55,0.154,1.045,0.385,1.484,0.693c0.103-0.074,0.188-0.162,0.253-0.264c0.066-0.104,0.133-0.199,0.198-0.287
			c0.066-0.088,0.144-0.16,0.231-0.219s0.205-0.09,0.352-0.09c0.205,0,0.393,0.078,0.562,0.232c0.168,0.154,0.245,0.334,0.23,0.539
			c0,0.088,0.004,0.246,0.011,0.473c0.008,0.227,0.015,0.469,0.022,0.727c0.007,0.256,0.019,0.498,0.033,0.725
			c0.015,0.229,0.021,0.385,0.021,0.473v0.266c0,0.264-0.077,0.531-0.23,0.803c-0.154,0.271-0.386,0.406-0.693,0.406
			c-0.264,0-0.473-0.117-0.627-0.352s-0.297-0.502-0.429-0.803s-0.286-0.59-0.462-0.869c-0.177-0.279-0.426-0.463-0.748-0.551
			c-0.206-0.059-0.363-0.098-0.474-0.121c-0.109-0.021-0.216-0.039-0.318-0.055c-0.104-0.014-0.213-0.021-0.33-0.021
			c-0.118,0-0.279,0-0.484,0c-0.059,0-0.19,0.004-0.396,0.012c-0.206,0.006-0.345,0.01-0.418,0.01
			c-0.133,0.045-0.265,0.111-0.396,0.199s-0.253,0.193-0.363,0.318c-0.109,0.125-0.197,0.26-0.264,0.406s-0.099,0.287-0.099,0.418
			c0,0.338,0.084,0.594,0.253,0.771c0.168,0.176,0.399,0.301,0.692,0.373c0.821-0.029,1.657,0.029,2.509,0.176
			c0.85,0.146,1.649,0.375,2.397,0.682c0.382,0.354,0.708,0.76,0.979,1.221c0.271,0.463,0.406,0.965,0.406,1.508
			c0,0.559-0.117,1.07-0.352,1.541c-0.234,0.469-0.547,0.875-0.935,1.221c-0.39,0.344-0.829,0.611-1.32,0.803
			c-0.492,0.189-1.001,0.285-1.529,0.285c-0.088,0-0.205-0.004-0.352-0.01c-0.147-0.008-0.228-0.012-0.242-0.012
			c-0.029,0-0.092-0.012-0.188-0.033c-0.095-0.021-0.197-0.047-0.308-0.076s-0.217-0.059-0.319-0.088s-0.176-0.053-0.22-0.066
			c-0.264-0.074-0.499-0.217-0.704-0.43s-0.433-0.385-0.682-0.518c-0.088,0.045-0.15,0.137-0.188,0.275
			c-0.036,0.141-0.08,0.287-0.132,0.441c-0.052,0.152-0.14,0.289-0.264,0.406c-0.125,0.117-0.319,0.176-0.583,0.176
			c-0.323,0-0.539-0.129-0.649-0.385c-0.109-0.256-0.165-0.518-0.165-0.781C149.269,42.379,149.272,42.258,149.28,42.162z"/>
	</g>
</g>
<g id="Touchy_Feeley">
</g>
<g id="Wasted_Education">
</g>
<g id="Layer_86">
</g>
<g id="PointOfNoReturn">
</g>
<g id="Pirate">
</g>
<g id="Thief">
</g>
<g id="DepthPerception">
</g>
<g id="Narcissist">
</g>
<g id="MammaBird">
</g>
<g id="Staringcontest">
</g>
<g id="Cartwheel">
</g>
<g id="Censored">
</g>
<g id="Depersonalization">
</g>
<g id="threeman">
</g>
<g id="_x32__truths_and_a_lie">
</g>
<g id="cray_cray_cat_lady">
</g>
<g id="siblings">
</g>
<g id="later">
</g>
<g id="waterfall">
</g>
<g id="cheers">
</g>
<g id="rhyme">
</g>
<g id="categories">
</g>
<g id="tits">
</g>
<g id="dicks">
</g>
<g id="questions">
</g>
<g id="double_hands">
</g>
<g id="rewind">
</g>
<g id="Cryptkeeper">
</g>
<g id="Take_2_and_Redo">
</g>
<g id="Embryo">
</g>
<g id="I_am_Groot">
</g>
<g id="Mini_Me">
</g>
<g id="Ditto_1_">
</g>
<g id="reverse">
</g>
</svg>
