<?xml version="1.0" encoding="utf-8"?>
<!-- Generator: Adobe Illustrator 16.0.0, SVG Export Plug-In . SVG Version: 6.00 Build 0)  -->
<!DOCTYPE svg PUBLIC "-//W3C//DTD SVG 1.1//EN" "http://www.w3.org/Graphics/SVG/1.1/DTD/svg11.dtd">
<svg version="1.1" xmlns="http://www.w3.org/2000/svg" xmlns:xlink="http://www.w3.org/1999/xlink" x="0px" y="0px"
	 width="209.76px" height="62.361px" viewBox="0 0 209.76 62.361" enable-background="new 0 0 209.76 62.361" xml:space="preserve">
<g id="Layer_1">
</g>
<g id="Hat">
</g>
<g id="Compliments">
</g>
<g id="HAT">
	<g>
		<path d="M78.068,14.794c5.063,0.158,7.903,0.238,8.519,0.238c0.655,0,3.504-0.08,8.548-0.238l0.238,0.208v1.489l-0.238,0.209
			c-1.37,0.039-2.428,0.1-3.172,0.178c-0.745,0.08-1.286,0.229-1.624,0.447c-0.338,0.219-0.561,0.729-0.67,1.534
			c-0.109,0.804-0.164,1.921-0.164,3.351l-0.06,6.851v4.17c4.349,0.119,8.469,0.179,12.361,0.179c5.321,0,9.372-0.06,12.152-0.179
			v-4.17l-0.06-5.808c-0.02-2.264-0.08-3.724-0.179-4.379c-0.1-0.655-0.238-1.092-0.417-1.311s-0.536-0.396-1.072-0.536
			c-0.536-0.139-1.867-0.248-3.991-0.327l-0.208-0.209v-1.489l0.208-0.208c5.083,0.158,7.933,0.238,8.548,0.238
			c0.675,0,3.524-0.08,8.548-0.238l0.238,0.208v1.489l-0.238,0.209c-1.39,0.039-2.457,0.1-3.202,0.178
			c-0.744,0.08-1.286,0.229-1.623,0.447c-0.338,0.219-0.556,0.729-0.655,1.534c-0.1,0.804-0.159,1.921-0.179,3.351l-0.06,6.851
			v13.79l0.06,5.809c0.02,2.244,0.079,3.693,0.179,4.349c0.099,0.655,0.243,1.092,0.432,1.311c0.189,0.219,0.546,0.402,1.072,0.551
			c0.526,0.149,1.852,0.264,3.977,0.343l0.238,0.179v1.489l-0.238,0.238c-5.083-0.159-7.933-0.238-8.548-0.238
			c-0.636,0-3.485,0.079-8.548,0.238l-0.208-0.238v-1.489l0.208-0.179c1.866-0.079,3.107-0.179,3.723-0.298
			c0.615-0.119,1.022-0.272,1.221-0.462c0.198-0.188,0.367-0.591,0.506-1.206c0.139-0.615,0.208-1.985,0.208-4.11l0.06-6.285V36.06
			c-5.878-0.119-9.998-0.178-12.361-0.178c-2.423,0-6.474,0.059-12.152,0.178v6.791l0.03,5.809c0.02,2.244,0.079,3.693,0.179,4.349
			c0.099,0.655,0.243,1.092,0.432,1.311c0.189,0.219,0.551,0.402,1.087,0.551c0.536,0.149,1.856,0.264,3.961,0.343l0.238,0.179
			v1.489l-0.238,0.238c-5.063-0.159-7.913-0.238-8.548-0.238c-0.616,0-3.455,0.079-8.519,0.238L77.83,56.88v-1.489l0.238-0.179
			c1.847-0.079,3.078-0.179,3.693-0.298c0.615-0.119,1.028-0.272,1.236-0.462c0.209-0.188,0.377-0.591,0.507-1.206
			c0.129-0.615,0.203-1.985,0.223-4.11l0.03-6.285v-13.79l-0.06-5.808c-0.02-2.264-0.074-3.724-0.164-4.379
			c-0.089-0.655-0.228-1.092-0.417-1.311c-0.188-0.219-0.551-0.396-1.087-0.536c-0.536-0.139-1.857-0.248-3.961-0.327l-0.238-0.209
			v-1.489L78.068,14.794z"/>
		<path d="M128.375,57.119l-0.268-0.238v-1.549l0.268-0.238c1.449-0.02,2.383-0.094,2.8-0.224c0.417-0.129,0.789-0.387,1.117-0.774
			c0.327-0.387,0.987-1.652,1.98-3.797l3.127-6.791l8.102-18.348c1.529-3.594,3.048-7.188,4.557-10.783h1.936l12.718,29.904
			l1.698,3.992c0.496,1.131,1.067,2.362,1.712,3.693c0.646,1.33,1.092,2.114,1.341,2.353c0.248,0.238,0.556,0.422,0.923,0.551
			c0.368,0.13,1.187,0.204,2.458,0.224l0.238,0.238v1.549l-0.238,0.238c-2.105-0.179-4.001-0.268-5.689-0.268
			c-3.296,0.099-6.593,0.188-9.889,0.268l-0.238-0.238v-1.549l0.238-0.238c2.224-0.04,3.614-0.134,4.17-0.283
			c0.556-0.148,0.834-0.491,0.834-1.027c0-0.437-0.139-1.013-0.417-1.728l-3.664-9.085h-17.246l-3.247,7.625
			c-0.576,1.371-0.864,2.373-0.864,3.009c0,0.496,0.268,0.864,0.804,1.103s1.886,0.367,4.051,0.387l0.268,0.238v1.549l-0.238,0.238
			c-2.562-0.159-4.806-0.238-6.731-0.238C132.803,56.88,130.599,56.959,128.375,57.119z M141.958,40.41h15.071l-7.476-17.961
			L141.958,40.41z"/>
		<path d="M205.936,14.794l0.268,0.268c-0.179,1.787-0.268,4.904-0.268,9.353l-0.238,0.238h-1.4l-0.238-0.269l-0.328-2.74
			c-0.159-1.469-0.283-2.367-0.373-2.695c-0.089-0.327-0.233-0.565-0.432-0.715c-0.199-0.148-0.844-0.272-1.936-0.372
			c-1.092-0.099-2.313-0.149-3.664-0.149h-5.629c-0.159,4.488-0.238,7.079-0.238,7.774v17.364l0.06,5.809
			c0.02,2.244,0.075,3.698,0.164,4.363c0.09,0.666,0.229,1.103,0.417,1.311c0.189,0.209,0.551,0.388,1.087,0.536
			c0.536,0.149,1.866,0.264,3.991,0.343l0.208,0.179v1.489l-0.208,0.238c-5.083-0.159-7.923-0.238-8.519-0.238
			c-0.636,0-3.465,0.079-8.489,0.238l-0.238-0.238v-1.489l0.238-0.179c1.866-0.079,3.103-0.179,3.708-0.298
			c0.606-0.119,1.013-0.272,1.222-0.462c0.208-0.188,0.382-0.591,0.521-1.206c0.139-0.615,0.208-1.985,0.208-4.11l0.06-6.285V25.487
			c0-0.317-0.08-2.909-0.238-7.774h-4.438c-1.827,0-3.406,0.041-4.736,0.119c-1.331,0.08-2.1,0.283-2.309,0.611
			c-0.208,0.327-0.402,1.395-0.581,3.201l-0.298,2.74l-0.268,0.269h-1.37l-0.238-0.238c-0.04-4.785-0.129-7.903-0.268-9.353
			l0.268-0.268c3.455,0.158,9.204,0.238,17.246,0.238C196.861,15.033,202.62,14.953,205.936,14.794z"/>
	</g>
</g>
<g id="speech">
</g>
<g id="TREX_ARMS">
</g>
<g id="Layer_7">
</g>
<g id="TIMEOUT">
</g>
<g id="Layer_9">
</g>
<g id="ARM_WRESTLE">
</g>
<g id="musical_chairs">
</g>
<g id="never_have_i_ever">
</g>
<g id="Trivia">
</g>
<g id="Layer_14">
</g>
<g id="Layer_15">
</g>
<g id="Layer_16">
</g>
<g id="Layer_17">
</g>
<g id="Heads_up">
</g>
<g id="Archenemy">
</g>
<g id="battle_of_the_sexes">
</g>
<g id="one_must_drink">
</g>
<g id="rainbow_connection">
</g>
<g id="social_drinking">
</g>
<g id="Spin_the_bottle">
</g>
<g id="accents">
</g>
<g id="Slap">
</g>
<g id="give_3">
</g>
<g id="Layer_36">
</g>
<g id="Layer_37">
</g>
<g id="Layer_38">
</g>
<g id="Layer_39">
</g>
<g id="Layer_40">
</g>
<g id="Layer_41">
</g>
<g id="Layer_42">
</g>
<g id="Layer_43">
</g>
<g id="Layer_44">
</g>
<g id="Layer_45">
</g>
<g id="Layer_46">
</g>
<g id="Layer_47">
</g>
<g id="Layer_48">
</g>
<g id="give_2">
</g>
<g id="rewind">
</g>
<g id="Layer_22">
</g>
<g id="Layer_19">
</g>
<g id="Layer_20">
</g>
<g id="Layer_21">
</g>
<g id="Layer_23">
</g>
<g id="Layer_24">
</g>
</svg>
