<?xml version="1.0" encoding="utf-8"?>
<!-- Generator: Adobe Illustrator 16.0.0, SVG Export Plug-In . SVG Version: 6.00 Build 0)  -->
<!DOCTYPE svg PUBLIC "-//W3C//DTD SVG 1.1//EN" "http://www.w3.org/Graphics/SVG/1.1/DTD/svg11.dtd">
<svg version="1.1" xmlns="http://www.w3.org/2000/svg" xmlns:xlink="http://www.w3.org/1999/xlink" x="0px" y="0px"
	 width="209.759px" height="62.361px" viewBox="0 0 209.759 62.361" enable-background="new 0 0 209.759 62.361"
	 xml:space="preserve">
<g id="Layer_1">
</g>
<g id="Blindman">
</g>
<g id="Compliments">
</g>
<g id="HAT">
</g>
<g id="speech">
</g>
<g id="TREX_ARMS">
</g>
<g id="slim_shady">
</g>
<g id="TIMEOUT">
</g>
<g id="Truth_or_Dare">
</g>
<g id="ARM_WRESTLE">
</g>
<g id="musical_chairs">
</g>
<g id="never_have_i_ever">
</g>
<g id="Trivia">
</g>
<g id="Drink_Pulling">
</g>
<g id="Sharing_is_Caring">
</g>
<g id="Not_It">
</g>
<g id="Cocktail_of_Doom">
</g>
<g id="Heads_up">
</g>
<g id="Archenemy">
</g>
<g id="battle_of_the_sexes">
</g>
<g id="one_must_drink">
</g>
<g id="rainbow_connection">
</g>
<g id="social_drinking">
</g>
<g id="Spin_the_bottle">
</g>
<g id="accents">
</g>
<g id="Slap">
</g>
<g id="down_the_hatch">
</g>
<g id="rubiks_cube">
</g>
<g id="bar_tender">
</g>
<g id="codenames">
</g>
<g id="hand_switch">
</g>
<g id="make_a_rule">
</g>
<g id="no_guts_no_glory">
</g>
<g id="pass">
</g>
<g id="santa">
</g>
<g id="snake_eyes">
</g>
<g id="lightning_round">
</g>
<g id="Bro">
</g>
<g id="LeastDrunk">
</g>
<g id="Know_It_All">
	<g>
		<g>
			<path d="M116.943,22.371c0.064-0.122,0.18-0.234,0.342-0.328c0.16-0.094,0.359-0.173,0.587-0.238
				c0.227-0.065,0.461-0.122,0.706-0.171c0.056-0.041,0.084-0.061,0.14-0.102c-1.109-2.497-1.654-3.75-2.654-6.281
				c0.068-0.159,0.076-0.303,0.026-0.432c-0.054-0.139-0.108-0.279-0.162-0.42c-0.125-0.326-0.237-0.604-0.334-0.835
				s-0.238-0.693-0.433-0.862c-0.111-0.097-0.444-0.077-0.716,0.002c-0.27,0.079-0.542,0.156-0.815,0.232s-0.523,0.105-0.751,0.092
				c-0.229-0.013-0.401-0.162-0.512-0.456c-0.131-0.349-0.026-0.664,0.313-0.943c0.338-0.277,0.778-0.515,1.32-0.698
				c0.46-0.156,0.923-0.266,1.381-0.328s0.924-0.17,1.407-0.319c0.343-0.106,0.666-0.222,0.971-0.346
				c0.303-0.124,0.628-0.24,0.972-0.341c0.464-0.136,0.913-0.178,1.346-0.126c0.431,0.053,0.692,0.237,0.782,0.542
				c0.049,0.166,0.045,0.313-0.013,0.445c-0.057,0.131-0.189,0.316-0.372,0.436c-0.047,0.03-0.158,0.07-0.303,0.129
				s-0.308,0.126-0.479,0.199c-0.172,0.074-0.335,0.144-0.489,0.206c-0.153,0.063-0.26,0.1-0.32,0.116
				c-0.021,0.006-0.068,0.025-0.145,0.06c-0.077,0.034-0.157,0.067-0.245,0.099s-0.172,0.062-0.25,0.09s-0.134,0.041-0.146,0.049
				c-0.014,0.01-0.037,0.04-0.063,0.061s-0.037,0.038-0.034,0.05c0.041,0.151,0.063,0.336,0.094,0.52
				c0.03,0.183,0.036,0.365,0.012,0.544c0.29,0.827,0.438,1.241,0.742,2.063c0.155,0.143,0.232,0.21,0.388,0.354
				c0.188-0.045,0.284-0.067,0.472-0.112c0.156-0.154,0.278-0.28,0.37-0.382s0.186-0.21,0.285-0.319
				c0.099-0.109,0.18-0.204,0.237-0.282c0.154-0.21,0.346-0.438,0.552-0.68c0.206-0.243,0.324-0.486,0.355-0.722
				c0.663-0.724,0.999-1.089,1.683-1.827c0.08-0.088,0.143-0.207,0.186-0.355c0.043-0.146,0.054-0.268,0.027-0.36
				c-0.011-0.038-0.084-0.078-0.212-0.115c-0.13-0.038-0.276-0.085-0.443-0.142s-0.328-0.145-0.479-0.258
				c-0.151-0.113-0.255-0.268-0.31-0.461c-0.051-0.181-0.033-0.342,0.059-0.483c0.09-0.141,0.221-0.267,0.389-0.372
				c0.167-0.105,0.367-0.199,0.597-0.271s0.46-0.134,0.686-0.189c0.346-0.085,0.692-0.153,1.038-0.199s0.691-0.108,1.041-0.188
				c0.347-0.078,0.668-0.167,0.956-0.266s0.61-0.185,0.96-0.258c0.575-0.12,1.029-0.13,1.359-0.035
				c0.33,0.094,0.542,0.343,0.63,0.748c0.058,0.265,0.016,0.489-0.125,0.665c-0.142,0.179-0.335,0.319-0.585,0.431
				c-0.248,0.11-0.543,0.205-0.873,0.283c-0.332,0.078-0.729,0.127-0.945,0.234c-0.335,0.167-0.658,0.618-0.856,0.953
				s-0.44,0.673-0.728,1.01c-0.129,0.15-0.321,0.351-0.578,0.598c-0.256,0.246-0.5,0.502-0.738,0.764
				c-0.237,0.262-0.436,0.518-0.59,0.76c-0.154,0.243-0.209,0.433-0.164,0.572c0.008,0.024,0.054,0.099,0.097,0.202
				c0.01,0.023,0.076,0.066,0.209,0.12c0.131,0.055,0.214,0.095,0.24,0.114c0.259,0.19,0.572,0.445,0.913,0.776
				c0.341,0.334,0.696,0.608,1.041,0.83c0.687,0.441,1.342,0.943,1.961,1.458s1.227,1.04,1.822,1.573
				c0.264,0.116,0.395,0.175,0.657,0.293c0.187-0.011,0.428-0.031,0.716-0.053c0.287-0.021,0.572-0.02,0.853,0.007
				s0.532,0.086,0.752,0.175s0.351,0.234,0.399,0.43c0.116,0.469,0.025,0.794-0.27,0.972c-0.294,0.178-0.728,0.297-1.302,0.363
				c-0.306,0.035-0.595,0.056-0.873,0.063c-0.276,0.008-0.562,0.026-0.85,0.063c-0.289,0.036-0.563,0.087-0.825,0.146
				c-0.264,0.06-0.549,0.11-0.856,0.151c-0.271,0.036-0.549,0.057-0.83,0.063c-0.28,0.007-0.547-0.015-0.794-0.063
				c-0.245-0.049-0.462-0.127-0.646-0.242s-0.315-0.281-0.394-0.501c-0.079-0.222-0.037-0.387,0.13-0.49
				c0.168-0.104,0.364-0.188,0.588-0.248s0.425-0.128,0.604-0.2s0.245-0.184,0.196-0.335c-0.054-0.163-0.163-0.319-0.331-0.471
				s-0.357-0.286-0.418-0.379c-0.012-0.018-0.031-0.052-0.069-0.078c-0.037-0.026-0.07-0.045-0.091-0.055
				c-0.119-0.06-0.304-0.194-0.539-0.365c-0.236-0.171-0.497-0.366-0.783-0.586s-0.591-0.444-0.913-0.674
				c-0.324-0.229-0.628-0.441-0.908-0.629c-0.282-0.188-0.528-0.342-0.737-0.464c-0.21-0.122-0.355-0.187-0.441-0.194
				c-0.043-0.004-0.154,0.082-0.322,0.249c-0.169,0.168-0.351,0.36-0.54,0.578c-0.191,0.218-0.36,0.428-0.513,0.63
				s-0.255,0.346-0.278,0.427c-0.054,0.188-0.035,0.416,0.03,0.633c0.066,0.219,0.143,0.425,0.224,0.627
				c0.074,0.185,0.109,0.279,0.184,0.464c0.062,0.103,0.134,0.234,0.219,0.394c0.086,0.162,0.177,0.319,0.266,0.466
				c0.09,0.147,0.201,0.332,0.328,0.549c0.119,0.054,0.178,0.082,0.296,0.137c0.783-0.142,1.176-0.211,1.956-0.344
				c0.278-0.047,0.53-0.001,0.747,0.138s0.349,0.28,0.402,0.427c0.116,0.317,0.014,0.59-0.309,0.813s-0.696,0.366-1.116,0.434
				c-0.257,0.041-0.513,0.07-0.77,0.088s-0.517,0.046-0.774,0.09c-0.535,0.09-1.066,0.206-1.592,0.342
				c-0.527,0.137-1.076,0.256-1.65,0.361c-0.409,0.075-0.757,0.045-1.035-0.09s-0.47-0.311-0.576-0.532
				C116.889,22.646,116.878,22.496,116.943,22.371z"/>
			<path d="M136.68,18.904c0.341-0.146,0.788-0.256,1.331-0.329c0.038-0.035,0.059-0.053,0.097-0.088
				c0.004-0.191-0.003-0.412-0.019-0.665s-0.013-0.483,0.008-0.694c-0.323-1.885-0.486-2.842-0.813-4.787
				c-0.016-0.096-0.155-0.156-0.408-0.18c-0.252-0.022-0.529-0.063-0.829-0.114c-0.302-0.052-0.591-0.14-0.869-0.271
				s-0.445-0.362-0.509-0.697c-0.069-0.364,0.066-0.639,0.412-0.819c0.345-0.181,0.742-0.302,1.184-0.354
				c0.061-0.007,0.15-0.021,0.271-0.034c0.141-0.017,0.212-0.001,0.215,0.002c0.158,0.132,1.068,0.009,1.433,0.06
				s0.657,0.144,0.876,0.273c0.22,0.131,0.388,0.316,0.5,0.554c0.112,0.235,0.168,0.722,0.305,0.904
				c0.009,0.012,0.041,0.017,0.06,0.015c0.023-0.002,0.033-0.002,0.057-0.004c0.117-0.011,0.227-0.064,0.321-0.16
				c0.097-0.096,0.193-0.204,0.295-0.329c0.104-0.125,0.207-0.249,0.31-0.374c0.104-0.127,0.214-0.223,0.323-0.292
				c0.514-0.325,1.071-0.668,1.669-0.998s1.263-0.518,1.982-0.558c0.438-0.024,0.892,0.031,1.349,0.165
				c0.456,0.134,0.865,0.32,1.223,0.557c0.358,0.237,0.653,0.516,0.881,0.831s0.346,0.642,0.357,0.977
				c0.076,2.149,0.116,3.203,0.19,5.278c-0.067,0.156-0.105,0.296-0.109,0.421c-0.004,0.128-0.003,0.265,0.003,0.419
				c0.002,0.041,0.014,0.14,0.037,0.293c0.045,0.031,0.068,0.048,0.112,0.08c0.486,0.061,0.925,0.183,1.31,0.357
				c0.386,0.176,0.58,0.489,0.585,0.93c0.004,0.359-0.126,0.595-0.394,0.713c-0.27,0.118-0.613,0.184-1.03,0.189
				c-0.157,0.002-0.236,0.003-0.394,0.006c-0.139,0.002-0.381,0.004-0.73,0.005s-0.721,0.004-1.113,0.009
				c-0.394,0.005-0.764,0.007-1.114,0.006s-0.611,0.016-0.735,0.007c-0.515-0.035-0.877-0.365-0.918-0.801
				c-0.049-0.521,0.112-0.863,0.483-1.025s0.842-0.271,1.415-0.321c0.04-0.034,0.063-0.052,0.103-0.086
				c0.075-0.328,0.111-0.492,0.188-0.822c-0.082-1.271-0.125-1.913-0.209-3.211c0.016-0.042,0.048-0.131,0.086-0.26
				c0.039-0.131,0.057-0.216,0.054-0.26c-0.001-0.017-0.002-0.025-0.003-0.042c-0.001-0.018-0.001-0.025-0.002-0.043
				c-0.002-0.028-0.021-0.107-0.059-0.244c-0.036-0.134-0.08-0.223-0.089-0.247c-0.01-0.029-0.01-0.119-0.026-0.233
				s-0.035-0.235-0.053-0.355c-0.018-0.121-0.035-0.24-0.052-0.354s-0.019-0.211-0.03-0.238c-0.074-0.174-0.42-0.323-0.694-0.347
				c-0.273-0.023-0.561-0.027-0.854-0.011c-0.486,0.027-0.932,0.144-1.331,0.343c-0.398,0.199-0.761,0.444-1.078,0.726
				s-0.596,0.586-0.835,0.912s-0.437,0.696-0.617,0.916c-0.013,0.015-0.051,0.058-0.098,0.124c-0.048,0.068-0.079,0.118-0.095,0.146
				c-0.042,0.074-0.157,0.247-0.328,0.516c0.133,0.952,0.2,1.424,0.331,2.361c-0.073,0.144-0.104,0.264-0.1,0.36
				s0.017,0.22,0.038,0.368c0.018,0.122,0.024,0.185,0.042,0.307c0.126,0.115,0.313,0.172,0.558,0.175
				c0.243,0.003,0.499,0.024,0.767,0.063c0.267,0.038,0.499,0.117,0.702,0.241c0.204,0.124,0.323,0.367,0.363,0.722
				c0.032,0.285-0.079,0.506-0.333,0.663s-0.554,0.262-0.9,0.311c-0.431,0.027-0.646,0.04-1.077,0.07s-0.652,0.042-1.088,0.071
				c-0.036,0.003-0.126-0.004-0.271-0.021s-0.239-0.024-0.272-0.023c-0.293,0.008-0.612,0.002-0.915,0.018s-0.582,0.01-0.831-0.023
				c-0.25-0.033-0.461-0.111-0.63-0.23c-0.171-0.119-0.284-0.325-0.344-0.616C136.214,19.352,136.338,19.051,136.68,18.904z"/>
			<path d="M155.632,12.663c0.294-0.755,0.738-1.421,1.344-1.994c0.604-0.573,1.375-1.019,2.313-1.322
				c0.935-0.303,2.041-0.406,3.303-0.294c0.959,0.085,1.768,0.309,2.431,0.646s1.353,0.754,1.934,1.262
				c0.017,0.015,0.034,0.034,0.052,0.058c0.016,0.022,0.045,0.035,0.054,0.041c0.173,0.119,0.367,0.699,0.556,1.041
				c0.188,0.341,0.354,0.688,0.496,1.035s0.242,0.699,0.302,1.048c0.059,0.352,0.052,0.701-0.02,1.056
				c-0.008,0.04-0.026,0.119-0.059,0.233s-0.051,0.189-0.06,0.209c-0.03,0.069-0.138,0.219-0.246,0.424
				c-0.108,0.202-0.227,0.414-0.357,0.643c-0.131,0.227-0.258,0.446-0.374,0.654c-0.117,0.21-0.188,0.363-0.226,0.434
				c-0.176,0.337-0.543,0.707-0.974,1.079c-0.429,0.371-0.907,0.703-1.43,0.997c-0.521,0.292-1.068,0.528-1.64,0.708
				s-1.103,0.25-1.626,0.219c-0.261-0.016-0.46-0.042-0.596-0.076c-0.138-0.034-0.251-0.074-0.343-0.119s-0.187-0.097-0.286-0.149
				c-0.099-0.052-0.248-0.11-0.431-0.154c-0.083-0.02-0.252-0.047-0.493-0.086c-0.242-0.039-0.419-0.07-0.517-0.104
				c-0.084-0.028-0.204-0.083-0.346-0.149c-0.143-0.067-0.289-0.137-0.432-0.203c-0.145-0.067-0.279-0.127-0.407-0.18
				c-0.127-0.053-0.202-0.092-0.218-0.103c-0.287-0.202-0.646-0.479-0.917-0.86c-0.271-0.382-0.5-0.789-0.695-1.229
				c-0.194-0.437-0.344-0.874-0.444-1.314c-0.101-0.438-0.147-0.814-0.135-1.126C155.179,14.193,155.338,13.418,155.632,12.663z
				 M157.553,15.557c0.014,0.197,0.042,0.396,0.083,0.595s0.096,0.387,0.164,0.564c0.069,0.178,0.154,0.31,0.257,0.398
				c0.48,0.415,0.719,0.621,1.188,1.035c0.193,0.053,0.351,0.087,0.465,0.107c0.112,0.021,0.233,0.042,0.359,0.063
				c0.122,0.021,0.264,0.016,0.319,0.039c0.014,0.006,0.141,0.029,0.374,0.044c0.251,0.016,0.438,0.027,0.563,0.035
				c0.359,0.023,0.671,0.042,0.934,0.054c0.261,0.012,0.607,0.01,0.894-0.09c0.777-0.271,1.464-0.889,1.815-1.42
				s0.593-1.157,0.717-1.889c0.072-0.427,0.079-0.834,0.016-1.214s-0.171-0.786-0.321-1.211c-0.068-0.191-0.205-0.361-0.411-0.503
				c-0.205-0.141-0.439-0.268-0.689-0.385c-0.248-0.116-0.512-0.229-0.783-0.326s-0.505-0.194-0.689-0.298
				c-0.739-0.065-1.107-0.094-1.847-0.148c-0.019-0.001-0.152,0.041-0.396,0.133c-0.246,0.092-0.431,0.162-0.552,0.214
				c-0.488,0.207-0.888,0.459-1.191,0.731s-0.546,0.566-0.733,0.882c-0.186,0.313-0.315,0.648-0.388,1
				c-0.072,0.354-0.123,0.729-0.151,1.123C157.539,15.203,157.539,15.359,157.553,15.557z"/>
			<path d="M174.047,19.395c0.004-0.607-0.008-1.235-0.048-1.871c-0.046-0.72-0.113-1.494-0.188-2.311s-0.088-1.887-0.353-2.38
				c-0.016-0.028-0.084-0.086-0.157-0.161c-0.075-0.075-0.153-0.153-0.235-0.237c-0.083-0.084-0.161-0.162-0.236-0.238
				c-0.074-0.073-0.118-0.135-0.133-0.157c-0.053-0.079-0.107-0.175-0.076-0.269s0.057-0.18,0.075-0.262
				c0.054-0.233,0.159-0.405,0.319-0.515s0.357-0.177,0.593-0.2c0.233-0.023,0.486-0.015,0.759,0.026s0.55,0.085,0.83,0.137
				c0.261,0.048,0.548,0.112,0.865,0.187c0.315,0.074,0.609,0.173,0.881,0.297s0.486,0.271,0.639,0.438
				c0.153,0.169,0.193,0.374,0.127,0.607c-0.06,0.21-0.177,0.347-0.353,0.416s-0.359,0.113-0.552,0.132
				c-0.191,0.019-0.365,0.036-0.525,0.057s-0.257,0.084-0.285,0.188c-0.013,0.047-0.019,0.071-0.031,0.118
				c0.018,0.156,0.043,0.431,0.066,0.817s0.051,0.795,0.076,1.229s0.046,0.837,0.064,1.21s0.024,0.645,0.049,0.781
				c0.012,0.063,0.047,0.234,0.084,0.494c0.046,0.007,0.069,0.014,0.115,0.021c0.129-0.107,0.19-0.164,0.32-0.271
				c0.873-1.297,1.318-1.942,2.203-3.227c0.111-0.359,0.166-0.538,0.276-0.898c0.016-0.05-0.02-0.104-0.108-0.156
				c-0.087-0.052-0.187-0.113-0.291-0.183c-0.104-0.068-0.196-0.159-0.268-0.27c-0.073-0.11-0.08-0.261-0.023-0.455
				c0.038-0.131,0.087-0.243,0.145-0.333c0.058-0.091,0.225-0.134,0.498-0.131c0.063,0,0.166,0.001,0.302,0.003
				c0.135,0.002,0.282,0.007,0.44,0.016c0.156,0.008,0.305,0.018,0.439,0.027c0.133,0.01,0.232,0.021,0.292,0.035
				c0.02,0.005,0.105,0.022,0.257,0.051c0.152,0.028,0.268,0.049,0.347,0.067c0.26,0.061,0.585,0.146,0.979,0.255
				c0.393,0.108,0.769,0.243,1.126,0.4c0.356,0.157,0.65,0.332,0.874,0.521s0.297,0.4,0.216,0.629
				c-0.039,0.11-0.114,0.188-0.229,0.232c-0.112,0.045-0.235,0.078-0.372,0.104c-0.138,0.025-0.289,0.048-0.443,0.063
				c-0.153,0.016-0.366,0.051-0.424,0.116c-0.011,0.012-0.031,0.08-0.074,0.172c-0.042,0.09-0.065,0.146-0.074,0.169
				c-0.018,0.05-0.04,0.12-0.063,0.214s-0.036,0.148-0.04,0.16c-0.009,0.025-0.005,0.079,0.008,0.161
				c0.013,0.081,0.021,0.171,0.027,0.273c0.005,0.1,0.014,0.196,0.023,0.283s0.009,0.137,0.007,0.147
				c-0.055,0.252-0.068,0.581-0.139,0.852c-0.07,0.272-0.103,0.564-0.119,0.853c-0.008,0.138-0.024,0.327-0.04,0.556
				c-0.017,0.23-0.024,0.426-0.025,0.585c-0.001,0.161-0.012,0.252-0.021,0.275c0.034,0.038,0.056,0.058,0.09,0.096
				c0.122-0.001,0.225-0.03,0.311-0.09c0.084-0.061,0.156-0.136,0.213-0.227s0.106-0.186,0.144-0.28s0.11-0.17,0.146-0.219
				c0.011-0.016,0.057-0.074,0.141-0.154c0.082-0.079,0.167-0.163,0.255-0.253c0.087-0.09,0.173-0.173,0.257-0.251
				c0.084-0.08,0.131-0.138,0.142-0.154c0.064-0.099,0.23-0.246,0.385-0.423c0.154-0.179,0.312-0.354,0.466-0.528
				c0.154-0.176,0.281-0.331,0.385-0.46c0.104-0.13,0.158-0.201,0.163-0.213c0.141-0.36,0.21-0.539,0.348-0.9
				c0.027-0.071-0.015-0.145-0.125-0.218c-0.111-0.074-0.245-0.156-0.396-0.24s-0.282-0.173-0.387-0.266
				c-0.106-0.094-0.139-0.206-0.091-0.339c0.069-0.192,0.203-0.328,0.404-0.405c0.203-0.079,0.437-0.118,0.697-0.119
				s0.537,0.029,0.82,0.089s0.543,0.125,0.78,0.193c0.258,0.074,0.543,0.167,0.853,0.278c0.308,0.11,0.593,0.238,0.846,0.378
				s0.453,0.295,0.594,0.464c0.142,0.169,0.171,0.35,0.092,0.539c-0.036,0.087-0.055,0.132-0.092,0.219
				c-0.049,0.01-0.127,0.028-0.238,0.053c-0.109,0.025-0.225,0.051-0.348,0.079c-0.12,0.026-0.234,0.053-0.344,0.079
				s-0.189,0.063-0.209,0.066c-0.013,0.002-0.047,0.004-0.08,0.033c-0.033,0.027-0.067,0.05-0.094,0.069
				c-0.032,0.024-0.082,0.063-0.144,0.107c-0.063,0.046-0.128,0.103-0.193,0.152c-0.066,0.052-0.122,0.102-0.175,0.15
				c-0.053,0.05-0.084,0.082-0.089,0.091c-0.056,0.088-0.217,0.233-0.404,0.424c-0.189,0.191-0.405,0.407-0.648,0.651
				c-0.242,0.242-0.489,0.501-0.741,0.769c-0.253,0.27-0.494,0.531-0.728,0.781c-0.233,0.252-0.444,0.478-0.633,0.676
				c-0.188,0.197-0.345,0.349-0.409,0.443c-0.214,0.312-0.467,0.733-0.801,1.084c-0.332,0.351-0.704,0.779-1.063,1.009
				c-0.157,0.1-0.4,0.157-0.606,0.204c-0.207,0.046-0.429,0.048-0.668,0.008c-0.166-0.027-0.35-0.072-0.547-0.137
				s-0.338-0.155-0.415-0.248c-0.099-0.118-0.167-0.35-0.171-0.695c-0.005-0.344,0.02-0.743,0.07-1.193
				c0.051-0.448,0.117-0.916,0.197-1.406c0.08-0.492,0.145-0.955,0.195-1.384s0.072-0.795,0.063-1.094
				c-0.01-0.301-0.081-0.509-0.148-0.519c-0.122-0.018-0.319,0.101-0.429,0.211c-0.11,0.112-0.198,0.241-0.266,0.379
				c-0.068,0.139-0.131,0.28-0.189,0.419c-0.059,0.142-0.125,0.259-0.195,0.351c-0.488,0.641-0.923,1.319-1.308,2.009
				s-0.832,1.389-1.345,2.012c-0.15,0.184-0.37,0.317-0.624,0.398c-0.256,0.082-0.529,0.102-0.817,0.063
				c-0.272-0.036-0.49-0.102-0.656-0.202s-0.353-0.257-0.422-0.414C174.052,20.76,174.042,20,174.047,19.395z"/>
			<path d="M124.771,38.709c0.25-0.177,0.57-0.277,0.958-0.302c0.208-0.013,0.421-0.012,0.631,0.005
				c0.209,0.017,0.418,0.017,0.625,0.005c0.016-0.001,0.081-0.005,0.197-0.018c0.117-0.013,0.23-0.034,0.342-0.058
				s0.216-0.053,0.309-0.087s0.134-0.068,0.122-0.103c-1.039-3.055-1.63-4.575-2.835-7.628c0.037-0.123,0.049-0.229,0.031-0.317
				s-0.049-0.191-0.094-0.306c-0.01-0.024-0.027-0.062-0.056-0.111c-0.03-0.052-0.048-0.081-0.052-0.093
				c-0.057-0.037-0.086-0.057-0.143-0.094c-1.073,0.119-1.612,0.184-2.699,0.315c-0.189,0.022-0.391,0.015-0.607-0.023
				s-0.427-0.099-0.629-0.179c-0.201-0.08-0.384-0.174-0.548-0.283c-0.163-0.107-0.274-0.224-0.334-0.346
				c-0.063-0.132-0.07-0.26-0.019-0.384c0.053-0.125,0.143-0.238,0.273-0.34s0.294-0.189,0.485-0.257
				c0.193-0.068,0.388-0.115,0.581-0.142c0.141-0.019,0.261-0.035,0.359-0.042c0.098-0.007,0.25,0.006,0.45,0.04
				c1.681-0.222,2.513-0.324,4.162-0.516c0.312,0.073,0.705,0.081,1.179,0.017s0.944-0.109,1.41-0.134
				c0.464-0.024,0.879,0.008,1.244,0.097c0.362,0.089,0.6,0.323,0.709,0.7c0.103,0.351,0.023,0.59-0.235,0.718
				s-0.601,0.212-1.03,0.252c-0.314,0.029-0.617,0.044-0.909,0.041c-0.291-0.003-0.596,0.012-0.912,0.044
				c-0.2,0.021-0.3,0.031-0.501,0.052c-0.03,0.032-0.047,0.048-0.077,0.08c0.42,1.185,0.63,1.776,1.035,2.956
				c0.092,0.123,0.154,0.224,0.188,0.299s0.07,0.175,0.109,0.291c0.035,0.104,0.063,0.197,0.083,0.279s0.026,0.184,0.019,0.304
				c0.62,1.838,0.92,2.757,1.477,4.593c0.133,0.085,0.199,0.129,0.331,0.214c0.848-0.043,1.269-0.065,2.109-0.104
				c0.131-0.006,0.274,0.014,0.429,0.055s0.303,0.097,0.437,0.169c0.135,0.072,0.253,0.159,0.357,0.263s0.168,0.213,0.193,0.319
				c0.081,0.345-0.016,0.614-0.288,0.81c-0.273,0.195-0.592,0.3-0.957,0.313c-1.156,0.043-1.736,0.064-2.905,0.115
				c-0.202-0.051-0.435-0.062-0.696-0.044s-0.474,0.029-0.631,0.036c-0.33,0.016-0.636,0.039-0.914,0.076
				c-0.279,0.037-0.586,0.063-0.918,0.079c-0.202,0.01-0.404,0.006-0.608-0.013c-0.205-0.019-0.402-0.061-0.59-0.126
				c-0.188-0.065-0.356-0.157-0.5-0.276c-0.143-0.117-0.251-0.27-0.327-0.461C124.464,39.137,124.521,38.886,124.771,38.709z"/>
			<path d="M138.809,34.686c-0.11-0.464-0.112-0.905-0.003-1.317c-0.144-0.819-0.218-1.23-0.367-2.057
				c-1.17,0.055-1.758,0.085-2.938,0.154c-0.22,0.013-0.413-0.063-0.586-0.227c-0.174-0.163-0.278-0.317-0.313-0.463
				c-0.052-0.219-0.002-0.408,0.146-0.566c0.147-0.159,0.303-0.322,0.462-0.462c0.155-0.136,0.379-0.219,0.639-0.249
				c0.261-0.03,0.526-0.052,0.798-0.068c0.287-0.018,0.55-0.056,0.788-0.113c0.236-0.058,0.428-0.192,0.563-0.404
				c0.125-0.196,0.158-0.457,0.1-0.775c-0.059-0.316-0.104-0.631-0.137-0.943c-0.033-0.314,0.002-0.586,0.109-0.821
				c0.106-0.233,0.406-0.367,0.885-0.396s0.786,0.068,0.929,0.288c0.144,0.222,0.235,0.487,0.283,0.796
				c0.046,0.296,0.073,0.584,0.076,0.868s0.028,0.581,0.075,0.887c0.012,0.076,0.032,0.189,0.056,0.342s0.042,0.236,0.06,0.248
				c0.075,0.051,0.111,0.075,0.186,0.126c0.018,0.012,0.131,0.013,0.335,0.004c0.219-0.009,0.392-0.015,0.517-0.02
				c0.33-0.013,0.646-0.043,0.945-0.088c0.298-0.045,0.606-0.071,0.918-0.084c0.357-0.014,0.666,0.09,0.92,0.311
				c0.255,0.222,0.394,0.469,0.419,0.735c0.024,0.255-0.055,0.475-0.226,0.662c-0.172,0.189-0.406,0.29-0.709,0.301
				c-0.379,0.013-0.735-0.015-1.072-0.084s-0.729-0.094-1.175-0.078c-0.093,0.003-0.225,0.012-0.4,0.024
				c-0.177,0.013-0.271,0.025-0.283,0.038c-0.099,0.087-0.149,0.131-0.247,0.217c0.313,2.082,0.464,3.11,0.737,5.15
				c0.013,0.098,0.066,0.204,0.16,0.324c0.095,0.12,0.211,0.238,0.345,0.346c0.135,0.107,0.275,0.197,0.426,0.274
				s0.288,0.113,0.415,0.111c0.337-0.006,0.596-0.087,0.776-0.231c0.182-0.146,0.313-0.327,0.398-0.539
				c0.085-0.211,0.149-0.439,0.189-0.68c0.041-0.242,0.085-0.471,0.137-0.685c0.051-0.212,0.134-0.394,0.249-0.538
				c0.116-0.146,0.301-0.222,0.547-0.228c0.361-0.009,0.621,0.096,0.782,0.317c0.161,0.22,0.25,0.463,0.27,0.724
				c0.031,0.423-0.011,0.853-0.119,1.288s-0.284,0.831-0.527,1.187c-0.241,0.355-0.55,0.649-0.927,0.882s-0.825,0.357-1.345,0.368
				c-0.205,0.004-0.364,0.002-0.475-0.009s-0.212-0.033-0.305-0.063c-0.092-0.028-0.189-0.067-0.284-0.121
				c-0.097-0.054-0.256-0.189-0.39-0.224c-0.01-0.003-0.058-0.013-0.131-0.041c-0.072-0.028-0.146-0.06-0.219-0.088
				c-0.074-0.028-0.146-0.054-0.218-0.076c-0.073-0.023-0.118-0.044-0.133-0.054c-0.567-0.387-1.062-0.79-1.312-1.247
				s-0.424-0.989-0.526-1.6C139.011,35.594,138.918,35.149,138.809,34.686z"/>
			<path d="M128.548,56.664c-0.001-0.025,0-0.075,0.004-0.151c0.004-0.078-0.001-0.138,0.004-0.153
				c0.038-0.112,0.221-0.249,0.313-0.321s0.194-0.127,0.3-0.168c0.106-0.042,0.222-0.08,0.341-0.115
				c0.118-0.035,0.261-0.093,0.426-0.165c0.083-0.035,0.156-0.1,0.217-0.194c0.062-0.095,0.108-0.196,0.145-0.303
				s0.064-0.217,0.088-0.329c0.022-0.112,0.044-0.214,0.063-0.296c0.027-0.117,0.07-0.323,0.124-0.618
				c0.054-0.297,0.109-0.609,0.166-0.94c0.057-0.329,0.106-0.64,0.15-0.936c0.044-0.294,0.073-0.505,0.1-0.614
				c0.06-0.249,0.112-0.514,0.113-0.758c0.001-0.246,0.039-0.501,0.093-0.756c0.116-0.552,0.218-1.125,0.325-1.687
				s0.194-1.121,0.262-1.682c0.015-0.118,0.028-0.264,0.037-0.438s0.037-0.342,0.082-0.501c0.046-0.157,0.119-0.293,0.228-0.405
				s0.271-0.174,0.481-0.179c0.238-0.005,0.442,0.063,0.615,0.199c0.172,0.136,0.319,0.301,0.441,0.491s0.224,0.388,0.306,0.591
				s0.153,0.368,0.212,0.483c0.197,0.393,0.364,0.799,0.503,1.215c0.139,0.414,0.341,0.813,0.603,1.187
				c1.034,2.507,1.47,3.772,2.216,6.322c0.039,0.119,0.111,0.212,0.216,0.284c0.104,0.072,0.22,0.128,0.352,0.17
				s0.268,0.074,0.394,0.099c0.125,0.024,0.254,0.04,0.331,0.072c0.21,0.089,0.347,0.363,0.349,0.662
				c0.002,0.287-0.086,0.507-0.267,0.657c-0.18,0.148-0.411,0.226-0.688,0.226c-0.3,0-0.608-0.008-0.932-0.025
				c-0.324-0.018-0.637-0.04-0.918-0.046c-0.188-0.004-0.374-0.007-0.541-0.019c-0.169-0.012-0.32-0.048-0.451-0.102
				s-0.235-0.138-0.313-0.257s-0.118-0.29-0.12-0.505c-0.001-0.123-0.004-0.184-0.006-0.307c0.082-0.107,0.182-0.187,0.295-0.24
				c0.111-0.053,0.225-0.105,0.338-0.153c0.111-0.047,0.216-0.097,0.305-0.151s0.169-0.143,0.183-0.225
				c0.003-0.019-0.009-0.076-0.022-0.154s-0.033-0.156-0.055-0.24c-0.021-0.084-0.038-0.16-0.053-0.23
				c-0.015-0.072-0.031-0.12-0.041-0.143c-0.015-0.031-0.035-0.104-0.063-0.198c-0.029-0.095-0.068-0.195-0.122-0.302
				s-0.111-0.204-0.17-0.285c-0.06-0.083-0.121-0.125-0.183-0.125c-1.141,0.002-1.711,0.002-2.855,0.006
				c-0.024,0-0.082,0.041-0.174,0.118s-0.143,0.128-0.153,0.151c-0.175,0.42-0.264,0.63-0.445,1.051
				c0.001,0.014-0.003,0.047-0.006,0.105c-0.003,0.061-0.004,0.104-0.003,0.127c0.009,0.202,0.074,0.339,0.19,0.409
				c0.117,0.07,0.245,0.138,0.378,0.196c0.134,0.059,0.26,0.139,0.375,0.24c0.116,0.102,0.179,0.278,0.182,0.528
				c0.003,0.275-0.09,0.478-0.276,0.597s-0.414,0.179-0.678,0.179c-0.168,0-0.335-0.013-0.496-0.037s-0.333-0.037-0.513-0.037
				c-0.24,0-0.472,0.022-0.698,0.064c-0.228,0.042-0.465,0.063-0.705,0.063c-0.276,0-0.491-0.104-0.648-0.313
				C128.638,57.146,128.555,56.913,128.548,56.664z M132.471,52.339c0.051,0.076,0.278,0.125,0.401,0.13s0.27,0.01,0.442,0.009
				c0.244-0.001,0.485-0.021,0.721-0.058c0.234-0.036,0.479-0.067,0.733-0.092c0.027-0.028,0.041-0.045,0.068-0.073
				c-0.001-0.012-0.001-0.044,0-0.098c0.001-0.052,0-0.09-0.002-0.115c-0.009-0.095-0.049-0.257-0.121-0.487
				c-0.073-0.23-0.163-0.484-0.275-0.761c-0.112-0.278-0.237-0.564-0.375-0.857c-0.139-0.295-0.27-0.558-0.393-0.798
				c-0.123-0.238-0.232-0.439-0.32-0.598c-0.089-0.157-0.137-0.236-0.15-0.236c-0.051,0.001-0.084,0.028-0.1,0.088
				s-0.03,0.103-0.037,0.125c-0.027,0.087-0.056,0.232-0.096,0.415c-0.041,0.183-0.085,0.365-0.134,0.548
				c-0.048,0.185-0.09,0.35-0.126,0.497c-0.035,0.146-0.057,0.237-0.063,0.271c-0.06,0.303-0.116,0.62-0.175,0.939
				s-0.07,0.63-0.037,0.936c0.003,0.025,0.008,0.06,0.019,0.107C132.462,52.277,132.464,52.328,132.471,52.339z"/>
			<path d="M141.267,56.464c0.022-0.129,0.065-0.247,0.123-0.355c0.059-0.109,0.132-0.206,0.221-0.286s0.198-0.118,0.33-0.118
				c1.102,0.001,1.65,0.004,2.754,0.002c0.035-0.043,0.055-0.064,0.09-0.107c-0.028-2.155-0.062-3.229-0.157-5.38
				c0.038-0.137,0.06-0.204,0.098-0.341c-0.055-1.201-0.089-1.804-0.162-3.008c-0.005-0.072-0.083-0.146-0.239-0.221
				s-0.268-0.133-0.295-0.133c-0.026,0-0.104,0.032-0.196,0.057s-0.193,0.051-0.305,0.074c-0.112,0.023-0.223,0.046-0.323,0.063
				c-0.1,0.018-0.168,0.028-0.205,0.028c-0.121,0-0.18,0.002-0.301,0.002c-0.215,0.001-0.388-0.021-0.511-0.062
				s-0.276-0.096-0.456-0.148c-0.125-0.037-0.248-0.065-0.353-0.089c-0.103-0.023-0.192-0.058-0.268-0.105
				c-0.074-0.046-0.136-0.107-0.182-0.185s-0.075-0.193-0.091-0.347c-0.035-0.334,0.076-0.563,0.341-0.69
				c0.263-0.127,0.56-0.19,0.881-0.193c0.231-0.002,0.462,0.018,0.689,0.063c0.229,0.046,0.459,0.066,0.69,0.064
				c0.179-0.001,0.355-0.012,0.521-0.037s0.334-0.043,0.514-0.045c0.166-0.002,0.352,0.018,0.546,0.051s0.379,0.087,0.549,0.162
				c0.171,0.075,0.313,0.188,0.429,0.324c0.115,0.136,0.18,0.304,0.189,0.507c0.189,3.824,0.252,5.715,0.289,9.53
				c0.072,0.064,0.111,0.098,0.184,0.162c0.959-0.001,1.439-0.003,2.398-0.004c0.119,0,0.227,0.033,0.316,0.1
				c0.091,0.068,0.166,0.151,0.226,0.249c0.061,0.099,0.106,0.205,0.137,0.322c0.03,0.115,0.044,0.224,0.044,0.321
				c0,0.221-0.055,0.415-0.169,0.588s-0.3,0.259-0.552,0.259c-2.786,0-4.176,0.001-6.961,0.001c-0.204,0-0.401-0.07-0.587-0.211
				c-0.187-0.141-0.279-0.315-0.28-0.522C141.233,56.709,141.243,56.593,141.267,56.464z"/>
			<path d="M151.888,56.463c0.023-0.129,0.067-0.248,0.127-0.357c0.061-0.11,0.136-0.206,0.226-0.286s0.201-0.119,0.333-0.119
				c1.104,0,1.654,0.001,2.758,0.002c0.036-0.043,0.055-0.066,0.091-0.109c0.014-2.161,0.03-3.235,0.08-5.392
				c0.048-0.137,0.071-0.204,0.119-0.341c0.03-1.204,0.047-1.807,0.087-3.014c0.002-0.072-0.07-0.147-0.218-0.225
				s-0.253-0.137-0.279-0.137c-0.027,0-0.106,0.031-0.202,0.055s-0.199,0.049-0.313,0.072c-0.114,0.023-0.224,0.041-0.325,0.059
				c-0.101,0.018-0.169,0.027-0.206,0.027c-0.121,0-0.183,0-0.304,0c-0.214-0.001-0.381-0.022-0.5-0.064
				c-0.118-0.042-0.271-0.103-0.443-0.156c-0.121-0.038-0.241-0.065-0.342-0.09c-0.1-0.024-0.185-0.059-0.254-0.107
				c-0.068-0.047-0.123-0.11-0.161-0.188s-0.055-0.196-0.055-0.352c0.001-0.337,0.14-0.568,0.416-0.694
				c0.274-0.126,0.572-0.185,0.893-0.184c0.23,0.001,0.459,0.023,0.681,0.072s0.448,0.073,0.68,0.074
				c0.178,0.001,0.351-0.013,0.519-0.035s0.344-0.032,0.523-0.031c0.166,0.001,0.346,0.02,0.536,0.057s0.366,0.096,0.528,0.174
				s0.296,0.189,0.397,0.328c0.101,0.138,0.146,0.31,0.136,0.513c-0.193,3.824-0.26,5.714-0.297,9.528
				c0.071,0.064,0.107,0.098,0.179,0.162c0.96,0.001,1.446,0.004,2.403,0.003c0.119,0,0.219,0.032,0.308,0.099
				c0.09,0.068,0.166,0.151,0.224,0.248c0.059,0.098,0.103,0.203,0.132,0.32c0.029,0.115,0.045,0.223,0.044,0.32
				c-0.001,0.221-0.061,0.415-0.175,0.587s-0.295,0.258-0.547,0.258c-2.785,0-4.184,0-6.97,0c-0.204,0-0.396-0.071-0.582-0.212
				c-0.187-0.141-0.281-0.315-0.281-0.523C151.853,56.706,151.863,56.592,151.888,56.463z"/>
		</g>
	</g>
	<g id="Layer_94">
		<line fill="none" x1="54.475" y1="25.159" x2="96.995" y2="-2.688"/>
		<line fill="none" stroke="#231F20" stroke-miterlimit="10" x1="63.172" y1="32.147" x2="98.995" y2="59.496"/>
		<line fill="none" stroke="#231F20" stroke-miterlimit="10" x1="66.22" y1="23.782" x2="93.995" y2="-5.188"/>
		<path fill="none" stroke="#231F20" stroke-miterlimit="10" d="M191.378,14.546c7.316-1.262,14.634-2.524,21.95-3.787"/>
		<path fill="none" stroke="#231F20" stroke-miterlimit="10" d="M71.631,35.211c14.53-2.569,30.53-5.569,45.036-7.771"/>
		<line fill="none" stroke="#231F20" stroke-miterlimit="10" x1="68.346" y1="23.782" x2="110.162" y2="-4.188"/>
		<line fill="none" stroke="#231F20" stroke-miterlimit="10" x1="58.995" y1="10.193" x2="47.749" y2="-6.854"/>
		<line fill="none" stroke="#231F20" stroke-miterlimit="10" x1="60.183" y1="35.881" x2="68.346" y2="64.646"/>
		<line fill="none" stroke="#231F20" stroke-miterlimit="10" x1="47.749" y1="38.175" x2="42.162" y2="62.769"/>
		<line fill="none" stroke="#231F20" stroke-miterlimit="10" x1="34.662" y1="37.313" x2="34.328" y2="64.646"/>
		<line fill="none" stroke="#231F20" stroke-miterlimit="10" x1="27.199" y1="40.41" x2="42.162" y2="66.477"/>
		<line fill="none" stroke="#231F20" stroke-miterlimit="10" x1="29.456" y1="38.712" x2="11.333" y2="65.479"/>
		<line fill="none" stroke="#231F20" stroke-miterlimit="10" x1="19.885" y1="36.083" x2="31.884" y2="66.477"/>
		<line fill="none" stroke="#231F20" stroke-miterlimit="10" x1="15.162" y1="35.881" x2="-2.839" y2="40.814"/>
		<line fill="none" stroke="#231F20" stroke-miterlimit="10" x1="3.828" y1="31.181" x2="-3.339" y2="16.614"/>
		<line fill="none" stroke="#231F20" stroke-miterlimit="10" x1="15.808" y1="19.335" x2="6.161" y2="-4.188"/>
		<line fill="none" stroke="#231F20" stroke-miterlimit="10" x1="22.641" y1="7.012" x2="23.995" y2="-4.188"/>
		<line fill="none" stroke="#231F20" stroke-miterlimit="10" x1="56.523" y1="13.689" x2="80.107" y2="-2.688"/>
		<line fill="none" stroke="#231F20" stroke-miterlimit="10" x1="13.985" y1="17.146" x2="-3.339" y2="7.573"/>
		<line fill="none" stroke="#231F20" stroke-miterlimit="10" x1="21.223" y1="8.74" x2="15.162" y2="-2.688"/>
		<line fill="none" stroke="#231F20" stroke-miterlimit="10" x1="35.045" y1="5.153" x2="35.995" y2="-4.188"/>
		<line fill="none" stroke="#231F20" stroke-miterlimit="10" x1="12.495" y1="38.712" x2="-1.422" y2="66.477"/>
		<line fill="none" stroke="#231F20" stroke-miterlimit="10" x1="16.662" y1="40.814" x2="22.848" y2="68.646"/>
		<line fill="none" stroke="#231F20" stroke-miterlimit="10" x1="10.162" y1="40.814" x2="10.984" y2="66.477"/>
		<line fill="none" stroke="#231F20" stroke-miterlimit="10" x1="44.956" y1="43.875" x2="49.977" y2="67.479"/>
		<line fill="none" stroke="#231F20" stroke-miterlimit="10" x1="51.459" y1="43.875" x2="75.735" y2="64.646"/>
		<line fill="none" stroke="#231F20" stroke-miterlimit="10" x1="62.119" y1="42.706" x2="90.995" y2="62.361"/>
		<line fill="none" stroke="#231F20" stroke-miterlimit="10" x1="69.537" y1="38.018" x2="81.083" y2="-5.188"/>
		<line fill="none" stroke="#231F20" stroke-miterlimit="10" x1="75.735" y1="29.528" x2="100.662" y2="-5.188"/>
		<line fill="none" stroke="#231F20" stroke-miterlimit="10" x1="75.735" y1="28.022" x2="120.662" y2="62.361"/>
		<path fill="none" stroke="#231F20" stroke-miterlimit="10" d="M75.735,29.528c12.059-6.771,24.118-13.54,36.178-20.311"/>
		<path fill="none" stroke="#231F20" stroke-miterlimit="10" d="M73.039,29.75c14.461-0.788,28.922-1.576,43.383-2.364"/>
		<path fill="none" stroke="#231F20" stroke-miterlimit="10" d="M74.177,25.799c13.197-2.299,26.395-4.598,39.592-6.896"/>
		<path fill="none" stroke="#231F20" stroke-miterlimit="10" d="M68.315,31.181c17.846,2.461,34.846,5.461,52.743,9.119"/>
		<path fill="none" stroke="#231F20" stroke-miterlimit="10" d="M74.177,31.181c12.85-4.749,26.041-8.461,39.121-12.505"/>
		<path fill="none" stroke="#231F20" stroke-miterlimit="10" d="M162.21,56.739c0.984,0.302,1.969,0.604,2.952,0.907"/>
		<path fill="none" stroke="#231F20" stroke-miterlimit="10" d="M74.441,29.75c16.72,4.892,33.72,10.892,51.528,15.845"/>
		<line fill="none" stroke="#231F20" stroke-miterlimit="10" x1="74.441" y1="29.75" x2="113.162" y2="61.646"/>
		<line fill="none" stroke="#231F20" stroke-miterlimit="10" x1="63.172" y1="32.147" x2="93.995" y2="61.646"/>
		<line fill="none" stroke="#231F20" stroke-miterlimit="10" x1="64.265" y1="29.528" x2="109.162" y2="45.192"/>
		<line fill="none" stroke="#231F20" stroke-miterlimit="10" x1="63.172" y1="26.146" x2="116.662" y2="29.75"/>
		<path fill="none" stroke="#231F20" stroke-miterlimit="10" d="M68.315,21.597c14.657-3.081,29.314-6.162,43.973-9.243"/>
		<line fill="none" stroke="#231F20" stroke-miterlimit="10" x1="58.595" y1="13.957" x2="83.828" y2="-2.021"/>
		<line fill="none" stroke="#231F20" stroke-miterlimit="10" x1="55.063" y1="13.957" x2="57.651" y2="-2.688"/>
		<line fill="none" stroke="#231F20" stroke-miterlimit="10" x1="58.595" y1="13.957" x2="83.828" y2="-2.021"/>
		<path fill="none" stroke="#231F20" stroke-miterlimit="10" d="M64.265,21.597c15.963-2.74,31.925-5.48,47.888-8.221"/>
		<path fill="none" stroke="#231F20" stroke-miterlimit="10" d="M69.537,22.985c15.451-0.228,30.903-0.454,46.354-0.682"/>
		<path fill="none" stroke="#231F20" stroke-miterlimit="10" d="M161.084,46.356c5.248,0.965,10.496,1.93,15.744,2.895"/>
		<path fill="none" stroke="#231F20" stroke-miterlimit="10" d="M69.537,29.528c16.624,2.113,34.624,7.113,51.239,9.419"/>
		<path fill="none" stroke="#231F20" stroke-miterlimit="10" d="M68.77,32.819c16.392-1.178,32.392-3.178,48.016-3.634"/>
		<path fill="none" stroke="#231F20" stroke-miterlimit="10" d="M69.024,28.489c19.137,10.152,39.137,19.152,58.17,28.981"/>
	</g>
	<g>
		<path fill-rule="evenodd" clip-rule="evenodd" d="M19.249,7.449c3.869-5.577,8.602-6.946,14.194-4.159
			c5.038-3.781,8.907-3.968,13.778-0.669C52.2-0.158,55.399,0.57,58.38,5.199c4.075-0.372,6.875,1.317,8.306,5.24
			c0.135,0.371,0.665,0.723,1.083,0.848c4.453,1.335,6.225,3.89,5.911,8.612c4.922,2.213,6.262,5.393,4.562,10.773
			c-0.099,0.31-0.11,0.693-0.029,1.008c1.467,5.698-0.6,8.508-6.724,8.51c-0.504,2.218-1,4.543-1.571,6.851
			c-0.349,1.417-0.016,3.652-1.925,3.665c-0.953,0.006-1.941-1.956-2.868-3.064c-0.304-0.365-0.463-0.85-1.155-1.246
			c-0.162,3.052-0.277,6.107-0.507,9.155c-0.108,1.435,0.381,3.606-1.761,3.658c-2.155,0.052-2.106-2.157-2.204-3.688
			c-0.156-2.456-0.042-4.931-0.042-7.397c-0.265-0.021-0.528-0.044-0.792-0.066c-0.343,1.18-0.455,2.508-1.092,3.497
			c-0.638,0.99-1.728,2.187-2.748,2.32c-1.526,0.201-2.367-1.158-2.568-2.719c-0.141-1.089-0.133-2.251-0.541-3.235
			c-0.493-1.19-1.354-2.229-2.21-3.572c-3.142,4.487-6.819,5.622-11.431,3.891c-0.514-0.193-1.379,0.109-1.905,0.453
			c-5.812,3.779-9.688,3.188-14.169-2.34c-3.8,1.721-7.064,1.255-9.055-2.787c-1.052,0.163-1.91,0.375-2.776,0.417
			c-3.773,0.187-6.421-2.294-6.664-6.051c-0.049-0.76-0.347-1.716-0.878-2.193c-2.821-2.545-3.398-5.908-1.587-9.326
			c0.383-0.724,0.57-1.771,0.373-2.549c-0.925-3.651,0.665-6.667,4.266-8.02c0.672-0.254,1.53-0.912,1.676-1.53
			C8.531,9.28,12.912,6.301,18.007,7.22C18.433,7.297,18.858,7.376,19.249,7.449z M39.01,15.237
			c-0.615,0.02-1.235-0.011-1.842,0.065c-1.591,0.203-3.171,0.565-4.766,0.65c-1.991,0.108-3.093,0.909-2.942,2.886
			c0.113,1.492,0.739,2.945,1.158,4.41c0.36,1.258,0.94,2.485,1.08,3.765c0.145,1.321-0.576,2.168-1.718,2.25
			c-0.076-1.69,0.03-2.988-0.224-4.212c-0.479-2.329-1.84-4.699-1.573-6.897c0.273-2.247,1.751-4.355,1.449-6.872
			c-0.057-0.471,0.692-1.064,1.12-1.558c0.525-0.609,1.125-1.154,1.656-1.761c1.215-1.392,0.917-2.524-0.676-3.341
			c-2.761-1.416-5.34-0.797-8.402,0.901c4.208,0.897,3.846,3.997,3.979,6.947c-0.597-0.301-1.206-0.693-1.438-1.245
			c-0.235-0.565,0.157-1.528-0.181-1.893c-0.864-0.93-1.944-1.692-3.052-2.322c-0.127-0.072-1.311,1.062-1.418,1.729
			c-0.32,1.991-0.35,4.029-0.503,6.215c2.129-0.118,4.52-0.25,7.393-0.409c-0.563,0.756-0.707,1.145-0.883,1.159
			c-2.468,0.192-5.008,0.768-7.395,0.393c-3.947-0.617-6.158,0.821-6.266,4.791c-0.007,0.241-0.217,0.478-0.546,1.162
			c-0.592-0.955-0.987-1.594-1.115-1.802c-2.818,1.241-5.484,2.416-7.576,3.336c-0.504,1.318-0.754,2.471-1.342,3.412
			c-1.233,1.974-1.396,3.62-0.249,5.261c1.771-4.958,3.813-6.925,5.704-5.298c-0.297,0.225-0.555,0.453-0.845,0.632
			c-3.117,1.91-3.783,4.457-2.025,7.627c0.16,0.289,0.131,0.706,0.115,1.061c-0.225,5.035,1.957,6.776,6.643,5.188
			c1.138-0.387,1.711-0.23,2.241,0.884c0.428,0.897,1.038,2.07,1.835,2.344c1.193,0.409,2.636,0.252,3.94,0.086
			c0.412-0.054,1.003-0.887,1.034-1.391c0.179-2.907-0.42-3.632-3.309-4.403c-1.649-0.441-3.298-0.882-4.972-1.329
			c0.05,0.95,0.095,1.813,0.14,2.678c-0.224,0.062-0.447,0.125-0.672,0.187c-0.271-0.504-0.805-1.031-0.766-1.51
			c0.215-2.646-1.736-3.586-3.488-4.731c-0.735-0.48-1.463-0.989-2.103-1.584c-0.282-0.263-0.338-0.771-0.496-1.168
			c0.152-0.171,0.306-0.342,0.458-0.515c4.777,3.499,9.595,6.908,16.076,7.532c-0.005,0.004,0.662-0.284,0.843-0.756
			c0.624-1.637,2.569-3.183,0.99-5.094c-1.89-2.286-2.347-4.806-1.937-7.608c0.436-2.977-0.221-4.098-3.037-5.163
			c-0.822-0.31-1.641-0.638-2.461-0.957c0.096-0.311,0.193-0.62,0.29-0.93c1.188,0.306,2.428,0.486,3.557,0.939
			c3.537,1.424,3.738,4.388,2.849,7.794c0.245-0.009,0.491-0.018,0.738-0.026c0.865-1.235,1.729-2.472,2.594-3.708
			c0.189,0.14,0.38,0.279,0.568,0.419c-0.069,2.368-1.428,3.951-3.871,5.188c0.781,1.306,1.493,2.499,2.164,3.623
			c3.629-1.242,6.913-2.366,10.234-3.502c-2.787-5.812-3.308-9.365-1.428-10.849c0.283,1.972,0.543,3.794,0.804,5.618
			c0.212,0.032,0.424,0.064,0.636,0.097c0.274-0.905,0.49-1.833,0.838-2.71c0.754-1.908,1.574-3.791,2.357-5.688
			c1.228-1.95,1.931-3.889,1.106-6.311c-0.495-1.459,0.706-2.414,2.133-2.806c1.296-0.354,2.604-0.668,4.003-1.024
			c-1.69-2.525-3.927-3.244-6.723-2.552c-0.525,1.669-1.337,3.159-1.366,4.666c-0.029,1.452,0.748,2.921,1.396,5.152
			c-1.021-0.766-2.015-1.131-2.113-1.66c-0.301-1.646-0.341-3.356-0.324-5.041c0.006-0.802,0.373-1.598,0.576-2.396
			c-0.244-0.105-0.488-0.212-0.732-0.318c-0.658,0.732-1.754,1.392-1.892,2.211c-0.436,2.571-1.956,4.309-3.646,6.08
			c-0.453,0.474-0.512,1.693-0.241,2.362c0.199,0.49,1.26,0.941,1.894,0.888c1.795-0.149,3.568-0.566,5.422-0.893
			C38.661,14.169,38.835,14.704,39.01,15.237z M53.081,10.623c0.875-0.664,1.669-1.185,2.366-1.812
			c1.492-1.34,1.358-2.811,0.156-4.256c-1.566-1.887-5.229-2.323-6.675-0.439c-1.582,2.057-3.498,2.972-5.905,3.309
			c-1.378,0.192-1.993,0.979-1.362,2.315c0.912,1.932,0.279,3.489-0.873,5.071c-1.513,2.073-2.927,4.183-2.733,6.999
			c0.052,0.746-0.512,1.754-1.11,2.284c-1.511,1.334-1.024,2.32,0.289,3.408c2.01-0.943,4.766-0.409,5.922-3.059
			c-2.004-1.642-2.218-2.217-1.697-4.712c0.268-1.289,0.553-2.574,0.868-3.854c0.591-2.405,3.877-5.009,7.049-5.105
			c-0.878,0.781-1.306,1.395-1.89,1.645c-4.018,1.725-4.176,5.481-4.758,8.984c-0.069,0.415,0.393,1.064,0.787,1.388
			c2.381,1.952,5.029,1.576,6.993-1.113c1.421-1.947,2.57-4.092,3.963-6.062c0.372-0.524,1.192-0.733,1.808-1.088
			c0.128,0.222,0.257,0.442,0.385,0.663c-2.483,3.474-4.967,6.947-7.647,10.699c0.315,0.236,1.008,0.699,1.626,1.244
			c0.216,0.19,0.42,0.678,0.32,0.867c-0.117,0.222-0.719,0.458-0.854,0.355c-0.896-0.684-1.661-1.55-2.597-2.162
			c-0.484-0.316-1.23-0.237-1.859-0.336c-0.244,1.937-1.484,3.814-0.58,5.676c2.735-0.543,5.271-1.045,7.805-1.547
			c-0.269-0.18-0.538-0.359-0.809-0.537c1.68-1.416,3.357-2.831,4.684-3.949c-1.062-0.101-3.042,0.161-3.944-2.184
			c2.77,0.842,5.73,1.548,8.013-0.309c2.588-2.109,1.022-5.136,0.551-7.929c0.752,0.416,1.277,0.877,1.565,1.458
			c1.36,2.729,0.95,5.351-1.038,7.538c-1.258,1.385-2.85,2.505-4.414,3.564c-3.781,2.561-4.409,5.494-1.614,9.046
			c0.709,0.9,1.846,1.58,2.92,2.052c1.986,0.872,2.935,2.257,2.067,4.142c-2.026-4.926-6.049-2.152-9.378-2.175
			c0.003-0.288,0.006-0.576,0.008-0.864c1.202-0.482,2.403-0.965,3.379-1.356c-0.717-1.771-1.612-3.397-2-5.138
			c-0.299-1.341-0.959-1.87-2.065-1.63c-1.621,0.354-3.396,0.683-4.726,1.583c-3.425,2.319-6.947,3.13-11.011,2.159
			c-0.863-0.207-2.285,0.44-2.95,1.16c-2.045,2.212-1.743,4.419,0.588,6.472c0.658,0.58,1.316,1.16,1.974,1.739
			c-0.188,0.269-0.373,0.535-0.561,0.804c-1.033-0.713-2.197-1.296-3.075-2.166c-2.088-2.072-2.102-4.554-0.688-7.322
			c-3.422,1.801-3.069,5.287-4.34,8.359c-0.438-0.791-0.716-1.076-0.749-1.388c-0.515-4.915,3.426-9.269,8.401-9.228
			c1.458,0.012,2.933,0.164,4.364,0.436c2.194,0.417,4.034-0.173,5.306-1.256c0.143-2.443,0.264-4.506,0.368-6.293
			c-1.634,0.636-3.463,1.346-5.328,2.07c0.813,0.844,1.543,1.602,2.275,2.358c-0.196,0.223-0.391,0.445-0.587,0.669
			c-1.127-0.695-2.255-1.391-3.131-1.932c-2.669,0.878-5.14,1.775-7.661,2.49c-2.026,0.574-3.276,1.7-3.836,3.773
			c-0.275,1.021-1.065,1.892-1.494,2.885c-0.463,1.073-1.154,2.235-1.089,3.318c0.299,4.984,5.315,7.976,9.865,5.965
			c1.124-0.494,2.063-1.412,3.187-1.904c0.73-0.319,1.775-0.534,2.454-0.254c2.59,1.074,3.39,0.672,3.593-2.137
			c0.209-2.86-0.266-3.496-3.094-3.935c-0.937-0.146-1.909-0.062-2.845-0.208c-0.438-0.07-0.829-0.44-1.241-0.673
			c0.059-0.22,0.116-0.441,0.175-0.662c0.909,0,1.82-0.042,2.727,0.008c2.96,0.16,5.721,1.585,8.872,0.883
			c2.206-0.492,2.977-0.942,2.611-3.24c-0.118-0.744-0.119-1.506-0.215-2.82c1.952,2.146,2.142,4.232,0.965,6.283
			c-0.66,1.148-1.256,2.314,0.255,3.201c2.696,1.583,3.551,4.125,3.904,6.998c0.087,0.704,0.378,1.384,0.575,2.074
			c0.242,0.01,0.483,0.019,0.728,0.027c0.456-1.477,0.779-3.014,1.415-4.408c0.405-0.885,1.273-1.56,1.935-2.328
			c0.734,0.808,1.887,1.513,2.117,2.446c0.461,1.862,0.415,3.852,0.55,5.437c0.313-2.478,0.578-5.322,1.087-8.123
			c0.14-0.771,1.015-1.41,1.551-2.109c0.656,0.598,1.472,1.096,1.934,1.819c0.636,0.994,1.004,2.16,1.712,3.761
			c0.743-5.185,2.832-9.572,1.387-14.636c-0.852,2.025-1.701,4.051-2.59,6.163c-1.468-2.058-0.077-5.359,3.161-7.971
			c-1.089-3.679-0.771-6.41,1.435-11.136c-1.169-0.23-2.646-0.988-3.235-0.552c-2.013,1.496-3.883,3.342-2.486,6.429
			c-2.35-0.738-2.943-2.622-0.989-4.635c2.494-2.568,2.519-5.82,3.69-8.808c-0.356-0.073-0.595-0.203-0.774-0.146
			c-1.885,0.589-2.773,0.314-2.594-2.05c0.157-2.048-2.215-3.814-4.439-3.895c0.983,1.227,2.094,2.482,3.026,3.86
			c0.259,0.382-0.014,1.124-0.042,1.701c-0.392-0.329-0.827-0.617-1.168-0.992c-1.245-1.372-2.459-2.773-3.344-3.777
			c-2.37,1.665-4.175,3.3-6.278,4.3c-1.815,0.86-2.426,1.755-1.791,3.621c0.58,1.705,0.522,3.055-1.649,3.776
			c-0.992,0.33-1.676,1.556-2.529,2.343c-0.353,0.325-0.781,0.565-1.177,0.845c-0.148-0.17-0.298-0.338-0.446-0.507
			c0.659-2.306,2.511-3.586,4.646-4.708c-0.199-1.058-0.615-2.08-0.512-3.047c0.104-0.949,0.679-1.871,1.148-2.751
			c0.313-0.583,1.227-1.207,1.111-1.575c-0.172-0.551-0.963-1.136-1.582-1.264c-0.967-0.201-2.011-0.029-3.021-0.021
			c-0.569,0.007-1.139,0.003-2.031,0.003C47.087,6.269,51.413,7.147,53.081,10.623z M5.356,17.518
			c-1.067,1.644-1.821,2.801-2.574,3.958c0.199,0.225,0.399,0.449,0.6,0.674c1.813-0.64,3.801-0.995,5.402-1.978
			c3.092-1.9,5.33-5.021,9.09-6.091c0.892-0.253,1.433-1.957,1.977-3.069c0.142-0.29-0.179-1.026-0.503-1.289
			c-2.696-2.18-8.62,0.098-9.405,3.578c2.418,0.704,2.402,0.688,4.031-0.891c0.624-0.604,1.275-1.267,2.045-1.611
			c0.576-0.258,1.359-0.051,2.052-0.051c0.006,0.271,0.012,0.543,0.017,0.814c-3.211,0.414-4.348,5.621-8.197,3.451
			c-1.273,1.897-2.366,3.525-3.758,5.599C5.862,19.54,5.701,18.896,5.356,17.518z M75.71,23.722c-1.294,1.753-2.42,3.28-3.616,4.9
			c-0.707-1.69-0.707-1.69,2.623-5.998c-1.343-1.093-2.344-0.333-3.169,0.687c-1.352,1.671-1.375,6.391,0.083,8.621
			c0.793-1.227,1.497-2.32,2.426-3.755c1.144,2.19-0.505,3.291-1.148,4.739c1.313,0.327,2.563,0.636,4.194,1.04
			c-0.448-0.825-0.844-1.279-0.934-1.786c-0.119-0.668-0.251-1.536,0.064-2.041C77.618,27.912,77.629,26.51,75.71,23.722z
			 M47.749,40.879c-0.968,0-1.881-0.177-2.671,0.058c-0.625,0.184-1.458,0.798-1.571,1.351c-0.31,1.496-0.286,3.06-0.396,4.647
			C46.261,46.247,47.679,44.268,47.749,40.879z M71.292,33.991c0,1.396-0.397,2.773,0.12,3.493c0.442,0.615,2.054,0.854,2.929,0.574
			c0.959-0.307,1.669-1.397,2.867-2.496C74.907,34.952,73.372,34.544,71.292,33.991z M71.458,19.54
			c0.235-0.109,0.47-0.22,0.705-0.329c-0.649-1.715-1.298-3.429-2.09-5.521C67.454,17.427,67.732,18.242,71.458,19.54z"/>
		<path fill-rule="evenodd" clip-rule="evenodd" d="M55.037,56.223c1.784,1.136,3.084,2.562,2.452,4.687
			c-0.243,0.817-1.504,1.902-2.241,1.858c-0.913-0.055-2.233-0.979-2.552-1.835C51.901,58.795,53.378,57.435,55.037,56.223z"/>
		<path fill-rule="evenodd" clip-rule="evenodd" fill="#FFFFFF" d="M53.081,10.623c-1.668-3.476-5.994-4.354-8.488-1.541
			c0.893,0,1.462,0.004,2.031-0.003c1.01-0.009,2.054-0.181,3.021,0.021c0.619,0.128,1.41,0.713,1.582,1.264
			c0.115,0.368-0.799,0.992-1.111,1.575c-0.47,0.88-1.045,1.802-1.148,2.751c-0.104,0.967,0.313,1.989,0.512,3.047
			c-2.135,1.122-3.986,2.402-4.646,4.708c0.148,0.169,0.298,0.337,0.446,0.507c0.396-0.279,0.824-0.52,1.177-0.845
			c0.854-0.787,1.537-2.013,2.529-2.343c2.172-0.722,2.229-2.071,1.649-3.776c-0.635-1.866-0.024-2.761,1.791-3.621
			c2.104-1,3.908-2.635,6.278-4.3c0.885,1.004,2.099,2.405,3.344,3.777c0.341,0.375,0.776,0.663,1.168,0.992
			c0.028-0.577,0.301-1.319,0.042-1.701c-0.933-1.378-2.043-2.634-3.026-3.86c2.225,0.08,4.597,1.847,4.439,3.895
			c-0.18,2.364,0.709,2.639,2.594,2.05c0.18-0.057,0.418,0.073,0.774,0.146c-1.172,2.987-1.196,6.239-3.69,8.808
			c-1.954,2.013-1.36,3.896,0.989,4.635c-1.396-3.087,0.474-4.933,2.486-6.429c0.589-0.437,2.066,0.321,3.235,0.552
			c-2.206,4.726-2.523,7.457-1.435,11.136c-3.238,2.611-4.629,5.913-3.161,7.971c0.889-2.112,1.738-4.138,2.59-6.163
			c1.445,5.063-0.644,9.451-1.387,14.636c-0.708-1.601-1.076-2.767-1.712-3.761c-0.462-0.724-1.277-1.222-1.934-1.819
			c-0.536,0.699-1.411,1.338-1.551,2.109c-0.509,2.801-0.774,5.646-1.087,8.123c-0.135-1.585-0.089-3.574-0.55-5.437
			c-0.23-0.934-1.383-1.639-2.117-2.446c-0.661,0.769-1.529,1.443-1.935,2.328c-0.636,1.395-0.959,2.932-1.415,4.408
			c-0.244-0.009-0.485-0.018-0.728-0.027c-0.197-0.69-0.488-1.37-0.575-2.074c-0.354-2.873-1.208-5.415-3.904-6.998
			c-1.511-0.887-0.915-2.053-0.255-3.201c1.177-2.051,0.987-4.137-0.965-6.283c0.096,1.314,0.097,2.076,0.215,2.82
			c0.365,2.298-0.405,2.748-2.611,3.24c-3.151,0.702-5.912-0.723-8.872-0.883c-0.906-0.05-1.817-0.008-2.727-0.008
			c-0.059,0.221-0.116,0.442-0.175,0.662c0.412,0.232,0.803,0.603,1.241,0.673c0.936,0.146,1.908,0.063,2.845,0.208
			c2.828,0.438,3.303,1.074,3.094,3.935c-0.203,2.809-1.003,3.211-3.593,2.137c-0.679-0.28-1.724-0.065-2.454,0.254
			c-1.124,0.492-2.063,1.41-3.187,1.904c-4.55,2.011-9.566-0.98-9.865-5.965c-0.065-1.083,0.626-2.245,1.089-3.318
			c0.429-0.993,1.219-1.863,1.494-2.885c0.56-2.073,1.81-3.199,3.836-3.773c2.521-0.715,4.992-1.612,7.661-2.49
			c0.876,0.541,2.004,1.236,3.131,1.932c0.196-0.224,0.391-0.446,0.587-0.669c-0.732-0.757-1.462-1.515-2.275-2.358
			c1.865-0.725,3.694-1.435,5.328-2.07c-0.104,1.787-0.226,3.85-0.368,6.293c-1.271,1.083-3.111,1.673-5.306,1.256
			c-1.432-0.271-2.906-0.424-4.364-0.436c-4.976-0.041-8.916,4.313-8.401,9.228c0.033,0.312,0.312,0.597,0.749,1.388
			c1.271-3.072,0.918-6.559,4.34-8.359c-1.414,2.769-1.4,5.25,0.688,7.322c0.878,0.87,2.042,1.453,3.075,2.166
			c0.188-0.269,0.373-0.535,0.561-0.804c-0.657-0.579-1.315-1.159-1.974-1.739c-2.331-2.053-2.633-4.26-0.588-6.472
			c0.665-0.72,2.087-1.367,2.95-1.16c4.063,0.971,7.586,0.16,11.011-2.159c1.33-0.9,3.104-1.229,4.726-1.583
			c1.106-0.24,1.767,0.289,2.065,1.63c0.388,1.74,1.283,3.366,2,5.138c-0.976,0.392-2.177,0.874-3.379,1.356
			c-0.002,0.288-0.005,0.576-0.008,0.864c3.329,0.022,7.352-2.751,9.378,2.175c0.867-1.885-0.081-3.27-2.067-4.142
			c-1.074-0.472-2.211-1.151-2.92-2.052c-2.795-3.552-2.167-6.485,1.614-9.046c1.564-1.06,3.156-2.18,4.414-3.564
			c1.988-2.188,2.398-4.81,1.038-7.538c-0.288-0.581-0.813-1.042-1.565-1.458c0.472,2.793,2.037,5.819-0.551,7.929
			c-2.282,1.856-5.243,1.15-8.013,0.309c0.902,2.345,2.883,2.083,3.944,2.184c-1.326,1.118-3.004,2.533-4.684,3.949
			c0.271,0.178,0.54,0.357,0.809,0.537c-2.534,0.502-5.069,1.004-7.805,1.547c-0.904-1.861,0.336-3.739,0.58-5.676
			c0.629,0.099,1.375,0.02,1.859,0.336c0.936,0.612,1.701,1.479,2.597,2.162c0.136,0.103,0.737-0.134,0.854-0.355
			c0.1-0.189-0.104-0.677-0.32-0.867c-0.618-0.545-1.311-1.008-1.626-1.244c2.681-3.752,5.164-7.226,7.647-10.699
			c-0.128-0.221-0.257-0.441-0.385-0.663c-0.615,0.354-1.436,0.563-1.808,1.088c-1.393,1.97-2.542,4.114-3.963,6.062
			c-1.964,2.689-4.612,3.065-6.993,1.113c-0.395-0.323-0.856-0.973-0.787-1.388c0.582-3.503,0.74-7.26,4.758-8.984
			c0.584-0.25,1.012-0.863,1.89-1.645c-3.172,0.097-6.458,2.7-7.049,5.105c-0.315,1.279-0.601,2.564-0.868,3.854
			c-0.521,2.495-0.307,3.07,1.697,4.712c-1.156,2.649-3.912,2.115-5.922,3.059c-1.313-1.088-1.8-2.074-0.289-3.408
			c0.599-0.53,1.162-1.538,1.11-2.284c-0.193-2.816,1.221-4.926,2.733-6.999c1.152-1.582,1.785-3.14,0.873-5.071
			c-0.631-1.336-0.016-2.123,1.362-2.315c2.407-0.337,4.323-1.252,5.905-3.309c1.446-1.884,5.108-1.447,6.675,0.439
			c1.202,1.445,1.336,2.916-0.156,4.256C54.75,9.438,53.956,9.959,53.081,10.623z M56.532,31.974
			c-0.837,2.624,0.596,4.352,3.322,5.076c1.49,0.398,2.913,1.054,4.557,1.662c0.796-1.139,0.479-1.768-2.184-3.063
			c0.178-1.13,0.358-2.267,0.532-3.366c1.271-0.505,2.975-0.256,3.46-2.468c-1.416,0.373-2.42,0.638-3.357,0.885
			c-0.577-0.943-1.081-1.769-1.585-2.592c-0.208,0.073-0.417,0.149-0.625,0.224c0.093,2.431,1.295,4.964-0.47,7.549
			c-0.854-0.601-1.706-1.025-2.314-1.678C57.29,33.584,56.968,32.727,56.532,31.974z M57.952,22.013
			c2.317-0.132,2.693-1.229,2.766-2.524c0.154-2.788-2.094-6.523-4.34-7.044c-1.561-0.361-3.089-0.256-4.057,1.627
			c2.159-0.173,4.41-1.002,5.729,1.526C59.087,17.585,59.999,19.53,57.952,22.013z"/>
		<path fill-rule="evenodd" clip-rule="evenodd" fill="#FFFFFF" d="M38.991,15.237c-0.793,1.893-1.613,3.775-2.367,5.684
			c-0.348,0.877-0.563,1.805-0.838,2.71c-0.212-0.032-0.424-0.064-0.636-0.097c-0.261-1.824-0.521-3.646-0.804-5.618
			c-1.88,1.483-1.359,5.037,1.428,10.849c-3.321,1.136-6.605,2.26-10.234,3.502c-0.671-1.124-1.383-2.317-2.164-3.623
			c2.443-1.236,3.802-2.819,3.871-5.188c-0.188-0.14-0.379-0.279-0.568-0.419c-0.865,1.236-1.729,2.473-2.594,3.708
			c-0.247,0.009-0.493,0.018-0.738,0.026c0.89-3.406,0.688-6.37-2.849-7.794c-1.129-0.453-2.369-0.634-3.557-0.939
			c-0.097,0.31-0.194,0.619-0.29,0.93c0.82,0.319,1.639,0.647,2.461,0.957c2.816,1.065,3.473,2.187,3.037,5.163
			c-0.41,2.803,0.047,5.322,1.937,7.608c1.579,1.911-0.366,3.457-0.99,5.094c-0.181,0.472-0.848,0.76-0.843,0.756
			c-6.481-0.624-11.299-4.033-16.076-7.532c-0.152,0.173-0.306,0.344-0.458,0.515c0.158,0.397,0.214,0.905,0.496,1.168
			c0.64,0.595,1.367,1.104,2.103,1.584c1.752,1.146,3.703,2.086,3.488,4.731c-0.039,0.479,0.495,1.006,0.766,1.51
			c0.225-0.062,0.448-0.125,0.672-0.187c-0.045-0.864-0.09-1.728-0.14-2.678c1.674,0.447,3.322,0.888,4.972,1.329
			c2.889,0.771,3.487,1.496,3.309,4.403c-0.031,0.504-0.622,1.337-1.034,1.391c-1.305,0.166-2.747,0.323-3.94-0.086
			c-0.797-0.273-1.407-1.446-1.835-2.344c-0.53-1.114-1.104-1.271-2.241-0.884c-4.686,1.589-6.867-0.152-6.643-5.188
			c0.016-0.354,0.045-0.771-0.115-1.061c-1.758-3.17-1.092-5.717,2.025-7.627c0.29-0.179,0.548-0.407,0.845-0.632
			c-1.892-1.627-3.934,0.34-5.704,5.298c-1.147-1.641-0.984-3.287,0.249-5.261c0.588-0.941,0.838-2.094,1.342-3.412
			c2.092-0.92,4.758-2.095,7.576-3.336c0.128,0.208,0.523,0.847,1.115,1.802c0.329-0.685,0.539-0.921,0.546-1.162
			c0.107-3.97,2.318-5.408,6.266-4.791c2.387,0.375,4.927-0.2,7.395-0.393c0.176-0.015,0.32-0.403,0.883-1.159
			c-2.873,0.159-5.264,0.291-7.393,0.409c0.153-2.186,0.183-4.224,0.503-6.215c0.107-0.667,1.291-1.801,1.418-1.729
			c1.107,0.63,2.188,1.393,3.052,2.322c0.338,0.364-0.055,1.327,0.181,1.893c0.231,0.552,0.841,0.944,1.438,1.245
			c-0.134-2.95,0.229-6.05-3.979-6.947c3.063-1.698,5.642-2.317,8.402-0.901c1.593,0.816,1.891,1.949,0.676,3.341
			c-0.531,0.606-1.131,1.151-1.656,1.761c-0.428,0.493-1.177,1.087-1.12,1.558c0.302,2.517-1.176,4.625-1.449,6.872
			c-0.267,2.198,1.094,4.568,1.573,6.897c0.254,1.224,0.147,2.521,0.224,4.212c1.142-0.082,1.862-0.929,1.718-2.25
			c-0.14-1.279-0.72-2.507-1.08-3.765c-0.419-1.465-1.045-2.918-1.158-4.41c-0.15-1.977,0.951-2.777,2.942-2.886
			c1.595-0.085,3.175-0.447,4.766-0.65c0.606-0.076,1.227-0.046,1.842-0.065H38.991z M20.144,35.114
			c0.172-0.128,0.341-0.257,0.514-0.387c-7.48-2.99-3.735-6.923-1.57-10.945c-3.175,1.354-3.946,4.226-4.617,7.424
			c-0.902-1.134-1.531-2.292-2.025-3.505c-0.3-0.733-0.146-1.81-0.633-2.275c-0.756-0.726-1.845-1.213-2.876-1.494
			c-0.431-0.117-1.075,0.556-1.623,0.869c2.979,0.78,3.022,0.769,3.839,3.776c1.057,3.89,4.669,4.832,7.543,6.616
			C19.03,35.401,19.653,35.152,20.144,35.114z"/>
		<path fill-rule="evenodd" clip-rule="evenodd" fill="#FFFFFF" d="M39.01,15.237c-0.175-0.533-0.349-1.068-0.536-1.646
			c-1.854,0.326-3.627,0.743-5.422,0.893c-0.634,0.054-1.694-0.397-1.894-0.888c-0.271-0.669-0.212-1.889,0.241-2.362
			c1.689-1.771,3.21-3.509,3.646-6.08c0.138-0.819,1.233-1.479,1.892-2.211c0.244,0.106,0.488,0.213,0.732,0.318
			c-0.203,0.799-0.57,1.595-0.576,2.396c-0.017,1.685,0.023,3.395,0.324,5.041c0.099,0.529,1.093,0.895,2.113,1.66
			c-0.647-2.231-1.425-3.7-1.396-5.152c0.029-1.507,0.841-2.997,1.366-4.666c2.796-0.692,5.032,0.026,6.723,2.552
			c-1.399,0.356-2.707,0.67-4.003,1.024c-1.427,0.392-2.628,1.347-2.133,2.806c0.824,2.422,0.121,4.36-1.102,6.313
			C38.991,15.237,39.01,15.237,39.01,15.237z"/>
		<path fill-rule="evenodd" clip-rule="evenodd" fill="#FFFFFF" d="M5.356,17.518c0.345,1.379,0.506,2.022,0.775,3.095
			c1.392-2.073,2.484-3.701,3.758-5.599c3.85,2.17,4.986-3.037,8.197-3.451c-0.005-0.271-0.011-0.543-0.017-0.814
			c-0.692,0-1.476-0.207-2.052,0.051c-0.77,0.345-1.421,1.007-2.045,1.611c-1.629,1.578-1.613,1.595-4.031,0.891
			c0.785-3.48,6.709-5.758,9.405-3.578c0.324,0.263,0.645,0.999,0.503,1.289c-0.544,1.112-1.085,2.816-1.977,3.069
			c-3.76,1.07-5.998,4.19-9.09,6.091c-1.602,0.982-3.59,1.338-5.402,1.978c-0.2-0.225-0.4-0.449-0.6-0.674
			C3.535,20.318,4.289,19.161,5.356,17.518z"/>
		<path fill-rule="evenodd" clip-rule="evenodd" fill="#FFFFFF" d="M75.71,23.722c1.919,2.788,1.908,4.19,0.523,6.407
			c-0.315,0.505-0.184,1.373-0.064,2.041c0.09,0.507,0.485,0.961,0.934,1.786c-1.631-0.404-2.881-0.713-4.194-1.04
			c0.644-1.448,2.292-2.549,1.148-4.739c-0.929,1.435-1.633,2.528-2.426,3.755c-1.458-2.23-1.435-6.95-0.083-8.621
			c0.825-1.02,1.826-1.779,3.169-0.687c-3.33,4.308-3.33,4.308-2.623,5.998C73.29,27.002,74.416,25.475,75.71,23.722z"/>
		<path fill-rule="evenodd" clip-rule="evenodd" fill="#FFFFFF" d="M47.749,40.879c-0.07,3.389-1.488,5.368-4.639,6.056
			c0.11-1.588,0.087-3.151,0.396-4.647c0.113-0.553,0.946-1.167,1.571-1.351C45.868,40.702,46.781,40.879,47.749,40.879z"/>
		<path fill-rule="evenodd" clip-rule="evenodd" fill="#FFFFFF" d="M71.292,33.991c2.08,0.553,3.615,0.961,5.916,1.571
			c-1.198,1.099-1.908,2.189-2.867,2.496c-0.875,0.279-2.486,0.041-2.929-0.574C70.895,36.765,71.292,35.388,71.292,33.991z"/>
		<path fill-rule="evenodd" clip-rule="evenodd" fill="#FFFFFF" d="M71.458,19.54c-3.726-1.298-4.004-2.113-1.385-5.851
			c0.792,2.093,1.44,3.807,2.09,5.521C71.928,19.32,71.693,19.431,71.458,19.54z"/>
		<path fill-rule="evenodd" clip-rule="evenodd" d="M56.532,31.974c0.436,0.753,0.758,1.61,1.336,2.229
			c0.608,0.652,1.46,1.077,2.314,1.678c1.765-2.585,0.563-5.118,0.47-7.549c0.208-0.074,0.417-0.15,0.625-0.224
			c0.504,0.823,1.008,1.648,1.585,2.592c0.938-0.247,1.941-0.512,3.357-0.885c-0.485,2.212-2.188,1.963-3.46,2.468
			c-0.174,1.1-0.354,2.236-0.532,3.366c2.662,1.295,2.979,1.924,2.184,3.063c-1.644-0.608-3.066-1.264-4.557-1.662
			C57.128,36.325,55.695,34.598,56.532,31.974z"/>
		<path fill-rule="evenodd" clip-rule="evenodd" d="M57.952,22.013c2.047-2.482,1.135-4.428,0.098-6.415
			c-1.318-2.528-3.569-1.699-5.729-1.526c0.968-1.883,2.496-1.988,4.057-1.627c2.246,0.521,4.494,4.256,4.34,7.044
			C60.646,20.784,60.27,21.881,57.952,22.013z"/>
		<path fill-rule="evenodd" clip-rule="evenodd" d="M20.144,35.114c-0.49,0.038-1.113,0.287-1.449,0.079
			c-2.874-1.784-6.486-2.727-7.543-6.616c-0.816-3.008-0.859-2.996-3.839-3.776c0.548-0.313,1.192-0.986,1.623-0.869
			c1.031,0.281,2.12,0.769,2.876,1.494c0.486,0.466,0.333,1.542,0.633,2.275c0.494,1.213,1.123,2.371,2.025,3.505
			c0.671-3.198,1.442-6.069,4.617-7.424c-2.165,4.022-5.91,7.955,1.57,10.945C20.484,34.857,20.315,34.986,20.144,35.114z"/>
	</g>
</g>
<g id="EyeContact">
</g>
<g id="UnderGuesser">
</g>
<g id="GodSaveTheQUeen">
</g>
<g id="Ghost">
</g>
<g id="Fortune_Teller">
</g>
<g id="DrinkSwap">
</g>
<g id="DickTator">
</g>
<g id="_x34_Eyes">
</g>
<g id="BabyTalk">
</g>
<g id="Backseat_Driver">
</g>
<g id="BAtman">
</g>
<g id="bodyguard">
</g>
<g id="BuckleUp">
</g>
<g id="RockPaperScissors">
</g>
<g id="Roger_Roger">
</g>
<g id="RoyaleWe">
</g>
<g id="Skip">
</g>
<g id="SwineRules">
</g>
<g id="Touchy_Feeley">
</g>
<g id="Wasted_Education">
</g>
<g id="Layer_86">
</g>
<g id="PointOfNoReturn">
</g>
<g id="Pirate">
</g>
<g id="Thief">
</g>
<g id="DepthPerception">
</g>
<g id="Narcissist">
</g>
<g id="MammaBird">
</g>
<g id="Staringcontest">
</g>
<g id="Cartwheel">
</g>
<g id="Censored">
</g>
<g id="Depersonalization">
</g>
<g id="threeman">
</g>
<g id="_x32__truths_and_a_lie">
</g>
<g id="cray_cray_cat_lady">
</g>
<g id="siblings">
</g>
<g id="later">
</g>
<g id="waterfall">
</g>
<g id="cheers">
</g>
<g id="rhyme">
</g>
<g id="categories">
</g>
<g id="tits">
</g>
<g id="dicks">
</g>
<g id="questions">
</g>
<g id="double_hands">
</g>
<g id="rewind">
</g>
<g id="Cryptkeeper">
</g>
<g id="Take_2_and_Redo">
</g>
<g id="Embryo">
</g>
<g id="I_am_Groot">
</g>
<g id="Mini_Me">
</g>
<g id="Ditto_1_">
</g>
<g id="reverse">
</g>
</svg>
