<?xml version="1.0" encoding="utf-8"?>
<!-- Generator: Adobe Illustrator 16.0.0, SVG Export Plug-In . SVG Version: 6.00 Build 0)  -->
<!DOCTYPE svg PUBLIC "-//W3C//DTD SVG 1.1//EN" "http://www.w3.org/Graphics/SVG/1.1/DTD/svg11.dtd">
<svg version="1.1" xmlns="http://www.w3.org/2000/svg" xmlns:xlink="http://www.w3.org/1999/xlink" x="0px" y="0px"
	 width="209.759px" height="62.361px" viewBox="0 0 209.759 62.361" enable-background="new 0 0 209.759 62.361"
	 xml:space="preserve">
<g id="Layer_1">
</g>
<g id="Blindman">
</g>
<g id="Compliments">
</g>
<g id="HAT">
</g>
<g id="speech">
</g>
<g id="TREX_ARMS">
</g>
<g id="slim_shady">
</g>
<g id="TIMEOUT">
</g>
<g id="Truth_or_Dare">
</g>
<g id="ARM_WRESTLE">
</g>
<g id="musical_chairs">
</g>
<g id="never_have_i_ever">
</g>
<g id="Trivia">
</g>
<g id="Drink_Pulling">
</g>
<g id="Sharing_is_Caring">
</g>
<g id="Not_It">
</g>
<g id="Cocktail_of_Doom">
</g>
<g id="Heads_up">
</g>
<g id="Archenemy">
</g>
<g id="battle_of_the_sexes">
</g>
<g id="one_must_drink">
</g>
<g id="rainbow_connection">
</g>
<g id="social_drinking">
</g>
<g id="Spin_the_bottle">
</g>
<g id="accents">
</g>
<g id="Slap">
</g>
<g id="down_the_hatch">
</g>
<g id="rubiks_cube">
</g>
<g id="bar_tender">
</g>
<g id="codenames">
</g>
<g id="hand_switch">
</g>
<g id="make_a_rule">
</g>
<g id="no_guts_no_glory">
</g>
<g id="pass">
</g>
<g id="santa">
</g>
<g id="snake_eyes">
</g>
<g id="lightning_round">
</g>
<g id="Bro">
</g>
<g id="LeastDrunk">
</g>
<g id="Know_It_All">
	<g id="Layer_94">
	</g>
</g>
<g id="EyeContact">
</g>
<g id="UnderGuesser">
</g>
<g id="GodSaveTheQUeen">
</g>
<g id="Ghost">
</g>
<g id="Fortune_Teller">
</g>
<g id="DrinkSwap">
</g>
<g id="DickTator">
</g>
<g id="_x34_Eyes">
</g>
<g id="BabyTalk">
</g>
<g id="Backseat_Driver">
</g>
<g id="BAtman">
</g>
<g id="bodyguard">
</g>
<g id="BuckleUp">
</g>
<g id="RockPaperScissors">
</g>
<g id="Roger_Roger">
</g>
<g id="RoyaleWe">
</g>
<g id="Skip">
</g>
<g id="SwineRules">
</g>
<g id="Touchy_Feeley">
</g>
<g id="Wasted_Education">
</g>
<g id="Layer_86">
</g>
<g id="PointOfNoReturn">
</g>
<g id="Pirate">
</g>
<g id="Thief">
</g>
<g id="DepthPerception">
</g>
<g id="Narcissist">
</g>
<g id="MammaBird">
</g>
<g id="Staringcontest">
</g>
<g id="Cartwheel">
</g>
<g id="Censored">
</g>
<g id="Depersonalization">
</g>
<g id="threeman">
</g>
<g id="_x32__truths_and_a_lie">
</g>
<g id="cray_cray_cat_lady">
</g>
<g id="siblings">
</g>
<g id="later">
</g>
<g id="waterfall">
</g>
<g id="cheers">
</g>
<g id="rhyme">
	<g>
		<path d="M24.55,9.91c0.108,0.108,0.18,0.198,0.216,0.271v2.159c0.216-0.144,0.45-0.297,0.702-0.459s0.504-0.44,0.756-0.837
			c1.332-0.396,2.286-0.827,2.862-1.296c0.216-0.18,0.423-0.351,0.621-0.513c0.197-0.162,0.405-0.333,0.621-0.513
			c0.107-0.072,0.216-0.162,0.324-0.271c0.107-0.108,0.216-0.197,0.323-0.27c0.288-0.217,0.504-0.396,0.648-0.54
			c0.071-0.108,0.18-0.243,0.324-0.405c0.144-0.162,0.342-0.369,0.594-0.621c0.107-0.144,0.243-0.306,0.405-0.486
			c0.161-0.18,0.314-0.359,0.459-0.54h0.323c0.217,0,0.387,0.063,0.514,0.189c0.125,0.126,0.278,0.315,0.459,0.566h-0.055
			L34.81,6.67l0.271,0.324c0.071,0,0.144,0.036,0.216,0.108V7.048l0.162,0.108l0.324,0.162c0.287,0.181,0.594,0.36,0.918,0.54
			c0.323,0.181,0.684,0.378,1.08,0.594c1.439,0.972,2.447,1.818,3.023,2.538c0.072,0.072,0.135,0.153,0.189,0.243
			c0.054,0.09,0.116,0.171,0.188,0.243l1.62,1.619c0.216,0.217,0.432,0.469,0.648,0.757c0.827,1.008,1.241,2.25,1.241,3.726
			c0,1.296-0.576,2.719-1.728,4.266l0.432,0.433l0.864,0.81c0.108,0.108,0.162,0.271,0.162,0.486c0,0.145-0.198,0.45-0.594,0.918
			l1.296,1.242c0.504,0.504,0.756,1.116,0.756,1.836c0,1.62-1.045,2.466-3.132,2.538l0.702,0.702c0.18,0.18,0.27,0.396,0.27,0.647
			v0.378c-0.54,0.396-1.134,0.918-1.782,1.566v2.43c0,0.9,0,1.801,0,2.7c0,0.9,0.019,1.801,0.055,2.7
			c0.647-0.54,1.08-0.811,1.296-0.811c0.684,0,1.044,0.234,1.08,0.702l2.376,2.376c0.107,0.108,0.162,0.271,0.162,0.486
			c0,0.432-0.451,1.044-1.351,1.836c-0.504,0.396-0.972,0.81-1.403,1.242c-0.397,0.468-0.9,1.053-1.513,1.755
			s-1.332,1.539-2.16,2.511l0.055,0.054c-0.216,0.252-0.486,0.378-0.811,0.378c-0.288,0-0.54-0.107-0.756-0.323L36.7,49.168
			c-0.433-0.107-0.811-0.522-1.135-1.242c-0.072-0.071-0.126-0.143-0.161-0.216c-0.037-0.071-0.073-0.126-0.108-0.162
			c-0.072-0.071-0.153-0.116-0.243-0.135c-0.09-0.018-0.171-0.063-0.243-0.135h-0.054c-0.288-0.072-0.505-0.197-0.648-0.378
			l-2.214-2.16c-0.54-0.216-0.828-0.521-0.863-0.918c-0.073,0.072-0.145,0.117-0.217,0.135c-0.072,0.019-0.144,0.063-0.216,0.135
			c0.396,0.181,0.747,0.396,1.053,0.648s0.549,0.576,0.729,0.972l2.052,1.998c0.468,0.468,0.702,1.008,0.702,1.62
			c0,0.504-0.226,1.044-0.675,1.62c-0.45,0.575-0.928,0.864-1.431,0.864c-0.648,0-1.117-0.145-1.404-0.433l-2.269-2.268
			c-0.036,0-0.063-0.01-0.081-0.027c-0.019-0.019-0.045-0.026-0.08-0.026l-0.162,0.162c-0.289,0.18-0.586,0.413-0.892,0.701
			s-0.604,0.63-0.891,1.026c-0.54,0.828-0.937,1.242-1.188,1.242c-0.216,0-0.396-0.073-0.54-0.216l-1.134-1.135
			c-0.216,0.108-0.424,0.198-0.621,0.271c-0.198,0.071-0.404,0.107-0.621,0.107l-2.538-2.537h-0.216l-0.918-0.864
			c-0.756-0.433-1.548-0.648-2.376-0.648c-0.576,0-1.099,0.108-1.565,0.324l1.998,1.944c0.359,0.359,0.54,0.702,0.54,1.025
			c-0.073,0.108-0.172,0.278-0.298,0.514c-0.126,0.233-0.261,0.459-0.404,0.675c-0.036,0.071-0.073,0.135-0.108,0.188
			c-0.036,0.055-0.126,0.171-0.27,0.352c-0.54,0.18-1.135,0.27-1.782,0.27c-0.756,0-1.404-0.27-1.944-0.81l-1.998-1.998
			c-1.188-0.576-1.782-1.585-1.782-3.024c0-1.655,0.811-3.348,2.431-5.076l-1.404-1.458c-0.324-0.143-0.612-0.396-0.864-0.756
			c-0.504-0.756-0.882-1.188-1.134-1.296v-1.62c0-0.575,0.116-1.07,0.352-1.484c0.233-0.414,0.513-0.818,0.837-1.215l-0.648-0.648
			l-0.054-0.054c-0.072-0.072-0.135-0.126-0.189-0.162c-0.054-0.035-0.117-0.09-0.188-0.162c-0.505-0.359-0.883-0.684-1.134-0.972
			c-0.253-0.288-0.379-0.521-0.379-0.702c0-0.072,0.009-0.153,0.027-0.243c0.018-0.09,0.081-0.189,0.189-0.297
			c0.503-0.396,0.944-0.811,1.322-1.242s0.747-0.899,1.107-1.404v-0.216c0-0.107-0.019-0.197-0.054-0.27l-1.188-1.188
			c-1.08-0.756-1.62-1.422-1.62-1.998c0.288-0.324,0.585-0.647,0.892-0.972c0.305-0.324,0.548-0.575,0.729-0.756
			c0.216-0.252,0.378-0.433,0.486-0.54c0.107-0.108,0.18-0.18,0.216-0.216c0.071-0.108,0.152-0.225,0.243-0.352
			c0.089-0.126,0.17-0.243,0.243-0.351l-0.864-0.918c-0.54-0.144-0.811-0.612-0.811-1.404c0-0.54,0.108-0.972,0.324-1.296
			l-1.674-1.674c-0.756-0.504-1.359-1.135-1.809-1.891c-0.451-0.756-0.676-1.638-0.676-2.646c0-0.612,0.108-1.215,0.324-1.81
			c0.216-0.594,0.521-1.134,0.918-1.619C5.83,7.237,6.298,6.842,6.838,6.535c0.54-0.306,1.115-0.459,1.728-0.459h0.271
			c0.071,0,0.162,0.01,0.27,0.027C9.214,6.122,9.322,6.13,9.43,6.13c0.18,0.036,0.342,0.055,0.486,0.055c0.144,0,0.27,0,0.378,0
			c0.468,0,0.927,0.188,1.377,0.566c0.449,0.378,0.818,0.819,1.107,1.323l1.781,1.782c0.359,0.324,0.648,0.711,0.864,1.161
			s0.359,0.891,0.432,1.322c1.08-0.827,2.124-1.854,3.133-3.078c0.071-0.071,0.135-0.161,0.188-0.27s0.116-0.216,0.189-0.324
			c0.071-0.071,0.144-0.197,0.216-0.378c0.071-0.071,0.18-0.251,0.324-0.54c0.396-0.611,0.899-0.918,1.512-0.918
			c0.324,0,0.594,0.198,0.81,0.594v0.162l2.269,2.269C24.496,9.893,24.514,9.91,24.55,9.91z M10.023,46.63
			c0,0.721,0.225,1.359,0.676,1.917c0.449,0.558,1.053,0.837,1.809,0.837c0.611,0,1.151-0.09,1.62-0.27
			c0.504-0.756,0.791-1.224,0.864-1.404c0-0.324-0.181-0.621-0.54-0.891c-0.36-0.271-0.702-0.405-1.026-0.405
			c-0.9,0-1.386,0.667-1.458,1.998c-0.721,0-1.08-0.54-1.08-1.62c0-0.899,0.378-1.584,1.134-2.052
			c0.684-0.432,1.477-0.648,2.376-0.648c1.297,0,2.484,0.451,3.564,1.351c0.899,0.937,1.782,1.836,2.646,2.7
			c0.612,0,1.152-0.306,1.62-0.918c0.324-0.576,0.648-1.152,0.973-1.729c0.611-0.864,1.439-1.764,2.483-2.7
			c0.504-0.432,1.439-1.188,2.809-2.268c1.043-0.828,1.925-1.62,2.646-2.376c0.648-1.584,0.973-2.682,0.973-3.294
			c0-0.792-0.226-1.494-0.676-2.106c-0.45-0.611-1.071-0.918-1.862-0.918c-0.324,0-0.613,0.145-0.864,0.433
			c-0.252,0.288-0.378,0.612-0.378,0.972c0,0.792,0.287,1.188,0.864,1.188c0.396,0,0.683-0.233,0.863-0.701l0.162-0.54
			c0.612,0,0.918,0.521,0.918,1.565c0,0.648-0.405,1.494-1.215,2.538c-0.81,1.045-1.449,1.639-1.917,1.782h-0.108
			c-0.18-2.376-0.27-5.256-0.27-8.64c0-1.477,0-2.07,0-1.782c0.035-0.792,0.251-1.277,0.647-1.458
			c1.477,1.08,2.61,1.854,3.402,2.321c0.54,0.685,0.936,1.188,1.188,1.513v10.854c0,0.289-0.217,0.586-0.648,0.892
			s-0.647,0.585-0.647,0.837s0.233,0.45,0.701,0.594c0.973,0.36,1.979,1.099,3.024,2.214c0.035,0.072,0.288,0.505,0.756,1.296
			c0.324,0.648,0.648,0.973,0.972,0.973c0.217,0,0.379-0.073,0.486-0.217c1.62-1.979,2.844-3.438,3.672-4.374
			c0.468-0.467,0.954-0.899,1.458-1.296c0.792-0.684,1.188-1.188,1.188-1.512c0-0.216-0.181-0.324-0.54-0.324
			c-0.108,0-0.459,0.234-1.053,0.702c-0.595,0.469-0.945,0.721-1.054,0.756c-0.252,0-0.432-0.018-0.54-0.054
			c-0.828-0.792-1.368-1.422-1.62-1.89c-0.107-2.448-0.161-4.896-0.161-7.345v-2.592c0.756-0.756,1.35-1.296,1.781-1.62v-0.162
			c0-0.287-0.135-0.467-0.404-0.54c-0.271-0.071-0.532-0.125-0.783-0.162c-1.116-0.432-2.143-1.241-3.078-2.43v-0.162
			c1.188-1.367,2.43-2.052,3.726-2.052c1.116,0,1.674,0.343,1.674,1.026c0,0.647-0.198,1.099-0.594,1.35l-0.378-0.054
			c0-0.756-0.343-1.134-1.025-1.134c-0.469,0-0.702,0.378-0.702,1.134c0,0.721,0.287,1.152,0.863,1.296
			c1.908,0,2.862-0.72,2.862-2.16c0-1.188-0.756-1.998-2.268-2.43c-0.181-0.072-0.289-0.126-0.324-0.162v-0.054
			c0.756-0.757,1.134-1.206,1.134-1.351c0-0.216-0.181-0.324-0.54-0.324l-5.346,4.158c-0.216,0-0.54-0.197-0.972-0.594
			c0-0.18,0.594-0.756,1.781-1.729c1.548-1.223,2.718-2.303,3.511-3.239c1.223-1.513,1.836-2.934,1.836-4.267
			c0-1.403-0.396-2.573-1.188-3.51c-0.54-0.756-1.512-1.566-2.916-2.43c-1.261-0.756-2.214-1.314-2.862-1.674
			c-0.036-0.036-0.18-0.252-0.432-0.648c-0.145-0.324-0.307-0.486-0.486-0.486h-0.107c-0.721,0.829-1.261,1.458-1.62,1.891
			c-0.864,0.721-1.729,1.44-2.592,2.16c-0.756,0.576-1.674,1.025-2.754,1.35c-0.324,0.505-0.811,0.891-1.458,1.161
			c-0.648,0.27-1.045,0.531-1.188,0.783l-1.998,1.134h-0.054c-0.181-0.792-0.271-3.15-0.271-7.074
			c-0.072-0.108-0.162-0.162-0.27-0.162c-0.396,0-0.792,0.307-1.188,0.918c-0.288,0.469-0.576,0.937-0.863,1.404
			c-0.973,1.116-2.071,2.16-3.294,3.132c-0.648,0.469-1.261,0.9-1.836,1.296c-1.333,0.829-2.827,1.242-4.482,1.242
			c-1.009,0-1.872-0.396-2.592-1.188c-0.721-0.791-1.08-1.691-1.08-2.699c0-1.692,0.702-2.826,2.105-3.402
			c0.468-0.18,0.757-0.271,0.864-0.271c1.764,0,2.646,0.775,2.646,2.322c0,0.433-0.091,0.648-0.271,0.648
			c-0.107,0-0.198-0.09-0.27-0.271l-0.702-0.756L9.97,9.694c-0.864,0-1.296,0.36-1.296,1.08c0,1.116,0.54,1.674,1.62,1.674
			c0.72,0,1.313-0.252,1.782-0.756c0.467-0.504,0.702-1.134,0.702-1.891c0-0.611-0.262-1.277-0.783-1.998
			c-0.522-0.72-1.09-1.079-1.701-1.079c-0.216,0-0.513-0.019-0.891-0.055C9.024,6.635,8.745,6.616,8.565,6.616
			c-1.079,0-1.989,0.478-2.727,1.431c-0.738,0.954-1.107,1.99-1.107,3.105c0,1.512,0.576,2.727,1.729,3.645
			c1.151,0.918,2.52,1.377,4.104,1.377c0.396,0,0.999-0.116,1.81-0.351c0.81-0.233,1.341-0.351,1.593-0.351
			c0.216,0,0.531,0.153,0.945,0.459c0.413,0.306,0.621,0.566,0.621,0.782c0,2.449,0.044,6.094,0.135,10.936
			c0.089,4.842,0.135,8.487,0.135,10.935c0,0.54-0.243,0.945-0.729,1.215c-0.486,0.271-0.945,0.532-1.377,0.783
			C11.247,42.563,10.023,44.578,10.023,46.63z M9.052,37.72c0.108,0.073,0.45,0.505,1.026,1.297
			c0.396,0.504,0.918,0.756,1.565,0.756c0.612,0,1.152-0.225,1.62-0.675s0.702-0.945,0.702-1.485c0-0.432-0.135-0.846-0.405-1.242
			c-0.27-0.396-0.603-0.594-0.999-0.594c-0.576,0-0.863,0.252-0.863,0.756c0,0.721,0.413,1.08,1.241,1.08v0.27
			c0,0.289-0.153,0.54-0.459,0.756c-0.306,0.217-0.62,0.324-0.944,0.324c-0.973,0-1.458-0.665-1.458-1.998
			c0-1.08,1.476-3.041,4.428-5.886c0-0.251-0.54-0.756-1.62-1.512s-1.62-1.439-1.62-2.052c0-0.433,0.504-1.035,1.513-1.81
			c1.007-0.773,1.512-1.196,1.512-1.269c0-0.288-0.505-0.747-1.512-1.377c-1.009-0.63-1.513-1.161-1.513-1.594
			c0-0.216,0.072-0.503,0.216-0.863c0.144-0.359,0.217-0.648,0.217-0.864c0-0.612-0.162-1.161-0.486-1.647
			c-0.324-0.485-0.792-0.729-1.404-0.729c-0.828,0-1.242,0.432-1.242,1.296c0,0.612,0.271,0.918,0.811,0.918
			c0.575,0,0.989-0.306,1.242-0.918c0.18,0,0.27,0.145,0.27,0.432c0,0.864-0.432,1.854-1.296,2.971
			c-0.072,0.107-0.792,0.882-2.16,2.321c0,0.253,0.477,0.702,1.432,1.351c0.953,0.647,1.431,1.278,1.431,1.89v0.324
			c-0.685,1.045-1.549,2.017-2.592,2.916c-0.036,0.072-0.055,0.126-0.055,0.162c0,0.181,0.44,0.594,1.323,1.242
			c0.882,0.647,1.323,1.17,1.323,1.565v0.054c-0.324,0.36-0.612,0.738-0.864,1.135s-0.378,0.863-0.378,1.403V37.72z M9.16,14.771
			c0.144,0.036,0.342,0.054,0.594,0.054c0.216,0,0.432,0,0.648,0c0.251,0,0.485-0.035,0.701-0.108l-1.781-1.781
			c-0.108,0.396-0.162,0.81-0.162,1.241V14.771z M14.56,23.41c-0.072,0.145-0.107,0.234-0.107,0.271
			c0.144,0.216,0.251,0.414,0.323,0.594l0.271,0.216v-0.432c-0.036-1.044-0.054-1.962-0.054-2.755c0-0.827,0-1.601,0-2.321
			c-0.396,0.107-0.738,0.181-1.026,0.216c-0.288,0.036-0.522,0.054-0.702,0.054h-0.27l0.918,0.973c0-0.036-0.019-0.055-0.055-0.055
			v-0.054l0.162,0.162c0.504,0.576,0.756,1.296,0.756,2.16c0,0.181-0.019,0.342-0.054,0.485C14.686,23.068,14.632,23.23,14.56,23.41
			z M15.154,29.134c-0.433,0.324-0.702,0.631-0.811,0.918c0.288,0.253,0.504,0.54,0.648,0.864l0.162,0.216V29.134z M15.262,36.316
			c-0.107,0.107-0.216,0.216-0.324,0.324c-0.107,0.107-0.198,0.216-0.27,0.323l0.594,0.595V36.316z M16.72,39.502l1.242-1.242h0.216
			c1.368,0,2.573,0.343,3.618,1.026c0.468,0.36,1.386,1.225,2.754,2.592l-0.81,0.756c-1.729-1.331-2.791-2.105-3.187-2.321
			c-0.792-0.359-2.017-0.576-3.672-0.648L16.72,39.502z M19.366,37.019c0.611-0.684,1.655-1.422,3.132-2.215
			c0.756-0.359,1.134-0.594,1.134-0.701c0-0.036-0.226-0.217-0.675-0.54c-0.451-0.324-0.729-0.737-0.837-1.242
			c-0.108-1.944-0.145-3.528-0.108-4.752c-0.107-7.164-0.162-10.584-0.162-10.26v-1.242c0.036-0.216,0.333-0.477,0.892-0.783
			c0.558-0.306,0.962-0.459,1.215-0.459l0.216,0.108c0,2.592,0.071,6.75,0.216,12.474c0.108,5.437,0.162,9.612,0.162,12.528h-0.216
			c-0.937-1.224-2.179-2.016-3.727-2.376c-0.828-0.252-1.241-0.414-1.241-0.486V37.019z M21.85,19.738
			c-0.181-1.188-0.288-1.944-0.324-2.269H21.31C21.453,17.687,21.634,18.442,21.85,19.738z M22.93,48.521
			c0,0.396,0.144,0.594,0.433,0.594c0.107,0,0.396-0.36,0.863-1.08c0.612-0.791,1.242-1.404,1.891-1.836
			c0.936-0.72,1.998-1.08,3.186-1.08c0.359,0,0.737,0.127,1.134,0.378c0.396,0.252,0.595,0.559,0.595,0.918l-0.108,0.216
			c-0.216-0.18-0.612-0.27-1.188-0.27s-0.863,0.306-0.863,0.918c0,0.972,0.485,1.458,1.458,1.458c0.396,0,0.783-0.252,1.161-0.756
			s0.566-0.954,0.566-1.351c0-0.684-0.297-1.232-0.891-1.646s-1.233-0.621-1.917-0.621c-3.097,0-5.166,1.242-6.21,3.726
			C22.965,48.16,22.93,48.304,22.93,48.521z M23.038,33.13c0.035,0.073,0.126,0.181,0.27,0.324L23.038,33.13z M24.01,38.638
			c-0.036,0-0.054,0.02-0.054,0.055h-0.054c0.035,0,0.054,0.019,0.054,0.054h0.054V38.638z M25.09,16.012
			c0-0.72,0.018-1.313,0.054-1.781c0.324-0.396,0.702-0.612,1.135-0.648l0.216,0.271c0.251,8.1,0.378,16.813,0.378,26.136
			c0,0.145-0.153,0.343-0.459,0.594c-0.307,0.252-0.532,0.378-0.675,0.378h-0.055C25.287,27.641,25.09,19.325,25.09,16.012z
			 M25.63,14.986l0.324,0.378v-0.216l-0.324-0.378V14.986z M25.63,16.391l0.108-0.055l0.27-0.162c0-0.071-0.009-0.162-0.027-0.27
			c-0.019-0.108-0.026-0.197-0.026-0.271l-0.324-0.378v0.756V16.391z M26.062,18.064c-0.216,0.072-0.36,0.144-0.432,0.216
			c0.035,1.765,0.09,4.131,0.162,7.101c0.071,2.971,0.162,6.507,0.27,10.611l0.271,0.27c-0.036-3.203-0.072-6.309-0.108-9.314
			S26.134,20.98,26.062,18.064z M25.954,14.338c-0.073,0.036-0.117,0.063-0.135,0.081c-0.019,0.019-0.063,0.046-0.136,0.081
			l0.271,0.271V14.338z M26.332,37.234c-0.072,0.036-0.117,0.072-0.135,0.107c-0.019,0.037-0.063,0.073-0.136,0.108
			c0.036,0.469,0.055,0.918,0.055,1.35c0,0.433,0.018,0.883,0.054,1.351c0.108-0.036,0.162-0.09,0.162-0.162V37.234z M27.682,24.382
			l0.324-0.432c3.852-1.691,5.778-3.834,5.778-6.426c0-0.792-0.315-1.494-0.945-2.106c-0.63-0.611-1.323-0.918-2.079-0.918
			c-0.685,0-1.215,0.253-1.593,0.756c-0.378,0.505-0.567,1.08-0.567,1.729c0,0.468,0.144,0.9,0.433,1.296
			c0.287,0.396,0.665,0.594,1.134,0.594c0.864,0,1.296-0.449,1.296-1.35c0-0.72-0.324-1.08-0.972-1.08
			c-0.289,0-0.522,0.054-0.702,0.162l-0.108-0.055c0.144-0.791,0.648-1.188,1.512-1.188c0.433,0,0.811,0.207,1.135,0.621
			c0.323,0.414,0.485,0.855,0.485,1.323c0,1.836-1.512,3.654-4.536,5.453c-0.18,0.108-0.378,0.162-0.594,0.162l-0.107-0.054
			c-0.181-5.256-0.271-8.441-0.271-9.558c0-0.324,0.171-0.612,0.513-0.864s0.657-0.378,0.945-0.378c1.764,0,3.384,0.685,4.86,2.052
			c1.476,1.369,2.214,2.935,2.214,4.698c0,1.477-0.685,2.79-2.052,3.941c-0.505,0.433-1.494,1.072-2.971,1.917
			c-1.477,0.847-2.502,1.342-3.077,1.485l-0.055-0.107V24.382z M28.168,22.168c0.144-0.071,0.278-0.152,0.405-0.243
			c0.125-0.089,0.242-0.17,0.351-0.242c0-0.468,0-0.937,0-1.404s-0.019-0.918-0.054-1.351c-0.324-0.323-0.576-0.756-0.756-1.296
			c0,0.181,0.008,0.36,0.026,0.54c0.018,0.181,0.027,0.36,0.027,0.54V22.168z M28.222,24.599l0.54,0.594l0.054-0.055
			c0.036,0,0.072-0.018,0.108-0.054l-0.648-0.594L28.222,24.599z M28.222,25.084c0,0.073,0.009,0.127,0.027,0.162
			c0.018,0.036,0.026,0.091,0.026,0.162l0.324-0.162l-0.378-0.378V25.084z M29.032,24.868c0-0.144-0.01-0.27-0.027-0.378
			c-0.019-0.108-0.027-0.233-0.027-0.378c-0.107,0.072-0.27,0.145-0.485,0.216L29.032,24.868z M28.492,34.858
			c0,0.504,0,1.044,0,1.62c0,0.54,0.018,1.062,0.054,1.565c0.216-0.144,0.432-0.359,0.648-0.647c0-0.359-0.01-0.702-0.027-1.026
			c-0.019-0.324-0.027-0.647-0.027-0.972l0.864,0.863l-1.296-1.35c-0.072,0-0.117-0.009-0.135-0.027
			C28.555,34.867,28.527,34.858,28.492,34.858z M29.896,43.931h0.055l-0.973-0.973L29.896,43.931z M30.598,19.414h-0.162v0.864
			l0.108,0.162c0.071-0.072,0.135-0.135,0.188-0.189c0.055-0.054,0.117-0.116,0.189-0.188c-0.036-0.072-0.046-0.136-0.027-0.189
			c0.018-0.054,0.027-0.116,0.027-0.188L30.598,19.414z M32.866,21.952c-0.253,0-0.433-0.018-0.54-0.054
			c-0.469,0.432-1.063,0.882-1.782,1.35v0.972c0.791-0.467,1.431-0.863,1.917-1.188s0.801-0.54,0.945-0.648
			c0.432-0.359,0.773-0.72,1.025-1.08H34.27C33.981,21.736,33.514,21.952,32.866,21.952z M30.922,19.36
			c-0.145,0-0.252,0.019-0.324,0.054l0.324,0.271V19.36z M30.706,31.51c0.684,0.36,1.188,0.883,1.512,1.566l0.108,0.054v-1.728
			c-0.216-0.18-0.433-0.352-0.648-0.513c-0.216-0.162-0.45-0.333-0.702-0.514c-0.181,0.253-0.27,0.576-0.27,0.973V31.51z
			 M30.922,15.958c0.504,0.108,0.828,0.396,0.972,0.864l0.324,0.324l0.054-0.055l-0.054-0.107c0-0.035-0.019-0.09-0.054-0.162
			l-0.811-0.864c-0.036-0.035-0.09-0.054-0.162-0.054C31.084,15.904,30.993,15.923,30.922,15.958z M32.164,16.769
			c-0.181-0.433-0.451-0.702-0.811-0.811L32.164,16.769z M31.84,18.227h0.108v-0.108H31.84V18.227z M33.622,15.58
			c0.071,0.072,0.135,0.153,0.188,0.243c0.055,0.09,0.099,0.188,0.136,0.297l1.079,1.08c-0.107-0.396-0.306-0.828-0.594-1.296
			L33.622,15.58z M35.134,24.22l0.108,0.055h0.054l-0.108-0.108L35.134,24.22z M35.188,33.832c0,0.072,0.036,0.108,0.108,0.108
			L35.188,33.832z M38.536,25.895c-0.181,0.144-0.324,0.261-0.433,0.351c-0.107,0.091-0.198,0.171-0.27,0.243
			c0.071,0.072,0.144,0.126,0.216,0.162s0.144,0.09,0.216,0.162l0.378-0.217C38.571,26.309,38.536,26.075,38.536,25.895z
			 M41.02,29.134v-0.161l-1.134-1.135c0,0.073-0.036,0.108-0.107,0.108L41.02,29.134z M39.778,28.648
			c0.143,0.144,0.251,0.234,0.323,0.27L39.778,28.648z M40.75,24.004c-0.036,0.073-0.072,0.117-0.108,0.136s-0.072,0.045-0.107,0.08
			c0.144,0.073,0.287,0.253,0.432,0.54l0.054-0.054l0.217-0.162v-0.107C41.236,24.257,41.074,24.112,40.75,24.004z"/>
		<path d="M61.432,53.65c0-1.332,1.098-2.97,3.294-4.914c0.72-0.54,1.493-1.125,2.322-1.755c0.827-0.63,1.602-1.233,2.322-1.81
			c0.756-0.575,1.134-1.458,1.134-2.646V25.084c-0.073-0.071-0.091-0.107-0.055-0.107c-0.288-0.144-0.612-0.243-0.972-0.298
			c-0.36-0.054-0.756-0.099-1.188-0.135l-3.456,1.891l-0.055,0.054c0,0.721,0,1.584,0,2.592c0,1.009-0.019,2.196-0.054,3.564
			c-0.036,1.439-0.054,2.682-0.054,3.726c0,1.045,0,1.927,0,2.646v1.998c1.115,0.432,1.674,0.846,1.674,1.241
			c0,0.108-0.036,0.235-0.108,0.378c1.152,0.433,1.729,0.847,1.729,1.242c0,0.396-0.324,0.829-0.972,1.296
			c-0.145,0.108-0.324,0.235-0.54,0.378c-0.073,0.073-0.162,0.136-0.271,0.189s-0.198,0.117-0.27,0.188
			c-1.44,1.333-2.611,2.718-3.511,4.158l-0.054,0.055c-0.145,0.18-0.307,0.368-0.486,0.566c-0.181,0.197-0.432,0.297-0.756,0.297
			c-0.468,0-0.863-0.323-1.188-0.972c-0.073-0.145-0.127-0.262-0.162-0.351c-0.036-0.091-0.091-0.189-0.162-0.298h-0.108
			c-0.468,0-0.863-0.323-1.188-0.972c-0.216-0.432-0.433-0.81-0.648-1.134c-0.181-0.108-0.387-0.233-0.621-0.378
			c-0.234-0.144-0.513-0.306-0.837-0.486c-1.044-0.647-1.71-1.188-1.998-1.62v-0.216c-0.863-0.575-1.403-1.044-1.62-1.404v-0.54
			c0.181-0.071,0.342-0.161,0.486-0.27c0.144-0.108,0.306-0.233,0.486-0.378c0.071-0.035,0.162-0.108,0.27-0.216
			c0.18-0.18,0.342-0.333,0.486-0.459c0.144-0.126,0.288-0.261,0.432-0.405l1.08-1.08c0.359-0.504,0.54-1.331,0.54-2.484V31.24
			c-0.036-1.368-0.054-2.556-0.054-3.564c0-1.007,0-1.854,0-2.538v-7.613c0-0.288,0-0.558,0-0.811c0-0.251-0.019-0.467-0.054-0.647
			c-0.108-0.036-0.271-0.055-0.486-0.055c-0.289,0-0.522,0.019-0.702,0.055c-0.576-0.18-0.864-0.504-0.864-0.973
			c0-0.287,0.126-0.503,0.378-0.647c-0.072-0.035-0.216-0.054-0.432-0.054c-0.288,0-0.522,0.019-0.702,0.054
			c-0.576-0.18-0.864-0.504-0.864-0.972c0-0.396,0.379-0.738,1.135-1.026c0.396-0.216,0.845-0.459,1.35-0.729
			c0.504-0.27,1.134-0.584,1.89-0.944l3.187-2.376c0.251-0.18,0.53-0.378,0.837-0.595c0.306-0.216,0.656-0.467,1.053-0.756
			c2.735-1.583,5.347-2.376,7.83-2.376c1.08,0,1.926,0.181,2.538,0.54c1.296,0.864,2.269,1.729,2.916,2.592
			c1.691,1.369,2.538,2.7,2.538,3.996c0,0.829-0.27,1.566-0.81,2.215c-1.08,1.116-2.143,1.943-3.187,2.483
			c0.144,0.396,0.324,0.756,0.54,1.08c0.216-0.144,0.378-0.27,0.486-0.378l0.594,0.756c0.108,0.469,0.342,0.972,0.702,1.512
			c0.071,0.073,0.162,0.127,0.27,0.162c0.108,0.036,0.197,0.091,0.271,0.162c1.728,1.188,2.592,1.927,2.592,2.214v0.108
			c1.08,0.828,1.62,1.332,1.62,1.512c0,0.469-0.469,0.973-1.404,1.512c-0.54,0.289-0.81,0.486-0.81,0.595V40.96
			c0.611,0.396,0.918,0.756,0.918,1.08v0.108l0.647,0.432l-0.054-0.054c0.684,0.396,1.026,0.774,1.026,1.134
			c0,0.469-0.396,0.828-1.188,1.08c-2.521,0.647-6.03,2.664-10.53,6.048c-1.044,0.828-1.565,1.908-1.565,3.24
			c0.791-0.396,1.412-0.685,1.863-0.864c0.449-0.181,0.71-0.27,0.782-0.27c0.792,0,1.188,0.323,1.188,0.972
			c0,0.396-0.216,0.702-0.648,0.918c-0.181,0.071-0.522,0.233-1.025,0.486c-0.145,0.071-0.271,0.125-0.378,0.162
			c-0.108,0.035-0.235,0.089-0.378,0.161c0.035,0,0.071,0.009,0.107,0.027c0.035,0.018,0.072,0.027,0.108,0.027
			c0.791-0.396,1.412-0.685,1.862-0.864c0.45-0.181,0.711-0.27,0.783-0.27c0.792,0,1.188,0.323,1.188,0.972
			c0,0.396-0.216,0.702-0.648,0.918c-0.181,0.071-0.522,0.233-1.025,0.486c-0.181,0.071-0.352,0.152-0.514,0.242
			s-0.333,0.171-0.513,0.243l0.162-0.054c-0.829,0.684-2.143,1.565-3.942,2.646h-0.432c-0.54-0.36-1.171-0.72-1.891-1.08
			c-0.144-0.216-0.278-0.414-0.404-0.594c-0.127-0.181-0.226-0.36-0.297-0.54c-0.181-0.072-0.334-0.153-0.459-0.243
			c-0.127-0.09-0.279-0.171-0.459-0.242C61.953,55.648,61.432,54.441,61.432,53.65z M61.972,53.65c0,0.647,0.449,1.709,1.35,3.186
			c0.757,0.396,1.332,0.72,1.729,0.973h0.107c1.656-0.973,2.897-1.818,3.727-2.538c0.899-0.433,1.584-0.756,2.052-0.973
			c0.216-0.107,0.324-0.252,0.324-0.432c0-0.289-0.216-0.432-0.648-0.432c-0.072,0-0.918,0.378-2.538,1.134
			c-0.612,0-1.143-0.198-1.593-0.594c-0.45-0.397-0.675-0.9-0.675-1.513c0-1.584,0.594-2.826,1.782-3.726
			c4.644-3.456,8.208-5.508,10.691-6.156c0.54-0.144,0.811-0.324,0.811-0.54c0-0.144-0.253-0.368-0.756-0.675
			c-0.505-0.306-0.793-0.494-0.864-0.567c-0.432-0.54-0.738-0.989-0.918-1.35V24.112c0-0.324,0.368-0.692,1.106-1.107
			c0.738-0.413,1.107-0.746,1.107-0.999c0-0.107-0.792-0.702-2.376-1.781c-1.728-1.188-2.754-2.412-3.078-3.673l-0.162-0.216
			c-1.152,0.793-2.07,1.513-2.754,2.16c-3.42,2.376-5.922,3.87-7.506,4.482h-0.108L62.62,22.87v-9.504
			c0-1.08,0.521-2.322,1.565-3.726c0.899-1.008,1.62-1.764,2.16-2.269c0.756-0.791,1.836-1.188,3.24-1.188
			c1.043,0,2.133,0.414,3.267,1.241c1.134,0.829,1.701,1.747,1.701,2.755c0,0.612-0.396,1.152-1.188,1.619
			c-0.647,0.396-1.314,0.595-1.998,0.595c-0.504,0-1.079-0.162-1.728-0.486s-0.972-0.72-0.972-1.188v-0.161l0.756-0.811
			c0-0.504-0.181-0.756-0.54-0.756c-0.145,0-1.566,1.063-4.267,3.186c-0.072,0.073-0.107,0.235-0.107,0.486
			c0,0.756,0.558,1.387,1.674,1.89c0.899,0.397,1.782,0.595,2.646,0.595c2.159,0,4.229-1.044,6.21-3.132
			c0.432-0.468,0.647-1.08,0.647-1.836c0-1.439-1.188-2.952-3.563-4.536c-0.433-0.288-1.188-0.433-2.269-0.433
			c-2.412,0-4.914,0.756-7.506,2.269c-0.792,0.54-1.423,0.99-1.89,1.35l-3.187,2.376c-1.332,0.648-2.448,1.242-3.348,1.782
			c-0.54,0.181-0.811,0.343-0.811,0.486c0,0.216,0.09,0.359,0.271,0.432c1.439-0.144,2.411,0.108,2.916,0.756
			c0.359,0.505,0.54,1.458,0.54,2.862v7.613c0,1.369,0.018,3.402,0.054,6.103c0,2.7,0,4.734,0,6.102
			c0,1.261-0.216,2.196-0.647,2.809c-0.073,0.107-0.757,0.774-2.053,1.998c-0.468,0.36-0.828,0.63-1.08,0.81v0.054
			c0.217,0.324,0.801,0.757,1.756,1.297c0.953,0.54,1.574,0.937,1.862,1.188c0.684,0.648,1.125,1.099,1.323,1.35
			c0.197,0.253,0.44,0.702,0.729,1.351c0.216,0.432,0.449,0.647,0.701,0.647c0.217,0,0.414-0.117,0.595-0.351
			c0.18-0.234,0.305-0.388,0.378-0.459c0.936-1.439,2.105-2.826,3.51-4.158c0.359-0.251,0.72-0.504,1.08-0.756
			c0.504-0.359,0.756-0.647,0.756-0.864c0-0.144-0.54-0.432-1.62-0.863c-1.08-0.433-1.629-0.811-1.646-1.135
			c-0.019-0.323-0.027-1.277-0.027-2.861c0-1.404,0.018-3.528,0.054-6.372s0.055-4.968,0.055-6.372l0.27-0.324l3.618-1.944
			c2.376,0,3.888,0.883,4.536,2.646v17.496c0,1.332-0.451,2.358-1.351,3.078c-1.44,1.116-2.88,2.214-4.319,3.294
			C63.105,50.878,61.972,52.462,61.972,53.65z M70.018,18.118c0.144-0.144,0.288-0.278,0.432-0.405
			c0.144-0.125,0.306-0.261,0.486-0.404h-0.486c-0.937,0-1.89-0.217-2.861-0.648c-1.045-0.396-1.674-0.972-1.891-1.728
			c-0.288-0.144-0.576-0.324-0.863-0.54c-0.036,0.144-0.055,0.342-0.055,0.594v6.534c0.72-0.396,1.521-0.882,2.403-1.458
			c0.882-0.576,1.845-1.242,2.889-1.998L70.018,18.118z M74.014,10.181c0-0.252-0.072-0.559-0.216-0.919
			c-0.937-0.611-1.801-0.918-2.592-0.918c-0.613,0-1.188,0.091-1.729,0.271c0.324,0.216,0.486,0.666,0.486,1.35l-0.756,0.811v0.054
			c0.683-0.504,1.115-0.756,1.296-0.756c0.72,0,1.08,0.505,1.08,1.512l-0.271,0.271h0.054c0.504,0,1.08-0.18,1.729-0.54
			C73.707,10.955,74.014,10.577,74.014,10.181z"/>
		<path d="M94.425,56.512c-0.685,0-1.296,0.162-1.836,0.486c-0.433,0.288-0.838,0.521-1.216,0.702
			c-0.378,0.18-0.675,0.306-0.891,0.378c-0.252-0.072-0.459-0.171-0.621-0.297c-0.162-0.127-0.243-0.333-0.243-0.621
			c0-0.36,0.612-1.045,1.836-2.052c-0.072,0.071-0.153,0.116-0.242,0.135c-0.091,0.018-0.172,0.063-0.243,0.135
			c-0.433,0.288-0.837,0.521-1.215,0.702c-0.379,0.18-0.676,0.306-0.892,0.378c-0.252-0.072-0.459-0.171-0.621-0.297
			c-0.162-0.127-0.243-0.333-0.243-0.621c0-0.576,1.675-2.034,5.022-4.374c1.08-0.756,1.971-1.377,2.673-1.863
			c0.702-0.485,1.215-0.855,1.539-1.106c-0.145-0.072-0.279-0.145-0.405-0.216c-0.126-0.072-0.279-0.162-0.459-0.271
			c-1.188-0.611-2.105-1.07-2.754-1.377c-0.647-0.306-1.17-0.548-1.565-0.729c-0.505-0.217-0.864-0.352-1.08-0.405
			c-0.217-0.054-0.324-0.278-0.324-0.675c0-0.108,0.035-0.234,0.107-0.378l-0.323-0.162c-0.505-0.216-0.864-0.352-1.08-0.405
			s-0.324-0.278-0.324-0.675c0-0.324,0.378-0.792,1.134-1.404c0.144-0.071,0.271-0.162,0.378-0.27
			c0.18-0.144,0.315-0.261,0.405-0.352c0.09-0.089,0.171-0.152,0.243-0.188v-9.882c0-1.297,0-2.412,0-3.349
			c0-0.972-0.019-1.764-0.054-2.376l-0.108,0.108h0.054c-0.288,0.181-0.603,0.369-0.944,0.566c-0.343,0.198-0.766,0.298-1.27,0.298
			c-0.072-0.181-0.145-0.352-0.216-0.514c-0.072-0.162-0.108-0.314-0.108-0.459c0-0.287,0.324-0.81,0.973-1.565
			c-0.036,0-0.055,0.019-0.055,0.054h-0.054h0.054c-0.288,0.181-0.603,0.369-0.944,0.567c-0.343,0.198-0.766,0.297-1.27,0.297
			c-0.072-0.18-0.144-0.352-0.216-0.514s-0.108-0.314-0.108-0.459c0-0.54,1.152-1.907,3.456-4.104
			c0.576-0.575,1.17-1.161,1.782-1.755c0.612-0.595,1.206-1.161,1.782-1.701h1.134c0.324,0.54,0.737,1.08,1.242,1.62h0.378
			c0.18,0.288,0.369,0.559,0.567,0.81c0.197,0.253,0.404,0.505,0.621,0.756c0.216,0.181,0.432,0.352,0.647,0.514
			s0.432,0.333,0.648,0.513c0.071,0.072,0.449,0.27,1.134,0.594c0.359,0.181,0.656,0.334,0.891,0.459
			c0.234,0.127,0.387,0.262,0.459,0.405c0.108-0.108,0.252-0.197,0.433-0.271l0.485-0.161c0.396-0.108,0.801-0.234,1.215-0.378
			s0.729-0.342,0.945-0.595l2.052-2.105c0.036-0.036,0.099-0.136,0.189-0.297c0.09-0.162,0.225-0.44,0.405-0.837
			c0.432-0.864,0.827-1.297,1.188-1.297c0.504,0,0.953,0.378,1.351,1.135v-0.055l0.27,0.54c0.54,0.073,0.99,0.451,1.35,1.134v-0.054
			l0.54,0.973c0.217,0.18,0.414,0.306,0.595,0.378h-0.055l1.458,0.647c0.937,0.433,1.404,0.847,1.404,1.242
			c0,0.108-0.036,0.198-0.108,0.27l0.324,0.108c0.936,0.432,1.404,0.847,1.404,1.242c0,0.072-0.072,0.207-0.216,0.405
			c-0.145,0.198-0.36,0.44-0.648,0.729c-0.145,0.108-0.279,0.216-0.405,0.324c-0.126,0.107-0.225,0.198-0.297,0.27
			c-0.107,0.181-0.306,0.469-0.594,0.864c-0.288,0.396-0.685,0.954-1.188,1.674v1.891c0,2.88,0.018,5.247,0.054,7.101
			c0.035,1.854,0.089,3.249,0.162,4.185c0.18,0.289,0.432,0.559,0.756,0.811c0.18,0.181,0.332,0.351,0.459,0.513
			c0.126,0.162,0.278,0.333,0.459,0.514c1.331,1.439,1.998,2.897,1.998,4.373c0,3.313-2.017,6.138-6.048,8.479l-6.643,3.834
			c-0.144,0.144-0.323,0.306-0.54,0.486c-0.216,0.18-0.504,0.378-0.863,0.594h-0.162c-1.08,0-2.592-0.667-4.536-1.998
			C97.232,57.088,95.756,56.512,94.425,56.512z M92.805,54.353c1.367,0,2.951,0.621,4.752,1.862c1.8,1.242,3.203,1.863,4.212,1.863
			h0.054c0.575-0.396,0.973-0.721,1.188-0.972l6.695-3.889c3.853-2.232,5.778-4.896,5.778-7.991c0-1.332-0.612-2.664-1.836-3.996
			c-0.612-0.684-1.225-1.368-1.836-2.053c-0.145-1.763-0.216-5.579-0.216-11.447v-2.053c1.115-1.619,1.772-2.537,1.971-2.754
			c0.197-0.216,0.44-0.432,0.729-0.647c0.432-0.396,0.647-0.63,0.647-0.702c0-0.18-0.36-0.432-1.08-0.756
			c-0.504-0.216-0.99-0.433-1.458-0.648c-0.721-0.396-1.494-1.08-2.322-2.052c-0.216-0.396-0.432-0.773-0.647-1.134
			c-0.289-0.54-0.576-0.811-0.864-0.811c-0.145,0-0.378,0.324-0.702,0.973c-0.396,0.792-0.63,1.224-0.702,1.296l-2.052,2.105
			c-0.288,0.324-0.702,0.567-1.242,0.729s-1.044,0.315-1.512,0.459c-0.181,0.072-0.27,0.162-0.27,0.27
			c0,0.217,0.125,0.324,0.378,0.324c0.54,0,1.215,0.271,2.024,0.811c0.811,0.54,1.251,1.062,1.323,1.565
			c0.108,1.692,0.162,2.97,0.162,3.834c0.071,3.385,0.108,6.534,0.108,9.45v3.726c-0.829,0.685-1.495,1.171-1.998,1.458h-0.324
			c-0.685,0-1.872-0.503-3.564-1.512c-1.8-1.08-2.719-1.764-2.754-2.052c-0.036-0.288-0.054-0.864-0.054-1.729
			c0-1.188,0-2.97,0-5.346c-0.036-2.411-0.054-4.212-0.054-5.4v-1.728c0-0.432,0.332-1.008,0.999-1.728
			c0.665-0.72,1.232-1.135,1.7-1.242c0.252-0.036,0.514-0.081,0.783-0.136c0.271-0.054,0.405-0.206,0.405-0.459
			c0-0.071-0.378-0.297-1.134-0.675s-1.171-0.585-1.242-0.621c-1.585-1.08-2.935-2.447-4.05-4.104h-0.648
			c-1.152,1.08-2.286,2.179-3.402,3.294c-2.195,2.088-3.294,3.33-3.294,3.726c0,0.181,0.036,0.324,0.108,0.433
			c0.468,0,0.945-0.216,1.431-0.648c0.486-0.432,0.892-0.647,1.216-0.647c0.827,0,1.296,0.27,1.403,0.81
			c0.072,0.36,0.108,2.826,0.108,7.398v10.098c-0.072,0.108-0.486,0.45-1.242,1.026c-0.612,0.504-0.918,0.828-0.918,0.972
			c0,0.181,0.432,0.414,1.296,0.702s2.25,0.954,4.158,1.998c2.087,1.152,3.132,1.908,3.132,2.268c0,0.252-1.603,1.493-4.806,3.727
			c-3.205,2.231-4.807,3.545-4.807,3.941c0,0.216,0.09,0.342,0.271,0.378c0.287-0.107,0.918-0.45,1.89-1.025
			C91.273,54.532,91.976,54.353,92.805,54.353z M99.23,48.844c3.06-3.239,5.13-4.859,6.21-4.859c1.224,0,2.33,0.522,3.321,1.565
			c0.989,1.045,1.484,2.179,1.484,3.402c0,1.08-0.423,2.114-1.269,3.105c-0.847,0.989-1.791,1.484-2.835,1.484
			c-1.225,0-2.476-0.36-3.753-1.08c-1.278-0.721-2.241-1.62-2.89-2.7c-0.18-0.288-0.27-0.539-0.27-0.756V48.844z M105.44,28.54
			c0-0.827-0.054-2.033-0.162-3.618c-0.432-0.287-0.828-0.432-1.188-0.432c-0.469,0-0.757-0.144-0.864-0.432
			c-0.181,0.216-0.405,0.351-0.675,0.404c-0.271,0.055-0.532,0.1-0.783,0.136c-0.289,0.036-0.774,0.396-1.458,1.079
			c-0.54,0.613-0.811,1.063-0.811,1.351v1.728c0,0.613,0,1.369,0,2.269c0,0.863,0.019,1.908,0.055,3.132v5.346v1.134
			c0.144,0.073,0.287,0.154,0.432,0.243c0.144,0.091,0.306,0.189,0.486,0.297c1.62,0.973,2.718,1.458,3.294,1.458h0.162
			c0.18-0.107,0.413-0.261,0.702-0.459c0.287-0.197,0.594-0.44,0.918-0.729V37.99c0-1.368-0.01-2.763-0.027-4.185
			c-0.019-1.422-0.046-2.907-0.081-4.455V28.54z M109.706,48.952c0-0.792-0.216-1.512-0.647-2.16
			c-0.648-0.432-1.314-0.647-1.998-0.647c-0.9,0-2.79,1.494-5.67,4.481c0,0.035,0.071,0.197,0.216,0.486
			c0.035,0.071,0.071,0.135,0.108,0.188c0.035,0.055,0.071,0.117,0.107,0.189c0.648,0.468,1.351,0.837,2.106,1.107
			c0.756,0.27,1.493,0.404,2.214,0.404c0.864,0,1.655-0.432,2.376-1.296C109.31,50.806,109.706,49.888,109.706,48.952z M102.2,21.25
			c-0.036,0-0.072,0.019-0.107,0.054l0.054-0.054H102.2z M103.389,23.141c-0.145-0.072-0.234-0.108-0.271-0.108l0.162,0.162h0.054
			C103.334,23.159,103.353,23.141,103.389,23.141z M103.767,22.87l-0.054,0.054c0.035-0.035,0.071-0.054,0.107-0.054H103.767z
			 M108.734,54.406c0.108-0.072,0.225-0.135,0.351-0.189c0.126-0.054,0.243-0.135,0.352-0.242L108.734,54.406z"/>
		<path d="M145.995,49.492c-0.54-0.036-0.937-0.432-1.188-1.188l-1.134-1.188c-0.072-0.071-0.162-0.152-0.27-0.243
			c-0.108-0.089-0.217-0.188-0.324-0.297l-0.648-0.324c-0.181-0.071-0.324-0.144-0.432-0.216c-0.108-0.071-0.234-0.144-0.378-0.216
			l0.054,0.054c-0.685-0.396-1.08-0.846-1.188-1.35c-0.037-0.036-0.073-0.055-0.108-0.055l-0.054-0.054l-0.055,0.216
			c-0.323,0.289-0.701,0.621-1.134,0.999c-0.432,0.378-0.918,0.819-1.458,1.323c-0.181,0.181-0.378,0.37-0.594,0.567
			c-0.216,0.198-0.414,0.387-0.594,0.566c-0.073,0.108-0.154,0.207-0.243,0.297c-0.091,0.09-0.172,0.225-0.243,0.405
			c-0.072,0.072-0.162,0.189-0.27,0.352c-0.108,0.161-0.217,0.314-0.324,0.459v-0.055c-0.612,0.936-1.152,1.404-1.62,1.404
			c-0.396,0-0.811-0.36-1.242-1.08c-0.145-0.288-0.252-0.468-0.324-0.54h-0.054c-0.396,0-0.81-0.36-1.242-1.08
			c-0.107-0.181-0.188-0.332-0.243-0.459c-0.054-0.126-0.117-0.225-0.188-0.297c-0.289-0.251-0.586-0.513-0.892-0.783
			c-0.306-0.27-0.657-0.566-1.053-0.891l0.216,0.054c-0.072-0.035-0.144-0.071-0.216-0.107s-0.145-0.072-0.216-0.108
			c-0.288-0.071-0.486-0.144-0.594-0.216h0.054c-0.576-0.359-0.864-0.737-0.864-1.134v-0.162c-0.072,0-0.144-0.036-0.216-0.108
			c-0.288-0.071-0.486-0.144-0.594-0.216h0.054c-0.576-0.359-0.864-0.737-0.864-1.134c0-0.433,0.468-1.116,1.404-2.053
			c0.936-0.899,1.512-1.655,1.729-2.268l-0.055,0.162V25.462c-0.072,0-0.126-0.008-0.162-0.026s-0.072-0.027-0.107-0.027
			c-0.253,0-0.486,0.09-0.702,0.27c-0.216,0.181-0.414,0.397-0.594,0.648c-0.073,0.072-0.154,0.162-0.243,0.27
			c-0.091,0.108-0.172,0.199-0.243,0.271h-0.378c-0.685,0-1.026-0.342-1.026-1.026c0-0.503,0.271-1.08,0.811-1.728
			c-0.145,0.107-0.324,0.307-0.54,0.594c-0.072,0.072-0.153,0.162-0.243,0.271c-0.09,0.107-0.171,0.198-0.243,0.27h-0.378
			c-0.685,0-1.026-0.342-1.026-1.026c0-0.611,0.414-1.331,1.242-2.159l5.887-5.887h0.378c0.071,0,0.396,0.235,0.972,0.702
			c0.575,0.469,1.367,1.171,2.376,2.106c1.8,1.656,3.186,2.483,4.158,2.483l-0.162,0.055c0.288-0.072,0.585-0.189,0.891-0.352
			s0.603-0.332,0.892-0.513c1.007-0.504,1.745-1.062,2.214-1.674c0.144-0.18,0.278-0.369,0.405-0.567
			c0.125-0.197,0.26-0.405,0.404-0.621c0.144-0.216,0.278-0.423,0.405-0.621c0.126-0.197,0.261-0.404,0.405-0.621h-0.055
			c0.252-0.432,0.612-0.647,1.08-0.647c0.359,0,0.954,0.54,1.782,1.62v0.054c0.359,0.145,0.899,0.667,1.62,1.566
			c0.035,0.072,0.071,0.126,0.108,0.162c0.035,0.036,0.071,0.09,0.107,0.161c0.18,0.181,0.413,0.343,0.702,0.486
			c1.188,0.864,2.538,1.296,4.05,1.296c2.231-1.08,3.869-2.663,4.914-4.752c0.575-0.432,0.953-0.647,1.134-0.647
			c0.396,0,0.811,0.27,1.242,0.81l0.648,0.81l0.107,0.108c0.252,0.108,0.54,0.343,0.864,0.702l0.27,0.378l1.242,1.134
			c0.468,0.253,0.936,0.505,1.404,0.756h-0.054c0.972,0.505,1.458,0.991,1.458,1.458v0.055l0.216,0.107h-0.054
			c0.972,0.505,1.458,0.991,1.458,1.458c0,0.54-0.883,1.369-2.646,2.484l0.108-0.054c-0.036,0.036-0.091,0.09-0.162,0.161
			c-0.073,0.073-0.162,0.145-0.271,0.217c0.072-0.036,0.045-0.019-0.081,0.054s-0.225,0.145-0.297,0.216
			c-0.145,0.108-0.216,0.216-0.216,0.324v14.688c0.035,0,0.233-0.18,0.594-0.54c0.612-0.611,1.188-0.918,1.729-0.918
			c0.756,0,1.134,0.343,1.134,1.026c0,0.252-0.162,0.559-0.486,0.918c0.324-0.216,0.648-0.324,0.973-0.324
			c0.756,0,1.134,0.343,1.134,1.026c0,0.54-0.918,1.53-2.754,2.97c-0.937,0.756-1.647,1.332-2.133,1.729
			c-0.486,0.396-0.783,0.647-0.892,0.756l-1.782,2.105l-0.54,0.217c-0.359,0-0.99-0.559-1.89-1.675
			c-0.468-0.216-1.099-0.863-1.89-1.943l-1.026-0.756c-0.288-0.144-0.64-0.405-1.053-0.783c-0.414-0.378-0.712-0.711-0.892-0.999
			c-0.359-0.252-0.729-0.567-1.106-0.945s-0.567-0.71-0.567-0.999l0.108-0.594c0.324-0.18,0.656-0.423,0.999-0.729
			c0.342-0.305,0.647-0.629,0.918-0.972c0.27-0.342,0.494-0.692,0.675-1.053c0.18-0.359,0.271-0.684,0.271-0.973V26.596
			c0-0.035-0.01-0.107-0.027-0.216c-0.019-0.107-0.027-0.251-0.027-0.432c-1.08-0.504-1.872-0.756-2.376-0.756
			c-0.36,0-0.972,0.27-1.836,0.81c-0.721,0.396-1.08,0.721-1.08,0.973s0.009,0.612,0.027,1.079c0.018,0.469,0.027,1.063,0.027,1.782
			c0,0.829,0,1.818,0,2.971c0,1.116,0.018,2.395,0.054,3.834c-0.036,0.288-0.054,0.594-0.054,0.918c0,0.288,0,0.612,0,0.972
			c0,0.396,0,0.81,0,1.242c0,0.396,0.018,0.846,0.054,1.35v0.108c0.396,0.288,0.692,0.504,0.891,0.647
			c0.197,0.145,0.297,0.289,0.297,0.433v0.27c0.504,0.324,0.899,0.586,1.188,0.783c0.287,0.198,0.432,0.387,0.432,0.567
			c0,0.72-0.324,1.152-0.972,1.296c-1.261,1.152-1.963,1.836-2.106,2.052c-0.432,0.396-0.774,0.801-1.025,1.215
			c-0.253,0.413-0.469,0.818-0.648,1.215v0.108c-0.036,0.287-0.107,0.575-0.216,0.864c-0.108,0.287-0.396,0.432-0.864,0.432
			c-0.612,0-1.044-0.396-1.296-1.188L145.995,49.492z M145.239,47.98c0.216,0.647,0.503,0.972,0.863,0.972
			c0.252,0,0.396-0.108,0.433-0.324c0.035-0.216,0.071-0.432,0.107-0.647c0.324-0.828,0.918-1.71,1.782-2.646
			c0.108-0.144,0.882-0.899,2.322-2.268c0.432-0.072,0.647-0.324,0.647-0.756c0-0.036-0.459-0.359-1.377-0.973
			c-0.918-0.611-1.396-1.205-1.431-1.781c-0.036-2.017-0.036-3.546,0-4.591c-0.072-5.436-0.108-8.64-0.108-9.611
			c0-0.433,0.459-0.927,1.377-1.485c0.918-0.558,1.611-0.837,2.079-0.837c0.648,0,1.513,0.27,2.593,0.81
			c1.223,0.577,1.854,1.135,1.89,1.675c0.071,0.756,0.108,1.17,0.108,1.241V38.26c0,0.685-0.316,1.45-0.945,2.296
			c-0.631,0.846-1.288,1.449-1.971,1.809l-0.055,0.324c0,0.216,0.234,0.513,0.702,0.891s0.828,0.604,1.08,0.675l2.106,1.513
			c1.223,1.836,1.998,2.754,2.321,2.754l0.271-0.108l1.674-1.998c0.144-0.18,1.188-1.044,3.132-2.592
			c1.691-1.368,2.538-2.214,2.538-2.538s-0.198-0.486-0.594-0.486c-0.433,0-0.883,0.243-1.351,0.729
			c-0.468,0.485-0.792,0.729-0.972,0.729c-0.288,0-0.721-0.162-1.296-0.485c-0.576-0.324-0.864-0.612-0.864-0.864V25.408
			c0-0.288,0.144-0.54,0.433-0.756c0.467-0.359,0.72-0.558,0.756-0.594c1.583-0.973,2.376-1.656,2.376-2.053
			c0-0.251-0.378-0.575-1.134-0.972c-0.938-0.504-1.44-0.791-1.513-0.864l-2.538-2.376c-0.216-0.287-0.432-0.558-0.647-0.81
			c-0.324-0.396-0.594-0.594-0.811-0.594c-0.072,0-0.306,0.144-0.702,0.432c-1.116,2.196-2.861,3.853-5.237,4.968
			c-1.656,0-3.15-0.468-4.482-1.404c-0.864-0.575-1.746-1.421-2.646-2.537c-0.721-0.937-1.171-1.404-1.351-1.404
			c-0.216,0-0.414,0.126-0.594,0.378c-0.54,0.828-1.08,1.656-1.62,2.484c-0.54,0.684-1.332,1.296-2.376,1.836
			c-0.505,0.288-1.134,0.576-1.89,0.863c-1.08,0-2.584-0.882-4.509-2.646c-1.927-1.764-2.926-2.646-2.997-2.646h-0.162l-5.725,5.725
			c-0.72,0.721-1.08,1.314-1.08,1.781c0,0.324,0.162,0.486,0.486,0.486h0.162c0.288-0.324,0.585-0.647,0.891-0.972
			s0.676-0.486,1.107-0.486c0.468,0,0.989,0.153,1.566,0.459c0.575,0.307,0.863,0.675,0.863,1.107V38.53
			c-0.252,0.756-0.863,1.584-1.836,2.484c-0.828,0.792-1.242,1.35-1.242,1.674c0,0.216,0.198,0.432,0.595,0.647
			c0.287,0.145,0.575,0.289,0.863,0.433c1.548,1.332,2.682,2.357,3.402,3.077c0.071,0.073,0.306,0.451,0.702,1.135
			c0.324,0.54,0.575,0.81,0.756,0.81c0.288,0,0.684-0.378,1.188-1.134c0.359-0.504,0.72-1.008,1.079-1.512
			c1.656-1.584,2.916-2.754,3.78-3.511l0.054-0.107c0-0.216-0.135-0.359-0.404-0.433c-0.271-0.071-0.532-0.143-0.783-0.216
			c-1.152-0.791-1.944-1.422-2.376-1.89l-0.162-0.378V24.868c0.359-0.396,0.747-0.783,1.161-1.161
			c0.413-0.378,0.872-0.566,1.377-0.566c2.16,0,3.996,0.828,5.508,2.483c0.035,0.145,0.072,0.252,0.108,0.324v12.689
			c0,1.009-0.937,2.16-2.809,3.456c-0.323,0-0.485,0.162-0.485,0.486c0,0.469,0.305,0.864,0.918,1.188
			c0.467,0.252,0.953,0.504,1.458,0.756c0.72,0.612,1.134,0.972,1.242,1.08L145.239,47.98z M138.705,42.851
			c0.035,0.036,0.071,0.063,0.107,0.081s0.072,0.045,0.108,0.08c-0.036-0.107-0.054-0.251-0.054-0.432
			c0-0.647,0.287-0.989,0.863-1.026c1.62-1.115,2.431-2.087,2.431-2.916v-12.42c-1.045-0.611-2.196-0.918-3.456-0.918
			c-0.36,0-0.712,0.154-1.053,0.459c-0.343,0.307-0.657,0.64-0.945,0.999V40.96l0.647,0.486c0.108,0,0.198,0.019,0.271,0.054
			l-0.054-0.054c0.323,0.072,0.611,0.181,0.863,0.324s0.378,0.432,0.378,0.863L138.705,42.851z"/>
		<path d="M176.828,43.769c-1.08-0.54-1.62-1.008-1.62-1.404c0-0.288,0.162-0.594,0.486-0.918c0.72-0.18,1.323-0.504,1.81-0.972
			c0.485-0.468,0.872-1.026,1.16-1.675v-5.886c0-0.359,0-0.791,0-1.296c0-0.504-0.019-1.098-0.054-1.782
			c-0.036-0.72-0.054-1.331-0.054-1.836c0-0.504,0-0.936,0-1.296c0-0.071-0.01-0.152-0.027-0.243
			c-0.019-0.089-0.026-0.17-0.026-0.243v-0.054h-0.324c-0.289,0-0.559-0.099-0.811-0.297c-0.252-0.197-0.378-0.494-0.378-0.891
			l0.162-0.271l-0.27-0.162h-0.324c-0.289,0-0.559-0.099-0.811-0.297c-0.252-0.197-0.378-0.494-0.378-0.891l0.433-0.648
			c0.936-0.18,2.295-0.675,4.077-1.484c1.781-0.811,3.969-1.972,6.561-3.483c0.216-0.18,0.45-0.359,0.702-0.54
			c0.144-0.071,0.27-0.152,0.378-0.243c0.108-0.089,0.251-0.207,0.432-0.351c1.008-0.684,1.692-1.026,2.053-1.026
			c0.503,0,0.918,0.324,1.241,0.972l0.271,0.648h0.107c0.504,0,0.918,0.324,1.242,0.972l4.86,10.422
			c0.251,0.217,0.378,0.522,0.378,0.918c0,0.073-0.01,0.154-0.027,0.243c-0.019,0.091-0.081,0.189-0.188,0.297L197.24,30.7
			l-7.02,4.266c-0.396,0.181-0.873,0.451-1.432,0.811c-0.559,0.36-1.197,0.81-1.917,1.35c0,0.289,0.009,0.522,0.027,0.702
			c0.018,0.181,0.063,0.343,0.135,0.486l-0.162,0.162v2.268c0.217,0.145,0.396,0.252,0.54,0.324
			c1.439,0.937,2.376,1.404,2.809,1.404c0.216,0,0.827-0.45,1.836-1.351c1.224-1.115,2.105-1.674,2.646-1.674
			c0.756,0,1.135,0.343,1.135,1.026c0,0.396-0.145,0.684-0.433,0.863c-0.107,0.108-0.198,0.181-0.27,0.216
			c0.467-0.323,0.863-0.485,1.188-0.485c0.756,0,1.134,0.343,1.134,1.025c0,0.397-0.144,0.685-0.432,0.864
			c-0.972,0.829-2.169,1.872-3.591,3.132c-1.423,1.261-3.087,2.772-4.995,4.536c-0.108,0.072-0.198,0.108-0.27,0.108
			c-0.073,0-0.145,0.018-0.217,0.054v0.054c-0.468,0-0.972-0.234-1.512-0.701h0.054c-0.072-0.073-0.144-0.136-0.216-0.189
			s-0.145-0.117-0.216-0.189c-0.216-0.107-0.378-0.252-0.486-0.432l-3.294-2.322c-0.216-0.144-1.17-0.558-2.861-1.241
			c-1.729-0.684-2.593-1.278-2.593-1.782V43.769z M175.748,42.364c0,0.252,0.757,0.685,2.269,1.296
			c1.764,0.721,2.754,1.152,2.97,1.296l3.349,2.376c0.287,0.252,0.575,0.505,0.863,0.756c0.433,0.396,0.737,0.595,0.918,0.595
			c0.036,0,0.162-0.037,0.378-0.108c3.78-3.491,6.643-6.048,8.586-7.668c0.144-0.108,0.217-0.252,0.217-0.432
			c0-0.324-0.198-0.486-0.595-0.486c-0.36,0-1.106,0.505-2.24,1.512c-1.135,1.009-1.882,1.512-2.241,1.512
			c-0.433,0-1.458-0.503-3.078-1.512c-1.62-1.007-2.43-1.655-2.43-1.943v-2.916l0.054-0.055c-0.036-0.107-0.054-0.558-0.054-1.35
			c1.476-1.115,2.646-1.872,3.51-2.269l7.128-4.374c0.216-0.18,0.396-0.359,0.54-0.54c0.035-0.071,0.054-0.125,0.054-0.161
			c0-0.252-0.072-0.433-0.216-0.54l-4.968-10.584c-0.216-0.433-0.469-0.648-0.756-0.648c-0.289,0-0.864,0.307-1.729,0.918
			c-1.08,0.829-1.639,1.242-1.674,1.242c-5.148,2.916-8.64,4.555-10.476,4.914l-0.217,0.324c0,0.181,0.09,0.315,0.271,0.404
			c0.18,0.091,0.359,0.117,0.54,0.081h0.27l1.404,0.702c0.468,0.252,0.702,0.918,0.702,1.998c0,0.685,0.018,1.72,0.054,3.105
			c0.035,1.386,0.054,2.421,0.054,3.104v5.94c-0.576,1.584-1.674,2.628-3.294,3.132C175.803,42.094,175.748,42.221,175.748,42.364z
			 M184.335,21.628c0-0.899,0.558-1.35,1.674-1.35c0.216,0,0.359,0.072,0.432,0.216l4.158,9.18c0,0.36-0.847,1.026-2.538,1.998
			c-1.045,0.576-2.106,1.153-3.187,1.729h-0.161C184.46,31.24,184.335,27.316,184.335,21.628z M186.494,23.248
			c0,1.801,0,3.421,0,4.86c0,1.44,0.036,2.7,0.108,3.779c0.575-0.251,0.972-0.467,1.188-0.647c1.332-0.756,2.088-1.242,2.269-1.458
			l-3.294-7.128C186.584,22.762,186.494,22.961,186.494,23.248z"/>
	</g>
</g>
<g id="categories">
</g>
<g id="tits">
</g>
<g id="dicks">
</g>
<g id="questions">
</g>
<g id="double_hands">
</g>
<g id="rewind">
</g>
<g id="Cryptkeeper">
</g>
<g id="Take_2_and_Redo">
</g>
<g id="Embryo">
</g>
<g id="I_am_Groot">
</g>
<g id="Mini_Me">
</g>
<g id="Ditto_1_">
</g>
<g id="reverse">
</g>
</svg>
