<?xml version="1.0" encoding="utf-8"?>
<!-- Generator: Adobe Illustrator 16.0.0, SVG Export Plug-In . SVG Version: 6.00 Build 0)  -->
<!DOCTYPE svg PUBLIC "-//W3C//DTD SVG 1.1//EN" "http://www.w3.org/Graphics/SVG/1.1/DTD/svg11.dtd">
<svg version="1.1" xmlns="http://www.w3.org/2000/svg" xmlns:xlink="http://www.w3.org/1999/xlink" x="0px" y="0px"
	 width="209.759px" height="62.361px" viewBox="0 0 209.759 62.361" enable-background="new 0 0 209.759 62.361"
	 xml:space="preserve">
<g id="Layer_1">
</g>
<g id="Blindman">
</g>
<g id="Compliments">
</g>
<g id="HAT">
</g>
<g id="speech">
</g>
<g id="TREX_ARMS">
</g>
<g id="slim_shady">
</g>
<g id="TIMEOUT">
</g>
<g id="Truth_or_Dare">
</g>
<g id="ARM_WRESTLE">
</g>
<g id="musical_chairs">
</g>
<g id="never_have_i_ever">
</g>
<g id="Trivia">
</g>
<g id="Drink_Pulling">
</g>
<g id="Sharing_is_Caring">
</g>
<g id="Not_It">
</g>
<g id="Cocktail_of_Doom">
</g>
<g id="Heads_up">
</g>
<g id="Archenemy">
</g>
<g id="battle_of_the_sexes">
</g>
<g id="one_must_drink">
</g>
<g id="rainbow_connection">
</g>
<g id="social_drinking">
</g>
<g id="Spin_the_bottle">
</g>
<g id="accents">
</g>
<g id="Slap">
</g>
<g id="rub">
</g>
<g id="down_the_hatch">
</g>
<g id="rubiks_cube">
</g>
<g id="bar_tender">
</g>
<g id="codenames">
</g>
<g id="hand_switch">
</g>
<g id="make_a_rule">
</g>
<g id="no_guts_no_glory">
</g>
<g id="pass">
</g>
<g id="santa">
</g>
<g id="snake_eyes">
</g>
<g id="bodyguard">
</g>
<g id="threeman">
</g>
<g id="_x32__truths_and_a_lie">
</g>
<g id="cray_cray_cat_lady">
</g>
<g id="siblings">
</g>
<g id="later">
</g>
<g id="waterfall">
</g>
<g id="cheers">
</g>
<g id="rhyme">
</g>
<g id="categories">
	<g>
		<path d="M30.639,8.064c0.258,0.047,0.492,0.146,0.703,0.299l0.105,0.088l0.738-0.035l-0.229,0.158l0.281,0.352l0.158,0.422
			l-0.51-0.105c0.117,0.152,0.246,0.24,0.387,0.264c0.105,0.094,0.164,0.211,0.176,0.352c-0.07,0.176-0.193,0.34-0.369,0.492
			c0.117,0.176,0.199,0.404,0.246,0.686c-0.012,0.152,0.041,0.322,0.158,0.51l-0.334,0.141l0.246,0.615l0.264,1.441l0.035,0.686
			l-0.352,0.229l0.334-0.07l0.088,0.176l-0.176,0.58l0.369,3.48l-0.123,0.158l-0.246,0.141c0.141,0.082,0.27,0.205,0.387,0.369
			l0.07,0.422l-0.123,0.158l0.141,0.598l-0.141,0.246l0.158,0.598l0.475,4.412l0.158,0.352l-0.299-0.193l-0.018,0.246
			c0.059,0.281,0.094,0.592,0.105,0.932c0.105,0.105,0.164,0.223,0.176,0.352l-0.07-0.264l-0.281,0.492l0.193,0.193
			c0.035,0.188,0.047,0.41,0.035,0.668l-0.123,0.246l0.141,0.598l-0.141,0.246c0.023,0.246,0.1,0.527,0.229,0.844l0.105,0.932
			l-0.211,1.002l0.281,0.281l0.018,0.914l0.176,0.352c-0.141,0.035-0.223,0.111-0.246,0.229l0.035,0.686l-0.141,0.246l0.053,0.58
			c0.164,0.223,0.311,0.486,0.439,0.791l-0.492,0.563l-0.053,0.492c0.094-0.082,0.205-0.129,0.334-0.141l0.07,0.334l-0.229,0.07
			l0.088,0.176l0.018,0.844l0.492,0.369l-0.387,0.65c-0.176,0.117-0.299,0.252-0.369,0.404l0.475,0.615l0.158,0.352
			c-0.07-0.035-0.129-0.1-0.176-0.193l-0.141,0.158l-0.158-0.334c-0.152,0.129-0.246,0.287-0.281,0.475l-0.545,0.229l0.123-0.246
			l-0.879,0.352c-0.082-0.023-0.146-0.082-0.193-0.176c-0.293,0.094-0.621,0.158-0.984,0.193l-5.168,0.492
			c-0.316,0.023-0.674,0.082-1.072,0.176c-0.34-0.012-0.662,0.023-0.967,0.105c-0.34-0.012-0.662,0.023-0.967,0.105l-0.316-0.105
			l-0.756,0.123h-1.072L19.74,43.01l-0.844,0.018l-0.193-0.264l0.316,0.105l0.123-0.158l-0.422-0.105l-0.633,0.035l-0.545,0.123
			l0.141-0.316l-0.105-0.088c-0.094-0.246-0.135-0.504-0.123-0.773l-0.229-0.861c0.012-0.223-0.029-0.475-0.123-0.756
			c-0.012-0.234-0.094-0.463-0.246-0.686c-0.281-0.035-0.557-0.111-0.826-0.229c-0.188-0.211-0.34-0.445-0.457-0.703L15.24,37.49
			l-0.352-8.35l0.141-0.246l0.246-6.047l-1.775-11.9l-0.035-0.668l0.141-0.246l0.984-0.281l13.781-1.424l1.072-0.176
			C29.83,8.152,30.229,8.123,30.639,8.064z M14.309,10.332l0.035-0.176h-0.105L14.309,10.332z M14.414,11.422l0.018-0.158h-0.105
			L14.414,11.422z M14.379,10.754l0.07,0.334l0.141-0.316L14.379,10.754z M15.082,12.055c0.012,0.082,0.076,0.146,0.193,0.193
			C15.252,12.189,15.188,12.125,15.082,12.055z M15.152,18.119l0.193,0.264l0.035-0.334l-0.105-0.088L15.152,18.119z M24.012,13.074
			l-2.355,0.105l-0.773,0.369l-0.773,0.105l-0.879,0.369c-0.211,0.141-0.41,0.322-0.598,0.545c-0.27,0.059-0.533,0.182-0.791,0.369
			c-0.211,0.141-0.469,0.234-0.773,0.281l-0.264,0.58c-0.234,0.059-0.393,0.188-0.475,0.387c-0.059,0.258-0.158,0.533-0.299,0.826
			l-0.281,0.563l-0.211,1.002c-0.082,0.188-0.146,0.404-0.193,0.65l0.193,0.264l-0.141,0.246l1.652,16.857
			c0,0.234,0.041,0.492,0.123,0.773l0.053-0.51c0.105,0.094,0.164,0.211,0.176,0.352c0.023,0.223,0.111,0.422,0.264,0.598
			l0.492,0.387l-0.475,0.299l0.299,0.193l-0.035,0.334c0.223-0.035,0.41-0.135,0.563-0.299c0.117,0.035,0.182,0.094,0.193,0.176
			l0.615,0.211l0.492,0.457l0.545-0.229c0.012,0.059,0.076,0.123,0.193,0.193l1.74,0.703l1.881,0.299h0.211v-0.07l0.299,0.176
			l1.512-0.141l0.211,0.088l2.074-0.527c0.258-0.117,0.521-0.27,0.791-0.457c0.27-0.105,0.533-0.252,0.791-0.439l1.512-1.09
			l0.598-0.633c0.117-0.234,0.287-0.475,0.51-0.721l0.615-1.811l-0.018-0.668l0.123-0.246l-0.229-0.861l0.229-0.984l-0.229-0.861
			v-0.932l-0.246-0.773c-0.141-0.234-0.322-0.469-0.545-0.703c-0.246-0.152-0.521-0.258-0.826-0.316l-0.826-0.141l-0.229,0.07
			l-1.072,0.018c-0.293,0.023-0.58,0.088-0.861,0.193l-0.316-0.105l-0.756,0.123l-0.809,0.527l-0.211,1.002l0.105,3.867l-0.51,0.809
			l-0.791,0.369l-0.844-0.141l-0.615-1.125l-0.123,0.246l-0.352-0.791l-0.105-0.932l0.141-0.246l-0.176-1.354l-0.229-0.773
			l-0.105-2.021c-0.023-0.27-0.094-0.557-0.211-0.861l-0.527-6.855l0.229-1.072l0.387-0.65c0.211-0.211,0.48-0.387,0.809-0.527
			c0.293,0.035,0.604,0.111,0.932,0.229c0.199,0.199,0.387,0.434,0.563,0.703l0.545,1.723c0,0.293,0.041,0.604,0.123,0.932
			l0.088,1.02c0.047,0.258,0.164,0.516,0.352,0.773l0.791,0.475l3.41-0.105c0.328-0.023,0.656-0.082,0.984-0.176
			c0.211-0.117,0.439-0.27,0.686-0.457l0.229-1.09l-0.105-1.863c0-0.258-0.047-0.51-0.141-0.756l-0.334-1.705
			c-0.105-0.234-0.258-0.469-0.457-0.703c-0.07-0.246-0.182-0.51-0.334-0.791c-0.141-0.246-0.328-0.48-0.563-0.703l-0.58-0.633
			l-0.773-0.545l-2.742-1.195L24.012,13.074z M15.539,9.822c0.047,0.105,0.146,0.17,0.299,0.193L15.539,9.822z M15.82,14.973
			l0.018-0.158l-0.105-0.018L15.82,14.973z M15.768,10.684l-0.018,0.158l0.211-0.07L15.768,10.684z M16.049,15.746l0.035-0.158
			l-0.105-0.018L16.049,15.746z M16.488,13.76l0.018-0.176H16.4L16.488,13.76z M16.488,9.893l0.211,0.088l0.123-0.158l-0.211-0.088
			L16.488,9.893z M17.385,38.387l-0.352,0.229l0.527,0.123L17.385,38.387z M17.174,13.373l0.018-0.158h-0.105L17.174,13.373z
			 M17.244,37.789l-0.158,0.316l0.088,0.264l0.229-0.158L17.244,37.789z M17.209,39.055c-0.012,0.117,0.047,0.229,0.176,0.334
			L17.209,39.055z M17.543,41.674c0.023,0.082,0.088,0.146,0.193,0.193C17.736,41.785,17.672,41.721,17.543,41.674z M17.877,9.805
			l0.211,0.105l0.123-0.158L18,9.646L17.877,9.805z M18.018,40.355l0.018-0.158H17.93L18.018,40.355z M17.965,11.07l0.07,0.264
			l0.035-0.246L17.965,11.07z M18.141,39.195c0.012,0.07,0.076,0.129,0.193,0.176C18.334,39.301,18.27,39.242,18.141,39.195z
			 M18.369,14.129l0.018-0.158l-0.105-0.018L18.369,14.129z M18.422,40.566c0,0.117,0.059,0.229,0.176,0.334
			C18.586,40.795,18.527,40.684,18.422,40.566z M18.527,10.701l0.018-0.176h-0.105L18.527,10.701z M18.545,9.682l0.211,0.018
			l0.018-0.158l-0.105-0.018L18.545,9.682z M18.686,14.076l0.018-0.176h-0.105L18.686,14.076z M19.283,39.529
			c-0.012-0.082-0.076-0.146-0.193-0.193C19.113,39.395,19.178,39.459,19.283,39.529z M19.371,39.617l-0.141,0.404l0.176,0.264
			l0.053-0.422c0.152-0.012,0.299-0.082,0.439-0.211l-0.316,0.053L19.371,39.617z M19.582,40.549l0.018-0.158l-0.105-0.018
			L19.582,40.549z M20.127,40.514c0.012,0.07,0.076,0.129,0.193,0.176C20.309,40.607,20.244,40.549,20.127,40.514z M20.373,40.18
			l0.018-0.158l-0.105-0.018L20.373,40.18z M20.602,9.313c0.012,0.082,0.076,0.146,0.193,0.193
			C20.783,9.424,20.719,9.359,20.602,9.313z M22.412,41.92c0.012,0.07,0.076,0.129,0.193,0.176
			C22.605,42.025,22.541,41.967,22.412,41.92z M22.605,41.182l-0.018,0.158l0.211-0.07L22.605,41.182z M23.818,10.033l0.018-0.158
			L23.73,9.857L23.818,10.033z M24.135,9.049c0.012,0.07,0.076,0.129,0.193,0.176C24.316,9.178,24.252,9.119,24.135,9.049z
			 M24.645,9.33l0.018-0.158h-0.105L24.645,9.33z M25.189,38.984l0.615,0.211l0.211-0.07l-0.545,0.229L25.189,38.984z M26.051,9.014
			c0-0.082-0.064-0.141-0.193-0.176C25.881,8.896,25.945,8.955,26.051,9.014z M26.016,41.076l0.018-0.176h-0.105L26.016,41.076z
			 M26.279,14.674l0.088,0.246l-0.193-0.176L26.279,14.674z M26.596,38.826l0.721,0.141c-0.246,0.117-0.539,0.211-0.879,0.281
			L26.596,38.826z M27.018,8.908l0.035-0.158l-0.105-0.018L27.018,8.908z M27.211,19.771c0.105,0.129,0.158,0.275,0.158,0.439
			l-0.422,0.053L27.211,19.771z M27.088,21.793l0.404,0.193L27.281,22.9C27.141,22.572,27.076,22.203,27.088,21.793z M27.773,20.492
			l0.035,0.51l-0.211,0.07L27.773,20.492z M28.125,16.221l0.193,0.264l-0.334,0.07L28.125,16.221z M28.002,22.18l0.896,0.65
			C28.43,22.783,28.131,22.566,28.002,22.18z M28.072,30.266c0.141,0.152,0.229,0.328,0.264,0.527L28.072,30.266z M28.125,29.773
			c0.082,0.012,0.146,0.07,0.193,0.176l-0.123,0.07L28.125,29.773z M28.494,21.547c0.199,0.141,0.357,0.316,0.475,0.527
			C28.758,21.969,28.6,21.793,28.494,21.547z M29.127,18.805l0.211,0.018l-0.123,0.158L29.127,18.805z M29.443,21.617l0.193,0.264
			C29.543,21.822,29.479,21.734,29.443,21.617z M29.496,22.109c0.094,0.059,0.158,0.146,0.193,0.264
			C29.572,22.326,29.508,22.238,29.496,22.109z M30.129,21.23l0.176,0.352C30.223,21.5,30.164,21.383,30.129,21.23z M30.375,29.58
			c0.129,0.059,0.229,0.146,0.299,0.264C30.545,29.785,30.445,29.697,30.375,29.58z M30.604,30.441l0.176,0.264
			C30.697,30.646,30.639,30.559,30.604,30.441z M30.85,8.996l0.07,0.264l0.035-0.264H30.85z M31.184,10.789l0.018-0.176h-0.105
			L31.184,10.789z M31.5,8.785l0.211,0.018l0.018-0.176h-0.105L31.5,8.785z M31.5,8.873l0.07,0.264l0.141-0.246L31.5,8.873z
			 M31.939,13.619l-0.035,0.158l0.229-0.07L31.939,13.619z M32.045,12.529l0.018-0.176h-0.105L32.045,12.529z M32.098,14.041
			l0.211,0.018l0.018-0.158l-0.105-0.018L32.098,14.041z M32.221,12.037l0.018-0.176h-0.105L32.221,12.037z M32.502,20.896
			l0.088,0.246l0.018-0.246H32.502z M32.959,40.865l0.018-0.176h-0.105L32.959,40.865z M32.906,40.355l0.088,0.246l0.018-0.246
			H32.906z M33.029,41.111l0.211,0.018l0.035-0.158l-0.105-0.018L33.029,41.111z M33.24,40.215l-0.158,0.492l0.316,0.105
			C33.398,40.625,33.346,40.426,33.24,40.215z M33.117,39.354c0.023,0.07,0.088,0.129,0.193,0.176
			C33.299,39.482,33.234,39.424,33.117,39.354z"/>
		<path d="M40.475,21.336l1.055,0.053c0.293,0.047,0.633,0.07,1.02,0.07l0.984,0.123l0.527-0.053l0.123,0.053h1.301
			c0.305,0.047,0.65,0.07,1.037,0.07l3.779,0.387l0.65,0.193l0.914,0.07c0.352,0.035,0.551,0.234,0.598,0.598l-0.141,3.111
			c-0.047,0.305-0.07,0.656-0.07,1.055l-0.193,4.096c-0.035,0.305-0.053,0.65-0.053,1.037c-0.047,0.305-0.07,0.656-0.07,1.055
			l-0.07,1.037c-0.035,0.305-0.059,0.65-0.07,1.037l-0.123,3.076c-0.047,0.305-0.07,0.65-0.07,1.037
			c-0.035,0.305-0.053,0.65-0.053,1.037c-0.047,0.305-0.07,0.65-0.07,1.037c-0.023,0.293-0.111,0.58-0.264,0.861l-5.01-0.141
			l-0.193-0.07H43.99l-0.141-0.053l-1.881-0.07l-0.193-0.07l-0.246,0.07l-1.371-0.123v-0.457l0.053-0.914l-0.053-1.951h-0.65
			l-0.193-0.334l-0.334-1.828v-2.215l0.07-0.914v-1.23l0.844-9.123l0.193-0.914C40.182,21.805,40.311,21.57,40.475,21.336z
			 M47.436,27.119c-0.434,0.07-0.891,0.182-1.371,0.334c-0.281,0.164-0.563,0.404-0.844,0.721c-0.176,0.293-0.328,0.662-0.457,1.107
			l-0.053,0.914h0.58l1.037,0.123l0.141-0.334c0.047-0.398,0.199-0.785,0.457-1.16c0.293-0.199,0.662-0.311,1.107-0.334
			c0.363,0.117,0.686,0.334,0.967,0.65l0.07,1.178l-0.141,0.264c-0.211,0.27-0.51,0.51-0.896,0.721l-1.371,0.246l-1.178,0.404
			c-0.305,0.199-0.586,0.457-0.844,0.773c-0.176,0.34-0.305,0.732-0.387,1.178c-0.082,0.422-0.129,0.92-0.141,1.494
			c0.082,0.363,0.211,0.756,0.387,1.178c0.211,0.281,0.498,0.539,0.861,0.773c0.363,0.129,0.773,0.193,1.23,0.193
			c0.422-0.035,0.855-0.141,1.301-0.316c0.246-0.234,0.486-0.516,0.721-0.844c0.141,0.305,0.334,0.627,0.58,0.967
			c0.363,0.152,0.779,0.264,1.248,0.334c0.422-0.105,0.639-0.41,0.65-0.914c-0.059-0.34-0.258-0.621-0.598-0.844l-0.053-0.193
			l0.053-1.055v-0.264l0.334-4.482v-0.65l-0.193-0.721c-0.152-0.305-0.393-0.586-0.721-0.844c-0.34-0.199-0.732-0.352-1.178-0.457
			L47.436,27.119z M48.684,32.27c0.094,0.176,0.158,0.375,0.193,0.598l-0.141,1.547l-0.457,1.248l-0.51,0.316l-0.65,0.211
			c-0.211-0.07-0.428-0.158-0.65-0.264l-0.334-0.527l-0.123-0.721l0.053-0.773l0.334-0.527c0.129-0.129,0.281-0.258,0.457-0.387
			l1.23-0.457C48.285,32.475,48.484,32.387,48.684,32.27z"/>
		<path d="M57.957,21.564l-0.879,5.625c-0.164,0.551-0.264,1.178-0.299,1.881c0.094,0.504,0.422,0.768,0.984,0.791
			c0.398,0.352,0.691,0.809,0.879,1.371v0.299h0.105l-0.105,0.686v0.299l-0.492,1.283l-0.686-0.193l-0.299,0.105
			c-0.305-0.246-0.469-0.574-0.492-0.984l0.193-0.896l-0.193-0.492l-0.088,0.299c-0.246,0.445-0.445,1.002-0.598,1.67
			c-0.105,0.551-0.17,1.178-0.193,1.881l-0.791,5.818c-0.141,0.574-0.24,1.201-0.299,1.881l-0.281,1.969
			c0.316,0.258,0.574,0.586,0.773,0.984c-0.34,0.176-0.668,0.404-0.984,0.686l-0.299-0.387l0.791-5.818
			c0.035-0.574,0.135-1.201,0.299-1.881l0.598-3.85c0.047-0.563,0.146-1.184,0.299-1.863L57.957,21.564z M55.496,45.436l0.791,0.211
			l-0.299,0.984l-0.791-0.193L55.496,45.436z M56.973,45.646l0.686,0.193l-0.299,0.791l-0.58-0.105L56.973,45.646z M58.748,45.945
			c0.316,0.07,0.645,0.199,0.984,0.387l0.193,0.299l-0.193,0.105c-0.152-0.023-0.316-0.094-0.492-0.211l-1.178,0.105
			C58.25,46.373,58.479,46.145,58.748,45.945z M61.314,27.383c0.223,0.129,0.486,0.199,0.791,0.211
			c0.316,0.117,0.609,0.311,0.879,0.58l-0.387,2.373l0.879,0.387l0.105,1.002c-0.094,0.246-0.293,0.439-0.598,0.58l-0.791,0.211
			l-0.879,4.641l0.105,0.281l0.686,0.492l0.387,0.211l-0.193,0.58l-0.193,1.195l-0.984-0.193l-0.896-0.51
			c-0.305-0.152-0.598-0.346-0.879-0.58l-0.211-0.984l0.404-1.002l-0.105-0.686l0.105-0.299c0.094-0.34,0.158-0.732,0.193-1.178
			l0.299-1.09l0.105-1.09l0.088-0.387l-0.387-0.105l-0.193,0.105c-0.199-0.176-0.334-0.404-0.404-0.686l0.193-1.195l0.211-0.193
			l0.088,0.105l0.791,0.088l0.387-1.881C60.992,28.086,61.127,27.758,61.314,27.383z M60.822,45.436
			c0.352,0.082,0.551,0.346,0.598,0.791l0.281,0.51l-0.387-0.105l-0.105,0.105h-0.984l-0.088-0.299l0.088-0.105
			C60.471,46.086,60.67,45.787,60.822,45.436z"/>
		<path d="M76.213,17.768l0.633,0.123l0.246-0.123l0.246,0.123v-0.123l1.512,0.123l1.512-0.123c0.27,0.223,0.48,0.475,0.633,0.756
			l-0.123,1.512l0.123,0.633l-0.123,0.246v0.264l0.123,1.512l-0.123,1.248l0.246,1.266l-0.123,0.51l0.123,0.246v0.246
			c0.094,0.094,0.094,0.182,0,0.264l0.264,2.145l-0.123,0.369l0.369,3.656l-0.123,0.246l0.123,0.756l-0.123,0.633l0.246,0.387
			l0.51,3.656l-0.123,0.246l0.633,5.168l-0.141,0.246l0.264,0.879l-0.123,0.369l0.246,2.777l-2.021,0.387l-0.246-0.141h-0.246
			l-0.756,0.141l-0.264-0.141l-2.514,0.264l-0.633-0.123l-0.123,0.246l-0.264-0.123c-0.281,0.059-0.615,0.1-1.002,0.123
			l-0.369-0.246l-0.896,0.492h-1.389v0.141l-1.512-0.141l-0.492-1.125l-2.637-16.752l-0.141-9.58l0.264-2.9
			c0.352-0.199,0.727-0.322,1.125-0.369l2.9-0.264l0.369,0.123c0.293-0.059,0.633-0.1,1.02-0.123h3.023V17.768z M68.408,21.934
			v0.879h0.246v-0.123l0.756,0.123C69.293,22.332,68.959,22.039,68.408,21.934z M68.777,27.225v0.756
			c0.082-0.035,0.17-0.123,0.264-0.264L68.777,27.225z M70.025,39.441v-0.246h-0.123L70.025,39.441z M75.334,25.959l-1.898,0.51
			l-1.635,1.002l-0.756,1.266l-0.633,1.881l-0.123,1.389l0.123,0.51l0.123,1.758l0.633,1.898l0.879,1.389l1.512,1.248
			c0.527,0.199,1.119,0.369,1.775,0.51l1.635-0.123c0.586-0.164,1.213-0.416,1.881-0.756c0.527-0.258,0.949-0.68,1.266-1.266
			c0.281-0.492,0.492-1.037,0.633-1.635l0.246-0.879l-0.123-0.387l-0.633,0.264c-0.363,0.363-0.615,0.867-0.756,1.512
			c-0.293,0.551-0.709,1.055-1.248,1.512l-1.529,0.492l-1.248-0.123l-0.387,0.123l-1.635-1.002l-1.002-1.512l-0.633-2.021
			c0.563-0.188,1.148-0.311,1.758-0.369l6.311-0.633c0.445-0.012,0.861-0.182,1.248-0.51l-0.369-1.881l-0.756-1.389
			c-0.316-0.504-0.697-1.008-1.143-1.512c-0.48-0.328-1.025-0.621-1.635-0.879L75.334,25.959z M74.701,26.961l1.002,0.141
			l0.246-0.141h0.387l1.266,0.51l0.879,0.879l0.51,1.02l0.369,1.512c-0.211,0.293-0.504,0.545-0.879,0.756l-5.168,0.615
			c-0.516,0-1.061-0.082-1.635-0.246l0.123-1.389l0.369-1.389l0.51-1.002c0.234-0.246,0.527-0.457,0.879-0.633L74.701,26.961z
			 M74.438,46.877v-0.264h-0.123L74.438,46.877z M80.748,33.008v-0.246h-0.123L80.748,33.008z M80.994,29.615v-0.246h-0.123
			L80.994,29.615z M81.381,31.637v-0.264h-0.123L81.381,31.637z"/>
		<path d="M77.066,56.035l0.176,1.969v2.18L77.066,56.035z M77.242,54.066l0.158,1.178l-0.158,0.387V54.066z M78.35,37.684
			l0.176,0.791l-0.176,2.18l-0.158-2.18L78.35,37.684z M78.684,30.389L79,32.762l-0.316,2.566l-0.158-1.389L78.684,30.389z
			 M79.475,20.334l0.158,2.566l-0.475,4.729v2.373l-0.316-1.582L79,27.822L79.475,20.334z M80.283,7.502l0.158,2.76l-0.633,8.297
			l-0.176-1.002L80.283,7.502z M93.906,16.783c0.785,0.082,1.693,0.275,2.725,0.58c0.797,0.293,1.6,0.82,2.408,1.582l0.65,0.984
			c0.105-0.633,0.316-1.289,0.633-1.969l2.725,0.193l0.65-0.193l0.791,0.387l-0.791,9.475l0.158,0.598l-0.967,11.25
			c-0.281,0.938-0.709,1.922-1.283,2.953c-0.469,0.82-1.107,1.605-1.916,2.355c-0.797,0.504-1.705,0.902-2.725,1.195l-3.533,0.193
			c-0.961-0.129-1.98-0.393-3.059-0.791c-0.879-0.176-1.729-0.697-2.549-1.564c0.188-1.008,0.504-2.127,0.949-3.357l0.316-1.195
			c0.504,0.375,1.096,0.709,1.775,1.002c0.727,0.387,1.582,0.715,2.566,0.984c0.938-0.129,1.951-0.393,3.041-0.791
			c0.609-0.691,1.09-1.611,1.441-2.76l0.158-1.775l-0.949,0.773c-0.844,0.434-1.811,0.697-2.9,0.791
			c-0.914-0.059-1.77-0.252-2.566-0.58c-0.75-0.445-1.494-1.037-2.232-1.775c-0.527-0.762-1.008-1.682-1.441-2.76
			c-0.305-0.996-0.521-2.115-0.65-3.357l-0.158-2.18l0.334-0.58l-0.176-0.211l0.176-0.58c0.141-0.891,0.352-1.811,0.633-2.76
			l1.283-2.971l2.074-1.969C92.248,17.785,93.051,17.393,93.906,16.783z M95.506,22.109L94.064,22.9l-0.791,1.564
			c-0.328,0.996-0.545,2.18-0.65,3.551l0.158,2.18c0.234,0.445,0.451,0.973,0.65,1.582c0.809,0.598,1.77,0.926,2.883,0.984
			l1.441-0.791l0.65-1.582l0.316-3.744c-0.082-0.926-0.24-1.916-0.475-2.971C97.557,22.877,96.643,22.355,95.506,22.109z
			 M97.598,16.977h0.316l-0.158,0.387L97.598,16.977z M107.547,29.211l0.158,5.326l-0.158,2.355
			c-0.047,0.621-0.211,1.148-0.492,1.582l0.334-4.922l-0.158-0.598L107.547,29.211z M107.705,27.436l0.158,0.984l-0.316-0.193
			L107.705,27.436z"/>
		<path d="M113.322,17.082c0.141,0.469,0.234,1.002,0.281,1.6l-1.477,9.914c0.305-0.082,0.615-0.211,0.932-0.387
			c0.387-0.234,0.832-0.463,1.336-0.686l0.668-0.527l0.281,0.141l0.668-0.281l0.264,0.141l1.336-0.264l1.072,0.123l0.404-0.123
			l1.072,0.264l0.404-0.668l0.527,0.668l-0.123-0.141l-0.404,0.141l0.668,0.527l1.213,0.686l1.6,1.336l-0.141-0.404L124.045,29
			c0.082,0.387,0.217,0.791,0.404,1.213c0.199,0.352,0.375,0.756,0.527,1.213l0.404,1.336l0.141,1.477l-0.949,4.148l-0.264-0.264
			l-0.123,0.387c0.188,0.035,0.316,0.129,0.387,0.281l-1.072,0.404l-0.527,0.932l-2.408,0.932l-1.617,0.404l-1.195,0.141
			l-0.264,0.123l-0.141-0.264l-2.953-0.668l-2.531-1.477c-0.141-0.293-0.369-0.516-0.686-0.668l-0.264,0.668h0.668
			c-0.281,0.246-0.504,0.516-0.668,0.809l-0.123,1.336c0.234,0.129,0.41,0.352,0.527,0.668l-0.264-0.404l-0.545,0.949l-0.123,1.072
			l0.264,0.404l-0.404,1.195c-0.023,0.469-0.158,0.961-0.404,1.477l-0.264-1.758L113.322,17.082z M110.914,42.271l0.545,0.123
			l-0.545,0.141V42.271z M111.055,37.842c0.035,0.281,0.17,0.504,0.404,0.668L111.055,37.842z M111.318,43.871l0.545,0.141
			l-0.686,0.141L111.318,43.871z M111.318,40.531c0.105,0.012,0.193,0.1,0.264,0.264C111.477,40.783,111.389,40.695,111.318,40.531z
			 M111.582,42.131c0.105,0.023,0.199,0.111,0.281,0.264L111.582,42.131z M112.127,44.152h0.264l-0.141,0.264L112.127,44.152z
			 M117.084,27.928c-0.422,0.152-0.867,0.375-1.336,0.668c-0.387,0.211-0.744,0.48-1.072,0.809l-0.809,0.949l-0.668,1.195
			l-0.404,1.881l0.141,0.264l-0.141,0.809l0.141,0.264v0.264l-0.141,0.545l0.264,0.123l-0.123,0.281l0.387,1.195
			c0.117,0.352,0.299,0.709,0.545,1.072l0.809,1.072l1.072,0.809l1.055,0.264l2.426-0.264c0.281-0.164,0.545-0.434,0.791-0.809
			l0.668-0.123l0.809-1.072l0.545-1.072c0.012-0.398,0.1-0.803,0.264-1.213l0.404-0.668c-0.012-0.234-0.1-0.504-0.264-0.809h0.387
			v-0.123c-0.07-0.469-0.111-1.008-0.123-1.617l-0.545-1.195c-0.059-0.352-0.234-0.709-0.527-1.072l-0.141-0.686
			c-0.082,0.047-0.17,0.141-0.264,0.281l0.141,0.123c-0.152-0.129-0.246-0.305-0.281-0.527l-0.264-0.668l-0.527-0.281l-0.141,0.141
			l0.141,0.404c-0.152-0.316-0.422-0.586-0.809-0.809c-0.352-0.141-0.756-0.229-1.213-0.264L117.084,27.928z M113.322,42.939
			c-0.105-0.012-0.193-0.1-0.264-0.264L113.322,42.939z M113.604,43.871c0.094,0.023,0.182,0.117,0.264,0.281L113.604,43.871z
			 M113.867,40.936c0.105,0.012,0.193,0.1,0.264,0.264L113.867,40.936z M114.535,41.199c-0.082,0.281-0.264,0.504-0.545,0.668
			C114.119,41.621,114.301,41.398,114.535,41.199z M114.939,17.346c0.105,0.023,0.193,0.111,0.264,0.264L114.939,17.346z
			 M117.084,20.967c-0.105-0.012-0.199-0.1-0.281-0.264L117.084,20.967z M116.803,31.145h0.281l-0.141,0.281L116.803,31.145z
			 M116.943,25.783h0.264l-0.123,0.281L116.943,25.783z M118.824,29.141c0.105,0.012,0.193,0.1,0.264,0.264L118.824,29.141z
			 M119.088,22.848l0.545,0.123l-0.686,0.141L119.088,22.848z M119.088,23.639c0.105,0.023,0.193,0.117,0.264,0.281L119.088,23.639z
			 M119.229,30.74l0.527,0.141l-0.527,0.141V30.74z M119.352,20.703c0.105,0.012,0.199,0.1,0.281,0.264L119.352,20.703z
			 M119.492,21.512c0.105,0.012,0.193,0.1,0.264,0.264L119.492,21.512z M119.492,23.639c0.105,0.023,0.193,0.117,0.264,0.281
			C119.65,23.896,119.563,23.803,119.492,23.639z M119.896,26.732c-0.105-0.023-0.193-0.111-0.264-0.264L119.896,26.732z
			 M119.896,28.877c-0.105-0.023-0.193-0.117-0.264-0.281L119.896,28.877z M119.756,22.303l0.545,0.141l-0.545,0.123V22.303z
			 M120.02,24.324c0.105,0.012,0.199,0.1,0.281,0.264L120.02,24.324z M120.16,20.563c0.105,0.012,0.193,0.1,0.264,0.264
			L120.16,20.563z M120.16,33.957c0.105,0.023,0.193,0.117,0.264,0.281L120.16,33.957z M120.688,20.439l0.545,0.123l-0.668,0.141
			L120.688,20.439z M120.564,29.281h0.264l-0.141,0.264L120.564,29.281z M120.828,19.631c0.105,0.012,0.193,0.1,0.264,0.264
			L120.828,19.631z M121.092,21.898c-0.105-0.012-0.193-0.1-0.264-0.264L121.092,21.898z M121.373,24.992
			c0.094,0.012,0.182,0.1,0.264,0.264L121.373,24.992z M121.496,23.252c0.105,0.012,0.193,0.1,0.264,0.264L121.496,23.252z
			 M121.496,33.693l0.545,0.141l-0.545,0.123V33.693z M121.637,19.49c0.105,0.012,0.193,0.1,0.264,0.264L121.637,19.49z
			 M121.637,26.188c0.105,0.023,0.193,0.117,0.264,0.281L121.637,26.188z M121.637,32.357c0.199,0.012,0.375,0.1,0.527,0.264
			L121.637,32.357z M121.637,35.311c0.105,0.012,0.193,0.1,0.264,0.264L121.637,35.311z M121.637,44.012
			c0.105,0.012,0.193,0.1,0.264,0.264L121.637,44.012z M121.76,30.072v0.281h0.141v-0.281H121.76z M121.76,33.166
			c0.105,0.012,0.199,0.1,0.281,0.264C121.936,33.418,121.842,33.33,121.76,33.166z M122.164,27.523
			c-0.105-0.012-0.193-0.1-0.264-0.264L122.164,27.523z M121.9,33.957h0.264l-0.123,0.281L121.9,33.957z M122.041,23.111h0.932
			c-0.328,0.105-0.639,0.281-0.932,0.527V23.111z M122.164,23.92h0.281l-0.141,0.264L122.164,23.92z M122.164,36.242
			c0.035,0.117,0.129,0.205,0.281,0.264C122.422,36.389,122.328,36.301,122.164,36.242z M122.305,20.563
			c0.105,0.012,0.193,0.1,0.264,0.264C122.463,20.814,122.375,20.727,122.305,20.563z M122.568,24.992
			c-0.105-0.023-0.193-0.117-0.264-0.281L122.568,24.992z M122.709,41.604c-0.105-0.023-0.193-0.111-0.264-0.264L122.709,41.604z
			 M122.832,22.443c-0.094-0.012-0.182-0.1-0.264-0.264L122.832,22.443z M122.832,42.008c-0.094-0.023-0.182-0.117-0.264-0.281
			L122.832,42.008z M122.832,21.371c0.105,0.012,0.199,0.1,0.281,0.264L122.832,21.371z M122.973,41.727
			c0.105,0.023,0.193,0.117,0.264,0.281C123.131,41.984,123.043,41.891,122.973,41.727z M123.236,20.035l0.545,0.123l-0.668,0.141
			L123.236,20.035z M123.113,24.588c0.105,0.012,0.193,0.1,0.264,0.264C123.271,24.84,123.184,24.752,123.113,24.588z
			 M123.236,41.199c0.105,0.012,0.193,0.1,0.264,0.264L123.236,41.199z M123.236,43.344l0.668,0.123l-0.527,0.141L123.236,43.344z
			 M123.5,24.184l0.404,0.932l-0.264,0.404L123.5,24.184z M123.5,26.188h0.686l-0.686,0.668V26.188z M123.5,40.795
			c0.164,0.035,0.299,0.123,0.404,0.264L123.5,40.795z M124.309,20.299c-0.141,0.293-0.363,0.516-0.668,0.668
			C123.91,20.814,124.133,20.592,124.309,20.299z M123.904,27.664c-0.105-0.012-0.193-0.1-0.264-0.264L123.904,27.664z
			 M123.641,44.943h0.264l-0.123,0.264L123.641,44.943z M124.854,22.971l0.123,0.809l-0.123,0.264
			c-0.234-0.293-0.551-0.516-0.949-0.668L124.854,22.971z M123.904,28.596l0.545,0.141l-0.545,0.141V28.596z M123.904,42.008h0.281
			l-0.141,0.264L123.904,42.008z M124.045,40.268h0.264l-0.123,0.264L124.045,40.268z M124.449,21.775
			c-0.105-0.023-0.193-0.111-0.264-0.264L124.449,21.775z M124.186,27.805h0.264l-0.141,0.264L124.186,27.805z M124.449,41.727
			c-0.105-0.012-0.193-0.1-0.264-0.264L124.449,41.727z M124.309,26.855c0.105,0.023,0.193,0.117,0.264,0.281L124.309,26.855z
			 M124.713,19.367h0.264l-0.123,0.264L124.713,19.367z M124.713,21.775c0.105,0.012,0.193,0.1,0.264,0.264
			C124.871,22.027,124.783,21.939,124.713,21.775z M124.854,22.566c0.105,0.023,0.193,0.117,0.264,0.281
			C125.012,22.824,124.924,22.73,124.854,22.566z M126.33,28.332c0.129,0.352,0.217,0.756,0.264,1.213l-0.264,0.404l-0.809,0.123
			l-0.141-0.264l-0.123,0.141c-0.105-0.023-0.199-0.117-0.281-0.281l-0.123-0.791c0.164,0.199,0.387,0.334,0.668,0.404
			L126.33,28.332z M124.977,40.531h0.949c-0.035,0.41-0.17,0.809-0.404,1.195l-0.545,0.141l-0.123-1.072L124.977,40.531z
			 M124.977,30.072c0.105,0.023,0.199,0.117,0.281,0.281C125.152,30.33,125.059,30.236,124.977,30.072z M125.117,26.328l0.527,0.141
			l-0.387,0.123L125.117,26.328z M125.117,29.404c0.023,0.117,0.111,0.205,0.264,0.264C125.357,29.551,125.27,29.463,125.117,29.404
			z M125.258,27.137l0.527,0.123l-0.404,0.141L125.258,27.137z M125.381,20.826l0.545,0.141l-0.545,0.141V20.826z M125.381,22.971
			l0.668,0.545C125.768,23.434,125.545,23.252,125.381,22.971z M125.381,27.928c0.105,0.023,0.193,0.117,0.264,0.281
			C125.551,28.186,125.463,28.092,125.381,27.928z M125.926,25.783h0.264l-0.141,0.281L125.926,25.783z M126.189,20.299h0.668
			l-0.404,0.264l-0.264,0.404V20.299z M126.594,23.779c-0.105-0.012-0.193-0.1-0.264-0.264L126.594,23.779z M126.717,20.035
			c-0.105-0.023-0.193-0.117-0.264-0.281L126.717,20.035z"/>
		<path d="M139.172,28.807l1.09,0.475l0.861,0.633l0.633,0.914l0.51,1.16l0.563,3.656h0.07l-0.053,0.316l0.545,4.377
			c0.094,0.387,0.24,0.803,0.439,1.248l0.422,1.178l0.281,0.457l0.316,0.053l2.057-1.477l0.369-0.193l-0.281,2.127
			c-0.035,0.375-0.105,0.803-0.211,1.283l-0.088,0.826l-1.863-0.088c-0.398,0-0.855-0.041-1.371-0.123l-16.365-0.422l-0.246-0.123
			l-0.105-0.246l0.018-0.703l0.686-5.133l0.035-1.371l0.123-0.422l2.338,0.053l2.443,0.51l1.02,0.475l0.861,0.633
			c0.27,0.211,0.557,0.457,0.861,0.738l1.688,1.863c0.234-0.094,0.463-0.223,0.686-0.387l3.639-2.566
			c0.105-0.141,0.17-0.311,0.193-0.51c-0.105-0.117-0.246-0.211-0.422-0.281l-0.598,0.457l-0.352-0.211l-2.443-2.197
			c0.047-0.352,0.123-0.732,0.229-1.143L139.172,28.807z M129.012,24.939c0.316,0.27,0.615,0.598,0.896,0.984
			c0.246,0.281,0.492,0.633,0.738,1.055l1.178,2.549l0.246,1.758c0.035,0.516,0,1.055-0.105,1.617
			c0.023,0.492-0.217,0.832-0.721,1.02l-1.582,0.299l-1.846,0.721L129.012,24.939z M131.121,8.592l10.916,0.65
			c0.293,0.023,0.615,0.023,0.967,0l7.594,0.457c0.293,0.07,0.475,0.27,0.545,0.598l-3.586,29.76
			c-0.082-0.07-0.146-0.17-0.193-0.299l-0.58-2.039l-0.123-2.408l-0.105-1.195l0.035-0.492l-0.105-0.158l-0.141-1.582h-0.07
			l-0.58-1.951l-1.424-2.461l-0.527-0.668l-0.193-0.387l1.459-0.615l0.773-0.475l3.463-1.67l-2.531-7.822
			c-0.105-0.258-0.258-0.51-0.457-0.756l-7.119,3.199l0.053-1.143l-0.105-1.195c-0.07-0.316-0.176-0.627-0.316-0.932l-0.404-0.844
			l-0.615-0.686l-0.756-0.404l-0.914-0.334l-1.934-0.07l-0.246,0.105l-1.02,0.246c-0.27,0.105-0.551,0.24-0.844,0.404
			c-0.258,0.105-0.516,0.264-0.773,0.475l0.686,0.334l1.195-0.018l0.914,0.316l0.756,0.422l0.563,0.756l0.316,0.932l-0.211,2.109
			l-0.58,1.828l-5.063,2.602l-0.633,0.229l1.6-13.975C130.863,9.166,130.969,8.885,131.121,8.592z M134.514,21.564l0.176,0.229
			l-1.02,3.955l-0.791-0.809l-1.301-1.986l0.299-0.193c0.41-0.129,0.85-0.328,1.318-0.598
			C133.605,22.045,134.045,21.846,134.514,21.564z M140.684,18.541c0.094,0.012,0.176,0.059,0.246,0.141l-0.105,0.563l-0.141,0.264
			l-3.779,15.609l-0.896-0.158c-0.316-0.105-0.527-0.357-0.633-0.756l3.568-14.467c0.176-0.258,0.422-0.492,0.738-0.703
			L140.684,18.541z M142.916,17.451c0.152,0.211,0.281,0.445,0.387,0.703l2.092,6.398c-0.164,0.188-0.369,0.34-0.615,0.457
			l-1.301,0.756c-0.422,0.176-0.885,0.404-1.389,0.686c-0.41,0.176-0.867,0.404-1.371,0.686l-0.703,0.387
			c-0.117,0.035-0.246,0.1-0.387,0.193c-0.082,0-0.141-0.047-0.176-0.141l2.25-9.281C142.031,17.99,142.436,17.709,142.916,17.451z"
			/>
		<path d="M163.511,19.807c0.164,0.023,0.322,0.082,0.475,0.176l2.76,20.039l0.088,0.369l-0.053,0.123l-0.457,0.141l-12.006,2.162
			l-0.51,0.053c-0.07-0.105-0.146-0.229-0.229-0.369l-2.25-15.012c-0.012-0.164-0.041-0.328-0.088-0.492l-0.193-1.67
			c-0.035-0.164-0.064-0.346-0.088-0.545l-0.422-2.672c0.105-0.094,0.229-0.17,0.369-0.229l4.148-0.686l0.563-0.053
			c0.152-0.047,0.328-0.076,0.527-0.088l2.127-0.334l0.51-0.123l2.162-0.281c0.152-0.047,0.334-0.076,0.545-0.088l1.564-0.281
			L163.511,19.807z M157.851,26.064l-2.197,1.793c0.059,0.129,0.135,0.252,0.229,0.369l0.264,0.334
			c0.117,0.094,0.229,0.217,0.334,0.369v9.193l0.316,0.967l0.281,0.422l0.686,0.633l0.65,0.369l0.141-0.123l2.566-2.074
			c-0.047-0.105-0.123-0.217-0.229-0.334l-0.404,0.246l-0.141,0.123l-0.229-0.123l-0.369-0.334l-0.229-0.404l-0.053-8.613
			l0.65-0.686l0.088-0.141l-0.193-0.229L157.851,26.064z M158.132,21.564l-0.738,3.129c0.188-0.023,0.375-0.088,0.563-0.193
			l2.426-2.936H158.132z"/>
		<path d="M174.771,17.768l0.633,0.123l0.246-0.123l0.246,0.123v-0.123l1.512,0.123l1.512-0.123c0.27,0.223,0.48,0.475,0.633,0.756
			l-0.123,1.512l0.123,0.633l-0.123,0.246v0.264l0.123,1.512l-0.123,1.248l0.246,1.266l-0.123,0.51l0.123,0.246v0.246
			c0.094,0.094,0.094,0.182,0,0.264l0.264,2.145l-0.123,0.369l0.369,3.656l-0.123,0.246l0.123,0.756l-0.123,0.633l0.246,0.387
			l0.51,3.656l-0.123,0.246l0.633,5.168l-0.141,0.246l0.264,0.879l-0.123,0.369l0.246,2.777l-2.021,0.387l-0.246-0.141h-0.246
			l-0.756,0.141l-0.264-0.141l-2.514,0.264l-0.633-0.123l-0.123,0.246l-0.264-0.123c-0.281,0.059-0.615,0.1-1.002,0.123
			l-0.369-0.246l-0.896,0.492h-1.389v0.141l-1.512-0.141l-0.492-1.125l-2.637-16.752l-0.141-9.58l0.264-2.9
			c0.352-0.199,0.727-0.322,1.125-0.369l2.9-0.264l0.369,0.123c0.293-0.059,0.633-0.1,1.02-0.123h3.023V17.768z M166.966,21.934
			v0.879h0.246v-0.123l0.756,0.123C167.851,22.332,167.517,22.039,166.966,21.934z M167.335,27.225v0.756
			c0.082-0.035,0.17-0.123,0.264-0.264L167.335,27.225z M168.583,39.441v-0.246h-0.123L168.583,39.441z M173.892,25.959l-1.898,0.51
			l-1.635,1.002l-0.756,1.266l-0.633,1.881l-0.123,1.389l0.123,0.51l0.123,1.758l0.633,1.898l0.879,1.389l1.512,1.248
			c0.527,0.199,1.119,0.369,1.775,0.51l1.635-0.123c0.586-0.164,1.213-0.416,1.881-0.756c0.527-0.258,0.949-0.68,1.266-1.266
			c0.281-0.492,0.492-1.037,0.633-1.635l0.246-0.879l-0.123-0.387l-0.633,0.264c-0.363,0.363-0.615,0.867-0.756,1.512
			c-0.293,0.551-0.709,1.055-1.248,1.512l-1.529,0.492l-1.248-0.123l-0.387,0.123l-1.635-1.002l-1.002-1.512l-0.633-2.021
			c0.563-0.188,1.148-0.311,1.758-0.369l6.311-0.633c0.445-0.012,0.861-0.182,1.248-0.51l-0.369-1.881l-0.756-1.389
			c-0.316-0.504-0.697-1.008-1.143-1.512c-0.48-0.328-1.025-0.621-1.635-0.879L173.892,25.959z M173.259,26.961l1.002,0.141
			l0.246-0.141h0.387l1.266,0.51l0.879,0.879l0.51,1.02l0.369,1.512c-0.211,0.293-0.504,0.545-0.879,0.756l-5.168,0.615
			c-0.516,0-1.061-0.082-1.635-0.246l0.123-1.389l0.369-1.389l0.51-1.002c0.234-0.246,0.527-0.457,0.879-0.633L173.259,26.961z
			 M172.995,46.877v-0.264h-0.123L172.995,46.877z M179.306,33.008v-0.246h-0.123L179.306,33.008z M179.552,29.615v-0.246h-0.123
			L179.552,29.615z M179.938,31.637v-0.264h-0.123L179.938,31.637z"/>
		<path d="M184.571,17.346l0.07,2.602l0.07,0.193l-0.07,0.07l0.07,0.07l-0.07,0.211l0.07,1.09l-0.07,0.193l0.141,1.23l-0.141,0.756
			l0.141,1.986l0.07,0.193l-0.07,0.07l0.07,1.09l-0.07,0.211l0.141,1.16l-0.07,0.281l0.141,2.795l0.07,0.211l-0.07,0.475l0.07,0.123
			l0.193,5.063l0.07,0.141l-0.07,0.07l0.264,2.865l-0.07,0.738l0.07,0.281c-0.012,0.105-0.059,0.176-0.141,0.211l-0.809-13.939
			l0.07-0.193l-0.07-3.287l-0.07-0.193v-6.557L184.571,17.346z M185.38,41.92c0.082,0.305,0.129,0.627,0.141,0.967l0.07,0.949
			L185.38,41.92z M185.872,21.512l0.07,0.404l-0.281-0.264C185.743,21.629,185.813,21.582,185.872,21.512z M192.763,25.273
			l1.02,0.053l0.264-0.053l0.756,0.053c0.293,0.059,0.609,0.176,0.949,0.352l-0.123,2.936l-0.826-0.141
			c-0.352-0.082-0.762-0.129-1.23-0.141l-0.264,0.07l-0.686-0.07l-0.141,0.07l-0.809,0.211l-0.615,0.334
			c-0.188,0.199-0.369,0.428-0.545,0.686c0.047,0.176,0.135,0.357,0.264,0.545c0.188,0.223,0.416,0.451,0.686,0.686l2.531,1.02
			l0.879,0.545c0.223,0.188,0.451,0.416,0.686,0.686c0.188,0.27,0.369,0.568,0.545,0.896l0.211,0.879l0.053,1.16l-0.264,0.896
			c-0.094,0.27-0.229,0.563-0.404,0.879l-1.037,1.371l-0.545,0.264c0.012,0.164,0.059,0.328,0.141,0.492l-0.141,0.123l-0.07-0.07
			l-0.123-0.475l-0.475,0.281l-0.896,0.334c-0.293,0.117-0.609,0.211-0.949,0.281l-0.967,0.264l-0.193-0.07l-0.545,0.07l-0.141,0.07
			l-0.07-0.07l-0.211,0.07c-0.316-0.047-0.68-0.07-1.09-0.07l-1.09-0.123c-0.328-0.07-0.668-0.164-1.02-0.281l0.07-0.879v-0.686
			l-0.07-0.141l0.07-0.211h-0.07l0.07-0.07l0.07-0.949l0.123-0.281l2.32,0.563h0.756l0.211-0.07l0.07,0.07h0.193
			c0.246-0.082,0.498-0.199,0.756-0.352l0.615-0.07c0.27-0.094,0.545-0.229,0.826-0.404c0.164-0.293,0.252-0.609,0.264-0.949
			l-0.334-0.686l-0.896-0.475l-0.949-0.352l-0.826-0.07c-0.117-0.176-0.275-0.334-0.475-0.475c-0.27-0.082-0.521-0.24-0.756-0.475
			l-0.809-0.615l-0.545-0.826l-0.352-0.879l0.07-1.16l0.281-1.02l0.475-0.896l0.686-0.756c0.211-0.188,0.457-0.369,0.738-0.545
			c0.281-0.211,0.604-0.369,0.967-0.475c0.281-0.164,0.574-0.299,0.879-0.404L192.763,25.273z M187.226,36.945h0.141l-0.07,0.123
			L187.226,36.945z M189.212,35.855c0.047,0,0.094,0.041,0.141,0.123C189.294,35.979,189.247,35.938,189.212,35.855z
			 M189.968,41.445l0.193,0.141l-0.193,0.404l0.123-0.404L189.968,41.445z M190.372,36.119l0.193,0.07l-0.264,0.07L190.372,36.119z
			 M190.636,36.119c0.094,0.047,0.164,0.117,0.211,0.211L190.636,36.119z M190.706,35.645c0.059,0.012,0.105,0.059,0.141,0.141
			L190.706,35.645z M192.341,40.9c-0.047-0.012-0.088-0.059-0.123-0.141L192.341,40.9z M192.288,30.178
			c0.047,0.012,0.088,0.059,0.123,0.141L192.288,30.178z M192.481,41.234c-0.047,0-0.094-0.041-0.141-0.123L192.481,41.234z
			 M192.552,17.627c0.07,0.012,0.117,0.053,0.141,0.123l-0.211,0.07L192.552,17.627z M197.052,38.299l0.141,1.16l-0.334,0.141
			l-0.141-0.193L197.052,38.299z"/>
	</g>
</g>
<g id="tits">
</g>
<g id="dicks">
</g>
<g id="questions">
</g>
<g id="double_hands">
</g>
<g id="take_2">
</g>
<g id="take_3">
</g>
<g id="give_3">
</g>
<g id="give_2">
</g>
<g id="rewind">
</g>
<g id="Cryptkeeper">
</g>
<g id="Take_2_and_Redo">
</g>
<g id="Embryo">
</g>
<g id="I_am_Groot">
</g>
<g id="Mini_Me">
</g>
<g id="Ditto_1_">
</g>
</svg>
