<?xml version="1.0" encoding="utf-8"?>
<!-- Generator: Adobe Illustrator 16.0.0, SVG Export Plug-In . SVG Version: 6.00 Build 0)  -->
<!DOCTYPE svg PUBLIC "-//W3C//DTD SVG 1.1//EN" "http://www.w3.org/Graphics/SVG/1.1/DTD/svg11.dtd">
<svg version="1.1" xmlns="http://www.w3.org/2000/svg" xmlns:xlink="http://www.w3.org/1999/xlink" x="0px" y="0px"
	 width="209.759px" height="62.361px" viewBox="0 0 209.759 62.361" enable-background="new 0 0 209.759 62.361"
	 xml:space="preserve">
<g id="Layer_1">
</g>
<g id="Blindman">
</g>
<g id="Compliments">
</g>
<g id="HAT">
</g>
<g id="speech">
</g>
<g id="TREX_ARMS">
</g>
<g id="slim_shady">
</g>
<g id="TIMEOUT">
</g>
<g id="Truth_or_Dare">
</g>
<g id="ARM_WRESTLE">
</g>
<g id="musical_chairs">
</g>
<g id="never_have_i_ever">
</g>
<g id="Trivia">
</g>
<g id="Drink_Pulling">
</g>
<g id="Sharing_is_Caring">
</g>
<g id="Not_It">
</g>
<g id="Cocktail_of_Doom">
</g>
<g id="Heads_up">
</g>
<g id="Archenemy">
</g>
<g id="battle_of_the_sexes">
</g>
<g id="one_must_drink">
</g>
<g id="rainbow_connection">
</g>
<g id="social_drinking">
</g>
<g id="Spin_the_bottle">
</g>
<g id="accents">
</g>
<g id="Slap">
</g>
<g id="down_the_hatch">
</g>
<g id="rubiks_cube">
</g>
<g id="bar_tender">
</g>
<g id="codenames">
</g>
<g id="hand_switch">
</g>
<g id="make_a_rule">
</g>
<g id="no_guts_no_glory">
</g>
<g id="pass">
</g>
<g id="santa">
</g>
<g id="snake_eyes">
</g>
<g id="bodyguard">
</g>
<g id="threeman">
	<g>
		<path d="M56.54,43.625v-1.914h-1.914V30.25h1.914v-1.914h11.462v1.914h1.914v11.461h-1.914v1.914H56.54z M66.088,41.711v-1.914
			h1.914v-3.805h-1.914v-1.914h1.914v-1.914h-1.914V30.25h-7.634v1.914H56.54v1.914h3.828v-1.914h3.806v1.914h-3.806v1.914h3.806
			v3.805h-3.806v-1.914H56.54v1.914h1.914v1.914H66.088z"/>
		<path d="M99,43.625h-2.948v-6.467c0-0.924-0.157-1.6-0.473-2.025c-0.315-0.424-0.752-0.637-1.31-0.637
			c-0.586,0-1.137,0.223-1.649,0.67c-0.514,0.447-0.88,1.031-1.101,1.75v6.709h-2.947v-6.467c0-0.924-0.158-1.6-0.474-2.025
			c-0.315-0.424-0.751-0.637-1.309-0.637c-0.572,0-1.118,0.219-1.639,0.66c-0.521,0.439-0.892,1.02-1.111,1.736v6.732h-2.948V32.098
			h2.662v2.135c0.426-0.748,1.009-1.324,1.749-1.729c0.74-0.402,1.588-0.604,2.541-0.604c0.968,0,1.716,0.234,2.244,0.703
			s0.865,1.049,1.012,1.738c0.47-0.793,1.063-1.396,1.782-1.814s1.54-0.627,2.464-0.627c0.704,0,1.283,0.131,1.738,0.395
			c0.454,0.264,0.807,0.609,1.056,1.035s0.422,0.908,0.518,1.451C98.952,35.324,99,35.875,99,36.432V43.625z"/>
		<path d="M106.81,43.846c-0.558,0-1.078-0.092-1.563-0.275c-0.483-0.184-0.901-0.439-1.254-0.77
			c-0.352-0.33-0.627-0.715-0.825-1.156c-0.197-0.439-0.297-0.924-0.297-1.451c0-0.543,0.121-1.045,0.363-1.508
			c0.242-0.461,0.579-0.854,1.012-1.176s0.949-0.576,1.551-0.76s1.262-0.275,1.98-0.275c0.513,0,1.016,0.045,1.507,0.133
			s0.928,0.213,1.31,0.375v-0.66c0-0.764-0.217-1.35-0.649-1.762c-0.433-0.41-1.074-0.615-1.925-0.615
			c-0.616,0-1.218,0.109-1.805,0.33c-0.586,0.221-1.188,0.543-1.804,0.969l-0.901-1.871c1.48-0.982,3.079-1.473,4.796-1.473
			c1.657,0,2.943,0.406,3.86,1.221c0.917,0.813,1.375,1.99,1.375,3.531v3.586c0,0.307,0.056,0.527,0.165,0.66
			c0.11,0.131,0.29,0.205,0.539,0.219v2.508c-0.499,0.104-0.932,0.154-1.298,0.154c-0.558,0-0.986-0.125-1.287-0.373
			c-0.301-0.25-0.487-0.58-0.561-0.99l-0.066-0.639c-0.514,0.676-1.137,1.188-1.87,1.541C108.43,43.67,107.646,43.846,106.81,43.846
			z M107.646,41.689c0.498,0,0.972-0.088,1.419-0.264s0.795-0.41,1.045-0.705c0.322-0.248,0.484-0.527,0.484-0.836v-1.318
			c-0.353-0.133-0.734-0.238-1.145-0.32c-0.411-0.08-0.807-0.121-1.188-0.121c-0.764,0-1.387,0.174-1.87,0.518
			c-0.484,0.344-0.727,0.781-0.727,1.309c0,0.5,0.19,0.914,0.572,1.244C106.618,41.525,107.088,41.689,107.646,41.689z"/>
		<path d="M129.095,43.625h-2.947v-6.467c0-0.924-0.162-1.6-0.484-2.025c-0.323-0.424-0.771-0.637-1.342-0.637
			c-0.294,0-0.594,0.059-0.902,0.176c-0.308,0.117-0.598,0.281-0.869,0.494s-0.517,0.467-0.736,0.76
			c-0.221,0.293-0.382,0.615-0.484,0.967v6.732h-2.948V32.098h2.662v2.135c0.426-0.734,1.041-1.307,1.848-1.717
			s1.717-0.615,2.729-0.615c0.719,0,1.305,0.131,1.76,0.395s0.807,0.609,1.057,1.035c0.249,0.426,0.421,0.908,0.517,1.451
			c0.095,0.543,0.143,1.094,0.143,1.65V43.625z"/>
	</g>
</g>
<g id="_x32__truths_and_a_lie">
</g>
<g id="cray_cray_cat_lady">
</g>
<g id="siblings">
</g>
<g id="later">
</g>
<g id="waterfall">
</g>
<g id="cheers">
</g>
<g id="rhyme">
</g>
<g id="categories">
</g>
<g id="tits">
</g>
<g id="dicks">
</g>
<g id="questions">
</g>
<g id="double_hands">
</g>
<g id="take_2">
</g>
<g id="take_3">
</g>
<g id="give_3">
</g>
<g id="give_2">
</g>
<g id="rewind">
</g>
<g id="Cryptkeeper">
</g>
<g id="Take_2_and_Redo">
</g>
<g id="Embryo">
</g>
<g id="I_am_Groot">
</g>
<g id="Mini_Me">
</g>
<g id="Ditto_1_">
</g>
</svg>
