<?xml version="1.0" encoding="utf-8"?>
<!-- Generator: Adobe Illustrator 16.0.0, SVG Export Plug-In . SVG Version: 6.00 Build 0)  -->
<!DOCTYPE svg PUBLIC "-//W3C//DTD SVG 1.1//EN" "http://www.w3.org/Graphics/SVG/1.1/DTD/svg11.dtd">
<svg version="1.1" xmlns="http://www.w3.org/2000/svg" xmlns:xlink="http://www.w3.org/1999/xlink" x="0px" y="0px"
	 width="209.759px" height="62.361px" viewBox="0 0 209.759 62.361" enable-background="new 0 0 209.759 62.361"
	 xml:space="preserve">
<g id="Layer_1">
</g>
<g id="Hat">
</g>
<g id="Compliments">
</g>
<g id="HAT">
</g>
<g id="speech">
</g>
<g id="TREX_ARMS">
</g>
<g id="slim_shady">
</g>
<g id="TIMEOUT">
</g>
<g id="Truth_or_Dare">
</g>
<g id="ARM_WRESTLE">
</g>
<g id="musical_chairs">
</g>
<g id="never_have_i_ever">
</g>
<g id="Trivia">
</g>
<g id="Drink_Pulling">
</g>
<g id="Sharing_is_Caring">
</g>
<g id="Not_It">
</g>
<g id="Cocktail_of_Doom">
</g>
<g id="Heads_up">
</g>
<g id="Archenemy">
</g>
<g id="battle_of_the_sexes">
</g>
<g id="one_must_drink">
</g>
<g id="rainbow_connection">
</g>
<g id="social_drinking">
</g>
<g id="Spin_the_bottle">
</g>
<g id="accents">
</g>
<g id="Slap">
</g>
<g id="give_3">
</g>
<g id="rub">
</g>
<g id="down_the_hatch">
</g>
<g id="rubiks_cube">
</g>
<g id="bar_tender">
</g>
<g id="codenames">
</g>
<g id="hand_switch">
</g>
<g id="make_a_rule">
</g>
<g id="no_guts_no_glory">
</g>
<g id="pass">
</g>
<g id="santa">
</g>
<g id="snake_eyes">
</g>
<g id="bodyguard">
</g>
<g id="threeman">
</g>
<g id="_x32__truths_and_a_lie">
</g>
<g id="cray_cray_cat_lady">
	<g>
		<path d="M48.805,15.485c0-0.807,0.139-1.569,0.418-2.288c0.278-0.719,0.682-1.35,1.21-1.893c0.528-0.542,1.166-0.975,1.914-1.298
			c0.748-0.322,1.591-0.483,2.53-0.483c1.261,0,2.335,0.271,3.223,0.813c0.887,0.543,1.551,1.254,1.991,2.134l-2.883,0.88
			c-0.249-0.425-0.579-0.751-0.989-0.979c-0.411-0.228-0.866-0.341-1.364-0.341c-0.426,0-0.821,0.084-1.188,0.253
			c-0.366,0.169-0.686,0.403-0.956,0.704c-0.272,0.301-0.484,0.663-0.639,1.089s-0.23,0.895-0.23,1.408s0.08,0.982,0.241,1.407
			c0.162,0.426,0.378,0.792,0.649,1.101c0.271,0.308,0.59,0.547,0.957,0.715c0.366,0.169,0.755,0.253,1.166,0.253
			c0.528,0,1.016-0.132,1.463-0.396c0.447-0.265,0.759-0.587,0.936-0.969l2.882,0.88c-0.396,0.881-1.049,1.6-1.958,2.156
			c-0.91,0.558-2.002,0.836-3.278,0.836c-0.938,0-1.782-0.161-2.53-0.483c-0.748-0.323-1.386-0.76-1.914-1.31
			c-0.527-0.55-0.935-1.188-1.221-1.914C48.947,17.036,48.805,16.277,48.805,15.485z"/>
		<path d="M70.893,12.273c-0.895,0.015-1.694,0.187-2.398,0.517s-1.21,0.825-1.518,1.485v6.974h-2.948V9.721h2.706v2.464
			c0.205-0.396,0.447-0.751,0.727-1.066c0.278-0.315,0.579-0.591,0.901-0.825s0.649-0.414,0.979-0.539
			c0.33-0.124,0.648-0.187,0.957-0.187c0.161,0,0.282,0,0.362,0c0.081,0,0.158,0.007,0.231,0.021V12.273z"/>
		<path d="M77.625,21.469c-0.558,0-1.078-0.092-1.563-0.274c-0.483-0.184-0.901-0.44-1.254-0.771
			c-0.352-0.33-0.627-0.715-0.825-1.155c-0.197-0.439-0.297-0.924-0.297-1.451c0-0.543,0.121-1.045,0.363-1.508
			c0.242-0.462,0.579-0.854,1.012-1.177c0.433-0.322,0.949-0.575,1.551-0.759s1.262-0.275,1.98-0.275
			c0.513,0,1.016,0.044,1.507,0.133c0.491,0.088,0.928,0.212,1.31,0.374v-0.66c0-0.763-0.217-1.35-0.649-1.761
			c-0.433-0.41-1.074-0.615-1.925-0.615c-0.616,0-1.218,0.109-1.805,0.33c-0.586,0.22-1.188,0.542-1.804,0.968l-0.901-1.87
			c1.48-0.982,3.079-1.474,4.796-1.474c1.657,0,2.943,0.406,3.86,1.221c0.917,0.813,1.375,1.991,1.375,3.531v3.586
			c0,0.308,0.056,0.527,0.165,0.66c0.11,0.132,0.29,0.205,0.539,0.22v2.508c-0.499,0.103-0.932,0.154-1.298,0.154
			c-0.558,0-0.986-0.125-1.287-0.374s-0.487-0.579-0.561-0.99l-0.066-0.638c-0.514,0.675-1.137,1.188-1.87,1.54
			C79.245,21.293,78.461,21.469,77.625,21.469z M78.461,19.313c0.498,0,0.972-0.089,1.419-0.265s0.795-0.41,1.045-0.704
			c0.322-0.249,0.484-0.527,0.484-0.836v-1.319c-0.353-0.133-0.734-0.238-1.145-0.319c-0.411-0.08-0.807-0.121-1.188-0.121
			c-0.764,0-1.387,0.173-1.87,0.517c-0.484,0.345-0.727,0.781-0.727,1.31c0,0.499,0.19,0.913,0.572,1.243
			C77.434,19.148,77.903,19.313,78.461,19.313z"/>
		<path d="M89.152,23.493c0.249,0.073,0.491,0.128,0.726,0.165c0.235,0.036,0.433,0.055,0.595,0.055c0.19,0,0.366-0.037,0.527-0.11
			s0.309-0.201,0.44-0.385s0.264-0.437,0.396-0.759c0.133-0.322,0.271-0.726,0.418-1.21L87.7,9.721h3.036l3.124,8.977l2.772-8.977
			h2.771l-4.84,13.816c-0.279,0.807-0.756,1.467-1.43,1.979c-0.675,0.514-1.511,0.771-2.509,0.771c-0.234,0-0.473-0.019-0.715-0.055
			c-0.242-0.037-0.495-0.1-0.759-0.188V23.493z"/>
		<path d="M109.15,15.485c0-0.807,0.139-1.569,0.418-2.288c0.278-0.719,0.682-1.35,1.21-1.893c0.528-0.542,1.166-0.975,1.914-1.298
			c0.748-0.322,1.591-0.483,2.53-0.483c1.261,0,2.335,0.271,3.223,0.813c0.887,0.543,1.551,1.254,1.991,2.134l-2.883,0.88
			c-0.249-0.425-0.579-0.751-0.989-0.979c-0.411-0.228-0.866-0.341-1.364-0.341c-0.426,0-0.821,0.084-1.188,0.253
			c-0.366,0.169-0.686,0.403-0.956,0.704c-0.272,0.301-0.484,0.663-0.639,1.089s-0.23,0.895-0.23,1.408s0.08,0.982,0.241,1.407
			c0.162,0.426,0.378,0.792,0.649,1.101c0.271,0.308,0.59,0.547,0.957,0.715c0.366,0.169,0.755,0.253,1.166,0.253
			c0.528,0,1.016-0.132,1.463-0.396c0.447-0.265,0.759-0.587,0.936-0.969l2.882,0.88c-0.396,0.881-1.049,1.6-1.958,2.156
			c-0.91,0.558-2.002,0.836-3.278,0.836c-0.938,0-1.782-0.161-2.53-0.483c-0.748-0.323-1.386-0.76-1.914-1.31
			c-0.527-0.55-0.935-1.188-1.221-1.914C109.293,17.036,109.15,16.277,109.15,15.485z"/>
		<path d="M131.238,12.273c-0.895,0.015-1.694,0.187-2.398,0.517s-1.21,0.825-1.518,1.485v6.974h-2.948V9.721h2.706v2.464
			c0.205-0.396,0.447-0.751,0.727-1.066c0.278-0.315,0.579-0.591,0.901-0.825s0.649-0.414,0.979-0.539
			c0.33-0.124,0.648-0.187,0.957-0.187c0.161,0,0.282,0,0.362,0c0.081,0,0.158,0.007,0.231,0.021V12.273z"/>
		<path d="M137.971,21.469c-0.558,0-1.078-0.092-1.563-0.274c-0.483-0.184-0.901-0.44-1.254-0.771
			c-0.352-0.33-0.627-0.715-0.825-1.155c-0.197-0.439-0.297-0.924-0.297-1.451c0-0.543,0.121-1.045,0.363-1.508
			c0.242-0.462,0.579-0.854,1.012-1.177c0.433-0.322,0.949-0.575,1.551-0.759s1.262-0.275,1.98-0.275
			c0.513,0,1.016,0.044,1.507,0.133c0.491,0.088,0.928,0.212,1.31,0.374v-0.66c0-0.763-0.217-1.35-0.649-1.761
			c-0.433-0.41-1.074-0.615-1.925-0.615c-0.616,0-1.218,0.109-1.805,0.33c-0.586,0.22-1.188,0.542-1.804,0.968l-0.901-1.87
			c1.48-0.982,3.079-1.474,4.796-1.474c1.657,0,2.943,0.406,3.86,1.221c0.917,0.813,1.375,1.991,1.375,3.531v3.586
			c0,0.308,0.056,0.527,0.165,0.66c0.11,0.132,0.29,0.205,0.539,0.22v2.508c-0.499,0.103-0.932,0.154-1.298,0.154
			c-0.558,0-0.986-0.125-1.287-0.374s-0.487-0.579-0.561-0.99l-0.066-0.638c-0.514,0.675-1.137,1.188-1.87,1.54
			C139.591,21.293,138.807,21.469,137.971,21.469z M138.807,19.313c0.498,0,0.972-0.089,1.419-0.265s0.795-0.41,1.045-0.704
			c0.322-0.249,0.484-0.527,0.484-0.836v-1.319c-0.353-0.133-0.734-0.238-1.145-0.319c-0.411-0.08-0.807-0.121-1.188-0.121
			c-0.764,0-1.387,0.173-1.87,0.517c-0.484,0.345-0.727,0.781-0.727,1.31c0,0.499,0.19,0.913,0.572,1.243
			C137.779,19.148,138.249,19.313,138.807,19.313z"/>
		<path d="M149.498,23.493c0.249,0.073,0.491,0.128,0.726,0.165c0.235,0.036,0.433,0.055,0.595,0.055c0.19,0,0.366-0.037,0.527-0.11
			s0.309-0.201,0.44-0.385s0.264-0.437,0.396-0.759c0.133-0.322,0.271-0.726,0.418-1.21l-4.554-11.528h3.036l3.124,8.977
			l2.772-8.977h2.771l-4.84,13.816c-0.279,0.807-0.756,1.467-1.43,1.979c-0.675,0.514-1.511,0.771-2.509,0.771
			c-0.234,0-0.473-0.019-0.715-0.055c-0.242-0.037-0.495-0.1-0.759-0.188V23.493z"/>
		<path d="M55.12,47.485c0-0.807,0.139-1.569,0.418-2.288c0.278-0.719,0.682-1.35,1.21-1.893c0.528-0.542,1.166-0.975,1.914-1.298
			c0.748-0.322,1.591-0.483,2.53-0.483c1.261,0,2.335,0.271,3.223,0.813c0.887,0.543,1.551,1.254,1.991,2.134l-2.883,0.88
			c-0.249-0.425-0.579-0.751-0.989-0.979c-0.411-0.228-0.866-0.341-1.364-0.341c-0.426,0-0.821,0.084-1.188,0.253
			c-0.366,0.169-0.686,0.403-0.956,0.704c-0.272,0.301-0.484,0.663-0.639,1.089s-0.23,0.895-0.23,1.408s0.08,0.982,0.241,1.407
			c0.162,0.426,0.378,0.792,0.649,1.101c0.271,0.308,0.59,0.547,0.957,0.715c0.366,0.169,0.755,0.253,1.166,0.253
			c0.528,0,1.016-0.132,1.463-0.396c0.447-0.265,0.759-0.587,0.936-0.969l2.882,0.88c-0.396,0.881-1.049,1.6-1.958,2.156
			c-0.91,0.558-2.002,0.836-3.278,0.836c-0.938,0-1.782-0.161-2.53-0.483c-0.748-0.323-1.386-0.76-1.914-1.31
			c-0.527-0.55-0.935-1.188-1.221-1.914C55.263,49.036,55.12,48.277,55.12,47.485z"/>
		<path d="M73.49,53.469c-0.558,0-1.078-0.092-1.563-0.274c-0.483-0.184-0.901-0.44-1.254-0.771
			c-0.352-0.33-0.627-0.715-0.825-1.155c-0.197-0.439-0.297-0.924-0.297-1.451c0-0.543,0.121-1.045,0.363-1.508
			c0.242-0.462,0.579-0.854,1.012-1.177c0.433-0.322,0.949-0.575,1.551-0.759s1.262-0.275,1.98-0.275
			c0.513,0,1.016,0.044,1.507,0.133c0.491,0.088,0.928,0.212,1.31,0.374v-0.66c0-0.763-0.217-1.35-0.649-1.761
			c-0.433-0.41-1.074-0.615-1.925-0.615c-0.616,0-1.218,0.109-1.805,0.33c-0.586,0.22-1.188,0.542-1.804,0.968l-0.901-1.87
			c1.48-0.982,3.079-1.474,4.796-1.474c1.657,0,2.943,0.406,3.86,1.221c0.917,0.813,1.375,1.991,1.375,3.531v3.586
			c0,0.308,0.056,0.527,0.165,0.66c0.11,0.132,0.29,0.205,0.539,0.22v2.508c-0.499,0.103-0.932,0.154-1.298,0.154
			c-0.558,0-0.986-0.125-1.287-0.374s-0.487-0.579-0.561-0.99l-0.066-0.638c-0.514,0.675-1.137,1.188-1.87,1.54
			C75.11,53.293,74.326,53.469,73.49,53.469z M74.326,51.313c0.498,0,0.972-0.089,1.419-0.265s0.795-0.41,1.045-0.704
			c0.322-0.249,0.484-0.527,0.484-0.836v-1.319c-0.353-0.133-0.734-0.238-1.145-0.319c-0.411-0.08-0.807-0.121-1.188-0.121
			c-0.764,0-1.387,0.173-1.87,0.517c-0.484,0.345-0.727,0.781-0.727,1.31c0,0.499,0.19,0.913,0.572,1.243
			C73.299,51.148,73.769,51.313,74.326,51.313z"/>
		<path d="M91.882,52.655c-0.396,0.176-0.88,0.352-1.452,0.527c-0.572,0.177-1.174,0.265-1.804,0.265
			c-0.411,0-0.796-0.052-1.155-0.154s-0.675-0.268-0.946-0.495c-0.271-0.227-0.487-0.521-0.648-0.88
			c-0.162-0.359-0.242-0.795-0.242-1.309v-6.622h-1.518v-2.267h1.518v-3.739h2.948v3.739h2.42v2.267h-2.42v5.632
			c0,0.411,0.106,0.7,0.318,0.869c0.213,0.169,0.474,0.253,0.781,0.253c0.309,0,0.608-0.052,0.902-0.154
			c0.293-0.103,0.528-0.19,0.704-0.264L91.882,52.655z"/>
		<path d="M102.859,37.189h2.947v12.363c0,0.426,0.103,0.756,0.309,0.99c0.205,0.234,0.498,0.353,0.88,0.353
			c0.176,0,0.37-0.029,0.583-0.089c0.212-0.058,0.414-0.132,0.604-0.22l0.396,2.244c-0.396,0.19-0.858,0.338-1.386,0.44
			c-0.528,0.102-1.005,0.153-1.431,0.153c-0.924,0-1.639-0.245-2.145-0.736s-0.759-1.191-0.759-2.102V37.189z"/>
		<path d="M115.091,53.469c-0.558,0-1.078-0.092-1.563-0.274c-0.483-0.184-0.901-0.44-1.254-0.771
			c-0.352-0.33-0.627-0.715-0.825-1.155c-0.197-0.439-0.297-0.924-0.297-1.451c0-0.543,0.121-1.045,0.363-1.508
			c0.242-0.462,0.579-0.854,1.012-1.177c0.433-0.322,0.949-0.575,1.551-0.759s1.262-0.275,1.98-0.275
			c0.513,0,1.016,0.044,1.507,0.133c0.491,0.088,0.928,0.212,1.31,0.374v-0.66c0-0.763-0.217-1.35-0.649-1.761
			c-0.433-0.41-1.074-0.615-1.925-0.615c-0.616,0-1.218,0.109-1.805,0.33c-0.586,0.22-1.188,0.542-1.804,0.968l-0.901-1.87
			c1.48-0.982,3.079-1.474,4.796-1.474c1.657,0,2.943,0.406,3.86,1.221c0.917,0.813,1.375,1.991,1.375,3.531v3.586
			c0,0.308,0.056,0.527,0.165,0.66c0.11,0.132,0.29,0.205,0.539,0.22v2.508c-0.499,0.103-0.932,0.154-1.298,0.154
			c-0.558,0-0.986-0.125-1.287-0.374s-0.487-0.579-0.561-0.99l-0.066-0.638c-0.514,0.675-1.137,1.188-1.87,1.54
			C116.711,53.293,115.927,53.469,115.091,53.469z M115.927,51.313c0.498,0,0.972-0.089,1.419-0.265s0.795-0.41,1.045-0.704
			c0.322-0.249,0.484-0.527,0.484-0.836v-1.319c-0.353-0.133-0.734-0.238-1.145-0.319c-0.411-0.08-0.807-0.121-1.188-0.121
			c-0.764,0-1.387,0.173-1.87,0.517c-0.484,0.345-0.727,0.781-0.727,1.31c0,0.499,0.19,0.913,0.572,1.243
			C114.899,51.148,115.369,51.313,115.927,51.313z"/>
		<path d="M131.437,53.469c-0.792,0-1.525-0.153-2.2-0.462c-0.675-0.308-1.254-0.733-1.738-1.275
			c-0.483-0.543-0.861-1.178-1.133-1.903c-0.271-0.727-0.407-1.507-0.407-2.343s0.129-1.613,0.386-2.332
			c0.256-0.719,0.611-1.35,1.066-1.893c0.455-0.542,0.997-0.968,1.628-1.275c0.631-0.309,1.32-0.462,2.068-0.462
			c0.851,0,1.617,0.205,2.299,0.615c0.682,0.411,1.214,0.946,1.595,1.606v-6.556h2.948v12.672c0,0.308,0.052,0.527,0.154,0.66
			c0.103,0.132,0.278,0.205,0.527,0.22v2.508c-0.513,0.103-0.931,0.154-1.254,0.154c-0.527,0-0.96-0.132-1.298-0.396
			c-0.337-0.264-0.527-0.608-0.572-1.034l-0.065-0.726c-0.426,0.733-1.001,1.287-1.728,1.661
			C132.987,53.282,132.229,53.469,131.437,53.469z M132.206,50.961c0.278,0,0.564-0.047,0.858-0.143
			c0.293-0.096,0.564-0.231,0.813-0.407c0.25-0.176,0.474-0.381,0.671-0.616c0.198-0.234,0.349-0.491,0.451-0.77v-2.75
			c-0.117-0.323-0.282-0.62-0.495-0.892c-0.212-0.271-0.454-0.506-0.726-0.704c-0.271-0.197-0.558-0.355-0.858-0.473
			s-0.598-0.176-0.891-0.176c-0.44,0-0.847,0.096-1.221,0.286s-0.693,0.45-0.957,0.78c-0.265,0.33-0.47,0.708-0.616,1.134
			c-0.146,0.425-0.22,0.865-0.22,1.319c0,0.484,0.08,0.932,0.242,1.342c0.161,0.411,0.381,0.771,0.659,1.078
			c0.278,0.309,0.612,0.551,1.001,0.727S131.736,50.961,132.206,50.961z"/>
		<path d="M143.185,55.493c0.249,0.073,0.491,0.128,0.726,0.165c0.235,0.036,0.433,0.055,0.595,0.055c0.19,0,0.366-0.037,0.527-0.11
			s0.309-0.201,0.44-0.385s0.264-0.437,0.396-0.759c0.133-0.322,0.271-0.726,0.418-1.21l-4.554-11.528h3.036l3.124,8.977
			l2.772-8.977h2.771l-4.84,13.816c-0.279,0.807-0.756,1.467-1.43,1.979c-0.675,0.514-1.511,0.771-2.509,0.771
			c-0.234,0-0.473-0.019-0.715-0.055c-0.242-0.037-0.495-0.1-0.759-0.188V55.493z"/>
	</g>
</g>
<g id="siblings">
</g>
<g id="take_2">
</g>
<g id="take_3">
</g>
<g id="later">
</g>
<g id="waterfall">
</g>
<g id="cheers">
</g>
<g id="rhyme">
</g>
<g id="categories">
</g>
<g id="tits">
</g>
<g id="dicks">
</g>
<g id="questions">
</g>
<g id="double_hands">
</g>
<g id="give_2">
</g>
<g id="rewind">
</g>
<g id="Cryptkeeper">
</g>
<g id="Take_2_and_Redo">
</g>
<g id="Embryo">
</g>
<g id="I_am_Groot">
</g>
<g id="Mini_Me">
</g>
<g id="Ditto_1_">
</g>
</svg>
