<?xml version="1.0" encoding="utf-8"?>
<!-- Generator: Adobe Illustrator 16.0.0, SVG Export Plug-In . SVG Version: 6.00 Build 0)  -->
<!DOCTYPE svg PUBLIC "-//W3C//DTD SVG 1.1//EN" "http://www.w3.org/Graphics/SVG/1.1/DTD/svg11.dtd">
<svg version="1.1" xmlns="http://www.w3.org/2000/svg" xmlns:xlink="http://www.w3.org/1999/xlink" x="0px" y="0px"
	 width="209.759px" height="62.361px" viewBox="0 0 209.759 62.361" enable-background="new 0 0 209.759 62.361"
	 xml:space="preserve">
<g id="Layer_1">
</g>
<g id="Blindman">
</g>
<g id="Compliments">
</g>
<g id="HAT">
</g>
<g id="speech">
</g>
<g id="TREX_ARMS">
</g>
<g id="slim_shady">
</g>
<g id="TIMEOUT">
</g>
<g id="Truth_or_Dare">
</g>
<g id="ARM_WRESTLE">
</g>
<g id="musical_chairs">
</g>
<g id="never_have_i_ever">
</g>
<g id="Trivia">
</g>
<g id="Drink_Pulling">
</g>
<g id="Sharing_is_Caring">
</g>
<g id="Not_It">
</g>
<g id="Cocktail_of_Doom">
</g>
<g id="Heads_up">
</g>
<g id="Archenemy">
</g>
<g id="battle_of_the_sexes">
</g>
<g id="one_must_drink">
</g>
<g id="rainbow_connection">
</g>
<g id="social_drinking">
</g>
<g id="Spin_the_bottle">
</g>
<g id="accents">
</g>
<g id="Slap">
</g>
<g id="down_the_hatch">
</g>
<g id="rubiks_cube">
</g>
<g id="bar_tender">
</g>
<g id="codenames">
</g>
<g id="hand_switch">
</g>
<g id="make_a_rule">
</g>
<g id="no_guts_no_glory">
</g>
<g id="pass">
</g>
<g id="santa">
</g>
<g id="snake_eyes">
</g>
<g id="lightning_round">
</g>
<g id="Bro">
</g>
<g id="LeastDrunk">
</g>
<g id="Know_It_All">
</g>
<g id="EyeContact">
</g>
<g id="UnderGuesser">
</g>
<g id="GodSaveTheQUeen">
</g>
<g id="Ghost">
</g>
<g id="Fortune_Teller">
</g>
<g id="DrinkSwap">
</g>
<g id="DickTator">
</g>
<g id="_x34_Eyes">
</g>
<g id="BabyTalk">
</g>
<g id="Backseat_Driver">
</g>
<g id="BAtman">
	<g>
		<path d="M50.49,41.43h0.527c0.25,0,0.499,0.018,0.748,0.055s0.506,0.055,0.771,0.055c0.044,0,0.113-0.004,0.209-0.012
			c0.095-0.006,0.15-0.01,0.165-0.01l0.088-0.088V30.338c0-0.088-0.066-0.154-0.198-0.199c-0.132-0.043-0.257-0.064-0.374-0.064
			h-0.154c-0.176,0-0.349,0.014-0.517,0.043c-0.169,0.029-0.341,0.045-0.517,0.045c-0.382,0-0.716-0.092-1.001-0.275
			c-0.286-0.184-0.43-0.48-0.43-0.891c0-0.322,0.096-0.584,0.286-0.781c0.19-0.199,0.447-0.297,0.771-0.297
			c0.234,0,0.439,0.01,0.615,0.033c0.177,0.021,0.396,0.068,0.66,0.143h1.342c0.616,0,1.225-0.045,1.826-0.133
			s1.21-0.131,1.826-0.131h0.44c0.645,0.102,1.228,0.26,1.749,0.473c0.521,0.213,0.964,0.488,1.331,0.824
			c0.366,0.338,0.648,0.752,0.847,1.244c0.198,0.49,0.297,1.066,0.297,1.727c0,0.322-0.044,0.66-0.132,1.012s-0.22,0.66-0.396,0.924
			c-0.073,0.088-0.19,0.242-0.352,0.463c-0.162,0.219-0.242,0.41-0.242,0.572c0,0.088,0.04,0.18,0.121,0.273
			c0.08,0.096,0.172,0.195,0.275,0.297c0.103,0.104,0.205,0.199,0.308,0.287s0.184,0.176,0.242,0.264
			c0.234,0.426,0.41,0.818,0.527,1.178c0.118,0.359,0.177,0.773,0.177,1.242c0,0.338-0.037,0.693-0.11,1.066
			c-0.073,0.375-0.18,0.746-0.319,1.111c-0.139,0.367-0.312,0.713-0.517,1.035s-0.44,0.602-0.704,0.836
			c-0.366,0.205-0.729,0.395-1.089,0.57c-0.359,0.178-0.744,0.301-1.155,0.375c-0.293,0-0.773,0.004-1.44,0.012
			c-0.668,0.006-1.397,0.01-2.189,0.01s-1.521,0-2.188,0c-0.668,0-1.141,0-1.419,0H50.93c-0.337,0-0.608-0.113-0.813-0.34
			c-0.206-0.227-0.309-0.502-0.309-0.824C49.808,41.963,50.035,41.619,50.49,41.43z M54.978,33.898c0,0.162,0.077,0.262,0.231,0.299
			s0.304,0.057,0.451,0.057h0.264c0.47,0,0.961-0.008,1.474-0.021c0.514-0.016,0.969-0.037,1.364-0.068
			c0.103-0.059,0.217-0.133,0.341-0.221c0.125-0.09,0.246-0.189,0.363-0.301s0.216-0.234,0.297-0.367s0.121-0.273,0.121-0.422
			v-1.469c0-0.059-0.029-0.117-0.088-0.178c-0.176-0.281-0.326-0.484-0.451-0.611c-0.125-0.125-0.261-0.215-0.407-0.266
			c-0.146-0.053-0.312-0.09-0.494-0.111c-0.184-0.023-0.422-0.07-0.716-0.145h-2.75V33.898z M55.242,36.189
			c-0.044,0.029-0.1,0.074-0.165,0.133c-0.066,0.059-0.1,0.102-0.1,0.131v4.906c0,0.133,0.085,0.225,0.253,0.275
			c0.169,0.051,0.298,0.076,0.386,0.076c0.498,0,0.993-0.025,1.484-0.076s0.994-0.084,1.507-0.1
			c0.382-0.146,0.693-0.309,0.936-0.484s0.437-0.377,0.583-0.604c0.146-0.229,0.245-0.488,0.297-0.781
			c0.051-0.293,0.077-0.631,0.077-1.012c0-0.191,0.003-0.412,0.011-0.66c0.008-0.25-0.055-0.447-0.187-0.594l-1.034-1.035
			c-0.044-0.043-0.121-0.1-0.231-0.164c-0.109-0.066-0.18-0.1-0.209-0.1h-2.485c-0.118,0.088-0.206,0.139-0.265,0.154
			c-0.059,0.014-0.14,0.021-0.242,0.021s-0.194-0.014-0.274-0.043c-0.081-0.029-0.173-0.045-0.275-0.045H55.242z"/>
		<path d="M64.855,42.396c0-0.029,0.003-0.092,0.011-0.186c0.007-0.096,0.011-0.158,0.011-0.188
			c0.146-0.174,0.278-0.307,0.396-0.395c0.117-0.088,0.242-0.156,0.374-0.209c0.132-0.051,0.271-0.098,0.418-0.141
			c0.146-0.045,0.322-0.111,0.527-0.199c0.103-0.043,0.194-0.123,0.275-0.24c0.08-0.117,0.146-0.242,0.198-0.373
			c0.051-0.133,0.095-0.268,0.132-0.406c0.036-0.139,0.069-0.26,0.099-0.361c0.044-0.146,0.114-0.402,0.209-0.768
			c0.096-0.367,0.198-0.754,0.309-1.164c0.109-0.408,0.212-0.797,0.308-1.162s0.165-0.621,0.209-0.768
			c0.132-0.322,0.22-0.637,0.265-0.943c0.044-0.307,0.124-0.623,0.241-0.943c0.234-0.703,0.474-1.404,0.715-2.107
			c0.242-0.701,0.466-1.404,0.672-2.105c0.044-0.146,0.091-0.33,0.143-0.549c0.051-0.219,0.121-0.428,0.209-0.625
			s0.205-0.365,0.352-0.504s0.338-0.209,0.572-0.209c0.265,0,0.477,0.088,0.639,0.264c0.161,0.176,0.289,0.383,0.385,0.625
			c0.095,0.24,0.168,0.49,0.22,0.746c0.051,0.256,0.099,0.457,0.143,0.604c0.146,0.496,0.265,1.006,0.353,1.523
			c0.088,0.52,0.257,1.014,0.506,1.48l2.068,7.811c0.044,0.146,0.128,0.264,0.253,0.352c0.124,0.088,0.268,0.158,0.429,0.209
			s0.319,0.092,0.473,0.121c0.154,0.029,0.29,0.059,0.407,0.088c0.278,0.176,0.418,0.445,0.418,0.811
			c0,0.352-0.109,0.619-0.33,0.801c-0.22,0.184-0.498,0.275-0.836,0.275c-0.366,0-0.748-0.012-1.144-0.033
			c-0.396-0.023-0.771-0.041-1.122-0.055c-0.235,0-0.455-0.008-0.66-0.023c-0.205-0.014-0.389-0.053-0.55-0.119
			c-0.162-0.066-0.29-0.172-0.385-0.318c-0.096-0.146-0.144-0.352-0.144-0.615v-0.373c0.103-0.131,0.224-0.229,0.363-0.295
			c0.139-0.066,0.278-0.129,0.418-0.188c0.139-0.059,0.264-0.119,0.374-0.186c0.109-0.066,0.187-0.158,0.23-0.275
			c0-0.029-0.007-0.09-0.021-0.186s-0.033-0.193-0.055-0.297c-0.022-0.102-0.041-0.197-0.056-0.285s-0.029-0.146-0.044-0.176
			c-0.015-0.043-0.036-0.123-0.065-0.24c-0.03-0.117-0.074-0.242-0.133-0.373c-0.059-0.133-0.12-0.25-0.187-0.352
			s-0.136-0.154-0.209-0.154h-3.454c-0.029,0-0.103,0.049-0.22,0.143c-0.118,0.096-0.184,0.158-0.198,0.188l-0.616,1.295
			c0,0.014-0.004,0.059-0.011,0.131c-0.008,0.072-0.011,0.125-0.011,0.154c0,0.248,0.069,0.416,0.209,0.504
			c0.139,0.088,0.289,0.168,0.451,0.242c0.161,0.072,0.311,0.172,0.45,0.295c0.14,0.125,0.209,0.34,0.209,0.648
			c0,0.336-0.113,0.576-0.341,0.723s-0.502,0.221-0.825,0.221c-0.205,0-0.406-0.016-0.604-0.045s-0.407-0.043-0.627-0.043
			c-0.294,0-0.58,0.025-0.858,0.076s-0.564,0.076-0.857,0.076c-0.338,0-0.602-0.127-0.792-0.383
			C64.95,42.986,64.855,42.705,64.855,42.396z M69.959,37.07c0.161,0.102,0.315,0.156,0.462,0.164s0.323,0.012,0.528,0.012
			c0.293,0,0.583-0.023,0.869-0.066c0.286-0.045,0.583-0.08,0.891-0.109l0.088-0.088c0-0.016,0.004-0.057,0.012-0.121
			c0.007-0.066,0.011-0.115,0.011-0.145c0-0.117-0.029-0.318-0.088-0.604c-0.059-0.287-0.136-0.602-0.231-0.947
			c-0.096-0.344-0.201-0.699-0.318-1.066c-0.118-0.367-0.228-0.701-0.33-1.002c-0.104-0.299-0.191-0.549-0.265-0.748
			c-0.073-0.197-0.117-0.297-0.132-0.297c-0.059,0-0.103,0.037-0.132,0.111c-0.029,0.072-0.052,0.125-0.066,0.154
			c-0.044,0.117-0.106,0.289-0.187,0.516c-0.081,0.229-0.165,0.455-0.253,0.682c-0.088,0.229-0.165,0.434-0.231,0.617
			c-0.065,0.184-0.106,0.297-0.121,0.34c-0.117,0.383-0.234,0.771-0.352,1.166c-0.117,0.396-0.176,0.785-0.176,1.166
			c0,0.031,0.003,0.074,0.011,0.133C69.955,36.996,69.959,37.041,69.959,37.07z"/>
		<path d="M83.599,37.543c-0.029-0.557,0.044-1.076,0.22-1.561v-2.438h-2.771c-0.206,0-0.371-0.102-0.495-0.307
			c-0.125-0.205-0.188-0.395-0.188-0.57c0-0.264,0.085-0.484,0.253-0.658c0.169-0.176,0.342-0.346,0.518-0.506
			c0.176-0.148,0.385-0.229,0.627-0.244c0.242-0.014,0.487-0.021,0.736-0.021c0.265,0,0.51-0.025,0.737-0.078
			c0.228-0.051,0.422-0.195,0.583-0.432c0.146-0.221,0.22-0.516,0.22-0.885c0-0.367,0.012-0.732,0.033-1.094
			c0.022-0.361,0.1-0.672,0.231-0.93s0.41-0.387,0.836-0.387c0.425,0,0.686,0.129,0.781,0.387c0.095,0.258,0.143,0.564,0.143,0.918
			c0,0.34-0.019,0.672-0.055,0.996c-0.037,0.324-0.056,0.664-0.056,1.018c0,0.088,0,0.221,0,0.398c0,0.176,0.008,0.271,0.022,0.287
			l0.154,0.154c0.014,0.014,0.117,0.021,0.308,0.021c0.205,0,0.366,0,0.484,0c0.308,0,0.604-0.018,0.891-0.055
			s0.575-0.055,0.869-0.055c0.337,0,0.616,0.131,0.836,0.396c0.22,0.264,0.33,0.549,0.33,0.857c0,0.293-0.092,0.547-0.275,0.758
			c-0.184,0.213-0.422,0.32-0.715,0.32c-0.366,0-0.708-0.049-1.022-0.143c-0.316-0.096-0.687-0.145-1.111-0.145
			c-0.088,0-0.217,0.004-0.385,0.012c-0.169,0.008-0.261,0.018-0.275,0.033l-0.264,0.242v6.098c0,0.117,0.04,0.248,0.121,0.395
			c0.08,0.146,0.183,0.285,0.308,0.416c0.124,0.133,0.26,0.246,0.407,0.34c0.146,0.096,0.286,0.143,0.418,0.143
			c0.352,0,0.63-0.084,0.836-0.252c0.205-0.168,0.363-0.377,0.473-0.627c0.11-0.25,0.198-0.518,0.265-0.803
			c0.065-0.287,0.135-0.555,0.209-0.803c0.073-0.25,0.176-0.459,0.308-0.627c0.132-0.17,0.322-0.254,0.572-0.254
			c0.366,0,0.623,0.133,0.77,0.396s0.22,0.549,0.22,0.857c0,0.5-0.073,1.006-0.22,1.518c-0.146,0.514-0.363,0.98-0.648,1.398
			c-0.286,0.418-0.643,0.762-1.067,1.033c-0.426,0.271-0.917,0.406-1.474,0.406c-0.221,0-0.39-0.006-0.507-0.021
			c-0.117-0.014-0.224-0.039-0.318-0.076c-0.096-0.037-0.191-0.088-0.286-0.154c-0.096-0.066-0.224-0.156-0.385-0.273
			c-0.015,0-0.059-0.02-0.132-0.057c-0.074-0.035-0.147-0.072-0.221-0.109c-0.073-0.035-0.146-0.068-0.22-0.098
			s-0.117-0.053-0.132-0.066c-0.602-0.469-0.994-0.98-1.177-1.537c-0.184-0.557-0.275-1.201-0.275-1.934
			C83.643,38.633,83.628,38.1,83.599,37.543z"/>
		<path d="M101.781,43.439c-0.08,0.064-0.157,0.135-0.23,0.209c-0.074,0.072-0.15,0.143-0.231,0.209
			c-0.08,0.064-0.18,0.098-0.297,0.098h-1.275c-0.118,0-0.265-0.041-0.44-0.121s-0.359-0.168-0.55-0.264
			c-0.191-0.096-0.367-0.184-0.528-0.264s-0.278-0.121-0.352-0.121h-0.044c-0.074,0.059-0.158,0.133-0.253,0.221
			c-0.096,0.088-0.198,0.172-0.309,0.252s-0.228,0.15-0.352,0.209c-0.125,0.059-0.246,0.088-0.363,0.088h-1.804
			c-0.162,0-0.33-0.033-0.506-0.098c-0.177-0.066-0.334-0.154-0.474-0.266c-0.14-0.109-0.257-0.242-0.352-0.395
			c-0.096-0.154-0.144-0.313-0.144-0.475c0-0.264,0.066-0.453,0.198-0.57s0.275-0.207,0.429-0.266
			c0.154-0.059,0.301-0.105,0.44-0.143c0.139-0.035,0.216-0.105,0.23-0.209l0.177-1.188v-5.787c0-0.072-0.066-0.123-0.198-0.152
			s-0.282-0.074-0.451-0.133s-0.319-0.154-0.451-0.285c-0.132-0.133-0.197-0.338-0.197-0.617c0-0.439,0.139-0.725,0.418-0.857
			c0.278-0.133,0.608-0.197,0.989-0.197c0.161,0,0.338,0.002,0.528,0.01s0.345,0.07,0.462,0.188c0.029,0.029,0.073,0.08,0.132,0.154
			c0.059,0.072,0.125,0.15,0.198,0.23s0.143,0.162,0.209,0.242s0.121,0.129,0.165,0.143h0.044h0.045
			c0.104-0.102,0.229-0.227,0.378-0.373c0.147-0.146,0.311-0.279,0.489-0.396c0.177-0.117,0.362-0.221,0.555-0.309
			s0.371-0.131,0.534-0.131c0.311,0,0.57,0.055,0.777,0.164c0.208,0.109,0.39,0.242,0.545,0.396s0.307,0.318,0.455,0.494
			s0.318,0.338,0.512,0.484c0.218-0.176,0.403-0.352,0.556-0.527s0.309-0.33,0.469-0.463c0.159-0.131,0.345-0.242,0.555-0.33
			c0.211-0.088,0.498-0.131,0.861-0.131c0.261,0,0.497,0.051,0.708,0.154c0.21,0.102,0.396,0.238,0.556,0.406
			c0.159,0.168,0.298,0.359,0.414,0.572s0.225,0.436,0.326,0.67c0.015,0.029,0.033,0.088,0.055,0.176
			c0.021,0.09,0.033,0.148,0.033,0.178v4.904c-0.074,0.207-0.106,0.451-0.1,0.738c0.008,0.285,0.012,0.51,0.012,0.67v0.99
			c0.058,0.146,0.135,0.262,0.23,0.342s0.19,0.162,0.286,0.242s0.176,0.168,0.242,0.264c0.065,0.096,0.099,0.23,0.099,0.406
			c0,0.25-0.088,0.506-0.264,0.771c-0.176,0.264-0.403,0.395-0.682,0.395c-0.426,0-0.829-0.055-1.211-0.164
			c-0.381-0.111-0.784-0.203-1.21-0.275c-0.132-0.014-0.26-0.063-0.385-0.143s-0.253-0.121-0.385-0.121
			C101.954,43.34,101.862,43.373,101.781,43.439z M97.733,34.836c-0.228,0.258-0.429,0.539-0.604,0.848
			c-0.177,0.309-0.315,0.627-0.418,0.957c-0.104,0.33-0.154,0.643-0.154,0.936v4.135c0,0.016,0.021,0.045,0.066,0.088
			c0.044,0.045,0.08,0.074,0.109,0.088c0.029,0.016,0.113,0.045,0.253,0.088c0.14,0.045,0.224,0.074,0.253,0.09
			c0.044,0.029,0.136,0.109,0.275,0.24c0.139,0.133,0.224,0.221,0.253,0.266h0.066c0.044-0.059,0.143-0.145,0.297-0.254
			c0.153-0.109,0.312-0.23,0.473-0.363c0.161-0.131,0.305-0.256,0.429-0.373c0.125-0.117,0.188-0.213,0.188-0.287v-6.797
			c0-0.146-0.066-0.232-0.198-0.254s-0.234-0.033-0.308-0.033c-0.03,0-0.074,0.004-0.132,0.012c-0.06,0.008-0.104,0.012-0.133,0.012
			C98.199,34.379,97.961,34.58,97.733,34.836z M100.912,41.018c0.015,0.199,0.058,0.375,0.13,0.529s0.184,0.285,0.335,0.396
			c0.151,0.109,0.357,0.209,0.617,0.297h0.087h0.086l0.347-0.176c0.058-0.016,0.144-0.033,0.26-0.057
			c0.115-0.021,0.23-0.051,0.346-0.088c0.116-0.035,0.213-0.088,0.293-0.154c0.078-0.064,0.118-0.164,0.118-0.297v-6.973
			c0-0.146-0.068-0.232-0.205-0.254c-0.138-0.021-0.242-0.033-0.314-0.033c-0.158,0-0.295,0.045-0.411,0.133
			c-0.115,0.088-0.23,0.191-0.346,0.309c-0.029,0.043-0.072,0.127-0.13,0.252s-0.123,0.258-0.195,0.396s-0.141,0.271-0.205,0.396
			c-0.065,0.123-0.112,0.209-0.141,0.252c-0.015,0.016-0.047,0.059-0.098,0.133c-0.05,0.072-0.075,0.117-0.075,0.131
			c-0.231,0.66-0.375,1.336-0.433,2.025s-0.087,1.379-0.087,2.066C100.891,40.582,100.897,40.82,100.912,41.018z"/>
		<path d="M109.295,37.982c0.352-0.49,0.792-0.85,1.32-1.078c0.527-0.227,1.104-0.367,1.727-0.418s1.199-0.1,1.728-0.143
			c0.527-0.045,0.968-0.125,1.319-0.242c0.353-0.117,0.528-0.352,0.528-0.703c0-0.25-0.044-0.484-0.132-0.705
			s-0.25-0.396-0.484-0.527c-0.088-0.045-0.22-0.111-0.396-0.199c-0.177-0.088-0.271-0.131-0.286-0.131h-2.068
			c-0.117,0-0.198,0.063-0.242,0.188c-0.044,0.123-0.084,0.277-0.121,0.461c-0.036,0.184-0.076,0.385-0.121,0.605
			c-0.044,0.219-0.113,0.422-0.209,0.605c-0.095,0.184-0.234,0.336-0.418,0.461s-0.429,0.188-0.736,0.188
			c-0.47,0-0.854-0.154-1.155-0.463c-0.301-0.307-0.451-0.689-0.451-1.143c0-0.266,0.044-0.5,0.132-0.705s0.206-0.396,0.353-0.572
			s0.315-0.34,0.506-0.494s0.381-0.297,0.572-0.43c0.161-0.117,0.33-0.244,0.506-0.385c0.176-0.139,0.381-0.209,0.616-0.209
			l3.365,0.045c0.19,0,0.415,0.08,0.672,0.24c0.256,0.16,0.506,0.35,0.747,0.57c0.242,0.219,0.455,0.451,0.639,0.699
			c0.183,0.248,0.297,0.461,0.341,0.635c0.015,0.045,0.036,0.125,0.066,0.242c0.028,0.117,0.058,0.236,0.088,0.361
			c0.029,0.123,0.055,0.24,0.076,0.35c0.022,0.109,0.033,0.186,0.033,0.23v0.678c0,0.176,0.004,0.377,0.012,0.604
			c0.007,0.227-0.026,0.426-0.1,0.602V40.9c0,0.408,0.176,0.613,0.528,0.613c0.234,0,0.381-0.104,0.439-0.309
			s0.11-0.436,0.154-0.693c0.044-0.256,0.113-0.486,0.209-0.691s0.297-0.309,0.605-0.309c0.161,0,0.3,0.043,0.418,0.131
			c0.117,0.09,0.212,0.199,0.286,0.33c0.073,0.133,0.124,0.275,0.153,0.43s0.044,0.305,0.044,0.451c0,0.322-0.052,0.646-0.153,0.969
			c-0.104,0.322-0.246,0.611-0.43,0.869c-0.184,0.256-0.41,0.465-0.682,0.627c-0.271,0.16-0.583,0.24-0.936,0.24
			c-0.278,0-0.521-0.031-0.726-0.098s-0.433-0.18-0.682-0.342c-0.088-0.043-0.165-0.113-0.231-0.209
			c-0.065-0.096-0.132-0.189-0.198-0.285c-0.065-0.096-0.14-0.18-0.22-0.254c-0.081-0.072-0.173-0.109-0.274-0.109h-0.11
			c-0.206,0.104-0.415,0.227-0.627,0.373c-0.213,0.148-0.429,0.291-0.649,0.43c-0.22,0.139-0.447,0.256-0.682,0.352
			c-0.235,0.096-0.477,0.143-0.727,0.143h-1.979c-0.161,0-0.301-0.039-0.418-0.119c-0.117-0.082-0.235-0.158-0.353-0.232
			c-0.602-0.352-1.037-0.787-1.309-1.309c-0.271-0.52-0.407-1.125-0.407-1.814C108.767,39.174,108.943,38.475,109.295,37.982z
			 M110.549,40.479c0.044,0.162,0.106,0.32,0.188,0.475c0.08,0.154,0.179,0.281,0.297,0.385c0.117,0.102,0.249,0.154,0.396,0.154
			h2.244c0.015,0,0.063-0.023,0.143-0.066c0.081-0.045,0.15-0.08,0.209-0.109c0.029-0.029,0.1-0.074,0.209-0.133
			c0.11-0.059,0.18-0.096,0.21-0.109c0.542-0.367,0.909-0.748,1.1-1.145s0.286-0.91,0.286-1.541v-0.264
			c-0.015,0-0.044-0.01-0.088-0.033c-0.044-0.021-0.074-0.033-0.088-0.033c-0.016-0.014-0.03-0.021-0.045-0.021l-0.044,0.021
			c-0.044,0-0.165,0.02-0.362,0.057c-0.198,0.035-0.407,0.072-0.627,0.109c-0.221,0.037-0.43,0.074-0.627,0.109
			c-0.198,0.037-0.319,0.055-0.363,0.055c-0.353,0.061-0.708,0.104-1.067,0.133s-0.723,0.074-1.089,0.133
			c-0.19,0.014-0.359,0.131-0.506,0.352c-0.073,0.102-0.165,0.264-0.275,0.484c-0.109,0.219-0.165,0.41-0.165,0.57
			C110.482,40.18,110.505,40.318,110.549,40.479z"/>
		<path d="M123.573,41.436c0.293-0.123,0.66-0.201,1.1-0.23l0.088-0.088c0.029-0.205,0.056-0.443,0.077-0.715
			c0.022-0.271,0.056-0.518,0.1-0.736v-5.082c0-0.104-0.092-0.18-0.275-0.232c-0.184-0.051-0.382-0.119-0.594-0.209
			c-0.213-0.088-0.411-0.215-0.595-0.385c-0.184-0.168-0.274-0.428-0.274-0.781c0-0.381,0.136-0.641,0.407-0.779
			c0.271-0.141,0.567-0.209,0.891-0.209c0.044,0,0.11,0,0.198,0c0.103,0,0.153,0.006,0.153,0.021
			c0.426,0.059,0.767,0.131,1.023,0.219c0.257,0.09,0.458,0.211,0.605,0.363c0.146,0.154,0.249,0.357,0.308,0.605
			c0.059,0.25,0.103,0.564,0.132,0.945c0.015,0.016,0.029,0.023,0.044,0.023h0.044c0.088,0,0.173-0.045,0.253-0.133
			c0.081-0.088,0.165-0.189,0.253-0.309c0.088-0.117,0.177-0.234,0.265-0.352s0.176-0.205,0.264-0.264
			c0.41-0.293,0.847-0.582,1.309-0.869c0.463-0.285,0.957-0.43,1.485-0.43c0.322,0,0.649,0.078,0.979,0.232
			c0.329,0.154,0.623,0.355,0.88,0.605c0.256,0.248,0.465,0.535,0.627,0.857c0.161,0.322,0.242,0.652,0.242,0.99v5.434
			c-0.06,0.162-0.092,0.309-0.1,0.439c-0.008,0.133-0.011,0.279-0.011,0.439c0,0.045,0.007,0.148,0.021,0.309l0.089,0.088
			c0.396,0.074,0.751,0.205,1.066,0.396s0.474,0.521,0.474,0.99c0,0.381-0.114,0.635-0.342,0.758
			c-0.228,0.125-0.517,0.188-0.869,0.188h-0.329c-0.118,0-0.323-0.004-0.616-0.01c-0.294-0.008-0.605-0.016-0.936-0.023
			c-0.33-0.006-0.642-0.018-0.935-0.033c-0.294-0.014-0.499-0.021-0.616-0.021c-0.47-0.131-0.704-0.432-0.704-0.902
			c0-0.557,0.157-0.912,0.474-1.066c0.314-0.154,0.707-0.246,1.177-0.275l0.088-0.088l0.198-0.857v-3.344
			c0.014-0.045,0.04-0.133,0.077-0.264c0.036-0.133,0.055-0.221,0.055-0.266v-0.043v-0.045c0-0.029-0.011-0.113-0.033-0.252
			c-0.021-0.139-0.04-0.225-0.055-0.254c0-0.043-0.004-0.123-0.012-0.242c-0.007-0.117-0.015-0.238-0.021-0.361
			c-0.008-0.125-0.015-0.246-0.022-0.363c-0.007-0.117-0.011-0.199-0.011-0.242c-0.132-0.221-0.301-0.35-0.506-0.385
			c-0.205-0.037-0.418-0.057-0.638-0.057c-0.367,0-0.708,0.09-1.023,0.266s-0.604,0.395-0.869,0.66
			c-0.264,0.264-0.502,0.553-0.715,0.867c-0.213,0.316-0.399,0.613-0.561,0.893c-0.015,0.014-0.044,0.055-0.088,0.121
			c-0.045,0.064-0.074,0.113-0.089,0.143c-0.044,0.074-0.146,0.242-0.308,0.506v2.508c-0.073,0.146-0.113,0.271-0.121,0.373
			c-0.008,0.104-0.011,0.236-0.011,0.396v0.33c0.088,0.133,0.23,0.209,0.429,0.23c0.198,0.023,0.403,0.064,0.616,0.121
			c0.212,0.061,0.396,0.162,0.55,0.309s0.231,0.41,0.231,0.793c0,0.307-0.114,0.539-0.341,0.691
			c-0.229,0.154-0.488,0.246-0.781,0.275h-0.902h-0.902c-0.029,0-0.103-0.014-0.22-0.043s-0.19-0.045-0.22-0.045
			c-0.25-0.029-0.499-0.047-0.748-0.055c-0.25-0.008-0.473-0.041-0.671-0.1s-0.355-0.16-0.473-0.307
			c-0.118-0.146-0.177-0.383-0.177-0.705C123.133,41.873,123.279,41.561,123.573,41.436z"/>
	</g>
</g>
<g id="bodyguard">
</g>
<g id="BuckleUp">
</g>
<g id="RockPaperScissors">
</g>
<g id="Roger_Roger">
</g>
<g id="RoyaleWe">
</g>
<g id="Skip">
</g>
<g id="SwineRules">
</g>
<g id="Touchy_Feeley">
</g>
<g id="Wasted_Education">
</g>
<g id="Layer_86">
</g>
<g id="PointOfNoReturn">
</g>
<g id="Pirate">
</g>
<g id="Thief">
</g>
<g id="DepthPerception">
</g>
<g id="Narcissist">
</g>
<g id="MammaBird">
</g>
<g id="Staringcontest">
</g>
<g id="Cartwheel">
</g>
<g id="Censored">
</g>
<g id="Depersonalization">
</g>
<g id="threeman">
</g>
<g id="_x32__truths_and_a_lie">
</g>
<g id="cray_cray_cat_lady">
</g>
<g id="siblings">
</g>
<g id="later">
</g>
<g id="waterfall">
</g>
<g id="cheers">
</g>
<g id="rhyme">
</g>
<g id="categories">
</g>
<g id="tits">
</g>
<g id="dicks">
</g>
<g id="questions">
</g>
<g id="double_hands">
</g>
<g id="take_2">
</g>
<g id="take_3">
</g>
<g id="give_3">
</g>
<g id="give_2">
</g>
<g id="rewind">
</g>
<g id="Cryptkeeper">
</g>
<g id="Take_2_and_Redo">
</g>
<g id="Embryo">
</g>
<g id="I_am_Groot">
</g>
<g id="Mini_Me">
</g>
<g id="Ditto_1_">
</g>
<g id="reverse">
</g>
</svg>
