<?xml version="1.0" encoding="utf-8"?>
<!-- Generator: Adobe Illustrator 16.0.0, SVG Export Plug-In . SVG Version: 6.00 Build 0)  -->
<!DOCTYPE svg PUBLIC "-//W3C//DTD SVG 1.1//EN" "http://www.w3.org/Graphics/SVG/1.1/DTD/svg11.dtd">
<svg version="1.1" xmlns="http://www.w3.org/2000/svg" xmlns:xlink="http://www.w3.org/1999/xlink" x="0px" y="0px"
	 width="209.759px" height="62.361px" viewBox="0 0 209.759 62.361" enable-background="new 0 0 209.759 62.361"
	 xml:space="preserve">
<g id="Layer_1">
</g>
<g id="Blindman">
</g>
<g id="Compliments">
</g>
<g id="HAT">
</g>
<g id="speech">
</g>
<g id="TREX_ARMS">
</g>
<g id="slim_shady">
</g>
<g id="TIMEOUT">
</g>
<g id="Truth_or_Dare">
</g>
<g id="ARM_WRESTLE">
</g>
<g id="musical_chairs">
</g>
<g id="never_have_i_ever">
</g>
<g id="Trivia">
</g>
<g id="Drink_Pulling">
</g>
<g id="Sharing_is_Caring">
</g>
<g id="Not_It">
</g>
<g id="Cocktail_of_Doom">
</g>
<g id="Heads_up">
</g>
<g id="Archenemy">
</g>
<g id="battle_of_the_sexes">
</g>
<g id="one_must_drink">
</g>
<g id="rainbow_connection">
</g>
<g id="social_drinking">
</g>
<g id="Spin_the_bottle">
</g>
<g id="accents">
</g>
<g id="Slap">
</g>
<g id="down_the_hatch">
</g>
<g id="rubiks_cube">
</g>
<g id="bar_tender">
</g>
<g id="codenames">
</g>
<g id="hand_switch">
</g>
<g id="make_a_rule">
</g>
<g id="no_guts_no_glory">
</g>
<g id="pass">
</g>
<g id="santa">
</g>
<g id="snake_eyes">
</g>
<g id="lightning_round">
</g>
<g id="Bro">
</g>
<g id="LeastDrunk">
</g>
<g id="Know_It_All">
</g>
<g id="EyeContact">
	<g>
		<path d="M25.905,42.174c0.029-0.162,0.077-0.309,0.143-0.439c0.066-0.133,0.158-0.238,0.275-0.32
			c0.117-0.08,0.271-0.121,0.462-0.121h0.132c0.029,0.016,0.113,0.033,0.253,0.055c0.14,0.023,0.224,0.033,0.253,0.033h0.045
			c0.072,0,0.172-0.006,0.297-0.021c0.124-0.014,0.253-0.033,0.385-0.055s0.256-0.045,0.374-0.066
			c0.117-0.021,0.212-0.033,0.286-0.033c0.088-0.059,0.153-0.164,0.197-0.318c0.045-0.154,0.066-0.275,0.066-0.363l-0.044-5.17
			v-0.418l-0.044-3.014c0.073-0.191,0.106-0.408,0.099-0.648c-0.007-0.242-0.011-0.451-0.011-0.629v-0.549l-0.176-0.154
			c-0.015-0.014-0.073-0.021-0.176-0.021c-0.104,0-0.184,0-0.242,0c-0.25,0-0.488,0.018-0.715,0.055
			c-0.228,0.037-0.466,0.055-0.716,0.055c-0.396,0-0.719-0.088-0.968-0.264s-0.374-0.477-0.374-0.902
			c0-0.352,0.103-0.648,0.309-0.891c0.205-0.242,0.498-0.363,0.88-0.363c1.789,0,3.571,0.02,5.346,0.055
			c1.774,0.037,3.557,0.049,5.346,0.033c0.221,0.029,0.403,0.17,0.551,0.418c0.146,0.25,0.22,0.484,0.22,0.705v4.641
			c0,0.264-0.096,0.477-0.286,0.639s-0.411,0.242-0.66,0.242c-0.205,0-0.407-0.074-0.604-0.221
			c-0.198-0.146-0.297-0.336-0.297-0.572v-2.332c0-0.014-0.048-0.109-0.144-0.285s-0.173-0.309-0.23-0.396
			c-0.074-0.088-0.195-0.209-0.363-0.363c-0.169-0.154-0.312-0.23-0.429-0.23h-4.202l-0.088,0.088c0,0.088-0.004,0.254-0.012,0.496
			c-0.007,0.24-0.019,0.494-0.032,0.758c-0.016,0.264-0.026,0.514-0.033,0.748c-0.008,0.234-0.012,0.396-0.012,0.484
			c0,0.029-0.015,0.117-0.044,0.264s-0.044,0.234-0.044,0.264v0.045v0.021c0.015,0.074,0.029,0.166,0.044,0.275
			s0.033,0.213,0.056,0.309c0.021,0.094,0.047,0.215,0.077,0.361l0.088,0.088h1.122c0.161-0.117,0.341-0.211,0.539-0.285
			c0.197-0.072,0.355-0.205,0.473-0.396c0.103-0.16,0.161-0.377,0.176-0.648s0.036-0.539,0.066-0.803
			c0.029-0.264,0.095-0.492,0.197-0.682c0.103-0.191,0.301-0.287,0.595-0.287c0.234,0,0.425,0.086,0.571,0.254
			s0.221,0.377,0.221,0.627v7.215c0,0.471-0.228,0.705-0.683,0.705c-0.293,0-0.514-0.092-0.659-0.275
			c-0.147-0.184-0.25-0.402-0.309-0.66c-0.059-0.256-0.088-0.523-0.088-0.803s0-0.506,0-0.682c-0.029-0.074-0.088-0.184-0.176-0.33
			s-0.194-0.289-0.319-0.43c-0.125-0.139-0.249-0.264-0.374-0.373c-0.125-0.111-0.23-0.166-0.318-0.166h-0.946
			c-0.059,0-0.088,0.029-0.088,0.088c-0.03,0.029-0.059,0.088-0.088,0.176v4.818l0.176,0.176h2.222
			c0.353-0.102,0.671-0.15,0.957-0.143s0.55,0.004,0.792-0.012c0.242-0.014,0.466-0.076,0.671-0.186
			c0.205-0.111,0.403-0.342,0.594-0.693c0.029-0.045,0.066-0.113,0.11-0.209s0.066-0.166,0.066-0.209v-2.156
			c0-0.25,0.088-0.469,0.264-0.66c0.176-0.189,0.389-0.285,0.638-0.285c0.309,0,0.558,0.143,0.748,0.428
			c0.19,0.287,0.286,0.568,0.286,0.848v3.014c0.073,0.162,0.113,0.297,0.121,0.408c0.007,0.109,0.011,0.244,0.011,0.406
			c0,0.543-0.161,0.961-0.483,1.254c-0.323,0.293-0.748,0.439-1.276,0.439c-0.161,0-0.315,0-0.462,0
			c-0.132,0-0.278-0.029-0.44-0.088h-7.325c-0.191,0.074-0.404,0.107-0.639,0.1s-0.439-0.012-0.615-0.012
			c-0.206,0-0.404-0.004-0.595-0.01c-0.19-0.008-0.362-0.045-0.517-0.111c-0.154-0.064-0.275-0.164-0.363-0.297
			c-0.088-0.131-0.132-0.322-0.132-0.572C25.861,42.488,25.876,42.336,25.905,42.174z"/>
		<path d="M41.745,44.131c0.309-0.41,0.741-0.615,1.299-0.615c0.454,0,0.792,0.15,1.012,0.451s0.33,0.664,0.33,1.088
			c0,0.162-0.03,0.297-0.088,0.408c-0.06,0.109-0.088,0.238-0.088,0.385c0,0.029,0.003,0.066,0.011,0.109
			c0.007,0.045,0.033,0.066,0.077,0.066h0.594c0.132-0.104,0.238-0.191,0.319-0.264c0.08-0.074,0.164-0.15,0.253-0.23
			c0.088-0.082,0.161-0.145,0.22-0.188c0.132-0.146,0.26-0.318,0.385-0.518c0.125-0.197,0.234-0.406,0.33-0.627
			s0.172-0.443,0.231-0.67c0.058-0.229,0.088-0.438,0.088-0.627c0-0.059,0-0.146,0-0.266c0-0.131-0.008-0.205-0.022-0.219
			c0-0.016-0.015-0.07-0.044-0.166s-0.059-0.197-0.088-0.307c-0.029-0.111-0.066-0.217-0.11-0.32
			c-0.044-0.102-0.073-0.184-0.088-0.242c-0.073-0.189-0.209-0.527-0.407-1.012c-0.197-0.484-0.406-0.992-0.627-1.529
			c-0.22-0.535-0.429-1.045-0.627-1.529c-0.197-0.482-0.333-0.82-0.406-1.012c-0.03-0.277-0.104-0.594-0.221-0.945
			s-0.301-0.609-0.55-0.77c-0.044,0-0.129-0.004-0.253-0.012c-0.125-0.008-0.257-0.014-0.396-0.021
			c-0.14-0.008-0.272-0.018-0.396-0.033c-0.125-0.014-0.209-0.021-0.253-0.021c-0.176-0.029-0.338-0.088-0.484-0.176
			s-0.22-0.234-0.22-0.441c0-0.146,0.011-0.307,0.033-0.484c0.021-0.176,0.063-0.34,0.121-0.494s0.146-0.285,0.264-0.396
			c0.117-0.109,0.271-0.164,0.462-0.164h3.433c0.132,0,0.274,0.025,0.429,0.076c0.154,0.053,0.297,0.121,0.429,0.209
			s0.238,0.195,0.319,0.32c0.08,0.123,0.121,0.26,0.121,0.406c0,0.264-0.074,0.463-0.221,0.594
			c-0.146,0.133-0.304,0.234-0.473,0.309c-0.169,0.072-0.326,0.146-0.473,0.219c-0.147,0.074-0.221,0.178-0.221,0.309
			c0,0.205,0.041,0.422,0.121,0.648c0.081,0.229,0.177,0.459,0.286,0.693c0.11,0.234,0.224,0.463,0.341,0.682
			c0.117,0.221,0.213,0.426,0.286,0.617c0.029,0.072,0.069,0.176,0.121,0.307c0.052,0.133,0.106,0.273,0.165,0.42
			s0.11,0.281,0.154,0.406s0.073,0.209,0.088,0.252c0.015,0.031,0.033,0.104,0.055,0.221c0.022,0.117,0.056,0.234,0.1,0.352
			s0.099,0.225,0.165,0.32c0.065,0.096,0.143,0.143,0.23,0.143s0.173-0.066,0.253-0.199c0.081-0.131,0.154-0.281,0.221-0.449
			c0.065-0.17,0.12-0.334,0.164-0.496c0.045-0.16,0.081-0.271,0.11-0.33c0.044-0.131,0.113-0.359,0.209-0.682
			s0.198-0.668,0.309-1.033c0.109-0.367,0.212-0.713,0.308-1.035c0.095-0.322,0.157-0.549,0.187-0.682
			c0.015-0.029,0.022-0.066,0.022-0.109c0-0.059,0-0.096,0-0.111c0-0.146-0.066-0.252-0.198-0.318s-0.274-0.139-0.429-0.221
			c-0.154-0.08-0.294-0.189-0.418-0.33c-0.125-0.139-0.188-0.355-0.188-0.648c0-0.248,0.073-0.455,0.221-0.615
			c0.146-0.162,0.366-0.242,0.659-0.242h2.839c0.205,0.059,0.414,0.092,0.627,0.1c0.212,0.006,0.406,0.029,0.583,0.064
			c0.176,0.037,0.318,0.115,0.429,0.232s0.165,0.314,0.165,0.594c0,0.352-0.055,0.615-0.165,0.791s-0.261,0.297-0.451,0.363
			s-0.418,0.1-0.682,0.1c-0.265,0-0.55,0-0.858,0c-0.161,0.117-0.297,0.271-0.407,0.461c-0.109,0.191-0.205,0.396-0.285,0.617
			c-0.081,0.219-0.147,0.439-0.198,0.66c-0.052,0.219-0.1,0.418-0.144,0.594c-0.396,1.467-0.843,2.893-1.342,4.279
			c-0.499,1.385-1.026,2.797-1.584,4.234c0,0.014-0.011,0.043-0.033,0.088c-0.021,0.043-0.04,0.072-0.055,0.088
			c-0.015,0.014-0.055,0.07-0.121,0.164c-0.066,0.096-0.106,0.15-0.121,0.166c-0.015,0.029-0.04,0.084-0.077,0.164
			c-0.036,0.082-0.08,0.174-0.132,0.275c-0.052,0.104-0.099,0.195-0.143,0.275s-0.074,0.129-0.088,0.143
			c-0.294,0.41-0.693,0.76-1.199,1.045c-0.506,0.287-1.009,0.43-1.507,0.43c-0.382,0-0.756-0.066-1.122-0.197
			c-0.367-0.133-0.693-0.32-0.979-0.563s-0.517-0.527-0.692-0.857c-0.177-0.33-0.265-0.693-0.265-1.09
			C41.283,45.02,41.438,44.541,41.745,44.131z"/>
		<path d="M56.628,36.629c0.081-0.541,0.217-1.059,0.407-1.551c0.19-0.49,0.443-0.945,0.759-1.363s0.715-0.76,1.199-1.023
			c0.044-0.029,0.124-0.072,0.242-0.133c0.117-0.057,0.242-0.119,0.374-0.186s0.253-0.125,0.362-0.176
			c0.11-0.053,0.188-0.086,0.231-0.1c0.161-0.074,0.326-0.105,0.495-0.1c0.168,0.008,0.333,0.012,0.495,0.012
			c0.938,0,1.73,0.223,2.376,0.67c0.645,0.449,1.246,1.023,1.804,1.729c0.059,0.088,0.136,0.252,0.231,0.494
			c0.095,0.242,0.183,0.506,0.264,0.793c0.08,0.285,0.15,0.564,0.209,0.836s0.088,0.473,0.088,0.604
			c0,0.031-0.004,0.092-0.011,0.188c-0.008,0.096-0.011,0.158-0.011,0.188c-0.133,0.219-0.309,0.367-0.528,0.439
			c-0.22,0.074-0.447,0.133-0.682,0.176c-0.162,0-0.451-0.004-0.869-0.01c-0.418-0.008-0.862-0.012-1.331-0.012
			c-0.455,0-0.892,0.004-1.31,0.012c-0.418,0.006-0.707,0.01-0.869,0.01c-0.161,0-0.355,0.004-0.583,0.012s-0.45,0.014-0.671,0.021
			c-0.22,0.008-0.491,0.027-0.813,0.057l-0.088,0.066c0,0.014-0.004,0.066-0.012,0.154c-0.007,0.088-0.011,0.148-0.011,0.178
			c0,0.428,0.077,0.832,0.231,1.217c0.153,0.383,0.366,0.719,0.638,1.008c0.271,0.287,0.59,0.516,0.957,0.686
			c0.366,0.17,0.77,0.254,1.21,0.254c0.044,0,0.143-0.004,0.297-0.012c0.154-0.006,0.253-0.01,0.297-0.01
			c0.205-0.162,0.44-0.275,0.704-0.342c0.265-0.066,0.491-0.18,0.683-0.34c0.146-0.133,0.282-0.295,0.406-0.484
			c0.125-0.191,0.257-0.375,0.396-0.551c0.139-0.176,0.289-0.322,0.451-0.439c0.161-0.117,0.358-0.176,0.594-0.176
			c0.22,0,0.399,0.066,0.539,0.197c0.139,0.133,0.209,0.301,0.209,0.506c0,0.338-0.073,0.643-0.22,0.914
			c-0.147,0.271-0.309,0.539-0.484,0.803c-0.44,0.637-1.02,1.094-1.738,1.369s-1.459,0.412-2.222,0.412
			c-0.748,0-1.423-0.146-2.024-0.439s-1.107-0.689-1.518-1.188c-0.411-0.498-0.727-1.074-0.946-1.729
			c-0.22-0.652-0.33-1.338-0.33-2.057C56.507,37.701,56.547,37.172,56.628,36.629z M58.575,36.322c0,0.043,0.029,0.064,0.088,0.064
			h5.082c0.029,0,0.069-0.018,0.121-0.055c0.051-0.035,0.092-0.068,0.121-0.098c0.015-0.029,0.021-0.082,0.021-0.154
			c0-0.074,0-0.125,0-0.154c0-0.352-0.088-0.648-0.264-0.891s-0.396-0.434-0.66-0.572s-0.554-0.242-0.869-0.309
			s-0.612-0.1-0.891-0.1c-0.308,0-0.624,0.041-0.946,0.121c-0.322,0.082-0.616,0.209-0.88,0.385c-0.264,0.178-0.484,0.4-0.66,0.672
			s-0.264,0.59-0.264,0.957C58.575,36.219,58.575,36.264,58.575,36.322z"/>
		<path d="M69.895,41.041c-0.096-0.199-0.191-0.408-0.286-0.627c-0.096-0.221-0.188-0.426-0.275-0.617
			c-0.088-0.189-0.146-0.33-0.176-0.418c-0.162-0.381-0.25-0.754-0.264-1.121c-0.016-0.367-0.074-0.74-0.177-1.123v-2.309
			c0.044-0.191,0.081-0.396,0.11-0.617c0.029-0.219,0.051-0.418,0.066-0.594l0.945-3.102c0.029-0.117,0.106-0.275,0.231-0.473
			c0.124-0.199,0.268-0.4,0.429-0.605s0.322-0.4,0.484-0.584c0.161-0.182,0.293-0.318,0.396-0.406
			c0.059-0.029,0.154-0.076,0.286-0.143s0.268-0.135,0.407-0.209c0.139-0.074,0.274-0.143,0.407-0.209
			c0.132-0.066,0.227-0.113,0.285-0.143c0.162-0.074,0.33-0.107,0.507-0.1c0.176,0.008,0.337,0.012,0.483,0.012
			c0.558,0,1.049,0.088,1.475,0.264c0.425,0.176,0.894,0.41,1.407,0.703h0.088c0.089,0,0.169-0.051,0.242-0.154
			c0.073-0.102,0.15-0.211,0.231-0.33c0.08-0.117,0.18-0.227,0.297-0.33c0.117-0.102,0.264-0.152,0.44-0.152
			c0.176,0,0.322,0.043,0.439,0.131s0.209,0.199,0.275,0.33c0.065,0.133,0.109,0.275,0.132,0.43
			c0.021,0.154,0.033,0.305,0.033,0.451c0,0.16-0.019,0.318-0.056,0.473c-0.036,0.154-0.055,0.311-0.055,0.473v0.045
			c0.015,0.043,0.033,0.131,0.055,0.264c0.022,0.131,0.033,0.219,0.033,0.264v2.662c0,0.117-0.025,0.252-0.077,0.406
			s-0.121,0.305-0.209,0.451s-0.194,0.271-0.318,0.375c-0.125,0.102-0.253,0.152-0.386,0.152c-0.234,0-0.418-0.088-0.55-0.264
			s-0.23-0.381-0.297-0.615s-0.11-0.473-0.132-0.715c-0.022-0.242-0.055-0.43-0.1-0.561c-0.088-0.338-0.176-0.623-0.264-0.859
			c-0.088-0.234-0.201-0.443-0.341-0.627s-0.312-0.348-0.517-0.494c-0.206-0.146-0.463-0.293-0.771-0.439
			c-0.029-0.016-0.077-0.033-0.143-0.057c-0.066-0.021-0.106-0.031-0.121-0.031h-1.452c-0.015,0-0.041,0.01-0.077,0.031
			c-0.037,0.023-0.069,0.041-0.099,0.057c-0.323,0.219-0.616,0.49-0.88,0.813c-0.265,0.324-0.492,0.672-0.683,1.045
			c-0.19,0.375-0.337,0.764-0.439,1.166c-0.104,0.404-0.154,0.805-0.154,1.199v2.75c0.015,0.029,0.029,0.104,0.044,0.221
			s0.029,0.191,0.044,0.221c0.059,0.439,0.143,0.879,0.253,1.318c0.11,0.441,0.268,0.848,0.473,1.223
			c0.206,0.373,0.474,0.703,0.804,0.988c0.33,0.287,0.736,0.488,1.221,0.605c0.015,0,0.077,0.004,0.188,0.012
			c0.109,0.008,0.193,0.01,0.253,0.01c0.527,0,0.975-0.121,1.342-0.361c0.366-0.242,0.674-0.551,0.924-0.926
			c0.249-0.373,0.458-0.783,0.627-1.23c0.168-0.447,0.326-0.877,0.473-1.287c0.177-0.293,0.418-0.441,0.727-0.441
			c0.19,0,0.341,0.041,0.451,0.121c0.109,0.082,0.193,0.188,0.253,0.32c0.059,0.131,0.091,0.277,0.099,0.439
			c0.007,0.162,0.011,0.316,0.011,0.463c0,0.541-0.121,1.109-0.362,1.705c-0.242,0.594-0.569,1.137-0.979,1.627
			c-0.411,0.492-0.88,0.898-1.408,1.221c-0.527,0.322-1.085,0.484-1.672,0.484c-0.88,0-1.724-0.176-2.53-0.527
			c-0.807-0.354-1.444-0.924-1.913-1.717C70.059,41.375,69.989,41.238,69.895,41.041z"/>
		<path d="M81.839,35.662c0.198-0.777,0.51-1.467,0.936-2.068c0.425-0.602,0.972-1.082,1.639-1.441s1.463-0.539,2.387-0.539
			c0.704,0,1.313,0.137,1.826,0.406c0.514,0.273,1.026,0.629,1.54,1.068c0.015,0.014,0.029,0.033,0.044,0.055
			s0.029,0.033,0.044,0.033c0.177,0.338,0.355,0.67,0.539,1s0.353,0.668,0.506,1.014c0.154,0.344,0.279,0.695,0.374,1.055
			c0.096,0.359,0.144,0.73,0.144,1.111c0,0.045-0.004,0.129-0.011,0.254c-0.008,0.123-0.012,0.201-0.012,0.23
			c-0.029,0.088-0.069,0.246-0.121,0.473c-0.051,0.229-0.109,0.469-0.176,0.727c-0.065,0.256-0.128,0.502-0.187,0.736
			s-0.096,0.396-0.11,0.484c-0.117,0.396-0.319,0.814-0.604,1.254c-0.286,0.439-0.62,0.84-1.001,1.199
			c-0.382,0.359-0.796,0.656-1.243,0.891c-0.448,0.234-0.892,0.352-1.331,0.352c-0.221,0-0.389-0.014-0.506-0.043
			c-0.118-0.029-0.217-0.066-0.298-0.111c-0.08-0.043-0.164-0.092-0.253-0.143c-0.088-0.051-0.212-0.1-0.374-0.143
			c-0.073-0.014-0.212-0.037-0.418-0.066c-0.205-0.029-0.352-0.059-0.439-0.088c-0.073-0.029-0.173-0.076-0.297-0.143
			c-0.125-0.066-0.25-0.133-0.374-0.199c-0.125-0.064-0.242-0.123-0.353-0.176c-0.109-0.051-0.172-0.084-0.187-0.098
			c-0.294-0.191-0.562-0.484-0.803-0.881c-0.242-0.396-0.451-0.82-0.628-1.275c-0.176-0.455-0.312-0.91-0.406-1.365
			c-0.096-0.453-0.144-0.842-0.144-1.166C81.542,37.238,81.642,36.439,81.839,35.662z M83.467,38.566
			c0.022,0.205,0.056,0.41,0.1,0.615s0.099,0.4,0.165,0.582c0.065,0.184,0.143,0.32,0.23,0.408l1.034,1.033
			c0.161,0.045,0.29,0.074,0.385,0.088c0.096,0.016,0.194,0.029,0.298,0.045c0.102,0.014,0.19,0.021,0.264,0.021
			c0.015,0.016,0.117,0.021,0.308,0.021c0.205,0,0.359,0,0.462,0c0.294,0,0.547-0.002,0.76-0.01c0.212-0.008,0.45-0.063,0.715-0.166
			c0.63-0.514,1.048-1.066,1.254-1.66c0.205-0.594,0.308-1.279,0.308-2.057c0-0.455-0.048-0.877-0.143-1.266
			c-0.096-0.389-0.224-0.795-0.385-1.221c-0.074-0.191-0.195-0.35-0.363-0.473c-0.169-0.125-0.353-0.234-0.55-0.33
			c-0.198-0.096-0.404-0.18-0.616-0.254c-0.213-0.072-0.393-0.154-0.539-0.242h-1.386c-0.015,0-0.11,0.055-0.286,0.166
			c-0.176,0.109-0.309,0.193-0.396,0.252c-0.352,0.25-0.635,0.521-0.847,0.814c-0.213,0.293-0.382,0.605-0.506,0.936
			c-0.125,0.33-0.206,0.678-0.242,1.045c-0.037,0.367-0.055,0.756-0.055,1.166C83.435,38.199,83.445,38.359,83.467,38.566z"/>
		<path d="M95.688,41.436c0.293-0.123,0.66-0.201,1.1-0.23l0.088-0.088c0.029-0.205,0.056-0.443,0.077-0.715
			c0.022-0.271,0.056-0.518,0.1-0.736v-5.082c0-0.104-0.092-0.18-0.275-0.232c-0.184-0.051-0.382-0.119-0.594-0.209
			c-0.213-0.088-0.411-0.215-0.595-0.385c-0.184-0.168-0.274-0.428-0.274-0.781c0-0.381,0.136-0.641,0.407-0.779
			c0.271-0.141,0.567-0.209,0.891-0.209c0.044,0,0.11,0,0.198,0c0.103,0,0.153,0.006,0.153,0.021
			c0.426,0.059,0.767,0.131,1.023,0.219c0.257,0.09,0.458,0.211,0.605,0.363c0.146,0.154,0.249,0.357,0.308,0.605
			c0.059,0.25,0.103,0.564,0.132,0.945c0.015,0.016,0.029,0.023,0.044,0.023h0.044c0.088,0,0.173-0.045,0.253-0.133
			c0.081-0.088,0.165-0.189,0.253-0.309c0.088-0.117,0.177-0.234,0.265-0.352s0.176-0.205,0.264-0.264
			c0.41-0.293,0.847-0.582,1.309-0.869c0.463-0.285,0.957-0.43,1.485-0.43c0.322,0,0.649,0.078,0.979,0.232
			c0.329,0.154,0.623,0.355,0.88,0.605c0.256,0.248,0.465,0.535,0.627,0.857c0.161,0.322,0.242,0.652,0.242,0.99v5.434
			c-0.06,0.162-0.092,0.309-0.1,0.439c-0.008,0.133-0.011,0.279-0.011,0.439c0,0.045,0.007,0.148,0.021,0.309l0.089,0.088
			c0.396,0.074,0.751,0.205,1.066,0.396s0.474,0.521,0.474,0.99c0,0.381-0.114,0.635-0.342,0.758
			c-0.228,0.125-0.517,0.188-0.869,0.188h-0.329c-0.118,0-0.323-0.004-0.616-0.01c-0.294-0.008-0.605-0.016-0.936-0.023
			c-0.33-0.006-0.642-0.018-0.935-0.033c-0.294-0.014-0.499-0.021-0.616-0.021c-0.47-0.131-0.704-0.432-0.704-0.902
			c0-0.557,0.157-0.912,0.474-1.066c0.314-0.154,0.707-0.246,1.177-0.275l0.088-0.088l0.198-0.857v-3.344
			c0.014-0.045,0.04-0.133,0.077-0.264c0.036-0.133,0.055-0.221,0.055-0.266v-0.043v-0.045c0-0.029-0.011-0.113-0.033-0.252
			c-0.021-0.139-0.04-0.225-0.055-0.254c0-0.043-0.004-0.123-0.012-0.242c-0.007-0.117-0.015-0.238-0.021-0.361
			c-0.008-0.125-0.015-0.246-0.022-0.363c-0.007-0.117-0.011-0.199-0.011-0.242c-0.132-0.221-0.301-0.35-0.506-0.385
			c-0.205-0.037-0.418-0.057-0.638-0.057c-0.367,0-0.708,0.09-1.023,0.266s-0.604,0.395-0.869,0.66
			c-0.264,0.264-0.502,0.553-0.715,0.867c-0.213,0.316-0.399,0.613-0.561,0.893c-0.015,0.014-0.044,0.055-0.088,0.121
			c-0.045,0.064-0.074,0.113-0.089,0.143c-0.044,0.074-0.146,0.242-0.308,0.506v2.508c-0.073,0.146-0.113,0.271-0.121,0.373
			c-0.008,0.104-0.011,0.236-0.011,0.396v0.33c0.088,0.133,0.23,0.209,0.429,0.23c0.198,0.023,0.403,0.064,0.616,0.121
			c0.212,0.061,0.396,0.162,0.55,0.309s0.231,0.41,0.231,0.793c0,0.307-0.114,0.539-0.341,0.691
			c-0.229,0.154-0.488,0.246-0.781,0.275h-0.902h-0.902c-0.029,0-0.103-0.014-0.22-0.043s-0.19-0.045-0.22-0.045
			c-0.25-0.029-0.499-0.047-0.748-0.055c-0.25-0.008-0.473-0.041-0.671-0.1s-0.355-0.16-0.473-0.307
			c-0.118-0.146-0.177-0.383-0.177-0.705C95.248,41.873,95.395,41.561,95.688,41.436z"/>
		<path d="M113.024,37.543c-0.029-0.557,0.044-1.076,0.22-1.561v-2.438h-2.771c-0.206,0-0.371-0.102-0.495-0.307
			c-0.125-0.205-0.188-0.395-0.188-0.57c0-0.264,0.085-0.484,0.253-0.658c0.169-0.176,0.342-0.346,0.518-0.506
			c0.176-0.148,0.385-0.229,0.627-0.244c0.242-0.014,0.487-0.021,0.736-0.021c0.265,0,0.51-0.025,0.737-0.078
			c0.228-0.051,0.422-0.195,0.583-0.432c0.146-0.221,0.22-0.516,0.22-0.885c0-0.367,0.012-0.732,0.033-1.094
			c0.022-0.361,0.1-0.672,0.231-0.93s0.41-0.387,0.836-0.387c0.425,0,0.686,0.129,0.781,0.387c0.095,0.258,0.143,0.564,0.143,0.918
			c0,0.34-0.019,0.672-0.055,0.996c-0.037,0.324-0.056,0.664-0.056,1.018c0,0.088,0,0.221,0,0.398c0,0.176,0.008,0.271,0.022,0.287
			l0.154,0.154c0.014,0.014,0.117,0.021,0.308,0.021c0.205,0,0.366,0,0.484,0c0.308,0,0.604-0.018,0.891-0.055
			s0.575-0.055,0.869-0.055c0.337,0,0.616,0.131,0.836,0.396c0.22,0.264,0.33,0.549,0.33,0.857c0,0.293-0.092,0.547-0.275,0.758
			c-0.184,0.213-0.422,0.32-0.715,0.32c-0.366,0-0.708-0.049-1.022-0.143c-0.316-0.096-0.687-0.145-1.111-0.145
			c-0.088,0-0.217,0.004-0.385,0.012c-0.169,0.008-0.261,0.018-0.275,0.033l-0.264,0.242v6.098c0,0.117,0.04,0.248,0.121,0.395
			c0.08,0.146,0.183,0.285,0.308,0.416c0.124,0.133,0.26,0.246,0.407,0.34c0.146,0.096,0.286,0.143,0.418,0.143
			c0.352,0,0.63-0.084,0.836-0.252c0.205-0.168,0.363-0.377,0.473-0.627c0.11-0.25,0.198-0.518,0.265-0.803
			c0.065-0.287,0.135-0.555,0.209-0.803c0.073-0.25,0.176-0.459,0.308-0.627c0.132-0.17,0.322-0.254,0.572-0.254
			c0.366,0,0.623,0.133,0.77,0.396s0.22,0.549,0.22,0.857c0,0.5-0.073,1.006-0.22,1.518c-0.146,0.514-0.363,0.98-0.648,1.398
			c-0.286,0.418-0.643,0.762-1.067,1.033c-0.426,0.271-0.917,0.406-1.474,0.406c-0.221,0-0.39-0.006-0.507-0.021
			c-0.117-0.014-0.224-0.039-0.318-0.076c-0.096-0.037-0.191-0.088-0.286-0.154c-0.096-0.066-0.224-0.156-0.385-0.273
			c-0.015,0-0.059-0.02-0.132-0.057c-0.074-0.035-0.147-0.072-0.221-0.109c-0.073-0.035-0.146-0.068-0.22-0.098
			s-0.117-0.053-0.132-0.066c-0.602-0.469-0.994-0.98-1.177-1.537c-0.184-0.557-0.275-1.201-0.275-1.934
			C113.068,38.633,113.054,38.1,113.024,37.543z"/>
		<path d="M123.231,37.982c0.352-0.49,0.792-0.85,1.32-1.078c0.527-0.227,1.104-0.367,1.727-0.418s1.199-0.1,1.728-0.143
			c0.527-0.045,0.968-0.125,1.319-0.242c0.353-0.117,0.528-0.352,0.528-0.703c0-0.25-0.044-0.484-0.132-0.705
			s-0.25-0.396-0.484-0.527c-0.088-0.045-0.22-0.111-0.396-0.199c-0.177-0.088-0.271-0.131-0.286-0.131h-2.068
			c-0.117,0-0.198,0.063-0.242,0.188c-0.044,0.123-0.084,0.277-0.121,0.461c-0.036,0.184-0.076,0.385-0.121,0.605
			c-0.044,0.219-0.113,0.422-0.209,0.605c-0.095,0.184-0.234,0.336-0.418,0.461s-0.429,0.188-0.736,0.188
			c-0.47,0-0.854-0.154-1.155-0.463c-0.301-0.307-0.451-0.689-0.451-1.143c0-0.266,0.044-0.5,0.132-0.705s0.206-0.396,0.353-0.572
			s0.315-0.34,0.506-0.494s0.381-0.297,0.572-0.43c0.161-0.117,0.33-0.244,0.506-0.385c0.176-0.139,0.381-0.209,0.616-0.209
			l3.365,0.045c0.19,0,0.415,0.08,0.672,0.24c0.256,0.16,0.506,0.35,0.747,0.57c0.242,0.219,0.455,0.451,0.639,0.699
			c0.183,0.248,0.297,0.461,0.341,0.635c0.015,0.045,0.036,0.125,0.066,0.242c0.028,0.117,0.058,0.236,0.088,0.361
			c0.029,0.123,0.055,0.24,0.076,0.35c0.022,0.109,0.033,0.186,0.033,0.23v0.678c0,0.176,0.004,0.377,0.012,0.604
			c0.007,0.227-0.026,0.426-0.1,0.602V40.9c0,0.408,0.176,0.613,0.528,0.613c0.234,0,0.381-0.104,0.439-0.309
			s0.11-0.436,0.154-0.693c0.044-0.256,0.113-0.486,0.209-0.691s0.297-0.309,0.605-0.309c0.161,0,0.3,0.043,0.418,0.131
			c0.117,0.09,0.212,0.199,0.286,0.33c0.073,0.133,0.124,0.275,0.153,0.43s0.044,0.305,0.044,0.451c0,0.322-0.052,0.646-0.153,0.969
			c-0.104,0.322-0.246,0.611-0.43,0.869c-0.184,0.256-0.41,0.465-0.682,0.627c-0.271,0.16-0.583,0.24-0.936,0.24
			c-0.278,0-0.521-0.031-0.726-0.098s-0.433-0.18-0.682-0.342c-0.088-0.043-0.165-0.113-0.231-0.209
			c-0.065-0.096-0.132-0.189-0.198-0.285c-0.065-0.096-0.14-0.18-0.22-0.254c-0.081-0.072-0.173-0.109-0.274-0.109h-0.11
			c-0.206,0.104-0.415,0.227-0.627,0.373c-0.213,0.148-0.429,0.291-0.649,0.43c-0.22,0.139-0.447,0.256-0.682,0.352
			c-0.235,0.096-0.477,0.143-0.727,0.143h-1.979c-0.161,0-0.301-0.039-0.418-0.119c-0.117-0.082-0.235-0.158-0.353-0.232
			c-0.602-0.352-1.037-0.787-1.309-1.309c-0.271-0.52-0.407-1.125-0.407-1.814C122.703,39.174,122.88,38.475,123.231,37.982z
			 M124.485,40.479c0.044,0.162,0.106,0.32,0.188,0.475c0.08,0.154,0.179,0.281,0.297,0.385c0.117,0.102,0.249,0.154,0.396,0.154
			h2.244c0.015,0,0.063-0.023,0.143-0.066c0.081-0.045,0.15-0.08,0.209-0.109c0.029-0.029,0.1-0.074,0.209-0.133
			c0.11-0.059,0.18-0.096,0.21-0.109c0.542-0.367,0.909-0.748,1.1-1.145s0.286-0.91,0.286-1.541v-0.264
			c-0.015,0-0.044-0.01-0.088-0.033c-0.044-0.021-0.074-0.033-0.088-0.033c-0.016-0.014-0.03-0.021-0.045-0.021l-0.044,0.021
			c-0.044,0-0.165,0.02-0.362,0.057c-0.198,0.035-0.407,0.072-0.627,0.109c-0.221,0.037-0.43,0.074-0.627,0.109
			c-0.198,0.037-0.319,0.055-0.363,0.055c-0.353,0.061-0.708,0.104-1.067,0.133s-0.723,0.074-1.089,0.133
			c-0.19,0.014-0.359,0.131-0.506,0.352c-0.073,0.102-0.165,0.264-0.275,0.484c-0.109,0.219-0.165,0.41-0.165,0.57
			C124.419,40.18,124.441,40.318,124.485,40.479z"/>
		<path d="M137.345,35.695c0.198-0.756,0.498-1.438,0.902-2.047c0.402-0.607,0.909-1.107,1.518-1.496s1.323-0.582,2.145-0.582
			c0.073,0,0.169,0,0.286,0c0.132,0,0.205,0.006,0.221,0.021c0.058,0,0.172,0.018,0.341,0.055c0.168,0.037,0.344,0.076,0.527,0.121
			c0.184,0.043,0.355,0.092,0.518,0.143c0.161,0.053,0.271,0.084,0.33,0.1c0.234,0.205,0.48,0.418,0.736,0.639
			c0.257,0.219,0.491,0.457,0.704,0.715c0.213,0.256,0.386,0.535,0.518,0.836s0.198,0.619,0.198,0.957c0,0.219-0.033,0.443-0.1,0.67
			c-0.065,0.229-0.161,0.43-0.286,0.605s-0.278,0.318-0.462,0.43c-0.184,0.109-0.399,0.164-0.648,0.164
			c-0.455,0-0.836-0.16-1.145-0.484c-0.308-0.322-0.462-0.703-0.462-1.143c0-0.191,0.029-0.363,0.088-0.518s0.088-0.334,0.088-0.539
			V33.99c-0.015-0.016-0.073-0.074-0.176-0.176c-0.103-0.104-0.19-0.154-0.264-0.154h-1.452c-0.029,0-0.106,0.018-0.231,0.055
			c-0.124,0.037-0.224,0.07-0.297,0.1c-0.396,0.176-0.723,0.391-0.979,0.648c-0.257,0.256-0.459,0.547-0.605,0.869
			s-0.249,0.674-0.308,1.055c-0.059,0.383-0.088,0.779-0.088,1.189c0,0.365,0.036,0.773,0.109,1.221s0.213,0.824,0.418,1.133
			c0.044,0.043,0.117,0.121,0.221,0.23c0.103,0.109,0.212,0.225,0.33,0.342c0.117,0.117,0.23,0.227,0.341,0.33
			c0.109,0.102,0.187,0.176,0.23,0.219c0.044,0.045,0.117,0.1,0.221,0.166c0.102,0.066,0.168,0.1,0.197,0.1h1.893
			c0.234,0,0.439-0.063,0.616-0.188c0.176-0.125,0.333-0.279,0.473-0.463c0.139-0.184,0.264-0.385,0.374-0.605
			c0.109-0.219,0.224-0.42,0.341-0.604s0.242-0.338,0.374-0.463s0.286-0.188,0.462-0.188c0.264,0,0.454,0.1,0.572,0.297
			c0.117,0.199,0.176,0.422,0.176,0.672c0,0.514-0.129,0.998-0.385,1.451c-0.257,0.455-0.587,0.855-0.99,1.199
			c-0.403,0.346-0.854,0.621-1.353,0.826c-0.499,0.205-0.99,0.307-1.475,0.307c-0.719,0-1.386-0.168-2.002-0.506
			c-0.616-0.336-1.151-0.773-1.605-1.309c-0.455-0.535-0.811-1.141-1.067-1.814s-0.385-1.35-0.385-2.023
			C137.048,37.188,137.146,36.449,137.345,35.695z"/>
		<path d="M152.096,37.543c-0.029-0.557,0.044-1.076,0.22-1.561v-2.438h-2.771c-0.206,0-0.371-0.102-0.495-0.307
			c-0.125-0.205-0.188-0.395-0.188-0.57c0-0.264,0.085-0.484,0.253-0.658c0.169-0.176,0.342-0.346,0.518-0.506
			c0.176-0.148,0.385-0.229,0.627-0.244c0.242-0.014,0.487-0.021,0.736-0.021c0.265,0,0.51-0.025,0.737-0.078
			c0.228-0.051,0.422-0.195,0.583-0.432c0.146-0.221,0.22-0.516,0.22-0.885c0-0.367,0.012-0.732,0.033-1.094
			c0.022-0.361,0.1-0.672,0.231-0.93s0.41-0.387,0.836-0.387c0.425,0,0.686,0.129,0.781,0.387c0.095,0.258,0.143,0.564,0.143,0.918
			c0,0.34-0.019,0.672-0.055,0.996c-0.037,0.324-0.056,0.664-0.056,1.018c0,0.088,0,0.221,0,0.398c0,0.176,0.008,0.271,0.022,0.287
			l0.154,0.154c0.014,0.014,0.117,0.021,0.308,0.021c0.205,0,0.366,0,0.484,0c0.308,0,0.604-0.018,0.891-0.055
			s0.575-0.055,0.869-0.055c0.337,0,0.616,0.131,0.836,0.396c0.22,0.264,0.33,0.549,0.33,0.857c0,0.293-0.092,0.547-0.275,0.758
			c-0.184,0.213-0.422,0.32-0.715,0.32c-0.366,0-0.708-0.049-1.022-0.143c-0.316-0.096-0.687-0.145-1.111-0.145
			c-0.088,0-0.217,0.004-0.385,0.012c-0.169,0.008-0.261,0.018-0.275,0.033l-0.264,0.242v6.098c0,0.117,0.04,0.248,0.121,0.395
			c0.08,0.146,0.183,0.285,0.308,0.416c0.124,0.133,0.26,0.246,0.407,0.34c0.146,0.096,0.286,0.143,0.418,0.143
			c0.352,0,0.63-0.084,0.836-0.252c0.205-0.168,0.363-0.377,0.473-0.627c0.11-0.25,0.198-0.518,0.265-0.803
			c0.065-0.287,0.135-0.555,0.209-0.803c0.073-0.25,0.176-0.459,0.308-0.627c0.132-0.17,0.322-0.254,0.572-0.254
			c0.366,0,0.623,0.133,0.77,0.396s0.22,0.549,0.22,0.857c0,0.5-0.073,1.006-0.22,1.518c-0.146,0.514-0.363,0.98-0.648,1.398
			c-0.286,0.418-0.643,0.762-1.067,1.033c-0.426,0.271-0.917,0.406-1.474,0.406c-0.221,0-0.39-0.006-0.507-0.021
			c-0.117-0.014-0.224-0.039-0.318-0.076c-0.096-0.037-0.191-0.088-0.286-0.154c-0.096-0.066-0.224-0.156-0.385-0.273
			c-0.015,0-0.059-0.02-0.132-0.057c-0.074-0.035-0.147-0.072-0.221-0.109c-0.073-0.035-0.146-0.068-0.22-0.098
			s-0.117-0.053-0.132-0.066c-0.602-0.469-0.994-0.98-1.177-1.537c-0.184-0.557-0.275-1.201-0.275-1.934
			C152.14,38.633,152.125,38.1,152.096,37.543z"/>
	</g>
</g>
<g id="UnderGuesser">
</g>
<g id="GodSaveTheQUeen">
</g>
<g id="Ghost">
</g>
<g id="Fortune_Teller">
</g>
<g id="DrinkSwap">
</g>
<g id="DickTator">
</g>
<g id="_x34_Eyes">
</g>
<g id="BabyTalk">
</g>
<g id="Backseat_Driver">
</g>
<g id="BAtman">
</g>
<g id="bodyguard">
</g>
<g id="BuckleUp">
</g>
<g id="RockPaperScissors">
</g>
<g id="Roger_Roger">
</g>
<g id="RoyaleWe">
</g>
<g id="Skip">
</g>
<g id="SwineRules">
</g>
<g id="Touchy_Feeley">
</g>
<g id="Wasted_Education">
</g>
<g id="Layer_86">
</g>
<g id="PointOfNoReturn">
</g>
<g id="Pirate">
</g>
<g id="Thief">
</g>
<g id="DepthPerception">
</g>
<g id="Narcissist">
</g>
<g id="MammaBird">
</g>
<g id="Staringcontest">
</g>
<g id="Cartwheel">
</g>
<g id="Censored">
</g>
<g id="Depersonalization">
</g>
<g id="threeman">
</g>
<g id="_x32__truths_and_a_lie">
</g>
<g id="cray_cray_cat_lady">
</g>
<g id="siblings">
</g>
<g id="later">
</g>
<g id="waterfall">
</g>
<g id="cheers">
</g>
<g id="rhyme">
</g>
<g id="categories">
</g>
<g id="tits">
</g>
<g id="dicks">
</g>
<g id="questions">
</g>
<g id="double_hands">
</g>
<g id="rewind">
</g>
<g id="Cryptkeeper">
</g>
<g id="Take_2_and_Redo">
</g>
<g id="Embryo">
</g>
<g id="I_am_Groot">
</g>
<g id="Mini_Me">
</g>
<g id="Ditto_1_">
</g>
<g id="reverse">
</g>
</svg>
