<?xml version="1.0" encoding="utf-8"?>
<!-- Generator: Adobe Illustrator 16.0.0, SVG Export Plug-In . SVG Version: 6.00 Build 0)  -->
<!DOCTYPE svg PUBLIC "-//W3C//DTD SVG 1.1//EN" "http://www.w3.org/Graphics/SVG/1.1/DTD/svg11.dtd">
<svg version="1.1" xmlns="http://www.w3.org/2000/svg" xmlns:xlink="http://www.w3.org/1999/xlink" x="0px" y="0px"
	 width="209.759px" height="62.361px" viewBox="0 0 209.759 62.361" enable-background="new 0 0 209.759 62.361"
	 xml:space="preserve">
<g id="Layer_1">
</g>
<g id="Hat">
</g>
<g id="Compliments">
</g>
<g id="HAT">
</g>
<g id="speech">
</g>
<g id="TREX_ARMS">
</g>
<g id="Layer_7">
</g>
<g id="TIMEOUT">
</g>
<g id="Layer_9">
</g>
<g id="ARM_WRESTLE">
</g>
<g id="musical_chairs">
</g>
<g id="never_have_i_ever">
</g>
<g id="Trivia">
</g>
<g id="Layer_14">
</g>
<g id="Layer_15">
</g>
<g id="Layer_16">
</g>
<g id="Layer_17">
</g>
<g id="Heads_up">
</g>
<g id="Archenemy">
</g>
<g id="battle_of_the_sexes">
</g>
<g id="one_must_drink">
</g>
<g id="rainbow_connection">
</g>
<g id="social_drinking">
</g>
<g id="Spin_the_bottle">
</g>
<g id="accents">
</g>
<g id="Slap">
</g>
<g id="give_3">
</g>
<g id="Layer_36">
</g>
<g id="Layer_37">
</g>
<g id="Layer_38">
</g>
<g id="Layer_39">
</g>
<g id="Layer_40">
</g>
<g id="Layer_41">
</g>
<g id="Layer_42">
</g>
<g id="Layer_43">
</g>
<g id="Layer_44">
</g>
<g id="Layer_45">
	<g>
		<path d="M71.905,42.573c-0.702,0.312-1.56,0.624-2.574,0.936c-1.014,0.313-2.08,0.468-3.198,0.468
			c-0.728,0-1.41-0.091-2.047-0.272c-0.638-0.182-1.196-0.475-1.677-0.878c-0.481-0.402-0.865-0.922-1.151-1.56
			c-0.286-0.637-0.429-1.41-0.429-2.32V27.207h-2.69V23.19h2.69V16.56h5.227v6.631h4.29v4.017h-4.29v9.984
			c0,0.728,0.188,1.241,0.565,1.54c0.376,0.299,0.838,0.448,1.384,0.448c0.547,0,1.079-0.091,1.6-0.272
			c0.52-0.182,0.936-0.338,1.248-0.468L71.905,42.573z"/>
		<path d="M78.34,20.343v-5.187h5.227v5.187H78.34z M78.34,43.626V23.19h5.227v20.436H78.34z"/>
		<path d="M104.235,42.573c-0.702,0.312-1.56,0.624-2.574,0.936c-1.014,0.313-2.08,0.468-3.198,0.468
			c-0.728,0-1.41-0.091-2.047-0.272c-0.638-0.182-1.196-0.475-1.677-0.878c-0.481-0.402-0.865-0.922-1.151-1.56
			c-0.286-0.637-0.429-1.41-0.429-2.32V27.207h-2.69V23.19h2.69V16.56h5.227v6.631h4.29v4.017h-4.29v9.984
			c0,0.728,0.188,1.241,0.565,1.54c0.376,0.299,0.838,0.448,1.384,0.448c0.547,0,1.079-0.091,1.6-0.272
			c0.52-0.182,0.936-0.338,1.248-0.468L104.235,42.573z"/>
		<path d="M118.392,44.016c-1.716,0-3.393-0.272-5.03-0.818c-1.639-0.546-3.042-1.326-4.212-2.34l1.949-3.276
			c1.248,0.884,2.464,1.554,3.646,2.009c1.184,0.455,2.36,0.683,3.53,0.683c1.039,0,1.858-0.195,2.457-0.586
			c0.598-0.39,0.896-0.948,0.896-1.677c0-0.728-0.351-1.261-1.053-1.599s-1.847-0.728-3.433-1.17
			c-1.325-0.364-2.456-0.715-3.393-1.054c-0.936-0.337-1.69-0.721-2.262-1.15c-0.572-0.429-0.988-0.922-1.248-1.481
			c-0.261-0.559-0.391-1.229-0.391-2.009c0-1.039,0.201-1.976,0.604-2.808s0.969-1.541,1.697-2.126
			c0.728-0.585,1.579-1.033,2.554-1.346c0.976-0.312,2.034-0.468,3.179-0.468c1.534,0,2.971,0.222,4.31,0.663
			c1.339,0.442,2.567,1.157,3.686,2.146l-2.105,3.158c-1.041-0.779-2.048-1.352-3.022-1.716c-0.976-0.363-1.944-0.546-2.906-0.546
			c-0.884,0-1.625,0.183-2.223,0.546c-0.599,0.364-0.897,0.949-0.897,1.755c0,0.364,0.071,0.663,0.215,0.897
			c0.143,0.233,0.37,0.442,0.683,0.624c0.312,0.182,0.722,0.357,1.229,0.526s1.137,0.345,1.892,0.526
			c1.404,0.364,2.606,0.729,3.607,1.092c1.001,0.364,1.819,0.78,2.457,1.248c0.637,0.468,1.104,1.008,1.404,1.619
			c0.298,0.61,0.448,1.345,0.448,2.203c0,2.002-0.741,3.582-2.223,4.738C122.955,43.438,120.939,44.016,118.392,44.016z"/>
	</g>
</g>
<g id="Layer_46">
</g>
<g id="Layer_47">
</g>
<g id="Layer_48">
</g>
<g id="give_2">
</g>
<g id="rewind">
</g>
<g id="Layer_22">
</g>
<g id="Layer_19">
</g>
<g id="Layer_20">
</g>
<g id="Layer_21">
</g>
<g id="Layer_23">
</g>
<g id="Layer_24">
</g>
</svg>
