<?xml version="1.0" encoding="utf-8"?>
<!-- Generator: Adobe Illustrator 16.0.0, SVG Export Plug-In . SVG Version: 6.00 Build 0)  -->
<!DOCTYPE svg PUBLIC "-//W3C//DTD SVG 1.1//EN" "http://www.w3.org/Graphics/SVG/1.1/DTD/svg11.dtd">
<svg version="1.1" xmlns="http://www.w3.org/2000/svg" xmlns:xlink="http://www.w3.org/1999/xlink" x="0px" y="0px"
	 width="209.759px" height="62.361px" viewBox="0 0 209.759 62.361" enable-background="new 0 0 209.759 62.361"
	 xml:space="preserve">
<g id="Layer_1">
</g>
<g id="Blindman">
</g>
<g id="Compliments">
</g>
<g id="HAT">
</g>
<g id="speech">
</g>
<g id="TREX_ARMS">
</g>
<g id="slim_shady">
</g>
<g id="TIMEOUT">
</g>
<g id="Truth_or_Dare">
</g>
<g id="ARM_WRESTLE">
</g>
<g id="musical_chairs">
</g>
<g id="never_have_i_ever">
</g>
<g id="Trivia">
</g>
<g id="Drink_Pulling">
</g>
<g id="Sharing_is_Caring">
</g>
<g id="Not_It">
</g>
<g id="Cocktail_of_Doom">
</g>
<g id="Heads_up">
</g>
<g id="Archenemy">
</g>
<g id="battle_of_the_sexes">
</g>
<g id="one_must_drink">
</g>
<g id="rainbow_connection">
</g>
<g id="social_drinking">
</g>
<g id="Spin_the_bottle">
</g>
<g id="accents">
</g>
<g id="Slap">
</g>
<g id="down_the_hatch">
</g>
<g id="rubiks_cube">
</g>
<g id="bar_tender">
</g>
<g id="codenames">
</g>
<g id="hand_switch">
</g>
<g id="make_a_rule">
</g>
<g id="no_guts_no_glory">
</g>
<g id="pass">
</g>
<g id="santa">
</g>
<g id="snake_eyes">
</g>
<g id="bodyguard">
</g>
<g id="threeman">
</g>
<g id="_x32__truths_and_a_lie">
</g>
<g id="cray_cray_cat_lady">
</g>
<g id="siblings">
</g>
<g id="later">
</g>
<g id="waterfall">
</g>
<g id="cheers">
</g>
<g id="rhyme">
</g>
<g id="categories">
</g>
<g id="tits">
</g>
<g id="dicks">
</g>
<g id="questions">
</g>
<g id="double_hands">
</g>
<g id="take_2">
</g>
<g id="take_3">
	<g>
		<path d="M5.38,43.882c0.027-0.252,0.084-0.496,0.168-0.734s0.202-0.441,0.356-0.609c0.153-0.168,0.357-0.252,0.609-0.252h3.948
			l0.504-0.546V20.866l-0.168-0.168c-0.057-0.027-0.168-0.049-0.336-0.063c-0.168-0.014-0.28-0.021-0.336-0.021
			c-0.084,0-0.231,0.007-0.441,0.021c-0.21,0.015-0.344,0.036-0.399,0.063c-0.924,0.225-1.589,0.609-1.995,1.155
			c-0.405,0.546-0.679,1.148-0.818,1.806c-0.141,0.658-0.203,1.338-0.189,2.037c0.014,0.7-0.007,1.337-0.063,1.911
			c-0.057,0.574-0.225,1.05-0.504,1.428c-0.28,0.378-0.771,0.567-1.471,0.567c-0.56,0-0.98-0.266-1.26-0.798
			c-0.28-0.532-0.42-1.051-0.42-1.555v-8.063c0-0.196,0.049-0.435,0.147-0.714c0.098-0.28,0.23-0.553,0.398-0.819
			c0.168-0.266,0.357-0.497,0.567-0.693c0.21-0.195,0.44-0.294,0.692-0.294h5.082c0.28-0.14,0.497-0.217,0.651-0.23
			c0.153-0.014,0.357-0.021,0.609-0.021c0.224,0,0.42,0.008,0.588,0.021s0.378,0.091,0.63,0.23h9.366c0.56,0,1.057,0.238,1.49,0.714
			c0.435,0.477,0.651,0.98,0.651,1.513v8.357c0,0.561-0.168,1.092-0.504,1.597c-0.336,0.504-0.798,0.756-1.386,0.756
			c-0.477,0-0.924-0.21-1.345-0.63c-0.42-0.421-0.63-0.883-0.63-1.387v-4.452c0-0.476-0.119-0.888-0.356-1.238
			c-0.238-0.35-0.546-0.645-0.924-0.882c-0.378-0.238-0.784-0.413-1.219-0.525c-0.435-0.111-0.847-0.168-1.238-0.168
			c-0.057,0-0.168,0.007-0.336,0.021c-0.168,0.015-0.267,0.021-0.295,0.021l-0.168,0.168c0,0.336-0.021,0.756-0.063,1.26
			s-0.119,0.952-0.231,1.344l0.084,4.116v0.84l0.21,13.482l0.337,0.336c0.447,0,0.979,0.015,1.596,0.042
			c0.615,0.028,1.197,0.119,1.743,0.273c0.546,0.153,1.008,0.398,1.386,0.734s0.567,0.84,0.567,1.512
			c0,0.393-0.084,0.722-0.253,0.987c-0.168,0.267-0.392,0.477-0.672,0.63c-0.28,0.154-0.595,0.267-0.944,0.336
			c-0.351,0.07-0.708,0.105-1.071,0.105c-0.532,0-1.044-0.091-1.533-0.273c-0.49-0.182-1.001-0.272-1.533-0.272
			c-0.896,0-1.75,0.141-2.562,0.42c-0.813,0.28-1.666,0.42-2.563,0.42c-0.308,0-0.692-0.056-1.154-0.168
			c-0.462-0.111-0.924-0.266-1.387-0.462c-0.462-0.195-0.854-0.441-1.176-0.735c-0.322-0.294-0.482-0.608-0.482-0.944
			C5.338,44.344,5.352,44.134,5.38,43.882z"/>
		<path d="M24.321,44.771c0-0.056,0.007-0.174,0.021-0.355c0.014-0.181,0.021-0.3,0.021-0.356c0.279-0.335,0.531-0.586,0.756-0.754
			c0.224-0.167,0.462-0.3,0.714-0.397s0.519-0.188,0.799-0.271c0.279-0.084,0.615-0.21,1.008-0.378
			c0.195-0.084,0.37-0.237,0.524-0.461c0.154-0.223,0.28-0.46,0.378-0.712c0.099-0.251,0.183-0.51,0.252-0.774
			c0.07-0.266,0.133-0.496,0.189-0.691c0.084-0.279,0.217-0.767,0.399-1.466c0.182-0.698,0.378-1.438,0.588-2.22
			c0.21-0.781,0.405-1.521,0.588-2.22c0.182-0.698,0.314-1.187,0.398-1.467c0.252-0.613,0.42-1.214,0.504-1.8
			c0.084-0.587,0.238-1.187,0.463-1.801c0.447-1.341,0.902-2.682,1.364-4.021s0.889-2.681,1.281-4.021
			c0.084-0.279,0.175-0.629,0.273-1.048c0.098-0.418,0.23-0.816,0.398-1.192c0.168-0.377,0.392-0.698,0.672-0.964
			c0.28-0.265,0.645-0.398,1.092-0.398c0.505,0,0.91,0.168,1.219,0.503c0.308,0.335,0.553,0.733,0.734,1.193
			c0.183,0.461,0.322,0.937,0.42,1.425c0.099,0.488,0.189,0.872,0.273,1.151c0.279,0.949,0.504,1.92,0.672,2.911
			s0.489,1.934,0.966,2.826l3.948,14.911c0.084,0.279,0.245,0.503,0.483,0.67c0.237,0.168,0.51,0.301,0.818,0.398
			c0.308,0.098,0.609,0.175,0.903,0.23s0.553,0.111,0.777,0.167c0.531,0.335,0.798,0.852,0.798,1.55c0,0.67-0.21,1.18-0.63,1.528
			c-0.42,0.35-0.952,0.524-1.597,0.524c-0.7,0-1.428-0.021-2.184-0.063s-1.47-0.076-2.142-0.104c-0.448,0-0.869-0.014-1.261-0.042
			c-0.393-0.027-0.742-0.104-1.05-0.23c-0.309-0.126-0.553-0.328-0.735-0.607c-0.182-0.278-0.272-0.67-0.272-1.173v-0.712
			c0.195-0.251,0.427-0.438,0.693-0.564c0.266-0.126,0.531-0.245,0.798-0.356c0.266-0.112,0.504-0.23,0.714-0.356
			s0.356-0.3,0.44-0.523c0-0.056-0.014-0.175-0.042-0.356c-0.028-0.181-0.063-0.369-0.104-0.564
			c-0.042-0.196-0.077-0.377-0.105-0.545c-0.028-0.167-0.056-0.279-0.084-0.335c-0.028-0.084-0.07-0.237-0.126-0.461
			c-0.056-0.223-0.14-0.46-0.252-0.712c-0.112-0.251-0.23-0.475-0.356-0.67c-0.126-0.196-0.26-0.294-0.399-0.294h-6.594
			c-0.057,0-0.196,0.092-0.42,0.272c-0.225,0.182-0.351,0.301-0.378,0.356l-1.177,2.471c0,0.028-0.007,0.112-0.021,0.251
			c-0.015,0.141-0.021,0.238-0.021,0.294c0,0.475,0.133,0.796,0.399,0.963c0.266,0.168,0.553,0.322,0.861,0.461
			c0.308,0.14,0.595,0.328,0.86,0.565c0.267,0.238,0.399,0.649,0.399,1.235c0,0.643-0.217,1.104-0.651,1.383
			s-0.959,0.419-1.574,0.419c-0.393,0-0.777-0.028-1.155-0.084s-0.777-0.084-1.197-0.084c-0.561,0-1.106,0.049-1.638,0.146
			c-0.532,0.098-1.078,0.146-1.639,0.146c-0.644,0-1.148-0.244-1.512-0.733C24.503,45.895,24.321,45.357,24.321,44.771z
			 M34.065,34.601c0.308,0.196,0.602,0.301,0.882,0.314c0.279,0.015,0.615,0.021,1.008,0.021c0.561,0,1.113-0.042,1.659-0.126
			s1.113-0.154,1.701-0.21l0.168-0.168c0-0.028,0.007-0.105,0.021-0.231c0.015-0.126,0.021-0.217,0.021-0.273
			c0-0.224-0.057-0.608-0.168-1.154c-0.112-0.546-0.26-1.148-0.441-1.807c-0.182-0.657-0.385-1.336-0.608-2.036
			c-0.225-0.7-0.435-1.337-0.63-1.911c-0.196-0.574-0.364-1.051-0.504-1.429c-0.141-0.378-0.225-0.566-0.253-0.566
			c-0.111,0-0.195,0.07-0.252,0.21c-0.056,0.141-0.098,0.238-0.126,0.294c-0.084,0.225-0.203,0.553-0.356,0.987
			c-0.154,0.434-0.315,0.868-0.483,1.302c-0.168,0.435-0.314,0.826-0.44,1.176c-0.126,0.351-0.204,0.567-0.231,0.651
			c-0.225,0.729-0.448,1.47-0.672,2.226c-0.225,0.756-0.336,1.498-0.336,2.227c0,0.056,0.007,0.14,0.021,0.252
			C34.059,34.46,34.065,34.544,34.065,34.601z"/>
		<path d="M50.361,44.05c0.168-0.252,0.392-0.447,0.672-0.588c0.28-0.14,0.595-0.23,0.945-0.272c0.35-0.042,0.707-0.063,1.071-0.063
			l0.252-0.168V27.67c0.168-0.308,0.252-0.615,0.252-0.924c0-0.336,0-0.672,0-1.008c0-0.783-0.008-1.456-0.021-2.016
			c-0.015-0.561-0.063-1.274-0.146-2.143c-0.225-0.308-0.525-0.469-0.903-0.482c-0.378-0.015-0.756-0.035-1.134-0.063
			c-0.378-0.027-0.708-0.14-0.987-0.336c-0.28-0.195-0.42-0.657-0.42-1.386c0-0.868,0.273-1.477,0.819-1.827
			c0.546-0.35,1.196-0.525,1.953-0.525c0.644,0,1.267,0.092,1.868,0.273c0.603,0.183,1.239,0.273,1.911,0.273
			c0.477,0,0.931-0.035,1.365-0.104c0.434-0.07,0.889-0.105,1.365-0.105c0.644,0,1.231,0.175,1.764,0.525s0.798,0.862,0.798,1.535
			c0,0.365-0.063,0.666-0.188,0.904c-0.126,0.239-0.344,0.47-0.651,0.693c-0.084,0.029-0.23,0.064-0.44,0.106
			s-0.441,0.091-0.693,0.146c-0.252,0.057-0.49,0.105-0.714,0.147c-0.225,0.042-0.378,0.063-0.462,0.063
			c-0.028,0-0.099,0.015-0.21,0.043c-0.112,0.028-0.231,0.049-0.357,0.063c-0.126,0.015-0.245,0.028-0.356,0.042
			c-0.112,0.015-0.183,0.021-0.21,0.021c-0.028,0.028-0.063,0.057-0.105,0.084c-0.042,0.028-0.063,0.057-0.063,0.084
			c-0.027,0.365-0.063,0.75-0.104,1.157c-0.042,0.406-0.119,0.792-0.231,1.156v4.794l0.336,0.968h0.673
			c0.279-0.252,0.504-0.462,0.672-0.631c0.168-0.168,0.343-0.343,0.524-0.525s0.329-0.344,0.441-0.483
			c0.308-0.364,0.651-0.75,1.029-1.157c0.378-0.406,0.636-0.848,0.776-1.324l2.94-2.945c0.14-0.14,0.266-0.35,0.378-0.63
			c0.111-0.28,0.168-0.519,0.168-0.716c0-0.084-0.077-0.195-0.231-0.336s-0.329-0.309-0.524-0.505
			c-0.196-0.196-0.372-0.448-0.525-0.757c-0.154-0.309-0.23-0.673-0.23-1.094c0-0.393,0.084-0.708,0.252-0.946
			s0.378-0.42,0.63-0.547c0.252-0.126,0.539-0.203,0.86-0.231c0.322-0.027,0.637-0.042,0.945-0.042c0.476,0,0.945,0.036,1.407,0.105
			c0.462,0.07,0.931,0.104,1.407,0.104c0.476,0,0.916-0.034,1.322-0.104c0.406-0.069,0.847-0.105,1.323-0.105
			c0.784,0,1.379,0.154,1.785,0.463c0.405,0.309,0.609,0.869,0.609,1.683c0,0.533-0.12,0.946-0.357,1.24
			c-0.238,0.295-0.539,0.506-0.903,0.632s-0.776,0.203-1.238,0.23c-0.462,0.028-0.903,0.057-1.323,0.084
			c-0.588,0.449-1.071,0.968-1.449,1.557s-0.819,1.164-1.323,1.724c-0.224,0.253-0.553,0.575-0.986,0.968
			c-0.435,0.393-0.861,0.807-1.281,1.241s-0.784,0.869-1.092,1.304c-0.309,0.435-0.462,0.806-0.462,1.114
			c0,0.057,0.014,0.211,0.042,0.463c0,0.057,0.076,0.169,0.23,0.337c0.153,0.168,0.245,0.279,0.273,0.336
			c0.279,0.505,0.58,1.171,0.902,1.998s0.679,1.535,1.071,2.123c0.756,1.207,1.463,2.447,2.121,3.723
			c0.657,1.275,1.309,2.559,1.953,3.849l0.84,0.799c0.279,0.028,0.637,0.057,1.071,0.084c0.434,0.028,0.854,0.105,1.26,0.231
			c0.405,0.126,0.756,0.309,1.05,0.547s0.441,0.567,0.441,0.988c0,1.01-0.26,1.668-0.777,1.977
			c-0.519,0.309-1.225,0.463-2.121,0.463c-0.477,0-0.924-0.027-1.344-0.084c-0.42-0.056-0.854-0.084-1.302-0.084
			c-0.448,0-0.882,0.028-1.302,0.084c-0.421,0.057-0.869,0.084-1.345,0.084c-0.42,0-0.84-0.035-1.26-0.105
			c-0.42-0.069-0.798-0.195-1.134-0.378c-0.336-0.182-0.609-0.426-0.819-0.734c-0.21-0.308-0.314-0.714-0.314-1.218
			c0-0.505,0.146-0.841,0.44-1.009s0.616-0.279,0.966-0.336c0.351-0.056,0.672-0.132,0.967-0.23c0.294-0.098,0.44-0.315,0.44-0.651
			c0-0.363-0.084-0.735-0.252-1.113s-0.309-0.692-0.42-0.944c0-0.056-0.021-0.119-0.063-0.189c-0.042-0.069-0.077-0.118-0.104-0.146
			c-0.141-0.196-0.336-0.519-0.588-0.967c-0.252-0.447-0.525-0.958-0.819-1.532s-0.608-1.169-0.944-1.785
			c-0.337-0.615-0.651-1.183-0.945-1.701c-0.294-0.518-0.554-0.951-0.777-1.302c-0.225-0.35-0.393-0.553-0.504-0.609
			c-0.057-0.027-0.238,0.099-0.546,0.378c-0.309,0.28-0.645,0.609-1.008,0.987c-0.364,0.378-0.7,0.749-1.008,1.113
			c-0.309,0.364-0.504,0.63-0.589,0.798c-0.168,0.42-0.266,0.882-0.294,1.386c-0.027,0.504-0.042,0.994-0.042,1.47v1.093
			c0.028,0.252,0.057,0.574,0.084,0.966c0.028,0.393,0.063,0.771,0.105,1.134c0.042,0.364,0.091,0.813,0.146,1.344l0.337,0.42h2.939
			c0.42,0,0.749,0.189,0.987,0.567c0.237,0.378,0.356,0.735,0.356,1.071c0,0.728-0.294,1.28-0.882,1.658s-1.204,0.567-1.848,0.567
			c-0.393,0-0.777-0.027-1.155-0.084c-0.378-0.056-0.763-0.084-1.155-0.084c-0.813,0-1.631,0.049-2.457,0.146
			c-0.826,0.099-1.673,0.147-2.541,0.147c-0.616,0-1.07-0.217-1.364-0.651c-0.294-0.434-0.441-0.93-0.441-1.49
			C50.109,44.652,50.193,44.302,50.361,44.05z"/>
		<path d="M76.064,44.344c0.056-0.308,0.147-0.588,0.273-0.84s0.3-0.454,0.524-0.608c0.224-0.154,0.519-0.231,0.882-0.231h0.253
			c0.056,0.028,0.216,0.063,0.482,0.105c0.266,0.042,0.427,0.063,0.483,0.063h0.084c0.14,0,0.328-0.014,0.566-0.042
			c0.238-0.027,0.483-0.063,0.735-0.104s0.489-0.084,0.714-0.126c0.224-0.042,0.405-0.063,0.546-0.063
			c0.168-0.111,0.294-0.314,0.378-0.608c0.084-0.295,0.126-0.525,0.126-0.693l-0.084-9.87v-0.798l-0.084-5.754
			c0.14-0.364,0.203-0.777,0.189-1.239c-0.015-0.462-0.021-0.861-0.021-1.197v-1.05l-0.336-0.294
			c-0.028-0.027-0.141-0.042-0.336-0.042c-0.196,0-0.351,0-0.462,0c-0.477,0-0.931,0.035-1.365,0.105
			c-0.435,0.069-0.889,0.104-1.364,0.104c-0.757,0-1.373-0.168-1.849-0.504c-0.477-0.336-0.714-0.909-0.714-1.722
			c0-0.672,0.195-1.239,0.588-1.701c0.392-0.462,0.952-0.693,1.681-0.693c3.415,0,6.817,0.035,10.205,0.105s6.79,0.091,10.206,0.063
			c0.42,0.057,0.771,0.322,1.051,0.798c0.279,0.477,0.42,0.925,0.42,1.345v8.861c0,0.504-0.183,0.91-0.546,1.219
			c-0.364,0.308-0.784,0.462-1.261,0.462c-0.393,0-0.776-0.141-1.154-0.42c-0.378-0.28-0.567-0.645-0.567-1.093v-4.452
			c0-0.027-0.091-0.21-0.273-0.546c-0.182-0.336-0.329-0.588-0.44-0.756c-0.141-0.168-0.371-0.398-0.693-0.692
			s-0.595-0.441-0.818-0.441h-8.022l-0.168,0.168c0,0.168-0.007,0.483-0.021,0.945c-0.015,0.462-0.036,0.944-0.063,1.449
			c-0.028,0.504-0.049,0.979-0.063,1.428c-0.014,0.448-0.021,0.756-0.021,0.924c0,0.057-0.028,0.225-0.084,0.504
			c-0.057,0.28-0.084,0.448-0.084,0.504v0.084v0.042c0.027,0.141,0.056,0.315,0.084,0.525c0.027,0.21,0.063,0.406,0.104,0.588
			c0.043,0.183,0.091,0.413,0.147,0.693l0.168,0.168h2.142c0.309-0.225,0.651-0.406,1.029-0.547c0.378-0.14,0.679-0.392,0.903-0.756
			c0.195-0.308,0.308-0.721,0.336-1.238c0.027-0.519,0.069-1.029,0.126-1.533c0.056-0.504,0.182-0.938,0.378-1.302
			c0.195-0.364,0.573-0.547,1.134-0.547c0.448,0,0.812,0.162,1.092,0.483c0.28,0.322,0.42,0.722,0.42,1.197v13.775
			c0,0.896-0.434,1.345-1.302,1.345c-0.561,0-0.98-0.175-1.26-0.525c-0.28-0.35-0.477-0.77-0.588-1.26
			c-0.112-0.49-0.168-1.001-0.168-1.533c0-0.531,0-0.966,0-1.302c-0.057-0.14-0.168-0.35-0.336-0.63s-0.372-0.553-0.609-0.819
			c-0.238-0.266-0.477-0.504-0.714-0.714c-0.238-0.21-0.441-0.315-0.609-0.315h-1.806c-0.112,0-0.168,0.057-0.168,0.168
			c-0.057,0.057-0.112,0.168-0.168,0.336v9.198l0.336,0.336h4.242c0.672-0.195,1.281-0.286,1.827-0.272s1.05,0.007,1.512-0.021
			c0.462-0.027,0.889-0.146,1.281-0.356c0.392-0.21,0.77-0.651,1.134-1.323c0.056-0.084,0.126-0.217,0.21-0.399
			c0.084-0.182,0.126-0.314,0.126-0.398v-4.116c0-0.476,0.168-0.896,0.504-1.26s0.742-0.546,1.218-0.546
			c0.588,0,1.064,0.272,1.429,0.818c0.363,0.546,0.546,1.086,0.546,1.617v5.754c0.14,0.309,0.217,0.567,0.23,0.777
			s0.021,0.469,0.021,0.776c0,1.036-0.309,1.835-0.924,2.395c-0.616,0.561-1.429,0.84-2.437,0.84c-0.309,0-0.603,0-0.882,0
			c-0.252,0-0.532-0.056-0.84-0.168H81.44c-0.364,0.141-0.771,0.203-1.218,0.189c-0.448-0.015-0.84-0.021-1.176-0.021
			c-0.393,0-0.771-0.007-1.134-0.021c-0.364-0.014-0.693-0.084-0.987-0.21s-0.525-0.314-0.693-0.566s-0.252-0.615-0.252-1.092
			C75.98,44.946,76.008,44.652,76.064,44.344z"/>
	</g>
	<g>
		<g>
			<g>
				<g>
					<path d="M137.271,10.639c10.3,0,20.601,0,30.9,0c0.645,0,1.288,0,1.933,0c0.743,0-0.16-1.185-0.344-0.452
						c-0.494,1.964-0.988,3.928-1.482,5.893c-1.59,6.322-3.18,12.646-4.771,18.968c-0.817,3.254-1.269,7.324-3.417,10.027
						c-3.675,4.624-11.852,2.811-13.99-2.314c-0.362-0.869-0.518-1.901-0.743-2.81c-2.495-10.034-4.989-20.068-7.483-30.103
						c-0.194-0.782-1.399-0.45-1.205,0.332c2.065,8.31,4.131,16.62,6.197,24.93c1.673,6.729,2.463,13.183,10.947,13.76
						c8.174,0.557,9.41-7.564,10.9-13.49c2.112-8.399,4.225-16.799,6.337-25.199c0.099-0.393-0.189-0.791-0.603-0.791
						c-11.059,0-22.118,0-33.177,0C136.465,9.389,136.465,10.639,137.271,10.639z"/>
				</g>
			</g>
			<g>
				<g>
					<path d="M144.739,42.545c0,4.229,0,8.456,0,12.685c0,0.341,0.284,0.625,0.625,0.625c5.604,0,11.208,0,16.812,0
						c0.341,0,0.625-0.284,0.625-0.625c0-4.166,0-8.333,0-12.499c0-0.806-1.25-0.806-1.25,0c0,3.815,0,7.631,0,11.445
						c0,1.439-0.192,0.429,0.591,0.429c-0.489,0-0.979,0-1.467,0c-2.302,0-4.604,0-6.904,0c-2.162,0-4.323,0-6.484,0
						c-0.596,0-1.191,0-1.787,0c0.542,0,0.49,1.046,0.49-0.376c0-3.895,0-7.789,0-11.684
						C145.989,41.739,144.739,41.739,144.739,42.545L144.739,42.545z"/>
				</g>
			</g>
		</g>
		<g>
			<g>
				<path d="M143.024,19.987h21.492l-5.121,20.36c0,0-0.714,4.466-5.655,4.406c-4.941-0.061-5.596-4.167-5.596-4.167L143.024,19.987
					z"/>
			</g>
		</g>
	</g>
	<g>
		<g>
			<g>
				<g>
					<path d="M101.437,10.639c10.3,0,20.601,0,30.9,0c0.645,0,1.288,0,1.933,0c0.743,0-0.16-1.185-0.344-0.452
						c-0.494,1.964-0.988,3.928-1.482,5.893c-1.59,6.322-3.18,12.646-4.771,18.968c-0.817,3.254-1.269,7.324-3.417,10.027
						c-3.675,4.624-11.852,2.811-13.99-2.314c-0.362-0.869-0.518-1.901-0.743-2.81c-2.495-10.034-4.989-20.068-7.483-30.103
						c-0.194-0.782-1.399-0.45-1.205,0.332c2.065,8.31,4.131,16.62,6.197,24.93c1.673,6.729,2.463,13.183,10.947,13.76
						c8.174,0.557,9.41-7.564,10.9-13.49c2.112-8.399,4.225-16.799,6.337-25.199c0.099-0.393-0.189-0.791-0.603-0.791
						c-11.059,0-22.118,0-33.177,0C100.631,9.389,100.631,10.639,101.437,10.639z"/>
				</g>
			</g>
			<g>
				<g>
					<path d="M108.905,42.545c0,4.229,0,8.456,0,12.685c0,0.341,0.284,0.625,0.625,0.625c5.604,0,11.208,0,16.812,0
						c0.341,0,0.625-0.284,0.625-0.625c0-4.166,0-8.333,0-12.499c0-0.806-1.25-0.806-1.25,0c0,3.815,0,7.631,0,11.445
						c0,1.439-0.192,0.429,0.591,0.429c-0.489,0-0.979,0-1.467,0c-2.302,0-4.604,0-6.904,0c-2.162,0-4.323,0-6.484,0
						c-0.596,0-1.191,0-1.787,0c0.542,0,0.49,1.046,0.49-0.376c0-3.895,0-7.789,0-11.684
						C110.155,41.739,108.905,41.739,108.905,42.545L108.905,42.545z"/>
				</g>
			</g>
		</g>
		<g>
			<g>
				<path d="M107.19,19.987h21.492l-5.121,20.36c0,0-0.714,4.466-5.655,4.406c-4.941-0.061-5.596-4.167-5.596-4.167L107.19,19.987z"
					/>
			</g>
		</g>
	</g>
	<g>
		<g>
			<g>
				<g>
					<path d="M173.438,10.638c10.3,0,20.601,0,30.9,0c0.645,0,1.288,0,1.933,0c0.743,0-0.16-1.185-0.344-0.452
						c-0.494,1.964-0.988,3.928-1.482,5.893c-1.59,6.322-3.18,12.646-4.771,18.968c-0.817,3.254-1.269,7.324-3.417,10.027
						c-3.675,4.624-11.852,2.811-13.99-2.314c-0.362-0.869-0.518-1.901-0.743-2.81c-2.495-10.034-4.989-20.068-7.483-30.103
						c-0.194-0.782-1.399-0.45-1.205,0.332c2.065,8.31,4.131,16.62,6.197,24.93c1.673,6.729,2.463,13.183,10.947,13.76
						c8.174,0.557,9.41-7.564,10.9-13.49c2.112-8.399,4.225-16.799,6.337-25.199c0.099-0.393-0.189-0.791-0.603-0.791
						c-11.059,0-22.118,0-33.177,0C172.632,9.388,172.632,10.638,173.438,10.638z"/>
				</g>
			</g>
			<g>
				<g>
					<path d="M180.906,42.544c0,4.229,0,8.456,0,12.685c0,0.341,0.284,0.625,0.625,0.625c5.604,0,11.208,0,16.812,0
						c0.341,0,0.625-0.284,0.625-0.625c0-4.166,0-8.333,0-12.499c0-0.806-1.25-0.806-1.25,0c0,3.815,0,7.631,0,11.445
						c0,1.439-0.192,0.429,0.591,0.429c-0.489,0-0.979,0-1.467,0c-2.302,0-4.604,0-6.904,0c-2.162,0-4.323,0-6.484,0
						c-0.596,0-1.191,0-1.787,0c0.542,0,0.49,1.046,0.49-0.376c0-3.895,0-7.789,0-11.684
						C182.156,41.738,180.906,41.738,180.906,42.544L180.906,42.544z"/>
				</g>
			</g>
		</g>
		<g>
			<g>
				<path d="M179.191,19.986h21.492l-5.121,20.36c0,0-0.714,4.466-5.655,4.406c-4.941-0.061-5.596-4.167-5.596-4.167L179.191,19.986
					z"/>
			</g>
		</g>
	</g>
</g>
<g id="give_3">
</g>
<g id="give_2">
</g>
<g id="rewind">
</g>
<g id="Cryptkeeper">
</g>
<g id="Take_2_and_Redo">
</g>
<g id="Embryo">
</g>
<g id="I_am_Groot">
</g>
<g id="Mini_Me">
</g>
<g id="Ditto_1_">
</g>
</svg>
