<?xml version="1.0" encoding="utf-8"?>
<!-- Generator: Adobe Illustrator 16.0.0, SVG Export Plug-In . SVG Version: 6.00 Build 0)  -->
<!DOCTYPE svg PUBLIC "-//W3C//DTD SVG 1.1//EN" "http://www.w3.org/Graphics/SVG/1.1/DTD/svg11.dtd">
<svg version="1.1" xmlns="http://www.w3.org/2000/svg" xmlns:xlink="http://www.w3.org/1999/xlink" x="0px" y="0px"
	 width="209.759px" height="62.361px" viewBox="0 0 209.759 62.361" enable-background="new 0 0 209.759 62.361"
	 xml:space="preserve">
<g id="Layer_1">
</g>
<g id="Blindman">
</g>
<g id="Compliments">
</g>
<g id="HAT">
</g>
<g id="speech">
</g>
<g id="TREX_ARMS">
</g>
<g id="slim_shady">
</g>
<g id="TIMEOUT">
</g>
<g id="Truth_or_Dare">
</g>
<g id="ARM_WRESTLE">
</g>
<g id="musical_chairs">
</g>
<g id="never_have_i_ever">
</g>
<g id="Trivia">
</g>
<g id="Drink_Pulling">
</g>
<g id="Sharing_is_Caring">
</g>
<g id="Not_It">
</g>
<g id="Cocktail_of_Doom">
</g>
<g id="Heads_up">
</g>
<g id="Archenemy">
</g>
<g id="battle_of_the_sexes">
</g>
<g id="one_must_drink">
</g>
<g id="rainbow_connection">
</g>
<g id="social_drinking">
</g>
<g id="Spin_the_bottle">
</g>
<g id="accents">
</g>
<g id="Slap">
</g>
<g id="down_the_hatch">
</g>
<g id="rubiks_cube">
</g>
<g id="bar_tender">
</g>
<g id="codenames">
</g>
<g id="hand_switch">
</g>
<g id="make_a_rule">
</g>
<g id="no_guts_no_glory">
</g>
<g id="pass">
</g>
<g id="santa">
</g>
<g id="snake_eyes">
</g>
<g id="lightning_round">
</g>
<g id="Bro">
</g>
<g id="LeastDrunk">
</g>
<g id="Know_It_All">
</g>
<g id="EyeContact">
</g>
<g id="UnderGuesser">
</g>
<g id="GodSaveTheQUeen">
</g>
<g id="Ghost">
</g>
<g id="Fortune_Teller">
</g>
<g id="DrinkSwap">
</g>
<g id="DickTator">
</g>
<g id="_x34_Eyes">
</g>
<g id="BabyTalk">
</g>
<g id="Backseat_Driver">
</g>
<g id="BAtman">
</g>
<g id="bodyguard">
</g>
<g id="BuckleUp">
</g>
<g id="RockPaperScissors">
</g>
<g id="Roger_Roger">
</g>
<g id="RoyaleWe">
</g>
<g id="Skip">
</g>
<g id="SwineRules">
</g>
<g id="Touchy_Feeley">
</g>
<g id="Wasted_Education">
</g>
<g id="Layer_86">
	<g>
		<path d="M39.975,44.044c-0.484,0-0.965-0.066-1.441-0.199c-0.477-0.131-0.928-0.314-1.353-0.549
			c-0.426-0.234-0.814-0.521-1.166-0.859c-0.353-0.336-0.638-0.717-0.858-1.143c-0.044-0.088-0.099-0.199-0.165-0.33
			c-0.065-0.133-0.132-0.26-0.197-0.385c-0.066-0.125-0.125-0.234-0.177-0.33c-0.051-0.096-0.076-0.15-0.076-0.166l-0.595-2.574
			v-3.014c0-0.059,0.019-0.18,0.056-0.363c0.036-0.182,0.076-0.385,0.121-0.604c0.044-0.221,0.091-0.434,0.143-0.639
			c0.051-0.205,0.092-0.359,0.121-0.463c0.176-0.57,0.41-1.139,0.704-1.705c0.293-0.564,0.648-1.074,1.066-1.527
			c0.418-0.455,0.898-0.822,1.441-1.102c0.542-0.277,1.144-0.418,1.804-0.418c0.353,0,0.679,0.049,0.979,0.145
			c0.3,0.094,0.597,0.223,0.891,0.385c0.029,0.014,0.099,0.051,0.209,0.109s0.228,0.121,0.353,0.188
			c0.124,0.066,0.238,0.129,0.341,0.186c0.103,0.061,0.168,0.096,0.198,0.111c0.469,0.338,0.85,0.773,1.144,1.309
			c0.293,0.535,0.55,1.053,0.77,1.551c0.044,0.104,0.103,0.199,0.177,0.287c0.073,0.088,0.124,0.189,0.153,0.307
			c0.103,0.352,0.18,0.697,0.231,1.035c0.051,0.338,0.121,0.682,0.209,1.033v2.662c-0.206,0.895-0.422,1.752-0.649,2.574
			s-0.583,1.627-1.066,2.42c-0.03,0.029-0.081,0.084-0.154,0.164c-0.073,0.082-0.15,0.162-0.231,0.242
			c-0.08,0.082-0.161,0.158-0.241,0.232c-0.081,0.072-0.136,0.117-0.165,0.131c-0.118,0.104-0.209,0.174-0.275,0.209
			c-0.065,0.037-0.113,0.07-0.143,0.1c-0.03,0.029-0.052,0.076-0.066,0.143s-0.021,0.172-0.021,0.318
			c0,0.133,0.007,0.33,0.021,0.596c0.015,0.264,0.055,0.523,0.121,0.779c0.066,0.258,0.157,0.48,0.275,0.672
			c0.117,0.189,0.278,0.285,0.483,0.285c0.278,0,0.48-0.098,0.605-0.297c0.124-0.197,0.209-0.443,0.253-0.736
			s0.069-0.609,0.077-0.945c0.007-0.338,0.036-0.652,0.088-0.947c0.051-0.293,0.15-0.539,0.297-0.736s0.374-0.297,0.682-0.297
			c0.249,0,0.437,0.121,0.562,0.363c0.124,0.242,0.201,0.465,0.23,0.67c0,0.074,0.004,0.225,0.012,0.451
			c0.007,0.229,0.011,0.377,0.011,0.451c0,0.426-0.041,0.887-0.121,1.387c-0.081,0.498-0.224,0.961-0.429,1.385
			c-0.206,0.426-0.484,0.781-0.836,1.068c-0.353,0.285-0.8,0.428-1.343,0.428c-0.527,0-0.979-0.121-1.353-0.363
			c-0.374-0.24-0.675-0.557-0.902-0.945s-0.399-0.818-0.517-1.287c-0.118-0.469-0.184-0.924-0.198-1.363L39.975,44.044z
			 M40.305,38.554c0.366,0.301,0.689,0.643,0.968,1.023c0.103,0.146,0.172,0.316,0.209,0.506c0.036,0.191,0.106,0.367,0.209,0.529
			h0.044h0.044c0.029-0.016,0.063-0.045,0.1-0.088c0.036-0.045,0.062-0.074,0.076-0.09c0.367-0.6,0.62-1.191,0.76-1.77
			c0.139-0.58,0.289-1.199,0.451-1.859v-2.486l-0.528-1.893c-0.044-0.16-0.154-0.381-0.33-0.66
			c-0.176-0.277-0.378-0.557-0.605-0.836c-0.228-0.277-0.466-0.516-0.715-0.715c-0.249-0.197-0.47-0.297-0.66-0.297h-1.649
			c-0.015,0-0.056,0.012-0.121,0.033c-0.066,0.021-0.114,0.041-0.144,0.055c-0.469,0.236-0.847,0.504-1.133,0.803
			c-0.286,0.301-0.517,0.631-0.692,0.99c-0.177,0.359-0.315,0.748-0.418,1.166c-0.104,0.418-0.213,0.869-0.33,1.354v3.189
			c0,0.25,0.051,0.518,0.153,0.803c0.103,0.287,0.228,0.533,0.374,0.738l0.066,0.021c0.015,0,0.044-0.008,0.088-0.021
			c0.029-0.016,0.103-0.07,0.22-0.166c0.117-0.094,0.19-0.156,0.221-0.186c0.293-0.176,0.623-0.32,0.989-0.43
			c0.367-0.109,0.719-0.166,1.057-0.166C39.505,38.103,39.938,38.255,40.305,38.554z M37.599,41.228
			c0.146,0.146,0.322,0.271,0.528,0.373c0.205,0.104,0.418,0.182,0.638,0.232s0.403,0.076,0.55,0.076
			c0.176,0,0.345-0.025,0.506-0.076s0.242-0.188,0.242-0.408c0-0.146-0.019-0.303-0.055-0.473c-0.037-0.168-0.106-0.311-0.209-0.428
			c-0.074-0.104-0.188-0.232-0.341-0.387c-0.154-0.152-0.239-0.23-0.254-0.23h-0.945c-0.074,0-0.158,0.029-0.253,0.088
			c-0.096,0.059-0.191,0.133-0.286,0.221c-0.096,0.088-0.176,0.18-0.242,0.275s-0.099,0.172-0.099,0.23
			C37.379,40.913,37.452,41.081,37.599,41.228z"/>
		<path d="M49.908,37.091c0.095-0.66,0.143-1.326,0.143-2.002c0-0.043,0-0.109,0-0.197c0-0.104-0.004-0.209-0.011-0.318
			c-0.008-0.111-0.012-0.209-0.012-0.297c0-0.104,0-0.178,0-0.221c-0.161-0.104-0.341-0.172-0.538-0.209
			c-0.198-0.037-0.386-0.08-0.562-0.133c-0.176-0.051-0.322-0.135-0.439-0.252c-0.118-0.117-0.177-0.309-0.177-0.572
			c0-0.25,0.077-0.463,0.231-0.639s0.363-0.264,0.627-0.264h1.804c0.22,0,0.393,0.049,0.518,0.143
			c0.124,0.096,0.22,0.221,0.285,0.373c0.066,0.154,0.11,0.318,0.133,0.494c0.021,0.176,0.032,0.336,0.032,0.482
			c0,0.309-0.019,0.607-0.055,0.9c-0.037,0.293-0.055,0.592-0.055,0.9c0,0.102,0.003,0.26,0.011,0.471
			c0.007,0.213,0.011,0.334,0.011,0.363c0,0.146,0.008,0.406,0.022,0.779s0.029,0.771,0.044,1.195s0.033,0.824,0.055,1.197
			c0.022,0.373,0.033,0.633,0.033,0.779c0.059,0.379,0.18,0.693,0.363,0.943c0.183,0.248,0.487,0.373,0.913,0.373
			c0.176,0,0.374-0.016,0.594-0.045s0.403-0.109,0.55-0.242c0.264-0.234,0.535-0.502,0.814-0.803
			c0.278-0.301,0.527-0.619,0.748-0.957c0.22-0.336,0.402-0.693,0.55-1.066c0.146-0.375,0.22-0.752,0.22-1.133v-3.189
			c0-0.059-0.099-0.1-0.297-0.121c-0.198-0.023-0.418-0.063-0.66-0.121s-0.462-0.158-0.66-0.297
			c-0.198-0.141-0.297-0.35-0.297-0.627c0-0.25,0.077-0.447,0.231-0.596c0.153-0.146,0.37-0.219,0.648-0.219h1.98
			c0.264,0,0.454,0.084,0.571,0.252c0.117,0.17,0.198,0.367,0.242,0.594c0.044,0.229,0.066,0.467,0.066,0.717
			c0,0.248,0.021,0.447,0.065,0.594l-0.044,2.332v0.418l-0.044,4.135l0.177,0.176c0.22,0,0.45,0.008,0.692,0.023
			c0.242,0.014,0.47,0.063,0.683,0.143c0.212,0.082,0.385,0.199,0.517,0.355c0.132,0.154,0.198,0.381,0.198,0.678
			c0,0.266-0.052,0.475-0.154,0.621c-0.103,0.148-0.238,0.256-0.407,0.322s-0.355,0.107-0.561,0.123
			c-0.206,0.016-0.411,0.021-0.616,0.021c-0.117,0-0.305-0.006-0.561-0.021c-0.257-0.016-0.518-0.057-0.781-0.123
			c-0.265-0.066-0.495-0.166-0.693-0.299c-0.198-0.135-0.297-0.313-0.297-0.533v-0.957h-0.088c-0.25,0.268-0.495,0.523-0.737,0.768
			s-0.499,0.467-0.77,0.666c-0.271,0.201-0.565,0.359-0.88,0.479c-0.316,0.117-0.657,0.178-1.023,0.178
			c-0.602,0-1.122-0.141-1.562-0.418c-0.44-0.279-0.804-0.635-1.09-1.068c-0.285-0.432-0.498-0.916-0.638-1.451
			s-0.209-1.066-0.209-1.596C49.765,38.419,49.813,37.751,49.908,37.091z"/>
		<path d="M63.503,36.63c0.081-0.543,0.217-1.061,0.407-1.551c0.19-0.492,0.443-0.947,0.759-1.365s0.715-0.758,1.199-1.021
			c0.044-0.029,0.124-0.074,0.242-0.133c0.117-0.059,0.242-0.121,0.374-0.188s0.253-0.123,0.362-0.176
			c0.11-0.051,0.188-0.084,0.231-0.1c0.161-0.072,0.326-0.105,0.495-0.098c0.168,0.008,0.333,0.01,0.495,0.01
			c0.938,0,1.73,0.225,2.376,0.672c0.645,0.447,1.246,1.023,1.804,1.727c0.059,0.088,0.136,0.254,0.231,0.496
			c0.095,0.24,0.183,0.506,0.264,0.791c0.08,0.287,0.15,0.564,0.209,0.836s0.088,0.473,0.088,0.605c0,0.029-0.004,0.092-0.011,0.188
			c-0.008,0.096-0.011,0.156-0.011,0.186c-0.133,0.221-0.309,0.367-0.528,0.441c-0.22,0.072-0.447,0.131-0.682,0.176
			c-0.162,0-0.451-0.004-0.869-0.012s-0.862-0.012-1.331-0.012c-0.455,0-0.892,0.004-1.31,0.012s-0.707,0.012-0.869,0.012
			c-0.161,0-0.355,0.004-0.583,0.01c-0.228,0.008-0.45,0.016-0.671,0.023c-0.22,0.008-0.491,0.025-0.813,0.055l-0.088,0.066
			c0,0.016-0.004,0.066-0.012,0.156c-0.007,0.088-0.011,0.146-0.011,0.176c0,0.428,0.077,0.834,0.231,1.217
			c0.153,0.385,0.366,0.721,0.638,1.008s0.59,0.516,0.957,0.686c0.366,0.17,0.77,0.256,1.21,0.256c0.044,0,0.143-0.004,0.297-0.012
			s0.253-0.012,0.297-0.012c0.205-0.16,0.44-0.273,0.704-0.34c0.265-0.066,0.491-0.18,0.683-0.342
			c0.146-0.131,0.282-0.293,0.406-0.484c0.125-0.189,0.257-0.373,0.396-0.549c0.139-0.176,0.289-0.322,0.451-0.441
			c0.161-0.117,0.358-0.176,0.594-0.176c0.22,0,0.399,0.066,0.539,0.199c0.139,0.131,0.209,0.301,0.209,0.506
			c0,0.338-0.073,0.641-0.22,0.912c-0.147,0.271-0.309,0.539-0.484,0.803c-0.44,0.639-1.02,1.094-1.738,1.369
			s-1.459,0.414-2.222,0.414c-0.748,0-1.423-0.146-2.024-0.441c-0.602-0.293-1.107-0.688-1.518-1.188
			c-0.411-0.498-0.727-1.074-0.946-1.727s-0.33-1.338-0.33-2.057C63.382,37.7,63.422,37.173,63.503,36.63z M65.45,36.321
			c0,0.045,0.029,0.066,0.088,0.066h5.082c0.029,0,0.069-0.018,0.121-0.055c0.051-0.037,0.092-0.07,0.121-0.1
			c0.015-0.029,0.021-0.08,0.021-0.154c0-0.072,0-0.125,0-0.154c0-0.352-0.088-0.648-0.264-0.891s-0.396-0.432-0.66-0.572
			c-0.264-0.139-0.554-0.242-0.869-0.307c-0.315-0.066-0.612-0.1-0.891-0.1c-0.308,0-0.624,0.041-0.946,0.121
			s-0.616,0.209-0.88,0.385s-0.484,0.4-0.66,0.672s-0.264,0.59-0.264,0.957C65.45,36.22,65.45,36.263,65.45,36.321z"/>
		<path d="M75.604,42.163c0.007-0.096,0.047-0.217,0.12-0.363v-2.596c0-0.205,0.081-0.371,0.242-0.496
			c0.161-0.123,0.338-0.186,0.528-0.186c0.088,0,0.187,0.01,0.297,0.031c0.11,0.023,0.201,0.07,0.275,0.145
			c0.103,0.117,0.161,0.26,0.176,0.428c0.015,0.17,0.065,0.313,0.154,0.43c0.19,0.264,0.377,0.518,0.561,0.76
			c0.184,0.24,0.385,0.453,0.605,0.637c0.22,0.184,0.465,0.33,0.736,0.439c0.271,0.111,0.583,0.166,0.936,0.166
			c0.308,0,0.619-0.033,0.935-0.1s0.602-0.172,0.858-0.318c0.256-0.146,0.469-0.342,0.638-0.584c0.169-0.24,0.253-0.539,0.253-0.891
			c0-0.248-0.04-0.447-0.121-0.594s-0.245-0.271-0.495-0.373c-0.454-0.146-0.932-0.25-1.43-0.309
			c-0.499-0.059-0.99-0.117-1.474-0.176c-0.484-0.059-0.95-0.139-1.397-0.242s-0.836-0.271-1.166-0.506s-0.594-0.557-0.792-0.969
			c-0.198-0.41-0.297-0.953-0.297-1.627c0-0.777,0.187-1.395,0.561-1.848c0.374-0.455,0.913-0.83,1.617-1.123
			c0.161-0.072,0.334-0.135,0.518-0.188c0.183-0.051,0.37-0.076,0.561-0.076H79.2c0.528,0.074,1.066,0.188,1.617,0.34
			c0.55,0.154,1.045,0.387,1.484,0.693c0.103-0.072,0.188-0.16,0.253-0.264c0.066-0.102,0.133-0.197,0.198-0.285
			c0.066-0.088,0.144-0.162,0.231-0.221s0.205-0.088,0.352-0.088c0.205,0,0.393,0.076,0.562,0.23
			c0.168,0.154,0.245,0.334,0.23,0.539c0,0.088,0.004,0.246,0.011,0.473c0.008,0.229,0.015,0.471,0.022,0.727
			c0.007,0.258,0.019,0.498,0.033,0.727c0.015,0.227,0.021,0.385,0.021,0.473v0.264c0,0.264-0.077,0.531-0.23,0.803
			c-0.154,0.271-0.386,0.408-0.693,0.408c-0.264,0-0.473-0.117-0.627-0.354c-0.154-0.234-0.297-0.502-0.429-0.803
			c-0.132-0.299-0.286-0.59-0.462-0.869c-0.177-0.277-0.426-0.461-0.748-0.549c-0.206-0.059-0.363-0.1-0.474-0.121
			c-0.109-0.021-0.216-0.041-0.318-0.055c-0.104-0.016-0.213-0.023-0.33-0.023c-0.118,0-0.279,0-0.484,0
			c-0.059,0-0.19,0.004-0.396,0.012c-0.206,0.008-0.345,0.012-0.418,0.012c-0.133,0.043-0.265,0.109-0.396,0.197
			s-0.253,0.195-0.363,0.318c-0.109,0.125-0.197,0.262-0.264,0.408s-0.099,0.285-0.099,0.418c0,0.338,0.084,0.594,0.253,0.77
			c0.168,0.176,0.399,0.301,0.692,0.375c0.821-0.029,1.657,0.029,2.509,0.176c0.85,0.146,1.649,0.373,2.397,0.682
			c0.382,0.352,0.708,0.758,0.979,1.221c0.271,0.463,0.406,0.965,0.406,1.508c0,0.557-0.117,1.07-0.352,1.539
			s-0.547,0.877-0.935,1.221c-0.39,0.346-0.829,0.613-1.32,0.803c-0.492,0.191-1.001,0.287-1.529,0.287
			c-0.088,0-0.205-0.004-0.352-0.012c-0.147-0.008-0.228-0.012-0.242-0.012c-0.029,0-0.092-0.01-0.188-0.031
			c-0.095-0.023-0.197-0.049-0.308-0.078s-0.217-0.059-0.319-0.088s-0.176-0.051-0.22-0.066c-0.264-0.072-0.499-0.215-0.704-0.428
			s-0.433-0.385-0.682-0.518c-0.088,0.043-0.15,0.135-0.188,0.275c-0.036,0.139-0.08,0.285-0.132,0.439s-0.14,0.289-0.264,0.406
			c-0.125,0.117-0.319,0.178-0.583,0.178c-0.323,0-0.539-0.129-0.649-0.387c-0.109-0.256-0.165-0.516-0.165-0.779
			C75.592,42.38,75.596,42.259,75.604,42.163z"/>
		<path d="M91.41,37.542c-0.029-0.557,0.044-1.076,0.22-1.559v-2.438h-2.771c-0.206,0-0.371-0.104-0.495-0.307
			c-0.125-0.205-0.188-0.396-0.188-0.572c0-0.264,0.085-0.482,0.253-0.658c0.169-0.176,0.342-0.344,0.518-0.506
			c0.176-0.146,0.385-0.229,0.627-0.242c0.242-0.016,0.487-0.023,0.736-0.023c0.265,0,0.51-0.025,0.737-0.076
			c0.228-0.053,0.422-0.195,0.583-0.432c0.146-0.221,0.22-0.516,0.22-0.885s0.012-0.734,0.033-1.096
			c0.022-0.361,0.1-0.67,0.231-0.928s0.41-0.389,0.836-0.389c0.425,0,0.686,0.131,0.781,0.389c0.095,0.258,0.143,0.563,0.143,0.918
			c0,0.338-0.019,0.67-0.055,0.994c-0.037,0.326-0.056,0.664-0.056,1.018c0,0.09,0,0.223,0,0.398c0,0.178,0.008,0.273,0.022,0.287
			l0.154,0.154c0.014,0.016,0.117,0.023,0.308,0.023c0.205,0,0.366,0,0.484,0c0.308,0,0.604-0.02,0.891-0.057
			c0.286-0.035,0.575-0.055,0.869-0.055c0.337,0,0.616,0.133,0.836,0.396s0.33,0.551,0.33,0.857c0,0.295-0.092,0.547-0.275,0.76
			s-0.422,0.318-0.715,0.318c-0.366,0-0.708-0.047-1.022-0.143c-0.316-0.096-0.687-0.143-1.111-0.143
			c-0.088,0-0.217,0.004-0.385,0.01c-0.169,0.008-0.261,0.02-0.275,0.033l-0.264,0.242v6.098c0,0.117,0.04,0.25,0.121,0.396
			c0.08,0.146,0.183,0.285,0.308,0.416c0.124,0.131,0.26,0.244,0.407,0.34c0.146,0.096,0.286,0.143,0.418,0.143
			c0.352,0,0.63-0.084,0.836-0.254c0.205-0.168,0.363-0.377,0.473-0.627c0.11-0.248,0.198-0.516,0.265-0.803
			c0.065-0.285,0.135-0.553,0.209-0.803c0.073-0.248,0.176-0.457,0.308-0.627c0.132-0.168,0.322-0.252,0.572-0.252
			c0.366,0,0.623,0.131,0.77,0.395c0.146,0.266,0.22,0.551,0.22,0.859c0,0.498-0.073,1.004-0.22,1.518s-0.363,0.979-0.648,1.396
			c-0.286,0.418-0.643,0.764-1.067,1.035c-0.426,0.271-0.917,0.406-1.474,0.406c-0.221,0-0.39-0.008-0.507-0.021
			c-0.117-0.016-0.224-0.041-0.318-0.078c-0.096-0.035-0.191-0.086-0.286-0.152c-0.096-0.066-0.224-0.158-0.385-0.275
			c-0.015,0-0.059-0.018-0.132-0.055c-0.074-0.037-0.147-0.074-0.221-0.109c-0.073-0.037-0.146-0.07-0.22-0.1
			s-0.117-0.051-0.132-0.066c-0.602-0.467-0.994-0.98-1.177-1.537c-0.184-0.555-0.275-1.199-0.275-1.932
			C91.454,38.634,91.439,38.099,91.41,37.542z"/>
		<path d="M101.343,41.665c0.169-0.291,0.43-0.438,0.781-0.438h2.42l0.154-0.219c0-0.059,0.003-0.16,0.011-0.307
			c0.008-0.145,0.019-0.299,0.033-0.459s0.025-0.313,0.033-0.459c0.007-0.145,0.011-0.248,0.011-0.307
			c0.015-0.027,0.029-0.102,0.044-0.217c0.015-0.117,0.029-0.189,0.044-0.219V34.21H102.3c-0.146,0-0.274-0.041-0.385-0.123
			s-0.202-0.184-0.275-0.303c-0.073-0.121-0.128-0.252-0.164-0.395c-0.037-0.141-0.056-0.271-0.056-0.393
			c0-0.238,0.059-0.426,0.176-0.561s0.261-0.234,0.43-0.303c0.168-0.066,0.352-0.111,0.55-0.135
			c0.198-0.021,0.377-0.033,0.539-0.033c0.249,0,0.495,0.014,0.737,0.043c0.241,0.029,0.487,0.045,0.736,0.045
			c0.176,0,0.349-0.016,0.518-0.045c0.168-0.029,0.341-0.043,0.517-0.043c0.249,0,0.51,0.08,0.781,0.242
			c0.271,0.16,0.407,0.395,0.407,0.703v8.184l0.132,0.133h2.332c0.132,0,0.253,0.049,0.362,0.146
			c0.11,0.098,0.206,0.213,0.286,0.348c0.081,0.135,0.14,0.277,0.176,0.426c0.037,0.15,0.056,0.277,0.056,0.381
			c0,0.211-0.056,0.42-0.165,0.629c-0.11,0.209-0.29,0.314-0.539,0.314h-7.502c-0.264,0-0.473-0.09-0.627-0.27
			s-0.231-0.396-0.231-0.65C101.09,42.253,101.175,41.956,101.343,41.665z M104.435,28.226c0.278-0.293,0.638-0.439,1.077-0.439
			c0.234,0,0.451,0.055,0.649,0.164s0.366,0.258,0.506,0.439c0.14,0.184,0.249,0.387,0.33,0.605c0.08,0.221,0.121,0.439,0.121,0.66
			c0,0.439-0.161,0.789-0.484,1.045c-0.322,0.258-0.689,0.385-1.1,0.385c-0.499,0-0.877-0.176-1.133-0.527
			c-0.257-0.352-0.385-0.77-0.385-1.254C104.017,28.878,104.155,28.519,104.435,28.226z"/>
		<path d="M113.002,35.661c0.198-0.777,0.51-1.467,0.936-2.068c0.425-0.6,0.972-1.08,1.639-1.439s1.463-0.539,2.387-0.539
			c0.704,0,1.313,0.135,1.826,0.406s1.026,0.627,1.54,1.066c0.015,0.016,0.029,0.033,0.044,0.055
			c0.015,0.023,0.029,0.033,0.044,0.033c0.177,0.338,0.355,0.672,0.539,1.002s0.353,0.668,0.506,1.012
			c0.154,0.346,0.279,0.697,0.374,1.057c0.096,0.359,0.144,0.729,0.144,1.111c0,0.043-0.004,0.127-0.011,0.252
			c-0.008,0.125-0.012,0.201-0.012,0.23c-0.029,0.088-0.069,0.246-0.121,0.473c-0.051,0.229-0.109,0.471-0.176,0.727
			c-0.065,0.258-0.128,0.504-0.187,0.738s-0.096,0.395-0.11,0.482c-0.117,0.396-0.319,0.814-0.604,1.254
			c-0.286,0.441-0.62,0.84-1.001,1.199c-0.382,0.359-0.796,0.656-1.243,0.891c-0.448,0.236-0.892,0.354-1.331,0.354
			c-0.221,0-0.389-0.016-0.506-0.045c-0.118-0.029-0.217-0.066-0.298-0.109c-0.08-0.045-0.164-0.092-0.253-0.143
			c-0.088-0.053-0.212-0.1-0.374-0.145c-0.073-0.014-0.212-0.035-0.418-0.064c-0.205-0.029-0.352-0.059-0.439-0.088
			c-0.073-0.029-0.173-0.078-0.297-0.145c-0.125-0.064-0.25-0.131-0.374-0.197c-0.125-0.066-0.242-0.125-0.353-0.176
			c-0.109-0.051-0.172-0.084-0.187-0.1c-0.294-0.189-0.562-0.484-0.803-0.879c-0.242-0.396-0.451-0.822-0.628-1.277
			c-0.176-0.453-0.312-0.908-0.406-1.363c-0.096-0.455-0.144-0.844-0.144-1.166C112.705,37.237,112.805,36.438,113.002,35.661z
			 M114.63,38.565c0.022,0.205,0.056,0.41,0.1,0.615c0.044,0.207,0.099,0.4,0.165,0.584c0.065,0.184,0.143,0.318,0.23,0.406
			l1.034,1.035c0.161,0.043,0.29,0.072,0.385,0.088c0.096,0.014,0.194,0.029,0.298,0.043c0.102,0.016,0.19,0.023,0.264,0.023
			c0.015,0.014,0.117,0.021,0.308,0.021c0.205,0,0.359,0,0.462,0c0.294,0,0.547-0.004,0.76-0.012
			c0.212-0.008,0.45-0.063,0.715-0.164c0.63-0.514,1.048-1.068,1.254-1.662c0.205-0.594,0.308-1.279,0.308-2.057
			c0-0.455-0.048-0.877-0.143-1.266c-0.096-0.387-0.224-0.795-0.385-1.221c-0.074-0.189-0.195-0.348-0.363-0.473
			c-0.169-0.125-0.353-0.234-0.55-0.33c-0.198-0.096-0.404-0.18-0.616-0.252c-0.213-0.074-0.393-0.154-0.539-0.242h-1.386
			c-0.015,0-0.11,0.055-0.286,0.164s-0.309,0.195-0.396,0.254c-0.352,0.248-0.635,0.52-0.847,0.813
			c-0.213,0.295-0.382,0.605-0.506,0.936c-0.125,0.33-0.206,0.68-0.242,1.045c-0.037,0.367-0.055,0.756-0.055,1.166
			C114.598,38.198,114.608,38.36,114.63,38.565z"/>
		<path d="M126.852,41.437c0.293-0.125,0.66-0.201,1.1-0.23l0.088-0.088c0.029-0.205,0.056-0.443,0.077-0.715
			c0.022-0.271,0.056-0.518,0.1-0.738v-5.082c0-0.102-0.092-0.18-0.275-0.23s-0.382-0.121-0.594-0.209
			c-0.213-0.088-0.411-0.217-0.595-0.385s-0.274-0.43-0.274-0.781c0-0.381,0.136-0.641,0.407-0.781
			c0.271-0.139,0.567-0.209,0.891-0.209c0.044,0,0.11,0,0.198,0c0.103,0,0.153,0.008,0.153,0.021
			c0.426,0.059,0.767,0.133,1.023,0.221s0.458,0.209,0.605,0.363c0.146,0.154,0.249,0.355,0.308,0.605
			c0.059,0.248,0.103,0.564,0.132,0.945c0.015,0.016,0.029,0.021,0.044,0.021h0.044c0.088,0,0.173-0.043,0.253-0.131
			c0.081-0.088,0.165-0.191,0.253-0.309s0.177-0.234,0.265-0.352s0.176-0.205,0.264-0.264c0.41-0.295,0.847-0.584,1.309-0.869
			c0.463-0.287,0.957-0.43,1.485-0.43c0.322,0,0.649,0.076,0.979,0.23c0.329,0.154,0.623,0.355,0.88,0.605
			c0.256,0.25,0.465,0.535,0.627,0.857c0.161,0.324,0.242,0.654,0.242,0.99v5.434c-0.06,0.162-0.092,0.309-0.1,0.441
			c-0.008,0.131-0.011,0.277-0.011,0.439c0,0.043,0.007,0.146,0.021,0.309l0.089,0.088c0.396,0.072,0.751,0.205,1.066,0.395
			c0.315,0.191,0.474,0.521,0.474,0.99c0,0.383-0.114,0.635-0.342,0.76s-0.517,0.188-0.869,0.188h-0.329
			c-0.118,0-0.323-0.004-0.616-0.012c-0.294-0.008-0.605-0.014-0.936-0.021s-0.642-0.02-0.935-0.033
			c-0.294-0.014-0.499-0.021-0.616-0.021c-0.47-0.133-0.704-0.434-0.704-0.902c0-0.557,0.157-0.914,0.474-1.066
			c0.314-0.154,0.707-0.246,1.177-0.275l0.088-0.088l0.198-0.859v-3.344c0.014-0.043,0.04-0.131,0.077-0.264
			c0.036-0.133,0.055-0.221,0.055-0.264v-0.045V36.3c0-0.029-0.011-0.113-0.033-0.254c-0.021-0.139-0.04-0.223-0.055-0.252
			c0-0.045-0.004-0.125-0.012-0.242c-0.007-0.117-0.015-0.238-0.021-0.363c-0.008-0.125-0.015-0.246-0.022-0.363
			c-0.007-0.117-0.011-0.197-0.011-0.242c-0.132-0.219-0.301-0.348-0.506-0.385s-0.418-0.055-0.638-0.055
			c-0.367,0-0.708,0.088-1.023,0.264s-0.604,0.396-0.869,0.66c-0.264,0.264-0.502,0.555-0.715,0.869
			c-0.213,0.316-0.399,0.613-0.561,0.891c-0.015,0.016-0.044,0.055-0.088,0.121c-0.045,0.066-0.074,0.113-0.089,0.143
			c-0.044,0.074-0.146,0.242-0.308,0.506v2.51c-0.073,0.146-0.113,0.271-0.121,0.373c-0.008,0.104-0.011,0.234-0.011,0.396v0.33
			c0.088,0.131,0.23,0.209,0.429,0.23s0.403,0.063,0.616,0.121c0.212,0.059,0.396,0.162,0.55,0.309s0.231,0.41,0.231,0.791
			c0,0.309-0.114,0.539-0.341,0.693c-0.229,0.154-0.488,0.246-0.781,0.275h-0.902h-0.902c-0.029,0-0.103-0.016-0.22-0.045
			s-0.19-0.043-0.22-0.043c-0.25-0.029-0.499-0.049-0.748-0.055c-0.25-0.008-0.473-0.041-0.671-0.1s-0.355-0.162-0.473-0.309
			c-0.118-0.146-0.177-0.381-0.177-0.703C126.411,41.874,126.558,41.562,126.852,41.437z"/>
		<path d="M141.845,42.163c0.007-0.096,0.047-0.217,0.12-0.363v-2.596c0-0.205,0.081-0.371,0.242-0.496
			c0.161-0.123,0.338-0.186,0.528-0.186c0.088,0,0.187,0.01,0.297,0.031c0.11,0.023,0.201,0.07,0.275,0.145
			c0.103,0.117,0.161,0.26,0.176,0.428c0.015,0.17,0.065,0.313,0.154,0.43c0.19,0.264,0.377,0.518,0.561,0.76
			c0.184,0.24,0.385,0.453,0.605,0.637c0.22,0.184,0.465,0.33,0.736,0.439c0.271,0.111,0.583,0.166,0.936,0.166
			c0.308,0,0.619-0.033,0.935-0.1s0.602-0.172,0.858-0.318c0.256-0.146,0.469-0.342,0.638-0.584c0.169-0.24,0.253-0.539,0.253-0.891
			c0-0.248-0.04-0.447-0.121-0.594s-0.245-0.271-0.495-0.373c-0.454-0.146-0.932-0.25-1.43-0.309
			c-0.499-0.059-0.99-0.117-1.474-0.176c-0.484-0.059-0.95-0.139-1.397-0.242s-0.836-0.271-1.166-0.506s-0.594-0.557-0.792-0.969
			c-0.198-0.41-0.297-0.953-0.297-1.627c0-0.777,0.187-1.395,0.561-1.848c0.374-0.455,0.913-0.83,1.617-1.123
			c0.161-0.072,0.334-0.135,0.518-0.188c0.183-0.051,0.37-0.076,0.561-0.076h0.198c0.528,0.074,1.066,0.188,1.617,0.34
			c0.55,0.154,1.045,0.387,1.484,0.693c0.103-0.072,0.188-0.16,0.253-0.264c0.066-0.102,0.133-0.197,0.198-0.285
			c0.066-0.088,0.144-0.162,0.231-0.221s0.205-0.088,0.352-0.088c0.205,0,0.393,0.076,0.562,0.23
			c0.168,0.154,0.245,0.334,0.23,0.539c0,0.088,0.004,0.246,0.011,0.473c0.008,0.229,0.015,0.471,0.022,0.727
			c0.007,0.258,0.019,0.498,0.033,0.727c0.015,0.227,0.021,0.385,0.021,0.473v0.264c0,0.264-0.077,0.531-0.23,0.803
			c-0.154,0.271-0.386,0.408-0.693,0.408c-0.264,0-0.473-0.117-0.627-0.354c-0.154-0.234-0.297-0.502-0.429-0.803
			c-0.132-0.299-0.286-0.59-0.462-0.869c-0.177-0.277-0.426-0.461-0.748-0.549c-0.206-0.059-0.363-0.1-0.474-0.121
			c-0.109-0.021-0.216-0.041-0.318-0.055c-0.104-0.016-0.213-0.023-0.33-0.023c-0.118,0-0.279,0-0.484,0
			c-0.059,0-0.19,0.004-0.396,0.012c-0.206,0.008-0.345,0.012-0.418,0.012c-0.133,0.043-0.265,0.109-0.396,0.197
			s-0.253,0.195-0.363,0.318c-0.109,0.125-0.197,0.262-0.264,0.408s-0.099,0.285-0.099,0.418c0,0.338,0.084,0.594,0.253,0.77
			c0.168,0.176,0.399,0.301,0.692,0.375c0.821-0.029,1.657,0.029,2.509,0.176c0.85,0.146,1.649,0.373,2.397,0.682
			c0.382,0.352,0.708,0.758,0.979,1.221c0.271,0.463,0.406,0.965,0.406,1.508c0,0.557-0.117,1.07-0.352,1.539
			s-0.547,0.877-0.935,1.221c-0.39,0.346-0.829,0.613-1.32,0.803c-0.492,0.191-1.001,0.287-1.529,0.287
			c-0.088,0-0.205-0.004-0.352-0.012c-0.147-0.008-0.228-0.012-0.242-0.012c-0.029,0-0.092-0.01-0.188-0.031
			c-0.095-0.023-0.197-0.049-0.308-0.078s-0.217-0.059-0.319-0.088s-0.176-0.051-0.22-0.066c-0.264-0.072-0.499-0.215-0.704-0.428
			s-0.433-0.385-0.682-0.518c-0.088,0.043-0.15,0.135-0.188,0.275c-0.036,0.139-0.08,0.285-0.132,0.439s-0.14,0.289-0.264,0.406
			c-0.125,0.117-0.319,0.178-0.583,0.178c-0.323,0-0.539-0.129-0.649-0.387c-0.109-0.256-0.165-0.516-0.165-0.779
			C141.833,42.38,141.837,42.259,141.845,42.163z"/>
	</g>
</g>
<g id="PointOfNoReturn">
</g>
<g id="Pirate">
</g>
<g id="Thief">
</g>
<g id="DepthPerception">
</g>
<g id="Narcissist">
</g>
<g id="MammaBird">
</g>
<g id="Staringcontest">
</g>
<g id="Cartwheel">
</g>
<g id="Censored">
</g>
<g id="Depersonalization">
</g>
<g id="threeman">
</g>
<g id="_x32__truths_and_a_lie">
</g>
<g id="cray_cray_cat_lady">
</g>
<g id="siblings">
</g>
<g id="later">
</g>
<g id="waterfall">
</g>
<g id="cheers">
</g>
<g id="rhyme">
</g>
<g id="categories">
</g>
<g id="tits">
</g>
<g id="dicks">
</g>
<g id="questions">
</g>
<g id="double_hands">
</g>
<g id="rewind">
</g>
<g id="Cryptkeeper">
</g>
<g id="Take_2_and_Redo">
</g>
<g id="Embryo">
</g>
<g id="I_am_Groot">
</g>
<g id="Mini_Me">
</g>
<g id="Ditto_1_">
</g>
<g id="reverse">
</g>
</svg>
