<?xml version="1.0" encoding="utf-8"?>
<!-- Generator: Adobe Illustrator 16.0.0, SVG Export Plug-In . SVG Version: 6.00 Build 0)  -->
<!DOCTYPE svg PUBLIC "-//W3C//DTD SVG 1.1//EN" "http://www.w3.org/Graphics/SVG/1.1/DTD/svg11.dtd">
<svg version="1.1" xmlns="http://www.w3.org/2000/svg" xmlns:xlink="http://www.w3.org/1999/xlink" x="0px" y="0px"
	 width="209.759px" height="62.361px" viewBox="0 0 209.759 62.361" enable-background="new 0 0 209.759 62.361"
	 xml:space="preserve">
<g id="Layer_1">
</g>
<g id="Hat">
</g>
<g id="Compliments">
</g>
<g id="HAT">
</g>
<g id="speech">
</g>
<g id="TREX_ARMS">
</g>
<g id="slim_shady">
</g>
<g id="TIMEOUT">
</g>
<g id="Truth_or_Dare">
</g>
<g id="ARM_WRESTLE">
</g>
<g id="musical_chairs">
</g>
<g id="never_have_i_ever">
</g>
<g id="Trivia">
</g>
<g id="Drink_Pulling">
</g>
<g id="Sharing_is_Caring">
</g>
<g id="Not_It">
</g>
<g id="Cocktail_of_Doom">
</g>
<g id="Heads_up">
</g>
<g id="Archenemy">
</g>
<g id="battle_of_the_sexes">
</g>
<g id="one_must_drink">
</g>
<g id="rainbow_connection">
</g>
<g id="social_drinking">
</g>
<g id="Spin_the_bottle">
</g>
<g id="accents">
</g>
<g id="Slap">
</g>
<g id="give_3">
</g>
<g id="rub">
</g>
<g id="down_the_hatch">
</g>
<g id="rubiks_cube">
</g>
<g id="bar_tender">
</g>
<g id="codenames">
</g>
<g id="hand_switch">
</g>
<g id="make_a_rule">
</g>
<g id="no_guts_no_glory">
</g>
<g id="pass">
</g>
<g id="santa">
</g>
<g id="snake_eyes">
</g>
<g id="bodyguard">
</g>
<g id="threeman">
</g>
<g id="_x32__truths_and_a_lie">
</g>
<g id="cray_cray_cat_lady">
</g>
<g id="siblings">
</g>
<g id="take_2">
</g>
<g id="take_3">
	<g>
		<path d="M41.563,42.573c-0.702,0.311-1.56,0.623-2.574,0.936c-1.014,0.313-2.08,0.467-3.198,0.467c-0.728,0-1.41-0.09-2.047-0.271
			c-0.638-0.182-1.196-0.475-1.677-0.879c-0.481-0.402-0.865-0.922-1.151-1.559s-0.429-1.41-0.429-2.32v-11.74h-2.69V23.19h2.69
			V16.56h5.227v6.631h4.29v4.016h-4.29v9.984c0,0.729,0.188,1.242,0.565,1.541c0.376,0.299,0.838,0.447,1.384,0.447
			c0.547,0,1.079-0.09,1.6-0.271c0.52-0.182,0.936-0.338,1.248-0.469L41.563,42.573z"/>
		<path d="M53.574,44.015c-0.988,0-1.911-0.162-2.77-0.486c-0.857-0.324-1.599-0.781-2.223-1.365
			c-0.624-0.586-1.111-1.268-1.462-2.047c-0.352-0.781-0.527-1.639-0.527-2.574c0-0.963,0.215-1.854,0.644-2.672
			c0.43-0.818,1.027-1.514,1.794-2.086s1.684-1.021,2.75-1.346c1.065-0.326,2.235-0.488,3.51-0.488c0.91,0,1.8,0.078,2.672,0.234
			c0.87,0.156,1.644,0.377,2.32,0.662v-1.17c0-1.352-0.384-2.391-1.15-3.119c-0.768-0.729-1.905-1.092-3.413-1.092
			c-1.092,0-2.158,0.195-3.197,0.584c-1.04,0.391-2.106,0.963-3.198,1.717l-1.599-3.314c2.625-1.742,5.46-2.613,8.502-2.613
			c2.938,0,5.219,0.721,6.844,2.164s2.438,3.529,2.438,6.26v6.357c0,0.545,0.098,0.936,0.293,1.17s0.513,0.363,0.955,0.389v4.447
			c-0.884,0.182-1.651,0.273-2.301,0.273c-0.988,0-1.749-0.223-2.281-0.664c-0.533-0.441-0.865-1.027-0.995-1.754l-0.116-1.133
			c-0.911,1.197-2.016,2.107-3.315,2.73C56.446,43.704,55.057,44.015,53.574,44.015z M55.057,40.194
			c0.883,0,1.722-0.156,2.515-0.469s1.41-0.729,1.853-1.248c0.572-0.441,0.858-0.936,0.858-1.482v-2.34
			c-0.624-0.234-1.301-0.422-2.028-0.564s-1.43-0.215-2.105-0.215c-1.353,0-2.457,0.305-3.315,0.916
			c-0.857,0.611-1.287,1.385-1.287,2.32c0,0.885,0.338,1.619,1.015,2.203C53.236,39.901,54.067,40.194,55.057,40.194z"/>
		<path d="M88.05,43.626l-5.928-8.854l-2.808,2.77v6.084h-5.227V15.155h5.227v17.277l8.189-9.205h5.577l-7.605,8.658l8.151,11.74
			H88.05z"/>
		<path d="M107.979,44.015c-1.639,0-3.12-0.279-4.446-0.838s-2.457-1.318-3.394-2.281c-0.936-0.961-1.657-2.08-2.164-3.354
			s-0.761-2.613-0.761-4.018c0-1.455,0.247-2.828,0.741-4.115c0.493-1.287,1.209-2.418,2.145-3.393
			c0.937-0.975,2.073-1.748,3.413-2.32c1.339-0.572,2.84-0.857,4.504-0.857s3.152,0.285,4.466,0.857
			c1.313,0.572,2.431,1.34,3.354,2.301c0.922,0.963,1.624,2.08,2.105,3.354c0.481,1.275,0.722,2.602,0.722,3.979
			c0,0.338-0.007,0.664-0.02,0.975c-0.014,0.313-0.046,0.572-0.098,0.781h-15.795c0.078,0.807,0.273,1.521,0.585,2.145
			c0.313,0.623,0.715,1.156,1.209,1.6c0.494,0.441,1.053,0.779,1.677,1.014s1.274,0.352,1.95,0.352c1.04,0,2.021-0.254,2.944-0.762
			c0.923-0.506,1.554-1.176,1.892-2.008l4.485,1.248c-0.755,1.561-1.957,2.84-3.607,3.842
			C112.236,43.515,110.267,44.015,107.979,44.015z M113.283,31.692c-0.131-1.535-0.696-2.764-1.696-3.686
			c-1.002-0.924-2.217-1.385-3.646-1.385c-0.702,0-1.359,0.123-1.97,0.369c-0.611,0.248-1.15,0.592-1.619,1.035
			c-0.468,0.441-0.852,0.975-1.15,1.598c-0.299,0.625-0.475,1.314-0.526,2.068H113.283z"/>
		<path d="M151.113,34.421c1.611,0.287,2.918,1.061,3.919,2.32c1.001,1.262,1.502,2.803,1.502,4.623
			c0,1.221-0.241,2.326-0.722,3.314c-0.481,0.988-1.157,1.826-2.028,2.516c-0.871,0.688-1.931,1.221-3.179,1.6
			c-1.248,0.375-2.651,0.564-4.212,0.564c-1.976,0-3.725-0.318-5.245-0.955c-1.521-0.639-2.788-1.566-3.803-2.789l2.964-3.705
			c0.676,0.857,1.482,1.521,2.418,1.99c0.937,0.467,2.106,0.701,3.511,0.701c1.585,0,2.794-0.313,3.627-0.936
			c0.831-0.625,1.248-1.586,1.248-2.887c0-1.352-0.481-2.393-1.443-3.119c-0.962-0.729-2.418-1.092-4.368-1.092h-1.092v-3.9h1.209
			c1.611,0,2.859-0.357,3.744-1.072c0.884-0.715,1.326-1.633,1.326-2.75c0-1.066-0.365-1.859-1.093-2.379s-1.677-0.781-2.847-0.781
			c-1.196,0-2.269,0.273-3.218,0.82c-0.949,0.545-1.723,1.313-2.32,2.301l-3.275-3.666c0.39-0.598,0.909-1.137,1.56-1.619
			c0.649-0.48,1.385-0.896,2.203-1.248c0.819-0.35,1.71-0.623,2.672-0.818s1.95-0.293,2.964-0.293c1.326,0,2.535,0.17,3.627,0.508
			s2.034,0.807,2.828,1.404c0.792,0.598,1.403,1.318,1.833,2.164c0.429,0.846,0.643,1.787,0.643,2.828
			c0,0.779-0.116,1.52-0.351,2.223c-0.234,0.701-0.572,1.338-1.014,1.91c-0.442,0.572-0.969,1.053-1.58,1.443
			S151.841,34.292,151.113,34.421z"/>
	</g>
</g>
<g id="later">
</g>
<g id="waterfall">
</g>
<g id="cheers">
</g>
<g id="rhyme">
</g>
<g id="categories">
</g>
<g id="tits">
</g>
<g id="dicks">
</g>
<g id="questions">
</g>
<g id="double_hands">
</g>
<g id="give_2">
</g>
<g id="rewind">
</g>
<g id="Cryptkeeper">
</g>
<g id="Take_2_and_Redo">
</g>
<g id="Embryo">
</g>
<g id="I_am_Groot">
</g>
<g id="Mini_Me">
</g>
<g id="Ditto_1_">
</g>
</svg>
