<?xml version="1.0" encoding="utf-8"?>
<!-- Generator: Adobe Illustrator 16.0.0, SVG Export Plug-In . SVG Version: 6.00 Build 0)  -->
<!DOCTYPE svg PUBLIC "-//W3C//DTD SVG 1.1//EN" "http://www.w3.org/Graphics/SVG/1.1/DTD/svg11.dtd">
<svg version="1.1" xmlns="http://www.w3.org/2000/svg" xmlns:xlink="http://www.w3.org/1999/xlink" x="0px" y="0px"
	 width="209.759px" height="62.361px" viewBox="0 0 209.759 62.361" enable-background="new 0 0 209.759 62.361"
	 xml:space="preserve">
<g id="Layer_1">
</g>
<g id="Blindman">
</g>
<g id="Compliments">
</g>
<g id="HAT">
</g>
<g id="speech">
</g>
<g id="TREX_ARMS">
</g>
<g id="slim_shady">
</g>
<g id="TIMEOUT">
</g>
<g id="Truth_or_Dare">
</g>
<g id="ARM_WRESTLE">
</g>
<g id="musical_chairs">
</g>
<g id="never_have_i_ever">
</g>
<g id="Trivia">
</g>
<g id="Drink_Pulling">
</g>
<g id="Sharing_is_Caring">
</g>
<g id="Not_It">
</g>
<g id="Cocktail_of_Doom">
</g>
<g id="Heads_up">
</g>
<g id="Archenemy">
</g>
<g id="battle_of_the_sexes">
</g>
<g id="one_must_drink">
</g>
<g id="rainbow_connection">
</g>
<g id="social_drinking">
</g>
<g id="Spin_the_bottle">
</g>
<g id="accents">
</g>
<g id="Slap">
</g>
<g id="down_the_hatch">
</g>
<g id="rubiks_cube">
</g>
<g id="bar_tender">
</g>
<g id="codenames">
</g>
<g id="hand_switch">
</g>
<g id="make_a_rule">
</g>
<g id="no_guts_no_glory">
</g>
<g id="pass">
</g>
<g id="santa">
</g>
<g id="snake_eyes">
</g>
<g id="lightning_round">
</g>
<g id="Bro">
</g>
<g id="LeastDrunk">
</g>
<g id="Know_It_All">
</g>
<g id="EyeContact">
</g>
<g id="UnderGuesser">
</g>
<g id="GodSaveTheQUeen">
</g>
<g id="Ghost">
</g>
<g id="Fortune_Teller">
</g>
<g id="DrinkSwap">
</g>
<g id="DickTator">
</g>
<g id="_x34_Eyes">
</g>
<g id="BabyTalk">
</g>
<g id="Backseat_Driver">
</g>
<g id="BAtman">
</g>
<g id="bodyguard">
</g>
<g id="BuckleUp">
</g>
<g id="RockPaperScissors">
</g>
<g id="Roger_Roger">
</g>
<g id="RoyaleWe">
</g>
<g id="Skip">
</g>
<g id="SwineRules">
</g>
<g id="Touchy_Feeley">
</g>
<g id="Wasted_Education">
</g>
<g id="Layer_86">
</g>
<g id="PointOfNoReturn">
</g>
<g id="Pirate">
</g>
<g id="Thief">
</g>
<g id="DepthPerception">
</g>
<g id="Narcissist">
</g>
<g id="MammaBird">
	<g>
		<path d="M28.227,42.371c0-0.337,0.08-0.564,0.242-0.682c0.161-0.117,0.341-0.198,0.538-0.242c0.198-0.044,0.378-0.088,0.539-0.132
			c0.162-0.044,0.242-0.162,0.242-0.353l-0.044-2.156v-0.439c0-0.088-0.004-0.242-0.011-0.462c-0.008-0.221-0.011-0.455-0.011-0.704
			v-0.683v-0.462c0-0.029,0.003-0.109,0.011-0.241c0.007-0.133,0.015-0.268,0.021-0.407c0.008-0.14,0.015-0.275,0.022-0.407
			c0.007-0.132,0.011-0.213,0.011-0.242c0-0.015,0.004-0.113,0.012-0.297c0.007-0.184,0.011-0.393,0.011-0.627v-0.726v-0.595v-0.439
			v-0.66c0-0.249-0.004-0.48-0.011-0.693c-0.008-0.212-0.012-0.362-0.012-0.45c-0.059-0.146-0.172-0.235-0.341-0.265
			s-0.345-0.065-0.528-0.109c-0.184-0.045-0.345-0.129-0.483-0.254c-0.14-0.124-0.209-0.355-0.209-0.692
			c0-0.249,0.077-0.491,0.23-0.727c0.154-0.234,0.37-0.352,0.649-0.352h2.508c0.176,0,0.366,0.059,0.572,0.176
			c0.205,0.118,0.359,0.257,0.462,0.418c0.249,0.426,0.403,0.91,0.462,1.452c0.059,0.543,0.132,1.063,0.22,1.563
			c0.146,0.792,0.265,1.565,0.353,2.32c0.088,0.756,0.197,1.529,0.33,2.321c0.029,0.176,0.069,0.407,0.121,0.693
			c0.051,0.285,0.105,0.568,0.164,0.847s0.11,0.521,0.154,0.726c0.044,0.206,0.073,0.315,0.088,0.33l0.177,0.418
			c0.058-0.014,0.135-0.26,0.23-0.736s0.198-1.074,0.308-1.793c0.11-0.719,0.228-1.504,0.353-2.354
			c0.124-0.851,0.238-1.664,0.341-2.442c0.117-0.792,0.224-1.474,0.319-2.046c0.095-0.571,0.179-0.945,0.253-1.122
			c0.073-0.176,0.18-0.355,0.318-0.539c0.14-0.183,0.319-0.26,0.539-0.23c0.073,0,0.224-0.004,0.451-0.011
			c0.228-0.008,0.378-0.012,0.451-0.012c0.117,0,0.289,0.004,0.517,0.012c0.228,0.007,0.355,0.011,0.386,0.011
			c0.22,0.015,0.433,0.04,0.638,0.077c0.205,0.036,0.393,0.096,0.561,0.176c0.169,0.081,0.301,0.194,0.396,0.341
			c0.095,0.147,0.143,0.338,0.143,0.572c0,0.029-0.003,0.092-0.011,0.187c-0.008,0.096-0.011,0.158-0.011,0.188
			c-0.176,0.249-0.367,0.399-0.572,0.451S39.887,30,39.622,30.117c-0.029,0-0.059,0.021-0.088,0.065v8.536
			c0.015,0.03,0.029,0.1,0.044,0.209c0.015,0.11,0.029,0.18,0.044,0.209c0,0.074,0.004,0.195,0.012,0.363
			c0.007,0.169,0.018,0.352,0.032,0.55s0.025,0.382,0.033,0.55c0.007,0.169,0.011,0.29,0.011,0.363
			c0.015,0.073,0.1,0.114,0.253,0.121c0.154,0.008,0.323,0.041,0.507,0.099c0.183,0.06,0.348,0.169,0.494,0.33
			c0.146,0.162,0.221,0.44,0.221,0.836c0,0.25-0.048,0.448-0.144,0.595s-0.216,0.26-0.362,0.341
			c-0.147,0.081-0.319,0.132-0.518,0.154c-0.198,0.021-0.393,0.032-0.583,0.032c-0.249,0-0.483-0.018-0.704-0.055
			c-0.22-0.036-0.447-0.055-0.682-0.055c-0.176,0-0.349,0.015-0.517,0.044c-0.169,0.029-0.342,0.044-0.518,0.044
			s-0.334-0.025-0.473-0.077c-0.14-0.052-0.261-0.11-0.363-0.176c-0.103-0.066-0.187-0.129-0.253-0.188s-0.121-0.088-0.165-0.088
			c-0.044,0.015-0.073,0.022-0.088,0.022c-0.162,0.22-0.315,0.389-0.462,0.506s-0.345,0.176-0.594,0.176
			c-0.177,0-0.323-0.04-0.44-0.121c-0.117-0.08-0.217-0.172-0.297-0.275c-0.081-0.102-0.15-0.193-0.209-0.274
			c-0.059-0.08-0.132-0.121-0.22-0.121c-0.016,0-0.044,0.008-0.089,0.022c-0.044,0.044-0.099,0.099-0.164,0.164
			c-0.066,0.066-0.14,0.137-0.221,0.209c-0.08,0.074-0.165,0.137-0.253,0.188c-0.088,0.052-0.161,0.077-0.22,0.077h-2.508
			c-0.147,0.073-0.269,0.113-0.363,0.121c-0.096,0.007-0.217,0.011-0.363,0.011c-0.396,0-0.692-0.11-0.891-0.33
			S28.227,42.767,28.227,42.371z M31.614,32.009v8.954c0,0.088,0.063,0.18,0.188,0.275c0.124,0.096,0.201,0.143,0.23,0.143
			l1.122,0.264c0.059,0.016,0.088-0.021,0.088-0.109v-0.132c0-0.455-0.052-0.905-0.154-1.354c-0.103-0.447-0.197-0.891-0.285-1.331
			c-0.118-0.616-0.217-1.231-0.298-1.848c-0.08-0.616-0.18-1.232-0.297-1.848c-0.073-0.426-0.172-0.902-0.297-1.431
			c-0.125-0.527-0.194-1.026-0.209-1.496L31.614,32.009z M37.73,31.481c-0.029,0-0.088,0.228-0.176,0.682
			c-0.088,0.455-0.195,1.026-0.319,1.716c-0.125,0.689-0.257,1.452-0.396,2.288c-0.139,0.836-0.268,1.636-0.385,2.398
			s-0.213,1.438-0.286,2.023c-0.073,0.587-0.109,0.976-0.109,1.166c0.073,0,0.201-0.019,0.385-0.055
			c0.184-0.037,0.37-0.088,0.561-0.154c0.19-0.065,0.359-0.143,0.507-0.23c0.146-0.089,0.22-0.177,0.22-0.265v-2.771
			c-0.073-0.221-0.11-0.447-0.11-0.683v-0.638v-0.66c0-0.234,0.037-0.462,0.11-0.682V31.481z"/>
		<path d="M44.265,37.982c0.352-0.491,0.792-0.851,1.32-1.078c0.527-0.228,1.104-0.367,1.727-0.418
			c0.623-0.052,1.199-0.1,1.728-0.144c0.527-0.044,0.968-0.124,1.319-0.242c0.353-0.117,0.528-0.352,0.528-0.703
			c0-0.25-0.044-0.484-0.132-0.704c-0.088-0.221-0.25-0.396-0.484-0.528c-0.088-0.044-0.22-0.11-0.396-0.198
			c-0.177-0.088-0.271-0.132-0.286-0.132h-2.068c-0.117,0-0.198,0.063-0.242,0.188c-0.044,0.124-0.084,0.278-0.121,0.462
			c-0.036,0.184-0.076,0.385-0.121,0.604c-0.044,0.22-0.113,0.422-0.209,0.605c-0.095,0.184-0.234,0.337-0.418,0.462
			s-0.429,0.187-0.736,0.187c-0.47,0-0.854-0.153-1.155-0.462c-0.301-0.308-0.451-0.689-0.451-1.144
			c0-0.265,0.044-0.499,0.132-0.704s0.206-0.396,0.353-0.572s0.315-0.341,0.506-0.495s0.381-0.297,0.572-0.429
			c0.161-0.117,0.33-0.245,0.506-0.385s0.381-0.209,0.616-0.209l3.365,0.044c0.19,0,0.415,0.08,0.672,0.24
			c0.256,0.161,0.506,0.351,0.747,0.57c0.242,0.219,0.455,0.452,0.639,0.7c0.183,0.248,0.297,0.46,0.341,0.635
			c0.015,0.044,0.036,0.124,0.066,0.241c0.028,0.117,0.058,0.237,0.088,0.361c0.029,0.124,0.055,0.241,0.076,0.351
			c0.022,0.109,0.033,0.186,0.033,0.229v0.679c0,0.176,0.004,0.376,0.012,0.603c0.007,0.227-0.026,0.427-0.1,0.603v3.7
			c0,0.409,0.176,0.613,0.528,0.613c0.234,0,0.381-0.103,0.439-0.308s0.11-0.437,0.154-0.693c0.044-0.256,0.113-0.487,0.209-0.692
			s0.297-0.309,0.605-0.309c0.161,0,0.3,0.044,0.418,0.132c0.117,0.089,0.212,0.198,0.286,0.33c0.073,0.133,0.124,0.275,0.153,0.43
			c0.029,0.153,0.044,0.305,0.044,0.45c0,0.323-0.052,0.646-0.153,0.969c-0.104,0.322-0.246,0.612-0.43,0.869
			s-0.41,0.466-0.682,0.627s-0.583,0.241-0.936,0.241c-0.278,0-0.521-0.032-0.726-0.099s-0.433-0.18-0.682-0.341
			c-0.088-0.044-0.165-0.113-0.231-0.209c-0.065-0.096-0.132-0.19-0.198-0.286c-0.065-0.096-0.14-0.18-0.22-0.253
			c-0.081-0.073-0.173-0.11-0.274-0.11h-0.11c-0.206,0.104-0.415,0.228-0.627,0.374c-0.213,0.147-0.429,0.29-0.649,0.43
			c-0.22,0.139-0.447,0.256-0.682,0.352c-0.235,0.096-0.477,0.143-0.727,0.143h-1.979c-0.161,0-0.301-0.04-0.418-0.12
			c-0.117-0.081-0.235-0.158-0.353-0.231c-0.602-0.352-1.037-0.788-1.309-1.309s-0.407-1.126-0.407-1.815
			C43.736,39.174,43.913,38.474,44.265,37.982z M45.519,40.479c0.044,0.162,0.106,0.319,0.188,0.474
			c0.08,0.154,0.179,0.282,0.297,0.385c0.117,0.103,0.249,0.154,0.396,0.154h2.244c0.015,0,0.063-0.022,0.143-0.066
			c0.081-0.044,0.15-0.08,0.209-0.109c0.029-0.029,0.1-0.073,0.209-0.133c0.11-0.058,0.18-0.095,0.21-0.109
			c0.542-0.366,0.909-0.748,1.1-1.145c0.19-0.396,0.286-0.909,0.286-1.54v-0.264c-0.015,0-0.044-0.011-0.088-0.033
			c-0.044-0.021-0.074-0.033-0.088-0.033c-0.016-0.014-0.03-0.021-0.045-0.021l-0.044,0.021c-0.044,0-0.165,0.019-0.362,0.056
			c-0.198,0.036-0.407,0.073-0.627,0.109c-0.221,0.037-0.43,0.074-0.627,0.11c-0.198,0.037-0.319,0.055-0.363,0.055
			c-0.353,0.06-0.708,0.104-1.067,0.133s-0.723,0.073-1.089,0.132c-0.19,0.015-0.359,0.132-0.506,0.352
			c-0.073,0.103-0.165,0.264-0.275,0.484c-0.109,0.22-0.165,0.41-0.165,0.571C45.452,40.179,45.475,40.317,45.519,40.479z"/>
		<path d="M67.484,43.438c-0.08,0.065-0.157,0.136-0.23,0.209c-0.074,0.073-0.15,0.143-0.231,0.209
			c-0.08,0.065-0.18,0.099-0.297,0.099H65.45c-0.118,0-0.265-0.041-0.44-0.121c-0.176-0.081-0.359-0.169-0.55-0.264
			c-0.191-0.096-0.367-0.184-0.528-0.265c-0.161-0.08-0.278-0.121-0.352-0.121h-0.044c-0.074,0.06-0.158,0.133-0.253,0.221
			c-0.096,0.088-0.198,0.172-0.309,0.253c-0.11,0.08-0.228,0.15-0.352,0.209c-0.125,0.059-0.246,0.088-0.363,0.088h-1.804
			c-0.162,0-0.33-0.033-0.506-0.099c-0.177-0.066-0.334-0.154-0.474-0.265c-0.14-0.109-0.257-0.242-0.352-0.396
			c-0.096-0.154-0.144-0.312-0.144-0.474c0-0.264,0.066-0.454,0.198-0.571s0.275-0.206,0.429-0.265
			c0.154-0.059,0.301-0.105,0.44-0.143c0.139-0.036,0.216-0.106,0.23-0.209l0.177-1.188v-5.786c0-0.073-0.066-0.124-0.198-0.153
			s-0.282-0.073-0.451-0.132s-0.319-0.154-0.451-0.286s-0.197-0.338-0.197-0.616c0-0.44,0.139-0.726,0.418-0.858
			c0.278-0.132,0.608-0.197,0.989-0.197c0.161,0,0.338,0.003,0.528,0.011s0.345,0.069,0.462,0.187
			c0.029,0.03,0.073,0.081,0.132,0.154s0.125,0.15,0.198,0.231c0.073,0.08,0.143,0.161,0.209,0.241
			c0.066,0.081,0.121,0.129,0.165,0.144h0.044h0.045c0.104-0.103,0.229-0.228,0.378-0.374c0.147-0.146,0.311-0.278,0.489-0.396
			c0.177-0.117,0.362-0.22,0.555-0.308s0.371-0.132,0.534-0.132c0.311,0,0.57,0.055,0.777,0.165c0.208,0.109,0.39,0.242,0.545,0.396
			c0.155,0.154,0.307,0.319,0.455,0.495s0.318,0.338,0.512,0.484c0.218-0.176,0.403-0.353,0.556-0.528s0.309-0.33,0.469-0.462
			c0.159-0.132,0.345-0.242,0.555-0.33c0.211-0.088,0.498-0.132,0.861-0.132c0.261,0,0.497,0.052,0.708,0.154
			c0.21,0.103,0.396,0.238,0.556,0.406c0.159,0.169,0.298,0.36,0.414,0.572c0.116,0.213,0.225,0.437,0.326,0.671
			c0.015,0.029,0.033,0.088,0.055,0.176c0.021,0.089,0.033,0.147,0.033,0.177v4.905c-0.074,0.206-0.106,0.451-0.1,0.737
			c0.008,0.286,0.012,0.51,0.012,0.671v0.99c0.058,0.146,0.135,0.261,0.23,0.341c0.096,0.081,0.19,0.162,0.286,0.242
			c0.096,0.081,0.176,0.169,0.242,0.264c0.065,0.096,0.099,0.231,0.099,0.407c0,0.25-0.088,0.506-0.264,0.771
			c-0.176,0.264-0.403,0.396-0.682,0.396c-0.426,0-0.829-0.055-1.211-0.165c-0.381-0.11-0.784-0.202-1.21-0.275
			c-0.132-0.014-0.26-0.062-0.385-0.143c-0.125-0.08-0.253-0.121-0.385-0.121C67.657,43.339,67.565,43.372,67.484,43.438z
			 M63.437,34.836c-0.228,0.257-0.429,0.539-0.604,0.847c-0.177,0.309-0.315,0.627-0.418,0.957c-0.104,0.33-0.154,0.643-0.154,0.936
			v4.136c0,0.015,0.021,0.044,0.066,0.088c0.044,0.044,0.08,0.074,0.109,0.088c0.029,0.015,0.113,0.044,0.253,0.088
			s0.224,0.074,0.253,0.089c0.044,0.029,0.136,0.109,0.275,0.241c0.139,0.132,0.224,0.221,0.253,0.265h0.066
			c0.044-0.059,0.143-0.144,0.297-0.253c0.153-0.11,0.312-0.231,0.473-0.363s0.305-0.257,0.429-0.374
			c0.125-0.117,0.188-0.213,0.188-0.286v-6.798c0-0.146-0.066-0.231-0.198-0.253c-0.132-0.022-0.234-0.033-0.308-0.033
			c-0.03,0-0.074,0.004-0.132,0.011c-0.06,0.008-0.104,0.012-0.133,0.012C63.902,34.378,63.664,34.579,63.437,34.836z
			 M66.615,41.018c0.015,0.198,0.058,0.374,0.13,0.528s0.184,0.286,0.335,0.396c0.151,0.109,0.357,0.209,0.617,0.297h0.087h0.086
			l0.347-0.176c0.058-0.015,0.144-0.033,0.26-0.056c0.115-0.021,0.23-0.051,0.346-0.088c0.116-0.036,0.213-0.088,0.293-0.154
			c0.078-0.065,0.118-0.165,0.118-0.297v-6.974c0-0.146-0.068-0.231-0.205-0.253c-0.138-0.022-0.242-0.033-0.314-0.033
			c-0.158,0-0.295,0.044-0.411,0.132c-0.115,0.088-0.23,0.191-0.346,0.309c-0.029,0.044-0.072,0.128-0.13,0.253
			c-0.058,0.124-0.123,0.257-0.195,0.396c-0.072,0.14-0.141,0.271-0.205,0.396c-0.065,0.124-0.112,0.209-0.141,0.253
			c-0.015,0.015-0.047,0.059-0.098,0.132c-0.05,0.073-0.075,0.117-0.075,0.132c-0.231,0.66-0.375,1.335-0.433,2.024
			s-0.087,1.379-0.087,2.067C66.594,40.582,66.601,40.82,66.615,41.018z"/>
		<path d="M82.973,43.438c-0.08,0.065-0.157,0.136-0.23,0.209c-0.074,0.073-0.15,0.143-0.231,0.209
			c-0.08,0.065-0.18,0.099-0.297,0.099h-1.275c-0.118,0-0.265-0.041-0.44-0.121c-0.176-0.081-0.359-0.169-0.55-0.264
			c-0.191-0.096-0.367-0.184-0.528-0.265c-0.161-0.08-0.278-0.121-0.352-0.121h-0.044c-0.074,0.06-0.158,0.133-0.253,0.221
			c-0.096,0.088-0.198,0.172-0.309,0.253c-0.11,0.08-0.228,0.15-0.352,0.209c-0.125,0.059-0.246,0.088-0.363,0.088h-1.804
			c-0.162,0-0.33-0.033-0.506-0.099c-0.177-0.066-0.334-0.154-0.474-0.265c-0.14-0.109-0.257-0.242-0.352-0.396
			c-0.096-0.154-0.144-0.312-0.144-0.474c0-0.264,0.066-0.454,0.198-0.571s0.275-0.206,0.429-0.265
			c0.154-0.059,0.301-0.105,0.44-0.143c0.139-0.036,0.216-0.106,0.23-0.209l0.177-1.188v-5.786c0-0.073-0.066-0.124-0.198-0.153
			s-0.282-0.073-0.451-0.132s-0.319-0.154-0.451-0.286s-0.197-0.338-0.197-0.616c0-0.44,0.139-0.726,0.418-0.858
			c0.278-0.132,0.608-0.197,0.989-0.197c0.161,0,0.338,0.003,0.528,0.011s0.345,0.069,0.462,0.187
			c0.029,0.03,0.073,0.081,0.132,0.154s0.125,0.15,0.198,0.231c0.073,0.08,0.143,0.161,0.209,0.241
			c0.066,0.081,0.121,0.129,0.165,0.144h0.044h0.045c0.104-0.103,0.229-0.228,0.378-0.374c0.147-0.146,0.311-0.278,0.489-0.396
			c0.177-0.117,0.362-0.22,0.555-0.308s0.371-0.132,0.534-0.132c0.311,0,0.57,0.055,0.777,0.165c0.208,0.109,0.39,0.242,0.545,0.396
			c0.155,0.154,0.307,0.319,0.455,0.495s0.318,0.338,0.512,0.484c0.218-0.176,0.403-0.353,0.556-0.528s0.309-0.33,0.469-0.462
			c0.159-0.132,0.345-0.242,0.555-0.33c0.211-0.088,0.498-0.132,0.861-0.132c0.261,0,0.497,0.052,0.708,0.154
			c0.21,0.103,0.396,0.238,0.556,0.406c0.159,0.169,0.298,0.36,0.414,0.572c0.116,0.213,0.225,0.437,0.326,0.671
			c0.015,0.029,0.033,0.088,0.055,0.176c0.021,0.089,0.033,0.147,0.033,0.177v4.905c-0.074,0.206-0.106,0.451-0.1,0.737
			c0.008,0.286,0.012,0.51,0.012,0.671v0.99c0.058,0.146,0.135,0.261,0.23,0.341c0.096,0.081,0.19,0.162,0.286,0.242
			c0.096,0.081,0.176,0.169,0.242,0.264c0.065,0.096,0.099,0.231,0.099,0.407c0,0.25-0.088,0.506-0.264,0.771
			c-0.176,0.264-0.403,0.396-0.682,0.396c-0.426,0-0.829-0.055-1.211-0.165c-0.381-0.11-0.784-0.202-1.21-0.275
			c-0.132-0.014-0.26-0.062-0.385-0.143c-0.125-0.08-0.253-0.121-0.385-0.121C83.146,43.339,83.054,43.372,82.973,43.438z
			 M78.925,34.836c-0.228,0.257-0.429,0.539-0.604,0.847c-0.177,0.309-0.315,0.627-0.418,0.957c-0.104,0.33-0.154,0.643-0.154,0.936
			v4.136c0,0.015,0.021,0.044,0.066,0.088c0.044,0.044,0.08,0.074,0.109,0.088c0.029,0.015,0.113,0.044,0.253,0.088
			s0.224,0.074,0.253,0.089c0.044,0.029,0.136,0.109,0.275,0.241c0.139,0.132,0.224,0.221,0.253,0.265h0.066
			c0.044-0.059,0.143-0.144,0.297-0.253c0.153-0.11,0.312-0.231,0.473-0.363s0.305-0.257,0.429-0.374
			c0.125-0.117,0.188-0.213,0.188-0.286v-6.798c0-0.146-0.066-0.231-0.198-0.253c-0.132-0.022-0.234-0.033-0.308-0.033
			c-0.03,0-0.074,0.004-0.132,0.011c-0.06,0.008-0.104,0.012-0.133,0.012C79.391,34.378,79.152,34.579,78.925,34.836z
			 M82.104,41.018c0.015,0.198,0.058,0.374,0.13,0.528s0.184,0.286,0.335,0.396c0.151,0.109,0.357,0.209,0.617,0.297h0.087h0.086
			l0.347-0.176c0.058-0.015,0.144-0.033,0.26-0.056c0.115-0.021,0.23-0.051,0.346-0.088c0.116-0.036,0.213-0.088,0.293-0.154
			c0.078-0.065,0.118-0.165,0.118-0.297v-6.974c0-0.146-0.068-0.231-0.205-0.253c-0.138-0.022-0.242-0.033-0.314-0.033
			c-0.158,0-0.295,0.044-0.411,0.132c-0.115,0.088-0.23,0.191-0.346,0.309c-0.029,0.044-0.072,0.128-0.13,0.253
			c-0.058,0.124-0.123,0.257-0.195,0.396c-0.072,0.14-0.141,0.271-0.205,0.396c-0.065,0.124-0.112,0.209-0.141,0.253
			c-0.015,0.015-0.047,0.059-0.098,0.132c-0.05,0.073-0.075,0.117-0.075,0.132c-0.231,0.66-0.375,1.335-0.433,2.024
			s-0.087,1.379-0.087,2.067C82.082,40.582,82.089,40.82,82.104,41.018z"/>
		<path d="M90.485,37.982c0.352-0.491,0.792-0.851,1.32-1.078c0.527-0.228,1.104-0.367,1.727-0.418
			c0.623-0.052,1.199-0.1,1.728-0.144c0.527-0.044,0.968-0.124,1.319-0.242c0.353-0.117,0.528-0.352,0.528-0.703
			c0-0.25-0.044-0.484-0.132-0.704c-0.088-0.221-0.25-0.396-0.484-0.528c-0.088-0.044-0.22-0.11-0.396-0.198
			c-0.177-0.088-0.271-0.132-0.286-0.132h-2.068c-0.117,0-0.198,0.063-0.242,0.188c-0.044,0.124-0.084,0.278-0.121,0.462
			c-0.036,0.184-0.076,0.385-0.121,0.604c-0.044,0.22-0.113,0.422-0.209,0.605c-0.095,0.184-0.234,0.337-0.418,0.462
			s-0.429,0.187-0.736,0.187c-0.47,0-0.854-0.153-1.155-0.462c-0.301-0.308-0.451-0.689-0.451-1.144
			c0-0.265,0.044-0.499,0.132-0.704s0.206-0.396,0.353-0.572s0.315-0.341,0.506-0.495s0.381-0.297,0.572-0.429
			c0.161-0.117,0.33-0.245,0.506-0.385s0.381-0.209,0.616-0.209l3.365,0.044c0.19,0,0.415,0.08,0.672,0.24
			c0.256,0.161,0.506,0.351,0.747,0.57c0.242,0.219,0.455,0.452,0.639,0.7c0.183,0.248,0.297,0.46,0.341,0.635
			c0.015,0.044,0.036,0.124,0.066,0.241c0.028,0.117,0.058,0.237,0.088,0.361c0.029,0.124,0.055,0.241,0.076,0.351
			c0.022,0.109,0.033,0.186,0.033,0.229v0.679c0,0.176,0.004,0.376,0.012,0.603c0.007,0.227-0.026,0.427-0.1,0.603v3.7
			c0,0.409,0.176,0.613,0.528,0.613c0.234,0,0.381-0.103,0.439-0.308s0.11-0.437,0.154-0.693c0.044-0.256,0.113-0.487,0.209-0.692
			s0.297-0.309,0.605-0.309c0.161,0,0.3,0.044,0.418,0.132c0.117,0.089,0.212,0.198,0.286,0.33c0.073,0.133,0.124,0.275,0.153,0.43
			c0.029,0.153,0.044,0.305,0.044,0.45c0,0.323-0.052,0.646-0.153,0.969c-0.104,0.322-0.246,0.612-0.43,0.869
			s-0.41,0.466-0.682,0.627s-0.583,0.241-0.936,0.241c-0.278,0-0.521-0.032-0.726-0.099s-0.433-0.18-0.682-0.341
			c-0.088-0.044-0.165-0.113-0.231-0.209c-0.065-0.096-0.132-0.19-0.198-0.286c-0.065-0.096-0.14-0.18-0.22-0.253
			c-0.081-0.073-0.173-0.11-0.274-0.11h-0.11c-0.206,0.104-0.415,0.228-0.627,0.374c-0.213,0.147-0.429,0.29-0.649,0.43
			c-0.22,0.139-0.447,0.256-0.682,0.352c-0.235,0.096-0.477,0.143-0.727,0.143h-1.979c-0.161,0-0.301-0.04-0.418-0.12
			c-0.117-0.081-0.235-0.158-0.353-0.231c-0.602-0.352-1.037-0.788-1.309-1.309s-0.407-1.126-0.407-1.815
			C89.957,39.174,90.134,38.474,90.485,37.982z M91.739,40.479c0.044,0.162,0.106,0.319,0.188,0.474
			c0.08,0.154,0.179,0.282,0.297,0.385c0.117,0.103,0.249,0.154,0.396,0.154h2.244c0.015,0,0.063-0.022,0.143-0.066
			c0.081-0.044,0.15-0.08,0.209-0.109c0.029-0.029,0.1-0.073,0.209-0.133c0.11-0.058,0.18-0.095,0.21-0.109
			c0.542-0.366,0.909-0.748,1.1-1.145c0.19-0.396,0.286-0.909,0.286-1.54v-0.264c-0.015,0-0.044-0.011-0.088-0.033
			c-0.044-0.021-0.074-0.033-0.088-0.033c-0.016-0.014-0.03-0.021-0.045-0.021l-0.044,0.021c-0.044,0-0.165,0.019-0.362,0.056
			c-0.198,0.036-0.407,0.073-0.627,0.109c-0.221,0.037-0.43,0.074-0.627,0.11c-0.198,0.037-0.319,0.055-0.363,0.055
			c-0.353,0.06-0.708,0.104-1.067,0.133s-0.723,0.073-1.089,0.132c-0.19,0.015-0.359,0.132-0.506,0.352
			c-0.073,0.103-0.165,0.264-0.275,0.484c-0.109,0.22-0.165,0.41-0.165,0.571C91.673,40.179,91.695,40.317,91.739,40.479z"/>
		<path d="M105.006,41.429h0.527c0.25,0,0.499,0.019,0.748,0.055c0.249,0.037,0.506,0.055,0.771,0.055
			c0.044,0,0.113-0.003,0.209-0.011c0.095-0.007,0.15-0.011,0.165-0.011l0.088-0.088V30.337c0-0.088-0.066-0.154-0.198-0.198
			s-0.257-0.065-0.374-0.065h-0.154c-0.176,0-0.349,0.015-0.517,0.044c-0.169,0.029-0.341,0.044-0.517,0.044
			c-0.382,0-0.716-0.092-1.001-0.275c-0.286-0.183-0.43-0.479-0.43-0.891c0-0.322,0.096-0.583,0.286-0.781s0.447-0.297,0.771-0.297
			c0.234,0,0.439,0.011,0.615,0.033c0.177,0.021,0.396,0.069,0.66,0.143h1.342c0.616,0,1.225-0.044,1.826-0.132
			s1.21-0.132,1.826-0.132h0.44c0.645,0.103,1.228,0.261,1.749,0.473c0.521,0.213,0.964,0.488,1.331,0.825
			c0.366,0.338,0.648,0.752,0.847,1.243s0.297,1.066,0.297,1.727c0,0.323-0.044,0.66-0.132,1.013
			c-0.088,0.352-0.22,0.659-0.396,0.924c-0.073,0.088-0.19,0.242-0.352,0.462c-0.162,0.22-0.242,0.411-0.242,0.572
			c0,0.088,0.04,0.18,0.121,0.274c0.08,0.096,0.172,0.194,0.275,0.297c0.103,0.104,0.205,0.198,0.308,0.286s0.184,0.176,0.242,0.265
			c0.234,0.425,0.41,0.817,0.527,1.177c0.118,0.359,0.177,0.773,0.177,1.243c0,0.337-0.037,0.692-0.11,1.066
			s-0.18,0.745-0.319,1.111c-0.139,0.366-0.312,0.712-0.517,1.034s-0.44,0.602-0.704,0.836c-0.366,0.205-0.729,0.396-1.089,0.571
			c-0.359,0.177-0.744,0.301-1.155,0.374c-0.293,0-0.773,0.004-1.44,0.012c-0.668,0.007-1.397,0.011-2.189,0.011s-1.521,0-2.188,0
			c-0.668,0-1.141,0-1.419,0h-0.265c-0.337,0-0.608-0.113-0.813-0.34c-0.206-0.228-0.309-0.502-0.309-0.824
			C104.323,41.963,104.551,41.619,105.006,41.429z M109.493,33.897c0,0.163,0.077,0.263,0.231,0.3s0.304,0.056,0.451,0.056h0.264
			c0.47,0,0.961-0.007,1.474-0.021c0.514-0.016,0.969-0.037,1.364-0.067c0.103-0.06,0.217-0.133,0.341-0.222
			c0.125-0.09,0.246-0.189,0.363-0.301s0.216-0.233,0.297-0.367c0.081-0.133,0.121-0.273,0.121-0.422v-1.468
			c0-0.06-0.029-0.118-0.088-0.178c-0.176-0.281-0.326-0.485-0.451-0.611s-0.261-0.215-0.407-0.267
			c-0.146-0.053-0.312-0.09-0.494-0.111c-0.184-0.022-0.422-0.07-0.716-0.145h-2.75V33.897z M109.758,36.189
			c-0.044,0.029-0.1,0.073-0.165,0.132c-0.066,0.059-0.1,0.103-0.1,0.132v4.906c0,0.132,0.085,0.224,0.253,0.274
			c0.169,0.052,0.298,0.077,0.386,0.077c0.498,0,0.993-0.025,1.484-0.077c0.491-0.051,0.994-0.084,1.507-0.099
			c0.382-0.146,0.693-0.309,0.936-0.484s0.437-0.377,0.583-0.604s0.245-0.487,0.297-0.781c0.051-0.293,0.077-0.631,0.077-1.012
			c0-0.19,0.003-0.411,0.011-0.66s-0.055-0.447-0.187-0.594l-1.034-1.034c-0.044-0.044-0.121-0.1-0.231-0.165
			c-0.109-0.066-0.18-0.1-0.209-0.1h-2.485c-0.118,0.089-0.206,0.14-0.265,0.154s-0.14,0.022-0.242,0.022s-0.194-0.015-0.274-0.044
			c-0.081-0.029-0.173-0.044-0.275-0.044H109.758z"/>
		<path d="M119.646,41.665c0.169-0.292,0.43-0.438,0.781-0.438h2.42l0.154-0.218c0-0.059,0.003-0.16,0.011-0.307
			c0.008-0.146,0.019-0.299,0.033-0.459s0.025-0.313,0.033-0.459c0.007-0.146,0.011-0.248,0.011-0.307
			c0.015-0.028,0.029-0.102,0.044-0.218c0.015-0.117,0.029-0.189,0.044-0.219v-4.832h-2.574c-0.146,0-0.274-0.041-0.385-0.123
			s-0.202-0.184-0.275-0.303c-0.073-0.12-0.128-0.251-0.164-0.394c-0.037-0.142-0.056-0.272-0.056-0.393
			c0-0.239,0.059-0.426,0.176-0.561s0.261-0.235,0.43-0.303c0.168-0.067,0.352-0.112,0.55-0.135s0.377-0.034,0.539-0.034
			c0.249,0,0.495,0.015,0.737,0.044c0.241,0.029,0.487,0.044,0.736,0.044c0.176,0,0.349-0.015,0.518-0.044
			c0.168-0.029,0.341-0.044,0.517-0.044c0.249,0,0.51,0.081,0.781,0.242s0.407,0.396,0.407,0.704v8.184l0.132,0.132h2.332
			c0.132,0,0.253,0.049,0.362,0.146c0.11,0.098,0.206,0.213,0.286,0.348c0.081,0.135,0.14,0.277,0.176,0.427
			c0.037,0.149,0.056,0.276,0.056,0.381c0,0.21-0.056,0.419-0.165,0.629c-0.11,0.209-0.29,0.313-0.539,0.313h-7.502
			c-0.264,0-0.473-0.09-0.627-0.269c-0.154-0.18-0.231-0.396-0.231-0.651C119.394,42.252,119.479,41.956,119.646,41.665z
			 M122.738,28.225c0.278-0.293,0.638-0.439,1.077-0.439c0.234,0,0.451,0.055,0.649,0.165c0.198,0.109,0.366,0.257,0.506,0.439
			c0.14,0.184,0.249,0.386,0.33,0.605c0.08,0.22,0.121,0.439,0.121,0.66c0,0.439-0.161,0.788-0.484,1.045
			c-0.322,0.257-0.689,0.385-1.1,0.385c-0.499,0-0.877-0.176-1.133-0.528c-0.257-0.352-0.385-0.77-0.385-1.254
			C122.32,28.878,122.459,28.519,122.738,28.225z"/>
		<path d="M131.505,41.579c0.228-0.19,0.51-0.286,0.847-0.286c0.206,0,0.407,0.019,0.605,0.055c0.198,0.037,0.407,0.056,0.627,0.056
			c0.059,0,0.143-0.004,0.253-0.012c0.11-0.007,0.172-0.011,0.188-0.011l0.088-0.088c0-0.059,0.003-0.154,0.011-0.286
			c0.007-0.132,0.015-0.274,0.022-0.429c0.007-0.154,0.018-0.301,0.032-0.44c0.015-0.139,0.022-0.238,0.022-0.297
			c0-0.029,0.011-0.103,0.033-0.22c0.021-0.117,0.04-0.19,0.055-0.22l-0.044-2.156v-0.418l-0.132-2.596l-0.176-0.177
			c-0.074,0-0.198-0.003-0.374-0.011c-0.177-0.007-0.367-0.015-0.572-0.021c-0.206-0.008-0.396-0.019-0.572-0.033
			s-0.301-0.022-0.374-0.022c-0.294-0.029-0.539-0.143-0.737-0.341c-0.197-0.198-0.297-0.443-0.297-0.737
			c0-0.293,0.088-0.546,0.265-0.759c0.176-0.212,0.418-0.319,0.726-0.319c0.015,0,0.036,0,0.066,0c0.044,0,0.065,0.008,0.065,0.022
			c0.234,0.029,0.524,0.033,0.869,0.011c0.345-0.021,0.693-0.025,1.045-0.011c0.353,0.015,0.683,0.063,0.99,0.143
			c0.308,0.081,0.542,0.231,0.704,0.451c0.029,0.03,0.059,0.092,0.088,0.188s0.063,0.194,0.099,0.297
			c0.037,0.103,0.081,0.19,0.132,0.264c0.052,0.074,0.106,0.11,0.165,0.11h0.044c0.455-0.366,0.942-0.704,1.464-1.012
			c0.521-0.309,1.081-0.463,1.683-0.463c0.366,0,0.723,0.063,1.067,0.188c0.344,0.125,0.641,0.297,0.891,0.517
			c0.249,0.221,0.451,0.488,0.604,0.804c0.154,0.315,0.231,0.663,0.231,1.045c0,0.543-0.129,1.005-0.385,1.386
			c-0.257,0.382-0.693,0.572-1.31,0.572c-0.293,0-0.527-0.092-0.704-0.275c-0.176-0.184-0.315-0.407-0.418-0.671
			s-0.172-0.539-0.209-0.825c-0.036-0.286-0.063-0.531-0.076-0.736c-0.016-0.073-0.06-0.11-0.133-0.11s-0.124,0-0.153,0
			c-0.074,0-0.144,0.004-0.209,0.011c-0.066,0.008-0.129,0.041-0.188,0.1c-0.059,0.044-0.153,0.132-0.286,0.264
			c-0.132,0.132-0.271,0.271-0.418,0.418s-0.286,0.286-0.418,0.418s-0.22,0.22-0.264,0.264c-0.059,0.059-0.143,0.158-0.253,0.297
			c-0.11,0.14-0.217,0.29-0.319,0.451c-0.103,0.162-0.19,0.319-0.264,0.474c-0.073,0.153-0.11,0.268-0.11,0.341v2.485
			c0.015,0.03,0.033,0.104,0.056,0.221c0.021,0.117,0.032,0.19,0.032,0.22c0,0.044,0.008,0.132,0.022,0.264s0.025,0.271,0.033,0.418
			c0.007,0.147,0.014,0.286,0.021,0.418c0.008,0.133,0.011,0.228,0.011,0.286c0.059,0.162,0.146,0.257,0.265,0.286
			c0.117,0.029,0.256,0.044,0.418,0.044c0.161,0,0.326-0.015,0.495-0.044c0.168-0.029,0.333-0.044,0.495-0.044
			c0.337,0,0.645,0.092,0.924,0.275c0.278,0.184,0.418,0.45,0.418,0.803c0,0.294-0.066,0.524-0.198,0.693
			c-0.132,0.168-0.305,0.293-0.517,0.374c-0.213,0.08-0.444,0.132-0.693,0.153c-0.25,0.022-0.484,0.033-0.704,0.033
			c-0.249,0-0.495-0.015-0.737-0.044c-0.241-0.029-0.487-0.044-0.736-0.044c-0.118,0-0.217,0.004-0.297,0.011
			c-0.081,0.008-0.195,0.033-0.342,0.077h-2.508c-0.352,0-0.671-0.117-0.957-0.352c-0.286-0.235-0.429-0.536-0.429-0.902
			C131.164,42.034,131.277,41.77,131.505,41.579z"/>
		<path d="M150.084,31.833c0.322,0.059,0.623,0.176,0.901,0.352c0.161,0.118,0.286,0.225,0.374,0.319
			c0.088,0.096,0.234,0.144,0.44,0.144c0.014,0,0.059-0.008,0.132-0.022l0.176-0.528v-2.046c0-0.19-0.136-0.3-0.407-0.33
			c-0.271-0.029-0.568-0.062-0.891-0.099c-0.323-0.036-0.62-0.128-0.891-0.275c-0.272-0.146-0.407-0.432-0.407-0.857
			c0-0.205,0.065-0.37,0.198-0.495c0.132-0.125,0.3-0.188,0.506-0.188h2.662c0.117,0,0.234,0.037,0.352,0.11
			s0.224,0.165,0.319,0.275c0.095,0.109,0.172,0.23,0.23,0.362s0.088,0.257,0.088,0.374v6.798l0.177,0.418v4.994l0.22,0.177
			c0.146,0,0.355-0.012,0.627-0.033c0.271-0.022,0.539-0.015,0.803,0.021c0.265,0.037,0.495,0.114,0.693,0.231
			s0.297,0.308,0.297,0.572c0,0.293-0.07,0.527-0.209,0.703c-0.14,0.177-0.319,0.309-0.539,0.396s-0.459,0.143-0.715,0.165
			c-0.257,0.021-0.495,0.033-0.715,0.033c-0.499,0-0.928-0.052-1.287-0.154s-0.701-0.345-1.023-0.726
			c-0.015,0-0.036-0.004-0.065-0.012c-0.03-0.007-0.052-0.011-0.066-0.011c-0.073,0-0.129,0.011-0.165,0.033
			c-0.037,0.021-0.065,0.048-0.088,0.077s-0.055,0.065-0.099,0.109s-0.118,0.096-0.221,0.154c-0.337,0.19-0.642,0.352-0.913,0.484
			c-0.271,0.132-0.59,0.197-0.957,0.197c-0.542,0-1.052-0.095-1.528-0.285s-0.91-0.444-1.298-0.76
			c-0.39-0.314-0.734-0.686-1.034-1.11c-0.301-0.426-0.539-0.88-0.715-1.364c0-0.015-0.016-0.063-0.044-0.143
			c-0.03-0.081-0.063-0.169-0.1-0.265c-0.036-0.095-0.065-0.19-0.088-0.286c-0.021-0.095-0.033-0.157-0.033-0.187v-2.662
			c0-0.103,0.037-0.238,0.11-0.407c0.073-0.168,0.124-0.289,0.154-0.363c0.014-0.044,0.047-0.143,0.099-0.297
			c0.051-0.153,0.103-0.326,0.154-0.517c0.051-0.19,0.103-0.366,0.153-0.528c0.052-0.161,0.085-0.264,0.1-0.308
			c0.015-0.015,0.044-0.066,0.088-0.154l1.804-1.826c0.088-0.088,0.201-0.153,0.341-0.197s0.29-0.077,0.451-0.1
			c0.161-0.021,0.319-0.036,0.474-0.044c0.153-0.007,0.297-0.011,0.429-0.011C149.445,31.745,149.761,31.774,150.084,31.833z
			 M146.827,38.862c0.103,0.477,0.268,0.913,0.495,1.309c0.228,0.396,0.528,0.719,0.902,0.968c0.374,0.25,0.825,0.374,1.353,0.374
			c0.426,0,0.796-0.135,1.111-0.406s0.579-0.602,0.792-0.99s0.37-0.807,0.473-1.254s0.154-0.848,0.154-1.199
			c0-0.426-0.055-0.872-0.165-1.342c-0.109-0.47-0.282-0.902-0.517-1.298c-0.235-0.396-0.536-0.727-0.902-0.99
			c-0.366-0.265-0.8-0.396-1.298-0.396c-0.484,0-0.891,0.132-1.221,0.396c-0.33,0.264-0.595,0.587-0.792,0.968
			c-0.198,0.382-0.338,0.8-0.418,1.254c-0.081,0.455-0.121,0.865-0.121,1.232C146.674,37.927,146.725,38.386,146.827,38.862z"/>
	</g>
</g>
<g id="Staringcontest">
</g>
<g id="Cartwheel">
</g>
<g id="Censored">
</g>
<g id="Depersonalization">
</g>
<g id="threeman">
</g>
<g id="_x32__truths_and_a_lie">
</g>
<g id="cray_cray_cat_lady">
</g>
<g id="siblings">
</g>
<g id="later">
</g>
<g id="waterfall">
</g>
<g id="cheers">
</g>
<g id="rhyme">
</g>
<g id="categories">
</g>
<g id="tits">
</g>
<g id="dicks">
</g>
<g id="questions">
</g>
<g id="double_hands">
</g>
<g id="rewind">
</g>
<g id="Cryptkeeper">
</g>
<g id="Take_2_and_Redo">
</g>
<g id="Embryo">
</g>
<g id="I_am_Groot">
</g>
<g id="Mini_Me">
</g>
<g id="Ditto_1_">
</g>
<g id="reverse">
</g>
</svg>
