<?xml version="1.0" encoding="utf-8"?>
<!-- Generator: Adobe Illustrator 16.0.0, SVG Export Plug-In . SVG Version: 6.00 Build 0)  -->
<!DOCTYPE svg PUBLIC "-//W3C//DTD SVG 1.1//EN" "http://www.w3.org/Graphics/SVG/1.1/DTD/svg11.dtd">
<svg version="1.1" xmlns="http://www.w3.org/2000/svg" xmlns:xlink="http://www.w3.org/1999/xlink" x="0px" y="0px"
	 width="209.759px" height="62.361px" viewBox="0 0 209.759 62.361" enable-background="new 0 0 209.759 62.361"
	 xml:space="preserve">
<g id="Layer_1">
</g>
<g id="Blindman">
</g>
<g id="Compliments">
</g>
<g id="HAT">
</g>
<g id="speech">
</g>
<g id="TREX_ARMS">
</g>
<g id="slim_shady">
</g>
<g id="TIMEOUT">
</g>
<g id="Truth_or_Dare">
</g>
<g id="ARM_WRESTLE">
</g>
<g id="musical_chairs">
</g>
<g id="never_have_i_ever">
</g>
<g id="Trivia">
</g>
<g id="Drink_Pulling">
</g>
<g id="Sharing_is_Caring">
</g>
<g id="Not_It">
</g>
<g id="Cocktail_of_Doom">
</g>
<g id="Heads_up">
</g>
<g id="Archenemy">
</g>
<g id="battle_of_the_sexes">
</g>
<g id="one_must_drink">
</g>
<g id="rainbow_connection">
</g>
<g id="social_drinking">
</g>
<g id="Spin_the_bottle">
</g>
<g id="accents">
</g>
<g id="Slap">
</g>
<g id="down_the_hatch">
</g>
<g id="rubiks_cube">
</g>
<g id="bar_tender">
</g>
<g id="codenames">
</g>
<g id="hand_switch">
</g>
<g id="make_a_rule">
</g>
<g id="no_guts_no_glory">
</g>
<g id="pass">
</g>
<g id="santa">
</g>
<g id="snake_eyes">
</g>
<g id="lightning_round">
</g>
<g id="Bro">
</g>
<g id="LeastDrunk">
</g>
<g id="Know_It_All">
	<g id="Layer_94">
	</g>
</g>
<g id="EyeContact">
</g>
<g id="UnderGuesser">
</g>
<g id="GodSaveTheQUeen">
</g>
<g id="Ghost">
</g>
<g id="Fortune_Teller">
</g>
<g id="DrinkSwap">
</g>
<g id="DickTator">
</g>
<g id="_x34_Eyes">
</g>
<g id="BabyTalk">
</g>
<g id="Backseat_Driver">
</g>
<g id="BAtman">
</g>
<g id="bodyguard">
</g>
<g id="BuckleUp">
</g>
<g id="RockPaperScissors">
</g>
<g id="Roger_Roger">
</g>
<g id="RoyaleWe">
	<g>
		<path d="M23.009,53.256c-0.896-1.414-1.723-2.33-2.484-2.744l-4.326-1.541c-1.482-0.668-3.044-0.734-4.687-0.201
			c-0.521,0.188-0.882,0.273-1.082,0.26c-0.2-0.066-0.22-0.334-0.06-0.801c0.4-0.975,0.961-1.803,1.683-2.484
			c0.521-0.426,1.114-0.707,1.782-0.84c1.162-0.174,1.956-0.395,2.384-0.662c0.347-0.279,0.587-0.627,0.721-1.041
			c0.066-0.48-0.073-0.941-0.421-1.383c-0.374-0.346-1.441-0.801-3.204-1.361c-0.908-0.334-1.756-0.934-2.544-1.803l-1.843-1.902
			c-1.162-1.135-1.996-2.697-2.504-4.688c-0.694-2.896-0.521-5.434,0.521-7.611c0.787-1.494,1.742-2.615,2.863-3.363
			c2.204-1.309,4.387-1.523,6.55-0.643c2.417,1.123,4.032,2.885,4.848,5.289c0.667,2.189,0.968,4.42,0.901,6.689l-0.481,3.145
			l-1.102,3.645c-0.16,0.709-0.214,1.182-0.16,1.422c0.04,0.068,0.107,0.094,0.2,0.08c0.134-0.08,0.287-0.232,0.461-0.459
			c0.601-0.855,1.082-1.91,1.442-3.166l0.541-3.525l0.82-5.188c0.294-1.361,0.748-2.557,1.362-3.584l1.963-2.824
			c0.774-0.936,1.596-1.488,2.464-1.662c1.535-0.215,2.764,0.287,3.686,1.502l1.822,3.264l2.443,1.943
			c0.614,0.615,0.821,1.248,0.621,1.902c-0.254,0.535-0.795,1.115-1.622,1.742l-4.547,3.486c-0.828,0.721-1.049,1.469-0.661,2.242
			l2.264,3.406l1.702,3.205c1.269,2.537,2.15,4.031,2.645,4.486l1.762,1.102c0.428,0.373,0.428,0.814,0,1.322
			c-0.774,0.76-1.722,1.215-2.844,1.361c-1.015,0.053-1.782-0.361-2.304-1.242l-1.562-3.404c-1.229-1.857-1.983-3.211-2.264-4.066
			c-0.494-1.482-1.376-2.857-2.644-4.127c-0.722-0.746-1.016-1.414-0.882-2.002c0.228-0.588,0.828-1.182,1.803-1.783
			c2.217-1.309,3.612-2.563,4.187-3.766c0.413-1.027,0.247-2.043-0.501-3.045l-2.304-3.043c-0.774-0.908-1.596-1.189-2.463-0.842
			c-0.855,0.455-1.557,1.223-2.104,2.303l-0.881,3.246c-0.855,3.338-1.035,5.58-0.541,6.729c1.041,2.043,1.055,3.66,0.04,4.848
			c-1.216,1.602-1.282,3.652-0.2,6.148c0.601,1.297,0.861,2.184,0.781,2.664c-0.161,0.869-0.475,1.863-0.941,2.984
			c-0.214,0.441-0.401,0.715-0.562,0.822C23.389,53.709,23.209,53.563,23.009,53.256z M12.433,38.414
			c1.362,0.961,2.584,1.629,3.666,2.004c0.693,0.186,1.274,0.199,1.742,0.039c0.494-0.293,0.861-0.867,1.102-1.723
			c0.721-3.271,0.601-6.303-0.36-9.094c-1.082-2.949-2.357-4.92-3.826-5.908c-1.295-0.76-2.677-1.047-4.146-0.861
			c-1.429,0.268-2.417,1.096-2.965,2.484c-0.841,2.631-0.721,5.262,0.361,7.891C8.86,35.129,10.336,36.852,12.433,38.414z
			 M22.888,43.602c-1.001-1.242-2.27-1.596-3.805-1.061c-0.668,0.348-1.129,0.834-1.383,1.461c-0.146,0.682-0.026,1.33,0.361,1.943
			c1.001,1.256,2.263,1.609,3.785,1.063c0.681-0.334,1.142-0.822,1.382-1.463C23.389,44.863,23.275,44.217,22.888,43.602z"/>
		<path d="M48.896,50.313c-2.057-1.523-3.299-2.631-3.726-3.326c-1.188-2.229-1.229-4.719-0.12-7.471
			c0.534-1.174,1.662-2.717,3.385-4.627l2.764-3.004c0.962-0.762,1.99-0.947,3.085-0.561c0.601,0.268,1.689,0.961,3.265,2.082
			c1.869,1.35,3.058,2.377,3.565,3.086c1.482,2.322,1.549,4.92,0.2,7.791c-0.614,1.229-1.742,2.777-3.385,4.646l-2.704,3.084
			c-1.028,0.908-2.09,1.109-3.185,0.602L48.896,50.313z M50.858,47.207c1.281,0.936,2.637,1.389,4.065,1.361
			c1.496-0.133,2.631-0.861,3.405-2.182c0.774-1.59,0.935-3.398,0.48-5.428c-0.414-1.496-1.241-2.771-2.483-3.826
			c-1.202-0.975-2.403-1.676-3.605-2.104c-1.695-0.494-3.031-0.086-4.006,1.223c-1.055,1.654-1.309,3.719-0.761,6.188
			C48.475,44.443,49.442,46.033,50.858,47.207z"/>
		<path d="M83.014,54.998c0.44-1.723,0.574-3.738,0.4-6.049c-0.094-0.787-0.233-1.309-0.421-1.563
			c-0.213-0.16-0.54-0.006-0.981,0.461l-3.024,3.705c-0.935,1.043-1.822,1.469-2.663,1.283c-1.016-0.348-1.963-1.008-2.845-1.984
			c-0.574-0.76-0.594-2.162-0.06-4.205c1.107-4.66,1.102-7.984-0.021-9.975l-2.904-1.563l2.304-3.324
			c0.734-0.721,1.462-0.789,2.183-0.201c0.468,0.455,0.901,1.041,1.303,1.764c0.44,0.828,0.754,1.762,0.94,2.803
			c0.428,2.871,0.348,5.695-0.24,8.473c-0.254,1.295-0.28,2.33-0.08,3.105c0.428,1.068,1.142,1.461,2.144,1.182
			c0.854-0.375,1.662-1.27,2.424-2.684l1.682-3.426c0.428-1.402,0.475-3.451,0.141-6.148c-0.16-1.309-0.047-2.357,0.341-3.145
			c0.533-0.883,1.274-1.637,2.223-2.264c0.454-0.268,0.828-0.387,1.122-0.361c0.307,0.121,0.494,0.488,0.561,1.102l-0.44,4.406
			l-0.32,4.227l-0.021,4.787v3.746l-0.14,5.508c-0.24,1.268-0.922,2.383-2.043,3.346l-1.923,1.621
			c-1.042,0.775-2.217,1.262-3.525,1.463c-3.939,0.533-6.724,0.641-8.353,0.32c-2.604-0.641-3.759-1.695-3.465-3.164
			c0.307-0.988,0.994-2.17,2.063-3.547c0.347-0.414,0.62-0.666,0.82-0.76c0.201,0,0.348,0.246,0.441,0.74l0.38,2.604
			c0.348,0.963,1.062,1.637,2.144,2.023c2.751,0.787,4.967,0.795,6.649,0.02C81.357,58.457,82.426,57.016,83.014,54.998z"/>
		<path d="M95.801,52.275l-1.662-1.764c-0.668-0.854-1.188-1.748-1.563-2.684l-1.062-4.527c-0.12-1.135-0.047-2.17,0.221-3.104
			c0.347-0.949,0.928-1.93,1.742-2.945l2.523-2.523l3.185-3.023c0.895-0.654,1.856-0.781,2.885-0.381l3.425,1.703
			c0.948,0.6,1.048,2.182,0.301,4.746c-0.614,2.457-0.715,5.229-0.301,8.313c0.2,1.121,0.688,1.795,1.462,2.023
			c0.494,0.092,1.122,0.053,1.883-0.121c0.388-0.094,0.628-0.127,0.722-0.1c0.066,0.094-0.007,0.301-0.221,0.621l-2.624,3.584
			c-0.761,0.869-1.462,1.016-2.103,0.441c-0.388-0.414-1.089-1.543-2.104-3.385c-0.254-0.414-0.468-0.682-0.641-0.801
			c-0.228-0.068-0.501,0.1-0.821,0.5l-2.563,3.465C97.617,53.035,96.723,53.021,95.801,52.275z M102.23,38.113
			c-0.107-2.109-0.929-3.33-2.464-3.664c-1.683-0.188-3.011,0.633-3.985,2.463c-1.816,3.873-1.529,7.363,0.861,10.475
			c0.747,0.883,1.535,1.283,2.363,1.203c0.761-0.174,1.382-0.789,1.862-1.844C101.803,44.316,102.257,41.439,102.23,38.113z"/>
		<path d="M117.643,53.236l-2.144-1.502c-0.921-0.682-1.342-1.549-1.262-2.604l0.521-4.246l0.2-3.105
			c0.227-2.631,0.153-4.447-0.221-5.447c-0.681-1.469-0.975-2.316-0.881-2.545c0.814-1.615,1.328-3.238,1.542-4.867
			c0.16-1.455,0.541-2.469,1.142-3.045l2.984-2.303l2.323-1.943c1.402-0.801,2.69-1.268,3.866-1.4
			c0.961-0.014,1.589,0.367,1.883,1.141c0.187,0.855,0.066,1.73-0.361,2.625c-0.454,0.734-1.001,0.92-1.642,0.561l-1.563-1.182
			c-0.814-0.428-1.63-0.342-2.443,0.26c-0.628,0.547-1.229,1.303-1.803,2.264c-0.708,1.281-1.108,2.783-1.202,4.506l-0.501,6.811
			l0.08,5.227l0.16,4.908c0.188,0.961,0.602,1.576,1.242,1.842c0.4,0.107,0.888,0.113,1.462,0.021
			c0.294-0.055,0.494-0.074,0.602-0.061c0.106,0.066,0.086,0.254-0.061,0.561c-0.654,1.229-1.369,2.283-2.144,3.164
			C118.864,53.436,118.271,53.557,117.643,53.236z"/>
		<path d="M148.886,50.912l-0.961,0.48c-0.094,0.014-0.154-0.012-0.181-0.08c0-0.105,0.033-0.246,0.101-0.42
			c0.413-0.908,0.968-1.77,1.662-2.584c0.548-0.574,1.362-1.107,2.443-1.602c1.148-0.521,1.943-1.176,2.384-1.963
			c0.44-1.002,0.221-1.822-0.661-2.465c-0.388-0.213-1.476-0.533-3.265-0.961c-0.868-0.24-1.662-0.646-2.384-1.221l-2.022-1.803
			c-1.402-1.27-2.438-2.959-3.104-5.068c-0.854-2.844-0.814-5.541,0.12-8.092c0.467-1.162,1.248-2.17,2.344-3.023
			c1.215-0.949,2.276-1.57,3.185-1.863c0.761-0.201,1.521-0.201,2.283,0c0.654,0.24,1.495,0.734,2.523,1.482
			c1.148,0.828,1.923,1.574,2.323,2.242l1.623,3.887c0.293,0.508,0.594,0.795,0.9,0.861c0.308-0.014,0.642-0.221,1.002-0.621
			l3.245-4.486c1.709-1.924,3.385-2.305,5.027-1.143c0.707,0.588,1.582,2.063,2.623,4.428c0.268,0.574,0.534,0.961,0.802,1.16
			c0.347,0.16,0.728,0.055,1.142-0.32l2.143-3.084l1.402-1.521l1.422-0.982c1.042-0.508,1.977-0.514,2.805-0.02
			c0.614,0.439,1.342,1.328,2.183,2.664l1.863,3.264l1.102,3.586l0.581,3.445c0.227,2.15,0.153,4.092-0.221,5.828l-1.222,3.605
			c-0.561,1.402-1.082,2.438-1.563,3.104c-0.066,0.068-1.055,0.828-2.964,2.285l-2.283,2.443c-0.802,0.773-1.677,0.895-2.624,0.359
			c-2.377-1.494-3.719-2.303-4.026-2.424c-1.789-0.6-3.265-0.574-4.427,0.08l-2.844,2.244c-0.961,0.588-3.098,0.174-6.409-1.242
			C153.646,49.945,150.956,49.791,148.886,50.912z M155.636,39.656c0.32-1.361,0.273-3.332-0.14-5.908l-0.922-3.465l-1.321-2.885
			c-0.775-1.469-1.616-2.537-2.524-3.205c-1.161-0.787-2.383-1.148-3.665-1.082c-1.322,0.16-2.283,0.875-2.885,2.145
			c-0.988,2.576-0.94,5.428,0.141,8.551c0.788,2.031,2.304,3.779,4.547,5.248c1.669,1.082,3.044,1.777,4.126,2.084
			C154.354,41.418,155.235,40.926,155.636,39.656z M163.047,36.592c0.935-0.053,1.803,0.24,2.604,0.881
			c0.708,0.668,0.814,1.396,0.32,2.184c-0.454,0.588-1.135,1.168-2.043,1.742c-0.801,0.469-1.669,0.795-2.604,0.982
			c-2.857,0.467-4.601,1.021-5.228,1.662c-0.588,0.76-0.734,1.541-0.44,2.344c0.333,0.68,1.034,1.195,2.103,1.541l5.188,1.742
			c1.122,0.242,2.104,0.094,2.944-0.439c0.654-0.467,1.202-1.102,1.643-1.902c0.468-0.908,0.788-2.051,0.962-3.426
			c0.4-3.859,0.38-6.723-0.061-8.592l-1.723-5.549c-0.48-1.402-1.142-2.504-1.982-3.305c-1.056-0.867-2.01-0.848-2.864,0.061
			c-0.548,0.68-1.169,1.77-1.863,3.264c-0.507,1.096-0.868,2.338-1.081,3.727l-1.122,5.867c-0.013,0.803,0.174,1.389,0.562,1.764
			c0.533,0.373,1.154,0.406,1.862,0.1c0.654-0.387,1.135-1.436,1.442-3.145C161.865,37.227,162.326,36.725,163.047,36.592z
			 M181.614,34.369l-1.543-4.307c-0.694-1.615-1.335-2.771-1.923-3.465c-1.001-0.988-2.063-1.115-3.185-0.381
			c-0.761,0.561-1.469,1.441-2.123,2.643c-0.641,1.283-0.961,2.572-0.961,3.867l0.561,4.326c0.094,0.908,0.073,1.775-0.06,2.604
			l-1.223,3.885c-0.347,1.391-0.053,2.479,0.882,3.266c0.948,0.707,2.304,1.383,4.065,2.023c1.616,0.547,2.904,0.301,3.866-0.742
			c0.614-0.773,1.088-1.789,1.422-3.043l0.501-3.846C182.067,38.408,181.975,36.131,181.614,34.369z"/>
		<path d="M196.465,52.814c-0.694-0.32-1.695-1.168-3.004-2.543c-1.135-1.188-1.916-2.129-2.344-2.824
			c-0.801-1.455-1.249-2.938-1.342-4.445c0-0.883,0.16-1.777,0.48-2.686l1.442-3.004c0.668-1.201,1.436-2.217,2.304-3.045
			l2.604-2.402c0.961-0.748,1.85-0.955,2.664-0.621c1.081,0.574,2.056,1.502,2.924,2.783c0.548,0.963,0.428,1.844-0.36,2.645
			l-2.864,2.143l-2.584,1.523c-0.881,0.574-1.562,1.188-2.043,1.842c-0.614,1.029-0.574,2.063,0.12,3.105
			c0.668,0.854,1.636,1.828,2.904,2.924c0.908,0.707,1.763,0.809,2.564,0.301l2.604-2.344c0.467-0.348,0.814-0.488,1.041-0.422
			c0.188,0.201,0.147,0.582-0.12,1.143l-3.645,3.865C198.395,52.395,197.279,53.082,196.465,52.814z M197.928,36.732
			c0.106-0.641,0.04-1.176-0.201-1.604c-0.373-0.439-0.895-0.613-1.562-0.52c-1.47,0.387-2.417,1.395-2.845,3.023
			c-0.106,0.629-0.04,1.162,0.2,1.604c0.374,0.439,0.895,0.619,1.563,0.539C196.552,39.389,197.5,38.375,197.928,36.732z"/>
	</g>
	<g>
		<path d="M45.578,12.491c-0.086,0.096-0.182,0.21-0.29,0.343c-0.105,0.134-0.215,0.263-0.325,0.388
			c-0.118,0.149-0.245,0.3-0.378,0.456c-0.026,0.208-0.089,0.386-0.188,0.534c-0.1,0.149-0.195,0.258-0.284,0.327
			c-0.04,0.036-0.095,0.077-0.17,0.12c-0.072,0.043-0.163,0.07-0.27,0.082l-1.356,1.438c-0.009,0.162-0.032,0.372-0.068,0.627
			c-0.037,0.255-0.071,0.461-0.103,0.614c-0.032,0.155-0.111,0.266-0.239,0.335l-1.404,0.842c-0.449-0.446-0.938-0.863-1.467-1.252
			c-0.528-0.387-1.072-0.74-1.631-1.063c-0.561-0.322-1.126-0.615-1.701-0.877c-0.574-0.265-1.137-0.498-1.688-0.701
			c-0.529-0.195-1.114-0.387-1.756-0.572c-0.64-0.187-1.296-0.343-1.966-0.468c-0.67-0.126-1.327-0.216-1.974-0.269
			c-0.646-0.053-1.243-0.047-1.791,0.02c-0.08-0.132-0.163-0.281-0.248-0.447c-0.086-0.166-0.173-0.322-0.258-0.469
			c-0.09-0.175-0.192-0.348-0.309-0.518c-0.061-0.112-0.086-0.217-0.075-0.315c-0.002-0.027,0.003-0.06,0.018-0.099
			c0.015-0.04,0.025-0.07,0.034-0.094c0.021-0.056,0.063-0.15,0.123-0.28c0.061-0.131,0.124-0.268,0.19-0.41
			c0.064-0.142,0.13-0.274,0.194-0.397c0.065-0.124,0.109-0.219,0.135-0.286l0.092-1.808c-0.074-0.079-0.126-0.162-0.157-0.251
			c-0.104-0.204-0.131-0.429-0.086-0.674c0.046-0.245,0.164-0.455,0.356-0.626l0.029-1.275c0.19,0.006,0.447,0.027,0.773,0.064
			c0.323,0.037,0.595,0.076,0.81,0.117c-0.066,0.078-0.156,0.182-0.27,0.313c-0.111,0.132-0.226,0.266-0.34,0.402
			c-0.115,0.137-0.217,0.26-0.308,0.366c-0.091,0.107-0.142,0.172-0.149,0.194C27.063,6.979,27.068,7,27.1,6.986
			c0.158,0.021,0.368-0.021,0.63-0.122c0.262-0.103,0.468-0.202,0.62-0.299c-0.056,0.389-0.115,0.77-0.183,1.141
			C28.1,8.079,28.04,8.459,27.984,8.849c-0.086-0.146-0.188-0.273-0.3-0.381c-0.115-0.105-0.253-0.22-0.411-0.343
			c-0.082-0.056-0.15-0.094-0.207-0.114c-0.02,0.261-0.014,0.522,0.018,0.782c0.031,0.263,0.094,0.506,0.189,0.733
			c0.096,0.227,0.229,0.43,0.399,0.607c0.171,0.179,0.397,0.32,0.679,0.424c0.201,0.075,0.414,0.115,0.636,0.12
			s0.438-0.024,0.647-0.087c0.208-0.064,0.396-0.172,0.559-0.321c0.166-0.15,0.289-0.338,0.373-0.563
			c0.078-0.213,0.084-0.448,0.02-0.703c-0.066-0.254-0.218-0.425-0.454-0.513C29.839,8.382,29.6,8.39,29.414,8.513
			c-0.187,0.123-0.33,0.32-0.43,0.59c-0.046,0.124-0.076,0.26-0.092,0.407c-0.266-0.148-0.412-0.369-0.438-0.661
			c-0.026-0.29,0.006-0.56,0.098-0.808c0.146-0.394,0.392-0.687,0.737-0.879s0.728-0.21,1.144-0.057
			c0.157,0.058,0.276,0.127,0.355,0.207s0.163,0.188,0.254,0.324C30.988,7.4,30.973,7.195,30.99,7.022
			c0.02-0.172,0.07-0.37,0.153-0.596c0.088-0.236,0.219-0.443,0.394-0.622c0.174-0.178,0.356-0.334,0.547-0.469
			c0.219,0.311,0.355,0.624,0.411,0.938c0.058,0.314,0.019,0.652-0.114,1.013c-0.046,0.124-0.104,0.237-0.173,0.339
			c-0.069,0.103-0.145,0.209-0.226,0.32c0.187-0.085,0.387-0.154,0.605-0.208c0.218-0.054,0.429-0.044,0.632,0.031
			c0.281,0.104,0.477,0.311,0.587,0.62c0.108,0.309,0.113,0.599,0.014,0.869c-0.171,0.461-0.516,0.737-1.035,0.826
			c0.02-0.018,0.037-0.05,0.055-0.096c0.074-0.202,0.073-0.403-0.006-0.605c-0.078-0.202-0.231-0.345-0.457-0.428
			c-0.224-0.083-0.427-0.065-0.604,0.054c-0.179,0.12-0.308,0.286-0.386,0.501c-0.075,0.203-0.088,0.402-0.04,0.6
			c0.049,0.197,0.134,0.382,0.256,0.555c0.121,0.173,0.271,0.324,0.446,0.452c0.176,0.13,0.35,0.226,0.518,0.288
			c0.226,0.084,0.463,0.139,0.716,0.168c0.25,0.029,0.492,0.017,0.725-0.039c0.23-0.056,0.439-0.161,0.624-0.316
			c0.187-0.155,0.33-0.373,0.435-0.654c0.021-0.057,0.035-0.105,0.044-0.147c0.01-0.041,0.019-0.092,0.027-0.153
			c-0.182,0.01-0.388,0.023-0.618,0.041s-0.452,0.037-0.666,0.061l0.694-2.084c0.152,0.209,0.289,0.394,0.409,0.554
			c0.12,0.159,0.253,0.317,0.399,0.474c0.037,0.039,0.061,0.028,0.07-0.031c0.025-0.311,0.031-0.597,0.019-0.857
			c-0.012-0.26-0.026-0.54-0.043-0.841l1.958,0.724c-0.243,0.243-0.455,0.481-0.639,0.714c-0.182,0.233-0.334,0.431-0.457,0.589
			c-0.047,0.061-0.045,0.086,0.008,0.08c0.191-0.031,0.406-0.074,0.644-0.127c0.236-0.053,0.456-0.112,0.66-0.179l-0.817,2.059
			c-0.144-0.168-0.279-0.317-0.41-0.448c-0.131-0.132-0.275-0.278-0.434-0.439l-0.111,0.305c-0.184,0.495-0.188,0.932-0.014,1.31
			c0.173,0.378,0.502,0.655,0.986,0.834c0.203,0.075,0.409,0.12,0.622,0.135c0.212,0.015,0.416-0.003,0.614-0.052
			c0.196-0.049,0.373-0.137,0.528-0.265c0.157-0.128,0.276-0.304,0.36-0.529c0.07-0.191,0.072-0.379,0.006-0.563
			c-0.066-0.186-0.2-0.314-0.403-0.389c-0.168-0.063-0.342-0.037-0.519,0.077c-0.176,0.114-0.314,0.222-0.417,0.324
			c-0.078-0.169-0.128-0.347-0.147-0.533c-0.021-0.187,0.001-0.365,0.063-0.534c0.12-0.326,0.304-0.571,0.55-0.736
			s0.55-0.182,0.91-0.048c0.191,0.07,0.349,0.206,0.474,0.405c0.124,0.2,0.224,0.39,0.298,0.57c0.041-0.215,0.096-0.418,0.167-0.609
			c0.133-0.359,0.336-0.65,0.609-0.869c0.272-0.219,0.575-0.381,0.909-0.488c0.08,0.234,0.127,0.463,0.141,0.686
			s-0.021,0.445-0.104,0.671c-0.092,0.247-0.215,0.47-0.372,0.669c-0.156,0.197-0.336,0.381-0.538,0.549
			c0.165-0.066,0.337-0.119,0.517-0.154s0.359-0.02,0.54,0.047c0.292,0.107,0.512,0.313,0.656,0.615
			c0.143,0.303,0.161,0.601,0.053,0.894c-0.058,0.157-0.15,0.303-0.275,0.436c-0.126,0.132-0.272,0.248-0.436,0.347
			c-0.164,0.1-0.336,0.174-0.514,0.223c-0.18,0.05-0.349,0.07-0.513,0.061c0.098-0.054,0.187-0.148,0.27-0.285
			c0.08-0.135,0.139-0.248,0.172-0.338c0.146-0.395,0.022-0.664-0.372-0.81c-0.124-0.046-0.239-0.054-0.347-0.022
			c-0.107,0.03-0.207,0.086-0.302,0.167c-0.094,0.079-0.175,0.172-0.245,0.273c-0.07,0.103-0.123,0.204-0.16,0.306
			c-0.158,0.428-0.152,0.775,0.018,1.043c0.17,0.267,0.417,0.513,0.745,0.735c0.069,0.052,0.143,0.098,0.218,0.138
			c0.074,0.041,0.153,0.07,0.236,0.088c0.559,0.182,1.031,0.167,1.416-0.043c0.385-0.209,0.774-0.606,1.17-1.189
			c-0.244,0-0.474-0.002-0.69-0.005c-0.216-0.004-0.446,0.014-0.69,0.052c0.211-0.294,0.447-0.631,0.711-1.014
			c0.263-0.383,0.495-0.709,0.697-0.98c0.07,0.193,0.146,0.387,0.227,0.582c0.08,0.197,0.172,0.384,0.271,0.563
			c0.039,0.065,0.076,0.053,0.109-0.037c0.061-0.195,0.111-0.388,0.156-0.575c0.035-0.166,0.073-0.328,0.111-0.486
			c0.04-0.158,0.068-0.298,0.089-0.419c0.234,0.125,0.458,0.256,0.67,0.392C45.247,12.204,45.428,12.346,45.578,12.491z
			 M26.738,11.65l-0.389-0.661c-0.068,0.114-0.14,0.248-0.215,0.399c-0.074,0.151-0.117,0.238-0.125,0.261
			c-0.021,0.057,0.017,0.17,0.114,0.34c0.096,0.17,0.186,0.32,0.265,0.452c0.071-0.088,0.146-0.24,0.226-0.454L26.738,11.65z
			 M26.877,7.845c0.018-0.045,0.028-0.108,0.033-0.19c0.004-0.081,0.002-0.161-0.008-0.241c-0.008-0.08-0.026-0.154-0.052-0.222
			c-0.026-0.067-0.067-0.111-0.124-0.132c-0.057-0.021-0.102,0-0.139,0.063c-0.036,0.063-0.063,0.118-0.079,0.163
			s-0.028,0.104-0.037,0.179c-0.007,0.073-0.008,0.149,0.001,0.23c0.009,0.079,0.028,0.15,0.057,0.212s0.069,0.104,0.126,0.124
			s0.104,0.006,0.142-0.044C26.834,7.937,26.861,7.89,26.877,7.845z M39.872,18.69c-0.033,0.09-0.132,0.131-0.294,0.122
			c-1.105,0.015-2.145-0.091-3.117-0.316c-0.972-0.226-1.998-0.538-3.078-0.937c-1.205-0.445-2.327-0.935-3.364-1.465
			c-1.039-0.53-2.051-1.195-3.034-1.993c-0.112-0.08-0.155-0.153-0.13-0.221c0.021-0.057,0.095-0.087,0.224-0.09
			c0.533-0.021,1.098,0.002,1.693,0.068c0.596,0.067,1.191,0.162,1.785,0.286c0.593,0.123,1.176,0.271,1.746,0.443
			c0.568,0.172,1.096,0.348,1.58,0.526c0.461,0.17,0.951,0.374,1.472,0.611c0.52,0.237,1.038,0.495,1.555,0.776
			c0.517,0.279,1.015,0.579,1.492,0.896s0.908,0.648,1.292,0.996C39.842,18.513,39.901,18.612,39.872,18.69z M28.348,12.59
			c0.033-0.09,0.026-0.182-0.021-0.276c-0.049-0.094-0.118-0.158-0.208-0.191c-0.091-0.034-0.181-0.028-0.273,0.014
			c-0.093,0.043-0.155,0.108-0.188,0.198c-0.034,0.091-0.025,0.184,0.022,0.277c0.048,0.095,0.117,0.159,0.207,0.192
			c0.091,0.033,0.183,0.028,0.273-0.015C28.252,12.747,28.314,12.681,28.348,12.59z M28.341,11.57
			c0.033-0.09,0.028-0.181-0.013-0.273c-0.043-0.092-0.109-0.155-0.199-0.188c-0.091-0.033-0.18-0.027-0.266,0.017
			c-0.087,0.045-0.146,0.112-0.18,0.202c-0.033,0.091-0.029,0.179,0.017,0.266c0.044,0.087,0.112,0.146,0.202,0.18
			C28.115,11.852,28.262,11.784,28.341,11.57z M29.014,5.026c-0.029,0.079-0.083,0.135-0.159,0.171
			c-0.077,0.035-0.155,0.039-0.234,0.01c-0.078-0.029-0.136-0.082-0.171-0.159c-0.036-0.078-0.039-0.155-0.01-0.233
			c0.028-0.079,0.079-0.138,0.15-0.176c0.072-0.036,0.146-0.041,0.226-0.013c0.078,0.029,0.14,0.084,0.181,0.163
			C29.036,4.868,29.042,4.948,29.014,5.026z M35.943,7.355c-0.01,0.062-0.064,0.072-0.166,0.035
			c-0.102-0.038-0.153-0.069-0.156-0.096c0.047-0.302,0.088-0.655,0.123-1.058c0.033-0.403,0.035-0.771,0.004-1.103
			c-0.512-0.073-1.044-0.113-1.598-0.119c-0.554-0.007-1.108,0.015-1.664,0.065c-0.557,0.051-1.1,0.128-1.631,0.232
			c-0.532,0.104-1.023,0.233-1.476,0.386c-0.074,0.023-0.155,0.054-0.246,0.091c-0.09,0.037-0.162,0.059-0.215,0.064
			c-0.027,0.003-0.052-0.041-0.076-0.133c-0.023-0.092-0.025-0.147-0.007-0.166c0.039-0.037,0.112-0.078,0.219-0.121
			c0.104-0.044,0.188-0.075,0.244-0.092c0.538-0.172,1.068-0.313,1.595-0.418c0.524-0.106,1.064-0.183,1.618-0.228
			c0.555-0.045,1.132-0.059,1.733-0.04c0.601,0.017,1.251,0.064,1.951,0.145c0.007,0.155,0.003,0.347-0.011,0.572
			c-0.012,0.226-0.03,0.455-0.053,0.69c-0.022,0.234-0.05,0.465-0.082,0.689C36.02,6.979,35.983,7.179,35.943,7.355z M29.966,4.63
			c-0.033,0.09-0.097,0.156-0.188,0.199c-0.092,0.042-0.184,0.046-0.273,0.013c-0.091-0.033-0.157-0.096-0.199-0.188
			c-0.042-0.093-0.047-0.185-0.014-0.274s0.094-0.157,0.18-0.201c0.087-0.045,0.176-0.051,0.266-0.018s0.159,0.097,0.207,0.191
			C29.992,4.446,29.999,4.539,29.966,4.63z M31.596,12.37c0.045-0.227-0.021-0.442-0.201-0.65c-0.18-0.207-0.426-0.336-0.739-0.388
			c-0.31-0.063-0.589-0.035-0.837,0.084s-0.396,0.292-0.441,0.519c-0.049,0.238,0.017,0.457,0.199,0.658
			c0.181,0.201,0.426,0.334,0.736,0.397c0.313,0.052,0.596,0.021,0.848-0.09C31.412,12.79,31.558,12.611,31.596,12.37z
			 M31.018,4.327c-0.038,0.102-0.104,0.174-0.194,0.217C30.73,4.586,30.64,4.59,30.55,4.557c-0.091-0.033-0.159-0.097-0.208-0.19
			c-0.049-0.096-0.054-0.192-0.016-0.295c0.033-0.09,0.096-0.156,0.188-0.199c0.094-0.042,0.185-0.047,0.274-0.014
			s0.159,0.098,0.208,0.192C31.043,4.146,31.051,4.237,31.018,4.327z M32.215,4.099C32.174,4.211,32.102,4.294,32,4.345
			c-0.103,0.052-0.21,0.057-0.323,0.016c-0.111-0.042-0.193-0.117-0.242-0.225c-0.05-0.107-0.054-0.218-0.013-0.331
			c0.038-0.102,0.107-0.178,0.21-0.229c0.103-0.051,0.21-0.057,0.321-0.015c0.102,0.037,0.18,0.111,0.235,0.221
			C32.244,3.892,32.253,3.997,32.215,4.099z M32.927,13.495c0.034-0.09,0.025-0.183-0.022-0.276
			c-0.049-0.095-0.117-0.159-0.207-0.192c-0.091-0.033-0.183-0.028-0.274,0.014c-0.093,0.043-0.155,0.109-0.188,0.199
			c-0.037,0.102-0.032,0.199,0.016,0.294s0.117,0.158,0.208,0.192c0.09,0.033,0.181,0.028,0.274-0.015
			C32.824,13.668,32.89,13.597,32.927,13.495z M33.164,12.489c0.033-0.09,0.027-0.178-0.017-0.266
			c-0.046-0.086-0.112-0.146-0.202-0.18c-0.091-0.033-0.179-0.03-0.263,0.008c-0.086,0.039-0.144,0.104-0.177,0.194
			c-0.034,0.091-0.028,0.181,0.013,0.273c0.044,0.093,0.11,0.156,0.198,0.188c0.092,0.034,0.18,0.028,0.267-0.017
			C33.071,12.646,33.131,12.58,33.164,12.489z M33.433,3.973c-0.046,0.124-0.123,0.214-0.233,0.269s-0.228,0.06-0.351,0.014
			c-0.124-0.046-0.216-0.127-0.274-0.244c-0.059-0.118-0.065-0.239-0.02-0.363c0.046-0.123,0.127-0.212,0.242-0.265
			c0.115-0.054,0.234-0.058,0.359-0.012c0.123,0.046,0.211,0.127,0.266,0.242C33.475,3.729,33.479,3.849,33.433,3.973z
			 M34.823,3.949c-0.046,0.123-0.13,0.214-0.254,0.271s-0.248,0.063-0.371,0.017c-0.124-0.046-0.215-0.13-0.271-0.254
			c-0.057-0.122-0.062-0.247-0.016-0.37s0.127-0.215,0.244-0.274c0.117-0.059,0.238-0.065,0.363-0.02
			c0.123,0.046,0.216,0.132,0.278,0.257C34.859,3.7,34.869,3.825,34.823,3.949z M34.997,13.396l-0.1-0.458
			c-0.022-0.111-0.05-0.221-0.079-0.328c-0.032-0.107-0.059-0.164-0.081-0.173c-0.034-0.013-0.095,0.013-0.183,0.077
			c-0.088,0.063-0.176,0.129-0.265,0.199c-0.109,0.088-0.223,0.187-0.34,0.296c0.024,0.176,0.05,0.332,0.076,0.47
			c0.019,0.123,0.042,0.232,0.069,0.332c0.026,0.101,0.057,0.156,0.091,0.168c0.034,0.013,0.094-0.01,0.179-0.068
			c0.086-0.057,0.174-0.127,0.269-0.207C34.742,13.616,34.863,13.515,34.997,13.396z M36.197,4.073
			c-0.046,0.124-0.131,0.217-0.258,0.279c-0.124,0.062-0.249,0.07-0.373,0.024c-0.123-0.046-0.219-0.136-0.284-0.268
			c-0.065-0.134-0.076-0.261-0.03-0.386c0.046-0.124,0.131-0.217,0.256-0.279s0.256-0.068,0.392-0.019
			c0.124,0.046,0.215,0.135,0.275,0.265C36.235,3.821,36.243,3.948,36.197,4.073z M36.09,14.646c0.033-0.09,0.025-0.183-0.022-0.277
			s-0.117-0.158-0.208-0.191c-0.101-0.037-0.195-0.035-0.281,0.011c-0.088,0.045-0.146,0.112-0.18,0.202
			c-0.038,0.102-0.035,0.198,0.007,0.29c0.042,0.093,0.109,0.155,0.199,0.188c0.102,0.038,0.198,0.035,0.291-0.007
			S36.052,14.747,36.09,14.646z M35.988,10.04c0.028-0.078,0.025-0.156-0.01-0.233c-0.036-0.077-0.099-0.132-0.188-0.165
			c-0.079-0.029-0.154-0.025-0.226,0.012c-0.07,0.038-0.122,0.097-0.15,0.175c-0.029,0.078-0.026,0.157,0.01,0.234
			c0.035,0.077,0.092,0.13,0.17,0.159c0.08,0.029,0.157,0.025,0.234-0.01C35.905,10.176,35.959,10.118,35.988,10.04z M36.541,13.737
			c0.033-0.09,0.027-0.179-0.018-0.266c-0.044-0.086-0.111-0.146-0.202-0.18c-0.09-0.033-0.178-0.03-0.262,0.008
			c-0.085,0.039-0.144,0.104-0.177,0.194c-0.034,0.091-0.029,0.181,0.014,0.273c0.041,0.093,0.107,0.155,0.199,0.188
			c0.09,0.033,0.178,0.028,0.265-0.017C36.447,13.894,36.507,13.828,36.541,13.737z M36.908,7.599
			c-0.033,0.09-0.091,0.151-0.172,0.185c-0.084,0.034-0.164,0.036-0.244,0.007c-0.078-0.029-0.141-0.084-0.187-0.166
			c-0.048-0.081-0.054-0.166-0.021-0.256c0.028-0.079,0.085-0.136,0.167-0.169c0.083-0.034,0.163-0.036,0.243-0.007
			c0.078,0.029,0.142,0.084,0.188,0.166C36.93,7.439,36.938,7.52,36.908,7.599z M37.259,6.807c-0.037,0.102-0.105,0.173-0.202,0.213
			c-0.099,0.04-0.192,0.044-0.283,0.011c-0.09-0.033-0.164-0.1-0.223-0.198c-0.061-0.099-0.072-0.198-0.035-0.3
			c0.038-0.102,0.109-0.172,0.213-0.209c0.104-0.039,0.199-0.042,0.291-0.008c0.09,0.033,0.16,0.098,0.215,0.194
			S37.297,6.705,37.259,6.807z M39.847,2.14l-0.402,1.041L38.65,2.522l-0.226,0.609c0.229,0.109,0.39,0.297,0.484,0.562
			c0.094,0.265,0.095,0.521,0.003,0.769c-0.104,0.282-0.293,0.483-0.568,0.605c-0.276,0.122-0.554,0.131-0.835,0.027
			c-0.305-0.112-0.524-0.306-0.659-0.579c-0.136-0.274-0.149-0.558-0.041-0.851c0.091-0.247,0.256-0.436,0.497-0.564
			c0.238-0.129,0.488-0.165,0.748-0.106l0.226-0.608l-1.014-0.01l0.335-1.066l0.747,0.526l0.051-1.229l1.283,0.474l-0.727,0.979
			L39.847,2.14z M37.682,5.868c-0.045,0.125-0.126,0.213-0.24,0.267c-0.116,0.054-0.236,0.058-0.36,0.012
			c-0.112-0.042-0.195-0.12-0.249-0.237c-0.053-0.115-0.057-0.234-0.01-0.358c0.045-0.124,0.125-0.212,0.241-0.267
			c0.116-0.052,0.235-0.057,0.359-0.011c0.112,0.042,0.195,0.123,0.245,0.245C37.719,5.64,37.724,5.757,37.682,5.868z
			 M39.046,15.526c0.116-0.213,0.118-0.441,0.006-0.689c-0.114-0.246-0.307-0.451-0.579-0.616c-0.276-0.153-0.552-0.213-0.826-0.181
			c-0.274,0.033-0.47,0.156-0.586,0.369c-0.113,0.201-0.113,0.426,0.001,0.672c0.112,0.246,0.306,0.452,0.578,0.616
			c0.271,0.164,0.546,0.228,0.823,0.188C38.738,15.848,38.933,15.728,39.046,15.526z M38.33,4.688
			c-0.121-0.159-0.305-0.284-0.553-0.376c-0.1-0.038-0.211-0.066-0.332-0.086c-0.121-0.019-0.236-0.017-0.348,0.006
			c0.026,0.138,0.098,0.257,0.213,0.358c0.117,0.1,0.22,0.167,0.311,0.2c0.09,0.033,0.207,0.042,0.354,0.025
			C38.122,4.801,38.24,4.758,38.33,4.688z M43.826,11.21c-0.043,0.048-0.078,0.083-0.106,0.104c-0.026,0.022-0.056,0.04-0.087,0.055
			c-0.03,0.014-0.049,0.014-0.057-0.002c-0.068-0.09-0.14-0.192-0.212-0.31c-0.599-0.976-1.293-1.868-2.081-2.678
			s-1.635-1.528-2.542-2.157c-0.237,0.231-0.48,0.513-0.724,0.845c-0.245,0.332-0.43,0.615-0.555,0.85
			c-0.032,0.054-0.092,0.063-0.184,0.028c-0.09-0.033-0.143-0.055-0.156-0.067c-0.015-0.012-0.009-0.037,0.02-0.079
			c0.081-0.148,0.182-0.321,0.307-0.519c0.124-0.197,0.254-0.393,0.39-0.586c0.135-0.193,0.274-0.378,0.415-0.557
			c0.144-0.178,0.27-0.329,0.381-0.455c0.601,0.415,1.137,0.817,1.606,1.209c0.47,0.391,0.899,0.792,1.29,1.206
			c0.393,0.413,0.755,0.841,1.09,1.284c0.335,0.445,0.668,0.926,1.001,1.445c0.033,0.05,0.069,0.115,0.11,0.194
			C43.774,11.102,43.805,11.164,43.826,11.21z M37.703,3.996l0.238-0.698c-0.314-0.014-0.57,0.109-0.77,0.368
			C37.301,3.803,37.479,3.913,37.703,3.996z M38.631,4.186c0.027-0.144,0.01-0.278-0.053-0.403s-0.15-0.24-0.266-0.348
			c-0.019,0.02-0.038,0.063-0.058,0.133c-0.019,0.069-0.046,0.149-0.079,0.238l-0.119,0.321c0.086,0.044,0.174,0.07,0.261,0.077
			C38.404,4.21,38.51,4.204,38.631,4.186z M39.977,5.528c-0.045,0.123-0.131,0.217-0.256,0.278c-0.127,0.063-0.25,0.071-0.375,0.025
			c-0.123-0.046-0.219-0.136-0.283-0.269c-0.066-0.133-0.076-0.262-0.031-0.385c0.046-0.124,0.132-0.218,0.257-0.28
			c0.126-0.062,0.255-0.068,0.391-0.018c0.124,0.046,0.216,0.134,0.276,0.264C40.016,5.276,40.022,5.403,39.977,5.528z
			 M40.011,16.86c0.033-0.089,0.025-0.182-0.022-0.276c-0.049-0.094-0.117-0.158-0.207-0.19c-0.09-0.033-0.182-0.029-0.273,0.013
			c-0.094,0.043-0.156,0.109-0.189,0.198c-0.033,0.092-0.026,0.184,0.021,0.278c0.049,0.094,0.119,0.158,0.209,0.191
			c0.09,0.034,0.181,0.028,0.273-0.014C39.914,17.019,39.978,16.952,40.011,16.86z M40.618,16.05
			c0.033-0.09,0.027-0.179-0.019-0.266c-0.043-0.086-0.111-0.146-0.201-0.18s-0.177-0.03-0.262,0.008
			c-0.085,0.039-0.145,0.104-0.178,0.193c-0.033,0.092-0.027,0.182,0.015,0.274s0.107,0.155,0.198,0.188
			c0.09,0.033,0.179,0.028,0.267-0.017C40.525,16.206,40.585,16.141,40.618,16.05z M41.112,6.351
			c-0.046,0.123-0.13,0.213-0.253,0.27c-0.124,0.057-0.247,0.063-0.371,0.017s-0.214-0.13-0.271-0.253
			c-0.058-0.123-0.063-0.247-0.018-0.37c0.046-0.124,0.128-0.216,0.246-0.275c0.118-0.059,0.238-0.065,0.362-0.02
			c0.123,0.046,0.217,0.132,0.279,0.257C41.15,6.102,41.158,6.226,41.112,6.351z M41.807,17.353
			c0.021-0.057,0.036-0.162,0.049-0.317c0.014-0.155,0.014-0.286,0.002-0.394l-0.718,0.331l0.065,0.81
			c0.105-0.076,0.226-0.152,0.364-0.229C41.705,17.476,41.785,17.408,41.807,17.353z M42.104,7.253
			c-0.046,0.124-0.125,0.214-0.234,0.269c-0.11,0.056-0.227,0.061-0.352,0.015c-0.123-0.046-0.215-0.128-0.273-0.245
			s-0.064-0.238-0.02-0.362c0.046-0.123,0.127-0.212,0.243-0.266c0.114-0.053,0.235-0.057,0.358-0.011s0.213,0.126,0.266,0.241
			C42.146,7.01,42.148,7.13,42.104,7.253z M42.895,8.122c-0.042,0.112-0.113,0.193-0.216,0.245c-0.103,0.053-0.21,0.058-0.321,0.016
			c-0.113-0.042-0.193-0.116-0.244-0.224c-0.05-0.108-0.054-0.218-0.012-0.331c0.037-0.102,0.107-0.178,0.21-0.229
			s0.209-0.057,0.322-0.015c0.102,0.037,0.18,0.11,0.234,0.221S42.932,8.021,42.895,8.122z M43.555,9.037
			c-0.037,0.101-0.103,0.173-0.195,0.216c-0.093,0.042-0.184,0.047-0.273,0.014s-0.159-0.097-0.207-0.191
			c-0.049-0.095-0.054-0.193-0.017-0.294c0.033-0.09,0.097-0.156,0.188-0.199s0.184-0.048,0.274-0.014
			c0.09,0.033,0.158,0.097,0.206,0.191C43.58,8.854,43.588,8.947,43.555,9.037z M44.174,9.956c-0.033,0.091-0.096,0.157-0.188,0.199
			c-0.094,0.043-0.184,0.047-0.273,0.014c-0.092-0.033-0.158-0.096-0.199-0.188C43.47,9.889,43.466,9.798,43.5,9.707
			c0.032-0.09,0.095-0.156,0.188-0.199c0.091-0.042,0.183-0.047,0.273-0.013c0.09,0.033,0.155,0.096,0.199,0.188
			C44.203,9.775,44.207,9.866,44.174,9.956z M44.248,13.86c0.016-0.045,0.025-0.097,0.027-0.152
			c0.001-0.058-0.025-0.097-0.081-0.117c-0.057-0.021-0.117-0.014-0.181,0.02c-0.063,0.034-0.125,0.079-0.184,0.135
			c-0.059,0.054-0.109,0.115-0.154,0.182c-0.044,0.067-0.073,0.124-0.09,0.168c-0.017,0.046-0.026,0.097-0.028,0.153
			c-0.001,0.057,0.025,0.095,0.082,0.116c0.056,0.021,0.116,0.014,0.18-0.02s0.125-0.079,0.184-0.133
			c0.059-0.056,0.109-0.117,0.154-0.184C44.201,13.961,44.23,13.905,44.248,13.86z M44.572,10.853
			c-0.029,0.078-0.082,0.136-0.158,0.171c-0.078,0.036-0.156,0.039-0.235,0.01c-0.079-0.028-0.135-0.082-0.171-0.16
			c-0.035-0.076-0.039-0.154-0.01-0.233s0.08-0.136,0.151-0.174c0.071-0.037,0.146-0.042,0.226-0.013s0.139,0.083,0.18,0.162
			C44.596,10.695,44.602,10.772,44.572,10.853z"/>
	</g>
	<g>
		<path d="M115.287,13.826c0.002,0.129,0.01,0.278,0.021,0.449c0.014,0.17,0.021,0.339,0.027,0.506
			c0.014,0.189,0.023,0.387,0.033,0.591c0.123,0.171,0.197,0.343,0.227,0.52c0.027,0.178,0.031,0.321,0.014,0.433
			c-0.004,0.055-0.018,0.121-0.043,0.203c-0.023,0.082-0.07,0.164-0.141,0.244l-0.014,1.977c0.105,0.126,0.23,0.294,0.379,0.506
			c0.146,0.212,0.262,0.385,0.344,0.519c0.082,0.136,0.1,0.271,0.053,0.408l-0.453,1.573c-0.635-0.021-1.277,0.008-1.928,0.084
			c-0.65,0.077-1.289,0.188-1.918,0.334c-0.629,0.146-1.242,0.317-1.842,0.518c-0.6,0.197-1.172,0.41-1.713,0.637
			c-0.521,0.219-1.08,0.477-1.676,0.779c-0.596,0.299-1.182,0.633-1.758,0.996c-0.576,0.365-1.119,0.748-1.627,1.15
			c-0.508,0.4-0.941,0.813-1.299,1.234c-0.146-0.042-0.309-0.096-0.484-0.158s-0.346-0.119-0.51-0.167
			c-0.184-0.067-0.375-0.123-0.576-0.169c-0.123-0.041-0.211-0.101-0.271-0.18c-0.02-0.018-0.037-0.045-0.055-0.084
			c-0.016-0.04-0.027-0.069-0.037-0.092c-0.023-0.055-0.059-0.152-0.104-0.289c-0.043-0.137-0.09-0.28-0.139-0.43
			c-0.049-0.147-0.092-0.289-0.129-0.423c-0.035-0.136-0.068-0.235-0.096-0.302l-1.164-1.386c-0.109-0.007-0.203-0.032-0.287-0.076
			c-0.215-0.078-0.389-0.224-0.523-0.435c-0.133-0.211-0.189-0.445-0.164-0.701l-0.848-0.953c0.141-0.125,0.346-0.284,0.609-0.479
			c0.262-0.194,0.486-0.35,0.672-0.466c0.004,0.102,0.01,0.239,0.018,0.412c0.006,0.172,0.014,0.348,0.023,0.525
			c0.01,0.18,0.018,0.339,0.025,0.479c0.006,0.141,0.014,0.222,0.021,0.243c0.023,0.056,0.041,0.067,0.055,0.036
			c0.131-0.094,0.258-0.266,0.379-0.519s0.205-0.467,0.25-0.641c0.225,0.321,0.441,0.642,0.645,0.959
			c0.205,0.317,0.42,0.638,0.645,0.959c-0.164-0.048-0.322-0.071-0.479-0.072c-0.156,0.001-0.336,0.009-0.535,0.028
			c-0.098,0.016-0.174,0.034-0.229,0.057c0.162,0.205,0.344,0.393,0.545,0.562c0.201,0.17,0.414,0.306,0.639,0.407
			s0.461,0.158,0.705,0.173c0.248,0.013,0.51-0.037,0.785-0.152c0.199-0.083,0.383-0.198,0.549-0.347
			c0.166-0.147,0.305-0.315,0.414-0.504s0.172-0.396,0.189-0.617c0.02-0.222-0.018-0.443-0.111-0.664
			c-0.088-0.211-0.242-0.387-0.463-0.529c-0.223-0.141-0.449-0.163-0.682-0.066c-0.289,0.121-0.459,0.289-0.51,0.508
			c-0.053,0.216-0.025,0.458,0.086,0.724c0.051,0.121,0.121,0.241,0.211,0.36c-0.295,0.072-0.553,0.01-0.771-0.186
			c-0.217-0.194-0.377-0.414-0.479-0.658c-0.162-0.387-0.182-0.769-0.061-1.145c0.123-0.377,0.391-0.65,0.799-0.821
			c0.154-0.064,0.289-0.095,0.4-0.091c0.113,0.006,0.248,0.026,0.408,0.064c-0.201-0.137-0.354-0.275-0.457-0.414
			s-0.201-0.318-0.293-0.541c-0.098-0.232-0.143-0.473-0.137-0.723c0.006-0.249,0.033-0.488,0.08-0.717
			c0.371,0.079,0.686,0.215,0.941,0.407c0.256,0.191,0.459,0.464,0.605,0.819c0.053,0.122,0.086,0.244,0.104,0.365
			c0.02,0.123,0.037,0.252,0.055,0.389c0.078-0.189,0.178-0.377,0.301-0.565c0.123-0.188,0.283-0.323,0.484-0.407
			c0.275-0.115,0.561-0.098,0.852,0.054s0.492,0.36,0.604,0.627c0.189,0.454,0.125,0.89-0.195,1.31
			c0.002-0.026-0.006-0.062-0.025-0.107c-0.084-0.199-0.221-0.346-0.416-0.439s-0.404-0.094-0.627-0.002
			c-0.221,0.093-0.355,0.244-0.404,0.452c-0.049,0.21-0.029,0.419,0.059,0.63c0.082,0.199,0.209,0.354,0.379,0.466
			c0.17,0.11,0.359,0.188,0.564,0.231c0.207,0.044,0.42,0.053,0.637,0.026c0.217-0.024,0.408-0.072,0.574-0.142
			c0.221-0.093,0.434-0.214,0.639-0.365c0.203-0.149,0.371-0.323,0.502-0.522c0.133-0.198,0.213-0.417,0.242-0.657
			s-0.014-0.498-0.129-0.774c-0.023-0.056-0.045-0.102-0.066-0.138c-0.021-0.037-0.051-0.08-0.086-0.131
			c-0.125,0.131-0.268,0.281-0.424,0.451s-0.305,0.335-0.445,0.498l-0.912-1.998c0.252,0.049,0.479,0.092,0.676,0.126
			c0.195,0.035,0.402,0.06,0.615,0.075c0.053,0.004,0.064-0.021,0.029-0.071c-0.191-0.244-0.383-0.458-0.57-0.64
			c-0.186-0.182-0.387-0.377-0.605-0.586l1.928-0.805c-0.014,0.344-0.006,0.662,0.02,0.957s0.049,0.543,0.066,0.742
			c0.006,0.076,0.025,0.094,0.061,0.053c0.117-0.152,0.246-0.33,0.383-0.53s0.26-0.394,0.361-0.581l0.807,2.063
			c-0.221-0.025-0.422-0.041-0.607-0.049c-0.184-0.007-0.391-0.015-0.615-0.026l0.125,0.299c0.203,0.488,0.498,0.811,0.883,0.969
			c0.383,0.157,0.814,0.137,1.289-0.063c0.199-0.083,0.383-0.191,0.549-0.325c0.164-0.134,0.303-0.286,0.414-0.456
			c0.111-0.171,0.18-0.354,0.205-0.555c0.029-0.199-0.004-0.41-0.098-0.632c-0.078-0.188-0.205-0.327-0.379-0.417
			s-0.359-0.094-0.559-0.01c-0.166,0.069-0.275,0.206-0.328,0.409c-0.051,0.204-0.08,0.378-0.084,0.522
			c-0.172-0.07-0.33-0.167-0.471-0.29c-0.143-0.122-0.248-0.268-0.318-0.434c-0.133-0.32-0.168-0.625-0.1-0.914
			c0.068-0.288,0.279-0.507,0.633-0.655c0.189-0.078,0.396-0.086,0.623-0.026c0.229,0.062,0.43,0.133,0.607,0.216
			c-0.115-0.186-0.215-0.372-0.293-0.561c-0.148-0.354-0.197-0.705-0.146-1.051c0.051-0.347,0.16-0.672,0.332-0.979
			c0.219,0.117,0.408,0.252,0.57,0.406c0.162,0.153,0.289,0.341,0.381,0.563c0.102,0.243,0.164,0.49,0.184,0.742
			c0.021,0.252,0.014,0.508-0.02,0.77c0.076-0.162,0.166-0.317,0.273-0.466s0.248-0.26,0.426-0.334c0.287-0.12,0.588-0.12,0.9,0.004
			c0.311,0.124,0.527,0.329,0.646,0.617c0.066,0.155,0.098,0.324,0.096,0.507s-0.029,0.367-0.082,0.551
			c-0.053,0.185-0.127,0.355-0.225,0.514c-0.098,0.157-0.207,0.288-0.332,0.393c0.033-0.105,0.033-0.236,0.002-0.392
			c-0.033-0.155-0.068-0.276-0.105-0.366c-0.162-0.387-0.436-0.5-0.822-0.338c-0.123,0.051-0.213,0.124-0.27,0.221
			c-0.059,0.095-0.094,0.204-0.107,0.327c-0.014,0.122-0.012,0.245,0.008,0.367c0.018,0.122,0.049,0.233,0.09,0.333
			c0.176,0.421,0.418,0.671,0.725,0.752c0.307,0.079,0.654,0.09,1.045,0.03c0.088-0.011,0.172-0.026,0.254-0.048
			s0.16-0.054,0.232-0.098c0.533-0.248,0.871-0.58,1.008-0.996c0.139-0.415,0.152-0.972,0.045-1.668
			c-0.18,0.166-0.348,0.321-0.508,0.467c-0.162,0.145-0.318,0.314-0.471,0.509c-0.047-0.358-0.102-0.767-0.17-1.227
			c-0.07-0.459-0.121-0.856-0.158-1.192c0.182,0.094,0.371,0.184,0.563,0.272c0.193,0.088,0.387,0.163,0.582,0.225
			c0.074,0.021,0.092-0.013,0.055-0.101c-0.088-0.184-0.184-0.359-0.277-0.527c-0.088-0.146-0.172-0.29-0.25-0.433
			c-0.08-0.143-0.152-0.265-0.221-0.366c0.256-0.068,0.51-0.125,0.758-0.17C114.85,13.843,115.076,13.822,115.287,13.826z
			 M98.078,19.654c0.031,0.077,0.031,0.154,0,0.234c-0.033,0.078-0.086,0.133-0.164,0.165s-0.156,0.032-0.234,0.001
			c-0.08-0.033-0.135-0.087-0.166-0.164c-0.033-0.078-0.037-0.155-0.01-0.231s0.078-0.131,0.156-0.163s0.158-0.033,0.242-0.004
			C97.986,19.522,98.045,19.576,98.078,19.654z M98.436,23.172c-0.02-0.044-0.055-0.098-0.105-0.161
			c-0.053-0.063-0.109-0.119-0.17-0.173c-0.061-0.053-0.125-0.094-0.189-0.126c-0.064-0.03-0.125-0.035-0.182-0.012
			c-0.055,0.022-0.074,0.07-0.057,0.142c0.018,0.07,0.033,0.129,0.053,0.172c0.018,0.045,0.049,0.097,0.094,0.157
			c0.045,0.059,0.098,0.114,0.158,0.168c0.061,0.052,0.123,0.091,0.186,0.116c0.063,0.026,0.123,0.028,0.178,0.005
			c0.055-0.022,0.08-0.066,0.072-0.128C98.467,23.27,98.453,23.216,98.436,23.172z M98.504,18.715
			c0.037,0.088,0.035,0.18-0.002,0.273c-0.039,0.094-0.104,0.16-0.191,0.197c-0.09,0.037-0.18,0.036-0.273-0.002
			c-0.096-0.039-0.16-0.103-0.197-0.191s-0.039-0.18-0.006-0.271c0.033-0.093,0.094-0.157,0.182-0.193
			c0.09-0.037,0.184-0.037,0.283-0.001S98.467,18.625,98.504,18.715z M104.736,16.636c0.035,0.051,0.002,0.097-0.098,0.139
			s-0.16,0.054-0.18,0.036c-0.172-0.253-0.383-0.539-0.631-0.857c-0.252-0.318-0.5-0.588-0.748-0.81
			c-0.424,0.295-0.842,0.628-1.25,1.001c-0.41,0.373-0.801,0.767-1.174,1.183s-0.717,0.843-1.035,1.282
			c-0.318,0.438-0.59,0.867-0.818,1.287c-0.037,0.067-0.076,0.146-0.117,0.234c-0.041,0.088-0.078,0.152-0.113,0.193
			c-0.018,0.021-0.066,0.006-0.145-0.045c-0.08-0.052-0.119-0.091-0.119-0.117c0.004-0.054,0.029-0.133,0.076-0.238
			c0.049-0.103,0.088-0.182,0.117-0.233c0.275-0.492,0.568-0.956,0.883-1.392c0.311-0.437,0.654-0.859,1.029-1.27
			c0.373-0.411,0.787-0.814,1.24-1.211c0.451-0.397,0.961-0.805,1.525-1.225c0.111,0.11,0.24,0.251,0.385,0.426
			c0.143,0.174,0.287,0.354,0.432,0.541c0.143,0.188,0.279,0.375,0.408,0.561C104.535,16.308,104.645,16.479,104.736,16.636z
			 M99.066,17.776c0.043,0.1,0.045,0.196,0.006,0.291c-0.039,0.094-0.102,0.159-0.189,0.196c-0.09,0.037-0.186,0.038-0.283,0.002
			c-0.1-0.037-0.17-0.105-0.213-0.205c-0.035-0.088-0.035-0.18,0.002-0.273c0.039-0.095,0.104-0.16,0.191-0.197
			s0.182-0.037,0.283-0.001C98.961,17.626,99.031,17.688,99.066,17.776z M99.789,16.793c0.045,0.11,0.049,0.221,0.01,0.326
			c-0.039,0.108-0.115,0.186-0.227,0.231c-0.109,0.046-0.221,0.047-0.33,0.002c-0.109-0.044-0.188-0.123-0.234-0.233
			c-0.041-0.1-0.043-0.203-0.004-0.312c0.041-0.107,0.115-0.185,0.227-0.23c0.1-0.042,0.207-0.041,0.322,0.002
			S99.746,16.693,99.789,16.793z M100.594,15.871c0.051,0.121,0.055,0.24,0.012,0.355s-0.125,0.198-0.248,0.25
			c-0.121,0.051-0.244,0.053-0.367,0.007s-0.209-0.13-0.262-0.251c-0.051-0.122-0.053-0.242-0.002-0.36
			c0.047-0.117,0.133-0.201,0.256-0.253c0.121-0.051,0.238-0.052,0.357-0.004C100.457,15.664,100.543,15.749,100.594,15.871z
			 M100.928,26.052l-0.736-0.22c0.029,0.131,0.068,0.278,0.115,0.439c0.049,0.162,0.078,0.254,0.086,0.276
			c0.023,0.056,0.129,0.112,0.316,0.17c0.186,0.059,0.354,0.109,0.502,0.151c-0.008-0.113-0.057-0.275-0.145-0.486L100.928,26.052z
			 M101.594,14.906c0.053,0.121,0.053,0.245-0.002,0.371c-0.049,0.126-0.137,0.214-0.258,0.266c-0.121,0.051-0.246,0.05-0.371-0.002
			s-0.213-0.139-0.266-0.26c-0.051-0.122-0.053-0.245-0.008-0.368c0.047-0.122,0.129-0.21,0.252-0.262
			c0.121-0.051,0.25-0.051,0.379-0.001C101.451,14.699,101.543,14.784,101.594,14.906z M102.045,24.9
			c-0.037-0.088-0.102-0.151-0.195-0.19c-0.094-0.038-0.186-0.039-0.273-0.002c-0.09,0.037-0.15,0.102-0.184,0.192
			c-0.033,0.093-0.031,0.183,0.006,0.271c0.037,0.09,0.102,0.15,0.193,0.184s0.182,0.031,0.27-0.006
			C102.072,25.262,102.133,25.111,102.045,24.9z M102.684,14.06c0.053,0.123,0.053,0.248,0.004,0.38
			c-0.051,0.131-0.137,0.222-0.258,0.273c-0.121,0.051-0.252,0.05-0.391-0.003s-0.232-0.139-0.285-0.262
			c-0.051-0.121-0.051-0.248-0.002-0.379c0.049-0.13,0.141-0.224,0.273-0.28c0.121-0.051,0.25-0.048,0.383,0.006
			C102.541,13.85,102.633,13.938,102.684,14.06z M104.039,10.158l0.414,1.036l-1.029,0.06l0.25,0.599
			c0.242-0.076,0.486-0.048,0.736,0.081c0.25,0.13,0.424,0.317,0.527,0.561c0.115,0.277,0.113,0.554-0.004,0.831
			c-0.119,0.277-0.316,0.474-0.594,0.589c-0.299,0.125-0.592,0.134-0.877,0.025c-0.285-0.107-0.488-0.306-0.609-0.594
			c-0.102-0.243-0.109-0.494-0.021-0.752s0.246-0.454,0.477-0.589l-0.25-0.599l-0.748,0.684l-0.48-1.008l0.904-0.125l-0.801-0.934
			l1.262-0.527l0.137,1.211L104.039,10.158z M102.746,25.643c-0.037-0.089-0.105-0.151-0.205-0.188s-0.193-0.035-0.281,0.001
			c-0.09,0.038-0.152,0.103-0.191,0.196c-0.039,0.095-0.041,0.186-0.004,0.274s0.105,0.151,0.205,0.188
			c0.102,0.036,0.195,0.036,0.283-0.001c0.09-0.037,0.152-0.103,0.189-0.197C102.783,25.823,102.783,25.731,102.746,25.643z
			 M115.336,22.253c0.037,0.088-0.006,0.185-0.133,0.289c-0.799,0.764-1.631,1.395-2.494,1.893c-0.865,0.498-1.83,0.969-2.893,1.413
			c-1.186,0.495-2.338,0.902-3.461,1.221c-1.121,0.32-2.314,0.522-3.578,0.609c-0.137,0.018-0.217-0.006-0.246-0.073
			c-0.023-0.056,0.012-0.128,0.104-0.219c0.377-0.378,0.805-0.745,1.285-1.103c0.482-0.357,0.982-0.693,1.502-1.008
			c0.518-0.314,1.045-0.603,1.58-0.866c0.533-0.261,1.037-0.492,1.514-0.691c0.453-0.189,0.953-0.375,1.494-0.556
			c0.543-0.181,1.098-0.346,1.668-0.492c0.568-0.146,1.137-0.268,1.703-0.36c0.564-0.094,1.105-0.145,1.623-0.151
			C115.193,22.144,115.305,22.176,115.336,22.253z M104.973,23.268c-0.121-0.195-0.318-0.309-0.592-0.338
			c-0.271-0.029-0.539,0.043-0.805,0.22c-0.268,0.164-0.453,0.375-0.555,0.632c-0.1,0.256-0.09,0.483,0.031,0.68
			c0.125,0.207,0.324,0.323,0.594,0.347c0.27,0.024,0.539-0.047,0.809-0.211c0.264-0.176,0.451-0.39,0.561-0.645
			C105.125,23.699,105.109,23.471,104.973,23.268z M103.734,12.978l-0.301-0.675c-0.24,0.206-0.344,0.47-0.313,0.795
			C103.309,13.11,103.514,13.07,103.734,12.978z M104.664,13.057c-0.195-0.034-0.416-0.001-0.66,0.102
			c-0.1,0.041-0.199,0.096-0.303,0.164c-0.1,0.068-0.182,0.148-0.25,0.241c0.113,0.083,0.248,0.121,0.4,0.116
			c0.154-0.006,0.275-0.027,0.363-0.064s0.182-0.111,0.277-0.224C104.588,13.28,104.646,13.169,104.664,13.057z M104.543,12.484
			c-0.078-0.124-0.184-0.211-0.314-0.26s-0.273-0.074-0.43-0.074c-0.002,0.027,0.014,0.072,0.047,0.137s0.068,0.141,0.105,0.229
			l0.133,0.315c0.092-0.026,0.174-0.066,0.242-0.121C104.393,12.657,104.465,12.58,104.543,12.484z M104.996,14.362
			c0.051,0.122,0.051,0.241,0.004,0.358c-0.047,0.119-0.135,0.203-0.256,0.254c-0.111,0.047-0.223,0.045-0.342-0.003
			c-0.119-0.049-0.203-0.133-0.254-0.256c-0.051-0.122-0.051-0.241-0.004-0.359c0.049-0.117,0.133-0.201,0.254-0.253
			c0.111-0.046,0.229-0.043,0.348,0.012S104.949,14.252,104.996,14.362z M105.324,15.337c0.041,0.1,0.041,0.198-0.002,0.293
			c-0.045,0.097-0.111,0.164-0.201,0.201c-0.088,0.037-0.188,0.04-0.299,0.007c-0.109-0.03-0.188-0.096-0.229-0.195
			c-0.041-0.101-0.037-0.199,0.014-0.298c0.049-0.099,0.117-0.167,0.207-0.204c0.088-0.037,0.184-0.038,0.289-0.004
			C105.209,15.17,105.283,15.236,105.324,15.337z M105.609,16.154c0.037,0.089,0.035,0.174-0.002,0.254
			c-0.037,0.081-0.096,0.139-0.174,0.171c-0.076,0.032-0.16,0.034-0.25,0.006c-0.09-0.026-0.152-0.085-0.189-0.173
			c-0.033-0.078-0.029-0.157,0.01-0.238c0.035-0.08,0.094-0.138,0.172-0.17c0.076-0.032,0.16-0.035,0.25-0.007
			C105.516,16.024,105.576,16.077,105.609,16.154z M106.443,12.549c0.051,0.121,0.051,0.248,0.002,0.379s-0.135,0.223-0.258,0.273
			c-0.121,0.051-0.252,0.05-0.391-0.003c-0.139-0.052-0.234-0.14-0.285-0.261c-0.051-0.122-0.051-0.248-0.002-0.38
			c0.049-0.131,0.141-0.224,0.273-0.28c0.121-0.051,0.25-0.049,0.383,0.006S106.393,12.427,106.443,12.549z M106.201,22.286
			c-0.037-0.088-0.102-0.149-0.193-0.183c-0.092-0.032-0.182-0.03-0.271,0.006c-0.088,0.038-0.15,0.1-0.186,0.186
			c-0.035,0.087-0.035,0.174,0.002,0.262c0.037,0.09,0.104,0.152,0.197,0.191s0.186,0.04,0.273,0.003
			c0.09-0.037,0.15-0.103,0.184-0.194S106.238,22.375,106.201,22.286z M113.133,14.083c0,0.065-0.002,0.114-0.008,0.149
			c-0.004,0.035-0.014,0.067-0.025,0.099c-0.014,0.031-0.027,0.044-0.043,0.037c-0.113-0.018-0.234-0.046-0.367-0.081
			c-1.104-0.307-2.219-0.486-3.348-0.542s-2.238-0.004-3.33,0.153c-0.016,0.333-0.002,0.703,0.047,1.113
			c0.047,0.408,0.104,0.742,0.172,0.999c0.014,0.061-0.025,0.108-0.113,0.146c-0.09,0.037-0.143,0.057-0.162,0.058
			c-0.018,0.002-0.031-0.021-0.039-0.071c-0.043-0.164-0.086-0.359-0.129-0.59c-0.043-0.229-0.082-0.459-0.115-0.693
			c-0.031-0.232-0.057-0.463-0.074-0.689c-0.018-0.229-0.027-0.425-0.033-0.593c0.725-0.105,1.389-0.177,2-0.211
			c0.609-0.033,1.199-0.033,1.768,0.004c0.568,0.035,1.123,0.101,1.672,0.197c0.547,0.097,1.119,0.222,1.717,0.376
			c0.059,0.014,0.131,0.036,0.215,0.066C113.02,14.039,113.084,14.064,113.133,14.083z M106.713,23.185
			c-0.037-0.089-0.105-0.151-0.205-0.188s-0.193-0.036-0.281,0.001c-0.09,0.037-0.154,0.103-0.191,0.197
			c-0.039,0.094-0.041,0.185-0.004,0.273c0.043,0.1,0.113,0.168,0.213,0.204c0.1,0.037,0.193,0.036,0.283-0.001
			c0.088-0.037,0.15-0.102,0.189-0.197C106.756,23.381,106.756,23.283,106.713,23.185z M106.598,18.569
			c-0.031-0.077-0.086-0.132-0.166-0.165c-0.078-0.031-0.162-0.029-0.25,0.008c-0.078,0.032-0.129,0.087-0.156,0.163
			s-0.023,0.153,0.008,0.23c0.033,0.077,0.088,0.132,0.168,0.165c0.078,0.031,0.154,0.032,0.232,0
			c0.078-0.033,0.133-0.088,0.166-0.167C106.631,18.725,106.631,18.646,106.598,18.569z M107.834,12.377
			c0.051,0.121,0.049,0.245-0.002,0.37c-0.051,0.126-0.137,0.214-0.26,0.265c-0.121,0.052-0.244,0.051-0.371-0.001
			c-0.125-0.051-0.213-0.138-0.264-0.26c-0.051-0.121-0.055-0.244-0.008-0.368c0.047-0.123,0.129-0.21,0.252-0.261
			c0.121-0.051,0.248-0.052,0.379-0.003C107.691,12.169,107.783,12.255,107.834,12.377z M108.16,21.701l-0.385-0.268
			c-0.092-0.066-0.188-0.127-0.281-0.186c-0.096-0.057-0.154-0.081-0.176-0.072c-0.033,0.015-0.063,0.074-0.082,0.18
			c-0.021,0.107-0.041,0.215-0.059,0.328c-0.02,0.139-0.035,0.287-0.047,0.447c0.137,0.113,0.262,0.21,0.375,0.293
			c0.1,0.076,0.189,0.142,0.279,0.195c0.086,0.055,0.146,0.075,0.18,0.061c0.033-0.014,0.063-0.07,0.084-0.171
			c0.023-0.101,0.043-0.212,0.057-0.335C108.123,22.035,108.143,21.878,108.16,21.701z M109.174,12.363
			c0.051,0.121,0.055,0.24,0.012,0.355s-0.125,0.197-0.246,0.249c-0.123,0.051-0.246,0.054-0.369,0.008
			c-0.121-0.046-0.209-0.13-0.26-0.252s-0.053-0.242-0.004-0.359s0.133-0.202,0.254-0.253c0.123-0.051,0.242-0.052,0.359-0.004
			C109.039,12.155,109.123,12.24,109.174,12.363z M109.523,20.898c-0.037-0.089-0.104-0.149-0.195-0.184
			c-0.09-0.032-0.182-0.03-0.27,0.007s-0.15,0.099-0.188,0.185c-0.033,0.087-0.033,0.174,0.004,0.263s0.102,0.151,0.197,0.19
			c0.094,0.039,0.184,0.041,0.273,0.003c0.088-0.036,0.15-0.102,0.184-0.193C109.561,21.076,109.561,20.987,109.523,20.898z
			 M109.811,21.869c-0.037-0.088-0.105-0.15-0.203-0.188c-0.1-0.036-0.195-0.035-0.283,0.002c-0.1,0.042-0.166,0.107-0.199,0.2
			c-0.033,0.092-0.031,0.182,0.006,0.271c0.043,0.1,0.109,0.169,0.203,0.208c0.094,0.038,0.186,0.038,0.273,0.002
			c0.1-0.042,0.17-0.11,0.209-0.204S109.854,21.97,109.811,21.869z M110.346,12.458c0.047,0.111,0.049,0.22,0.01,0.327
			c-0.041,0.107-0.115,0.185-0.227,0.231c-0.109,0.046-0.221,0.046-0.33,0.001s-0.188-0.122-0.234-0.233
			c-0.041-0.1-0.041-0.203-0.004-0.311c0.041-0.108,0.115-0.185,0.227-0.23c0.1-0.042,0.207-0.042,0.322,0.001
			S110.303,12.358,110.346,12.458z M112.574,20.5c-0.059-0.235-0.213-0.404-0.465-0.508s-0.533-0.123-0.844-0.057
			c-0.307,0.076-0.549,0.22-0.727,0.431s-0.238,0.434-0.178,0.669c0.053,0.225,0.207,0.389,0.459,0.491
			c0.25,0.104,0.531,0.123,0.842,0.058s0.555-0.206,0.73-0.423S112.629,20.725,112.574,20.5z M111.451,12.678
			c0.041,0.1,0.043,0.197,0.004,0.291c-0.037,0.095-0.102,0.16-0.189,0.197s-0.184,0.037-0.283,0.001s-0.17-0.104-0.211-0.204
			c-0.037-0.088-0.037-0.18,0.002-0.274c0.039-0.094,0.102-0.16,0.191-0.197c0.088-0.037,0.182-0.036,0.281,0
			C111.348,12.527,111.414,12.59,111.451,12.678z M112.531,12.929c0.037,0.089,0.037,0.181-0.002,0.274s-0.102,0.16-0.189,0.197
			c-0.09,0.037-0.182,0.035-0.275-0.004c-0.094-0.037-0.16-0.102-0.197-0.189c-0.037-0.089-0.035-0.181,0.004-0.275
			c0.037-0.093,0.102-0.158,0.191-0.195c0.088-0.037,0.178-0.036,0.273,0.002C112.43,12.776,112.494,12.841,112.531,12.929z
			 M113.434,13.313c0.033,0.077,0.033,0.156,0,0.233c-0.031,0.08-0.086,0.136-0.164,0.168s-0.154,0.032-0.234-0.001
			c-0.078-0.031-0.135-0.087-0.166-0.164c-0.033-0.077-0.035-0.154-0.008-0.23c0.025-0.076,0.078-0.131,0.156-0.163
			c0.076-0.032,0.158-0.033,0.242-0.003C113.344,13.182,113.402,13.235,113.434,13.313z M114.082,19.812
			c-0.037-0.089-0.102-0.149-0.193-0.183s-0.182-0.031-0.27,0.006c-0.09,0.037-0.15,0.1-0.186,0.185
			c-0.037,0.087-0.035,0.175,0.002,0.263c0.037,0.09,0.102,0.152,0.195,0.191c0.094,0.038,0.186,0.039,0.275,0.002
			c0.088-0.037,0.148-0.102,0.182-0.193S114.119,19.9,114.082,19.812z M114.191,20.819c-0.037-0.089-0.105-0.151-0.205-0.188
			s-0.195-0.035-0.283,0.001c-0.088,0.037-0.15,0.104-0.189,0.197s-0.041,0.186-0.004,0.273c0.037,0.09,0.105,0.151,0.205,0.188
			c0.1,0.036,0.195,0.035,0.283-0.001c0.09-0.038,0.152-0.104,0.191-0.197S114.229,20.908,114.191,20.819z M115.246,15.735
			c-0.018-0.044-0.047-0.088-0.084-0.131c-0.037-0.042-0.084-0.053-0.139-0.029c-0.057,0.023-0.096,0.069-0.119,0.137
			c-0.021,0.068-0.037,0.143-0.043,0.224c-0.006,0.08,0,0.159,0.012,0.238c0.016,0.079,0.031,0.141,0.049,0.184
			c0.02,0.046,0.047,0.09,0.084,0.132c0.037,0.043,0.084,0.053,0.139,0.029c0.055-0.022,0.096-0.068,0.119-0.137
			c0.023-0.067,0.037-0.143,0.043-0.223c0.006-0.081,0-0.16-0.012-0.239C115.279,15.841,115.266,15.78,115.246,15.735z
			 M115.84,19.955c-0.023-0.056-0.082-0.144-0.18-0.267c-0.098-0.122-0.186-0.218-0.268-0.288l-0.299,0.73l0.6,0.548
			c0.025-0.126,0.061-0.266,0.109-0.416C115.85,20.113,115.863,20.01,115.84,19.955z"/>
	</g>
	<g>
		<path d="M205.914,18.101c-0.037,0.123-0.075,0.269-0.116,0.434c-0.04,0.167-0.083,0.33-0.131,0.489
			c-0.043,0.186-0.094,0.376-0.148,0.573c0.064,0.2,0.084,0.388,0.057,0.563c-0.027,0.179-0.067,0.317-0.118,0.418
			c-0.021,0.05-0.054,0.109-0.103,0.18c-0.048,0.071-0.118,0.134-0.209,0.189l-0.618,1.877c0.062,0.151,0.129,0.351,0.204,0.598
			c0.075,0.246,0.132,0.446,0.169,0.599c0.037,0.154,0.012,0.288-0.074,0.404l-0.914,1.359c-0.597-0.214-1.217-0.384-1.859-0.51
			s-1.286-0.216-1.928-0.271c-0.644-0.052-1.281-0.078-1.912-0.071c-0.632,0.005-1.241,0.032-1.827,0.082
			c-0.563,0.048-1.172,0.124-1.832,0.229c-0.66,0.104-1.319,0.241-1.979,0.411c-0.66,0.171-1.294,0.368-1.9,0.597
			c-0.607,0.226-1.145,0.484-1.613,0.777c-0.129-0.085-0.266-0.186-0.414-0.3c-0.148-0.113-0.293-0.219-0.434-0.314
			c-0.155-0.12-0.32-0.232-0.498-0.337c-0.104-0.077-0.17-0.161-0.203-0.255c-0.014-0.023-0.022-0.055-0.025-0.096
			c-0.004-0.043-0.007-0.075-0.009-0.1c-0.005-0.06-0.008-0.163-0.008-0.307c-0.001-0.144-0.001-0.295-0.002-0.451
			c-0.002-0.156,0.001-0.304,0.007-0.443c0.007-0.139,0.007-0.244,0.001-0.316l-0.685-1.675c-0.101-0.04-0.183-0.094-0.249-0.161
			c-0.181-0.14-0.302-0.331-0.364-0.573c-0.063-0.241-0.043-0.481,0.057-0.719l-0.515-1.166c0.174-0.076,0.416-0.165,0.728-0.271
			c0.31-0.104,0.571-0.183,0.783-0.237c-0.028,0.099-0.065,0.23-0.111,0.397s-0.092,0.336-0.138,0.509
			c-0.046,0.172-0.086,0.327-0.123,0.462c-0.036,0.136-0.055,0.215-0.053,0.238c0.006,0.061,0.019,0.077,0.041,0.052
			c0.152-0.049,0.325-0.175,0.519-0.378c0.193-0.204,0.339-0.381,0.434-0.534c0.117,0.376,0.224,0.745,0.32,1.111
			c0.098,0.365,0.205,0.735,0.32,1.11c-0.142-0.096-0.286-0.167-0.434-0.216c-0.148-0.047-0.321-0.094-0.518-0.137
			c-0.099-0.016-0.178-0.021-0.236-0.016c0.093,0.245,0.209,0.479,0.349,0.701c0.14,0.224,0.301,0.417,0.482,0.583
			c0.183,0.165,0.39,0.291,0.62,0.381c0.23,0.089,0.495,0.12,0.794,0.095c0.215-0.018,0.424-0.071,0.627-0.161
			s0.386-0.208,0.549-0.354c0.161-0.146,0.285-0.323,0.37-0.528c0.086-0.207,0.117-0.429,0.097-0.668
			c-0.02-0.227-0.112-0.442-0.28-0.645c-0.167-0.203-0.377-0.293-0.628-0.271c-0.312,0.026-0.525,0.134-0.641,0.325
			c-0.117,0.19-0.163,0.429-0.139,0.716c0.012,0.132,0.042,0.268,0.09,0.408c-0.304-0.021-0.529-0.16-0.677-0.413
			c-0.148-0.252-0.232-0.51-0.255-0.773c-0.035-0.418,0.063-0.787,0.294-1.108c0.231-0.32,0.569-0.499,1.011-0.536
			c0.168-0.015,0.304-0.002,0.41,0.037c0.104,0.039,0.228,0.101,0.366,0.185c-0.147-0.19-0.25-0.37-0.307-0.533
			c-0.055-0.164-0.093-0.366-0.113-0.605c-0.021-0.251,0.009-0.493,0.091-0.729c0.083-0.235,0.181-0.455,0.297-0.657
			c0.329,0.188,0.586,0.413,0.771,0.675c0.186,0.261,0.294,0.583,0.326,0.966c0.011,0.132,0.006,0.259-0.013,0.38
			c-0.02,0.122-0.042,0.251-0.067,0.386c0.132-0.155,0.284-0.304,0.459-0.444c0.174-0.143,0.37-0.223,0.586-0.241
			c0.299-0.025,0.563,0.079,0.794,0.313c0.229,0.233,0.357,0.494,0.382,0.781c0.041,0.49-0.153,0.886-0.586,1.188
			c0.01-0.024,0.013-0.062,0.009-0.11c-0.019-0.215-0.104-0.396-0.263-0.546c-0.156-0.148-0.355-0.214-0.595-0.193
			c-0.238,0.021-0.414,0.123-0.525,0.307c-0.11,0.185-0.155,0.39-0.137,0.617c0.019,0.215,0.092,0.401,0.219,0.56
			c0.129,0.157,0.283,0.289,0.468,0.394c0.183,0.105,0.382,0.178,0.597,0.22c0.214,0.043,0.411,0.057,0.59,0.041
			c0.24-0.021,0.479-0.071,0.72-0.152c0.239-0.08,0.453-0.194,0.639-0.344c0.187-0.147,0.33-0.332,0.433-0.551
			c0.102-0.219,0.14-0.479,0.114-0.777c-0.006-0.061-0.013-0.11-0.022-0.152c-0.009-0.04-0.022-0.091-0.04-0.149
			c-0.161,0.086-0.343,0.185-0.543,0.3c-0.201,0.113-0.394,0.225-0.577,0.337l-0.257-2.182c0.228,0.125,0.429,0.234,0.605,0.328
			c0.177,0.093,0.364,0.18,0.564,0.259c0.049,0.021,0.065,0.001,0.049-0.058c-0.108-0.292-0.225-0.554-0.347-0.784
			c-0.121-0.229-0.254-0.478-0.396-0.742l2.08-0.177c-0.117,0.322-0.208,0.628-0.274,0.916c-0.065,0.289-0.12,0.532-0.164,0.729
			c-0.018,0.073-0.004,0.097,0.042,0.068c0.159-0.109,0.336-0.239,0.527-0.388s0.365-0.296,0.522-0.442l0.134,2.211
			c-0.201-0.092-0.389-0.168-0.562-0.232c-0.174-0.063-0.368-0.134-0.579-0.213l0.027,0.323c0.045,0.526,0.226,0.923,0.544,1.191
			c0.317,0.268,0.734,0.38,1.248,0.336c0.215-0.018,0.422-0.065,0.62-0.143s0.376-0.179,0.535-0.308
			c0.157-0.128,0.278-0.282,0.365-0.464c0.088-0.183,0.121-0.393,0.101-0.632c-0.017-0.203-0.096-0.375-0.234-0.514
			c-0.138-0.14-0.314-0.198-0.529-0.18c-0.179,0.015-0.325,0.111-0.436,0.29c-0.112,0.177-0.191,0.335-0.24,0.471
			c-0.144-0.12-0.264-0.26-0.36-0.42c-0.099-0.161-0.155-0.331-0.171-0.51c-0.029-0.347,0.033-0.647,0.186-0.901
			c0.153-0.254,0.422-0.397,0.804-0.43c0.204-0.018,0.403,0.038,0.602,0.165c0.197,0.129,0.368,0.258,0.512,0.392
			c-0.054-0.212-0.09-0.421-0.106-0.624c-0.033-0.382,0.027-0.731,0.183-1.045c0.153-0.314,0.357-0.59,0.615-0.828
			c0.172,0.177,0.311,0.363,0.418,0.561c0.107,0.195,0.17,0.412,0.19,0.651c0.022,0.263,0.005,0.517-0.053,0.763
			s-0.143,0.488-0.254,0.727c0.121-0.131,0.255-0.251,0.402-0.359c0.148-0.109,0.316-0.172,0.508-0.188
			c0.311-0.026,0.597,0.066,0.855,0.279s0.401,0.475,0.428,0.786c0.014,0.168-0.008,0.338-0.064,0.511
			c-0.058,0.174-0.141,0.341-0.246,0.5c-0.107,0.159-0.231,0.3-0.372,0.419c-0.14,0.121-0.286,0.211-0.437,0.272
			c0.063-0.089,0.104-0.214,0.121-0.371c0.017-0.158,0.021-0.284,0.014-0.381c-0.036-0.418-0.263-0.61-0.682-0.575
			c-0.132,0.012-0.239,0.054-0.322,0.128c-0.086,0.073-0.152,0.165-0.204,0.279c-0.049,0.112-0.084,0.229-0.104,0.352
			s-0.025,0.237-0.016,0.345c0.038,0.454,0.191,0.767,0.459,0.938c0.267,0.169,0.596,0.286,0.986,0.349
			c0.086,0.018,0.171,0.027,0.256,0.032c0.085,0.006,0.169-0.001,0.251-0.021c0.584-0.073,1.006-0.286,1.265-0.64
			c0.258-0.354,0.443-0.878,0.553-1.573c-0.221,0.103-0.429,0.199-0.627,0.288c-0.196,0.089-0.397,0.202-0.603,0.341
			c0.065-0.355,0.138-0.762,0.213-1.22s0.147-0.853,0.215-1.185c0.146,0.146,0.296,0.289,0.453,0.432
			c0.156,0.144,0.318,0.274,0.484,0.393c0.063,0.043,0.092,0.017,0.084-0.079c-0.029-0.202-0.064-0.398-0.104-0.587
			c-0.038-0.166-0.072-0.328-0.105-0.488c-0.031-0.16-0.064-0.299-0.098-0.416c0.266,0.013,0.524,0.036,0.773,0.069
			C205.492,17.982,205.716,18.033,205.914,18.101z M187.011,21.837c-0.004-0.048-0.021-0.11-0.051-0.186
			c-0.031-0.075-0.067-0.147-0.109-0.217c-0.042-0.068-0.09-0.127-0.143-0.178c-0.052-0.05-0.107-0.072-0.168-0.067
			c-0.06,0.005-0.093,0.045-0.098,0.118s-0.007,0.133-0.003,0.18c0.004,0.048,0.02,0.107,0.042,0.179
			c0.024,0.068,0.057,0.139,0.099,0.208c0.043,0.068,0.09,0.124,0.142,0.168s0.106,0.063,0.167,0.059
			c0.06-0.005,0.097-0.039,0.109-0.1C187.011,21.939,187.016,21.885,187.011,21.837z M187.747,18.379
			c0.008,0.084-0.017,0.157-0.071,0.223c-0.056,0.064-0.123,0.101-0.207,0.107s-0.159-0.017-0.223-0.07
			c-0.065-0.056-0.102-0.124-0.109-0.208c-0.007-0.083,0.015-0.158,0.063-0.223c0.05-0.064,0.115-0.101,0.199-0.107
			c0.084-0.008,0.16,0.017,0.232,0.07C187.701,18.226,187.74,18.296,187.747,18.379z M188.44,17.615
			c0.009,0.096-0.021,0.182-0.086,0.26s-0.146,0.121-0.241,0.129c-0.096,0.009-0.184-0.021-0.261-0.086
			c-0.077-0.066-0.12-0.146-0.129-0.242c-0.008-0.097,0.019-0.183,0.077-0.259c0.06-0.078,0.138-0.121,0.232-0.129
			c0.096-0.009,0.186,0.021,0.27,0.086C188.387,17.438,188.433,17.519,188.44,17.615z M195.01,17.544
			c0.019,0.06-0.027,0.093-0.136,0.103c-0.107,0.009-0.168,0.002-0.182-0.021c-0.086-0.293-0.198-0.631-0.338-1.01
			c-0.142-0.379-0.296-0.714-0.465-0.999c-0.494,0.15-0.992,0.34-1.496,0.569c-0.505,0.229-0.997,0.484-1.479,0.768
			c-0.481,0.281-0.941,0.582-1.378,0.902c-0.436,0.32-0.827,0.646-1.172,0.976c-0.057,0.053-0.117,0.115-0.184,0.188
			c-0.066,0.071-0.122,0.12-0.168,0.148c-0.023,0.014-0.064-0.015-0.124-0.088c-0.061-0.073-0.086-0.122-0.076-0.147
			c0.02-0.05,0.067-0.117,0.145-0.202c0.078-0.084,0.139-0.147,0.183-0.187c0.414-0.385,0.835-0.737,1.267-1.056
			c0.43-0.32,0.887-0.617,1.368-0.894c0.482-0.276,1-0.533,1.552-0.773c0.551-0.239,1.161-0.471,1.828-0.697
			c0.072,0.139,0.15,0.313,0.234,0.522c0.084,0.209,0.165,0.426,0.245,0.648c0.079,0.222,0.152,0.441,0.218,0.658
			C194.918,17.17,194.972,17.367,195.01,17.544z M188.501,25.342l-0.633-0.435c-0.014,0.134-0.021,0.285-0.024,0.454
			s-0.004,0.266-0.002,0.29c0.005,0.059,0.086,0.145,0.247,0.258c0.159,0.112,0.304,0.213,0.432,0.297
			c0.026-0.109,0.03-0.28,0.011-0.507L188.501,25.342z M189.265,16.895c0.01,0.108-0.02,0.201-0.084,0.278
			c-0.066,0.077-0.146,0.12-0.242,0.129c-0.097,0.008-0.186-0.021-0.27-0.086c-0.085-0.064-0.13-0.151-0.14-0.26
			c-0.008-0.095,0.021-0.182,0.086-0.26c0.066-0.078,0.147-0.12,0.242-0.129c0.096-0.008,0.186,0.021,0.27,0.086
			S189.257,16.8,189.265,16.895z M189.918,24.589c-0.008-0.096-0.051-0.176-0.129-0.242c-0.078-0.065-0.164-0.095-0.26-0.086
			c-0.097,0.008-0.174,0.051-0.233,0.128c-0.06,0.078-0.085,0.163-0.077,0.259c0.009,0.097,0.051,0.174,0.128,0.233
			c0.078,0.061,0.164,0.087,0.26,0.078C189.833,24.94,189.938,24.816,189.918,24.589z M190.252,16.179
			c0.01,0.119-0.021,0.226-0.091,0.313c-0.07,0.091-0.166,0.142-0.286,0.151c-0.118,0.01-0.225-0.023-0.314-0.1
			c-0.091-0.075-0.142-0.175-0.151-0.294c-0.01-0.108,0.021-0.207,0.093-0.297c0.069-0.09,0.165-0.141,0.285-0.15
			c0.107-0.01,0.209,0.024,0.306,0.101C190.189,15.979,190.242,16.07,190.252,16.179z M203.382,26.138
			c0.008,0.096-0.064,0.173-0.215,0.234c-0.994,0.482-1.98,0.828-2.956,1.037s-2.037,0.362-3.185,0.46
			c-1.279,0.108-2.503,0.143-3.668,0.103c-1.165-0.038-2.364-0.211-3.594-0.516c-0.135-0.024-0.205-0.072-0.211-0.145
			c-0.005-0.061,0.05-0.119,0.165-0.177c0.473-0.245,0.994-0.464,1.561-0.656c0.568-0.193,1.147-0.359,1.738-0.5
			c0.59-0.141,1.179-0.254,1.769-0.34c0.589-0.085,1.14-0.15,1.654-0.194c0.489-0.042,1.021-0.066,1.592-0.071
			c0.571-0.008,1.151,0.007,1.738,0.041c0.587,0.035,1.164,0.094,1.731,0.179c0.567,0.084,1.098,0.202,1.593,0.353
			C203.278,25.989,203.374,26.054,203.382,26.138z M190.357,25.508c-0.008-0.095-0.054-0.175-0.138-0.24
			c-0.084-0.064-0.174-0.093-0.269-0.085c-0.097,0.009-0.176,0.052-0.242,0.128c-0.066,0.078-0.095,0.165-0.087,0.26
			c0.008,0.097,0.055,0.178,0.139,0.241c0.083,0.065,0.173,0.095,0.269,0.087c0.096-0.009,0.177-0.052,0.242-0.13
			C190.338,25.692,190.365,25.604,190.357,25.508z M191.301,15.548c0.011,0.131-0.021,0.246-0.098,0.342
			c-0.076,0.097-0.181,0.151-0.312,0.162c-0.132,0.011-0.249-0.024-0.352-0.105c-0.104-0.081-0.162-0.188-0.173-0.319
			c-0.012-0.132,0.024-0.247,0.107-0.344c0.082-0.097,0.188-0.151,0.32-0.163c0.131-0.011,0.245,0.025,0.343,0.107
			C191.235,15.309,191.289,15.416,191.301,15.548z M193.205,23.93c-0.056-0.224-0.209-0.391-0.459-0.503
			c-0.251-0.11-0.528-0.123-0.835-0.036c-0.306,0.073-0.547,0.218-0.722,0.431c-0.174,0.214-0.233,0.434-0.178,0.656
			c0.057,0.236,0.208,0.406,0.458,0.513c0.249,0.104,0.528,0.12,0.835,0.047c0.306-0.086,0.549-0.233,0.73-0.441
			S193.271,24.165,193.205,23.93z M192.549,14.936c0.012,0.132-0.026,0.25-0.114,0.353c-0.088,0.105-0.198,0.162-0.329,0.174
			c-0.132,0.011-0.249-0.027-0.353-0.116c-0.103-0.086-0.16-0.196-0.172-0.328c-0.011-0.131,0.024-0.249,0.105-0.352
			c0.081-0.104,0.187-0.161,0.319-0.173c0.132-0.011,0.252,0.028,0.362,0.115C192.477,14.694,192.538,14.805,192.549,14.936z
			 M193.846,14.464c0.012,0.132-0.026,0.252-0.114,0.362c-0.087,0.109-0.195,0.17-0.327,0.181c-0.131,0.012-0.256-0.029-0.372-0.121
			c-0.115-0.093-0.179-0.204-0.19-0.336c-0.011-0.132,0.026-0.253,0.113-0.362s0.202-0.171,0.346-0.183
			c0.132-0.011,0.253,0.029,0.363,0.123C193.772,14.221,193.835,14.332,193.846,14.464z M196.329,11.164l0.077,1.113l-0.998-0.259
			l0.056,0.646c0.253,0.003,0.478,0.104,0.676,0.303c0.197,0.201,0.307,0.433,0.329,0.695c0.025,0.3-0.06,0.563-0.258,0.79
			c-0.197,0.228-0.445,0.354-0.744,0.379c-0.322,0.027-0.604-0.054-0.844-0.244c-0.238-0.19-0.37-0.44-0.396-0.752
			c-0.022-0.263,0.046-0.504,0.21-0.724c0.161-0.218,0.372-0.355,0.633-0.413l-0.056-0.646l-0.921,0.421l-0.149-1.107l0.9,0.159
			l-0.477-1.135l1.362-0.115l-0.241,1.195L196.329,11.164z M194.675,23.372c-0.008-0.096-0.051-0.173-0.129-0.233
			c-0.077-0.059-0.163-0.085-0.259-0.077c-0.096,0.009-0.175,0.049-0.234,0.119c-0.061,0.072-0.085,0.155-0.077,0.251
			c0.009,0.097,0.051,0.176,0.128,0.242c0.078,0.065,0.165,0.095,0.26,0.087c0.097-0.009,0.175-0.052,0.233-0.129
			C194.657,23.554,194.684,23.469,194.675,23.372z M194.888,24.384c-0.008-0.097-0.055-0.177-0.139-0.241
			c-0.084-0.065-0.173-0.094-0.269-0.086c-0.097,0.008-0.177,0.051-0.243,0.13c-0.065,0.077-0.094,0.163-0.086,0.26
			c0.009,0.107,0.056,0.193,0.14,0.259s0.173,0.095,0.27,0.086c0.096-0.008,0.176-0.051,0.241-0.13
			C194.868,24.583,194.896,24.491,194.888,24.384z M195.177,13.755l-0.08-0.733c-0.292,0.121-0.471,0.342-0.541,0.659
			C194.73,13.751,194.938,13.775,195.177,13.755z M196.038,14.114c-0.176-0.092-0.396-0.127-0.659-0.104
			c-0.107,0.009-0.221,0.03-0.338,0.063c-0.118,0.035-0.221,0.086-0.313,0.152c0.082,0.114,0.197,0.192,0.346,0.233
			c0.147,0.042,0.27,0.059,0.365,0.051s0.207-0.051,0.332-0.129C195.897,14.306,195.985,14.217,196.038,14.114z M195.953,15.459
			c0.012,0.133-0.024,0.247-0.106,0.343c-0.081,0.099-0.188,0.153-0.319,0.164c-0.12,0.011-0.229-0.025-0.326-0.109
			c-0.098-0.081-0.151-0.188-0.163-0.32c-0.011-0.131,0.024-0.245,0.106-0.343c0.083-0.097,0.189-0.151,0.321-0.162
			c0.119-0.011,0.229,0.028,0.325,0.117C195.89,15.236,195.943,15.341,195.953,15.459z M195.968,16.488
			c0.01,0.107-0.022,0.2-0.092,0.278c-0.072,0.078-0.156,0.121-0.252,0.13c-0.096,0.008-0.191-0.021-0.286-0.084
			c-0.096-0.063-0.149-0.149-0.159-0.257c-0.009-0.108,0.025-0.202,0.104-0.279c0.076-0.08,0.163-0.123,0.26-0.132
			c0.095-0.008,0.188,0.021,0.277,0.086C195.909,16.294,195.959,16.38,195.968,16.488z M195.987,17.354
			c0.009,0.096-0.019,0.176-0.078,0.241c-0.061,0.065-0.134,0.102-0.217,0.109c-0.084,0.007-0.163-0.017-0.241-0.07
			c-0.076-0.054-0.119-0.129-0.127-0.225c-0.007-0.083,0.021-0.158,0.08-0.223c0.061-0.065,0.134-0.103,0.218-0.109
			c0.083-0.007,0.163,0.017,0.241,0.07C195.938,17.201,195.98,17.271,195.987,17.354z M196.098,13.532
			c-0.036-0.142-0.11-0.256-0.22-0.343s-0.238-0.154-0.387-0.202c-0.01,0.025-0.009,0.073,0.003,0.145
			c0.012,0.072,0.022,0.155,0.03,0.25l0.029,0.341c0.096,0.004,0.186-0.01,0.268-0.04C195.901,13.651,195.994,13.601,196.098,13.532
			z M196.19,19.955c-0.007-0.083-0.042-0.152-0.106-0.207c-0.066-0.055-0.146-0.078-0.241-0.07
			c-0.084,0.007-0.151,0.043-0.199,0.107s-0.069,0.139-0.063,0.222c0.008,0.084,0.044,0.153,0.107,0.208
			c0.065,0.055,0.14,0.079,0.224,0.072c0.083-0.008,0.152-0.044,0.208-0.108C196.175,20.113,196.198,20.039,196.19,19.955z
			 M196.72,23.415l-0.285-0.372c-0.067-0.092-0.139-0.18-0.212-0.263c-0.073-0.084-0.121-0.125-0.145-0.123
			c-0.036,0.003-0.081,0.052-0.134,0.146c-0.053,0.094-0.104,0.192-0.154,0.294c-0.063,0.125-0.124,0.263-0.182,0.411
			c0.095,0.149,0.185,0.28,0.268,0.394c0.069,0.103,0.136,0.193,0.204,0.272c0.066,0.077,0.118,0.115,0.154,0.112
			c0.035-0.003,0.079-0.049,0.132-0.137c0.053-0.09,0.104-0.19,0.155-0.303C196.582,23.722,196.648,23.578,196.72,23.415z
			 M203.784,17.686c-0.02,0.062-0.036,0.107-0.052,0.139c-0.016,0.032-0.034,0.061-0.056,0.087
			c-0.022,0.025-0.039,0.033-0.052,0.021c-0.102-0.051-0.209-0.114-0.324-0.188c-0.956-0.63-1.964-1.143-3.021-1.541
			c-1.057-0.398-2.129-0.689-3.217-0.873c-0.118,0.31-0.218,0.668-0.297,1.072c-0.08,0.403-0.127,0.739-0.141,1.005
			c-0.007,0.062-0.059,0.096-0.154,0.104s-0.152,0.011-0.172,0.006c-0.018-0.005-0.022-0.03-0.016-0.08
			c0.011-0.17,0.029-0.37,0.059-0.602c0.028-0.23,0.063-0.463,0.104-0.694c0.04-0.232,0.088-0.46,0.141-0.681
			c0.053-0.222,0.103-0.412,0.15-0.573c0.72,0.121,1.376,0.257,1.968,0.411c0.591,0.154,1.151,0.336,1.681,0.545
			c0.53,0.208,1.04,0.44,1.532,0.7s0.998,0.554,1.52,0.883c0.051,0.031,0.112,0.075,0.182,0.128
			C203.69,17.608,203.745,17.652,203.784,17.686z M197.886,14.176c0.011,0.131-0.026,0.253-0.113,0.361
			c-0.088,0.11-0.197,0.171-0.329,0.183c-0.131,0.011-0.255-0.03-0.37-0.123c-0.117-0.092-0.181-0.204-0.191-0.335
			c-0.012-0.132,0.026-0.253,0.113-0.363c0.087-0.109,0.202-0.17,0.346-0.183c0.132-0.011,0.253,0.029,0.362,0.123
			C197.814,13.932,197.874,14.044,197.886,14.176z M198.238,24.081c-0.008-0.095-0.054-0.176-0.136-0.241
			c-0.085-0.066-0.175-0.094-0.271-0.086c-0.107,0.01-0.192,0.052-0.25,0.13c-0.061,0.078-0.086,0.164-0.078,0.259
			c0.01,0.108,0.054,0.194,0.13,0.261c0.078,0.065,0.165,0.095,0.261,0.086c0.107-0.009,0.194-0.053,0.261-0.13
			C198.221,24.281,198.248,24.189,198.238,24.081z M198.262,23.067c-0.008-0.096-0.051-0.173-0.129-0.232
			c-0.077-0.06-0.162-0.086-0.26-0.078c-0.096,0.009-0.173,0.049-0.233,0.119c-0.06,0.072-0.086,0.155-0.078,0.251
			c0.009,0.097,0.052,0.176,0.13,0.242c0.077,0.065,0.163,0.095,0.26,0.087c0.096-0.009,0.173-0.052,0.233-0.129
			C198.244,23.249,198.27,23.164,198.262,23.067z M199.262,14.438c0.012,0.132-0.025,0.25-0.113,0.354
			c-0.089,0.104-0.196,0.16-0.328,0.171c-0.132,0.012-0.25-0.025-0.354-0.113s-0.161-0.196-0.172-0.328
			c-0.012-0.131,0.023-0.249,0.105-0.354c0.082-0.103,0.188-0.159,0.318-0.171c0.132-0.011,0.252,0.027,0.363,0.113
			C199.191,14.197,199.251,14.307,199.262,14.438z M201.289,23.623c0.017-0.241-0.08-0.45-0.287-0.626
			c-0.209-0.175-0.47-0.279-0.786-0.312c-0.314-0.021-0.589,0.041-0.823,0.187c-0.236,0.146-0.36,0.341-0.376,0.583
			c-0.017,0.229,0.079,0.434,0.287,0.607c0.207,0.176,0.469,0.28,0.786,0.313c0.314,0.032,0.59-0.027,0.823-0.18
			C201.148,24.044,201.272,23.854,201.289,23.623z M200.543,14.835c0.012,0.132-0.021,0.245-0.098,0.343
			c-0.075,0.097-0.179,0.15-0.311,0.162c-0.132,0.011-0.25-0.024-0.353-0.106c-0.104-0.081-0.16-0.188-0.172-0.319
			c-0.011-0.131,0.024-0.246,0.106-0.343c0.082-0.098,0.189-0.151,0.321-0.163c0.131-0.011,0.245,0.024,0.342,0.106
			C200.478,14.597,200.532,14.704,200.543,14.835z M201.629,15.284c0.01,0.12-0.021,0.225-0.092,0.315
			c-0.069,0.09-0.165,0.141-0.284,0.15c-0.12,0.011-0.225-0.023-0.315-0.1c-0.091-0.077-0.142-0.174-0.151-0.294
			c-0.009-0.107,0.021-0.207,0.093-0.298c0.07-0.089,0.165-0.14,0.285-0.149c0.107-0.01,0.21,0.024,0.307,0.1
			C201.566,15.085,201.62,15.177,201.629,15.284z M202.615,15.833c0.01,0.107-0.019,0.2-0.085,0.278s-0.146,0.121-0.242,0.129
			c-0.096,0.009-0.185-0.021-0.269-0.086c-0.084-0.064-0.131-0.151-0.141-0.259c-0.008-0.096,0.021-0.182,0.088-0.26
			c0.064-0.078,0.145-0.122,0.241-0.13c0.096-0.008,0.185,0.021,0.27,0.086C202.562,15.658,202.607,15.737,202.615,15.833z
			 M202.73,24.422c-0.008-0.096-0.055-0.176-0.139-0.242c-0.083-0.063-0.173-0.092-0.269-0.084
			c-0.095,0.008-0.176,0.052-0.242,0.128c-0.066,0.078-0.094,0.165-0.086,0.261s0.054,0.177,0.138,0.242
			c0.084,0.063,0.174,0.093,0.269,0.084c0.097-0.008,0.178-0.051,0.242-0.127C202.709,24.604,202.738,24.518,202.73,24.422z
			 M202.936,23.429c-0.009-0.096-0.052-0.173-0.129-0.232s-0.163-0.086-0.26-0.077c-0.096,0.008-0.173,0.048-0.232,0.119
			c-0.062,0.071-0.088,0.154-0.079,0.25c0.008,0.097,0.051,0.176,0.129,0.242s0.164,0.095,0.261,0.087
			c0.096-0.008,0.173-0.051,0.232-0.129S202.943,23.525,202.936,23.429z M203.566,16.402c0.008,0.096-0.021,0.183-0.086,0.261
			c-0.065,0.077-0.146,0.12-0.241,0.128c-0.097,0.009-0.184-0.021-0.261-0.086c-0.078-0.064-0.121-0.146-0.129-0.241
			c-0.009-0.096,0.021-0.183,0.087-0.261c0.064-0.077,0.146-0.12,0.241-0.129c0.096-0.008,0.183,0.021,0.261,0.087
			C203.516,16.226,203.558,16.307,203.566,16.402z M204.308,17.044c0.008,0.084-0.017,0.158-0.071,0.223
			c-0.056,0.065-0.124,0.102-0.208,0.109c-0.084,0.007-0.158-0.018-0.223-0.073c-0.064-0.055-0.101-0.123-0.108-0.207
			c-0.007-0.084,0.015-0.156,0.063-0.222c0.049-0.064,0.114-0.101,0.198-0.107s0.161,0.017,0.231,0.071
			C204.262,16.893,204.301,16.96,204.308,17.044z M204.564,24.104c-0.005-0.061-0.035-0.163-0.09-0.31
			c-0.055-0.145-0.109-0.264-0.165-0.355l-0.51,0.604l0.404,0.705c0.062-0.113,0.139-0.233,0.23-0.362
			C204.525,24.258,204.569,24.164,204.564,24.104z M205.291,19.905c-0.004-0.048-0.018-0.098-0.04-0.15
			c-0.022-0.052-0.064-0.076-0.123-0.07c-0.061,0.005-0.111,0.036-0.155,0.095c-0.043,0.058-0.078,0.123-0.108,0.198
			s-0.05,0.152-0.063,0.231c-0.011,0.079-0.014,0.144-0.01,0.19c0.004,0.048,0.017,0.098,0.039,0.15
			c0.023,0.052,0.063,0.076,0.124,0.07c0.059-0.005,0.111-0.037,0.154-0.095s0.08-0.124,0.109-0.198
			c0.029-0.075,0.05-0.152,0.062-0.231C205.291,20.017,205.295,19.953,205.291,19.905z"/>
	</g>
</g>
<g id="Skip">
</g>
<g id="SwineRules">
</g>
<g id="Touchy_Feeley">
</g>
<g id="Wasted_Education">
</g>
<g id="Layer_86">
</g>
<g id="PointOfNoReturn">
</g>
<g id="Pirate">
</g>
<g id="Thief">
</g>
<g id="DepthPerception">
</g>
<g id="Narcissist">
</g>
<g id="MammaBird">
</g>
<g id="Staringcontest">
</g>
<g id="Cartwheel">
</g>
<g id="Censored">
</g>
<g id="Depersonalization">
</g>
<g id="threeman">
</g>
<g id="_x32__truths_and_a_lie">
</g>
<g id="cray_cray_cat_lady">
</g>
<g id="siblings">
</g>
<g id="later">
</g>
<g id="waterfall">
</g>
<g id="cheers">
</g>
<g id="rhyme">
</g>
<g id="categories">
</g>
<g id="tits">
</g>
<g id="dicks">
</g>
<g id="questions">
</g>
<g id="double_hands">
</g>
<g id="rewind">
</g>
<g id="Cryptkeeper">
</g>
<g id="Take_2_and_Redo">
</g>
<g id="Embryo">
</g>
<g id="I_am_Groot">
</g>
<g id="Mini_Me">
</g>
<g id="Ditto_1_">
</g>
<g id="reverse">
</g>
</svg>
