<?xml version="1.0" encoding="utf-8"?>
<!-- Generator: Adobe Illustrator 16.0.0, SVG Export Plug-In . SVG Version: 6.00 Build 0)  -->
<!DOCTYPE svg PUBLIC "-//W3C//DTD SVG 1.1//EN" "http://www.w3.org/Graphics/SVG/1.1/DTD/svg11.dtd">
<svg version="1.1" xmlns="http://www.w3.org/2000/svg" xmlns:xlink="http://www.w3.org/1999/xlink" x="0px" y="0px"
	 width="209.759px" height="62.361px" viewBox="0 0 209.759 62.361" enable-background="new 0 0 209.759 62.361"
	 xml:space="preserve">
<g id="Layer_1">
</g>
<g id="Blindman">
</g>
<g id="Compliments">
</g>
<g id="HAT">
</g>
<g id="speech">
</g>
<g id="TREX_ARMS">
</g>
<g id="slim_shady">
</g>
<g id="TIMEOUT">
</g>
<g id="Truth_or_Dare">
</g>
<g id="ARM_WRESTLE">
</g>
<g id="musical_chairs">
</g>
<g id="never_have_i_ever">
</g>
<g id="Trivia">
</g>
<g id="Drink_Pulling">
</g>
<g id="Sharing_is_Caring">
</g>
<g id="Not_It">
</g>
<g id="Cocktail_of_Doom">
</g>
<g id="Heads_up">
</g>
<g id="Archenemy">
</g>
<g id="battle_of_the_sexes">
</g>
<g id="one_must_drink">
</g>
<g id="rainbow_connection">
</g>
<g id="social_drinking">
</g>
<g id="Spin_the_bottle">
</g>
<g id="accents">
</g>
<g id="Slap">
</g>
<g id="down_the_hatch">
</g>
<g id="rubiks_cube">
</g>
<g id="bar_tender">
</g>
<g id="codenames">
	<g>
		<g>
			<g>
				<path d="M45.19,13.896h-3.615l-5.202-9.969c-0.313-0.6-1.023-0.871-1.656-0.632c-5.089,1.923-10.695,1.923-15.784,0
					c-0.633-0.239-1.344,0.032-1.656,0.632l-5.202,9.969H8.459c-2.394,0-4.341,1.948-4.341,4.342s1.947,4.341,4.341,4.341h2.338
					v3.339c0,8.838,7.189,16.028,16.027,16.028s16.028-7.19,16.028-16.028v-3.339h2.338c2.394,0,4.341-1.947,4.341-4.341
					S47.584,13.896,45.19,13.896z M19.109,6.188c5.017,1.628,10.414,1.628,15.431,0l4.022,7.709H15.087L19.109,6.188z
					 M26.824,39.275c-7.364,0-13.356-5.992-13.356-13.357v-3.339h1.736v2.771c0,1.786,1.454,3.24,3.24,3.24h4.205
					c1.786,0,3.24-1.454,3.24-3.24v-2.771h1.87v2.771c0,1.786,1.453,3.24,3.24,3.24h4.205c1.786,0,3.24-1.454,3.24-3.24v-2.771
					h1.736v3.339l0,0C40.182,33.283,34.189,39.275,26.824,39.275z M17.876,22.579h5.343v2.771c0,0.313-0.256,0.568-0.569,0.568
					h-4.205c-0.313,0-0.568-0.255-0.568-0.568V22.579L17.876,22.579z M30.431,25.35v-2.771h5.343v2.771
					c0,0.313-0.255,0.568-0.568,0.568H31C30.687,25.918,30.431,25.663,30.431,25.35z M45.19,19.907H8.459
					c-0.921,0-1.67-0.749-1.67-1.669c0-0.921,0.75-1.67,1.67-1.67H45.19c0.921,0,1.67,0.749,1.67,1.67
					C46.859,19.158,46.111,19.907,45.19,19.907z"/>
			</g>
		</g>
		<g>
			<g>
				<path d="M34.744,31.059c-0.556-0.485-1.399-0.429-1.885,0.127c-1.526,1.745-3.726,2.746-6.035,2.746
					c-0.737,0-1.335,0.599-1.335,1.336s0.598,1.336,1.335,1.336c3.08,0,6.013-1.334,8.046-3.66
					C35.355,32.389,35.299,31.545,34.744,31.059z"/>
			</g>
		</g>
		<g>
			<g>
				<path d="M46.577,45.591c-1.674-2.408-3.997-4.244-6.718-5.31c-0.446-0.174-0.952-0.097-1.325,0.204
					c-3.309,2.665-7.467,4.132-11.709,4.132c-4.305,0-8.354-1.429-11.71-4.132c-0.373-0.301-0.878-0.379-1.324-0.204
					c-2.722,1.065-5.045,2.901-6.719,5.31c-1.714,2.467-2.62,5.363-2.62,8.376c0,0.738,0.598,1.336,1.336,1.336h42.073
					c0.738,0,1.336-0.598,1.336-1.336C49.197,50.953,48.291,48.058,46.577,45.591z M7.196,52.632c0.456-4.18,3.038-7.791,6.884-9.57
					c3.67,2.731,8.165,4.228,12.745,4.228s9.074-1.496,12.745-4.228c3.845,1.779,6.427,5.391,6.883,9.57H7.196z"/>
			</g>
		</g>
	</g>
	<g>
		<g>
			<path d="M66.671,18.972l7.031,1.655l-1.393,3.197l-7.934-1.867c-0.326-0.077-0.617-0.211-0.875-0.402
				c-0.258-0.192-0.465-0.419-0.624-0.678c-0.16-0.26-0.268-0.551-0.321-0.877c-0.054-0.324-0.042-0.65,0.035-0.978l2.122-9.018
				c0.077-0.327,0.211-0.62,0.402-0.88c0.191-0.258,0.417-0.469,0.675-0.63c0.259-0.161,0.545-0.27,0.861-0.327
				c0.316-0.057,0.637-0.047,0.963,0.029l8.586,2.021l-1.475,3.228l-6.4-1.507L66.671,18.972z"/>
			<path d="M88.938,13.216c0.326,0.077,0.617,0.212,0.875,0.403c0.26,0.193,0.472,0.419,0.641,0.681
				c0.168,0.262,0.28,0.551,0.337,0.868c0.056,0.318,0.046,0.641-0.031,0.967l-2.122,9.018c-0.077,0.327-0.213,0.624-0.406,0.891
				c-0.194,0.267-0.425,0.479-0.691,0.639c-0.268,0.158-0.559,0.268-0.877,0.324c-0.316,0.057-0.637,0.046-0.963-0.03l-6.482-1.525
				c-0.326-0.077-0.619-0.212-0.877-0.403c-0.258-0.192-0.467-0.419-0.627-0.678c-0.16-0.26-0.269-0.552-0.322-0.878
				c-0.056-0.324-0.044-0.651,0.033-0.978l2.122-9.018c0.077-0.327,0.211-0.62,0.403-0.879s0.419-0.469,0.678-0.63
				s0.547-0.27,0.863-0.326c0.316-0.058,0.639-0.048,0.965,0.029L88.938,13.216z M86.663,16.256l-3.504-0.825l-1.654,7.032
				l3.504,0.824L86.663,16.256z"/>
			<path d="M104.589,16.875c0.327,0.076,0.62,0.212,0.879,0.404s0.472,0.423,0.639,0.692s0.278,0.563,0.335,0.88
				c0.057,0.318,0.048,0.641-0.029,0.967l-2.122,9.018c-0.077,0.327-0.213,0.619-0.405,0.879c-0.192,0.259-0.423,0.472-0.692,0.638
				c-0.27,0.167-0.563,0.279-0.881,0.336c-0.316,0.057-0.639,0.046-0.967-0.031l-8.875-2.089l2.446-10.396l-1.005-0.236l1.404-3.244
				L104.589,16.875z M102.274,19.904l-3.504-0.824l-1.649,7.008l3.504,0.825L102.274,19.904z"/>
			<path d="M112.655,29.744l6.751,1.589l-1.405,3.245l-9.998-2.354l3.244-13.783l10.635,2.479l-1.428,3.238l-6.145-1.445
				l-0.429,1.822l5.7,1.342l-1.265,3.276l-5.232-1.231L112.655,29.744z"/>
			<path d="M137.48,24.615l-3.243,13.783l-3.854-0.907l-1.997-7.127l-1.485,6.308l-3.854-0.906l2.451-10.42l-0.98-0.23l1.405-3.244
				l4.222,1.019l2.058,6.869l1.424-6.05L137.48,24.615z"/>
			<path d="M146.813,39.337l-3.784-0.891l-0.918,1.806l-4.135-0.974l5.652-9.666l-0.957-0.226l1.404-3.244l5.974,1.432l0.892,14.756
				l-4.064-0.957L146.813,39.337z M146.75,36.043l-0.105-4.686l-2.114,4.163L146.75,36.043z"/>
			<path d="M170.514,32.39l-3.243,13.783l-3.855-0.907l1.529-6.494l-4.135,4.943l-0.047-0.011l-1.396-6.271l-1.533,6.518
				l-3.855-0.906l2.453-10.42l-0.982-0.23l1.429-3.238l4.199,1.013l1.573,5.621l3.986-4.313L170.514,32.39z"/>
			<path d="M176.15,44.688l6.751,1.589l-1.404,3.245l-9.998-2.354l3.243-13.783l10.634,2.479l-1.428,3.238l-6.143-1.445l-0.43,1.822
				l5.699,1.342l-1.265,3.276l-5.231-1.231L176.15,44.688z"/>
			<path d="M188.425,39.145c0.077-0.327,0.212-0.623,0.406-0.891c0.193-0.266,0.42-0.48,0.678-0.642s0.545-0.271,0.861-0.327
				s0.635-0.048,0.961,0.029l8.168,1.922l-1.405,3.244l-6.051-1.424l-0.352,1.495l4.88,1.789c0.273,0.098,0.537,0.233,0.792,0.408
				c0.255,0.176,0.466,0.39,0.637,0.644s0.294,0.533,0.37,0.838c0.076,0.307,0.076,0.623-0.001,0.95l-0.853,3.62
				c-0.077,0.328-0.212,0.62-0.403,0.879c-0.191,0.26-0.42,0.469-0.687,0.628s-0.557,0.268-0.873,0.325
				c-0.316,0.057-0.637,0.047-0.961-0.029l-8.4-1.978l1.393-3.197l6.309,1.484l0.362-1.542l-4.95-1.806
				c-0.063-0.015-0.208-0.073-0.439-0.178c-0.229-0.104-0.463-0.265-0.698-0.485c-0.237-0.22-0.424-0.51-0.56-0.871
				c-0.137-0.36-0.144-0.806-0.02-1.336L188.425,39.145z"/>
		</g>
		<path fill="none" stroke="#000000" stroke-width="0.5" stroke-miterlimit="10" d="M199.401,54.737
			c-0.315,1.338-1.655,2.168-2.993,1.853L61.089,24.743c-1.339-0.315-2.169-1.655-1.854-2.993l3.701-15.729
			c0.315-1.338,1.656-2.168,2.994-1.853L201.25,36.016c1.339,0.314,2.167,1.654,1.853,2.992L199.401,54.737z"/>
	</g>
</g>
<g id="hand_switch">
</g>
<g id="make_a_rule">
</g>
<g id="no_guts_no_glory">
</g>
<g id="pass">
</g>
<g id="santa">
</g>
<g id="snake_eyes">
</g>
<g id="bodyguard">
</g>
<g id="threeman">
</g>
<g id="_x32__truths_and_a_lie">
</g>
<g id="cray_cray_cat_lady">
</g>
<g id="siblings">
</g>
<g id="later">
</g>
<g id="waterfall">
</g>
<g id="cheers">
</g>
<g id="rhyme">
</g>
<g id="categories">
</g>
<g id="tits">
</g>
<g id="dicks">
</g>
<g id="questions">
</g>
<g id="double_hands">
</g>
<g id="take_2">
</g>
<g id="take_3">
</g>
<g id="give_3">
</g>
<g id="give_2">
</g>
<g id="rewind">
</g>
<g id="Cryptkeeper">
</g>
<g id="Take_2_and_Redo">
</g>
<g id="Embryo">
</g>
<g id="I_am_Groot">
</g>
<g id="Mini_Me">
</g>
<g id="Ditto_1_">
</g>
</svg>
