<?xml version="1.0" encoding="utf-8"?>
<!-- Generator: Adobe Illustrator 16.0.0, SVG Export Plug-In . SVG Version: 6.00 Build 0)  -->
<!DOCTYPE svg PUBLIC "-//W3C//DTD SVG 1.1//EN" "http://www.w3.org/Graphics/SVG/1.1/DTD/svg11.dtd">
<svg version="1.1" id="Layer_1" xmlns="http://www.w3.org/2000/svg" xmlns:xlink="http://www.w3.org/1999/xlink" x="0px" y="0px"
	 width="209.76px" height="62.359px" viewBox="0 0 209.76 62.359" enable-background="new 0 0 209.76 62.359" xml:space="preserve">
<g>
	<path d="M2.686,28.115c0.251-0.972,0.413-1.962,0.486-2.97c0.071-1.008,0.197-1.998,0.378-2.971
		c0.18-1.223,0.594-2.564,1.242-4.022c0.647-1.458,1.466-2.809,2.456-4.05c0.99-1.242,2.115-2.286,3.375-3.133
		c1.26-0.845,2.593-1.269,3.996-1.269c0.828,0,1.692,0.171,2.593,0.513c0.899,0.343,1.691,0.748,2.376,1.215
		c0.359,0.217,0.701,0.514,1.025,0.892s0.72,0.566,1.188,0.566c0.287,0,0.504-0.143,0.647-0.432
		c0.144-0.288,0.315-0.611,0.514-0.972c0.197-0.359,0.459-0.684,0.782-0.973c0.324-0.287,0.811-0.432,1.458-0.432
		c0.54,0,0.973,0.145,1.296,0.432c0.324,0.289,0.486,0.721,0.486,1.297v5.939c-0.107,0.396-0.181,1.026-0.216,1.89
		c-0.036,0.864-0.127,1.737-0.271,2.619c-0.144,0.883-0.396,1.656-0.756,2.322c-0.36,0.667-0.937,0.999-1.728,0.999
		c-0.721,0-1.233-0.243-1.539-0.729c-0.307-0.485-0.55-1.106-0.729-1.862s-0.359-1.557-0.54-2.403
		c-0.18-0.846-0.495-1.646-0.944-2.403c-0.451-0.756-1.099-1.377-1.944-1.862c-0.846-0.486-2.007-0.729-3.482-0.729
		c-1.729,0-3.07,0.559-4.023,1.674c-0.954,1.116-1.684,2.467-2.187,4.051c-0.145,0.396-0.235,0.72-0.271,0.972
		c-0.036,0.252-0.072,0.468-0.108,0.647c-0.036,0.181-0.09,0.37-0.161,0.567c-0.073,0.198-0.181,0.459-0.324,0.783v10.368
		c0,0.828,0.18,1.791,0.54,2.889c0.359,1.099,0.845,2.143,1.458,3.132c0.611,0.991,1.35,1.828,2.214,2.511
		c0.864,0.685,1.817,1.026,2.862,1.026c1.043,0,1.979-0.251,2.808-0.756c0.828-0.504,1.529-1.151,2.105-1.944
		c0.576-0.791,1.018-1.691,1.323-2.699s0.459-1.998,0.459-2.971c0-0.144,0-0.359,0-0.647c0-0.324-0.019-0.504-0.054-0.54
		L21.1,34.217c-0.469-0.035-0.964-0.099-1.485-0.188c-0.522-0.09-1.008-0.234-1.458-0.433c-0.45-0.197-0.819-0.467-1.106-0.81
		c-0.289-0.342-0.433-0.818-0.433-1.431s0.18-1.206,0.54-1.782c0.359-0.575,0.882-0.864,1.566-0.864
		c1.151,0,2.304,0.108,3.456,0.324c1.151,0.216,2.304,0.324,3.456,0.324c0.504,0,0.999-0.036,1.484-0.108
		c0.486-0.071,0.98-0.107,1.485-0.107c0.432,0,0.854,0.026,1.269,0.08c0.414,0.055,0.783,0.162,1.107,0.324s0.585,0.396,0.783,0.702
		c0.197,0.307,0.297,0.711,0.297,1.215c0,0.685-0.171,1.215-0.513,1.593c-0.343,0.379-0.774,0.648-1.296,0.811
		c-0.522,0.162-1.08,0.262-1.675,0.297c-0.594,0.036-1.125,0.054-1.593,0.054c-0.181,0.073-0.297,0.253-0.351,0.54
		c-0.055,0.289-0.081,0.469-0.081,0.54v6.103c-0.145,0.396-0.216,0.774-0.216,1.134c0,0.324,0,0.685,0,1.08
		c0,0.468,0.035,0.909,0.107,1.323s0.108,0.837,0.108,1.269c0,0.792-0.234,1.53-0.702,2.214c-0.469,0.685-1.116,1.026-1.944,1.026
		c-0.468,0-0.837-0.108-1.106-0.324c-0.271-0.216-0.495-0.459-0.675-0.729c-0.181-0.271-0.343-0.514-0.486-0.729
		c-0.145-0.216-0.324-0.324-0.54-0.324c-0.324,0-0.657,0.091-0.999,0.271c-0.343,0.181-0.693,0.387-1.053,0.621
		c-0.36,0.234-0.702,0.468-1.026,0.702s-0.648,0.404-0.972,0.513c-0.396,0.181-0.756,0.261-1.08,0.243
		c-0.324-0.019-0.702-0.027-1.134-0.027c-1.333,0-2.602-0.288-3.808-0.864c-1.206-0.575-2.295-1.331-3.267-2.268
		c-0.973-0.936-1.81-1.998-2.511-3.187c-0.702-1.188-1.197-2.394-1.485-3.617c-0.289-0.973-0.478-1.962-0.567-2.971
		c-0.09-1.007-0.262-1.998-0.513-2.97V28.115z"/>
	<path d="M34.383,44.639c0.756-0.503,1.602-0.756,2.538-0.756c0.504,0,0.999,0.046,1.485,0.136c0.485,0.09,0.98,0.135,1.484,0.135
		c0.036,0,0.198-0.009,0.486-0.027c0.288-0.018,0.575-0.054,0.864-0.107c0.287-0.055,0.558-0.126,0.81-0.217
		c0.252-0.089,0.378-0.188,0.378-0.297V19.637c0.18-0.359,0.288-0.675,0.324-0.944c0.035-0.271,0.054-0.585,0.054-0.945
		c0-0.071-0.009-0.188-0.026-0.351c-0.019-0.162-0.027-0.261-0.027-0.297l-0.216-0.324h-5.725c-0.396,0-0.792-0.099-1.188-0.297
		c-0.396-0.198-0.756-0.459-1.08-0.783s-0.594-0.684-0.81-1.08c-0.217-0.396-0.324-0.792-0.324-1.188
		c0-0.432,0.107-0.827,0.324-1.188c0.216-0.359,0.494-0.666,0.837-0.918c0.342-0.252,0.729-0.44,1.161-0.567
		c0.432-0.126,0.845-0.188,1.241-0.188c0.288,0,0.531,0.009,0.729,0.026c0.197,0.019,0.477,0.117,0.837,0.297h8.64
		c0.576,0.324,1.368,0.469,2.376,0.433c1.008-0.035,1.998-0.018,2.971,0.054c0.972,0.072,1.809,0.289,2.511,0.648
		c0.702,0.36,1.053,1.099,1.053,2.214c0,1.044-0.315,1.72-0.945,2.024c-0.63,0.307-1.413,0.459-2.349,0.459
		c-0.685,0-1.332-0.044-1.944-0.135c-0.612-0.089-1.26-0.135-1.943-0.135h-1.08l-0.216,0.216v9.072
		c0.107,0.396,0.17,0.711,0.188,0.945c0.018,0.234,0.027,0.531,0.027,0.891c0,0.324-0.01,0.612-0.027,0.864
		c-0.019,0.252-0.081,0.559-0.188,0.918v14.147l0.647,0.702h5.238c0.324,0,0.666,0.072,1.026,0.216
		c0.359,0.145,0.683,0.334,0.972,0.567c0.288,0.234,0.53,0.513,0.729,0.837s0.298,0.648,0.298,0.972
		c0,1.045-0.405,1.846-1.216,2.403c-0.81,0.558-1.683,0.837-2.618,0.837h-7.398c-0.469-0.181-1.035-0.262-1.701-0.243
		c-0.666,0.018-1.197,0.027-1.593,0.027c-0.829,0-1.603,0.035-2.322,0.107c-0.721,0.072-1.494,0.108-2.322,0.108
		c-0.504,0-0.999-0.046-1.484-0.135c-0.486-0.091-0.928-0.252-1.323-0.486c-0.396-0.233-0.711-0.548-0.945-0.945
		c-0.234-0.396-0.351-0.899-0.351-1.512C33.249,45.917,33.627,45.144,34.383,44.639z"/>
	<path d="M62.085,15.911c-0.54-0.035-1.071-0.09-1.593-0.162c-0.522-0.071-0.999-0.207-1.431-0.405
		c-0.433-0.197-0.774-0.494-1.026-0.891c-0.252-0.396-0.378-0.936-0.378-1.62c0-0.575,0.197-1.125,0.594-1.646
		c0.396-0.521,0.899-0.783,1.513-0.783h9.504c0.72,0,1.296,0.279,1.728,0.837c0.432,0.559,0.648,1.161,0.648,1.809
		c0,0.613-0.117,1.08-0.352,1.404s-0.531,0.576-0.891,0.756c-0.36,0.181-0.766,0.315-1.215,0.405
		c-0.451,0.09-0.91,0.188-1.377,0.297c-0.145,0-0.217,0.072-0.217,0.216l2.862,10.962v1.513l2.646,10.098
		c0.071,0.252,0.197,0.468,0.378,0.647c0.18-0.071,0.332-0.242,0.459-0.513c0.125-0.27,0.188-0.44,0.188-0.513l2.971-11.826
		c0.071-1.331,0.278-2.619,0.62-3.861c0.342-1.241,0.693-2.492,1.054-3.753c0.18-0.611,0.297-1.025,0.351-1.242
		c0.054-0.216,0.081-0.558,0.081-1.025c0-0.072,0.009-0.197,0.027-0.378c0.018-0.18-0.063-0.288-0.243-0.324
		c-0.937,0-1.773-0.314-2.511-0.945c-0.738-0.629-1.107-1.412-1.107-2.349c0-0.611,0.197-1.134,0.594-1.566
		c0.396-0.432,0.918-0.647,1.566-0.647h6.966c0.432,0,0.899,0.054,1.404,0.162c0.504,0.107,0.98,0.279,1.431,0.513
		c0.45,0.234,0.828,0.531,1.134,0.891c0.306,0.36,0.459,0.793,0.459,1.296c0,0.577-0.107,1.036-0.323,1.378
		c-0.217,0.342-0.496,0.594-0.838,0.756s-0.747,0.279-1.215,0.351c-0.468,0.072-0.937,0.127-1.403,0.162
		c-0.505,0.396-0.864,0.883-1.08,1.458c-0.576,2.376-1.126,4.707-1.647,6.993c-0.522,2.286-1.106,4.617-1.755,6.993
		c-0.252,0.937-0.478,1.936-0.675,2.997c-0.198,1.062-0.531,2.024-0.999,2.889l-2.106,9.936c-0.144,0.54-0.531,1.063-1.161,1.566
		c-0.63,0.505-1.269,0.756-1.917,0.756c-0.612,0-1.241-0.188-1.89-0.566c-0.647-0.379-1.17-0.819-1.565-1.323
		c-0.289-0.359-0.505-0.756-0.648-1.188c-0.145-0.432-0.243-0.882-0.297-1.35s-0.1-0.936-0.135-1.404
		c-0.037-0.468-0.108-0.918-0.217-1.35c-0.396-2.053-0.891-4.059-1.484-6.021c-0.594-1.962-1.144-3.969-1.647-6.021
		c-0.181-0.648-0.288-1.314-0.324-1.998s-0.144-1.351-0.323-1.998c0-0.072-0.046-0.243-0.136-0.513
		c-0.09-0.271-0.188-0.559-0.297-0.864c-0.107-0.306-0.207-0.594-0.297-0.864c-0.09-0.27-0.135-0.44-0.135-0.513
		c-0.036-0.144-0.117-0.495-0.243-1.054c-0.126-0.558-0.252-1.16-0.378-1.809c-0.127-0.648-0.252-1.25-0.378-1.809
		c-0.127-0.558-0.208-0.909-0.243-1.054c-0.107-0.396-0.216-0.764-0.324-1.106C62.733,16.353,62.48,16.092,62.085,15.911z"/>
	<path d="M92.757,46.097c0.071-0.396,0.188-0.756,0.351-1.079c0.162-0.324,0.387-0.585,0.675-0.783
		c0.288-0.197,0.666-0.297,1.134-0.297h0.324c0.072,0.036,0.278,0.081,0.621,0.135c0.342,0.054,0.549,0.081,0.621,0.081h0.108
		c0.18,0,0.423-0.018,0.729-0.054s0.621-0.081,0.945-0.136c0.324-0.054,0.629-0.107,0.918-0.162
		c0.287-0.054,0.521-0.081,0.702-0.081c0.216-0.143,0.378-0.404,0.485-0.782c0.108-0.378,0.162-0.676,0.162-0.892l-0.107-12.689
		v-1.026l-0.108-7.397c0.18-0.468,0.261-0.999,0.243-1.594c-0.019-0.594-0.027-1.106-0.027-1.539v-1.35l-0.432-0.378
		c-0.036-0.035-0.181-0.054-0.432-0.054c-0.253,0-0.451,0-0.595,0c-0.612,0-1.197,0.045-1.755,0.135
		c-0.559,0.09-1.144,0.135-1.755,0.135c-0.972,0-1.765-0.216-2.376-0.647c-0.612-0.433-0.918-1.17-0.918-2.215
		c0-0.863,0.251-1.593,0.756-2.187c0.504-0.594,1.224-0.891,2.16-0.891c4.392,0,8.766,0.045,13.122,0.135
		c4.355,0.09,8.729,0.117,13.122,0.081c0.54,0.072,0.989,0.414,1.35,1.025c0.359,0.613,0.54,1.188,0.54,1.729v11.394
		c0,0.648-0.234,1.171-0.702,1.566c-0.468,0.396-1.008,0.594-1.62,0.594c-0.504,0-0.999-0.18-1.484-0.54
		c-0.486-0.359-0.729-0.827-0.729-1.404v-5.724c0-0.035-0.117-0.27-0.351-0.702c-0.234-0.432-0.424-0.756-0.567-0.972
		c-0.181-0.216-0.478-0.513-0.891-0.892c-0.414-0.378-0.766-0.566-1.053-0.566h-10.314l-0.216,0.216c0,0.216-0.01,0.621-0.027,1.215
		c-0.019,0.594-0.045,1.215-0.081,1.863c-0.036,0.647-0.063,1.261-0.081,1.836c-0.019,0.576-0.026,0.972-0.026,1.188
		c0,0.072-0.036,0.288-0.108,0.647c-0.072,0.36-0.107,0.576-0.107,0.648v0.107v0.055c0.035,0.18,0.071,0.404,0.107,0.675
		c0.035,0.27,0.081,0.522,0.135,0.756c0.055,0.234,0.117,0.531,0.189,0.891l0.216,0.216h2.754c0.396-0.287,0.837-0.521,1.323-0.701
		s0.872-0.504,1.161-0.973c0.251-0.396,0.396-0.926,0.432-1.593c0.035-0.666,0.09-1.323,0.162-1.971
		c0.071-0.648,0.233-1.206,0.486-1.674c0.251-0.468,0.737-0.702,1.458-0.702c0.575,0,1.043,0.207,1.403,0.621
		c0.359,0.414,0.54,0.927,0.54,1.539v17.712c0,1.152-0.559,1.728-1.674,1.728c-0.721,0-1.261-0.225-1.62-0.675
		c-0.36-0.45-0.612-0.99-0.756-1.62c-0.145-0.63-0.216-1.287-0.216-1.971s0-1.242,0-1.674c-0.072-0.181-0.216-0.45-0.432-0.811
		c-0.217-0.359-0.478-0.71-0.783-1.053c-0.307-0.342-0.612-0.648-0.918-0.918c-0.307-0.271-0.567-0.405-0.783-0.405h-2.322
		c-0.144,0-0.216,0.072-0.216,0.216c-0.072,0.073-0.145,0.216-0.216,0.433v11.825l0.432,0.433h5.454
		c0.864-0.252,1.647-0.369,2.35-0.352c0.701,0.019,1.35,0.01,1.943-0.026s1.143-0.189,1.647-0.459
		c0.504-0.271,0.989-0.837,1.458-1.701c0.071-0.108,0.162-0.278,0.27-0.513c0.108-0.234,0.162-0.405,0.162-0.514v-5.292
		c0-0.611,0.216-1.151,0.648-1.62c0.432-0.467,0.953-0.701,1.565-0.701c0.756,0,1.368,0.351,1.836,1.053s0.702,1.396,0.702,2.079
		v7.397c0.18,0.396,0.278,0.729,0.297,0.999c0.018,0.271,0.027,0.604,0.027,0.999c0,1.332-0.396,2.358-1.188,3.078
		c-0.792,0.721-1.836,1.08-3.132,1.08c-0.396,0-0.774,0-1.134,0c-0.324,0-0.685-0.071-1.08-0.216H99.669
		c-0.469,0.181-0.991,0.261-1.566,0.243c-0.576-0.019-1.08-0.027-1.512-0.027c-0.505,0-0.991-0.009-1.458-0.027
		c-0.469-0.018-0.892-0.107-1.27-0.27s-0.675-0.405-0.891-0.729c-0.216-0.323-0.324-0.791-0.324-1.403
		C92.648,46.872,92.684,46.494,92.757,46.097z"/>
</g>
<g>
	<g>
		<g>
			<g>
				<path d="M136.271,8.684c10.3,0,20.601,0,30.9,0c0.645,0,1.288,0,1.933,0c0.743,0-0.16-1.185-0.344-0.452
					c-0.494,1.964-0.988,3.928-1.482,5.893c-1.59,6.322-3.18,12.646-4.771,18.968c-0.817,3.254-1.269,7.324-3.417,10.027
					c-3.675,4.624-11.852,2.811-13.99-2.314c-0.362-0.869-0.518-1.901-0.743-2.81c-2.495-10.034-4.989-20.068-7.483-30.103
					c-0.194-0.782-1.399-0.45-1.205,0.332c2.065,8.31,4.131,16.62,6.197,24.93c1.673,6.729,2.463,13.183,10.947,13.76
					c8.174,0.557,9.41-7.564,10.9-13.49c2.112-8.399,4.225-16.799,6.337-25.199c0.099-0.393-0.189-0.791-0.603-0.791
					c-11.059,0-22.118,0-33.177,0C135.465,7.434,135.465,8.684,136.271,8.684z"/>
			</g>
		</g>
		<g>
			<g>
				<path d="M143.739,40.59c0,4.229,0,8.456,0,12.685c0,0.341,0.284,0.625,0.625,0.625c5.604,0,11.208,0,16.812,0
					c0.341,0,0.625-0.284,0.625-0.625c0-4.166,0-8.333,0-12.499c0-0.806-1.25-0.806-1.25,0c0,3.815,0,7.631,0,11.445
					c0,1.439-0.192,0.429,0.591,0.429c-0.489,0-0.979,0-1.467,0c-2.302,0-4.604,0-6.904,0c-2.162,0-4.323,0-6.484,0
					c-0.596,0-1.191,0-1.787,0c0.542,0,0.49,1.046,0.49-0.376c0-3.895,0-7.789,0-11.684
					C144.989,39.784,143.739,39.784,143.739,40.59L143.739,40.59z"/>
			</g>
		</g>
	</g>
	<g>
		<g>
			<path d="M142.024,18.032h21.492l-5.121,20.36c0,0-0.714,4.466-5.655,4.406c-4.941-0.061-5.596-4.167-5.596-4.167L142.024,18.032z
				"/>
		</g>
	</g>
</g>
<g>
	<g>
		<g>
			<g>
				<path d="M172.438,8.683c10.3,0,20.601,0,30.9,0c0.645,0,1.288,0,1.933,0c0.743,0-0.16-1.185-0.344-0.452
					c-0.494,1.964-0.988,3.928-1.482,5.893c-1.59,6.322-3.18,12.646-4.77,18.968c-0.818,3.254-1.27,7.324-3.418,10.027
					c-3.674,4.624-11.852,2.811-13.99-2.314c-0.362-0.869-0.518-1.902-0.743-2.81c-2.495-10.034-4.989-20.068-7.483-30.103
					c-0.194-0.782-1.399-0.45-1.205,0.332c2.065,8.31,4.131,16.62,6.197,24.93c1.673,6.729,2.463,13.183,10.947,13.76
					c8.174,0.557,9.41-7.564,10.9-13.49c2.112-8.399,4.225-16.799,6.337-25.199c0.099-0.393-0.189-0.791-0.603-0.791
					c-11.059,0-22.118,0-33.177,0C171.632,7.433,171.632,8.683,172.438,8.683z"/>
			</g>
		</g>
		<g>
			<g>
				<path d="M179.906,40.589c0,4.229,0,8.456,0,12.685c0,0.341,0.284,0.625,0.625,0.625c5.604,0,11.208,0,16.812,0
					c0.341,0,0.625-0.284,0.625-0.625c0-4.166,0-8.333,0-12.499c0-0.806-1.25-0.806-1.25,0c0,3.815,0,7.631,0,11.445
					c0,1.439-0.191,0.429,0.591,0.429c-0.489,0-0.979,0-1.467,0c-2.302,0-4.604,0-6.905,0c-2.161,0-4.322,0-6.483,0
					c-0.596,0-1.191,0-1.787,0c0.542,0,0.49,1.046,0.49-0.376c0-3.895,0-7.789,0-11.684
					C181.156,39.783,179.906,39.783,179.906,40.589L179.906,40.589z"/>
			</g>
		</g>
	</g>
	<g>
		<g>
			<path d="M178.191,18.031h21.492l-5.121,20.36c0,0-0.714,4.466-5.655,4.406c-4.941-0.061-5.596-4.167-5.596-4.167L178.191,18.031z
				"/>
		</g>
	</g>
</g>
</svg>
