<?xml version="1.0" encoding="utf-8"?>
<!-- Generator: Adobe Illustrator 16.0.0, SVG Export Plug-In . SVG Version: 6.00 Build 0)  -->
<!DOCTYPE svg PUBLIC "-//W3C//DTD SVG 1.1//EN" "http://www.w3.org/Graphics/SVG/1.1/DTD/svg11.dtd">
<svg version="1.1" xmlns="http://www.w3.org/2000/svg" xmlns:xlink="http://www.w3.org/1999/xlink" x="0px" y="0px"
	 width="209.759px" height="62.361px" viewBox="0 0 209.759 62.361" enable-background="new 0 0 209.759 62.361"
	 xml:space="preserve">
<g id="Layer_1">
</g>
<g id="Hat">
</g>
<g id="Compliments">
</g>
<g id="HAT">
</g>
<g id="speech">
</g>
<g id="TREX_ARMS">
</g>
<g id="Layer_7">
</g>
<g id="TIMEOUT">
</g>
<g id="Layer_9">
</g>
<g id="ARM_WRESTLE">
</g>
<g id="musical_chairs">
</g>
<g id="never_have_i_ever">
</g>
<g id="Trivia">
</g>
<g id="Layer_14">
</g>
<g id="Layer_15">
</g>
<g id="Layer_16">
</g>
<g id="Layer_17">
</g>
<g id="Heads_up">
</g>
<g id="Archenemy">
</g>
<g id="battle_of_the_sexes">
</g>
<g id="one_must_drink">
</g>
<g id="rainbow_connection">
</g>
<g id="social_drinking">
</g>
<g id="Spin_the_bottle">
</g>
<g id="accents">
</g>
<g id="Slap">
</g>
<g id="Layer_22">
</g>
<g id="Layer_19">
	<g>
		<g>
			<g>
				<g>
					<path d="M68.584,18.724c6.098,0,12.195,0,18.292,0c2.025,0,0.893,0.206,1.13-0.736c-0.244,0.971-0.488,1.94-0.732,2.911
						c-0.974,3.872-1.947,7.744-2.921,11.615c-0.452,1.798-0.74,3.782-1.466,5.502c-1.633,3.868-7.864,3.092-8.905-0.77
						c-0.159-0.59-0.291-1.189-0.438-1.781c-1.453-5.844-2.905-11.688-4.358-17.532c-0.194-0.782-1.4-0.45-1.205,0.332
						c1.301,5.233,2.602,10.467,3.902,15.7c1.019,4.1,1.731,7.371,6.692,7.851c4.688,0.453,5.756-4.089,6.622-7.532
						c1.343-5.34,2.685-10.679,4.028-16.019c0.099-0.393-0.189-0.791-0.603-0.791c-6.68,0-13.359,0-20.039,0
						C67.778,17.474,67.778,18.724,68.584,18.724z"/>
				</g>
			</g>
			<g>
				<g>
					<path d="M72.847,37.748c0,2.554,0,5.107,0,7.661c0,0.341,0.284,0.625,0.625,0.625c3.385,0,6.77,0,10.155,0
						c0.341,0,0.625-0.284,0.625-0.625c0-2.517,0-5.032,0-7.549c0-0.806-1.25-0.806-1.25,0c0,2.517,0,5.032,0,7.549
						c0.208-0.208,0.417-0.417,0.625-0.625c-3.385,0-6.77,0-10.155,0c0.208,0.208,0.417,0.417,0.625,0.625c0-2.554,0-5.107,0-7.661
						C74.097,36.942,72.847,36.942,72.847,37.748L72.847,37.748z"/>
				</g>
			</g>
		</g>
		<g>
			<g>
				<path d="M72.059,24.123h12.981l-3.093,12.298c0,0-0.431,2.697-3.417,2.661c-2.984-0.036-3.379-2.517-3.379-2.517L72.059,24.123z
					"/>
				<g>
					<path d="M72.059,24.748c4.327,0,8.654,0,12.981,0c-0.201-0.264-0.402-0.527-0.603-0.791c-0.659,2.619-1.317,5.238-1.977,7.857
						c-0.612,2.434-0.73,6.414-3.93,6.643c-3.18,0.228-3.462-4.814-3.974-6.876c-0.632-2.541-1.264-5.083-1.896-7.624
						c-0.194-0.782-1.4-0.45-1.205,0.332c0.843,3.391,1.685,6.78,2.528,10.171c0.686,2.758,1.218,4.926,4.547,5.247
						c3.148,0.305,3.917-2.715,4.502-5.042c0.87-3.458,1.74-6.917,2.609-10.376c0.099-0.393-0.189-0.791-0.603-0.791
						c-4.327,0-8.654,0-12.981,0C71.253,23.498,71.253,24.748,72.059,24.748z"/>
				</g>
			</g>
		</g>
	</g>
	<g>
		<g>
			<g>
				<g>
					<path d="M98.068,18.572c6.098,0,12.195,0,18.293,0c2.025,0,0.893,0.206,1.13-0.736c-0.244,0.971-0.488,1.94-0.732,2.911
						c-0.974,3.872-1.947,7.743-2.921,11.615c-0.453,1.798-0.74,3.782-1.466,5.502c-1.632,3.868-7.863,3.093-8.905-0.769
						c-0.159-0.59-0.291-1.189-0.438-1.781c-1.453-5.845-2.905-11.689-4.358-17.533c-0.194-0.782-1.4-0.45-1.205,0.332
						c1.301,5.233,2.602,10.467,3.902,15.7c1.019,4.101,1.731,7.371,6.692,7.851c4.688,0.453,5.756-4.089,6.622-7.532
						c1.343-5.34,2.686-10.679,4.028-16.019c0.099-0.393-0.189-0.791-0.603-0.791c-6.68,0-13.36,0-20.04,0
						C97.262,17.322,97.262,18.572,98.068,18.572z"/>
				</g>
			</g>
			<g>
				<g>
					<path d="M102.331,37.597c0,2.554,0,5.107,0,7.661c0,0.341,0.284,0.625,0.625,0.625c3.385,0,6.77,0,10.155,0
						c0.341,0,0.625-0.284,0.625-0.625c0-2.517,0-5.032,0-7.549c0-0.806-1.25-0.806-1.25,0c0,2.517,0,5.032,0,7.549
						c0.208-0.208,0.417-0.417,0.625-0.625c-3.385,0-6.77,0-10.155,0c0.208,0.208,0.417,0.417,0.625,0.625c0-2.554,0-5.107,0-7.661
						C103.581,36.791,102.331,36.791,102.331,37.597L102.331,37.597z"/>
				</g>
			</g>
		</g>
		<g>
			<g>
				<path d="M101.543,23.972h12.981l-3.093,12.299c0,0-0.431,2.696-3.416,2.66c-2.984-0.035-3.38-2.517-3.38-2.517L101.543,23.972z"
					/>
				<g>
					<path d="M101.543,24.597c4.327,0,8.654,0,12.981,0c-0.201-0.264-0.402-0.527-0.603-0.791c-0.659,2.619-1.317,5.239-1.977,7.858
						c-0.611,2.431-0.735,6.413-3.93,6.642c-3.18,0.228-3.462-4.814-3.975-6.876c-0.632-2.541-1.264-5.083-1.896-7.624
						c-0.194-0.782-1.4-0.45-1.205,0.332c0.843,3.391,1.685,6.78,2.528,10.171c0.686,2.758,1.218,4.926,4.547,5.247
						c3.15,0.304,3.917-2.713,4.502-5.041c0.87-3.459,1.74-6.918,2.609-10.377c0.099-0.393-0.189-0.791-0.603-0.791
						c-4.327,0-8.654,0-12.981,0C100.737,23.347,100.737,24.597,101.543,24.597z"/>
				</g>
			</g>
		</g>
	</g>
	<g>
		<path d="M9.147,36.906c0.015-0.138,0.046-0.271,0.092-0.402c0.046-0.13,0.111-0.241,0.196-0.333
			c0.084-0.092,0.195-0.138,0.333-0.138h2.162l0.276-0.3V24.303l-0.092-0.092c-0.031-0.016-0.092-0.026-0.184-0.035
			c-0.092-0.007-0.154-0.011-0.184-0.011c-0.046,0-0.126,0.004-0.242,0.011c-0.115,0.009-0.188,0.02-0.218,0.035
			c-0.506,0.123-0.871,0.333-1.093,0.632c-0.222,0.3-0.372,0.629-0.448,0.989c-0.077,0.36-0.111,0.732-0.104,1.115
			c0.007,0.384-0.004,0.732-0.035,1.047s-0.123,0.575-0.276,0.782c-0.153,0.207-0.422,0.311-0.805,0.311
			c-0.307,0-0.537-0.146-0.69-0.438c-0.153-0.291-0.23-0.574-0.23-0.851v-4.416c0-0.107,0.027-0.237,0.081-0.391
			s0.126-0.303,0.218-0.449c0.092-0.146,0.196-0.271,0.311-0.379c0.115-0.107,0.242-0.161,0.38-0.161h2.783
			c0.153-0.077,0.272-0.119,0.356-0.127c0.084-0.007,0.196-0.012,0.333-0.012c0.123,0,0.23,0.005,0.322,0.012
			c0.092,0.008,0.207,0.05,0.345,0.127h5.129c0.307,0,0.579,0.13,0.817,0.391c0.237,0.261,0.356,0.537,0.356,0.828v4.577
			c0,0.307-0.092,0.598-0.276,0.874c-0.184,0.276-0.437,0.414-0.759,0.414c-0.261,0-0.506-0.115-0.736-0.345
			c-0.23-0.23-0.345-0.483-0.345-0.76v-2.438c0-0.261-0.065-0.486-0.195-0.679c-0.13-0.191-0.299-0.353-0.506-0.483
			c-0.207-0.13-0.429-0.226-0.667-0.287s-0.464-0.092-0.678-0.092c-0.031,0-0.092,0.004-0.184,0.012s-0.146,0.011-0.161,0.011
			l-0.092,0.093c0,0.184-0.012,0.414-0.035,0.689c-0.023,0.276-0.065,0.521-0.126,0.736l0.046,2.254v0.46l0.115,7.383l0.184,0.185
			c0.245,0,0.537,0.008,0.874,0.022c0.337,0.016,0.655,0.065,0.955,0.149c0.299,0.085,0.552,0.219,0.759,0.402
			c0.207,0.185,0.311,0.46,0.311,0.828c0,0.215-0.046,0.396-0.138,0.541c-0.092,0.146-0.215,0.261-0.368,0.345
			c-0.154,0.084-0.326,0.146-0.518,0.184c-0.192,0.039-0.388,0.058-0.586,0.058c-0.292,0-0.572-0.05-0.84-0.149
			c-0.269-0.1-0.548-0.149-0.839-0.149c-0.491,0-0.958,0.077-1.403,0.23c-0.445,0.153-0.913,0.229-1.403,0.229
			c-0.169,0-0.379-0.03-0.632-0.092s-0.506-0.146-0.759-0.253c-0.253-0.107-0.468-0.241-0.644-0.402
			c-0.177-0.161-0.265-0.334-0.265-0.518C9.124,37.16,9.131,37.045,9.147,36.906z"/>
		<path d="M21.291,32.778c0.368-0.514,0.828-0.89,1.38-1.127c0.552-0.237,1.153-0.383,1.805-0.438
			c0.652-0.053,1.254-0.104,1.806-0.149c0.552-0.046,1.012-0.13,1.38-0.253c0.368-0.122,0.552-0.368,0.552-0.735
			c0-0.261-0.046-0.507-0.138-0.736c-0.092-0.23-0.261-0.414-0.506-0.552c-0.092-0.046-0.23-0.115-0.414-0.207
			c-0.184-0.093-0.284-0.139-0.299-0.139h-2.162c-0.123,0-0.207,0.065-0.253,0.196c-0.046,0.13-0.088,0.291-0.126,0.482
			c-0.039,0.192-0.081,0.402-0.126,0.633c-0.046,0.229-0.119,0.44-0.219,0.633c-0.1,0.191-0.246,0.353-0.437,0.482
			c-0.192,0.131-0.448,0.195-0.771,0.195c-0.491,0-0.894-0.161-1.208-0.482c-0.314-0.322-0.471-0.721-0.471-1.196
			c0-0.276,0.046-0.521,0.138-0.736c0.092-0.214,0.215-0.414,0.368-0.598c0.153-0.184,0.33-0.356,0.529-0.518
			s0.399-0.311,0.598-0.448c0.168-0.123,0.345-0.257,0.529-0.402c0.184-0.146,0.399-0.219,0.644-0.219l3.519,0.046
			c0.199,0,0.433,0.084,0.702,0.252c0.268,0.168,0.529,0.366,0.782,0.596c0.253,0.229,0.475,0.473,0.667,0.732
			c0.192,0.259,0.311,0.48,0.357,0.663c0.015,0.047,0.038,0.13,0.069,0.252c0.03,0.123,0.061,0.249,0.092,0.379
			c0.031,0.129,0.058,0.251,0.081,0.366c0.023,0.114,0.035,0.194,0.035,0.239v0.71c0,0.184,0.003,0.394,0.011,0.63
			s-0.027,0.446-0.104,0.63v3.868c0,0.428,0.184,0.642,0.552,0.642c0.245,0,0.398-0.107,0.46-0.322
			c0.061-0.214,0.115-0.456,0.161-0.725c0.046-0.268,0.119-0.509,0.218-0.724s0.311-0.322,0.633-0.322
			c0.168,0,0.314,0.046,0.437,0.138s0.222,0.207,0.299,0.345c0.077,0.139,0.13,0.288,0.161,0.449c0.03,0.16,0.046,0.318,0.046,0.471
			c0,0.338-0.054,0.676-0.161,1.013c-0.107,0.337-0.257,0.641-0.448,0.908c-0.192,0.269-0.43,0.487-0.713,0.655
			c-0.284,0.169-0.609,0.253-0.978,0.253c-0.292,0-0.544-0.034-0.759-0.104c-0.215-0.068-0.453-0.188-0.713-0.356
			c-0.092-0.046-0.173-0.118-0.242-0.218s-0.138-0.199-0.207-0.3c-0.069-0.1-0.146-0.188-0.23-0.264
			c-0.084-0.077-0.18-0.115-0.288-0.115h-0.115c-0.215,0.107-0.434,0.237-0.656,0.391s-0.448,0.303-0.678,0.448
			c-0.23,0.146-0.468,0.269-0.713,0.368c-0.246,0.101-0.499,0.149-0.759,0.149h-2.07c-0.169,0-0.314-0.042-0.437-0.126
			c-0.123-0.084-0.246-0.165-0.368-0.241c-0.629-0.368-1.085-0.824-1.369-1.369c-0.284-0.544-0.425-1.177-0.425-1.897
			C20.739,34.024,20.923,33.292,21.291,32.778z M22.602,35.389c0.046,0.169,0.111,0.334,0.196,0.494
			c0.084,0.161,0.188,0.296,0.311,0.403c0.123,0.107,0.26,0.16,0.414,0.16h2.346c0.015,0,0.065-0.022,0.149-0.068
			s0.157-0.084,0.219-0.115c0.03-0.03,0.104-0.076,0.218-0.138c0.115-0.062,0.188-0.1,0.219-0.115
			c0.567-0.383,0.951-0.782,1.15-1.196s0.299-0.95,0.299-1.609v-0.276c-0.015,0-0.046-0.012-0.092-0.034
			c-0.046-0.023-0.077-0.035-0.092-0.035c-0.016-0.015-0.031-0.022-0.046-0.022l-0.046,0.022c-0.046,0-0.172,0.02-0.379,0.058
			c-0.207,0.039-0.425,0.077-0.656,0.115c-0.23,0.038-0.448,0.077-0.655,0.115s-0.333,0.058-0.379,0.058
			c-0.368,0.062-0.74,0.107-1.116,0.138c-0.376,0.031-0.755,0.077-1.138,0.138c-0.2,0.016-0.376,0.139-0.529,0.368
			c-0.077,0.107-0.172,0.276-0.288,0.506c-0.115,0.23-0.172,0.43-0.172,0.599C22.533,35.074,22.556,35.22,22.602,35.389z"/>
		<path d="M34.815,37.252c0.031-0.139,0.077-0.276,0.138-0.414c0.061-0.138,0.13-0.257,0.207-0.356
			c0.077-0.1,0.153-0.149,0.23-0.149h1.541l0.276-0.093c0.031-0.015,0.107-0.046,0.23-0.092v-3.243l0.115-0.437V24.97
			c0-0.107-0.039-0.222-0.115-0.345s-0.153-0.215-0.23-0.276c-0.23,0-0.476,0-0.736,0c-0.246,0-0.468-0.022-0.667-0.069
			c-0.2-0.046-0.365-0.138-0.495-0.275c-0.13-0.138-0.195-0.353-0.195-0.645c0-0.383,0.161-0.674,0.483-0.874
			c0.322-0.198,0.659-0.299,1.012-0.299h0.138c0.031,0,0.123,0.016,0.276,0.046c0.153,0.031,0.245,0.046,0.276,0.046h0.046h0.046
			c0.03,0,0.119-0.015,0.265-0.046c0.146-0.03,0.233-0.046,0.264-0.046h0.046c0.353,0,0.679,0.104,0.978,0.311
			c0.299,0.207,0.472,0.495,0.518,0.862c-0.031,0.491-0.023,0.905,0.023,1.242c0.046,0.338,0.069,0.721,0.069,1.15
			c0,0.123-0.004,0.229-0.012,0.322c-0.008,0.092-0.035,0.206-0.081,0.345v5.129c0,0.062,0.023,0.096,0.069,0.104
			c0.046,0.008,0.084,0.012,0.115,0.012c0.046-0.016,0.077-0.023,0.092-0.023c0.092-0.092,0.253-0.249,0.483-0.472
			c0.23-0.222,0.475-0.463,0.736-0.725c0.261-0.26,0.502-0.506,0.725-0.735c0.222-0.23,0.379-0.392,0.471-0.483
			c0.031-0.03,0.092-0.107,0.184-0.229c0.092-0.123,0.153-0.199,0.184-0.23c-0.169-0.169-0.349-0.349-0.541-0.54
			c-0.192-0.192-0.288-0.418-0.288-0.679c0-0.245,0.084-0.434,0.253-0.563c0.169-0.13,0.36-0.227,0.575-0.288
			c0.046,0,0.123,0,0.23,0c0.107,0,0.226-0.003,0.356-0.011s0.249-0.012,0.356-0.012s0.184,0,0.23,0c0.23,0,0.548-0.004,0.955-0.012
			s0.805,0.023,1.196,0.092c0.391,0.069,0.732,0.192,1.023,0.368c0.291,0.177,0.437,0.456,0.437,0.84
			c0,0.261-0.05,0.448-0.149,0.563c-0.1,0.115-0.227,0.195-0.38,0.241s-0.33,0.069-0.529,0.069c-0.184,0-0.376,0.008-0.575,0.022
			c-0.23,0.016-0.448,0.093-0.655,0.23s-0.411,0.299-0.609,0.482c-0.2,0.185-0.38,0.368-0.541,0.553
			c-0.161,0.184-0.311,0.329-0.449,0.437c-0.107,0.092-0.227,0.177-0.356,0.253c-0.13,0.077-0.25,0.153-0.356,0.23
			c-0.107,0.076-0.195,0.169-0.265,0.275c-0.069,0.107-0.104,0.253-0.104,0.438c0,0.322,0.115,0.637,0.345,0.942
			c0.23,0.308,0.444,0.591,0.644,0.852c0.015,0.031,0.069,0.096,0.161,0.195c0.092,0.1,0.192,0.211,0.299,0.334
			c0.107,0.122,0.203,0.237,0.288,0.345c0.084,0.107,0.134,0.177,0.149,0.207c0.184,0.261,0.333,0.529,0.448,0.805
			c0.115,0.276,0.303,0.514,0.563,0.713c0.307,0,0.602,0.004,0.886,0.012c0.284,0.008,0.544,0.046,0.782,0.115
			c0.238,0.068,0.445,0.188,0.621,0.356s0.311,0.43,0.403,0.782c0,0.015,0.003,0.065,0.011,0.149s0.012,0.142,0.012,0.172
			c0,0.169-0.042,0.308-0.126,0.414c-0.084,0.107-0.188,0.195-0.311,0.265c-0.123,0.069-0.261,0.123-0.414,0.161
			c-0.153,0.038-0.299,0.073-0.437,0.104h-1.403h-1.38c-0.123,0-0.314-0.023-0.575-0.069c-0.261-0.046-0.46-0.084-0.598-0.114
			c-0.123-0.031-0.246-0.085-0.368-0.161c-0.123-0.077-0.245-0.115-0.368-0.115c-0.215,0-0.434,0.077-0.656,0.229
			c-0.222,0.154-0.464,0.23-0.725,0.23c-0.215,0-0.425-0.015-0.632-0.046c-0.207-0.03-0.418-0.046-0.632-0.046
			c-0.368,0-0.729,0.016-1.081,0.046c-0.353,0.031-0.713,0.046-1.081,0.046h-1.035c-0.337-0.062-0.648-0.165-0.932-0.311
			s-0.425-0.418-0.425-0.816C34.769,37.489,34.784,37.39,34.815,37.252z M40.358,33.272c-0.138,0.123-0.261,0.246-0.368,0.368
			c-0.046,0.046-0.115,0.123-0.207,0.23c-0.092,0.107-0.165,0.195-0.219,0.264c-0.054,0.069-0.088,0.112-0.104,0.127v1.886
			c0,0.107,0.092,0.2,0.276,0.276c0.184,0.077,0.391,0.146,0.621,0.207s0.452,0.111,0.667,0.149s0.353,0.073,0.414,0.104
			c0.031,0.016,0.092,0.062,0.184,0.138c0.092,0.077,0.153,0.115,0.184,0.115c0,0.016,0.015,0.023,0.046,0.023s0.061,0,0.092,0
			c0.169,0,0.353-0.093,0.552-0.276s0.299-0.368,0.299-0.552c0-0.107-0.092-0.337-0.276-0.69c-0.184-0.353-0.391-0.717-0.621-1.093
			c-0.23-0.375-0.452-0.713-0.667-1.012s-0.353-0.448-0.414-0.448C40.649,33.089,40.496,33.15,40.358,33.272z"/>
		<path d="M49.753,31.363c0.084-0.566,0.226-1.107,0.426-1.621c0.199-0.514,0.463-0.989,0.793-1.426
			c0.33-0.438,0.748-0.794,1.253-1.069c0.046-0.031,0.13-0.077,0.253-0.139c0.123-0.061,0.253-0.126,0.391-0.195
			c0.138-0.069,0.264-0.13,0.379-0.184c0.115-0.054,0.195-0.088,0.242-0.104c0.168-0.077,0.341-0.111,0.517-0.104
			s0.349,0.012,0.518,0.012c0.981,0,1.809,0.233,2.484,0.701s1.303,1.069,1.886,1.806c0.061,0.092,0.142,0.265,0.242,0.518
			c0.099,0.253,0.191,0.528,0.276,0.828c0.084,0.299,0.157,0.59,0.218,0.873c0.061,0.284,0.092,0.495,0.092,0.633
			c0,0.031-0.004,0.096-0.012,0.195c-0.008,0.101-0.011,0.165-0.011,0.196c-0.138,0.229-0.322,0.383-0.552,0.46
			c-0.23,0.076-0.468,0.138-0.713,0.184c-0.169,0-0.472-0.004-0.909-0.012s-0.901-0.012-1.392-0.012
			c-0.475,0-0.931,0.004-1.368,0.012s-0.74,0.012-0.909,0.012c-0.169,0-0.372,0.004-0.609,0.012
			c-0.238,0.008-0.472,0.016-0.702,0.023s-0.514,0.026-0.851,0.058l-0.092,0.069c0,0.016-0.004,0.069-0.012,0.162
			s-0.011,0.154-0.011,0.185c0,0.448,0.081,0.872,0.241,1.273c0.161,0.4,0.383,0.752,0.667,1.053s0.617,0.54,1.001,0.717
			c0.383,0.178,0.805,0.267,1.265,0.267c0.046,0,0.149-0.004,0.311-0.012s0.265-0.012,0.311-0.012
			c0.214-0.169,0.46-0.287,0.736-0.356c0.276-0.069,0.514-0.188,0.713-0.356c0.153-0.138,0.295-0.307,0.425-0.506
			c0.13-0.199,0.268-0.392,0.414-0.575c0.146-0.184,0.303-0.337,0.472-0.46c0.168-0.123,0.375-0.184,0.621-0.184
			c0.23,0,0.418,0.068,0.563,0.207c0.146,0.138,0.219,0.314,0.219,0.528c0,0.354-0.077,0.671-0.23,0.955
			c-0.153,0.283-0.322,0.563-0.506,0.839c-0.46,0.667-1.066,1.144-1.817,1.432s-1.526,0.432-2.323,0.432
			c-0.782,0-1.487-0.153-2.116-0.46s-1.158-0.721-1.587-1.242c-0.429-0.521-0.759-1.123-0.989-1.806
			c-0.23-0.682-0.345-1.398-0.345-2.15C49.627,32.483,49.669,31.932,49.753,31.363z M51.789,31.042c0,0.046,0.03,0.068,0.092,0.068
			h5.313c0.031,0,0.073-0.019,0.126-0.057s0.096-0.073,0.126-0.104c0.015-0.031,0.023-0.085,0.023-0.161c0-0.077,0-0.131,0-0.161
			c0-0.368-0.092-0.679-0.276-0.932s-0.414-0.452-0.69-0.598s-0.579-0.253-0.908-0.322c-0.33-0.069-0.641-0.104-0.932-0.104
			c-0.322,0-0.652,0.042-0.989,0.126c-0.337,0.085-0.644,0.219-0.92,0.403c-0.276,0.184-0.506,0.418-0.69,0.701
			c-0.184,0.284-0.276,0.617-0.276,1C51.789,30.935,51.789,30.98,51.789,31.042z"/>
	</g>
	<g>
		<path d="M149.957,38.591c-0.008-0.438-0.042-0.874-0.104-1.312c-0.062-0.437-0.157-0.862-0.287-1.276
			c-0.131-0.414-0.303-0.805-0.518-1.173c-0.107-0.169-0.211-0.36-0.311-0.575s-0.234-0.383-0.402-0.506
			c-0.215-0.046-0.399-0.084-0.552-0.115c-0.154-0.03-0.304-0.05-0.449-0.058c-0.146-0.007-0.295-0.011-0.448-0.011
			c-0.138,0-0.307,0-0.506,0h-0.852c-0.092,0-0.229,0.011-0.414,0.034c-0.184,0.022-0.283,0.042-0.299,0.058l-0.092,0.092v4.324
			c0,0.138,0.138,0.241,0.414,0.311c0.276,0.068,0.575,0.149,0.897,0.241c0.321,0.092,0.62,0.227,0.896,0.402
			c0.276,0.177,0.414,0.457,0.414,0.84c0,0.245-0.065,0.437-0.195,0.575c-0.131,0.138-0.292,0.245-0.483,0.321
			c-0.191,0.077-0.398,0.127-0.621,0.149c-0.222,0.023-0.425,0.035-0.609,0.035h-0.253c-0.138,0-0.379-0.004-0.725-0.012
			c-0.345-0.008-0.709-0.015-1.092-0.023c-0.384-0.007-0.744-0.019-1.081-0.034c-0.338-0.015-0.575-0.022-0.714-0.022
			c-0.153,0.015-0.295-0.02-0.425-0.104c-0.131-0.085-0.246-0.196-0.346-0.334s-0.176-0.283-0.229-0.437s-0.08-0.3-0.08-0.438
			c0-0.291,0.068-0.518,0.206-0.679c0.139-0.161,0.314-0.279,0.529-0.356c0.215-0.076,0.448-0.122,0.702-0.138
			c0.253-0.015,0.494-0.023,0.724-0.023c0.031-0.03,0.069-0.076,0.115-0.138c0.046-0.061,0.069-0.107,0.069-0.138l-0.046-5.129
			v-0.46l-0.139-5.405l-0.184-0.184l-1.449-0.346c-0.199-0.061-0.322-0.195-0.368-0.402s-0.068-0.387-0.068-0.54
			c0-0.245,0.061-0.487,0.184-0.725c0.123-0.238,0.33-0.356,0.621-0.356h3.52c0.168-0.093,0.321-0.142,0.46-0.149
			c0.138-0.008,0.291-0.012,0.46-0.012c0.797,0,1.598,0.054,2.403,0.161c0.805,0.107,1.529,0.321,2.173,0.644
			c0.645,0.322,1.165,0.786,1.564,1.392c0.398,0.605,0.598,1.407,0.598,2.403c0,0.43-0.038,0.886-0.114,1.369
			c-0.077,0.482-0.254,0.9-0.529,1.253c-0.092,0.123-0.211,0.238-0.356,0.345c-0.146,0.107-0.288,0.215-0.426,0.322
			s-0.253,0.227-0.345,0.356c-0.092,0.131-0.138,0.288-0.138,0.472v0.207c0.306,0.476,0.548,1.009,0.724,1.599
			c0.177,0.59,0.326,1.139,0.449,1.645c0.046,0.184,0.072,0.426,0.08,0.725s0.072,0.54,0.195,0.725
			c0.107,0.169,0.238,0.283,0.392,0.345c0.152,0.062,0.307,0.115,0.46,0.161c0.152,0.046,0.307,0.107,0.46,0.184
			c0.153,0.077,0.283,0.207,0.391,0.392c0.138,0.215,0.223,0.36,0.253,0.437c0.03,0.077,0.046,0.215,0.046,0.414
			c0,0.261-0.084,0.514-0.253,0.759c-0.169,0.246-0.406,0.368-0.713,0.368h-0.046c-0.276-0.046-0.583-0.065-0.92-0.058
			c-0.338,0.008-0.659-0.008-0.966-0.046c-0.308-0.038-0.579-0.134-0.816-0.287c-0.238-0.153-0.388-0.414-0.449-0.782
			C149.96,39.453,149.964,39.027,149.957,38.591z M144.931,26.826c-0.138,0.046-0.207,0.13-0.207,0.253v3.956
			c0,0.046,0.023,0.123,0.069,0.229c0.046,0.107,0.084,0.185,0.115,0.23h0.528c0.199,0,0.392-0.016,0.575-0.046
			s0.368-0.046,0.552-0.046c0.23,0,0.452,0.016,0.667,0.046s0.444,0.046,0.69,0.046h0.759c0.552-0.169,1.008-0.434,1.368-0.794
			c0.36-0.359,0.541-0.839,0.541-1.438c0-0.353-0.046-0.701-0.138-1.046c-0.093-0.346-0.292-0.633-0.599-0.862
			c-0.583-0.261-1.196-0.434-1.84-0.518s-1.288-0.127-1.932-0.127c-0.077,0-0.215,0-0.414,0c-0.2,0-0.338,0.008-0.414,0.023
			C145.176,26.749,145.069,26.78,144.931,26.826z"/>
		<path d="M156.913,39.522c0.031-0.169,0.081-0.322,0.15-0.46c0.068-0.139,0.164-0.249,0.287-0.334
			c0.122-0.084,0.283-0.127,0.483-0.127h0.138c0.03,0.016,0.118,0.035,0.265,0.058c0.146,0.023,0.233,0.035,0.265,0.035h0.046
			c0.076,0,0.18-0.008,0.311-0.023c0.13-0.015,0.264-0.034,0.402-0.058c0.138-0.022,0.268-0.046,0.391-0.068
			c0.123-0.023,0.223-0.035,0.299-0.035c0.093-0.061,0.161-0.172,0.207-0.333s0.069-0.288,0.069-0.38l-0.046-5.405v-0.437
			l-0.046-3.151c0.076-0.199,0.11-0.425,0.104-0.678c-0.008-0.254-0.012-0.472-0.012-0.656v-0.574l-0.184-0.161
			c-0.016-0.016-0.077-0.023-0.185-0.023s-0.191,0-0.253,0c-0.261,0-0.51,0.02-0.747,0.058c-0.238,0.038-0.487,0.058-0.748,0.058
			c-0.414,0-0.751-0.092-1.012-0.276c-0.261-0.184-0.391-0.498-0.391-0.942c0-0.368,0.106-0.679,0.321-0.932s0.521-0.38,0.92-0.38
			c1.871,0,3.733,0.02,5.589,0.058s3.719,0.05,5.59,0.034c0.229,0.031,0.421,0.177,0.574,0.438s0.23,0.506,0.23,0.736v4.853
			c0,0.276-0.1,0.498-0.299,0.667s-0.43,0.253-0.69,0.253c-0.215,0-0.426-0.076-0.632-0.229c-0.207-0.153-0.311-0.353-0.311-0.599
			v-2.438c0-0.016-0.051-0.115-0.15-0.3c-0.1-0.184-0.18-0.321-0.241-0.413c-0.077-0.093-0.203-0.219-0.379-0.38
			c-0.177-0.161-0.326-0.241-0.449-0.241h-4.393l-0.092,0.092c0,0.092-0.004,0.265-0.012,0.518s-0.02,0.518-0.034,0.793
			c-0.016,0.276-0.027,0.537-0.035,0.782s-0.012,0.414-0.012,0.506c0,0.031-0.015,0.123-0.046,0.276
			c-0.03,0.153-0.046,0.245-0.046,0.275v0.047v0.022c0.016,0.077,0.031,0.173,0.046,0.288c0.016,0.114,0.035,0.222,0.058,0.321
			c0.023,0.101,0.05,0.227,0.081,0.38l0.092,0.092h1.173c0.169-0.122,0.356-0.222,0.563-0.299c0.207-0.076,0.372-0.215,0.494-0.414
			c0.107-0.169,0.169-0.395,0.185-0.679c0.015-0.283,0.038-0.563,0.068-0.839c0.031-0.276,0.1-0.514,0.207-0.714
			c0.107-0.198,0.314-0.299,0.621-0.299c0.245,0,0.445,0.089,0.599,0.265c0.152,0.177,0.229,0.396,0.229,0.655v7.544
			c0,0.491-0.237,0.736-0.713,0.736c-0.307,0-0.537-0.096-0.689-0.287c-0.154-0.191-0.262-0.422-0.322-0.69
			c-0.062-0.268-0.092-0.548-0.092-0.84c0-0.291,0-0.528,0-0.713c-0.031-0.076-0.093-0.191-0.185-0.345s-0.203-0.303-0.333-0.448
			c-0.131-0.146-0.261-0.276-0.392-0.392c-0.13-0.114-0.241-0.172-0.333-0.172h-0.989c-0.062,0-0.092,0.03-0.092,0.092
			c-0.031,0.031-0.062,0.092-0.092,0.184v5.037l0.184,0.185h2.323c0.368-0.107,0.701-0.157,1-0.149
			c0.3,0.008,0.575,0.004,0.828-0.012s0.486-0.081,0.702-0.195c0.214-0.115,0.421-0.356,0.62-0.725
			c0.031-0.046,0.069-0.119,0.115-0.219s0.069-0.173,0.069-0.219v-2.254c0-0.261,0.092-0.49,0.275-0.689
			c0.185-0.199,0.406-0.3,0.667-0.3c0.322,0,0.583,0.15,0.782,0.449s0.299,0.594,0.299,0.885v3.151
			c0.077,0.169,0.119,0.311,0.127,0.426s0.012,0.257,0.012,0.425c0,0.568-0.169,1.005-0.506,1.312
			c-0.338,0.307-0.782,0.46-1.334,0.46c-0.169,0-0.33,0-0.483,0c-0.138,0-0.291-0.03-0.46-0.092h-7.659
			c-0.199,0.077-0.422,0.111-0.667,0.104s-0.46-0.012-0.644-0.012c-0.215,0-0.422-0.004-0.621-0.012s-0.38-0.046-0.541-0.115
			c-0.161-0.068-0.287-0.172-0.379-0.31c-0.093-0.139-0.139-0.338-0.139-0.599C156.867,39.852,156.882,39.691,156.913,39.522z"/>
		<path d="M172.369,38.613c0.245-0.13,0.56-0.195,0.943-0.195c0.261,0,0.506,0.02,0.736,0.058c0.229,0.038,0.475,0.058,0.735,0.058
			c0.062,0,0.139,0,0.23,0s0.138-0.008,0.138-0.023l0.185-0.161l-0.047-2.529v-0.46v-4.048v-0.438l0.047-3.864
			c0-0.061-0.031-0.092-0.093-0.092c-0.062-0.061-0.123-0.092-0.184-0.092h-1.886c-0.354,0-0.637-0.123-0.852-0.368
			s-0.321-0.529-0.321-0.851c0-0.445,0.13-0.76,0.391-0.943s0.598-0.276,1.012-0.276c0.291,0,0.571,0.016,0.84,0.046
			c0.268,0.031,0.556,0.047,0.862,0.047c0.184,0,0.398,0.004,0.644,0.011c0.245,0.008,0.468-0.026,0.668-0.104h3.15
			c0.444,0.185,0.894,0.318,1.346,0.403c0.452,0.084,0.9,0.218,1.346,0.402c0.536,0.229,1.004,0.586,1.402,1.069
			c0.398,0.482,0.729,1.02,0.989,1.609c0.261,0.591,0.456,1.2,0.587,1.829c0.13,0.629,0.195,1.204,0.195,1.725
			c0,1.273-0.123,2.507-0.368,3.703s-0.667,2.354-1.265,3.473c-0.046,0.062-0.149,0.173-0.311,0.334s-0.272,0.265-0.334,0.311
			c-0.46,0.368-0.894,0.647-1.299,0.84c-0.407,0.191-0.821,0.329-1.242,0.414c-0.422,0.084-0.867,0.13-1.334,0.138
			c-0.468,0.008-1.001,0.02-1.599,0.034c-0.092,0-0.234,0.008-0.426,0.023s-0.384,0.026-0.575,0.034s-0.364,0.016-0.518,0.023
			s-0.253,0.011-0.299,0.011c-0.03,0-0.115,0.016-0.253,0.046c-0.138,0.031-0.279,0.062-0.426,0.093
			c-0.146,0.03-0.283,0.062-0.413,0.092c-0.131,0.031-0.211,0.046-0.242,0.046h-0.391c-0.245,0-0.495-0.026-0.748-0.08
			s-0.482-0.142-0.689-0.265s-0.376-0.284-0.506-0.483c-0.131-0.199-0.195-0.444-0.195-0.736
			C172.001,39.031,172.124,38.744,172.369,38.613z M177.521,38.326c0.076,0.046,0.161,0.084,0.253,0.115
			c0.092,0.03,0.184,0.054,0.276,0.068c0.092,0.016,0.161,0.023,0.207,0.023c0.46,0,0.938-0.02,1.438-0.058
			c0.498-0.038,0.962-0.142,1.392-0.311c0.536-0.215,0.962-0.571,1.276-1.069c0.313-0.498,0.552-1.05,0.713-1.656
			c0.161-0.605,0.261-1.223,0.299-1.852c0.038-0.628,0.058-1.188,0.058-1.679c0-0.981-0.1-1.806-0.299-2.473
			c-0.2-0.667-0.518-1.199-0.955-1.599c-0.437-0.398-0.997-0.686-1.679-0.862c-0.683-0.176-1.515-0.265-2.495-0.265
			c-0.062,0-0.2,0.008-0.414,0.023l-0.115,0.184v3.588l-0.023,0.46l-0.046,7.199C177.406,38.227,177.444,38.28,177.521,38.326z"/>
		<path d="M193.805,23.905c0.261,0.062,0.514,0.146,0.759,0.253s0.487,0.241,0.725,0.402c0.238,0.161,0.487,0.342,0.748,0.54
			c0.122,0.093,0.265,0.185,0.425,0.276c0.161,0.092,0.288,0.207,0.38,0.345c0.184,0.276,0.353,0.557,0.506,0.84
			c0.153,0.284,0.345,0.54,0.575,0.771c0.353,0.767,0.636,1.541,0.851,2.323s0.322,1.587,0.322,2.415
			c0,0.813-0.065,1.645-0.195,2.495c-0.131,0.852-0.356,1.656-0.679,2.415s-0.755,1.441-1.3,2.047
			c-0.544,0.606-1.23,1.069-2.058,1.392c-0.185,0.077-0.338,0.149-0.46,0.219c-0.123,0.068-0.242,0.134-0.357,0.195
			c-0.114,0.062-0.241,0.111-0.379,0.149s-0.322,0.058-0.552,0.058c-0.399,0-0.74-0.062-1.023-0.184
			c-0.284-0.123-0.595-0.269-0.932-0.438c-0.031-0.015-0.107-0.054-0.23-0.115c-0.123-0.061-0.253-0.126-0.391-0.195
			c-0.139-0.069-0.272-0.134-0.402-0.195c-0.131-0.062-0.211-0.107-0.242-0.138c-0.275-0.185-0.544-0.445-0.805-0.782
			s-0.502-0.701-0.725-1.093c-0.223-0.391-0.418-0.778-0.586-1.161c-0.169-0.384-0.3-0.721-0.392-1.013
			c-0.031-0.061-0.062-0.149-0.092-0.264c-0.031-0.115-0.058-0.23-0.08-0.346c-0.023-0.114-0.047-0.218-0.069-0.311
			c-0.023-0.092-0.034-0.146-0.034-0.16v-3.703c0-0.016,0.019-0.1,0.057-0.253s0.081-0.326,0.127-0.518s0.096-0.384,0.149-0.575
			s0.096-0.341,0.127-0.448c0.198-0.645,0.444-1.284,0.735-1.921c0.291-0.636,0.651-1.207,1.081-1.714
			c0.43-0.506,0.936-0.916,1.519-1.23c0.582-0.313,1.257-0.471,2.023-0.471C193.253,23.813,193.544,23.844,193.805,23.905z
			 M189.228,34.175c0.093,0.605,0.23,1.185,0.414,1.736c0.046,0.138,0.149,0.345,0.311,0.621c0.161,0.275,0.345,0.544,0.552,0.805
			s0.418,0.491,0.633,0.69s0.406,0.299,0.575,0.299h2.254c0.368,0,0.697-0.119,0.989-0.356c0.291-0.237,0.544-0.521,0.759-0.852
			c0.215-0.329,0.391-0.682,0.529-1.058c0.138-0.376,0.245-0.701,0.321-0.978c0.077-0.215,0.157-0.398,0.242-0.552
			c0.084-0.153,0.126-0.36,0.126-0.621v-2.967c-0.092-0.398-0.181-0.778-0.265-1.139s-0.195-0.701-0.333-1.023
			s-0.314-0.633-0.529-0.932s-0.498-0.587-0.851-0.862c-0.338-0.261-0.637-0.495-0.897-0.702s-0.605-0.311-1.035-0.311
			c-0.675,0-1.257,0.238-1.748,0.714c-0.49,0.475-0.896,1.05-1.219,1.725s-0.563,1.38-0.725,2.116
			c-0.161,0.735-0.241,1.356-0.241,1.862C189.09,32.975,189.136,33.569,189.228,34.175z"/>
	</g>
	<g>
		<path d="M133.274,32.886c0,0.398-0.092,1.035-0.276,1.909c-0.229,1.027-0.444,1.541-0.644,1.541c-0.292,0-0.717-0.073-1.276-0.219
			c-0.561-0.146-0.985-0.219-1.276-0.219c0.015,1.15,0.015,1.787,0,1.909c-0.062,0.445-0.257,0.74-0.587,0.886
			s-0.97,0.219-1.921,0.219c-0.858,0-1.364-0.047-1.518-0.139c-0.567-0.797-0.89-1.388-0.966-1.771
			c-0.031-0.123-0.046-0.797-0.046-2.024c-0.445,0.031-1.081-0.015-1.909-0.138c-0.107-0.046-0.33-0.307-0.667-0.782
			c-0.337-0.475-0.506-0.767-0.506-0.874v-1.863c0-0.674,0.184-1.05,0.552-1.127c0.138-0.015,0.337-0.022,0.598-0.022
			c0.246,0,0.621,0.02,1.126,0.058c0.507,0.038,0.89,0.058,1.15,0.058c0.03-1.273,0.1-2.614,0.207-4.025
			c0.076-0.153,0.215-0.23,0.414-0.23c0.153,0,0.755,0.101,1.806,0.3c1.05,0.199,1.599,0.321,1.645,0.367
			c0.184,0.139,0.417,0.418,0.701,0.84c0.283,0.422,0.426,0.725,0.426,0.908c0,0.445-0.101,1.127-0.299,2.048
			c0.598,0.122,1.203,0.253,1.816,0.391c0.245,0.062,0.43,0.199,0.552,0.414C132.975,32.342,133.274,32.87,133.274,32.886z
			 M131.687,31.574c-2.208-0.429-3.313-0.781-3.313-1.058c0-0.383,0.065-0.946,0.196-1.69c0.13-0.743,0.195-1.3,0.195-1.668
			c-0.629-0.092-1.572-0.237-2.829-0.437c-0.062,1.258-0.153,2.576-0.276,3.956c-0.092,0.153-1.204,0.199-3.334,0.138l0.092,0.092
			c-0.046,0.154-0.077,0.821-0.092,2.001c0.214-0.03,0.759-0.046,1.632-0.046c1.027,0,1.541,0.346,1.541,1.035
			c0,0.276-0.015,0.675-0.046,1.196c-0.03,0.521-0.046,0.92-0.046,1.196c0,0.245,0.03,0.437,0.092,0.574h0.41
			c0.243,0,0.604-0.022,1.083-0.068s0.84-0.069,1.083-0.069v-2.317c0-0.479,0.191-0.719,0.575-0.719
			c0.322,0,0.797,0.081,1.426,0.242c0.629,0.16,1.104,0.241,1.427,0.241l0.046-0.023v-0.482c0-0.23,0.022-0.579,0.068-1.047
			S131.687,31.805,131.687,31.574z M124.856,33.69c-0.476-0.122-1.112-0.184-1.909-0.184h-0.529
			c0.337,0.444,0.537,0.689,0.598,0.736c0.184,0.122,0.49,0.184,0.92,0.184l0.874-0.023c0.03-0.092,0.046-0.245,0.046-0.46V33.69z
			 M128.904,38.198c-0.384-0.566-0.805-0.851-1.265-0.851c-0.062,0-0.729,0.054-2.001,0.161c0.106,0.169,0.268,0.422,0.482,0.759
			c0.307,0,0.771-0.012,1.392-0.034C128.133,38.21,128.597,38.198,128.904,38.198z M131.779,35.6
			c-0.046-0.49-0.406-0.805-1.081-0.943c-0.537-0.092-1.065-0.184-1.587-0.275c0.368,0.567,0.679,0.912,0.932,1.035
			s0.732,0.184,1.438,0.184H131.779z"/>
	</g>
</g>
<g id="Layer_20">
</g>
<g id="Layer_21">
</g>
<g id="Layer_23">
</g>
<g id="Layer_24">
</g>
</svg>
