<?xml version="1.0" encoding="utf-8"?>
<!-- Generator: Adobe Illustrator 16.0.0, SVG Export Plug-In . SVG Version: 6.00 Build 0)  -->
<!DOCTYPE svg PUBLIC "-//W3C//DTD SVG 1.1//EN" "http://www.w3.org/Graphics/SVG/1.1/DTD/svg11.dtd">
<svg version="1.1" xmlns="http://www.w3.org/2000/svg" xmlns:xlink="http://www.w3.org/1999/xlink" x="0px" y="0px"
	 width="209.759px" height="62.361px" viewBox="0 0 209.759 62.361" enable-background="new 0 0 209.759 62.361"
	 xml:space="preserve">
<pattern  x="-205.334" y="-307" width="446.64" height="259.184" patternUnits="userSpaceOnUse" id="Foliage" viewBox="146.558 -378.061 446.64 259.184" overflow="visible">
	<g>
		<polygon fill="none" points="146.558,-378.062 593.197,-378.062 593.197,-118.877 146.558,-118.877 		"/>
		<g>
			<path fill="#2C973E" d="M525.396-187.373c5.52,4.577,10.662,12.461,11.443,22.75c1.076-10.23,3.197-18.133,8.211-23.961
				c0,0-6.328,3.096-8.615,9.153C533.475-184.681,525.396-187.373,525.396-187.373z"/>
			<path fill="#2C973E" d="M511.396-238.256c1.219,5.969,6.307,11.176,12.924,13.73c-2.711-6.992-1.703-13.798,2.154-19.789
				c-0.898,7.766,1.469,13.211,5.787,18.039c-1.359-4.828-1.242-9.268,1.078-13.865c-0.943,8.48,6.168,12.787,15.615,18.442
				c12.66,7.579,17.277,16.042,19.248,27.227c-3.451-6.867-9.902-13.138-27.859-17.292
				C518.046-216.924,509.952-224.18,511.396-238.256z"/>
			
				<linearGradient id="SVGID_1_" gradientUnits="userSpaceOnUse" x1="-38891.8906" y1="-53399.1406" x2="-38915.1875" y2="-53391.2031" gradientTransform="matrix(1 0 0 -1 39406.5586 -53548.4453)">
				<stop  offset="0.2331" style="stop-color:#FAA61A"/>
				<stop  offset="0.7607" style="stop-color:#FFC20E"/>
			</linearGradient>
			<path fill="url(#SVGID_1_)" d="M511.666-146.047c-4.688-4.596-6.91-12.185-7.27-21.721c-0.471-12.527-5.409-17.657-13.326-18.528
				c11.802,4.579,4.444,17.117,7.942,25.846c-6.441-4.785-4.382-20.678-17.635-21.403c9.78,3.196,2.835,16.677,9.288,24.499
				c-7.808-0.107-11.396,6.127-21.538,3.231c4.715,3.636,9.965,5.923,18.846,5.923c-6.254,3.861-8.999,8.628-11.308,15.346
				C486.794-143.447,501.519-147.519,511.666-146.047z"/>
			
				<radialGradient id="SVGID_2_" cx="-38813.3594" cy="-53429.5703" r="133.4345" gradientTransform="matrix(1 0 0 -1 39406.5586 -53548.4453)" gradientUnits="userSpaceOnUse">
				<stop  offset="0.3479" style="stop-color:#58AB40"/>
				<stop  offset="0.7607" style="stop-color:#80C342"/>
			</radialGradient>
			<path fill="url(#SVGID_2_)" d="M629.039-111.603c29.438,4.023,46.232,20.791,49.148,36.552
				c-3.924-9.251-12.984-15.224-23.6-18.632c10.615,14.013,7.193,31.866,21.115,41.697c-10.365-11.039-7.211-24.462-14.904-36.729
				c12.258,6.896,14.123,16.671,17.023,27.147c4.385,15.845,11.545,20.089,17.221,22.178c-11.699,0.45-28.66-4.531-36.781-20.102
				c-8.611-16.509-1.449-34.408-22.48-43.772c9.602,8.056,14.727,19.517,8.693,34.421c2.256-21.923-20.627-25.505-24.309-40.453
				c-0.629,11.53,7.18,21.223,14.549,25.904c-10.289-3.372-19.215-8.989-23.42-21.824c-6.924,21.393,5.314,38.455,12.9,38.455
				c2.627,0,4.535-1.672,4.535-4.164c0-6.449-11.641-6.449-14.596-18.854c5.322,10.823,25.549,8.872,25.549,20.76
				c0,9.738-13.639,14.037-22.355,7.984c6.387,8.34,21.258,8.619,25.551-1.42c0.662,4.308-1.309,10.757-7.453,13.129
				c-6.986,2.699-13.484-2.484-13.484-2.484c7.641,11.014,20.939,3.673,34.066,3.904c10.867,0.193,18.105,5.82,21.291,11.179
				c-2.967-1.486-4.639-1.886-7.629-1.951c6.293,3.878,10.848,12.796,9.049,21.469c-1.297-6.249-8.572-10.679-22.355-11.634
				c-15.557-1.077-23.809-3.569-29.1-9.303c11.201,4.957,28.936-1.908,40.986,6.032c-7.453-8.538-23.934-6.089-35.715-7.98
				c-20.707-3.323-33.324-38.287-31.707-53.633c-5.656,23.423,9.461,36.2,12.787,49.134c3.635,14.135-3.365,23.826-9.949,28.803
				c10.281-15.398-7.416-24.63-4.613-44.356c-5.227,19.188,4.436,24.661,4.436,34.598c0,9.759-8.584,12.994-10.291,25.549
				c-1.705-12.555-10.291-15.79-10.291-25.549c0-9.937,9.662-15.409,4.436-34.598c2.805,19.727-14.893,28.958-4.613,44.356
				c-6.582-4.977-13.582-14.668-9.947-28.803c3.324-12.934,18.441-25.711,12.787-49.134c1.615,15.346-11,50.31-31.707,53.633
				c-11.783,1.892-28.262-0.558-35.716,7.98c12.05-7.94,29.784-1.075,40.985-6.032c-5.289,5.733-13.541,8.226-29.098,9.303
				c-13.785,0.955-21.06,5.385-22.356,11.634c-1.799-8.673,2.755-17.591,9.049-21.469c-2.991,0.065-4.661,0.465-7.629,1.951
				c3.186-5.358,10.423-10.985,21.292-11.179c13.127-0.231,26.424,7.109,34.066-3.904c0,0-6.5,5.184-13.484,2.484
				c-6.146-2.372-8.115-8.821-7.453-13.129c4.293,10.039,19.162,9.76,25.549,1.42c-8.717,6.053-22.355,1.754-22.355-7.984
				c0-11.888,20.229-9.937,25.551-20.76c-2.955,12.405-14.596,12.405-14.596,18.854c0,2.492,1.908,4.164,4.535,4.164
				c7.584,0,19.824-17.063,12.898-38.455c-4.203,12.835-13.129,18.452-23.42,21.824c7.371-4.682,15.178-14.374,14.549-25.904
				c-3.682,14.948-26.563,18.53-24.309,40.453c-6.031-14.904-0.908-26.365,8.695-34.421c-21.033,9.364-13.871,27.264-22.482,43.772
				c-8.121,15.57-25.082,20.552-36.78,20.102c5.675-2.089,12.836-6.333,17.221-22.178c2.898-10.477,4.766-20.251,17.024-27.147
				c-7.694,12.267-4.539,25.689-14.904,36.729c13.922-9.831,10.498-27.685,21.113-41.697c-10.615,3.408-19.677,9.381-23.598,18.632
				c2.914-15.761,19.711-32.528,49.148-36.552c-30.326-1.289-36.174,15.554-51.456,16.162c-9.682,0.385-18.136-8.391-28.033-13.678
				c12.113,3.072,31.107,11.328,41.164-2.129c0,0-6.194,5.261-18.275,3.728c-12.272-1.559-23.462-9.4-54.116-11.356
				c30.654-1.958,41.844-9.797,54.116-11.355c12.081-1.536,18.275,3.725,18.275,3.725c-10.057-13.457-29.051-5.199-41.164-2.129
				c9.897-5.287,18.352-14.061,28.033-13.676c15.282,0.606,21.13,17.451,51.456,16.16c-29.438-4.021-46.234-20.791-49.148-36.55
				c3.921,9.249,12.982,15.222,23.598,18.63c-10.615-14.013-7.191-31.866-21.113-41.695c10.365,11.037,7.21,24.462,14.904,36.727
				c-12.259-6.895-14.126-16.669-17.024-27.146c-4.385-15.847-11.546-20.089-17.221-22.18c11.698-0.449,28.659,4.531,36.78,20.102
				c8.611,16.512,1.449,34.411,22.482,43.772c-9.604-8.056-14.727-19.517-8.695-34.421c-2.254,21.923,20.627,25.505,24.309,40.453
				c0.629-11.53-7.178-21.223-14.549-25.904c10.291,3.372,19.217,8.989,23.42,21.824c6.926-21.391-5.314-38.455-12.898-38.455
				c-2.627,0-4.535,1.673-4.535,4.164c0,6.451,11.641,6.451,14.596,18.854c-5.322-10.821-25.551-8.869-25.551-20.758
				c0-9.738,13.639-14.037,22.355-7.985c-6.387-8.339-21.256-8.62-25.549,1.42c-0.662-4.308,1.307-10.757,7.453-13.13
				c6.984-2.698,13.484,2.484,13.484,2.484c-7.643-11.014-20.939-3.671-34.066-3.904c-10.869-0.191-18.106-5.82-21.292-11.177
				c2.968,1.484,4.638,1.885,7.629,1.951c-6.294-3.879-10.848-12.798-9.049-21.469c1.297,6.248,8.571,10.678,22.356,11.633
				c15.557,1.076,23.809,3.568,29.098,9.305c-11.201-4.96-28.936,1.907-40.985-6.033c7.454,8.537,23.933,6.09,35.716,7.98
				c20.707,3.322,33.322,38.285,31.707,53.631c5.654-23.423-9.463-36.2-12.787-49.134c-3.635-14.134,3.365-23.826,9.947-28.802
				c-10.279,15.398,7.418,24.629,4.613,44.357c5.227-19.19-4.436-24.662-4.436-34.599c0-9.759,8.586-12.995,10.291-25.55
				c1.707,12.555,10.291,15.791,10.291,25.55c0,9.937-9.662,15.408-4.436,34.599c-2.803-19.729,14.895-28.959,4.613-44.357
				c6.584,4.976,13.584,14.668,9.949,28.802c-3.326,12.934-18.443,25.711-12.787,49.134c-1.617-15.346,11-50.309,31.707-53.631
				c11.781-1.891,28.262,0.557,35.715-7.98c-12.051,7.94-29.785,1.073-40.986,6.033c5.291-5.736,13.543-8.229,29.1-9.305
				c13.783-0.955,21.059-5.385,22.355-11.633c1.799,8.671-2.756,17.59-9.049,21.469c2.99-0.066,4.662-0.467,7.629-1.951
				c-3.186,5.356-10.424,10.985-21.291,11.177c-13.127,0.233-26.426-7.109-34.066,3.904c0,0,6.498-5.183,13.484-2.484
				c6.145,2.373,8.115,8.822,7.453,13.13c-4.293-10.04-19.164-9.759-25.551-1.42c8.717-6.052,22.355-1.753,22.355,7.985
				c0,11.889-20.227,9.937-25.549,20.758c2.955-12.403,14.596-12.403,14.596-18.854c0-2.491-1.908-4.164-4.535-4.164
				c-7.586,0-19.824,17.064-12.9,38.455c4.205-12.835,13.131-18.452,23.42-21.824c-7.369,4.682-15.178,14.374-14.549,25.904
				c3.682-14.948,26.564-18.53,24.309-40.453c6.033,14.904,0.908,26.365-8.693,34.421c21.031-9.361,13.869-27.261,22.48-43.772
				c8.121-15.57,25.082-20.551,36.781-20.102c-5.676,2.091-12.836,6.333-17.221,22.18c-2.9,10.477-4.766,20.251-17.023,27.146
				c7.693-12.265,4.539-25.689,14.904-36.727c-13.922,9.829-10.5,27.683-21.115,41.695c10.615-3.408,19.676-9.381,23.6-18.63
				c-2.916,15.759-19.711,32.528-49.148,36.55c30.326,1.291,36.172-15.554,51.453-16.16c9.684-0.385,18.137,8.389,28.035,13.676
				c-12.113-3.07-31.107-11.328-41.164,2.129c0,0,6.193-5.261,18.275-3.725c12.271,1.559,23.461,9.397,54.115,11.355
				c-30.654,1.956-41.844,9.798-54.115,11.356c-12.082,1.533-18.275-3.728-18.275-3.728c10.057,13.457,29.051,5.201,41.164,2.129
				c-9.898,5.287-18.352,14.063-28.035,13.678C665.211-96.049,659.365-112.892,629.039-111.603z M662.395-118.876
				c4.613,1.241,8.633,3.77,14.488,3.77c7.113,0,11.074-2.751,16.74-3.77c-5.666-1.018-9.627-3.77-16.74-3.77
				C671.027-122.646,667.008-120.119,662.395-118.876z M590.182-209.188c0,5.123,3.016,8.397,3.016,12.123
				c0-3.726,3.018-7,3.018-12.123c0-4.568-2.25-6.652-3.018-11.435C592.43-215.84,590.182-213.756,590.182-209.188z M524-118.876
				c-4.613-1.243-8.634-3.77-14.488-3.77c-7.113,0-11.073,2.752-16.739,3.77c5.666,1.019,9.626,3.77,16.739,3.77
				C515.366-115.106,519.387-117.635,524-118.876z M596.215-28.565c0-5.123-3.018-8.398-3.018-12.123c0,3.725-3.016,7-3.016,12.123
				c0,4.568,2.248,6.653,3.016,11.434C593.965-21.912,596.215-23.997,596.215-28.565z M638.266-118.876
				c-9.938,0-24.088-4.982-34.953-3.016c3.449-2.1,4.982-3.673,7.451-6.744c-4.406,0.434-6.758,0.796-10.113,2.308
				c2.662-6.018,3.193-9.399,3.725-15.437c-3.068,3.565-4.639,5.74-6.564,10.646c0.709-12.42-4.258-15.247-4.613-31.761
				c-0.355,16.514-5.322,19.341-4.613,31.761c-1.924-4.905-3.494-7.08-6.564-10.646c0.531,6.037,1.064,9.419,3.727,15.437
				c-3.355-1.512-5.709-1.874-10.115-2.308c2.471,3.071,4.004,4.645,7.453,6.744c-10.865-1.967-25.018,3.016-34.953,3.016
				c9.936,0,24.088,4.98,34.953,3.017c-3.449,2.097-4.982,3.67-7.453,6.741c4.406-0.432,6.76-0.796,10.115-2.306
				c-2.662,6.016-3.195,9.397-3.727,15.437c3.07-3.565,4.641-5.742,6.564-10.647c-0.709,12.421,4.258,15.247,4.613,31.761
				c0.355-16.514,5.322-19.34,4.613-31.761c1.926,4.905,3.496,7.082,6.564,10.647c-0.531-6.039-1.063-9.421-3.725-15.437
				c3.355,1.51,5.707,1.874,10.113,2.306c-2.469-3.071-4.002-4.645-7.451-6.741C614.178-113.896,628.328-118.876,638.266-118.876z"
				/>
			
				<linearGradient id="SVGID_3_" gradientUnits="userSpaceOnUse" x1="55266.7539" y1="-53343.3125" x2="55266.7539" y2="-53315.207" gradientTransform="matrix(-1 0 0 -1 55830.9844 -53548.4453)">
				<stop  offset="0.2331" style="stop-color:#FAA61A"/>
				<stop  offset="0.7607" style="stop-color:#FFC20E"/>
			</linearGradient>
			<path fill="url(#SVGID_3_)" d="M538.32-240.141c2.641,13.83,25.365,16.256,30.287,34.057
				c3.77-19.115,21.295-19.871,21.539-33.114c-3.18,7.802-10.838,5.786-15.885,12.115c0.846-6.151,4.635-11.892,12.385-15.077
				c-7.674-1.076-15.627,1.832-19.115,9.558c-2.559-4.173-2.813-8.449-0.674-13.865c-4.711,3.635-7.492,9.3-5.654,16.558
				C553.936-237.18,543.301-233.141,538.32-240.141z"/>
			<path fill="#FFC20E" d="M611.418-118.876c-4.258-0.664-9.389-3.201-14.131-1.22c2.322-1.805,1.145-3.515,2.529-5.197
				c-1.916,1.388-3.51,0.503-4.986,2.745c1.535-5.31-0.529-8.143-1.633-14.118c-1.104,5.976-3.168,8.809-1.633,14.118
				c-1.475-2.242-3.068-1.357-4.984-2.745c1.385,1.683,0.205,3.393,2.529,5.197c-4.742-1.981-9.875,0.556-14.131,1.22
				c4.256,0.665,9.389,3.199,14.131,1.218c-2.324,1.805-1.145,3.517-2.529,5.197c1.916-1.386,3.51-0.5,4.984-2.742
				c-1.535,5.309,0.529,8.14,1.633,14.117c1.104-5.978,3.168-8.809,1.633-14.117c1.477,2.242,3.07,1.356,4.986,2.742
				c-1.385-1.681-0.207-3.393-2.529-5.197C602.029-115.677,607.16-118.211,611.418-118.876z"/>
		</g>
		<g>
			
				<linearGradient id="SVGID_4_" gradientUnits="userSpaceOnUse" x1="55605.9063" y1="-53399.1367" x2="55582.6094" y2="-53391.1992" gradientTransform="matrix(-1 0 0 -1 55830.9844 -53548.4453)">
				<stop  offset="0.2331" style="stop-color:#FAA61A"/>
				<stop  offset="0.7607" style="stop-color:#FFC20E"/>
			</linearGradient>
			<path fill="url(#SVGID_4_)" d="M228.088-146.047c4.688-4.596,6.912-12.185,7.27-21.721c0.471-12.527,5.41-17.657,13.326-18.528
				c-11.801,4.579-4.443,17.117-7.941,25.846c6.439-4.785,4.381-20.678,17.635-21.403c-9.781,3.196-2.836,16.677-9.289,24.499
				c7.809-0.107,11.398,6.127,21.539,3.231c-4.717,3.636-9.965,5.923-18.846,5.923c6.254,3.861,9,8.628,11.307,15.346
				C252.961-143.447,238.236-147.519,228.088-146.047z"/>
			<path fill="#2C973E" d="M214.357-187.373c-5.52,4.577-10.66,12.461-11.441,22.75c-1.076-10.23-3.199-18.133-8.211-23.961
				c0,0,6.326,3.096,8.615,9.153C206.281-184.681,214.357-187.373,214.357-187.373z"/>
			<path fill="#2C973E" d="M228.357-238.256c-1.217,5.969-6.307,11.176-12.922,13.73c2.709-6.992,1.703-13.798-2.154-19.789
				c0.898,7.766-1.469,13.211-5.789,18.039c1.361-4.828,1.242-9.268-1.076-13.865c0.941,8.48-6.168,12.787-15.615,18.442
				c-12.66,7.579-17.277,16.042-19.25,27.227c3.451-6.867,9.902-13.138,27.859-17.292
				C221.709-216.924,229.803-224.18,228.357-238.256z"/>
			
				<linearGradient id="SVGID_5_" gradientUnits="userSpaceOnUse" x1="-39231.0352" y1="-53343.3125" x2="-39231.0352" y2="-53315.207" gradientTransform="matrix(1 0 0 -1 39406.5586 -53548.4453)">
				<stop  offset="0.2331" style="stop-color:#FAA61A"/>
				<stop  offset="0.7607" style="stop-color:#FFC20E"/>
			</linearGradient>
			<path fill="url(#SVGID_5_)" d="M201.436-240.141c-2.643,13.83-25.367,16.256-30.289,34.057
				c-3.768-19.115-21.295-19.871-21.537-33.114c3.178,7.802,10.836,5.786,15.885,12.115c-0.848-6.151-4.635-11.892-12.385-15.077
				c7.672-1.076,15.625,1.832,19.115,9.558c2.557-4.173,2.813-8.449,0.672-13.865c4.713,3.635,7.492,9.3,5.654,16.558
				C185.82-237.18,196.455-233.141,201.436-240.141z"/>
			
				<radialGradient id="SVGID_6_" cx="-39260" cy="-53429.5703" r="133.4345" gradientTransform="matrix(1 0 0 -1 39406.5586 -53548.4453)" gradientUnits="userSpaceOnUse">
				<stop  offset="0.3479" style="stop-color:#58AB40"/>
				<stop  offset="0.7607" style="stop-color:#80C342"/>
			</radialGradient>
			<path fill="url(#SVGID_6_)" d="M182.398-111.603c29.438,4.023,46.232,20.791,49.148,36.552
				c-3.924-9.251-12.984-15.224-23.6-18.632c10.615,14.013,7.193,31.866,21.115,41.697c-10.365-11.039-7.211-24.462-14.904-36.729
				c12.258,6.896,14.123,16.671,17.023,27.147c4.385,15.845,11.545,20.089,17.221,22.178c-11.699,0.45-28.66-4.531-36.781-20.102
				c-8.611-16.509-1.449-34.408-22.48-43.772c9.602,8.056,14.727,19.517,8.693,34.421c2.256-21.923-20.627-25.505-24.309-40.453
				c-0.629,11.53,7.18,21.223,14.549,25.904c-10.289-3.372-19.215-8.989-23.42-21.824c-6.924,21.393,5.314,38.455,12.9,38.455
				c2.627,0,4.535-1.672,4.535-4.164c0-6.449-11.641-6.449-14.596-18.854c5.322,10.823,25.549,8.872,25.549,20.76
				c0,9.738-13.639,14.037-22.355,7.984c6.387,8.34,21.258,8.619,25.551-1.42c0.662,4.308-1.309,10.757-7.453,13.129
				c-6.986,2.699-13.484-2.484-13.484-2.484c7.641,11.014,20.939,3.673,34.066,3.904c10.867,0.193,18.105,5.82,21.291,11.179
				c-2.967-1.486-4.639-1.886-7.629-1.951c6.293,3.878,10.848,12.796,9.049,21.469c-1.297-6.249-8.572-10.679-22.355-11.634
				c-15.557-1.077-23.809-3.569-29.1-9.303c11.201,4.957,28.936-1.908,40.986,6.032c-7.453-8.538-23.934-6.089-35.715-7.98
				c-20.707-3.323-33.324-38.287-31.707-53.633c-5.656,23.423,9.461,36.2,12.787,49.134c3.635,14.135-3.365,23.826-9.949,28.803
				c10.281-15.398-7.416-24.63-4.613-44.356c-5.227,19.188,4.436,24.661,4.436,34.598c0,9.759-8.584,12.994-10.291,25.549
				c-1.705-12.555-10.291-15.79-10.291-25.549c0-9.937,9.662-15.409,4.436-34.598c2.805,19.727-14.893,28.958-4.613,44.356
				c-6.582-4.977-13.582-14.668-9.947-28.803c3.324-12.934,18.441-25.711,12.787-49.134c1.615,15.346-11,50.31-31.707,53.633
				c-11.783,1.892-28.262-0.558-35.716,7.98c12.05-7.94,29.784-1.075,40.985-6.032c-5.289,5.733-13.541,8.226-29.098,9.303
				c-13.785,0.955-21.06,5.385-22.356,11.634c-1.799-8.673,2.755-17.591,9.049-21.469c-2.991,0.065-4.661,0.465-7.629,1.951
				c3.186-5.358,10.423-10.985,21.292-11.179c13.127-0.231,26.424,7.109,34.066-3.904c0,0-6.5,5.184-13.484,2.484
				c-6.146-2.372-8.115-8.821-7.453-13.129c4.293,10.039,19.162,9.76,25.549,1.42c-8.717,6.053-22.355,1.754-22.355-7.984
				c0-11.888,20.229-9.937,25.551-20.76c-2.955,12.405-14.596,12.405-14.596,18.854c0,2.492,1.908,4.164,4.535,4.164
				c7.584,0,19.824-17.063,12.898-38.455c-4.203,12.835-13.129,18.452-23.42,21.824c7.371-4.682,15.178-14.374,14.549-25.904
				c-3.682,14.948-26.563,18.53-24.309,40.453c-6.031-14.904-0.908-26.365,8.695-34.421C82.941-93.898,90.104-75.999,81.492-59.49
				c-8.121,15.57-25.082,20.552-36.78,20.102c5.675-2.089,12.836-6.333,17.221-22.178c2.898-10.477,4.766-20.251,17.024-27.147
				c-7.694,12.267-4.539,25.689-14.904,36.729c13.922-9.831,10.498-27.685,21.113-41.697c-10.615,3.408-19.677,9.381-23.598,18.632
				c2.914-15.761,19.711-32.528,49.148-36.552c-30.326-1.289-36.174,15.554-51.456,16.162c-9.682,0.385-18.136-8.391-28.033-13.678
				c12.113,3.072,31.107,11.328,41.164-2.129c0,0-6.194,5.261-18.275,3.728c-12.272-1.559-23.462-9.4-54.116-11.356
				c30.654-1.958,41.844-9.797,54.116-11.355c12.081-1.536,18.275,3.725,18.275,3.725c-10.057-13.457-29.051-5.199-41.164-2.129
				c9.897-5.287,18.352-14.061,28.033-13.676c15.282,0.606,21.13,17.451,51.456,16.16c-29.438-4.021-46.234-20.791-49.148-36.55
				c3.921,9.249,12.982,15.222,23.598,18.63c-10.615-14.013-7.191-31.866-21.113-41.695c10.365,11.037,7.21,24.462,14.904,36.727
				c-12.259-6.895-14.126-16.669-17.024-27.146c-4.385-15.847-11.546-20.089-17.221-22.18c11.698-0.449,28.659,4.531,36.78,20.102
				c8.611,16.512,1.449,34.411,22.482,43.772c-9.604-8.056-14.727-19.517-8.695-34.421c-2.254,21.923,20.627,25.505,24.309,40.453
				c0.629-11.53-7.178-21.223-14.549-25.904c10.291,3.372,19.217,8.989,23.42,21.824c6.926-21.391-5.314-38.455-12.898-38.455
				c-2.627,0-4.535,1.673-4.535,4.164c0,6.451,11.641,6.451,14.596,18.854c-5.322-10.821-25.551-8.869-25.551-20.758
				c0-9.738,13.639-14.037,22.355-7.985c-6.387-8.339-21.256-8.62-25.549,1.42c-0.662-4.308,1.307-10.757,7.453-13.13
				c6.984-2.698,13.484,2.484,13.484,2.484c-7.643-11.014-20.939-3.671-34.066-3.904c-10.869-0.191-18.106-5.82-21.292-11.177
				c2.968,1.484,4.638,1.885,7.629,1.951c-6.294-3.879-10.848-12.798-9.049-21.469c1.297,6.248,8.571,10.678,22.356,11.633
				c15.557,1.076,23.809,3.568,29.098,9.305c-11.201-4.96-28.936,1.907-40.985-6.033c7.454,8.537,23.933,6.09,35.716,7.98
				c20.707,3.322,33.322,38.285,31.707,53.631c5.654-23.423-9.463-36.2-12.787-49.134c-3.635-14.134,3.365-23.826,9.947-28.802
				c-10.279,15.398,7.418,24.629,4.613,44.357c5.227-19.19-4.436-24.662-4.436-34.599c0-9.759,8.586-12.995,10.291-25.55
				c1.707,12.555,10.291,15.791,10.291,25.55c0,9.937-9.662,15.408-4.436,34.599c-2.803-19.729,14.895-28.959,4.613-44.357
				c6.584,4.976,13.584,14.668,9.949,28.802c-3.326,12.934-18.443,25.711-12.787,49.134c-1.617-15.346,11-50.309,31.707-53.631
				c11.781-1.891,28.262,0.557,35.715-7.98c-12.051,7.94-29.785,1.073-40.986,6.033c5.291-5.736,13.543-8.229,29.1-9.305
				c13.783-0.955,21.059-5.385,22.355-11.633c1.799,8.671-2.756,17.59-9.049,21.469c2.99-0.066,4.662-0.467,7.629-1.951
				c-3.186,5.356-10.424,10.985-21.291,11.177c-13.127,0.233-26.426-7.109-34.066,3.904c0,0,6.498-5.183,13.484-2.484
				c6.145,2.373,8.115,8.822,7.453,13.13c-4.293-10.04-19.164-9.759-25.551-1.42c8.717-6.052,22.355-1.753,22.355,7.985
				c0,11.889-20.227,9.937-25.549,20.758c2.955-12.403,14.596-12.403,14.596-18.854c0-2.491-1.908-4.164-4.535-4.164
				c-7.586,0-19.824,17.064-12.9,38.455c4.205-12.835,13.131-18.452,23.42-21.824c-7.369,4.682-15.178,14.374-14.549,25.904
				c3.682-14.948,26.564-18.53,24.309-40.453c6.033,14.904,0.908,26.365-8.693,34.421c21.031-9.361,13.869-27.261,22.48-43.772
				c8.121-15.57,25.082-20.551,36.781-20.102c-5.676,2.091-12.836,6.333-17.221,22.18c-2.9,10.477-4.766,20.251-17.023,27.146
				c7.693-12.265,4.539-25.689,14.904-36.727c-13.922,9.829-10.5,27.683-21.115,41.695c10.615-3.408,19.676-9.381,23.6-18.63
				c-2.916,15.759-19.711,32.528-49.148,36.55c30.326,1.291,36.172-15.554,51.453-16.16c9.684-0.385,18.137,8.389,28.035,13.676
				c-12.113-3.07-31.107-11.328-41.164,2.129c0,0,6.193-5.261,18.275-3.725c12.271,1.559,23.461,9.397,54.115,11.355
				c-30.654,1.956-41.844,9.798-54.115,11.356c-12.082,1.533-18.275-3.728-18.275-3.728c10.057,13.457,29.051,5.201,41.164,2.129
				c-9.898,5.287-18.352,14.063-28.035,13.678C218.57-96.049,212.725-112.892,182.398-111.603z M215.754-118.876
				c4.613,1.241,8.633,3.77,14.488,3.77c7.113,0,11.074-2.751,16.74-3.77c-5.666-1.018-9.627-3.77-16.74-3.77
				C224.387-122.646,220.367-120.119,215.754-118.876z M143.541-209.188c0,5.123,3.016,8.397,3.016,12.123
				c0-3.726,3.018-7,3.018-12.123c0-4.568-2.25-6.652-3.018-11.435C145.789-215.84,143.541-213.756,143.541-209.188z
				 M77.359-118.876c-4.613-1.243-8.634-3.77-14.488-3.77c-7.113,0-11.073,2.752-16.739,3.77c5.666,1.019,9.626,3.77,16.739,3.77
				C68.726-115.106,72.746-117.635,77.359-118.876z M149.574-28.565c0-5.123-3.018-8.398-3.018-12.123c0,3.725-3.016,7-3.016,12.123
				c0,4.568,2.248,6.653,3.016,11.434C147.324-21.912,149.574-23.997,149.574-28.565z M191.625-118.876
				c-9.938,0-24.088-4.982-34.953-3.016c3.449-2.1,4.982-3.673,7.451-6.744c-4.406,0.434-6.758,0.796-10.113,2.308
				c2.662-6.018,3.193-9.399,3.725-15.437c-3.068,3.565-4.639,5.74-6.564,10.646c0.709-12.42-4.258-15.247-4.613-31.761
				c-0.355,16.514-5.322,19.341-4.613,31.761c-1.924-4.905-3.494-7.08-6.564-10.646c0.531,6.037,1.064,9.419,3.727,15.437
				c-3.355-1.512-5.709-1.874-10.115-2.308c2.471,3.071,4.004,4.645,7.453,6.744c-10.865-1.967-25.018,3.016-34.953,3.016
				c9.936,0,24.088,4.98,34.953,3.017c-3.449,2.097-4.982,3.67-7.453,6.741c4.406-0.432,6.76-0.796,10.115-2.306
				c-2.662,6.016-3.195,9.397-3.727,15.437c3.07-3.565,4.641-5.742,6.564-10.647c-0.709,12.421,4.258,15.247,4.613,31.761
				c0.355-16.514,5.322-19.34,4.613-31.761c1.926,4.905,3.496,7.082,6.564,10.647c-0.531-6.039-1.063-9.421-3.725-15.437
				c3.355,1.51,5.707,1.874,10.113,2.306c-2.469-3.071-4.002-4.645-7.451-6.741C167.537-113.896,181.688-118.876,191.625-118.876z"
				/>
			<path fill="#FFC20E" d="M164.777-118.876c-4.258-0.664-9.389-3.201-14.131-1.22c2.322-1.805,1.145-3.515,2.529-5.197
				c-1.916,1.388-3.51,0.503-4.986,2.745c1.535-5.31-0.529-8.143-1.633-14.118c-1.104,5.976-3.168,8.809-1.633,14.118
				c-1.475-2.242-3.068-1.357-4.984-2.745c1.385,1.683,0.205,3.393,2.529,5.197c-4.742-1.981-9.875,0.556-14.131,1.22
				c4.256,0.665,9.389,3.199,14.131,1.218c-2.324,1.805-1.145,3.517-2.529,5.197c1.916-1.386,3.51-0.5,4.984-2.742
				c-1.535,5.309,0.529,8.14,1.633,14.117c1.104-5.978,3.168-8.809,1.633-14.117c1.477,2.242,3.07,1.356,4.986,2.742
				c-1.385-1.681-0.207-3.393-2.529-5.197C155.389-115.677,160.52-118.211,164.777-118.876z"/>
		</g>
		<g>
			
				<linearGradient id="SVGID_7_" gradientUnits="userSpaceOnUse" x1="55202.75" y1="36770.8789" x2="55202.75" y2="36798.9844" gradientTransform="matrix(-1 0 0 1 55766.9844 -37062.6875)">
				<stop  offset="0.2331" style="stop-color:#FAA61A"/>
				<stop  offset="0.7607" style="stop-color:#FFC20E"/>
			</linearGradient>
			<path fill="url(#SVGID_7_)" d="M538.32-256.798c2.641-13.83,25.365-16.256,30.287-34.057
				c3.77,19.115,21.295,19.871,21.539,33.115c-3.18-7.803-10.838-5.787-15.885-12.115c0.846,6.152,4.635,11.891,12.385,15.076
				c-7.674,1.076-15.627-1.832-19.115-9.559c-2.559,4.174-2.813,8.449-0.674,13.865c-4.711-3.635-7.492-9.299-5.654-16.557
				C553.936-259.759,543.301-263.798,538.32-256.798z"/>
			<path fill="#2C973E" d="M525.396-309.565c5.52-4.578,10.662-12.461,11.443-22.75c1.076,10.23,3.197,18.135,8.211,23.961
				c0,0-6.328-3.096-8.615-9.154C533.475-312.259,525.396-309.565,525.396-309.565z"/>
			<path fill="#2C973E" d="M511.396-258.683c1.219-5.969,6.307-11.178,12.924-13.73c-2.711,6.994-1.703,13.799,2.154,19.789
				c-0.898-7.766,1.469-13.209,5.787-18.039c-1.359,4.83-1.242,9.268,1.078,13.865c-0.943-8.48,6.168-12.785,15.615-18.441
				c12.66-7.578,17.277-16.043,19.248-27.227c-3.451,6.865-9.902,13.139-27.859,17.293
				C518.046-280.015,509.952-272.757,511.396-258.683z"/>
			
				<radialGradient id="SVGID_8_" cx="-38813.3594" cy="-53170.3828" r="133.4363" gradientTransform="matrix(1 0 0 -1 39406.5586 -53548.4453)" gradientUnits="userSpaceOnUse">
				<stop  offset="0.3479" style="stop-color:#58AB40"/>
				<stop  offset="0.7607" style="stop-color:#80C342"/>
			</radialGradient>
			<path fill="url(#SVGID_8_)" d="M629.039-370.788c29.438,4.023,46.232,20.791,49.148,36.553
				c-3.924-9.252-12.984-15.225-23.6-18.633c10.615,14.014,7.193,31.867,21.115,41.697c-10.365-11.039-7.211-24.461-14.904-36.729
				c12.258,6.896,14.123,16.672,17.023,27.148c4.385,15.844,11.545,20.088,17.221,22.178c-11.699,0.449-28.66-4.531-36.781-20.102
				c-8.611-16.51-1.449-34.408-22.48-43.773c9.602,8.057,14.727,19.518,8.693,34.422c2.256-21.924-20.627-25.506-24.309-40.453
				c-0.629,11.529,7.18,21.223,14.549,25.904c-10.289-3.373-19.215-8.99-23.42-21.824c-6.924,21.393,5.314,38.455,12.9,38.455
				c2.627,0,4.535-1.672,4.535-4.164c0-6.449-11.641-6.449-14.596-18.855c5.322,10.824,25.549,8.873,25.549,20.76
				c0,9.738-13.639,14.037-22.355,7.984c6.387,8.34,21.258,8.619,25.551-1.42c0.662,4.309-1.309,10.758-7.453,13.129
				c-6.986,2.699-13.484-2.484-13.484-2.484c7.641,11.014,20.939,3.674,34.066,3.904c10.867,0.193,18.105,5.82,21.291,11.18
				c-2.967-1.486-4.639-1.887-7.629-1.951c6.293,3.877,10.848,12.795,9.049,21.469c-1.297-6.25-8.572-10.68-22.355-11.635
				c-15.557-1.076-23.809-3.568-29.1-9.303c11.201,4.957,28.936-1.908,40.986,6.033c-7.453-8.539-23.934-6.09-35.715-7.98
				c-20.707-3.324-33.324-38.287-31.707-53.633c-5.656,23.422,9.461,36.199,12.787,49.133c3.635,14.135-3.365,23.826-9.949,28.803
				c10.281-15.398-7.416-24.629-4.613-44.355c-5.227,19.188,4.436,24.66,4.436,34.598c0,9.758-8.584,12.994-10.291,25.549
				c-1.705-12.555-10.291-15.791-10.291-25.549c0-9.938,9.662-15.41,4.436-34.598c2.805,19.727-14.893,28.957-4.613,44.355
				c-6.582-4.977-13.582-14.668-9.947-28.803c3.324-12.934,18.441-25.711,12.787-49.133c1.615,15.346-11,50.309-31.707,53.633
				c-11.783,1.891-28.262-0.559-35.716,7.98c12.05-7.941,29.784-1.076,40.985-6.033c-5.289,5.734-13.541,8.227-29.098,9.303
				c-13.785,0.955-21.06,5.385-22.356,11.635c-1.799-8.674,2.755-17.592,9.049-21.469c-2.991,0.064-4.661,0.465-7.629,1.951
				c3.186-5.359,10.423-10.986,21.292-11.18c13.127-0.23,26.424,7.109,34.066-3.904c0,0-6.5,5.184-13.484,2.484
				c-6.146-2.371-8.115-8.82-7.453-13.129c4.293,10.039,19.162,9.76,25.549,1.42c-8.717,6.053-22.355,1.754-22.355-7.984
				c0-11.887,20.229-9.936,25.551-20.76c-2.955,12.406-14.596,12.406-14.596,18.855c0,2.492,1.908,4.164,4.535,4.164
				c7.584,0,19.824-17.063,12.898-38.455c-4.203,12.834-13.129,18.451-23.42,21.824c7.371-4.682,15.178-14.375,14.549-25.904
				c-3.682,14.947-26.563,18.529-24.309,40.453c-6.031-14.904-0.908-26.365,8.695-34.422c-21.033,9.365-13.871,27.264-22.482,43.773
				c-8.121,15.57-25.082,20.551-36.78,20.102c5.675-2.09,12.836-6.334,17.221-22.178c2.898-10.477,4.766-20.252,17.024-27.148
				c-7.694,12.268-4.539,25.689-14.904,36.729c13.922-9.83,10.498-27.684,21.113-41.697c-10.615,3.408-19.677,9.381-23.598,18.633
				c2.914-15.762,19.711-32.529,49.148-36.553c-30.326-1.289-36.174,15.555-51.456,16.162c-9.682,0.385-18.136-8.391-28.033-13.678
				c12.113,3.072,31.107,11.328,41.164-2.129c0,0-6.194,5.262-18.275,3.729c-12.272-1.559-23.462-9.4-54.116-11.357
				c30.654-1.957,41.844-9.797,54.116-11.355c12.081-1.535,18.275,3.725,18.275,3.725c-10.057-13.457-29.051-5.199-41.164-2.129
				c9.897-5.287,18.352-14.061,28.033-13.676c15.282,0.607,21.13,17.451,51.456,16.16c-29.438-4.021-46.234-20.791-49.148-36.549
				c3.921,9.248,12.982,15.221,23.598,18.629c-10.615-14.012-7.191-31.865-21.113-41.695c10.365,11.037,7.21,24.463,14.904,36.727
				c-12.259-6.895-14.126-16.668-17.024-27.145c-4.385-15.848-11.546-20.09-17.221-22.18c11.698-0.449,28.659,4.531,36.78,20.102
				c8.611,16.512,1.449,34.41,22.482,43.771c-9.604-8.055-14.727-19.516-8.695-34.42c-2.254,21.922,20.627,25.504,24.309,40.453
				c0.629-11.531-7.178-21.223-14.549-25.904c10.291,3.371,19.217,8.988,23.42,21.824c6.926-21.391-5.314-38.455-12.898-38.455
				c-2.627,0-4.535,1.672-4.535,4.164c0,6.451,11.641,6.451,14.596,18.854c-5.322-10.82-25.551-8.869-25.551-20.758
				c0-9.738,13.639-14.037,22.355-7.984c-6.387-8.34-21.256-8.621-25.549,1.42c-0.662-4.309,1.307-10.758,7.453-13.131
				c6.984-2.697,13.484,2.484,13.484,2.484c-7.643-11.014-20.939-3.67-34.066-3.904c-10.869-0.191-18.106-5.82-21.292-11.176
				c2.968,1.484,4.638,1.885,7.629,1.951c-6.294-3.879-10.848-12.799-9.049-21.469c1.297,6.248,8.571,10.678,22.356,11.633
				c15.557,1.076,23.809,3.568,29.098,9.305c-11.201-4.961-28.936,1.906-40.985-6.033c7.454,8.537,23.933,6.09,35.716,7.98
				c20.707,3.322,33.322,38.285,31.707,53.631c5.654-23.424-9.463-36.201-12.787-49.135c-3.635-14.133,3.365-23.826,9.947-28.801
				c-10.279,15.398,7.418,24.629,4.613,44.357c5.227-19.191-4.436-24.662-4.436-34.6c0-9.758,8.586-12.994,10.291-25.549
				c1.707,12.555,10.291,15.791,10.291,25.549c0,9.938-9.662,15.408-4.436,34.6c-2.803-19.729,14.895-28.959,4.613-44.357
				c6.584,4.975,13.584,14.668,9.949,28.801c-3.326,12.934-18.443,25.711-12.787,49.135c-1.617-15.346,11-50.309,31.707-53.631
				c11.781-1.891,28.262,0.557,35.715-7.98c-12.051,7.939-29.785,1.072-40.986,6.033c5.291-5.736,13.543-8.229,29.1-9.305
				c13.783-0.955,21.059-5.385,22.355-11.633c1.799,8.67-2.756,17.59-9.049,21.469c2.99-0.066,4.662-0.467,7.629-1.951
				c-3.186,5.355-10.424,10.984-21.291,11.176c-13.127,0.234-26.426-7.109-34.066,3.904c0,0,6.498-5.182,13.484-2.484
				c6.145,2.373,8.115,8.822,7.453,13.131c-4.293-10.041-19.164-9.76-25.551-1.42c8.717-6.053,22.355-1.754,22.355,7.984
				c0,11.889-20.227,9.938-25.549,20.758c2.955-12.402,14.596-12.402,14.596-18.854c0-2.492-1.908-4.164-4.535-4.164
				c-7.586,0-19.824,17.064-12.9,38.455c4.205-12.836,13.131-18.453,23.42-21.824c-7.369,4.682-15.178,14.373-14.549,25.904
				c3.682-14.949,26.564-18.531,24.309-40.453c6.033,14.904,0.908,26.365-8.693,34.42c21.031-9.361,13.869-27.26,22.48-43.771
				c8.121-15.57,25.082-20.551,36.781-20.102c-5.676,2.09-12.836,6.332-17.221,22.18c-2.9,10.477-4.766,20.25-17.023,27.145
				c7.693-12.264,4.539-25.689,14.904-36.727c-13.922,9.83-10.5,27.684-21.115,41.695c10.615-3.408,19.676-9.381,23.6-18.629
				c-2.916,15.758-19.711,32.527-49.148,36.549c30.326,1.291,36.172-15.553,51.453-16.16c9.684-0.385,18.137,8.389,28.035,13.676
				c-12.113-3.07-31.107-11.328-41.164,2.129c0,0,6.193-5.26,18.275-3.725c12.271,1.559,23.461,9.398,54.115,11.355
				c-30.654,1.957-41.844,9.799-54.115,11.357c-12.082,1.533-18.275-3.729-18.275-3.729c10.057,13.457,29.051,5.201,41.164,2.129
				c-9.898,5.287-18.352,14.063-28.035,13.678C665.211-355.233,659.365-372.077,629.039-370.788z M662.395-378.062
				c4.613,1.242,8.633,3.77,14.488,3.77c7.113,0,11.074-2.75,16.74-3.77c-5.666-1.018-9.627-3.77-16.74-3.77
				C671.027-381.831,667.008-379.304,662.395-378.062z M590.182-468.372c0,5.123,3.016,8.396,3.016,12.123
				c0-3.727,3.018-7,3.018-12.123c0-4.568-2.25-6.652-3.018-11.436C592.43-475.024,590.182-472.94,590.182-468.372z M524-378.062
				c-4.613-1.242-8.634-3.77-14.488-3.77c-7.113,0-11.073,2.752-16.739,3.77c5.666,1.02,9.626,3.77,16.739,3.77
				C515.366-374.292,519.387-376.819,524-378.062z M596.215-287.751c0-5.123-3.018-8.398-3.018-12.123c0,3.725-3.016,7-3.016,12.123
				c0,4.568,2.248,6.654,3.016,11.434C593.965-281.097,596.215-283.183,596.215-287.751z M638.266-378.062
				c-9.938,0-24.088-4.982-34.953-3.016c3.449-2.1,4.982-3.672,7.451-6.744c-4.406,0.434-6.758,0.797-10.113,2.309
				c2.662-6.018,3.193-9.4,3.725-15.438c-3.068,3.566-4.639,5.74-6.564,10.646c0.709-12.42-4.258-15.248-4.613-31.762
				c-0.355,16.514-5.322,19.342-4.613,31.762c-1.924-4.906-3.494-7.08-6.564-10.646c0.531,6.037,1.064,9.42,3.727,15.438
				c-3.355-1.512-5.709-1.875-10.115-2.309c2.471,3.072,4.004,4.645,7.453,6.744c-10.865-1.967-25.018,3.016-34.953,3.016
				c9.936,0,24.088,4.98,34.953,3.018c-3.449,2.096-4.982,3.67-7.453,6.74c4.406-0.432,6.76-0.795,10.115-2.305
				c-2.662,6.016-3.195,9.396-3.727,15.436c3.07-3.564,4.641-5.742,6.564-10.646c-0.709,12.42,4.258,15.246,4.613,31.76
				c0.355-16.514,5.322-19.34,4.613-31.76c1.926,4.904,3.496,7.082,6.564,10.646c-0.531-6.039-1.063-9.42-3.725-15.436
				c3.355,1.51,5.707,1.873,10.113,2.305c-2.469-3.07-4.002-4.645-7.451-6.74C614.178-373.081,628.328-378.062,638.266-378.062z"/>
			
				<linearGradient id="SVGID_9_" gradientUnits="userSpaceOnUse" x1="-38891.8867" y1="36729.5977" x2="-38915.1836" y2="36737.5352" gradientTransform="matrix(1 0 0 1 39406.5586 -37077.2266)">
				<stop  offset="0.2331" style="stop-color:#FAA61A"/>
				<stop  offset="0.7607" style="stop-color:#FFC20E"/>
			</linearGradient>
			<path fill="url(#SVGID_9_)" d="M511.666-350.892c-4.688,4.596-6.91,12.186-7.27,21.721c-0.471,12.527-5.409,17.656-13.326,18.527
				c11.802-4.578,4.444-17.113,7.942-25.846c-6.441,4.787-4.382,20.678-17.635,21.404c9.78-3.197,2.835-16.676,9.288-24.5
				c-7.808,0.107-11.396-6.125-21.538-3.23c4.715-3.635,9.965-5.924,18.846-5.924c-6.254-3.859-8.999-8.625-11.308-15.346
				C486.794-353.491,501.519-349.417,511.666-350.892z"/>
			<path fill="#FFC20E" d="M611.418-378.062c-4.258-0.664-9.389-3.201-14.131-1.219c2.322-1.805,1.145-3.516,2.529-5.197
				c-1.916,1.387-3.51,0.502-4.986,2.744c1.535-5.309-0.529-8.143-1.633-14.117c-1.104,5.975-3.168,8.809-1.633,14.117
				c-1.475-2.242-3.068-1.357-4.984-2.744c1.385,1.682,0.205,3.393,2.529,5.197c-4.742-1.982-9.875,0.555-14.131,1.219
				c4.256,0.666,9.389,3.199,14.131,1.219c-2.324,1.805-1.145,3.516-2.529,5.197c1.916-1.387,3.51-0.5,4.984-2.742
				c-1.535,5.309,0.529,8.139,1.633,14.117c1.104-5.979,3.168-8.809,1.633-14.117c1.477,2.242,3.07,1.355,4.986,2.742
				c-1.385-1.682-0.207-3.393-2.529-5.197C602.029-374.862,607.16-377.396,611.418-378.062z"/>
		</g>
		<g>
			
				<linearGradient id="SVGID_10_" gradientUnits="userSpaceOnUse" x1="55426.0703" y1="36900.4727" x2="55426.0703" y2="36928.5781" gradientTransform="matrix(-1 0 0 1 55766.9844 -37062.6875)">
				<stop  offset="0.2331" style="stop-color:#FAA61A"/>
				<stop  offset="0.7607" style="stop-color:#FFC20E"/>
			</linearGradient>
			<path fill="url(#SVGID_10_)" d="M315-127.205c2.641-13.83,25.365-16.257,30.287-34.058c3.77,19.115,21.295,19.872,21.539,33.115
				c-3.18-7.802-10.838-5.786-15.885-12.115c0.846,6.152,4.635,11.892,12.385,15.076c-7.674,1.077-15.627-1.832-19.115-9.558
				c-2.559,4.174-2.813,8.449-0.674,13.865c-4.711-3.635-7.492-9.299-5.654-16.557C330.615-130.167,319.98-134.205,315-127.205z"/>
			
				<linearGradient id="SVGID_11_" gradientUnits="userSpaceOnUse" x1="-38943.7148" y1="36900.4727" x2="-38943.7148" y2="36928.5781" gradientTransform="matrix(1 0 0 1 39342.5586 -37062.6875)">
				<stop  offset="0.2331" style="stop-color:#FAA61A"/>
				<stop  offset="0.7607" style="stop-color:#FFC20E"/>
			</linearGradient>
			<path fill="url(#SVGID_11_)" d="M424.756-127.205c-2.643-13.83-25.367-16.257-30.289-34.058
				c-3.768,19.115-21.295,19.872-21.537,33.115c3.178-7.802,10.836-5.786,15.885-12.115c-0.848,6.152-4.635,11.892-12.385,15.076
				c7.672,1.077,15.625-1.832,19.115-9.558c2.557,4.174,2.813,8.449,0.672,13.865c4.713-3.635,7.492-9.299,5.654-16.557
				C409.141-130.167,419.775-134.205,424.756-127.205z"/>
			
				<linearGradient id="SVGID_12_" gradientUnits="userSpaceOnUse" x1="55382.5859" y1="-53269.543" x2="55359.2852" y2="-53261.6055" gradientTransform="matrix(-1 0 0 -1 55830.9844 -53548.4453)">
				<stop  offset="0.2331" style="stop-color:#FAA61A"/>
				<stop  offset="0.7607" style="stop-color:#FFC20E"/>
			</linearGradient>
			<path fill="url(#SVGID_12_)" d="M451.408-275.64c4.688-4.596,6.912-12.185,7.27-21.721c0.471-12.527,5.41-17.657,13.326-18.528
				c-11.801,4.579-4.443,17.117-7.941,25.846c6.439-4.785,4.381-20.678,17.635-21.403c-9.781,3.196-2.836,16.677-9.289,24.499
				c7.809-0.107,11.398,6.127,21.539,3.231c-4.717,3.636-9.965,5.923-18.846,5.923c6.254,3.861,9,8.628,11.307,15.346
				C476.281-273.04,461.557-277.111,451.408-275.64z"/>
			<path fill="#2C973E" d="M302.076-316.966c5.52,4.577,10.662,12.461,11.443,22.75c1.076-10.23,3.197-18.133,8.211-23.961
				c0,0-6.328,3.096-8.615,9.153C310.154-314.273,302.076-316.966,302.076-316.966z"/>
			<path fill="#2C973E" d="M288.076-367.849c1.219,5.969,6.307,11.176,12.924,13.73c-2.711-6.992-1.703-13.798,2.154-19.789
				c-0.898,7.766,1.469,13.211,5.787,18.039c-1.359-4.828-1.242-9.268,1.078-13.865c-0.943,8.48,6.168,12.787,15.615,18.442
				c12.66,7.579,17.277,16.042,19.248,27.227c-3.451-6.867-9.902-13.138-27.859-17.292
				C294.726-346.517,286.632-353.772,288.076-367.849z"/>
			
				<linearGradient id="SVGID_13_" gradientUnits="userSpaceOnUse" x1="-39115.2109" y1="-53269.5469" x2="-39138.5078" y2="-53261.6094" gradientTransform="matrix(1 0 0 -1 39406.5586 -53548.4453)">
				<stop  offset="0.2331" style="stop-color:#FAA61A"/>
				<stop  offset="0.7607" style="stop-color:#FFC20E"/>
			</linearGradient>
			<path fill="url(#SVGID_13_)" d="M288.346-275.64c-4.688-4.596-6.91-12.185-7.27-21.721c-0.471-12.527-5.409-17.657-13.326-18.528
				c11.802,4.579,4.444,17.117,7.942,25.846c-6.441-4.785-4.382-20.678-17.635-21.403c9.78,3.196,2.835,16.677,9.288,24.499
				c-7.808-0.107-11.396,6.127-21.538,3.231c4.715,3.636,9.965,5.923,18.846,5.923c-6.254,3.861-8.999,8.628-11.308,15.346
				C263.474-273.04,278.198-277.111,288.346-275.64z"/>
			<path fill="#2C973E" d="M437.678-316.966c-5.52,4.577-10.66,12.461-11.441,22.75c-1.076-10.23-3.199-18.133-8.211-23.961
				c0,0,6.326,3.096,8.615,9.153C429.602-314.273,437.678-316.966,437.678-316.966z"/>
			<path fill="#2C973E" d="M451.678-367.849c-1.217,5.969-6.307,11.176-12.922,13.73c2.709-6.992,1.703-13.798-2.154-19.789
				c0.898,7.766-1.469,13.211-5.789,18.039c1.361-4.828,1.242-9.268-1.076-13.865c0.941,8.48-6.168,12.787-15.615,18.442
				c-12.66,7.579-17.277,16.042-19.25,27.227c3.451-6.867,9.902-13.138,27.859-17.292
				C445.029-346.517,453.123-353.772,451.678-367.849z"/>
			
				<linearGradient id="SVGID_14_" gradientUnits="userSpaceOnUse" x1="-39007.7148" y1="-53213.7227" x2="-39007.7148" y2="-53185.6172" gradientTransform="matrix(1 0 0 -1 39406.5586 -53548.4453)">
				<stop  offset="0.2331" style="stop-color:#FAA61A"/>
				<stop  offset="0.7607" style="stop-color:#FFC20E"/>
			</linearGradient>
			<path fill="url(#SVGID_14_)" d="M424.756-369.733c-2.643,13.83-25.367,16.256-30.289,34.057
				c-3.768-19.115-21.295-19.871-21.537-33.114c3.178,7.802,10.836,5.786,15.885,12.115c-0.848-6.151-4.635-11.892-12.385-15.077
				c7.672-1.076,15.625,1.832,19.115,9.558c2.557-4.173,2.813-8.449,0.672-13.865c4.713,3.635,7.492,9.3,5.654,16.558
				C409.141-366.772,419.775-362.733,424.756-369.733z"/>
			<path fill="#2C973E" d="M302.076-179.974c5.52-4.577,10.662-12.46,11.443-22.75c1.076,10.23,3.197,18.136,8.211,23.962
				c0,0-6.328-3.097-8.615-9.154C310.154-182.666,302.076-179.974,302.076-179.974z"/>
			<path fill="#2C973E" d="M288.076-129.09c1.219-5.97,6.307-11.178,12.924-13.73c-2.711,6.993-1.703,13.798,2.154,19.788
				c-0.898-7.766,1.469-13.209,5.787-18.038c-1.359,4.829-1.242,9.268,1.078,13.865c-0.943-8.48,6.168-12.786,15.615-18.442
				c12.66-7.578,17.277-16.042,19.248-27.226c-3.451,6.865-9.902,13.138-27.859,17.292
				C294.726-150.422,286.632-143.165,288.076-129.09z"/>
			
				<radialGradient id="SVGID_15_" cx="-39036.6797" cy="-53299.9766" r="133.4345" gradientTransform="matrix(1 0 0 -1 39406.5586 -53548.4453)" gradientUnits="userSpaceOnUse">
				<stop  offset="0.3479" style="stop-color:#58AB40"/>
				<stop  offset="0.7607" style="stop-color:#80C342"/>
			</radialGradient>
			<path fill="url(#SVGID_15_)" d="M405.719-241.195c29.438,4.023,46.232,20.791,49.148,36.552
				c-3.924-9.251-12.984-15.224-23.6-18.632c10.615,14.013,7.193,31.866,21.115,41.697c-10.365-11.039-7.211-24.462-14.904-36.729
				c12.258,6.896,14.123,16.671,17.023,27.147c4.385,15.845,11.545,20.089,17.221,22.178c-11.699,0.45-28.66-4.531-36.781-20.102
				c-8.611-16.509-1.449-34.408-22.48-43.772c9.602,8.056,14.727,19.517,8.693,34.421c2.256-21.923-20.627-25.505-24.309-40.453
				c-0.629,11.53,7.18,21.223,14.549,25.904c-10.289-3.372-19.215-8.989-23.42-21.824c-6.924,21.393,5.314,38.455,12.9,38.455
				c2.627,0,4.535-1.672,4.535-4.164c0-6.449-11.641-6.449-14.596-18.854c5.322,10.823,25.549,8.872,25.549,20.76
				c0,9.738-13.639,14.037-22.355,7.984c6.387,8.34,21.258,8.619,25.551-1.42c0.662,4.308-1.309,10.757-7.453,13.129
				c-6.986,2.699-13.484-2.484-13.484-2.484c7.641,11.014,20.939,3.673,34.066,3.904c10.867,0.193,18.105,5.82,21.291,11.179
				c-2.967-1.486-4.639-1.886-7.629-1.951c6.293,3.878,10.848,12.796,9.049,21.469c-1.297-6.249-8.572-10.679-22.355-11.634
				c-15.557-1.077-23.809-3.569-29.1-9.303c11.201,4.957,28.936-1.908,40.986,6.032c-7.453-8.538-23.934-6.089-35.715-7.98
				c-20.707-3.323-33.324-38.287-31.707-53.633c-5.656,23.423,9.461,36.2,12.787,49.134c3.635,14.135-3.365,23.826-9.949,28.803
				c10.281-15.398-7.416-24.63-4.613-44.356c-5.227,19.188,4.436,24.661,4.436,34.598c0,9.759-8.584,12.994-10.291,25.549
				c-1.705-12.555-10.291-15.79-10.291-25.549c0-9.937,9.662-15.409,4.436-34.598c2.805,19.727-14.893,28.958-4.613,44.356
				c-6.582-4.977-13.582-14.668-9.947-28.803c3.324-12.934,18.441-25.711,12.787-49.134c1.615,15.346-11,50.31-31.707,53.633
				c-11.783,1.892-28.262-0.558-35.716,7.98c12.05-7.94,29.784-1.075,40.985-6.032c-5.289,5.733-13.541,8.226-29.098,9.303
				c-13.785,0.955-21.06,5.385-22.356,11.634c-1.799-8.673,2.755-17.591,9.049-21.469c-2.991,0.065-4.661,0.465-7.629,1.951
				c3.186-5.358,10.423-10.985,21.292-11.179c13.127-0.231,26.424,7.109,34.066-3.904c0,0-6.5,5.184-13.484,2.484
				c-6.146-2.372-8.115-8.821-7.453-13.129c4.293,10.039,19.162,9.76,25.549,1.42c-8.717,6.053-22.355,1.754-22.355-7.984
				c0-11.888,20.229-9.937,25.551-20.76c-2.955,12.405-14.596,12.405-14.596,18.854c0,2.492,1.908,4.164,4.535,4.164
				c7.584,0,19.824-17.063,12.898-38.455c-4.203,12.835-13.129,18.452-23.42,21.824c7.371-4.682,15.178-14.374,14.549-25.904
				c-3.682,14.948-26.563,18.53-24.309,40.453c-6.031-14.904-0.908-26.365,8.695-34.421c-21.033,9.364-13.871,27.264-22.482,43.772
				c-8.121,15.57-25.082,20.552-36.78,20.102c5.675-2.089,12.836-6.333,17.221-22.178c2.898-10.477,4.766-20.251,17.024-27.147
				c-7.694,12.267-4.539,25.689-14.904,36.729c13.922-9.831,10.498-27.685,21.113-41.697c-10.615,3.408-19.677,9.381-23.598,18.632
				c2.914-15.761,19.711-32.528,49.148-36.552c-30.326-1.289-36.174,15.554-51.456,16.162c-9.682,0.385-18.136-8.391-28.033-13.678
				c12.113,3.072,31.107,11.328,41.164-2.129c0,0-6.194,5.261-18.275,3.728c-12.272-1.559-23.462-9.4-54.116-11.356
				c30.654-1.958,41.844-9.797,54.116-11.355c12.081-1.536,18.275,3.725,18.275,3.725c-10.057-13.457-29.051-5.199-41.164-2.129
				c9.897-5.287,18.352-14.061,28.033-13.676c15.282,0.606,21.13,17.451,51.456,16.16c-29.438-4.021-46.234-20.791-49.148-36.55
				c3.921,9.249,12.982,15.222,23.598,18.63c-10.615-14.013-7.191-31.866-21.113-41.695c10.365,11.037,7.21,24.462,14.904,36.727
				c-12.259-6.895-14.126-16.669-17.024-27.146c-4.385-15.847-11.546-20.089-17.221-22.18c11.698-0.449,28.659,4.531,36.78,20.102
				c8.611,16.512,1.449,34.411,22.482,43.772c-9.604-8.056-14.727-19.517-8.695-34.421c-2.254,21.923,20.627,25.505,24.309,40.453
				c0.629-11.53-7.178-21.223-14.549-25.904c10.291,3.372,19.217,8.989,23.42,21.824c6.926-21.391-5.314-38.455-12.898-38.455
				c-2.627,0-4.535,1.673-4.535,4.164c0,6.451,11.641,6.451,14.596,18.854c-5.322-10.821-25.551-8.869-25.551-20.758
				c0-9.738,13.639-14.037,22.355-7.985c-6.387-8.339-21.256-8.62-25.549,1.42c-0.662-4.308,1.307-10.757,7.453-13.13
				c6.984-2.698,13.484,2.484,13.484,2.484c-7.643-11.014-20.939-3.671-34.066-3.904c-10.869-0.191-18.106-5.82-21.292-11.177
				c2.968,1.484,4.638,1.885,7.629,1.951c-6.294-3.879-10.848-12.798-9.049-21.469c1.297,6.248,8.571,10.678,22.356,11.633
				c15.557,1.076,23.809,3.568,29.098,9.305c-11.201-4.96-28.936,1.907-40.985-6.033c7.454,8.537,23.933,6.09,35.716,7.98
				c20.707,3.322,33.322,38.285,31.707,53.631c5.654-23.423-9.463-36.2-12.787-49.134c-3.635-14.134,3.365-23.826,9.947-28.802
				c-10.279,15.398,7.418,24.629,4.613,44.357c5.227-19.19-4.436-24.662-4.436-34.599c0-9.759,8.586-12.995,10.291-25.55
				c1.707,12.555,10.291,15.791,10.291,25.55c0,9.937-9.662,15.408-4.436,34.599c-2.803-19.729,14.895-28.959,4.613-44.357
				c6.584,4.976,13.584,14.668,9.949,28.802c-3.326,12.934-18.443,25.711-12.787,49.134c-1.617-15.346,11-50.309,31.707-53.631
				c11.781-1.891,28.262,0.557,35.715-7.98c-12.051,7.94-29.785,1.073-40.986,6.033c5.291-5.736,13.543-8.229,29.1-9.305
				c13.783-0.955,21.059-5.385,22.355-11.633c1.799,8.671-2.756,17.59-9.049,21.469c2.99-0.066,4.662-0.467,7.629-1.951
				c-3.186,5.356-10.424,10.985-21.291,11.177c-13.127,0.233-26.426-7.109-34.066,3.904c0,0,6.498-5.183,13.484-2.484
				c6.145,2.373,8.115,8.822,7.453,13.13c-4.293-10.04-19.164-9.759-25.551-1.42c8.717-6.052,22.355-1.753,22.355,7.985
				c0,11.889-20.227,9.937-25.549,20.758c2.955-12.403,14.596-12.403,14.596-18.854c0-2.491-1.908-4.164-4.535-4.164
				c-7.586,0-19.824,17.064-12.9,38.455c4.205-12.835,13.131-18.452,23.42-21.824c-7.369,4.682-15.178,14.374-14.549,25.904
				c3.682-14.948,26.564-18.53,24.309-40.453c6.033,14.904,0.908,26.365-8.693,34.421c21.031-9.361,13.869-27.261,22.48-43.772
				c8.121-15.57,25.082-20.551,36.781-20.102c-5.676,2.091-12.836,6.333-17.221,22.18c-2.9,10.477-4.766,20.251-17.023,27.146
				c7.693-12.265,4.539-25.689,14.904-36.727c-13.922,9.829-10.5,27.683-21.115,41.695c10.615-3.408,19.676-9.381,23.6-18.63
				c-2.916,15.759-19.711,32.528-49.148,36.55c30.326,1.291,36.172-15.554,51.453-16.16c9.684-0.385,18.137,8.389,28.035,13.676
				c-12.113-3.07-31.107-11.328-41.164,2.129c0,0,6.193-5.261,18.275-3.725c12.271,1.559,23.461,9.397,54.115,11.355
				c-30.654,1.956-41.844,9.798-54.115,11.356c-12.082,1.533-18.275-3.728-18.275-3.728c10.057,13.457,29.051,5.201,41.164,2.129
				c-9.898,5.287-18.352,14.063-28.035,13.678C441.891-225.642,436.045-242.484,405.719-241.195z M439.074-248.469
				c4.613,1.241,8.633,3.77,14.488,3.77c7.113,0,11.074-2.751,16.74-3.77c-5.666-1.018-9.627-3.77-16.74-3.77
				C447.707-252.238,443.688-249.712,439.074-248.469z M366.861-338.78c0,5.123,3.016,8.397,3.016,12.123
				c0-3.726,3.018-7,3.018-12.123c0-4.568-2.25-6.652-3.018-11.435C369.109-345.433,366.861-343.349,366.861-338.78z
				 M300.68-248.469c-4.613-1.243-8.634-3.77-14.488-3.77c-7.113,0-11.073,2.752-16.739,3.77c5.666,1.019,9.626,3.77,16.739,3.77
				C292.046-244.699,296.066-247.228,300.68-248.469z M372.895-158.158c0-5.123-3.018-8.398-3.018-12.123
				c0,3.725-3.016,7-3.016,12.123c0,4.568,2.248,6.653,3.016,11.434C370.645-151.505,372.895-153.59,372.895-158.158z
				 M414.945-248.469c-9.938,0-24.088-4.982-34.953-3.016c3.449-2.1,4.982-3.673,7.451-6.744c-4.406,0.434-6.758,0.796-10.113,2.308
				c2.662-6.018,3.193-9.399,3.725-15.437c-3.068,3.565-4.639,5.74-6.564,10.646c0.709-12.42-4.258-15.247-4.613-31.761
				c-0.355,16.514-5.322,19.341-4.613,31.761c-1.924-4.905-3.494-7.08-6.564-10.646c0.531,6.037,1.064,9.419,3.727,15.437
				c-3.355-1.512-5.709-1.874-10.115-2.308c2.471,3.071,4.004,4.645,7.453,6.744c-10.865-1.967-25.018,3.016-34.953,3.016
				c9.936,0,24.088,4.98,34.953,3.017c-3.449,2.097-4.982,3.67-7.453,6.741c4.406-0.432,6.76-0.796,10.115-2.306
				c-2.662,6.016-3.195,9.397-3.727,15.437c3.07-3.565,4.641-5.742,6.564-10.647c-0.709,12.421,4.258,15.247,4.613,31.761
				c0.355-16.514,5.322-19.34,4.613-31.761c1.926,4.905,3.496,7.082,6.564,10.647c-0.531-6.039-1.063-9.421-3.725-15.437
				c3.355,1.51,5.707,1.874,10.113,2.306c-2.469-3.071-4.002-4.645-7.451-6.741C390.857-243.488,405.008-248.469,414.945-248.469z"
				/>
			<path fill="#2C973E" d="M437.678-179.974c-5.52-4.577-10.66-12.46-11.441-22.75c-1.076,10.23-3.199,18.136-8.211,23.962
				c0,0,6.326-3.097,8.615-9.154C429.602-182.666,437.678-179.974,437.678-179.974z"/>
			<path fill="#2C973E" d="M451.678-129.09c-1.217-5.97-6.307-11.178-12.922-13.73c2.709,6.993,1.703,13.798-2.154,19.788
				c0.898-7.766-1.469-13.209-5.789-18.038c1.361,4.829,1.242,9.268-1.076,13.865c0.941-8.48-6.168-12.786-15.615-18.442
				c-12.66-7.578-17.277-16.042-19.25-27.226c3.451,6.865,9.902,13.138,27.859,17.292
				C445.029-150.422,453.123-143.165,451.678-129.09z"/>
			
				<linearGradient id="SVGID_16_" gradientUnits="userSpaceOnUse" x1="55382.5859" y1="36859.1914" x2="55359.2891" y2="36867.1289" gradientTransform="matrix(-1 0 0 1 55830.9844 -37077.2266)">
				<stop  offset="0.2331" style="stop-color:#FAA61A"/>
				<stop  offset="0.7607" style="stop-color:#FFC20E"/>
			</linearGradient>
			<path fill="url(#SVGID_16_)" d="M451.408-221.3c4.688,4.596,6.912,12.187,7.27,21.721c0.471,12.527,5.41,17.657,13.326,18.528
				c-11.801-4.579-4.443-17.114-7.941-25.846c6.439,4.787,4.381,20.678,17.635,21.403c-9.781-3.196-2.836-16.675-9.289-24.499
				c7.809,0.107,11.398-6.125,21.539-3.231c-4.717-3.634-9.965-5.923-18.846-5.923c6.254-3.859,9-8.625,11.307-15.346
				C476.281-223.899,461.557-219.825,451.408-221.3z"/>
			
				<linearGradient id="SVGID_17_" gradientUnits="userSpaceOnUse" x1="-39115.2148" y1="36859.1875" x2="-39138.5117" y2="36867.125" gradientTransform="matrix(1 0 0 1 39406.5586 -37077.2266)">
				<stop  offset="0.2331" style="stop-color:#FAA61A"/>
				<stop  offset="0.7607" style="stop-color:#FFC20E"/>
			</linearGradient>
			<path fill="url(#SVGID_17_)" d="M288.346-221.3c-4.688,4.596-6.91,12.187-7.27,21.721c-0.471,12.527-5.409,17.657-13.326,18.528
				c11.802-4.579,4.444-17.114,7.942-25.846c-6.441,4.787-4.382,20.678-17.635,21.403c9.78-3.196,2.835-16.675,9.288-24.499
				c-7.808,0.107-11.396-6.125-21.538-3.231c4.715-3.634,9.965-5.923,18.846-5.923c-6.254-3.859-8.999-8.625-11.308-15.346
				C263.474-223.899,278.198-219.825,288.346-221.3z"/>
			
				<linearGradient id="SVGID_18_" gradientUnits="userSpaceOnUse" x1="55490.0742" y1="-53213.7227" x2="55490.0742" y2="-53185.6172" gradientTransform="matrix(-1 0 0 -1 55830.9844 -53548.4453)">
				<stop  offset="0.2331" style="stop-color:#FAA61A"/>
				<stop  offset="0.7607" style="stop-color:#FFC20E"/>
			</linearGradient>
			<path fill="url(#SVGID_18_)" d="M315-369.733c2.641,13.83,25.365,16.256,30.287,34.057c3.77-19.115,21.295-19.871,21.539-33.114
				c-3.18,7.802-10.838,5.786-15.885,12.115c0.846-6.151,4.635-11.892,12.385-15.077c-7.674-1.076-15.627,1.832-19.115,9.558
				c-2.559-4.173-2.813-8.449-0.674-13.865c-4.711,3.635-7.492,9.3-5.654,16.558C330.615-366.772,319.98-362.733,315-369.733z"/>
			<path fill="#FFC20E" d="M388.098-248.469c-4.258-0.664-9.389-3.201-14.131-1.22c2.322-1.805,1.145-3.515,2.529-5.197
				c-1.916,1.388-3.51,0.503-4.986,2.745c1.535-5.31-0.529-8.143-1.633-14.118c-1.104,5.976-3.168,8.809-1.633,14.118
				c-1.475-2.242-3.068-1.357-4.984-2.745c1.385,1.683,0.205,3.393,2.529,5.197c-4.742-1.981-9.875,0.556-14.131,1.22
				c4.256,0.665,9.389,3.199,14.131,1.218c-2.324,1.805-1.145,3.517-2.529,5.197c1.916-1.386,3.51-0.5,4.984-2.742
				c-1.535,5.309,0.529,8.14,1.633,14.117c1.104-5.978,3.168-8.809,1.633-14.117c1.477,2.242,3.07,1.356,4.986,2.742
				c-1.385-1.681-0.207-3.393-2.529-5.197C378.709-245.27,383.84-247.804,388.098-248.469z"/>
		</g>
		<g>
			
				<linearGradient id="SVGID_19_" gradientUnits="userSpaceOnUse" x1="-39167.0391" y1="36770.8789" x2="-39167.0391" y2="36798.9844" gradientTransform="matrix(1 0 0 1 39342.5586 -37062.6875)">
				<stop  offset="0.2331" style="stop-color:#FAA61A"/>
				<stop  offset="0.7607" style="stop-color:#FFC20E"/>
			</linearGradient>
			<path fill="url(#SVGID_19_)" d="M201.436-256.798c-2.643-13.83-25.367-16.256-30.289-34.057
				c-3.768,19.115-21.295,19.871-21.537,33.115c3.178-7.803,10.836-5.787,15.885-12.115c-0.848,6.152-4.635,11.891-12.385,15.076
				c7.672,1.076,15.625-1.832,19.115-9.559c2.557,4.174,2.813,8.449,0.672,13.865c4.713-3.635,7.492-9.299,5.654-16.557
				C185.82-259.759,196.455-263.798,201.436-256.798z"/>
			
				<radialGradient id="SVGID_20_" cx="-39260" cy="-53170.3828" r="133.4363" gradientTransform="matrix(1 0 0 -1 39406.5586 -53548.4453)" gradientUnits="userSpaceOnUse">
				<stop  offset="0.3479" style="stop-color:#58AB40"/>
				<stop  offset="0.7607" style="stop-color:#80C342"/>
			</radialGradient>
			<path fill="url(#SVGID_20_)" d="M182.398-370.788c29.438,4.023,46.232,20.791,49.148,36.553
				c-3.924-9.252-12.984-15.225-23.6-18.633c10.615,14.014,7.193,31.867,21.115,41.697c-10.365-11.039-7.211-24.461-14.904-36.729
				c12.258,6.896,14.123,16.672,17.023,27.148c4.385,15.844,11.545,20.088,17.221,22.178c-11.699,0.449-28.66-4.531-36.781-20.102
				c-8.611-16.51-1.449-34.408-22.48-43.773c9.602,8.057,14.727,19.518,8.693,34.422c2.256-21.924-20.627-25.506-24.309-40.453
				c-0.629,11.529,7.18,21.223,14.549,25.904c-10.289-3.373-19.215-8.99-23.42-21.824c-6.924,21.393,5.314,38.455,12.9,38.455
				c2.627,0,4.535-1.672,4.535-4.164c0-6.449-11.641-6.449-14.596-18.855c5.322,10.824,25.549,8.873,25.549,20.76
				c0,9.738-13.639,14.037-22.355,7.984c6.387,8.34,21.258,8.619,25.551-1.42c0.662,4.309-1.309,10.758-7.453,13.129
				c-6.986,2.699-13.484-2.484-13.484-2.484c7.641,11.014,20.939,3.674,34.066,3.904c10.867,0.193,18.105,5.82,21.291,11.18
				c-2.967-1.486-4.639-1.887-7.629-1.951c6.293,3.877,10.848,12.795,9.049,21.469c-1.297-6.25-8.572-10.68-22.355-11.635
				c-15.557-1.076-23.809-3.568-29.1-9.303c11.201,4.957,28.936-1.908,40.986,6.033c-7.453-8.539-23.934-6.09-35.715-7.98
				c-20.707-3.324-33.324-38.287-31.707-53.633c-5.656,23.422,9.461,36.199,12.787,49.133c3.635,14.135-3.365,23.826-9.949,28.803
				c10.281-15.398-7.416-24.629-4.613-44.355c-5.227,19.188,4.436,24.66,4.436,34.598c0,9.758-8.584,12.994-10.291,25.549
				c-1.705-12.555-10.291-15.791-10.291-25.549c0-9.938,9.662-15.41,4.436-34.598c2.805,19.727-14.893,28.957-4.613,44.355
				c-6.582-4.977-13.582-14.668-9.947-28.803c3.324-12.934,18.441-25.711,12.787-49.133c1.615,15.346-11,50.309-31.707,53.633
				c-11.783,1.891-28.262-0.559-35.716,7.98c12.05-7.941,29.784-1.076,40.985-6.033c-5.289,5.734-13.541,8.227-29.098,9.303
				c-13.785,0.955-21.06,5.385-22.356,11.635c-1.799-8.674,2.755-17.592,9.049-21.469c-2.991,0.064-4.661,0.465-7.629,1.951
				c3.186-5.359,10.423-10.986,21.292-11.18c13.127-0.23,26.424,7.109,34.066-3.904c0,0-6.5,5.184-13.484,2.484
				c-6.146-2.371-8.115-8.82-7.453-13.129c4.293,10.039,19.162,9.76,25.549,1.42c-8.717,6.053-22.355,1.754-22.355-7.984
				c0-11.887,20.229-9.936,25.551-20.76c-2.955,12.406-14.596,12.406-14.596,18.855c0,2.492,1.908,4.164,4.535,4.164
				c7.584,0,19.824-17.063,12.898-38.455c-4.203,12.834-13.129,18.451-23.42,21.824c7.371-4.682,15.178-14.375,14.549-25.904
				c-3.682,14.947-26.563,18.529-24.309,40.453c-6.031-14.904-0.908-26.365,8.695-34.422c-21.033,9.365-13.871,27.264-22.482,43.773
				c-8.121,15.57-25.082,20.551-36.78,20.102c5.675-2.09,12.836-6.334,17.221-22.178c2.898-10.477,4.766-20.252,17.024-27.148
				c-7.694,12.268-4.539,25.689-14.904,36.729c13.922-9.83,10.498-27.684,21.113-41.697c-10.615,3.408-19.677,9.381-23.598,18.633
				c2.914-15.762,19.711-32.529,49.148-36.553c-30.326-1.289-36.174,15.555-51.456,16.162c-9.682,0.385-18.136-8.391-28.033-13.678
				c12.113,3.072,31.107,11.328,41.164-2.129c0,0-6.194,5.262-18.275,3.729c-12.272-1.559-23.462-9.4-54.116-11.357
				c30.654-1.957,41.844-9.797,54.116-11.355c12.081-1.535,18.275,3.725,18.275,3.725c-10.057-13.457-29.051-5.199-41.164-2.129
				c9.897-5.287,18.352-14.061,28.033-13.676c15.282,0.607,21.13,17.451,51.456,16.16c-29.438-4.021-46.234-20.791-49.148-36.549
				c3.921,9.248,12.982,15.221,23.598,18.629c-10.615-14.012-7.191-31.865-21.113-41.695c10.365,11.037,7.21,24.463,14.904,36.727
				c-12.259-6.895-14.126-16.668-17.024-27.145c-4.385-15.848-11.546-20.09-17.221-22.18c11.698-0.449,28.659,4.531,36.78,20.102
				c8.611,16.512,1.449,34.41,22.482,43.771c-9.604-8.055-14.727-19.516-8.695-34.42c-2.254,21.922,20.627,25.504,24.309,40.453
				c0.629-11.531-7.178-21.223-14.549-25.904c10.291,3.371,19.217,8.988,23.42,21.824c6.926-21.391-5.314-38.455-12.898-38.455
				c-2.627,0-4.535,1.672-4.535,4.164c0,6.451,11.641,6.451,14.596,18.854c-5.322-10.82-25.551-8.869-25.551-20.758
				c0-9.738,13.639-14.037,22.355-7.984c-6.387-8.34-21.256-8.621-25.549,1.42c-0.662-4.309,1.307-10.758,7.453-13.131
				c6.984-2.697,13.484,2.484,13.484,2.484c-7.643-11.014-20.939-3.67-34.066-3.904c-10.869-0.191-18.106-5.82-21.292-11.176
				c2.968,1.484,4.638,1.885,7.629,1.951c-6.294-3.879-10.848-12.799-9.049-21.469c1.297,6.248,8.571,10.678,22.356,11.633
				c15.557,1.076,23.809,3.568,29.098,9.305c-11.201-4.961-28.936,1.906-40.985-6.033c7.454,8.537,23.933,6.09,35.716,7.98
				c20.707,3.322,33.322,38.285,31.707,53.631c5.654-23.424-9.463-36.201-12.787-49.135c-3.635-14.133,3.365-23.826,9.947-28.801
				c-10.279,15.398,7.418,24.629,4.613,44.357c5.227-19.191-4.436-24.662-4.436-34.6c0-9.758,8.586-12.994,10.291-25.549
				c1.707,12.555,10.291,15.791,10.291,25.549c0,9.938-9.662,15.408-4.436,34.6c-2.803-19.729,14.895-28.959,4.613-44.357
				c6.584,4.975,13.584,14.668,9.949,28.801c-3.326,12.934-18.443,25.711-12.787,49.135c-1.617-15.346,11-50.309,31.707-53.631
				c11.781-1.891,28.262,0.557,35.715-7.98c-12.051,7.939-29.785,1.072-40.986,6.033c5.291-5.736,13.543-8.229,29.1-9.305
				c13.783-0.955,21.059-5.385,22.355-11.633c1.799,8.67-2.756,17.59-9.049,21.469c2.99-0.066,4.662-0.467,7.629-1.951
				c-3.186,5.355-10.424,10.984-21.291,11.176c-13.127,0.234-26.426-7.109-34.066,3.904c0,0,6.498-5.182,13.484-2.484
				c6.145,2.373,8.115,8.822,7.453,13.131c-4.293-10.041-19.164-9.76-25.551-1.42c8.717-6.053,22.355-1.754,22.355,7.984
				c0,11.889-20.227,9.938-25.549,20.758c2.955-12.402,14.596-12.402,14.596-18.854c0-2.492-1.908-4.164-4.535-4.164
				c-7.586,0-19.824,17.064-12.9,38.455c4.205-12.836,13.131-18.453,23.42-21.824c-7.369,4.682-15.178,14.373-14.549,25.904
				c3.682-14.949,26.564-18.531,24.309-40.453c6.033,14.904,0.908,26.365-8.693,34.42c21.031-9.361,13.869-27.26,22.48-43.771
				c8.121-15.57,25.082-20.551,36.781-20.102c-5.676,2.09-12.836,6.332-17.221,22.18c-2.9,10.477-4.766,20.25-17.023,27.145
				c7.693-12.264,4.539-25.689,14.904-36.727c-13.922,9.83-10.5,27.684-21.115,41.695c10.615-3.408,19.676-9.381,23.6-18.629
				c-2.916,15.758-19.711,32.527-49.148,36.549c30.326,1.291,36.172-15.553,51.453-16.16c9.684-0.385,18.137,8.389,28.035,13.676
				c-12.113-3.07-31.107-11.328-41.164,2.129c0,0,6.193-5.26,18.275-3.725c12.271,1.559,23.461,9.398,54.115,11.355
				c-30.654,1.957-41.844,9.799-54.115,11.357c-12.082,1.533-18.275-3.729-18.275-3.729c10.057,13.457,29.051,5.201,41.164,2.129
				c-9.898,5.287-18.352,14.063-28.035,13.678C218.57-355.233,212.725-372.077,182.398-370.788z M215.754-378.062
				c4.613,1.242,8.633,3.77,14.488,3.77c7.113,0,11.074-2.75,16.74-3.77c-5.666-1.018-9.627-3.77-16.74-3.77
				C224.387-381.831,220.367-379.304,215.754-378.062z M143.541-468.372c0,5.123,3.016,8.396,3.016,12.123
				c0-3.727,3.018-7,3.018-12.123c0-4.568-2.25-6.652-3.018-11.436C145.789-475.024,143.541-472.94,143.541-468.372z
				 M77.359-378.062c-4.613-1.242-8.634-3.77-14.488-3.77c-7.113,0-11.073,2.752-16.739,3.77c5.666,1.02,9.626,3.77,16.739,3.77
				C68.726-374.292,72.746-376.819,77.359-378.062z M149.574-287.751c0-5.123-3.018-8.398-3.018-12.123
				c0,3.725-3.016,7-3.016,12.123c0,4.568,2.248,6.654,3.016,11.434C147.324-281.097,149.574-283.183,149.574-287.751z
				 M191.625-378.062c-9.938,0-24.088-4.982-34.953-3.016c3.449-2.1,4.982-3.672,7.451-6.744c-4.406,0.434-6.758,0.797-10.113,2.309
				c2.662-6.018,3.193-9.4,3.725-15.438c-3.068,3.566-4.639,5.74-6.564,10.646c0.709-12.42-4.258-15.248-4.613-31.762
				c-0.355,16.514-5.322,19.342-4.613,31.762c-1.924-4.906-3.494-7.08-6.564-10.646c0.531,6.037,1.064,9.42,3.727,15.438
				c-3.355-1.512-5.709-1.875-10.115-2.309c2.471,3.072,4.004,4.645,7.453,6.744c-10.865-1.967-25.018,3.016-34.953,3.016
				c9.936,0,24.088,4.98,34.953,3.018c-3.449,2.096-4.982,3.67-7.453,6.74c4.406-0.432,6.76-0.795,10.115-2.305
				c-2.662,6.016-3.195,9.396-3.727,15.436c3.07-3.564,4.641-5.742,6.564-10.646c-0.709,12.42,4.258,15.246,4.613,31.76
				c0.355-16.514,5.322-19.34,4.613-31.76c1.926,4.904,3.496,7.082,6.564,10.646c-0.531-6.039-1.063-9.42-3.725-15.436
				c3.355,1.51,5.707,1.873,10.113,2.305c-2.469-3.07-4.002-4.645-7.451-6.74C167.537-373.081,181.688-378.062,191.625-378.062z"/>
			<path fill="#2C973E" d="M214.357-309.565c-5.52-4.578-10.66-12.461-11.441-22.75c-1.076,10.23-3.199,18.135-8.211,23.961
				c0,0,6.326-3.096,8.615-9.154C206.281-312.259,214.357-309.565,214.357-309.565z"/>
			<path fill="#2C973E" d="M228.357-258.683c-1.217-5.969-6.307-11.178-12.922-13.73c2.709,6.994,1.703,13.799-2.154,19.789
				c0.898-7.766-1.469-13.209-5.789-18.039c1.361,4.83,1.242,9.268-1.076,13.865c0.941-8.48-6.168-12.785-15.615-18.441
				c-12.66-7.578-17.277-16.043-19.25-27.227c3.451,6.865,9.902,13.139,27.859,17.293
				C221.709-280.015,229.803-272.757,228.357-258.683z"/>
			
				<linearGradient id="SVGID_21_" gradientUnits="userSpaceOnUse" x1="55605.9063" y1="36729.6055" x2="55582.6094" y2="36737.543" gradientTransform="matrix(-1 0 0 1 55830.9844 -37077.2266)">
				<stop  offset="0.2331" style="stop-color:#FAA61A"/>
				<stop  offset="0.7607" style="stop-color:#FFC20E"/>
			</linearGradient>
			<path fill="url(#SVGID_21_)" d="M228.088-350.892c4.688,4.596,6.912,12.186,7.27,21.721c0.471,12.527,5.41,17.656,13.326,18.527
				c-11.801-4.578-4.443-17.113-7.941-25.846c6.439,4.787,4.381,20.678,17.635,21.404c-9.781-3.197-2.836-16.676-9.289-24.5
				c7.809,0.107,11.398-6.125,21.539-3.23c-4.717-3.635-9.965-5.924-18.846-5.924c6.254-3.859,9-8.625,11.307-15.346
				C252.961-353.491,238.236-349.417,228.088-350.892z"/>
			<path fill="#FFC20E" d="M164.777-378.062c-4.258-0.664-9.389-3.201-14.131-1.219c2.322-1.805,1.145-3.516,2.529-5.197
				c-1.916,1.387-3.51,0.502-4.986,2.744c1.535-5.309-0.529-8.143-1.633-14.117c-1.104,5.975-3.168,8.809-1.633,14.117
				c-1.475-2.242-3.068-1.357-4.984-2.744c1.385,1.682,0.205,3.393,2.529,5.197c-4.742-1.982-9.875,0.555-14.131,1.219
				c4.256,0.666,9.389,3.199,14.131,1.219c-2.324,1.805-1.145,3.516-2.529,5.197c1.916-1.387,3.51-0.5,4.984-2.742
				c-1.535,5.309,0.529,8.139,1.633,14.117c1.104-5.979,3.168-8.809,1.633-14.117c1.477,2.242,3.07,1.355,4.986,2.742
				c-1.385-1.682-0.207-3.393-2.529-5.197C155.389-374.862,160.52-377.396,164.777-378.062z"/>
		</g>
	</g>
</pattern>
<g id="Layer_1">
</g>
<g id="Hat">
</g>
<g id="Compliments">
</g>
<g id="HAT">
</g>
<g id="speech">
</g>
<g id="TREX_ARMS">
</g>
<g id="Layer_7">
</g>
<g id="TIMEOUT">
</g>
<g id="Layer_9">
</g>
<g id="ARM_WRESTLE">
</g>
<g id="musical_chairs">
</g>
<g id="never_have_i_ever">
</g>
<g id="Trivia">
</g>
<g id="Layer_14">
</g>
<g id="Layer_15">
</g>
<g id="Layer_16">
</g>
<g id="Layer_17">
</g>
<g id="Heads_up">
</g>
<g id="Archenemy">
</g>
<g id="battle_of_the_sexes">
</g>
<g id="one_must_drink">
</g>
<g id="rainbow_connection">
	<g>
		<g>
			<path d="M75.358,52.353c-0.105,0.901-0.524,1.83-1.238,2.851c1.573,0.183,2.346,0.313,3.848,0.64
				c-0.169,0.16-0.255,0.241-0.422,0.404c-1.481-0.292-2.242-0.405-3.791-0.557c-0.206,0.264-0.422,0.528-0.65,0.79
				c-0.997,1.14-1.478,1.736-2.391,2.99c0.794,0.994,1.195,1.483,2.021,2.443c-0.129,0.185-0.191,0.277-0.318,0.465
				c-2.485-2.817-3.66-4.307-5.857-7.425c1.179-1.539,1.798-2.269,3.089-3.65c1.014-1.084,1.989-1.723,2.865-1.949
				c0.875-0.226,1.567-0.021,2.082,0.566C75.225,50.639,75.465,51.451,75.358,52.353z M74.771,52.994
				c0.255-0.992,0.066-1.872-0.624-2.639c-0.446-0.496-1.035-0.66-1.771-0.459c-0.735,0.2-1.568,0.755-2.448,1.697
				c-1.125,1.205-1.666,1.837-2.706,3.162c1.247,1.807,1.896,2.688,3.241,4.397c0.895-1.222,1.362-1.806,2.336-2.92
				C73.851,55.028,74.516,53.986,74.771,52.994z"/>
			<path d="M85.525,42.688c0.471,2.757,0.759,4.121,1.433,6.809c-0.178,0.091-0.267,0.138-0.443,0.23
				c-0.157-0.611-0.233-0.918-0.381-1.533c-0.129,0.622-0.393,1.198-0.791,1.741c-0.397,0.543-0.909,1.005-1.545,1.409
				c-0.876,0.557-1.692,0.831-2.498,0.801c-0.805-0.029-1.476-0.362-1.992-1.037c-0.469-0.612-0.726-1.293-0.74-2.05
				c-0.015-0.756,0.203-1.517,0.659-2.258c0.458-0.742,1.124-1.387,1.983-1.899c0.891-0.531,1.712-0.78,2.434-0.767
				c0.723,0.014,1.3,0.279,1.731,0.773c-0.16-0.785-0.236-1.182-0.379-1.973C85.207,42.834,85.313,42.785,85.525,42.688z
				 M85.186,49.512c0.374-0.567,0.595-1.174,0.655-1.835c0.06-0.659-0.055-1.301-0.365-1.922c-0.342-0.683-0.866-1.083-1.588-1.175
				s-1.567,0.126-2.5,0.684c-0.751,0.449-1.336,1.013-1.736,1.662c-0.399,0.649-0.586,1.323-0.571,1.998
				c0.015,0.676,0.241,1.289,0.656,1.846c0.456,0.612,1.029,0.915,1.713,0.938c0.683,0.023,1.409-0.23,2.217-0.741
				C84.31,50.559,84.812,50.08,85.186,49.512z"/>
			<path d="M90.708,40.678c0.22-0.07,0.329-0.104,0.55-0.172c0.105,2.791,0.213,4.181,0.526,6.932
				c-0.187,0.065-0.279,0.1-0.466,0.167C90.971,44.857,90.848,43.468,90.708,40.678z M90.587,38.741
				c-0.121-0.044-0.196-0.115-0.228-0.215c-0.036-0.115-0.01-0.236,0.081-0.359s0.216-0.209,0.383-0.259
				c0.153-0.046,0.3-0.046,0.428-0.002s0.204,0.116,0.233,0.217c0.033,0.116-0.002,0.236-0.099,0.359
				c-0.099,0.123-0.225,0.207-0.387,0.256C90.848,38.783,90.71,38.785,90.587,38.741z"/>
			<path d="M103.076,39.041c0.553,0.356,0.827,0.87,0.84,1.529c0.005,0.226-0.025,0.47-0.085,0.73
				c-0.363,1.589-0.525,2.387-0.815,3.982c-0.195,0.009-0.297,0.013-0.492,0.023c0.271-1.599,0.425-2.396,0.769-3.99
				c0.047-0.201,0.07-0.424,0.063-0.667c-0.019-0.571-0.254-1.005-0.718-1.291c-0.465-0.286-1.147-0.402-2.03-0.322
				c-1.091,0.099-1.971,0.447-2.608,1.008c-0.638,0.562-0.976,1.298-1.031,2.189c-0.094,1.529-0.123,2.293-0.152,3.817
				c-0.192,0.039-0.288,0.062-0.48,0.104c0.018-2.767,0.076-4.159,0.305-6.941c0.227-0.04,0.341-0.061,0.567-0.098
				c-0.056,0.6-0.08,0.901-0.126,1.5c0.321-0.575,0.8-1.038,1.422-1.373s1.355-0.545,2.188-0.618
				C101.721,38.533,102.523,38.685,103.076,39.041z"/>
			<path d="M116.632,40.751c0.54,0.662,0.667,1.412,0.423,2.235c-0.217,0.731-0.612,1.333-1.163,1.824
				c-0.55,0.49-1.191,0.822-1.928,1.01s-1.503,0.206-2.321,0.062c-0.85-0.149-1.514-0.415-2.014-0.825
				c-0.499-0.409-0.803-0.936-0.896-1.589c-0.262,0.764-0.389,1.146-0.633,1.913c-0.189-0.016-0.284-0.021-0.474-0.035
				c1.157-3.785,1.844-5.662,3.429-9.351c0.242,0.031,0.361,0.048,0.604,0.082c-0.747,1.675-1.098,2.521-1.756,4.22
				c0.492-0.441,1.101-0.749,1.82-0.916c0.72-0.166,1.506-0.171,2.339-0.001C115.226,39.617,116.092,40.09,116.632,40.751z
				 M113.806,45.435c0.654-0.175,1.224-0.478,1.707-0.923s0.827-0.994,1.016-1.662c0.208-0.734,0.094-1.383-0.369-1.933
				s-1.229-0.954-2.281-1.166c-0.838-0.169-1.622-0.141-2.329,0.069c-0.707,0.209-1.276,0.577-1.71,1.091
				c-0.433,0.513-0.678,1.12-0.749,1.81c-0.078,0.759,0.131,1.37,0.599,1.846s1.146,0.776,2.051,0.937
				C112.469,45.632,113.15,45.609,113.806,45.435z"/>
			<path d="M119.705,47.403c-0.386-0.691-0.448-1.432-0.148-2.228c0.271-0.722,0.711-1.3,1.335-1.717
				c0.623-0.418,1.365-0.643,2.223-0.655c0.858-0.012,1.751,0.209,2.647,0.667c1.086,0.555,1.813,1.259,2.17,2.058
				c0.356,0.798,0.288,1.563-0.165,2.282c-0.411,0.653-0.959,1.125-1.626,1.441c-0.666,0.315-1.379,0.452-2.15,0.428
				c-0.771-0.024-1.531-0.223-2.302-0.591C120.745,48.639,120.091,48.096,119.705,47.403z M123.938,49.273
				c0.68,0.015,1.313-0.121,1.907-0.42c0.594-0.298,1.082-0.734,1.444-1.326c0.398-0.651,0.455-1.312,0.147-1.973
				s-0.944-1.262-1.905-1.752c-0.773-0.395-1.552-0.585-2.304-0.574c-0.751,0.011-1.408,0.212-1.965,0.586
				c-0.558,0.374-0.956,0.895-1.209,1.541c-0.278,0.711-0.237,1.355,0.093,1.941c0.329,0.586,0.915,1.06,1.766,1.468
				C122.591,49.09,123.259,49.259,123.938,49.273z"/>
			<path d="M142.723,58.586c-3.523-0.383-5.242-0.368-8.517-0.018c-0.131-0.15-0.196-0.228-0.329-0.376
				c1.405-2.128,2.069-3.227,3.321-5.479c-3.159,0.284-4.681,0.582-7.553,1.408c-0.149-0.123-0.223-0.184-0.373-0.305
				c1.176-2.521,1.718-3.816,2.7-6.448c0.181,0.133,0.271,0.202,0.451,0.338c-0.952,2.419-1.471,3.61-2.585,5.934
				c2.923-0.842,4.472-1.144,7.688-1.428c0.146,0.149,0.217,0.226,0.361,0.377c-1.285,2.271-1.967,3.377-3.407,5.521
				c3.032-0.33,4.618-0.357,7.867-0.068C142.5,58.259,142.573,58.366,142.723,58.586z"/>
		</g>
	</g>
	<g>
		<g>
			<path d="M79.981,61.055c-0.448-0.117-0.796-0.405-1.035-0.875c-0.216-0.423-0.311-0.855-0.28-1.297
				c0.031-0.442,0.181-0.851,0.453-1.223c0.271-0.371,0.645-0.666,1.111-0.878c0.368-0.167,0.714-0.253,1.034-0.255
				s0.597,0.081,0.833,0.242c-0.063,0.089-0.096,0.133-0.158,0.222c-0.438-0.272-0.981-0.267-1.622,0.024
				c-0.405,0.184-0.729,0.447-0.969,0.777c-0.24,0.331-0.377,0.693-0.402,1.088c-0.026,0.394,0.063,0.781,0.254,1.161
				c0.211,0.42,0.505,0.675,0.884,0.774c0.379,0.099,0.812,0.031,1.303-0.197c0.276-0.129,0.513-0.296,0.712-0.502
				s0.34-0.433,0.423-0.684c0.094,0.029,0.142,0.043,0.235,0.072c-0.085,0.274-0.245,0.53-0.475,0.767
				c-0.23,0.237-0.501,0.428-0.817,0.575C80.921,61.102,80.43,61.171,79.981,61.055z"/>
			<path d="M84.892,58.896c-0.427-0.164-0.741-0.487-0.933-0.974c-0.174-0.441-0.23-0.88-0.159-1.313
				c0.072-0.435,0.258-0.827,0.556-1.169c0.299-0.343,0.692-0.598,1.174-0.763c0.582-0.2,1.098-0.206,1.535-0.02
				s0.731,0.535,0.884,1.034c0.139,0.454,0.157,0.893,0.064,1.317c-0.093,0.426-0.285,0.799-0.573,1.121s-0.651,0.561-1.097,0.719
				C85.798,59.043,85.318,59.061,84.892,58.896z M87.252,57.979c0.251-0.286,0.416-0.621,0.494-1.006
				c0.077-0.386,0.057-0.783-0.07-1.19c-0.14-0.448-0.391-0.75-0.758-0.901c-0.368-0.15-0.813-0.141-1.331,0.037
				c-0.417,0.144-0.761,0.372-1.022,0.675s-0.424,0.648-0.485,1.038c-0.062,0.389-0.014,0.784,0.141,1.181
				c0.17,0.438,0.438,0.721,0.801,0.858c0.361,0.137,0.783,0.114,1.273-0.06C86.684,58.473,87.002,58.265,87.252,57.979z"/>
			<path d="M93.351,52.931c0.317,0.174,0.51,0.46,0.586,0.858c0.026,0.136,0.038,0.283,0.034,0.447
				c-0.023,0.995-0.031,1.494-0.037,2.487c-0.106,0.021-0.161,0.034-0.268,0.057c0.002-0.993,0.007-1.492,0.025-2.487
				c0.004-0.126-0.011-0.262-0.039-0.408c-0.067-0.346-0.232-0.589-0.498-0.729c-0.266-0.139-0.617-0.163-1.062-0.065
				c-0.549,0.121-0.974,0.367-1.266,0.729s-0.425,0.816-0.402,1.361c0.038,0.936,0.062,1.406,0.115,2.339
				c-0.106,0.028-0.16,0.042-0.267,0.071c-0.107-1.692-0.148-2.541-0.205-4.24c0.114-0.029,0.17-0.046,0.284-0.074
				c0.012,0.367,0.018,0.552,0.031,0.918c0.132-0.358,0.347-0.652,0.642-0.88s0.656-0.387,1.073-0.479
				C92.614,52.724,93.034,52.757,93.351,52.931z"/>
			<path d="M100.031,51.996c0.295,0.209,0.454,0.519,0.484,0.923c0.011,0.139,0.007,0.287-0.016,0.449
				c-0.136,0.985-0.198,1.478-0.316,2.464c-0.108,0.009-0.162,0.016-0.271,0.025c0.113-0.986,0.173-1.481,0.304-2.468
				c0.019-0.125,0.022-0.261,0.011-0.409c-0.028-0.352-0.166-0.614-0.413-0.783c-0.247-0.168-0.597-0.231-1.047-0.185
				c-0.557,0.058-1.002,0.255-1.332,0.581s-0.513,0.763-0.552,1.307c-0.067,0.934-0.097,1.401-0.148,2.334
				c-0.108,0.016-0.163,0.026-0.271,0.043c0.085-1.693,0.14-2.543,0.274-4.238c0.116-0.016,0.173-0.023,0.289-0.039
				c-0.03,0.365-0.045,0.55-0.072,0.915c0.171-0.341,0.414-0.61,0.732-0.803s0.692-0.308,1.115-0.351
				C99.326,51.708,99.738,51.787,100.031,51.996z"/>
			<path d="M102.867,53.628c-0.006,0.149-0.011,0.263-0.008,0.337c0.017,0.48,0.177,0.843,0.473,1.092
				c0.296,0.248,0.714,0.366,1.259,0.363c0.309-0.002,0.594-0.055,0.86-0.156c0.267-0.101,0.491-0.241,0.674-0.424
				c0.052,0.074,0.077,0.111,0.129,0.187c-0.183,0.198-0.422,0.354-0.721,0.464c-0.299,0.111-0.619,0.167-0.965,0.169
				c-0.599,0.003-1.068-0.137-1.418-0.427c-0.35-0.291-0.54-0.705-0.562-1.248c-0.019-0.464,0.068-0.892,0.266-1.279
				c0.198-0.389,0.482-0.696,0.854-0.92c0.371-0.223,0.795-0.337,1.262-0.336c0.59,0.001,1.053,0.162,1.382,0.475
				c0.329,0.312,0.48,0.738,0.463,1.271c-0.005,0.144-0.025,0.286-0.06,0.429C105.199,53.573,104.424,53.573,102.867,53.628z
				 M103.598,52.166c-0.376,0.317-0.604,0.733-0.695,1.238c1.453-0.05,2.18-0.052,3.633-0.01c0.015-0.117,0.021-0.205,0.023-0.258
				c0.013-0.448-0.125-0.802-0.417-1.058c-0.292-0.257-0.688-0.39-1.183-0.391C104.43,51.688,103.974,51.85,103.598,52.166z"/>
			<path d="M108.848,55.342c-0.318-0.328-0.466-0.751-0.434-1.277c0.029-0.474,0.164-0.896,0.408-1.262
				c0.246-0.366,0.575-0.644,0.989-0.826c0.413-0.182,0.874-0.244,1.373-0.191c0.394,0.042,0.729,0.144,1,0.303
				s0.466,0.368,0.585,0.627c-0.098,0.045-0.149,0.069-0.247,0.115c-0.235-0.456-0.698-0.729-1.383-0.802
				c-0.433-0.046-0.835,0.017-1.2,0.181c-0.366,0.164-0.66,0.405-0.878,0.732c-0.218,0.326-0.338,0.708-0.366,1.133
				c-0.031,0.469,0.089,0.84,0.357,1.117c0.269,0.276,0.667,0.436,1.195,0.486c0.297,0.028,0.575,0.005,0.846-0.072
				s0.507-0.202,0.702-0.377c0.065,0.072,0.097,0.107,0.161,0.181c-0.21,0.193-0.471,0.336-0.782,0.423
				c-0.313,0.088-0.636,0.113-0.976,0.081C109.614,55.856,109.166,55.669,108.848,55.342z"/>
			<path d="M114.502,55.304c-0.05,0.127-0.083,0.229-0.097,0.309c-0.07,0.41,0.125,0.656,0.587,0.741
				c0.267,0.049,0.521,0.012,0.767-0.108c0.027,0.084,0.04,0.128,0.067,0.212c-0.139,0.07-0.286,0.113-0.447,0.131
				s-0.318,0.013-0.477-0.017c-0.293-0.054-0.504-0.162-0.639-0.332c-0.134-0.169-0.179-0.385-0.136-0.642
				c0.019-0.11,0.047-0.213,0.085-0.31c0.418-1.065,0.632-1.596,1.072-2.654c-0.342-0.061-0.511-0.091-0.853-0.146
				c0.032-0.089,0.047-0.134,0.079-0.223c0.344,0.057,0.515,0.085,0.857,0.146c0.145-0.345,0.216-0.517,0.362-0.86
				c0.117,0.021,0.178,0.031,0.295,0.054c-0.149,0.343-0.223,0.515-0.369,0.858c0.598,0.11,0.896,0.171,1.491,0.296
				c-0.036,0.087-0.056,0.131-0.092,0.218c-0.593-0.124-0.887-0.184-1.482-0.293C115.135,53.729,114.919,54.253,114.502,55.304z"/>
			<path d="M119.525,53.309c0.114,0.029,0.171,0.045,0.285,0.074c-0.771,1.516-1.146,2.278-1.869,3.813
				c-0.106-0.025-0.159-0.041-0.266-0.066C118.392,55.592,118.762,54.828,119.525,53.309z M120.044,52.245
				c-0.037-0.06-0.049-0.122-0.033-0.185c0.019-0.072,0.065-0.127,0.138-0.166c0.073-0.039,0.152-0.048,0.234-0.026
				c0.077,0.021,0.135,0.059,0.176,0.119c0.04,0.062,0.052,0.124,0.035,0.187c-0.02,0.071-0.066,0.128-0.142,0.165
				c-0.076,0.038-0.152,0.045-0.235,0.023C120.141,52.343,120.082,52.305,120.044,52.245z"/>
			<path d="M120.996,57.573c-0.236-0.392-0.287-0.837-0.141-1.339c0.133-0.455,0.359-0.838,0.68-1.138
				c0.321-0.3,0.705-0.495,1.148-0.584c0.444-0.089,0.913-0.052,1.396,0.112c0.583,0.198,0.993,0.511,1.227,0.927
				s0.251,0.867,0.066,1.355c-0.168,0.444-0.422,0.806-0.756,1.085c-0.335,0.279-0.715,0.457-1.141,0.535s-0.858,0.044-1.307-0.104
				C121.62,58.243,121.231,57.964,120.996,57.573z M123.422,58.291c0.374-0.072,0.708-0.236,1.006-0.493
				c0.298-0.258,0.525-0.584,0.674-0.983c0.164-0.44,0.148-0.834-0.051-1.179c-0.2-0.345-0.563-0.609-1.082-0.785
				c-0.417-0.142-0.822-0.173-1.213-0.093c-0.392,0.08-0.729,0.257-1.016,0.527c-0.285,0.27-0.486,0.611-0.607,1.02
				c-0.134,0.45-0.098,0.838,0.104,1.168c0.201,0.329,0.549,0.568,1.041,0.73C122.669,58.332,123.049,58.363,123.422,58.291z"/>
			<path d="M131.413,58.066c0.149,0.335,0.128,0.684-0.056,1.045c-0.063,0.123-0.147,0.247-0.252,0.374
				c-0.633,0.77-0.943,1.158-1.561,1.938c-0.1-0.05-0.151-0.075-0.251-0.124c0.613-0.782,0.924-1.171,1.553-1.943
				c0.081-0.097,0.156-0.213,0.224-0.347c0.158-0.315,0.176-0.606,0.047-0.882c-0.129-0.274-0.406-0.517-0.825-0.715
				c-0.518-0.245-1.009-0.313-1.467-0.208s-0.844,0.383-1.161,0.827c-0.544,0.762-0.813,1.147-1.344,1.917
				c-0.103-0.043-0.154-0.064-0.257-0.106c0.954-1.402,1.443-2.101,2.443-3.477c0.109,0.047,0.163,0.073,0.272,0.121
				c-0.217,0.297-0.323,0.442-0.538,0.74c0.326-0.201,0.681-0.302,1.059-0.299s0.764,0.101,1.157,0.287
				C130.943,57.446,131.265,57.732,131.413,58.066z"/>
		</g>
	</g>
	<path fill="none" stroke="#000000" stroke-miterlimit="10" d="M45.159,61.948c0,0,18.483-39.063,60.463-39.063
		c41.981,0,53.674,39.114,53.674,39.114"/>
	<path fill="none" stroke="#000000" stroke-miterlimit="10" d="M28.467,62.333c0,0,23.885-50.478,78.133-50.478
		c54.249,0,69.358,50.545,69.358,50.545"/>
	<path fill="none" stroke="#000000" stroke-miterlimit="10" d="M17.085,61.278c0,0,27.986-59.146,91.551-59.146
		c63.565,0,81.269,59.225,81.269,59.225"/>
	<path fill="none" stroke="#000000" stroke-miterlimit="10" d="M151.672,1.021c19.81,8.996,35.632,24.986,46.178,43.849
		c3.109,5.562,5.952,11.432,7.857,17.53"/>
	<path fill="none" stroke="#000000" stroke-miterlimit="10" d="M1.282,62.309c5.35-11.003,13.022-21.151,21.264-30.117
		C35.078,18.557,50.307,7.304,67.538,0.367"/>
	<path fill="none" stroke="#000000" stroke-miterlimit="10" d="M172.717,1.069c15.051,11.121,26.854,26.069,36.453,42.005"/>
	<path fill="none" stroke="#000000" stroke-miterlimit="10" d="M0.43,43.37c11.364-17.598,26.93-32.403,44.936-43.086"/>
	<path fill="none" stroke="#000000" stroke-miterlimit="10" d="M186.196,0.452c9.018,7.035,17,15.372,23.728,24.617"/>
	<path fill="none" stroke="#000000" stroke-miterlimit="10" d="M1.125,27.434C10.015,17.221,20.14,8.068,31.289,0.378"/>
	<path fill="none" stroke="#000000" stroke-miterlimit="10" d="M202.217,1.453c2.562,2.497,5.02,5.101,7.364,7.803"/>
	<path fill="none" stroke="#000000" stroke-miterlimit="10" d="M1.862,15.054c4.495-4.97,9.307-9.654,14.395-14.017"/>
	<g>
		<path fill="none" stroke="#000000" stroke-miterlimit="10" d="M144.304,60.914c4.537-0.016,9.075-0.034,13.612-0.058"/>
		<path fill="none" stroke="#000000" stroke-miterlimit="10" d="M45.718,60.856c4.729,0,9.458,0,14.187,0"/>
		<path fill="none" stroke="#000000" stroke-miterlimit="10" d="M144.027,58.72c4.63-0.039,9.26-0.084,13.889-0.136"/>
		<path fill="none" stroke="#000000" stroke-miterlimit="10" d="M47.056,58.584c4.582,0.052,9.164,0.098,13.747,0.137"/>
		<path fill="none" stroke="#000000" stroke-miterlimit="10" d="M144.027,58.72c4.63-0.039,9.26-0.084,13.889-0.136"/>
		<path fill="none" stroke="#000000" stroke-miterlimit="10" d="M47.056,58.584c4.582,0.052,9.164,0.098,13.747,0.137"/>
		<path fill="none" stroke="#000000" stroke-miterlimit="10" d="M142.561,56.198c4.663,0.028,9.325,0.063,13.987,0.102"/>
		<path fill="none" stroke="#000000" stroke-miterlimit="10" d="M48.847,56.312c4.429-0.038,8.858-0.072,13.287-0.102"/>
		<path fill="none" stroke="#000000" stroke-miterlimit="10" d="M142.561,56.198c4.663,0.028,9.325,0.063,13.987,0.102"/>
		<path fill="none" stroke="#000000" stroke-miterlimit="10" d="M48.847,56.312c4.429-0.038,8.858-0.072,13.287-0.102"/>
		<path fill="none" stroke="#000000" stroke-miterlimit="10" d="M141.181,54.023c4.882,0.004,9.764,0.009,14.646,0.014"/>
		<path fill="none" stroke="#000000" stroke-miterlimit="10" d="M50.52,54.039c4.417-0.005,8.834-0.009,13.251-0.013"/>
		<path fill="none" stroke="#000000" stroke-miterlimit="10" d="M141.181,54.023c4.882,0.004,9.764,0.009,14.646,0.014"/>
		<path fill="none" stroke="#000000" stroke-miterlimit="10" d="M50.52,54.039c4.417-0.005,8.834-0.009,13.251-0.013"/>
		<path fill="none" stroke="#000000" stroke-miterlimit="10" d="M140.451,51.863c4.662-0.021,9.325-0.045,13.987-0.074"/>
		<path fill="none" stroke="#000000" stroke-miterlimit="10" d="M52.33,51.767c4.43,0.029,8.858,0.055,13.288,0.077"/>
		<path fill="none" stroke="#000000" stroke-miterlimit="10" d="M140.451,51.863c4.662-0.021,9.325-0.045,13.987-0.074"/>
		<path fill="none" stroke="#000000" stroke-miterlimit="10" d="M52.33,51.767c4.43,0.029,8.858,0.055,13.288,0.077"/>
		<path fill="none" stroke="#000000" stroke-miterlimit="10" d="M138.405,49.271c4.883,0.043,9.766,0.096,14.648,0.158"/>
		<path fill="none" stroke="#000000" stroke-miterlimit="10" d="M53.996,49.494c4.65-0.066,9.301-0.124,13.951-0.172"/>
		<path fill="none" stroke="#000000" stroke-miterlimit="10" d="M138.405,49.271c4.883,0.043,9.766,0.096,14.648,0.158"/>
		<path fill="none" stroke="#000000" stroke-miterlimit="10" d="M53.996,49.494c4.65-0.066,9.301-0.124,13.951-0.172"/>
		<path fill="none" stroke="#000000" stroke-miterlimit="10" d="M136.942,47.113c4.896,0.02,9.79,0.043,14.686,0.07"/>
		<path fill="none" stroke="#000000" stroke-miterlimit="10" d="M55.82,47.222c4.896-0.032,9.79-0.06,14.686-0.082"/>
		<path fill="none" stroke="#000000" stroke-miterlimit="10" d="M136.942,47.113c4.896,0.02,9.79,0.043,14.686,0.07"/>
		<path fill="none" stroke="#000000" stroke-miterlimit="10" d="M55.82,47.222c4.896-0.032,9.79-0.06,14.686-0.082"/>
		<path fill="none" stroke="#000000" stroke-miterlimit="10" d="M134.376,44.977c5.337-0.004,10.675-0.01,16.013-0.017"/>
		<path fill="none" stroke="#000000" stroke-miterlimit="10" d="M57.792,44.949c5.105,0.008,10.211,0.015,15.316,0.021"/>
		<path fill="none" stroke="#000000" stroke-miterlimit="10" d="M134.376,44.977c5.337-0.004,10.675-0.01,16.013-0.017"/>
		<path fill="none" stroke="#000000" stroke-miterlimit="10" d="M57.792,44.949c5.105,0.008,10.211,0.015,15.316,0.021"/>
		<path fill="none" stroke="#000000" stroke-miterlimit="10" d="M132.893,42.859c5.097-0.024,10.194-0.057,15.292-0.097"/>
		<path fill="none" stroke="#000000" stroke-miterlimit="10" d="M59.904,42.677c5.329,0.053,10.658,0.097,15.987,0.132"/>
		<path fill="none" stroke="#000000" stroke-miterlimit="10" d="M132.608,42.864c5.115-0.023,10.231-0.056,15.347-0.096"/>
		<path fill="none" stroke="#000000" stroke-miterlimit="10" d="M60.059,42.677c5.348,0.053,10.696,0.098,16.044,0.133"/>
		<path fill="none" stroke="#000000" stroke-miterlimit="10" d="M128.841,40.145c5.567,0.028,11.135,0.067,16.702,0.119"/>
		<path fill="none" stroke="#000000" stroke-miterlimit="10" d="M62.033,40.404c5.799-0.074,11.598-0.135,17.397-0.182"/>
		<path fill="none" stroke="#000000" stroke-miterlimit="10" d="M128.841,40.145c5.567,0.028,11.135,0.067,16.702,0.119"/>
		<path fill="none" stroke="#000000" stroke-miterlimit="10" d="M62.033,40.404c5.799-0.074,11.598-0.135,17.397-0.182"/>
		<path fill="none" stroke="#000000" stroke-miterlimit="10" d="M125.5,38.041c6.02,0.008,12.04,0.021,18.061,0.038"/>
		<path fill="none" stroke="#000000" stroke-miterlimit="10" d="M64.371,38.132c6.021-0.025,12.04-0.046,18.061-0.062"/>
		<path fill="none" stroke="#000000" stroke-miterlimit="10" d="M125.5,38.041c6.02,0.008,12.04,0.021,18.061,0.038"/>
		<path fill="none" stroke="#000000" stroke-miterlimit="10" d="M64.371,38.132c6.021-0.025,12.04-0.046,18.061-0.062"/>
		<path fill="none" stroke="#000000" stroke-miterlimit="10" d="M120.755,35.961c6.735-0.005,13.471-0.018,20.206-0.037"/>
		<path fill="none" stroke="#000000" stroke-miterlimit="10" d="M67.104,35.859c6.271,0.029,12.541,0.052,18.813,0.068"/>
		<path fill="none" stroke="#000000" stroke-miterlimit="10" d="M120.755,35.961c6.735-0.005,13.471-0.018,20.206-0.037"/>
		<path fill="none" stroke="#000000" stroke-miterlimit="10" d="M67.104,35.859c6.271,0.029,12.541,0.052,18.813,0.068"/>
		<path fill="none" stroke="#000000" stroke-miterlimit="10" d="M113.613,33.897c8.625,0.003,17.25-0.031,25.874-0.1"/>
		<path fill="none" stroke="#000000" stroke-miterlimit="10" d="M70.26,33.587c8.157,0.115,16.315,0.197,24.474,0.249"/>
		<path fill="none" stroke="#000000" stroke-miterlimit="10" d="M113.613,33.897c8.625,0.003,17.25-0.031,25.874-0.1"/>
		<path fill="none" stroke="#000000" stroke-miterlimit="10" d="M70.26,33.587c8.157,0.115,16.315,0.197,24.474,0.249"/>
		<path fill="none" stroke="#000000" stroke-miterlimit="10" d="M74.171,31.314c20.376-0.225,40.754-0.292,61.131-0.188"/>
		<path fill="none" stroke="#000000" stroke-miterlimit="10" d="M74.171,31.314c20.376-0.225,40.754-0.292,61.131-0.188"/>
		<path fill="none" stroke="#000000" stroke-miterlimit="10" d="M79.861,29.042c16.728-0.027,33.455-0.036,50.183-0.029"/>
		<path fill="none" stroke="#000000" stroke-miterlimit="10" d="M79.861,29.042c16.728-0.027,33.455-0.036,50.183-0.029"/>
		<path fill="none" stroke="#000000" stroke-miterlimit="10" d="M87.836,26.77c13.243,0.128,26.486,0.187,39.73,0.17"/>
		<path fill="none" stroke="#000000" stroke-miterlimit="10" d="M84.291,26.77c14.425,0.128,28.85,0.187,43.275,0.17"/>
		<path fill="none" stroke="#000000" stroke-miterlimit="10" d="M89.882,24.497c9.458-0.206,18.918-0.326,28.378-0.362"/>
		<path fill="none" stroke="#000000" stroke-miterlimit="10" d="M61.084,59.219"/>
	</g>
	<g>
		<g>
			<path fill="none" stroke="#000000" stroke-miterlimit="10" d="M34.624,51.977c0,3.179,0,6.358,0,9.537"/>
			<path fill="none" stroke="#000000" stroke-miterlimit="10" d="M38.124,47.756c0,4.568,0,9.137,0,13.705"/>
			<path fill="none" stroke="#000000" stroke-miterlimit="10" d="M41.624,43.7c0,5.927,0,11.853,0,17.779"/>
		</g>
		<g>
			<path fill="none" stroke="#000000" stroke-miterlimit="10" d="M41.659,43.7c0,5.927,0,11.853,0,17.779"/>
			<path fill="none" stroke="#000000" stroke-miterlimit="10" d="M44.813,40.377c0.046,7.083,0.158,14.166,0.346,21.246"/>
			<path fill="none" stroke="#000000" stroke-miterlimit="10" d="M48.664,35.773c-0.001,6.918-0.002,13.835-0.005,20.752"/>
		</g>
		<g>
			<path fill="none" stroke="#000000" stroke-miterlimit="10" d="M48.664,36.099c-0.001,6.729-0.002,13.456-0.005,20.185"/>
			<path fill="none" stroke="#000000" stroke-miterlimit="10" d="M52.159,32.744c0,6.012,0,12.023,0,18.035"/>
			<path fill="none" stroke="#000000" stroke-miterlimit="10" d="M55.659,29.234c0,5.309,0,10.618,0,15.928"/>
		</g>
		<g>
			<path fill="none" stroke="#000000" stroke-miterlimit="10" d="M55.838,29.698c0,5.122,0,10.245,0,15.367"/>
			<path fill="none" stroke="#000000" stroke-miterlimit="10" d="M59.338,26.729c0,4.621,0,9.243,0,13.864"/>
			<path fill="none" stroke="#000000" stroke-miterlimit="10" d="M62.838,24.429c0,4.344,0,8.688,0,13.031"/>
		</g>
		<g>
			<path fill="none" stroke="#000000" stroke-miterlimit="10" d="M62.838,24.333c0,4.388,0,8.775,0,13.163"/>
			<path fill="none" stroke="#000000" stroke-miterlimit="10" d="M66.338,22.247c0,4.154,0,8.31,0,12.464"/>
			<path fill="none" stroke="#000000" stroke-miterlimit="10" d="M69.838,20.171c0,4.155,0,8.31,0,12.465"/>
		</g>
		<g>
			<path fill="none" stroke="#000000" stroke-miterlimit="10" d="M69.873,20.171c0,4.155,0,8.31,0,12.465"/>
			<path fill="none" stroke="#000000" stroke-miterlimit="10" d="M73.373,18.612c0,4.103,0,8.205,0,12.308"/>
			<path fill="none" stroke="#000000" stroke-miterlimit="10" d="M76.873,17.248c0,4.104,0,8.209,0,12.313"/>
		</g>
		<g>
			<path fill="none" stroke="#000000" stroke-miterlimit="10" d="M76.873,17.176c0,4.16,0,8.32,0,12.481"/>
			<path fill="none" stroke="#000000" stroke-miterlimit="10" d="M80.373,15.806c0,4.168,0,8.335,0,12.502"/>
			<path fill="none" stroke="#000000" stroke-miterlimit="10" d="M83.873,15.123c0,4.172,0,8.344,0,12.516"/>
		</g>
		<g>
			<path fill="none" stroke="#000000" stroke-miterlimit="10" d="M84.052,14.67c0,4.173,0,8.345,0,12.517"/>
			<path fill="none" stroke="#000000" stroke-miterlimit="10" d="M87.552,13.957c0,3.933,0,7.864,0,11.797"/>
			<path fill="none" stroke="#000000" stroke-miterlimit="10" d="M91.052,13.073c0,3.844,0,7.687,0,11.53"/>
		</g>
		<g>
			<path fill="none" stroke="#000000" stroke-miterlimit="10" d="M91.052,13.211c0,3.815,0,7.631,0,11.446"/>
			<path fill="none" stroke="#000000" stroke-miterlimit="10" d="M94.552,12.577c0,3.62,0,7.241,0,10.862"/>
			<path fill="none" stroke="#000000" stroke-miterlimit="10" d="M98.052,12.508c0,3.346,0,6.691,0,10.037"/>
		</g>
		<g>
			<path fill="none" stroke="#000000" stroke-miterlimit="10" d="M98.087,12.508c0,3.346,0,6.691,0,10.037"/>
			<path fill="none" stroke="#000000" stroke-miterlimit="10" d="M101.587,11.862c0,3.365,0,6.73,0,10.096"/>
			<path fill="none" stroke="#000000" stroke-miterlimit="10" d="M105.087,11.977c0,3.23,0,6.461,0,9.69"/>
		</g>
		<g>
			<path fill="none" stroke="#000000" stroke-miterlimit="10" d="M105.087,12.293c0,3.141,0,6.282,0,9.423"/>
			<path fill="none" stroke="#000000" stroke-miterlimit="10" d="M108.587,12.293c0,3.141,0,6.282,0,9.423"/>
			<path fill="none" stroke="#000000" stroke-miterlimit="10" d="M112.087,12.391c0,3.206,0,6.411,0,9.617"/>
		</g>
		<g>
			<path fill="none" stroke="#000000" stroke-miterlimit="10" d="M112.266,12.535c0,3.142,0,6.282,0,9.423"/>
			<path fill="none" stroke="#000000" stroke-miterlimit="10" d="M115.766,13.178c0,3.122,0,6.245,0,9.367"/>
			<path fill="none" stroke="#000000" stroke-miterlimit="10" d="M119.266,12.697c0,3.48,0,6.961,0,10.441"/>
		</g>
		<g>
			<path fill="none" stroke="#000000" stroke-miterlimit="10" d="M119.266,12.946c0,3.365,0,6.73,0,10.096"/>
			<path fill="none" stroke="#000000" stroke-miterlimit="10" d="M122.766,13.687c0,3.413,0,6.825,0,10.238"/>
			<path fill="none" stroke="#000000" stroke-miterlimit="10" d="M126.266,14.315c0,3.604,0,7.209,0,10.813"/>
		</g>
		<g>
			<path fill="none" stroke="#000000" stroke-miterlimit="10" d="M126.301,14.315c0,3.604,0,7.209,0,10.813"/>
			<path fill="none" stroke="#000000" stroke-miterlimit="10" d="M129.801,15.74c0,3.644,0,7.288,0,10.932"/>
			<path fill="none" stroke="#000000" stroke-miterlimit="10" d="M133.301,17.046c0,3.844,0,7.687,0,11.529"/>
		</g>
		<g>
			<path fill="none" stroke="#000000" stroke-miterlimit="10" d="M133.301,16.937c0,3.906,0,7.812,0,11.718"/>
			<path fill="none" stroke="#000000" stroke-miterlimit="10" d="M136.801,18.954c0,3.887,0,7.774,0,11.661"/>
			<path fill="none" stroke="#000000" stroke-miterlimit="10" d="M140.301,20.462c0,4.163,0,8.327,0,12.49"/>
		</g>
		<g>
			<path fill="none" stroke="#000000" stroke-miterlimit="10" d="M140.479,20.011c0,4.395,0,8.79,0,13.185"/>
			<path fill="none" stroke="#000000" stroke-miterlimit="10" d="M143.979,21.902c0,4.787,0,9.574,0,14.361"/>
			<path fill="none" stroke="#000000" stroke-miterlimit="10" d="M147.479,23.975c0,5.25,0,10.501,0,15.751"/>
		</g>
		<g>
			<path fill="none" stroke="#000000" stroke-miterlimit="10" d="M147.35,23.78c0,5.311,0,10.62,0,15.93"/>
			<path fill="none" stroke="#000000" stroke-miterlimit="10" d="M150.85,25.872c0,6.007,0,12.015,0,18.021"/>
			<path fill="none" stroke="#000000" stroke-miterlimit="10" d="M154.35,29.499c0,6.752,0,13.505,0,20.257"/>
		</g>
		<g>
			<path fill="none" stroke="#000000" stroke-miterlimit="10" d="M154.528,29.742c0,6.752,0,13.505,0,20.257"/>
			<path fill="none" stroke="#000000" stroke-miterlimit="10" d="M158.028,32.282c0,8.522,0,17.046,0,25.568"/>
			<path fill="none" stroke="#000000" stroke-miterlimit="10" d="M161.632,36.518c-0.003,8.601-0.039,17.2-0.104,25.801"/>
		</g>
		<g>
			<path fill="none" stroke="#000000" stroke-miterlimit="10" d="M161.495,36.379c0,8.6,0,17.199,0,25.799"/>
			<path fill="none" stroke="#000000" stroke-miterlimit="10" d="M164.995,40.337c0,7.381,0,14.761,0,22.142"/>
			<path fill="none" stroke="#000000" stroke-miterlimit="10" d="M168.495,47.948c0,4.844,0,9.687,0,14.53"/>
		</g>
		<g>
			<path fill="none" stroke="#000000" stroke-miterlimit="10" d="M168.495,47.948c0,4.844,0,9.687,0,14.53"/>
			<path fill="none" stroke="#000000" stroke-miterlimit="10" d="M171.995,56.251c0,2.076,0,4.151,0,6.228"/>
		</g>
	</g>
	<polyline fill="none" stroke="#000000" stroke-miterlimit="10" points="17.601,60.252 30.129,59.219 22.399,52.117 34.286,52.59 
		27.765,44.523 37.652,47.941 34.05,36.933 44.636,39.715 41.659,29.042 51.879,32.744 50.111,22.057 60.803,25.887 61.241,14.67 
		68.08,21.381 69.838,10.298 78.416,16.438 82.496,5.7 89.041,13.211 95.356,3.021 100.041,12.577 106.666,2.438 111.104,11.855 
		115.766,2.688 120.755,13.089 126.551,4.688 127.999,14.793 136.61,6.48 137.191,17.526 146.604,12.697 147.12,22.057 
		157.166,18.008 154.35,28 166.416,25.872 160.166,33.195 172.666,32.952 165.791,39.726 177.166,39.063 169.854,47.184 
		183.041,47.948 173.979,54.375 186.604,55.5 175.958,59.625 189.104,62 	"/>
	<path fill="url(#Foliage)" d="M149.197,0.735c-5.926,0.21-11.839-0.57-17.814-0.568c-8.449,0.003-16.904,0.001-25.35,0.286
		c-8.121,0.273-16.239,1.128-24.367,0.88C77.018,1.191,72.393,1.15,67.98-0.085c-0.81,0.034-1.538-0.128-2.191-0.412
		c-44.1,17.72-64.418,61.229-64.507,62.976c-0.116,2.271,15.803,0,15.803,0s28.01-62.047,93.831-60.347s78.988,59.225,78.988,59.225
		l15.803,1.044C205.707,62.4,194.335,19.563,149.197,0.735z"/>
</g>
<g id="social_drinking">
</g>
<g id="Spin_the_bottle">
</g>
<g id="accents">
</g>
<g id="Slap">
</g>
<g id="Layer_22">
</g>
<g id="Layer_19">
</g>
<g id="Layer_20">
</g>
<g id="Layer_21">
</g>
<g id="Layer_23">
</g>
<g id="Layer_24">
</g>
</svg>
