<?xml version="1.0" encoding="utf-8"?>
<!-- Generator: Adobe Illustrator 16.0.0, SVG Export Plug-In . SVG Version: 6.00 Build 0)  -->
<!DOCTYPE svg PUBLIC "-//W3C//DTD SVG 1.1//EN" "http://www.w3.org/Graphics/SVG/1.1/DTD/svg11.dtd">
<svg version="1.1" xmlns="http://www.w3.org/2000/svg" xmlns:xlink="http://www.w3.org/1999/xlink" x="0px" y="0px"
	 width="209.759px" height="62.36px" viewBox="0 0 209.759 62.36" enable-background="new 0 0 209.759 62.36" xml:space="preserve">
<g id="Layer_1">
</g>
<g id="Hat">
</g>
<g id="Compliments">
</g>
<g id="HAT">
</g>
<g id="speech">
</g>
<g id="TREX_ARMS">
</g>
<g id="Layer_7">
</g>
<g id="TIMEOUT">
</g>
<g id="Layer_9">
</g>
<g id="ARM_WRESTLE">
</g>
<g id="musical_chairs">
</g>
<g id="never_have_i_ever">
</g>
<g id="Trivia">
</g>
<g id="Layer_14">
</g>
<g id="Layer_15">
</g>
<g id="Layer_16">
</g>
<g id="Layer_17">
</g>
<g id="Heads_up">
</g>
<g id="Archenemy">
</g>
<g id="battle_of_the_sexes">
</g>
<g id="one_must_drink">
</g>
<g id="rainbow_connection">
</g>
<g id="social_drinking">
</g>
<g id="Spin_the_bottle">
</g>
<g id="accents">
	<g>
		<path d="M94.188,32.779l-0.084-0.731h-0.036c-0.324,0.456-0.947,0.863-1.775,0.863c-1.175,0-1.774-0.828-1.774-1.667
			c0-1.403,1.247-2.171,3.49-2.159v-0.12c0-0.479-0.132-1.343-1.319-1.343c-0.54,0-1.104,0.168-1.512,0.432l-0.239-0.695
			c0.479-0.312,1.175-0.516,1.906-0.516c1.775,0,2.207,1.211,2.207,2.375v2.171c0,0.503,0.024,0.995,0.096,1.391H94.188z
			 M94.032,29.816c-1.151-0.024-2.458,0.18-2.458,1.307c0,0.684,0.455,1.008,0.995,1.008c0.756,0,1.235-0.48,1.403-0.972
			c0.036-0.108,0.06-0.228,0.06-0.336V29.816z"/>
		<path d="M100.896,32.563c-0.276,0.144-0.888,0.336-1.668,0.336c-1.751,0-2.89-1.188-2.89-2.962c0-1.787,1.223-3.083,3.118-3.083
			c0.623,0,1.175,0.156,1.463,0.3l-0.24,0.815c-0.251-0.144-0.647-0.275-1.223-0.275c-1.331,0-2.051,0.983-2.051,2.194
			c0,1.343,0.863,2.171,2.015,2.171c0.6,0,0.995-0.156,1.295-0.288L100.896,32.563z"/>
		<path d="M106.2,32.563c-0.276,0.144-0.888,0.336-1.668,0.336c-1.751,0-2.89-1.188-2.89-2.962c0-1.787,1.223-3.083,3.118-3.083
			c0.623,0,1.175,0.156,1.463,0.3l-0.239,0.815c-0.252-0.144-0.648-0.275-1.224-0.275c-1.331,0-2.051,0.983-2.051,2.194
			c0,1.343,0.863,2.171,2.015,2.171c0.6,0,0.995-0.156,1.295-0.288L106.2,32.563z"/>
		<path d="M107.953,30.068c0.024,1.427,0.936,2.015,1.991,2.015c0.756,0,1.211-0.132,1.607-0.3l0.18,0.756
			c-0.372,0.168-1.008,0.36-1.931,0.36c-1.787,0-2.854-1.176-2.854-2.927s1.031-3.13,2.723-3.13c1.895,0,2.398,1.667,2.398,2.734
			c0,0.216-0.024,0.384-0.036,0.492H107.953z M111.048,29.313c0.012-0.671-0.276-1.715-1.463-1.715
			c-1.067,0-1.535,0.983-1.619,1.715H111.048z"/>
		<path d="M113.379,28.545c0-0.6-0.013-1.091-0.049-1.571h0.936l0.061,0.959h0.023c0.288-0.552,0.96-1.091,1.919-1.091
			c0.804,0,2.051,0.479,2.051,2.47v3.466h-1.055v-3.346c0-0.936-0.349-1.715-1.344-1.715c-0.695,0-1.235,0.492-1.415,1.079
			c-0.048,0.132-0.072,0.312-0.072,0.492v3.49h-1.055V28.545z"/>
		<path d="M121.261,25.307v1.667h1.512v0.803h-1.512v3.13c0,0.72,0.204,1.127,0.792,1.127c0.275,0,0.479-0.036,0.611-0.072
			l0.048,0.792c-0.203,0.084-0.527,0.144-0.936,0.144c-0.491,0-0.887-0.156-1.139-0.444c-0.3-0.312-0.408-0.828-0.408-1.511v-3.167
			h-0.899v-0.803h0.899v-1.392L121.261,25.307z"/>
		<path d="M123.817,31.699c0.312,0.204,0.863,0.42,1.392,0.42c0.768,0,1.127-0.384,1.127-0.863c0-0.504-0.3-0.78-1.079-1.068
			c-1.044-0.372-1.535-0.947-1.535-1.643c0-0.935,0.756-1.703,2.003-1.703c0.588,0,1.104,0.167,1.427,0.359l-0.264,0.768
			c-0.228-0.144-0.647-0.335-1.188-0.335c-0.623,0-0.971,0.36-0.971,0.792c0,0.479,0.348,0.695,1.103,0.983
			c1.008,0.384,1.523,0.888,1.523,1.751c0,1.02-0.791,1.739-2.171,1.739c-0.636,0-1.223-0.156-1.631-0.396L123.817,31.699z"/>
	</g>
</g>
<g id="Slap">
</g>
<g id="Layer_22">
</g>
<g id="Layer_19">
</g>
<g id="Layer_20">
</g>
<g id="Layer_21">
</g>
<g id="Layer_23">
</g>
<g id="Layer_24">
</g>
</svg>
