<?xml version="1.0" encoding="utf-8"?>
<!-- Generator: Adobe Illustrator 16.0.0, SVG Export Plug-In . SVG Version: 6.00 Build 0)  -->
<!DOCTYPE svg PUBLIC "-//W3C//DTD SVG 1.1//EN" "http://www.w3.org/Graphics/SVG/1.1/DTD/svg11.dtd">
<svg version="1.1" xmlns="http://www.w3.org/2000/svg" xmlns:xlink="http://www.w3.org/1999/xlink" x="0px" y="0px"
	 width="209.759px" height="62.361px" viewBox="0 0 209.759 62.361" enable-background="new 0 0 209.759 62.361"
	 xml:space="preserve">
<g id="Layer_1">
</g>
<g id="Hat">
</g>
<g id="Compliments">
</g>
<g id="HAT">
</g>
<g id="speech">
</g>
<g id="TREX_ARMS">
</g>
<g id="Layer_7">
</g>
<g id="TIMEOUT">
</g>
<g id="Layer_9">
</g>
<g id="ARM_WRESTLE">
</g>
<g id="musical_chairs">
</g>
<g id="never_have_i_ever">
</g>
<g id="Trivia">
</g>
<g id="Layer_14">
</g>
<g id="Layer_15">
</g>
<g id="Layer_16">
</g>
<g id="Layer_17">
	<g>
		<path d="M21.076,10.786c-0.396,0-0.693-0.231-0.891-0.696c-0.173-0.396-0.334-0.637-0.482-0.723
			c-0.13-0.068-0.452-0.103-0.965-0.103c-0.897,0-1.893,0.687-2.987,2.06c-1.484,1.843-2.227,3.59-2.227,5.242
			c0,0.797,0.256,1.484,0.77,2.059c0.525,0.594,1.16,0.891,1.902,0.891c0.637,0,1.277-0.163,1.92-0.491
			c0.358-0.186,0.909-0.551,1.651-1.095c0.353-0.26,0.618-0.39,0.798-0.39c0.266,0,0.488,0.101,0.668,0.302
			c0.179,0.201,0.269,0.425,0.269,0.672c0,0.279-0.118,0.523-0.353,0.733c-1.633,1.447-3.284,2.171-4.954,2.171
			c-1.28,0-2.363-0.492-3.247-1.475c-0.854-0.953-1.28-2.078-1.28-3.377c0-2.098,0.878-4.246,2.635-6.448
			c1.466-1.837,2.944-2.755,4.435-2.755c0.303,0,0.575,0.014,0.816,0.041c0.241,0.028,0.455,0.073,0.64,0.135
			c0.216-0.315,0.498-0.473,0.844-0.473c0.427,0,0.696,0.281,0.807,0.844c0.099,0.501,0.148,1.116,0.148,1.846
			c0,0.254-0.068,0.477-0.204,0.668C21.624,10.666,21.385,10.786,21.076,10.786z"/>
		<path d="M28.039,21.742c-1.039,0-1.933-0.383-2.681-1.15c-0.835-0.854-1.274-2-1.317-3.441c-0.037-1.397,0.315-2.629,1.058-3.692
			c0.866-1.256,2.072-1.884,3.618-1.884c1.237,0,2.174,0.566,2.811,1.698c0.507,0.915,0.751,2.017,0.733,3.303
			c-0.019,1.373-0.377,2.545-1.076,3.517C30.392,21.192,29.343,21.742,28.039,21.742z M28.595,13.458
			c-0.909-0.006-1.618,0.427-2.125,1.299c-0.402,0.699-0.603,1.497-0.603,2.394s0.244,1.596,0.733,2.097
			c0.408,0.414,0.887,0.622,1.438,0.622c0.643,0,1.197-0.235,1.661-0.705c0.525-0.52,0.804-1.222,0.835-2.106
			C30.621,14.664,29.974,13.464,28.595,13.458z"/>
		<path d="M39.733,21.779c-1.268,0-2.326-0.383-3.173-1.15c-0.891-0.804-1.336-1.864-1.336-3.182c0-1.256,0.417-2.551,1.252-3.887
			c0.928-1.484,1.973-2.227,3.136-2.227c0.606,0,1.283,0.142,2.032,0.426c0.946,0.365,1.419,0.811,1.419,1.336
			c0,0.235-0.078,0.444-0.232,0.627c-0.155,0.183-0.347,0.273-0.575,0.273c-0.18,0-0.335-0.054-0.468-0.162
			c-0.133-0.108-0.262-0.215-0.385-0.32c-0.365-0.291-0.962-0.436-1.791-0.436c-0.631,0-1.256,0.563-1.874,1.688
			c-0.563,1.033-0.844,1.927-0.844,2.682c0,0.816,0.278,1.46,0.835,1.93c0.52,0.439,1.188,0.658,2.004,0.658
			c0.371,0,0.767-0.099,1.188-0.297l1.076-0.574c0.186-0.1,0.318-0.148,0.399-0.148c0.229,0,0.427,0.091,0.594,0.273
			s0.25,0.391,0.25,0.626c0,0.451-0.477,0.888-1.429,1.308C40.976,21.594,40.283,21.779,39.733,21.779z"/>
		<path d="M54.015,21.576c-0.34,0-0.603-0.18-0.789-0.539c-0.322-0.624-0.807-1.363-1.457-2.217l-1.642-2.236
			c-0.359,0.285-0.916,0.684-1.67,1.197c-0.068,0.959-0.102,1.893-0.102,2.802c0,0.278-0.085,0.504-0.255,0.677
			c-0.17,0.174-0.389,0.26-0.654,0.26c-0.625,0-0.937-0.42-0.937-1.262c0-0.513,0.036-1.281,0.107-2.305
			c0.071-1.023,0.106-1.792,0.106-2.306c0-0.94,0.014-2.015,0.042-3.224c0.027-1.209,0.042-2.277,0.042-3.205
			c0-0.279-0.014-0.606-0.042-0.984c-0.028-0.377-0.042-0.705-0.042-0.982c0-0.279,0.085-0.505,0.255-0.678
			c0.17-0.173,0.388-0.26,0.654-0.26c0.266,0,0.484,0.087,0.654,0.26c0.17,0.173,0.255,0.398,0.255,0.678
			c0,0.284,0.015,0.62,0.046,1.006c0.031,0.387,0.046,0.723,0.046,1.007l-0.065,2.987c-0.031,1.076-0.041,2.152-0.028,3.229
			c0.841-0.644,1.651-1.349,2.431-2.115l2.041-2.105c0.204-0.211,0.423-0.316,0.659-0.316c0.241,0,0.459,0.097,0.654,0.288
			c0.195,0.191,0.292,0.414,0.292,0.668c0,0.21-0.09,0.417-0.269,0.622c-0.761,0.891-1.698,1.846-2.811,2.866l2.022,2.755
			c0.946,1.293,1.419,2.135,1.419,2.523c0,0.248-0.098,0.461-0.292,0.641C54.493,21.486,54.269,21.576,54.015,21.576z"/>
		<path d="M63.743,13.291c-0.13,0-0.283-0.006-0.459-0.019c-0.177-0.013-0.33-0.019-0.459-0.019c-0.143,0-0.563,0.047-1.262,0.139
			l0.176,5.483l0.009,0.408l0.009,0.474c0.024,1.354-0.3,2.031-0.974,2.031c-0.248,0-0.462-0.08-0.645-0.241
			c-0.182-0.161-0.273-0.362-0.273-0.603c0-0.235,0.009-0.588,0.028-1.059c0.019-0.47,0.028-0.822,0.028-1.057l-0.186-5.418
			c-0.452-0.02-1.138-0.071-2.06-0.158c-0.551-0.074-0.826-0.381-0.826-0.918c0-0.272,0.083-0.498,0.25-0.678s0.38-0.27,0.64-0.27
			l1.948,0.158c0-0.315-0.014-0.737-0.042-1.267c-0.028-0.528-0.042-0.91-0.042-1.146c0-0.26,0.089-0.475,0.269-0.645
			c0.179-0.17,0.399-0.256,0.659-0.256c0.557,0,0.881,0.455,0.974,1.364c0.019,0.229,0.028,0.504,0.028,0.825l-0.019,0.539
			l-0.009,0.574c0.767-0.099,1.206-0.148,1.317-0.148c0.643,0,1.063,0.031,1.262,0.094c0.377,0.123,0.566,0.414,0.566,0.871
			c0,0.272-0.085,0.497-0.255,0.673C64.227,13.203,64.008,13.291,63.743,13.291z"/>
		<path d="M74.722,21.808c-0.118,0-0.331-0.136-0.64-0.408c-0.278-0.254-0.486-0.479-0.622-0.677
			c-0.594,0.321-1.117,0.563-1.568,0.728c-0.452,0.164-0.829,0.246-1.132,0.246c-1.447,0-2.502-0.408-3.164-1.225
			c-0.625-0.767-0.937-1.942-0.937-3.525c0-1.497,0.515-2.777,1.544-3.841c1.03-1.063,2.259-1.596,3.688-1.596
			c0.538,0,1.141,0.139,1.809,0.418c0.841,0.346,1.262,0.764,1.262,1.252c0,0.167-0.062,0.315-0.186,0.445
			c-0.062,0.235-0.11,0.621-0.144,1.16c-0.034,0.537-0.055,1.228-0.061,2.068c-0.006,0.767,0.046,1.373,0.158,1.818
			c0.062,0.272,0.256,0.816,0.584,1.633c0.043,0.111,0.114,0.275,0.213,0.492l0.056,0.157c0,0.247-0.087,0.451-0.26,0.612
			C75.152,21.728,74.951,21.808,74.722,21.808z M72.792,15.359c0-0.266,0.017-0.555,0.051-0.867
			c0.034-0.312,0.085-0.645,0.153-0.997c-0.229-0.117-0.425-0.204-0.589-0.26c-0.164-0.056-0.296-0.083-0.395-0.083
			c-0.959,0-1.786,0.391-2.481,1.173c-0.696,0.783-1.044,1.685-1.044,2.704c0,1.015,0.179,1.775,0.538,2.283
			c0.358,0.507,0.896,0.76,1.614,0.76c0.594,0,1.098-0.107,1.512-0.324c0.223-0.117,0.535-0.353,0.937-0.705
			C72.891,17.404,72.792,16.176,72.792,15.359z"/>
		<path d="M80.377,16.983c0,0.371,0.011,0.927,0.033,1.665c0.021,0.739,0.032,1.295,0.032,1.666c0,0.271-0.083,0.494-0.25,0.668
			c-0.167,0.173-0.387,0.26-0.659,0.26c-0.266,0-0.484-0.087-0.654-0.26c-0.17-0.174-0.255-0.396-0.255-0.668
			c0-0.371-0.011-0.927-0.032-1.666c-0.022-0.738-0.033-1.294-0.033-1.665c0-0.581,0.031-1.307,0.093-2.176
			c0.062-0.868,0.093-1.594,0.093-2.175c0-0.279,0.085-0.505,0.255-0.678c0.17-0.173,0.388-0.26,0.654-0.26
			c0.266,0,0.484,0.087,0.654,0.26c0.17,0.173,0.255,0.398,0.255,0.678c0,0.581-0.031,1.307-0.093,2.175
			C80.408,15.677,80.377,16.402,80.377,16.983z M79.959,9.45c-0.297,0-0.554-0.105-0.77-0.315c-0.217-0.21-0.325-0.464-0.325-0.761
			s0.108-0.551,0.325-0.761c0.216-0.21,0.473-0.315,0.77-0.315s0.552,0.105,0.766,0.315c0.213,0.21,0.32,0.464,0.32,0.761
			s-0.107,0.551-0.32,0.761C80.511,9.345,80.256,9.45,79.959,9.45z"/>
		<path d="M86.857,13.903l-0.139,4.61c0,0.489-0.025,1.207-0.074,2.152c-0.062,0.619-0.365,0.928-0.909,0.928
			c-0.606,0-0.909-0.314-0.909-0.945c0-0.749,0.034-1.873,0.102-3.373c0.068-1.499,0.102-2.624,0.102-3.372
			c0-0.978,0.015-2.095,0.046-3.354c0.031-1.259,0.046-2.377,0.046-3.354c0-0.618,0.303-0.928,0.909-0.928
			c0.612,0,0.918,0.31,0.918,0.928c0,0.978-0.016,2.096-0.046,3.354C86.872,11.809,86.857,12.926,86.857,13.903z"/>
		<path d="M100.838,21.742c-1.039,0-1.933-0.383-2.681-1.15c-0.835-0.854-1.274-2-1.317-3.441c-0.037-1.397,0.315-2.629,1.058-3.692
			c0.866-1.256,2.072-1.884,3.618-1.884c1.237,0,2.174,0.566,2.811,1.698c0.507,0.915,0.751,2.017,0.733,3.303
			c-0.019,1.373-0.377,2.545-1.076,3.517C103.191,21.192,102.143,21.742,100.838,21.742z M101.395,13.458
			c-0.909-0.006-1.618,0.427-2.125,1.299c-0.402,0.699-0.603,1.497-0.603,2.394s0.244,1.596,0.733,2.097
			c0.408,0.414,0.887,0.622,1.438,0.622c0.643,0,1.197-0.235,1.661-0.705c0.525-0.52,0.804-1.222,0.835-2.106
			C103.42,14.664,102.773,13.464,101.395,13.458z"/>
		<path d="M114.573,8.151c-1.497,0-2.335,1.039-2.514,3.117l-0.028,0.575c1.051-0.074,1.731-0.111,2.041-0.111
			c0.983,0,1.475,0.31,1.475,0.928c0,0.451-0.241,0.721-0.724,0.807c-0.21,0.037-0.456,0.052-0.737,0.042
			c-0.282-0.009-0.995,0.032-2.139,0.126l-0.074,2.115c0,0.383,0.012,0.958,0.037,1.725c0.024,0.768,0.037,1.34,0.037,1.717
			c0,1.175-0.068,2.091-0.204,2.746c-0.105,0.495-0.393,0.742-0.863,0.742c-0.254,0-0.47-0.082-0.649-0.246
			c-0.18-0.164-0.269-0.369-0.269-0.617c0-0.049,0.006-0.111,0.019-0.186c0.13-0.804,0.195-1.679,0.195-2.625l-0.028-2.533v-2.689
			c-0.773,0.062-1.262,0.092-1.466,0.092c-0.625,0-0.937-0.3-0.937-0.899c0-0.612,0.541-0.934,1.624-0.965l0.891-0.028
			c0.019-0.346,0.065-0.816,0.139-1.41c0.161-1.373,0.507-2.384,1.039-3.033c0.643-0.785,1.648-1.178,3.015-1.178
			c0.884,0,1.327,0.3,1.327,0.899C115.779,7.854,115.376,8.151,114.573,8.151z"/>
	</g>
	<g>
		<path d="M43.159,25.458l2.698,1.634v18.886l-12.236,9.804l0.57-1.367v-27.74l-0.95-1.216H43.159z M34.039,25.838l0.532,0.684
			v27.968v0.076l10.906-8.74V27.319l-2.432-1.481H34.039z M41.297,29.941v12.958l-2.926,2.242v-15.2H41.297z M38.751,30.321v14.061
			l2.166-1.634V30.321H38.751z"/>
		<path d="M58.511,25.458l1.786,2.052v22.268l-6.384,5.435l-5.396-5.017V27.662l1.71-2.204H58.511z M50.379,25.838l-1.482,1.976
			v22.23l5.016,4.636l6.004-5.054V27.662l-1.558-1.824H50.379z M55.737,29.562v19.95l-2.926-2.584V29.562H55.737z M53.191,29.941
			v16.834l2.166,1.9V29.941H53.191z"/>
		<path d="M73.141,25.458l1.786,2.052v22.268l-6.384,5.435l-5.396-5.017V27.662l1.71-2.204H73.141z M65.009,25.838l-1.482,1.976
			v22.23l5.016,4.636l6.004-5.054V27.662l-1.558-1.824H65.009z M70.367,29.562v19.95l-2.926-2.584V29.562H70.367z M67.821,29.941
			v16.834l2.166,1.9V29.941H67.821z"/>
		<path d="M78.004,26.788l-0.874-1.33h5.51l2.204,5.662l2.09-5.662h5.244l-0.38,1.14v27.55l0.608,2.774l-2.888-2.128l-2.736-2.053
			l0.684-0.987v-8.968l-2.584,7.105l-2.66-9.386v8.815l-4.598-3.458l0.38-0.304V26.788z M78.384,45.712l-0.152,0.151l3.61,2.698
			V37.77l3.078,10.906l2.926-8.019v11.248l-0.532,0.761l2.432,1.823l2.09,1.521l-0.418-1.786V26.521l0.228-0.684H87.2l-2.356,6.346
			l-2.47-6.346h-4.522l0.532,0.874V45.712z"/>
	</g>
	<path fill="#FFFFFF" stroke="#231F20" stroke-miterlimit="10" d="M132.779,52.907"/>
	<line fill="none" stroke="#231F20" stroke-miterlimit="10" x1="156.872" y1="52.907" x2="156.872" y2="27.877"/>
	<line fill="none" stroke="#231F20" stroke-miterlimit="10" x1="135.195" y1="40.59" x2="135.195" y2="15.56"/>
	<line fill="none" stroke="#231F20" stroke-miterlimit="10" x1="178.548" y1="40.393" x2="178.548" y2="15.362"/>
	<line fill="none" stroke="#231F20" stroke-miterlimit="10" x1="178.548" y1="15.362" x2="156.872" y2="27.877"/>
	<line fill="none" stroke="#231F20" stroke-miterlimit="10" x1="156.872" y1="2.848" x2="135.195" y2="15.362"/>
	<line fill="none" stroke="#231F20" stroke-miterlimit="10" x1="178.548" y1="40.393" x2="156.872" y2="52.907"/>
	<line fill="none" stroke="#231F20" stroke-miterlimit="10" x1="135.195" y1="15.362" x2="156.872" y2="27.878"/>
	<line fill="none" stroke="#231F20" stroke-miterlimit="10" x1="156.83" y1="2.848" x2="178.505" y2="15.362"/>
	<line fill="none" stroke="#231F20" stroke-miterlimit="10" x1="135.195" y1="40.393" x2="156.872" y2="52.907"/>
	<g>
		<g>
			<path d="M141.399,15.225c-0.406-0.278,0.832-1.237,1.023-1.347c0.59-0.335,1.239,0.06,1.452,0.632
				c0.414,1.114,0.093,2.368,0.669,3.445c0.381,0.711,1.46,0.08,1.08-0.631c-0.434-0.81-0.273-1.933-0.454-2.82
				c-0.199-0.983-0.855-1.701-1.832-1.936c-1.769-0.425-4.546,2.379-2.569,3.736C141.435,16.762,142.059,15.678,141.399,15.225
				L141.399,15.225z"/>
		</g>
	</g>
	<g>
		<g>
			<path d="M146.393,19.805c0.242,0.168,0.526,0.207,0.815,0.21c0.807,0.009,0.806-1.241,0-1.25
				c-0.088-0.001-0.116,0.008-0.185-0.04C146.36,18.265,145.736,19.349,146.393,19.805L146.393,19.805z"/>
		</g>
	</g>
	<g>
		<g>
			<path d="M155.276,7.822c-0.615-0.733,1.248-0.781,1.617-0.665c1.529,0.484-0.386,2.803-0.85,3.417
				c-0.485,0.644,0.601,1.266,1.08,0.631c0.741-0.982,1.543-2.006,1.565-3.291c0.019-1.093-0.868-1.889-1.88-2.063
				c-1.689-0.29-3.869,1.124-2.418,2.855C154.91,9.325,155.79,8.436,155.276,7.822L155.276,7.822z"/>
		</g>
	</g>
	<g>
		<g>
			<path d="M154.766,14.447c-0.239,0.207-0.424,0.341-0.535,0.651c-0.273,0.76,0.935,1.085,1.205,0.332
				c-0.097,0.27,0.098,0.002,0.215-0.099C156.262,14.805,155.374,13.924,154.766,14.447L154.766,14.447z"/>
		</g>
	</g>
	<g>
		<g>
			<path d="M160.624,15.455c0.454-0.89,2.241-2.236,3.311-1.744c0.855,0.393-0.165,1.826-0.503,2.196
				c-0.663,0.725-1.547,1.25-2.413,1.692c-0.718,0.367-0.085,1.446,0.631,1.08c1.304-0.667,2.56-1.538,3.363-2.786
				c0.577-0.897,0.693-2.364-0.211-3.097c-1.59-1.288-4.489,0.522-5.258,2.027C159.178,15.54,160.256,16.173,160.624,15.455
				L160.624,15.455z"/>
		</g>
	</g>
	<g>
		<g>
			<path d="M159.606,21.224c-0.033,0.129-0.092,0.245-0.125,0.375c-0.202,0.781,1.003,1.112,1.205,0.332
				c0.033-0.129,0.092-0.245,0.125-0.375C161.013,20.774,159.808,20.443,159.606,21.224L159.606,21.224z"/>
		</g>
	</g>
	<g>
		<g>
			<path d="M137.458,21.765c0.068-1.311,1.943-2.488,2.437-0.741c0.36,1.278-0.857,2.899-1.477,3.926
				c-0.417,0.692,0.664,1.32,1.08,0.631c0.992-1.646,2.877-4.75,0.677-6.286c-1.834-1.281-3.867,0.568-3.967,2.471
				C136.167,22.57,137.417,22.566,137.458,21.765L137.458,21.765z"/>
		</g>
	</g>
	<g>
		<g>
			<path d="M138.766,29.072c-0.041,0.042-0.083,0.084-0.125,0.125c-0.57,0.571,0.313,1.455,0.885,0.885
				c0.041-0.042,0.083-0.084,0.125-0.125C140.221,29.386,139.337,28.502,138.766,29.072L138.766,29.072z"/>
		</g>
	</g>
	<g>
		<g>
			<path d="M143.526,24.832c0.221-0.238,0.578-0.71,0.912-0.406c0.297,0.269,0.372,0.801,0.402,1.174
				c0.079,0.986-0.614,1.893-1.047,2.725c-0.371,0.714,0.708,1.347,1.08,0.631c0.774-1.49,1.673-2.973,0.923-4.673
				c-0.671-1.52-2.114-1.453-3.155-0.335C142.093,24.537,142.975,25.423,143.526,24.832L143.526,24.832z"/>
		</g>
	</g>
	<g>
		<g>
			<path d="M144.083,33.515c0.806,0,0.806-1.25,0-1.25S143.278,33.515,144.083,33.515L144.083,33.515z"/>
		</g>
	</g>
	<g>
		<g>
			<path d="M137.874,35.455c0.09-0.165,0.385-0.718,0.579-0.687c0.309,0.05,0.509,0.458,0.639,0.699
				c0.391,0.724,0.571,1.726,0.265,2.506c-0.296,0.751,0.914,1.073,1.205,0.332c0.482-1.227,0.083-2.906-0.686-3.937
				c-0.356-0.477-0.866-0.876-1.493-0.841c-0.752,0.043-1.256,0.688-1.589,1.296C136.407,35.531,137.486,36.162,137.874,35.455
				L137.874,35.455z"/>
		</g>
	</g>
	<g>
		<g>
			<path d="M140.583,41.64c0.083,0,0.167,0,0.25,0c0.806,0,0.806-1.25,0-1.25c-0.083,0-0.167,0-0.25,0
				C139.778,40.39,139.778,41.64,140.583,41.64L140.583,41.64z"/>
		</g>
	</g>
	<g>
		<g>
			<path d="M144.776,40.707c0.207-0.253,0.421-0.514,0.692-0.699c0.112-0.077,0.25-0.077,0.189-0.106
				c0.24,0.115,0.356,0.669,0.424,0.941c0.224,0.906,0.25,1.867,0.252,2.797c0.001,0.806,1.251,0.807,1.25,0
				c-0.002-1.253-0.029-2.651-0.52-3.821c-0.24-0.573-0.626-1.076-1.282-1.148c-0.785-0.087-1.441,0.606-1.891,1.152
				C143.384,40.44,144.263,41.33,144.776,40.707L144.776,40.707z"/>
		</g>
	</g>
	<g>
		<g>
			<path d="M148.208,46.89c0.264-0.01,0.473-0.057,0.69-0.21c0.653-0.46,0.03-1.545-0.631-1.08c-0.02,0.014-0.04,0.026-0.06,0.04
				C147.405,45.669,147.402,46.92,148.208,46.89L148.208,46.89z"/>
		</g>
	</g>
	<g>
		<g>
			<path d="M147.249,31.83c0.209-0.276,0.435-0.537,0.691-0.771c0.247-0.226,0.171-0.003-0.002-0.172
				c0.167,0.163,0.123,0.951,0.12,1.234c-0.014,1.115-0.167,2.272-0.452,3.352c-0.206,0.78,0.999,1.111,1.205,0.332
				c0.385-1.454,0.646-3.155,0.449-4.653c-0.075-0.573-0.294-1.343-0.973-1.44c-0.945-0.136-1.622,0.832-2.119,1.487
				C145.682,31.842,146.768,32.464,147.249,31.83L147.249,31.83z"/>
		</g>
	</g>
	<g>
		<g>
			<path d="M149.374,38.08c0.082-0.164,0.157-0.356,0.277-0.498c0.516-0.612-0.364-1.502-0.885-0.885
				c-0.195,0.233-0.336,0.48-0.473,0.752C147.932,38.167,149.01,38.8,149.374,38.08L149.374,38.08z"/>
		</g>
	</g>
	<g>
		<g>
			<path d="M149.374,27.83c0.302-0.669,1.043-1.509,1.412-0.354c0.283,0.889-0.184,2.021-0.43,2.872
				c-0.225,0.776,0.981,1.105,1.205,0.332c0.395-1.364,1.03-3.247-0.073-4.456c-1.148-1.258-2.614-0.307-3.194,0.975
				C147.964,27.928,149.042,28.563,149.374,27.83L149.374,27.83z"/>
		</g>
	</g>
	<g>
		<g>
			<path d="M151.016,35.207c0.042,0.041,0.084,0.083,0.125,0.125c0.571,0.57,1.455-0.313,0.885-0.885
				c-0.042-0.041-0.084-0.083-0.125-0.125C151.33,33.752,150.446,34.636,151.016,35.207L151.016,35.207z"/>
		</g>
	</g>
	<g>
		<g>
			<path d="M150.149,40.555c0.824-0.479,1.911-0.507,2.444,0.398c0.62,1.054-0.726,2.575-1.3,3.371
				c-0.472,0.655,0.613,1.278,1.08,0.631c1.011-1.402,2.324-3.304,1.073-4.972c-0.932-1.243-2.687-1.229-3.929-0.509
				C148.821,39.879,149.45,40.959,150.149,40.555L150.149,40.555z"/>
		</g>
	</g>
	<g>
		<g>
			<path d="M151.143,46.555c0.58,0.352,1.194,0.442,1.856,0.313c0.791-0.154,0.455-1.359-0.332-1.205
				c-0.332,0.064-0.61-0.016-0.894-0.188C151.083,45.056,150.455,46.137,151.143,46.555L151.143,46.555z"/>
		</g>
	</g>
	<g>
		<g>
			<path d="M159.149,29.68c0.591-0.312,2.403-1.282,2.756-0.237c0.465,1.376-1.337,2.834-1.799,4.031
				c-0.291,0.753,0.918,1.076,1.205,0.332c0.63-1.63,3.013-3.527,1.432-5.412c-1.066-1.272-3.044-0.414-4.225,0.206
				C157.804,28.976,158.436,30.054,159.149,29.68L159.149,29.68z"/>
		</g>
	</g>
	<g>
		<g>
			<path d="M161.458,36.64c-0.027-0.002-0.056-0.003-0.083-0.005c0.208,0.209,0.416,0.417,0.625,0.625c0-0.011,0-0.021,0-0.032
				c-0.062,0.147-0.122,0.295-0.184,0.442c0.028-0.029,0.056-0.059,0.084-0.088c0.554-0.585-0.329-1.471-0.885-0.885
				c-0.159,0.169-0.266,0.321-0.266,0.563c0,0.355,0.284,0.606,0.625,0.625c0.027,0.002,0.056,0.003,0.083,0.005
				C162.264,37.935,162.26,36.685,161.458,36.64L161.458,36.64z"/>
		</g>
	</g>
	<g>
		<g>
			<path d="M165.583,25.015c-0.095-1.604,1.533-1.66,1.647-0.057c0.128,1.788-1.468,3.363-3.063,3.829
				c-0.248,0.072-0.485,0.326-0.459,0.603c0.039,0.408,0.117,0.784,0.272,1.166c0.299,0.737,1.508,0.415,1.205-0.332
				c-0.11-0.272-0.199-0.538-0.228-0.834c-0.153,0.201-0.306,0.401-0.459,0.603c2.596-0.758,4.864-3.708,3.632-6.426
				c-0.401-0.887-1.416-1.239-2.31-1.037c-1.108,0.251-1.547,1.482-1.488,2.485C164.38,25.815,165.631,25.82,165.583,25.015
				L165.583,25.015z"/>
		</g>
	</g>
	<g>
		<g>
			<path d="M163.833,33.39c-0.017,0-0.034,0-0.051,0c-0.807,0-0.807,1.25,0,1.25c0.059,0,0.117,0,0.176,0c0.806,0,0.806-1.25,0-1.25
				c-0.059,0-0.117,0-0.176,0c-0.807,0-0.807,1.25,0,1.25c0.017,0,0.034,0,0.051,0C164.639,34.64,164.639,33.39,163.833,33.39
				L163.833,33.39z"/>
		</g>
	</g>
	<g>
		<g>
			<path d="M159.391,46.072c-0.237,0.291-0.122,0.496-0.256,0.002c-0.131-0.483,0.027-1.001,0.214-1.442
				c0.214-0.507,0.494-1.008,1.087-0.819c0.91,0.289,1.542,1.149,2.481,1.43c0.774,0.231,1.103-0.976,0.332-1.205
				c-1.525-0.455-3.009-2.669-4.526-0.788c-0.766,0.948-1.126,2.367-0.673,3.525c0.44,1.123,1.55,1.008,2.226,0.183
				C160.781,46.338,159.902,45.448,159.391,46.072L159.391,46.072z"/>
		</g>
	</g>
	<g>
		<g>
			<path d="M165.149,45.055c0.38-0.18,0.765-0.278,1.185-0.29c0.805-0.022,0.807-1.272,0-1.25c-0.648,0.018-1.231,0.185-1.815,0.46
				C163.79,44.319,164.424,45.396,165.149,45.055L165.149,45.055z"/>
		</g>
	</g>
	<g>
		<g>
			<path d="M167.374,34.58c0.357-0.789,0.973-1.349,1.593-0.446c0.474,0.688,0.356,1.686-0.155,2.313
				c-0.509,0.624-1.204,1.104-1.857,1.562c-0.328,0.23-0.823,0.458-1.035,0.815c-0.412,0.694,0.669,1.323,1.08,0.631
				c-0.115,0.193,0.12-0.045,0.169-0.079c0.192-0.133,0.385-0.266,0.576-0.4c0.524-0.367,1.032-0.76,1.507-1.188
				c0.881-0.794,1.361-1.818,1.228-3.019c-0.115-1.042-0.743-1.946-1.729-2.318c-1.115-0.422-2.048,0.6-2.456,1.499
				C165.963,34.678,167.041,35.313,167.374,34.58L167.374,34.58z"/>
		</g>
	</g>
	<g>
		<g>
			<path d="M165.708,41.515c-0.017,0-0.034,0-0.051,0c-0.807,0-0.807,1.25,0,1.25c0.059,0,0.117,0,0.176,0
				c0.806,0,0.806-1.25,0-1.25c-0.059,0-0.117,0-0.176,0c-0.807,0-0.807,1.25,0,1.25c0.017,0,0.034,0,0.051,0
				C166.514,42.765,166.514,41.515,165.708,41.515L165.708,41.515z"/>
		</g>
	</g>
	<g>
		<g>
			<path d="M172.643,33.35c-0.027,0.013-0.056,0.025-0.083,0.037c-0.195,0.087-0.31,0.339-0.31,0.54
				c0,0.211,0.049,0.355,0.168,0.528c0.456,0.658,1.54,0.034,1.08-0.631c0,0.034,0.001,0.068,0.002,0.103
				c-0.104,0.18-0.207,0.359-0.31,0.54c0.027-0.013,0.056-0.025,0.083-0.037C174.009,34.103,173.373,33.025,172.643,33.35
				L172.643,33.35z"/>
		</g>
	</g>
	<g>
		<g>
			<path d="M172.208,36.39c-0.081,0.63-0.021,1.243,0,1.875c0.019,0.59,0.647,0.767,1.067,0.442
				c0.385-0.299,0.315-0.185,0.318,0.241c0.003,0.34-0.127,0.9-0.437,1.097c-0.598,0.38-1.442,0.426-2.115,0.612
				c-0.188,0.053-0.408,0.229-0.437,0.437c0,0.002,0,0.003,0,0.005c-0.106,0.788,1.098,1.128,1.205,0.332
				c0,0,0.001-0.003,0.001-0.004c-0.146,0.146-0.291,0.291-0.437,0.437c1.551-0.432,3.047-0.567,3.413-2.402
				c0.132-0.661,0.055-1.37-0.401-1.888c-0.573-0.65-1.47-0.158-1.996,0.249c0.356,0.147,0.712,0.295,1.067,0.442
				c-0.021-0.632-0.081-1.245,0-1.875C173.561,35.592,172.309,35.602,172.208,36.39L172.208,36.39z"/>
		</g>
	</g>
	<g>
		<g>
			<path d="M173.043,22.949c-0.61,1.079-0.962,2.259-1.438,3.399c-0.194,0.466,0.355,0.869,0.769,0.769
				c1.808-0.439,0.971,1.55,0.152,2.149c-0.624,0.458-1.394,0.746-2.109,1.021c-0.745,0.285-0.422,1.494,0.332,1.205
				c1.68-0.645,3.731-1.478,3.985-3.507c0.223-1.778-1.11-2.458-2.692-2.073c0.256,0.256,0.513,0.513,0.769,0.769
				c0.434-1.04,0.755-2.116,1.313-3.101C174.521,22.878,173.441,22.248,173.043,22.949L173.043,22.949z"/>
		</g>
	</g>
	<g>
		<g>
			<path d="M173.208,22.39c-0.064-0.02-0.128-0.039-0.192-0.058c0.584,0.555,1.47-0.328,0.885-0.885
				c-0.212-0.2-0.397-0.293-0.692-0.308C172.403,21.1,172.407,22.35,173.208,22.39L173.208,22.39z"/>
		</g>
	</g>
</g>
<g id="Layer_18">
</g>
<g id="Layer_22">
</g>
<g id="Layer_19">
</g>
<g id="Layer_20">
</g>
<g id="Layer_21">
</g>
<g id="Layer_23">
</g>
<g id="Layer_24">
</g>
</svg>
