<?xml version="1.0" encoding="utf-8"?>
<!-- Generator: Adobe Illustrator 16.0.0, SVG Export Plug-In . SVG Version: 6.00 Build 0)  -->
<!DOCTYPE svg PUBLIC "-//W3C//DTD SVG 1.1//EN" "http://www.w3.org/Graphics/SVG/1.1/DTD/svg11.dtd">
<svg version="1.1" xmlns="http://www.w3.org/2000/svg" xmlns:xlink="http://www.w3.org/1999/xlink" x="0px" y="0px"
	 width="209.76px" height="62.36px" viewBox="0 0 209.76 62.36" enable-background="new 0 0 209.76 62.36" xml:space="preserve">
<g id="Layer_1">
</g>
<g id="Can_of_Whoop-Ass">
</g>
<g id="Gun_Show">
</g>
<g id="Chicken">
</g>
<g id="Copycat">
</g>
<g id="Quiet">
</g>
<g id="DOCTOR">
</g>
<g id="Psychiatrist">
</g>
<g id="Remove">
</g>
<g id="Layer_10">
</g>
<g id="Bipolar">
	<g id="Layer_12">
	</g>
</g>
<g id="YesorNo">
</g>
<g id="Deja_Vu">
</g>
<g id="Indecisive">
</g>
<g id="Greedy">
</g>
<g id="Pushup">
</g>
<g id="Clothes_Swap">
	<g>
		<path fill-rule="evenodd" clip-rule="evenodd" d="M31.321,50.468c-1.389,0.586-2.76,1.197-4.154,1.748
			c-1.983,0.784-4.042,1.239-6.177,1.409c-1.283,0.104-2.156-0.384-2.571-1.563c-0.564-1.61-1.085-3.24-1.548-4.883
			c-0.367-1.298-0.618-2.628-0.9-3.854c-1.661-0.075-3.215-0.12-4.766-0.227c-0.5-0.035-1.005-0.189-1.481-0.363
			c-0.883-0.32-1.174-0.827-1.084-1.779c0.39-4.085,0.788-8.169,1.169-12.255c0.057-0.612,0.445-0.899,0.893-1.237
			c1.069-0.806,2.084-1.686,3.113-2.542c0.095-0.078,0.187-0.2,0.209-0.316c0.279-1.369,1.372-1.662,2.5-1.979
			c1.18-0.332,2.319-0.802,3.501-1.124c0.359-0.097,0.864-0.013,1.186,0.181c0.838,0.507,1.729,0.565,2.657,0.548
			c0.918-0.017,1.839-0.061,2.754-0.015c0.322,0.017,0.719,0.184,0.934,0.417c1.906,2.058,3.826,4.105,5.642,6.241
			c0.967,1.138,1.813,2.399,2.567,3.688c0.538,0.918,0.35,1.198-0.406,1.923c-0.68,0.653-1.271,1.4-1.954,2.049
			c-0.643,0.608-1.356,1.143-2.094,1.753c0.562,0.989,1.218,1.997,1.724,3.075c0.671,1.429,1.257,2.899,1.815,4.377
			c0.439,1.163,0.13,2.155-0.897,2.899c-0.163,0.116-0.302,0.268-0.467,0.417c0.731,0.968,1.749,1.339,2.86,1.481
			c3.147,0.401,6.143-0.154,9.141-1.513c-0.293-0.977-0.583-1.921-0.86-2.87c-0.279-0.96-0.022-1.258,0.962-1.02
			c3.745,0.909,7.489,1.826,11.224,2.784c1.477,0.38,1.609,1.001,0.697,2.193c-2.356,3.085-4.675,6.2-7.005,9.307
			c-0.441,0.588-0.808,1.342-1.709,1.184c-0.895-0.158-0.894-1.01-1.104-1.674c-0.13-0.408-0.248-0.819-0.368-1.222
			c-1.545,0.333-3.05,0.722-4.574,0.969c-2.694,0.438-5.354,0.394-7.831-0.976c-1.136-0.627-1.949-1.51-2.288-2.827
			C32.249,53.397,31.765,51.947,31.321,50.468z M14.203,41.54c0.004-0.706-0.013-1.266,0.015-1.823
			c0.034-0.738,0.419-1.125,1.132-1.203c0.641-0.07,1.148,0.214,1.389,0.753c0.612,1.367,1.248,2.738,1.684,4.166
			c0.666,2.168,1.176,4.386,1.738,6.585c0.164,0.641,0.511,0.829,1.174,0.711c3.855-0.686,7.355-2.236,10.656-4.298
			c0.415-0.26,0.493-0.543,0.291-0.947c-0.604-1.208-1.207-2.416-1.817-3.62c-0.852-1.683-1.747-3.346-2.548-5.052
			c-0.358-0.764-0.111-1.33,0.519-1.717c0.612-0.377,1.179-0.276,1.784,0.313c0.229,0.222,0.463,0.439,0.739,0.702
			c0.965-1.012,1.872-1.941,2.742-2.903c0.106-0.118,0.098-0.455,0.011-0.619c-0.397-0.737-0.758-1.521-1.289-2.156
			c-1.325-1.583-2.871-2.995-4.077-4.658c-1.229-1.695-2.704-2.339-4.733-2.136c-1.156,0.117-2.278-0.181-3.274-0.862
			c-0.169-0.116-0.485-0.107-0.705-0.046c-1.182,0.326-2.356,0.677-3.527,1.043c-0.197,0.062-0.452,0.196-0.525,0.363
			c-0.806,1.851-2.326,2.994-3.945,4.038c-0.398,0.257-0.578,0.541-0.607,1.032c-0.132,2.364-0.323,4.726-0.469,7.09
			c-0.1,1.621-0.156,3.243-0.237,4.994C11.64,41.373,12.874,41.453,14.203,41.54z M34.249,51.952
			c0.072,0.242,0.226,0.593,0.279,0.958c0.311,2.121,1.786,2.823,3.663,3.03c0.557,0.062,1.121,0.093,1.68,0.08
			c2.506-0.063,4.893-0.695,7.228-1.559c1.101-0.405,1.755-0.088,2.125,1.031c0.146,0.442,0.271,0.893,0.433,1.433
			c2.013-2.601,3.938-5.091,5.89-7.61c-3.171-0.997-6.291-1.979-9.485-2.983c0.213,0.71,0.366,1.3,0.568,1.874
			c0.26,0.734,0.074,1.289-0.57,1.718c-2.23,1.49-4.639,2.515-7.357,2.481C37.222,52.387,35.745,52.112,34.249,51.952z"/>
		<path fill-rule="evenodd" clip-rule="evenodd" d="M49.613,33.247c-2.114-0.189-4.121-0.353-6.123-0.559
			c-0.889-0.091-1.271-0.686-1.177-1.72c0.22-2.361,0.463-4.721,0.667-7.084c0.122-1.42,0.241-2.844,0.267-4.268
			c0.021-1.146,0.496-2.017,1.329-2.722c0.543-0.459,1.133-0.864,1.71-1.283c0.772-0.56,1.487-1.161,1.836-2.098
			c0.063-0.17,0.238-0.371,0.401-0.422c1.825-0.565,3.65-1.132,5.496-1.621c0.328-0.087,0.75,0.171,1.125,0.279
			c0.543,0.156,1.082,0.444,1.625,0.449c0.755,0.006,1.511-0.211,2.271-0.31c0.942-0.122,1.801,0.092,2.413,0.856
			c2.552,3.18,5.12,6.347,7.604,9.577c0.854,1.107,0.706,1.471-0.342,2.369c-0.174,0.149-0.339,0.311-0.499,0.474
			c-0.981,0.988-1.96,1.98-3.013,3.044c0.432,0.736,0.965,1.598,1.454,2.486c0.953,1.732,1.733,3.526,1.911,5.532
			c0.101,1.15-0.26,2.021-1.276,2.652c-3.972,2.468-8.146,4.344-12.897,4.648c-1.057,0.066-1.849-0.3-2.175-1.296
			c-0.706-2.154-1.34-4.33-1.98-6.505C49.989,34.874,49.803,34.002,49.613,33.247z M48.069,31.36
			c-0.052-0.534-0.077-0.986-0.144-1.433c-0.087-0.582-0.01-1.081,0.584-1.352c0.597-0.271,1.163-0.199,1.617,0.279
			c0.259,0.275,0.517,0.592,0.649,0.939c0.533,1.403,1.081,2.806,1.506,4.244c0.576,1.958,1.052,3.946,1.556,5.927
			c0.156,0.615,0.487,0.789,1.117,0.679c3.912-0.685,7.434-2.338,10.807-4.349c0.205-0.123,0.351-0.636,0.272-0.892
			c-0.243-0.8-0.528-1.608-0.938-2.335c-1.162-2.068-2.405-4.092-3.591-6.147c-0.421-0.73-0.3-1.31,0.271-1.779
			c0.584-0.481,1.276-0.492,1.893-0.007c0.316,0.249,0.61,0.527,0.982,0.852c0.784-0.827,1.507-1.647,2.295-2.397
			c0.369-0.352,0.441-0.618,0.145-1.03c-1.628-2.25-3.121-4.607-4.893-6.735c-2.273-2.729-1.826-2.573-5.294-2.224
			c-0.908,0.092-1.764-0.037-2.545-0.602c-0.31-0.224-0.81-0.394-1.161-0.314c-1.214,0.276-2.405,0.661-3.597,1.036
			c-0.187,0.059-0.333,0.274-0.477,0.436c-0.522,0.585-0.988,1.229-1.563,1.755c-0.635,0.58-1.37,1.05-2.055,1.578
			c-0.639,0.494-0.965,1.116-0.997,1.96c-0.132,3.514-0.315,7.025-0.478,10.537c-0.016,0.322-0.008,0.643-0.011,1.004
			C45.397,31.115,46.683,31.232,48.069,31.36z"/>
		<path fill-rule="evenodd" clip-rule="evenodd" d="M31.35,5.273c1.08-0.324,2.147-0.646,3.218-0.965
			c1.818-0.54,3.651-0.958,5.574-0.729c1.779,0.211,3.343,0.922,4.709,2.046c0.351,0.289,0.624,0.75,0.771,1.187
			c0.517,1.523,0.955,3.072,1.438,4.606c0.16,0.515,0.163,1.053-0.331,1.283c-0.411,0.191-1.033,0.303-1.411,0.127
			c-3.329-1.55-6.635-1.618-9.988-0.102c-0.628,0.284-0.924,0.604-0.75,1.321c0.136,0.567,0.181,1.16,0.226,1.744
			c0.113,1.498-0.564,2.103-1.975,1.638c-3.104-1.021-6.185-2.106-9.271-3.176c-0.795-0.276-1.584-0.575-2.364-0.894
			c-1.129-0.462-1.319-1.152-0.508-2.05c2.31-2.555,4.651-5.083,6.979-7.622c0.465-0.507,0.901-1.042,1.389-1.528
			c0.687-0.686,1.212-0.533,1.479,0.386C30.795,3.447,31.071,4.343,31.35,5.273z M32.002,14.322
			c-0.154-0.661-0.293-1.171-0.388-1.69c-0.183-0.981,0.014-1.418,0.881-1.894c3.511-1.925,7.172-2.423,11.017-1.137
			c0.236,0.079,0.477,0.146,0.822,0.251c-0.166-0.894-0.256-1.707-0.486-2.479c-0.116-0.392-0.413-0.828-0.755-1.039
			c-1.814-1.122-3.863-1.386-5.912-1.147c-1.914,0.224-3.799,0.725-5.684,1.158c-0.94,0.216-1.171,0.145-1.455-0.781
			c-0.2-0.648-0.391-1.298-0.646-2.148c-2.262,2.941-4.398,5.717-6.607,8.588C25.872,12.78,28.858,13.532,32.002,14.322z"/>
		<path fill-rule="evenodd" clip-rule="evenodd" fill="#FFFFFF" d="M14.203,41.54c-1.329-0.087-2.563-0.167-3.883-0.251
			c0.081-1.751,0.138-3.373,0.237-4.994c0.146-2.364,0.337-4.727,0.469-7.09c0.029-0.492,0.209-0.775,0.607-1.032
			c1.619-1.044,3.14-2.188,3.945-4.038c0.073-0.167,0.328-0.301,0.525-0.363c1.171-0.366,2.346-0.717,3.527-1.043
			c0.22-0.061,0.536-0.07,0.705,0.046c0.996,0.681,2.118,0.979,3.274,0.862c2.029-0.204,3.504,0.441,4.733,2.136
			c1.206,1.663,2.752,3.076,4.077,4.658c0.531,0.634,0.892,1.418,1.289,2.156c0.087,0.164,0.096,0.501-0.011,0.619
			c-0.87,0.962-1.777,1.892-2.742,2.903c-0.276-0.263-0.51-0.48-0.739-0.702c-0.605-0.589-1.172-0.689-1.784-0.313
			c-0.63,0.387-0.877,0.953-0.519,1.717c0.801,1.706,1.696,3.369,2.548,5.052c0.61,1.204,1.214,2.412,1.817,3.62
			c0.202,0.404,0.124,0.688-0.291,0.947c-3.301,2.062-6.801,3.612-10.656,4.298c-0.663,0.118-1.01-0.07-1.174-0.711
			c-0.563-2.199-1.072-4.417-1.738-6.585c-0.436-1.428-1.071-2.799-1.684-4.166c-0.24-0.539-0.748-0.823-1.389-0.753
			c-0.713,0.078-1.098,0.465-1.132,1.203C14.19,40.274,14.207,40.834,14.203,41.54z"/>
		<path fill-rule="evenodd" clip-rule="evenodd" fill="#FFFFFF" d="M34.249,51.952c1.496,0.16,2.973,0.435,4.452,0.453
			c2.719,0.033,5.127-0.991,7.357-2.481c0.645-0.429,0.83-0.983,0.57-1.718c-0.202-0.574-0.355-1.164-0.568-1.874
			c3.194,1.005,6.314,1.986,9.485,2.983c-1.951,2.52-3.877,5.01-5.89,7.61c-0.162-0.54-0.286-0.99-0.433-1.433
			c-0.37-1.119-1.024-1.437-2.125-1.031c-2.335,0.863-4.722,1.495-7.228,1.559c-0.559,0.013-1.123-0.019-1.68-0.08
			c-1.877-0.207-3.353-0.909-3.663-3.03C34.475,52.545,34.321,52.194,34.249,51.952z"/>
		<path fill-rule="evenodd" clip-rule="evenodd" fill="#FFFFFF" d="M48.069,31.36c-1.387-0.128-2.672-0.245-4.047-0.372
			c0.003-0.361-0.005-0.682,0.011-1.004c0.162-3.512,0.346-7.023,0.478-10.537c0.032-0.844,0.358-1.466,0.997-1.96
			c0.685-0.528,1.42-0.998,2.055-1.578c0.575-0.526,1.041-1.169,1.563-1.755c0.144-0.162,0.29-0.377,0.477-0.436
			c1.191-0.375,2.383-0.759,3.597-1.036c0.352-0.08,0.852,0.09,1.161,0.314c0.781,0.565,1.637,0.694,2.545,0.602
			c3.468-0.35,3.021-0.506,5.294,2.224c1.771,2.127,3.265,4.485,4.893,6.735c0.297,0.412,0.225,0.678-0.145,1.03
			c-0.788,0.75-1.511,1.571-2.295,2.397c-0.372-0.324-0.666-0.603-0.982-0.852c-0.616-0.485-1.309-0.474-1.893,0.007
			c-0.571,0.47-0.692,1.049-0.271,1.779c1.186,2.055,2.429,4.079,3.591,6.147c0.409,0.727,0.694,1.535,0.938,2.335
			c0.078,0.256-0.067,0.769-0.272,0.892c-3.373,2.011-6.895,3.664-10.807,4.349c-0.63,0.11-0.961-0.063-1.117-0.679
			c-0.504-1.98-0.979-3.969-1.556-5.927c-0.425-1.438-0.973-2.841-1.506-4.244c-0.133-0.347-0.391-0.664-0.649-0.939
			c-0.454-0.478-1.021-0.549-1.617-0.279c-0.594,0.271-0.671,0.77-0.584,1.352C47.992,30.374,48.018,30.826,48.069,31.36z"/>
		<path fill-rule="evenodd" clip-rule="evenodd" fill="#FFFFFF" d="M32.002,14.322c-3.144-0.79-6.13-1.542-9.213-2.317
			c2.209-2.871,4.346-5.647,6.607-8.588c0.255,0.85,0.445,1.5,0.646,2.148c0.284,0.926,0.515,0.997,1.455,0.781
			c1.885-0.434,3.77-0.935,5.684-1.158c2.049-0.239,4.098,0.025,5.912,1.147c0.342,0.21,0.639,0.646,0.755,1.039
			c0.23,0.772,0.32,1.585,0.486,2.479c-0.346-0.105-0.586-0.173-0.822-0.251c-3.845-1.286-7.506-0.789-11.017,1.137
			c-0.867,0.475-1.063,0.912-0.881,1.894C31.709,13.151,31.848,13.661,32.002,14.322z"/>
	</g>
	<g>
		<g>
			<path fill="none" stroke="#000000" stroke-width="1.5" d="M97.344,41.604c-2.285,1.684-3.399,2.582-5.561,4.495
				c-1.203-0.168-1.795-0.232-2.955-0.329c0-6.613,0-9.922,0-16.536c1.16-2.368,1.752-3.533,2.954-5.83
				c2.161-1.913,3.276-2.812,5.562-4.496c1.271,0.295,1.916,0.46,3.222,0.827c0.01,1.927,0.016,2.89,0.025,4.816
				c-1.912,1.267-2.852,1.937-4.688,3.356c0-1.463,0-2.194,0-3.657c-1.109,0.857-1.657,1.3-2.736,2.212c0,5.674,0,8.51,0,14.184
				c1.079-0.912,1.627-1.354,2.736-2.212c0-1.472,0-2.207,0-3.679c1.837-1.419,2.776-2.092,4.688-3.358
				c-0.01,1.948-0.016,2.923-0.025,4.871C99.26,38.368,98.615,39.436,97.344,41.604z"/>
			<path fill="none" stroke="#000000" stroke-width="1.5" d="M116.745,26.661c0,0.585,0,0.878,0,1.463
				c-0.011,0.013-0.013,0.021-0.023,0.034c0,1.17,0,1.755,0,2.925c-4.016,1.503-5.989,2.394-9.814,4.454
				c-1.345-0.484-2.009-0.712-3.325-1.128c0-7.863,0-11.794,0-19.657c1.944-1.167,2.934-1.714,4.939-2.73c0,7.296,0,10.945,0,18.241
				C111.744,28.628,113.394,27.907,116.745,26.661z"/>
			<path fill="none" stroke="#000000" stroke-width="1.5" d="M130.186,27.428c-2.707,0.494-4.052,0.798-6.717,1.527
				c-1.465-0.832-2.195-1.23-3.644-1.991c-0.021-6.642-0.03-9.963-0.052-16.606c1.448-1.705,2.175-2.54,3.64-4.173
				c2.622-0.719,3.947-1.021,6.61-1.513c1.509,0.971,2.267,1.475,3.785,2.52c0.021,6.646,0.033,9.971,0.055,16.617
				C132.388,25.221,131.652,25.945,130.186,27.428z M125.091,10c0.021,5.651,0.03,8.478,0.052,14.129
				c1.312-0.328,1.971-0.478,3.293-0.75c-0.021-5.634-0.031-8.452-0.053-14.086C127.062,9.547,126.402,9.688,125.091,10z"/>
			<path fill="none" stroke="#000000" stroke-width="1.5" d="M151.533,3.732c0,1.755,0,2.632,0,4.387
				c-1.743-0.152-2.616-0.203-4.364-0.26c0,7.288,0,10.93,0,18.218c-2.195-0.071-3.295-0.066-5.49,0.013c0-7.288,0-10.933,0-18.221
				c-1.813,0.065-2.721,0.125-4.528,0.293c-0.011-1.754-0.016-2.632-0.026-4.387C142.874,3.239,145.781,3.231,151.533,3.732z"/>
			<path fill="none" stroke="#000000" stroke-width="1.5" d="M160.28,14.069c1.313,0.262,1.964,0.409,3.267,0.727
				c0-3.67,0-5.505,0-9.176c2.146,0.523,3.214,0.823,5.327,1.497c0,2.234,0,3.35,0,5.584c0.021,6.869,0.031,10.304,0.053,17.172
				c-2.103-0.672-3.163-0.971-5.298-1.494c-0.021-3.64-0.033-5.461-0.055-9.102c-1.302-0.318-1.956-0.462-3.268-0.725
				c0,3.635,0,5.453,0,9.088c-2.162-0.433-3.248-0.612-5.43-0.895c0-4.203,0-6.304,0-10.507c-0.011-0.001-0.015-0.001-0.025-0.003
				c0-4.894,0-7.341,0-12.234c2.182,0.282,3.268,0.459,5.429,0.891C160.28,8.563,160.28,10.398,160.28,14.069z"/>
			<path fill="none" stroke="#000000" stroke-width="1.5" d="M177.428,24.119c0.011,1.849,0.017,2.773,0.027,4.622
				c3.277,1.482,4.885,2.321,8.012,4.191c0,0.585,0,0.875,0,1.46c-0.01,0.003-0.015,0.007-0.024,0.01c0,1.17,0,1.758,0,2.928
				c-3.747-2.231-5.688-3.208-9.646-4.882c-1.391-1.797-2.09-2.679-3.502-4.407c-0.021-6.648-0.031-9.971-0.052-16.619
				c1.412-0.684,2.113-1.01,3.505-1.625c3.959,1.688,5.897,2.672,9.646,4.918c0,1.17,0,1.755,0,2.925
				c0.01,0.015,0.014,0.022,0.023,0.037c0,0.585,0,0.877,0,1.462c-3.129-1.868-4.736-2.706-8.015-4.186c0,1.888,0,2.834,0,4.723
				c1.908,0.861,2.853,1.324,4.712,2.317c0,1.773,0,2.659,0,4.432C180.266,25.438,179.325,24.977,177.428,24.119z"/>
			<path fill="none" stroke="#000000" stroke-width="1.5" d="M188.483,19.648c1.307-0.368,1.953-0.532,3.226-0.83
				c2.287,1.68,3.402,2.576,5.566,4.485c1.204,2.294,1.794,3.459,2.956,5.824c0.009,1.409,0.014,2.114,0.022,3.522
				c-1.7-1.659-2.574-2.45-4.363-3.958c0-0.931,0-1.398,0-2.329c-1.08-0.911-1.63-1.352-2.74-2.207c0,1.888,0,2.833,0,4.721
				c2.939,2.255,4.361,3.479,7.081,6.123c0.033,4.297,0.054,6.445,0.087,10.742c-1.161,0.097-1.753,0.164-2.956,0.332
				c-2.161-1.913-3.277-2.812-5.563-4.495c-1.271-2.169-1.916-3.237-3.222-5.336c-0.01-1.407-0.014-2.109-0.023-3.517
				c1.912,1.267,2.852,1.939,4.688,3.358c0,0.931,0,1.396,0,2.326c1.109,0.856,1.656,1.299,2.735,2.211c0-1.888,0-2.832,0-4.721
				c-0.372-0.314-0.559-0.468-0.934-0.775c0,0.009,0,0.012,0,0.021c-2.511-2.058-3.808-3.012-6.467-4.775
				C188.54,26.083,188.521,23.937,188.483,19.648z"/>
			<path fill="none" stroke="#000000" stroke-width="1.5" d="M107.626,42.139c1.37-1.949,2.062-2.909,3.457-4.787
				c2.509-1.16,3.784-1.684,6.365-2.615c1.437,0.714,2.16,1.089,3.614,1.874c0.011,1.397,0.013,2.097,0.023,3.494
				c-2.129,0.654-3.185,1.021-5.272,1.827c0-0.931,0-1.396,0-2.327c-1.261,0.487-1.886,0.744-3.13,1.286c0,1.889,0,2.831,0,4.72
				c3.293-1.444,4.973-2.07,8.377-3.127c0.042,4.251,0.064,6.379,0.106,10.63c-1.455,1.678-2.178,2.533-3.614,4.281
				c-2.582,0.928-3.859,1.451-6.369,2.607c-1.396-0.589-2.088-0.867-3.458-1.385c-0.01-1.396-0.017-2.093-0.026-3.488
				c2.006-1.047,3.025-1.531,5.086-2.426c0,0.931,0,1.397,0,2.328c1.244-0.54,1.871-0.8,3.133-1.285c0-1.889,0-2.831,0-4.72
				c-0.435,0.167-0.651,0.254-1.084,0.428c0,0.009,0,0.012,0,0.021c-2.893,1.161-4.317,1.814-7.108,3.27
				C107.686,48.501,107.666,46.382,107.626,42.139z"/>
			<path fill="none" stroke="#000000" stroke-width="1.5" d="M135.764,43.787c-0.783,3.827-1.174,5.746-1.955,9.593
				c-1.931,0.262-2.894,0.422-4.809,0.801c-1.861-8.655-2.789-12.956-4.63-21.501c2.107-0.559,3.171-0.802,5.304-1.214
				c0.7,3.955,1.051,5.938,1.754,9.908c0,0.009,0,0.012,0,0.021c0.011-0.002,0.016-0.002,0.026-0.004
				c-0.011-0.007-0.016-0.01-0.026-0.017c0.638-4.185,0.956-6.274,1.596-10.446c0.054-0.008,0.08-0.012,0.134-0.02
				c0-0.009,0.001-0.013,0.001-0.021c2.092-0.301,3.142-0.417,5.246-0.579c0,0.009-0.001,0.012-0.001,0.021
				c0.055-0.004,0.081-0.006,0.136-0.01c0.654,4.029,0.984,6.049,1.639,10.091c0,0.009,0,0.012,0,0.021
				c0.011-0.001,0.017,0.001,0.027,0c-0.011-0.008-0.017-0.013-0.027-0.021c0.698-4.125,1.047-6.185,1.746-10.295
				c2.163-0.063,3.245-0.059,5.408,0.024c-1.9,8.96-2.851,13.469-4.752,22.54c-1.944,0.049-2.918,0.104-4.857,0.27
				C136.938,49.274,136.547,47.441,135.764,43.787z"/>
			<path fill="none" stroke="#000000" stroke-width="1.5" d="M156.15,53.515c-2.177-0.317-3.271-0.438-5.463-0.605
				c0-4.201,0-6.303,0-10.505c-0.011-0.001-0.018,0.001-0.028,0c0-3.661,0-5.495,0-9.156c1.505-1.118,2.256-1.658,3.755-2.705
				c2.693,0.333,4.036,0.556,6.698,1.117c1.481,1.545,2.22,2.336,3.688,3.951c0,1.002,0,1.502,0,2.504
				c0.021,6.867,0.032,10.302,0.054,17.168c-2.128-0.558-3.201-0.8-5.355-1.208c-0.021-3.639-0.032-5.458-0.054-9.097
				c-1.314-0.248-1.973-0.358-3.295-0.551C156.15,48.063,156.15,49.88,156.15,53.515z M156.122,39.947
				c1.322,0.192,1.983,0.303,3.298,0.551c0-1.915,0-2.871,0-4.786c-1.314-0.248-1.976-0.358-3.298-0.551
				C156.122,37.076,156.122,38.032,156.122,39.947z"/>
			<path fill="none" stroke="#000000" stroke-width="1.5" d="M173.487,58.101c-2.076-0.807-3.127-1.171-5.244-1.827
				c-0.011-9.098-0.016-13.647-0.026-22.746c4.066,1.259,6.071,2.025,9.973,3.838c1.395,1.881,2.085,2.839,3.454,4.79
				c0,1.002,0,1.504,0,2.506c0.021,1.934,0.03,2.901,0.051,4.835c-0.03-0.007-0.045-0.01-0.075-0.017
				c0.01,0.067,0.015,0.101,0.024,0.168c-1.408,0.475-2.12,0.73-3.557,1.28c-1.82-0.825-2.74-1.209-4.6-1.913
				C173.487,52.648,173.487,54.467,173.487,58.101z M173.46,44.529c1.261,0.489,1.886,0.747,3.129,1.292
				c0-1.915,0.001-2.874,0.001-4.789c-1.243-0.545-1.868-0.803-3.129-1.292C173.461,41.655,173.46,42.614,173.46,44.529z"/>
		</g>
	</g>
</g>
</svg>
