<?xml version="1.0" encoding="utf-8"?>
<!-- Generator: Adobe Illustrator 16.0.0, SVG Export Plug-In . SVG Version: 6.00 Build 0)  -->
<!DOCTYPE svg PUBLIC "-//W3C//DTD SVG 1.1//EN" "http://www.w3.org/Graphics/SVG/1.1/DTD/svg11.dtd">
<svg version="1.1" xmlns="http://www.w3.org/2000/svg" xmlns:xlink="http://www.w3.org/1999/xlink" x="0px" y="0px"
	 width="209.76px" height="62.36px" viewBox="0 0 209.76 62.36" enable-background="new 0 0 209.76 62.36" xml:space="preserve">
<g id="Layer_1">
</g>
<g id="Can_of_Whoop-Ass">
</g>
<g id="Gun_Show">
</g>
<g id="Chicken">
</g>
<g id="Copycat">
	<path fill-rule="evenodd" clip-rule="evenodd" d="M205.398,35.263c-0.648,1.36-1.296,2.722-1.943,4.081
		c-0.199-0.088-0.397-0.175-0.596-0.264c0.628-1.338,1.257-2.676,1.885-4.014C204.963,35.132,205.181,35.197,205.398,35.263z"/>
	<g>
		<path fill-rule="evenodd" clip-rule="evenodd" d="M148.336,41.131c-1.061-0.582-1.842-1.012-2.855-1.568
			c1.161-0.761,2.031-1.33,2.951-1.935c-2.63-1.854-2.63-1.854,1.075-4.579c-0.614-0.338-1.159-0.646-1.712-0.938
			c-0.539-0.283-1.087-0.549-1.978-0.998c1.001-0.808,1.687-1.361,2.51-2.025c-0.961-0.591-1.787-1.1-2.988-1.84
			c2.858-1.925,4.983-4.483,8.674-4.747c0.724-5.667,4.853-10.255,7.174-15.658c0.657-1.532,1.503-2.984,2.136-4.525
			c0.53-1.292,1.356-1.754,2.709-1.529c8.882,1.482,17.768,2.939,26.65,4.417c1.088,0.181,1.96,0.42,2.243,1.876
			c0.28,1.443-0.044,2.396-1.093,3.237c-0.851,0.68-1.658,1.454-2.603,1.968c-1.634,0.893-2.177,2.38-1.458,3.795
			c0.374,0.736,1.985,0.855,3.047,1.226c0.258,0.089,0.551,0.073,1.054,0.133c0,3.64,0,7.235,0,11.256
			c0.726-0.523,1.149-0.735,1.448-1.063c0.848-0.931,1.67-2.029,3.086-1.088c1.412,0.94,2.701,1.979,2.101,4.075
			c-0.673,2.34-2.158,3.792-4.47,4.269c-1.943,0.4-2.69,1.281-2.666,3.379c0.054,4.572-0.2,9.15-0.4,13.724
			c-0.027,0.61-0.615,1.184-0.689,1.805c-0.13,1.073-0.479,2.841,0,3.139c1.688,1.051,1.833,2.281,1.15,3.94
			c5.858,0.238,11.561,0.472,16.328,0.666c-28.692,0.449-58.311,0.912-87.93,1.375c-0.012-0.216-0.026-0.432-0.039-0.648
			c3.376-0.146,6.752-0.358,10.13-0.419c3.489-0.063,6.98,0.032,10.471,0.042c3.49,0.011,6.979,0.003,10.467,0.003
			c0.034-3.396,0.659-4.144,3.857-4.643c0.111-1.055,0.473-2.051-1.246-2.385c-0.473-0.092-0.928-1.512-0.972-2.345
			c-0.128-2.448-0.046-4.908-0.046-7.28c-3.015-0.916-5.663-1.721-8.93-2.714C146.804,41.895,147.456,41.569,148.336,41.131z
			 M166.31,3.01c-0.59,0.025-1.571-0.155-1.711,0.108c-2.725,5.168-5.353,10.389-8,15.597c0.526,0.02,0.707-0.16,0.835-0.371
			c2.763-4.599,5.529-9.193,8.265-13.809c0.28-0.472,0.361-1.063,0.537-1.6c2.635,0.162,5.172,1.629,7.911,0.63
			c-2.279-0.723-4.601-1.1-6.936-1.371C166.946,2.163,166.612,2.724,166.31,3.01z M182.466,20.7
			c0.228-0.039,0.454-0.078,0.682-0.118c0.228,1.155,0.534,2.298,0.665,3.462c0.325,2.908,0.691,5.736,2.739,8.105
			c2.863,3.309,9.799,3.104,12.126-0.46c0.828-1.269,1.228-2.606-0.048-3.722c-1.3-1.139-2.018,0.167-2.852,0.938
			c-1.459,1.348-3.378,1.966-5.004,0.985c-1.182-0.712-2.217-2.333-2.494-3.713c-0.393-1.941-0.299-4.088,0.078-6.052
			c0.895-4.663-0.206-8.619-3.428-12.059c-6.162-6.579-14.59-3.088-16.702,2.157c0.77,0.098,1.532,0.194,2.586,0.329
			c-6.093,3.408-6.093,3.408-6.465,5.546c3.557-2.683,7.048-2.581,10.747-0.342c1.693,1.024,3.737,1.468,5.621,2.174
			c0.4,0.149,0.801,0.295,1.202,0.444c-0.026,0.129-0.052,0.259-0.078,0.391c-1.404,0-2.809,0-4.302,0
			c-0.872,2.489,0.188,4.45,1.809,6.197c-3.23,3.392-3.792,5.568-1.994,7.396c1.837-1.497,3.706-2.951,5.471-4.523
			c0.305-0.271,0.261-1.047,0.218-1.577C182.889,24.402,182.663,22.553,182.466,20.7z M176.289,18.529
			c0.232-0.27,0.467-0.54,0.7-0.809c-2.323-0.87-4.6-1.929-6.989-2.538c-1.426-0.364-2.324,0.463-2.335,2.252
			c-0.034,5.521-0.262,11.042-0.396,16.564c-0.035,1.497-0.005,2.996-0.005,4.641c8.521,0.375,16.747,0.736,25.125,1.105
			c-0.094-1.364-0.183-2.631-0.272-3.925c-4.699-0.315-7.194-3.133-9.359-7.51c-1.444,1.235-2.421,2.783-3.627,4.125
			c-0.496,0.55-1.693,1.097-2.202,0.859c-0.703-0.329-1.289-1.347-1.492-2.175c-0.191-0.776,0.024-1.756,0.345-2.53
			c0.539-1.313,1.302-2.537,1.969-3.799c-0.162,0.033-0.324,0.069-0.486,0.104C176.939,22.771,176.614,20.65,176.289,18.529z
			 M155.664,49.381c3.249-0.722,6.51-1.381,9.719-2.233c0.44-0.115,0.877-1.184,0.892-1.821c0.224-9.374,0.375-18.749,0.533-28.124
			c0.007-0.386-0.085-0.772-0.171-1.487c-4.079,2.458-7.884,4.75-11.687,7.041c0.067,0.254,0.136,0.509,0.203,0.764
			c0.657,0,1.396,0.192,1.955-0.043c0.922-0.389,1.693-1.122,2.594-1.578c0.79-0.399,1.671-0.617,2.512-0.915
			c0.172,0.886,0.507,1.776,0.487,2.659c-0.114,5.153-0.342,10.303-0.475,15.457c-0.108,4.265-0.073,4.266-4.095,5.641
			C155.061,45.79,155.061,45.79,155.664,49.381z M192.234,40.795c-3.123,0.191-5.95,0.49-8.779,0.504
			c-2.807,0.013-5.925,1.542-8.265-1.395c-0.141-0.176-0.541-0.195-0.82-0.198c-2.3-0.014-4.599-0.008-7.011-0.008
			c0,2.338,0,4.755,0,7.337c8.156,0,16.18,0,24.352,0C191.869,45.151,192.02,43.355,192.234,40.795z M191.572,48.292
			c-3.694,0.156-7.078-0.574-10.52,0.77c-1.516,0.593-3.51,0.112-5.262-0.095c-1.506-0.179-2.973-0.926-4.468-0.958
			c-4.67-0.105-4.673-0.021-3.893,4.866c7.938-0.218,15.887-0.437,23.958-0.658C191.446,50.985,191.499,49.841,191.572,48.292z
			 M171.248,4.395c-1.433,0.21-3.869-0.139-4.535,0.786c-3.23,4.482-5.984,9.307-8.907,14.01c0.21,0.186,0.42,0.373,0.631,0.559
			c1.324-1.005,2.938-1.788,3.923-3.058C165.373,12.802,168.146,8.725,171.248,4.395z M147.135,26.978
			c1.282,1.815,2.434,1.908,3.808,0.686c0.819-0.729,1.58-0.618,2.632,0.057c3.499,2.244,4.896,2.1,8.27-0.578
			c-3.16-1.224-6.077-2.371-9.012-3.466c-0.276-0.103-0.73,0.02-1.003,0.193C150.255,24.876,148.711,25.927,147.135,26.978z
			 M155.363,50.311c0.087,1.254,0.153,2.222,0.195,2.854c2.405,0,4.488,0.002,6.573,0c4.512-0.005,4.512-0.005,3.998-4.494
			c-0.007-0.066-0.071-0.125-0.303-0.51C162.513,48.842,159.073,49.549,155.363,50.311z M160.993,31.941
			c-1.975-0.865-3.76-1.635-5.535-2.428c-3.553-1.587-4.666-1.377-7.723,1.594c0.982,0.506,1.874,1.146,2.868,1.428
			c1.089,0.311,2.481-0.058,3.373,0.481C156.621,34.614,158.727,33.764,160.993,31.941z M189.499,17.964
			c0,3.09-0.155,5.951,0.062,8.782c0.119,1.548,1.241,2.536,3.167,2.34c0-3.608,0-7.138,0-10.768
			C191.8,18.217,190.944,18.123,189.499,17.964z M147.398,35.948c1.072,0.387,2.242,1.188,2.681,0.896
			c1.317-0.878,2.301-0.236,3.182,0.374c2.547,1.763,4.949,1.171,7.726-0.26c-1.851-0.85-3.533-1.468-5.06-2.354
			C152.896,32.843,150.19,33.023,147.398,35.948z M149.017,40.903c1.887-1.519,3.514-0.324,5.2,0.201
			c2.048,0.636,4.063,2.095,6.537,0.182c-2.284-0.987-4.461-1.742-6.453-2.833c-2.518-1.379-4.56-0.687-6.63,0.958
			C148.08,39.865,148.463,40.289,149.017,40.903z M188.63,57.87c-3.078,0-5.996,0-8.925,0c0.048,1.045,0.086,1.869,0.132,2.857
			c2.748,0,5.473,0,8.269,0C188.273,59.816,188.438,58.918,188.63,57.87z M167.363,60.954c2.858,0,5.639,0,8.53,0
			c-0.066-1.004-0.117-1.764-0.163-2.453c-2.646,0-5.131,0-7.574,0C167.84,59.479,167.599,60.225,167.363,60.954z M148.202,42.517
			c3.315,0.813,6.123,2.883,9.755,0.576C154.594,42.585,151.854,39.834,148.202,42.517z M186.548,7.733
			c1.086,1.798,1.951,3.232,2.904,4.811c1.374-1.233,2.603-2.337,4.063-3.648C191.003,8.477,188.896,8.125,186.548,7.733z
			 M157.604,61.689c1.948-0.099,3.669-0.187,5.368-0.273c0.15-1.05,0.286-1.998,0.422-2.952
			C158.733,58.391,158.733,58.391,157.604,61.689z M183.953,4.998c-0.048,0.198-0.094,0.394-0.14,0.592
			c2.919,1.993,6.438,1.46,9.644,2.249c0.052-0.22,0.104-0.442,0.156-0.663C190.395,6.449,187.172,5.724,183.953,4.998z
			 M161.398,32.756c-1.147,0.718-2.016,1.262-3.177,1.99c1.226,0.523,2.122,0.907,3.177,1.359
			C161.398,34.955,161.398,34.035,161.398,32.756z M161.62,26.214c0.1-1.226,0.169-2.083,0.268-3.29
			c-1.323,0.686-2.261,1.171-3.542,1.835C159.642,25.335,160.467,25.702,161.62,26.214z M161.186,40.601c0-1.006,0-1.742,0-2.672
			c-1.04,0.437-1.878,0.788-3.152,1.322C159.361,39.82,160.137,40.152,161.186,40.601z"/>
		<path fill-rule="evenodd" clip-rule="evenodd" d="M97.533,34.915c1.574,0.291,3.272,0.154,4.4,0.891
			c4.695,3.068,9.381,2.292,14.161,0.477c1.215-0.461,2.412-0.969,3.67-1.477c1.577,2.622,4.028,2.91,6.673,2.641
			c2.357-0.242,4.624-0.147,6.745,1.479c-5.996,6.955-13.081,11.557-22.487,11.525c-2.633-0.009-4.603-1.598-5.974-3.776
			C102.381,42.953,100.13,39.176,97.533,34.915z M114.321,40.089c-0.145-1.472-0.703-1.94-2.044-1.584
			c-3.445,0.915-6.746,0.602-9.857-1.308c-0.998-0.611-2.152-0.968-3.323-1.48c2.258,3.595,4.345,6.957,6.477,10.292
			c1.262,1.973,2.896,3.388,5.396,3.3c1.077-1.874,0.691-3.138-0.977-4.481c-1.151-0.927-1.741-2.553-2.411-3.6
			C110.147,40.795,112.23,40.442,114.321,40.089z M131.596,39.269c-0.088-0.29-0.177-0.579-0.265-0.869
			c-1.461,0-2.932,0.109-4.379-0.027c-1.832-0.173-3.947-0.054-5.396-0.947c-2.168-1.338-3.764-1.019-5.752,0.356
			c3.75,1.762,5.215,6.394,10.387,6.548C127.649,42.964,129.622,41.116,131.596,39.269z M115.77,41.489
			c-0.186,0.076-0.369,0.149-0.554,0.225c0.273,0.781,0.547,1.562,0.819,2.343c-0.236,0.129-0.471,0.256-0.706,0.385
			c-0.84-1.072-1.679-2.144-2.624-3.352c-0.994,0.475-2.155,1.029-3.383,1.615c1.633,2.2,3.693,4.032,6.879,3.87
			c2.378-0.122,3.796-1.644,3.433-3.526c-0.357-1.854-2.326-3.674-4.143-4.007C115.577,39.811,115.674,40.65,115.77,41.489z
			 M124.424,45.232c-1.888-1.082-3.395-1.98-4.478,0.557c-0.258,0.604-1.211,1.15-1.923,1.274c-1.723,0.301-3.491,0.339-5.504,0.505
			c-0.08,0.307-0.236,0.9-0.454,1.732C116.708,49.26,120.557,47.664,124.424,45.232z"/>
		<path fill-rule="evenodd" clip-rule="evenodd" d="M134.221,26.672c0.326-0.418,0.653-0.838,0.981-1.256
			c-0.074-0.101-0.146-0.204-0.219-0.305c-2.701,1.904-5.4,3.808-8.102,5.713c5.037-7.213,15.315-10.846,23.147-8.443
			c-2.093,1.871-4.206,3.76-6.503,5.814c-3.802-1.009-4.264-0.64-8.397,7.346c-2.043-2.924-4.841-2.579-7.761-2.003
			c-1.305,0.258-2.699,0.221-3.45-1.326c3.544,1.604,7.666-1.951,10.651,1.312c2.026-2.739,3.929-5.312,5.78-7.814
			c-1.157-0.012-4.794,4.014-4.806,5.398c-0.687-0.241-1.375-0.608-2.102-0.707c-0.913-0.124-1.857-0.03-2.788-0.03
			c-0.141-0.183-0.28-0.366-0.421-0.547c1.349-1.061,2.699-2.12,4.055-3.185c-0.049,0.486,0.078,1.169-0.196,1.427
			c-0.624,0.587-1.445,0.966-2.188,1.43c1.271,0.053,2.41-0.171,3.397-0.688c2.194-1.146,2.926-3.175,1.997-5.093
			c3.56,1.993,5.29,1.299,7.899-1.402c-2.805-0.581-5.389,0.126-7.849,1.458C137.366,25.827,136.56,26.571,134.221,26.672z
			 M141.038,26.634c3.832,1.235,3.927-2.427,6.032-3.01c-0.113-0.178-0.227-0.354-0.339-0.532
			C145.007,24.165,143.283,25.237,141.038,26.634z"/>
		<path fill-rule="evenodd" clip-rule="evenodd" d="M139.539,20.674c-2.626,1.45-5.253,2.9-7.881,4.352
			c-0.125-0.242-0.252-0.483-0.377-0.723c2.655-1.394,5.312-2.787,7.968-4.181C139.347,20.305,139.442,20.489,139.539,20.674z"/>
		<path fill-rule="evenodd" clip-rule="evenodd" d="M134.468,40.752c-1.996,1.937-3.991,3.871-5.986,5.808
			c-0.098-0.094-0.197-0.188-0.293-0.281c1.986-1.94,3.973-3.88,5.96-5.82C134.255,40.557,134.36,40.654,134.468,40.752z"/>
		<path fill-rule="evenodd" clip-rule="evenodd" d="M100.696,43.301c-1.467-1.911-2.944-3.837-4.334-5.645
			C98.275,37.778,100.391,40.452,100.696,43.301z"/>
		<path fill-rule="evenodd" clip-rule="evenodd" d="M202.013,28.857c0.752,2.2,0.017,4.066-1.997,5.055
			C200.684,32.222,201.333,30.58,202.013,28.857z"/>
		<path fill-rule="evenodd" clip-rule="evenodd" fill="#FFFFFF" d="M182.466,20.7c0.197,1.853,0.423,3.702,0.577,5.557
			c0.043,0.53,0.087,1.306-0.218,1.577c-1.765,1.572-3.634,3.026-5.471,4.523c-1.798-1.829-1.236-4.005,1.994-7.396
			c-1.621-1.747-2.681-3.708-1.809-6.197c1.493,0,2.897,0,4.302,0c0.026-0.131,0.052-0.261,0.078-0.391
			c-0.401-0.148-0.802-0.294-1.202-0.444c-1.884-0.706-3.928-1.15-5.621-2.174c-3.699-2.238-7.19-2.34-10.747,0.342
			c0.372-2.138,0.372-2.138,6.465-5.546c-1.054-0.134-1.816-0.231-2.586-0.329c2.112-5.245,10.54-8.736,16.702-2.157
			c3.222,3.44,4.322,7.396,3.428,12.059c-0.377,1.964-0.471,4.111-0.078,6.052c0.277,1.381,1.313,3.001,2.494,3.713
			c1.626,0.981,3.545,0.363,5.004-0.985c0.834-0.771,1.552-2.076,2.852-0.938c1.275,1.116,0.876,2.453,0.048,3.722
			c-2.327,3.563-9.263,3.769-12.126,0.46c-2.048-2.37-2.414-5.197-2.739-8.105c-0.131-1.164-0.438-2.307-0.665-3.462
			C182.92,20.622,182.693,20.661,182.466,20.7z"/>
		<path fill-rule="evenodd" clip-rule="evenodd" fill="#FFFFFF" d="M176.289,18.529c0.325,2.121,0.65,4.242,0.975,6.364
			c0.162-0.035,0.324-0.07,0.486-0.104c-0.667,1.262-1.43,2.485-1.969,3.799c-0.32,0.774-0.536,1.754-0.345,2.53
			c0.203,0.828,0.789,1.846,1.492,2.175c0.509,0.237,1.706-0.31,2.202-0.859c1.206-1.342,2.183-2.89,3.627-4.125
			c2.165,4.377,4.66,7.195,9.359,7.51c0.09,1.294,0.179,2.561,0.272,3.925c-8.378-0.369-16.604-0.73-25.125-1.105
			c0-1.645-0.03-3.144,0.005-4.641c0.134-5.522,0.361-11.043,0.396-16.564c0.011-1.789,0.909-2.616,2.335-2.252
			c2.39,0.609,4.666,1.668,6.989,2.538C176.756,17.989,176.521,18.259,176.289,18.529z M181.133,32.861
			c-2.527,1.64-4.639,2.554-6.642-0.634c0.007,2.435,1.228,2.862,2.521,3.065C178.68,35.556,180.059,35.084,181.133,32.861z"/>
		<path fill-rule="evenodd" clip-rule="evenodd" fill="#FFFFFF" d="M155.664,49.381c-0.604-3.591-0.604-3.591,2.468-4.64
			c4.021-1.375,3.986-1.376,4.095-5.641c0.133-5.153,0.36-10.303,0.475-15.457c0.02-0.882-0.315-1.773-0.487-2.659
			c-0.841,0.297-1.722,0.516-2.512,0.915c-0.9,0.456-1.672,1.189-2.594,1.578c-0.559,0.235-1.298,0.043-1.955,0.043
			c-0.067-0.255-0.136-0.51-0.203-0.764c3.803-2.291,7.607-4.583,11.687-7.041c0.086,0.715,0.178,1.101,0.171,1.487
			c-0.158,9.375-0.31,18.75-0.533,28.124c-0.015,0.638-0.451,1.706-0.892,1.821C162.174,48,158.913,48.659,155.664,49.381z"/>
		<path fill-rule="evenodd" clip-rule="evenodd" fill="#FFFFFF" d="M192.234,40.795c-0.215,2.561-0.365,4.356-0.523,6.24
			c-8.172,0-16.195,0-24.352,0c0-2.582,0-4.999,0-7.337c2.412,0,4.711-0.006,7.011,0.008c0.279,0.003,0.68,0.022,0.82,0.198
			c2.34,2.937,5.458,1.407,8.265,1.395C186.284,41.285,189.111,40.986,192.234,40.795z"/>
		<path fill-rule="evenodd" clip-rule="evenodd" fill="#FFFFFF" d="M191.572,48.292c-0.073,1.549-0.126,2.693-0.184,3.925
			c-8.071,0.222-16.02,0.44-23.958,0.658c-0.78-4.887-0.777-4.972,3.893-4.866c1.495,0.032,2.962,0.779,4.468,0.958
			c1.752,0.207,3.746,0.688,5.262,0.095C184.494,47.718,187.878,48.448,191.572,48.292z"/>
		<path fill-rule="evenodd" clip-rule="evenodd" fill="#FFFFFF" d="M171.248,4.395c-3.102,4.331-5.875,8.407-8.889,12.297
			c-0.985,1.27-2.599,2.052-3.923,3.058c-0.211-0.186-0.421-0.373-0.631-0.559c2.923-4.703,5.677-9.528,8.907-14.01
			C167.379,4.255,169.815,4.604,171.248,4.395z"/>
		<path fill-rule="evenodd" clip-rule="evenodd" fill="#FFFFFF" d="M147.135,26.978c1.576-1.05,3.12-2.102,4.694-3.107
			c0.272-0.174,0.727-0.296,1.003-0.193c2.935,1.095,5.852,2.242,9.012,3.466c-3.374,2.677-4.771,2.822-8.27,0.578
			c-1.052-0.675-1.813-0.786-2.632-0.057C149.568,28.886,148.417,28.793,147.135,26.978z"/>
		<path fill-rule="evenodd" clip-rule="evenodd" fill="#FFFFFF" d="M155.363,50.311c3.71-0.762,7.149-1.469,10.464-2.149
			c0.231,0.385,0.296,0.443,0.303,0.51c0.514,4.489,0.514,4.489-3.998,4.494c-2.085,0.002-4.168,0-6.573,0
			C155.517,52.532,155.45,51.564,155.363,50.311z"/>
		<path fill-rule="evenodd" clip-rule="evenodd" fill="#FFFFFF" d="M160.993,31.941c-2.267,1.822-4.372,2.673-7.017,1.075
			c-0.892-0.539-2.284-0.171-3.373-0.481c-0.994-0.282-1.886-0.922-2.868-1.428c3.057-2.971,4.17-3.181,7.723-1.594
			C157.233,30.306,159.019,31.076,160.993,31.941z"/>
		<path fill-rule="evenodd" clip-rule="evenodd" fill="#FFFFFF" d="M189.499,17.964c1.445,0.159,2.301,0.253,3.229,0.355
			c0,3.63,0,7.16,0,10.768c-1.926,0.195-3.048-0.792-3.167-2.34C189.344,23.915,189.499,21.054,189.499,17.964z"/>
		<path fill-rule="evenodd" clip-rule="evenodd" fill="#FFFFFF" d="M147.398,35.948c2.792-2.925,5.498-3.105,8.528-1.345
			c1.526,0.887,3.209,1.505,5.06,2.354c-2.776,1.431-5.179,2.022-7.726,0.26c-0.881-0.61-1.864-1.252-3.182-0.374
			C149.641,37.137,148.471,36.335,147.398,35.948z"/>
		<path fill-rule="evenodd" clip-rule="evenodd" fill="#FFFFFF" d="M149.017,40.903c-0.554-0.614-0.937-1.038-1.346-1.492
			c2.07-1.645,4.112-2.337,6.63-0.958c1.992,1.091,4.169,1.846,6.453,2.833c-2.475,1.913-4.489,0.454-6.537-0.182
			C152.53,40.579,150.903,39.385,149.017,40.903z"/>
		<path fill-rule="evenodd" clip-rule="evenodd" fill="#FFFFFF" d="M188.63,57.87c-0.191,1.048-0.356,1.946-0.524,2.857
			c-2.796,0-5.521,0-8.269,0c-0.046-0.988-0.084-1.813-0.132-2.857C182.634,57.87,185.552,57.87,188.63,57.87z"/>
		<path fill-rule="evenodd" clip-rule="evenodd" fill="#FFFFFF" d="M167.363,60.954c0.235-0.729,0.477-1.475,0.793-2.453
			c2.443,0,4.928,0,7.574,0c0.046,0.689,0.097,1.449,0.163,2.453C173.002,60.954,170.222,60.954,167.363,60.954z"/>
		<path fill-rule="evenodd" clip-rule="evenodd" fill="#FFFFFF" d="M166.233,2.935c-0.174,0.537-0.255,1.127-0.535,1.6
			c-2.735,4.616-5.502,9.21-8.265,13.809c-0.128,0.211-0.309,0.391-0.835,0.371c2.647-5.208,5.275-10.429,8-15.597
			c0.14-0.263,1.121-0.083,1.711-0.108L166.233,2.935z"/>
		<path fill-rule="evenodd" clip-rule="evenodd" fill="#FFFFFF" d="M148.202,42.517c3.651-2.683,6.392,0.068,9.755,0.576
			C154.325,45.399,151.518,43.33,148.202,42.517z"/>
		<path fill-rule="evenodd" clip-rule="evenodd" fill="#FFFFFF" d="M186.548,7.733c2.349,0.392,4.455,0.744,6.968,1.163
			c-1.461,1.311-2.689,2.415-4.063,3.648C188.499,10.966,187.634,9.532,186.548,7.733z"/>
		<path fill-rule="evenodd" clip-rule="evenodd" fill="#FFFFFF" d="M157.604,61.689c1.13-3.299,1.13-3.299,5.79-3.226
			c-0.136,0.954-0.271,1.902-0.422,2.952C161.272,61.503,159.552,61.591,157.604,61.689z"/>
		<path fill-rule="evenodd" clip-rule="evenodd" fill="#FFFFFF" d="M183.953,4.998c3.219,0.727,6.441,1.451,9.66,2.178
			c-0.052,0.22-0.104,0.442-0.156,0.663c-3.205-0.788-6.725-0.256-9.644-2.249C183.859,5.392,183.905,5.195,183.953,4.998z"/>
		<path fill-rule="evenodd" clip-rule="evenodd" fill="#FFFFFF" d="M166.31,3.01c0.303-0.286,0.637-0.847,0.901-0.816
			c2.335,0.271,4.656,0.648,6.936,1.371c-2.739,1-5.276-0.468-7.912-0.63L166.31,3.01z"/>
		<path fill-rule="evenodd" clip-rule="evenodd" fill="#FFFFFF" d="M161.398,32.756c0,1.279,0,2.199,0,3.35
			c-1.055-0.452-1.951-0.836-3.177-1.359C159.383,34.018,160.251,33.474,161.398,32.756z"/>
		<path fill-rule="evenodd" clip-rule="evenodd" fill="#FFFFFF" d="M161.62,26.214c-1.153-0.512-1.979-0.879-3.274-1.455
			c1.281-0.664,2.219-1.149,3.542-1.835C161.789,24.131,161.72,24.988,161.62,26.214z"/>
		<path fill-rule="evenodd" clip-rule="evenodd" fill="#FFFFFF" d="M161.186,40.601c-1.049-0.448-1.824-0.78-3.152-1.35
			c1.274-0.534,2.112-0.886,3.152-1.322C161.186,38.858,161.186,39.595,161.186,40.601z"/>
		<path fill-rule="evenodd" clip-rule="evenodd" fill="#FFFFFF" d="M114.321,40.089c-2.091,0.354-4.174,0.706-6.74,1.139
			c0.67,1.047,1.26,2.673,2.411,3.6c1.668,1.344,2.054,2.607,0.977,4.481c-2.499,0.088-4.134-1.327-5.396-3.3
			c-2.132-3.335-4.219-6.697-6.477-10.292c1.171,0.513,2.325,0.869,3.323,1.48c3.111,1.909,6.412,2.223,9.857,1.308
			C113.618,38.148,114.177,38.617,114.321,40.089z"/>
		<path fill-rule="evenodd" clip-rule="evenodd" fill="#FFFFFF" d="M131.596,39.269c-1.974,1.848-3.946,3.695-5.404,5.061
			c-5.172-0.154-6.637-4.786-10.387-6.548c1.988-1.375,3.584-1.694,5.752-0.356c1.448,0.894,3.563,0.774,5.396,0.947
			c1.447,0.137,2.918,0.027,4.379,0.027C131.419,38.689,131.508,38.979,131.596,39.269z"/>
		<path fill-rule="evenodd" clip-rule="evenodd" fill="#FFFFFF" d="M115.77,41.489c-0.096-0.839-0.192-1.679-0.278-2.447
			c1.816,0.333,3.785,2.153,4.143,4.007c0.363,1.883-1.055,3.404-3.433,3.526c-3.186,0.162-5.246-1.67-6.879-3.87
			c1.228-0.586,2.389-1.141,3.383-1.615c0.945,1.208,1.784,2.279,2.624,3.352c0.235-0.129,0.47-0.256,0.706-0.385
			c-0.272-0.781-0.546-1.562-0.819-2.343C115.4,41.639,115.584,41.565,115.77,41.489z"/>
		<path fill-rule="evenodd" clip-rule="evenodd" fill="#FFFFFF" d="M124.424,45.232c-3.867,2.432-7.716,4.027-12.358,4.068
			c0.218-0.832,0.374-1.426,0.454-1.732c2.013-0.166,3.781-0.204,5.504-0.505c0.712-0.124,1.665-0.67,1.923-1.274
			C121.029,43.252,122.536,44.15,124.424,45.232z"/>
		<path fill-rule="evenodd" clip-rule="evenodd" fill="#FFFFFF" d="M137.341,23.761c2.469-1.322,5.053-2.029,7.857-1.449
			c-2.609,2.701-4.34,3.395-7.899,1.402L137.341,23.761z"/>
		<path fill-rule="evenodd" clip-rule="evenodd" fill="#FFFFFF" d="M137.299,23.714c0.929,1.918,0.197,3.947-1.997,5.093
			c-0.987,0.516-2.127,0.74-3.397,0.688c0.742-0.463,1.563-0.842,2.188-1.43c0.274-0.257,0.147-0.941,0.196-1.427
			c-0.007,0.004-0.058,0.028-0.063,0.031c2.335-0.099,3.142-0.842,3.125-2.899C137.341,23.761,137.299,23.714,137.299,23.714z"/>
		<path fill-rule="evenodd" clip-rule="evenodd" fill="#FFFFFF" d="M141.038,26.634c2.245-1.397,3.969-2.469,5.693-3.542
			c0.112,0.178,0.226,0.354,0.339,0.532C144.965,24.207,144.87,27.869,141.038,26.634z"/>
		<path fill-rule="evenodd" clip-rule="evenodd" d="M181.133,32.861c-1.074,2.223-2.453,2.694-4.121,2.432
			c-1.293-0.203-2.514-0.631-2.521-3.065C176.494,35.415,178.605,34.501,181.133,32.861z"/>
	</g>
	<g>
		<path d="M16.506,15.227c0.216,0.09,0.423,0.126,0.621,0.108c0.126-0.018,0.221,0.004,0.283,0.067
			c0.063,0.063,0.104,0.175,0.122,0.337c0.018,0.306,0.071,0.63,0.161,0.972c0.055,0.216,0.059,0.365,0.014,0.445
			c-0.045,0.081-0.175,0.158-0.391,0.229c-0.343,0.126-0.693,0.189-1.053,0.189c-0.469,0-1.13,0.225-1.984,0.675
			c-0.854,0.45-1.534,0.927-2.038,1.431c-0.54,0.558-1.044,1.233-1.512,2.024c-0.288,0.522-0.459,0.891-0.513,1.107
			s-0.054,0.522,0,0.917c0.126,0.882,0.445,1.489,0.958,1.822s1.336,0.455,2.47,0.364c0.54-0.036,0.994-0.108,1.363-0.216
			s0.887-0.333,1.553-0.675c1.062-0.504,1.889-1.026,2.483-1.565c0.359-0.36,0.715-0.67,1.065-0.932
			c0.352-0.261,0.563-0.391,0.635-0.391l0.014,0.027c0.009,0.018,0.014,0.045,0.014,0.081s-0.005,0.081-0.014,0.135
			c-0.01,0.054-0.014,0.113-0.014,0.176v0.202c-0.036,0.252-0.031,0.437,0.014,0.554c0.045,0.117,0.157,0.22,0.337,0.31
			c0.468,0.234,0.702,0.526,0.702,0.877s-0.243,0.787-0.729,1.309c-0.36,0.432-0.954,0.936-1.782,1.512
			c-0.827,0.576-1.493,0.963-1.997,1.161c-1.439,0.54-2.452,0.868-3.037,0.985c-0.585,0.117-1.201,0.112-1.849-0.014
			c-1.494-0.27-2.637-0.765-3.428-1.484c-0.271-0.216-0.481-0.463-0.635-0.743c-0.153-0.279-0.319-0.706-0.499-1.282
			c-0.36-1.133-0.495-2.101-0.405-2.901s0.45-1.786,1.08-2.956c0.72-1.35,1.728-2.479,3.022-3.387
			c1.296-0.909,2.646-1.426,4.05-1.552C16.002,15.127,16.309,15.154,16.506,15.227z"/>
		<path d="M27.091,18.236c0.359-0.315,0.675-0.473,0.944-0.473c0.072-0.018,0.612,0.36,1.62,1.134
			c0.396,0.306,0.684,0.526,0.863,0.661c0.18,0.135,0.351,0.306,0.513,0.513s0.279,0.391,0.352,0.553
			c0.071,0.162,0.18,0.423,0.323,0.783c0.396,1.008,0.585,1.917,0.567,2.727c-0.019,0.81-0.252,1.7-0.702,2.672
			c-0.72,1.529-1.664,2.636-2.834,3.32c-0.342,0.198-0.644,0.329-0.904,0.392s-0.671,0.094-1.229,0.094
			c-0.611,0-1.034-0.036-1.269-0.108c-0.233-0.072-0.594-0.279-1.079-0.621c-0.721-0.486-1.229-1.066-1.525-1.741
			s-0.437-1.543-0.419-2.605c0.036-1.476,0.374-2.735,1.013-3.779c0.639-1.044,1.552-1.817,2.739-2.321
			c0.126-0.054,0.239-0.126,0.338-0.216c0.099-0.09,0.148-0.171,0.148-0.243C26.551,18.798,26.73,18.551,27.091,18.236z
			 M28.265,21.799c-0.44-0.027-0.859,0.004-1.255,0.094c-1.188,0.306-1.854,1.413-1.998,3.32c-0.035,0.432-0.035,0.729,0,0.891
			c0.036,0.162,0.153,0.333,0.352,0.513c0.521,0.521,1.17,0.598,1.943,0.229c0.773-0.369,1.367-1.03,1.781-1.984
			c0.234-0.522,0.352-1.057,0.352-1.606s-0.117-0.949-0.352-1.201C28.98,21.912,28.706,21.826,28.265,21.799z"/>
		<path d="M37.998,18.708c0.684,0.018,1.201,0.067,1.552,0.148c0.352,0.081,0.788,0.248,1.31,0.5
			c0.81,0.378,1.341,0.765,1.593,1.161c0.575,0.954,0.67,2.002,0.283,3.145s-1.165,2.11-2.335,2.902
			c-0.432,0.306-0.783,0.504-1.053,0.594s-0.72,0.162-1.35,0.216c-0.918,0.054-1.403,0.135-1.458,0.243
			c-0.054,0.072-0.152,0.98-0.297,2.726c-0.09,1.386-0.206,2.298-0.351,2.74c-0.144,0.441-0.414,0.752-0.81,0.932
			c-0.234,0.09-0.464,0.104-0.688,0.04c-0.225-0.063-0.432-0.193-0.621-0.392c-0.188-0.197-0.328-0.449-0.418-0.756
			c-0.216-0.773-0.162-3.085,0.162-6.937l0.188-2.079l-0.459-0.486c-0.306-0.324-0.459-0.729-0.459-1.215
			c0-0.342,0.05-0.603,0.148-0.783c0.1-0.18,0.355-0.468,0.77-0.864c0.612-0.576,0.918-0.945,0.918-1.106
			c0-0.144,0.108-0.216,0.324-0.216c0.252,0,0.539-0.099,0.863-0.297C36.172,18.745,36.9,18.672,37.998,18.708z M37.89,21.489
			c-0.468,0.144-0.773,0.387-0.917,0.729c-0.108,0.324-0.162,0.724-0.162,1.201c0,0.477,0.054,0.751,0.162,0.823
			c0.18,0.108,0.49,0.059,0.931-0.148c0.441-0.207,0.806-0.473,1.094-0.796c0.306-0.36,0.477-0.697,0.513-1.012
			s-0.072-0.544-0.324-0.688C38.79,21.381,38.358,21.345,37.89,21.489z"/>
		<path d="M44.898,18.263c0.08-0.045,0.301-0.059,0.661-0.041c0.575,0.018,0.936,0.049,1.079,0.095
			c0.145,0.045,0.315,0.166,0.514,0.364c0.18,0.18,0.283,0.405,0.31,0.675c0.027,0.27,0.014,0.98-0.04,2.132
			c-0.09,1.602-0.072,2.538,0.054,2.807c0.126,0.198,0.221,0.302,0.283,0.311c0.063,0.009,0.229-0.067,0.5-0.229
			c0.827-0.486,1.25-1.413,1.269-2.78c0.018-0.756,0.081-1.161,0.188-1.214c0.108-0.072,0.252-0.315,0.433-0.729
			c0.161-0.396,0.337-0.63,0.526-0.702c0.188-0.072,0.449-0.005,0.782,0.202s0.571,0.382,0.716,0.526
			c0.144,0.144,0.323,0.369,0.54,0.675c0.09,0.18,0.157,0.41,0.202,0.688s0.076,0.729,0.095,1.35
			c0.018,0.621,0.035,1.678,0.054,3.172c0,2.051-0.019,3.383-0.054,3.995c-0.036,0.612-0.117,1.071-0.243,1.377
			c-0.216,0.432-0.45,0.72-0.702,0.864c-0.252,0.144-0.468,0.387-0.647,0.729c-0.181,0.359-0.333,0.539-0.459,0.539
			c-0.108,0-0.333,0.117-0.675,0.352c-0.324,0.233-1.197,0.378-2.618,0.432L45.56,33.96l-0.837-0.729
			c-0.576-0.486-0.864-0.836-0.864-1.053c0-0.252-0.063-0.405-0.188-0.458c-0.162-0.108-0.221-0.387-0.176-0.837
			s0.176-0.792,0.392-1.026c0.162-0.18,0.314-0.288,0.459-0.324c0.144-0.036,0.405-0.027,0.782,0.027
			c0.559,0.072,0.973,0.225,1.242,0.459c0.144,0.144,0.266,0.225,0.364,0.243c0.099,0.018,0.221-0.009,0.364-0.081
			c0.271-0.144,0.495-0.216,0.675-0.216c0.181,0,0.455-0.121,0.823-0.364c0.369-0.243,0.554-0.418,0.554-0.526
			c0-0.126-0.18-0.153-0.54-0.081c-0.81,0.162-1.507,0.027-2.092-0.405c-0.585-0.432-1.156-1.242-1.714-2.429l-0.81-1.701
			l0.107-2.187c0.072-1.439,0.207-2.348,0.405-2.726c0.18-0.396,0.27-0.72,0.27-0.972C44.776,18.412,44.817,18.308,44.898,18.263z"
			/>
		<path d="M60.529,19.343c0.333,0.045,0.544,0.148,0.634,0.311c0.108,0.198,0.279,0.297,0.514,0.297
			c0.216,0,0.404,0.085,0.566,0.256s0.288,0.405,0.378,0.702c0.09,0.297,0.126,0.607,0.108,0.931
			c-0.019,0.396-0.059,0.666-0.122,0.81c-0.063,0.144-0.202,0.279-0.418,0.405c-0.234,0.126-0.405,0.185-0.513,0.176
			c-0.108-0.009-0.297-0.085-0.567-0.229c-0.396-0.234-0.747-0.333-1.053-0.297c-0.306,0.036-0.711,0.225-1.215,0.567
			c-0.773,0.521-1.408,1.201-1.902,2.038c-0.495,0.837-0.599,1.399-0.311,1.687c0.197,0.198,0.644,0.41,1.336,0.635
			c0.692,0.225,1.237,0.337,1.633,0.337c0.486,0,0.949-0.09,1.391-0.27c0.44-0.18,0.688-0.378,0.742-0.594
			c0.072-0.288,0.302-0.383,0.688-0.284s0.715,0.329,0.985,0.688c0.306,0.378,0.432,0.828,0.378,1.35
			c-0.036,0.324-0.108,0.585-0.217,0.783c-0.107,0.198-0.351,0.459-0.729,0.783c-0.306,0.27-0.54,0.455-0.702,0.553
			c-0.161,0.099-0.342,0.176-0.539,0.229c-0.198,0.054-0.522,0.099-0.972,0.135c-1.404,0.144-2.825,0.009-4.266-0.405
			c-1.062-0.288-1.84-0.9-2.335-1.836c-0.494-0.936-0.589-1.961-0.283-3.077c0.162-0.54,0.509-1.305,1.039-2.294
			c0.531-0.99,0.914-1.583,1.147-1.781c0.198-0.162,0.297-0.315,0.297-0.459c0-0.072,0.077-0.18,0.229-0.324
			c0.153-0.144,0.338-0.279,0.554-0.405c0.611-0.414,1.044-0.702,1.296-0.863c0.342-0.234,0.701-0.396,1.079-0.486
			C59.813,19.32,60.196,19.298,60.529,19.343z"/>
		<path d="M71.046,19.68c0.611,0.306,0.954,0.522,1.025,0.648c0.055,0.126,0.198,0.153,0.433,0.081
			c0.144-0.054,0.319-0.004,0.526,0.148c0.206,0.153,0.382,0.211,0.526,0.175c0.216-0.036,0.494,0.117,0.836,0.459l0.486,0.513
			l0.054,3.375c0.036,2.213,0.135,3.473,0.297,3.779c0.126,0.252,0.234,0.774,0.324,1.565l0.107,1.188
			c-0.594,0.27-1.169,0.531-1.728,0.783L73.34,31.8c-0.432-0.414-0.675-0.837-0.729-1.269c-0.036-0.234-0.095-0.481-0.176-0.742
			c-0.08-0.261-0.161-0.477-0.242-0.648s-0.148-0.256-0.203-0.256c-0.071,0-0.413,0.324-1.025,0.972
			c-0.63,0.648-1.17,1.071-1.619,1.269c-0.685,0.324-1.396,0.387-2.133,0.189c-0.738-0.198-1.413-0.629-2.024-1.295
			c-0.414-0.468-0.671-0.985-0.77-1.552s-0.104-1.507-0.014-2.821c0.072-1.277,0.262-2.231,0.567-2.861
			c0.468-0.936,0.958-1.665,1.471-2.187s1.103-0.909,1.769-1.161C69.165,19.113,70.11,19.194,71.046,19.68z M69.872,22.177
			c-0.117-0.027-0.329,0.041-0.635,0.202c-0.414,0.198-0.828,0.599-1.241,1.201c-0.414,0.603-0.702,1.201-0.864,1.795
			c-0.18,0.666-0.261,1.151-0.243,1.458c0.019,0.306,0.135,0.522,0.352,0.648c0.378,0.234,0.877,0.049,1.498-0.554
			c0.62-0.603,1.246-1.498,1.876-2.686l0.539-1.026l-0.62-0.54C70.209,22.371,69.988,22.204,69.872,22.177z"/>
		<path d="M80.712,16.981c0.108,0.126,0.162,0.261,0.162,0.405c0,0.216,0.099,0.365,0.297,0.445c0.198,0.081,0.387,0.05,0.566-0.094
			c0.162-0.162,0.252-0.207,0.271-0.135c0.126,0.144,0.233,0.558,0.323,1.242c0.091,0.684,0.117,1.232,0.081,1.646
			c-0.071,0.702-0.063,1.269,0.027,1.7l0.108,0.702l1.619-0.135c0.72-0.054,1.174-0.072,1.363-0.054
			c0.188,0.018,0.311,0.099,0.364,0.243c0.09,0.216,0.036,0.405-0.162,0.567c-0.342,0.27-0.351,0.414-0.026,0.432
			c0.323,0,0.306,0.225-0.055,0.675c-0.359,0.45-1.134,0.836-2.321,1.161l-1.079,0.324l-0.136,0.972
			c-0.036,0.324-0.144,1.413-0.323,3.266c-0.145,1.332-0.271,2.177-0.378,2.538c-0.108,0.359-0.315,0.639-0.621,0.837
			c-0.36,0.233-0.747,0.292-1.161,0.175c-0.413-0.116-0.71-0.373-0.891-0.769c-0.144-0.288-0.22-0.607-0.229-0.959
			c-0.009-0.351,0.041-1.12,0.148-2.308c0.145-1.763,0.189-2.69,0.136-2.78c-0.055-0.09-0.352-0.117-0.892-0.081
			c-0.197,0.036-0.373,0.045-0.526,0.027C77.226,27.004,77.1,26.959,77,26.887c-0.099-0.072-0.229-0.189-0.391-0.351
			c-0.252-0.252-0.392-0.437-0.419-0.554c-0.026-0.117,0.014-0.319,0.122-0.607c0.144-0.378,0.351-0.72,0.62-1.026
			c0.252-0.288,0.307-0.459,0.162-0.513c-0.342-0.126-0.333-0.279,0.027-0.459l0.27-0.108c0.342-0.144,0.702-0.144,1.08,0
			c0.378,0.144,0.603,0.171,0.675,0.081c0.09-0.072,0.162-0.828,0.216-2.268c0.036-0.972,0.086-1.611,0.148-1.917
			c0.063-0.306,0.202-0.621,0.418-0.945c0.343-0.522,0.514-0.828,0.514-0.918l0.054-0.324
			C80.514,16.801,80.586,16.801,80.712,16.981z"/>
	</g>
	<g>
		<path d="M15.589,53.455c-1.404-0.126-2.754-0.644-4.05-1.553c-1.295-0.908-2.303-2.037-3.022-3.387
			c-0.63-1.17-0.99-2.155-1.08-2.956s0.045-1.769,0.405-2.901c0.18-0.576,0.346-1.004,0.499-1.282
			c0.153-0.279,0.364-0.526,0.635-0.743c0.791-0.719,1.934-1.214,3.428-1.484c0.647-0.125,1.264-0.13,1.849-0.014
			c0.585,0.117,1.598,0.445,3.037,0.986c0.504,0.197,1.17,0.584,1.997,1.16c0.828,0.576,1.422,1.08,1.782,1.512
			c0.485,0.521,0.729,0.958,0.729,1.309c0,0.352-0.234,0.645-0.702,0.878c-0.18,0.09-0.292,0.193-0.337,0.31
			c-0.045,0.117-0.05,0.303-0.014,0.555v0.201c0,0.063,0.004,0.122,0.014,0.176c0.009,0.055,0.014,0.1,0.014,0.135
			c0,0.037-0.005,0.063-0.014,0.082l-0.014,0.026c-0.072,0-0.283-0.13-0.635-0.392c-0.351-0.261-0.706-0.571-1.065-0.932
			c-0.595-0.539-1.422-1.061-2.483-1.564c-0.666-0.342-1.184-0.567-1.553-0.676c-0.369-0.107-0.823-0.18-1.363-0.215
			c-1.134-0.091-1.957,0.031-2.47,0.363c-0.513,0.334-0.832,0.941-0.958,1.822c-0.054,0.396-0.054,0.702,0,0.918
			s0.225,0.585,0.513,1.107c0.468,0.791,0.972,1.466,1.512,2.023c0.504,0.504,1.184,0.98,2.038,1.432
			c0.854,0.449,1.516,0.674,1.984,0.674c0.359,0,0.71,0.063,1.053,0.189c0.216,0.072,0.346,0.148,0.391,0.229
			s0.041,0.229-0.014,0.445c-0.09,0.342-0.144,0.665-0.161,0.972c-0.019,0.162-0.059,0.274-0.122,0.338
			c-0.063,0.063-0.157,0.085-0.283,0.066c-0.198-0.018-0.405,0.019-0.621,0.108C16.309,53.446,16.002,53.473,15.589,53.455z"/>
		<path d="M26.551,49.622c0-0.071-0.05-0.153-0.148-0.243s-0.212-0.162-0.338-0.216c-1.188-0.504-2.101-1.277-2.739-2.321
			c-0.639-1.043-0.977-2.303-1.013-3.779c-0.018-1.062,0.122-1.93,0.419-2.604s0.805-1.255,1.525-1.741
			c0.485-0.342,0.846-0.549,1.079-0.621c0.234-0.071,0.657-0.107,1.269-0.107c0.558,0,0.968,0.031,1.229,0.094
			c0.261,0.063,0.563,0.194,0.904,0.393c1.17,0.684,2.114,1.79,2.834,3.319c0.45,0.972,0.684,1.862,0.702,2.673
			c0.018,0.81-0.171,1.719-0.567,2.727c-0.144,0.359-0.252,0.62-0.323,0.782c-0.072,0.162-0.189,0.347-0.352,0.554
			s-0.333,0.377-0.513,0.513c-0.18,0.135-0.468,0.354-0.863,0.661c-1.008,0.773-1.548,1.152-1.62,1.134
			c-0.27,0-0.585-0.157-0.944-0.473C26.73,50.049,26.551,49.803,26.551,49.622z M29.088,46.545c0.234-0.252,0.352-0.652,0.352-1.201
			s-0.117-1.084-0.352-1.605c-0.414-0.955-1.008-1.615-1.781-1.984s-1.422-0.293-1.943,0.229c-0.198,0.181-0.315,0.352-0.352,0.514
			c-0.035,0.162-0.035,0.459,0,0.891c0.145,1.908,0.811,3.014,1.998,3.32c0.396,0.09,0.814,0.121,1.255,0.094
			C28.706,46.774,28.98,46.689,29.088,46.545z"/>
		<path d="M35.812,49.676c-0.324-0.197-0.611-0.297-0.863-0.297c-0.216,0-0.324-0.072-0.324-0.216c0-0.161-0.306-0.53-0.918-1.106
			c-0.414-0.396-0.67-0.684-0.77-0.863c-0.099-0.181-0.148-0.441-0.148-0.783c0-0.486,0.153-0.891,0.459-1.215l0.459-0.486
			l-0.188-2.078c-0.324-3.852-0.378-6.163-0.162-6.938c0.09-0.306,0.229-0.558,0.418-0.755c0.189-0.198,0.396-0.329,0.621-0.392
			c0.225-0.063,0.454-0.05,0.688,0.04c0.396,0.18,0.666,0.49,0.81,0.932c0.145,0.44,0.261,1.354,0.351,2.739
			c0.145,1.746,0.243,2.654,0.297,2.727c0.055,0.107,0.54,0.189,1.458,0.243c0.63,0.054,1.08,0.126,1.35,0.216
			s0.621,0.288,1.053,0.594c1.17,0.792,1.948,1.76,2.335,2.902s0.292,2.19-0.283,3.145c-0.252,0.396-0.783,0.782-1.593,1.16
			c-0.521,0.252-0.958,0.418-1.31,0.5c-0.351,0.08-0.868,0.13-1.552,0.148C36.9,49.928,36.172,49.855,35.812,49.676z M39.186,47.004
			c0.252-0.145,0.36-0.373,0.324-0.688s-0.207-0.652-0.513-1.013c-0.288-0.323-0.652-0.589-1.094-0.796
			c-0.44-0.207-0.751-0.257-0.931-0.148c-0.108,0.072-0.162,0.347-0.162,0.823s0.054,0.877,0.162,1.201
			c0.144,0.342,0.449,0.585,0.917,0.729C38.358,47.256,38.79,47.22,39.186,47.004z"/>
		<path d="M44.776,50.027c0-0.252-0.09-0.576-0.27-0.973c-0.198-0.377-0.333-1.286-0.405-2.726l-0.107-2.187l0.81-1.701
			c0.558-1.188,1.129-1.997,1.714-2.429c0.585-0.433,1.282-0.567,2.092-0.405c0.36,0.072,0.54,0.045,0.54-0.08
			c0-0.108-0.185-0.284-0.554-0.527c-0.368-0.242-0.643-0.363-0.823-0.363c-0.18,0-0.404-0.072-0.675-0.217
			c-0.144-0.072-0.266-0.099-0.364-0.081c-0.099,0.019-0.221,0.099-0.364,0.243c-0.27,0.234-0.684,0.387-1.242,0.459
			c-0.377,0.054-0.639,0.063-0.782,0.027c-0.145-0.037-0.297-0.145-0.459-0.324c-0.216-0.234-0.347-0.576-0.392-1.025
			c-0.045-0.45,0.014-0.729,0.176-0.838c0.126-0.053,0.188-0.206,0.188-0.458c0-0.216,0.288-0.567,0.864-1.053l0.837-0.729
			l2.105,0.108c1.421,0.054,2.294,0.198,2.618,0.432c0.342,0.234,0.566,0.352,0.675,0.352c0.126,0,0.278,0.18,0.459,0.54
			c0.18,0.342,0.396,0.584,0.647,0.729c0.252,0.144,0.486,0.432,0.702,0.863c0.126,0.307,0.207,0.766,0.243,1.377
			c0.035,0.611,0.054,1.943,0.054,3.994c-0.019,1.494-0.036,2.552-0.054,3.172c-0.019,0.621-0.05,1.071-0.095,1.35
			c-0.045,0.279-0.112,0.509-0.202,0.689c-0.217,0.305-0.396,0.53-0.54,0.674c-0.145,0.145-0.383,0.32-0.716,0.527
			s-0.594,0.273-0.782,0.201c-0.189-0.071-0.365-0.305-0.526-0.701c-0.181-0.414-0.324-0.656-0.433-0.729
			c-0.107-0.055-0.171-0.459-0.188-1.215c-0.019-1.367-0.441-2.295-1.269-2.78c-0.271-0.162-0.437-0.238-0.5-0.229
			c-0.063,0.009-0.157,0.112-0.283,0.311c-0.126,0.27-0.144,1.205-0.054,2.807c0.054,1.152,0.067,1.863,0.04,2.133
			c-0.026,0.27-0.13,0.495-0.31,0.675c-0.198,0.198-0.369,0.319-0.514,0.364c-0.144,0.045-0.504,0.076-1.079,0.095
			c-0.36,0.019-0.581,0.005-0.661-0.04C44.817,50.293,44.776,50.189,44.776,50.027z"/>
		<path d="M59.382,49.19c-0.378-0.091-0.737-0.252-1.079-0.486c-0.252-0.161-0.685-0.45-1.296-0.863
			c-0.216-0.126-0.4-0.261-0.554-0.405c-0.152-0.145-0.229-0.252-0.229-0.324c0-0.144-0.099-0.297-0.297-0.459
			c-0.233-0.197-0.616-0.791-1.147-1.781c-0.53-0.989-0.877-1.754-1.039-2.294c-0.306-1.116-0.211-2.142,0.283-3.077
			c0.495-0.936,1.273-1.548,2.335-1.836c1.44-0.414,2.861-0.549,4.266-0.404c0.449,0.035,0.773,0.08,0.972,0.135
			c0.197,0.054,0.378,0.131,0.539,0.229c0.162,0.099,0.396,0.283,0.702,0.554c0.378,0.323,0.621,0.584,0.729,0.782
			c0.108,0.198,0.181,0.459,0.217,0.782c0.054,0.522-0.072,0.973-0.378,1.35c-0.271,0.36-0.599,0.59-0.985,0.689
			c-0.387,0.099-0.616,0.004-0.688-0.284c-0.054-0.216-0.302-0.413-0.742-0.594c-0.441-0.18-0.904-0.271-1.391-0.271
			c-0.396,0-0.94,0.113-1.633,0.338s-1.139,0.437-1.336,0.635c-0.288,0.287-0.185,0.85,0.311,1.688
			c0.494,0.836,1.129,1.516,1.902,2.037c0.504,0.342,0.909,0.531,1.215,0.566c0.306,0.037,0.657-0.063,1.053-0.297
			c0.271-0.144,0.459-0.22,0.567-0.229c0.107-0.01,0.278,0.049,0.513,0.176c0.216,0.125,0.355,0.26,0.418,0.404
			c0.063,0.145,0.104,0.414,0.122,0.81c0.018,0.324-0.019,0.634-0.108,0.931c-0.09,0.298-0.216,0.531-0.378,0.703
			c-0.162,0.17-0.351,0.256-0.566,0.256c-0.234,0-0.405,0.1-0.514,0.297c-0.09,0.162-0.301,0.266-0.634,0.311
			S59.813,49.28,59.382,49.19z"/>
		<path d="M68.212,49.163c-0.666-0.252-1.256-0.639-1.769-1.161c-0.513-0.521-1.003-1.25-1.471-2.186
			c-0.306-0.63-0.495-1.584-0.567-2.861c-0.09-1.314-0.085-2.254,0.014-2.82c0.099-0.567,0.355-1.085,0.77-1.553
			c0.611-0.666,1.286-1.098,2.024-1.295c0.737-0.199,1.448-0.136,2.133,0.188c0.449,0.198,0.989,0.62,1.619,1.269
			c0.612,0.647,0.954,0.972,1.025,0.972c0.055,0,0.122-0.085,0.203-0.257c0.081-0.17,0.162-0.387,0.242-0.647
			c0.081-0.261,0.14-0.509,0.176-0.742c0.054-0.433,0.297-0.854,0.729-1.269l0.594-0.594c0.559,0.252,1.134,0.513,1.728,0.782
			l-0.107,1.188c-0.09,0.791-0.198,1.313-0.324,1.564c-0.162,0.307-0.261,1.566-0.297,3.779l-0.054,3.375l-0.486,0.512
			c-0.342,0.342-0.62,0.495-0.836,0.459c-0.145-0.035-0.32,0.023-0.526,0.176c-0.207,0.152-0.383,0.203-0.526,0.148
			c-0.234-0.072-0.378-0.045-0.433,0.081c-0.071,0.126-0.414,0.342-1.025,0.647C70.11,49.406,69.165,49.487,68.212,49.163z
			 M70.533,45.924l0.62-0.539l-0.539-1.026c-0.63-1.188-1.256-2.083-1.876-2.686c-0.621-0.603-1.12-0.788-1.498-0.554
			c-0.217,0.126-0.333,0.342-0.352,0.648c-0.018,0.306,0.063,0.791,0.243,1.457c0.162,0.594,0.45,1.192,0.864,1.795
			c0.413,0.604,0.827,1.004,1.241,1.201c0.306,0.162,0.518,0.23,0.635,0.203C69.988,46.396,70.209,46.23,70.533,45.924z"/>
		<path d="M80.496,51.619l-0.054-0.323c0-0.091-0.171-0.396-0.514-0.918c-0.216-0.323-0.354-0.639-0.418-0.944
			c-0.063-0.307-0.112-0.945-0.148-1.917c-0.054-1.439-0.126-2.195-0.216-2.268c-0.072-0.09-0.297-0.063-0.675,0.081
			c-0.378,0.145-0.738,0.145-1.08,0l-0.27-0.107c-0.36-0.18-0.369-0.334-0.027-0.459c0.145-0.055,0.09-0.225-0.162-0.514
			c-0.27-0.305-0.477-0.647-0.62-1.025c-0.108-0.287-0.148-0.49-0.122-0.607c0.027-0.117,0.167-0.301,0.419-0.553
			c0.162-0.162,0.292-0.279,0.391-0.352c0.1-0.072,0.226-0.117,0.378-0.135c0.153-0.018,0.329-0.009,0.526,0.027
			c0.54,0.035,0.837,0.009,0.892-0.081c0.054-0.091,0.009-1.017-0.136-2.78c-0.107-1.188-0.157-1.957-0.148-2.309
			c0.01-0.351,0.086-0.67,0.229-0.958c0.181-0.396,0.478-0.652,0.891-0.769c0.414-0.117,0.801-0.059,1.161,0.175
			c0.306,0.198,0.513,0.478,0.621,0.837c0.107,0.359,0.233,1.205,0.378,2.537c0.18,1.854,0.287,2.942,0.323,3.267l0.136,0.972
			l1.079,0.324c1.188,0.324,1.962,0.711,2.321,1.16c0.36,0.45,0.378,0.675,0.055,0.675c-0.324,0.019-0.315,0.162,0.026,0.433
			c0.198,0.161,0.252,0.35,0.162,0.566c-0.054,0.145-0.176,0.225-0.364,0.242c-0.189,0.019-0.644,0-1.363-0.053l-1.619-0.136
			l-0.108,0.702c-0.09,0.432-0.099,0.998-0.027,1.7c0.036,0.414,0.01,0.963-0.081,1.646c-0.09,0.685-0.197,1.099-0.323,1.241
			c-0.019,0.072-0.108,0.027-0.271-0.135c-0.18-0.144-0.368-0.175-0.566-0.094c-0.198,0.08-0.297,0.229-0.297,0.445
			c0,0.144-0.054,0.279-0.162,0.404C80.586,51.799,80.514,51.799,80.496,51.619z"/>
	</g>
</g>
<g id="Quiet">
</g>
<g id="DOCTOR">
</g>
<g id="Psychiatrist">
</g>
<g id="Remove">
</g>
<g id="Layer_10">
</g>
<g id="Bipolar">
	<g id="Layer_12">
	</g>
</g>
<g id="YesorNo">
</g>
<g id="Deja_Vu">
</g>
<g id="Indecisive">
</g>
<g id="Greedy">
</g>
<g id="Pushup">
</g>
<g id="Clothes_Swap">
</g>
</svg>
