<?xml version="1.0" encoding="utf-8"?>
<!-- Generator: Adobe Illustrator 16.0.0, SVG Export Plug-In . SVG Version: 6.00 Build 0)  -->
<!DOCTYPE svg PUBLIC "-//W3C//DTD SVG 1.1//EN" "http://www.w3.org/Graphics/SVG/1.1/DTD/svg11.dtd">
<svg version="1.1" xmlns="http://www.w3.org/2000/svg" xmlns:xlink="http://www.w3.org/1999/xlink" x="0px" y="0px"
	 width="209.76px" height="62.36px" viewBox="0 0 209.76 62.36" enable-background="new 0 0 209.76 62.36" xml:space="preserve">
<g id="Layer_1">
</g>
<g id="Can_of_Whoop-Ass">
</g>
<g id="Gun_Show">
	<g>
		<path fill="#010101" d="M31.548,42.448C14.345,37.361,5.966,48.83,5.881,48.949c-0.507,0.712-0.337,1.71,0.375,2.216
			C6.6,51.404,7,51.496,7.388,51.444c0.418-0.055,0.824-0.284,1.084-0.653c0.068-0.096,7.126-9.737,22.181-5.29
			c0.828,0.25,1.723-0.229,1.974-1.071C32.872,43.582,32.392,42.695,31.548,42.448z M0.076,29.407
			c2.789-1.444,12.605-5.43,20.681,4.777c2.101-1.302,6.393-3.473,10.973-3.004c-2.277-6.085-1.615-13.084-1.204-15.893
			c-4.285,1.125-8.885,1.523-11.056,1.491c-0.59-0.007-1.397-0.488-1.666-1.019c-0.099-0.2-0.252-0.487-0.216-0.991
			c-0.689,0.136-1.387,0.155-1.986-0.051c-0.321-0.108-1.173-0.4-1.986-3.084c-0.466-1.534-0.793-3.659,0.294-5.073
			c2.204-2.883,15.009-8.16,18.539-6.433c4.319,2.122,9.525,8.254,14.062,13.839l0.402,0.497
			C58.15,28.257,57.389,37.59,56.855,40.206c1.124,2.14,1.364,4.195,0.724,6.121c-1.177,3.544-4.973,5.144-5.129,5.215
			c-9.453,5.598-17.304,8.037-23.501,8.858c-8.27,1.098-13.582-0.688-15.789-1.695c-5.332,4.84-11.979,3.788-12.276,3.74
			c-0.322-0.052-0.575-0.216-0.79-0.42 M53.66,39.924c0.022-0.067,2.635-8.912-9.214-23.453l-0.403-0.5
			c-3.125-3.844-8.945-10.999-13-12.988c-1.939-0.741-13.01,3.415-14.617,5.514c-0.271,0.455,0.144,2.216,0.572,3.176
			c0.695-0.164,1.998-0.756,3.042-1.42c0.645-0.42,1.49-0.311,2.012,0.246c0.523,0.552,0.574,1.401,0.137,2.022
			c-0.239,0.326-0.479,0.685-0.685,1.027c3.824-0.249,9.971-1.257,13.296-3.291c0.742-0.457,1.729-0.224,2.187,0.527
			c0.455,0.747,0.219,1.727-0.53,2.186c-0.777,0.474-1.675,0.88-2.615,1.25c0.013,0.148,0.033,0.298,0.001,0.452
			c-0.023,0.109-2.086,10.816,1.972,17.74c3.017,1.548,5.437,4.454,7.193,8.725c0.332,0.812-0.055,1.739-0.859,2.071
			c-0.137,0.052-0.27,0.091-0.399,0.11c-0.702,0.091-1.398-0.295-1.676-0.972c-1.773-4.315-4.232-6.923-7.304-7.752
			c-5.464-1.468-11.351,2.991-11.417,3.035c-0.335,0.263-0.771,0.377-1.212,0.31c-0.427-0.064-0.81-0.302-1.062-0.661
			c-6.753-9.662-14.935-6.426-17.358-5.161c0.045,6.542-0.11,11.192-0.009,27.242c1.259,0.132,6.22,0.359,9.995-3.664
			c0.523-0.552,1.359-0.661,2.011-0.257c0.114,0.072,13.023,7.661,37.317-6.724c0.218-0.107,2.831-1.239,3.532-3.393
			c0.397-1.185,0.131-2.554-0.764-4.065C53.553,40.851,53.508,40.366,53.66,39.924z"/>
	</g>
	<g>
		<path fill="#010101" d="M177.21,44.429c0.251,0.843,1.146,1.321,1.975,1.071c15.055-4.446,22.11,5.194,22.18,5.29
			c0.26,0.369,0.666,0.599,1.084,0.654c0.389,0.051,0.789-0.04,1.133-0.28c0.712-0.506,0.882-1.503,0.375-2.215
			c-0.085-0.12-8.464-11.588-25.667-6.501C177.445,42.694,176.964,43.581,177.21,44.429z M209.743,62.024
			c-0.214,0.205-0.469,0.368-0.789,0.421c-0.297,0.048-6.946,1.099-12.276-3.74c-2.207,1.007-7.52,2.792-15.79,1.695
			c-6.197-0.822-14.048-3.262-23.5-8.859c-0.157-0.071-3.953-1.671-5.13-5.215c-0.641-1.925-0.399-3.981,0.724-6.121
			c-0.533-2.615-1.295-11.948,9.941-25.743l0.402-0.497c4.538-5.584,9.743-11.717,14.063-13.839
			c3.53-1.727,16.334,3.55,18.539,6.434c1.087,1.413,0.761,3.539,0.294,5.073c-0.812,2.685-1.664,2.976-1.985,3.084
			c-0.599,0.205-1.297,0.187-1.986,0.05c0.036,0.505-0.118,0.792-0.216,0.992c-0.27,0.531-1.076,1.011-1.666,1.019
			c-2.172,0.033-6.771-0.365-11.057-1.49c0.411,2.809,1.074,9.808-1.203,15.893c4.58-0.469,8.873,1.702,10.974,3.003
			c8.074-10.207,17.891-6.221,20.679-4.777 M156.036,41.256c-0.896,1.512-1.161,2.882-0.764,4.065
			c0.7,2.154,3.314,3.285,3.532,3.393c24.294,14.385,37.202,6.796,37.317,6.724c0.651-0.404,1.486-0.294,2.01,0.257
			c3.775,4.023,8.735,3.796,9.995,3.664c0.102-16.05-0.055-20.699-0.009-27.242c-2.423-1.264-10.605-4.5-17.358,5.162
			c-0.252,0.358-0.634,0.596-1.062,0.661c-0.439,0.066-0.877-0.047-1.212-0.31c-0.065-0.044-5.954-4.503-11.417-3.035
			c-3.072,0.828-5.531,3.437-7.304,7.752c-0.279,0.677-0.975,1.062-1.676,0.971c-0.131-0.02-0.263-0.059-0.399-0.11
			c-0.805-0.332-1.191-1.259-0.859-2.071c1.755-4.27,4.177-7.177,7.192-8.724c4.058-6.925,1.996-17.631,1.973-17.741
			c-0.032-0.154-0.014-0.304,0-0.452c-0.94-0.371-1.839-0.776-2.614-1.25c-0.749-0.459-0.986-1.439-0.53-2.187
			c0.456-0.75,1.444-0.984,2.187-0.527c3.324,2.034,9.471,3.042,13.295,3.291c-0.204-0.341-0.445-0.7-0.684-1.027
			c-0.438-0.62-0.388-1.47,0.137-2.021c0.521-0.556,1.366-0.666,2.011-0.246c1.046,0.663,2.348,1.256,3.043,1.419
			c0.429-0.959,0.843-2.721,0.571-3.175c-1.607-2.099-12.678-6.254-14.617-5.514c-4.056,1.99-9.875,9.145-13,12.988l-0.403,0.5
			c-11.85,14.54-9.237,23.386-9.214,23.452C156.327,40.365,156.283,40.85,156.036,41.256z"/>
	</g>
	<g>
		<path fill="none" stroke="#000000" d="M85.251,6.506h-3.294v17.253h3.294v-6.21h-2.16v-5.13h7.587V25.19l-3.726,3.753h-6.696
			L76.53,25.19V5.075l3.726-3.753h6.696l3.726,3.753l0.054,5.913h-5.481V6.506z"/>
		<path fill="none" stroke="#000000" d="M97.698,1.376h5.481V23.57h3.293V6.236h0.027V1.322h5.4v23.841l-3.727,3.753h-6.696
			l-3.726-3.753L97.698,1.376z"/>
		<path fill="none" stroke="#000000" d="M124.455,28.943h-5.428V16.145h-0.026l-0.054-14.904h5.48l3.294,10.746V1.241h5.427v6.804
			l0.055,20.898h-5.454l-3.321-10.476L124.455,28.943z"/>
		<path fill="none" stroke="#000000" d="M61.694,37.447l3.726-3.752h6.696l3.726,3.752l0.027,4.268h-5.454v-2.836h-3.294v5.752
			l8.721-0.027L75.95,57.59l-3.726,3.754h-6.696l-3.726-3.754l-0.027-4.266h5.454v2.834h3.294v-5.75h-1.134v0.027h-7.587
			L61.694,37.447z"/>
		<path fill="none" stroke="#000000" d="M88.37,44.791h3.294V33.613h5.427v6.805l0.054,20.898h-5.4l-0.054-11.07h-3.294v11.07H82.97
			V48.518h-0.027V33.613h5.427V44.791z"/>
		<path fill="none" stroke="#000000" d="M114.722,61.369h-6.777l-3.726-3.752l-0.054-20.25l3.726-3.754h6.669l3.78,3.808
			l0.054,20.251L114.722,61.369z M109.592,38.798l0.054,17.226h3.321l-0.055-17.172L109.592,38.798z"/>
		<path fill="none" stroke="#000000" d="M136.699,49.895l-1.944,11.395h-4.806l-4.671-27.486l5.346-0.027l1.755,12.447v0.027h0.027
			l-0.027-0.027l1.593-12.42h0.136v-0.027h5.211v0.027h0.135l1.62,12.42v0.027h0.027l-0.027-0.027l1.728-12.447l5.347,0.027
			l-4.698,27.486h-4.806L136.699,49.895z"/>
	</g>
</g>
<g id="Chicken">
</g>
<g id="Copycat">
</g>
<g id="Quiet">
</g>
<g id="DOCTOR">
</g>
<g id="Psychiatrist">
</g>
<g id="Remove">
</g>
<g id="Layer_10">
</g>
<g id="Bipolar">
	<g id="Layer_12">
	</g>
</g>
<g id="YesorNo">
</g>
<g id="Deja_Vu">
</g>
<g id="Indecisive">
</g>
<g id="Greedy">
</g>
<g id="Pushup">
</g>
<g id="Clothes_Swap">
</g>
</svg>
