<?xml version="1.0" encoding="utf-8"?>
<!-- Generator: Adobe Illustrator 16.0.0, SVG Export Plug-In . SVG Version: 6.00 Build 0)  -->
<!DOCTYPE svg PUBLIC "-//W3C//DTD SVG 1.1//EN" "http://www.w3.org/Graphics/SVG/1.1/DTD/svg11.dtd">
<svg version="1.1" xmlns="http://www.w3.org/2000/svg" xmlns:xlink="http://www.w3.org/1999/xlink" x="0px" y="0px"
	 width="209.76px" height="62.36px" viewBox="0 0 209.76 62.36" enable-background="new 0 0 209.76 62.36" xml:space="preserve">
<g id="Layer_1">
</g>
<g id="Can_of_Whoop-Ass">
</g>
<g id="Gun_Show">
</g>
<g id="Chicken">
</g>
<g id="Copycat">
</g>
<g id="Quiet">
	<g>
		<path fill-rule="evenodd" clip-rule="evenodd" d="M36.1,40.499c0.686,2.061,2.472,3.695,2.302,6.121
			c0.135,0.006,0.262,0.014,0.389,0.017c1.671,0.022,2.951,1.004,3.329,2.55c0.373,1.532-0.313,3.014-1.79,3.797
			c-2.38,1.262-4.77,2.504-7.154,3.754c-0.632,0.331-1.261,0.665-1.893,0.993c-1.044,0.541-2.034,1.128-2.941,1.919
			c-2.329,2.03-5.774,2.219-8.414,0.599c-2.639-1.621-3.966-4.739-3.309-7.783c0.306-1.414,0.611-2.829,0.939-4.237
			c0.321-1.387,0.672-2.766,1.022-4.199C12.445,42.526,7.661,39.06,4.47,33.534c-2.377-4.115-3.283-8.59-2.702-13.314
			c1.181-9.586,8.439-17.288,17.712-18.866c9.61-1.637,18.876,2.988,23.288,11.465C46.804,20.572,46.25,33.022,36.1,40.499z
			 M35.684,38.694c7.229-5.226,10.281-15.818,5.705-24.96c-4.57-9.128-15.301-13.392-24.854-9.928
			C7.779,6.981,1.037,16.446,3.887,27.971c1.152,4.662,3.899,8.401,7.829,11.216c2.241,1.606,4.705,2.713,7.473,3.279
			c0.09-2.053,0.177-3.986,0.261-5.921c0.004-0.089,0.046-0.207,0.004-0.262c-0.152-0.2-0.296-0.461-0.507-0.551
			c-1.08-0.46-2.1-0.992-2.783-1.992c-0.656-0.96-0.574-2.024,0.124-2.963c0.772-1.039,1.883-1.519,3.021-1.989
			c0.267-0.109,0.551-0.354,0.675-0.611c0.623-1.285,1.624-2.014,3.043-2.042c1.389-0.027,2.404,0.645,3.087,1.868
			c0.148,0.266,0.468,0.475,0.755,0.617c0.872,0.432,1.845,0.705,2.642,1.242c2.088,1.411,2.087,3.54-0.016,4.937
			c-0.854,0.567-1.89,0.858-2.834,1.295c-0.189,0.087-0.468,0.251-0.483,0.402c-0.084,0.834-0.1,1.675-0.143,2.591
			c0.295-0.097,0.505-0.157,0.708-0.232c1.421-0.521,2.84-1.047,4.26-1.569c1.104-0.406,2.145-0.276,3.121,0.371
			C34.609,37.979,35.094,38.302,35.684,38.694z M28.647,48.797c-1.93,0.847-3.785,1.655-5.635,2.474
			c-0.458,0.203-0.891,0.275-1.119-0.276c-0.216-0.521,0.144-0.771,0.564-0.956c1.997-0.875,3.999-1.742,5.988-2.637
			c0.594-0.267,0.956-0.125,1.238,0.447c0.491,0.998,1.005,1.986,1.533,2.967c0.58,1.073,1.706,1.453,2.713,0.94
			c1.027-0.523,1.378-1.69,0.813-2.802c-0.896-1.768-1.804-3.528-2.722-5.284c-0.583-1.113-1.616-1.487-2.76-0.986
			c-3.221,1.412-6.437,2.832-9.642,4.276c-0.232,0.104-0.468,0.406-0.528,0.659c-0.415,1.708-0.801,3.425-1.162,5.146
			c-0.537,2.558,0.603,5.113,2.824,6.403c2.19,1.271,4.992,1.062,6.839-0.649c0.786-0.729,1.653-1.255,2.582-1.731
			c0.813-0.417,1.617-0.848,2.425-1.271c2.365-1.239,4.736-2.47,7.096-3.723c1.107-0.589,1.48-1.741,0.935-2.763
			c-0.533-0.997-1.668-1.32-2.763-0.781c-0.38,0.187-0.746,0.403-1.131,0.575c-0.327,0.145-0.438,0.325-0.403,0.713
			c0.157,1.766-0.794,3.199-2.365,3.651c-1.611,0.465-3.162-0.251-4.004-1.853C29.529,50.511,29.104,49.68,28.647,48.797z
			 M20.571,41.757c1.35-0.669,2.606-1.274,3.839-1.923c0.156-0.083,0.259-0.395,0.269-0.604c0.147-3.172,0.281-6.344,0.404-9.517
			c0.05-1.269-0.787-2.216-1.949-2.246c-1.135-0.029-1.989,0.844-2.044,2.089c-0.064,1.443-0.129,2.887-0.19,4.33
			C20.792,36.461,20.686,39.038,20.571,41.757z M19.614,45.45c0.361-0.149,0.567-0.23,0.769-0.319
			c2.79-1.229,5.574-2.47,8.368-3.688c1.759-0.766,3.535-0.135,4.433,1.552c0.501,0.943,0.982,1.898,1.475,2.846
			c0.336,0.647,0.675,1.293,1.008,1.93c1.263-0.459,1.73-1.654,1.132-2.842c-0.903-1.788-1.825-3.566-2.759-5.34
			c-0.563-1.069-1.499-1.406-2.646-1.019c-3.676,1.245-7.224,2.78-10.641,4.619c-0.197,0.106-0.402,0.291-0.49,0.49
			C20.032,44.202,19.863,44.754,19.614,45.45z"/>
		<path fill-rule="evenodd" clip-rule="evenodd" fill="#FFFFFF" d="M35.684,38.694c-0.59-0.393-1.074-0.716-1.561-1.038
			c-0.977-0.647-2.017-0.777-3.121-0.371c-1.42,0.522-2.839,1.048-4.26,1.569c-0.203,0.075-0.413,0.136-0.708,0.232
			c0.043-0.916,0.059-1.757,0.143-2.591c0.016-0.151,0.294-0.315,0.483-0.402c0.944-0.437,1.98-0.728,2.834-1.295
			c2.103-1.396,2.104-3.525,0.016-4.937c-0.797-0.537-1.77-0.811-2.642-1.242c-0.287-0.143-0.606-0.352-0.755-0.617
			c-0.683-1.224-1.698-1.896-3.087-1.868c-1.419,0.028-2.42,0.757-3.043,2.042c-0.124,0.257-0.408,0.502-0.675,0.611
			c-1.139,0.471-2.249,0.95-3.021,1.989c-0.698,0.938-0.78,2.003-0.124,2.963c0.684,1,1.703,1.532,2.783,1.992
			c0.211,0.09,0.354,0.351,0.507,0.551c0.042,0.055,0,0.173-0.004,0.262c-0.084,1.935-0.171,3.868-0.261,5.921
			c-2.768-0.566-5.231-1.673-7.473-3.279c-3.93-2.814-6.677-6.554-7.829-11.216C1.037,16.446,7.779,6.981,16.534,3.807
			c9.554-3.464,20.284,0.8,24.854,9.928C45.965,22.876,42.912,33.469,35.684,38.694z M12.369,19.68
			c0.002,1.869,1.474,3.343,3.338,3.344c1.848,0,3.352-1.499,3.356-3.346c0.003-1.838-1.512-3.351-3.356-3.35
			C13.85,16.329,12.366,17.818,12.369,19.68z M34.387,19.656c-0.008-1.859-1.502-3.34-3.358-3.328
			c-1.847,0.014-3.352,1.534-3.335,3.372c0.018,1.851,1.521,3.33,3.377,3.323C32.93,23.017,34.395,21.529,34.387,19.656z"/>
		<path fill-rule="evenodd" clip-rule="evenodd" fill="#FFFFFF" d="M28.647,48.797c0.457,0.883,0.882,1.714,1.316,2.539
			c0.842,1.602,2.393,2.317,4.004,1.853c1.571-0.452,2.522-1.886,2.365-3.651c-0.034-0.388,0.076-0.568,0.403-0.713
			c0.385-0.172,0.751-0.389,1.131-0.575c1.095-0.539,2.229-0.216,2.763,0.781c0.546,1.021,0.173,2.174-0.935,2.763
			c-2.359,1.253-4.73,2.483-7.096,3.723c-0.808,0.424-1.612,0.854-2.425,1.271c-0.929,0.477-1.796,1.003-2.582,1.731
			c-1.847,1.711-4.648,1.921-6.839,0.649c-2.222-1.29-3.361-3.846-2.824-6.403c0.361-1.721,0.747-3.438,1.162-5.146
			c0.061-0.253,0.296-0.555,0.528-0.659c3.205-1.444,6.421-2.864,9.642-4.276c1.144-0.501,2.177-0.127,2.76,0.986
			c0.918,1.756,1.825,3.517,2.722,5.284c0.565,1.111,0.215,2.278-0.813,2.802c-1.007,0.513-2.133,0.133-2.713-0.94
			c-0.528-0.98-1.042-1.969-1.533-2.967c-0.282-0.572-0.645-0.714-1.238-0.447c-1.989,0.895-3.991,1.762-5.988,2.637
			c-0.421,0.186-0.78,0.436-0.564,0.956c0.229,0.552,0.661,0.479,1.119,0.276C24.862,50.452,26.718,49.644,28.647,48.797z"/>
		<path fill-rule="evenodd" clip-rule="evenodd" fill="#FFFFFF" d="M20.571,41.757c0.114-2.719,0.221-5.296,0.328-7.871
			c0.062-1.443,0.126-2.887,0.19-4.33c0.055-1.245,0.909-2.118,2.044-2.089c1.162,0.03,1.999,0.978,1.949,2.246
			c-0.123,3.173-0.257,6.345-0.404,9.517c-0.01,0.21-0.112,0.521-0.269,0.604C23.178,40.482,21.921,41.088,20.571,41.757z"/>
		<path fill-rule="evenodd" clip-rule="evenodd" fill="#FFFFFF" d="M19.614,45.45c0.249-0.696,0.418-1.248,0.648-1.771
			c0.088-0.199,0.293-0.384,0.49-0.49c3.417-1.839,6.965-3.374,10.641-4.619c1.146-0.388,2.083-0.051,2.646,1.019
			c0.934,1.773,1.855,3.552,2.759,5.34c0.599,1.188,0.131,2.383-1.132,2.842c-0.333-0.637-0.672-1.282-1.008-1.93
			c-0.492-0.947-0.974-1.902-1.475-2.846c-0.897-1.687-2.674-2.317-4.433-1.552c-2.794,1.219-5.578,2.459-8.368,3.688
			C20.182,45.22,19.976,45.301,19.614,45.45z"/>
		<path fill-rule="evenodd" clip-rule="evenodd" d="M12.369,19.68c-0.003-1.861,1.48-3.351,3.338-3.352
			c1.845-0.001,3.359,1.512,3.356,3.35c-0.005,1.847-1.509,3.346-3.356,3.346C13.843,23.022,12.371,21.549,12.369,19.68z"/>
		<path fill-rule="evenodd" clip-rule="evenodd" d="M34.387,19.656c0.008,1.873-1.457,3.36-3.316,3.367
			c-1.856,0.007-3.359-1.473-3.377-3.323c-0.017-1.838,1.488-3.358,3.335-3.372C32.885,16.316,34.379,17.797,34.387,19.656z"/>
	</g>
	<g>
		<path d="M65.257,40.299c0.07,0.07,0.121,0.154,0.151,0.251c0.031,0.097,0.046,0.193,0.046,0.29c0,0.22-0.072,0.417-0.217,0.594
			c-0.146,0.175-0.316,0.322-0.515,0.441c-0.197,0.118-0.401,0.208-0.612,0.27s-0.383,0.093-0.515,0.093
			c-0.141,0-0.276-0.035-0.409-0.105c-0.131-0.07-0.25-0.154-0.355-0.251s-0.197-0.193-0.277-0.289
			c-0.078-0.098-0.136-0.168-0.171-0.211c-0.229-0.316-0.438-0.64-0.626-0.97c-0.189-0.329-0.363-0.675-0.521-1.034
			c-0.158-0.361-0.31-0.738-0.454-1.135c-0.146-0.395-0.288-0.816-0.429-1.266c-0.132,0.019-0.286,0.036-0.461,0.053
			c-0.177,0.019-0.356,0.033-0.541,0.047c-0.185,0.013-0.365,0.024-0.541,0.033s-0.325,0.013-0.447,0.013
			c-0.959,0-1.791-0.153-2.499-0.462c-0.707-0.307-1.312-0.816-1.813-1.529c-0.325-0.456-0.573-0.978-0.745-1.562
			c-0.171-0.585-0.257-1.229-0.257-1.932c0-0.659,0.097-1.34,0.29-2.044c0.193-0.702,0.459-1.405,0.798-2.109
			c0.338-0.702,0.742-1.393,1.213-2.069c0.47-0.677,0.979-1.32,1.529-1.932c0.549-0.61,1.129-1.175,1.74-1.694
			c0.61-0.518,1.232-0.964,1.865-1.338c0.633-0.373,1.261-0.666,1.886-0.877c0.623-0.211,1.226-0.316,1.806-0.316
			c0.237,0,0.429,0.029,0.573,0.086c0.146,0.058,0.306,0.121,0.481,0.191l0.435,0.185c0.246,0.044,0.473,0.09,0.68,0.139
			c0.206,0.048,0.406,0.105,0.6,0.171c0.193,0.066,0.389,0.147,0.587,0.244c0.197,0.097,0.41,0.216,0.64,0.355
			c0.369,0.229,0.688,0.546,0.955,0.949c0.269,0.405,0.488,0.854,0.659,1.346c0.172,0.492,0.299,1.013,0.383,1.562
			c0.083,0.55,0.125,1.084,0.125,1.603c0,1.02-0.193,2.001-0.58,2.946c-0.387,0.944-0.907,1.841-1.563,2.689
			c-0.654,0.848-1.417,1.639-2.287,2.373c-0.87,0.733-1.784,1.396-2.742,1.983c-0.088,0.045-0.151,0.084-0.191,0.119
			c-0.039,0.035-0.06,0.084-0.06,0.145c0.123,0.467,0.255,0.875,0.396,1.227c0.14,0.352,0.303,0.677,0.487,0.976
			s0.397,0.587,0.64,0.863C64.635,39.687,64.923,39.982,65.257,40.299z M55.396,30.465c-0.062,0.246-0.11,0.487-0.145,0.725
			c-0.036,0.237-0.053,0.466-0.053,0.686c0,0.396,0.057,0.767,0.171,1.114c0.114,0.347,0.288,0.648,0.521,0.903
			c0.233,0.255,0.529,0.454,0.891,0.6c0.359,0.145,0.791,0.217,1.291,0.217c0.193,0,0.367-0.004,0.521-0.013
			c0.153-0.009,0.297-0.02,0.428-0.033c0.133-0.013,0.262-0.032,0.39-0.06c0.127-0.025,0.257-0.053,0.389-0.078
			c-0.026-0.158-0.06-0.35-0.099-0.574c-0.04-0.224-0.077-0.452-0.112-0.686c-0.035-0.232-0.063-0.448-0.086-0.646
			c-0.021-0.198-0.032-0.35-0.032-0.455s0.008-0.232,0.025-0.382s0.068-0.293,0.152-0.429c0.083-0.137,0.208-0.253,0.375-0.35
			s0.4-0.146,0.699-0.146c0.334,0,0.584,0.104,0.752,0.311c0.166,0.206,0.296,0.464,0.389,0.771
			c0.092,0.308,0.164,0.639,0.217,0.995c0.053,0.355,0.133,0.688,0.238,0.995c0.588-0.352,1.175-0.758,1.76-1.22
			c0.584-0.461,1.131-0.978,1.641-1.549s0.965-1.206,1.365-1.905c0.399-0.698,0.709-1.47,0.93-2.313
			c0.053-0.22,0.094-0.439,0.125-0.659c0.03-0.22,0.046-0.439,0.046-0.659c0-0.448-0.062-0.898-0.185-1.352
			c-0.123-0.452-0.314-0.858-0.573-1.22c-0.26-0.359-0.594-0.654-1.002-0.883c-0.409-0.229-0.895-0.343-1.457-0.343
			c-0.396,0-0.775,0.028-1.141,0.086c-0.364,0.057-0.731,0.151-1.101,0.283s-0.754,0.306-1.153,0.521
			c-0.4,0.216-0.829,0.481-1.286,0.798c-0.563,0.387-1.103,0.846-1.621,1.378c-0.519,0.531-0.991,1.103-1.417,1.714
			c-0.427,0.61-0.8,1.245-1.121,1.905C55.807,29.172,55.563,29.823,55.396,30.465z"/>
		<path d="M73.431,26.681c0.035-0.141,0.086-0.262,0.151-0.362c0.066-0.102,0.137-0.183,0.211-0.244
			c0.075-0.062,0.143-0.105,0.205-0.132c0.061-0.026,0.109-0.04,0.145-0.04c0.097,0,0.211,0.012,0.343,0.033
			c0.132,0.022,0.259,0.042,0.382,0.06c0.141,0.026,0.277,0.053,0.409,0.079c0.229,0.009,0.394,0.102,0.494,0.277
			c0.102,0.176,0.151,0.387,0.151,0.633c0,0.193-0.025,0.373-0.078,0.54c-0.3,1.099-0.572,2.055-0.818,2.867
			c-0.246,0.813-0.454,1.506-0.626,2.077c-0.171,0.571-0.303,1.037-0.396,1.396c-0.092,0.361-0.139,0.633-0.139,0.818
			c0,0.184,0.024,0.391,0.073,0.619c0.048,0.229,0.12,0.441,0.218,0.64c0.096,0.197,0.219,0.362,0.369,0.494
			c0.148,0.132,0.329,0.198,0.54,0.198c0.369,0,0.742-0.114,1.12-0.344c0.378-0.228,0.738-0.507,1.082-0.837
			c0.342-0.329,0.652-0.681,0.929-1.055c0.277-0.373,0.503-0.705,0.679-0.995l0.344-0.594c0.211-0.369,0.406-0.793,0.586-1.271
			c0.181-0.479,0.339-0.96,0.475-1.443c0.137-0.483,0.253-0.938,0.35-1.365c0.097-0.426,0.172-0.767,0.225-1.021l0.342-1.754
			c0.07-0.333,0.179-0.564,0.323-0.691c0.146-0.128,0.39-0.191,0.731-0.191c0.22,0,0.418,0.024,0.594,0.072
			c0.176,0.049,0.325,0.135,0.448,0.258s0.215,0.287,0.276,0.494c0.062,0.206,0.093,0.473,0.093,0.797
			c0,0.379-0.06,0.842-0.178,1.392c-0.119,0.549-0.249,1.101-0.39,1.654c-0.078,0.325-0.16,0.67-0.243,1.035
			c-0.084,0.364-0.158,0.729-0.225,1.094c-0.065,0.365-0.118,0.712-0.158,1.042c-0.039,0.329-0.06,0.626-0.06,0.89
			c0,0.448,0.016,0.896,0.047,1.345c0.03,0.448,0.046,0.923,0.046,1.424c0,0.229-0.007,0.431-0.02,0.606
			c-0.014,0.176-0.033,0.308-0.06,0.396c-0.097,0.343-0.222,0.598-0.376,0.765c-0.153,0.167-0.415,0.251-0.784,0.251
			c-0.255,0-0.457-0.029-0.606-0.086c-0.149-0.058-0.266-0.134-0.35-0.23c-0.083-0.097-0.138-0.205-0.165-0.323
			c-0.025-0.119-0.044-0.239-0.053-0.362l-0.145-2.492l-0.119,0.039c-0.289,0.369-0.605,0.783-0.949,1.24
			c-0.342,0.457-0.721,0.883-1.133,1.278c-0.414,0.396-0.864,0.728-1.352,0.995c-0.488,0.269-1.018,0.402-1.589,0.402
			c-0.114,0-0.262-0.028-0.441-0.086c-0.181-0.057-0.367-0.13-0.561-0.217c-0.193-0.089-0.378-0.188-0.554-0.297
			c-0.176-0.11-0.316-0.213-0.422-0.311c-0.483-0.447-0.826-0.953-1.028-1.516s-0.304-1.134-0.304-1.714
			c0-0.325,0.027-0.65,0.08-0.976s0.113-0.64,0.184-0.942c0.07-0.304,0.147-0.589,0.231-0.857c0.083-0.268,0.151-0.507,0.204-0.718
			c0.167-0.66,0.316-1.24,0.448-1.74c0.132-0.502,0.248-0.94,0.35-1.318c0.101-0.378,0.187-0.701,0.257-0.97
			C73.316,27.118,73.378,26.883,73.431,26.681z"/>
		<path d="M86.073,36.002c0.132-0.51,0.29-1.104,0.475-1.78s0.38-1.393,0.587-2.149c0.206-0.755,0.415-1.529,0.626-2.32
			s0.409-1.56,0.593-2.307c0.009-0.035,0.04-0.095,0.093-0.178c0.053-0.084,0.127-0.167,0.224-0.251
			c0.097-0.083,0.22-0.155,0.369-0.218c0.149-0.061,0.325-0.092,0.527-0.092c0.149,0,0.295,0.016,0.436,0.046
			c0.141,0.031,0.266,0.077,0.376,0.139c0.109,0.062,0.197,0.143,0.264,0.244c0.065,0.101,0.099,0.218,0.099,0.349
			c0,0.027,0,0.056,0,0.086c0,0.031-0.005,0.06-0.014,0.086l-0.369,1.397c-0.413,1.564-0.832,3.134-1.259,4.706
			c-0.426,1.574-0.842,3.151-1.245,4.733c-0.019,0.053-0.045,0.118-0.08,0.198c-0.035,0.078-0.083,0.158-0.145,0.236
			c-0.062,0.08-0.137,0.146-0.225,0.198s-0.193,0.079-0.316,0.079c-0.229,0-0.431-0.046-0.605-0.139
			c-0.177-0.092-0.326-0.209-0.449-0.35s-0.215-0.294-0.276-0.461s-0.093-0.325-0.093-0.475c0-0.044,0-0.083,0-0.119
			c0-0.034,0.009-0.074,0.027-0.118L86.073,36.002z M89.514,22.356c0.044-0.185,0.123-0.409,0.238-0.673
			c0.113-0.264,0.316-0.5,0.605-0.711c0.141-0.08,0.313-0.152,0.515-0.218c0.202-0.066,0.347-0.099,0.435-0.099
			s0.179,0.03,0.271,0.092c0.093,0.062,0.174,0.128,0.244,0.197c0.088,0.089,0.171,0.186,0.251,0.291
			c0.219,0.018,0.362,0.097,0.428,0.236c0.066,0.142,0.1,0.309,0.1,0.502c0,0.141-0.014,0.268-0.04,0.382s-0.049,0.207-0.065,0.276
			c-0.053,0.186-0.154,0.354-0.304,0.508c-0.149,0.154-0.321,0.286-0.515,0.396c-0.193,0.11-0.395,0.196-0.605,0.257
			c-0.211,0.063-0.396,0.093-0.555,0.093c-0.202,0-0.357-0.035-0.468-0.105c-0.109-0.07-0.248-0.22-0.415-0.448
			c-0.097-0.132-0.151-0.235-0.165-0.31c-0.013-0.075-0.02-0.139-0.02-0.191c0-0.097,0.007-0.183,0.02-0.257
			C89.481,22.499,89.496,22.427,89.514,22.356z"/>
		<path d="M92.744,33.325c0-0.378,0.101-0.698,0.304-0.962c0.201-0.264,0.47-0.439,0.804-0.527c0.097-0.193,0.246-0.455,0.448-0.785
			c0.202-0.329,0.452-0.688,0.752-1.074c0.298-0.387,0.639-0.775,1.021-1.167c0.382-0.391,0.804-0.747,1.266-1.067
			c0.461-0.321,0.958-0.582,1.489-0.785c0.532-0.201,1.097-0.303,1.694-0.303c0.51,0,0.953,0.062,1.332,0.185
			c0.377,0.123,0.689,0.295,0.936,0.515s0.431,0.48,0.554,0.784c0.123,0.303,0.185,0.631,0.185,0.981c0,0.3-0.039,0.585-0.119,0.857
			c-0.123,0.492-0.352,0.923-0.686,1.292s-0.727,0.692-1.18,0.969c-0.452,0.277-0.944,0.508-1.477,0.692
			c-0.531,0.185-1.063,0.339-1.595,0.461c-0.532,0.124-1.044,0.218-1.536,0.284c-0.492,0.065-0.919,0.116-1.279,0.151
			c-0.078,0.158-0.146,0.358-0.204,0.6c-0.057,0.242-0.085,0.478-0.085,0.705c0,0.511,0.201,0.906,0.605,1.188
			s0.963,0.422,1.675,0.422c0.413,0,0.809-0.047,1.187-0.139c0.378-0.093,0.736-0.211,1.074-0.356
			c0.339-0.145,0.657-0.303,0.956-0.475c0.299-0.171,0.571-0.34,0.817-0.507c0.316-0.211,0.617-0.39,0.903-0.534
			c0.285-0.146,0.538-0.218,0.758-0.218s0.36,0.055,0.422,0.165c0.062,0.109,0.093,0.227,0.093,0.349
			c0,0.071-0.003,0.139-0.007,0.205c-0.005,0.065-0.012,0.121-0.021,0.164c-0.044,0.229-0.131,0.458-0.264,0.686
			c-0.131,0.229-0.299,0.427-0.5,0.594c-0.915,0.721-1.853,1.235-2.815,1.543c-0.962,0.307-1.988,0.461-3.078,0.461
			c-0.211,0-0.459-0.014-0.745-0.039c-0.285-0.027-0.582-0.08-0.89-0.158c-0.308-0.08-0.611-0.193-0.909-0.344
			c-0.3-0.148-0.565-0.347-0.798-0.593c-0.233-0.246-0.422-0.549-0.567-0.909c-0.145-0.36-0.217-0.796-0.217-1.306
			c0-0.413,0.057-0.874,0.171-1.384c-0.114-0.018-0.222-0.077-0.323-0.179C92.795,33.666,92.744,33.519,92.744,33.325z
			 M100.997,29.674c0.018-0.044,0.026-0.084,0.026-0.119s0-0.074,0-0.119c0-0.236-0.088-0.415-0.264-0.533
			c-0.176-0.119-0.387-0.178-0.633-0.178c-0.387,0-0.767,0.101-1.141,0.303c-0.373,0.202-0.725,0.455-1.055,0.758
			c-0.329,0.304-0.622,0.629-0.876,0.976c-0.256,0.348-0.453,0.662-0.594,0.942c0.633-0.053,1.213-0.138,1.74-0.257
			c0.527-0.118,0.986-0.268,1.378-0.448c0.391-0.18,0.707-0.382,0.949-0.606C100.771,30.168,100.927,29.929,100.997,29.674z"/>
		<path d="M108.155,34.314c0-0.738,0.084-1.506,0.251-2.301c0.167-0.796,0.343-1.558,0.527-2.287
			c-0.229-0.009-0.462-0.044-0.698-0.105c-0.238-0.062-0.453-0.146-0.646-0.251s-0.352-0.235-0.475-0.389
			c-0.123-0.154-0.185-0.332-0.185-0.534c0-0.079,0.018-0.18,0.053-0.303s0.086-0.244,0.151-0.363
			c0.066-0.118,0.152-0.22,0.258-0.303c0.105-0.084,0.224-0.125,0.355-0.125h1.767c0.167,0,0.281-0.073,0.343-0.218
			c0.062-0.146,0.109-0.288,0.145-0.429c0.114-0.51,0.223-0.951,0.323-1.325c0.102-0.373,0.187-0.689,0.257-0.949
			c0.07-0.259,0.126-0.47,0.165-0.633c0.04-0.162,0.06-0.292,0.06-0.389c0-0.114-0.005-0.224-0.014-0.329s-0.013-0.251-0.013-0.436
			v-0.132c0-0.07,0.007-0.162,0.02-0.276c0.014-0.114,0.055-0.277,0.126-0.488c0.053-0.167,0.148-0.325,0.289-0.475
			s0.348-0.225,0.62-0.225c0.237,0,0.439,0.049,0.606,0.146s0.303,0.224,0.408,0.382s0.186,0.339,0.238,0.541
			s0.078,0.404,0.078,0.606c0,0.22-0.021,0.418-0.065,0.593l-0.962,3.691c0.475-0.078,0.896-0.153,1.266-0.224
			s0.738-0.141,1.107-0.211c0.403-0.079,0.753-0.153,1.048-0.224c0.294-0.07,0.547-0.13,0.758-0.179
			c0.211-0.048,0.389-0.088,0.534-0.118c0.145-0.031,0.266-0.047,0.362-0.047c0.141,0,0.283,0.012,0.429,0.033
			c0.145,0.022,0.272,0.06,0.382,0.112c0.11,0.053,0.2,0.128,0.271,0.224c0.07,0.098,0.105,0.225,0.105,0.383
			c0,0.211-0.042,0.397-0.125,0.561c-0.084,0.162-0.191,0.303-0.323,0.422c-0.132,0.118-0.281,0.215-0.448,0.29
			c-0.167,0.074-0.334,0.13-0.501,0.165c-0.141,0.025-0.323,0.065-0.547,0.118c-0.225,0.053-0.471,0.11-0.738,0.171
			c-0.269,0.063-0.548,0.128-0.837,0.198c-0.291,0.07-0.572,0.141-0.844,0.211c-0.405,0.105-0.75,0.193-1.035,0.264
			c-0.286,0.07-0.53,0.123-0.732,0.158s-0.366,0.062-0.494,0.079c-0.127,0.018-0.23,0.026-0.31,0.026
			c-0.167,0.501-0.313,0.993-0.435,1.477c-0.124,0.483-0.227,0.934-0.311,1.352c-0.083,0.417-0.145,0.791-0.185,1.12
			c-0.039,0.33-0.06,0.587-0.06,0.771c0,0.237,0.022,0.464,0.066,0.679c0.044,0.216,0.119,0.402,0.225,0.561
			s0.248,0.283,0.428,0.376c0.181,0.092,0.406,0.139,0.68,0.139c0.465,0,0.922-0.128,1.371-0.383
			c0.447-0.255,0.876-0.578,1.285-0.969c0.408-0.392,0.795-0.819,1.16-1.285c0.364-0.466,0.7-0.91,1.008-1.332
			c0.105-0.158,0.242-0.237,0.409-0.237c0.053,0,0.116,0.009,0.191,0.026c0.074,0.018,0.146,0.049,0.218,0.092
			c0.069,0.045,0.129,0.102,0.178,0.172c0.048,0.07,0.072,0.154,0.072,0.25c0,0.071-0.005,0.124-0.014,0.158
			c-0.141,0.546-0.357,1.093-0.652,1.642c-0.294,0.55-0.596,1.101-0.902,1.655c-0.105,0.193-0.244,0.382-0.416,0.566
			c-0.171,0.185-0.358,0.362-0.561,0.534c-0.202,0.171-0.413,0.334-0.633,0.487c-0.22,0.154-0.426,0.293-0.619,0.416
			c-0.334,0.211-0.699,0.355-1.094,0.435c-0.396,0.079-0.778,0.118-1.147,0.118c-0.571,0-1.079-0.103-1.522-0.31
			c-0.444-0.206-0.817-0.487-1.121-0.844c-0.303-0.355-0.533-0.771-0.691-1.245S108.155,34.859,108.155,34.314z"/>
		<path d="M133.705,37.795c0.035-0.158,0.086-0.308,0.151-0.449c0.066-0.14,0.139-0.298,0.218-0.475
			c0.079-0.175,0.162-0.384,0.25-0.626c0.088-0.241,0.176-0.542,0.264-0.903l0.515-2.109c0.123-0.509,0.251-1.03,0.382-1.562
			c0.133-0.532,0.286-1.132,0.462-1.8c0.141-0.536,0.31-1.097,0.508-1.681c0.197-0.585,0.404-1.188,0.619-1.813
			c0.216-0.623,0.433-1.266,0.653-1.924c0.219-0.66,0.417-1.341,0.593-2.044c0.009-0.026,0.013-0.062,0.013-0.105
			c0-0.07-0.021-0.114-0.065-0.132s-0.102-0.026-0.171-0.026c-0.221,0-0.402-0.033-0.548-0.099
			c-0.145-0.066-0.259-0.152-0.343-0.258c-0.083-0.105-0.143-0.226-0.178-0.362c-0.035-0.136-0.053-0.278-0.053-0.429
			c0-0.386,0.046-0.696,0.139-0.929c0.092-0.233,0.211-0.413,0.355-0.541c0.146-0.127,0.304-0.22,0.475-0.276
			c0.172-0.058,0.339-0.104,0.501-0.139c0.163-0.035,0.306-0.072,0.429-0.112c0.123-0.039,0.211-0.112,0.264-0.218
			c0.088-0.184,0.169-0.38,0.244-0.586c0.074-0.207,0.169-0.397,0.283-0.574c0.114-0.175,0.255-0.32,0.422-0.435
			s0.387-0.171,0.659-0.171c0.193,0,0.364,0.053,0.515,0.158c0.148,0.105,0.278,0.236,0.389,0.395
			c0.109,0.158,0.204,0.328,0.283,0.508c0.079,0.181,0.149,0.346,0.211,0.494c0.905,0.027,1.689,0.08,2.354,0.158
			c0.663,0.08,1.162,0.15,1.496,0.211c0.659,0.124,1.32,0.309,1.984,0.555c0.663,0.246,1.261,0.564,1.793,0.955
			c0.531,0.392,0.967,0.853,1.305,1.385c0.339,0.531,0.508,1.141,0.508,1.826c0,0.352-0.039,0.716-0.119,1.094l-0.092,0.461
			c-0.07,0.369-0.218,0.713-0.441,1.029c-0.225,0.316-0.478,0.602-0.758,0.856c-0.783,0.721-1.64,1.325-2.571,1.813
			c-0.932,0.488-1.903,0.899-2.913,1.233c-1.012,0.334-2.044,0.615-3.099,0.844s-2.097,0.443-3.124,0.646l-0.369,0.053
			c-0.203,0.026-0.321,0.102-0.356,0.224c-0.176,0.607-0.314,1.139-0.415,1.596c-0.102,0.457-0.196,0.895-0.283,1.312
			c-0.089,0.418-0.177,0.835-0.264,1.253c-0.089,0.417-0.198,0.881-0.33,1.391c-0.044,0.167-0.123,0.365-0.237,0.594
			s-0.251,0.443-0.409,0.646s-0.34,0.376-0.547,0.521c-0.206,0.146-0.424,0.218-0.652,0.218c-0.158,0-0.295-0.044-0.408-0.132
			c-0.115-0.088-0.209-0.2-0.284-0.336c-0.074-0.137-0.132-0.283-0.171-0.441c-0.04-0.158-0.06-0.308-0.06-0.449
			c0-0.053,0-0.103,0-0.151C133.679,37.885,133.688,37.839,133.705,37.795z M138.939,28.052c-0.019,0.062-0.042,0.139-0.073,0.23
			c-0.03,0.093-0.06,0.189-0.085,0.29c-0.027,0.102-0.049,0.193-0.066,0.277c-0.018,0.083-0.026,0.143-0.026,0.178
			c0,0.044,0.007,0.081,0.02,0.112c0.014,0.03,0.042,0.046,0.086,0.046c0.026,0,0.109-0.011,0.251-0.033
			c0.14-0.021,0.31-0.05,0.507-0.086c0.198-0.034,0.411-0.074,0.64-0.118s0.448-0.088,0.659-0.132
			c0.571-0.123,1.182-0.279,1.833-0.468c0.649-0.189,1.298-0.402,1.944-0.64c0.646-0.237,1.263-0.492,1.853-0.765
			c0.588-0.272,1.111-0.563,1.568-0.87c0.483-0.325,0.87-0.65,1.16-0.976s0.436-0.673,0.436-1.042c0-0.219-0.029-0.415-0.086-0.586
			c-0.058-0.172-0.121-0.327-0.191-0.469c-0.264-0.43-0.594-0.769-0.988-1.015c-0.396-0.246-0.827-0.431-1.293-0.554
			s-0.953-0.202-1.463-0.237s-1.011-0.053-1.503-0.053c-0.132,0-0.332,0.009-0.6,0.026c-0.269,0.018-0.55,0.039-0.844,0.066
			c-0.295,0.025-0.567,0.059-0.817,0.099c-0.251,0.039-0.42,0.085-0.508,0.138c-0.044,0.027-0.081,0.071-0.112,0.133
			c-0.03,0.062-0.055,0.114-0.072,0.158c-0.07,0.176-0.167,0.419-0.29,0.731c-0.123,0.312-0.255,0.661-0.396,1.048
			s-0.288,0.796-0.441,1.227c-0.154,0.431-0.302,0.85-0.442,1.259c-0.141,0.408-0.27,0.791-0.389,1.146
			C139.091,27.531,139,27.823,138.939,28.052z"/>
		<path d="M155.484,20.34c0.043-0.352,0.113-0.677,0.211-0.977c0.096-0.298,0.226-0.547,0.389-0.744
			c0.162-0.198,0.371-0.297,0.626-0.297c0.141,0,0.297,0.026,0.468,0.079c0.172,0.053,0.334,0.125,0.488,0.218
			c0.153,0.092,0.283,0.204,0.389,0.336s0.158,0.277,0.158,0.436c0,0.07-0.014,0.151-0.039,0.243
			c-0.027,0.093-0.049,0.183-0.066,0.271l-3.296,13.21c-0.132,0.527-0.242,1.03-0.329,1.51c-0.089,0.479-0.154,0.872-0.198,1.18
			v0.316c0,0.264-0.018,0.552-0.053,0.863c-0.035,0.313-0.102,0.603-0.198,0.87c-0.097,0.269-0.23,0.492-0.401,0.673
			c-0.172,0.18-0.394,0.271-0.666,0.271c-0.237,0-0.444-0.051-0.62-0.152c-0.176-0.101-0.32-0.23-0.435-0.389
			s-0.198-0.327-0.251-0.508c-0.053-0.18-0.078-0.35-0.078-0.508c0-0.14,0.013-0.313,0.039-0.521
			c0.026-0.206,0.06-0.422,0.099-0.646c0.04-0.225,0.081-0.448,0.126-0.673c0.043-0.224,0.087-0.419,0.131-0.587l3.402-13.5
			C155.404,21.017,155.439,20.691,155.484,20.34z"/>
		<path d="M158.081,33.325c0-0.378,0.101-0.698,0.304-0.962c0.201-0.264,0.47-0.439,0.804-0.527
			c0.097-0.193,0.246-0.455,0.448-0.785c0.202-0.329,0.452-0.688,0.752-1.074c0.298-0.387,0.639-0.775,1.021-1.167
			c0.382-0.391,0.804-0.747,1.266-1.067c0.461-0.321,0.958-0.582,1.489-0.785c0.532-0.201,1.097-0.303,1.694-0.303
			c0.51,0,0.953,0.062,1.332,0.185c0.377,0.123,0.689,0.295,0.936,0.515s0.431,0.48,0.554,0.784
			c0.123,0.303,0.185,0.631,0.185,0.981c0,0.3-0.039,0.585-0.119,0.857c-0.123,0.492-0.352,0.923-0.686,1.292
			s-0.727,0.692-1.18,0.969c-0.452,0.277-0.944,0.508-1.477,0.692c-0.531,0.185-1.063,0.339-1.595,0.461
			c-0.532,0.124-1.044,0.218-1.536,0.284c-0.492,0.065-0.919,0.116-1.279,0.151c-0.078,0.158-0.146,0.358-0.204,0.6
			c-0.057,0.242-0.085,0.478-0.085,0.705c0,0.511,0.201,0.906,0.605,1.188s0.963,0.422,1.675,0.422c0.413,0,0.809-0.047,1.187-0.139
			c0.378-0.093,0.736-0.211,1.074-0.356c0.339-0.145,0.657-0.303,0.956-0.475c0.299-0.171,0.571-0.34,0.817-0.507
			c0.316-0.211,0.617-0.39,0.903-0.534c0.285-0.146,0.538-0.218,0.758-0.218s0.36,0.055,0.422,0.165
			c0.062,0.109,0.093,0.227,0.093,0.349c0,0.071-0.003,0.139-0.007,0.205c-0.005,0.065-0.012,0.121-0.021,0.164
			c-0.044,0.229-0.131,0.458-0.264,0.686c-0.131,0.229-0.299,0.427-0.5,0.594c-0.915,0.721-1.853,1.235-2.815,1.543
			c-0.962,0.307-1.988,0.461-3.078,0.461c-0.211,0-0.459-0.014-0.745-0.039c-0.285-0.027-0.582-0.08-0.89-0.158
			c-0.308-0.08-0.611-0.193-0.909-0.344c-0.3-0.148-0.565-0.347-0.798-0.593c-0.233-0.246-0.422-0.549-0.567-0.909
			c-0.145-0.36-0.217-0.796-0.217-1.306c0-0.413,0.057-0.874,0.171-1.384c-0.114-0.018-0.222-0.077-0.323-0.179
			C158.132,33.666,158.081,33.519,158.081,33.325z M166.334,29.674c0.018-0.044,0.026-0.084,0.026-0.119s0-0.074,0-0.119
			c0-0.236-0.088-0.415-0.264-0.533c-0.176-0.119-0.387-0.178-0.633-0.178c-0.387,0-0.767,0.101-1.141,0.303
			c-0.373,0.202-0.725,0.455-1.055,0.758c-0.329,0.304-0.622,0.629-0.876,0.976c-0.256,0.348-0.453,0.662-0.594,0.942
			c0.633-0.053,1.213-0.138,1.74-0.257c0.527-0.118,0.986-0.268,1.378-0.448c0.391-0.18,0.707-0.382,0.949-0.606
			C166.107,30.168,166.264,29.929,166.334,29.674z"/>
		<path d="M178.015,37.848c0-0.255,0.03-0.561,0.093-0.917c0.061-0.355,0.092-0.798,0.092-1.325
			c-0.29,0.211-0.611,0.462-0.963,0.752s-0.716,0.566-1.094,0.83s-0.754,0.486-1.127,0.666c-0.374,0.181-0.724,0.271-1.049,0.271
			c-0.264,0-0.514-0.04-0.751-0.118c-0.237-0.08-0.439-0.186-0.606-0.316c-0.466-0.369-0.802-0.738-1.009-1.107
			c-0.206-0.369-0.31-0.8-0.31-1.293c0-0.219,0.02-0.447,0.06-0.686c0.039-0.236,0.099-0.509,0.178-0.816
			c0.334-1.389,0.907-2.675,1.721-3.856c0.813-1.183,1.821-2.19,3.025-3.026c0.466-0.324,0.932-0.533,1.397-0.626
			c0.466-0.092,0.927-0.138,1.385-0.138c0.201,0,0.428,0.013,0.679,0.039c0.25,0.026,0.477,0.053,0.679,0.079
			c0.202-0.044,0.367-0.074,0.494-0.093c0.128-0.017,0.262-0.025,0.402-0.025c0.264,0,0.483,0.035,0.659,0.105
			s0.316,0.164,0.422,0.283c0.105,0.118,0.183,0.255,0.23,0.408c0.049,0.154,0.073,0.314,0.073,0.481
			c0,0.229-0.036,0.446-0.105,0.652c-0.071,0.207-0.142,0.415-0.211,0.626l-1.74,6.948c-0.036,0.378-0.066,0.726-0.093,1.042
			s-0.079,0.61-0.158,0.883c-0.026,0.079-0.06,0.178-0.099,0.297c-0.04,0.118-0.104,0.232-0.191,0.343
			c-0.088,0.109-0.197,0.204-0.33,0.283c-0.131,0.079-0.303,0.118-0.514,0.118c-0.272,0-0.49-0.018-0.652-0.053
			c-0.163-0.035-0.288-0.085-0.376-0.151c-0.088-0.065-0.146-0.145-0.171-0.237C178.027,38.078,178.015,37.971,178.015,37.848z
			 M173.638,33.865c-0.035,0.124-0.072,0.3-0.112,0.527c-0.039,0.229-0.059,0.458-0.059,0.686c0,0.238,0.034,0.451,0.105,0.64
			c0.069,0.189,0.224,0.284,0.461,0.284c0.369,0,0.714-0.082,1.035-0.244c0.32-0.163,0.621-0.358,0.902-0.587
			c0.378-0.308,0.763-0.652,1.154-1.035c0.391-0.382,0.76-0.784,1.107-1.206c0.347-0.422,0.654-0.854,0.923-1.299
			c0.268-0.443,0.463-0.885,0.587-1.324c0.069-0.255,0.129-0.55,0.178-0.884c0.048-0.334,0.072-0.633,0.072-0.896
			c0-0.114-0.026-0.227-0.079-0.336c-0.053-0.11-0.154-0.165-0.304-0.165c-0.431,0-0.863,0.084-1.298,0.25
			c-0.436,0.168-0.855,0.392-1.259,0.673c-0.405,0.281-0.789,0.613-1.154,0.995c-0.364,0.383-0.696,0.791-0.995,1.227
			c-0.299,0.435-0.556,0.883-0.771,1.345C173.917,32.976,173.752,33.427,173.638,33.865z"/>
		<path d="M185.016,36.08c0.07,0,0.134,0.01,0.191,0.027c0.057,0.018,0.12,0.037,0.191,0.059c0.069,0.022,0.148,0.042,0.236,0.06
			s0.202,0.026,0.344,0.026c0.412,0,0.872-0.044,1.377-0.132c0.506-0.088,0.982-0.202,1.431-0.343s0.833-0.301,1.153-0.481
			c0.321-0.18,0.503-0.366,0.547-0.56c0.027-0.105,0.04-0.198,0.04-0.277c0-0.149-0.072-0.292-0.218-0.429
			c-0.145-0.136-0.327-0.266-0.547-0.389s-0.457-0.237-0.712-0.343s-0.492-0.202-0.712-0.29l-0.448-0.185
			c-0.229-0.088-0.453-0.195-0.673-0.323c-0.22-0.127-0.424-0.274-0.612-0.441c-0.189-0.167-0.356-0.362-0.501-0.587
			c-0.146-0.224-0.253-0.48-0.323-0.771c-0.035-0.122-0.063-0.245-0.086-0.369c-0.021-0.122-0.032-0.254-0.032-0.395
			c0-0.229,0.076-0.49,0.23-0.785c0.153-0.294,0.36-0.586,0.619-0.877c0.26-0.289,0.554-0.566,0.884-0.83
			c0.329-0.264,0.674-0.483,1.034-0.659c0.264-0.185,0.519-0.352,0.766-0.501c0.245-0.149,0.494-0.277,0.744-0.383
			c0.251-0.105,0.506-0.188,0.765-0.25c0.26-0.062,0.534-0.092,0.824-0.092c0.264,0,0.549,0.013,0.856,0.039
			s0.589,0.088,0.844,0.185s0.469,0.239,0.64,0.429c0.172,0.188,0.257,0.441,0.257,0.758c0,0.097-0.013,0.225-0.039,0.383
			s-0.07,0.316-0.132,0.475s-0.137,0.294-0.224,0.408c-0.089,0.114-0.194,0.172-0.316,0.172c-0.203,0-0.369-0.04-0.502-0.119
			c-0.131-0.079-0.25-0.165-0.355-0.257c-0.105-0.093-0.216-0.179-0.33-0.257c-0.114-0.08-0.255-0.119-0.422-0.119
			c-0.202,0-0.437,0.037-0.705,0.112c-0.268,0.074-0.543,0.176-0.824,0.303c-0.281,0.128-0.556,0.275-0.823,0.442
			c-0.269,0.167-0.51,0.338-0.726,0.514c-0.215,0.176-0.389,0.35-0.521,0.521c-0.132,0.172-0.198,0.328-0.198,0.468
			c0,0.15,0.049,0.273,0.146,0.369c0.097,0.098,0.22,0.181,0.369,0.251c0.193,0.105,0.415,0.211,0.666,0.316
			c0.25,0.105,0.503,0.211,0.758,0.316s0.503,0.211,0.745,0.316c0.241,0.105,0.45,0.202,0.626,0.29
			c0.237,0.123,0.45,0.244,0.64,0.362c0.188,0.119,0.35,0.249,0.48,0.39c0.133,0.141,0.233,0.299,0.304,0.475
			s0.105,0.382,0.105,0.619c0,0.114-0.009,0.229-0.026,0.343s-0.044,0.246-0.079,0.396c-0.026,0.132-0.072,0.286-0.139,0.461
			c-0.065,0.177-0.136,0.35-0.211,0.521c-0.074,0.171-0.151,0.325-0.23,0.461c-0.079,0.137-0.146,0.227-0.198,0.271
			c-0.342,0.316-0.747,0.613-1.213,0.89c-0.466,0.277-0.951,0.519-1.456,0.726c-0.506,0.206-1.011,0.371-1.517,0.494
			c-0.505,0.123-0.969,0.185-1.391,0.185c-0.211,0-0.444-0.042-0.699-0.125c-0.255-0.084-0.489-0.193-0.705-0.33
			c-0.215-0.136-0.396-0.292-0.54-0.468c-0.146-0.176-0.218-0.352-0.218-0.527c0-0.088,0.026-0.187,0.079-0.297
			c0.053-0.109,0.118-0.211,0.198-0.303c0.078-0.093,0.164-0.172,0.257-0.237C184.851,36.113,184.937,36.08,185.016,36.08z"/>
		<path d="M195.681,33.325c0-0.378,0.101-0.698,0.304-0.962c0.201-0.264,0.47-0.439,0.804-0.527
			c0.097-0.193,0.246-0.455,0.448-0.785c0.202-0.329,0.452-0.688,0.752-1.074c0.298-0.387,0.639-0.775,1.021-1.167
			c0.382-0.391,0.804-0.747,1.266-1.067c0.461-0.321,0.958-0.582,1.489-0.785c0.532-0.201,1.097-0.303,1.694-0.303
			c0.51,0,0.953,0.062,1.332,0.185c0.377,0.123,0.689,0.295,0.936,0.515s0.431,0.48,0.554,0.784
			c0.123,0.303,0.185,0.631,0.185,0.981c0,0.3-0.039,0.585-0.119,0.857c-0.123,0.492-0.352,0.923-0.686,1.292
			s-0.727,0.692-1.18,0.969c-0.452,0.277-0.944,0.508-1.477,0.692c-0.531,0.185-1.063,0.339-1.595,0.461
			c-0.532,0.124-1.044,0.218-1.536,0.284c-0.492,0.065-0.919,0.116-1.279,0.151c-0.078,0.158-0.146,0.358-0.204,0.6
			c-0.057,0.242-0.085,0.478-0.085,0.705c0,0.511,0.201,0.906,0.605,1.188s0.963,0.422,1.675,0.422c0.413,0,0.809-0.047,1.187-0.139
			c0.378-0.093,0.736-0.211,1.074-0.356c0.339-0.145,0.657-0.303,0.956-0.475c0.299-0.171,0.571-0.34,0.817-0.507
			c0.316-0.211,0.617-0.39,0.903-0.534c0.285-0.146,0.538-0.218,0.758-0.218s0.36,0.055,0.422,0.165
			c0.062,0.109,0.093,0.227,0.093,0.349c0,0.071-0.003,0.139-0.007,0.205c-0.005,0.065-0.012,0.121-0.021,0.164
			c-0.044,0.229-0.131,0.458-0.264,0.686c-0.131,0.229-0.299,0.427-0.5,0.594c-0.915,0.721-1.853,1.235-2.815,1.543
			c-0.962,0.307-1.988,0.461-3.078,0.461c-0.211,0-0.459-0.014-0.745-0.039c-0.285-0.027-0.582-0.08-0.89-0.158
			c-0.308-0.08-0.611-0.193-0.909-0.344c-0.3-0.148-0.565-0.347-0.798-0.593c-0.233-0.246-0.422-0.549-0.567-0.909
			c-0.145-0.36-0.217-0.796-0.217-1.306c0-0.413,0.057-0.874,0.171-1.384c-0.114-0.018-0.222-0.077-0.323-0.179
			C195.731,33.666,195.681,33.519,195.681,33.325z M203.934,29.674c0.018-0.044,0.026-0.084,0.026-0.119s0-0.074,0-0.119
			c0-0.236-0.088-0.415-0.264-0.533c-0.176-0.119-0.387-0.178-0.633-0.178c-0.387,0-0.767,0.101-1.141,0.303
			c-0.373,0.202-0.725,0.455-1.055,0.758c-0.329,0.304-0.622,0.629-0.876,0.976c-0.256,0.348-0.453,0.662-0.594,0.942
			c0.633-0.053,1.213-0.138,1.74-0.257c0.527-0.118,0.986-0.268,1.378-0.448c0.391-0.18,0.707-0.382,0.949-0.606
			C203.707,30.168,203.863,29.929,203.934,29.674z"/>
	</g>
</g>
<g id="DOCTOR">
</g>
<g id="Psychiatrist">
</g>
<g id="Remove">
</g>
<g id="Layer_10">
</g>
<g id="Bipolar">
	<g id="Layer_12">
	</g>
</g>
<g id="YesorNo">
</g>
<g id="Deja_Vu">
</g>
<g id="Indecisive">
</g>
<g id="Greedy">
</g>
<g id="Pushup">
</g>
<g id="Clothes_Swap">
</g>
</svg>
