<?xml version="1.0" encoding="utf-8"?>
<!-- Generator: Adobe Illustrator 16.0.0, SVG Export Plug-In . SVG Version: 6.00 Build 0)  -->
<!DOCTYPE svg PUBLIC "-//W3C//DTD SVG 1.1//EN" "http://www.w3.org/Graphics/SVG/1.1/DTD/svg11.dtd">
<svg version="1.1" xmlns="http://www.w3.org/2000/svg" xmlns:xlink="http://www.w3.org/1999/xlink" x="0px" y="0px"
	 width="209.76px" height="62.36px" viewBox="0 0 209.76 62.36" enable-background="new 0 0 209.76 62.36" xml:space="preserve">
<g id="Layer_1">
</g>
<g id="Can_of_Whoop-Ass">
</g>
<g id="Gun_Show">
</g>
<g id="Chicken">
</g>
<g id="Copycat">
</g>
<g id="Quiet">
</g>
<g id="DOCTOR">
</g>
<g id="Psychiatrist">
</g>
<g id="Remove">
</g>
<g id="Layer_10">
</g>
<g id="Bipolar">
	<g id="Layer_12">
	</g>
</g>
<g id="YesorNo">
	<g>
		<path fill-rule="evenodd" clip-rule="evenodd" fill="none" stroke="#000000" stroke-miterlimit="10" d="M13.279,8.027
			c5.598-5.994,14.785-7.374,22.024-3.004c8.03,4.848,10.847,14.695,6.867,22.966c-4.018,8.35-13.881,12.134-22.496,8.762
			C11.43,33.524,7.235,24.836,8.644,17.38c0.105,0.015,0.22,0.01,0.319,0.046c1.128,0.409,2.258,0.813,3.374,1.25
			c0.173,0.067,0.407,0.309,0.396,0.453c-0.041,0.529,0.262,0.555,0.646,0.566c1.601,0.051,3.202,0.101,4.803,0.181
			c0.477,0.023,0.957,0.242,1.422,0.202c1.482-0.132,2.737-0.825,3.781-1.85c1.511-1.481,3.16-2.774,4.9-3.972
			c1.218-0.838,2.112-1.963,2.623-3.382c0.084-0.233,0.427-0.516,0.649-0.517c0.234,0,0.563,0.262,0.688,0.496
			c0.588,1.114,0.449,2.255-0.248,3.238c-0.665,0.938-1.481,1.774-2.264,2.625c-0.745,0.811-0.749,1.125,0.19,1.695
			c0.769,0.466,1.567,0.894,2.386,1.266c1.099,0.497,1.546,1.642,1.064,2.73c-0.179,0.406-0.26,0.878-0.278,1.324
			c-0.026,0.606-0.155,1.109-0.604,1.566c-0.263,0.268-0.424,0.688-0.504,1.067c-0.129,0.598-0.392,1.016-0.966,1.271
			c-0.24,0.106-0.487,0.335-0.598,0.571c-0.308,0.654-0.851,0.955-1.492,0.891c-0.952-0.098-1.901-0.291-2.828-0.533
			c-1.064-0.279-2.094-0.691-3.157-0.976c-0.471-0.126-0.994-0.142-1.481-0.092c-0.709,0.071-1.404,0.279-2.112,0.368
			c-0.513,0.063-0.725,0.294-0.652,0.794c0.076,0.529-0.165,0.715-0.678,0.71c-0.455-0.003-0.911,0.07-1.504,0.121
			c0.184,0.223,0.273,0.356,0.388,0.465c1.762,1.675,3.833,2.782,6.201,3.321c4.625,1.052,8.749-0.057,12.211-3.209
			c2.924-2.661,4.402-6.109,4.259-10.092c-0.192-5.313-2.697-9.308-7.427-11.728c-3.857-1.974-7.856-1.956-11.801-0.115
			c-0.782,0.366-1.494,0.883-2.247,1.314c-0.153,0.088-0.376,0.194-0.516,0.146C16.168,9.098,14.759,8.57,13.279,8.027z"/>
		<path fill-rule="evenodd" clip-rule="evenodd" d="M11.05,10.549c-0.079,0.14-0.123,0.201-0.151,0.27
			c-0.351,0.841-0.35,0.842,0.487,1.152c0.49,0.182,0.979,0.364,1.47,0.546c0.723,0.269,0.726,0.271,0.46,0.989
			c-0.046,0.122-0.112,0.236-0.192,0.405c-0.816-0.3-1.627-0.556-2.4-0.895c-0.658-0.287-0.677,0.198-0.853,0.571
			c-0.196,0.416-0.155,0.658,0.333,0.813c0.811,0.258,1.596,0.593,2.403,0.861c0.446,0.148,0.383,0.412,0.229,0.715
			c-0.145,0.287-0.09,0.809-0.691,0.583c-1.467-0.55-2.939-1.087-4.412-1.622c-0.292-0.106-0.389-0.258-0.271-0.569
			c0.662-1.777,1.313-3.557,1.959-5.341c0.107-0.296,0.25-0.391,0.562-0.274c1.449,0.544,2.9,1.079,4.357,1.603
			c0.532,0.192,0.232,0.515,0.147,0.797c-0.089,0.293-0.151,0.62-0.619,0.437C12.949,11.23,12.02,10.905,11.05,10.549z"/>
		<path fill-rule="evenodd" clip-rule="evenodd" d="M20.376,14.437c-0.48-0.136-0.967-0.254-1.435-0.42
			c-0.11-0.04-0.202-0.237-0.234-0.378c-0.125-0.561-0.538-0.952-1.089-0.912c-0.195,0.015-0.454,0.162-0.538,0.325
			c-0.065,0.123,0.046,0.427,0.175,0.544c0.282,0.256,0.628,0.441,0.943,0.662c0.236,0.166,0.475,0.332,0.699,0.515
			c0.915,0.741,1.165,1.558,0.772,2.487c-0.364,0.861-1.282,1.415-2.336,1.192c-0.832-0.176-1.652-0.52-2.408-0.92
			c-0.779-0.412-0.974-1.192-0.902-2.046c0.03-0.349,0.205-0.43,0.507-0.335c0.239,0.075,0.472,0.178,0.713,0.241
			c0.399,0.106,0.645,0.251,0.65,0.764c0.006,0.619,0.786,1.101,1.405,0.975c0.521-0.105,0.745-0.564,0.437-0.999
			c-0.183-0.259-0.467-0.449-0.719-0.654c-0.402-0.327-0.842-0.611-1.219-0.964c-0.579-0.541-0.847-1.179-0.494-1.979
			c0.33-0.747,0.927-1.12,1.693-1.069c1.272,0.082,2.513,0.374,3.255,1.549c0.231,0.366,0.229,0.882,0.333,1.328
			C20.515,14.374,20.445,14.404,20.376,14.437z"/>
		<path fill-rule="evenodd" clip-rule="evenodd" d="M4.658,9.238C5.339,8.71,5.887,8.256,6.469,7.853
			c0.17-0.119,0.458-0.177,0.655-0.124C7.642,7.869,8.138,8.085,8.73,8.303C8.548,8.468,8.436,8.59,8.306,8.684
			c-0.908,0.658-1.844,1.282-2.719,1.98c-0.341,0.272-0.565,0.698-0.812,1.075c-0.114,0.174-0.154,0.395-0.227,0.595
			c-0.511,1.4-0.516,1.408-1.873,0.726c-0.139-0.069-0.273-0.362-0.239-0.514c0.097-0.43,0.245-0.859,0.44-1.256
			c0.311-0.631,0.293-1.243,0.109-1.905C2.68,8.271,2.434,7.141,2.128,5.884C2.823,6.14,3.422,6.33,3.99,6.588
			c0.144,0.065,0.23,0.336,0.271,0.528C4.402,7.772,4.512,8.437,4.658,9.238z"/>
	</g>
	<g>
		<path fill-rule="evenodd" clip-rule="evenodd" fill="none" stroke="#000000" stroke-miterlimit="10" d="M46.538,40.091
			c1.328,0.488,2.62,0.945,3.892,1.454c0.136,0.055,0.23,0.41,0.216,0.618c-0.145,2.188,0.259,4.281,1.133,6.275
			c3.438,7.852,13.394,10.469,20.28,5.345c7.993-5.947,6.873-18.269-2.071-22.708c-0.673-0.334-1.391-0.581-2.099-0.839
			c-0.34-0.124-0.704-0.18-1.231-0.308c0.302,0.572,0.512,1.035,0.778,1.464c0.22,0.353,0.223,0.602-0.189,0.774
			c-0.575,0.239-0.559,0.617-0.397,1.163c0.54,1.826,1.645,3.187,3.161,4.298c0.885,0.647,1.718,1.389,2.468,2.188
			c0.4,0.427,0.817,1.07,0.802,1.603c-0.025,0.857-0.417,1.699-0.443,2.593c-0.005,0.161-0.179,0.345-0.318,0.469
			c-0.464,0.412-0.723,0.895-0.879,1.513c-0.099,0.386-0.563,0.683-0.877,1.007c-0.316,0.327-0.713,0.596-0.965,0.964
			c-0.656,0.963-1.725,1.244-2.769,0.667c-0.874-0.484-1.748-0.972-2.631-1.441c-0.735-0.391-1.044-0.259-1.28,0.531
			c-0.353,1.183-0.61,2.402-1.063,3.546c-0.479,1.21-1.421,1.973-2.789,2.009c-0.237,0.006-0.593-0.17-0.694-0.365
			c-0.105-0.203-0.066-0.606,0.077-0.794c1.047-1.363,1.506-2.918,1.496-4.602c-0.012-2.026,0.356-3.996,0.705-5.976
			c0.239-1.365,0.104-2.711-0.551-3.951c-0.188-0.357-0.595-0.593-0.837-0.931c-0.945-1.321-1.868-2.658-2.789-3.996
			c-0.223-0.321-0.397-0.665-0.831-0.238c-0.061,0.06-0.228,0.063-0.321,0.028c-1.451-0.523-2.898-1.058-4.361-1.596
			c3.953-4.731,12.979-7.938,21.276-3.479c8.511,4.571,11.581,14.63,7.938,22.815c-4.173,9.377-14.634,12.923-23.284,9.232
			C48.05,55.565,45.185,46.325,46.538,40.091z"/>
		<path fill-rule="evenodd" clip-rule="evenodd" d="M44.487,33.773c-0.323,0.88-0.67,1.753-0.961,2.646
			c-0.154,0.47-0.381,0.553-0.81,0.355c-0.365-0.168-0.755-0.283-1.183-0.44c0.771-2.097,1.525-4.15,2.31-6.285
			c0.541,0.198,1.087,0.373,1.605,0.608c0.133,0.059,0.213,0.303,0.258,0.478c0.312,1.193,0.608,2.391,0.957,3.771
			c0.15-0.294,0.235-0.425,0.288-0.566c0.294-0.777,0.59-1.554,0.864-2.339C47.93,31.68,48.08,31.6,48.42,31.71
			c1.394,0.455,1.403,0.446,0.913,1.8c-0.546,1.509-1.115,3.009-1.65,4.521c-0.136,0.382-0.302,0.416-0.685,0.328
			c-0.964-0.226-1.518-0.709-1.657-1.756c-0.127-0.949-0.454-1.871-0.693-2.806C44.594,33.79,44.541,33.781,44.487,33.773z"/>
		<path fill-rule="evenodd" clip-rule="evenodd" d="M56.269,38.174c-0.788,2.104-2.403,2.848-4.483,2.065
			c-2.039-0.769-2.802-2.434-2.043-4.466c0.783-2.099,2.414-2.819,4.556-2.012C56.338,34.529,57.043,36.109,56.269,38.174z
			 M54.326,37.552c0.092-0.35,0.195-0.626,0.232-0.91c0.088-0.688-0.252-1.235-0.873-1.466c-0.651-0.241-1.297-0.052-1.629,0.597
			c-0.269,0.521-0.47,1.098-0.586,1.674c-0.118,0.591,0.249,1.084,0.816,1.311c0.644,0.256,1.16,0.152,1.555-0.365
			C54.049,38.119,54.188,37.796,54.326,37.552z"/>
		<path fill-rule="evenodd" clip-rule="evenodd" fill="#FFFFFF" d="M54.326,37.552c-0.138,0.244-0.277,0.567-0.484,0.84
			c-0.395,0.518-0.911,0.621-1.555,0.365c-0.567-0.227-0.935-0.72-0.816-1.311c0.116-0.576,0.317-1.152,0.586-1.674
			c0.332-0.648,0.978-0.838,1.629-0.597c0.621,0.23,0.961,0.777,0.873,1.466C54.521,36.926,54.418,37.202,54.326,37.552z"/>
	</g>
	<g>
		<path fill="#FFFFFF" stroke="#000000" stroke-width="0.75" stroke-miterlimit="10" d="M190.86,37.809
			c-2.494,2.504-4.988,5.007-7.481,7.511c-1.796,1.805-3.604,3.599-5.375,5.428c-0.387,0.399-0.589,0.413-0.991,0.021
			c-2.324-2.269-4.675-4.508-7.021-6.753c-1.595-1.526-3.18-3.064-4.804-4.561c-0.506-0.465-0.508-0.826-0.063-1.3
			c2.202-2.348,4.401-4.7,6.592-7.061c2.226-2.398,4.436-4.812,6.658-7.213c2.276-2.457,4.564-4.902,6.836-7.362
			c2.24-2.421,4.468-4.854,6.698-7.284c0.369-0.402,0.731-0.81,1.095-1.215c0.561-0.627,0.8-0.629,1.396-0.052
			c1.849,1.788,3.702,3.567,5.557,5.35c2.396,2.305,4.774,4.628,7.205,6.896c0.568,0.53,0.379,0.856-0.032,1.269
			c-1.745,1.745-3.493,3.487-5.234,5.237c-2.253,2.265-4.503,4.535-6.749,6.807c-0.163,0.165-0.287,0.37-0.429,0.556
			C193.287,35.174,192.149,36.57,190.86,37.809z"/>
		<path fill="#FFFFFF" stroke="#000000" stroke-width="0.75" stroke-miterlimit="10" d="M209.691,56.215
			c-1.649-1.6-3.299-3.197-4.948-4.796c-0.607-0.585-1.215-1.171-1.822-1.756c-1.567-1.556-3.125-3.119-4.701-4.666
			c-2.446-2.402-4.904-4.792-7.359-7.188c1.289-1.238,2.427-2.635,3.858-3.727c2.987,2.928,5.977,5.853,8.96,8.783
			c0.549,0.539,3.321,3.271,6.112,6.007"/>
		<path fill="#FFFFFF" stroke="#000000" stroke-width="0.75" stroke-miterlimit="10" d="M179.426,34.381
			c1.265,1.229,2.536,2.451,3.79,3.691c0.247,0.245,0.767,0.546,0.625,0.794c-0.283,0.499-0.769,0.901-1.226,1.277
			c-0.199,0.166-0.333-0.155-0.472-0.291c-1.958-1.9-3.909-3.809-5.875-5.701c-0.354-0.34-0.426-0.528-0.057-0.981
			c0.747-0.918,1.499-1.248,2.721-0.914c1.89,0.517,3.843,0.802,5.983,1.228c-1.096-1.076-2.037-2.001-2.979-2.927
			c-0.203-0.2-0.404-0.404-0.608-0.604c-1.009-0.99-0.96-1.374,0.219-2.222c0.263-0.188,0.353-0.047,0.503,0.102
			c2.01,1.96,4.017,3.923,6.034,5.873c0.34,0.329,0.342,0.542,0.03,0.944c-0.713,0.916-1.506,1.09-2.626,0.808
			c-1.981-0.497-4.008-0.821-6.016-1.219C179.458,34.287,179.441,34.334,179.426,34.381z"/>
		<path fill="#FFFFFF" stroke="#000000" stroke-width="0.75" stroke-miterlimit="10" d="M185.54,23.53
			c1.673-2.262,4.313-2.699,6.483-1.074c2.441,1.83,3.032,4.627,1.439,6.809c-1.671,2.288-4.313,2.719-6.542,1.064
			C184.492,28.527,183.923,25.717,185.54,23.53z M190.657,24.307c-1.265-0.947-2.426-0.971-3.29-0.071
			c-0.941,0.981-0.942,2.24,0.037,3.44c0.477,0.585,1.024,1.097,1.764,1.37c0.952,0.351,1.822,0.181,2.493-0.527
			c0.72-0.76,0.856-1.633,0.403-2.579C191.742,25.27,191.257,24.738,190.657,24.307z"/>
	</g>
	<g>
		<path fill="#FFFFFF" stroke="#000000" stroke-width="0.75" stroke-miterlimit="10" d="M154.741,62.5
			c-1.346-3.154-2.707-6.302-4.063-9.451c1.665-0.656,3.249-1.511,4.989-1.975c1.646,3.844,3.292,7.688,4.935,11.535"/>
		<path fill="#FFFFFF" stroke="#000000" stroke-width="0.75" stroke-miterlimit="10" d="M151.563,52.546
			c-2.162,0.458-4.245,1.197-6.367,1.798c-1.548,0.439-3.09,0.905-4.64,1.336c-1.901,0.528-3.807,1.034-5.675,1.676
			c-0.221,0.076-0.463,0.089-0.68,0.173c-0.651,0.251-0.975-0.058-1.154-0.642c-0.374-1.215-0.748-2.432-1.123-3.646
			c-0.818-2.653-1.641-5.306-2.458-7.958c-0.405-1.315-0.8-2.633-1.209-3.947c-0.187-0.596-0.005-0.875,0.621-1.063
			c2.636-0.788,5.229-1.712,7.849-2.545c2.104-0.669,4.189-1.387,6.288-2.066c3.063-0.988,6.104-2.035,9.163-3.035
			c2.64-0.863,5.294-1.682,7.933-2.544c2.022-0.66,4.031-1.362,6.05-2.038c0.689-0.229,1.386-0.44,2.081-0.647
			c0.33-0.099,0.605-0.078,0.732,0.336c0.667,2.156,1.348,4.309,2.021,6.465c0.802,2.576,1.608,5.151,2.403,7.729
			c0.358,1.167,0.688,2.344,1.048,3.508c0.116,0.373-0.103,0.456-0.37,0.538c-1.167,0.351-2.331,0.714-3.502,1.053
			c-3.465,1.008-6.93,2.014-10.398,3.002c-0.925,0.263-1.876,0.423-2.778,0.774c-0.238,0.092-0.517,0.089-0.688,0.321
			c-0.842,0.025-1.659,0.265-2.418,0.555C153.394,52.021,152.387,51.999,151.563,52.546z"/>
		<path fill="#FFFFFF" stroke="#000000" stroke-width="0.75" stroke-miterlimit="10" d="M150.605,47.778
			c-1.4,0.354-1.42,0.359-1.753-0.766c-0.738-2.492-1.446-4.994-2.194-7.483c-0.117-0.387-0.01-0.485,0.333-0.582
			c1.426-0.402,2.852-0.81,4.263-1.26c0.451-0.144,0.586,0.012,0.715,0.396c0.381,1.13,0.392,1.12-0.766,1.437
			c-0.576,0.157-1.142,0.357-1.719,0.509c-0.284,0.074-0.412,0.192-0.304,0.486c0.008,0.023,0.016,0.049,0.021,0.074
			c0.308,1.548,0.356,1.578,1.873,1.171c0.151-0.041,0.301-0.082,0.449-0.131c1.144-0.374,1.117-0.366,1.452,0.781
			c0.125,0.434,0.034,0.605-0.38,0.713c-0.655,0.169-1.298,0.382-1.949,0.56c-0.337,0.093-0.43,0.243-0.354,0.614
			c0.322,1.576,0.423,1.652,1.93,1.192c0.35-0.104,0.689-0.233,1.041-0.332c0.842-0.239,1.494,0.395,1.336,1.272
			c-0.037,0.212-0.19,0.213-0.33,0.254C152.974,47.071,151.678,47.458,150.605,47.778z"/>
		<path fill="#FFFFFF" stroke="#000000" stroke-width="0.75" stroke-miterlimit="10" d="M159.415,37.492
			c-0.816-0.112-1.539-0.141-2.248,0.073c-0.635,0.192-1.344,0.399-1.309,1.207c0.033,0.778,0.771,0.802,1.349,0.915
			c0.635,0.124,1.287,0.178,1.914,0.331c1.324,0.326,1.975,1.08,2.142,2.45c0.144,1.187-0.462,1.981-1.427,2.552
			c-1.076,0.638-2.258,0.893-3.496,0.964c-0.523,0.03-0.825-0.108-0.921-0.672c-0.072-0.431-0.255-0.841-0.424-1.379
			c0.988,0.286,1.901,0.41,2.807,0.101c0.268-0.09,0.533-0.204,0.776-0.349c0.335-0.198,0.546-0.506,0.48-0.907
			c-0.061-0.362-0.334-0.57-0.668-0.7c-0.737-0.29-1.531-0.256-2.291-0.412c-1.044-0.217-1.914-0.653-2.291-1.752
			c-0.417-1.217-0.132-2.271,0.891-3.054c1.073-0.82,2.339-1.095,3.648-1.223c0.338-0.033,0.592,0.058,0.677,0.453
			C159.121,36.542,159.269,36.98,159.415,37.492z"/>
		<path fill="#FFFFFF" stroke="#000000" stroke-width="0.75" stroke-miterlimit="10" d="M142.781,44.456
			c0.149-1.226,0.33-2.397,0.421-3.576c0.052-0.676,0.314-1.043,0.988-1.138c0.408-0.058,0.809-0.168,1.304-0.273
			c-0.233,1.284-0.397,2.542-0.703,3.765c-0.456,1.833-0.578,3.626,0.221,5.392c0.285,0.633,0.025,0.842-0.589,0.979
			c-1.324,0.293-1.342,0.33-1.667-1.057c-0.268-1.135-0.718-2.124-1.577-2.965c-1.095-1.071-2.071-2.259-3.128-3.37
			c-0.425-0.446-0.302-0.584,0.229-0.731c1.683-0.47,1.679-0.484,2.795,0.868c0.281,0.341,0.571,0.674,0.851,1.017
			C142.201,43.706,142.468,44.056,142.781,44.456z"/>
	</g>
	<g>
		<path fill-rule="evenodd" clip-rule="evenodd" d="M91.163,37.103c0.469,0.241,0.849,0.64,1.011,1.154
			c0.255,0.813,0.445,1.65,0.602,2.49c0.133,0.714,0.18,1.444,0.278,2.286c0.346-0.507,0.639-0.932,0.929-1.359
			c1.153-1.706,2.333-3.396,3.451-5.124c1.285-1.986,3.06-3.362,5.147-4.409c2.851-1.429,5.396-3.291,7.603-5.597
			c1.849-1.933,3.368-4.091,4.113-6.696c1.127-3.937,0.08-7.302-2.983-9.939c-3.172-2.732-6.893-4.152-11.129-4.142
			c-4.351,0.013-8.459,0.946-12.199,3.215c-4.155,2.52-7.017,6.093-8.367,10.785c-0.739,2.569-0.697,5.176,0.05,7.749
			c1.103,3.8,3.68,6.084,7.431,7.129c1.652,0.461,3.338,0.633,5.053,0.555c0.297-0.014,0.603,0.008,0.895,0.063
			c0.419,0.08,0.522,0.406,0.185,0.666c-0.23,0.177-0.569,0.319-0.854,0.307c-3.958-0.177-7.549-1.379-10.589-3.984
			c-2.333-2-3.691-4.534-4.053-7.607c-0.702-5.954,1.509-10.724,5.944-14.552c3.316-2.862,7.187-4.611,11.519-5.228
			c3.971-0.565,7.816,0.054,11.489,1.644c2.829,1.224,5.349,2.914,7.365,5.28c1.452,1.703,2.333,3.658,2.409,5.921
			c0.063,1.854-0.422,3.592-1.23,5.246c-1.272,2.605-3.153,4.721-5.321,6.607c-1.606,1.398-3.424,2.478-5.253,3.549
			c-1.119,0.656-2.191,1.401-3.249,2.156c-0.798,0.568-1.391,1.338-1.956,2.144c-1.859,2.645-3.765,5.257-5.648,7.883
			c-0.235,0.328-0.483,0.636-0.943,0.504c-0.487-0.141-0.911-0.402-1.017-0.939c-0.117-0.602-0.218-1.212-0.249-1.823
			c-0.055-1.057-0.012-2.12-0.084-3.176C91.449,38.943,91.285,38.034,91.163,37.103z"/>
		<path fill-rule="evenodd" clip-rule="evenodd" d="M104.324,16.519c-0.542,0.895-1.004,1.684-1.49,2.457
			c-0.786,1.248-1.78,2.313-2.946,3.211c-1.683,1.296-3.536,0.793-4.359-1.162c-0.016-0.038-0.04-0.072-0.095-0.171
			c-0.446,0.396-0.898,0.759-1.296,1.175c-0.101,0.105-0.045,0.377-0.036,0.571c0.04,0.871,0.148,1.744,0.123,2.613
			c-0.048,1.625-0.409,3.175-1.414,4.507c-0.511,0.678-1.142,1.197-1.979,1.433c-1.435,0.404-2.66-0.663-2.482-2.151
			c0.104-0.858,0.45-1.62,0.877-2.351c0.869-1.488,2.042-2.721,3.328-3.848c0.364-0.319,0.54-0.615,0.419-1.131
			c-0.277-1.174-0.484-2.364-0.737-3.642c-0.096,0.163-0.146,0.24-0.188,0.323c-0.733,1.498-1.648,2.881-2.745,4.133
			c-0.428,0.488-0.941,0.932-1.491,1.274c-1.116,0.695-2.283,0.399-3.037-0.679c-0.425-0.605-0.605-1.289-0.64-2.015
			c-0.075-1.615,0.098-3.2,0.662-4.725c0.123-0.331,0.306-0.646,0.5-0.942c0.092-0.14,0.311-0.331,0.411-0.301
			c0.192,0.06,0.457,0.24,0.487,0.407c0.088,0.483,0.128,0.99,0.093,1.48c-0.099,1.354-0.27,2.703-0.361,4.058
			c-0.035,0.515,0.065,1.038,0.109,1.629c0.9-0.526,1.51-1.203,2.064-1.934c1.12-1.474,2.187-2.988,2.624-4.821
			c0.146-0.608,0.113-1.271,0.092-1.905c-0.016-0.463,0.076-0.589,0.531-0.429c0.764,0.269,1.171,0.877,1.331,1.616
			c0.449,2.078,0.853,4.167,1.293,6.341c0.467-0.41,0.917-0.787,1.34-1.195c0.073-0.071,0.035-0.271,0.028-0.409
			c-0.108-2.076,0.201-4.075,1.134-5.948c0.167-0.336,0.451-0.622,0.713-0.902c0.47-0.503,1.042-0.477,1.619-0.229
			c0.552,0.237,0.76,0.71,0.768,1.28c0.019,1.207-0.437,2.264-1.092,3.238c-0.391,0.58-0.857,1.108-1.267,1.677
			c-0.115,0.16-0.209,0.379-0.21,0.571c-0.005,0.513,0.013,1.031,0.084,1.538c0.125,0.88,0.852,1.275,1.681,0.935
			c1.429-0.589,2.465-1.654,3.337-2.878c0.638-0.894,1.192-1.848,1.795-2.791c-0.356-0.283-0.662-0.532-0.975-0.773
			c-0.842-0.65-1.046-1.529-0.778-2.494c0.156-0.565,0.427-1.123,0.755-1.611c0.465-0.692,1.329-0.859,2.108-0.517
			c0.595,0.262,0.962,0.951,0.784,1.738c-0.171,0.758-0.462,1.491-0.725,2.227c-0.109,0.306-0.282,0.59-0.447,0.927
			c0.396,0.204,0.785,0.401,1.173,0.604c1.085,0.569,2.104,1.231,2.867,2.212c1.025,1.315,1.149,2.728,0.394,4.214
			c-0.657,1.29-1.646,2.302-2.751,3.2c-1.267,1.029-2.563,2.023-4.071,2.686c-0.876,0.386-1.78,0.619-2.75,0.394
			c-1.213-0.281-1.726-1.117-1.314-2.21c0.06-0.158,0.341-0.393,0.407-0.36c0.219,0.105,0.438,0.289,0.556,0.498
			c0.084,0.15,0.014,0.392,0.002,0.592c-0.022,0.348,0.147,0.443,0.449,0.334c0.322-0.116,0.648-0.23,0.952-0.386
			c2.193-1.122,4.235-2.453,5.834-4.367c0.62-0.741,1.132-1.549,1.315-2.52c0.167-0.885,0.024-1.725-0.681-2.314
			C106.167,17.799,105.247,17.193,104.324,16.519z M93.119,23.036c-0.053-0.039-0.105-0.079-0.157-0.119
			c-0.467,0.498-0.941,0.988-1.398,1.494c-0.962,1.063-1.854,2.173-2.332,3.553c-0.193,0.559-0.306,1.122-0.15,1.72
			c0.076,0.291,0.231,0.406,0.487,0.283c0.52-0.251,1.116-0.438,1.515-0.824C92.81,27.469,93.215,25.325,93.119,23.036z
			 M97.057,18.592c0.823-0.94,1.569-1.914,1.954-3.107c0.171-0.527,0.235-1.063-0.006-1.59c-0.229-0.501-0.389-0.531-0.698-0.093
			C97.291,15.237,97.041,16.88,97.057,18.592z M104.248,15.693c0.105-0.238,0.214-0.438,0.284-0.651
			c0.159-0.488,0.355-0.973,0.436-1.475c0.091-0.571,0.093-1.16,0.086-1.74c-0.001-0.15-0.148-0.359-0.285-0.427
			c-0.079-0.039-0.324,0.117-0.402,0.243c-0.292,0.471-0.623,0.938-0.798,1.455C103.196,14.204,103.449,15.082,104.248,15.693z"/>
	</g>
	<g>
		<path fill-rule="evenodd" clip-rule="evenodd" d="M139.74,27.121c1.185-0.143,2.097,0.239,4.334,2.912
			c0.156-0.725,0.299-1.395,0.444-2.064c0.287-1.325,0.59-2.647,0.859-3.977c0.311-1.535,1.074-2.819,2.127-3.948
			c1.28-1.371,2.538-2.759,3.571-4.335c1.207-1.843,2.212-3.775,2.59-5.973c0.39-2.269,0.06-4.341-1.771-5.952
			c-1.034-0.909-2.262-1.442-3.588-1.748c-2.231-0.518-4.491-0.478-6.744-0.205c-5.657,0.684-10.485,3.187-14.719,6.896
			c-2.241,1.963-3.934,4.328-4.769,7.245c-1.901,6.64,3.022,10.916,7.572,11.505c2.794,0.361,5.467-0.154,8.079-1.092
			c0.831-0.298,1.627-0.696,2.448-1.025c0.328-0.132,0.683-0.201,1.064-0.31c0.065,0.624-0.271,0.831-0.638,0.962
			c-1.075,0.383-2.146,0.787-3.243,1.093c-2.473,0.688-5.002,0.957-7.563,0.771c-2.404-0.176-4.704-0.743-6.604-2.328
			c-2.185-1.823-3.478-4.125-3.398-7.044c0.053-1.929,0.702-3.693,1.676-5.341c1.891-3.203,4.537-5.659,7.665-7.605
			c3.461-2.153,7.264-3.371,11.28-3.965c2.405-0.356,4.82-0.407,7.235-0.152c1.974,0.21,3.9,0.623,5.587,1.756
			c2.004,1.345,2.767,3.288,2.576,5.627c-0.218,2.672-1.337,5.017-2.869,7.153c-1.031,1.439-2.239,2.75-3.34,4.141
			c-0.505,0.637-0.954,1.32-1.404,1.998c-0.614,0.921-0.661,2.023-0.931,3.054c-0.509,1.947-0.995,3.9-1.514,5.845
			c-0.245,0.923-1.37,1.244-2.097,0.598c-0.382-0.341-0.731-0.729-1.039-1.139C141.74,29.306,141.054,27.979,139.74,27.121z"/>
		<path fill-rule="evenodd" clip-rule="evenodd" d="M127.959,11.335c0.153,0.153,0.307,0.308,0.46,0.46
			c-0.057,0.031-0.112,0.062-0.169,0.092c-0.068,0.176-0.171,0.345-0.202,0.526c-0.303,1.801-0.334,3.616-0.264,5.436
			c0.001,0.041,0.02,0.081,0.091,0.131c0.077-0.491,0.143-0.985,0.232-1.475c0.291-1.598,0.791-3.106,1.976-4.291
			c1.136-1.135,2.028-1.189,3.376-0.078c0.817,0.674,1.151,1.588,1.172,2.617c0.021,1.088-0.022,2.177,0.02,3.263
			c0.013,0.333,0.137,0.724,0.347,0.973c0.394,0.466,1.029,0.501,1.502,0.101c0.364-0.31,0.714-0.68,0.947-1.092
			c0.414-0.73,0.78-1.497,1.072-2.283c0.116-0.314-0.001-0.724-0.042-1.086c-0.228-2.012,0.372-3.757,1.704-5.254
			c0.478-0.535,1.076-0.899,1.822-0.936c0.487-0.023,0.693,0.214,0.508,0.664c-0.189,0.459-0.444,0.896-0.71,1.317
			c-0.548,0.87-1.126,1.723-1.687,2.586c-0.43,0.662-0.512,1.374-0.321,2.138c0.239,0.955,0.604,1.846,1.262,2.595
			c0.398,0.454,0.761,0.575,1.239,0.224c0.59-0.434,1.187-0.921,1.609-1.509c1.152-1.603,1.845-3.416,2.052-5.386
			c0.093-0.891,0.013-1.771-0.548-2.542c-0.222-0.305-0.405-0.383-0.724-0.113c-0.461,0.391-1.745,0.019-1.955-0.546
			c-0.111-0.297,0.05-0.499,0.28-0.649c0.521-0.34,1.081-0.349,1.645-0.141c1.919,0.712,3.601,2.29,3.238,4.832
			c-0.314,2.204-0.965,4.264-2.416,5.999c-1.354,1.617-3.122,1.823-4.831,0.588c-0.778-0.563-1.351-1.3-1.784-2.23
			c-0.193,0.461-0.328,0.883-0.541,1.262c-0.369,0.657-0.726,1.337-1.197,1.918c-0.708,0.869-1.478,0.988-2.496,0.526
			c-1.324-0.602-2.05-1.616-2.047-3.09c0.002-0.93,0.061-1.859,0.071-2.79c0.005-0.369-0.03-0.743-0.085-1.109
			c-0.053-0.351-0.272-0.465-0.541-0.238c-0.443,0.373-0.887,0.771-1.229,1.234c-0.979,1.326-1.356,2.888-1.562,4.484
			c-0.187,1.461-0.292,2.932-0.43,4.398c-0.044,0.47-0.179,0.553-0.604,0.352c-0.354-0.166-0.582-0.424-0.7-0.813
			c-0.565-1.844-0.654-3.738-0.631-5.646c0.02-1.593,0.131-3.173,0.636-4.699c0.07-0.212,0.168-0.415,0.254-0.622
			C127.826,11.4,127.893,11.368,127.959,11.335z M139.741,12.817c0.72-1.381,1.752-2.509,2.295-3.957
			C140.86,9.086,139.694,11.585,139.741,12.817z"/>
	</g>
</g>
<g id="Deja_Vu">
</g>
<g id="Indecisive">
</g>
<g id="Greedy">
</g>
<g id="Pushup">
</g>
<g id="Clothes_Swap">
</g>
</svg>
