<?xml version="1.0" encoding="utf-8"?>
<!-- Generator: Adobe Illustrator 16.0.0, SVG Export Plug-In . SVG Version: 6.00 Build 0)  -->
<!DOCTYPE svg PUBLIC "-//W3C//DTD SVG 1.1//EN" "http://www.w3.org/Graphics/SVG/1.1/DTD/svg11.dtd">
<svg version="1.1" xmlns="http://www.w3.org/2000/svg" xmlns:xlink="http://www.w3.org/1999/xlink" x="0px" y="0px"
	 width="209.76px" height="62.36px" viewBox="0 0 209.76 62.36" enable-background="new 0 0 209.76 62.36" xml:space="preserve">
<g id="Layer_1">
</g>
<g id="Can_of_Whoop-Ass">
</g>
<g id="Gun_Show">
</g>
<g id="Chicken">
</g>
<g id="Copycat">
</g>
<g id="Quiet">
</g>
<g id="DOCTOR">
</g>
<g id="Psychiatrist">
</g>
<g id="Remove">
	<path d="M17.538,31.18v-5.847H15.59V15.59h-1.948v-4.872c0-1.948-1.17-3.702-2.924-4.482V0H6.82v6.235
		c-1.754,0.78-2.923,2.534-2.923,4.482v4.872H1.948v9.743H0v37.026h17.538V42.678 M13.642,35.077v23.385H3.897V29.23h1.949v-9.743
		h1.948v-8.77c0-0.585,0.39-0.975,0.974-0.975c0.586,0,0.975,0.39,0.975,0.975v8.77h1.949v9.743h1.949V35.077z M17.538,37.61v-2.533
		"/>
	<path d="M209.76,31.181v-5.847h-1.948v-9.743h-1.948v-4.872c0-1.948-1.17-3.702-2.924-4.482V0.001h-3.897v6.235
		c-1.754,0.78-2.923,2.534-2.923,4.482v4.872h-1.949v9.743h-1.948V62.36h17.538V42.679 M205.863,35.078v23.385h-9.744V29.231h1.949
		v-9.743h1.948v-8.77c0-0.585,0.39-0.975,0.974-0.975c0.586,0,0.975,0.39,0.975,0.975v8.77h1.949v9.743h1.949V35.078z
		 M209.76,37.611v-2.533"/>
	<g>
		<path d="M30.395,48.938c0-6.295,3.538-13.17,10.587-13.17c2.523,0,6.411,1.073,6.411,4.206c0,1.683-1.161,2.64-2.988,2.64
			c-1.189,0,0.406-2.727-3.277-2.727c-4.235,0-6.034,4.322-6.034,7.948c0,5.54,3.771,7.773,6.295,7.773
			c4.729,0,5.135-4.234,5.396-4.234c0.406,0,0.638,2.32,0.638,2.61c0,4.293-3.307,6.788-7.367,6.788
			C33.469,60.773,30.395,54.798,30.395,48.938z"/>
		<path d="M56.177,48.271c0.842-0.145,1.509-0.29,1.509-1.247c0-1.479-1.538-2.263-2.814-2.263c-2.958,0-2.523,2.495-3.161,2.495
			c-0.929,0-1.943-1.132-1.943-2.379c0-2.146,2.407-3.539,5.076-3.539c0.928,0,4.902-0.028,6.381,4.032
			c0.609,1.683,0.668,10.269,0.668,11.284c0,1.276,0.231,2.03,0.231,3.017c0,0.609-2.727,0.667-5.308,0.667
			c-6.991,0-7.484-3.597-7.484-5.337C49.331,51.346,52.928,48.822,56.177,48.271z M57.976,53.348c0-1.016,0.174-2.234-1.219-2.234
			c-1.711,0-3.51,1.451-3.51,3.22c0,1.625,1.422,2.582,2.959,2.582c1.711,0,1.77-0.87,1.77-2.292V53.348z"/>
		<path d="M73.752,60.338c-0.378,0-1.016,0.087-1.016-0.464c0-0.29,1.479-4.148,1.479-10.037c0-2.059-0.174-4.641-2.146-4.641
			c-1.103,0-3.365,0.726-3.365,6.469c0,3.48,0.842,7.947,0.842,8.296c0,0.406-0.493,0.377-0.783,0.377h-2.466
			c-1.073,0-1.509,0.493-1.509-7.165c0-13.14,1.016-12.328,3.249-12.328c1.016,0,2.06-0.145,2.06,0.522
			c0,0.29-0.261,0.639-0.261,1.044c0,0.291,0.145,0.552,0.435,0.552c0.493,0,1.828-1.189,3.685-1.189
			c0.812,0,4.177,0.116,4.177,7.745c0,11.399-0.899,10.819-1.886,10.819H73.752z"/>
		<path d="M89.76,60.338c-0.378,0-1.016,0.087-1.016-0.464c0-0.29,1.479-4.148,1.479-10.037c0-2.059-0.174-4.641-2.146-4.641
			c-1.103,0-3.365,0.726-3.365,6.469c0,3.48,0.842,7.947,0.842,8.296c0,0.406-0.493,0.377-0.783,0.377h-2.466
			c-1.073,0-1.509,0.493-1.509-7.165c0-13.14,1.016-12.328,3.249-12.328c1.016,0,2.06-0.145,2.06,0.522
			c0,0.29-0.261,0.639-0.261,1.044c0,0.291,0.145,0.552,0.435,0.552c0.493,0,1.828-1.189,3.685-1.189
			c0.812,0,4.177,0.116,4.177,7.745c0,11.399-0.899,10.819-1.886,10.819H89.76z"/>
		<path d="M96.079,51.026c0-4.67,2.233-9.688,7.28-9.688c5.048,0,7.281,5.019,7.281,9.688c0,6.817-3.945,9.747-7.281,9.747
			S96.079,57.844,96.079,51.026z M107.044,50.302c0-2.292-0.813-5.541-3.685-5.541c-2.871,0-3.684,3.249-3.684,5.541
			c0,2.32,0.754,5.627,3.684,5.627S107.044,52.622,107.044,50.302z"/>
		<path d="M121.543,60.338c-0.378,0-1.016,0.087-1.016-0.464c0-0.29,1.479-4.148,1.479-10.037c0-2.059-0.174-4.641-2.146-4.641
			c-1.103,0-3.365,0.726-3.365,6.469c0,3.48,0.842,7.947,0.842,8.296c0,0.406-0.493,0.377-0.783,0.377h-2.466
			c-1.073,0-1.509,0.493-1.509-7.165c0-13.14,1.016-12.328,3.249-12.328c1.016,0,2.06-0.145,2.06,0.522
			c0,0.29-0.261,0.639-0.261,1.044c0,0.291,0.145,0.552,0.435,0.552c0.493,0,1.828-1.189,3.685-1.189
			c0.812,0,4.177,0.116,4.177,7.745c0,11.399-0.899,10.819-1.886,10.819H121.543z"/>
		<path d="M132.59,35.595c0.349,0,1.045,0,1.045,0.639c0,0.231-0.87,3.133-0.87,4.844c0,0.464,0.087,0.929,0.638,0.929
			c0.319,0,0.726-0.146,1.189-0.319c0.493-0.146,1.073-0.349,1.683-0.349c2.465,0,5.917,2.205,5.917,8.325
			c0,3.336-0.841,6.005-2.959,8.412c-0.841,0.986-2.378,2.263-4.583,2.263h-5.134c-1.016,0-0.899-9.718-0.899-10.385
			c0-1.363-0.116-14.358,1.189-14.358H132.59z M138.275,50.012c0-4.758-2.06-5.918-3.277-5.918c-2.06,0-2.466,1.016-2.466,5.251
			c0,6.265,1.479,6.149,2.233,6.149C137.608,55.494,138.275,52.158,138.275,50.012z"/>
		<path d="M150.6,48.271c0.842-0.145,1.509-0.29,1.509-1.247c0-1.479-1.538-2.263-2.813-2.263c-2.959,0-2.524,2.495-3.162,2.495
			c-0.929,0-1.943-1.132-1.943-2.379c0-2.146,2.407-3.539,5.076-3.539c0.928,0,4.902-0.028,6.381,4.032
			c0.609,1.683,0.668,10.269,0.668,11.284c0,1.276,0.231,2.03,0.231,3.017c0,0.609-2.727,0.667-5.308,0.667
			c-6.991,0-7.484-3.597-7.484-5.337C143.754,51.346,147.351,48.822,150.6,48.271z M152.398,53.348c0-1.016,0.174-2.234-1.219-2.234
			c-1.711,0-3.51,1.451-3.51,3.22c0,1.625,1.422,2.582,2.959,2.582c1.711,0,1.77-0.87,1.77-2.292V53.348z"/>
		<path d="M160.371,60.338c-1.015,0-0.898-9.718-0.898-10.385c0-1.363-0.116-14.358,1.189-14.358h2.755
			c0.319,0,1.189-0.087,1.189,0.552c0,0.174-1.218,4.351-1.218,11.573c0,7.977,1.102,11.893,1.102,12.271
			c0,0.493-0.754,0.348-1.073,0.348H160.371z"/>
		<path d="M167.824,60.338c-1.015,0-0.898-9.718-0.898-10.385c0-1.363-0.116-14.358,1.189-14.358h2.755
			c0.319,0,1.189-0.087,1.189,0.552c0,0.174-1.218,4.351-1.218,11.573c0,7.977,1.102,11.893,1.102,12.271
			c0,0.493-0.754,0.348-1.073,0.348H167.824z"/>
	</g>
</g>
<g id="Layer_10">
</g>
<g id="Bipolar">
	<g id="Layer_12">
	</g>
</g>
<g id="YesorNo">
</g>
<g id="Deja_Vu">
</g>
<g id="Indecisive">
</g>
<g id="Greedy">
</g>
<g id="Pushup">
</g>
<g id="Clothes_Swap">
</g>
</svg>
