<?xml version="1.0" encoding="utf-8"?>
<!-- Generator: Adobe Illustrator 16.0.0, SVG Export Plug-In . SVG Version: 6.00 Build 0)  -->
<!DOCTYPE svg PUBLIC "-//W3C//DTD SVG 1.1//EN" "http://www.w3.org/Graphics/SVG/1.1/DTD/svg11.dtd">
<svg version="1.1" xmlns="http://www.w3.org/2000/svg" xmlns:xlink="http://www.w3.org/1999/xlink" x="0px" y="0px"
	 width="209.76px" height="62.36px" viewBox="0 0 209.76 62.36" enable-background="new 0 0 209.76 62.36" xml:space="preserve">
<g id="Layer_1">
</g>
<g id="Can_of_Whoop-Ass">
</g>
<g id="Gun_Show">
</g>
<g id="Chicken">
</g>
<g id="Copycat">
</g>
<g id="Quiet">
</g>
<g id="DOCTOR">
</g>
<g id="Psychiatrist">
</g>
<g id="Remove">
</g>
<g id="Layer_10">
</g>
<g id="Bipolar">
	<g id="Layer_12">
	</g>
</g>
<g id="YesorNo">
</g>
<g id="Deja_Vu">
</g>
<g id="Indecisive">
</g>
<g id="Greedy">
	<g display="none">
		<path display="inline" fill="none" stroke="#000000" d="M49.269,21.45c-0.408,0.068-0.748-0.084-1.02-0.459l-1.734-2.346
			c-0.306-0.408-0.484-0.858-0.535-1.352c-0.052-0.492,0.008-0.977,0.178-1.453c0.477-1.156,0.901-2.176,1.275-3.061
			c0.306-0.781,0.587-1.479,0.842-2.091s0.399-0.935,0.434-0.969c0.102-0.204,0.169-0.468,0.204-0.791
			c0.033-0.322,0-0.638-0.103-0.943c-0.102-0.306-0.28-0.578-0.535-0.816c-0.255-0.237-0.621-0.39-1.097-0.459
			c-1.666-0.237-3.146,0.8-4.438,3.111l-9.944,23.358c-0.408,1.292-0.57,2.371-0.484,3.238c0.084,0.867,0.568,1.521,1.453,1.964
			c0.441,0.237,0.842,0.348,1.198,0.331c0.357-0.018,0.68-0.11,0.97-0.28c0.288-0.17,0.526-0.399,0.714-0.688
			c0.187-0.289,0.364-0.587,0.535-0.893l4.182-9.945c0-0.033,0.009-0.059,0.026-0.076c0.017-0.017,0.025-0.042,0.025-0.077
			l0.407-1.02c0.17-0.374,0.477-0.587,0.918-0.638c0.442-0.051,0.782,0.111,1.021,0.484l1.734,2.856
			c0.339,0.544,0.476,1.122,0.407,1.733c0.034,0.238,0,0.511-0.102,0.816l-9.078,21.471c-0.171,0.408-0.459,0.638-0.867,0.688
			c-0.408,0.052-0.748-0.11-1.02-0.484L33,49.857c-0.545-0.782-0.63-1.615-0.255-2.499l1.938-4.59
			c0.102-0.238,0.11-0.477,0.025-0.714c-0.085-0.238-0.247-0.392-0.484-0.459c-0.646-0.272-1.293-0.63-1.938-1.071
			c-1.191-0.748-2.186-1.471-2.984-2.168c-0.799-0.696-1.402-1.428-1.811-2.192c-0.407-0.766-0.603-1.598-0.586-2.499
			c0.018-0.9,0.28-1.93,0.79-3.086c1.87-4.317,3.52-8.16,4.947-11.525c0.612-1.429,1.215-2.839,1.811-4.233
			c0.595-1.394,1.122-2.626,1.581-3.697s0.977-2.286,1.556-3.646c0.136-0.237,0.408-0.62,0.815-1.147
			c0.408-0.527,1.003-1.012,1.785-1.454c0.782-0.441,1.785-0.765,3.009-0.969c1.225-0.204,2.703-0.118,4.438,0.255
			c1.972,0.442,3.408,1.097,4.31,1.964c0.9,0.867,1.47,1.777,1.708,2.729c0.238,0.952,0.264,1.87,0.077,2.754
			c-0.188,0.885-0.383,1.564-0.587,2.04l-3.009,7.14C49.965,21.162,49.677,21.383,49.269,21.45z"/>
		<path display="inline" fill="none" stroke="#000000" d="M81.347,21.501c-0.986,1.803-2.04,3.299-3.162,4.488
			c-1.122,1.19-2.252,2.134-3.392,2.831c-1.139,0.697-2.277,1.182-3.417,1.453c-1.139,0.272-2.218,0.374-3.238,0.306l4.131,11.373
			c0.068,0.17,0.043,0.332-0.076,0.484c-0.119,0.153-0.264,0.229-0.434,0.229h-4.794c-0.51,0-0.961-0.161-1.352-0.484
			c-0.392-0.323-0.621-0.739-0.688-1.249l-1.887-11.985l-0.612-0.561c-0.102-0.136-0.238-0.187-0.408-0.153
			c-0.17,0.034-0.289,0.137-0.356,0.306l-5.101,11.935c-0.17,0.408-0.459,0.638-0.866,0.688c-0.408,0.051-0.749-0.111-1.021-0.484
			l-1.836-2.806c-0.543-0.815-0.629-1.665-0.255-2.55L65.537,4.824c0.17-0.374,0.441-0.586,0.815-0.638
			c0.374-0.051,0.697,0.077,0.97,0.383l2.396,2.703c0.441,0.51,0.527,1.071,0.255,1.683l-3.876,9.129
			c-0.068,0.103-0.051,0.179,0.051,0.229c0.103,0.052,0.187,0.043,0.256-0.025c0.951-1.326,1.979-2.711,3.085-4.156
			c1.104-1.444,2.201-2.821,3.29-4.131c1.087-1.309,2.142-2.456,3.161-3.442c1.021-0.986,1.938-1.684,2.755-2.091
			c0.577-0.272,1.173-0.357,1.784-0.256c0.612,0.103,1.156,0.375,1.633,0.816l2.55,2.346c0.577,0.545,0.951,1.199,1.122,1.964
			c0.17,0.765,0.102,1.505-0.204,2.219L81.347,21.501z M63.242,25.479c-0.204,0.272-0.12,0.477,0.255,0.612
			c0.441,0.136,0.985,0.255,1.632,0.356c0.646,0.103,1.377,0.153,2.193,0.153c1.428,0,2.796-0.492,4.105-1.479
			c1.309-0.985,2.516-2.218,3.621-3.697c1.104-1.479,2.082-3.077,2.932-4.794s1.538-3.315,2.066-4.794
			c0.526-1.479,0.866-2.703,1.02-3.672s0.076-1.454-0.229-1.454c-0.714-0.102-1.819,0.477-3.315,1.734
			c-0.646,0.544-1.411,1.259-2.295,2.142c-0.884,0.885-1.912,2.007-3.085,3.366c-1.173,1.36-2.491,2.983-3.953,4.871
			C66.727,20.711,65.078,22.93,63.242,25.479z"/>
		<path display="inline" fill="none" stroke="#000000" d="M105.318,20.89c0.135,0.204,0.152,0.408,0.051,0.611l-1.887,4.438
			c-0.103,0.272-0.307,0.408-0.612,0.408h-8.007c-0.952,0-1.615,0.442-1.989,1.326l-2.499,5.864
			c-0.171,0.442-0.137,0.859,0.102,1.25s0.595,0.586,1.071,0.586h9.895c0.373,0,0.68,0.153,0.918,0.459
			c0.237,0.307,0.271,0.646,0.102,1.021l-1.275,2.958c-0.374,0.884-1.037,1.326-1.988,1.326H83.592
			c-0.578,0-1.028-0.238-1.352-0.714c-0.322-0.477-0.382-0.987-0.179-1.53L96.087,5.437c0.17-0.374,0.425-0.68,0.765-0.918
			c0.34-0.237,0.697-0.357,1.071-0.357h17.34c0.204,0,0.365,0.095,0.484,0.28c0.119,0.188,0.145,0.383,0.077,0.587l-1.632,3.825
			c-0.341,0.714-0.901,1.071-1.684,1.071h-10.2c-0.578,0-1.113,0.161-1.606,0.484s-0.858,0.773-1.096,1.352l-3.265,7.7
			c-0.102,0.273-0.076,0.528,0.077,0.766c0.152,0.238,0.364,0.356,0.637,0.356h7.701C104.994,20.583,105.182,20.686,105.318,20.89z"
			/>
		<path display="inline" fill="none" stroke="#000000" d="M133.929,20.89c0.135,0.204,0.152,0.408,0.051,0.611l-1.887,4.438
			c-0.103,0.272-0.307,0.408-0.612,0.408h-8.007c-0.952,0-1.615,0.442-1.989,1.326l-2.499,5.864
			c-0.171,0.442-0.137,0.859,0.102,1.25s0.595,0.586,1.071,0.586h9.895c0.373,0,0.68,0.153,0.918,0.459
			c0.237,0.307,0.271,0.646,0.102,1.021l-1.275,2.958c-0.374,0.884-1.037,1.326-1.988,1.326h-15.606
			c-0.578,0-1.028-0.238-1.352-0.714c-0.322-0.477-0.382-0.987-0.179-1.53l14.025-33.456c0.17-0.374,0.425-0.68,0.765-0.918
			c0.34-0.237,0.697-0.357,1.071-0.357h17.34c0.204,0,0.365,0.095,0.484,0.28c0.119,0.188,0.145,0.383,0.077,0.587l-1.632,3.825
			c-0.341,0.714-0.901,1.071-1.684,1.071h-10.2c-0.578,0-1.113,0.161-1.606,0.484s-0.858,0.773-1.096,1.352l-3.265,7.7
			c-0.102,0.273-0.076,0.528,0.077,0.766c0.152,0.238,0.364,0.356,0.637,0.356h7.701C133.604,20.583,133.792,20.686,133.929,20.89z"
			/>
		<path display="inline" fill="none" stroke="#000000" d="M171.566,7.222c0.577,0.544,1.036,1.224,1.377,2.04
			c0.339,0.815,0.356,1.581,0.051,2.295l-8.109,19.022c-1.326,3.129-2.848,5.5-4.564,7.115c-1.717,1.614-3.435,2.651-5.15,3.11
			c-1.718,0.459-3.358,0.425-4.922-0.102c-1.564-0.527-2.856-1.386-3.876-2.576c-0.102-0.135-0.229-0.194-0.383-0.178
			c-0.152,0.018-0.264,0.11-0.331,0.28l-1.479,3.417c-0.17,0.408-0.459,0.638-0.866,0.688c-0.408,0.051-0.749-0.111-1.021-0.484
			l-1.836-2.806c-0.543-0.781-0.629-1.614-0.255-2.499l13.413-31.722c0.17-0.374,0.441-0.586,0.815-0.638
			c0.374-0.051,0.697,0.077,0.97,0.383l2.396,2.703c0.441,0.477,0.544,1.037,0.307,1.683l-3.111,7.345
			c-0.068,0.102-0.051,0.178,0.051,0.229c0.103,0.051,0.187,0.025,0.255-0.077c0.816-1.054,1.7-2.175,2.652-3.366
			c0.951-1.189,1.895-2.337,2.83-3.442c0.935-1.104,1.836-2.107,2.703-3.009c0.867-0.9,1.64-1.572,2.32-2.015
			c0.511-0.339,1.063-0.484,1.658-0.434c0.594,0.052,1.113,0.281,1.555,0.688L171.566,7.222z M160.091,27.417
			c0.17-0.476,0.527-1.316,1.071-2.524c0.543-1.206,1.147-2.592,1.811-4.156c0.663-1.563,1.343-3.179,2.04-4.845
			c0.696-1.666,1.292-3.195,1.785-4.59c0.492-1.395,0.85-2.533,1.07-3.417s0.179-1.326-0.127-1.326
			c-0.612,0.136-1.581,0.765-2.907,1.887c-0.578,0.51-1.241,1.147-1.989,1.912c-0.748,0.766-1.624,1.718-2.626,2.856
			c-1.004,1.14-2.125,2.482-3.366,4.029s-2.627,3.357-4.156,5.432c-0.714,0.986-1.259,1.955-1.632,2.906l-3.774,8.823
			c-0.238,0.51-0.119,0.918,0.357,1.224c0.849,0.545,1.784,0.893,2.805,1.046c1.02,0.153,2.082-0.033,3.188-0.561
			c1.104-0.527,2.21-1.479,3.314-2.856S159.104,29.934,160.091,27.417z"/>
		<path display="inline" fill="none" stroke="#000000" d="M206.042,8.088l-18.87,44.37c-0.171,0.408-0.459,0.638-0.867,0.688
			c-0.408,0.052-0.731-0.11-0.969-0.484l-1.888-2.805c-0.272-0.375-0.425-0.782-0.459-1.224c-0.034-0.442,0.034-0.867,0.204-1.275
			l9.741-22.593c0.067-0.136,0.033-0.246-0.102-0.332c-0.137-0.084-0.256-0.059-0.357,0.077c-2.618,3.91-5.058,6.852-7.318,8.822
			c-2.262,1.973-4.548,2.771-6.859,2.397c-0.341-0.067-0.612-0.221-0.816-0.459l-1.836-2.805c-0.543-0.816-0.629-1.666-0.255-2.551
			l10.455-25.092c0.17-0.374,0.441-0.586,0.815-0.638c0.374-0.051,0.697,0.077,0.97,0.383l2.396,2.703
			c0.441,0.51,0.527,1.071,0.255,1.683l-9.485,22.695c0.271,0.578,0.79,0.688,1.555,0.331c0.766-0.356,1.684-1.053,2.755-2.091
			c1.07-1.036,2.243-2.346,3.519-3.927s2.566-3.315,3.876-5.202c1.309-1.887,2.575-3.858,3.8-5.916
			c1.224-2.057,2.312-4.071,3.264-6.043l2.04-4.794c0.17-0.374,0.441-0.595,0.816-0.663c0.373-0.068,0.696,0.051,0.969,0.356
			l2.396,2.703C206.228,6.915,206.313,7.477,206.042,8.088z"/>
	</g>
	<g>
		<path fill="none" stroke="#000000" d="M4.334,23.479l-1.143,1.084l-1.758-5.771l1.479-4.585l0.029,2.329l1.582-9.976l1.04-3.018
			l5.112-0.498l-0.513,1.582l1.538-1.67l6.899-0.659l0.527,0.542l-0.337,1.025l-0.776,0.469L17.4,6.868l0.527-0.352l-0.806,3.545
			l-5.713-0.146l-2.827,8.496l3.193,5.508l1.831-3.003l-1.802,0.103l0.264-1.099l-0.366-2.563l0.176-1.641h8.687L18.323,24.9
			l-1.084,0.542l0.864,0.381l-1.157,4.673l-4.526,0.498l0.322-1.069L9.3,31.038l-5.2-3.472l-0.044-0.132
			C4.29,26.771,4.383,25.452,4.334,23.479z"/>
		<path fill="none" stroke="#000000" d="M33.867,23.362l-0.015,0.015l0.029,3.618l-0.542-1.699l0.645,5.42l-6.812-0.996l0.791-0.85
			l-1.011-0.322l-0.103-3.237l0.674,0.044l-0.996-6.724l0.088-5.889l0.352-0.293l-0.439-1.025l-0.205-7.705l2.959,0.19l-0.615,1.143
			l1.978-1.187l6.606,0.293l2.271,1.494l0.015,0.923l0.542-0.425l2.197,1.421l0.132,8.862l-1.245,1.992l-3.135,2.212l0.498,0.747
			l0.996,0.352l1.436,1.699l0.85,2.139l-0.278-1.289l2.124,1.992l-4.6,4.409l-1.479-2.109l0.073-1.025l-0.293,0.396L33.867,23.362z
			 M33.281,9.549l0.205,6.958l1.816-1.069l0.176-4.512L33.281,9.549z"/>
		<path fill="none" stroke="#000000" d="M56.515,18.382l-0.146,5.435h8.042l0.146,0.967l-0.586,0.264l0.718,0.659l0.571,3.926
			l-5.142-0.718l-0.747,0.439l-2.227-0.278l-1.67-1.567l0.41,1.421l-4.175-0.483l-0.542,1.831l-1.758-3.032l0.176-4.204l0.981-0.073
			l-0.938-0.923l0.322-7.749l0.527,1.099L50.392,7.19l0.381-0.264L50.67,5.433l-0.615-1.099h9.214l1.362-0.41l2.637-0.059
			L62.96,8.318l-2.432,0.029l2.388,0.674l-0.059,1.377l-6.123-0.527l-0.088,3.384l2.417-0.029l0.703-0.22h2.007l-0.659,5.332
			l-1.45-0.015l-1.699-0.542l0.19,0.586L56.515,18.382z"/>
		<path fill="none" stroke="#000000" d="M78.123,18.382l-0.146,5.435h8.042l0.146,0.967l-0.586,0.264l0.718,0.659l0.571,3.926
			l-5.142-0.718l-0.747,0.439l-2.227-0.278l-1.67-1.567l0.41,1.421l-4.175-0.483l-0.542,1.831l-1.758-3.032l0.176-4.204l0.981-0.073
			l-0.938-0.923l0.322-7.749l0.527,1.099L72,7.19l0.381-0.264l-0.103-1.494l-0.615-1.099h9.214l1.362-0.41l2.637-0.059l-0.308,4.453
			l-2.432,0.029l2.388,0.674l-0.059,1.377l-6.123-0.527l-0.088,3.384l2.417-0.029l0.703-0.22h2.007l-0.659,5.332l-1.45-0.015
			l-1.699-0.542l0.19,0.586L78.123,18.382z"/>
		<path fill="none" stroke="#000000" d="M93.754,18.66l-1.128-0.161V3.47l3.604-1.084L98.91,3.03l-0.498,1.26l1.875-0.923
			l4.541,1.099l2.974,14.414l-0.835,5.947l-1.23,1.729l0.879,0.835l-0.439,3.179l-13.521,1.084V28.46l1.597-0.659l-1.597,0.073
			v-1.245l0.557-0.381l-0.557-2.637l-0.015-3.691L93.754,18.66z M101.459,21.678l1.245,0.205l-1.069-1.099l0.527-2.549l-1.948-8.145
			l-0.791-0.146l-0.088,2.959l-0.688,1.582l0.659-0.586l-0.366,11.367l1.963-0.864L101.459,21.678z"/>
		<path fill="none" stroke="#000000" d="M118.995,17.898l-1.318-1.333l-4.57-4.468l0.337,0.015l-0.117-1.816l-0.454-0.469
			l-0.044-5.537l1.831-0.981l-0.352,3.53l1.011-3.047h3.896L119.2,6.341l-1.172-0.718l1.187,1.743l0.015,2.3l3.003,3.223
			l1.011-1.567l-0.073-5.479l0.776,0.044l-0.601-0.967V2.503l3.618,0.498l0.293,1.86l0.571-0.835l1.729,0.542l-0.396,10.781
			l-1.904,1.216l0.542,0.835l-3.193,4.556l-4.014,3.003l2.563-1.362L117.12,31.8l-0.22-1.743l-4.233-4.731l1.597-1.772l1.362-0.41
			L118.995,17.898z"/>
	</g>
	<g>
		<path fill="none" stroke="#000000" d="M130.363,26.104c0.233-0.054,0.468-0.055,0.7-0.005l0.121,0.036l0.608-0.298l-0.135,0.216
			l0.364,0.193l0.286,0.298l-0.466,0.098c0.153,0.085,0.294,0.111,0.421,0.08c0.123,0.041,0.215,0.118,0.275,0.232
			c0.005,0.173-0.039,0.356-0.131,0.548c0.162,0.105,0.313,0.268,0.455,0.487c0.046,0.133,0.152,0.257,0.319,0.371l-0.229,0.24
			l0.43,0.428l0.747,1.117l0.279,0.564l-0.213,0.32l0.255-0.181l0.138,0.115l0.063,0.553l1.576,2.794l-0.046,0.178l-0.156,0.207
			c0.148,0.019,0.303,0.075,0.461,0.171l0.213,0.329l-0.046,0.179l0.335,0.45l-0.028,0.26l0.35,0.444l2.005,3.54l0.261,0.238
			l-0.321-0.055l0.074,0.215c0.151,0.215,0.294,0.463,0.428,0.745c0.127,0.05,0.219,0.127,0.275,0.231l-0.155-0.197l-0.058,0.517
			l0.233,0.094c0.099,0.145,0.188,0.327,0.272,0.549l-0.014,0.252l0.335,0.452l-0.028,0.258c0.109,0.198,0.275,0.407,0.499,0.627
			l0.429,0.744l0.187,0.921l0.339,0.134l0.347,0.763l0.276,0.232c-0.105,0.081-0.147,0.175-0.124,0.282l0.278,0.563l-0.028,0.258
			l0.255,0.469c0.219,0.129,0.438,0.297,0.658,0.507l-0.21,0.651l0.135,0.434c0.049-0.103,0.126-0.183,0.229-0.239l0.181,0.255
			l-0.167,0.143l0.139,0.116l0.322,0.703l0.548,0.132l-0.09,0.688c-0.104,0.163-0.159,0.321-0.163,0.475l0.624,0.345l0.261,0.239
			c-0.072-0.005-0.145-0.037-0.219-0.1l-0.061,0.185l-0.255-0.224c-0.081,0.164-0.102,0.331-0.064,0.501l-0.374,0.392l0.014-0.252
			l-0.611,0.615c-0.078,0.011-0.153-0.016-0.227-0.077c-0.213,0.186-0.465,0.359-0.759,0.52l-4.169,2.294
			c-0.258,0.136-0.537,0.315-0.839,0.54c-0.29,0.113-0.548,0.26-0.775,0.438c-0.289,0.114-0.548,0.262-0.774,0.441l-0.306,0.026
			l-0.59,0.378l-0.903,0.391l-0.726,0.595l-0.704,0.321l-0.258-0.151l0.305-0.026l0.047-0.178l-0.394,0.063l-0.52,0.261
			l-0.415,0.302l0.004-0.317l-0.121-0.035c-0.168-0.174-0.297-0.375-0.384-0.606l-0.507-0.642c-0.07-0.191-0.197-0.388-0.377-0.591
			c-0.097-0.193-0.249-0.355-0.458-0.487c-0.249,0.072-0.508,0.108-0.777,0.108c-0.235-0.109-0.448-0.252-0.641-0.426l-0.595-0.604
			l-3.333-6.896l0.028-0.26l-1.991-5.178l-5.823-9.367l-0.271-0.549l0.028-0.258l0.726-0.595l11.078-6.21l0.838-0.539
			C129.716,26.472,130.039,26.302,130.363,26.104z M117.448,33.951l-0.034-0.16l-0.089,0.039L117.448,33.951z M117.661,34.28
			l0.181,0.256l0.003-0.317L117.661,34.28z M117.934,34.831l-0.042-0.141l-0.09,0.039L117.934,34.831z M118.298,33.075
			c0.078,0.071,0.186,0.09,0.322,0.054L118.298,33.075z M118.726,35.12c0.04,0.064,0.117,0.096,0.233,0.092
			C118.917,35.171,118.84,35.141,118.726,35.12z M118.804,33.716l0.043,0.141l0.151-0.137L118.804,33.716z M119.122,32.788
			l0.209-0.002l0.047-0.178l-0.209,0.003L119.122,32.788z M120.26,32.21l0.215,0.012l0.046-0.178l-0.216-0.012L120.26,32.21z
			 M120.408,37.306l-0.042-0.139l-0.097,0.024L120.408,37.306z M120.529,36.042l-0.05-0.153l-0.088,0.038L120.529,36.042z
			 M120.882,37.873l-0.028-0.145l-0.095,0.023L120.882,37.873z M120.776,31.863l0.183-0.063l-0.042-0.139l-0.095,0.023
			L120.776,31.863z M120.793,33.243l0.155,0.195l-0.06-0.22L120.793,33.243z M120.966,35.468l-0.044-0.14l-0.088,0.038
			L120.966,35.468z M120.991,40.197l0.259,0.151l-0.093-0.294l-0.12-0.035L120.991,40.197z M121.132,32.728l-0.049-0.154
			l-0.088,0.038L121.132,32.728z M126.609,32.729l-1.942,0.947l-0.518,0.591l-0.611,0.37l-0.605,0.631
			c-0.126,0.195-0.229,0.42-0.305,0.676c-0.206,0.147-0.383,0.347-0.532,0.599c-0.126,0.195-0.31,0.368-0.548,0.519l-0.011,0.583
			c-0.176,0.135-0.263,0.301-0.259,0.498c0.044,0.238,0.062,0.506,0.049,0.803l-0.031,0.576l0.187,0.92
			c-0.001,0.188,0.023,0.394,0.074,0.618l0.258,0.151l-0.028,0.258l7.521,13.584c0.086,0.197,0.214,0.398,0.386,0.605l-0.142-0.448
			c0.123,0.04,0.215,0.118,0.275,0.231c0.102,0.18,0.247,0.314,0.439,0.407l0.555,0.146l-0.29,0.424l0.321,0.055l0.093,0.292
			c0.174-0.108,0.295-0.262,0.364-0.455c0.11-0.013,0.187,0.014,0.227,0.078l0.594-0.046l0.58,0.205l0.377-0.391
			c0.03,0.045,0.107,0.076,0.232,0.093l1.72-0.042l1.69-0.433l0.178-0.076l-0.025-0.059l0.315,0.037l1.221-0.668l0.21-0.002
			l1.554-1.198c0.174-0.192,0.34-0.416,0.499-0.673c0.188-0.186,0.357-0.404,0.506-0.657l0.875-1.466l0.273-0.75
			c0.014-0.24,0.068-0.504,0.166-0.792l-0.141-1.747l-0.258-0.557l0.014-0.251l-0.506-0.642l-0.165-0.912l-0.506-0.642l-0.339-0.783
			l-0.487-0.562c-0.204-0.146-0.442-0.277-0.715-0.394c-0.263-0.038-0.533-0.027-0.811,0.034l-0.746,0.183l-0.167,0.142
			l-0.896,0.405c-0.237,0.127-0.456,0.284-0.654,0.476l-0.306,0.027l-0.59,0.379l-0.489,0.736l0.188,0.92l1.495,3.216l-0.136,0.866
			l-0.53,0.598l-0.762,0.188l-0.927-0.723l-0.014,0.253l-0.583-0.538l-0.429-0.747l0.03-0.257l-0.641-1.075l-0.475-0.567
			l-0.823-1.662c-0.118-0.219-0.282-0.435-0.49-0.649l-2.938-5.576l-0.197-0.984l0.089-0.688c0.101-0.254,0.264-0.5,0.488-0.737
			c0.26-0.078,0.548-0.126,0.867-0.147c0.239,0.097,0.483,0.226,0.729,0.387l1.084,1.253c0.107,0.246,0.254,0.492,0.443,0.738
			l0.444,0.826c0.134,0.199,0.326,0.373,0.577,0.522l0.839,0.111l2.83-1.328c0.268-0.14,0.522-0.308,0.765-0.507
			c0.135-0.175,0.271-0.387,0.411-0.634l-0.205-1.001l-0.766-1.528c-0.094-0.217-0.226-0.412-0.394-0.585l-0.901-1.313
			c-0.174-0.159-0.388-0.301-0.641-0.426c-0.148-0.183-0.338-0.363-0.567-0.545c-0.208-0.156-0.452-0.284-0.729-0.387l-0.719-0.321
			l-0.849-0.177l-2.742-0.009L126.609,32.729z M122.246,35.669l-0.043-0.139l-0.095,0.023L122.246,35.669z M122.492,35.51
			l-0.049-0.154l-0.088,0.038L122.492,35.51z M122.372,30.806c0.04,0.064,0.117,0.095,0.232,0.092
			C122.565,30.833,122.488,30.802,122.372,30.806z M125.341,30.241l-0.043-0.14l-0.095,0.023L125.341,30.241z M125.25,29.298
			c0.034,0.055,0.11,0.081,0.226,0.077C125.449,29.34,125.373,29.314,125.25,29.298z M125.78,29.349l-0.043-0.139l-0.088,0.038
			L125.78,29.349z M126.849,28.571c-0.029-0.069-0.105-0.095-0.227-0.078C126.663,28.534,126.738,28.56,126.849,28.571z
			 M127.624,28.13l-0.028-0.145l-0.095,0.022L127.624,28.13z M129.1,33.251l0.163,0.175l-0.226-0.078L129.1,33.251z M129.906,55.986
			l-0.019,0.323l0.17,0.19l0.135-0.216L129.906,55.986z M130.241,56.438l-0.212,0.321l0.487-0.089L130.241,56.438z M130.336,57.064
			c0.033,0.104,0.122,0.175,0.271,0.216L130.336,57.064z M130.879,26.811l0.156,0.196l-0.066-0.234L130.879,26.811z M131.171,56.844
			c0.036,0.055,0.111,0.081,0.227,0.077C131.372,56.861,131.297,56.837,131.171,56.844z M131.216,33.881l0.258,0.151l-0.255,0.182
			L131.216,33.881z M131.351,26.396l0.184-0.062l-0.049-0.154l-0.09,0.039L131.351,26.396z M131.49,57.863l-0.044-0.138
			l-0.088,0.038L131.49,57.863z M131.383,26.471l0.154,0.196l0.03-0.258L131.383,26.471z M131.569,59.146
			c0.051,0.061,0.128,0.092,0.234,0.093C131.773,59.17,131.695,59.139,131.569,59.146z M131.813,28.198l-0.05-0.155l-0.088,0.038
			L131.813,28.198z M131.737,37.201c0.137,0.069,0.234,0.174,0.295,0.312l-0.337,0.198L131.737,37.201z M131.906,57.895
			c0.043,0.1,0.133,0.171,0.271,0.218C132.128,58.027,132.038,57.956,131.906,57.895z M132.255,56.709
			c-0.041-0.065-0.118-0.095-0.233-0.093C132.063,56.657,132.14,56.688,132.255,56.709z M132.36,56.751l0.028,0.392l0.243,0.157
			l-0.109-0.374c0.125-0.064,0.223-0.177,0.294-0.337l-0.247,0.159L132.36,56.751z M132.37,38.945l0.41,0.017l0.154,0.846
			C132.697,39.583,132.509,39.296,132.37,38.945z M132.474,37.604l0.215,0.415l-0.152,0.136L132.474,37.604z M132.876,57.458
			l-0.043-0.139l-0.094,0.022L132.876,57.458z M132.999,35.69l0.184-0.063l-0.047,0.178L132.999,35.69z M133.141,28.87l-0.05-0.153
			l-0.089,0.038L133.141,28.87z M133.171,29.349l-0.049-0.154l-0.089,0.039L133.171,29.349z M133.407,56.86l-0.043-0.141
			l-0.095,0.023L133.407,56.86z M133.28,38.94l0.99,0.221C133.858,39.292,133.527,39.218,133.28,38.94z M133.322,57.229
			c0.034,0.056,0.11,0.082,0.227,0.078C133.509,57.243,133.433,57.218,133.322,57.229z M133.464,38.228
			c0.219,0.047,0.415,0.137,0.59,0.271C133.839,38.487,133.641,38.396,133.464,38.228z M133.479,30.304l0.026,0.146l0.167-0.143
			L133.479,30.304z M133.765,30.602l0.184-0.063l-0.042-0.139l-0.095,0.023L133.765,30.602z M134.287,37.942l0.259,0.151
			C134.446,38.078,134.36,38.028,134.287,37.942z M134.511,38.337c0.101,0.016,0.187,0.065,0.26,0.151
			C134.653,38.491,134.567,38.441,134.511,38.337z M134.724,37.366l0.275,0.232C134.901,37.56,134.81,37.482,134.724,37.366z
			 M135.65,56.891l0.044,0.14l0.151-0.137L135.65,56.891z M135.756,57.582c0.035,0.056,0.111,0.081,0.228,0.077
			C135.958,57.601,135.882,57.575,135.756,57.582z M136.146,45.284c0.073-0.02,0.148,0.006,0.226,0.077l-0.077,0.104L136.146,45.284
			z M136.28,45.718c0.174,0.077,0.312,0.193,0.413,0.347L136.28,45.718z M136.6,36.223l0.163,0.176l-0.076-0.214L136.6,36.223z
			 M137.026,54.103l0.594-0.047l0.151-0.135l-0.375,0.39L137.026,54.103z M137.968,44.303c0.13,0.003,0.246,0.04,0.348,0.113
			C138.185,44.414,138.069,44.376,137.968,44.303z M138.151,53.457l0.657-0.144c-0.164,0.188-0.377,0.374-0.638,0.557
			L138.151,53.457z M138.481,55.562l-0.049-0.154l-0.09,0.038L138.481,55.562z M138.474,44.944l0.243,0.158
			C138.627,45.083,138.546,45.031,138.474,44.944z M143.83,51.529c0.046,0.05,0.121,0.076,0.227,0.077
			C144.029,51.571,143.954,51.546,143.83,51.529z M144.017,52.448l0.165,0.176l-0.076-0.215L144.017,52.448z M144.246,52.858
			l-0.048-0.154l-0.089,0.039L144.246,52.858z M144.246,52.209l0.047,0.472l0.305-0.025
			C144.529,52.497,144.413,52.348,144.246,52.209z M144.396,53.04l0.184-0.063l-0.027-0.146l-0.096,0.024L144.396,53.04z"/>
		<path fill="none" stroke="#000000" d="M160.489,23.082l0.373,0.698l0.049,0.277l1.7,4.864l-0.711-1.482L160.489,23.082z
			 M162.815,29.924c0.229,0.205,0.451,0.471,0.663,0.8l2.185,3.796l-0.073,1.822l0.37,1.017l-0.131-0.101l-1.521-3.152l-0.174-0.241
			l-0.254-0.75l-0.396-0.918l0.022-0.149l-0.337-0.942l-0.059-0.134L162.815,29.924z M173.7,18.23l2.303-0.767l0.432-0.257
			l0.16,0.001l0.75-0.254l0.166-0.143l0.484-0.14c0.218,0.152,0.402,0.336,0.554,0.552l0.799,2.375
			c0.101,0.261,0.169,0.54,0.206,0.842l-2.063,2.05c-0.048,0.186-0.061,0.401-0.036,0.646l0.201,0.301l-0.002,0.158l5.092,13.037
			c0.085,0.196,0.095,0.396,0.031,0.602l-0.598-0.287l-0.551-0.377l-1.809-0.938l-0.549-0.377l-1.206-0.638l-0.556-0.392
			l-1.804-0.924c-0.167-0.114-0.366-0.209-0.599-0.285l-1.163-0.743l-0.598-0.286l-0.556-0.392l-3.015-1.575l-0.103,0.29
			l0.305,0.869l0.148,0.181l0.139,0.484l3.048,7.617c0.03,0.234-0.022,0.461-0.161,0.685l-1.419,0.859
			c-0.146-0.124-0.269-0.282-0.362-0.476l-0.143-0.167l-0.165-0.542l-0.767-1.775l-0.223-0.677l-0.148-0.181
			c-0.035-0.161-0.09-0.342-0.164-0.544l-0.396-0.916l-0.208-0.683l-0.163-0.177c-0.025-0.163-0.075-0.347-0.15-0.549l-0.28-0.81
			l-0.148-0.181l-0.19-0.603l-0.741-1.717l-0.208-0.682l-0.761-1.761l-0.229-0.69l-0.258-0.434l0.002-0.158l-0.396-0.917
			l-0.124-0.49l-0.125-0.086l-0.636-1.675l1.186-0.67l0.591-0.256l0.094-0.109l0.1,0.026c0.182-0.066,0.396-0.107,0.648-0.123
			l2.343,1.48l0.598,0.285l1.712,1.121l0.599,0.286l2.282,1.506l0.599,0.285l1.713,1.119c0.145,0.091,0.304,0.149,0.48,0.18
			l-0.419-1.293l-0.143-0.168l-0.855-2.509l-0.313-0.725l-0.544-1.625l-0.148-0.183l-0.14-0.483l-0.909-2.468l-0.396-0.918
			L173.7,18.23z M166.323,38.201l0.488,0.965l0.074-0.031l-0.049,0.092l1.439,2.801l0.023,0.217L166.323,38.201z M168.39,42.451
			c0.271,0.328,0.514,0.715,0.73,1.16l0.396,0.917l0.156,0.159l1.379,2.828c-0.279-0.324-0.527-0.708-0.742-1.153L168.39,42.451z"/>
		<path fill="none" stroke="#000000" d="M188.113,8.681l7.9-3.328l0.782-0.425l0.237-0.017l0.297-0.127
			c0.408-0.083,0.762,0.057,1.06,0.42l0.547,1.063l-0.19,0.169l-0.592,0.256l0.563,0.284c0.339,0.135,0.6,0.401,0.785,0.801
			l6.214,15.185l-0.043,0.107l0.171,0.188l0.867,2.416l-0.01,0.181l1.619,4.355c0.16,0.423,0.039,0.737-0.363,0.946l-1.436,0.534
			c-0.379,0.151-0.839,0.292-1.381,0.421l-12.554,4.461l-0.692,0.388l-0.254,0.021l-0.297,0.128l-0.654,0.108l-0.985-2.278
			l-1.491-4.06l-1.145-2.647l-0.021-0.254l-1.267-2.929l-0.47-1.289l-0.633-1.464l-0.438-1.216l-0.633-1.464l-1.631-4.176
			l-1.144-2.647l-0.022-0.253l-0.117-0.477l0.545-0.323l0.254-0.022l0.929-0.489l0.254-0.022l0.634-0.361l2.204-0.952l0.608-0.176
			l0.189-0.17l1.835-0.793L188.113,8.681z M182.868,14.09l0.972,3.671l0.297-0.128l0.002-1.214c0.191-0.34,0.428-0.676,0.705-1.006
			l1.211-0.612l1.396-0.427c0.404-0.092,0.864-0.232,1.38-0.422c0.401-0.125,0.857-0.206,1.371-0.241l1.113,3.96
			c0.148,0.369,0.291,0.834,0.429,1.395l1.27,4.156c0.093,0.404,0.235,0.87,0.429,1.395l0.346,1.413
			c0.152,0.379,0.282,0.814,0.39,1.307c0.155,0.388,0.299,0.854,0.427,1.394l0.454,1.456c0.126,0.4,0.233,0.852,0.321,1.352
			c0.07,0.38-0.031,0.739-0.306,1.08c-0.151,0.112-0.337,0.223-0.559,0.33l-0.182-0.01l-0.221,0.096l0.128,0.296l5.328-1.602
			l0.518-0.224c-0.174-0.077-0.364-0.112-0.571-0.104c-0.377,0.022-0.771-0.011-1.186-0.102l-0.195-0.249l-0.278-0.846l-0.021-0.253
			c-0.152-0.38-0.281-0.815-0.389-1.307l-1.309-4.245c-0.093-0.404-0.233-0.864-0.42-1.38l-1.443-4.96l-0.021-0.253
			c-0.169-0.418-0.322-0.908-0.458-1.469l-1.071-3.452l4.705-1.419c0.389,0.006,0.792,0.061,1.211,0.16l0.933,0.738
			c0.142,0.22,0.36,0.389,0.658,0.506l-0.16-0.37l-0.429-1.396c-0.162-0.374-0.307-0.832-0.436-1.373
			c-0.305-0.302-0.682-0.373-1.127-0.215l-1.143,0.406l-0.254,0.021c-0.379,0.152-0.839,0.292-1.38,0.421l-4.155,1.27
			c-0.415,0.098-0.878,0.245-1.39,0.442l-1.338,0.315c-0.369,0.147-0.834,0.29-1.395,0.427L182.868,14.09z"/>
	</g>
	<g>
		<path d="M160.744,44.723c0.074,0.186,0.13,0.324,0.213,0.4l2.089,1.05c0.176,0.036,0.325,0.139,0.362,0.231
			c0.056,0.14-0.065,0.242-0.251,0.316l-4.318,1.725c-0.187,0.074-0.362,0.037-0.399-0.057l-0.631-1.578l-0.093,0.037
			c-0.418,1.244-0.92,2.414-2.406,3.008c-2.693,1.075-4.578-0.003-5.839-3.161l-7.53-18.853c-0.074-0.186-0.158-0.26-0.288-0.316
			l-1.912-0.744c-0.148-0.101-0.297-0.203-0.334-0.297c-0.056-0.139,0.065-0.24,0.204-0.296l4.458-1.781
			c0.14-0.056,0.27,0,0.344,0.186l8.327,20.85c0.705,1.765,1.68,2.453,2.887,1.97c1.115-0.444,1.516-2.273,0.606-4.549
			l-7.141-17.877c-0.074-0.187-0.157-0.26-0.288-0.316l-1.866-0.763c-0.194-0.083-0.343-0.186-0.38-0.278
			c-0.057-0.14,0.065-0.241,0.205-0.297l4.457-1.781c0.186-0.074,0.27,0,0.344,0.186L160.744,44.723z"/>
	</g>
</g>
<g id="Pushup">
</g>
<g id="Clothes_Swap">
</g>
</svg>
