<?xml version="1.0" encoding="utf-8"?>
<!-- Generator: Adobe Illustrator 16.0.0, SVG Export Plug-In . SVG Version: 6.00 Build 0)  -->
<!DOCTYPE svg PUBLIC "-//W3C//DTD SVG 1.1//EN" "http://www.w3.org/Graphics/SVG/1.1/DTD/svg11.dtd">
<svg version="1.1" xmlns="http://www.w3.org/2000/svg" xmlns:xlink="http://www.w3.org/1999/xlink" x="0px" y="0px"
	 width="209.76px" height="62.36px" viewBox="0 0 209.76 62.36" enable-background="new 0 0 209.76 62.36" xml:space="preserve">
<g id="Layer_1">
</g>
<g id="Can_of_Whoop-Ass">
</g>
<g id="Gun_Show">
</g>
<g id="Chicken">
</g>
<g id="Copycat">
</g>
<g id="Quiet">
</g>
<g id="DOCTOR">
</g>
<g id="Psychiatrist">
</g>
<g id="Remove">
</g>
<g id="Layer_10">
</g>
<g id="Bipolar">
	<g id="Layer_12">
	</g>
	<g>
		<path fill="#FFFFFF" stroke="#000000" stroke-miterlimit="10" d="M7.966,2.426h5.908c0.992,0,1.489,0.488,1.489,1.465v32.373
			c0,0.993-0.497,1.489-1.489,1.489H7.966c-0.993,0-1.489-0.496-1.489-1.489V3.891C6.477,2.914,6.973,2.426,7.966,2.426z
			 M17.21,17.502c0-0.586,0.309-0.911,0.928-0.977c1.285-0.098,2.38-0.631,3.284-1.599c0.902-0.969,1.354-2.112,1.354-3.431
			c0-1.27-0.411-2.372-1.233-3.308c-0.821-0.937-1.843-1.502-3.063-1.697c-0.847-0.13-1.27-0.618-1.27-1.465V3.928
			c0-0.423,0.162-0.789,0.488-1.099c0.309-0.276,0.691-0.406,1.147-0.391c2.295,0.229,4.236,1.205,5.822,2.93
			c1.588,1.726,2.381,3.769,2.381,6.128c0,1.84-0.521,3.54-1.563,5.103c-0.554,0.781-0.439,1.457,0.342,2.026
			c1.204,0.912,2.169,2.035,2.893,3.369c0.725,1.335,1.087,3.003,1.087,5.005c0,2.344-0.899,4.631-2.698,6.86
			c-1.798,2.23-4.016,3.516-6.652,3.857c-0.033,0-0.065,0.004-0.098,0.013c-0.033,0.008-0.065,0.012-0.098,0.012h-1.563
			c-0.993,0-1.489-0.496-1.489-1.489v-1.318c0-0.992,0.496-1.489,1.489-1.489h0.952c0.016,0,0.04,0,0.073,0c0.032,0,0.073,0,0.122,0
			c1.563-0.195,2.881-0.907,3.955-2.137c1.074-1.229,1.611-2.664,1.611-4.309c0-1.611-0.537-3.031-1.611-4.26
			c-1.074-1.229-2.393-1.949-3.955-2.161c-0.049,0-0.09-0.004-0.122-0.013c-0.033-0.008-0.058-0.012-0.073-0.012h-0.952
			c-0.993,0-1.489-0.488-1.489-1.465V17.502z"/>
		<path fill="#FFFFFF" stroke="#000000" stroke-miterlimit="10" d="M39.007,24.523h5.933c0.977,0,1.465,0.488,1.465,1.465
			c0,5.404,0,10.804,0,16.198c0,5.396,0,10.788,0,16.175c0,0.993-0.488,1.489-1.465,1.489h-5.933c-0.993,0-1.489-0.496-1.489-1.489
			V25.988C37.518,25.012,38.014,24.523,39.007,24.523z"/>
		<path fill="#FFFFFF" stroke="#000000" stroke-miterlimit="10" d="M58.654,2.45h5.933c0.992,0,1.489,0.488,1.489,1.465v32.373
			c0,0.977-0.497,1.465-1.489,1.465h-5.933c-0.993,0-1.489-0.488-1.489-1.465V3.915C57.165,2.938,57.661,2.45,58.654,2.45z
			 M67.224,22.787c0.016-0.928,0.496-1.407,1.44-1.44c1.855-0.049,3.438-0.858,4.749-2.43c1.31-1.57,1.965-3.291,1.965-5.163
			c0-1.855-0.655-3.577-1.965-5.163c-1.311-1.588-2.894-2.405-4.749-2.454c-0.961-0.016-1.44-0.504-1.44-1.465V3.915
			c0-0.406,0.146-0.757,0.439-1.05s0.65-0.439,1.074-0.439c3.043,0.098,5.64,1.245,7.788,3.442s3.223,4.834,3.223,7.91
			s-1.074,5.717-3.223,7.922c-2.148,2.206-4.753,3.342-7.813,3.406c-0.424,0-0.781-0.146-1.074-0.439s-0.439-0.65-0.439-1.074
			L67.224,22.787z"/>
		<path fill="#FFFFFF" stroke="#000000" stroke-miterlimit="10" d="M94.254,58.142c-1.938-1.432-3.512-3.613-4.725-6.543
			c-1.212-2.93-1.818-6.209-1.818-9.839c0-3.613,0.606-6.881,1.818-9.802c1.213-2.922,2.787-5.115,4.725-6.58
			c0.488-0.357,1.001-0.398,1.538-0.122c0.537,0.293,0.806,0.749,0.806,1.367v30.298c0,0.635-0.269,1.091-0.806,1.367
			C95.238,58.549,94.726,58.5,94.254,58.142z M97.745,25.207c0-0.423,0.154-0.789,0.464-1.099c0.293-0.293,0.65-0.431,1.074-0.415
			c3.076,0.098,5.696,1.9,7.861,5.407c2.164,3.508,3.247,7.728,3.247,12.659s-1.083,9.155-3.247,12.671
			c-2.165,3.516-4.785,5.322-7.861,5.42c-0.424,0-0.781-0.146-1.074-0.439c-0.31-0.309-0.464-0.667-0.464-1.074v-0.781
			c0-0.977,0.479-1.48,1.44-1.514c2.066-0.064,3.833-1.632,5.298-4.699c1.465-3.068,2.197-6.263,2.197-9.583
			s-0.732-6.507-2.197-9.558c-1.465-3.053-3.231-4.618-5.298-4.7c-0.961-0.016-1.44-0.521-1.44-1.514V25.207z"/>
		<path fill="#FFFFFF" stroke="#000000" stroke-miterlimit="10" d="M121.94,2.426h5.933c0.977,0,1.465,0.488,1.465,1.465
			c0,5.404,0,10.804,0,16.198c0,5.396,0,10.788,0,16.175c0,0.993-0.488,1.489-1.465,1.489h-5.933c-0.993,0-1.489-0.496-1.489-1.489
			V3.891C120.451,2.914,120.947,2.426,121.94,2.426z M130.754,36.654v-1.538c0-0.732,0.366-1.099,1.099-1.099h10.4
			c0.732,0,1.099,0.366,1.099,1.099v1.538c0,0.732-0.366,1.099-1.099,1.099h-10.4C131.12,37.753,130.754,37.387,130.754,36.654z"/>
		<path fill="#FFFFFF" stroke="#000000" stroke-miterlimit="10" d="M160.934,24.523h5.811c0.472,0,0.862,0.188,1.172,0.562
			c0.293,0.391,0.382,0.814,0.269,1.27l-8.13,32.373c-0.195,0.749-0.676,1.123-1.44,1.123h-5.811c-0.488,0-0.879-0.195-1.172-0.586
			c-0.277-0.342-0.366-0.765-0.269-1.27l8.13-32.349C159.672,24.898,160.152,24.523,160.934,24.523z M170.333,34.436l2.905,23.755
			c0.049,0.456-0.073,0.839-0.366,1.147c-0.293,0.342-0.659,0.513-1.099,0.513h-1.465c-0.863,0-1.352-0.431-1.465-1.294l-0.781-6.47
			c-0.131-0.862-0.619-1.294-1.465-1.294h-1.392c-0.488,0-0.879-0.187-1.172-0.562c-0.293-0.374-0.383-0.797-0.269-1.27l0.391-1.489
			c0.162-0.748,0.635-1.123,1.416-1.123h0.122c0.439,0,0.806-0.162,1.099-0.488c0.293-0.309,0.415-0.691,0.366-1.147l-0.732-5.957
			c-0.033-0.195-0.024-0.374,0.024-0.537l1.001-3.955c0.179-0.797,0.684-1.172,1.514-1.123
			C169.779,33.207,170.235,33.639,170.333,34.436z"/>
		<path fill="#FFFFFF" stroke="#000000" stroke-miterlimit="10" d="M184.837,2.344h5.933c0.992,0,1.489,0.497,1.489,1.489v32.373
			c0,0.977-0.497,1.465-1.489,1.465h-5.933c-0.993,0-1.489-0.488-1.489-1.465V3.833C183.348,2.841,183.844,2.344,184.837,2.344z
			 M202.537,36.865l-5.273-11.06c-0.293-0.618-0.79-0.903-1.489-0.854l-0.879,0.073c-0.424,0-0.781-0.146-1.074-0.439
			s-0.439-0.65-0.439-1.074l0.024-0.806c0.016-0.928,0.496-1.407,1.44-1.44c1.855-0.049,3.438-0.858,4.749-2.429
			c1.31-1.571,1.965-3.292,1.965-5.164c0-1.855-0.655-3.576-1.965-5.164c-1.311-1.586-2.894-2.404-4.749-2.453
			c-0.961-0.016-1.44-0.504-1.44-1.465V3.833c0-0.406,0.146-0.757,0.439-1.05s0.65-0.439,1.074-0.439
			c3.043,0.098,5.64,1.245,7.788,3.442s3.223,4.834,3.223,7.91c0,1.889-0.424,3.626-1.27,5.212c-0.847,1.588-1.97,2.894-3.369,3.919
			c-0.651,0.505-0.806,1.115-0.464,1.831l5.151,10.815c0.406,0.896,0.138,1.538-0.806,1.929l-0.708,0.269
			C203.587,38.046,202.943,37.777,202.537,36.865z"/>
	</g>
</g>
<g id="YesorNo">
</g>
<g id="Deja_Vu">
</g>
<g id="Indecisive">
</g>
<g id="Greedy">
</g>
<g id="Pushup">
</g>
<g id="Clothes_Swap">
</g>
</svg>
