<?xml version="1.0" encoding="utf-8"?>
<!-- Generator: Adobe Illustrator 16.0.0, SVG Export Plug-In . SVG Version: 6.00 Build 0)  -->
<!DOCTYPE svg PUBLIC "-//W3C//DTD SVG 1.1//EN" "http://www.w3.org/Graphics/SVG/1.1/DTD/svg11.dtd">
<svg version="1.1" xmlns="http://www.w3.org/2000/svg" xmlns:xlink="http://www.w3.org/1999/xlink" x="0px" y="0px"
	 width="209.76px" height="62.36px" viewBox="0 0 209.76 62.36" enable-background="new 0 0 209.76 62.36" xml:space="preserve">
<g id="Layer_1">
</g>
<g id="Can_of_Whoop-Ass">
</g>
<g id="Gun_Show">
</g>
<g id="Chicken">
	<path id="XMLID_44_" fill="#010101" d="M113.396,48.516c0,0.695-0.563,1.259-1.258,1.259c-9.974,0-18.088-8.114-18.088-18.089
		c0-0.694,0.563-1.258,1.258-1.258s1.258,0.563,1.258,1.258c0,8.587,6.985,15.572,15.572,15.572
		C112.834,47.258,113.396,47.821,113.396,48.516z M95.774,14.406c0.695,0,1.258-0.563,1.258-1.258v-0.322
		c0-0.695-0.563-1.259-1.258-1.259s-1.258,0.563-1.258,1.259v0.322C94.516,13.844,95.079,14.406,95.774,14.406z M141.679,17.789
		v14.258c0,12.153-9.621,22.101-21.646,22.625v6.431c0,0.333-0.133,0.653-0.369,0.89c-0.236,0.235-0.556,0.368-0.89,0.368h-2.702
		c-0.694,0-1.258-0.563-1.258-1.258c0-0.695,0.563-1.259,1.258-1.259h1.443v-5.15h-5.476v6.409c0,0.334-0.133,0.653-0.369,0.89
		c-0.235,0.236-0.556,0.368-0.889,0.368h-0.001h-2.702c-0.694,0-1.258-0.563-1.258-1.259c0-0.694,0.564-1.258,1.259-1.258l0,0h1.443
		v-5.275C98.15,53.375,89.258,43.73,89.258,32.048V20.65h-3.416c-0.504,0-0.96-0.301-1.158-0.766s-0.098-1.002,0.252-1.365
		l4.322-4.484v-1.706c0-3.189,2.233-5.866,5.219-6.549c-0.004-0.091-0.007-0.181-0.007-0.271c0-3.037,2.471-5.508,5.508-5.508
		c2.979,0,5.413,2.377,5.505,5.333c2.037,0.829,3.425,2.824,3.425,5.103c0,0.906-0.225,1.794-0.645,2.584
		c0.85,0.987,1.321,2.243,1.321,3.583c0,2.922-2.286,5.32-5.165,5.498c2.298,3.686,6.38,6.071,10.944,6.071h10.899
		c1.763,0,3.455-0.356,4.999-1.006c0.225-0.095,0.927-0.373,1.814-0.939c2.987-1.905,5.209-4.962,5.879-8.663
		c0.107-0.599,0.629-1.034,1.238-1.034h0.225C141.116,16.53,141.679,17.094,141.679,17.789z M109.752,29.621
		c0.832,4.709,4.954,8.297,9.897,8.297h1.67c4.846,0,8.911-3.459,9.849-8.037c-1.57,0.531-3.226,0.809-4.902,0.809h-10.899
		C113.435,30.689,111.529,30.321,109.752,29.621z M96.988,5.509c0,0.06,0.001,0.12,0.005,0.18c3.224,0.491,5.701,3.282,5.701,6.641
		v5.344c0.116,0.611,0.274,1.206,0.47,1.781c0.293,0.094,0.599,0.142,0.915,0.142c1.649,0,2.991-1.342,2.991-2.992
		c0-0.95-0.437-1.823-1.198-2.395c-0.278-0.209-0.458-0.523-0.495-0.869c-0.038-0.347,0.069-0.692,0.296-0.956
		c0.465-0.542,0.721-1.233,0.721-1.947c0-1.449-1.032-2.687-2.454-2.944c-0.682-0.123-1.136-0.775-1.015-1.457
		c0.03-0.172,0.046-0.349,0.046-0.526c0-1.649-1.342-2.992-2.992-2.992C98.33,2.518,96.988,3.859,96.988,5.509z M139.163,23.688
		c-0.816,1.247-1.814,2.38-2.97,3.356c-0.729,0.616-1.511,1.16-2.331,1.628c-0.418,6.552-5.893,11.762-12.543,11.762h-1.67
		c-6.798,0-12.353-5.425-12.562-12.174c-0.574-0.366-1.125-0.772-1.649-1.216c-1.967-1.663-3.479-3.781-4.413-6.137
		c-0.012-0.027-0.023-0.056-0.033-0.083c-0.353-0.907-0.62-1.849-0.795-2.813c-0.013-0.074-0.02-0.148-0.02-0.224v-5.46
		c0-2.312-1.876-4.192-4.186-4.201c-0.022,0.001-0.045,0.001-0.068,0c-2.292,0.028-4.149,1.902-4.149,4.201v2.214
		c0,0.325-0.126,0.639-0.352,0.873l-2.62,2.718h1.714c0.695,0,1.258,0.563,1.258,1.259v12.654c0,11.1,9.03,20.13,20.129,20.13h7.13
		c11.1,0,20.129-9.03,20.129-20.13V23.688z"/>
	<g>
		<path d="M14.942,24.372l0.27-1.728c-0.945,0.918-1.998,1.862-3.212,1.997h-0.324c-3.266,0-4.805-3.725-4.805-7.936
			c0-4.886,2.051-10.365,5.803-11.283l1.593-0.135c3.347,0,6.694,2.268,6.694,5.749c0,0.918-0.135,1.863-0.675,2.942l-4.13-1.754
			v-0.811c0-1.053-0.108-2.348-1.134-2.348L14.132,9.31c-0.999,0.54-2.997,4.319-2.997,7.1c0,1.241,0.378,2.268,1.404,2.753
			l0.297,0.081c0.594,0,1.646-0.621,2.78-1.538l0.405-3.86l4.13,1.862l-0.945,9.88L14.942,24.372z"/>
		<path d="M21.073,24.804l1.134-3.374l-2.348-1.674l3.131-0.647l2.133-5.885l2.645,0.864l-0.108-2.079l3.293,0.514l-0.378,12.605
			l-2.888-0.405l-0.027-3.995l-2.564,0.54l-1.728,4.292L21.073,24.804z M27.605,18.218l0.054-2.214l-1.269,2.457L27.605,18.218z"/>
		<path d="M41.563,25.128l-1.917-0.433l-0.351-2.834l-1.89,2.834l-1.943-0.566l-0.405-4.427l-0.972,5.345l-2.699-0.702l1.808-11.229
			l3.698,0.485l0.486,5.507l2.726-5.642l3.375,0.594L41.563,25.128z"/>
		<path d="M52.283,25.073H43.51l-0.027-1.97l0.837-0.027l0.675-7.963l-0.27,0.054L44.67,12.98l8.125-0.135l-0.108,2.133
			l-4.319,0.162l-0.432,2.51l3.644-0.162l-0.135,2.105l-3.914,0.324l-0.54,3.077l5.561-0.351L52.283,25.073z"/>
	</g>
	<g>
		<path d="M47.02,45.829c0-4.724,2.591-10.717,5.668-11.553c0.783-0.189,1.485-0.297,2.16-0.297c3.752,0,5.291,3.077,5.291,6.748
			c0,5.345-3.239,11.85-7.531,11.85C50.205,52.577,47.02,50.715,47.02,45.829z M53.849,46.882c1.512-0.783,2.187-3.968,2.187-6.425
			c0-1.781-0.324-3.158-0.972-3.158c-0.864,0-3.752,4.832-3.752,8.368c0,0.999,0.297,1.619,1.134,1.619
			C52.796,47.286,53.255,47.179,53.849,46.882z"/>
		<path d="M63.57,53.521l-2.646-0.944l0.405-4.427l-0.432-0.027l-0.162-1.673l0.729-0.081l0.243-3.051l-0.54,0.081l-0.459-2.268
			l1.188-0.054l0.108-1.403l3.779,0.81l-0.081,0.513l2.996-0.135l0.027,1.916l-3.374,0.297l-0.486,2.942l3.725-0.459l0.054,2.511
			l-4.13,0.054L63.57,53.521z"/>
	</g>
	<g>
		<path d="M148.981,61.547c-1.929-0.094-3.774-1.408-5.281-3.244c-2.859-3.485-4.497-8.844-2.922-11.393
			c0.441-0.781,1.061-1.43,1.688-1.943c2.545-2.089,6.006-2.17,8.163,0.46c0.479,0.584,0.888,1.296,1.187,2.169l-4.249,1.844
			c-0.068-0.083-1.484-1.086-2.257-0.453c-0.209,0.172-0.369,0.443-0.473,0.913c-0.353,0.847,0.824,4.282,2.313,6.097
			c0.789,0.961,1.642,1.447,2.414,0.814c0.563-0.463,1.086-1.485,1.477-3.308l3.919-1.224c0.699,1.66,0.822,5.854-1.786,7.994
			C152.213,61.061,150.837,61.597,148.981,61.547z"/>
		<path d="M157.729,55.521l-6.048-10.435l3.378-1.202l2.383,4.437l1.858-2.118l-2.464-4.578l3.284-1.019l1.812,3.995l1.068,0.834
			l-0.471,0.49l2.073,4.654l-2.521,0.672l-1.774-3.014l-1.908,1.846l2.113,4.447L157.729,55.521z"/>
		<path d="M166.58,48.645l-6.307-9.559l3.453-1.367l5.038,9.971L166.58,48.645z"/>
		<path d="M170.964,44.455c-1.261-0.049-2.461-0.915-3.437-2.104c-1.866-2.275-2.938-5.795-1.931-7.46
			c0.318-0.505,0.706-0.927,1.124-1.27c1.648-1.353,3.916-1.397,5.319,0.313c0.309,0.376,0.588,0.845,0.801,1.403l-2.805,1.219
			c-0.034-0.041-0.945-0.726-1.467-0.297c-0.125,0.102-0.24,0.303-0.288,0.584c-0.245,0.552,0.528,2.814,1.505,4.004
			c0.513,0.625,1.057,0.949,1.578,0.521c0.376-0.308,0.709-0.966,0.943-2.171l2.57-0.781c0.469,1.082,0.544,3.813-1.167,5.216
			C173.085,44.146,172.187,44.498,170.964,44.455z"/>
		<path d="M179.399,39.455l-2.461,0.447l-6.372-10.064l3.659-1.711l1.988,4.339l2.506-4.395l2.773,1.042l-3.172,4.348l5.162-0.604
			l0.28,2.598l-5.959,0.524L179.399,39.455z"/>
		<path d="M191.892,28.717l-6.783,5.564l-1.27-1.506l0.629-0.553l-4.529-6.584l-0.174,0.213l-1.429-1.655l6.196-5.258l1.269,1.718
			l-3.235,2.864l1.258,2.214l2.714-2.436l1.231,1.713l-2.82,2.732l1.534,2.723l4.076-3.799L191.892,28.717z"/>
		<path d="M192.374,28.111l-6.586-10.029l3.414-2.137l4.068,3.471l-1.944-5.179l2.638-0.872l3.846,10.008l-1.469,1.275l-4.881-3.397
			l2.969,5.28L192.374,28.111z"/>
		<path d="M197.943,18.34L190.069,6.4l4.291-1.705l6.309,12.455L197.943,18.34z M199.589,20.9l-1.27-1.891l2.746-1.206l1.213,2.288
			L199.589,20.9z"/>
		<path d="M202.097,14.932l-7.874-11.938l4.291-1.705l6.309,12.455L202.097,14.932z M203.743,17.492l-1.271-1.891l2.746-1.205
			l1.214,2.287L203.743,17.492z"/>
	</g>
</g>
<g id="Copycat">
</g>
<g id="Quiet">
</g>
<g id="DOCTOR">
</g>
<g id="Psychiatrist">
</g>
<g id="Remove">
</g>
<g id="Layer_10">
</g>
<g id="Bipolar">
	<g id="Layer_12">
	</g>
</g>
<g id="YesorNo">
</g>
<g id="Deja_Vu">
</g>
<g id="Indecisive">
</g>
<g id="Greedy">
</g>
<g id="Pushup">
</g>
<g id="Clothes_Swap">
</g>
</svg>
