<?xml version="1.0" encoding="utf-8"?>
<!-- Generator: Adobe Illustrator 16.0.0, SVG Export Plug-In . SVG Version: 6.00 Build 0)  -->
<!DOCTYPE svg PUBLIC "-//W3C//DTD SVG 1.1//EN" "http://www.w3.org/Graphics/SVG/1.1/DTD/svg11.dtd">
<svg version="1.1" xmlns="http://www.w3.org/2000/svg" xmlns:xlink="http://www.w3.org/1999/xlink" x="0px" y="0px"
	 width="209.76px" height="62.36px" viewBox="0 0 209.76 62.36" enable-background="new 0 0 209.76 62.36" xml:space="preserve">
<g id="Layer_1">
</g>
<g id="Can_of_Whoop-Ass">
</g>
<g id="Gun_Show">
</g>
<g id="Chicken">
</g>
<g id="Copycat">
</g>
<g id="Quiet">
</g>
<g id="DOCTOR">
</g>
<g id="Psychiatrist">
</g>
<g id="Remove">
	<path id="Shape" d="M85.424,18.421c0-8.629,6.995-15.624,15.624-15.624s15.624,6.995,15.624,15.624s-6.995,15.624-15.624,15.624
		C92.422,34.035,85.434,27.047,85.424,18.421z M87.827,18.421c0,7.302,5.919,13.221,13.221,13.221s13.221-5.919,13.221-13.221
		S108.35,5.2,101.048,5.2C93.749,5.208,87.835,11.122,87.827,18.421z M96.425,19.624c-0.713,0.049-1.333-0.489-1.386-1.203
		c0.053-0.714,0.673-1.249,1.386-1.202h9.244c0.715-0.047,1.333,0.488,1.388,1.202c-0.053,0.714-0.673,1.252-1.388,1.203H96.425z"/>
	<g>
		<path d="M28.524,26.592c1.85,1.721,2.494,4.3,1.764,7.268c-0.989,4.429-3.354,6.449-5.16,7.353
			c-0.344,0.172-0.688,0.301-1.032,0.43c1.677,1.333,2.795,3.226,2.064,6.321c-0.903,3.827-0.56,4.171,0.172,4.472
			c0.559,0.258,0.816,0.903,0.602,1.462c-0.215,0.387-0.602,0.646-1.032,0.646c-0.129,0-0.301-0.043-0.43-0.086
			c-2.795-1.204-2.106-4.128-1.462-6.966c0.602-2.537-0.258-3.913-3.354-5.289c-1.032-0.043-2.107-0.215-3.139-0.517
			c-0.087,0.517-0.216,1.032-0.345,1.548c-0.258,1.118-0.517,2.193-0.817,3.269v0.086c-1.203,4.386-2.881,8.17-7.008,8.17
			c-0.603,0-1.119-0.474-1.119-1.075s0.517-1.118,1.119-1.118c2.364,0,3.568-2.063,4.644-5.719
			c-2.107-1.204-5.849-4.429-4.171-11.48c1.117-5.031,4.601-8.858,9.244-10.277C22.72,23.969,26.332,24.528,28.524,26.592z
			 M11.971,35.837c-0.474,1.935-1.033,6.407,2.622,8.814c0.13-0.602,0.302-1.246,0.431-1.892c0.215-0.817,0.387-1.677,0.602-2.537
			c1.505-5.891,3.311-11.609,7.567-11.609c0.603,0,1.075,0.473,1.075,1.075c0,0.602-0.473,1.074-1.075,1.074
			c-2.364,0-3.87,4.085-5.116,8.815c0.945,0.301,1.892,0.43,2.838,0.43c1.16,0,2.235-0.258,3.225-0.73
			c2.021-1.032,3.397-3.054,4.042-5.935c0.516-2.192,0.129-3.956-1.161-5.16c-1.591-1.505-4.472-1.892-7.31-1.031
			C15.84,28.355,12.916,31.623,11.971,35.837z"/>
		<path d="M39.575,37.643c1.463,2.064,0,4.859-0.945,6.063c-1.893,2.364-4.472,3.74-6.751,3.74h-0.086
			c0.215,0.86,0.688,1.807,1.591,2.451c1.505,1.118,3.182,0.946,4.3,0.603c2.236-0.646,4.3-2.537,5.074-4.516
			c0.172-0.516,0.344-1.031,0.43-1.548c0.172-0.602,0.731-0.945,1.333-0.816s0.946,0.73,0.817,1.333
			c-0.129,0.602-0.302,1.204-0.56,1.806c-0.988,2.623-3.611,4.988-6.449,5.848c-0.774,0.215-1.549,0.344-2.279,0.344
			c-1.462,0-2.795-0.43-3.956-1.289c-1.806-1.29-2.709-3.44-2.58-5.978c0.129-3.396,2.107-6.923,4.688-8.471
			C37.297,35.407,38.888,36.697,39.575,37.643z M35.318,39.104c-1.806,1.075-3.311,3.655-3.611,6.149
			c1.634,0.043,3.697-1.075,5.203-2.924c0.73-0.903,1.462-2.623,0.902-3.397C37.598,38.675,37.168,38.03,35.318,39.104z"/>
		<path d="M52.218,37.428c0.344,0.474,0.516,1.075,0.645,1.677c1.29-1.72,2.666-2.579,4.042-2.579c0.903,0,1.634,0.344,2.15,1.031
			c1.462,2.021,0.258,6.45-0.043,7.439l-0.215,0.902c-0.517,2.451-0.043,4.214,0.73,4.473c0.903,0.387,3.01-1.204,4.257-4.43
			c0.172-0.516,0.344-1.031,0.474-1.505c0.129-0.602,0.73-0.988,1.29-0.816c0.602,0.129,0.988,0.688,0.816,1.29
			c-0.129,0.602-0.301,1.203-0.516,1.806c-1.376,3.612-3.827,5.934-6.021,5.934c-0.387,0-0.73-0.086-1.074-0.215
			c-1.979-0.773-2.839-3.569-2.064-7.009c0.516-2.537,1.419-5.504,0.603-6.579c-0.087-0.086-0.13-0.129-0.388-0.129
			c-0.859,0-2.021,1.075-3.139,2.967c-1.892,3.183-1.806,4.042-3.225,10.148c-0.13,0.516-0.603,0.816-1.075,0.816h-0.258
			c-0.603-0.129-0.946-0.73-0.817-1.333c2.322-9.374,2.795-11.609,2.064-12.556c-0.087-0.086-0.13-0.172-0.388-0.172
			c-1.677,0-3.827,3.827-4.772,6.364l-1.634,6.751c-0.086,0.516-0.56,0.859-1.032,0.859c-0.086,0-0.172,0-0.258-0.043
			c-0.603-0.129-0.946-0.73-0.817-1.333l3.182-13.243c0.172-0.56,0.731-0.946,1.333-0.817c0.431,0.129,0.731,0.473,0.817,0.86
			c1.032-1.075,2.106-1.592,3.182-1.592C50.971,36.396,51.701,36.74,52.218,37.428z"/>
		<path d="M75.094,46.716c-0.172,0.387-0.344,0.73-0.559,1.075c0.129,0.043,0.258,0.086,0.387,0.086
			c0.989,0.129,1.849-0.387,2.451-1.462c0.215-0.388,0.43-0.903,0.559-1.247l0.301-0.817c0.173-0.602,0.774-0.902,1.333-0.73
			c0.603,0.172,0.903,0.773,0.731,1.333c-0.086,0.344-0.172,0.645-0.301,0.988c-0.172,0.431-0.431,1.032-0.731,1.549
			c-0.902,1.677-2.408,2.579-4.085,2.579h-0.516c-0.474-0.086-0.946-0.215-1.376-0.387c-1.505,1.849-3.354,2.924-5.117,2.924
			c-0.516,0-1.032-0.129-1.548-0.344c-1.462-0.646-2.408-2.064-2.666-4.085c-0.258-1.806,0.086-3.913,0.989-5.891
			c0.859-1.979,2.149-3.655,3.611-4.688c1.678-1.204,3.354-1.505,4.816-0.859C76.212,37.987,76.986,42.373,75.094,46.716z
			 M69.848,39.363c-1.161,0.816-2.235,2.192-2.924,3.826c-0.688,1.592-0.989,3.312-0.816,4.688c0.129,0.73,0.43,1.978,1.376,2.365
			c1.203,0.559,2.752-0.388,3.999-1.85c-0.688-0.688-1.204-1.591-1.463-2.58c-0.43-1.419-0.645-4.858,0.731-6.966
			C70.407,39.019,70.063,39.19,69.848,39.363z M72.686,39.922c-0.945,1.247-0.945,3.999-0.602,5.289
			c0.172,0.473,0.387,0.902,0.645,1.29c0.13-0.215,0.259-0.431,0.345-0.646c0.945-2.235,1.161-5.03,0.258-6.406
			C73.073,39.535,72.858,39.664,72.686,39.922z"/>
		<path d="M88.424,37.643c1.29,1.678,0.344,5.935,0,7.225c-0.129,0.602-0.302,1.203-0.517,1.806l-0.43,0.946
			c0.172,0.086,0.344,0.129,0.516,0.129c0.989,0.129,1.893-0.388,2.451-1.419c0.258-0.431,0.43-0.903,0.603-1.29l0.258-0.817
			c0.172-0.602,0.773-0.903,1.376-0.73c0.559,0.172,0.902,0.773,0.73,1.376c-0.086,0.301-0.215,0.645-0.344,0.945
			c-0.172,0.431-0.387,1.032-0.688,1.591c-1.032,1.807-2.752,2.752-4.602,2.537c-0.516-0.043-1.032-0.215-1.505-0.43
			c-0.516,0.645-1.118,1.247-1.763,1.72c-1.118,0.903-2.322,1.333-3.354,1.333c-0.387,0-0.73-0.043-1.074-0.172
			c-1.979-0.774-2.838-3.612-2.064-7.009l1.419-6.235c0.172-0.602,0.731-0.945,1.333-0.816c0.603,0.129,0.946,0.73,0.817,1.333
			l-1.462,6.191c-0.517,2.408-0.043,4.171,0.73,4.473c0.43,0.172,1.29-0.043,2.322-0.817c0.473-0.387,0.946-0.817,1.333-1.29
			c-0.646-0.688-1.118-1.548-1.419-2.494c-0.258-0.945-0.388-2.278-0.301-3.525c0.086-1.161,0.387-2.752,1.246-3.913
			c0.688-0.903,1.635-1.419,2.752-1.419L88.424,37.643z M85.801,39.621c-0.989,1.29-0.946,4.3-0.603,5.461
			c0.129,0.43,0.302,0.773,0.517,1.118l0.129-0.302c0.172-0.516,0.344-1.031,0.473-1.548c0.56-2.192,0.731-4.687,0.387-5.289
			C86.359,39.104,86.059,39.277,85.801,39.621z"/>
		<path d="M101.193,37.643c1.463,2.064,0,4.859-0.945,6.063c-1.893,2.364-4.472,3.74-6.751,3.74h-0.086
			c0.215,0.86,0.688,1.807,1.591,2.451c1.505,1.118,3.182,0.946,4.3,0.603c2.236-0.646,4.3-2.537,5.074-4.516
			c0.172-0.516,0.344-1.031,0.43-1.548c0.172-0.602,0.731-0.945,1.333-0.816c0.603,0.129,0.946,0.73,0.817,1.333
			c-0.129,0.602-0.302,1.204-0.56,1.806c-0.988,2.623-3.611,4.988-6.449,5.848c-0.774,0.215-1.549,0.344-2.279,0.344
			c-1.462,0-2.795-0.43-3.956-1.289c-1.806-1.29-2.709-3.44-2.58-5.978c0.129-3.396,2.107-6.923,4.688-8.471
			C98.915,35.407,100.506,36.697,101.193,37.643z M96.937,39.104c-1.806,1.075-3.311,3.655-3.611,6.149
			c1.634,0.043,3.697-1.075,5.203-2.924c0.73-0.903,1.462-2.623,0.902-3.397C99.216,38.675,98.786,38.03,96.937,39.104z"/>
		<path d="M126.134,38.331l0.043-0.301c0.129-0.603,0.73-0.946,1.333-0.817c0.559,0.129,0.946,0.688,0.817,1.29l-0.259,1.204
			l-1.462,6.191c-0.516,2.451-0.043,4.171,0.731,4.473c0.473,0.172,1.161-0.086,1.892-0.731c0.946-0.86,1.807-2.193,2.365-3.698
			c0.172-0.516,0.344-1.031,0.473-1.548c0.129-0.559,0.731-0.945,1.29-0.816c0.603,0.172,0.946,0.73,0.817,1.333
			c-0.129,0.602-0.301,1.203-0.56,1.806c-1.333,3.612-3.783,5.891-5.977,5.891c-0.387,0-0.731-0.043-1.075-0.172
			c-1.118-0.43-1.849-1.462-2.149-2.881c-1.462,1.806-3.312,2.838-4.988,2.838c-0.516,0-1.032-0.086-1.548-0.301
			c-2.752-1.204-3.483-5.504-1.634-9.718c0.816-1.936,2.106-3.569,3.525-4.602c1.634-1.117,3.269-1.419,4.688-0.816
			C125.145,37.256,125.704,37.729,126.134,38.331z M121.06,39.578c-1.118,0.773-2.149,2.106-2.795,3.654
			c-1.161,2.623-1.204,6.063,0.517,6.837c0.215,0.086,0.43,0.129,0.688,0.129c1.634,0,3.655-2.106,4.644-4.386
			c0.688-1.548,0.989-3.225,0.774-4.558c-0.086-0.688-0.344-1.892-1.29-2.279c-0.215-0.086-0.43-0.129-0.645-0.129
			C122.221,38.847,121.49,39.277,121.06,39.578z"/>
		<path d="M164.919,26.592c1.85,1.721,2.494,4.3,1.764,7.268c-0.989,4.429-3.354,6.449-5.16,7.353
			c-0.344,0.172-0.688,0.301-1.032,0.43c1.677,1.333,2.795,3.226,2.064,6.321c-0.903,3.827-0.56,4.171,0.172,4.472
			c0.559,0.258,0.816,0.903,0.602,1.462c-0.215,0.387-0.602,0.646-1.032,0.646c-0.129,0-0.301-0.043-0.43-0.086
			c-2.795-1.204-2.106-4.128-1.462-6.966c0.602-2.537-0.258-3.913-3.354-5.289c-1.032-0.043-2.107-0.215-3.14-0.517
			c-0.086,0.517-0.215,1.032-0.344,1.548c-0.258,1.118-0.516,2.193-0.817,3.269v0.086c-1.203,4.386-2.881,8.17-7.009,8.17
			c-0.602,0-1.117-0.474-1.117-1.075s0.516-1.118,1.117-1.118c2.365,0,3.569-2.063,4.645-5.719
			c-2.107-1.204-5.848-4.429-4.171-11.48c1.118-5.031,4.601-8.858,9.244-10.277C159.114,23.969,162.727,24.528,164.919,26.592z
			 M148.364,35.837c-0.473,1.935-1.031,6.407,2.623,8.814c0.129-0.602,0.301-1.246,0.43-1.892c0.216-0.817,0.388-1.677,0.603-2.537
			c1.505-5.891,3.311-11.609,7.567-11.609c0.603,0,1.075,0.473,1.075,1.075c0,0.602-0.473,1.074-1.075,1.074
			c-2.364,0-3.869,4.085-5.116,8.815c0.945,0.301,1.892,0.43,2.838,0.43c1.161,0,2.235-0.258,3.225-0.73
			c2.021-1.032,3.397-3.054,4.042-5.935c0.516-2.192,0.129-3.956-1.161-5.16c-1.591-1.505-4.472-1.892-7.31-1.031
			C152.234,28.355,149.311,31.623,148.364,35.837z"/>
		<path d="M177.002,38.374l-0.258,1.204l-1.462,6.191c-0.516,2.451-0.043,4.214,0.73,4.473c0.474,0.172,1.161-0.087,1.893-0.731
			c0.946-0.86,1.806-2.193,2.365-3.698c0.172-0.516,0.344-1.031,0.473-1.505c0.129-0.602,0.688-0.989,1.29-0.816
			c0.602,0.129,0.946,0.688,0.816,1.29c-0.129,0.602-0.301,1.203-0.559,1.806c-0.688,1.849-1.72,3.482-2.924,4.558
			c-1.032,0.903-2.064,1.376-3.053,1.376c-0.388,0-0.731-0.086-1.075-0.215c-0.989-0.387-1.677-1.247-2.064-2.451
			c-1.246,1.677-2.795,2.666-4.214,2.666c-0.387,0-0.73-0.086-1.074-0.215c-0.989-0.387-1.721-1.247-2.064-2.494
			c-0.473-1.677-0.344-2.494,0.301-5.848l1.118-4.859l0.258-1.203c0.129-0.56,0.731-0.946,1.333-0.817
			c0.56,0.129,0.946,0.688,0.817,1.29l-0.258,1.204l-1.462,6.191c-0.517,2.451-0.043,4.214,0.73,4.473
			c0.474,0.172,1.161-0.087,1.893-0.731c0.945-0.86,1.806-2.193,2.364-3.698c0.172-0.516,0.344-1.031,0.474-1.505
			c0-0.043,0-0.086,0.043-0.129l1.16-5.074l0.259-1.203c0.129-0.56,0.73-0.946,1.333-0.817
			C176.744,37.213,177.131,37.771,177.002,38.374z"/>
		<path d="M185.56,33.472l-1.462,6.278l-1.462,6.191c-0.517,2.408-0.043,4.171,0.73,4.473c0.903,0.344,3.01-1.204,4.257-4.473
			c0.172-0.473,0.345-0.988,0.474-1.505c0.129-0.602,0.73-0.945,1.29-0.816c0.602,0.129,0.945,0.73,0.816,1.29
			c-0.129,0.602-0.301,1.247-0.516,1.849c-1.376,3.569-3.827,5.891-6.021,5.891c-0.387,0-0.73-0.043-1.074-0.215
			c-1.979-0.73-2.838-3.569-2.064-7.009l1.419-6.191l1.462-6.278c0.129-0.559,0.731-0.946,1.333-0.817
			C185.302,32.268,185.688,32.87,185.56,33.472z"/>
		<path d="M198.028,37.643c1.463,2.064,0,4.859-0.945,6.063c-1.893,2.364-4.472,3.74-6.751,3.74h-0.086
			c0.215,0.86,0.688,1.807,1.591,2.451c1.505,1.118,3.182,0.946,4.3,0.603c2.236-0.646,4.3-2.537,5.074-4.516
			c0.172-0.516,0.344-1.031,0.43-1.548c0.172-0.602,0.731-0.945,1.333-0.816s0.946,0.73,0.817,1.333
			c-0.129,0.602-0.302,1.204-0.56,1.806c-0.988,2.623-3.611,4.988-6.449,5.848c-0.774,0.215-1.549,0.344-2.279,0.344
			c-1.462,0-2.795-0.43-3.956-1.289c-1.806-1.29-2.709-3.44-2.58-5.978c0.129-3.396,2.107-6.923,4.688-8.471
			C195.75,35.407,197.341,36.697,198.028,37.643z M193.771,39.104c-1.806,1.075-3.311,3.655-3.611,6.149
			c1.634,0.043,3.697-1.075,5.203-2.924c0.73-0.903,1.462-2.623,0.902-3.397C196.051,38.675,195.621,38.03,193.771,39.104z"/>
	</g>
</g>
<g id="Layer_10">
</g>
<g id="Bipolar">
	<g id="Layer_12">
	</g>
</g>
<g id="YesorNo">
</g>
<g id="Deja_Vu">
</g>
<g id="Indecisive">
</g>
<g id="Greedy">
</g>
<g id="Pushup">
</g>
<g id="Clothes_Swap">
</g>
</svg>
