<?xml version="1.0" encoding="utf-8"?>
<!-- Generator: Adobe Illustrator 16.0.0, SVG Export Plug-In . SVG Version: 6.00 Build 0)  -->
<!DOCTYPE svg PUBLIC "-//W3C//DTD SVG 1.1//EN" "http://www.w3.org/Graphics/SVG/1.1/DTD/svg11.dtd">
<svg version="1.1" xmlns="http://www.w3.org/2000/svg" xmlns:xlink="http://www.w3.org/1999/xlink" x="0px" y="0px"
	 width="209.76px" height="62.36px" viewBox="0 0 209.76 62.36" enable-background="new 0 0 209.76 62.36" xml:space="preserve">
<g id="Layer_1">
</g>
<g id="Can_of_Whoop-Ass">
</g>
<g id="Gun_Show">
</g>
<g id="Chicken">
</g>
<g id="Copycat">
</g>
<g id="Quiet">
</g>
<g id="DOCTOR">
	<g>
		<path fill="none" stroke="#000000" d="M4.526,3.008h3.856v23.138H4.526V3.008z"/>
		<path fill="none" stroke="#000000" d="M13.292,3.008h3.856v3.856l-1.932,3.856h-1.925V3.008z"/>
		<path fill="none" stroke="#000000" d="M22.057,6.864h3.856v1.932c0-0.532,0.094-0.986,0.28-1.364
			c0.189-0.378,0.417-0.567,0.683-0.567h2.89c0.532,0,0.987,0.187,1.365,0.561c0.378,0.378,0.567,0.833,0.567,1.364v0.007
			c0-0.532,0.093-0.986,0.28-1.364c0.189-0.378,0.418-0.567,0.686-0.567h2.894c0.532,0,0.987,0.187,1.365,0.561
			c0.373,0.378,0.56,0.833,0.56,1.364v17.356h-3.856V10.728h-1.928v15.418h-3.856V10.728h-1.928v15.418h-3.856V6.864z"/>
		<path fill="none" stroke="#000000" d="M49.786,25.585c-0.374-0.378-0.561-0.833-0.561-1.364v-7.713l5.784-3.862v-1.925h-1.928
			v2.894l-3.856,1.925v-6.75c0-0.527,0.187-0.979,0.561-1.357c0.378-0.378,0.833-0.567,1.364-0.567h5.784
			c0.532,0,0.987,0.187,1.365,0.561c0.378,0.378,0.567,0.833,0.567,1.364v17.356H55.01v-1.925c0,0.531-0.094,0.986-0.283,1.364
			c-0.189,0.374-0.417,0.561-0.683,0.561H51.15C50.619,26.146,50.164,25.959,49.786,25.585z M55.01,16.508l-1.928,1.926v3.855h1.928
			V16.508z"/>
		<path fill="none" stroke="#000000" d="M63.772,6.864h3.856v1.932c0-0.532,0.094-0.986,0.28-1.364
			c0.189-0.378,0.417-0.567,0.683-0.567h2.89c0.532,0,0.987,0.187,1.365,0.561c0.378,0.378,0.567,0.833,0.567,1.364v17.356h-3.856
			V10.728h-1.928v15.418h-3.856V6.864z"/>
		<path fill="none" stroke="#000000" d="M85.152,4.939c0-0.531,0.187-0.986,0.561-1.364c0.378-0.378,0.833-0.567,1.364-0.567h5.784
			c0.532,0,0.987,0.188,1.365,0.561c0.378,0.378,0.567,0.833,0.567,1.365v21.212h-3.856V15.539l-1.928,1.932v8.675h-3.856V4.939z
			 M90.937,11.684V6.864h-1.928v6.75L90.937,11.684z"/>
		<path fill="none" stroke="#000000" d="M99.698,4.934l3.856-1.926v23.138h-3.856V4.934z"/>
		<path fill="none" stroke="#000000" d="M109.024,25.585c-0.374-0.378-0.561-0.833-0.561-1.364V8.796
			c0-0.532,0.187-0.986,0.561-1.364c0.378-0.378,0.833-0.567,1.364-0.567h5.784c0.532,0,0.987,0.187,1.364,0.561
			c0.379,0.378,0.567,0.833,0.567,1.364v3.856l-3.856,1.932v-3.856h-1.928v11.568h1.928v-1.925l3.856-1.931v5.787
			c0,0.531-0.188,0.986-0.567,1.364c-0.377,0.374-0.832,0.561-1.364,0.561h-5.784C109.857,26.146,109.402,25.959,109.024,25.585z"/>
		<path fill="none" stroke="#000000" d="M123.01,4.934l3.856-1.926v5.788c0-0.532,0.094-0.986,0.28-1.364
			c0.189-0.378,0.416-0.567,0.683-0.567h2.89c0.532,0,0.987,0.187,1.365,0.561c0.378,0.378,0.566,0.833,0.566,1.364v17.356h-3.855
			V10.728h-1.929v15.418h-3.856V4.934z"/>
		<path fill="none" stroke="#000000" d="M138.117,25.585c-0.374-0.378-0.561-0.833-0.561-1.364V8.789
			c0-0.527,0.187-0.979,0.561-1.357c0.378-0.378,0.832-0.567,1.364-0.567h5.784c0.531,0,0.986,0.187,1.365,0.561
			c0.377,0.378,0.566,0.833,0.566,1.364v15.432c0,0.531-0.189,0.986-0.566,1.364c-0.379,0.374-0.834,0.561-1.365,0.561h-5.784
			C138.949,26.146,138.495,25.959,138.117,25.585z M143.341,10.721h-1.928v11.568h1.928V10.721z"/>
		<path fill="none" stroke="#000000" d="M152.104,4.934l3.855-1.926v5.788c0-0.532,0.094-0.986,0.28-1.364
			c0.188-0.378,0.417-0.567,0.683-0.567h2.891c0.531,0,0.986,0.187,1.364,0.561c0.378,0.378,0.567,0.833,0.567,1.364v17.356h-3.857
			V10.728h-1.928v15.418h-3.855V4.934z"/>
		<path fill="none" stroke="#000000" d="M166.648,4.934l3.856-1.926v23.138h-3.856V4.934z"/>
		<path fill="none" stroke="#000000" d="M175.975,25.585c-0.373-0.378-0.561-0.833-0.561-1.364V8.789
			c0-0.527,0.188-0.979,0.561-1.357c0.378-0.378,0.833-0.567,1.365-0.567h5.783c0.532,0,0.987,0.187,1.365,0.561
			c0.378,0.378,0.566,0.833,0.566,1.364v15.432c0,0.531-0.188,0.986-0.566,1.364c-0.378,0.374-0.833,0.561-1.365,0.561h-5.783
			C176.808,26.146,176.353,25.959,175.975,25.585z M181.199,10.721h-1.929v11.568h1.929V10.721z"/>
		<path fill="none" stroke="#000000" d="M189.961,3.971l3.856-1.932v3.856l-3.856,1.932V3.971z M189.961,8.789l3.856-1.925v19.281
			h-3.856V8.789z"/>
		<path fill="none" stroke="#000000" d="M199.287,25.585c-0.374-0.378-0.561-0.833-0.561-1.364V8.796
			c0-0.532,0.187-0.986,0.561-1.364c0.378-0.378,0.832-0.567,1.364-0.567h5.784c0.531,0,0.986,0.187,1.365,0.561
			c0.377,0.378,0.566,0.833,0.566,1.364v3.856l-3.856,1.932v-3.856h-1.928v11.568h1.928v-1.925l3.856-1.931v5.787
			c0,0.531-0.189,0.986-0.566,1.364c-0.379,0.374-0.834,0.561-1.365,0.561h-5.784C200.119,26.146,199.665,25.959,199.287,25.585z"/>
		<path fill="none" stroke="#000000" d="M11.308,35.408h3.856v1.932c0-0.531,0.093-0.986,0.28-1.364
			c0.189-0.378,0.417-0.567,0.682-0.567h2.891c0.532,0,0.987,0.188,1.365,0.561c0.378,0.378,0.567,0.833,0.567,1.365v21.212h-3.856
			V39.265h-1.928v19.281h-3.856V35.408z"/>
		<path fill="none" stroke="#000000" d="M26.414,57.985c-0.373-0.378-0.56-0.833-0.56-1.364V41.189c0-0.527,0.187-0.979,0.56-1.357
			c0.378-0.378,0.833-0.567,1.365-0.567h5.784c0.532,0,0.987,0.187,1.365,0.561c0.378,0.378,0.567,0.833,0.567,1.364v15.432
			c0,0.531-0.189,0.986-0.567,1.364c-0.378,0.374-0.833,0.561-1.365,0.561h-5.784C27.247,58.546,26.792,58.359,26.414,57.985z
			 M31.638,43.121H29.71v11.568h1.928V43.121z"/>
		<path fill="none" stroke="#000000" d="M42.762,57.985c-0.374-0.377-0.561-0.831-0.561-1.364v-9.644l-1.788,0.995v-3.863
			l1.788-0.988v-7.713h3.856v5.781l2.332-1.226v3.856l-2.332,1.226v9.644h2.529v3.856h-4.461L42.762,57.985z"/>
		<path fill="none" stroke="#000000" d="M61.095,57.985c-0.374-0.378-0.561-0.833-0.561-1.364v-7.713l5.784-3.862v-1.925h-1.928
			v2.894l-3.856,1.925v-6.75c0-0.527,0.187-0.979,0.561-1.357c0.378-0.378,0.833-0.567,1.364-0.567h5.784
			c0.532,0,0.987,0.187,1.365,0.561c0.378,0.378,0.567,0.833,0.567,1.364v17.356h-3.856v-1.925c0,0.531-0.094,0.986-0.283,1.364
			c-0.189,0.374-0.417,0.561-0.683,0.561h-2.894C61.927,58.546,61.473,58.359,61.095,57.985z M66.318,48.908l-1.928,1.926v3.855
			h1.928V48.908z"/>
		<path fill="none" stroke="#000000" d="M81.915,35.408h7.709c0.532,0,0.987,0.188,1.365,0.561c0.378,0.378,0.567,0.833,0.567,1.365
			v8.681l-1.932,0.963h1.932v9.644c0,0.531-0.189,0.986-0.567,1.364c-0.378,0.374-0.833,0.561-1.365,0.561h-7.709V35.408z
			 M87.699,44.084v-4.819h-1.928v6.75L87.699,44.084z M87.699,47.939l-1.928,1.932v4.818h1.928V47.939z"/>
		<path fill="none" stroke="#000000" d="M96.461,39.265h3.856v1.932c0-0.532,0.093-0.986,0.28-1.364
			c0.189-0.378,0.417-0.567,0.682-0.567h1.624c0.532,0,0.987,0.187,1.365,0.561c0.373,0.378,0.56,0.833,0.56,1.364v3.856
			l-3.548,1.932v-3.85h-0.962v15.418h-3.856V39.265z"/>
		<path fill="none" stroke="#000000" d="M109.734,36.371l3.856-1.932v3.856l-3.856,1.932V36.371z M109.734,41.189l3.856-1.925
			v19.281h-3.856V41.189z"/>
		<path fill="none" stroke="#000000" d="M119.061,57.985c-0.373-0.378-0.561-0.833-0.561-1.364V41.196
			c0-0.532,0.188-0.986,0.561-1.364c0.378-0.378,0.833-0.567,1.365-0.567h5.783c0.532,0,0.987,0.187,1.365,0.561
			c0.378,0.378,0.566,0.833,0.566,1.364v3.856l-3.855,1.932v-3.856h-1.929v11.568h1.929v-1.925l3.855-1.931v5.787
			c0,0.531-0.188,0.986-0.566,1.364c-0.378,0.374-0.833,0.561-1.365,0.561h-5.783C119.894,58.546,119.438,58.359,119.061,57.985z"/>
		<path fill="none" stroke="#000000" d="M133.047,35.408h3.855v11.569l1.928-7.713h3.857l-3.089,9.644l3.089,9.638h-3.857
			l-1.928-7.712v7.712h-3.855V35.408z"/>
		<path fill="none" stroke="#000000" d="M147.593,37.334l3.856-1.926v23.138h-3.856V37.334z"/>
		<path fill="none" stroke="#000000" d="M156.919,57.985c-0.374-0.378-0.561-0.833-0.561-1.364v-7.713l5.784-3.862v-1.925h-1.928
			v2.894l-3.856,1.925v-6.75c0-0.527,0.187-0.979,0.561-1.357c0.378-0.378,0.833-0.567,1.364-0.567h5.784
			c0.532,0,0.987,0.187,1.364,0.561c0.379,0.378,0.567,0.833,0.567,1.364v17.356h-3.856v-1.925c0,0.531-0.094,0.986-0.283,1.364
			c-0.189,0.374-0.416,0.561-0.683,0.561h-2.894C157.752,58.546,157.297,58.359,156.919,57.985z M162.143,48.908l-1.928,1.926v3.855
			h1.928V48.908z"/>
		<path fill="none" stroke="#000000" d="M171.465,61.835c-0.373-0.378-0.561-0.833-0.561-1.364v-3.85l3.856-1.932v3.856h1.929v-6.75
			l-5.785,3.862V39.265h3.856v10.606l1.929-1.932v-8.675h3.855v21.206c0,0.531-0.188,0.986-0.566,1.364s-0.833,0.567-1.365,0.567
			h-5.783C172.298,62.402,171.843,62.213,171.465,61.835z"/>
		<path fill="none" stroke="#000000" d="M186.012,57.985c-0.374-0.378-0.561-0.833-0.561-1.364V41.189
			c0-0.527,0.187-0.979,0.561-1.357c0.378-0.378,0.832-0.567,1.364-0.567h5.784c0.531,0,0.986,0.187,1.365,0.561
			c0.377,0.378,0.566,0.833,0.566,1.364v7.719l-5.784,3.856v1.925h1.928v-2.894l3.856-1.925v6.75c0,0.531-0.189,0.986-0.566,1.364
			c-0.379,0.374-0.834,0.561-1.365,0.561h-5.784C186.844,58.546,186.39,58.359,186.012,57.985z M191.235,46.978v-3.856h-1.928v5.787
			L191.235,46.978z"/>
		<path fill="none" stroke="#000000" d="M199.997,39.265h3.856v1.932c0-0.532,0.094-0.986,0.279-1.364
			c0.189-0.378,0.417-0.567,0.683-0.567h1.624c0.531,0,0.986,0.187,1.364,0.561c0.373,0.378,0.56,0.833,0.56,1.364v3.856
			l-3.548,1.932v-3.85h-0.962v15.418h-3.856V39.265z"/>
	</g>
</g>
<g id="Psychiatrist">
</g>
<g id="Remove">
</g>
<g id="Layer_10">
</g>
<g id="Bipolar">
	<g id="Layer_12">
	</g>
</g>
<g id="YesorNo">
</g>
<g id="Deja_Vu">
</g>
<g id="Indecisive">
</g>
<g id="Greedy">
</g>
<g id="Pushup">
</g>
<g id="Clothes_Swap">
</g>
</svg>
