<?xml version="1.0" encoding="utf-8"?>
<!-- Generator: Adobe Illustrator 16.0.0, SVG Export Plug-In . SVG Version: 6.00 Build 0)  -->
<!DOCTYPE svg PUBLIC "-//W3C//DTD SVG 1.1//EN" "http://www.w3.org/Graphics/SVG/1.1/DTD/svg11.dtd">
<svg version="1.1" xmlns="http://www.w3.org/2000/svg" xmlns:xlink="http://www.w3.org/1999/xlink" x="0px" y="0px"
	 width="209.76px" height="62.36px" viewBox="0 0 209.76 62.36" enable-background="new 0 0 209.76 62.36" xml:space="preserve">
<g id="Layer_1">
</g>
<g id="Can_of_Whoop-Ass">
</g>
<g id="Gun_Show">
</g>
<g id="Chicken">
</g>
<g id="Copycat">
</g>
<g id="Quiet">
</g>
<g id="DOCTOR">
</g>
<g id="Psychiatrist">
</g>
<g id="Remove">
</g>
<g id="Layer_10">
	<path fill-rule="evenodd" clip-rule="evenodd" d="M42.823,24.101c-4.243-5.369-12.941-7.528-20.208-5.213
		c-7.46,2.375-13.06,9.211-13.621,17.04C8.38,44.489,11.861,51.107,19.3,55.39c6.956,4.006,15.831,3.219,21.945-1.67
		c1.028-0.821,2.07-1.547,3.157-0.322c1.144,1.288,0.153,2.157-0.826,3.002c-7.531,6.488-20.117,6.792-28.272,0.664
		C3.478,48.179,1.898,32.579,11.706,21.524c7.685-8.662,22.395-9.777,31.309-2.377c0.495,0.409,1.045,0.762,1.496,1.215
		c0.792,0.801,1.441,0.667,2.164-0.106c0.976-1.043,1.986-2.059,3.036-3.029c1.509-1.395,3.095-1.005,3.488,0.972
		c0.906,4.55,1.712,9.122,2.457,13.702c0.297,1.823-0.641,2.71-2.522,2.411c-4.512-0.718-9.016-1.496-13.506-2.345
		c-2.149-0.406-2.609-1.943-1.116-3.535C39.916,26.936,41.405,25.519,42.823,24.101z"/>
	<path fill-rule="evenodd" clip-rule="evenodd" d="M41.088,42.093c3.968,5.575,12.547,8.168,19.921,6.222
		c7.57-1.998,13.506-8.544,14.459-16.335c1.044-8.52-2.101-15.305-9.314-19.955c-6.746-4.351-15.649-4.01-22.001,0.565
		c-1.068,0.77-2.146,1.44-3.169,0.163c-1.077-1.344-0.045-2.162,0.976-2.956c7.848-6.102,20.432-5.773,28.27,0.757
		c11.364,9.468,12.157,25.127,1.807,35.675c-8.11,8.266-22.857,8.641-31.389,0.801c-0.474-0.434-1.006-0.813-1.433-1.288
		c-0.751-0.84-1.406-0.738-2.167-0.002c-1.027,0.992-2.087,1.957-3.184,2.872c-1.577,1.316-3.142,0.849-3.435-1.146
		c-0.677-4.59-1.253-9.196-1.766-13.809c-0.206-1.836,0.775-2.674,2.64-2.279c4.471,0.942,8.93,1.945,13.371,3.019
		c2.126,0.515,2.509,2.072,0.937,3.587C44.134,39.408,42.576,40.748,41.088,42.093z"/>
	<g>
		<path fill="none" stroke="#000000" d="M92.357,43.973h-6.856c-0.594,0-1.269-0.054-1.269-0.837c0-0.378,0.243-0.621,0.594-0.729
			c0.944-0.297,0.917-0.459,0.917-1.458V26.806c0-0.405,0.054-1.134-0.459-1.296c-0.54-0.189-1.053-0.271-1.053-0.945
			c0-0.701,0.675-0.782,1.215-0.782h6.91V43.973z M93.572,23.782c4.588-0.054,8.421,3.131,8.746,10.095
			c0.297,6.344-4.265,10.096-8.746,10.096v-1.565c1.646-0.216,1.728-1.755,1.728-2.78V28.128c0-1.025-0.081-2.564-1.728-2.78V23.782
			z"/>
		<path fill="none" stroke="#000000" d="M112.147,24.942c-1.269,0.459-1.376,1.269-1.376,1.943v13.982
			c0,0.675,0.107,1.485,1.376,1.943v1.566c-5.722-0.514-8.395-5.129-8.395-10.501c0-5.371,2.673-9.987,8.395-10.5V24.942z
			 M113.362,42.812c1.269-0.458,1.377-1.269,1.377-1.943V26.886c0-0.675-0.108-1.484-1.377-1.943v-1.565
			c5.723,0.513,8.395,5.129,8.395,10.5c0,5.372-2.672,9.987-8.395,10.501V42.812z"/>
		<path fill="none" stroke="#000000" d="M140.524,24.942c-1.269,0.459-1.376,1.269-1.376,1.943v13.982
			c0,0.675,0.107,1.485,1.376,1.943v1.566c-5.722-0.514-8.395-5.129-8.395-10.501c0-5.371,2.673-9.987,8.395-10.5V24.942z
			 M141.739,42.812c1.269-0.458,1.377-1.269,1.377-1.943V26.886c0-0.675-0.108-1.484-1.377-1.943v-1.565
			c5.723,0.513,8.395,5.129,8.395,10.5c0,5.372-2.672,9.987-8.395,10.501V42.812z"/>
		<path fill="none" stroke="#000000" d="M161.665,43.973h-3.887l-5.183-17.356c-0.216-0.783-0.135-0.863-0.863-1.188
			c-0.324-0.162-0.54-0.405-0.54-0.783c0-0.891,1.134-0.863,1.755-0.863h5.911c0.621,0,1.916-0.162,1.916,0.81
			c0,1.053-1.188,0.594-1.188,1.7c0,0.324,0.054,0.459,0.135,0.783l3.348,11.715L161.665,43.973z M162.854,33.958l1.592-5.965
			c0.136-0.432,0.189-0.594,0.189-1.053c0-0.756-0.324-1.215-1.025-1.458c-0.459-0.162-0.837-0.324-0.837-0.863
			c0-0.837,0.972-0.837,1.538-0.837h2.97c0.594,0,1.593-0.108,1.593,0.756c0,0.594-0.378,0.675-0.837,0.891
			c-0.702,0.324-0.945,0.459-1.377,1.106c-0.351,0.567-0.566,1.188-0.729,1.809l-2.268,8.395h-0.054L162.854,33.958z"/>
		<path fill="none" stroke="#000000" d="M170.523,23.782h7.127v20.19h-7.127c-0.107,0-0.998-0.054-0.998-0.837
			c0-0.378,0.242-0.621,0.594-0.729c0.944-0.297,0.918-0.459,0.918-1.458V26.806c0-0.999,0.026-1.161-0.918-1.458
			c-0.352-0.108-0.594-0.351-0.594-0.729C169.525,23.836,170.416,23.782,170.523,23.782z M178.864,23.782h6.02v5.479
			c0,0.135-0.026,0.647-0.837,0.647c-0.459,0-0.594-0.27-0.729-0.675c-0.702-2.187-2.078-3.509-4.454-3.887V23.782z M178.864,32.798
			c1.134-0.297,1.646-1.35,1.89-2.376c0.135-0.458,0.297-0.891,0.864-0.891c0.837,0,0.701,0.972,0.701,1.188v5.831
			c0,0.216,0.136,1.188-0.701,1.188c-0.567,0-0.729-0.432-0.864-0.891c-0.243-1.025-0.756-2.078-1.89-2.375V32.798z M178.864,42.407
			c2.187-0.271,3.86-1.755,4.589-3.914c0.189-0.405,0.352-0.837,0.837-0.837c0.864,0,0.783,0.81,0.783,0.918v5.398h-6.209V42.407z"
			/>
		<path fill="none" stroke="#000000" d="M189.153,26.806c0-0.999,0.027-1.161-0.918-1.458c-0.351-0.108-0.594-0.351-0.594-0.729
			c0-0.783,0.891-0.837,0.999-0.837h7.126v17.167c0,0.999-0.027,1.161,0.918,1.458c0.351,0.107,0.594,0.351,0.594,0.729
			c0,0.783-0.891,0.837-0.999,0.837h-7.639c-0.108,0-0.999-0.054-0.999-0.837c0-0.378,0.243-0.621,0.594-0.729
			c0.945-0.297,0.918-0.459,0.918-1.458V26.806z M196.981,23.782h0.135c1.755,0,3.59-0.054,5.21,0.729
			c1.808,0.891,2.726,2.375,2.753,4.427c0.054,3.104-1.998,4.454-4.751,5.102v0.055c2.402,0.351,4.697,1.053,4.751,3.913v2.376
			c0,0.243-0.081,0.782,0.27,0.782c0.433,0,0.513-0.782,1.161-0.782c0.351,0,0.782,0.404,0.782,0.782
			c0,0.783-0.891,1.782-1.484,2.241c-0.918,0.755-1.89,0.972-3.05,0.972c-1.161,0-2.214-0.297-3.051-1.134
			c-0.944-0.972-1.079-2.16-1.079-3.429V37.98c0-1.242-0.027-2.754-1.646-2.915v-1.593c1.457-0.135,1.646-1.026,1.646-2.349v-3.266
			c0-1.35-0.297-1.998-1.646-2.483V23.782z"/>
	</g>
</g>
<g id="Bipolar">
	<g id="Layer_12">
	</g>
</g>
<g id="YesorNo">
</g>
<g id="Deja_Vu">
</g>
<g id="Indecisive">
</g>
<g id="Greedy">
</g>
<g id="Pushup">
</g>
<g id="Clothes_Swap">
</g>
</svg>
