<?xml version="1.0" encoding="utf-8"?>
<!-- Generator: Adobe Illustrator 16.0.0, SVG Export Plug-In . SVG Version: 6.00 Build 0)  -->
<!DOCTYPE svg PUBLIC "-//W3C//DTD SVG 1.1//EN" "http://www.w3.org/Graphics/SVG/1.1/DTD/svg11.dtd">
<svg version="1.1" xmlns="http://www.w3.org/2000/svg" xmlns:xlink="http://www.w3.org/1999/xlink" x="0px" y="0px"
	 width="209.76px" height="62.36px" viewBox="0 0 209.76 62.36" enable-background="new 0 0 209.76 62.36" xml:space="preserve">
<g id="Layer_1">
</g>
<g id="Can_of_Whoop-Ass">
</g>
<g id="Gun_Show">
</g>
<g id="Chicken">
</g>
<g id="Copycat">
</g>
<g id="Quiet">
</g>
<g id="DOCTOR">
</g>
<g id="Psychiatrist">
</g>
<g id="Remove">
</g>
<g id="Layer_10">
</g>
<g id="Bipolar">
	<g id="Layer_12">
	</g>
</g>
<g id="YesorNo">
</g>
<g id="Deja_Vu">
	<g>
		<path stroke="#000000" stroke-miterlimit="10" d="M15.205,45.794h0.75c1.35,0,2.5-1.15,2.5-2.5V18.442h1v24.852
			c0,1.35,1.15,2.5,2.5,2.5h2.301c8.9,0,15.7-6.7,15.7-15.151c0-11.051-10-18.051-20.551-18.051c-6.751,0-14.001,2.65-16.951,9.051
			c-0.5,1.1-0.8,2.4-0.8,3.65c0,2.399,1.2,4.75,4.4,4.75c1.199,0,2.45-0.3,3.8-0.95l0.4,0.9c-1.45,0.7-2.851,1.05-4.2,1.05
			c-3.9,0-5.4-2.9-5.4-5.75c0-1.351,0.3-2.801,0.899-4.051c3.101-6.8,10.701-9.65,17.852-9.65c11.15,0,21.551,7.5,21.551,19.051
			c0,9.001-7.2,16.151-16.7,16.151h-9.051V45.794z"/>
		<path stroke="#000000" stroke-miterlimit="10" d="M44.454,40.993c0,3.351,3.45,5.301,6.45,5.301c2.25,0,4.05-0.85,5.55-2.5
			l0.75,0.649c-1.7,1.851-3.75,2.851-6.3,2.851c-3.551,0-7.45-2.4-7.45-6.301c0-3.899,3.899-6.3,7.45-6.3c2.35,0,4.7,1,6.05,2.85
			c0.5,0.65,0.851,1.45,1.051,2.351H44.604C44.504,40.243,44.454,40.644,44.454,40.993z M56.555,38.894
			c-1.101-2.101-3.301-3.2-5.65-3.2c-2.301,0-4.851,1.1-5.9,3.2H56.555z"/>
		<path stroke="#000000" stroke-miterlimit="10" d="M60.703,60.595c2.001,0,3.101-1.8,3.101-3.75V36.344h-2.65v-1.001h3.65v21.502
			c0,2.5-1.5,4.7-4.15,4.7c-1,0-2-0.3-2.75-1l0.65-0.75C59.104,60.295,59.804,60.595,60.703,60.595z M62.004,32.343
			c0-0.85,0.649-1.55,1.55-1.55c0.85,0,1.55,0.7,1.55,1.55c0,0.851-0.7,1.551-1.55,1.551C62.653,33.894,62.004,33.193,62.004,32.343
			z"/>
		<path stroke="#000000" stroke-miterlimit="10" d="M75.153,38.543c1.351,0,2.45,0.25,3.301,0.601c-1.101-1.55-2.551-2.8-4.65-2.8
			h-4v-0.95h4c7.2,0,6.5,10.4,12.001,10.4v1c-2.501,0-3.601-1.4-4.851-3.45c-0.65,2.75-4,3.95-6.501,3.95
			c-2.5,0-6.149-1.25-6.149-4.351C68.304,39.844,72.354,38.543,75.153,38.543z M69.304,42.943c0,2.301,3,3.351,4.95,3.351
			c2,0,5.8-1,5.8-3.65c0-2.5-3-3.1-5.05-3.1C73.203,39.544,69.304,40.344,69.304,42.943z"/>
		<path stroke="#000000" stroke-miterlimit="10" d="M88.203,39.794c0,2.649,1.5,6.5,4.65,6.5c3.2,0,4.7-3.851,4.7-6.5
			c0-2.551-0.55-4.501-1.5-6.851l0.9-0.351c0.949,2.5,1.6,4.501,1.6,7.201c0,3.2-1.95,7.5-5.7,7.5c-3.7,0-5.65-4.3-5.65-7.5
			c0-1.301,0.25-2.45,0.55-3.4h-2.15v-1.051h3.301v1.001C88.403,37.394,88.203,38.594,88.203,39.794z"/>
		<path stroke="#000000" stroke-miterlimit="10" d="M115.304,45.794h3.05v1h-4.051v-1.601c-1.35,1.501-3.899,2.251-5.7,2.251
			c-2.7,0-5.55-2.101-5.55-4.95c0-0.601,0.05-1.15,0.3-1.801l1.55-4.35h-3.149v-0.95h4.25v0.899l-1.7,4.751
			c-0.2,0.5-0.25,1-0.25,1.45c0,2.3,2.4,3.95,4.55,3.95c2,0,5.7-1.2,5.7-3.7v-6.4h-2.899v-0.95h3.9V45.794z"/>
	</g>
	<g>
		<path stroke="#000000" stroke-miterlimit="10" d="M194.294,16.181h-0.75c-1.35,0-2.5,1.15-2.5,2.5v24.852h-1V18.681
			c0-1.35-1.15-2.5-2.5-2.5h-2.301c-8.9,0-15.7,6.7-15.7,15.151c0,11.051,10,18.051,20.551,18.051c6.751,0,14.001-2.65,16.951-9.051
			c0.5-1.1,0.8-2.4,0.8-3.65c0-2.399-1.2-4.75-4.4-4.75c-1.199,0-2.45,0.3-3.8,0.95l-0.4-0.9c1.45-0.7,2.851-1.05,4.2-1.05
			c3.9,0,5.4,2.9,5.4,5.75c0,1.351-0.3,2.801-0.899,4.051c-3.101,6.8-10.701,9.65-17.852,9.65c-11.15,0-21.551-7.5-21.551-19.051
			c0-9.001,7.2-16.151,16.7-16.151h9.051V16.181z"/>
		<path stroke="#000000" stroke-miterlimit="10" d="M165.045,20.981c0-3.351-3.45-5.301-6.45-5.301c-2.25,0-4.05,0.85-5.55,2.5
			l-0.75-0.649c1.7-1.851,3.75-2.851,6.3-2.851c3.551,0,7.45,2.4,7.45,6.301c0,3.899-3.899,6.3-7.45,6.3c-2.35,0-4.7-1-6.05-2.85
			c-0.5-0.65-0.851-1.45-1.051-2.351h13.401C164.995,21.731,165.045,21.331,165.045,20.981z M152.944,23.081
			c1.101,2.101,3.301,3.2,5.65,3.2c2.301,0,4.851-1.1,5.9-3.2H152.944z"/>
		<path stroke="#000000" stroke-miterlimit="10" d="M147.495,29.632c0,0.85-0.649,1.55-1.55,1.55c-0.85,0-1.55-0.7-1.55-1.55
			c0-0.851,0.7-1.551,1.55-1.551C146.846,28.081,147.495,28.781,147.495,29.632z M148.796,1.38c-2.001,0-3.101,1.8-3.101,3.75
			v20.501h2.65v1.001h-3.65V5.13c0-2.5,1.5-4.7,4.15-4.7c1,0,2,0.3,2.75,1l-0.65,0.75C150.396,1.68,149.695,1.38,148.796,1.38z"/>
		<path stroke="#000000" stroke-miterlimit="10" d="M134.346,23.432c-1.351,0-2.45-0.25-3.301-0.601c1.101,1.55,2.551,2.8,4.65,2.8
			h4v0.95h-4c-7.2,0-6.5-10.4-12.001-10.4v-1c2.501,0,3.601,1.4,4.851,3.45c0.65-2.75,4-3.95,6.501-3.95
			c2.5,0,6.149,1.25,6.149,4.351C141.195,22.131,137.146,23.432,134.346,23.432z M140.195,19.031c0-2.301-3-3.351-4.95-3.351
			c-2,0-5.8,1-5.8,3.65c0,2.5,3,3.1,5.05,3.1C136.296,22.431,140.195,21.631,140.195,19.031z"/>
		<path stroke="#000000" stroke-miterlimit="10" d="M121.296,22.181c0-2.649-1.5-6.5-4.65-6.5c-3.2,0-4.7,3.851-4.7,6.5
			c0,2.551,0.55,4.501,1.5,6.851l-0.9,0.351c-0.949-2.5-1.6-4.501-1.6-7.201c0-3.2,1.95-7.5,5.7-7.5c3.7,0,5.65,4.3,5.65,7.5
			c0,1.301-0.25,2.45-0.55,3.4h2.15v1.051h-3.301v-1.001C121.096,24.581,121.296,23.381,121.296,22.181z"/>
		<path stroke="#000000" stroke-miterlimit="10" d="M94.195,16.181h-3.05v-1h4.051v1.601c1.35-1.501,3.899-2.251,5.7-2.251
			c2.7,0,5.55,2.101,5.55,4.95c0,0.601-0.05,1.15-0.3,1.801l-1.55,4.35h3.149v0.95h-4.25v-0.899l1.7-4.751c0.2-0.5,0.25-1,0.25-1.45
			c0-2.3-2.4-3.95-4.55-3.95c-2,0-5.7,1.2-5.7,3.7v6.4h2.899v0.95h-3.9V16.181z"/>
	</g>
</g>
<g id="Indecisive">
</g>
<g id="Greedy">
</g>
<g id="Pushup">
</g>
<g id="Clothes_Swap">
</g>
</svg>
