<?xml version="1.0" encoding="utf-8"?>
<!-- Generator: Adobe Illustrator 16.0.0, SVG Export Plug-In . SVG Version: 6.00 Build 0)  -->
<!DOCTYPE svg PUBLIC "-//W3C//DTD SVG 1.1//EN" "http://www.w3.org/Graphics/SVG/1.1/DTD/svg11.dtd">
<svg version="1.1" xmlns="http://www.w3.org/2000/svg" xmlns:xlink="http://www.w3.org/1999/xlink" x="0px" y="0px"
	 width="209.76px" height="62.36px" viewBox="0 0 209.76 62.36" enable-background="new 0 0 209.76 62.36" xml:space="preserve">
<g id="Layer_1">
</g>
<g id="Can_of_Whoop-Ass">
</g>
<g id="Gun_Show">
</g>
<g id="Chicken">
</g>
<g id="Copycat">
</g>
<g id="Quiet">
</g>
<g id="DOCTOR">
</g>
<g id="Psychiatrist">
</g>
<g id="Remove">
</g>
<g id="Layer_10">
</g>
<g id="Bipolar">
	<g id="Layer_12">
	</g>
</g>
<g id="YesorNo">
</g>
<g id="Deja_Vu">
</g>
<g id="Indecisive">
	<g>
		<path fill-rule="evenodd" clip-rule="evenodd" d="M56.891,21.943c0.183-0.031,0.354-0.048,0.378,0.215
			c0.017,0.166-0.067,0.289-0.151,0.414c-0.191,0.287-0.374,0.744-0.728,0.645c-0.287-0.082-0.22-0.563-0.225-0.885
			c-0.064-3.708,0.151-7.405,0.405-11.102c0.094-1.355,0.021-2.721,0.345-4.059c0.316-1.313,0.584-1.59,1.916-1.784
			c0.713-0.103,1.43-0.165,2.297-0.262c-2.151-0.826-4.165-1.595-6.175-2.373c-1.349-0.521-2.678-1.096-3.927-1.828
			c-0.383-0.225-0.648-0.087-0.965,0.063c-2.632,1.255-5.254,2.533-8.02,3.469c-0.794,0.269-1.6,0.489-2.557,0.779
			c1.425,0.75,2.836,0.906,4.229,0.943c0.325,0.008,0.472-0.172,0.538,0.247c0.061,0.389,0.486-0.113,0.578,0.303
			c-0.53,0.1-0.372,0.514-0.242,0.808c0.693,1.557,0.682,3.236,0.942,4.874c0.16,1.015,0.119,2.094,0.734,3.058
			c0.327,0.512,0.162,1.288-0.038,1.919c-0.256,0.802-0.101,1.379,0.455,2.082c1.032,1.308,1.734,2.83,1.772,4.581
			c0.007,0.313,0.17,0.62,0.225,0.936c0.494,2.813-0.561,5.003-2.686,6.744c-0.462,0.378-0.973,0.692-1.499,1.063
			c0.282,0.096,0.533,0.177,0.784,0.263c1.214,0.416,2.12,1.182,2.656,2.379c0.813,1.812,1.676,3.6,2.293,5.495
			c0.142,0.43,0.353,0.83,0.68,1.154c0.169,0.233,0.41,0.358,0.67,0.452c0.188,0.066,0.375,0.134,0.565,0.192
			c1.478,0.451,2.438,1.331,2.544,2.996c0.067,1.051,0.494,2.019,0.848,2.993c0.231,0.634,0.133,1.101-0.455,1.393
			c-0.518,0.255-1.016,0.324-1.471-0.235c-0.415-0.512-0.521-1.194-1.035-1.716c-0.111,0.728-0.442,1.214-1.215,1.203
			c-0.51-0.008-0.892-0.143-1.015-0.743c-0.077-0.372-0.297-0.699-0.572-1.003c-0.403-0.445-0.712-0.945-0.778-1.614
			c-0.086-0.877-0.704-1.546-1.13-2.285c-0.805-1.403-2.109-2.396-3.08-3.943c0.063,1.013,0.2,1.813,0.547,2.508
			c0.862,1.728,0.685,3.422,0.01,5.121c-0.307,0.767,0.042,1.473,0.155,2.177c0.439,2.743,1.047,5.463,0.374,8.262
			c-0.206,0.854,0.328,1.544,0.764,2.216c0.176,0.273,0.417,0.501,0.611,0.766c0.609,0.832,0.407,1.544-0.576,1.854
			c-1.254,0.393-2.56,0.396-3.852,0.339c-0.45-0.022-0.87,0.243-1.307,0.08c-0.608-0.228-1.258-0.436-1.365-1.226
			c-0.103-0.772,0.328-1.305,0.89-1.709c0.363-0.26,0.689-0.521,0.938-0.899c0.425-0.646,0.418-1.271,0.113-1.978
			c-0.459-1.059-1.019-2.143-1.019-3.293c-0.002-1.266-0.45-2.44-0.476-3.68c-0.011-0.419-0.232-0.509-0.608-0.561
			c-0.396-0.055-0.515,0.042-0.569,0.435c-0.057,0.419-0.197,0.831-0.337,1.234c-0.227,0.661-0.504,1.283-0.098,2.006
			c0.177,0.313,0.029,0.74-0.131,1.095c-0.397,0.893-0.807,1.783-1.186,2.686c-0.359,0.854-0.051,2.024,0.702,2.599
			c0.492,0.377,0.823,0.821,0.731,1.464c-0.094,0.67-0.609,0.973-1.179,1.117c-1.413,0.36-2.848,0.512-4.282,0.141
			c-1.382-0.355-1.732-1.391-0.899-2.573c0.101-0.144,0.198-0.294,0.32-0.417c1.147-1.145,1.46-2.462,1.073-4.066
			c-0.229-0.956-0.219-1.977,0.158-2.976c0.184-0.486,0.145-1.112,0.045-1.645c-0.172-0.929,0.061-1.728,0.479-2.523
			c0.216-0.411,0.293-0.838,0.023-1.294c-0.819-1.382-1.037-2.838-0.55-4.409c0.387-1.248,0.208-2.55,0.155-3.829
			c-0.033-0.827-0.167-1.652-0.258-2.48c-0.074-0.689-0.563-1.095-1.112-1.287c-0.392-0.137-0.606-0.361-0.818-0.652
			c-0.214-0.295-0.654-0.479-0.774-0.657c-0.325-0.49-1.056-0.56-1.15-1.2c-0.034-0.234-0.188-0.344-0.313-0.492
			c-0.574-0.688-1.117-1.387-1.396-2.271c-0.091-0.284,0.033-0.382,0.119-0.604c0.621-1.594,1.822-2.758,2.86-4.028
			c0.856-1.048,1.096-2.008,0.439-3.269c-0.405-0.771-0.834-1.612-0.669-2.585c0.053-0.313-0.319-0.347-0.521-0.452
			c-2.062-1.09-4.291-1.66-6.54-2.186c-2.225-0.517-4.434-1.106-6.655-1.637c-0.586-0.139-1.159-0.13-1.488,0.569
			c-0.134,0.282-0.416,0.495-0.621,0.746c-0.365,0.447-0.748,0.708-1.231,0.149c-0.027-0.038-0.049-0.091-0.087-0.116
			c-3.518-2.37-7.276-4.2-11.391-5.24c-0.661-0.266-1.328-0.517-1.98-0.804C0.606,10.188,0.36,10.01,0.41,9.677
			c0.057-0.375,0.421-0.363,0.647-0.363c2.461,0.009,4.883-0.44,7.328-0.609c3.647-0.253,7.294-0.53,10.937-0.865
			c0.899-0.082,1.796-0.11,2.696-0.154c0.217-0.01,0.471-0.06,0.562,0.236c0.092,0.297-0.067,0.46-0.308,0.605
			c-0.745,0.451-1.493,0.901-2.104,1.548c-0.35,0.369-0.324,0.57,0.188,0.703c0.32,0.083,0.639,0.131,0.96,0.108
			c3.676-0.256,7.042,0.974,10.243,2.52c1.231,0.595,2.582,0.831,3.749,1.572c1.155,0.733,2.404,1.311,3.613,1.957
			c-0.309,0.467-0.649,0.084-0.908-0.023c-1.998-0.834-3.9-1.896-5.951-2.603c-3.547-1.228-7.067-2.585-10.927-2.349
			c-0.434,0.027-0.895-0.084-1.317-0.215c-0.958-0.3-1.184-1.054-0.602-1.882c0.313-0.445,0.745-0.782,1.292-1.271
			C14.386,9.002,8.45,9.415,2.522,10.055c0.859,0.373,1.728,0.668,2.589,0.979c3.347,1.209,6.745,2.313,9.504,4.73
			c0.115,0.244,0.216,0.464,0.501,0.131c0.316-0.372,0.671-0.711,1.01-1.063l-0.012,0.009c0.034-0.046,0.069-0.092,0.105-0.137
			c0.264-0.638,0.884-0.704,1.411-0.975c0.099,0.302-0.349,0.353-0.211,0.572c1.016,0.204,1.995,0.378,2.965,0.599
			c2.374,0.547,4.727,1.226,7.124,1.631c1.514,0.257,2.754,0.812,3.851,1.865c0.285,0.274,0.707,0.44,1.224,0.197
			c0.813-0.386,1.622-0.768,2.377-1.258c0.408-0.263,0.836-0.401,1.331-0.423c0.445-0.019,0.454,0.211,0.433,0.525
			c-0.522-0.105-0.971,0.055-1.396,0.354c-0.47,0.333-0.988,0.599-1.43,0.962c-0.55,0.458-1.62,0.312-1.731,1.13
			c-0.096,0.705,0.324,1.481,0.71,2.107c0.919,1.495,0.099,2.684-0.599,3.847c-0.524,0.88-1.365,1.531-2.146,2.192
			c-0.446,0.379-0.686,0.889-1.043,1.318c-0.134,0.158-0.135,0.41,0,0.56c1.364,1.514,2.656,3.104,4.341,4.29
			c0.991,0.697,1.611,1.602,1.6,2.895c-0.006,0.6,0.209,1.203,0.188,1.802c-0.043,1.143,0.566,2.243,0.202,3.397
			c-0.281,0.892-0.453,1.794-0.532,2.73c-0.112,1.309,0.851,3.151,2.086,3.545c2.038,0.648,4.11,0.679,6.16-0.024
			c1.776-0.611,2.405-3.116,1.723-4.708c-0.88-2.053-1.104-4.111-0.52-6.264c0.036-0.129,0.005-0.328,0.251-0.285
			c0.162,0.191,0.119,0.433,0.089,0.639c-0.102,0.733,0.199,1.243,0.663,1.802c0.947,1.142,1.984,2.191,3.003,3.262
			c0.624,0.657,1.051,1.405,1.21,2.295c0.155,0.869,0.452,1.643,1.185,2.189c0.166,0.123,0.227,0.314,0.287,0.513
			c0.077,0.254,0.017,0.718,0.479,0.59c0.421-0.117,0.304-0.515,0.252-0.831c-0.077-0.471-0.243-0.927-0.22-1.415
			c0.011-0.191,0.089-0.354,0.259-0.426c0.203-0.082,0.32,0.08,0.423,0.225c0.101,0.144,0.188,0.296,0.278,0.446
			c0.521,0.855,1.028,1.721,1.57,2.563c0.132,0.207,0.302,0.51,0.654,0.333c0.385-0.193,0.154-0.481,0.066-0.708
			c-0.434-1.101-0.809-2.226-0.961-3.398c-0.106-0.813-0.585-1.255-1.227-1.568c-0.443-0.217-0.929-0.46-1.404-0.476
			c-0.71-0.021-1.051-0.451-1.399-0.937c-0.324-0.454-0.502-0.979-0.679-1.504c-0.681-1.997-1.375-3.987-2.308-5.883
			c-0.384-0.779-2.333-2.007-3.121-1.751c-1.013,0.328-1.99,0.211-2.998,0.224c-0.694,0.01-1.326-0.1-1.948-0.375
			c-0.157-0.069-0.325-0.184-0.48-0.174c-1.095,0.078-1.926-0.459-2.692-1.152c-0.238-0.216-0.428-0.568-0.703-0.654
			c-1.006-0.321-1.62-1.246-2.576-1.629c-0.191-0.075-0.187-0.263-0.22-0.442c-0.139-0.739,0.193-1.257,0.78-1.607
			c0.538-0.324,0.78-0.677,0.657-1.371c-0.117-0.684-0.075-1.412,0-2.109c0.273-2.538,0.886-4.89,3.558-5.972
			c0.788-0.295,1.576-0.589,2.365-0.884c1.24-0.14,2.474-0.235,3.711,0.063c0.828,0.202,1.598,0.525,2.505,1.129
			c-0.4-2.691-0.773-5.204-1.148-7.715c0.02-0.042,0.018-0.084-0.005-0.125c-0.01-0.15-0.021-0.304-0.032-0.454
			c-0.039-0.347-0.067-0.695-0.118-1.041c-0.295-2.029-0.294-2.04-2.286-2.352c-1.515-0.236-3.035-0.438-4.551-0.654
			c-0.27,0.043-0.54,0.014-0.56-0.313c-0.013-0.206,0.104-0.367,0.389-0.45c2.397-0.711,4.802-1.408,7.064-2.507
			c0.165-0.052,0.335-0.087,0.49-0.157c1.736-0.803,3.469-1.615,5.207-2.419c0.28-0.129,0.528-0.33,0.892-0.101
			c1.435,0.914,3.02,1.514,4.596,2.117c2.316,0.889,4.652,1.726,6.979,2.584c0.243,0.313,0.978,0.207,0.826,0.789
			c-0.137,0.536-0.741,0.338-1.147,0.439c-0.117,0.03-0.246,0.024-0.369,0.033c-0.348-0.046-0.695-0.07-1.024,0.102
			c-0.11,0.007-0.22,0.012-0.33,0.019c-0.605-0.233-1.06,0.311-1.621,0.322c-0.524,0.013-0.765,0.328-0.909,0.826
			c-0.339,1.179-0.28,2.396-0.41,3.596c-0.216,2.001-0.362,4.013-0.624,6.01c-0.204,1.544-0.248,3.091-0.294,4.643
			c0.008,0.2,0.014,0.401,0.019,0.603c-0.111,0.014-0.146,0.082-0.13,0.186c0,0.011,0.021,0.018,0.032,0.027
			c0.049-0.071,0.099-0.141,0.148-0.211C56.781,22.04,56.836,21.992,56.891,21.943z M47.816,26.006
			c0.023-2.652-0.635-4.652-1.925-6.314c-0.647-0.836-1.477-1.387-2.49-1.695c-2.138-0.65-4.113-0.117-6.081,0.717
			c-1.364,0.577-2.181,1.566-2.648,2.967c-0.832,2.488-0.607,4.95,0.009,7.428c0.232,0.931,0.667,1.729,1.331,2.402
			c0.132,0.135,0.292,0.363,0.428,0.354c0.977-0.063,1.736,0.561,2.612,0.8c1.378,0.374,2.83,0.537,4.095-0.126
			C45.926,31.084,47.923,28.987,47.816,26.006z M44.521,48.615c-0.749,0.443-1.493,0.828-2.324,1.003
			c-1.118,0.233-1.103,0.239-0.692,1.357c0.297,0.805,0.926,1.576,0.279,2.509c-0.086,0.126,0.01,0.391,0.04,0.587
			c0.172,1.131,0.64,2.165,1.034,3.22c0.225,0.599,0.263,1.138-0.092,1.724c-0.336,0.554-0.599,1.138-1.138,1.55
			c-0.313,0.237-0.614,0.591-0.499,1.019c0.113,0.425,0.569,0.434,0.927,0.485c1.337,0.204,2.678,0.216,4.007-0.049
			c0.88-0.173,0.919-0.313,0.413-1.052c-0.586-0.854-1.146-1.719-1.123-2.818c0.028-1.408,0.064-2.816,0.088-4.224
			c0.004-0.276,0.026-0.576-0.063-0.825C44.856,51.669,44.503,50.209,44.521,48.615z M35.6,48.325
			c-0.041,0.272-0.058,0.447-0.096,0.619c-0.371,1.657-0.428,3.36-0.697,5.036c-0.156,0.974,0.054,2.008,0.115,3.012
			c0.027,0.434-0.039,0.799-0.255,1.206c-0.413,0.777-0.924,1.488-1.368,2.245c-0.437,0.741-0.289,1.071,0.521,1.311
			c1.496,0.44,2.861-0.183,4.263-0.518c0.09-0.021,0.183-0.07,0.254-0.132c0.187-0.156,0.142-0.337,0.045-0.532
			c-0.073-0.146-0.188-0.448-0.225-0.408c-0.497,0.572-0.385-0.16-0.484-0.259c-0.205-0.204-0.293-0.522-0.472-0.76
			c-0.577-0.768-0.597-1.546-0.178-2.398c0.395-0.808,0.723-1.651,1.093-2.474c0.16-0.354,0.202-0.785-0.075-0.988
			c-0.709-0.521-0.334-1.044-0.101-1.573c0.201-0.46,0.378-0.951,0.678-1.339c0.523-0.679,0.122-0.761-0.426-0.845
			C37.247,49.383,36.358,49.093,35.6,48.325z M33.72,27.676c-0.845,1.092-0.847,1.093,0.093,1.872
			c0.164,0.138,0.241,0.379,0.516,0.434C34.125,29.212,33.925,28.457,33.72,27.676z M24.421,11.715
			c1.835,0.34,3.604,0.938,5.402,1.422C28.097,12.372,26.286,11.931,24.421,11.715z M30.711,13.422
			c-0.214-0.156-0.4-0.313-0.702-0.189C30.214,13.361,30.378,13.505,30.711,13.422z"/>
		<path fill-rule="evenodd" clip-rule="evenodd" d="M57.538,21.528c-0.063-0.06-0.125-0.119-0.186-0.179
			c0.37-1.228,1.323-1.986,2.249-2.73c2.247-1.803,4.867-2.906,7.499-3.977c1.706-0.694,3.512-1.145,5.182-1.889
			c2.029-0.903,4.1-1.032,6.229-0.969c0.546,0.015,1.072,0.016,1.604-0.12c0.216-0.056,0.367-0.143,0.415-0.369
			c0.05-0.232-0.132-0.313-0.274-0.396c-0.255-0.153-0.511-0.329-0.791-0.406c-0.276-0.075-0.31-0.236-0.251-0.44
			c0.05-0.18,0.205-0.262,0.41-0.234c5.249,0.699,10.534,0.137,15.796,0.47c1.636,0.105,3.284,0.077,4.898,0.438
			c0.505,0.112,0.994,0.267,1.353,0.702c-0.304,0.309-0.683,0.411-1.038,0.575c-2.769,1.274-5.677,2.118-8.588,2.971
			c-0.99,0.29-1.929,0.777-2.873,1.217c-0.229,0.106-0.376,0.386-0.574,0.575c-0.59,0.563-1.093,0.507-1.51-0.185
			c-0.266-0.439-0.503-0.9-0.531-1.492c0.467,0.162,0.539,0.581,0.685,0.887c0.315,0.655,0.656,0.726,1.138,0.197
			c0.134-0.146,0.269-0.29,0.404-0.436c2.587-1.945,5.748-2.43,8.681-3.493c0.697-0.252,1.4-0.485,2.093-0.802
			c-6.081-0.728-12.19-0.395-18.313-0.643c0.326,0.434,0.656,0.874,1.04,1.385c-0.999,0.076-1.919,0.148-2.839,0.216
			c-5.386,0.407-10.421,2.063-15.276,4.367c-1.212,0.575-2.414,1.168-3.49,1.987c-0.793,0.435-1.499,0.954-2.036,1.719
			C58.354,20.883,58.123,21.413,57.538,21.528z"/>
		<path fill-rule="evenodd" clip-rule="evenodd" d="M58.347,42.845c-0.596-4.296-0.304-8.504,1.453-12.503
			c0.928-2.113,2.407-3.87,3.93-5.574c1.268-1.418,2.555-2.819,3.804-4.253c0.863-0.987,1.942-1.659,3.085-2.22
			c3.902-1.92,8.039-3.069,12.308-3.777c0.932-0.153,1.859-0.336,2.789-0.51c0.217-0.04,0.461-0.166,0.55,0.165
			c0.097,0.36-0.195,0.333-0.402,0.376c-2.479,0.526-4.983,0.944-7.422,1.654c-3.063,0.892-6.093,1.879-8.837,3.582
			c-0.144,0.091-0.264,0.217-0.396,0.327c-0.111,0.074-0.225,0.146-0.337,0.22l-0.057,0.006l-0.023,0.057
			c-1.051,0.852-1.832,1.958-2.736,2.947c-1.275,1.392-2.607,2.745-3.599,4.38c-0.847,0.785-1.109,1.903-1.623,2.883
			c-1.282,2.446-1.647,5.166-2.169,7.81c-0.261,1.311,0.111,2.748,0.196,4.128c-0.012,0.074-0.028,0.147-0.036,0.222
			c-0.034,0.321,0.243,0.848-0.177,0.902C58.316,43.71,58.541,43.103,58.347,42.845z"/>
		<path fill-rule="evenodd" clip-rule="evenodd" fill="#DEA898" d="M56.728,22.088c-0.05,0.07-0.1,0.14-0.148,0.211
			c-0.012-0.01-0.032-0.017-0.032-0.027c-0.016-0.104,0.019-0.172,0.13-0.186C56.677,22.085,56.728,22.088,56.728,22.088z"/>
		<path fill-rule="evenodd" clip-rule="evenodd" fill="#DEA898" d="M44.491,10.452c0.022,0.041,0.024,0.083,0.005,0.125
			c-0.011-0.03-0.026-0.059-0.032-0.087C44.461,10.479,44.483,10.465,44.491,10.452z"/>
		<polygon fill-rule="evenodd" clip-rule="evenodd" fill="#DEA898" points="68.79,20.395 68.813,20.338 68.87,20.332 68.848,20.387 
					"/>
		<path fill-rule="evenodd" clip-rule="evenodd" fill="#EFEEEE" d="M36.9,17.554c0.055,0.144,0.108,0.287,0.162,0.43
			c-2.671,1.082-3.283,3.434-3.557,5.972c-0.075,0.697-0.117,1.426,0,2.109c0.123,0.694-0.119,1.047-0.657,1.371
			c-0.587,0.351-0.919,0.868-0.78,1.607c0.033,0.18,0.028,0.367,0.22,0.442c0.956,0.383,1.57,1.308,2.576,1.629
			c0.275,0.086,0.465,0.438,0.703,0.654c0.767,0.693,1.598,1.23,2.692,1.152c0.155-0.01,0.323,0.104,0.48,0.174
			c0.622,0.275,1.254,0.385,1.948,0.375c1.008-0.013,1.985,0.104,2.998-0.224c0.788-0.256,2.737,0.972,3.121,1.751
			c0.933,1.896,1.627,3.886,2.308,5.883c0.177,0.525,0.354,1.05,0.679,1.504c0.349,0.485,0.689,0.915,1.399,0.937
			c0.476,0.016,0.961,0.259,1.404,0.476c0.642,0.313,1.12,0.755,1.227,1.568c0.152,1.173,0.527,2.298,0.961,3.398
			c0.088,0.227,0.318,0.515-0.066,0.708c-0.353,0.177-0.522-0.126-0.654-0.333c-0.542-0.842-1.05-1.707-1.57-2.563
			c-0.091-0.15-0.178-0.303-0.278-0.446c-0.103-0.145-0.22-0.307-0.423-0.225c-0.17,0.072-0.248,0.234-0.259,0.426
			c-0.023,0.488,0.143,0.944,0.22,1.415c0.052,0.316,0.169,0.714-0.252,0.831c-0.462,0.128-0.401-0.336-0.479-0.59
			c-0.061-0.198-0.121-0.39-0.287-0.513c-0.732-0.547-1.029-1.32-1.185-2.189c-0.159-0.89-0.586-1.638-1.21-2.295
			c-1.019-1.07-2.056-2.12-3.003-3.262c-0.464-0.559-0.765-1.068-0.663-1.802c0.03-0.206,0.073-0.447-0.089-0.639
			c-0.246-0.043-0.215,0.156-0.251,0.285c-0.585,2.152-0.36,4.211,0.52,6.264c0.683,1.592,0.054,4.097-1.723,4.708
			c-2.05,0.703-4.122,0.673-6.16,0.024c-1.235-0.394-2.198-2.236-2.086-3.545c0.079-0.937,0.251-1.839,0.532-2.73
			c0.364-1.154-0.245-2.255-0.202-3.397c0.021-0.599-0.194-1.202-0.188-1.802c0.012-1.293-0.608-2.197-1.6-2.895
			c-1.685-1.186-2.977-2.776-4.341-4.29c-0.135-0.149-0.134-0.401,0-0.56c0.357-0.43,0.597-0.939,1.043-1.318
			c0.781-0.661,1.622-1.313,2.146-2.192c0.697-1.163,1.518-2.352,0.599-3.847c-0.386-0.626-0.806-1.402-0.71-2.107
			c0.111-0.818,1.182-0.672,1.731-1.13c0.441-0.363,0.96-0.629,1.43-0.962c0.426-0.3,0.874-0.46,1.396-0.354l0.019-0.023
			C36.694,17.583,36.82,17.542,36.9,17.554z"/>
		<path fill-rule="evenodd" clip-rule="evenodd" fill="#EFEEEE" d="M47.816,26.006c0.106,2.981-1.891,5.078-4.67,6.531
			c-1.265,0.663-2.717,0.5-4.095,0.126c-0.876-0.239-1.636-0.863-2.612-0.8c-0.136,0.01-0.296-0.219-0.428-0.354
			c-0.664-0.674-1.099-1.472-1.331-2.402c-0.616-2.478-0.841-4.939-0.009-7.428c0.468-1.4,1.284-2.39,2.648-2.967
			c1.968-0.834,3.943-1.367,6.081-0.717c1.014,0.309,1.843,0.859,2.49,1.695C47.182,21.354,47.84,23.354,47.816,26.006z"/>
		<path fill-rule="evenodd" clip-rule="evenodd" fill="#EFEEEE" d="M44.521,48.615c-0.018,1.594,0.336,3.054,0.856,4.485
			c0.09,0.249,0.067,0.549,0.063,0.825c-0.023,1.407-0.06,2.815-0.088,4.224c-0.022,1.1,0.537,1.965,1.123,2.818
			c0.506,0.738,0.467,0.879-0.413,1.052c-1.329,0.265-2.67,0.253-4.007,0.049c-0.357-0.052-0.813-0.061-0.927-0.485
			c-0.115-0.428,0.186-0.781,0.499-1.019c0.539-0.412,0.802-0.996,1.138-1.55c0.354-0.586,0.316-1.125,0.092-1.724
			c-0.395-1.055-0.862-2.089-1.034-3.22c-0.03-0.196-0.126-0.461-0.04-0.587c0.646-0.933,0.018-1.704-0.279-2.509
			c-0.41-1.118-0.426-1.124,0.692-1.357C43.027,49.443,43.771,49.059,44.521,48.615z"/>
		<path fill-rule="evenodd" clip-rule="evenodd" fill="#EFEEEE" d="M35.6,48.325c0.759,0.768,1.647,1.058,2.593,1.203
			c0.548,0.084,0.949,0.166,0.426,0.845c-0.3,0.388-0.477,0.879-0.678,1.339c-0.233,0.529-0.608,1.052,0.101,1.573
			c0.277,0.203,0.235,0.634,0.075,0.988c-0.37,0.822-0.698,1.666-1.093,2.474c-0.419,0.853-0.399,1.631,0.178,2.398
			c0.179,0.237,0.267,0.556,0.472,0.76c0.1,0.099-0.013,0.831,0.484,0.259c0.036-0.04,0.151,0.262,0.225,0.408
			c0.097,0.195,0.142,0.376-0.045,0.532c-0.071,0.062-0.164,0.111-0.254,0.132c-1.401,0.335-2.767,0.958-4.263,0.518
			c-0.811-0.239-0.958-0.569-0.521-1.311c0.444-0.757,0.955-1.468,1.368-2.245c0.216-0.407,0.282-0.772,0.255-1.206
			c-0.062-1.004-0.271-2.038-0.115-3.012c0.27-1.676,0.326-3.379,0.697-5.036C35.542,48.772,35.559,48.598,35.6,48.325z"/>
		<path fill-rule="evenodd" clip-rule="evenodd" fill="#EFEEEE" d="M33.72,27.676c0.205,0.781,0.405,1.536,0.608,2.306
			c-0.274-0.055-0.352-0.296-0.516-0.434C32.873,28.769,32.875,28.768,33.72,27.676z"/>
		<path fill-rule="evenodd" clip-rule="evenodd" fill="#EFEEEE" d="M16.114,14.841c0.034-0.046,0.069-0.092,0.105-0.137
			C16.184,14.749,16.148,14.795,16.114,14.841z"/>
		<path fill-rule="evenodd" clip-rule="evenodd" fill="#9C5F4C" d="M36.9,17.554c-0.08-0.012-0.206,0.029-0.158-0.139
			C36.854,17.39,36.885,17.464,36.9,17.554z"/>
	</g>
	<g>
		<path d="M71.262,55.765c0.078,0.27,0.011,0.709-0.199,1.317c-0.073,0.258-0.241,0.534-0.505,0.827
			c-0.205,0.242-0.409,0.488-0.612,0.737c-0.203,0.25-0.393,0.418-0.569,0.505c-0.017,0.004-0.033,0.009-0.051,0.014
			c0.018-0.005-0.04,0.113-0.174,0.352c-0.089,0.136-0.263,0.267-0.518,0.395l-0.007-0.025c-0.357,0.157-0.774,0.074-1.25-0.248
			c-0.135,0.039-0.339,0.029-0.611-0.03c-0.273-0.06-0.485-0.068-0.638-0.024c-0.152,0.043-0.38,0.044-0.685,0.003
			c-0.461-0.143-0.799-0.403-1.016-0.779c-0.073-0.125-0.193-0.292-0.362-0.5l-0.043-0.152c-0.085-0.231-0.038-0.532,0.14-0.903
			c0.178-0.369,0.251-0.643,0.22-0.816c0.106-0.141,0.168-0.372,0.186-0.697c0.017-0.323,0.09-0.55,0.218-0.678
			c-0.038-0.135-0.055-0.368-0.048-0.698c0.005-0.331-0.015-0.581-0.063-0.751c-0.043-0.151-0.109-0.288-0.198-0.409
			c0.015-0.077,0.013-0.148-0.007-0.217c-0.015-0.051-0.044-0.12-0.087-0.208c-0.044-0.088-0.072-0.158-0.087-0.209
			c-0.02-0.067-0.03-0.138-0.032-0.21c-0.038-0.135-0.077-0.27-0.115-0.405c-0.072-0.254-0.166-0.643-0.278-1.168
			c-0.113-0.525-0.205-0.915-0.277-1.168c-0.054-0.187-0.16-0.448-0.32-0.786s-0.259-0.574-0.298-0.711
			c-0.015-0.05-0.028-0.128-0.04-0.234c-0.028-0.102-0.05-0.178-0.064-0.229c-0.043-0.151-0.111-0.26-0.203-0.326
			c-0.094-0.137-0.288-0.338-0.582-0.602c-0.277-0.14-0.555-0.28-0.832-0.421c-0.336-0.215-0.534-0.433-0.597-0.652
			c-0.198-0.693-0.221-1.253-0.067-1.68c0.089-0.263,0.274-0.525,0.557-0.788c0.281-0.263,0.428-0.47,0.439-0.62
			c0.047-0.03,0.157-0.153,0.334-0.368c0.123-0.145,0.252-0.236,0.387-0.274c-0.03-0.302,0.045-0.553,0.226-0.75
			c0.068-0.02,0.177-0.069,0.328-0.148c0.151-0.08,0.269-0.131,0.353-0.155c0.119-0.033,0.225-0.05,0.316-0.049
			c0.091,0.002,0.239,0.073,0.444,0.216l0.015,0.051c0.01,0.034,0.042,0.085,0.098,0.15c0.055,0.066,0.079,0.119,0.072,0.158
			c0.205,0.015,0.411,0.032,0.619,0.056c0.207,0.023,0.375,0.1,0.503,0.228c0.403-0.06,0.796,0.085,1.179,0.432
			c0.382,0.349,0.631,0.725,0.746,1.131c0.097,0.338,0.094,0.648-0.008,0.935c-0.162,0.265-0.313,0.536-0.453,0.813
			c-0.008,0.167-0.076,0.405-0.207,0.717c0.028,0.229,0.032,0.466,0.01,0.71c0.149,0.269,0.275,0.579,0.376,0.934
			c0.067,0.236,0.145,0.59,0.232,1.059c0.089,0.468,0.163,0.812,0.226,1.031c0.12,0.423,0.305,1.037,0.553,1.844
			c0.247,0.807,0.43,1.413,0.545,1.819c0.135,0.473,0.321,0.776,0.561,0.908c0.072,0.127,0.238,0.261,0.499,0.406
			s0.421,0.291,0.481,0.438C70.771,55.191,71.186,55.493,71.262,55.765z M70.991,55.677l-0.008-0.025
			c-0.128-0.128-0.339-0.26-0.634-0.395c-0.555-0.281-1.133-0.354-1.733-0.221l-0.083-0.194c0.051-0.015,0.102-0.029,0.152-0.044
			c0.051-0.014,0.154-0.034,0.311-0.061c0.123-0.018,0.217-0.044,0.279-0.08c0.087,0.049,0.166,0.072,0.239,0.069
			c-0.062-0.147-0.235-0.217-0.525-0.207c-0.34,0.025-0.567-0.003-0.681-0.081c0.049-0.085,0.114-0.142,0.199-0.166
			c0.034-0.01,0.094-0.007,0.18,0.004c0.086,0.014,0.154,0.011,0.205-0.004c-0.029-0.102-0.134-0.115-0.315-0.047
			c-0.083-0.031-0.159-0.109-0.231-0.235c-0.003-0.071,0.021-0.115,0.072-0.13l0.116,0.022c-0.151-0.341-0.379-1.007-0.679-2.001
			c0.006-0.037,0.003-0.082-0.012-0.133c-0.01-0.034-0.031-0.077-0.064-0.133c-0.034-0.053-0.056-0.098-0.065-0.132
			c-0.015-0.051-0.013-0.106,0.008-0.167c-0.118-0.222-0.247-0.577-0.387-1.068c-0.082-0.287-0.183-0.72-0.302-1.298
			c-0.119-0.577-0.219-1.012-0.301-1.299c-0.101-0.355-0.221-0.677-0.357-0.968c-0.191,0.165-0.27,0.242-0.235,0.232
			c-0.068,0.02-0.14-0.005-0.214-0.076c0.099-0.101,0.218-0.262,0.355-0.484c0.004-0.239,0.013-0.342,0.021-0.308l-0.007-0.025
			l-0.354,0.293c-0.078-0.015-0.131-0.072-0.16-0.174c0.363-0.269,0.567-0.546,0.613-0.832c-0.063,0.035-0.133,0.096-0.209,0.182
			c-0.076,0.087-0.139,0.136-0.189,0.15c-0.102,0.028-0.191-0.028-0.268-0.17c1.063-0.505,1.458-1.229,1.188-2.176
			c-0.14-0.489-0.459-0.873-0.958-1.152c-0.113-0.076-0.286-0.138-0.518-0.181c-0.027,0.227-0.31,0.518-0.849,0.871
			c-0.094-0.01-0.145-0.059-0.151-0.148l-0.008-0.025c0.205-0.113,0.458-0.349,0.758-0.709c-0.213-0.231-0.506-0.331-0.88-0.297
			c0.061,0.275-0.04,0.467-0.301,0.578c-0.069-0.053-0.106-0.089-0.112-0.105c-0.023-0.084,0.024-0.171,0.145-0.261l-0.047-0.26
			c-0.125-0.439-0.39-0.602-0.795-0.486c-0.559,0.159-0.768,0.483-0.628,0.974c0.02,0.067,0.137,0.189,0.351,0.366
			c-0.031,0.082-0.072,0.13-0.123,0.145s-0.125,0.009-0.225-0.019c-0.021-0.012-0.104-0.143-0.25-0.395
			c-0.096,0.046-0.18,0.106-0.249,0.182l0.024-0.008c0.018-0.005,0.06,0.047,0.127,0.155l0.102-0.028
			c0.024,0.084-0.005,0.175-0.087,0.271l-0.047-0.069c-0.067,0.02-0.128,0.019-0.179-0.004c-0.053-0.021-0.082-0.077-0.089-0.167
			c-0.136,0.168-0.241,0.344-0.315,0.529c0.067,0.108,0.258,0.154,0.573,0.138c0.315-0.016,0.491,0.007,0.526,0.069
			c0.003,0.072-0.047,0.123-0.148,0.152c-0.236,0.067-0.295,0.084-0.177,0.051c-0.082-0.032-0.245-0.046-0.491-0.039
			c-0.244,0.006-0.412-0.052-0.501-0.172c-0.382,0.327-0.598,0.646-0.647,0.951c-0.049,0.307-0.004,0.704,0.135,1.194
			c0.159,0.559,0.464,0.827,0.916,0.809c0.13,0.073,0.33,0.103,0.601,0.089c0.271-0.012,0.455-0.005,0.555,0.021
			c0.033,0.118,0.007,0.189-0.077,0.213c-0.033,0.01-0.084,0.011-0.15,0.002s-0.116-0.008-0.149,0.001l-0.087,0.08
			c-0.054-0.058-0.131-0.071-0.232-0.043c0.075,0.069,0.203,0.12,0.386,0.15c0.182,0.03,0.305,0.092,0.368,0.184
			c0.066-0.02,0.178-0.015,0.332,0.015l0.015,0.051c0.02,0.067,0.011,0.134-0.025,0.198c-0.196,0.021-0.364,0.004-0.507-0.047
			c0.12,0.167,0.26,0.237,0.416,0.21c0.067,0.108,0.106,0.18,0.116,0.213c0.034,0.119,0.007,0.19-0.077,0.214
			c-0.051,0.015-0.101,0.001-0.148-0.04c0.01,0.034,0.016,0.088,0.019,0.16c0.173,0.353,0.304,0.681,0.39,0.984
			c0.006,0.018,0.026,0.043,0.064,0.079c0.037,0.034,0.065,0.058,0.088,0.069l-0.021,0.116c0.066,0.108,0.123,0.239,0.166,0.392
			c0.087,0.305,0.193,0.764,0.323,1.374c0.128,0.612,0.235,1.069,0.322,1.374c0.125,0.439,0.199,0.671,0.225,0.691
			c0.023,0.021,0.06,0.051,0.108,0.092l-0.004,0.083c0.04,0.081,0.076,0.171,0.104,0.272c0.058,0.202,0.09,0.477,0.097,0.822
			c0.033,0.501,0.051,0.789,0.055,0.861c0.002,0.072-0.044,0.172-0.135,0.299c-0.092,0.126-0.137,0.227-0.135,0.298
			c0.067-0.02,0.11-0.031,0.127-0.036c0.084-0.024,0.139,0.006,0.163,0.091l-0.011,0.058l-0.055,0.098
			c-0.21,0.098-0.344,0.299-0.402,0.608c0.164-0.192,0.32-0.319,0.467-0.38c0.034-0.01,0.089,0.021,0.164,0.091
			c-0.124,0.145-0.319,0.355-0.588,0.634c-0.377,0.473-0.513,0.895-0.406,1.266c0.053,0.188,0.187,0.367,0.401,0.545
			c0.041,0.079,0.26,0.272,0.658,0.579c0.157,0.103,0.337,0.142,0.542,0.119c0.203-0.02,0.354-0.019,0.453,0.008l0.019-0.032
			c-0.036-0.062-0.059-0.11-0.068-0.146c-0.048-0.168,0.015-0.332,0.188-0.491c0.174-0.16,0.334-0.305,0.479-0.438
			c0.063-0.036,0.141-0.086,0.232-0.148c0.091-0.063,0.171-0.104,0.238-0.123c0.085-0.024,0.171-0.012,0.257,0.037
			c0,0.127-0.136,0.229-0.405,0.307c-0.065,0.092-0.192,0.191-0.381,0.3c0.15,0.013,0.224,0.047,0.221,0.103l0.032,0.018
			c0.015,0.051-0.042,0.141-0.17,0.268c-0.089,0.008-0.146-0.031-0.17-0.115c-0.023-0.084-0.019-0.16,0.019-0.225l-0.094,0.054
			c-0.141,0.278-0.203,0.441-0.189,0.492l0.047,0.068l0.721,0.124c0.055-0.125,0.172-0.295,0.348-0.511
			c0.095,0.012,0.148,0.04,0.163,0.091s-0.014,0.114-0.083,0.188c-0.07,0.075-0.109,0.132-0.117,0.171l0.225,0.209
			c0.097,0.083,0.369,0.106,0.815,0.07c0.133-0.11,0.213-0.179,0.242-0.206c0.082-0.097,0.117-0.198,0.105-0.304
			c0.069-0.075,0.098-0.138,0.083-0.188c-0.014-0.051-0.057-0.107-0.13-0.169c-0.072-0.061-0.116-0.118-0.13-0.169
			c-0.024-0.084,0.021-0.179,0.138-0.285l0.195,0.108l-0.036,0.065c0.039,0.008,0.105,0.145,0.199,0.409l0.025-0.007
			c0.128-0.128,0.262-0.267,0.402-0.417c0.139-0.149,0.207-0.295,0.203-0.44c-0.114-0.077-0.221-0.102-0.322-0.073
			c-0.075-0.069-0.183-0.094-0.322-0.072c-0.14,0.022-0.256,0-0.348-0.066l-0.019-0.158c0.354-0.046,0.587-0.058,0.703-0.036
			c0.26,0.019,0.462,0.115,0.604,0.294c0.396-0.277,0.633-0.729,0.711-1.354c0.08-0.04,0.09-0.099,0.033-0.174
			C71.059,56.17,71.063,55.931,70.991,55.677z M63.533,41.327c-0.002,0.184-0.113,0.308-0.333,0.37
			c-0.253,0.072-0.397,0.049-0.431-0.069c-0.015-0.051,0.023-0.107,0.116-0.171c0.064,0.036,0.139,0.043,0.224,0.019
			c0.085-0.023,0.179-0.078,0.283-0.163L63.533,41.327z M64.039,42.719c0.01,0.034,0.016,0.087,0.019,0.159
			c-0.188,0.108-0.343,0.18-0.46,0.214c-0.118,0.033-0.245,0.042-0.377,0.024l-0.119-0.131l0.152-0.043
			c0.101-0.029,0.195-0.083,0.282-0.162c0.048,0.041,0.098,0.054,0.148,0.039c0.033-0.009,0.076-0.035,0.128-0.077
			s0.096-0.067,0.129-0.077C63.992,42.65,64.025,42.668,64.039,42.719z M63.496,42.353c-0.036,0.065-0.079,0.105-0.13,0.119
			l-0.076,0.022c-0.106,0.012-0.161,0.009-0.167-0.008l-0.014-0.051c-0.029-0.102,0.041-0.177,0.21-0.225l0.148,0.04L63.496,42.353z
			 M63.623,46.263c-0.002,0.056-0.019,0.098-0.047,0.123l-0.402,0.032c-0.012-0.104,0.099-0.2,0.33-0.284
			c0.01,0.033,0.03,0.059,0.063,0.076C63.6,46.229,63.618,46.246,63.623,46.263z M64.854,42.021
			c-0.029,0.026-0.038,0.094-0.025,0.199c-0.155,0.1-0.224,0.146-0.207,0.142c-0.033,0.01-0.074-0.006-0.123-0.047l-0.04-0.044
			l0.029-0.091c0.024-0.044,0.04-0.084,0.047-0.123l0.084,0.004l-0.008-0.025c-0.023-0.085,0.016-0.142,0.117-0.171
			C64.711,41.87,64.753,41.922,64.854,42.021z M65.669,58.836c0.015,0.051,0.004,0.109-0.032,0.175l-0.025,0.007
			c-0.068,0.02-0.123-0.015-0.167-0.104c-0.043-0.088-0.075-0.138-0.098-0.149c-0.11-0.005-0.195-0.078-0.253-0.217
			c-0.059-0.139-0.112-0.265-0.163-0.378c-0.048-0.169-0.062-0.412-0.042-0.728l0.082,0.004l-0.007-0.025l0.051-0.015
			c0.038,0.264,0.082,0.479,0.13,0.648c0.082,0.287,0.205,0.462,0.369,0.524c0.01,0.035,0.035,0.077,0.078,0.129
			C65.634,58.76,65.66,58.803,65.669,58.836z M65.377,56.946c0.015,0.051-0.014,0.096-0.085,0.134s-0.1,0.083-0.085,0.134
			c-0.094-0.01-0.148-0.04-0.163-0.091c-0.01-0.033,0.004-0.083,0.04-0.148c0.037-0.065,0.053-0.105,0.047-0.122l0.076-0.021
			C65.287,56.789,65.344,56.828,65.377,56.946z M65.394,54.886c0.005,0.018-0.015,0.078-0.058,0.182
			c-0.167-0.008-0.258-0.037-0.272-0.088l-0.021-0.075c0.045-0.032,0.076-0.049,0.094-0.054l0.076-0.021
			C65.314,54.8,65.375,54.818,65.394,54.886z M65.579,45.625c0.015,0.05-0.079,0.141-0.279,0.271
			c-0.077-0.014-0.129-0.036-0.155-0.065c0.074-0.058,0.172-0.131,0.293-0.22C65.506,45.591,65.553,45.596,65.579,45.625z
			 M65.886,55.842c-0.005-0.017-0.053,0.042-0.142,0.178l-0.076,0.021c-0.102,0.028-0.162,0.01-0.182-0.059
			c-0.004-0.017-0.004-0.044,0.004-0.082l0.232-0.148l0.058,0.011l0.051-0.015C65.841,55.782,65.858,55.813,65.886,55.842z
			 M66.306,43.169c0.072,0.254,0.077,0.5,0.018,0.735c-0.095-0.009-0.153-0.057-0.178-0.141c-0.015-0.051-0.013-0.106,0.008-0.167
			c0-0.128-0.019-0.259-0.058-0.396c-0.067-0.235-0.188-0.402-0.361-0.499l-0.058-0.203l0.126-0.035
			C66.046,42.612,66.215,42.849,66.306,43.169z M66.366,44.44c0.015,0.051-0.003,0.135-0.053,0.248
			c-0.05,0.115-0.1,0.179-0.15,0.193c-0.067,0.02-0.111-0.004-0.131-0.072c0.013-0.149,0.084-0.316,0.215-0.499
			C66.312,44.347,66.352,44.39,66.366,44.44z M66.598,48.623l0.195,0.685c0.303,1.063,0.452,1.717,0.447,1.955l-0.131,0.119
			l-0.185-0.55c-0.137-0.673-0.396-1.679-0.775-3.013l0.228,0.127C66.49,48.279,66.564,48.504,66.598,48.623z M67.608,52.172
			c0.01,0.034,0.019,0.16,0.025,0.378c-0.013,0.021-0.036,0.037-0.069,0.047s-0.087-0.113-0.159-0.367
			c-0.019-0.066-0.063-0.127-0.134-0.181l0.203-0.058C67.545,52.045,67.59,52.104,67.608,52.172z M68.714,59.422
			c-0.136,0.038-0.334,0.114-0.595,0.224l-0.014-0.051c-0.056-0.13-0.016-0.214,0.119-0.252
			C68.428,59.284,68.59,59.312,68.714,59.422z M68.543,54.976c0.011,0.034,0.006,0.08-0.014,0.141l-0.203,0.058
			c-0.068,0.02-0.116-0.021-0.145-0.122c-0.02-0.067,0.014-0.113,0.098-0.138l0.051-0.015C68.448,54.866,68.52,54.891,68.543,54.976
			z M68.754,58.506c-0.072,0.13-0.176,0.215-0.311,0.253c-0.068,0.02-0.149,0.025-0.243,0.015c0-0.127,0.051-0.207,0.152-0.235
			c0.033-0.01,0.079-0.013,0.134-0.011c0.051-0.015,0.093-0.026,0.127-0.036l0.039,0.043L68.754,58.506z M68.729,57.746l0.051,0.177
			l-0.127,0.036l-0.127,0.036c-0.067,0.02-0.138,0.03-0.21,0.032c-0.004-0.016-0.012-0.041-0.021-0.075
			c0.005,0.017,0.035-0.037,0.092-0.163C68.707,57.698,68.821,57.684,68.729,57.746z M69.417,58.043
			c0.039,0.136-0.004,0.212-0.127,0.228l-0.025,0.008c-0.017,0.004-0.068-0.016-0.155-0.064c0-0.128,0.043-0.205,0.127-0.229
			c0.017-0.005,0.038-0.011,0.063-0.019c0.024-0.007,0.046-0.013,0.063-0.018C69.39,57.979,69.408,58.01,69.417,58.043z"/>
		<path d="M79.043,56.234c-0.41-0.157-1.036-0.399-1.879-0.727c-0.104-0.042-0.17-0.115-0.198-0.217
			c-0.02-0.067,0.123-0.418,0.426-1.054c0.304-0.635,0.419-1.207,0.348-1.717c-0.039-0.262-0.238-1.027-0.599-2.295
			c-0.602-2.112-1.074-3.705-1.416-4.777c-0.151-0.467-0.389-0.657-0.709-0.566c-0.541,0.154-1.01,0.563-1.406,1.223l-0.051,0.015
			c-0.186,0.054-0.305-0.013-0.358-0.198c-0.019-0.068-0.017-0.124,0.008-0.167c1.711-2.716,2.608-4.087,2.694-4.111l0.254-0.071
			c0.583,0.381,1.167,0.763,1.751,1.146c0.888,0.552,1.509,0.775,1.863,0.674c0.625-0.178,1.334-0.835,2.124-1.974
			c0.126-0.329,0.328-0.807,0.606-1.435c0.056-0.125,0.134-0.202,0.235-0.23c0.094,0.009,0.253,0.119,0.478,0.329
			c0.289,0.247,0.447,0.385,0.474,0.413c0.541,0.358,1.071,0.619,1.593,0.78c0.172,0.024,0.354,0.059,0.551,0.104
			c0.194,0.045,0.317,0.152,0.365,0.32l-0.04,0.148c-0.508,0.529-0.798,0.955-0.87,1.276s-0.003,0.854,0.209,1.599
			s0.522,1.806,0.935,3.188c0.464,1.566,0.776,2.63,0.936,3.188c0.115,0.405,0.493,0.517,1.136,0.334
			c0.382-0.456,0.615-0.695,0.7-0.72c0.135-0.039,0.227,0.026,0.274,0.195c0.034,0.119,0.038,0.199,0.015,0.243l-1.009,1.656
			c-0.217,0.264-0.501,0.709-0.852,1.339c-0.054,0.198-0.175,0.479-0.363,0.844l-0.101,0.028c-0.17,0.049-0.334,0.018-0.493-0.093
			c-0.159-0.108-0.309-0.217-0.448-0.324c-0.763-0.495-1.575-0.912-2.439-1.251c-0.044-0.023-0.074-0.069-0.094-0.137
			c-0.02-0.068,0.127-0.354,0.442-0.854c0.314-0.501,0.394-1.021,0.24-1.563c-0.953-3.347-1.521-5.276-1.704-5.79
			c-0.113-0.334-0.539-0.609-1.277-0.829c-0.738-0.219-1.285-0.278-1.641-0.177c-0.186,0.053-0.449,0.246-0.793,0.582
			c-0.343,0.335-0.502,0.581-0.475,0.739c0.026,0.155,0.236,0.928,0.631,2.313l1.387,4.867c0.067,0.237,0.388,0.416,0.961,0.535
			c0.573,0.12,0.881,0.257,0.925,0.409c0.01,0.033-0.013,0.086-0.065,0.155c-0.232,0.212-0.527,0.588-0.885,1.128l-0.639,1.607
			c-0.044,0.104-0.088,0.239-0.131,0.407c-0.044,0.167-0.105,0.272-0.185,0.313c-0.072,0.002-0.321-0.119-0.747-0.363
			C79.311,56.451,79.079,56.297,79.043,56.234z"/>
		<path d="M94.235,48.563c-0.671-2.358-0.082-5.296,2.022-5.895c1.065-0.304,2.094,0.226,2.23,0.707
			c0.087,0.305-0.095,0.631-0.398,0.718c-0.178,0.051-0.409,0.007-0.562-0.143c-0.185-0.167-0.565-0.251-0.945-0.142
			c-1.319,0.375-1.767,2.559-1.231,4.436c0.491,1.724,1.515,2.722,2.555,2.426c2.13-0.607,1.902-5.258,0.639-9.888
			c-2.289,0.049-4.385-1.054-4.905-2.88c-0.317-1.115,0.104-2.524,1.397-2.893c0.507-0.145,1.098-0.094,1.651,0.215
			c1.68,0.893,2.618,3.806,2.745,4.345c0.293-0.028,0.638-0.071,0.975-0.141c0.318-0.035,0.539,0.066,0.626,0.371
			c0.079,0.278-0.128,0.611-0.305,0.662c-0.305,0.087-0.642,0.155-1.019,0.18c0.874,3.261,1.432,7.434,0.199,9.649
			c-0.399,0.717-0.973,1.208-1.732,1.425C96.605,52.164,94.929,50.997,94.235,48.563z M94.773,37.553
			c0.361,1.269,1.842,2.135,3.479,2.107c-0.866-3.043-2.303-3.758-2.963-3.57C94.706,36.257,94.629,37.046,94.773,37.553z"/>
		<path d="M119.404,40.769l-10.411,2.965c0.452,0.585,1.072,0.985,1.86,1.196c0.787,0.214,1.754,0.156,2.901-0.171
			c0.941-0.268,2.134-0.824,3.579-1.674c0.596-0.349,1.019-0.558,1.266-0.628c0.339-0.097,0.657-0.059,0.957,0.116
			c0.299,0.173,0.5,0.441,0.604,0.805c0.094,0.329,0.051,0.646-0.131,0.947c-0.244,0.398-0.966,0.919-2.166,1.56
			c-1.2,0.642-2.391,1.13-3.57,1.466c-2.031,0.578-3.818,0.466-5.361-0.334c-1.544-0.8-2.555-2.039-3.032-3.713
			c-0.508-1.783-0.263-3.421,0.735-4.914s2.355-2.484,4.072-2.974c1.031-0.294,2.029-0.381,2.996-0.264
			c0.966,0.117,1.719,0.326,2.26,0.628c0.768,0.441,1.474,1.057,2.117,1.847c0.443,0.551,0.782,1.24,1.018,2.064L119.404,40.769z
			 M115.871,39.031c-0.595-0.615-1.257-1.014-1.985-1.193c-0.729-0.181-1.528-0.148-2.395,0.099
			c-0.858,0.244-1.55,0.636-2.074,1.174c-0.525,0.537-0.883,1.226-1.072,2.064L115.871,39.031z"/>
		<path d="M141.081,41.204c-1.046,0.883-2.32,1.539-3.825,1.967c-3.127,0.891-6.167,0.449-9.119-1.321
			c-0.444-0.276-0.979-0.966-1.604-2.066c-0.534-0.98-0.896-1.8-1.083-2.459c-0.274-0.964-0.432-1.868-0.472-2.717
			c-0.055-1.281,0.311-2.61,1.098-3.985s1.753-2.3,2.898-2.771c1.586-0.653,2.92-1.133,4.002-1.441
			c0.219-0.063,0.405-0.115,0.558-0.159c1.424,0.382,2.179,0.724,2.266,1.027c0.154,0.541,0.308,1.21,0.462,2.007
			c0.201,1.093,0.241,1.682,0.117,1.761c-0.123,0.081-0.266,0.172-0.429,0.273s-0.749,0.497-1.759,1.188
			c-0.682,0.432-1.203,0.908-1.565,1.431c-0.185,0.255-0.329,0.611-0.436,1.071s-0.119,0.833-0.037,1.12
			c0.313,1.099,0.801,1.817,1.465,2.159l0.151-0.044c0.693-0.197,1.391-0.441,2.094-0.733c0.113-0.049,0.336-0.167,0.666-0.354
			c0.285-0.153,0.513-0.256,0.682-0.304c0.186-0.053,0.672,0.161,1.457,0.642c0.784,0.479,1.232,0.813,1.341,1.003
			C140.244,38.939,140.603,39.843,141.081,41.204z M138.345,40.257c-0.27-0.563-0.63-1.409-1.08-2.543
			c-0.81,0.56-2.22,1.126-4.23,1.698c-0.474,0.135-1.117-0.038-1.93-0.52c-0.813-0.481-1.359-0.955-1.639-1.424
			c-0.245-0.406-0.429-0.829-0.554-1.269c-0.408-1.437,0.027-2.757,1.312-3.964c0.917-0.882,2.202-1.632,3.854-2.248
			c-0.14-0.619-0.32-1.544-0.544-2.777l-0.861,0.245c-1.725,0.491-3.017,1.023-3.876,1.597c-1.249,0.813-2.063,1.902-2.439,3.271
			c-0.1,0.23-0.223,0.567-0.371,1.011c-0.203,0.954-0.093,2.174,0.33,3.661c0.159,0.558,0.51,1.308,1.052,2.249
			c0.588,1.039,1.065,1.688,1.433,1.949c0.88,0.591,2.011,0.935,3.392,1.035c1.23,0.088,2.412-0.029,3.545-0.352
			c0.203-0.058,0.637-0.3,1.301-0.727C137.639,40.76,138.074,40.461,138.345,40.257z M132.761,32.584
			c-0.507-0.111-0.988-0.104-1.444,0.026c-0.677,0.192-1.146,0.614-1.408,1.265s-0.295,1.321-0.098,2.015
			c0.174,0.608,0.471,1.108,0.894,1.501c0.25,0.238,0.736,0.566,1.458,0.981c-0.332-0.398-0.603-0.961-0.81-1.688
			C130.948,35.264,131.417,33.897,132.761,32.584z M135.072,27.896c-0.029-0.102-0.104-0.19-0.221-0.267
			c-0.118-0.076-0.231-0.153-0.341-0.232c0.156,0.614,0.357,1.535,0.603,2.762c0.206,0.051,0.388,0.137,0.544,0.257
			c-0.081-0.288-0.18-0.712-0.296-1.272C135.245,28.582,135.148,28.167,135.072,27.896z M139.895,40.31
			c-0.154-0.412-0.316-0.823-0.487-1.231c-0.131-0.328-0.497-0.654-1.101-0.975l0.116,0.404
			C138.74,39.623,139.23,40.224,139.895,40.31z"/>
		<path d="M145.362,18.656c-0.485,0.284-0.847,0.716-1.084,1.295c-0.15,0.5-0.294,0.987-0.433,1.466
			c-0.689-1.01-1.611-1.487-2.765-1.433c0.418-0.393,0.753-0.854,1.004-1.382c0.282-0.61,0.368-1.147,0.255-1.609
			c0.184,0.003,0.388,0.109,0.611,0.32c0.34,0.36,0.566,0.579,0.68,0.656C144.269,18.409,144.846,18.639,145.362,18.656z
			 M145.949,21.969c0.021,0.396,0.063,0.988,0.121,1.774c0.151,1.108,0.504,2.635,1.058,4.578c0.222,0.777,0.658,2.088,1.312,3.93
			c0.15,0.469,0.511,1.188,1.08,2.16c0.533,0.907,0.869,1.606,1.008,2.097c0.044,0.152-0.179,0.283-0.668,0.396
			c-0.488,0.111-1.101,0.291-1.834,0.537c-0.898,0.311-1.492,0.506-1.778,0.587c-0.067,0.02-0.191-0.026-0.37-0.141
			c0.245-2.993-0.014-5.825-0.774-8.495c-0.679-2.383-1.746-4.591-3.202-6.626c0.234-0.268,0.858-0.546,1.873-0.835
			c0.811-0.23,1.225-0.349,1.242-0.354C145.604,21.464,145.916,21.595,145.949,21.969z M143.634,19.806
			c0.19-0.164,0.248-0.382,0.171-0.652c-0.063-0.22-0.191-0.398-0.385-0.534c-0.195-0.136-0.367-0.146-0.517-0.031
			c-0.241,0.179-0.319,0.42-0.232,0.725c0.063,0.22,0.192,0.388,0.391,0.505S143.45,19.931,143.634,19.806z"/>
		<path d="M153.076,25.147c-0.023-0.469,0.293-0.797,0.953-0.984l9.051-2.577l0.188,0.659L153.076,25.147z M153.49,26.7
			l-0.267-0.937l10.217-2.909l0.267,0.937L153.49,26.7z M153.938,28.272l-0.317-1.115l2.864-0.815l0.317,1.115L153.938,28.272z
			 M154.379,29.818l-0.361-1.267l2.865-0.815l0.36,1.267L154.379,29.818z M157.554,30.094l-1.698,0.483
			c-0.778,0.222-1.25,0.036-1.419-0.556l-0.015-0.051l2.865-0.815L157.554,30.094z M165.83,31.245
			c0.174,0.608-0.087,1.012-0.779,1.209l-9.178,2.613l-0.621-2.181l7.353-2.094l-0.563-1.978l-3.828,1.091l-0.267-0.938l6.692-1.906
			L165.83,31.245z M163.163,26.112c0.354-0.101,0.655-0.086,0.903,0.044c0.247,0.131,0.411,0.34,0.493,0.627l0.036,0.126
			l-6.693,1.906l-0.317-1.114L163.163,26.112z"/>
		<path d="M170.962,9.104l0.744,2.611l-5.149,1.467l-0.744-2.611L170.962,9.104z M171.992,12.719l4.678,16.427l-5.15,1.467
			l-4.678-16.427L171.992,12.719z"/>
		<path d="M177.663,18.156c-0.01-0.033-0.019-0.065-0.028-0.1c0.008-0.038,0.012-0.084,0.015-0.138
			c0.003-0.055,0.019-0.095,0.046-0.12c0.023-0.043,0.08-0.067,0.166-0.074c0.066-0.019,0.125,0.001,0.177,0.057
			c0.019,0.066,0.031,0.169,0.036,0.312c0.021,0.137,0.055,0.226,0.102,0.265c0.038,0.007,0.082,0.004,0.131-0.01
			c0.028-0.026,0.059-0.044,0.092-0.054s0.066-0.019,0.1-0.028c0.037,0.007,0.068-0.01,0.092-0.053
			c0.023-0.042,0.028-0.088,0.014-0.138c-0.002-0.07,0-0.124,0.008-0.163c0.012-0.02,0.023-0.042,0.035-0.063
			c0.007-0.038,0-0.063-0.021-0.074c-0.052-0.056-0.118-0.135-0.201-0.237c-0.082-0.1-0.092-0.196-0.027-0.286
			c0.039-0.048,0.109-0.084,0.208-0.112c0.087-0.008,0.151,0.027,0.19,0.105c-0.011,0.021-0.015,0.041-0.01,0.058
			c-0.012,0.02-0.007,0.037,0.014,0.049l0.024-0.008l-0.007-0.024c0.029-0.024,0.047-0.058,0.053-0.095
			c0.008-0.038,0.018-0.068,0.029-0.089c0.002-0.054,0.023-0.104,0.063-0.152c0.035-0.063,0.057-0.113,0.063-0.151
			c-0.014-0.051-0.034-0.088-0.06-0.117c-0.047-0.04-0.084-0.073-0.11-0.103c-0.056-0.072-0.114-0.154-0.176-0.244
			c-0.078-0.085-0.139-0.175-0.184-0.27c-0.035-0.061-0.052-0.118-0.049-0.172c-0.003-0.071,0.037-0.118,0.119-0.142
			c0.111-0.05,0.2-0.021,0.266,0.085c0.066,0.106,0.127,0.196,0.184,0.269c0.031,0.045,0.059,0.082,0.085,0.109
			c0.047,0.04,0.086,0.083,0.116,0.128c0.026,0.028,0.047,0.067,0.061,0.117c0.03,0.044,0.057,0.073,0.077,0.084
			c0.038,0.009,0.073,0.006,0.106-0.004c0.045-0.029,0.081-0.058,0.11-0.084c0.016-0.005,0.06-0.007,0.13-0.011
			c0.05-0.014,0.078-0.039,0.085-0.078c-0.022-0.081-0.054-0.189-0.091-0.321c-0.06-0.145-0.025-0.242,0.102-0.297
			c0.033-0.01,0.053-0.006,0.057,0.01c0.017-0.005,0.036,0,0.057,0.012c0.08,0.03,0.13,0.079,0.148,0.145
			c0.015,0.05,0.033,0.116,0.057,0.198c-0.002,0.055,0.012,0.104,0.042,0.148c0.026,0.029,0.066,0.045,0.12,0.046
			c0.033-0.009,0.081-0.03,0.142-0.066c0.041-0.047,0.064-0.089,0.071-0.127c0.002-0.055-0.006-0.114-0.024-0.181
			c-0.019-0.065-0.035-0.124-0.05-0.173c-0.007-0.087-0.003-0.168,0.011-0.245c0.015-0.075,0.028-0.149,0.043-0.226
			c-0.003-0.071,0.021-0.148,0.067-0.232c0.052-0.068,0.113-0.104,0.184-0.106c0.088-0.007,0.141,0.022,0.16,0.089
			c0.029,0.044,0.038,0.104,0.023,0.18c-0.006,0.038-0.014,0.076-0.021,0.113c-0.024,0.042-0.04,0.083-0.047,0.12
			c-0.002,0.054-0.002,0.117,0.001,0.188c0.002,0.071,0.002,0.133,0,0.187c0.009,0.033,0.005,0.053-0.012,0.058
			c0.005,0.016,0.02,0.039,0.047,0.066c0.025,0.029,0.063,0.036,0.112,0.021c0.065-0.019,0.118-0.023,0.156-0.018
			c0.037,0.008,0.091,0.01,0.162,0.008c0.07-0.002,0.12-0.017,0.148-0.042c0.06-0.106,0.12-0.239,0.181-0.4
			c0.066-0.144,0.172-0.209,0.318-0.197c0.168,0.024,0.219,0.107,0.152,0.25c-0.083,0.15-0.15,0.258-0.202,0.326
			c-0.012,0.022-0.023,0.044-0.036,0.063c-0.006,0.038-0.008,0.065-0.003,0.081c0.01,0.033,0.033,0.055,0.07,0.061
			c0.059,0.02,0.107,0.033,0.146,0.039c0.021,0.012,0.045,0.031,0.07,0.06c0.043,0.025,0.072,0.034,0.088,0.029
			c0.051-0.015,0.087-0.042,0.11-0.085c0.04-0.048,0.063-0.089,0.071-0.127c0.066-0.144,0.104-0.261,0.113-0.354
			c0.014-0.074,0.027-0.186,0.039-0.332c0.019-0.06,0.055-0.122,0.106-0.19c0.04-0.047,0.101-0.056,0.18-0.025
			c0.043,0.025,0.079,0.058,0.11,0.103c0.014,0.05,0.019,0.102,0.017,0.156c-0.005,0.108-0.019,0.246-0.042,0.414
			c-0.037,0.188-0.086,0.328-0.149,0.417c-0.04,0.048-0.086,0.105-0.138,0.173c-0.053,0.068-0.053,0.132,0,0.188
			c0.025,0.029,0.075,0.077,0.148,0.146c0.072,0.069,0.119,0.108,0.142,0.12c0.032-0.009,0.05-0.041,0.053-0.095
			c0.007-0.038,0.017-0.068,0.028-0.089c0.023-0.042,0.049-0.077,0.078-0.104c0.027-0.024,0.046-0.056,0.053-0.095
			c-0.008-0.087-0.006-0.176,0.004-0.269c0.009-0.092,0.065-0.144,0.169-0.156c0.017-0.004,0.033-0.009,0.05-0.014
			c0.021,0.012,0.043,0.024,0.063,0.035c0.048,0.041,0.081,0.095,0.1,0.16s0.028,0.135,0.031,0.204
			c-0.009,0.094-0.038,0.182-0.085,0.267c-0.047,0.084-0.095,0.169-0.141,0.254c-0.008,0.037-0.007,0.072,0.003,0.105
			c0.009,0.033,0.01,0.068,0.003,0.106s-0.018,0.067-0.027,0.089c-0.014,0.021-0.016,0.039-0.012,0.057
			c0.02,0.066,0.046,0.129,0.082,0.19c0.034,0.062,0.07,0.123,0.105,0.185c0.005,0.017,0.014,0.05,0.027,0.099
			c0.01,0.033,0.023,0.047,0.039,0.042c0.045-0.03,0.102-0.082,0.17-0.154c0.064-0.09,0.141-0.104,0.23-0.039
			c0.125,0.125,0.131,0.239,0.017,0.342c-0.113,0.104-0.201,0.201-0.265,0.29c-0.008,0.038-0.006,0.073,0.004,0.106
			c0.025,0.029,0.043,0.06,0.053,0.092c0.034,0.063,0.051,0.119,0.049,0.173c0.002,0.072,0.011,0.132,0.025,0.181
			c0.011,0.104,0.012,0.202,0.003,0.294c-0.011,0.093-0.027,0.186-0.054,0.282c-0.02,0.06-0.038,0.119-0.057,0.177
			c-0.02,0.06-0.03,0.116-0.032,0.17c0.003,0.071,0.019,0.129,0.05,0.174c0.025,0.028,0.056,0.073,0.092,0.134
			c0.034,0.063,0.072,0.132,0.112,0.209c0.02,0.066,0.048,0.139,0.089,0.217c0.01,0.032,0.021,0.074,0.035,0.123
			c0.01,0.033,0.026,0.063,0.053,0.092c0.035,0.062,0.076,0.113,0.124,0.152c0.042,0.023,0.081,0.066,0.116,0.128
			c0.186,0.214,0.363,0.431,0.533,0.649c-0.165-0.201-0.232-0.281-0.201-0.237c0.043,0.025,0.109,0.104,0.201,0.237
			c0.113,0.147,0.201,0.301,0.265,0.461c0.063,0.161,0.136,0.318,0.216,0.475c0.009,0.033,0.024,0.056,0.046,0.066
			c0.025,0.029,0.052,0.057,0.077,0.085c0.074,0.069,0.135,0.159,0.184,0.27c-0.045-0.095-0.064-0.134-0.06-0.117
			s0.024,0.056,0.06,0.117c0.07,0.122,0.139,0.236,0.205,0.343c0.07,0.123,0.141,0.245,0.212,0.368
			c0.035,0.062,0.076,0.112,0.124,0.152c0.051,0.057,0.112,0.084,0.184,0.08c0.087-0.006,0.164-0.047,0.233-0.119
			c0.063-0.09,0.103-0.172,0.117-0.247c0.017-0.13,0.03-0.268,0.043-0.414c-0.017,0.13-0.02,0.184-0.008,0.163
			c0.007-0.038,0.01-0.092,0.008-0.163c0.014-0.075,0.011-0.146-0.008-0.212c-0.007-0.087-0.003-0.169,0.011-0.244
			c0.01-0.092,0.018-0.191,0.021-0.301c0.005-0.107,0.01-0.217,0.015-0.325c0-0.25,0.02-0.496,0.058-0.739
			c0.033-0.259,0.061-0.507,0.082-0.746c0.009-0.091,0.008-0.189-0.004-0.293c-0.027-0.099-0.037-0.194-0.027-0.286
			c0.021-0.113,0.032-0.232,0.032-0.357c0.021-0.113,0.04-0.234,0.057-0.364c0.002-0.054,0.007-0.1,0.015-0.138
			c0.018-0.06,0.021-0.113,0.007-0.163c-0.005-0.016-0.012-0.041-0.021-0.074l-0.015-0.05c-0.013-0.103-0.009-0.22,0.008-0.35
			c0.004-0.108,0.001-0.214-0.011-0.318c-0.028-0.099-0.054-0.189-0.078-0.272c-0.022-0.081-0.03-0.169-0.021-0.261
			c0.002-0.055,0.018-0.095,0.046-0.121c0.023-0.042,0.049-0.075,0.078-0.103c0.033-0.01,0.074-0.021,0.123-0.035
			c0.033-0.01,0.054-0.032,0.061-0.071c0.01-0.09,0.014-0.172,0.011-0.244c-0.007-0.086-0.003-0.168,0.011-0.242
			c-0.002-0.071,0.015-0.139,0.05-0.202c0.019-0.059,0.038-0.117,0.057-0.177c0-0.125,0.011-0.244,0.032-0.356
			c-0.005,0.108-0.012,0.146-0.021,0.112c-0.004-0.016,0.003-0.054,0.021-0.112c0.045-0.281,0.176-0.542,0.394-0.781
			c0.217-0.24,0.47-0.384,0.761-0.431c0.186-0.036,0.372-0.009,0.559,0.081c0.182,0.073,0.336,0.181,0.467,0.322
			c0.121,0.18,0.202,0.371,0.243,0.573c0.022,0.207,0.038,0.416,0.045,0.629c-0.002,0.055-0.017,0.13-0.042,0.227
			c-0.006,0.108,0,0.188,0.014,0.236c0.005,0.018,0.025,0.029,0.063,0.035c0.021,0.014,0.034,0.027,0.039,0.043
			c0.042,0.024,0.071,0.061,0.085,0.11c0.025,0.028,0.054,0.064,0.084,0.108c0.029,0.1,0.038,0.195,0.029,0.287
			c-0.021,0.113-0.037,0.216-0.047,0.308c-0.017,0.13-0.025,0.259-0.025,0.382c-0.001,0.126-0.011,0.245-0.032,0.357
			c0.002,0.071-0.015,0.139-0.05,0.202c-0.019,0.059-0.038,0.117-0.057,0.177c-0.005,0.108-0.018,0.219-0.039,0.332
			c-0.025,0.096-0.05,0.201-0.071,0.313c-0.044,0.281-0.083,0.552-0.117,0.811c0.038-0.243,0.054-0.345,0.046-0.308
			c-0.002,0.054-0.018,0.157-0.046,0.308c-0.021,0.113-0.043,0.226-0.064,0.339c-0.038,0.118-0.066,0.234-0.088,0.347
			c-0.026,0.097-0.052,0.193-0.078,0.29c0.026-0.097,0.042-0.136,0.046-0.12c-0.012,0.021-0.027,0.062-0.046,0.12
			c-0.028,0.152-0.075,0.3-0.142,0.441c-0.07,0.128-0.121,0.268-0.148,0.418c-0.015,0.075-0.021,0.148-0.019,0.219
			c0.002,0.071-0.007,0.137-0.024,0.195c-0.018,0.129-0.036,0.251-0.058,0.363c-0.042,0.103-0.063,0.215-0.063,0.34
			c-0.022,0.238-0.053,0.442-0.093,0.615c-0.019,0.184-0.077,0.387-0.174,0.611c-0.043,0.102-0.079,0.192-0.11,0.271
			c-0.042,0.104-0.087,0.196-0.134,0.28c-0.036,0.063-0.073,0.119-0.113,0.166c-0.04,0.048-0.081,0.094-0.121,0.142
			c-0.023,0.042-0.045,0.093-0.063,0.152c-0.04,0.046-0.072,0.091-0.096,0.134c-0.057,0.052-0.123,0.098-0.201,0.138
			c-0.057,0.052-0.113,0.103-0.17,0.155c-0.053,0.068-0.107,0.128-0.162,0.181c-0.053,0.068-0.118,0.121-0.195,0.162
			c-0.118,0.088-0.278,0.15-0.481,0.191c-0.203,0.038-0.386,0.056-0.548,0.048c-0.168-0.024-0.309-0.082-0.424-0.174
			c-0.121-0.108-0.233-0.219-0.336-0.332c-0.155-0.17-0.295-0.345-0.417-0.524c-0.139-0.174-0.272-0.359-0.399-0.556
			c-0.113-0.146-0.242-0.286-0.389-0.424c-0.129-0.142-0.259-0.283-0.389-0.425c-0.087-0.118-0.165-0.238-0.236-0.36
			c-0.075-0.14-0.148-0.271-0.218-0.393c-0.083-0.102-0.177-0.209-0.279-0.323c-0.083-0.101-0.167-0.21-0.255-0.328
			c-0.045-0.096-0.098-0.187-0.159-0.277c-0.044-0.094-0.098-0.186-0.159-0.275c-0.072-0.068-0.143-0.128-0.211-0.181
			c-0.074-0.067-0.137-0.13-0.188-0.188c-0.068-0.051-0.12-0.108-0.156-0.17c-0.052-0.056-0.104-0.112-0.155-0.169
			c-0.009-0.033-0.024-0.056-0.046-0.067c-0.021-0.013-0.042-0.023-0.063-0.035c-0.082-0.103-0.162-0.194-0.24-0.28
			c-0.082-0.102-0.148-0.208-0.198-0.318c-0.027-0.099-0.074-0.201-0.141-0.308c-0.045-0.095-0.119-0.17-0.227-0.229
			c-0.021-0.012-0.071-0.033-0.15-0.064c-0.064-0.036-0.113-0.049-0.146-0.039c-0.05,0.014-0.073,0.058-0.071,0.128
			c0.023,0.083,0.04,0.14,0.05,0.173c0.021,0.138,0.053,0.279,0.095,0.428c0.021,0.137,0.034,0.276,0.039,0.418
			c0.023,0.082,0.03,0.17,0.021,0.262c-0.015,0.075-0.071,0.127-0.17,0.155c-0.054-0.003-0.105-0.024-0.152-0.063
			c-0.047-0.04-0.069-0.088-0.066-0.143c-0.019-0.066-0.032-0.143-0.039-0.229c-0.002-0.071-0.007-0.15-0.014-0.237
			c-0.033-0.115-0.068-0.238-0.106-0.371c-0.032-0.115-0.057-0.233-0.073-0.354c0.019-0.058,0.042-0.135,0.067-0.232
			c0.026-0.097,0.025-0.159,0-0.188c-0.075-0.014-0.159-0.025-0.251-0.035c-0.092-0.009-0.178-0.03-0.258-0.061
			c-0.021-0.011-0.034-0.025-0.039-0.043c-0.021-0.011-0.049-0.013-0.081-0.003c-0.033,0.009-0.087,0.042-0.16,0.098
			c-0.073,0.058-0.132,0.102-0.177,0.132c-0.04,0.047-0.047,0.085-0.021,0.112c0.026,0.029,0.046,0.067,0.061,0.117
			c0.04,0.078,0.023,0.145-0.05,0.201c-0.094,0.045-0.18,0.061-0.254,0.046c-0.021-0.011-0.043-0.023-0.064-0.035
			c-0.025-0.029-0.052-0.057-0.077-0.085c-0.045-0.095-0.057-0.198-0.035-0.312c0.038-0.118,0.091-0.213,0.159-0.286
			c0.028-0.025,0.063-0.062,0.103-0.109c0.04-0.047,0.056-0.087,0.046-0.12c-0.025-0.027-0.063-0.063-0.109-0.103
			c-0.064-0.036-0.111-0.076-0.141-0.121c-0.048-0.04-0.104-0.112-0.17-0.219c-0.062-0.089-0.109-0.165-0.145-0.227
			c-0.01-0.033-0.011-0.068-0.004-0.105c-0.009-0.033-0.027-0.064-0.053-0.092c-0.047-0.041-0.124-0.028-0.23,0.038
			c-0.11,0.05-0.193,0.073-0.247,0.07c-0.13-0.016-0.228-0.077-0.293-0.184s-0.132-0.213-0.198-0.318
			C177.682,18.249,177.678,18.206,177.663,18.156z M179.257,18.961c0.062,0.089,0.147,0.171,0.258,0.246
			c0.021,0.013,0.045,0.032,0.071,0.06c0.042,0.025,0.071,0.034,0.088,0.029c0.033-0.01,0.062-0.034,0.086-0.078
			c0.022-0.041,0.043-0.066,0.06-0.071c0.063-0.089,0.138-0.172,0.224-0.249c0.1-0.083,0.204-0.094,0.311-0.036
			c0.068,0.053,0.104,0.113,0.106,0.185c-0.011,0.093-0.046,0.155-0.106,0.19c-0.033,0.01-0.059,0.017-0.074,0.021
			c-0.018,0.005-0.039,0.021-0.067,0.046c-0.017,0.004-0.047,0.022-0.093,0.053c-0.044,0.031-0.054,0.061-0.027,0.088l0.12,0.047
			c0.075,0.015,0.123,0.027,0.145,0.039c0.063,0.034,0.144,0.065,0.24,0.092c0.085,0.048,0.158,0.055,0.22,0.018
			c0.068-0.073,0.11-0.174,0.127-0.304c0.033-0.134,0.112-0.201,0.237-0.202c0.118,0.039,0.177,0.121,0.177,0.244
			c-0.012,0.147-0.033,0.261-0.064,0.341c-0.012,0.021-0.037,0.055-0.078,0.103c-0.039,0.047-0.047,0.084-0.021,0.112
			c0.038,0.007,0.086,0.02,0.145,0.039c0.043,0.024,0.085,0.048,0.127,0.071c0.017-0.005,0.027,0.002,0.032,0.018
			c0.021,0.012,0.034,0.027,0.039,0.043c0.07-0.003,0.137-0.021,0.198-0.057c0.077-0.039,0.146-0.023,0.201,0.049
			c0.054,0.129,0.039,0.23-0.046,0.308c-0.068,0.073-0.087,0.169-0.054,0.284c0.04,0.077,0.099,0.158,0.177,0.244
			c0.078,0.084,0.145,0.163,0.201,0.236c0.052,0.057,0.105,0.121,0.163,0.195c0.061,0.09,0.126,0.16,0.194,0.211
			c0.021,0.013,0.041,0.024,0.063,0.035c0.021,0.013,0.042,0.024,0.063,0.036c0.052,0.058,0.105,0.122,0.162,0.194
			c0.052,0.058,0.104,0.114,0.156,0.17c0.078,0.085,0.136,0.167,0.176,0.244c0.045,0.095,0.098,0.187,0.159,0.276
			c0.083,0.102,0.165,0.203,0.247,0.305c0.082,0.101,0.156,0.206,0.223,0.312c0.061,0.089,0.122,0.18,0.184,0.269
			c0.045,0.094,0.1,0.194,0.166,0.301c0.148,0.207,0.324,0.417,0.526,0.625c0.181,0.199,0.354,0.399,0.52,0.603
			c0.147,0.209,0.308,0.421,0.477,0.641c0.157,0.24,0.337,0.43,0.536,0.569c0.106,0.06,0.238,0.084,0.396,0.075
			c0.158-0.01,0.284-0.036,0.379-0.081c0.127-0.055,0.244-0.142,0.354-0.262c0.097-0.099,0.193-0.197,0.29-0.297
			c0.113-0.103,0.224-0.215,0.333-0.335c0.087-0.132,0.166-0.262,0.237-0.389c0.047-0.084,0.084-0.175,0.109-0.273
			c0.026-0.096,0.063-0.187,0.11-0.271c0.035-0.064,0.068-0.135,0.1-0.216c0.03-0.079,0.053-0.157,0.066-0.233
			c0-0.124,0-0.249,0.001-0.375c0-0.124,0.01-0.243,0.032-0.356c0.014-0.075,0.03-0.143,0.049-0.201
			c0.02-0.059,0.035-0.127,0.051-0.202c0.019-0.059,0.026-0.123,0.024-0.194c-0.003-0.071,0.003-0.144,0.018-0.219
			c0.01-0.092,0.03-0.206,0.063-0.34c0.038-0.117,0.08-0.22,0.128-0.304c0.036-0.063,0.066-0.144,0.093-0.24
			c0.031-0.08,0.053-0.158,0.067-0.233c0.019-0.06,0.034-0.126,0.05-0.202c0.035-0.063,0.06-0.134,0.074-0.208
			c0.025-0.222,0.054-0.435,0.086-0.64c0.029-0.205,0.061-0.41,0.092-0.615c0.033-0.135,0.066-0.269,0.1-0.402
			c0.037-0.119,0.072-0.245,0.105-0.379c0.013-0.147,0.014-0.299,0.005-0.456c0.011-0.147,0.023-0.292,0.035-0.438
			c0.015-0.075,0.028-0.151,0.043-0.227c0.002-0.055,0.002-0.117,0.001-0.188c0.011-0.021,0.015-0.04,0.01-0.057
			c-0.005-0.016-0.018-0.031-0.039-0.043c-0.021-0.011-0.048-0.013-0.081-0.003c-0.028,0.024-0.062,0.034-0.099,0.028
			c-0.022-0.012-0.034-0.026-0.039-0.043c-0.021-0.011-0.051-0.021-0.089-0.029c-0.054-0.001-0.109,0.024-0.166,0.075
			c-0.045,0.031-0.087,0.069-0.128,0.116c-0.061,0.035-0.125,0.063-0.19,0.081c-0.066,0.019-0.135,0.029-0.205,0.032
			c-0.099,0.028-0.2,0.048-0.305,0.06c-0.108-0.005-0.208-0.012-0.3-0.021c-0.113-0.021-0.232-0.031-0.357-0.032
			c-0.108-0.004-0.216,0.026-0.322,0.092c-0.045,0.031-0.058,0.079-0.039,0.145c0.003,0.071,0.011,0.131,0.025,0.18
			c0.033,0.117,0.054,0.254,0.063,0.411c0.009,0.158,0.014,0.3,0.014,0.425c-0.002,0.179-0.014,0.36-0.031,0.545
			c-0.008,0.162-0.023,0.328-0.047,0.495c-0.012,0.146-0.008,0.287,0.014,0.423c0.021,0.138,0.026,0.279,0.014,0.425
			c-0.031,0.206-0.062,0.411-0.093,0.615c-0.01,0.217-0.03,0.428-0.061,0.633c-0.003,0.055-0.011,0.12-0.024,0.194
			c-0.02,0.06-0.027,0.125-0.025,0.195c0.012,0.229,0.01,0.505-0.004,0.831c-0.02,0.309-0.091,0.561-0.213,0.756
			c-0.064,0.091-0.138,0.173-0.223,0.251c-0.102,0.082-0.215,0.124-0.34,0.123c-0.281-0.045-0.497-0.179-0.65-0.402
			c-0.137-0.229-0.266-0.46-0.385-0.694c-0.01-0.033-0.027-0.063-0.053-0.092c-0.01-0.033-0.027-0.063-0.054-0.092
			c-0.052-0.057-0.103-0.113-0.155-0.171c-0.052-0.056-0.096-0.115-0.13-0.176c-0.026-0.028-0.046-0.068-0.06-0.117
			c0.001-0.054-0.011-0.095-0.035-0.124c-0.028-0.099-0.068-0.204-0.117-0.315c-0.045-0.094-0.098-0.186-0.158-0.275
			c-0.109-0.129-0.218-0.259-0.326-0.39c-0.125-0.125-0.241-0.252-0.35-0.381c-0.004-0.017-0.028-0.037-0.07-0.061
			c-0.021-0.012-0.045-0.032-0.07-0.06c-0.062-0.09-0.109-0.193-0.142-0.309c-0.028-0.099-0.067-0.203-0.116-0.315
			c-0.041-0.077-0.087-0.144-0.139-0.201c-0.04-0.078-0.079-0.154-0.119-0.232c-0.012-0.104-0.003-0.197,0.028-0.276
			c0.026-0.098,0.044-0.19,0.053-0.283c0.033-0.133,0.046-0.28,0.036-0.438c0.008-0.163-0.008-0.31-0.045-0.442
			c-0.071-0.122-0.189-0.16-0.354-0.113c-0.166,0.047-0.283,0.01-0.354-0.113c-0.023-0.082-0.01-0.158,0.042-0.226
			c0.048-0.085,0.117-0.123,0.209-0.113c0.021,0.012,0.062,0.027,0.12,0.046c0.059,0.02,0.092,0.01,0.1-0.028
			c0.006-0.037-0.006-0.078-0.036-0.124c-0.026-0.028-0.052-0.057-0.077-0.084c-0.038-0.133-0.09-0.252-0.155-0.357
			c-0.066-0.106-0.148-0.208-0.247-0.306c-0.068-0.051-0.127-0.097-0.174-0.137c0.047,0.04,0.068,0.051,0.063,0.035
			c-0.017,0.005-0.037-0.007-0.063-0.035c-0.021-0.011-0.043-0.024-0.063-0.036l0.032,0.019c-0.005-0.017-0.016-0.023-0.032-0.019
			c-0.013,0.021-0.015,0.041-0.011,0.057c0.005,0.017,0.01,0.033,0.015,0.05c-0.017,0.13-0.044,0.254-0.082,0.371
			c0.038-0.117,0.05-0.167,0.039-0.145c-0.007,0.037-0.02,0.086-0.039,0.145c-0.019,0.06-0.04,0.109-0.063,0.152
			c-0.023,0.042-0.039,0.083-0.047,0.12c-0.002,0.054,0.027,0.126,0.088,0.216c0.045,0.094,0.083,0.164,0.113,0.209
			c0.045,0.094,0.093,0.196,0.142,0.307c0.062,0.09,0.114,0.182,0.159,0.276c0.052,0.058,0.096,0.116,0.131,0.177
			c0.051,0.057,0.095,0.116,0.131,0.177c0.039,0.078,0.084,0.173,0.133,0.283c0.05,0.11,0.02,0.191-0.092,0.24
			c-0.077,0.04-0.152,0.026-0.227-0.042c-0.072-0.069-0.127-0.134-0.162-0.195c-0.08-0.155-0.16-0.311-0.24-0.467
			c-0.092-0.135-0.178-0.279-0.257-0.436c-0.031-0.044-0.054-0.091-0.067-0.141c-0.019-0.066-0.052-0.119-0.099-0.159
			c-0.021-0.013-0.063-0.001-0.124,0.035c-0.062,0.035-0.106,0.065-0.135,0.092c-0.017,0.005-0.039,0.02-0.067,0.047
			c-0.017,0.004-0.028,0.024-0.035,0.063c-0.009,0.093-0.034,0.162-0.074,0.208c-0.023,0.043-0.092,0.053-0.205,0.032
			c-0.021-0.012-0.04-0.016-0.057-0.011s-0.027-0.001-0.032-0.017c-0.025-0.029-0.049-0.049-0.07-0.061
			c-0.01-0.033-0.019-0.066-0.028-0.1c-0.021-0.137,0.019-0.246,0.12-0.329c0.118-0.086,0.228-0.171,0.33-0.254
			c0.016-0.005,0.047-0.022,0.092-0.053c0.049-0.015,0.08-0.032,0.092-0.053c-0.01-0.033-0.03-0.072-0.06-0.117
			c-0.026-0.028-0.044-0.06-0.054-0.093c-0.066-0.105-0.142-0.217-0.229-0.335c-0.1-0.097-0.204-0.183-0.314-0.259
			c-0.042-0.024-0.083-0.039-0.12-0.047c-0.038-0.006-0.076-0.014-0.113-0.021l-0.007-0.024c-0.021-0.011-0.029-0.008-0.025,0.008
			c-0.017,0.004-0.027,0.025-0.035,0.063c0.015,0.049,0.013,0.076-0.003,0.081c0.021,0.013,0.041,0.024,0.063,0.036l0.031,0.018
			c0.047,0.04,0.063,0.098,0.05,0.173s-0.055,0.123-0.121,0.142c-0.109,0.05-0.202,0.041-0.275-0.029
			c-0.062-0.089-0.105-0.184-0.135-0.283c0.003-0.054,0.014-0.109,0.033-0.169c-0.003-0.07-0.031-0.107-0.086-0.11
			c-0.107-0.005-0.212,0.007-0.311,0.035c-0.111,0.05-0.21,0.078-0.297,0.084c-0.021-0.01-0.055-0.001-0.1,0.028
			c-0.033,0.01-0.056,0.025-0.066,0.047c-0.003,0.055,0.02,0.101,0.066,0.142c0.064,0.035,0.108,0.067,0.135,0.096
			c0.051,0.057,0.07,0.123,0.057,0.198c-0.031,0.079-0.078,0.138-0.139,0.173c-0.072,0.058-0.139,0.049-0.194-0.025
			c-0.068-0.051-0.12-0.108-0.155-0.17c-0.005-0.016-0.021-0.037-0.046-0.067c-0.009-0.033-0.031-0.044-0.063-0.034
			c-0.012,0.02-0.027,0.061-0.047,0.119c-0.002,0.055-0.01,0.093-0.021,0.114c-0.013,0.146-0.038,0.241-0.079,0.289
			c-0.035,0.063-0.071,0.154-0.109,0.272c-0.012,0.021-0.021,0.05-0.028,0.088c-0.003,0.055,0.01,0.096,0.035,0.124
			c0.005,0.017,0.032,0.019,0.082,0.004c0.033-0.009,0.058-0.017,0.074-0.021c0.065-0.02,0.132-0.038,0.198-0.057
			c0.07-0.003,0.138,0.014,0.201,0.049c0.09,0.063,0.127,0.133,0.112,0.209c-0.009,0.092-0.063,0.152-0.162,0.181
			c-0.033,0.009-0.061,0.008-0.082-0.004c-0.021-0.013-0.042-0.023-0.063-0.035c-0.049,0.014-0.099,0.028-0.148,0.042
			c-0.05,0.015-0.102,0.02-0.155,0.018C179.113,18.77,179.18,18.875,179.257,18.961z M181.119,16.476
			c0.06,0.02,0.118,0.038,0.178,0.057c0.063,0.036,0.12,0.082,0.172,0.138c0.053,0.058,0.102,0.105,0.149,0.146
			c0.093,0.08,0.174,0.174,0.239,0.28c-0.061-0.091-0.09-0.127-0.084-0.11c0.021,0.012,0.049,0.05,0.084,0.11
			c0.005,0.016,0.021,0.038,0.046,0.067c0.01,0.033,0.028,0.036,0.057,0.01c0.029-0.024,0.033-0.071,0.015-0.138
			c-0.035-0.061-0.058-0.108-0.066-0.142c0.002-0.055,0.013-0.11,0.031-0.17c-0.002-0.069-0.006-0.114-0.011-0.131
			c-0.025-0.028-0.049-0.048-0.07-0.061c-0.038-0.006-0.07-0.023-0.096-0.053c-0.16-0.061-0.292-0.087-0.396-0.075
			c-0.093-0.009-0.217-0.009-0.375,0C181.022,16.45,181.065,16.474,181.119,16.476z M181.768,19.503
			c0.012-0.021,0.023-0.041,0.035-0.063c0.057-0.051,0.133-0.064,0.23-0.039c0.096,0.026,0.177,0.058,0.24,0.092
			c0.132,0.088,0.234,0.201,0.311,0.34c0.07,0.124,0.143,0.254,0.219,0.393c0.026,0.03,0.052,0.058,0.078,0.086
			c0.047,0.04,0.075,0.077,0.084,0.11c0.018,0.119-0.022,0.201-0.116,0.247c-0.095,0.044-0.185,0.043-0.269-0.005
			c-0.104-0.113-0.174-0.235-0.212-0.367c-0.042-0.149-0.104-0.274-0.187-0.375c-0.049-0.041-0.091-0.064-0.128-0.071
			c-0.055-0.002-0.103-0.015-0.146-0.039c-0.042-0.024-0.078-0.058-0.109-0.103c-0.009-0.033-0.021-0.074-0.035-0.123
			C181.759,19.567,181.76,19.541,181.768,19.503z M187.915,17.216c0.124,0.002,0.233,0.007,0.325,0.016
			c0.092,0.01,0.19,0.009,0.294-0.004c0.103-0.01,0.204-0.031,0.304-0.06c0.062-0.034,0.129-0.08,0.202-0.138
			c0.067-0.072,0.135-0.119,0.201-0.138c0.038,0.008,0.065,0.009,0.081,0.004c0.037,0.007,0.07-0.002,0.1-0.028
			c0.017-0.004,0.025-0.034,0.028-0.089c0.007-0.037,0.006-0.072-0.004-0.105c0.015-0.075,0.019-0.156,0.011-0.244
			c0.015-0.075,0.01-0.153-0.014-0.237c-0.01-0.157-0.041-0.301-0.095-0.428c-0.055-0.127-0.142-0.244-0.262-0.353
			c-0.021-0.014-0.063-0.036-0.128-0.071c-0.084-0.048-0.141-0.059-0.169-0.032s-0.032,0.071-0.014,0.138
			c0.014,0.05,0.025,0.091,0.035,0.124c0.011,0.104,0.017,0.218,0.017,0.343c-0.004,0.109-0.028,0.214-0.071,0.314
			c-0.023,0.043-0.055,0.088-0.095,0.135c-0.041,0.047-0.098,0.063-0.174,0.05c-0.102-0.043-0.141-0.12-0.12-0.234
			c0.026-0.097,0.046-0.183,0.061-0.258c0.002-0.054-0.003-0.105-0.018-0.155c-0.03-0.045-0.044-0.095-0.042-0.148
			c0.007-0.038,0.014-0.076,0.021-0.113c0.023-0.043,0.021-0.078-0.004-0.106s-0.045-0.031-0.057-0.011
			c-0.028,0.025-0.051,0.042-0.067,0.046c-0.04,0.047-0.089,0.097-0.146,0.148c-0.039,0.047-0.077,0.103-0.112,0.166
			c-0.093,0.115-0.15,0.257-0.174,0.425c-0.046,0.155-0.073,0.306-0.085,0.452c-0.008,0.037-0.023,0.077-0.046,0.12
			c-0.008,0.038-0.015,0.076-0.021,0.113c-0.003,0.053-0.008,0.1-0.015,0.138c-0.008,0.038-0.014,0.076-0.021,0.112
			C187.699,17.181,187.79,17.217,187.915,17.216z"/>
		<path d="M200.547,17.192c-0.004-0.017-0.003-0.044,0.004-0.083l0.015,0.051l0.025-0.008l0.191,0.384l0.058,0.203
			c0.015,0.051,0.039,0.071,0.072,0.063c0.085-0.024,0.162-0.041,0.232-0.053c0.069-0.011,0.137-0.035,0.199-0.07
			c0.159-0.082,0.324-0.16,0.494-0.236c0.171-0.076,0.346-0.15,0.527-0.22c0.074-0.057,0.146-0.097,0.213-0.115
			c0.068-0.02,0.131-0.056,0.189-0.108l0.441-0.182c0.067-0.019,0.135-0.038,0.203-0.058c0.066-0.019,0.131-0.055,0.188-0.108
			c0.029-0.026,0.086-0.052,0.171-0.076c0.084-0.023,0.172-0.052,0.263-0.087c0.09-0.035,0.184-0.076,0.28-0.121
			c0.092-0.063,0.185-0.107,0.277-0.134s0.198-0.057,0.317-0.091c0.033-0.009,0.072-0.017,0.117-0.02
			c0.044-0.003,0.09-0.021,0.136-0.053c0.126-0.072,0.259-0.118,0.398-0.141c0.14-0.021,0.286-0.054,0.438-0.097
			c0.051-0.015,0.114-0.016,0.191,0c0.039,0.007,0.082,0.013,0.129,0.018s0.078,0.032,0.092,0.083
			c0.027,0.029,0.079,0.052,0.156,0.065c0.043,0.024,0.067,0.045,0.072,0.062c0.053,0.058,0.115,0.114,0.185,0.167
			s0.145,0.124,0.224,0.211l0.156,0.257c0.01,0.034,0.031,0.078,0.064,0.131c0.034,0.056,0.057,0.1,0.065,0.134
			c0.015,0.051,0.038,0.071,0.073,0.062l0.134,0.181c0.033,0.119,0.096,0.21,0.188,0.275c0.065,0.037,0.087,0.085,0.068,0.146
			c0.044,0.152,0.138,0.289,0.282,0.413c0.099,0.026,0.15,0.112,0.156,0.256c0.004,0.018,0.012,0.029,0.023,0.035
			c0.01,0.006,0.019,0.018,0.023,0.034l0.035,0.127c-0.015,0.078-0.064,0.128-0.148,0.152l-0.275,0.187
			c-0.034,0.01-0.051,0.029-0.053,0.058c-0.001,0.028-0.015,0.027-0.041-0.003c-0.126-0.054-0.225-0.068-0.299-0.037
			c-0.074,0.03-0.153,0.057-0.238,0.081c-0.088,0.008-0.172,0.018-0.251,0.03c-0.078,0.013-0.157,0.041-0.237,0.082
			c-0.108,0.067-0.211,0.11-0.306,0.128c-0.096,0.018-0.187,0.039-0.271,0.063c-0.066,0.02-0.128,0.047-0.182,0.079
			c-0.056,0.035-0.113,0.07-0.177,0.104c-0.125,0.074-0.265,0.146-0.418,0.217s-0.314,0.13-0.483,0.178
			c-0.123,0.019-0.244,0.057-0.364,0.118c-0.119,0.062-0.242,0.128-0.368,0.2l-0.706,0.311c-0.067,0.02-0.124,0.046-0.17,0.076
			c-0.046,0.031-0.095,0.054-0.145,0.068c-0.126,0.074-0.239,0.141-0.339,0.206c-0.102,0.064-0.219,0.117-0.354,0.156
			c-0.034,0.01-0.056,0.029-0.065,0.06s-0.004,0.051,0.019,0.063c0.21,0.158,0.281,0.313,0.213,0.46
			c-0.008,0.038-0.006,0.074,0.004,0.108c0.01,0.033,0.002,0.072-0.022,0.116c-0.015,0.077-0.052,0.17-0.112,0.278
			c-0.092,0.063-0.188,0.108-0.29,0.137l-0.076,0.021c-0.038-0.007-0.078-0.001-0.117,0.021c-0.04,0.021-0.079,0.027-0.118,0.02
			c-0.043-0.023-0.082-0.031-0.115-0.021c-0.059,0.053-0.111,0.077-0.157,0.071c-0.048-0.004-0.101-0.017-0.161-0.035
			c-0.121-0.039-0.209-0.06-0.265-0.062l-0.076,0.021c-0.041,0.048-0.103,0.057-0.185,0.025l-0.257-0.037
			c-0.104-0.043-0.218-0.058-0.341-0.04s-0.248,0.025-0.377,0.025c-0.072,0.002-0.131,0.02-0.178,0.05
			c-0.066,0.02-0.164,0.065-0.289,0.138c-0.21,0.097-0.395,0.094-0.551-0.008l-0.148-0.04c-0.055-0.003-0.09-0.029-0.104-0.08
			c-0.019-0.067-0.065-0.118-0.14-0.151c-0.073-0.034-0.13-0.091-0.172-0.171c-0.064-0.036-0.095-0.11-0.09-0.222
			c-0.005-0.016-0.028-0.036-0.072-0.062c-0.061-0.019-0.099-0.054-0.113-0.104c0.025-0.042,0.018-0.067-0.021-0.076
			c-0.038-0.007-0.097-0.054-0.177-0.142c-0.021-0.012-0.026-0.028-0.015-0.051c0.034-0.136,0.025-0.298-0.027-0.484
			c-0.006-0.017-0.052-0.049-0.139-0.098c-0.048-0.041-0.057-0.103-0.024-0.185c0.024-0.044,0.022-0.079-0.004-0.108
			c-0.049-0.042-0.086-0.076-0.112-0.105c-0.026-0.028-0.07-0.053-0.131-0.073c-0.081-0.031-0.137-0.098-0.166-0.198
			c-0.01-0.034-0.021-0.059-0.034-0.072c-0.013-0.016-0.024-0.04-0.034-0.073c-0.02-0.067-0.022-0.112-0.011-0.134
			c0.061-0.109,0.12-0.186,0.181-0.23c0.061-0.044,0.131-0.087,0.211-0.128c0.067-0.02,0.087-0.08,0.058-0.182
			c-0.038-0.135-0.077-0.271-0.115-0.405c-0.038-0.136-0.089-0.276-0.148-0.424c-0.019-0.066-0.04-0.143-0.064-0.228
			s-0.04-0.171-0.047-0.262c0.002-0.055-0.013-0.123-0.046-0.206c-0.032-0.081-0.061-0.165-0.084-0.25
			c-0.102-0.227-0.168-0.463-0.202-0.709c-0.026-0.157-0.07-0.31-0.13-0.457c-0.024-0.084-0.049-0.169-0.072-0.254
			c-0.024-0.084-0.031-0.173-0.021-0.267l-0.043-0.152c-0.083-0.16-0.136-0.331-0.161-0.517c-0.025-0.185-0.064-0.37-0.117-0.557
			l-0.083-0.579c-0.023-0.084-0.048-0.168-0.072-0.254c-0.023-0.083-0.031-0.173-0.021-0.267c-0.01-0.034-0.021-0.063-0.038-0.086
			c-0.016-0.023-0.027-0.05-0.037-0.085l-0.155-0.641l-0.182-0.634c-0.014-0.051-0.05-0.083-0.107-0.094
			c-0.059-0.011-0.084-0.035-0.076-0.073c0.036-0.065,0.02-0.125-0.051-0.178c-0.044-0.024-0.078-0.064-0.104-0.12
			c-0.025-0.058-0.054-0.109-0.084-0.155c-0.037-0.063-0.102-0.1-0.196-0.108c-0.017,0.005-0.03,0.005-0.041-0.002
			c-0.011-0.006-0.025-0.007-0.042-0.002s-0.027-0.001-0.032-0.018l-0.033-0.019c0.007-0.039,0.003-0.087-0.014-0.146
			c-0.017-0.059-0.032-0.114-0.048-0.165c-0.019-0.066-0.04-0.126-0.063-0.175c-0.023-0.048-0.072-0.106-0.146-0.177
			c-0.065-0.036-0.075-0.069-0.029-0.102c0.036-0.065,0.028-0.126-0.025-0.185l-0.195-0.109c-0.092-0.064-0.163-0.141-0.215-0.226
			c-0.052-0.086-0.111-0.183-0.179-0.291c-0.018,0.005-0.022,0.001-0.017-0.011c0.006-0.01,0.018-0.018,0.034-0.022l0.413-0.282
			c0.102-0.028,0.221-0.09,0.359-0.185l0.075-0.021c-0.024-0.084-0.028-0.147-0.013-0.188c0.016-0.04,0.031-0.1,0.046-0.177
			c-0.024-0.085-0.028-0.147-0.013-0.188s0.035-0.083,0.061-0.127c0.036-0.065,0.09-0.099,0.162-0.102
			c0.061,0.021,0.125,0.005,0.194-0.042c0.069-0.046,0.136-0.052,0.201-0.015c0.081,0.031,0.166,0.039,0.253,0.022
			c0.087-0.015,0.169-0.016,0.246-0.001l0.182,0.059c0.142,0.051,0.275,0.04,0.402-0.033c0.217-0.135,0.439-0.249,0.67-0.342
			c0.229-0.093,0.446-0.194,0.651-0.308c0.231-0.085,0.447-0.179,0.647-0.281c0.198-0.102,0.414-0.195,0.646-0.279l1.102-0.561
			l0.536-0.235c0.159-0.081,0.313-0.152,0.46-0.212c0.147-0.062,0.292-0.13,0.435-0.206c0.046-0.032,0.111-0.06,0.196-0.084
			c0.112-0.051,0.229-0.093,0.348-0.126c0.117-0.034,0.231-0.085,0.341-0.152c0.078-0.041,0.149-0.064,0.211-0.073
			c0.063-0.009,0.117-0.021,0.168-0.035c0.034-0.009,0.109-0.003,0.225,0.019c0.126,0.056,0.23,0.136,0.315,0.239
			c0.015,0.051,0.032,0.082,0.054,0.094c0.198,0.182,0.337,0.316,0.416,0.403c0.08,0.086,0.177,0.233,0.29,0.438
			c0.03,0.046,0.068,0.095,0.11,0.146c0.042,0.053,0.072,0.112,0.092,0.18c0.024,0.085,0.058,0.14,0.102,0.163l0.467,0.579
			l0.151,0.341c0.026,0.157,0.002,0.265-0.072,0.323l-0.076,0.021c-0.169,0.048-0.276,0.087-0.323,0.119
			c-0.051,0.015-0.087,0.016-0.108,0.003c-0.095-0.01-0.172-0.01-0.233-0.002c-0.062,0.01-0.126,0.022-0.193,0.042
			c-0.119,0.033-0.221,0.063-0.305,0.087c-0.084,0.023-0.164,0.064-0.239,0.123l-0.151,0.043c-0.119,0.033-0.232,0.07-0.339,0.109
			c-0.108,0.041-0.21,0.082-0.306,0.129c-0.109,0.066-0.207,0.127-0.293,0.179c-0.085,0.052-0.176,0.101-0.273,0.146
			c-0.092,0.063-0.171,0.104-0.238,0.123c-0.136,0.039-0.25,0.086-0.344,0.141c-0.095,0.054-0.196,0.115-0.305,0.182
			c-0.051,0.015-0.083,0.033-0.094,0.055c-0.063,0.035-0.119,0.066-0.167,0.089c-0.049,0.022-0.099,0.041-0.148,0.056
			c-0.04-0.007-0.087,0.002-0.144,0.027s-0.11,0.045-0.161,0.059c-0.085,0.024-0.149,0.053-0.195,0.084
			c-0.046,0.03-0.108,0.067-0.188,0.108c-0.054,0.069-0.159,0.146-0.318,0.228c-0.165,0.064-0.316,0.141-0.457,0.226
			c-0.14,0.086-0.271,0.174-0.391,0.263c-0.051,0.015-0.089,0.043-0.113,0.086c0.034,0.119,0.049,0.233,0.043,0.345
			c-0.004,0.111,0.022,0.204,0.08,0.279c0.023,0.084,0.036,0.157,0.035,0.222c0.001,0.063,0.008,0.122,0.022,0.173
			c-0.007,0.039-0.001,0.092,0.018,0.159c0.024,0.085,0.079,0.115,0.163,0.091c0.046-0.03,0.087-0.048,0.123-0.05
			c0.036,0,0.068-0.014,0.098-0.04c0.189-0.108,0.385-0.192,0.588-0.25c0.168-0.048,0.275-0.088,0.322-0.119
			c0.023-0.044,0.061-0.072,0.111-0.087c0.133,0.018,0.248,0.003,0.345-0.043c0.097-0.045,0.209-0.068,0.337-0.068
			c0.089-0.008,0.185-0.025,0.285-0.054c0.102-0.029,0.208-0.042,0.319-0.036c0.072-0.003,0.136-0.003,0.192,0
			c0.055,0.002,0.115,0.022,0.181,0.059l0.155,0.065c0.077,0.014,0.143,0.05,0.195,0.107c0.092,0.066,0.171,0.135,0.237,0.206
			c0.066,0.074,0.147,0.15,0.243,0.232c0.062,0.021,0.096,0.046,0.105,0.08c0.015,0.05,0.033,0.1,0.057,0.148
			c0.022,0.048,0.039,0.09,0.049,0.123l0.126,0.156c0.044,0.024,0.067,0.059,0.071,0.104c0.003,0.045,0.018,0.081,0.045,0.11
			c0.077,0.142,0.156,0.275,0.236,0.398c0.08,0.124,0.174,0.242,0.28,0.358c0.026,0.029,0.037,0.049,0.031,0.06
			c-0.007,0.013-0.007,0.024-0.002,0.042c-0.011,0.094-0.013,0.149-0.008,0.166c0.005,0.018,0.046,0.033,0.124,0.048
			c0.009,0.034,0.03,0.046,0.064,0.036c0.021,0.012,0.021,0.039-0.004,0.083l-0.182,0.134c-0.045,0.031-0.094,0.055-0.145,0.069
			c-0.102,0.028-0.18,0.042-0.235,0.04c-0.174,0.031-0.328,0.065-0.463,0.104c-0.136,0.039-0.279,0.08-0.432,0.123l-0.151,0.043
			c-0.187,0.054-0.358,0.106-0.517,0.16c-0.158,0.056-0.309,0.121-0.451,0.198l-1.325,0.733c-0.109,0.067-0.202,0.126-0.279,0.176
			c-0.077,0.049-0.179,0.11-0.305,0.183c-0.041,0.048-0.051,0.106-0.032,0.174c0.015,0.051,0.032,0.083,0.054,0.095
			c0.034-0.01,0.083,0.003,0.148,0.04l-0.08,0.104c-0.007,0.039,0.002,0.101,0.025,0.185l0.206,0.243
			c0.054,0.058,0.038,0.099-0.047,0.123c-0.085,0.023-0.109,0.097-0.076,0.214c0.05,0.113,0.084,0.232,0.102,0.354
			c0.019,0.068,0.041,0.13,0.067,0.188c0.024,0.057,0.042,0.101,0.052,0.135s0.03,0.046,0.064,0.036l0.203-0.058
			c0.051-0.014,0.068-0.047,0.054-0.098c0.006-0.111-0.028-0.229-0.101-0.355L200.547,17.192z"/>
	</g>
</g>
<g id="Greedy">
</g>
<g id="Pushup">
</g>
<g id="Clothes_Swap">
</g>
</svg>
