<?xml version="1.0" encoding="utf-8"?>
<!-- Generator: Adobe Illustrator 16.0.0, SVG Export Plug-In . SVG Version: 6.00 Build 0)  -->
<!DOCTYPE svg PUBLIC "-//W3C//DTD SVG 1.1//EN" "http://www.w3.org/Graphics/SVG/1.1/DTD/svg11.dtd">
<svg version="1.1" xmlns="http://www.w3.org/2000/svg" xmlns:xlink="http://www.w3.org/1999/xlink" x="0px" y="0px"
	 width="209.76px" height="62.36px" viewBox="0 0 209.76 62.36" enable-background="new 0 0 209.76 62.36" xml:space="preserve">
<g id="Layer_1">
</g>
<g id="Can_of_Whoop-Ass">
</g>
<g id="Gun_Show">
</g>
<g id="Chicken">
</g>
<g id="Copycat">
</g>
<g id="Quiet">
</g>
<g id="DOCTOR">
</g>
<g id="Psychiatrist">
	<g>
		<g>
			<path fill="#010101" d="M5.276,29.895c-1.326,0-2.405-1.079-2.405-2.405c0-1.327,1.079-2.404,2.405-2.404
				s2.405,1.077,2.405,2.404C7.681,28.815,6.602,29.895,5.276,29.895z M5.276,26.729c-0.419,0-0.76,0.341-0.76,0.76
				c0,0.418,0.341,0.76,0.76,0.76s0.76-0.342,0.76-0.76C6.036,27.07,5.696,26.729,5.276,26.729z"/>
		</g>
		<path fill="#010101" d="M77.491,39.705c0-2.468-2.007-4.477-4.477-4.477H55.743c-0.155-1.744-0.818-3.172-1.977-4.253
			c-2.995-2.794-8.437-2.418-10.759-2.256c-0.333,0.022-2.221,0.061-2.917,0.077c-4.238,0.104-8.24,0.203-14.795-3.602
			c-9.735-5.648-17.513-3.527-19.039-3.02c-0.544-0.005-0.916,0.025-1.037,0.038C2.336,22.244,0,24.599,0,27.489
			c0,2.841,2.258,5.163,5.073,5.27c7.411,3.644,8.681,15.751,8.838,17.709c0.006-0.007,0.058,0.5,0.122,0.616
			c-0.14,0.287-0.221,0.607-0.221,0.947c0,0.54,0.2,1.032,0.529,1.411c0.147,1.055,0.268,2.082,0.368,3.177
			c-0.554,0.396-0.897,1.041-0.897,1.755c0,0.841,0.49,1.585,1.212,1.939l0.089,1.045c0.036,0.425,0.392,0.752,0.819,0.752h1.746
			c0.427,0,0.782-0.326,0.819-0.752c0,0,0.033-0.388,0.089-1.045c0.722-0.354,1.212-1.099,1.212-1.939
			c0-0.714-0.342-1.358-0.897-1.755c0.1-1.094,0.22-2.121,0.369-3.177c0.328-0.379,0.529-0.871,0.529-1.411
			c0-0.179-0.024-0.35-0.065-0.515h51.835c-0.04,0.165-0.063,0.337-0.063,0.515c0,0.54,0.2,1.032,0.529,1.411
			c0.148,1.055,0.267,2.082,0.368,3.177c-0.555,0.396-0.897,1.041-0.897,1.755c0,0.841,0.49,1.585,1.211,1.939l0.089,1.045
			c0.037,0.425,0.392,0.752,0.819,0.752h1.745c0.426,0,0.783-0.326,0.819-0.752c0,0,0.034-0.388,0.09-1.045
			c0.722-0.354,1.211-1.099,1.211-1.939c0-0.714-0.342-1.358-0.896-1.755c0.1-1.094,0.219-2.121,0.367-3.177
			c0.329-0.379,0.529-0.871,0.529-1.411c0-0.299-0.061-0.583-0.17-0.841c0.104-0.139,0.17-0.309,0.17-0.497V39.705L77.491,39.705z
			 M73.014,36.873c1.562,0,2.833,1.271,2.833,2.832v7.982c-3.213-1.803-10.388-2.341-14.669-2.341c-3.316,0-5.524,0.461-7.66,0.908
			c-2.149,0.45-4.37,0.915-7.816,0.915c-3.444,0-5.666-0.465-7.814-0.915c-2.136-0.445-4.344-0.908-7.66-0.908
			c-4.276,0-11.442,0.538-14.653,2.34v-7.981c0-1.562,1.271-2.832,2.833-2.832H73.014z M24.469,26.617
			c6.957,4.038,11.381,3.93,15.662,3.824c0.686-0.017,2.597-0.055,2.99-0.081c2.11-0.147,7.05-0.489,9.523,1.817
			c0.83,0.776,1.307,1.78,1.447,3.051H18.407c-0.042,0-0.084,0.003-0.126,0.004c-0.164-4.485-1.525-7.902-4.056-10.162
			c-1.056-0.942-2.206-1.584-3.319-2.017C14.161,22.895,18.993,23.439,24.469,26.617z M1.645,27.489
			c0-2.003,1.629-3.633,3.631-3.633s3.632,1.63,3.632,3.633c0,2.002-1.629,3.631-3.632,3.631S1.645,29.491,1.645,27.489z
			 M13.93,39.705v2.42c-1.161-3.587-3.129-7.469-6.457-9.84c1.815-0.835,3.08-2.67,3.08-4.796c0-1.192-0.397-2.291-1.065-3.175
			c1.205,0.356,2.506,0.965,3.655,1.995c2.229,1.997,3.406,5.12,3.505,9.279C15.051,36.274,13.93,37.86,13.93,39.705z
			 M17.707,58.883c-0.384,0.05-0.68,0.36-0.712,0.746c-0.028,0.321-0.052,0.603-0.072,0.836h-0.235l-0.071-0.836
			c-0.034-0.386-0.33-0.696-0.713-0.746c-0.254-0.033-0.446-0.253-0.446-0.509c0-0.229,0.146-0.425,0.362-0.493
			c0.369-0.112,0.61-0.469,0.577-0.854c-0.083-0.988-0.18-1.913-0.296-2.836h1.411c-0.116,0.924-0.212,1.849-0.296,2.836
			c-0.032,0.385,0.208,0.74,0.577,0.854c0.216,0.068,0.362,0.265,0.362,0.493C18.153,58.63,17.961,58.85,17.707,58.883z
			 M17.638,52.546h-1.667c-0.284,0-0.515-0.231-0.515-0.515c0-0.284,0.231-0.515,0.515-0.515h1.667c0.284,0,0.515,0.23,0.515,0.515
			C18.153,52.314,17.922,52.546,17.638,52.546z M15.575,49.871v-0.058c0-0.182,0.662-1.014,3.898-1.776
			c2.863-0.675,6.682-1.046,10.754-1.046c3.145,0,5.174,0.425,7.323,0.874c2.23,0.466,4.537,0.948,8.151,0.948
			c3.617,0,5.922-0.482,8.152-0.948c2.148-0.449,4.177-0.874,7.324-0.874c4.074,0,7.895,0.371,10.763,1.046
			c3.243,0.763,3.906,1.595,3.906,1.776v0.058H15.575z M75.399,58.883c-0.383,0.05-0.681,0.36-0.712,0.746
			c-0.028,0.321-0.052,0.603-0.073,0.836H74.38l-0.072-0.836c-0.033-0.386-0.33-0.696-0.712-0.746
			c-0.255-0.033-0.448-0.253-0.448-0.509c0-0.229,0.147-0.425,0.363-0.493c0.37-0.112,0.61-0.469,0.577-0.854
			c-0.083-0.988-0.18-1.913-0.296-2.836h1.413c-0.116,0.924-0.213,1.849-0.296,2.836c-0.034,0.385,0.206,0.74,0.575,0.854
			c0.217,0.068,0.363,0.265,0.363,0.493C75.846,58.63,75.653,58.85,75.399,58.883z M75.332,52.546h-1.667
			c-0.284,0-0.516-0.231-0.516-0.515c0-0.284,0.232-0.515,0.516-0.515h1.667c0.283,0,0.515,0.23,0.515,0.515
			C75.846,52.314,75.614,52.546,75.332,52.546z"/>
	</g>
	<g>
		<path d="M83.662,54.136c0.243,0.054,0.513,0.189,0.513,0.486c0,0.351-0.675,1.241-1.376,2.187
			c-0.351,0.485-0.917,1.269-1.593,1.269c-0.647,0-0.917-0.378-0.917-0.972c0-1.188,1.917-4.13,2.564-5.264
			c-0.648-0.405-1.215-0.891-1.215-1.728c0-1.565,3.185-2.295,4.319-2.646l4.292-5.669c-4.724,0.081-8.476,1.809-9.286,1.809
			c-0.162,0-0.432-0.026-0.432-0.27c0-0.647,1.566-2.727,1.998-3.32c0.486-0.675,1.296-0.891,2.052-1.106
			c2.348-0.675,4.832-0.945,7.261-0.945c6.694,0,8.557,2.16,8.557,5.507c0,5.75-6.991,9.799-15.628,8.827L83.662,54.136z
			 M88.385,47.118c0.999,0,2.105-0.378,2.105,0.135c0,0.54-2.294,0.675-2.726,0.972l-0.594,0.891c0.999,0.27,1.917,0.324,2.78,0.27
			c5.291-0.297,8.772-4.156,8.476-5.857c-0.297-1.646-5.372-1.97-6.613-1.97c-0.027,0.729-0.189,1.079-0.594,1.646L88.385,47.118z"
			/>
		<path d="M108.473,52.139l0.271,1.025c-1.646,1.646-4.589,4.104-6.749,3.995c-1.808-0.081-3.806-1.106-4.292-3.077
			c-0.162,0.162-0.351,0.351-0.594,0.351c-0.27,0-0.458-0.27-0.458-0.513c0-0.351,0.432-0.729,0.647-0.944l5.857-5.372
			c0.054-0.891,0.567-1.754,1.539-1.754c0.81,0,0.972,0.242,1.052,0.998c0.108,1.026,0.513,1.943,0.513,3.132
			c0,2.213-1.782,3.859-3.509,4.912c1.728,0.297,2.78-0.513,4.103-1.512L108.473,52.139z M99.295,52.705
			c0.999,0.055,1.593,0.891,2.105,1.593c1.62-0.999,2.052-1.458,2.132-3.023c-0.081-0.566-0.189-1.295-0.351-2.213L99.295,52.705z"
			/>
		<path d="M113.199,61.262c-0.27,0.297-1.025,1.35-1.457,1.35c-0.567,0-0.811-1.322-0.811-1.781c0-0.432,0.514-1.269,0.729-1.619
			l3.617-6.101l-0.054-0.054c-2.214,1.862-4.184,3.319-4.508,3.293c-0.756-0.055-2.052-1.188-2.132-3.186
			c-0.108-3.239,4.508-6.667,5.264-6.694c0.404,0,1.16,0.864,1.16,1.242c0,1.025-3.051,3.833-3.941,4.534
			c-0.323,0.459-0.485,0.999-0.512,1.566c1.43-0.162,2.726-1.323,3.859-2.376c2.78-2.564,4.508-4.427,5.021-4.508
			c0.459-0.081,0.729,0.972,0.729,1.35c0,0.702-0.729,1.809-1.107,2.376l-3.994,5.938l0.053,0.054l5.993-5.317l0.216,0.998
			L113.199,61.262z"/>
		<path d="M123.676,51.707c-0.594,0.432-1.08,0.836-1.08,1.592c0,0.621,0.647,1.458,2.051,1.458c2.052,0,4.4-1.89,5.966-3.104
			l0.324,1.053c-1.647,1.755-4.67,4.427-7.234,4.427c-2.078,0-3.077-1.943-3.077-3.94c0-2.268,0.811-3.104,2.564-4.427
			c1.215-0.918,3.807-2.376,5.317-2.376c0.837,0,1.215,0.433,1.215,1.242c0,1.484-2.132,3.563-2.861,3.563
			c-0.62,0-0.891-0.675-0.917-1.188L123.676,51.707z"/>
		<path d="M132.1,53.38c1.322-1.053,6.235-5.371,7.72-5.371c0.647,0,1.296,0.675,1.296,1.296c0,0.513-1.08,1.7-1.404,2.078
			c-1.673,2.024-1.592,2.105-1.592,2.375c0,0.352,0.27,0.567,0.594,0.567c0.891,0,2.861-1.458,3.645-1.971l0.135,1.106
			c-1.242,0.945-4.508,3.59-5.992,3.59c-0.811,0-1.242-0.701-1.242-1.431c0-1.7,1.862-3.752,2.834-5.021l-0.054-0.054
			c-4.616,3.158-5.966,6.02-6.829,6.02c-0.945,0-1.08-2.105-1.08-2.727c0-1.862,0.702-3.158,1.646-4.696
			c3.186-5.264,8.557-9.987,9.475-9.987c0.432,0,1.16,0.188,1.16,0.729c0,1.836-8.583,10.743-10.311,12.443V53.38z"/>
		<path d="M146.732,54.945c-0.513,0.405-2.24,1.809-2.861,1.809c-0.756,0-2.321-1.781-2.375-3.185
			c-0.108-3.374,6.91-6.829,10.041-6.91c1.242-0.027,1.754,0.972,1.754,1.296c0,0.323-0.701,0.594-0.944,0.675
			c0.513,0.216,0.783,0.513,0.783,1.106c0,0.863-2.349,2.753-2.349,4.021c0,0.459,0.404,0.648,0.837,0.648
			c1.134,0,2.673-1.377,3.833-2.16l0.216,0.999c-1.161,1.322-4.778,4.211-6.101,4.211c-0.891,0-1.295-0.647-1.295-1.431
			c0-0.863,0.647-2.294,0.998-3.023l-0.054-0.054L146.732,54.945z M143.467,54.244c0.026,0.135,0.135,0.621,0.539,0.54
			c0.54-0.108,1.377-0.027,6.721-5.426l-0.053-0.054C144.249,51.274,143.467,52.921,143.467,54.244z"/>
		<path d="M163.094,53.272c-1.215,1.484-3.59,3.914-5.642,3.914c-1.593,0-2.321-1.836-2.321-3.213c0-3.293,3.374-6.505,4.993-6.505
			c0.459,0,1.188,0.162,1.188,0.756c0,1.35-2.673,3.752-3.807,4.535c-0.216,1.106,0.189,1.7,1.431,1.7
			c1.431,0,2.835-1.431,3.914-2.214L163.094,53.272z M160.502,45.769c0-1.107,1.296-2.079,2.349-2.079
			c0.485,0,0.891,0.352,0.891,0.837c0,1.08-0.999,2.402-2.159,2.402C160.934,46.929,160.502,46.416,160.502,45.769z"/>
		<path d="M172.354,45.525c-1.269,2.564-1.484,3.563-4.453,3.374c-0.918,1.188-2.457,3.401-2.457,5.021
			c0,0.594,0.189,0.945,0.811,0.945c0.863,0,1.835-0.811,4.643-2.808l0.135,1.188c-1.593,1.458-4.508,4.346-6.803,4.346
			c-1.053,0-1.7-0.729-1.7-1.809c0-0.891,0.351-1.916,0.702-2.699l-0.055-0.054l-1.376,1.106l-0.297-1.025
			c1.619-1.242,3.104-2.618,4.103-4.319c-1.646,0-1.134-0.107-2.564,0.108l0.297-0.486c1.458-2.375,1.674-2.807,4.563-2.915
			c0.81-1.106,1.403-2.375,2.969-2.375c0.352,0,0.863,0.081,0.863,0.513c0,0.486-0.782,1.377-1.053,1.755L172.354,45.525z"/>
		<path d="M172.761,50.924c-0.944,1.484-2.079,2.187-3.239,3.347l-0.107-1.188c0.701-0.566,1.268-1.241,1.781-1.971
			c-0.567-0.054-0.729-0.27-0.729-0.836c0-1.944,2.752-3.888,3.4-3.888c0.27,0,0.486,0.216,0.486,0.459
			c0,0.271-0.082,0.513-0.189,0.756c2.537-0.351,4.021-0.675,4.292-0.351c0.405,0.513,0.594,0.944,0.647,1.431
			c0,0.837-0.513,1.241-1.133,1.754c-0.783,0.675-2.105,1.998-2.105,3.077c0,0.433,0.432,0.756,0.836,0.756
			c1.161,0,2.861-1.754,3.752-2.429l0.189,0.998c-1.025,1.161-4.13,4.157-5.668,4.157c-1.135,0-1.836-1.053-1.836-2.078
			c0-1.836,1.403-3.267,2.483-4.562l-0.054-0.055L172.761,50.924z"/>
		<path d="M187.879,53.272c-1.215,1.484-3.59,3.914-5.641,3.914c-1.594,0-2.322-1.836-2.322-3.213c0-3.293,3.374-6.505,4.994-6.505
			c0.459,0,1.188,0.162,1.188,0.756c0,1.35-2.672,3.752-3.807,4.535c-0.215,1.106,0.189,1.7,1.432,1.7
			c1.43,0,2.834-1.431,3.914-2.214L187.879,53.272z M185.287,45.769c0-1.107,1.297-2.079,2.35-2.079
			c0.485,0,0.891,0.352,0.891,0.837c0,1.08-0.999,2.402-2.16,2.402C185.72,46.929,185.287,46.416,185.287,45.769z"/>
		<path d="M197.166,52.139l0.271,1.025c-1.646,1.646-4.589,4.104-6.749,3.995c-1.808-0.081-3.805-1.106-4.291-3.077
			c-0.162,0.162-0.352,0.351-0.594,0.351c-0.27,0-0.459-0.27-0.459-0.513c0-0.351,0.432-0.729,0.647-0.944l5.857-5.372
			c0.054-0.891,0.567-1.754,1.539-1.754c0.81,0,0.972,0.242,1.052,0.998c0.109,1.026,0.514,1.943,0.514,3.132
			c0,2.213-1.781,3.859-3.51,4.912c1.729,0.297,2.781-0.513,4.104-1.512L197.166,52.139z M187.988,52.705
			c1,0.055,1.594,0.891,2.105,1.593c1.62-0.999,2.053-1.458,2.133-3.023c-0.08-0.566-0.189-1.295-0.351-2.213L187.988,52.705z"/>
		<path d="M206.832,45.525c-1.269,2.564-1.484,3.563-4.453,3.374c-0.918,1.188-2.457,3.401-2.457,5.021
			c0,0.594,0.189,0.945,0.811,0.945c0.863,0,1.835-0.811,4.643-2.808l0.135,1.188c-1.593,1.458-4.508,4.346-6.803,4.346
			c-1.053,0-1.7-0.729-1.7-1.809c0-0.891,0.351-1.916,0.702-2.699l-0.055-0.054l-1.376,1.106l-0.297-1.025
			c1.619-1.242,3.104-2.618,4.103-4.319c-1.646,0-1.134-0.107-2.564,0.108l0.297-0.486c1.458-2.375,1.674-2.807,4.563-2.915
			c0.81-1.106,1.403-2.375,2.969-2.375c0.352,0,0.863,0.081,0.863,0.513c0,0.486-0.782,1.377-1.053,1.755L206.832,45.525z"/>
	</g>
</g>
<g id="Remove">
</g>
<g id="Layer_10">
</g>
<g id="Bipolar">
	<g id="Layer_12">
	</g>
</g>
<g id="YesorNo">
</g>
<g id="Deja_Vu">
</g>
<g id="Indecisive">
</g>
<g id="Greedy">
</g>
<g id="Pushup">
</g>
<g id="Clothes_Swap">
</g>
</svg>
