<?xml version="1.0" encoding="utf-8"?>
<!-- Generator: Adobe Illustrator 16.0.0, SVG Export Plug-In . SVG Version: 6.00 Build 0)  -->
<!DOCTYPE svg PUBLIC "-//W3C//DTD SVG 1.1//EN" "http://www.w3.org/Graphics/SVG/1.1/DTD/svg11.dtd">
<svg version="1.1" xmlns="http://www.w3.org/2000/svg" xmlns:xlink="http://www.w3.org/1999/xlink" x="0px" y="0px"
	 width="209.76px" height="62.36px" viewBox="0 0 209.76 62.36" enable-background="new 0 0 209.76 62.36" xml:space="preserve">
<g id="Layer_1">
</g>
<g id="Can_of_Whoop-Ass">
	<g>
		<path fill-rule="evenodd" clip-rule="evenodd" d="M144.45,22.409c2.092,1.352,4.643,2.682,6.802,4.48
			c2.281,1.898,4.374,4.101,6.211,6.437c1.769,2.246,1.576,3.383-0.1,5.7c-5.101,7.049-10.267,14.052-15.3,21.149
			c-1.349,1.9-3.069,2.632-5.157,2.204c-1.982-0.409-3.995-1.025-5.781-1.958c-3.614-1.883-6.882-4.308-9.483-7.496
			c-0.756-0.925-1.384-1.994-1.87-3.085c-0.774-1.738-0.657-3.357,0.573-5.021c5.517-7.461,10.929-14.997,16.328-22.435
			c-3.683-5.903-4.004-11.899-0.778-17.983c0.645-1.216,1.681-2.317,2.767-3.184c2.702-2.155,6.002-1.713,8.024,1.11
			c3.183,4.442,3,9.335,1.213,14.174C147.121,18.605,145.625,20.441,144.45,22.409z M132.536,29.739
			c-2.672,3.682-5.262,7.203-7.771,10.78c-0.225,0.319-0.129,1.155,0.142,1.479c1.788,2.13,3.511,4.349,5.544,6.227
			c3.521,3.251,7.603,5.625,12.27,6.93c1.024,0.286,1.629,0.098,2.222-0.805c1.102-1.673,2.334-3.259,3.513-4.881
			c1.258-1.734,2.516-3.468,3.893-5.363c-4.286-1.069-7.867-3.003-11.211-5.448C137.792,36.21,134.947,33.298,132.536,29.739z
			 M143.357,56.453c-8.384-2.434-14.771-7.385-19.786-14.367c-0.86,1.185-1.531,2.267-2.358,3.21
			c-1.129,1.289-1.165,2.665-0.537,4.113c0.353,0.813,0.797,1.606,1.323,2.316c2.427,3.288,5.675,5.646,9.195,7.565
			c1.811,0.987,3.868,1.637,5.896,2.061c0.985,0.206,2.438-0.14,3.176-0.801C141.485,59.46,142.298,57.913,143.357,56.453z
			 M156.914,37.807c-8.473-2.435-14.947-7.172-19.954-14.168c-1.039,1.433-2.011,2.864-3.085,4.215
			c-0.554,0.698-0.625,1.267-0.038,1.927c1.85,2.073,3.54,4.316,5.575,6.185c3.563,3.269,7.674,5.716,12.43,6.887
			c0.492,0.122,1.322-0.015,1.605-0.356C154.651,41.043,155.708,39.469,156.914,37.807z M141.515,21.254
			c0.081,0.159,0.16,0.319,0.242,0.48c0.786-0.312,1.731-0.439,2.331-0.963c4.229-3.697,5.314-12.811,2.155-17.439
			c-2.027-2.972-5.28-3.249-7.767-0.663c-4.095,4.262-4.971,11.374-2.034,17.434c0.537,1.113,1.469,1.4,2.325,1.087
			c-0.852-1.381-2.048-2.674-2.508-4.191c-1.315-4.365-0.685-8.575,2.003-12.325c2.554-3.565,6.377-3.112,8.054,0.951
			c1.459,3.536,1.19,7.131-0.124,10.646C145.345,18.539,144.031,20.471,141.515,21.254z M144.328,17.845
			c0.156-0.316,0.577-0.994,0.847-1.728c1.31-3.575,1.684-7.186-0.094-10.711c-1.242-2.462-3.234-2.774-5.24-0.974
			c-2.961,2.658-4.138,9.188-2.361,13.107C138.981,20.854,141.911,21.148,144.328,17.845z M157.775,36.458
			c-0.405-0.919-0.688-1.917-1.234-2.743c-2.185-3.31-5.106-5.914-8.506-7.868c-2.434-1.402-5.1-2.421-7.721-3.469
			c-0.654-0.26-1.53,0.037-2.624,0.093C146.537,24.555,152.801,29.352,157.775,36.458z"/>
		<path fill-rule="evenodd" clip-rule="evenodd" fill="#FFFFFF" d="M143.357,56.453c-1.06,1.46-1.872,3.007-3.092,4.098
			c-0.737,0.661-2.19,1.007-3.176,0.801c-2.027-0.424-4.085-1.073-5.896-2.061c-3.521-1.92-6.769-4.277-9.195-7.565
			c-0.526-0.71-0.971-1.504-1.323-2.316c-0.628-1.448-0.592-2.824,0.537-4.113c0.827-0.943,1.498-2.025,2.358-3.21
			C128.587,49.068,134.974,54.02,143.357,56.453z"/>
		<path fill-rule="evenodd" clip-rule="evenodd" fill="#FFFFFF" d="M156.914,37.807c-1.206,1.662-2.263,3.236-3.467,4.688
			c-0.283,0.342-1.113,0.479-1.605,0.356c-4.756-1.171-8.866-3.618-12.43-6.887c-2.035-1.868-3.726-4.111-5.575-6.185
			c-0.587-0.66-0.516-1.229,0.038-1.927c1.074-1.351,2.046-2.782,3.085-4.215C141.967,30.635,148.441,35.372,156.914,37.807z"/>
		<path fill-rule="evenodd" clip-rule="evenodd" fill="#FFFFFF" d="M141.515,21.254c2.517-0.783,3.83-2.715,4.678-4.984
			c1.314-3.515,1.583-7.109,0.124-10.646c-1.677-4.063-5.5-4.517-8.054-0.951c-2.688,3.75-3.318,7.96-2.003,12.325
			c0.46,1.518,1.656,2.811,2.508,4.191c-0.856,0.313-1.788,0.026-2.325-1.087c-2.937-6.06-2.061-13.172,2.034-17.434
			c2.486-2.586,5.739-2.309,7.767,0.663c3.159,4.629,2.074,13.742-2.155,17.439c-0.6,0.523-1.545,0.651-2.331,0.963
			C141.675,21.573,141.596,21.413,141.515,21.254z"/>
		<path fill-rule="evenodd" clip-rule="evenodd" fill="#FFFFFF" d="M144.328,17.845c-2.417,3.304-5.347,3.01-6.849-0.305
			c-1.776-3.919-0.6-10.449,2.361-13.107c2.006-1.801,3.998-1.488,5.24,0.974c1.777,3.525,1.403,7.136,0.094,10.711
			C144.905,16.851,144.484,17.528,144.328,17.845z M139.963,6.226c-2.095,3.835-2.721,7.288-1.43,10.855
			c0.32,0.889,1.388,1.986,2.219,2.085c0.839,0.101,2.149-0.704,2.662-1.494c2.008-3.103,2.457-6.546,1.45-10.124
			c-0.341-1.208-0.987-2.464-2.349-2.407C141.51,5.182,140.534,5.965,139.963,6.226z"/>
		<path fill-rule="evenodd" clip-rule="evenodd" fill="#FFFFFF" d="M157.775,36.458c-4.975-7.106-11.238-11.903-20.085-13.987
			c1.094-0.056,1.97-0.353,2.624-0.093c2.621,1.048,5.287,2.066,7.721,3.469c3.399,1.954,6.321,4.559,8.506,7.868
			C157.087,34.541,157.37,35.539,157.775,36.458z"/>
		<path fill-rule="evenodd" clip-rule="evenodd" d="M139.963,6.226c0.571-0.261,1.547-1.044,2.553-1.085
			c1.361-0.057,2.008,1.199,2.349,2.407c1.007,3.578,0.558,7.021-1.45,10.124c-0.513,0.79-1.823,1.595-2.662,1.494
			c-0.831-0.099-1.898-1.196-2.219-2.085C137.242,13.514,137.868,10.061,139.963,6.226z M142.51,17.433
			c1.819-3.355,2.448-6.573,1.237-9.955c-0.651-1.813-1.896-1.975-2.972-0.39c-2.01,2.959-2.411,6.225-1.329,9.615
			c0.194,0.609,0.835,1.373,1.387,1.485C141.368,18.297,142.058,17.659,142.51,17.433z"/>
		<path fill-rule="evenodd" clip-rule="evenodd" fill="#FFFFFF" d="M142.51,17.433c-0.452,0.227-1.142,0.864-1.677,0.756
			c-0.552-0.112-1.192-0.876-1.387-1.485c-1.082-3.391-0.681-6.656,1.329-9.615c1.076-1.585,2.32-1.424,2.972,0.39
			C144.958,10.859,144.329,14.077,142.51,17.433z"/>
		<g>
			<g>
				<path d="M131.926,41.813c-0.255,0.353-0.818,0.86-1.664,1.484c-0.637-0.092-0.942-0.158-1.514-0.34
					c-0.143-0.414-0.207-0.627-0.326-1.072c-0.396-0.173-0.586-0.272-0.936-0.51c-0.093-0.308-0.227-0.784-0.325-1.457
					c-0.065-0.447,0.024-1.041,0.239-1.718c0.18-0.564,0.371-0.981,0.561-1.242c0.293-0.403,0.657-0.509,1.161-0.411
					c0.354,0.891,0.579,1.265,1.104,1.919c-0.874-0.097-1.458,0.061-1.907,0.679c-0.192,0.265-0.341,0.655-0.44,1.158
					c0.085,0.047,0.126,0.071,0.214,0.114c1.127-0.846,1.712-1.298,2.913-2.246c-0.128,1.152-0.358,1.957-0.729,2.468
					c-0.271,0.374-0.677,0.751-1.201,1.107c0.014,0.091,0.021,0.136,0.035,0.226c0.119,0.025,0.177,0.037,0.299,0.059
					c1.237-0.992,1.875-1.515,3.178-2.597C132.524,40.497,132.312,41.28,131.926,41.813z"/>
				<path d="M137.639,41.775c-0.393,0.54-0.588,0.812-0.98,1.352c-0.997,1.373-2.337,2.292-3.922,2.616
					c0.646-0.891,0.97-1.336,1.615-2.227c-0.354-0.091-0.688-0.114-1.002-0.069c-0.313,0.045-0.536,0.161-0.679,0.357
					c-0.195,0.27-0.252,0.649-0.162,1.137c-0.713-0.269-1.061-0.416-1.714-0.767c0.9-1.241,1.349-1.862,2.249-3.104
					c0.817,0.058,1.25,0.06,2.132,0.029c-0.437,0.602-0.655,0.903-1.092,1.506c0.244,0.133,0.369,0.194,0.619,0.319
					c0.383-0.528,0.574-0.793,0.957-1.32C136.438,41.694,136.835,41.724,137.639,41.775z"/>
				<path d="M141.397,43.748c-0.562,0.773-1.193,1.365-1.893,1.771c-0.778,0.452-2.316,1.137-2.948,0.938
					c-0.101-0.031-0.275-0.254-0.415-0.376c-0.172-0.149-0.293-0.278-0.363-0.383c-0.095-0.14-0.088-0.405,0.028-0.789
					c0.1-0.331,0.221-0.593,0.359-0.783c0.693-0.956,1.772-1.597,3.26-1.959C140.246,42.756,140.651,43.056,141.397,43.748z
					 M138.791,44.488c0.262-0.36,0.209-1.054,0.104-1.09c-0.197-0.068-1.064,0.628-1.402,1.093
					c-0.279,0.385-0.409,1.055-0.359,1.089C137.281,45.683,138.39,45.042,138.791,44.488z"/>
				<path d="M145.174,45.694c-0.597,0.821-1.217,1.396-1.867,1.734c-0.726,0.378-2.222,0.832-2.692,0.586
					c-0.089-0.046-0.22-0.33-0.336-0.484c-0.144-0.189-0.245-0.345-0.303-0.468c-0.077-0.165-0.044-0.461,0.098-0.88
					c0.122-0.361,0.255-0.642,0.402-0.845c0.739-1.019,1.843-1.692,3.231-1.92C144.382,44.206,144.687,44.646,145.174,45.694z
					 M142.85,46.045c0.278-0.383,0.314-1.226,0.234-1.265c-0.143-0.07-1.038,0.589-1.397,1.084c-0.297,0.409-0.495,1.17-0.448,1.211
					C141.355,47.176,142.423,46.634,142.85,46.045z"/>
				<path d="M147.741,49.198c-0.498,0.686-0.962,1.034-1.42,1.081c-0.459,0.048-0.979-0.199-1.672-0.587
					c-0.255,0.351-0.382,0.527-0.637,0.878c-0.513-0.482-0.798-0.682-1.415-1.021c1.369-1.887,2.051-2.827,3.42-4.714
					C147.017,46.154,147.405,46.967,147.741,49.198z M146.217,48.451c0.215-0.296,0.378-1.212,0.267-1.312
					c-0.098-0.087-0.774,0.228-1.067,0.632c-0.178,0.245-0.425,0.938-0.339,1.072C145.175,48.994,145.903,48.884,146.217,48.451z"/>
			</g>
		</g>
	</g>
	<g>
		<path d="M40.164,25.713c-0.227,0.612-1.439,1.417-3.638,2.414c0.181,0.023,0.43,0.103,0.748,0.238
			c-0.023,0.113-0.08,0.261-0.171,0.442c-0.951,1.134-2.334,1.927-4.147,2.38c-1.314,0.271-2.63,0.544-3.944,0.815
			c-0.227,0.046-0.556,0.103-0.985,0.17c-3.673,0.726-6.336,1.089-7.99,1.089c-4.058,0-6.086-1.326-6.086-3.979
			c0-0.838,0.204-1.824,0.611-2.958c0.612-1.654,2.244-4.091,4.896-7.31c2.402-2.901,5.53-5.633,9.384-8.194
			c3.989-2.652,7.412-4.228,10.269-4.726c0.204-0.091,0.521-0.192,0.951-0.307c1.769-0.34,2.925-0.51,3.469-0.51
			c0.838,0,1.756,0.317,2.754,0.952c-0.114,0.476-0.635,0.985-1.564,1.53c-0.839,0.476-1.519,0.714-2.04,0.714
			c-0.067,0-0.21-0.046-0.425-0.137c-0.216-0.09-0.356-0.136-0.425-0.136s-0.238,0.085-0.51,0.255
			c-0.272,0.17-0.442,0.267-0.511,0.289c-4.171,1.882-7.548,3.729-10.132,5.542c-2.018,1.406-3.524,2.8-4.521,4.183
			c-1.179,1.654-1.927,2.901-2.244,3.739c-0.046,0.408-0.147,1.021-0.306,1.836c-0.046,0.114-0.068,0.238-0.068,0.374
			c0,0.522,0.164,1.094,0.493,1.718c0.328,0.623,0.708,1.003,1.139,1.139c1.11,0.408,2.267,0.612,3.468,0.612
			c1.225,0,2.901-0.261,5.032-0.782c1.949-0.477,3.74-1.021,5.372-1.632c0.227-0.091,0.453-0.137,0.68-0.137
			C40.107,25.339,40.254,25.464,40.164,25.713z M37.342,8.476c-0.362,0.112-0.691,0.191-0.985,0.236
			c-1.066,0.181-2.517,0.777-4.353,1.79c-0.815,0.473-1.858,1.114-3.128,1.925c-2.494,1.915-4.704,4.043-6.63,6.385
			C25.215,15.592,30.247,12.146,37.342,8.476z"/>
		<path d="M71.308,24.115c-0.272,0.771-1.791,1.666-4.556,2.686c0.045,2.177,0,3.435-0.137,3.774
			c-0.204,0.59-0.765,1.162-1.683,1.717c-0.918,0.556-1.672,0.787-2.261,0.697c0.022-0.906,0.067-2.606,0.136-5.1
			c-5.508,1.314-9.77,2.447-12.784,3.399c-0.34,0.091-0.815,0.25-1.428,0.477c-0.363,0.203-0.72,0.396-1.071,0.577
			c-0.352,0.183-0.697,0.272-1.037,0.272c-0.386,0-0.51-0.192-0.374-0.578c0.182-0.476,0.816-1.496,1.904-3.06
			c0.975-1.383,1.428-2.131,1.36-2.244c-0.976,1.156-1.938,2.301-2.891,3.434c-1.519,1.632-2.867,2.448-4.046,2.448
			c-0.386,0-0.578-0.079-0.578-0.238c0-0.045,0.022-0.124,0.068-0.237c0.045-0.113,0.566-0.918,1.563-2.414
			c1.089-1.633,1.983-2.913,2.687-3.843c3.15-3.943,7.865-9.894,14.144-17.85c0.159-0.271,0.453-0.657,0.885-1.156
			c1.042-0.861,1.994-1.292,2.855-1.292c0.317,0,0.477,0.103,0.477,0.307c0,0.067-0.023,0.164-0.068,0.289
			c-0.046,0.124-0.057,0.187-0.034,0.187c0.091,0,0.635-0.164,1.632-0.493c0.997-0.328,1.541-0.493,1.632-0.493
			c0.386,0,0.578,0.148,0.578,0.442c-0.249,3.31-0.544,8.285-0.884,14.926c1.881-0.385,2.856-0.578,2.924-0.578
			c0.521,0,0.726,0.159,0.612,0.477c-0.136,0.386-0.748,0.918-1.836,1.598c-0.658,0.386-1.314,0.771-1.972,1.156
			c-0.159,0.93-0.148,1.394,0.033,1.394c0.068,0,0.681-0.175,1.836-0.526c1.156-0.352,1.779-0.527,1.87-0.527
			C71.251,23.741,71.397,23.866,71.308,24.115z M63.386,21.974c0.09-2.879,0.283-5.825,0.578-8.841l-3.57,4.828
			c-0.34,0.431-2.414,3.253-6.222,8.466C56.778,24.863,59.85,23.379,63.386,21.974z M63.012,25.917
			c0.045-0.453,0.057-0.702,0.034-0.748c-0.726,0.34-1.7,0.782-2.924,1.326c0.294-0.068,0.77-0.164,1.428-0.289
			C62.207,26.082,62.694,25.985,63.012,25.917z"/>
		<path d="M103.438,7.558c-0.136,0.407-0.612,0.845-1.429,1.309c-0.815,0.465-1.247,0.731-1.292,0.799
			c-1.021,1.836-2.007,3.74-2.958,5.712c-0.727,1.542-1.452,3.095-2.177,4.658c-0.068,0.113-0.352,0.861-0.851,2.244
			c-0.612,1.654-0.969,2.788-1.071,3.4c-0.102,0.611-0.323,1.383-0.663,2.312c-0.091,0.295-0.261,0.737-0.51,1.326
			c-0.341,0.635-1.247,1.224-2.721,1.768c-0.137,0.59-0.714,1.19-1.734,1.803c-0.93,0.521-1.645,0.781-2.143,0.781
			c-0.453,0-0.816-0.407-1.089-1.224c-0.182-0.589-0.362-1.201-0.544-1.836s-0.51-2.267-0.985-4.896
			c-0.431-2.017-1.021-5.02-1.769-9.01c-0.204,0.272-0.363,0.577-0.477,0.917l-3.701,10.087c-0.234,0.666-0.416,1.551-0.544,2.653
			c0.113,0.023,0.307,0.115,0.578,0.276c-0.204,0.666-0.833,1.367-1.887,2.102c-1.055,0.733-1.898,1.044-2.533,0.931
			c-0.091-0.138-0.125-0.3-0.102-0.483c0.271-1.637,0.555-2.846,0.85-3.63l3.842-10.574c0.565-1.564,1.538-3.898,2.918-7.004
			c0.61-1.383,1.244-2.63,1.9-3.74c0.181-0.34,0.803-0.85,1.865-1.53c1.425-0.952,2.387-1.428,2.885-1.428
			c0.475,0,0.734,0.362,0.78,1.088c0.158,3.332,0.305,6.664,0.44,9.996c0.204,4.216,0.724,7.718,1.562,10.506
			c0.044-0.022,0.101-0.125,0.169-0.307c0.271-1.181,0.679-2.86,1.222-5.04c1.574-5.618,2.886-9.854,3.936-12.708
			c0.295-0.793,0.566-1.314,0.816-1.563c0.386-0.408,1.18-0.838,2.383-1.292c0.045-0.022,0.261-0.034,0.646-0.034
			c0.022,0.023,0.056,0.091,0.102,0.204c-0.431,1.27-0.827,2.528-1.189,3.774c2.334-3.15,4.25-4.692,5.745-4.624
			c0.046,0.113,0.068,0.238,0.068,0.374c0,0.022-0.091,0.476-0.271,1.36C103.506,7.127,103.482,7.308,103.438,7.558z M84.397,10.821
			c-0.091-0.249-0.125-0.532-0.102-0.85c-0.046,0.113-0.137,0.306-0.272,0.577c-0.136,0.272-0.216,0.465-0.238,0.578
			C83.943,11.06,84.147,10.957,84.397,10.821z M88.953,30.848c0.022-0.204,0.057-0.499,0.103-0.885
			c-0.091,0.046-0.307,0.182-0.646,0.408C88.636,30.644,88.817,30.802,88.953,30.848z"/>
	</g>
	<g>
		<path d="M108.025,40.049c-0.204,0.545-0.408,1.089-0.612,1.633c-0.295,0.726-0.76,1.666-1.395,2.821
			c-0.136,0.25-0.861,1.395-2.176,3.435c-1.088,1.7-3.071,3.575-5.95,5.627s-5.259,3.293-7.14,3.723
			c-0.227,0.136-0.544,0.307-0.952,0.51c-0.952,0.408-1.678,0.612-2.176,0.612c-0.386,0-0.714-0.097-0.986-0.289
			c-0.271-0.192-0.476-0.301-0.611-0.323c-0.454,0-1.077-0.079-1.87-0.237c-2.448-1.065-3.672-2.936-3.672-5.61
			c0-1.201,0.249-2.504,0.748-3.91c0.906-2.493,2.47-4.964,4.691-7.412c2.992-3.332,6.086-5.882,9.282-7.649
			c0.158-0.158,0.374-0.374,0.646-0.646c1.089-1.02,2.414-1.824,3.979-2.414c0.521-0.204,0.929-0.306,1.224-0.306
			c0.362,0,0.499,0.113,0.408,0.34c-0.022,0.114-0.261,0.374-0.714,0.782c0.521,0.046,1.224,0.046,2.108,0
			c1.11-0.045,1.802-0.068,2.073-0.068c1.179,0,2.097,0.17,2.754,0.51c0.25,0.114,0.59,0.612,1.021,1.496
			c0.271,0.544,0.408,1.247,0.408,2.108C109.113,36.253,108.75,38.009,108.025,40.049z M85.007,53.514
			c-0.022-0.59-0.022-1.395,0-2.414c0.113-0.499,0.227-1.168,0.34-2.006c0.113-1.564,0.453-3.026,1.021-4.387
			c-0.272,0.114-0.59,0.17-0.952,0.17c-0.431,0.907-0.691,1.462-0.782,1.666c-0.408,1.134-0.611,2.313-0.611,3.536
			C84.021,51.553,84.35,52.697,85.007,53.514z M98.199,46.985c0.476-1.314,0.714-2.074,0.714-2.278
			c-0.091-3.785-0.477-7.389-1.156-10.812c-0.59,0.362-1.179,0.726-1.768,1.088c-0.726,0.453-1.225,0.896-1.496,1.326
			c0.294,0.045,0.408,0.158,0.34,0.34c-0.046,0.067-0.113,0.159-0.204,0.271c-0.362,0.272-0.805,0.635-1.326,1.088
			c-0.295,0.363-0.805,1.213-1.529,2.551c-1.089,2.04-1.842,3.638-2.262,4.794c-0.419,1.155-0.663,1.983-0.73,2.481
			c-0.114,0.976,0.17,1.95,0.85,2.924c0.158,0.228,0.691,0.681,1.598,1.36c-0.158,0.386-0.556,0.782-1.189,1.19
			c-0.431,0.227-0.85,0.465-1.258,0.714c0.022,0.271,0.113,0.59,0.271,0.952c0.204,0.453,0.442,0.68,0.714,0.68
			c0.068,0,0.335-0.028,0.8-0.085c0.464-0.057,0.765-0.085,0.9-0.085c0.635-0.068,1.055-0.192,1.258-0.374
			c0.771-0.702,1.791-1.836,3.061-3.4C96.646,50.646,97.451,49.071,98.199,46.985z M101.327,47.972
			c-0.317,0.203-0.714,0.521-1.19,0.951c-0.022,0-0.635,0.907-1.836,2.721C99.706,50.283,100.715,49.06,101.327,47.972z
			 M104.625,41.545c0.657-1.813,0.986-3.479,0.986-4.998c0-2.13-0.726-3.286-2.177-3.468c-0.113,2.357-0.192,3.82-0.237,4.386
			c-0.137,1.746-0.408,3.56-0.816,5.44c0.022,0.499,0.012,1.168-0.034,2.006c-0.045,0.477-0.192,1.19-0.441,2.143
			C102.879,45.648,103.786,43.813,104.625,41.545z"/>
		<path d="M124.446,34.609c-0.431,1.201-1.031,2.335-1.802,3.399c-0.317,0.432-0.839,0.862-1.564,1.292
			c-0.726,0.432-1.325,0.646-1.802,0.646c-0.227,0-0.362-0.022-0.408-0.068c-0.045-0.045-0.091-0.306-0.136-0.781
			c-0.454,0.611-1.049,1.155-1.785,1.632c-0.736,0.476-1.354,0.714-1.853,0.714c-0.34,0-0.465-0.113-0.374-0.34
			c0.317-0.408,0.759-1.009,1.326-1.803c0.203-0.385,0.43-0.929,0.68-1.632c0.34-0.906,0.736-2.493,1.189-4.76
			c-0.022-0.113-0.033-0.294-0.033-0.544c0.181-0.476,0.702-0.94,1.563-1.394c0.748-0.386,1.292-0.578,1.632-0.578
			c0.272,0,0.431,0.113,0.477,0.34c0.022,0.159,0.011,0.396-0.034,0.714c0.34-0.612,0.906-1.139,1.7-1.581
			c0.793-0.442,1.428-0.617,1.903-0.527c0.113,0.204,0.171,0.363,0.171,0.477c-0.091,0.815-0.171,1.632-0.238,2.448
			C124.968,32.966,124.764,33.748,124.446,34.609z M120.876,36.173c0.272-0.725,0.442-1.359,0.511-1.903
			c0.09-0.793,0.17-1.575,0.237-2.347c0.022-0.271,0-0.407-0.067-0.407c-0.046,0-0.114,0.261-0.204,0.781
			c-0.091,0.635-0.159,1.009-0.204,1.122c-0.544,1.904-1.054,3.378-1.53,4.42c0.182-0.112,0.386-0.237,0.612-0.374
			C120.502,37.058,120.718,36.627,120.876,36.173z"/>
	</g>
	<g>
		<path d="M171.156,49.072c-0.176,0.499-1.159,1.078-2.948,1.738c0.029,1.408,0,2.222-0.088,2.441
			c-0.132,0.382-0.495,0.752-1.089,1.111c-0.595,0.359-1.082,0.51-1.463,0.451c0.014-0.587,0.044-1.687,0.088-3.3
			c-3.564,0.851-6.322,1.584-8.272,2.199c-0.22,0.06-0.527,0.162-0.924,0.309c-0.234,0.132-0.466,0.257-0.693,0.374
			s-0.45,0.176-0.671,0.176c-0.249,0-0.33-0.124-0.242-0.374c0.118-0.308,0.528-0.968,1.232-1.979
			c0.631-0.895,0.924-1.379,0.88-1.452c-0.631,0.748-1.254,1.488-1.87,2.222c-0.982,1.056-1.855,1.584-2.618,1.584
			c-0.249,0-0.374-0.051-0.374-0.154c0-0.029,0.015-0.08,0.045-0.153c0.028-0.073,0.366-0.595,1.012-1.563
			c0.704-1.056,1.283-1.885,1.738-2.486c2.038-2.552,5.089-6.401,9.151-11.55c0.103-0.176,0.293-0.425,0.572-0.748
			c0.675-0.557,1.29-0.836,1.848-0.836c0.205,0,0.309,0.066,0.309,0.198c0,0.044-0.015,0.106-0.044,0.187
			c-0.03,0.081-0.037,0.121-0.022,0.121c0.059,0,0.41-0.105,1.056-0.318s0.998-0.319,1.057-0.319c0.249,0,0.374,0.096,0.374,0.286
			c-0.162,2.142-0.353,5.36-0.572,9.658c1.217-0.249,1.848-0.374,1.892-0.374c0.338,0,0.47,0.103,0.396,0.308
			c-0.088,0.25-0.484,0.594-1.188,1.034c-0.425,0.25-0.851,0.499-1.275,0.748c-0.103,0.602-0.096,0.902,0.021,0.902
			c0.044,0,0.44-0.114,1.188-0.342c0.748-0.227,1.151-0.341,1.21-0.341C171.119,48.83,171.215,48.911,171.156,49.072z
			 M166.03,47.687c0.059-1.862,0.183-3.77,0.374-5.721l-2.311,3.124c-0.22,0.279-1.562,2.105-4.025,5.479
			C161.755,49.557,163.742,48.596,166.03,47.687z M165.788,50.238c0.029-0.293,0.036-0.454,0.021-0.484
			c-0.469,0.221-1.1,0.507-1.892,0.858c0.19-0.044,0.498-0.106,0.924-0.188C165.268,50.345,165.582,50.282,165.788,50.238z"/>
		<path d="M187.304,48.632c-0.426,1.159-1.444,2.303-3.058,3.433c-1.35,0.938-2.904,1.745-4.664,2.42
			c-1.584,0.602-2.772,0.902-3.564,0.902c-0.381,0-0.696-0.052-0.945-0.154c-0.044-0.073-0.125-0.169-0.242-0.286
			c-0.309,0-0.719-0.081-1.232-0.242c-0.132-0.088-0.197-0.205-0.197-0.352c0-0.088,0.058-0.278,0.176-0.572
			c0.322-0.88,1.162-1.841,2.519-2.882s2.401-1.563,3.135-1.563c0.279,0,0.389,0.088,0.33,0.265
			c-0.015,0.059-0.132,0.201-0.352,0.429s-0.345,0.37-0.374,0.429c-0.103,0.309-0.154,0.602-0.154,0.88
			c0,0.206,0.037,0.462,0.11,0.771c0.088,0.366,0.139,0.616,0.154,0.748c0.645-0.19,1.254-0.514,1.825-0.968
			c0.572-0.455,0.946-0.917,1.122-1.387c0.132-0.381,0.198-0.828,0.198-1.342c0-1.114-0.249-1.914-0.748-2.397
			c-0.146-0.029-0.374-0.066-0.682-0.11c-0.03,0-0.052-0.04-0.066-0.121c-0.015-0.08-0.052-0.121-0.109-0.121
			c-0.162,0-0.528,0.11-1.101,0.33c-0.146,0.323-0.521,0.726-1.122,1.21c-0.646,0.499-1.174,0.8-1.584,0.902
			c-0.103,0.015-0.396,0.096-0.88,0.242c-0.382,0.117-0.608,0.176-0.682,0.176c-0.104,0-0.257-0.088-0.462-0.265
			c-0.118-0.058-0.235-0.124-0.353-0.197c-0.19-0.133-0.297-0.271-0.318-0.418c-0.022-0.146-0.041-0.353-0.056-0.616
			c-0.029-0.366,0.11-0.968,0.418-1.804c0.675-1.834,1.812-3.513,3.41-5.038c1.789-1.687,3.916-2.919,6.38-3.696
			c0.777-0.234,1.818-0.353,3.124-0.353c0.66,0,1.056,0.03,1.188,0.089c0.044,0.015,0.069,0.092,0.077,0.23
			c0.007,0.14,0.04,0.209,0.099,0.209c0.044,0,0.099-0.011,0.165-0.033c0.065-0.021,0.128-0.032,0.187-0.032
			c0.133,0,0.228,0.007,0.286,0.021c0.499,1.071,0.704,1.738,0.616,2.002c-0.117,0.323-0.554,0.777-1.309,1.364
			c-0.756,0.587-1.324,0.917-1.705,0.99c-0.499,0.103-0.852,0.153-1.057,0.153c-0.631,0-0.945-0.19-0.945-0.571
			c0-0.146,0.044-0.345,0.132-0.595c0.103-0.308,0.176-0.506,0.22-0.594c0.132-0.249,0.315-0.513,0.55-0.792
			c0.015,0.015-0.169,0.022-0.55,0.022c-0.044,0-0.165-0.056-0.363-0.165c-0.197-0.11-0.326-0.165-0.385-0.165
			c-0.47,0-1.093,0.41-1.87,1.231c-1.423,1.525-2.552,3.315-3.388,5.368l0.065,0.11c0.411-0.294,1.093-0.576,2.047-0.848
			c0.953-0.271,1.745-0.406,2.376-0.406c1.114,0,1.869,0.096,2.266,0.286c1.07,0.542,1.606,1.363,1.606,2.464
			C187.568,47.664,187.479,48.134,187.304,48.632z M182.156,39.15c-0.998,0.338-1.988,1.053-2.971,2.145
			c-0.982,1.093-1.693,2.248-2.134,3.466c-0.176,0.513-0.286,1.041-0.33,1.584C177.719,43.646,179.53,41.248,182.156,39.15z
			 M184.598,49.82c0.117-0.337,0.184-0.748,0.198-1.232c-0.146,1.174-1.049,2.392-2.706,3.652
			C183.425,51.551,184.261,50.744,184.598,49.82z"/>
		<path d="M204.243,48.632c-0.426,1.159-1.444,2.303-3.058,3.433c-1.35,0.938-2.904,1.745-4.664,2.42
			c-1.584,0.602-2.772,0.902-3.564,0.902c-0.381,0-0.696-0.052-0.945-0.154c-0.044-0.073-0.125-0.169-0.242-0.286
			c-0.309,0-0.719-0.081-1.232-0.242c-0.132-0.088-0.197-0.205-0.197-0.352c0-0.088,0.058-0.278,0.176-0.572
			c0.322-0.88,1.162-1.841,2.519-2.882s2.401-1.563,3.135-1.563c0.279,0,0.389,0.088,0.33,0.265
			c-0.015,0.059-0.132,0.201-0.352,0.429s-0.345,0.37-0.374,0.429c-0.103,0.309-0.154,0.602-0.154,0.88
			c0,0.206,0.037,0.462,0.11,0.771c0.088,0.366,0.139,0.616,0.154,0.748c0.645-0.19,1.254-0.514,1.825-0.968
			c0.572-0.455,0.946-0.917,1.122-1.387c0.132-0.381,0.198-0.828,0.198-1.342c0-1.114-0.249-1.914-0.748-2.397
			c-0.146-0.029-0.374-0.066-0.682-0.11c-0.03,0-0.052-0.04-0.066-0.121c-0.015-0.08-0.052-0.121-0.109-0.121
			c-0.162,0-0.528,0.11-1.101,0.33c-0.146,0.323-0.521,0.726-1.122,1.21c-0.646,0.499-1.174,0.8-1.584,0.902
			c-0.103,0.015-0.396,0.096-0.88,0.242c-0.382,0.117-0.608,0.176-0.682,0.176c-0.104,0-0.257-0.088-0.462-0.265
			c-0.118-0.058-0.235-0.124-0.353-0.197c-0.19-0.133-0.297-0.271-0.318-0.418c-0.022-0.146-0.041-0.353-0.056-0.616
			c-0.029-0.366,0.11-0.968,0.418-1.804c0.675-1.834,1.812-3.513,3.41-5.038c1.789-1.687,3.916-2.919,6.38-3.696
			c0.777-0.234,1.818-0.353,3.124-0.353c0.66,0,1.056,0.03,1.188,0.089c0.044,0.015,0.069,0.092,0.077,0.23
			c0.007,0.14,0.04,0.209,0.099,0.209c0.044,0,0.099-0.011,0.165-0.033c0.065-0.021,0.128-0.032,0.187-0.032
			c0.133,0,0.228,0.007,0.286,0.021c0.499,1.071,0.704,1.738,0.616,2.002c-0.117,0.323-0.554,0.777-1.309,1.364
			c-0.756,0.587-1.324,0.917-1.705,0.99c-0.499,0.103-0.852,0.153-1.057,0.153c-0.631,0-0.945-0.19-0.945-0.571
			c0-0.146,0.044-0.345,0.132-0.595c0.103-0.308,0.176-0.506,0.22-0.594c0.132-0.249,0.315-0.513,0.55-0.792
			c0.015,0.015-0.169,0.022-0.55,0.022c-0.044,0-0.165-0.056-0.363-0.165c-0.197-0.11-0.326-0.165-0.385-0.165
			c-0.47,0-1.093,0.41-1.87,1.231c-1.423,1.525-2.552,3.315-3.388,5.368l0.065,0.11c0.411-0.294,1.093-0.576,2.047-0.848
			c0.953-0.271,1.745-0.406,2.376-0.406c1.114,0,1.869,0.096,2.266,0.286c1.07,0.542,1.606,1.363,1.606,2.464
			C204.508,47.664,204.419,48.134,204.243,48.632z M199.096,39.15c-0.998,0.338-1.988,1.053-2.971,2.145
			c-0.982,1.093-1.693,2.248-2.134,3.466c-0.176,0.513-0.286,1.041-0.33,1.584C194.658,43.646,196.47,41.248,199.096,39.15z
			 M201.537,49.82c0.117-0.337,0.184-0.748,0.198-1.232c-0.146,1.174-1.049,2.392-2.706,3.652
			C200.364,51.551,201.2,50.744,201.537,49.82z"/>
	</g>
</g>
<g id="Gun_Show">
</g>
<g id="Chicken">
</g>
<g id="Copycat">
</g>
<g id="Quiet">
</g>
<g id="DOCTOR">
</g>
<g id="Psychiatrist">
</g>
<g id="Remove">
</g>
<g id="Layer_10">
</g>
<g id="Bipolar">
	<g id="Layer_12">
	</g>
</g>
<g id="YesorNo">
</g>
<g id="Deja_Vu">
</g>
<g id="Indecisive">
</g>
<g id="Greedy">
</g>
<g id="Pushup">
</g>
<g id="Clothes_Swap">
</g>
</svg>
