<?xml version="1.0" encoding="utf-8"?>
<!-- Generator: Adobe Illustrator 16.0.0, SVG Export Plug-In . SVG Version: 6.00 Build 0)  -->
<!DOCTYPE svg PUBLIC "-//W3C//DTD SVG 1.1//EN" "http://www.w3.org/Graphics/SVG/1.1/DTD/svg11.dtd">
<svg version="1.1" xmlns="http://www.w3.org/2000/svg" xmlns:xlink="http://www.w3.org/1999/xlink" x="0px" y="0px"
	 width="209.76px" height="62.36px" viewBox="0 0 209.76 62.36" enable-background="new 0 0 209.76 62.36" xml:space="preserve">
<g id="Layer_1">
</g>
<g id="Can_of_Whoop-Ass">
</g>
<g id="Gun_Show">
</g>
<g id="Chicken">
</g>
<g id="Copycat">
</g>
<g id="Quiet">
</g>
<g id="DOCTOR">
</g>
<g id="Psychiatrist">
</g>
<g id="Remove">
</g>
<g id="Layer_10">
</g>
<g id="Bipolar">
	<g id="Layer_12">
	</g>
</g>
<g id="YesorNo">
</g>
<g id="Deja_Vu">
</g>
<g id="Indecisive">
</g>
<g id="Greedy">
</g>
<g id="Pushup">
	<path fill-rule="evenodd" clip-rule="evenodd" fill="#FFFFFF" d="M7.271,59.268c-1.082-1.756-1.196-3.508-0.22-5.287
		c0.851-1.551,1.219-3.13,0.731-4.924c-0.344-1.271,0.575-2.888,1.441-3.218c-0.107,0.796-0.368,1.68-0.316,2.545
		c0.141,2.348-0.213,4.535-1.377,6.62C6.788,56.337,6.887,57.828,7.271,59.268z"/>
	<path fill-rule="evenodd" clip-rule="evenodd" fill="#FFFFFF" d="M7.99,55.034c0.409,1.488,0.761,3,1.252,4.465
		c0.266,0.789-0.183,0.937-0.735,1.253C7.63,58.816,7.038,56.961,7.99,55.034z"/>
	<g>
		<g>
			<path fill-rule="evenodd" clip-rule="evenodd" d="M73.057,38.005c1.822-0.583,3.886-1.217,5.933-1.902
				c2.486-0.832,5.015-1.334,7.651-1.17c1.832,0.115,3.677-0.099,5.225-1.048c2.962-1.816,6.409-2.791,8.945-5.362
				c2.251-2.282,5.263-2.557,8.267-2.659c2.252-0.077,4.518,0.016,6.752-0.205c1.237-0.122,2.499-0.592,3.616-1.164
				c1.696-0.869,3.272-1.975,4.91-2.96c2.362-1.421,4.903-2.294,7.676-2.386c1.425-0.047,2.7,0.365,3.759,1.365
				c0.225,0.213,0.488,0.396,0.761,0.542c0.539,0.286,0.816,0.165,1.183-0.433c1.171-1.914,2.335-3.867,3.786-5.564
				c1.697-1.985,4.31-1.939,6.247-0.155c0.649,0.6,1.179,1.332,1.844,1.912c0.679,0.592,1.402,1.195,2.21,1.559
				c0.629,0.284,0.693,0.633,0.534,1.119c-0.327,0.999-0.876,1.825-1.838,2.376c-1.432,0.818-2.788,1.738-3.439,3.377
				c-0.242,0.607-0.536,1.078-1.408,0.821c-0.331-0.097-0.856,0.325-1.244,0.585c-1.56,1.044-1.671,1.094-3.114-0.477
				c-0.154-0.167-0.31-0.333-0.521-0.559c-0.686,0.811-1.576,0.947-2.561,0.918c-0.29-0.01-0.656,0.245-0.875,0.481
				c-1.201,1.291-2.374,2.609-3.535,3.938c-0.164,0.188-0.299,0.479-0.296,0.722c0.04,4.258,0.099,8.516,0.172,12.772
				c0.01,0.567,0.115,1.136,0.197,1.7c0.158,1.066,0.36,1.282,1.399,1.039c1.987-0.463,3.683,0.513,5.473,1.008
				c0.121,0.033,0.246,0.698,0.146,0.774c-0.342,0.258-0.774,0.509-1.188,0.539c-1.821,0.138-3.649,0.196-5.474,0.281
				c-1.772,0.083-2.683-0.8-2.995-2.556c-0.334-1.876-0.951-3.701-1.292-5.577c-0.482-2.66-0.824-5.346-1.233-8.064
				c-0.062,0.014-0.2,0.023-0.318,0.076c-4.739,2.104-9.743,3.368-14.742,4.645c-0.729,0.187-1.309,0.054-1.556-0.841
				c-0.442,0.265-0.829,0.485-1.207,0.723c-3.432,2.161-7.203,3.384-11.169,4.105c-1.145,0.207-2.263,0.572-3.39,0.872
				c-1.083,0.289-1.521,0.104-1.954-0.916c-0.221-0.522-0.367-1.074-0.569-1.679c-0.836,0.119-1.673,0.325-2.514,0.346
				c-3.655,0.088-7.313,0.087-10.97,0.185c-2.633,0.072-5.232,0.435-7.722,1.359c-0.255,0.095-0.667,0.364-0.649,0.511
				c0.142,1.206-0.839,1.67-1.544,2.131c-1.033,0.674-1.64,1.432-1.643,2.682c-0.001,0.354-0.166,0.728-0.331,1.055
				c-0.509,1.02-1.659,1.239-2.387,0.354c-1.266-1.539-1.985-3.274-1.229-5.308c0.209-0.56,0.561-1.082,0.68-1.657
				c0.17-0.815,0.29-1.669,0.246-2.495c-0.067-1.274,0.07-2.452,0.898-3.471c0.433-0.529,1.005-0.801,1.672-0.603
				c1.036,0.309,2.079,0.628,3.065,1.065C71.938,36.973,72.369,37.464,73.057,38.005z M147.516,22.813
				c0.566-0.274,1.209-0.388,1.332-1.232c0.135-0.931-0.421-1.278-1.063-1.631c-0.523-0.288-1.07-0.54-1.57-0.863
				c-0.505-0.326-0.931-0.26-1.423,0.033c-0.669,0.397-1.379,0.725-1.964,1.026c-0.188-0.423-0.315-0.706-0.442-0.989
				c-0.264,0.171-0.663,0.286-0.764,0.525c-0.188,0.449-0.204,0.972-0.289,1.446c-1.196,0.253-2.403,0.509-3.752,0.795
				c-0.118,1.232-0.253,2.641-0.399,4.171c0.72-0.199,1.094-0.434,1.694-0.234c0.81,0.269,1.537-0.232,1.816-1.069
				c0.429,0.396,0.822,0.766,1.223,1.128c0.951,0.861,0.951,0.86,1.922,0.051c-0.051-0.243-0.104-0.491-0.166-0.783
				c0.395,0.123,0.679,0.287,0.957,0.281c0.492-0.012,0.982-0.126,1.694-0.229c0.205-0.514,0.52-1.302,0.836-2.09l-0.002,0.009
				c0.126-0.121,0.253-0.241,0.379-0.362L147.516,22.813z M110.566,26.305c0,0.206-0.021,0.319,0.003,0.423
				c0.793,3.471,1.583,6.941,2.408,10.404c0.037,0.156,0.42,0.356,0.604,0.324c0.645-0.108,1.271-0.311,1.906-0.478
				c4.164-1.096,8.313-2.229,12.291-3.917c0.745-0.317,1.103-0.664,0.873-1.504c-0.197-0.726-0.385-1.472-0.433-2.218
				c-0.105-1.625-0.242-3.264-0.126-4.878c0.07-0.979,0.5-1.968,0.937-2.872c0.289-0.597,0.924-0.937,1.977-0.764
				c-1.444,1.038-2.119,2.268-2.08,3.832c0.038,1.472,0.077,2.943,0.117,4.479c0.693-0.084,1.229-0.167,1.767-0.21
				c2.098-0.166,2.1-0.16,2.357-2.244c0.018-0.142,0.009-0.287,0.036-0.427c0.144-0.766,0.295-1.531,0.443-2.296
				c0.087,0.012,0.175,0.024,0.261,0.035c0.449,1.927-0.022,3.824-0.354,5.736c0.759-0.715,1.45-1.424,2.076-2.185
				c0.186-0.227,0.257-0.601,0.267-0.912c0.036-1.164-0.009-2.332,0.055-3.494c0.024-0.445,0.256-0.88,0.394-1.32
				c0.152,1.615-0.398,3.184,0.24,4.747c0.078-1.646,0.155-3.293,0.23-4.876c-0.471-0.285-0.98-0.536-1.425-0.874
				c-0.926-0.704-1.946-1.013-3.107-1.022c-1.812-0.016-3.557,0.356-5.129,1.177c-2.019,1.052-3.941,2.293-5.873,3.504
				c-1.748,1.095-3.496,2.165-5.525,2.658c-0.497,0.121-1.003,0.198-1.506,0.296c-0.017-0.07-0.034-0.141-0.051-0.21
				c0.379-0.147,0.757-0.294,1.135-0.441c-0.002-0.04-0.006-0.081-0.009-0.121C113.753,26.54,112.18,26.425,110.566,26.305z
				 M105.739,39.222c0.805-0.341,1.562-0.549,2.181-0.963c0.39-0.261,0.574-0.829,0.885-1.312c-0.042,0.321-0.079,0.6-0.115,0.877
				c0.058,0.033,0.116,0.066,0.174,0.1c0.522-0.537,1.045-1.074,1.566-1.611c-0.032-0.056-0.064-0.111-0.097-0.166
				c0,0.249,0,0.498,0,0.841c0.903-0.61,0.325-1.513,0.701-2.313c0,0.67,0,1.199,0,1.798c0.209-0.057,0.342-0.082,0.466-0.13
				c0.123-0.049,0.237-0.121,0.252-0.129c-0.676-3.102-1.335-6.123-2.016-9.242c-1.282,0.082-2.691,0.072-4.063,0.283
				c-1.813,0.279-3.404,1.008-4.541,2.597c-0.656,0.92-1.533,1.682-2.311,2.514c-0.069-0.063-0.14-0.125-0.209-0.188
				c0.401-0.497,0.803-0.994,1.043-1.291c-2.018,0.87-4.191,1.808-6.402,2.762c0.985,2.684,1.044,5.759,2.373,8.463
				c1.36-0.35,2.612-0.753,3.896-0.978c1.254-0.22,2.396-0.792,3.663-0.983c0.516-0.078,0.957-0.638,1.478-1.011
				c-0.097,0.184-0.188,0.358-0.28,0.533c0.381-0.048,0.686-0.185,0.932-0.391c0.244-0.204,0.429-0.479,0.639-0.722
				c0.038,0.027,0.075,0.056,0.112,0.083C105.974,38.805,105.882,38.967,105.739,39.222z M92.701,38.82
				c0.623-0.324,0.652-0.329,0.511-1.362c-0.151-1.1-0.365-2.19-0.568-3.384c-1.994,1.113-4.097,1.584-6.298,1.49
				c-2.413-0.104-4.699,0.406-6.961,1.17c-1.968,0.665-3.96,1.262-5.932,1.914c-0.798,0.263-1.598,0.545-2.35,0.911
				c-0.603,0.293-0.917,0.915-0.582,1.507c0.285,0.505,0.853,0.851,1.244,1.219c5.84-2.549,11.91-2.104,17.931-2.213
				c-0.309-0.155-0.615-0.311-0.923-0.467c0.012-0.071,0.025-0.144,0.037-0.217c1.613,0.666,3.224,0.92,4.82,0.018
				c-0.332,0.025-0.665,0.051-0.998,0.076c-0.005-0.029-0.01-0.059-0.015-0.089c0.311-0.115,0.623-0.231,0.935-0.348
				c-0.014-0.06-0.027-0.121-0.042-0.182C93.284,38.852,93.056,38.84,92.701,38.82z M139.528,48.78
				c-1.377-0.735-2.804-1.204-4.373-1.149c-1.384,0.048-1.886-0.257-2.117-1.639c-0.25-1.484-0.303-3.005-0.387-4.514
				c-0.186-3.339,0.55-6.733-0.567-10.034c0.151,0.292,0.304,0.585,0.446,0.862c0-0.85,0-1.658,0-2.526
				c-1.097,0.143-2.077,0.269-3.106,0.402c0,0.175-0.012,0.313,0.002,0.448c0.126,1.308,0.283,2.612,0.375,3.924
				c0.086,1.205,0.804,2.351,0.347,3.607c-0.017,0.046,0.017,0.111,0.028,0.167c0.68,3.09,1.352,6.181,2.048,9.267
				c0.174,0.768,0.791,1.108,1.501,1.21c0.474,0.067,0.97,0.003,1.453-0.029c1.233-0.08,2.459-0.604,3.706-0.037
				C139.066,48.823,139.312,48.77,139.528,48.78z M138.479,20.714c0.082,0.06,0.163,0.12,0.244,0.181
				c0.294-0.347,0.589-0.693,0.884-1.04c0.033,0.025,0.065,0.049,0.098,0.073c-0.163,0.288-0.326,0.576-0.489,0.864
				c0.278-0.022,0.495-0.251,0.589-0.209c0.813,0.372,0.703-0.287,0.963-0.702c0.321-0.512,0.847-1.007,1.397-1.218
				c0.291-0.112,0.819,0.39,1.366,0.681c1.218-1.7,2.764-1.17,4.339-0.168c0.145,0.091,0.299,0.167,0.444,0.257
				c0.721,0.44,1.324,0.97,1.477,1.887c0.033-0.238,0.065-0.478,0.122-0.897c0.066,0.414,0.103,0.645,0.161,1.021
				c0.599-0.793,1.096-1.451,1.66-2.199c-1.565-0.654-3.021-1.143-3.961-2.461c0.475,0.269,0.949,0.538,1.424,0.807
				c0.079-0.088,0.158-0.176,0.238-0.264c-0.633-0.553-1.271-1.1-1.896-1.66c-2.355-2.104-4.899-1.64-6.454,1.134
				c-0.512,0.915-1.165,1.752-1.751,2.626C139.046,19.852,138.763,20.283,138.479,20.714z M70.436,42.474
				c-1.726-1.852-0.26-3.387,0.72-4.932c-1.387-0.839-1.884-0.778-2.499,0.535c-0.421,0.901-0.584,1.926-0.842,2.901
				c-0.123,0.464-0.175,0.947-0.304,1.41c-0.498,1.788-0.299,3.523,0.304,5.231c0.076-0.005,0.151-0.01,0.227-0.016
				c0-0.612,0-1.226,0-1.896c0.087,0.193,0.146,0.323,0.12,0.265C68.888,44.854,69.65,43.683,70.436,42.474z M66.115,47.782
				c-0.32-1.2-0.402-2.443,0.217-3.555c0.971-1.738,1.266-3.562,1.148-5.52c-0.044-0.721,0.174-1.458,0.264-2.121
				c-0.723,0.274-1.488,1.622-1.202,2.683c0.406,1.495,0.1,2.812-0.609,4.104C65.118,44.857,65.214,46.318,66.115,47.782z
				 M66.715,44.253c-0.794,1.606-0.301,3.153,0.431,4.767c0.461-0.264,0.835-0.387,0.613-1.044
				C67.349,46.754,67.056,45.494,66.715,44.253z M69.074,36.771c-0.99-0.1-1.465,0.786-1.176,1.981
				C68.265,38.135,68.651,37.484,69.074,36.771z M71.119,42.647c-0.094-0.017-0.188-0.03-0.283-0.046
				c-0.109,0.491-0.22,0.981-0.373,1.665C71.57,43.645,71.632,43.42,71.119,42.647z M71.545,37.67
				c-0.337,0.467-0.632,0.877-1.002,1.393C71.997,38.468,72.119,38.291,71.545,37.67z"/>
			<path fill-rule="evenodd" clip-rule="evenodd" fill="#FFFFFF" d="M110.566,26.305c1.613,0.12,3.187,0.235,4.76,0.353
				c0.003,0.04,0.007,0.081,0.009,0.121c-0.378,0.147-0.756,0.294-1.135,0.441c0.017,0.069,0.034,0.14,0.051,0.21
				c0.503-0.098,1.009-0.175,1.506-0.296c2.029-0.493,3.777-1.563,5.525-2.658c1.932-1.211,3.854-2.452,5.873-3.504
				c1.572-0.82,3.317-1.192,5.129-1.177c1.161,0.01,2.182,0.318,3.107,1.022c0.444,0.338,0.954,0.589,1.425,0.874
				c-0.075,1.583-0.152,3.229-0.23,4.876c-0.639-1.563-0.088-3.132-0.24-4.747c-0.138,0.44-0.369,0.875-0.394,1.32
				c-0.063,1.162-0.019,2.33-0.055,3.494c-0.01,0.312-0.081,0.686-0.267,0.912c-0.626,0.761-1.317,1.47-2.076,2.185
				c0.331-1.912,0.803-3.81,0.354-5.736c-0.086-0.011-0.174-0.023-0.261-0.035c-0.148,0.765-0.3,1.53-0.443,2.296
				c-0.027,0.14-0.019,0.285-0.036,0.427c-0.258,2.084-0.26,2.078-2.357,2.244c-0.538,0.043-1.073,0.126-1.767,0.21
				c-0.04-1.535-0.079-3.007-0.117-4.479c-0.039-1.564,0.636-2.794,2.08-3.832c-1.053-0.173-1.688,0.167-1.977,0.764
				c-0.437,0.904-0.866,1.893-0.937,2.872c-0.116,1.614,0.021,3.253,0.126,4.878c0.048,0.746,0.235,1.492,0.433,2.218
				c0.229,0.84-0.128,1.187-0.873,1.504c-3.979,1.688-8.127,2.821-12.291,3.917c-0.635,0.167-1.262,0.369-1.906,0.478
				c-0.185,0.032-0.567-0.168-0.604-0.324c-0.825-3.463-1.615-6.934-2.408-10.404C110.546,26.624,110.566,26.511,110.566,26.305z"/>
			<path fill-rule="evenodd" clip-rule="evenodd" fill="#FFFFFF" d="M105.739,39.222c0.143-0.255,0.234-0.417,0.325-0.58
				c-0.037-0.027-0.074-0.056-0.112-0.083c-0.21,0.243-0.395,0.518-0.639,0.722c-0.246,0.206-0.551,0.343-0.932,0.391
				c0.092-0.175,0.184-0.35,0.28-0.533c-0.521,0.373-0.962,0.933-1.478,1.011c-1.267,0.191-2.409,0.764-3.663,0.983
				c-1.283,0.225-2.535,0.628-3.896,0.978c-1.329-2.704-1.388-5.779-2.373-8.463c2.211-0.954,4.385-1.892,6.402-2.762
				c-0.24,0.297-0.642,0.794-1.043,1.291c0.069,0.063,0.14,0.126,0.209,0.188c0.777-0.832,1.654-1.594,2.311-2.514
				c1.137-1.589,2.728-2.317,4.541-2.597c1.372-0.211,2.781-0.201,4.063-0.283c0.681,3.119,1.34,6.141,2.016,9.242
				c-0.015,0.008-0.129,0.08-0.252,0.129c-0.124,0.048-0.257,0.073-0.466,0.13c0-0.599,0-1.128,0-1.798
				c-0.376,0.801,0.202,1.703-0.701,2.313c0-0.343,0-0.592,0-0.841c0.032,0.055,0.064,0.11,0.097,0.166
				c-0.521,0.537-1.044,1.074-1.566,1.611c-0.058-0.033-0.116-0.066-0.174-0.1c0.036-0.277,0.073-0.556,0.115-0.877
				c-0.311,0.482-0.495,1.051-0.885,1.312C107.301,38.673,106.544,38.881,105.739,39.222z"/>
			<path fill-rule="evenodd" clip-rule="evenodd" fill="#FFFFFF" d="M92.701,38.82c0.354,0.02,0.583,0.031,0.81,0.044
				c0.015,0.061,0.028,0.122,0.042,0.182c-0.312,0.116-0.624,0.232-0.935,0.348c0.005,0.03,0.01,0.06,0.015,0.089
				c0.333-0.025,0.666-0.051,0.998-0.076c-1.597,0.902-3.207,0.648-4.82-0.018c-0.012,0.073-0.025,0.146-0.037,0.217
				c0.308,0.156,0.614,0.312,0.923,0.467c-6.021,0.108-12.091-0.336-17.931,2.213c-0.392-0.368-0.959-0.714-1.244-1.219
				c-0.335-0.592-0.021-1.214,0.582-1.507c0.752-0.366,1.552-0.648,2.35-0.911c1.972-0.652,3.964-1.249,5.932-1.914
				c2.262-0.764,4.548-1.273,6.961-1.17c2.201,0.094,4.304-0.377,6.298-1.49c0.203,1.193,0.417,2.284,0.568,3.384
				C93.354,38.491,93.324,38.496,92.701,38.82z M71.022,40.868c0.393-0.47,0.782-0.936,1.166-1.394
				C71.281,39.54,70.898,40.019,71.022,40.868z"/>
			<path fill-rule="evenodd" clip-rule="evenodd" fill="#FFFFFF" d="M147.535,22.794c-0.126,0.121-0.253,0.241-0.38,0.362
				c-0.391-0.482-0.743-1.053-1.526-0.685c0.314,0.704,0.694,1.216,1.529,0.676c-0.316,0.788-0.631,1.576-0.836,2.09
				c-0.712,0.104-1.202,0.218-1.694,0.229c-0.278,0.006-0.563-0.158-0.957-0.281c0.062,0.292,0.115,0.54,0.166,0.783
				c-0.971,0.81-0.971,0.811-1.922-0.051c-0.4-0.362-0.794-0.732-1.223-1.128c-0.279,0.837-1.007,1.338-1.816,1.069
				c-0.601-0.199-0.975,0.035-1.694,0.234c0.146-1.53,0.281-2.938,0.399-4.171c1.349-0.286,2.556-0.542,3.752-0.795
				c0.085-0.475,0.101-0.997,0.289-1.446c0.101-0.239,0.5-0.354,0.764-0.525c0.127,0.283,0.254,0.566,0.442,0.989
				c0.585-0.302,1.295-0.629,1.964-1.026c0.492-0.293,0.918-0.359,1.423-0.033c0.5,0.323,1.047,0.575,1.57,0.863
				c0.642,0.353,1.197,0.7,1.063,1.631c-0.123,0.845-0.766,0.958-1.33,1.23c0.031-0.875-0.946-1.69-2.047-1.414
				C146.26,21.931,146.897,22.363,147.535,22.794z"/>
			<path fill-rule="evenodd" clip-rule="evenodd" fill="#FFFFFF" d="M139.528,48.78c-0.217-0.011-0.462,0.043-0.645-0.041
				c-1.247-0.567-2.473-0.043-3.706,0.037c-0.483,0.032-0.979,0.097-1.453,0.029c-0.71-0.102-1.327-0.442-1.501-1.21
				c-0.696-3.086-1.368-6.177-2.048-9.267c-0.012-0.056-0.045-0.121-0.028-0.167c0.457-1.257-0.261-2.402-0.347-3.607
				c-0.092-1.312-0.249-2.616-0.375-3.924c-0.014-0.136-0.002-0.273-0.002-0.448c1.029-0.134,2.01-0.26,3.106-0.402
				c0,0.868,0,1.677,0,2.526c-0.143-0.277-0.295-0.57-0.446-0.862c1.117,3.301,0.382,6.695,0.567,10.034
				c0.084,1.509,0.137,3.029,0.387,4.514c0.231,1.382,0.733,1.687,2.117,1.639C136.725,47.576,138.151,48.045,139.528,48.78z"/>
			<path fill-rule="evenodd" clip-rule="evenodd" fill="#FFFFFF" d="M138.479,20.714c0.284-0.431,0.567-0.862,0.854-1.289
				c0.586-0.874,1.239-1.711,1.751-2.626c1.555-2.773,4.099-3.238,6.454-1.134c0.626,0.561,1.264,1.107,1.896,1.66
				c-0.08,0.088-0.159,0.176-0.238,0.264c-0.475-0.269-0.949-0.538-1.424-0.807c0.94,1.318,2.396,1.807,3.961,2.461
				c-0.564,0.748-1.062,1.406-1.66,2.199c-0.059-0.376-0.095-0.606-0.161-1.021c-0.057,0.42-0.089,0.659-0.122,0.897
				c-0.152-0.917-0.756-1.446-1.477-1.887c-0.146-0.09-0.3-0.166-0.444-0.257c-1.575-1.002-3.121-1.532-4.339,0.168
				c-0.547-0.291-1.075-0.793-1.366-0.681c-0.551,0.211-1.076,0.706-1.397,1.218c-0.26,0.415-0.149,1.074-0.963,0.702
				c-0.094-0.042-0.311,0.187-0.589,0.209c0.163-0.288,0.326-0.576,0.489-0.864c-0.032-0.024-0.064-0.048-0.098-0.073
				c-0.295,0.347-0.59,0.693-0.884,1.04C138.642,20.834,138.561,20.773,138.479,20.714z"/>
			<path fill-rule="evenodd" clip-rule="evenodd" fill="#FFFFFF" d="M70.436,42.474c-0.785,1.209-1.548,2.381-2.274,3.5
				c0.025,0.059-0.033-0.071-0.12-0.265c0,0.67,0,1.283,0,1.896c-0.075,0.006-0.15,0.011-0.227,0.016
				c-0.603-1.708-0.802-3.443-0.304-5.231c0.129-0.463,0.181-0.946,0.304-1.41c0.258-0.976,0.421-2,0.842-2.901
				c0.615-1.313,1.112-1.374,2.499-0.535C70.176,39.087,68.71,40.622,70.436,42.474z"/>
			<path fill-rule="evenodd" clip-rule="evenodd" fill="#FFFFFF" d="M69.074,36.771c-0.423,0.714-0.81,1.364-1.176,1.981
				C67.609,37.557,68.084,36.671,69.074,36.771z"/>
			<path fill-rule="evenodd" clip-rule="evenodd" fill="#FFFFFF" d="M71.119,42.647c0.513,0.772,0.451,0.997-0.656,1.619
				c0.153-0.684,0.264-1.174,0.373-1.665C70.931,42.617,71.025,42.631,71.119,42.647z"/>
			<path fill-rule="evenodd" clip-rule="evenodd" fill="#FFFFFF" d="M71.545,37.67c0.574,0.621,0.452,0.798-1.002,1.393
				C70.913,38.547,71.208,38.137,71.545,37.67z"/>
			<path fill-rule="evenodd" clip-rule="evenodd" d="M71.022,40.868c-0.124-0.85,0.259-1.328,1.166-1.394
				C71.805,39.933,71.415,40.398,71.022,40.868z"/>
		</g>
		<path fill-rule="evenodd" clip-rule="evenodd" d="M147.535,22.794c-0.638-0.431-1.275-0.863-2.064-1.397
			c1.101-0.276,2.078,0.539,2.047,1.414C147.516,22.813,147.535,22.794,147.535,22.794z"/>
		<path fill-rule="evenodd" clip-rule="evenodd" d="M147.158,23.147c-0.835,0.54-1.215,0.028-1.529-0.676
			c0.783-0.368,1.136,0.202,1.526,0.685L147.158,23.147z"/>
	</g>
	<path d="M15.117,27.606c-0.239,1.351-0.545,2.405-0.917,3.162s-0.789,1.269-1.249,1.534c-0.461,0.267-0.913,0.399-1.355,0.399H9.23
		v28.359v1.167H8.752H5.908H5.403v-1.167V2.009V0.843h0.505h5.688c0.442,0,0.895,0.133,1.355,0.398
		c0.46,0.267,0.877,0.778,1.249,1.535c0.372,0.758,0.678,1.811,0.917,3.161s0.358,3.091,0.358,5.218v11.233
		C15.476,24.518,15.356,26.256,15.117,27.606z M11.648,11.155c0-0.286-0.04-0.604-0.119-0.951c-0.08-0.348-0.342-0.521-0.784-0.521
		H9.23v14.18l1.515,0.062c0.442,0,0.704-0.174,0.784-0.522c0.079-0.347,0.119-0.685,0.119-1.013V11.155z"/>
	<path d="M28.949,0.843h0.479v1.166v47.268c0,2.659-0.138,4.839-0.412,6.537c-0.274,1.697-0.624,3.018-1.05,3.959
		c-0.425,0.941-0.903,1.586-1.435,1.934s-1.055,0.522-1.568,0.522H23.82c-0.514,0-1.032-0.175-1.555-0.522s-1.001-0.992-1.436-1.934
		c-0.434-0.941-0.788-2.262-1.063-3.959c-0.275-1.698-0.412-3.878-0.412-6.537V2.009V0.843h0.505h2.844h0.479v1.166v49.906
		c0,0.573,0.044,0.962,0.133,1.167c0.088,0.204,0.257,0.307,0.505,0.307h1.143c0.248,0,0.416-0.103,0.505-0.307
		c0.089-0.205,0.133-0.594,0.133-1.167V2.009V0.843h0.505H28.949z"/>
	<path d="M41.169,0.443c0.539,0.349,1.024,1.004,1.458,1.965c0.433,0.962,0.786,2.292,1.06,3.99
		c0.274,1.698,0.411,3.897,0.411,6.599v3.99v1.166h-0.501h-2.851h-0.475v-1.104v-6.63c0-0.082-0.014-0.204-0.04-0.368
		c-0.027-0.163-0.08-0.327-0.16-0.491c-0.079-0.163-0.199-0.307-0.358-0.43s-0.372-0.185-0.638-0.185
		c-0.479,0-0.807,0.164-0.983,0.491c-0.178,0.328-0.266,0.655-0.266,0.982v5.893c0,0.123,0.021,0.522,0.065,1.197
		c0.045,0.675,0.208,1.545,0.49,2.609c0.477,1.841,0.996,3.643,1.562,5.401c0.564,1.76,1.155,3.54,1.772,5.341
		c1.588,4.584,2.382,8.369,2.382,11.356V52.1c0,3.438-0.375,6.036-1.126,7.796c-0.751,1.759-1.878,2.64-3.38,2.64h-1.14
		c-1.484,0-2.606-0.881-3.366-2.64c-0.76-1.76-1.14-4.358-1.14-7.796v-6.63v-1.166h0.026h0.479h2.87h0.505v1.104v6.63
		c0,0.368,0.088,0.716,0.266,1.044c0.177,0.327,0.479,0.531,0.903,0.613c0.514-0.041,0.854-0.205,1.023-0.49
		c0.168-0.287,0.253-0.676,0.253-1.167V46.82v-0.675v-0.123c0-0.614-0.045-1.299-0.134-2.057c-0.089-0.757-0.177-1.278-0.266-1.565
		c-0.514-1.923-1.063-3.826-1.647-5.709c-0.585-1.882-1.205-3.784-1.86-5.708c-1.612-4.624-2.418-8.41-2.418-11.356v-6.63
		c0-2.701,0.136-4.9,0.41-6.599s0.632-3.028,1.073-3.99c0.442-0.961,0.928-1.616,1.458-1.965c0.53-0.347,1.052-0.521,1.564-0.521
		h1.14C40.104-0.078,40.63,0.097,41.169,0.443z"/>
	<path d="M48.881,62.167h-0.505v-1.105V2.009V0.904h0.505h2.817h0.505v1.104V22.45h2.418V2.009V0.904H55.1l2.844-0.062h0.505v1.166
		v59.053v1.167h-0.505L55.1,62.167h-0.479v-1.105V31.29h-2.418v29.771v1.105h-0.505H48.881z"/>
	<path d="M171.851,0.536h0.479v1.166V48.97c0,2.659-0.138,4.839-0.412,6.537c-0.274,1.697-0.624,3.018-1.05,3.959
		c-0.425,0.941-0.903,1.586-1.435,1.934s-1.055,0.522-1.568,0.522h-1.143c-0.514,0-1.032-0.175-1.555-0.522
		s-1.001-0.992-1.436-1.934c-0.434-0.941-0.788-2.262-1.063-3.959c-0.275-1.698-0.412-3.878-0.412-6.537V1.702V0.536h0.505h2.844
		h0.479v1.166v49.906c0,0.573,0.044,0.962,0.133,1.167c0.088,0.204,0.257,0.307,0.505,0.307h1.143c0.248,0,0.416-0.103,0.505-0.307
		c0.089-0.205,0.133-0.594,0.133-1.167V1.702V0.536h0.505H171.851z"/>
	<path d="M186.401,27.3c-0.239,1.351-0.545,2.405-0.917,3.162s-0.789,1.269-1.249,1.534c-0.461,0.267-0.913,0.399-1.355,0.399
		h-2.365v28.359v1.167h-0.479h-2.844h-0.505v-1.167V1.702V0.536h0.505h5.688c0.442,0,0.895,0.133,1.355,0.398
		c0.46,0.267,0.877,0.778,1.249,1.535c0.372,0.758,0.678,1.811,0.917,3.161s0.358,3.091,0.358,5.218v11.233
		C186.76,24.211,186.641,25.949,186.401,27.3z M182.933,10.849c0-0.286-0.04-0.604-0.119-0.951c-0.08-0.348-0.342-0.521-0.784-0.521
		h-1.515v14.18l1.515,0.062c0.442,0,0.704-0.174,0.784-0.522c0.079-0.347,0.119-0.685,0.119-1.013V10.849z"/>
	<path d="M197.811,0.137c0.539,0.349,1.024,1.004,1.458,1.965c0.433,0.962,0.786,2.292,1.06,3.99
		c0.274,1.698,0.411,3.897,0.411,6.599v3.99v1.166h-0.501h-2.851h-0.475v-1.104v-6.63c0-0.082-0.014-0.204-0.04-0.368
		c-0.027-0.163-0.08-0.327-0.16-0.491c-0.079-0.163-0.199-0.307-0.358-0.43s-0.372-0.185-0.638-0.185
		c-0.479,0-0.807,0.164-0.983,0.491c-0.178,0.328-0.266,0.655-0.266,0.982v5.893c0,0.123,0.021,0.522,0.065,1.197
		c0.045,0.675,0.208,1.545,0.49,2.609c0.477,1.841,0.996,3.643,1.562,5.401c0.564,1.76,1.155,3.54,1.772,5.341
		c1.588,4.584,2.382,8.369,2.382,11.356v9.883c0,3.438-0.375,6.036-1.126,7.796c-0.751,1.759-1.878,2.64-3.38,2.64h-1.14
		c-1.484,0-2.606-0.881-3.366-2.64c-0.76-1.76-1.14-4.358-1.14-7.796v-6.63v-1.166h0.026h0.479h2.87h0.505v1.104v6.63
		c0,0.368,0.088,0.716,0.266,1.044c0.177,0.327,0.479,0.531,0.903,0.613c0.514-0.041,0.854-0.205,1.023-0.49
		c0.168-0.287,0.253-0.676,0.253-1.167v-5.218v-0.675v-0.123c0-0.614-0.045-1.299-0.134-2.057c-0.089-0.757-0.177-1.278-0.266-1.565
		c-0.514-1.923-1.063-3.826-1.647-5.709c-0.585-1.882-1.205-3.784-1.86-5.708c-1.612-4.624-2.418-8.41-2.418-11.356v-6.63
		c0-2.701,0.136-4.9,0.41-6.599s0.632-3.028,1.073-3.99c0.442-0.961,0.928-1.616,1.458-1.965c0.53-0.347,1.052-0.521,1.564-0.521
		h1.14C196.746-0.385,197.271-0.21,197.811,0.137z"/>
</g>
<g id="Clothes_Swap">
</g>
</svg>
