<?xml version="1.0" encoding="utf-8"?>
<!-- Generator: Adobe Illustrator 16.0.0, SVG Export Plug-In . SVG Version: 6.00 Build 0)  -->
<!DOCTYPE svg PUBLIC "-//W3C//DTD SVG 1.1//EN" "http://www.w3.org/Graphics/SVG/1.1/DTD/svg11.dtd">
<svg version="1.1" xmlns="http://www.w3.org/2000/svg" xmlns:xlink="http://www.w3.org/1999/xlink" x="0px" y="0px"
	 width="209.759px" height="62.361px" viewBox="0 0 209.759 62.361" enable-background="new 0 0 209.759 62.361"
	 xml:space="preserve">
<g id="Layer_1">
</g>
<g id="Hat">
</g>
<g id="Compliments">
</g>
<g id="HAT">
</g>
<g id="speech">
</g>
<g id="TREX_ARMS">
</g>
<g id="Layer_7">
</g>
<g id="TIMEOUT">
</g>
<g id="Layer_9">
</g>
<g id="ARM_WRESTLE">
</g>
<g id="musical_chairs">
</g>
<g id="never_have_i_ever">
</g>
<g id="Trivia">
</g>
<g id="Layer_14">
</g>
<g id="Layer_15">
</g>
<g id="Layer_16">
</g>
<g id="Layer_17">
</g>
<g id="Layer_18">
	<g>
		<path d="M75.438,17.655c0.874,0.874,1.311,2.132,1.311,3.772v7.015h-1.15V21.52c0-1.35-0.341-2.377-1.023-3.082
			s-1.637-1.059-2.863-1.059c-1.411,0-2.522,0.423-3.335,1.266c-0.813,0.844-1.219,1.978-1.219,3.404v6.394h-1.15V11.376h1.15v7.567
			c0.414-0.828,1.027-1.468,1.84-1.921c0.813-0.452,1.771-0.678,2.875-0.678C73.375,16.345,74.563,16.781,75.438,17.655z"/>
		<path d="M92.848,22.716H82.521c0.031,0.935,0.268,1.767,0.713,2.495s1.047,1.292,1.806,1.69c0.759,0.398,1.614,0.598,2.564,0.598
			c0.782,0,1.506-0.142,2.174-0.425c0.667-0.284,1.222-0.702,1.667-1.254l0.667,0.759c-0.521,0.629-1.177,1.112-1.967,1.449
			c-0.79,0.338-1.645,0.506-2.564,0.506c-1.196,0-2.262-0.261-3.197-0.782c-0.936-0.521-1.667-1.241-2.197-2.161
			c-0.529-0.921-0.793-1.971-0.793-3.151c0-1.165,0.249-2.212,0.748-3.14c0.498-0.928,1.185-1.652,2.059-2.174
			c0.874-0.521,1.855-0.781,2.944-0.781c1.088,0,2.066,0.257,2.933,0.771c0.866,0.514,1.548,1.23,2.047,2.15
			c0.498,0.92,0.748,1.963,0.748,3.128L92.848,22.716z M84.867,17.92c-0.675,0.376-1.215,0.905-1.622,1.587
			c-0.406,0.683-0.641,1.453-0.702,2.312h9.2c-0.046-0.858-0.276-1.625-0.69-2.3s-0.958-1.204-1.633-1.587
			c-0.675-0.384-1.434-0.575-2.277-0.575S85.541,17.544,84.867,17.92z"/>
		<path d="M104.761,17.482c0.797,0.76,1.196,1.875,1.196,3.347v7.613h-1.104v-2.139c-0.383,0.705-0.943,1.253-1.679,1.645
			c-0.736,0.391-1.618,0.586-2.645,0.586c-1.334,0-2.389-0.313-3.163-0.942c-0.774-0.629-1.162-1.457-1.162-2.484
			c0-0.997,0.356-1.806,1.069-2.427c0.713-0.621,1.852-0.932,3.416-0.932h4.117v-0.966c0-1.119-0.303-1.97-0.909-2.553
			c-0.605-0.583-1.491-0.874-2.656-0.874c-0.797,0-1.561,0.138-2.289,0.414c-0.729,0.275-1.346,0.644-1.852,1.104l-0.575-0.828
			c0.598-0.536,1.318-0.954,2.162-1.253s1.725-0.448,2.645-0.448C102.821,16.345,103.964,16.724,104.761,17.482z M103.231,26.901
			c0.698-0.46,1.223-1.127,1.576-2.001v-2.254h-4.094c-1.181,0-2.036,0.215-2.565,0.644c-0.529,0.43-0.793,1.021-0.793,1.771
			c0,0.782,0.291,1.399,0.874,1.852c0.583,0.452,1.403,0.679,2.461,0.679C101.687,27.592,102.534,27.361,103.231,26.901z"/>
		<path d="M122.585,11.376v17.066h-1.127v-2.829c-0.476,0.936-1.143,1.656-2.001,2.162c-0.859,0.506-1.833,0.759-2.921,0.759
			c-1.12,0-2.131-0.261-3.036-0.782c-0.905-0.521-1.614-1.241-2.127-2.161c-0.514-0.921-0.771-1.971-0.771-3.151
			s0.257-2.234,0.771-3.162s1.223-1.648,2.127-2.162s1.917-0.771,3.036-0.771c1.073,0,2.036,0.253,2.886,0.759
			c0.851,0.506,1.522,1.211,2.013,2.116v-7.844H122.585z M119.078,26.855c0.728-0.429,1.303-1.027,1.725-1.794
			c0.421-0.767,0.632-1.641,0.632-2.622s-0.211-1.855-0.632-2.622c-0.422-0.767-0.997-1.364-1.725-1.794
			c-0.729-0.429-1.553-0.645-2.473-0.645s-1.744,0.216-2.472,0.645c-0.729,0.43-1.304,1.027-1.725,1.794
			c-0.422,0.767-0.633,1.641-0.633,2.622s0.211,1.855,0.633,2.622c0.421,0.767,0.997,1.365,1.725,1.794
			c0.728,0.43,1.552,0.644,2.472,0.644S118.35,27.285,119.078,26.855z"/>
		<path d="M128.911,28.098c-0.874-0.291-1.556-0.659-2.047-1.104l0.528-0.92c0.491,0.414,1.123,0.759,1.898,1.035
			c0.773,0.276,1.583,0.414,2.426,0.414c1.211,0,2.105-0.199,2.68-0.598c0.575-0.399,0.863-0.951,0.863-1.656
			c0-0.506-0.158-0.904-0.473-1.196c-0.314-0.291-0.701-0.506-1.16-0.644c-0.461-0.139-1.098-0.284-1.91-0.438
			c-0.95-0.168-1.717-0.353-2.299-0.552c-0.584-0.199-1.082-0.521-1.496-0.966s-0.621-1.059-0.621-1.84
			c0-0.951,0.395-1.737,1.186-2.357c0.789-0.621,1.912-0.932,3.369-0.932c0.766,0,1.525,0.107,2.277,0.321
			c0.75,0.215,1.363,0.499,1.84,0.852l-0.529,0.92c-0.491-0.353-1.051-0.621-1.68-0.805c-0.629-0.185-1.272-0.276-1.932-0.276
			c-1.119,0-1.963,0.207-2.529,0.621c-0.568,0.414-0.852,0.958-0.852,1.633c0,0.537,0.161,0.954,0.482,1.254
			c0.322,0.299,0.717,0.521,1.186,0.667c0.467,0.146,1.123,0.303,1.967,0.471c0.935,0.169,1.689,0.35,2.265,0.541
			s1.062,0.502,1.46,0.932c0.399,0.43,0.599,1.02,0.599,1.771c0,0.997-0.414,1.794-1.241,2.393
			c-0.828,0.598-1.994,0.896-3.496,0.896C130.705,28.534,129.785,28.389,128.911,28.098z"/>
		<path d="M97.275,37.437v12.006h-1.104v-2.576c-0.399,0.844-0.989,1.499-1.771,1.967c-0.782,0.468-1.702,0.701-2.76,0.701
			c-1.564,0-2.791-0.437-3.68-1.311s-1.334-2.131-1.334-3.772v-7.015h1.15v6.923c0,1.35,0.345,2.377,1.035,3.082
			s1.664,1.058,2.921,1.058c1.349,0,2.419-0.421,3.208-1.265c0.79-0.843,1.185-1.978,1.185-3.404v-6.394H97.275z"/>
		<path d="M112.409,38.126c0.905,0.521,1.614,1.242,2.127,2.162s0.771,1.971,0.771,3.151s-0.257,2.235-0.771,3.162
			c-0.514,0.929-1.223,1.648-2.127,2.162s-1.917,0.771-3.036,0.771c-1.058,0-2.016-0.249-2.875-0.747s-1.526-1.192-2.001-2.082
			v7.199h-1.15V37.437h1.104v2.829c0.475-0.92,1.146-1.637,2.013-2.15c0.866-0.514,1.836-0.771,2.909-0.771
			C110.492,37.345,111.504,37.605,112.409,38.126z M111.788,47.855c0.736-0.429,1.314-1.027,1.737-1.794
			c0.421-0.767,0.632-1.641,0.632-2.622s-0.211-1.855-0.632-2.622c-0.422-0.767-1-1.364-1.737-1.794
			c-0.736-0.429-1.564-0.645-2.484-0.645s-1.745,0.216-2.473,0.645c-0.729,0.43-1.303,1.027-1.725,1.794s-0.632,1.641-0.632,2.622
			s0.21,1.855,0.632,2.622s0.997,1.365,1.725,1.794c0.728,0.43,1.553,0.644,2.473,0.644S111.052,48.285,111.788,47.855z"/>
	</g>
</g>
<g id="Layer_22">
</g>
<g id="Layer_19">
</g>
<g id="Layer_20">
</g>
<g id="Layer_21">
</g>
<g id="Layer_23">
</g>
<g id="Layer_24">
</g>
</svg>
