<?xml version="1.0" standalone="no"?>
<!DOCTYPE svg PUBLIC "-//W3C//DTD SVG 20010904//EN"
 "http://www.w3.org/TR/2001/REC-SVG-20010904/DTD/svg10.dtd">
<svg version="1.0" xmlns="http://www.w3.org/2000/svg"
 width="260.000000pt" height="260.000000pt" viewBox="0 0 260.000000 260.000000"
 preserveAspectRatio="xMidYMid meet">
<metadata>
Created by potrace 1.11, written by Peter Selinger 2001-2013
</metadata>
<g transform="translate(0.000000,260.000000) scale(0.100000,-0.100000)"
fill="#000000" stroke="none">
<path d="M270 2591 c-115 -36 -208 -139 -249 -277 -21 -68 -21 -77 -17 -1039
2 -533 5 -978 7 -987 2 -10 7 -18 12 -18 4 0 6 -4 2 -9 -3 -5 -1 -12 5 -16 6
-4 8 -11 5 -16 -4 -5 -3 -9 2 -9 9 0 39 -61 35 -73 -1 -5 2 -6 7 -3 11 7 24
-22 16 -35 -4 -5 1 -6 9 -3 9 3 20 -3 28 -15 7 -12 19 -21 27 -21 11 0 11 -3
1 -15 -11 -13 -10 -14 4 -9 9 3 23 0 32 -7 9 -7 23 -14 32 -16 9 -1 18 -7 20
-12 5 -14 2092 -15 2092 -1 0 5 7 7 15 4 8 -4 15 -1 15 6 0 7 8 10 19 7 15 -4
18 -1 13 12 -5 14 -4 14 11 2 15 -12 17 -12 11 2 -4 11 2 20 20 28 14 7 26 16
26 22 0 5 7 7 15 4 8 -4 17 -1 21 5 4 7 3 8 -4 4 -19 -11 -13 17 8 42 11 13
24 21 29 17 6 -3 8 3 6 14 -2 10 4 29 13 42 9 13 17 28 18 34 0 5 2 16 2 23 1
8 7 10 15 6 9 -6 9 -4 -1 8 -8 11 -9 18 -3 23 7 4 11 325 11 969 0 1001 -1
1018 -41 1089 -5 10 -7 23 -3 30 4 7 3 9 -1 4 -5 -4 -21 11 -35 33 -36 55 -90
103 -148 131 l-47 24 -1015 2 c-558 1 -1026 -2 -1040 -6z"/>
<path d="M2507 131 c-10 -14 -10 -14 4 -4 9 7 18 10 21 7 3 -3 8 -1 12 4 9 16
-24 9 -37 -7z"/>
</g>
</svg>
